<svg xmlns="http://www.w3.org/2000/svg" xmlns:xlink="http://www.w3.org/1999/xlink" viewBox="0 0 609.36 482.81"><defs><style>.cls-1{fill:none;}.cls-2{fill:#524740;}.cls-3{fill:#ef5c79;}.cls-4{fill:#ef898c;}.cls-5{fill:url(#未命名漸層_23);}.cls-6{fill:url(#未命名漸層_23-2);}.cls-7{fill:#e9ec8e;}.cls-8{fill:#717787;}.cls-9{fill:url(#未命名漸層_23-3);}.cls-10{fill:url(#未命名漸層_23-4);}.cls-11{clip-path:url(#clip-path);}.cls-12{fill:#fbc5cf;}.cls-13{fill:#e69dc2;}.cls-14{fill:#2c112f;}.cls-15{fill:#e84e58;}.cls-16{fill:#fff;}.cls-17{fill:#80685d;}.cls-18{fill:#ded3be;}</style><linearGradient id="未命名漸層_23" x1="3358.25" y1="280.4" x2="3444.1" y2="280.4" gradientTransform="translate(-2880.2 318.1) rotate(-5.79)" gradientUnits="userSpaceOnUse"><stop offset="0.01" stop-color="#e091a1"/><stop offset="1" stop-color="#f8cf7e"/></linearGradient><linearGradient id="未命名漸層_23-2" x1="3323.47" y1="280.4" x2="3377.42" y2="280.4" xlink:href="#未命名漸層_23"/><linearGradient id="未命名漸層_23-3" x1="3378.64" y1="132.91" x2="3475.28" y2="132.91" xlink:href="#未命名漸層_23"/><linearGradient id="未命名漸層_23-4" x1="3323.14" y1="128.63" x2="3430.84" y2="128.63" xlink:href="#未命名漸層_23"/><clipPath id="clip-path"><path class="cls-1" d="M422.48,275.35c.13-26.39.27-52.77-.05-79.16-.57-46.92-2.36-93.82-6.51-140.55-93.68,3.88-216.23,24.19-257.82,49.81s-55.48,78.85-56.79,121.79,5.41,176.32,5.41,176.32-2.58,8.15,5.5,9.58S146,415.7,146,415.7s3.3,1.11,3.63-6.81,7.62-34.1,24.56-34.69c0,0,31.22-3.18,38.3,10.75s6.3,17.39,6.3,17.39-.78,3.45,1.46,3.23l42.64-4.33,115.79-9.48s4.71,1.77,5.27-3.92,8.84-35.82,27.68-40c6.91-1.53,13.51-3,18.9-1.8C426.05,322.23,422.36,299.65,422.48,275.35Z"/></clipPath></defs><title>資產 10</title><g id="圖層_2" data-name="圖層 2"><g id="圖層_1-2" data-name="圖層 1"><path class="cls-2" d="M253.43,402.19s-3.78,19.6,13.63,23.86,30.31-5.48,32.52-14.14-1.38-13.58-1.38-13.58Z"/><path class="cls-2" d="M399.91,368.25S381.32,387,388.79,405.53s20.5,18.42,31.8,19.68,36-12.09,39.88-29.35-2.15-39.56-24.64-40.9A47.51,47.51,0,0,0,399.91,368.25Z"/><path class="cls-2" d="M171,384.9s-21.42,8.57-24,22.89,5.59,35.23,22.28,39.93,32.49.54,43.11-14.6,4.31-37.51-12.64-44.74S171,384.9,171,384.9Z"/><path class="cls-3" d="M537.94,210c1.2-.12,22.13-1.64,22.6-8.92S547.39,95.09,540.33,85s-16.52-44.13-116.15-40S194.16,70.64,149.93,98,91,182.35,89.61,228.29s5.87,188.64,5.87,188.64-2.73,8.72,5.86,10.26S145,430,145,430s6.2,1.78,6.55-6.69S160.94,385,179,384.36c0,0,21.48-2.17,29,12.73s6.71,18.61,6.71,18.61-.83,3.7,1.56,3.45l45.33-4.59L384.7,404.48s5,1.91,5.6-4.18,2.75-35.64,22.79-40.08,38.74.37,45.55,12.66c5.92,10.7-.42,30.49,10.93,35.36s51.76.47,70.85-1.47,58.22-8.31,67.14-27.3c0,0,2.39-.24,1.66-7.4l-3.63-35.79s-.24-2.38-5.25-4.29-17.19-3.07-17.19-3.07,1.89-17.07-12.08-24.09a112.8,112.8,0,0,0-26.27-9.39Z"/><polygon class="cls-4" points="439.48 148.22 545.19 144.73 556.24 194.24 442.53 202.15 439.48 148.22"/><path class="cls-4" d="M443,206.92l115-6.84s.37,3.58-5.48,5.38-16.46,4.08-16.46,4.08l6.33,86.14-90.68,9.19Z"/><path class="cls-4" d="M526,299.76,545,297.82s25,8.32,29.38,16.31a43.69,43.69,0,0,1,5.15,15.15l.61,6s16.7-1.69,19.45,1.65,6,23.5,6.72,30.65-1.54,8.6-1.54,8.6-28.13,19.72-48.29,23S499,402.53,476.45,394c0,0-1.32-1.07-1.68-4.65l-3.39-33.4s-1.55-3.46,4.41-4.07,40.45-5.3,40.45-5.3-.87-20.4-3.86-26.13a27,27,0,0,0-12.9-8.33c-8.71-2.74-31.86-5.21-31.86-5.21l45.21-5.79,26,7s6.21,1.79,7.06,10.14a80.5,80.5,0,0,0,2.64,14.19l6-.6s-.62-18-5.88-22.31S539.56,303.2,526,299.76Z"/><path class="cls-4" d="M452.23,309.65s36.64,4.72,43,7.69,8.6,1.54,11.83,9.65a63.44,63.44,0,0,1,4,15.27l-41.76,4.23s.94-14.55-1.57-15.51S455,325,453.44,321.58,452.23,309.65,452.23,309.65Z"/><polygon class="cls-5" points="485.27 219.51 515.1 216.49 525.35 293.8 500.3 296.33 485.27 219.51"/><polygon class="cls-6" points="450.68 223.02 481.69 219.88 496.72 296.7 458.54 300.57 450.68 223.02"/><path class="cls-7" d="M494.43,369.25s-.1,10.86,4.91,12.76,13.12-1.33,14.78-8.73-1.33-13.12-6.46-16.22S496,360.66,494.43,369.25Z"/><path class="cls-7" d="M583.18,353s-2.73,8.71,1.34,13.12,8.59,1.54,11.93-1.21,2.49-11.1-.26-14.44S586.28,347.88,583.18,353Z"/><path class="cls-8" d="M171.18,408.66s-2.73,8.71.38,15.63,16.36,6.78,19.45,1.64,4.51-14.92-.62-18S179.17,404.23,171.18,408.66Z"/><path class="cls-8" d="M414.44,382.78s-2.73,8.72.38,15.64,16.36,6.77,19.45,1.64,4.52-14.92-.62-18S422.43,378.36,414.44,382.78Z"/><path class="cls-4" d="M422.67,276.42c.11-26.43.24-52.85-.1-79.28-.6-47-2.4-94-6.57-140.77-93.25,3.83-215.24,24.09-256.63,49.72S104.19,185,102.91,228s5.49,176.6,5.49,176.6-2.56,8.16,5.49,9.6,33.64,2.58,33.64,2.58,3.29,1.11,3.61-6.82,7.57-34.14,24.43-34.73c0,0,31.09-3.16,38.14,10.79S220,403.48,220,403.48s-.77,3.46,1.46,3.24l42.44-4.31L379.16,393s4.69,1.78,5.24-3.92,8.78-35.87,27.54-40c6.87-1.53,13.45-3,18.81-1.79C426.25,323.38,422.57,300.76,422.67,276.42Z"/><path class="cls-4" d="M413.8,49.58s57.75-1,70.29,3.72,38.07,7,46.58,31.43,14,55.23,14,55.23L437.8,143.57s-3-64.79-22.06-74.91-26.87-15.35-26.87-15.35a4.43,4.43,0,0,1,3.34-2.75C394.59,50.32,413.8,49.58,413.8,49.58Z"/><path class="cls-9" d="M498.64,137.4l36.16-.05s.31-32.58-9.49-46S491.4,77.87,491.4,77.87Z"/><path class="cls-10" d="M443.28,138.19l50.59-.31-8.55-60.6-31.39-.44S437,76.15,437.25,90.59,443.28,138.19,443.28,138.19Z"/><g class="cls-11"><path class="cls-12" d="M320,257.56s-20,44.7-24.9,56.88-14.68,34.25-15.62,52.63.19,22.08,2.47,24.39,8.89,7,12.65,6.34,6.6-5.5,7.56-8.64,1.87-6.8,1.87-6.8,3.75,1.74,4.93,1.62,4.59-.13,5.3-3.25-.51-5-2.3-5.86a12.58,12.58,0,0,1-3.68-2.21c-.64-.7.07-2.48.85-4.28s5.57-11.17,5.57-11.17,1,0,1.45,1.64,6.93,13.11,8.56,14.9,2.73,1.75,2.91,3.51,2,47.63,3,52-.6,3.28-2.53,4.41a30.43,30.43,0,0,0-12.16,16.22c-3.17,9.88,10.35,9.61,11.4,9.85s29.79-1.84,33.55-3.41,12.64-5.59,13.16-13.1-.14-47.52-.14-47.52a1.89,1.89,0,0,1,1.75-2.28c2.1-.14,25.59-2.84,25.59-2.84a1.83,1.83,0,0,1,1.55,1.43c.19,1.25,8.22,45.35,8.71,46.82s3.89,8.07,12.67,9.89,37.22-2.59,37.22-2.59,8.7-3.33,8.3-8-1.11-6.59-4.24-9.7-13.51-8.48-13.51-8.48a9.67,9.67,0,0,1-.78-4c-.18-3-7.18-52.48-7.18-52.48s2.34-4.69,3.62-8,3.66-10.87,3.56-12.73,1.15-1.68,1.55-.89,9.07,11.33,9.84,12,2,1.32,1.25,2.22-5.09,4.64-5.09,6.48c0,0-.37,5.18,4.64,4.8s5-2.6,5-2.6.94-.22,1.45,1.7,6.62,11.71,10,12,12.15-4.28,13.39-9.68.19-15.19-1.43-19.79-18.48-44.23-34.45-63.18-21.58-31.34-24.91-36.46l-1.84-3Z"/><path class="cls-13" d="M355.3,365s9.83,10,23.13,10.71,27.94-5.56,31.56-16.25,4.35-41.14-14.89-51.17-35.84.13-38.69,3.93S346.36,326.1,348,339.08,351.78,359.33,355.3,365Z"/><path class="cls-12" d="M463.11,108.42c-21-31-54.2-44.88-81.2-46.26,5.59-20.43-.56-38.87-3.11-45.59C376,9.24,364.72-1.3,360.6.13c-3.72,1.29-5.61,53.13-5.94,63.44-3.94.55-7.92,1.23-11.91,2C340.91,57.88,328,4.38,324,3.84c-4.33-.57-13.28,12-14.53,19.76-1.23,7.54-3.77,28.83,8,48.79a179,179,0,0,0-24.64,10.29c-26.19,13.49-47.71,56.65-46.69,76.53S240.45,234,290.6,268.49c0,0,14.73,12.73,33.94,15.52s90.27-.35,113.16-16.89,37.64-31.59,42.11-59.47S484.19,139.47,463.11,108.42Z"/><ellipse class="cls-14" cx="309.92" cy="178.1" rx="13.68" ry="13.59" transform="translate(-16.39 32.17) rotate(-5.79)"/><ellipse class="cls-14" cx="423.67" cy="166.56" rx="13.68" ry="13.59" transform="translate(-14.64 43.59) rotate(-5.79)"/><ellipse class="cls-15" cx="311.85" cy="199.95" rx="13.68" ry="6.8" transform="translate(-18.58 32.48) rotate(-5.79)"/><ellipse class="cls-15" cx="426.63" cy="188.31" rx="13.68" ry="6.8" transform="translate(-16.82 44) rotate(-5.79)"/><path class="cls-16" d="M324.16,204.32s-6.56,8.31-1.81,14.35,12.94,9.16,23.74,9.48,47.46-1.7,58.43-7.9,16.39-18.09,10.71-25.16-30.82-13.87-46.72-11.4S331.45,194.52,324.16,204.32Z"/><path class="cls-14" d="M358.79,182.78s.65,6.47,5.17,9.43,11.1,2,13.64-1.38,3.7-11.79,1.68-14.13S357,174.14,358.79,182.78Z"/><path class="cls-14" d="M400.93,203.31a1.64,1.64,0,0,0-1.95-.16c-2,.82-14.08,3.68-17.09,1.89-3.62-2.15-8.18-8.68-8.86-14.2a.79.79,0,0,0,0-.13l0-.15-.06-.16s0-.09-.07-.14a.51.51,0,0,0-.09-.13l-.08-.13a1.14,1.14,0,0,1-.11-.11l-.11-.11-.13-.09a1.48,1.48,0,0,1-.13-.08l-.15-.06a.59.59,0,0,0-.14-.06l-.16,0-.16,0h-.38l-.14,0-.16,0-.15.06-.15.07-.13.09a1,1,0,0,0-.13.09l-.11.11-.11.11-.08.12-.09.14-.06.14-.06.15,0,.15a.9.9,0,0,0,0,.16.86.86,0,0,0,0,.16v.14c.45,5.54-2.71,12.85-5.83,15.68-2.59,2.36-15,2-17.12,1.58a1.64,1.64,0,0,0-1.87.55,1.62,1.62,0,0,0,.31,2.28c.78.59,7,1.06,12.65.5,3.49-.36,6.73-1.12,8.25-2.5,2.4-2.18,4.75-6.3,6-10.75,2.12,4.11,5.26,7.67,8,9.33,1.77,1.05,5.1,1.14,8.58.78,5.62-.56,11.66-2.29,12.3-3A1.62,1.62,0,0,0,400.93,203.31Z"/><path class="cls-17" d="M93.26,260.21s-22,49.2-27.4,62.61-16.16,37.7-17.2,57.94.22,24.3,2.72,26.84,9.78,7.68,13.93,7,7.27-6.05,8.32-9.51,2.06-7.48,2.06-7.48,4.13,1.91,5.43,1.78,5-.14,5.83-3.57-.57-5.54-2.53-6.46a13.93,13.93,0,0,1-4-2.43c-.71-.77.08-2.73.93-4.71s6.14-12.29,6.14-12.29,1.12-.05,1.59,1.79,7.63,14.45,9.42,16.41,3,1.93,3.21,3.87,2.22,52.43,3.27,57.26-.67,3.61-2.79,4.85a33.52,33.52,0,0,0-13.38,17.85c-3.49,10.89,11.39,10.59,12.54,10.85s32.8-2,36.94-3.75,13.91-6.16,14.48-14.42-.15-52.32-.15-52.32a2.07,2.07,0,0,1,1.93-2.5c2.3-.16,28.16-3.14,28.16-3.14a2,2,0,0,1,1.71,1.58c.21,1.38,9,49.92,9.59,51.54s4.27,8.89,13.95,10.89,41-2.85,41-2.85,9.57-3.67,9.14-8.85-1.23-7.26-4.67-10.68S238.47,439,238.47,439s-.67-1.12-.86-4.39-7.9-57.77-7.9-57.77,2.57-5.15,4-8.84,4-12,3.93-14,1.26-1.85,1.7-1,10,12.48,10.84,13.23,2.18,1.46,1.37,2.45-5.6,5.11-5.61,7.14c0,0-.4,5.7,5.11,5.28s5.48-2.86,5.48-2.86,1-.25,1.59,1.86,7.29,12.89,11,13.21,13.38-4.71,14.74-10.65.21-16.73-1.57-21.79S262,312.16,244.39,291.3,220.64,256.8,217,251.16l-2-3.29Z"/><path class="cls-18" d="M127,379.54s10.86,11.06,25.56,11.83,30.89-6.15,34.89-18,4.81-45.48-16.45-56.56-39.62.14-42.77,4.33-11.12,15.34-9.34,29.69S123.09,373.26,127,379.54Z"/><path class="cls-17" d="M246.27,73a116.52,116.52,0,0,0-22.54-24.21c4.27-3.16,8.87-9.72,4-16.22C220.57,22.94,211,22.8,203.85,28c-2.66,1.95-3.73,4-4,5.79A120.21,120.21,0,0,0,154.1,22.1c-30.65-1.38-71.14,8-100.88,23-1.7.86-3.38,1.83-5,2.89a10,10,0,0,0-4.52-3.7c-8-3.68-17.4-1.6-22.51,9.3C18.09,60.1,22.4,65.19,26.79,67.8,10.34,88.16-.71,114.92,0,129.82c1.09,22-6.69,82.66,50.09,120.7,0,0,16.68,14,38.46,17.07s102.39-.65,128.4-19,42.78-35,47.94-65.88S270.09,107.3,246.27,73Z"/><path class="cls-16" d="M87.8,195s-7.25,9.18-2,15.85,14.31,10.13,26.25,10.49,52.46-1.88,64.59-8.74,18.12-20,11.83-27.81-34.06-15.33-51.64-12.61S95.86,184.12,87.8,195Z"/><path class="cls-14" d="M126.08,171.14s.73,7.16,5.72,10.42,12.27,2.22,15.08-1.52,4.09-13,1.86-15.61S124.13,161.6,126.08,171.14Z"/><ellipse class="cls-16" cx="90.87" cy="153.18" rx="28.3" ry="28.12" transform="translate(-14.99 9.95) rotate(-5.79)"/><ellipse class="cls-16" cx="176.49" cy="143.37" rx="28.3" ry="28.12" transform="translate(-13.56 18.54) rotate(-5.79)"/><ellipse class="cls-14" cx="98.81" cy="152.11" rx="15.09" ry="15" transform="translate(-14.84 10.74) rotate(-5.79)"/><ellipse class="cls-14" cx="169.73" cy="146.04" rx="15.09" ry="15" transform="translate(-13.87 17.87) rotate(-5.79)"/><path class="cls-14" d="M177.34,96.21s-35.27,19.28-35.48,28.27,72.45-19.68,69.54-26.11S177.34,96.21,177.34,96.21Z"/><path class="cls-14" d="M78,106.29s38.42,11.8,40.44,20.56-74.93-4.74-73.37-11.62S78,106.29,78,106.29Z"/></g></g></g></svg>