<svg id="圖層_1" data-name="圖層 1" xmlns="http://www.w3.org/2000/svg" xmlns:xlink="http://www.w3.org/1999/xlink" viewBox="0 0 726 546"><defs><style>.cls-1,.cls-6{fill:none;}.cls-2{clip-path:url(#clip-path);}.cls-3{fill:#929292;}.cls-4{opacity:0.8;}.cls-5{fill:#dbe4ea;}.cls-6{stroke:#dbe4ea;stroke-miterlimit:10;stroke-width:0.25px;}.cls-7{fill:#264458;}.cls-8{fill:#1d2c38;}.cls-9{font-size:53.85px;fill:#fcebb9;}.cls-10,.cls-9{font-family:AdobeFanHeitiStd-Bold, AdobeFanHeitiStd Bold-B5pc-H;font-weight:700;}.cls-10{font-size:28.19px;fill:#f2f4ba;}</style><clipPath id="clip-path"><path class="cls-1" d="M712.76,118.86,697.25,483.7c-.07.52-7.77,51.07-42.77,51.07-38.36,0-569.57-15.39-574.61-15.52-.66-.07-66.48-7.95-66.48-50.53,0-46.05,7.69-385,7.77-388.54,0-.26.2-25.91,17-40.71C46,32.51,56.42,29,69.14,29a78.32,78.32,0,0,1,9.81.64l575.47,7.8h.46l.44-.1c.23-.07,22.27-4.76,38.93,9.69C709.2,60,715.43,84.13,712.76,118.86Z"/></clipPath></defs><title>act_v1</title><g class="cls-2"><path class="cls-3" d="M712.76,118.86,697.25,483.7c-.07.52-7.77,51.07-42.77,51.07-38.36,0-569.57-15.39-574.61-15.52-.66-.07-66.48-7.95-66.48-50.53,0-46.05,7.69-385,7.77-388.54,0-.26.2-25.91,17-40.71C46,32.51,56.42,29,69.14,29a78.32,78.32,0,0,1,9.81.64l575.47,7.8h.46l.44-.1c.23-.07,22.27-4.76,38.93,9.69C709.2,60,715.43,84.13,712.76,118.86Z"/><g class="cls-4"><circle class="cls-5" cx="49.25" cy="55.51" r="5.47"/><circle class="cls-5" cx="76.04" cy="72.46" r="5.47"/><circle class="cls-5" cx="49.79" cy="71.37" r="5.47"/><circle class="cls-5" cx="74.94" cy="86.68" r="5.47"/><circle class="cls-5" cx="81.5" cy="101.99" r="5.47"/><circle class="cls-5" cx="244.51" cy="145.64" r="5.47"/><circle class="cls-5" cx="198.37" cy="97.86" r="5.47"/><circle class="cls-5" cx="271.09" cy="181.01" r="5.47"/><circle class="cls-5" cx="249.74" cy="205.24" r="5.47"/><circle class="cls-5" cx="117.39" cy="40.95" r="5.47"/><circle class="cls-5" cx="172.07" cy="47.2" r="5.47"/><circle class="cls-5" cx="155.77" cy="184.51" r="5.47"/><circle class="cls-5" cx="244.92" cy="70.41" r="5.47"/><circle class="cls-5" cx="263.51" cy="69.31" r="5.47"/><circle class="cls-5" cx="273.35" cy="49.63" r="5.47"/><circle class="cls-5" cx="237.27" cy="44.16" r="5.47"/><circle class="cls-5" cx="295.22" cy="3.71" r="5.47"/><circle class="cls-5" cx="352.09" cy="5.89" r="5.47"/><circle class="cls-5" cx="378.33" cy="-2.86" r="5.47"/><circle class="cls-5" cx="384.89" cy="22.29" r="5.47"/><circle class="cls-5" cx="366.3" cy="41.98" r="5.47"/><circle class="cls-5" cx="330.22" cy="80.25" r="5.47"/><circle class="cls-5" cx="313.81" cy="118.52" r="5.47"/><circle class="cls-5" cx="305.07" cy="140.39" r="5.47"/><circle class="cls-5" cx="320.37" cy="166.64" r="5.47"/><circle class="cls-5" cx="387.08" cy="187.41" r="5.47"/><circle class="cls-5" cx="450.5" cy="181.94" r="5.47"/><circle class="cls-5" cx="485.49" cy="187.41" r="5.47"/><circle class="cls-5" cx="512.83" cy="110.87" r="5.47"/><circle class="cls-5" cx="540.17" cy="83.53" r="5.47"/><circle class="cls-5" cx="590.47" cy="45.26" r="5.47"/><circle class="cls-5" cx="649.52" cy="-3.95" r="5.47"/><circle class="cls-5" cx="626.55" cy="69.31" r="5.47"/><circle class="cls-5" cx="612.34" cy="123.99" r="5.47"/><circle class="cls-5" cx="692.16" cy="102.12" r="5.47"/><circle class="cls-5" cx="683.41" cy="133.83" r="5.47"/><circle class="cls-5" cx="670.29" cy="68.22" r="5.47"/><circle class="cls-5" cx="484.4" cy="59.47" r="5.47"/><circle class="cls-5" cx="458.15" cy="64.94" r="5.47"/><circle class="cls-5" cx="431.91" cy="72.6" r="5.47"/><circle class="cls-5" cx="417.7" cy="99.93" r="5.47"/><circle class="cls-5" cx="396.92" cy="96.65" r="5.47"/><circle class="cls-5" cx="383.8" cy="127.27" r="5.47"/><circle class="cls-5" cx="408.95" cy="132.74" r="5.47"/><circle class="cls-5" cx="186.46" cy="209.42" r="5.47"/><circle class="cls-5" cx="375.05" cy="246.46" r="5.47"/><circle class="cls-5" cx="393.64" cy="336.13" r="5.47"/><circle class="cls-5" cx="354.27" cy="332.85" r="5.47"/><circle class="cls-5" cx="414.41" cy="230.06" r="5.47"/><circle class="cls-5" cx="441.75" cy="233.34" r="5.47"/><circle class="cls-5" cx="475.65" cy="238.81" r="5.47"/><circle class="cls-5" cx="490.96" cy="258.49" r="5.47"/><circle class="cls-5" cx="537.98" cy="240.99" r="5.47"/><circle class="cls-5" cx="531.42" cy="208.19" r="5.47"/><circle class="cls-5" cx="593.75" cy="180.85" r="5.47"/><circle class="cls-5" cx="636.39" cy="161.17" r="5.47"/><circle class="cls-5" cx="589.37" cy="208.19" r="5.47"/><circle class="cls-5" cx="624.36" cy="235.53" r="5.47"/><circle class="cls-5" cx="668.1" cy="237.71" r="5.47"/><circle class="cls-5" cx="680.13" cy="286.92" r="5.47"/><circle class="cls-5" cx="679.04" cy="321.91" r="5.47"/><circle class="cls-5" cx="683.41" cy="339.41" r="5.47"/><circle class="cls-5" cx="495.33" cy="293.48" r="5.47"/><circle class="cls-5" cx="537.98" cy="305.51" r="5.47"/><circle class="cls-5" cx="601.4" cy="306.6" r="5.47"/><circle class="cls-5" cx="531.42" cy="371.12" r="5.47"/><circle class="cls-5" cx="155.84" cy="225.83" r="5.47"/><circle class="cls-5" cx="108.82" cy="238.95" r="5.47"/><circle class="cls-5" cx="99.04" cy="196.11" r="5.55"/><circle class="cls-5" cx="51.35" cy="203.87" r="5.55"/><circle class="cls-5" cx="22.52" cy="187.24" r="5.55"/><circle class="cls-5" cx="45.4" cy="238.95" r="5.47"/><circle class="cls-5" cx="70.55" cy="264.1" r="5.47"/><circle class="cls-5" cx="110.42" cy="345.97" r="5.47"/><line class="cls-6" x1="50.89" y1="54.97" x2="76.04" y2="72.46"/><line class="cls-6" x1="48.7" y1="70.28" x2="73.85" y2="87.77"/><path class="cls-6" d="M197.05,98.68s46.65,45.65,47.46,47L212.3,181.19"/><path class="cls-6" d="M269,180.52c-3.76-3.13-23.88-32.5-23.88-32.5"/><polyline class="cls-6" points="270.35 184.21 249.74 205.24 213.8 181.16 186.18 179.23 155.77 184.51"/><polyline class="cls-6" points="263.51 69.31 246.02 69.31 242.74 68.22 238.36 43.07 274.45 48.54 295.23 3.71 352.09 3.71 376.14 -3.95 384.89 22.3 366.3 41.98 332.4 79.16 316 117.43 305.07 140.39 322.56 168.82 387.08 187.41 447.22 183.04 486.58 189.6"/><path class="cls-6" d="M482.21,58.38c-1.09,1.09-21.87,6.56-21.87,6.56L434.1,72.6,418.79,96.65l-10.94,37.18-24.05-6.56L398,94.47l16.4,5.46"/><polyline class="cls-6" points="649.51 -3.95 591.56 47.45 626.55 69.31 671.38 70.41 706.38 59.47"/><line class="cls-6" x1="612.34" y1="123.99" x2="626.55" y2="69.31"/><polyline class="cls-6" points="692.16 102.12 683.41 133.83 704.19 156.79"/><polyline class="cls-6" points="375.05 246.46 414.42 230.06 441.75 233.34 475.65 238.81 639.67 160.07"/><path class="cls-6" d="M477.84,242.09s12,18.59,14.21,18.59S538,241,538,241l-6.56-27.33"/><polyline class="cls-6" points="593.2 183.04 590.47 206 625.46 237.71 668.1 237.71"/><polyline class="cls-6" points="532.51 368.93 496.43 291.29 537.98 305.51 601.4 306.6"/><path class="cls-6" d="M683.41,339.41c-1.09-2.19-4.37-17.5-4.37-17.5l12-13.12-9.84-24.06,24-23"/><line class="cls-6" x1="355.37" y1="332.85" x2="393.64" y2="336.13"/><polyline class="cls-6" points="25.84 186.13 50.24 201.65 99.04 197.22 111.24 238.25 158.92 224.94 188.87 209.42"/><line class="cls-6" x1="45.4" y1="237.86" x2="50.87" y2="205.05"/><path class="cls-6" d="M70.55,263c1.1,0,38.27-24.06,38.27-24.06"/></g><path class="cls-7" d="M706.07,371.93v169.8H10l-.83-146.8S311.14,398.54,706.07,371.93Z"/><path class="cls-8" d="M9.17,385.73V539.81H705.25V446.67S404.11,409.88,9.17,385.73Z"/><path class="cls-8" d="M377,312c3.78-14.27,5.84-35.22-3.43-52.47A55.42,55.42,0,0,0,338.13,232c2.56-9.48,5.71-21.86,6.32-27.48,1.06-9.78,2.91-17.17-2.11-20.87s-9.11-2.11-10.24,0-7,38.38-7,42a38.45,38.45,0,0,1-.45,4.75c-2.92,0-5.95.05-9,.3a42.38,42.38,0,0,1-.49-5.05c0-3.66-5.84-39.93-7-42s-5.22-3.7-10.24,0-3.17,11.09-2.11,20.87c.62,5.75,3.9,18.56,6.49,28.12a94.2,94.2,0,0,0-15.42,4.52c-14.23,5.63-27.62,26.93-28.13,37.32S252,313,276.05,333.61a40,40,0,0,0,12.69,8.52c-3.84,6.75-11.15,19.63-13.45,24-3.17,6.08-9.37,17-10.82,26.55s-1.06,11.49,0,12.81,4.22,4.09,6.2,4,3.7-2.51,4.36-4.1,1.32-3.43,1.32-3.43a9.47,9.47,0,0,0,2.47,1.1c.61,0,2.37.18,2.9-1.41a2.47,2.47,0,0,0-.88-3.17,6.42,6.42,0,0,1-1.78-1.34c-.3-.4.16-1.29.66-2.18s3.46-5.51,3.46-5.51.53,0,.66.92a52.86,52.86,0,0,0,3.65,8.2c.75,1,1.32,1.06,1.32,2s-1.45,24.87-1.19,27.21-.48,1.67-1.54,2.15A15.85,15.85,0,0,0,279,437.7c-2.16,5,4.84,5.55,5.37,5.73s15.49.61,17.52,0,6.82-2.25,7.48-6.12,2.42-24.72,2.42-24.72a1,1,0,0,1,1-1.09c1.08,0,13.37-.13,13.37-.13a.94.94,0,0,1,.72.82c0,.66,1.87,24,2.05,24.81a8.94,8.94,0,0,0,6,5.81c4.45,1.41,19.37.62,19.37.62s4.66-1.28,4.71-3.75-.23-3.48-1.69-5.27-6.53-5.11-6.53-5.11a5,5,0,0,1-.2-2.12c.07-1.55-1-27.66-1-27.66s1.45-2.31,2.29-4,2.47-5.45,2.51-6.42.68-.82.85-.39,4.09,6.37,4.45,6.77,1,.79.53,1.22-2.87,2.15-3,3.1c0,0-.46,2.68,2.15,2.74s2.7-1.09,2.7-1.09.5-.06.66,1,2.81,6.44,4.56,6.77,6.5-1.58,7.43-4.32a24.16,24.16,0,0,0,.3-10.37c-.6-2.48-7.23-24-14.5-34.67a104.34,104.34,0,0,1-10.07-18.35c.57-.26,1.11-.53,1.61-.82C364.83,333.26,373.24,326.22,377,312Z"/><path class="cls-8" d="M504.77,260.54c-5-4.41-20.49-19.56-24.51-17A52.73,52.73,0,0,0,464,238.21c-13.61-2.07-32,.26-46.12,5.65-3.43-3.76-19.68,12.14-24.83,16.68-7.25,6.41-25.88,47.09-16.9,60.37,2.85,4.21,7.69-.31,13-8.46a50.15,50.15,0,0,0,17,28.23,39.86,39.86,0,0,0,13.61,8.88c-2.86,5-12.34,21.68-15,26.82-3.17,6.07-9.38,17-10.83,26.54s-1.06,11.49,0,12.81,4.22,4.1,6.21,4,3.69-2.51,4.35-4.09,1.32-3.43,1.32-3.43a9.47,9.47,0,0,0,2.47,1.1c.61,0,2.38.17,2.9-1.41a2.47,2.47,0,0,0-.88-3.17,6.79,6.79,0,0,1-1.78-1.34c-.3-.4.17-1.29.66-2.18s3.47-5.52,3.47-5.52.53,0,.66.93a52.25,52.25,0,0,0,3.64,8.2c.75,1,1.32,1.05,1.32,2S416.75,435.63,417,438s-.48,1.67-1.54,2.16a15.89,15.89,0,0,0-7.13,7.79c-2.16,5,4.84,5.55,5.37,5.72s15.5.62,17.52,0,6.82-2.24,7.48-6.12,2.43-24.71,2.43-24.71-.07-1.13,1-1.09,13.37-.13,13.37-.13a1,1,0,0,1,.73.82c0,.66,1.87,24,2,24.81a9,9,0,0,0,6,5.81c4.45,1.4,19.37.61,19.37.61s4.67-1.27,4.71-3.74-.23-3.49-1.68-5.27-6.54-5.12-6.54-5.12a5.19,5.19,0,0,1-.2-2.11c.07-1.55-.95-27.67-.95-27.67s1.45-2.31,2.28-4,2.47-5.46,2.51-6.43.69-.81.85-.38,4.09,6.37,4.46,6.77,1,.79.53,1.22-2.88,2.14-3,3.1c0,0-.46,2.67,2.15,2.74s2.71-1.09,2.71-1.09.49-.06.66,1,2.8,6.44,4.55,6.77,6.51-1.59,7.43-4.33a24,24,0,0,0,.3-10.36c-.6-2.48-7.23-24-14.49-34.67s-9.51-17.43-11-20.27l-.24-.48a22.79,22.79,0,0,0,3.39-1.56c12.69-7.4,21.1-14.44,24.87-28.7.56-2.12,1.08-4.37,1.53-6.74,5.33,8.24,10.22,12.86,13.09,8.62C530.66,307.63,512,267,504.77,260.54Z"/><path class="cls-8" d="M248.84,305c3.88-14.26,6-35.21-3.52-52.47a55.24,55.24,0,0,0-5.31-7.92l.26-.1a9.85,9.85,0,0,0,7.62-8c1-5.36-1-12.71-7.07-13.83-3.44-2.23-8.3-1.15-11.74.67a12.1,12.1,0,0,0-2.1,1.42,7.36,7.36,0,0,0-3.34,4.71,7.81,7.81,0,0,0-.34,1.1,55.81,55.81,0,0,0-18.65-6.43c-14.27-2.11-33.63.36-48.25,6l-1.08.45a7.12,7.12,0,0,0-.34-1.11,7.36,7.36,0,0,0-3.34-4.71,11.73,11.73,0,0,0-2.1-1.42c-3.44-1.82-8.3-2.9-11.74-.67-6,1.12-8,8.47-7.07,13.83a9.85,9.85,0,0,0,7.62,8l.21.08c-6.35,8-10.74,17.13-11,22.91-.53,10.39-7,38.56,17.69,59.16a40.54,40.54,0,0,0,15.58,9.42c-3.51,6.16-11.77,20.71-14.25,25.45-3.17,6.08-9.37,17-10.83,26.54s-1.05,11.49,0,12.81,4.23,4.1,6.21,4,3.7-2.51,4.36-4.1,1.32-3.43,1.32-3.43a9.47,9.47,0,0,0,2.47,1.1c.61,0,2.37.18,2.9-1.41a2.47,2.47,0,0,0-.88-3.17,6.62,6.62,0,0,1-1.78-1.34c-.3-.4.16-1.29.66-2.18s3.46-5.51,3.46-5.51.53,0,.66.92a52.86,52.86,0,0,0,3.65,8.2c.74,1,1.32,1.06,1.32,2s-1.46,24.87-1.19,27.2-.49,1.68-1.54,2.16a15.85,15.85,0,0,0-7.13,7.79c-2.16,5,4.84,5.55,5.37,5.72s15.49.62,17.52,0,6.82-2.24,7.48-6.11S183,408,183,408a1,1,0,0,1,1-1.09c1.09,0,13.38-.13,13.38-.13a.94.94,0,0,1,.72.82c0,.66,1.87,24,2,24.81a8.92,8.92,0,0,0,6,5.81c4.44,1.41,19.37.61,19.37.61s4.66-1.27,4.71-3.74-.23-3.49-1.69-5.27-6.53-5.12-6.53-5.12a5,5,0,0,1-.2-2.11c.06-1.55-1-27.66-1-27.66s1.45-2.32,2.29-4,2.47-5.46,2.51-6.42.68-.82.85-.39,4.09,6.37,4.45,6.77,1,.79.53,1.22-2.87,2.15-3,3.1c0,0-.46,2.68,2.15,2.74s2.7-1.09,2.7-1.09.5-.06.66,1,2.81,6.44,4.56,6.77,6.5-1.59,7.43-4.33a24.12,24.12,0,0,0,.3-10.36c-.6-2.48-7.23-24-14.5-34.67s-9.51-17.43-11-20.27l0-.06a18.45,18.45,0,0,0,2.44-1.16C236.34,326.33,245,319.28,248.84,305Z"/><path class="cls-8" d="M643,340.89c3.55-13.41,5.49-33.11-3.22-49.33a49.23,49.23,0,0,0-3-4.88c.06-.5,0-1,0-1.45a26.39,26.39,0,0,0-.17-3,2.61,2.61,0,0,0,.16-.83,118.25,118.25,0,0,0-1.94-25.89c0-.1,0-.19-.07-.28a2.86,2.86,0,0,0-2-2.88c-1.86-.64-4,.61-5.28,1.84l-.27.27a22.09,22.09,0,0,0-2.59,1.47,15.4,15.4,0,0,0-3.42,3.32c-3.24,2.16-8.31,5.72-10.88,7.53a48.17,48.17,0,0,0-7.89-1.93c-9.45-1.44-21.35-.61-32.28,2-3.38-2.38-11.16-7.84-13.33-9.11a14.23,14.23,0,0,0-1.58-1.28,22,22,0,0,0-2.59-1.46l-.27-.27c-1.3-1.23-3.41-2.48-5.27-1.84a2.84,2.84,0,0,0-2,2.87,2.29,2.29,0,0,0-.07.28,118.3,118.3,0,0,0-1.95,25.89,3.85,3.85,0,0,0,.07.52c-6.52,7.83-11.13,17.33-11.42,23.17-.49,9.77-6.46,36.26,16.21,55.63a37.51,37.51,0,0,0,13,8.41c-3.61,6.34-10.47,18.44-12.63,22.58-3,5.71-8.82,16-10.18,25s-1,10.8,0,12.05,4,3.85,5.83,3.72,3.48-2.36,4.1-3.85,1.24-3.23,1.24-3.23a8.91,8.91,0,0,0,2.32,1c.58,0,2.24.16,2.73-1.33a2.33,2.33,0,0,0-.82-3,6.12,6.12,0,0,1-1.68-1.26c-.28-.37.15-1.21.62-2.05s3.26-5.18,3.26-5.18.5,0,.62.87a49.79,49.79,0,0,0,3.43,7.71c.7.95,1.24,1,1.24,1.86S559.72,448,560,450.16s-.45,1.57-1.45,2a14.86,14.86,0,0,0-6.7,7.33c-2,4.67,4.55,5.21,5,5.38s14.57.58,16.47,0,6.42-2.11,7-5.76,2.27-23.24,2.27-23.24a.92.92,0,0,1,1-1c1,0,12.57-.13,12.57-.13a.9.9,0,0,1,.68.78c0,.62,1.76,22.58,1.93,23.32a8.39,8.39,0,0,0,5.67,5.47c4.18,1.32,18.21.58,18.21.58s4.39-1.2,4.43-3.52-.21-3.28-1.58-5-6.15-4.81-6.15-4.81a4.73,4.73,0,0,1-.18-2c.06-1.46-.9-26-.9-26s1.36-2.18,2.15-3.75,2.32-5.13,2.36-6,.64-.77.79-.37,3.85,6,4.2,6.37.9.74.49,1.15-2.7,2-2.79,2.91c0,0-.44,2.52,2,2.58s2.54-1,2.54-1,.47-.06.62.9,2.64,6.05,4.29,6.36,6.11-1.49,7-4.06a22.55,22.55,0,0,0,.28-9.75c-.56-2.33-6.8-22.54-13.63-32.6a100.59,100.59,0,0,1-9.79-18c.27-.14.54-.28.79-.43C631.54,360.93,639.45,354.3,643,340.89Z"/><text class="cls-9" transform="translate(88.42 113.62)">星空下的相遇</text><text class="cls-10" transform="translate(89.78 144.24)"><tspan xml:space="preserve">2019.05.07  14:00PM</tspan></text></g></svg>