<svg xmlns="http://www.w3.org/2000/svg" viewBox="0 0 1921 508.62"><defs><style>.cls-1{fill:#4d9cde;}.cls-2{fill:#c3e5ff;}.cls-3{opacity:0.6;}.cls-4{fill:#b6dbf8;}.cls-5{fill:#c995b7;}.cls-6{fill:#96bde9;}.cls-7{fill:#b8bbd6;}.cls-8{fill:#a1d6ff;}.cls-9{fill:#9ea5d8;}.cls-10{fill:#8288b8;}.cls-11{fill:#b1b5dc;}.cls-12{fill:#c9c6e5;}.cls-13{fill:#7cb9ea;}.cls-14{fill:#b2dafb;}.cls-15{fill:#dfcf7d;}.cls-16{fill:#3d9ae6;}.cls-17{fill:#d5ecfa;}.cls-18{fill:#a0dcff;}.cls-19{fill:#51a5d6;}.cls-20{fill:#97ade6;}.cls-21{fill:#5996c6;}.cls-22{fill:#549bdd;}.cls-23{fill:#aad7fa;}.cls-24{fill:#7eb3eb;}.cls-25{fill:#d6f3ff;}.cls-26{fill:#917d90;}.cls-27{fill:#5086c5;}.cls-28{fill:#71b5f4;}.cls-29{fill:#1275b5;}.cls-30{fill:#b6d7fa;}.cls-31{fill:#7cbaeb;}.cls-32{fill:#fff;}.cls-33{fill:#0066a7;}.cls-34{fill:#98d4fa;}.cls-35{fill:#a36464;}.cls-36{fill:#b2a0b2;}.cls-37{fill:#558bcb;}.cls-38{fill:#fffbee;}.cls-39{fill:#83abdb;}.cls-40{fill:#cbab55;}.cls-41{fill:#aedafe;}.cls-42{fill:#d3f1fe;}.cls-43{fill:#d5f2fe;}.cls-44{fill:#f6a39e;}.cls-45{fill:#b2a3b2;opacity:0.7;}.cls-46{fill:#637965;}.cls-47{fill:#83aaa3;}.cls-48{fill:#5b7566;}</style></defs><title>資產 19</title><g id="圖層_2" data-name="圖層 2"><g id="圖層_1-2" data-name="圖層 1"><circle class="cls-1" cx="1903.45" cy="125.29" r="12.08"/><circle class="cls-1" cx="1618.3" cy="109.18" r="12.08"/><path class="cls-1" d="M1888,224.37a12.08,12.08,0,1,0,9,14.52A12.08,12.08,0,0,0,1888,224.37Z"/><path class="cls-1" d="M1904.94,180.85a12.08,12.08,0,0,0-12.72,4.94,136.42,136.42,0,0,0-17-97.92,12.08,12.08,0,1,0-8-11.69,136.86,136.86,0,0,0-26.6-26.45h.31a12.08,12.08,0,1,0-11.12-7.36A135.62,135.62,0,0,0,1793.62,27a12.06,12.06,0,1,0-7.28-1.7A136.41,136.41,0,0,0,1759,22.49q-6.93,0-13.67.68a12.07,12.07,0,1,0-6.69.84A135.17,135.17,0,0,0,1699,36.39a12.08,12.08,0,1,0-9.65,4.82c.26,0,.51,0,.77,0A136.85,136.85,0,0,0,1658.31,67a12.12,12.12,0,1,0-4.77,5.54,135.35,135.35,0,0,0-30.45,80.06,12.09,12.09,0,1,0-.14,5.92,136.31,136.31,0,0,0,5.63,38.76,11.86,11.86,0,0,0-2.13-.72,12.08,12.08,0,1,0,8.12,17,136,136,0,0,0,17.69,29.27,12.08,12.08,0,1,0,11.67,14.84,11.88,11.88,0,0,0,.26-1.64,136.67,136.67,0,0,0,26.89,20.33,12.07,12.07,0,1,0,14.08,7.06,134.54,134.54,0,0,0,32.13,9.34,12.08,12.08,0,1,0,15.47,1.58c2.06.09,4.12.15,6.2.15a136.47,136.47,0,0,0,28.56-3,12.22,12.22,0,0,0-1.49,3.6,12.08,12.08,0,1,0,17.28-8c2.37-.81,4.71-1.7,7-2.64l.22.49,2.17-.94-.2-.46A136,136,0,0,0,1835,271.28a11.59,11.59,0,0,0-.33,1.15,12.08,12.08,0,1,0,14.52-9,12.22,12.22,0,0,0-2.05-.3l1.44-1.39-.49-.5a136,136,0,0,0,42.14-67,12.08,12.08,0,1,0,14.73-13.36Zm-271.46-22.36a125.48,125.48,0,1,1,247,31.37l-5.89-.85a120.25,120.25,0,0,0,3.92-30.52q0-4.19-.29-8.34l2.89-.63-.5-2.32-2.58.57a119.56,119.56,0,1,0-234,43.92l-3.2.6.44,2.33,3.43-.65a120.12,120.12,0,0,0,42,59.84l-4,4.43A125.3,125.3,0,0,1,1633.48,158.49Zm243.61,0a117.92,117.92,0,0,1-3.95,30.31l-96.64-14a25.06,25.06,0,0,0,2.66-3l97.65-21.41C1877,153.12,1877.09,155.79,1877.09,158.49ZM1781,169a25.12,25.12,0,0,0,2.91-8.11l79.38-49.06-1.24-2-77.8,48.08c0-.46,0-.91,0-1.37a25.26,25.26,0,0,0-2.55-11.08l55.3-66.92L1835.25,77l-54.71,66.2a25.43,25.43,0,0,0-6.67-7.19l27.55-80.14-2.24-.77-27.36,79.56a25.21,25.21,0,0,0-11.18-3.43V44.05h-2.37v87.18a25,25,0,0,0-10,2.35l-26.86-79.47-2.25.76,27,79.82a25.53,25.53,0,0,0-8.22,7.73l-53.57-65.56-1.84,1.5,54.12,66.21a25.07,25.07,0,0,0-3,10.86l-74.84-45.67-1.24,2,76.11,46.44a25.37,25.37,0,0,0,1.91,8.14l-92.69-16.25-.41,2.33,94.4,16.56a25.28,25.28,0,0,0,3.33,4.61l-94.74,17.81a118.13,118.13,0,1,1,231.12-43.34Zm-22,12.86c.85,0,1.68,0,2.51-.12l-2.94,94.85a117.71,117.71,0,0,1-34.34-5.21l34.58-89.52Zm-16.67-6.26a25.88,25.88,0,0,0,4.66,3.24L1664,226l1.17,2.06,84.44-48c.71.29,1.44.54,2.18.76l-64,71.85a118.56,118.56,0,0,1-41.59-59Zm12.1,5.84c.62.12,1.25.21,1.9.28L1722,270.68a117.49,117.49,0,0,1-32.27-16.56Zm-33,90.59-2.12,5.5a124.92,124.92,0,0,1-34.55-17.9l3.94-4.42A118.52,118.52,0,0,0,1721.41,272.06Zm2.27.72a119.92,119.92,0,0,0,34.83,5.26l-.19,5.92a125.43,125.43,0,0,1-36.77-5.66Zm40.19-91.36c.48-.1,1-.2,1.43-.32L1803.17,268a117.19,117.19,0,0,1-42.25,8.57Zm4.71,1.29,65.16,67.16a118,118,0,0,1-28.38,17.25Zm.48-2.91c.55-.24,1.09-.5,1.62-.77l87.07,44.16a119.08,119.08,0,0,1-22.19,25.15Zm4-2.2c.34-.23.67-.46,1-.71l98.42,14.21A117.86,117.86,0,0,1,1859,221.18ZM1874,191.31l5.89.85a124.58,124.58,0,0,1-14.21,32.38l-5.27-2.68A118.12,118.12,0,0,0,1874,191.31ZM1760.69,284l.19-5.93a119,119,0,0,0,42.88-8.63l2.36,5.4A125,125,0,0,1,1760.69,284ZM1806,268.48a118.82,118.82,0,0,0,28.83-17.54l4.13,4.26a125.78,125.78,0,0,1-30.61,18.69Zm40.64-5.37h-.74l.41-.35Zm-5.87-9.45-4.12-4.25c2.36-2,4.67-4.15,6.89-6.38a120.73,120.73,0,0,0,15.6-19.16l5.29,2.68A126.07,126.07,0,0,1,1840.72,253.66Z"/><path class="cls-1" d="M767.07,206.39V301.7H968.79v-.29h.34v.29h110.73v-.07l44.56-.25v.32h72.39v-.37H1207v.37h507.7v-.36h.31l-.35-8.43-.58-122.16h-17.33s.62-77.13,0-77.13H1668.3V162h-19.18l.62-41.47h-24.13v8.73h-6.81l-.62,33.47-14.85.73L1602.09,203l-20.72-17.36-6.19.73,1.85-120-24.75-26.19L1548,123.08l-19.49.36-.6,28.74H1513.3v67.67l-7.42-1.46v-21.1h-8.05V182l-16,7-.07-31-40.83-2.18-.62,83.67h-12.38v-3.64h-3.71v-8H1423v8h-1.85V229.3h-1.24v6.55h-6.5V200.57h-22.58v-17.1l-14.85-14.55v50.93l-7.12-.1V123.81l-24.44-.73.62-53.84-25.68-7.64-1.43,69.28-5.07-4.17V111.43l-41.15-1.82-1.53,158.62h-8.67V43.41h-2.79V38h1.24v-.72h-32.18V38H1229v5.46h-3.4V71.06H1207V182.74h-28.15V123.81l-24.44-.73.62-53.84-25.68-7.64-2.12,103h-50.78l-9,16.73v23.65h-17.32v55.5l-16.09-37.31-28.76-1.25,1.23-154.45L983,41.23l-3.4,82.58H959.2v41.83h-9.59V131.45H944V122H919.91L919,163.1H901V93.25l-28.78.36L871,172.92H850.39l.22-32.74h-36.2v80.76h-7.12l.62-32.74-22.27.72ZM1232.69,38v5.46h-2.47V38Zm6.19,0v5.46h-5V38Zm5.57,0v5.46h-4.33V38Zm6.81,0v5.46h-5.57V38Zm6.18,5.46h-5V38h5Z"/><path class="cls-1" d="M681,273.3v40.29H826.26v-.12h.24v.12h79.73v0l32.09-.11v.13h52.13v-.15h7.35v.15h365.59v-.15h.22l-.25-3.56-.42-51.65h-12.47s.44-32.61,0-32.61H1330v28.92h-13.81l.44-17.54h-17.37v3.69h-4.91l-.44,14.15-10.69.31-.9,16.72-14.92-7.34-4.46.31,1.34-50.75L1246.43,203l-3.12,35.07-14,.15-.43,12.15h-10.48V279l-5.35-.62v-8.92h-5.79V263l-11.54,2.94,0-13.1-29.41-.92-.44,35.38h-8.91v-1.54h-2.68v-3.39h-.89v3.39H1152V283h-.9v2.77h-4.67V270.84h-16.27v-7.23l-10.69-6.15V279l-5.12,0V238.39l-17.6-.31.44-22.76-18.49-3.23-1,29.29-3.65-1.77v-6.45l-29.63-.77-1.1,67.06H1037v-95h-2v-2.31h.9v-.31h-23.17v.31h.89v2.31h-2.45v11.69H997.8V263.3H977.53V238.39l-17.6-.31.44-22.76-18.49-3.23-1.53,43.52H903.78l-6.46,7.08v10H884.85v23.47l-11.59-15.78-20.71-.53.88-65.29L836.5,203.48l-2.45,34.91h-14.7v17.68h-6.91V241.62h-4v-4H791.06L790.39,255H777.47V225.47l-20.72.15-.89,33.53H741l.16-13.84H715.09v34.14H710l.45-13.84-16,.31Zm335.29-71.21v2.31h-1.78v-2.31Zm4.46,0v2.31h-3.57v-2.31Zm4,0v2.31h-3.12v-2.31Zm4.9,0v2.31h-4v-2.31Zm4.45,2.31h-3.56v-2.31h3.56Z"/><path class="cls-1" d="M1233.23,274.11v40.3h145.25v-.13h.25v.12h79.73v0l32.09-.11v.14h52.13v-.16H1550v.16h365.59v-.16h.23l-.26-3.56-.41-51.65h-12.48s.45-32.61,0-32.61H1882.2v28.92h-13.82l.45-17.54h-17.38v3.7h-4.9l-.45,14.15-10.69.3-.89,16.72-14.93-7.34-4.45.31,1.33-50.75-17.82-11.07-3.12,35.06-14,.15-.43,12.16h-10.49v28.6l-5.35-.61v-8.92h-5.79v-6.46l-11.54,2.95,0-13.1-29.41-.93-.45,35.38h-8.91v-1.54h-2.67v-3.38h-.89v3.38h-1.34V283.8h-.89v2.77h-4.68V271.65h-16.26v-7.23l-10.7-6.15V279.8l-5.12,0V239.2l-17.6-.31.45-22.76-18.5-3.23-1,29.29-3.65-1.76V234l-29.63-.77-1.11,67.06h-6.25v-95h-2V202.9h.89v-.31H1565v.31h.89v2.31h-2.45V216.9H1550v47.21h-20.27V239.2l-17.6-.31.45-22.76-18.49-3.23-1.53,43.52H1456l-6.46,7.08v10h-12.48V297l-11.58-15.77-20.71-.53.88-65.3-16.93-11.07-2.45,34.91h-14.71v17.69h-6.9V242.43h-4v-4h-17.38l-.67,17.38h-12.92V226.28l-20.72.15-.89,33.53h-14.86l.16-13.84h-26.07v34.14h-5.12l.44-13.84-16,.31Zm335.29-71.21v2.31h-1.79V202.9Zm4.45,0v2.31h-3.56V202.9Zm4,0v2.31h-3.12V202.9Zm4.9,0v2.31h-4V202.9Zm4.46,2.31h-3.57V202.9h3.57Z"/><path class="cls-2" d="M1545.67,248.34l.57,25.67h-6.56V210.7h-33.37l.2,25.66h-19l-1.14-62.17-26.52-.28v54.75h-16.54l-.86-32.22h-22.24v7.41h-5.14v26.81h-8.84v-32.8h-18.82l-3.14-64.73-21.67,20.53,1.13,121.08-26.51,1L1322.37,305V261.46h-16V242.92l-8.27-13.12h-46.81l-2-80.7-23.67,6,.57,42.2-22.53.57v46.2h-26V156.51h-17.11V134.84h-3.14v-4.28h1.14V130H1129v.57h1.14v4.28h-2.57V311.08H1119l-1.41-124.34-37.93,1.42v12l-3.82,2.67-.77-35.08-24.52,9.13.59,20.43-22.53.57v48.5l-17.39.29V190.23l-13.69,16.12v18.94H976.73v39.09h-6v-7.26H969.6v7.26h-1.71v-8.87h-1.14v8.87h-3.42v4H951.92l-.57-92.69-37.65,2.42-.28,159.18h264.36V337h9.41v.29h66.74v-.25l41.07.19v.06h89v-.14l13.43-.09v.23h185.94V262.6l-17.11-13.69ZM1156.39,130.56v4.28h-2.28v-4.28Zm-3.42,0v4.28h-4.56v-4.28Zm-5.7,0v4.28h-4v-4.28Zm-5.14,0v4.28H1137v-4.28Zm-10.83,0h4.56v4.28h-4.56Z"/><path class="cls-2" d="M896.59,243.49v12h-7.41V272l-6.85,1.14v-53H868.91l-.55-22.53-18-.29-4-65L823.59,152.8l1.71,94.11-5.71-.57L800.49,260l-1.14-31-13.69-.57-.57-26.24h-6.28V195.3H756.57l.57,32.51H739.46V174.19H713.22c-.57,0,0,60.46,0,60.46h-16l-.53,95.77L696.4,337h.28v.29h215.6L912,249.2Z"/><path class="cls-2" d="M1788.64,249.2l-15.4-5.71v12h-7.41V272l-6.85,1.14v-53h-3.15l-.55-22.53-18-.29-4-65L1710.5,152.8l1.71,94.11-5.7-.57-11.88,8.46-1-25.85-13.69-.57-.57-26.24h-6.28V195.3H1650.9l.57,32.51h-17.68V174.19h-26.24c-.57,0,0,60.46,0,60.46h-16l-.53,95.77-.32,6.61h.28v.29h197.92Z"/><g class="cls-3"><path class="cls-4" d="M696.68,337.32H803.34l-4-108.37-13.69-.57-.57-26.24h-6.28V195.3H756.57l.57,32.51H739.46V174.19H713.22c-.57,0,0,60.46,0,60.46h-16Z"/><polygon class="cls-1" points="759.99 228.38 778.24 228.38 777.67 203.85 759.42 203.85 759.99 228.38"/><polygon class="cls-1" points="759.99 202.14 777.1 202.71 777.1 198.72 759.42 197.01 759.99 202.14"/><polygon class="cls-5" points="746.85 244.57 746.32 254.04 761.59 254.04 746.85 244.57"/><path class="cls-5" d="M738.6,233.23v25.66l35.94-1.14Zm7.73,10.33,17.2,11.05H745.72Z"/><polygon class="cls-1" points="743.07 337.32 774.25 337.32 773.97 310.8 742.6 298.25 743.07 337.32"/><polygon class="cls-2" points="715.79 270.87 715.79 336.46 738.13 337.32 738.03 291.4 727.76 271.44 715.79 270.87"/><polygon class="cls-6" points="697.06 323.44 711.79 323.34 711.79 295.97 735.75 295.4 735.27 337.32 696.39 337.03 697.06 323.44"/><polygon class="cls-4" points="1443.29 228.66 1459.83 228.66 1459.83 173.91 1486.35 174.19 1487.49 236.36 1518.86 236.36 1526.27 274.01 1546.24 274.01 1545.67 248.34 1566.2 248.91 1583.31 262.6 1583.31 337.32 1397.37 337.32 1396.8 230.66 1415.05 230.66 1415.05 203.85 1420.19 203.85 1420.19 196.44 1442.43 196.44 1443.29 228.66"/><polygon class="cls-1" points="1583.31 276 1580.74 276 1580.74 270.3 1575.04 270.3 1575.04 264.57 1568.46 264.02 1568.51 263.46 1575.61 264.05 1575.61 269.73 1581.31 269.73 1581.31 275.43 1583.31 275.43 1583.31 276"/><polygon class="cls-1" points="1549.66 263.17 1561.07 250.62 1550.23 250.62 1549.66 263.17"/><polygon class="cls-1" points="1552.51 287.13 1561.07 287.13 1560.5 258.61 1552.51 266.59 1552.51 287.13"/><polygon class="cls-5" points="1425.32 258.61 1460.68 260.32 1460.68 234.65 1425.32 258.61"/><path class="cls-4" d="M1436.81,256.08,1454.73,245l-.62,10.5ZM1454.09,246l-15.16,9.41,14.64-.52Z"/><rect class="cls-1" x="1423.04" y="199.29" width="17.11" height="4.56"/><rect class="cls-1" x="1422.47" y="205.56" width="17.68" height="25.1"/><rect class="cls-1" x="1547.95" y="299.67" width="5.7" height="9.13"/><rect class="cls-1" x="1552.51" y="310.51" width="6.84" height="9.13"/><rect class="cls-1" x="1564.49" y="250.05" width="1.14" height="43.92"/><rect class="cls-1" x="1580.46" y="287.13" width="1.14" height="49.05"/><rect class="cls-1" x="1576.47" y="284.84" width="1.14" height="49.05"/><rect class="cls-1" x="1572.47" y="283.13" width="1.14" height="49.05"/><polygon class="cls-7" points="1406.21 337.03 1406.21 197.86 1387.39 197.86 1384.25 133.13 1362.58 153.66 1364.29 337.32 1406.21 337.03"/><polygon class="cls-8" points="1365.43 164.5 1383.11 151.95 1383.11 138.83 1364.86 155.94 1365.43 164.5"/><polygon class="cls-8" points="1364.86 169.06 1366.57 216.4 1385.39 198.15 1383.11 157.08 1364.86 169.06"/><path class="cls-9" d="M1372.54,262l.6-15.1,21.14.6Zm1.15-14.52-.54,13.42L1392.48,248Z"/><polygon class="cls-9" points="1372.85 266.59 1372.85 275.15 1395.09 273.44 1394.52 250.62 1372.85 266.59"/><polygon class="cls-7" points="1368.28 169.06 1369.42 169.06 1371.13 206.13 1369.99 207.27 1368.28 169.06"/><polygon class="cls-7" points="1372.28 166.78 1373.42 166.78 1374.56 202.14 1373.42 202.71 1372.28 166.78"/><path class="cls-7" d="M1378,165.07s.57-.57.57,0,.57,31.94.57,31.94H1378Z"/><path class="cls-7" d="M1374.7,270.34l14.91-9.94,1.24,9.32Zm14.46-9-12.46,8.31,13.5-.52Z"/><rect class="cls-10" x="1386.54" y="206.13" width="6.27" height="18.82"/><rect class="cls-10" x="1394.52" y="204.42" width="6.84" height="19.96"/><rect class="cls-2" x="1294.99" y="261.46" width="27.38" height="75.86"/><polygon class="cls-11" points="1306.4 337.32 1306.4 242.92 1298.13 229.8 1249.65 229.8 1246.8 236.65 1246.8 337.03 1306.4 337.32"/><rect class="cls-12" x="1254.78" y="238.36" width="6.84" height="9.13"/><rect class="cls-12" x="1261.91" y="249.48" width="6.27" height="8.56"/><polygon class="cls-13" points="1117.89 336.75 1117.32 311.08 1127.59 311.08 1127.59 134.84 1160.67 134.84 1160.67 156.51 1177.78 156.51 1177.78 337.32 1117.89 337.32 1117.89 336.75"/><rect class="cls-14" x="1130.44" y="139.4" width="27.95" height="14.83"/><rect class="cls-14" x="1130.44" y="161.65" width="45.06" height="1.14"/><rect class="cls-14" x="1130.44" y="165.07" width="45.06" height="1.14"/><rect class="cls-14" x="1129.87" y="194.16" width="45.06" height="1.14"/><rect class="cls-14" x="1129.87" y="221.53" width="45.06" height="1.14"/><rect class="cls-14" x="1130.44" y="248.34" width="45.06" height="1.14"/><rect class="cls-14" x="1130.44" y="296.25" width="45.06" height="1.14"/><rect class="cls-14" x="1130.44" y="300.24" width="45.06" height="1.14"/><rect class="cls-14" x="1130.44" y="311.08" width="45.06" height="1.14"/><polygon class="cls-14" points="1129.02 129.99 1129.02 130.56 1130.16 130.56 1130.16 135.12 1131.3 135.12 1131.3 130.56 1135.86 130.56 1135.86 135.12 1137 135.12 1137 130.56 1142.13 130.56 1142.13 135.12 1143.28 135.12 1143.28 130.56 1147.27 130.56 1147.27 135.12 1148.41 135.12 1148.41 130.56 1152.97 130.56 1152.97 135.12 1154.11 135.12 1154.11 130.56 1156.39 130.56 1156.39 135.12 1157.53 135.12 1157.53 130.56 1158.67 130.56 1158.67 129.99 1129.02 129.99"/><rect class="cls-15" x="1136.15" y="226.67" width="9.7" height="11.41"/><rect class="cls-15" x="1155.54" y="226.67" width="9.7" height="11.41"/><rect class="cls-15" x="1135.58" y="171.91" width="9.7" height="11.41"/><rect class="cls-15" x="1154.97" y="171.91" width="9.7" height="11.41"/><rect class="cls-14" x="1133.29" y="255.18" width="39.93" height="35.93"/><polygon class="cls-2" points="1249.36 149.1 1253.93 337.32 1203.73 337.32 1203.73 197.86 1226.26 197.29 1225.69 155.09 1249.36 149.1"/><rect class="cls-16" x="1229.11" y="155.66" width="6.27" height="3.99"/><rect class="cls-16" x="1236.53" y="155.66" width="6.27" height="3.99"/><rect class="cls-16" x="1229.11" y="160.79" width="6.27" height="5.13"/><rect class="cls-16" x="1236.53" y="160.79" width="6.27" height="5.13"/><rect class="cls-17" x="1226.26" y="213.83" width="6.84" height="9.13"/><rect class="cls-17" x="1219.99" y="202.43" width="6.84" height="9.13"/><polygon class="cls-2" points="1075.09 167.73 1078.82 337.32 1028.63 337.32 1028.63 197.86 1051.16 197.29 1050.57 176.86 1075.09 167.73"/><rect class="cls-16" x="1056.27" y="177.43" width="6.27" height="3.99"/><rect class="cls-16" x="1063.69" y="177.43" width="6.27" height="3.99"/><rect class="cls-16" x="1056.27" y="182.56" width="6.27" height="5.13"/><rect class="cls-16" x="1063.69" y="182.56" width="6.27" height="5.13"/><rect class="cls-17" x="1051.16" y="213.83" width="6.84" height="9.13"/><rect class="cls-17" x="1044.89" y="202.43" width="6.84" height="9.13"/><rect class="cls-18" x="1160.39" y="244.06" width="47.91" height="92.97"/><rect class="cls-19" x="1165.23" y="250.05" width="42.78" height="17.11"/><rect class="cls-20" x="1172.08" y="254.61" width="35.93" height="6.84"/><rect class="cls-21" x="1161.81" y="272.3" width="45.06" height="1.71"/><path class="cls-21" d="M1207.44,300.24v-1.71h-2.85v-21.1h2.28v-1.71h-45.06v1.71h2.28v59.89h1.14v-2.85h41.64v-1.72h-41.64v-4h42.21v-1.71h-42.21V305.38h9.7v21.1h1.14v-21.1h8v21.1h1.14v-21.1h8.55v21.1h1.14v-21.1h8.56v21.1h1.14v-21.1h2.85v-1.71h-42.21v-3.43Zm-4-22.81v21.1h-8.56v-21.1Zm-9.7,0v21.1h-8.55v-21.1Zm-9.69,0v21.1h-8v-21.1Zm-9.13,0v21.1h-9.7v-21.1Z"/><rect class="cls-22" x="1187.19" y="275.15" width="52.47" height="62.17"/><rect class="cls-23" x="1188.05" y="283.42" width="49.62" height="1.14"/><rect class="cls-23" x="1193.18" y="287.41" width="1.14" height="12.55"/><rect class="cls-23" x="1201.17" y="287.41" width="1.14" height="12.55"/><rect class="cls-23" x="1208.01" y="287.41" width="1.14" height="12.55"/><rect class="cls-23" x="1215.43" y="287.41" width="1.14" height="12.55"/><rect class="cls-23" x="1222.27" y="287.41" width="1.14" height="12.55"/><rect class="cls-23" x="1229.11" y="287.41" width="1.14" height="12.55"/><rect class="cls-23" x="1188.05" y="302.81" width="49.62" height="1.14"/><rect class="cls-23" x="1193.18" y="306.8" width="1.14" height="12.55"/><rect class="cls-23" x="1201.17" y="306.8" width="1.14" height="12.55"/><rect class="cls-23" x="1208.01" y="306.8" width="1.14" height="12.55"/><rect class="cls-23" x="1215.43" y="306.8" width="1.14" height="12.55"/><rect class="cls-23" x="1222.27" y="306.8" width="1.14" height="12.55"/><rect class="cls-23" x="1229.11" y="306.8" width="1.14" height="12.55"/><rect class="cls-23" x="1188.05" y="320.49" width="49.62" height="1.14"/><rect class="cls-23" x="1193.18" y="324.48" width="1.14" height="12.55"/><rect class="cls-23" x="1201.17" y="324.48" width="1.14" height="12.55"/><rect class="cls-23" x="1208.01" y="324.48" width="1.14" height="12.55"/><rect class="cls-23" x="1215.43" y="324.48" width="1.14" height="12.55"/><rect class="cls-23" x="1222.27" y="324.48" width="1.14" height="12.55"/><rect class="cls-23" x="1229.11" y="324.48" width="1.14" height="12.55"/><polygon class="cls-24" points="1316.1 337.32 1368.57 337.32 1368 274.58 1337.2 275.72 1316.67 316.21 1316.1 337.32"/><polygon class="cls-6" points="1446.14 337.32 1539.68 337.32 1539.68 210.7 1506.31 210.7 1506.88 283.42 1498.9 281.71 1499.47 258.32 1491.48 258.32 1491.48 242.92 1479.5 248.06 1480.08 284.56 1445.85 304.52 1446.14 337.32"/><path class="cls-25" d="M1529.57,317.37l-15.23-.61,9.14-13.4Zm-14.18-1.14,13.29.54-5.31-12.23Z"/><polygon class="cls-26" points="1508.59 285.7 1535.97 294.82 1535.97 272.58 1508.59 285.7"/><rect class="cls-25" x="1508.59" y="214.97" width="29.09" height="1.71"/><rect class="cls-25" x="1509.16" y="224.67" width="28.52" height="6.84"/><rect class="cls-25" x="1509.16" y="243.49" width="28.52" height="6.84"/><rect class="cls-27" x="1498.9" y="283.99" width="1.14" height="32.51"/><rect class="cls-27" x="1481.79" y="289.69" width="7.41" height="1.14"/><rect class="cls-27" x="1481.79" y="292.54" width="7.99" height="1.14"/><rect class="cls-27" x="1481.79" y="295.97" width="14.26" height="1.14"/><rect class="cls-27" x="1481.79" y="298.82" width="15.97" height="1.14"/><rect class="cls-27" x="1481.79" y="302.24" width="15.97" height="1.14"/><path class="cls-25" d="M1486.92,254.61a2,2,0,1,1,2-2A2,2,0,0,1,1486.92,254.61Zm0-3.42a1.43,1.43,0,1,0,1.43,1.43A1.43,1.43,0,0,0,1486.92,251.19Z"/><path class="cls-25" d="M1455.55,306.23c.57-.57,23.38-14.26,23.38-14.26l-1.71-1.71-22.81,14.26Z"/><path class="cls-25" d="M1462.11,324.2H1453V311.65h9.13Zm-8.56-.57h8V312.22h-8Z"/><rect class="cls-27" x="1481.22" y="306.23" width="14.83" height="2.85"/><rect class="cls-27" x="1481.79" y="313.08" width="14.83" height="2.85"/><polygon class="cls-1" points="1031.48 337.31 1119.32 337.31 1117.61 186.74 1079.68 188.16 1079.68 200.14 1073.98 204.13 1072.84 300.52 1032.34 301.09 1031.48 337.31"/><rect class="cls-25" x="1083.67" y="200.14" width="32.51" height="1.71"/><rect class="cls-25" x="1089.38" y="209.84" width="14.83" height="1.14"/><rect class="cls-25" x="1089.38" y="237.21" width="13.69" height="1.14"/><rect class="cls-25" x="1089.38" y="291.97" width="14.83" height="1.71"/><polygon class="cls-25" points="1087.38 295.11 1072.84 295.11 1072.84 294.54 1086.81 294.54 1086.81 211.26 1073.94 211.15 1073.94 210.58 1087.38 210.69 1087.38 295.11"/><polygon class="cls-2" points="1073.88 213.45 1084.81 213.26 1084.24 291.4 1072.84 291.49 1073.88 213.45"/><rect class="cls-28" x="1074.55" y="214.4" width="9.13" height="6.84"/><rect class="cls-28" x="1074.55" y="222.38" width="9.13" height="7.99"/><rect class="cls-28" x="1074.55" y="231.51" width="9.13" height="9.7"/><rect class="cls-28" x="1074.55" y="242.35" width="9.13" height="9.13"/><rect class="cls-28" x="1074.55" y="252.61" width="9.13" height="6.84"/><rect class="cls-28" x="1073.98" y="260.6" width="9.7" height="6.84"/><rect class="cls-28" x="1073.98" y="268.58" width="9.7" height="6.27"/><rect class="cls-28" x="1073.41" y="276" width="10.27" height="7.41"/><rect class="cls-28" x="1073.41" y="284.55" width="10.27" height="6.27"/><polygon class="cls-25" points="1106.2 294.53 1118.75 294.53 1118.75 293.96 1106.69 293.96 1106.69 210.69 1117.8 210.58 1117.79 210.01 1106.2 210.12 1106.2 294.53"/><polygon class="cls-2" points="1117.85 212.88 1108.42 212.69 1108.91 290.83 1118.75 290.92 1117.85 212.88"/><rect class="cls-28" x="1109.4" y="213.83" width="7.87" height="6.84" transform="translate(2226.67 434.5) rotate(-180)"/><rect class="cls-28" x="1109.4" y="221.81" width="7.87" height="7.99" transform="translate(2226.67 451.61) rotate(-180)"/><rect class="cls-28" x="1109.4" y="230.94" width="7.87" height="9.7" transform="translate(2226.67 471.57) rotate(-180)"/><rect class="cls-28" x="1109.4" y="241.78" width="7.87" height="9.13" transform="translate(2226.67 492.68) rotate(-180)"/><rect class="cls-28" x="1109.4" y="252.04" width="7.87" height="6.84" transform="translate(2226.67 510.93) rotate(-180)"/><rect class="cls-28" x="1109.4" y="260.03" width="8.37" height="6.84" transform="translate(2227.17 526.9) rotate(-180)"/><rect class="cls-28" x="1109.4" y="268.01" width="8.37" height="6.27" transform="translate(2227.17 542.3) rotate(-180)"/><rect class="cls-28" x="1109.4" y="275.43" width="8.86" height="7.41" transform="translate(2227.66 558.27) rotate(-180)"/><rect class="cls-28" x="1109.4" y="283.98" width="8.86" height="6.27" transform="translate(2227.66 574.24) rotate(-180)"/><polygon class="cls-25" points="1113.05 337.32 1112.48 307.65 1080.53 307.65 1080.39 337.31 1079.82 337.31 1079.97 307.08 1113.04 307.08 1113.62 337.31 1113.05 337.32"/><polygon class="cls-25" points="1109.2 337.31 1109.06 312.79 1085.09 313.35 1084.53 336.46 1083.96 336.45 1084.53 312.79 1109.62 312.21 1109.77 337.31 1109.2 337.31"/><rect class="cls-29" x="1056.87" y="310.79" width="1.14" height="25.67"/><rect class="cls-29" x="1060.29" y="310.79" width="1.14" height="25.67"/><rect class="cls-29" x="1063.14" y="310.79" width="1.14" height="25.67"/><rect class="cls-29" x="1066.56" y="310.79" width="1.14" height="25.67"/><rect class="cls-29" x="1068.84" y="310.79" width="1.14" height="25.67"/><rect class="cls-30" x="976.73" y="225.29" width="21.67" height="66.9"/><polygon class="cls-31" points="913.42 337.32 1034.91 337.32 1035.48 246.24 1011.24 246.65 1011.24 190.23 997.55 206.35 997.55 286.94 982.15 287.75 982.15 264.38 963.33 264.38 963.33 268.41 951.92 268.41 951.35 175.72 913.7 178.14 913.42 337.32"/><rect class="cls-32" x="917.13" y="182.17" width="32.51" height="40.3"/><path class="cls-33" d="M939.66,282.51h-3.43v-5.64h3.43Zm-2.86-.8h2.29v-4H936.8Z"/><path class="cls-33" d="M947.64,279.29h-2.85v-5.64h2.85Zm-2.28-.81h1.71v-4h-1.71Z"/><rect class="cls-33" x="978.15" y="256.32" width="1.14" height="8.06"/><rect class="cls-33" x="969.6" y="257.12" width="1.14" height="7.25"/><rect class="cls-33" x="966.75" y="255.51" width="1.14" height="8.87"/><rect class="cls-34" x="999.26" y="225.69" width="10.27" height="0.81"/><rect class="cls-34" x="999.26" y="228.11" width="10.84" height="0.81"/><rect class="cls-34" x="999.26" y="245.84" width="10.27" height="1.61"/><rect class="cls-34" x="1000.97" y="250.67" width="31.94" height="1.61"/><path class="cls-34" d="M1020.65,271.23H1003V256.72h17.68Zm-17.11-.81h16.54V257.53h-16.54Z"/><rect class="cls-34" x="1022.64" y="256.32" width="9.13" height="1.61"/><rect class="cls-34" x="1022.64" y="261.15" width="9.13" height="0.81"/><rect class="cls-34" x="1022.64" y="265.99" width="9.13" height="1.61"/><rect class="cls-34" x="1022.64" y="270.02" width="9.13" height="0.81"/><rect class="cls-34" x="999.83" y="274.05" width="33.08" height="0.81"/><rect class="cls-34" x="999.83" y="278.88" width="34.22" height="1.61"/><rect class="cls-33" x="954.77" y="278.88" width="6.84" height="0.81"/><rect class="cls-33" x="963.33" y="277.27" width="18.25" height="0.81"/><rect class="cls-33" x="963.33" y="269.21" width="0.57" height="37.88"/><rect class="cls-33" x="969.6" y="279.69" width="1.14" height="10.48"/><rect class="cls-33" x="976.44" y="279.69" width="0.57" height="10.48"/><rect class="cls-33" x="965.61" y="284.53" width="2.85" height="4.84"/><rect class="cls-33" x="951.92" y="270.82" width="1.71" height="37.88"/><path class="cls-33" d="M928.53,334.5c.57,0,33.65-23.38,33.65-23.38L961,308.71,924,334.5Z"/><rect class="cls-33" x="955.34" y="287.75" width="6.27" height="1.61"/><rect class="cls-33" x="955.34" y="299.03" width="6.27" height="1.61"/><polygon class="cls-7" points="781.66 337.32 871.78 337.32 868.36 197.58 850.39 197.29 846.4 132.27 823.59 152.81 825.3 246.91 819.59 246.34 781.95 273.15 781.66 337.32"/><polygon class="cls-8" points="827.58 162.5 844.69 151.09 844.69 139.12 827.58 155.09 827.58 162.5"/><path class="cls-8" d="M844.69,156.8,827,168.2,829.29,215,847,197.86Zm-13.12,48.48-1.14-36.51,1.14-.57,1.14,36.51Zm4-4-1.14-35.37s1.14-.57,1.14,0,1.14,34.8,1.14,34.8Zm5.71-6.28-1.14,1.14V164.21h1.14Z"/><path class="cls-35" d="M834.69,248.34H822.84l12.48,11.23Zm-10.36.57h9.82l.52,9.31Z"/><path class="cls-35" d="M825,270.3h0v6.58l7.41-.61.58-15.09v-.13l-8-6.77Zm7.07-.23-6.5.21v-5.2l6.69.13Zm-6.5,6.19v-5.41l6.48-.21-.19,5.1Zm6.84-15-.13,3.34-6.71-.13v-9Z"/><polygon class="cls-35" points="796.21 332.75 795.64 332.75 795.64 270.3 801.34 270.3 801.34 267.45 806.43 267.45 805.86 263.45 810.47 263.45 810.47 258.91 818.15 258.32 818.19 258.89 811.04 259.44 811.04 264.03 806.52 264.03 807.09 268.02 801.91 268.02 801.91 270.87 796.21 270.87 796.21 332.75"/><rect class="cls-36" x="831.57" y="285.13" width="5.13" height="6.84"/><rect class="cls-36" x="826.44" y="293.11" width="5.13" height="6.27"/><rect class="cls-10" x="848.11" y="204.71" width="6.84" height="15.97"/><rect class="cls-10" x="856.67" y="203.57" width="6.27" height="20.53"/><rect class="cls-35" x="820.16" y="248.06" width="1.14" height="33.08"/><rect class="cls-35" x="812.75" y="269.16" width="1.14" height="38.78"/><rect class="cls-35" x="808.76" y="272.58" width="1.14" height="31.94"/><rect class="cls-35" x="804.76" y="276" width="1.14" height="28.52"/><path class="cls-36" d="M820.16,312.51s18.26,10.83,18.26,10.26-2.29-22.24-2.29-22.24Z"/><polyline class="cls-10" points="850.39 258.89 849.82 254.9 837.27 264.03 837.27 266.31 843.55 266.31 850.39 259.46"/><polygon class="cls-10" points="837.27 258.89 838.99 258.89 848.68 252.62 848.68 250.91 837.27 258.89"/><path class="cls-10" d="M835.56,247.49h1.14v-.58h11.41v-1.14s-12.55-.57-12.55,0Z"/><polygon class="cls-10" points="845.26 266.31 850.39 266.31 851.53 261.74 845.26 266.31"/><polygon class="cls-6" points="852.96 337.32 912.28 337.32 911.99 249.2 896.59 243.49 896.59 255.47 889.18 255.47 889.18 272.01 882.33 273.15 882.33 220.11 852.67 220.11 852.96 337.32"/><rect class="cls-37" x="853.82" y="221.82" width="26.81" height="1.71"/><rect class="cls-38" x="854.39" y="229.23" width="26.81" height="4.56"/><rect class="cls-38" x="854.39" y="244.06" width="26.81" height="4.56"/><rect class="cls-37" x="899.44" y="277.71" width="10.84" height="1.14"/><rect class="cls-37" x="898.87" y="280" width="11.41" height="1.14"/><rect class="cls-37" x="892.6" y="282.85" width="17.68" height="0.57"/><rect class="cls-37" x="890.89" y="285.13" width="19.39" height="0.57"/><rect class="cls-37" x="892.03" y="287.98" width="18.82" height="0.57"/><rect class="cls-37" x="888.61" y="273.72" width="1.14" height="62.74"/><path class="cls-37" d="M910,305.38H892.89V290.55H910Zm-16.54-.57h16V291.12h-16Z"/><path class="cls-37" d="M901.44,252.33a2,2,0,1,1,2.28-2A2.15,2.15,0,0,1,901.44,252.33Zm0-3.42a1.45,1.45,0,1,0,1.71,1.43A1.59,1.59,0,0,0,901.44,248.91Z"/><path class="cls-39" d="M875.52,298.53h-13l5-9.93ZM863.4,298h10.92l-6.76-8.32Z"/><path class="cls-37" d="M904.57,300.81h-9l3.87-7.09Zm-8.07-.57h7l-4-5.45Z"/><polygon class="cls-40" points="856.67 282.28 880.62 274.86 856.67 265.74 856.67 282.28"/><path class="cls-4" d="M1591,337.32h106.66l-4-108.37-13.69-.57-.57-26.24h-6.28V195.3H1650.9l.57,32.51h-17.68V174.19h-26.24c-.57,0,0,60.46,0,60.46h-16Z"/><polygon class="cls-1" points="1654.32 228.38 1672.57 228.38 1672 203.85 1653.75 203.85 1654.32 228.38"/><polygon class="cls-1" points="1654.32 202.14 1671.43 202.71 1671.43 198.72 1653.75 197.01 1654.32 202.14"/><polygon class="cls-5" points="1641.17 244.57 1640.65 254.04 1655.92 254.04 1641.17 244.57"/><path class="cls-5" d="M1632.93,233.23v25.66l35.94-1.14Zm7.73,10.33,17.2,11.05h-17.81Z"/><polygon class="cls-1" points="1637.4 337.32 1668.58 337.32 1668.3 310.8 1636.92 298.25 1637.4 337.32"/><polygon class="cls-2" points="1610.12 270.87 1610.12 336.46 1632.46 337.32 1632.36 291.4 1622.1 271.44 1610.12 270.87"/><polygon class="cls-6" points="1591.39 323.44 1606.13 323.34 1606.13 295.97 1630.08 295.4 1629.61 337.32 1590.72 337.03 1591.39 323.44"/><polygon class="cls-7" points="1668.58 337.32 1758.7 337.32 1755.28 197.58 1737.31 197.29 1733.32 132.27 1710.5 152.81 1712.21 246.91 1706.51 246.34 1668.87 273.15 1668.58 337.32"/><polygon class="cls-8" points="1714.49 162.5 1731.61 151.09 1731.61 139.12 1714.49 155.09 1714.49 162.5"/><path class="cls-8" d="M1731.61,156.8l-17.69,11.4,2.29,46.77,17.68-17.11Zm-13.12,48.48-1.14-36.51,1.14-.57,1.14,36.51Zm4-4-1.14-35.37s1.14-.57,1.14,0,1.14,34.8,1.14,34.8Zm5.7-6.28-1.14,1.14V164.21h1.14Z"/><path class="cls-35" d="M1721.61,248.34h-11.85l12.47,11.23Zm-10.37.57h9.83l.52,9.31Z"/><path class="cls-35" d="M1711.93,270.3h0v6.58l7.4-.61.58-15.09v-.13l-8-6.77Zm7.07-.23-6.5.21v-5.2l6.69.13Zm-6.5,6.19v-5.41l6.48-.21-.2,5.1Zm6.84-15-.13,3.34-6.71-.13v-9Z"/><polygon class="cls-35" points="1683.12 332.75 1682.55 332.75 1682.55 270.3 1688.26 270.3 1688.26 267.45 1693.35 267.45 1692.78 263.45 1697.38 263.45 1697.38 258.91 1705.06 258.32 1705.11 258.89 1697.95 259.44 1697.95 264.03 1693.43 264.03 1694.01 268.02 1688.83 268.02 1688.83 270.87 1683.12 270.87 1683.12 332.75"/><rect class="cls-36" x="1718.49" y="285.13" width="5.13" height="6.84"/><rect class="cls-36" x="1713.35" y="293.11" width="5.13" height="6.27"/><rect class="cls-10" x="1735.03" y="204.71" width="6.84" height="15.97"/><rect class="cls-10" x="1743.58" y="203.57" width="6.27" height="20.53"/><rect class="cls-35" x="1707.08" y="248.06" width="1.14" height="33.08"/><rect class="cls-35" x="1699.66" y="269.16" width="1.14" height="38.78"/><rect class="cls-35" x="1695.67" y="272.58" width="1.14" height="31.94"/><rect class="cls-35" x="1691.68" y="276" width="1.14" height="28.52"/><path class="cls-36" d="M1707.08,312.51s18.25,10.83,18.25,10.26-2.28-22.24-2.28-22.24Z"/><polyline class="cls-10" points="1737.31 258.89 1736.74 254.9 1724.19 264.03 1724.19 266.31 1730.46 266.31 1737.31 259.46"/><polygon class="cls-10" points="1724.19 258.89 1725.9 258.89 1735.6 252.62 1735.6 250.91 1724.19 258.89"/><path class="cls-10" d="M1722.48,247.49h1.14v-.58H1735v-1.14s-12.55-.57-12.55,0Z"/><polygon class="cls-10" points="1732.17 266.31 1737.31 266.31 1738.45 261.74 1732.17 266.31"/><polygon class="cls-6" points="1729.61 337.32 1788.93 337.32 1788.64 249.2 1773.24 243.49 1773.24 255.47 1765.83 255.47 1765.83 272.01 1758.98 273.15 1758.98 220.11 1729.32 220.11 1729.61 337.32"/><rect class="cls-37" x="1730.46" y="221.82" width="26.81" height="1.71"/><rect class="cls-38" x="1731.03" y="229.23" width="26.81" height="4.56"/><rect class="cls-38" x="1731.03" y="244.06" width="26.81" height="4.56"/><rect class="cls-37" x="1776.09" y="277.71" width="10.84" height="1.14"/><rect class="cls-37" x="1775.52" y="280" width="11.41" height="1.14"/><rect class="cls-37" x="1769.25" y="282.85" width="17.68" height="0.57"/><rect class="cls-37" x="1767.54" y="285.13" width="19.39" height="0.57"/><rect class="cls-37" x="1768.68" y="287.98" width="18.82" height="0.57"/><rect class="cls-37" x="1765.26" y="273.72" width="1.14" height="62.74"/><path class="cls-37" d="M1786.65,305.38h-17.12V290.55h17.12Zm-16.55-.57h16V291.12h-16Z"/><path class="cls-37" d="M1778.09,252.33a2,2,0,1,1,2.28-2A2.15,2.15,0,0,1,1778.09,252.33Zm0-3.42a1.45,1.45,0,1,0,1.71,1.43A1.59,1.59,0,0,0,1778.09,248.91Z"/><path class="cls-39" d="M1752.17,298.53h-13l5-9.93Zm-12.12-.57H1751l-6.76-8.32Z"/><path class="cls-37" d="M1781.22,300.81h-9l3.87-7.09Zm-8.07-.57h6.95l-4-5.45Z"/><polygon class="cls-40" points="1733.32 282.28 1757.27 274.86 1733.32 265.74 1733.32 282.28"/><path class="cls-41" d="M1327.47,337.32c0-6.85,0-14.26,0-14.26l6.36-.45-.07-6.4h20.53v2.86h7.41s0-4.95,0-6.28h22.25v24.53Z"/><rect class="cls-42" x="1364.55" y="318.5" width="6.84" height="5.13"/><rect class="cls-42" x="1372.53" y="318.5" width="6.84" height="5.13"/><path class="cls-42" d="M1334.32,321.35v9.12h16.54v-9.12Zm14.83,7.41H1336v-5.7h13.12Z"/><rect class="cls-43" x="1359.41" y="309.37" width="26.24" height="5.7"/></g><path class="cls-1" d="M91.07,193.39V288.7H292.79v-.29h.34v.29H403.86v-.07l44.56-.25v.32H520.8v-.37H531v.37h507.7v-.36h.31l-.35-8.43-.58-122.16h-17.33s.62-77.13,0-77.13H992.3V149H973.12l.62-41.47H949.61v8.73H942.8l-.62,33.47-14.85.73L926.09,190l-20.72-17.36-6.19.73,1.85-120L876.28,27.14,872,110.08l-19.49.36-.6,28.74H837.3v67.67l-7.42-1.46v-21.1h-8V169l-16,7-.07-31-40.83-2.18-.62,83.67H751.91v-3.64H748.2v-8H747v8h-1.85V216.3h-1.24v6.55h-6.5V187.57H714.79v-17.1l-14.85-14.55v50.93l-7.12-.1V110.81l-24.44-.73L669,56.24,643.32,48.6l-1.43,69.28-5.07-4.17V98.43l-41.15-1.82-1.53,158.62h-8.67V30.41h-2.79V25h1.24v-.72H551.74V25H553v5.46h-3.4V58.06H531V169.74H502.86V110.81l-24.44-.73L479,56.24,453.36,48.6l-2.12,103H400.46l-9,16.73v23.65H374.16v55.5l-16.09-37.31-28.76-1.25,1.23-154.45L307,28.23l-3.4,82.58H283.2v41.83h-9.59V118.45H268V109H243.91L243,150.1H225V80.25l-28.78.36L195,159.92H174.39l.22-32.74h-36.2v80.76h-7.12l.62-32.74-22.27.72ZM556.69,25v5.46h-2.47V25Zm6.19,0v5.46h-5V25Zm5.57,0v5.46h-4.33V25Zm6.81,0v5.46h-5.57V25Zm6.18,5.46h-5V25h5Z"/><path class="cls-1" d="M5,260.3v40.29H150.26v-.12h.24v.12h79.73v0l32.09-.11v.13h52.13v-.15h7.35v.15H687.39v-.15h.22l-.25-3.56-.42-51.65H674.47s.44-32.61,0-32.61H654v28.92H640.16L640.6,224H623.23v3.69h-4.91l-.44,14.15-10.69.31-.9,16.72-14.92-7.34-4.46.31,1.34-50.75L570.43,190l-3.12,35.07-14,.15-.43,12.15H542.36V266l-5.35-.62v-8.92h-5.79V250l-11.54,2.94,0-13.1-29.41-.92-.44,35.38h-8.91v-1.54h-2.68v-3.39h-.89v3.39H476V270h-.9v2.77H470.4V257.84H454.13v-7.23l-10.69-6.15V266l-5.12,0V225.39l-17.6-.31.44-22.76-18.49-3.23-1,29.29L398,226.61v-6.45l-29.63-.77-1.1,67.06H361v-95h-2v-2.31h.9v-.31H336.73v.31h.89v2.31h-2.45v11.69H321.8V250.3H301.53V225.39l-17.6-.31.44-22.76-18.49-3.23-1.53,43.52H227.78l-6.46,7.08v10H208.85v23.47l-11.59-15.78-20.71-.53.88-65.29L160.5,190.48l-2.45,34.91h-14.7v17.68h-6.91V228.62h-4v-4H115.06L114.39,242H101.47V212.47l-20.72.15-.89,33.53H65l.16-13.84H39.09v34.14H34l.45-13.84-16,.31Zm335.29-71.21v2.31h-1.78v-2.31Zm4.46,0v2.31h-3.57v-2.31Zm4,0v2.31h-3.12v-2.31Zm4.9,0v2.31h-4v-2.31Zm4.45,2.31h-3.56v-2.31h3.56Z"/><path class="cls-2" d="M869.67,235.34l.57,25.67h-6.56V197.7H830.31l.2,25.66h-19l-1.14-62.17-26.52-.28v54.75H767.29l-.86-32.22H744.19v7.41h-5.14v26.81h-8.84v-32.8H711.39l-3.14-64.73-21.67,20.53,1.13,121.08-26.51,1L646.37,292V248.46h-16V229.92l-8.27-13.12H575.32l-2-80.7-23.67,6,.57,42.2-22.53.57v46.2h-26V143.51H484.67V121.84h-3.14v-4.28h1.14V117H453v.57h1.14v4.28h-2.57V298.08H443l-1.41-124.34-37.93,1.42v12l-3.82,2.67-.77-35.08-24.52,9.13.59,20.43-22.53.57v48.5l-17.39.29V177.23l-13.69,16.12v18.94H300.73v39.09h-6v-7.26H293.6v7.26h-1.71v-8.87h-1.14v8.87h-3.42v4H275.92l-.57-92.69-37.65,2.42-.28,159.18H501.78V324h9.41v.29h66.74v-.25l41.07.19v.06h89v-.14l13.43-.09v.23H907.31V249.6L890.2,235.91ZM480.39,117.56v4.28h-2.28v-4.28Zm-3.42,0v4.28h-4.56v-4.28Zm-5.7,0v4.28h-4v-4.28Zm-5.14,0v4.28H461v-4.28Zm-10.83,0h4.56v4.28H455.3Z"/><path class="cls-2" d="M220.59,230.49v12h-7.41V259l-6.85,1.14v-53H192.91l-.55-22.53-18-.29-4-65L147.59,139.8l1.71,94.11-5.71-.57L124.49,247l-1.14-31-13.69-.57-.57-26.24h-6.28V182.3H80.57l.57,32.51H63.46V161.19H37.22c-.57,0,0,60.46,0,60.46h-16l-.53,95.77L20.4,324h.28v.29h215.6L236,236.2Z"/><path class="cls-2" d="M1112.64,236.2l-15.4-5.71v12h-7.41V259l-6.85,1.14v-53h-3.15l-.55-22.53-18-.29-4-65L1034.5,139.8l1.71,94.11-5.7-.57-11.88,8.46-1-25.85-13.69-.57-.57-26.24h-6.28V182.3H974.9l.57,32.51H957.79V161.19H931.55c-.57,0,0,60.46,0,60.46h-16l-.53,95.77-.32,6.61H915v.29h197.92Z"/><g class="cls-3"><path class="cls-4" d="M20.68,324.32H127.34l-4-108.37-13.69-.57-.57-26.24h-6.28V182.3H80.57l.57,32.51H63.46V161.19H37.22c-.57,0,0,60.46,0,60.46h-16Z"/><polygon class="cls-1" points="83.99 215.38 102.24 215.38 101.67 190.85 83.42 190.85 83.99 215.38"/><polygon class="cls-1" points="83.99 189.14 101.1 189.71 101.1 185.72 83.42 184.01 83.99 189.14"/><polygon class="cls-5" points="70.84 231.57 70.32 241.04 85.59 241.04 70.84 231.57"/><path class="cls-5" d="M62.6,220.23v25.66l35.94-1.14Zm7.73,10.33,17.2,11.05H69.72Z"/><polygon class="cls-1" points="67.07 324.32 98.25 324.32 97.97 297.8 66.59 285.25 67.07 324.32"/><polygon class="cls-2" points="39.79 257.87 39.79 323.46 62.13 324.32 62.03 278.4 51.77 258.44 39.79 257.87"/><polygon class="cls-6" points="21.06 310.44 35.8 310.34 35.8 282.97 59.75 282.4 59.27 324.32 20.39 324.03 21.06 310.44"/><polygon class="cls-4" points="767.29 215.66 783.83 215.66 783.83 160.91 810.35 161.19 811.49 223.36 842.86 223.36 850.27 261.01 870.24 261.01 869.67 235.34 890.2 235.91 907.31 249.6 907.31 324.32 721.37 324.32 720.8 217.66 739.05 217.66 739.05 190.85 744.19 190.85 744.19 183.44 766.43 183.44 767.29 215.66"/><polygon class="cls-1" points="907.31 263 904.74 263 904.74 257.3 899.04 257.3 899.04 251.57 892.46 251.03 892.5 250.46 899.61 251.05 899.61 256.73 905.31 256.73 905.31 262.43 907.31 262.43 907.31 263"/><polygon class="cls-1" points="873.66 250.17 885.07 237.62 874.23 237.62 873.66 250.17"/><polygon class="cls-1" points="876.51 274.13 885.07 274.13 884.5 245.61 876.51 253.59 876.51 274.13"/><polygon class="cls-5" points="749.32 245.61 784.68 247.32 784.68 221.65 749.32 245.61"/><path class="cls-4" d="M760.81,243.08,778.73,232l-.62,10.5ZM778.09,233l-15.16,9.41,14.64-.52Z"/><rect class="cls-1" x="747.04" y="186.29" width="17.11" height="4.56"/><rect class="cls-1" x="746.47" y="192.56" width="17.68" height="25.1"/><rect class="cls-1" x="871.95" y="286.67" width="5.7" height="9.13"/><rect class="cls-1" x="876.51" y="297.51" width="6.84" height="9.13"/><rect class="cls-1" x="888.49" y="237.05" width="1.14" height="43.92"/><rect class="cls-1" x="904.46" y="274.13" width="1.14" height="49.05"/><rect class="cls-1" x="900.47" y="271.84" width="1.14" height="49.05"/><rect class="cls-1" x="896.47" y="270.13" width="1.14" height="49.05"/><polygon class="cls-7" points="730.21 324.03 730.21 184.86 711.39 184.86 708.25 120.13 686.58 140.66 688.29 324.32 730.21 324.03"/><polygon class="cls-8" points="689.43 151.5 707.11 138.95 707.11 125.83 688.86 142.94 689.43 151.5"/><polygon class="cls-8" points="688.86 156.06 690.57 203.4 709.39 185.15 707.11 144.08 688.86 156.06"/><path class="cls-9" d="M696.54,249l.6-15.1,21.14.6Zm1.15-14.52-.54,13.42L716.48,235Z"/><polygon class="cls-9" points="696.85 253.59 696.85 262.15 719.09 260.44 718.52 237.62 696.85 253.59"/><polygon class="cls-7" points="692.28 156.06 693.42 156.06 695.13 193.13 694 194.27 692.28 156.06"/><polygon class="cls-7" points="696.28 153.78 697.42 153.78 698.56 189.14 697.42 189.71 696.28 153.78"/><path class="cls-7" d="M702,152.07s.57-.57.57,0,.57,31.94.57,31.94H702Z"/><path class="cls-7" d="M698.7,257.34l14.91-9.94,1.24,9.32Zm14.46-9-12.46,8.31,13.5-.52Z"/><rect class="cls-10" x="710.54" y="193.13" width="6.27" height="18.82"/><rect class="cls-10" x="718.52" y="191.42" width="6.84" height="19.96"/><rect class="cls-2" x="618.99" y="248.46" width="27.38" height="75.86"/><polygon class="cls-11" points="630.4 324.32 630.4 229.92 622.13 216.8 573.65 216.8 570.8 223.65 570.8 324.03 630.4 324.32"/><rect class="cls-12" x="578.78" y="225.36" width="6.84" height="9.13"/><rect class="cls-12" x="585.91" y="236.48" width="6.27" height="8.56"/><polygon class="cls-13" points="441.89 323.75 441.32 298.08 451.59 298.08 451.59 121.84 484.67 121.84 484.67 143.51 501.78 143.51 501.78 324.32 441.89 324.32 441.89 323.75"/><rect class="cls-14" x="454.44" y="126.4" width="27.95" height="14.83"/><rect class="cls-14" x="454.44" y="148.65" width="45.06" height="1.14"/><rect class="cls-14" x="454.44" y="152.07" width="45.06" height="1.14"/><rect class="cls-14" x="453.87" y="181.16" width="45.06" height="1.14"/><rect class="cls-14" x="453.87" y="208.53" width="45.06" height="1.14"/><rect class="cls-14" x="454.44" y="235.34" width="45.06" height="1.14"/><rect class="cls-14" x="454.44" y="283.25" width="45.06" height="1.14"/><rect class="cls-14" x="454.44" y="287.24" width="45.06" height="1.14"/><rect class="cls-14" x="454.44" y="298.08" width="45.06" height="1.14"/><polygon class="cls-14" points="453.02 116.99 453.02 117.56 454.16 117.56 454.16 122.12 455.3 122.12 455.3 117.56 459.86 117.56 459.86 122.12 461 122.12 461 117.56 466.13 117.56 466.13 122.12 467.27 122.12 467.27 117.56 471.27 117.56 471.27 122.12 472.41 122.12 472.41 117.56 476.97 117.56 476.97 122.12 478.11 122.12 478.11 117.56 480.39 117.56 480.39 122.12 481.53 122.12 481.53 117.56 482.68 117.56 482.68 116.99 453.02 116.99"/><rect class="cls-15" x="460.15" y="213.67" width="9.7" height="11.41"/><rect class="cls-15" x="479.54" y="213.67" width="9.7" height="11.41"/><rect class="cls-15" x="459.58" y="158.91" width="9.7" height="11.41"/><rect class="cls-15" x="478.97" y="158.91" width="9.7" height="11.41"/><rect class="cls-14" x="457.29" y="242.18" width="39.93" height="35.93"/><polygon class="cls-2" points="573.36 136.1 577.93 324.32 527.73 324.32 527.73 184.86 550.26 184.29 549.69 142.09 573.36 136.1"/><rect class="cls-16" x="553.11" y="142.66" width="6.27" height="3.99"/><rect class="cls-16" x="560.53" y="142.66" width="6.27" height="3.99"/><rect class="cls-16" x="553.11" y="147.79" width="6.27" height="5.13"/><rect class="cls-16" x="560.53" y="147.79" width="6.27" height="5.13"/><rect class="cls-17" x="550.26" y="200.83" width="6.84" height="9.13"/><rect class="cls-17" x="543.99" y="189.43" width="6.84" height="9.13"/><polygon class="cls-2" points="399.09 154.73 402.82 324.32 352.63 324.32 352.63 184.86 375.16 184.29 374.57 163.86 399.09 154.73"/><rect class="cls-16" x="380.27" y="164.43" width="6.27" height="3.99"/><rect class="cls-16" x="387.69" y="164.43" width="6.27" height="3.99"/><rect class="cls-16" x="380.27" y="169.56" width="6.27" height="5.13"/><rect class="cls-16" x="387.69" y="169.56" width="6.27" height="5.13"/><rect class="cls-17" x="375.16" y="200.83" width="6.84" height="9.13"/><rect class="cls-17" x="368.89" y="189.43" width="6.84" height="9.13"/><rect class="cls-18" x="484.39" y="231.06" width="47.91" height="92.97"/><rect class="cls-19" x="489.23" y="237.05" width="42.78" height="17.11"/><rect class="cls-20" x="496.08" y="241.61" width="35.93" height="6.84"/><rect class="cls-21" x="485.81" y="259.3" width="45.06" height="1.71"/><path class="cls-21" d="M531.44,287.24v-1.71h-2.85v-21.1h2.28v-1.71H485.81v1.71h2.28v59.89h1.14v-2.85h41.64v-1.72H489.23v-4h42.21v-1.71H489.23V292.38h9.7v21.1h1.14v-21.1h8v21.1h1.14v-21.1h8.55v21.1h1.14v-21.1h8.56v21.1h1.14v-21.1h2.85v-1.71H489.23v-3.43Zm-4-22.81v21.1h-8.56v-21.1Zm-9.7,0v21.1H509.2v-21.1Zm-9.69,0v21.1h-8v-21.1Zm-9.13,0v21.1h-9.7v-21.1Z"/><rect class="cls-22" x="511.19" y="262.15" width="52.47" height="62.17"/><rect class="cls-23" x="512.05" y="270.42" width="49.62" height="1.14"/><rect class="cls-23" x="517.18" y="274.41" width="1.14" height="12.55"/><rect class="cls-23" x="525.17" y="274.41" width="1.14" height="12.55"/><rect class="cls-23" x="532.01" y="274.41" width="1.14" height="12.55"/><rect class="cls-23" x="539.43" y="274.41" width="1.14" height="12.55"/><rect class="cls-23" x="546.27" y="274.41" width="1.14" height="12.55"/><rect class="cls-23" x="553.11" y="274.41" width="1.14" height="12.55"/><rect class="cls-23" x="512.05" y="289.81" width="49.62" height="1.14"/><rect class="cls-23" x="517.18" y="293.8" width="1.14" height="12.55"/><rect class="cls-23" x="525.17" y="293.8" width="1.14" height="12.55"/><rect class="cls-23" x="532.01" y="293.8" width="1.14" height="12.55"/><rect class="cls-23" x="539.43" y="293.8" width="1.14" height="12.55"/><rect class="cls-23" x="546.27" y="293.8" width="1.14" height="12.55"/><rect class="cls-23" x="553.11" y="293.8" width="1.14" height="12.55"/><rect class="cls-23" x="512.05" y="307.49" width="49.62" height="1.14"/><rect class="cls-23" x="517.18" y="311.48" width="1.14" height="12.55"/><rect class="cls-23" x="525.17" y="311.48" width="1.14" height="12.55"/><rect class="cls-23" x="532.01" y="311.48" width="1.14" height="12.55"/><rect class="cls-23" x="539.43" y="311.48" width="1.14" height="12.55"/><rect class="cls-23" x="546.27" y="311.48" width="1.14" height="12.55"/><rect class="cls-23" x="553.11" y="311.48" width="1.14" height="12.55"/><polygon class="cls-24" points="640.1 324.32 692.57 324.32 692 261.58 661.2 262.72 640.67 303.21 640.1 324.32"/><polygon class="cls-6" points="770.14 324.32 863.68 324.32 863.68 197.7 830.31 197.7 830.88 270.42 822.9 268.71 823.47 245.32 815.48 245.32 815.48 229.92 803.5 235.06 804.08 271.56 769.85 291.52 770.14 324.32"/><path class="cls-25" d="M853.57,304.37l-15.23-.61,9.14-13.4Zm-14.18-1.14,13.29.54-5.31-12.23Z"/><polygon class="cls-26" points="832.59 272.7 859.97 281.82 859.97 259.58 832.59 272.7"/><rect class="cls-25" x="832.59" y="201.97" width="29.09" height="1.71"/><rect class="cls-25" x="833.16" y="211.67" width="28.52" height="6.84"/><rect class="cls-25" x="833.16" y="230.49" width="28.52" height="6.84"/><rect class="cls-27" x="822.9" y="270.99" width="1.14" height="32.51"/><rect class="cls-27" x="805.79" y="276.69" width="7.41" height="1.14"/><rect class="cls-27" x="805.79" y="279.54" width="7.99" height="1.14"/><rect class="cls-27" x="805.79" y="282.97" width="14.26" height="1.14"/><rect class="cls-27" x="805.79" y="285.82" width="15.97" height="1.14"/><rect class="cls-27" x="805.79" y="289.24" width="15.97" height="1.14"/><path class="cls-25" d="M810.92,241.61a2,2,0,1,1,2-2A2,2,0,0,1,810.92,241.61Zm0-3.42a1.43,1.43,0,1,0,1.43,1.43A1.43,1.43,0,0,0,810.92,238.19Z"/><path class="cls-25" d="M779.55,293.23c.57-.57,23.38-14.26,23.38-14.26l-1.71-1.71-22.81,14.26Z"/><path class="cls-25" d="M786.11,311.2H777V298.65h9.13Zm-8.56-.57h8V299.22h-8Z"/><rect class="cls-27" x="805.22" y="293.23" width="14.83" height="2.85"/><rect class="cls-27" x="805.79" y="300.08" width="14.83" height="2.85"/><polygon class="cls-1" points="355.48 324.31 443.32 324.31 441.61 173.74 403.68 175.16 403.68 187.14 397.98 191.13 396.83 287.52 356.34 288.09 355.48 324.31"/><rect class="cls-25" x="407.67" y="187.14" width="32.51" height="1.71"/><rect class="cls-25" x="413.38" y="196.84" width="14.83" height="1.14"/><rect class="cls-25" x="413.38" y="224.21" width="13.69" height="1.14"/><rect class="cls-25" x="413.38" y="278.97" width="14.83" height="1.71"/><polygon class="cls-25" points="411.38 282.11 396.83 282.11 396.83 281.54 410.81 281.54 410.81 198.26 397.94 198.15 397.94 197.58 411.38 197.69 411.38 282.11"/><polygon class="cls-2" points="397.88 200.45 408.81 200.26 408.24 278.4 396.83 278.49 397.88 200.45"/><rect class="cls-28" x="398.55" y="201.4" width="9.13" height="6.84"/><rect class="cls-28" x="398.55" y="209.38" width="9.13" height="7.99"/><rect class="cls-28" x="398.55" y="218.51" width="9.13" height="9.7"/><rect class="cls-28" x="398.55" y="229.35" width="9.13" height="9.13"/><rect class="cls-28" x="398.55" y="239.61" width="9.13" height="6.84"/><rect class="cls-28" x="397.98" y="247.6" width="9.7" height="6.84"/><rect class="cls-28" x="397.98" y="255.58" width="9.7" height="6.27"/><rect class="cls-28" x="397.41" y="263" width="10.27" height="7.41"/><rect class="cls-28" x="397.41" y="271.55" width="10.27" height="6.27"/><polygon class="cls-25" points="430.2 281.53 442.75 281.53 442.75 280.96 430.69 280.96 430.69 197.69 441.8 197.58 441.79 197.01 430.2 197.12 430.2 281.53"/><polygon class="cls-2" points="441.85 199.88 432.42 199.69 432.91 277.83 442.75 277.92 441.85 199.88"/><rect class="cls-28" x="433.4" y="200.83" width="7.87" height="6.84" transform="translate(874.67 408.5) rotate(-180)"/><rect class="cls-28" x="433.4" y="208.81" width="7.87" height="7.99" transform="translate(874.67 425.61) rotate(-180)"/><rect class="cls-28" x="433.4" y="217.94" width="7.87" height="9.7" transform="translate(874.67 445.57) rotate(-180)"/><rect class="cls-28" x="433.4" y="228.78" width="7.87" height="9.13" transform="translate(874.67 466.68) rotate(-180)"/><rect class="cls-28" x="433.4" y="239.04" width="7.87" height="6.84" transform="translate(874.67 484.93) rotate(-180)"/><rect class="cls-28" x="433.4" y="247.03" width="8.37" height="6.84" transform="translate(875.17 500.9) rotate(-180)"/><rect class="cls-28" x="433.4" y="255.01" width="8.37" height="6.27" transform="translate(875.17 516.3) rotate(-180)"/><rect class="cls-28" x="433.4" y="262.43" width="8.86" height="7.41" transform="translate(875.66 532.27) rotate(-180)"/><rect class="cls-28" x="433.4" y="270.98" width="8.86" height="6.27" transform="translate(875.66 548.24) rotate(-180)"/><polygon class="cls-25" points="437.05 324.32 436.48 294.65 404.53 294.65 404.39 324.31 403.82 324.31 403.97 294.08 437.04 294.08 437.62 324.31 437.05 324.32"/><polygon class="cls-25" points="433.2 324.31 433.06 299.79 409.09 300.35 408.53 323.46 407.96 323.45 408.53 299.79 433.62 299.21 433.77 324.31 433.2 324.31"/><rect class="cls-29" x="380.87" y="297.79" width="1.14" height="25.67"/><rect class="cls-29" x="384.29" y="297.79" width="1.14" height="25.67"/><rect class="cls-29" x="387.14" y="297.79" width="1.14" height="25.67"/><rect class="cls-29" x="390.56" y="297.79" width="1.14" height="25.67"/><rect class="cls-29" x="392.84" y="297.79" width="1.14" height="25.67"/><rect class="cls-30" x="300.73" y="212.29" width="21.67" height="66.9"/><polygon class="cls-31" points="237.42 324.32 358.91 324.32 359.48 233.24 335.24 233.65 335.24 177.23 321.55 193.35 321.55 273.94 306.15 274.75 306.15 251.38 287.32 251.38 287.32 255.41 275.92 255.41 275.35 162.72 237.7 165.14 237.42 324.32"/><rect class="cls-32" x="241.13" y="169.17" width="32.51" height="40.3"/><path class="cls-33" d="M263.66,269.51h-3.43v-5.64h3.43Zm-2.86-.8h2.29v-4H260.8Z"/><path class="cls-33" d="M271.64,266.29h-2.85v-5.64h2.85Zm-2.28-.81h1.71v-4h-1.71Z"/><rect class="cls-33" x="302.15" y="243.32" width="1.14" height="8.06"/><rect class="cls-33" x="293.6" y="244.12" width="1.14" height="7.25"/><rect class="cls-33" x="290.75" y="242.51" width="1.14" height="8.87"/><rect class="cls-34" x="323.26" y="212.69" width="10.27" height="0.81"/><rect class="cls-34" x="323.26" y="215.11" width="10.84" height="0.81"/><rect class="cls-34" x="323.26" y="232.84" width="10.27" height="1.61"/><rect class="cls-34" x="324.97" y="237.67" width="31.94" height="1.61"/><path class="cls-34" d="M344.65,258.23H327V243.72h17.68Zm-17.11-.81h16.54V244.53H327.54Z"/><rect class="cls-34" x="346.64" y="243.32" width="9.13" height="1.61"/><rect class="cls-34" x="346.64" y="248.15" width="9.13" height="0.81"/><rect class="cls-34" x="346.64" y="252.99" width="9.13" height="1.61"/><rect class="cls-34" x="346.64" y="257.02" width="9.13" height="0.81"/><rect class="cls-34" x="323.83" y="261.05" width="33.08" height="0.81"/><rect class="cls-34" x="323.83" y="265.88" width="34.22" height="1.61"/><rect class="cls-33" x="278.77" y="265.88" width="6.84" height="0.81"/><rect class="cls-33" x="287.33" y="264.27" width="18.25" height="0.81"/><rect class="cls-33" x="287.33" y="256.21" width="0.57" height="37.88"/><rect class="cls-33" x="293.6" y="266.69" width="1.14" height="10.48"/><rect class="cls-33" x="300.44" y="266.69" width="0.57" height="10.48"/><rect class="cls-33" x="289.61" y="271.53" width="2.85" height="4.84"/><rect class="cls-33" x="275.92" y="257.82" width="1.71" height="37.88"/><path class="cls-33" d="M252.53,321.5c.57,0,33.65-23.38,33.65-23.38L285,295.71,248,321.5Z"/><rect class="cls-33" x="279.34" y="274.75" width="6.27" height="1.61"/><rect class="cls-33" x="279.34" y="286.03" width="6.27" height="1.61"/><polygon class="cls-7" points="105.67 324.32 195.78 324.32 192.36 184.58 174.39 184.29 170.4 119.27 147.59 139.81 149.3 233.91 143.59 233.34 105.95 260.15 105.67 324.32"/><polygon class="cls-8" points="151.58 149.5 168.69 138.09 168.69 126.12 151.58 142.09 151.58 149.5"/><path class="cls-8" d="M168.69,143.8,151,155.2,153.29,202,171,184.86Zm-13.12,48.48-1.14-36.51,1.14-.57,1.14,36.51Zm4-4-1.14-35.37s1.14-.57,1.14,0,1.14,34.8,1.14,34.8Zm5.71-6.28-1.14,1.14V151.21h1.14Z"/><path class="cls-35" d="M158.69,235.34H146.84l12.48,11.23Zm-10.36.57h9.82l.52,9.31Z"/><path class="cls-35" d="M149,257.3h0v6.58l7.41-.61.58-15.09v-.13l-8-6.77Zm7.07-.23-6.5.21v-5.2l6.69.13Zm-6.5,6.19v-5.41l6.48-.21-.19,5.1Zm6.84-15-.13,3.34-6.71-.13v-9Z"/><polygon class="cls-35" points="120.21 319.75 119.64 319.75 119.64 257.3 125.34 257.3 125.34 254.45 130.43 254.45 129.86 250.46 134.47 250.46 134.47 245.91 142.15 245.32 142.19 245.89 135.04 246.44 135.04 251.03 130.52 251.03 131.09 255.02 125.91 255.02 125.91 257.87 120.21 257.87 120.21 319.75"/><rect class="cls-36" x="155.57" y="272.13" width="5.13" height="6.84"/><rect class="cls-36" x="150.44" y="280.11" width="5.13" height="6.27"/><rect class="cls-10" x="172.11" y="191.71" width="6.84" height="15.97"/><rect class="cls-10" x="180.67" y="190.57" width="6.27" height="20.53"/><rect class="cls-35" x="144.16" y="235.06" width="1.14" height="33.08"/><rect class="cls-35" x="136.75" y="256.16" width="1.14" height="38.78"/><rect class="cls-35" x="132.76" y="259.58" width="1.14" height="31.94"/><rect class="cls-35" x="128.76" y="263" width="1.14" height="28.52"/><path class="cls-36" d="M144.16,299.51s18.26,10.83,18.26,10.26-2.29-22.24-2.29-22.24Z"/><polyline class="cls-10" points="174.39 245.89 173.82 241.9 161.28 251.03 161.28 253.31 167.55 253.31 174.39 246.46"/><polygon class="cls-10" points="161.28 245.89 162.99 245.89 172.68 239.62 172.68 237.91 161.28 245.89"/><path class="cls-10" d="M159.56,234.49h1.14v-.58h11.41v-1.14s-12.55-.57-12.55,0Z"/><polygon class="cls-10" points="169.26 253.31 174.39 253.31 175.53 248.74 169.26 253.31"/><polygon class="cls-6" points="176.96 324.32 236.28 324.32 235.99 236.2 220.59 230.49 220.59 242.47 213.18 242.47 213.18 259.01 206.33 260.15 206.33 207.11 176.68 207.11 176.96 324.32"/><rect class="cls-37" x="177.82" y="208.82" width="26.81" height="1.71"/><rect class="cls-38" x="178.39" y="216.23" width="26.81" height="4.56"/><rect class="cls-38" x="178.39" y="231.06" width="26.81" height="4.56"/><rect class="cls-37" x="223.44" y="264.71" width="10.84" height="1.14"/><rect class="cls-37" x="222.87" y="267" width="11.41" height="1.14"/><rect class="cls-37" x="216.6" y="269.85" width="17.68" height="0.57"/><rect class="cls-37" x="214.89" y="272.13" width="19.39" height="0.57"/><rect class="cls-37" x="216.03" y="274.98" width="18.82" height="0.57"/><rect class="cls-37" x="212.61" y="260.72" width="1.14" height="62.74"/><path class="cls-37" d="M234,292.38H216.89V277.55H234Zm-16.54-.57h16V278.12h-16Z"/><path class="cls-37" d="M225.44,239.33a2,2,0,1,1,2.28-2A2.15,2.15,0,0,1,225.44,239.33Zm0-3.42a1.45,1.45,0,1,0,1.71,1.43A1.59,1.59,0,0,0,225.44,235.91Z"/><path class="cls-39" d="M199.52,285.53h-13l5-9.93ZM187.4,285h10.92l-6.76-8.32Z"/><path class="cls-37" d="M228.57,287.81h-9l3.87-7.09Zm-8.07-.57h6.95l-4-5.45Z"/><polygon class="cls-40" points="180.67 269.28 204.62 261.86 180.67 252.74 180.67 269.28"/><path class="cls-4" d="M915,324.32h106.66l-4-108.37-13.69-.57-.57-26.24h-6.28V182.3H974.9l.57,32.51H957.79V161.19H931.55c-.57,0,0,60.46,0,60.46h-16Z"/><polygon class="cls-1" points="978.32 215.38 996.57 215.38 996 190.85 977.75 190.85 978.32 215.38"/><polygon class="cls-1" points="978.32 189.14 995.43 189.71 995.43 185.72 977.75 184.01 978.32 189.14"/><polygon class="cls-5" points="965.17 231.57 964.65 241.04 979.92 241.04 965.17 231.57"/><path class="cls-5" d="M956.93,220.23v25.66l35.94-1.14Zm7.73,10.33,17.2,11.05H964.05Z"/><polygon class="cls-1" points="961.4 324.32 992.58 324.32 992.29 297.8 960.92 285.25 961.4 324.32"/><polygon class="cls-2" points="934.12 257.87 934.12 323.46 956.46 324.32 956.36 278.4 946.1 258.44 934.12 257.87"/><polygon class="cls-6" points="915.39 310.44 930.13 310.34 930.13 282.97 954.08 282.4 953.61 324.32 914.73 324.03 915.39 310.44"/><polygon class="cls-7" points="992.58 324.32 1082.7 324.32 1079.28 184.58 1061.31 184.29 1057.32 119.27 1034.5 139.81 1036.21 233.91 1030.51 233.34 992.87 260.15 992.58 324.32"/><polygon class="cls-8" points="1038.49 149.5 1055.61 138.09 1055.61 126.12 1038.49 142.09 1038.49 149.5"/><path class="cls-8" d="M1055.61,143.8l-17.69,11.4,2.29,46.77,17.68-17.11Zm-13.12,48.48-1.14-36.51,1.14-.57,1.14,36.51Zm4-4-1.14-35.37s1.14-.57,1.14,0,1.14,34.8,1.14,34.8Zm5.7-6.28-1.14,1.14V151.21h1.14Z"/><path class="cls-35" d="M1045.61,235.34h-11.85l12.47,11.23Zm-10.37.57h9.83l.52,9.31Z"/><path class="cls-35" d="M1035.93,257.3h0v6.58l7.4-.61.58-15.09v-.13l-8-6.77Zm7.07-.23-6.5.21v-5.2l6.69.13Zm-6.5,6.19v-5.41l6.48-.21-.2,5.1Zm6.84-15-.13,3.34-6.71-.13v-9Z"/><polygon class="cls-35" points="1007.12 319.75 1006.55 319.75 1006.55 257.3 1012.26 257.3 1012.26 254.45 1017.35 254.45 1016.78 250.46 1021.38 250.46 1021.38 245.91 1029.06 245.32 1029.11 245.89 1021.95 246.44 1021.95 251.03 1017.43 251.03 1018 255.02 1012.83 255.02 1012.83 257.87 1007.12 257.87 1007.12 319.75"/><rect class="cls-36" x="1042.49" y="272.13" width="5.13" height="6.84"/><rect class="cls-36" x="1037.35" y="280.11" width="5.13" height="6.27"/><rect class="cls-10" x="1059.03" y="191.71" width="6.84" height="15.97"/><rect class="cls-10" x="1067.58" y="190.57" width="6.27" height="20.53"/><rect class="cls-35" x="1031.08" y="235.06" width="1.14" height="33.08"/><rect class="cls-35" x="1023.66" y="256.16" width="1.14" height="38.78"/><rect class="cls-35" x="1019.67" y="259.58" width="1.14" height="31.94"/><rect class="cls-35" x="1015.68" y="263" width="1.14" height="28.52"/><path class="cls-36" d="M1031.08,299.51s18.25,10.83,18.25,10.26-2.28-22.24-2.28-22.24Z"/><polyline class="cls-10" points="1061.31 245.89 1060.74 241.9 1048.19 251.03 1048.19 253.31 1054.46 253.31 1061.31 246.46"/><polygon class="cls-10" points="1048.19 245.89 1049.9 245.89 1059.6 239.62 1059.6 237.91 1048.19 245.89"/><path class="cls-10" d="M1046.48,234.49h1.14v-.58H1059v-1.14s-12.55-.57-12.55,0Z"/><polygon class="cls-10" points="1056.17 253.31 1061.31 253.31 1062.45 248.74 1056.17 253.31"/><polygon class="cls-6" points="1053.61 324.32 1112.93 324.32 1112.64 236.2 1097.24 230.49 1097.24 242.47 1089.83 242.47 1089.83 259.01 1082.98 260.15 1082.98 207.11 1053.32 207.11 1053.61 324.32"/><rect class="cls-37" x="1054.46" y="208.82" width="26.81" height="1.71"/><rect class="cls-38" x="1055.03" y="216.23" width="26.81" height="4.56"/><rect class="cls-38" x="1055.03" y="231.06" width="26.81" height="4.56"/><rect class="cls-37" x="1100.09" y="264.71" width="10.84" height="1.14"/><rect class="cls-37" x="1099.52" y="267" width="11.41" height="1.14"/><rect class="cls-37" x="1093.25" y="269.85" width="17.68" height="0.57"/><rect class="cls-37" x="1091.54" y="272.13" width="19.39" height="0.57"/><rect class="cls-37" x="1092.68" y="274.98" width="18.82" height="0.57"/><rect class="cls-37" x="1089.26" y="260.72" width="1.14" height="62.74"/><path class="cls-37" d="M1110.65,292.38h-17.12V277.55h17.12Zm-16.55-.57h16V278.12h-16Z"/><path class="cls-37" d="M1102.09,239.33a2,2,0,1,1,2.28-2A2.15,2.15,0,0,1,1102.09,239.33Zm0-3.42a1.45,1.45,0,1,0,1.71,1.43A1.59,1.59,0,0,0,1102.09,235.91Z"/><path class="cls-39" d="M1076.17,285.53h-13l5-9.93Zm-12.12-.57H1075l-6.76-8.32Z"/><path class="cls-37" d="M1105.22,287.81h-9l3.87-7.09Zm-8.07-.57h6.95l-4-5.45Z"/><polygon class="cls-40" points="1057.32 269.28 1081.27 261.86 1057.32 252.74 1057.32 269.28"/><path class="cls-41" d="M651.47,324.32c0-6.85,0-14.26,0-14.26l6.36-.45-.07-6.4h20.53v2.86h7.41s0-4.95,0-6.28h22.25v24.53Z"/><rect class="cls-42" x="688.55" y="305.5" width="6.84" height="5.13"/><rect class="cls-42" x="696.53" y="305.5" width="6.84" height="5.13"/><path class="cls-42" d="M658.32,308.35v9.12h16.54v-9.12Zm14.83,7.41H660v-5.7h13.12Z"/><rect class="cls-43" x="683.41" y="296.37" width="26.24" height="5.7"/></g><path class="cls-44" d="M0,382.05S58.89,182.86,388.68,228.59c342.78,47.53,1098.05-36.33,1250.72,4.75,143.84,38.71,280.92,55.54,280.6,65.32l1,209.66L0,508.62Z"/><path class="cls-45" d="M136.09,362.12a9.7,9.7,0,0,0-1,4.6A12.32,12.32,0,0,1,130.22,377a1.34,1.34,0,0,1-1,.13c-.34-.1-.57-.31-.57-.55a48.73,48.73,0,0,0-1.52-10.8,12.28,12.28,0,0,0-1.11-3,3.18,3.18,0,0,0-.14.95c0,7.23-2.16,13.5-6.27,18.12-2.44,2.76-2.87,3.07-3.8,2.78s-1.1-.35,3.14-6.94c.73-1.15,1.47-2.3,2.08-3.28,1.71-2.76,1.43-3,.21-4.18a14.89,14.89,0,0,1-3.3-4.33c-.55-1.05-1-1.89-1.3-2.46a6.28,6.28,0,0,1-1.79,1.7c-2.94,1.9-12,12.63-12.14,12.74a1.15,1.15,0,0,1-1,.29c-.41-.06-.69-.3-.69-.57s.13-2.29,4.74-7.24c3.45-3.7,1.36-5.48.55-6a50.65,50.65,0,0,0-13,3.79c-4.11,2-13.47,11.58-17.77,16.56a5.35,5.35,0,0,1-2.12,3.19,1.65,1.65,0,0,1-1.26.29.87.87,0,0,1-.67-.5c-.1-.39.82-1.71,2.33-3.5.18-.6.35-1.27.54-2a41.44,41.44,0,0,1,5.24-12.74c2.75-4.43,8.53-9.62,20.49-9.3h.35a44.55,44.55,0,0,0,7-1.38c5.25-1.25,11.79-2.82,17.28-2.82a15.52,15.52,0,0,1,7,1.36C136.42,359.78,137,360.17,136.09,362.12Z"/><path class="cls-46" d="M135.46,340.29c-1.13-.25-1.75,1-2.84,3.42-.25.54-.51,1.11-.77,1.63a28.41,28.41,0,0,0-1.39,3.84c-.77,2.41-1.94,6.06-3.09,6.55a.49.49,0,0,1-.43,0,10.7,10.7,0,0,0-2-.7c-2.49-.72-4.84-1.41-3.69-10.66,1.58-12.6,1.56-17.23-1.62-23.59-1.63-3.25-1.66-3.31-2.5-3s-.65,1-.38,2.1a31.61,31.61,0,0,1,1.13,7.46c0,16.9-.67,21.53-1.24,22.37-1,.27-5.41-1.33-9.15-3.85-2.48-1.67-3.14-2.79-3.14-3.14,0-3,1.52-16.67,1.53-16.81a.94.94,0,0,0-.54-.95.92.92,0,0,0-1.07.24c-.46.52-11.15,12.9-6.25,21.07,1.27,2.11,2.64,4.09,3.86,5.84,1.36,2,3,4.41,3.2,5.29a5,5,0,0,1-1.43-.2c-5.79-1.45-7.19-2.76-10.22-7.31-1-1.55-2.19-2.33-3.3-2.24a2,2,0,0,0-1.67,1.3c-.68,1.62-.18,5.13,3.48,9.72,6.43,8,14.35,8,20.71,8a156.07,156.07,0,0,0,17-1.55.92.92,0,0,0,.52-.26c3.31-3.3,6.42-14.43,6.42-20.64C136.67,341.73,136.49,340.51,135.46,340.29Z"/><path class="cls-45" d="M1391.09,334.12a9.7,9.7,0,0,0-1,4.6,12.32,12.32,0,0,1-4.88,10.32,1.34,1.34,0,0,1-1,.13c-.34-.1-.57-.31-.57-.55a48.73,48.73,0,0,0-1.52-10.8,12.28,12.28,0,0,0-1.11-3,3.18,3.18,0,0,0-.14.95c0,7.23-2.16,13.5-6.27,18.12-2.44,2.76-2.87,3.07-3.8,2.78s-1.1-.35,3.14-6.94c.73-1.15,1.47-2.3,2.08-3.28,1.71-2.76,1.43-3,.21-4.18a14.89,14.89,0,0,1-3.3-4.33c-.55-1.05-1-1.89-1.3-2.46a6.28,6.28,0,0,1-1.79,1.7c-2.94,1.9-12,12.63-12.14,12.74a1.15,1.15,0,0,1-1,.29c-.41-.06-.69-.3-.69-.57s.13-2.29,4.74-7.24c3.45-3.7,1.36-5.48.55-6a50.65,50.65,0,0,0-13,3.79c-4.11,2-13.47,11.58-17.77,16.56a5.35,5.35,0,0,1-2.12,3.19,1.65,1.65,0,0,1-1.26.29.87.87,0,0,1-.67-.5c-.1-.39.82-1.71,2.33-3.5.18-.6.35-1.27.54-2a41.44,41.44,0,0,1,5.24-12.74c2.75-4.43,8.53-9.62,20.49-9.3h.35a44.55,44.55,0,0,0,7-1.38c5.25-1.25,11.79-2.82,17.28-2.82a15.52,15.52,0,0,1,7,1.36C1391.42,331.78,1392,332.17,1391.09,334.12Z"/><path class="cls-46" d="M1390.46,312.29c-1.13-.25-1.75,1-2.84,3.42-.25.54-.51,1.11-.77,1.63a28.41,28.41,0,0,0-1.39,3.84c-.77,2.41-1.94,6.06-3.09,6.55a.49.49,0,0,1-.43,0,10.7,10.7,0,0,0-2-.7c-2.49-.72-4.84-1.41-3.69-10.66,1.58-12.6,1.56-17.23-1.62-23.59-1.63-3.25-1.66-3.31-2.5-3s-.65,1-.38,2.1a31.61,31.61,0,0,1,1.13,7.46c0,16.9-.67,21.53-1.24,22.37-1,.27-5.41-1.33-9.15-3.85-2.48-1.67-3.14-2.79-3.14-3.14,0-3,1.52-16.67,1.53-16.81a.94.94,0,0,0-.54-.95.92.92,0,0,0-1.07.24c-.46.52-11.15,12.9-6.25,21.07,1.27,2.11,2.64,4.09,3.86,5.84,1.36,2,3,4.41,3.2,5.29a5,5,0,0,1-1.43-.2c-5.79-1.45-7.19-2.76-10.22-7.31-1-1.55-2.19-2.33-3.3-2.24a2,2,0,0,0-1.67,1.3c-.68,1.62-.18,5.13,3.48,9.72,6.43,8,14.35,8,20.71,8a156.07,156.07,0,0,0,17-1.55.92.92,0,0,0,.52-.26c3.31-3.3,6.42-14.43,6.42-20.64C1391.67,313.73,1391.49,312.51,1390.46,312.29Z"/><path class="cls-45" d="M343.71,454.93c-.71.09-1.1-.39-1.78-1.27-.16-.2-.32-.41-.48-.6a8.51,8.51,0,0,1-.88-1.43c-.48-.89-1.21-2.25-1.94-2.43a.41.41,0,0,0-.26,0c-.4.11-.83.19-1.23.26-1.56.26-3,.52-2.31,3.95,1,4.68,1,6.39-1,8.76-1,1.2-1,1.23-1.57,1.11s-.4-.38-.23-.78a7.5,7.5,0,0,0,.7-2.77c0-6.27-.42-8-.77-8.3a18.74,18.74,0,0,0-5.74,1.43c-1.56.62-2,1-2,1.16,0,1.11.95,6.19,1,6.24s-.11.29-.34.35a.89.89,0,0,1-.67-.08c-.28-.2-7-4.79-3.91-7.82.79-.79,1.65-1.52,2.41-2.17a10.55,10.55,0,0,0,2-2,6.91,6.91,0,0,0-.9.08c-3.62.54-4.5,1-6.4,2.71a2.91,2.91,0,0,1-2.07.83,1.32,1.32,0,0,1-1-.48c-.43-.6-.12-1.9,2.18-3.61,4-3,9-3,13-3s10.4.55,10.68.58a.75.75,0,0,1,.32.09c2.08,1.23,4,5.36,4,7.66C344.47,454.39,344.35,454.85,343.71,454.93Z"/><path class="cls-46" d="M343.93,445.41a14.11,14.11,0,0,1-.62-4.47c0-6.9-2.93-9.92-3.06-10a.57.57,0,0,0-.63-.13.58.58,0,0,0-.35.53,73.14,73.14,0,0,1-1,10.51,16.63,16.63,0,0,1-.69,2.95,4.72,4.72,0,0,1-.09-.93c0-7-1.36-13.13-3.93-17.63-1.53-2.69-1.8-3-2.38-2.7s-.7.34,2,6.76c.46,1.11.92,2.23,1.31,3.19,1.07,2.68.89,2.95.13,4.06a15.32,15.32,0,0,0-2.07,4.21c-.34,1-.62,1.84-.82,2.4a5.59,5.59,0,0,0-1.11-1.66c-1.85-1.85-7.56-12.29-7.61-12.4a.58.58,0,0,0-1.09.28c0,.21.08,2.23,3,7,2.16,3.6.86,5.34.35,5.83a23.93,23.93,0,0,1-8.18-3.7c-2.57-1.93-8.44-11.26-11.13-16.11a6,6,0,0,0-1.33-3.1.81.81,0,0,0-.79-.29.65.65,0,0,0-.42.49c-.07.38.51,1.66,1.46,3.41.11.58.22,1.23.34,1.95a54.27,54.27,0,0,0,3.28,12.4c1.72,4.31,5.35,9.36,12.84,9.05h.22a19.24,19.24,0,0,1,4.4,1.34c3.29,1.22,7.4,2.74,10.83,2.74a6.84,6.84,0,0,0,4.41-1.32C344.14,447.69,344.5,447.31,343.93,445.41Z"/><path class="cls-45" d="M932.71,334.93c-.71.09-1.1-.39-1.78-1.27l-.48-.6a8.51,8.51,0,0,1-.88-1.43c-.48-.89-1.21-2.25-1.94-2.43a.41.41,0,0,0-.26,0c-.4.11-.83.19-1.23.26-1.56.26-3,.52-2.31,3.95,1,4.68,1,6.39-1,8.76-1,1.2-1,1.23-1.57,1.11s-.4-.38-.23-.78a7.5,7.5,0,0,0,.7-2.77c0-6.27-.42-8-.77-8.3a18.74,18.74,0,0,0-5.74,1.43c-1.56.62-2,1-2,1.16,0,1.11.95,6.19,1,6.24s-.11.29-.34.35a.89.89,0,0,1-.67-.08c-.28-.2-7-4.79-3.91-7.82.79-.79,1.65-1.52,2.41-2.17a10.55,10.55,0,0,0,2-2,6.91,6.91,0,0,0-.9.08c-3.62.54-4.5,1-6.4,2.71a2.91,2.91,0,0,1-2.07.83,1.32,1.32,0,0,1-1-.48c-.43-.6-.12-1.9,2.18-3.61,4-3,9-3,13-3s10.4.55,10.68.58a.75.75,0,0,1,.32.09c2.08,1.23,4,5.36,4,7.66C933.47,334.39,933.35,334.85,932.71,334.93Z"/><path class="cls-46" d="M932.93,325.41a14.11,14.11,0,0,1-.62-4.47c0-6.9-2.93-9.92-3.06-10a.57.57,0,0,0-.63-.13.58.58,0,0,0-.35.53,73.14,73.14,0,0,1-1,10.51,16.63,16.63,0,0,1-.69,2.95,4.72,4.72,0,0,1-.09-.93c0-7-1.36-13.13-3.93-17.63-1.53-2.69-1.8-3-2.38-2.7s-.7.34,2,6.76c.46,1.11.92,2.23,1.31,3.19,1.07,2.68.89,2.95.13,4.06a15.32,15.32,0,0,0-2.07,4.21c-.34,1-.62,1.84-.82,2.4a5.59,5.59,0,0,0-1.11-1.66c-1.85-1.85-7.56-12.29-7.61-12.4a.58.58,0,0,0-1.09.28c0,.21.08,2.23,3,7,2.16,3.6.86,5.34.35,5.83a23.93,23.93,0,0,1-8.18-3.7c-2.57-1.93-8.44-11.26-11.13-16.11a6,6,0,0,0-1.33-3.1.81.81,0,0,0-.79-.29.65.65,0,0,0-.42.49c-.07.38.51,1.66,1.46,3.41.11.58.22,1.23.34,1.95a54.27,54.27,0,0,0,3.28,12.4c1.72,4.31,5.35,9.36,12.84,9.05h.22a19.24,19.24,0,0,1,4.4,1.34c3.29,1.22,7.4,2.74,10.83,2.74a6.84,6.84,0,0,0,4.41-1.32C933.14,327.69,933.5,327.31,932.93,325.41Z"/><path class="cls-45" d="M1449.71,475.93c-.71.09-1.1-.39-1.78-1.27l-.48-.6a8.51,8.51,0,0,1-.88-1.43c-.48-.89-1.21-2.25-1.94-2.43a.41.41,0,0,0-.26,0c-.4.11-.83.19-1.23.26-1.56.26-3,.52-2.31,3.95,1,4.68,1,6.39-1,8.76-1,1.2-1,1.23-1.57,1.11s-.4-.38-.23-.78a7.5,7.5,0,0,0,.7-2.77c0-6.27-.42-8-.77-8.3a18.74,18.74,0,0,0-5.74,1.43c-1.56.62-2,1-2,1.16,0,1.11,1,6.19,1,6.24s-.11.29-.34.35a.89.89,0,0,1-.67-.08c-.28-.2-7-4.79-3.91-7.82.79-.79,1.65-1.52,2.41-2.17a10.55,10.55,0,0,0,2-2,6.91,6.91,0,0,0-.9.08c-3.62.54-4.5,1-6.4,2.71a2.91,2.91,0,0,1-2.07.83,1.32,1.32,0,0,1-1-.48c-.43-.6-.12-1.9,2.18-3.61,4-3,9-3,13-3s10.4.55,10.68.58a.75.75,0,0,1,.32.09c2.08,1.23,4,5.36,4,7.66C1450.47,475.39,1450.35,475.85,1449.71,475.93Z"/><path class="cls-46" d="M1449.93,466.41a14.11,14.11,0,0,1-.62-4.47c0-6.9-2.93-9.92-3.06-10a.57.57,0,0,0-.63-.13.58.58,0,0,0-.35.53,73.14,73.14,0,0,1-1,10.51,16.63,16.63,0,0,1-.69,2.95,4.72,4.72,0,0,1-.09-.93c0-7-1.36-13.13-3.93-17.63-1.53-2.69-1.8-3-2.38-2.7s-.7.34,2,6.76c.46,1.11.92,2.23,1.31,3.19,1.07,2.68.89,2.95.13,4.06a15.32,15.32,0,0,0-2.07,4.21c-.34,1-.62,1.84-.82,2.4a5.59,5.59,0,0,0-1.11-1.66c-1.85-1.85-7.56-12.29-7.61-12.4a.58.58,0,0,0-1.09.28c0,.21.08,2.23,3,7,2.16,3.6.86,5.34.35,5.83a23.93,23.93,0,0,1-8.18-3.7c-2.57-1.93-8.44-11.26-11.13-16.11a6,6,0,0,0-1.33-3.1.81.81,0,0,0-.79-.29.65.65,0,0,0-.42.49c-.07.38.51,1.66,1.46,3.41.11.58.22,1.23.34,1.95a54.27,54.27,0,0,0,3.28,12.4c1.72,4.31,5.35,9.36,12.84,9.05h.22a19.24,19.24,0,0,1,4.4,1.34c3.29,1.22,7.4,2.74,10.83,2.74a6.84,6.84,0,0,0,4.41-1.32C1450.14,468.69,1450.5,468.31,1449.93,466.41Z"/><path class="cls-45" d="M1766,390.36s12.79-2.71,16.62-1.63,5.12,8.69,5.12,14.66-2.56,10.31,3.83,10.31,23-.54,26.85,4.34,3.84,17.37,2.56,19.54-3.84,2.72-9,2.18-6.39-1.09-6.39-6.52,2.55-8.68-1.28-10.31-10.23-3.8-12.79-1.63-3.83,17.37-3.83,25.51-1.28,14.66-3.84,15.74-12.79.55-11.51-2.71,0-20.08-1.28-21.71-6.39-1.63-6.39,2.17,1.28,8.68-1.28,9.77-9,0-9-3.8-1.28-10.86,2.56-13.57,9.59-3,10.87-2.44,6.39-9.77,1.28-10.86-12.79-2.17-16.62,2.71,1.27,17.92-3.84,19-12.79,1.09-14.06-4.88-1.28-16.29,5.11-20.09,19.18-4.34,21.74-4.88,3.83-2.72,3.83-6S1764.08,392.26,1766,390.36Z"/><path class="cls-47" d="M1764,400.72s12.79,6.39,16.62,3.84,5.12-20.46,5.12-34.53-2.56-24.29,3.83-24.29,23,1.28,26.85-10.23,3.84-40.91,2.56-46-3.84-6.4-9-5.12-6.39,2.56-6.39,15.34,2.55,20.46-1.28,24.3-10.23,8.95-12.79,3.83-3.83-40.91-3.83-60.09-1.28-34.52-3.84-37.08-12.79-1.28-11.51,6.39,0,47.31-1.28,51.15-6.39,3.83-6.39-5.12,1.28-20.45-1.28-23-9,0-9,8.95-1.28,25.57,2.56,32,9.59,7,10.87,5.76,6.39,23,1.28,25.57-12.79,5.11-16.62-6.4,1.27-42.19-3.84-44.75-12.79-2.55-14.06,11.51S1731.4,331,1737.79,340s19.18,10.23,21.74,11.51,3.83,6.39,3.83,14.06S1762.08,396.24,1764,400.72Z"/><path class="cls-48" d="M1806.19,334.23s5.12,1.28,6.4-19.17-1.28-26.85-3.84-26.85-4.48,7-5.75,18.54a183.51,183.51,0,0,0-1.28,23C1801.72,334.87,1803,333.6,1806.19,334.23Z"/><path class="cls-48" d="M1760.8,299.07s-2.55-12.78-1.27-20.45,1.27-11.51-1.28-12.79-3.84-1.28-5.12,6.39-2.55,24.3,0,28.13S1763.36,306.75,1760.8,299.07Z"/><path class="cls-48" d="M1778.7,235.15s1.28,101,2.56,106.12,2.56,3.83,0,10.23S1780,378.34,1778.7,386s0,16.62-2.55,16.62-12.79,1.28-11.51-24.3-3.84-24.29,1.28-28.12,1.28-11.51,1.28-11.51,2.55-29.41,1.28-30.69,7.67-7.67,5.11-8.95-6.39,0-5.11-12.78,2.55-48.59,5.11-49.86A12.73,12.73,0,0,1,1778.7,235.15Z"/><path class="cls-48" d="M1746.74,337.43s-6.39-12.78-5.11-24.29,2.55-28.13,1.27-28.13-7.67-1.28-9,6.39,0,48.59,2.56,49.87S1750.58,350.22,1746.74,337.43Z"/></g></g></svg>