<svg id="圖層_1" data-name="圖層 1" xmlns="http://www.w3.org/2000/svg" xmlns:xlink="http://www.w3.org/1999/xlink" viewBox="0 0 602 285"><defs><style>.cls-1{fill:none;}.cls-2{clip-path:url(#clip-path);}.cls-3{fill:#f0e3d8;}.cls-27,.cls-4{opacity:0.8;}.cls-5{fill:#ef7696;}.cls-6{fill:#7389a1;stroke:#f0e3d8;stroke-miterlimit:10;stroke-width:5px;}.cls-7{fill:#faa9a8;}.cls-8{fill:#e4b5bd;}.cls-9{fill:#ddab58;}.cls-10{fill:#f7bd5f;}.cls-11{fill:#2b102e;}.cls-12{fill:#fff;}.cls-13{fill:#e19a9a;}.cls-14{fill:#e69dc2;}.cls-15{fill:#da4d55;}.cls-16{fill:#ece5da;}.cls-17{fill:#cdbdb4;}.cls-18{fill:#c7a77b;}.cls-19{fill:#7f665b;}.cls-20{fill:#d3bf94;}.cls-21{fill:#f5e563;}.cls-22{fill:#9c8f77;}.cls-23{fill:#d3b26d;}.cls-24{fill:#cea45b;}.cls-25{fill:#b73d3a;}.cls-26{fill:#f9de96;}.cls-27{fill:#a3815a;}.cls-28{fill:#c69c6d;}.cls-29{fill:#666;}.cls-30{fill:#999;}.cls-31{fill:#b05b57;}.cls-32{fill:#634f54;}.cls-33{fill:#9a3a36;}.cls-34{fill:#170700;}.cls-35{fill:#1d0307;}.cls-36{font-size:29.31px;fill:#6a554c;}.cls-36,.cls-37{font-family:AdobeFanHeitiStd-Bold, AdobeFanHeitiStd Bold-B5pc-H;font-weight:700;}.cls-37{font-size:15.34px;fill:#705a50;}.cls-38{fill:#d6b65e;}.cls-39{fill:#c89a42;}.cls-40{fill:#b88035;}.cls-41{fill:#ddb25a;}.cls-42{fill:#586242;}.cls-43{fill:#bba97c;}.cls-44{fill:#525740;}.cls-45{fill:#cba75c;}</style><clipPath id="clip-path"><path class="cls-1" d="M493,51.07l-5.46,198.68c0,.28-3.81,27.85-22.86,28.14-20.88.31-310.1-3.73-312.84-3.76-.36,0-36.24-3.78-36.59-27-.38-25.06,1-209.6,1.06-211.51,0-.14-.11-14.1,8.89-22.29,4.24-3.86,9.88-5.85,16.8-5.95a43.1,43.1,0,0,1,5.35.26l313.24-.45h.25l.24-.05c.12,0,12.08-2.77,21.26,5C490.55,19.07,494.14,32.15,493,51.07Z"/></clipPath></defs><title>act_v1</title><g class="cls-2"><path class="cls-3" d="M493,50.22,487.5,248.9c0,.28-3.82,27.85-22.87,28.14-20.87.31-310.09-3.73-312.83-3.76-.37,0-36.25-3.78-36.6-27-.37-25.06,1-209.6,1.06-211.51,0-.14-.1-14.1,8.9-22.29C129.4,8.66,135,6.67,142,6.57a42.92,42.92,0,0,1,5.35.26l313.25-.45h.24l.24,0c.13,0,12.08-2.77,21.27,4.95C490.54,18.22,494.13,31.3,493,50.22Z"/><g class="cls-4"><rect class="cls-5" x="101.14" y="9.41" width="30.62" height="10.21" transform="translate(-0.17 1.44) rotate(-0.71)"/><rect class="cls-5" x="135.15" y="8.11" width="36.57" height="11.06" transform="translate(-0.16 1.89) rotate(-0.71)"/><rect class="cls-5" x="174.26" y="5.87" width="45.92" height="13.61" transform="translate(-0.14 2.43) rotate(-0.71)"/><rect class="cls-5" x="223.59" y="6.12" width="43.37" height="13.61" transform="translate(-0.14 3.03) rotate(-0.71)"/><rect class="cls-5" x="269.51" y="5.54" width="46.78" height="13.61" transform="translate(-0.13 3.61) rotate(-0.71)"/><rect class="cls-5" x="318.84" y="4.92" width="48.48" height="13.61" transform="translate(-0.12 4.23) rotate(-0.71)"/><rect class="cls-5" x="369.87" y="5.18" width="41.67" height="13.61" transform="translate(-0.12 4.82) rotate(-0.71)"/><rect class="cls-5" x="414.94" y="4.43" width="73.14" height="13.61" transform="translate(-0.1 5.57) rotate(-0.71)"/><rect class="cls-5" x="433" y="20.46" width="57.83" height="14.46" transform="translate(-0.31 5.7) rotate(-0.71)"/><rect class="cls-5" x="344.54" y="20.53" width="85.9" height="11.91" transform="translate(-0.3 4.78) rotate(-0.71)"/><rect class="cls-5" x="295.2" y="20.53" width="46.78" height="11.91" transform="translate(-0.3 3.93) rotate(-0.71)"/><rect class="cls-5" x="242.48" y="21.16" width="50.18" height="11.91" transform="translate(-0.31 3.3) rotate(-0.71)"/><rect class="cls-5" x="195.7" y="20.92" width="45.07" height="12.76" transform="translate(-0.32 2.69) rotate(-0.71)"/><rect class="cls-5" x="107.26" y="20.9" width="86.75" height="14.46" transform="translate(-0.34 1.86) rotate(-0.71)"/><rect class="cls-5" x="109.17" y="38.29" width="21.26" height="14.46" transform="translate(-0.55 1.48) rotate(-0.71)"/><rect class="cls-5" x="132.97" y="37.05" width="37.42" height="14.46" transform="translate(-0.53 1.87) rotate(-0.71)"/><rect class="cls-5" x="173.79" y="36.48" width="47.63" height="13.61" transform="translate(-0.52 2.44) rotate(-0.71)"/><rect class="cls-5" x="223.95" y="36.12" width="143.73" height="11.06" transform="translate(-0.49 3.65) rotate(-0.71)"/><rect class="cls-5" x="369.41" y="35.81" width="40.82" height="15.31" transform="translate(-0.51 4.81) rotate(-0.71)"/><rect class="cls-5" x="412.79" y="36.13" width="39.97" height="15.31" transform="translate(-0.51 5.34) rotate(-0.71)"/><rect class="cls-5" x="456.17" y="37.33" width="34.02" height="13.61" transform="translate(-0.51 5.84) rotate(-0.71)"/><rect class="cls-5" x="434.25" y="52.76" width="58.68" height="14.46" transform="translate(-0.7 5.72) rotate(-0.71)"/><rect class="cls-5" x="378.12" y="52.64" width="52.73" height="14.46" transform="translate(-0.71 4.99) rotate(-0.71)"/><rect class="cls-5" x="415.75" y="68.19" width="76.54" height="17.86" transform="translate(-0.92 5.6) rotate(-0.71)"/><rect class="cls-5" x="444.06" y="88.39" width="53.58" height="17.01" transform="translate(-1.16 5.81) rotate(-0.71)"/><rect class="cls-5" x="422.76" y="88.02" width="19.56" height="11.91" transform="translate(-1.13 5.34) rotate(-0.71)"/><rect class="cls-5" x="393.58" y="70.59" width="19.56" height="11.91" transform="translate(-0.91 4.98) rotate(-0.71)"/><rect class="cls-5" x="100.01" y="54.12" width="93.55" height="13.61" transform="translate(-0.74 1.81) rotate(-0.71)"/><rect class="cls-5" x="196.06" y="51.71" width="15.31" height="8.5" transform="translate(-0.67 2.52) rotate(-0.71)"/><rect class="cls-5" x="110.42" y="69.76" width="19.56" height="15.31" transform="translate(-0.95 1.49) rotate(-0.71)"/><rect class="cls-5" x="131.68" y="69.39" width="36.57" height="15.31" transform="translate(-0.94 1.86) rotate(-0.71)"/><rect class="cls-5" x="169.91" y="69.06" width="12.76" height="9.36" transform="translate(-0.9 2.18) rotate(-0.71)"/><rect class="cls-5" x="166.79" y="86.12" width="12.76" height="12.23" transform="translate(-1.12 2.14) rotate(-0.71)"/><rect class="cls-5" x="111.48" y="86.55" width="52.73" height="15.31" transform="translate(-1.15 1.71) rotate(-0.71)"/><rect class="cls-5" x="135.55" y="104.2" width="31.47" height="14.04" transform="translate(-1.36 1.87) rotate(-0.71)"/><rect class="cls-5" x="139.21" y="121.25" width="17.02" height="14.04" transform="translate(-1.57 1.83) rotate(-0.71)"/><rect class="cls-5" x="140.31" y="138.27" width="14.46" height="14.04" transform="translate(-1.78 1.83) rotate(-0.71)"/><rect class="cls-5" x="134.6" y="154.51" width="14.46" height="14.04" transform="translate(-1.98 1.76) rotate(-0.71)"/><rect class="cls-5" x="109.98" y="103.77" width="22.11" height="14.46" transform="translate(-1.36 1.5) rotate(-0.71)"/><rect class="cls-5" x="125.53" y="173.32" width="21.26" height="14.04" transform="translate(-2.21 1.69) rotate(-0.71)"/><rect class="cls-5" x="99.96" y="172.81" width="22.11" height="14.46" transform="translate(-2.21 1.38) rotate(-0.71)"/><rect class="cls-5" x="137.71" y="191.94" width="8.51" height="14.04" transform="translate(-2.44 1.77) rotate(-0.71)"/><rect class="cls-5" x="112.14" y="191.34" width="22.11" height="14.46" transform="translate(-2.44 1.53) rotate(-0.71)"/><rect class="cls-5" x="107.62" y="120.76" width="28.92" height="11.06" transform="translate(-1.55 1.52) rotate(-0.71)"/><rect class="cls-5" x="123.14" y="135.12" width="14.46" height="16.16" transform="translate(-1.76 1.62) rotate(-0.71)"/><rect class="cls-5" x="107.83" y="136.17" width="12.76" height="14.46" transform="translate(-1.76 1.42) rotate(-0.71)"/><rect class="cls-5" x="110.61" y="153.94" width="22.11" height="16.16" transform="translate(-1.99 1.51) rotate(-0.71)"/><rect class="cls-5" x="448.53" y="107.11" width="43.37" height="13.61" transform="translate(-1.37 5.81) rotate(-0.71)"/><rect class="cls-5" x="458.93" y="123.28" width="22.11" height="12.76" transform="translate(-1.56 5.81) rotate(-0.71)"/><rect class="cls-5" x="485.29" y="123.03" width="10.21" height="13.61" transform="matrix(1, -0.01, 0.01, 1, -1.56, 6.06)"/><rect class="cls-5" x="452.38" y="140.53" width="10.21" height="13.61" transform="translate(-1.78 5.65) rotate(-0.71)"/><rect class="cls-5" x="455.2" y="158.35" width="10.21" height="13.61" transform="translate(-2 5.69) rotate(-0.71)"/><rect class="cls-5" x="465.94" y="138.44" width="31.47" height="16.16" transform="translate(-1.77 5.95) rotate(-0.71)"/><rect class="cls-5" x="469.57" y="157.96" width="31.47" height="13.61" transform="translate(-1.99 6) rotate(-0.71)"/><rect class="cls-5" x="460.48" y="175.96" width="31.47" height="13.61" transform="translate(-2.22 5.89) rotate(-0.71)"/><rect class="cls-5" x="459.9" y="193.83" width="31.47" height="13.61" transform="translate(-2.44 5.88) rotate(-0.71)"/></g><path class="cls-6" d="M140.53,214.94S137.15,97.67,199.14,61.55s139.94-38.27,190-.9,76.2,98.58,76.27,157.24Z"/><path class="cls-7" d="M249.91,206.14a1.7,1.7,0,0,1,2.14,1.19,5.25,5.25,0,0,0,.67,1.67c.23.31,1,.29,1.72,0,.46-.18,6.92-1.29,7.54-3.13.71-3.78-17.42-7.06-1.82-18.67.65-.48,10.85,3.86,15.47,12.54,1.65,3.11-.41,13.91-4.78,17.84-9.08,8.16-10.54,6.93-17.53,5.72s-8.26-2.25-9-3.32-2.25-4.11-1.83-5.74,2.41-2.72,3.66-3.05,2.69-.61,2.69-.61a8.77,8.77,0,0,1-.39-2.21C248.52,207.85,248.69,206.36,249.91,206.14Z"/><path class="cls-8" d="M368.15,259.48a3.74,3.74,0,0,1-.14-1.54c.06-1.14-.57-20.28-.57-20.28a2.55,2.55,0,0,0-1.8-2c-3.57-.92-4.23-.83-6.8.09-4.15,1.49-7.91,4.51-8.42,9.13,0,0,.27,1.94.28,2,0,.49,1.25,17.6,1.38,18.18a6.52,6.52,0,0,0,4.39,4.29c3.25,1.05,14.18.54,14.18.54s3.43-.91,3.47-2.72a4.78,4.78,0,0,0-1.21-3.87A31.75,31.75,0,0,0,368.15,259.48Z"/><path class="cls-8" d="M338.79,240.53c-2.67-3.24-6.16-4.7-8.52-4.72-5,0-6,1.4-7.42,2.06a2,2,0,0,1,0,.26c0,.68-1.18,18.21-1,19.92s-.36,1.23-1.14,1.58a11.67,11.67,0,0,0-5.26,5.67c-1.6,3.64,3.52,4.09,3.91,4.22s11.35.52,12.83.08,5-1.61,5.52-4.44,1.89-18.1,1.89-18.1S340.72,242.88,338.79,240.53Z"/><path class="cls-9" d="M367.44,238.44c4.17-5.69,4.86-10.9,6.13-27.22a11.12,11.12,0,0,0-.36-5.05c-.44-1.91-2.82-5.67-3.45-7-1.81-3.85-2.61-5.84-2.61-5.84L324.88,193l-2.13,3.48c-1.59,2.63-2,3.37-2.75,4.65a10.31,10.31,0,0,0-1.57,3.1c-.81,5.05-.35,9.74-.48,13.6-.49,15.15,4.53,20.59,4.92,21,0,0,6.14,5.25,9.31,6.68,2.42,1.1,7.39,1.45,8.19,1.48s9.79,0,9.79,0,7.4-.75,10.39-2.38A20.17,20.17,0,0,0,367.44,238.44Z"/><path class="cls-10" d="M385.48,134.13a42.44,42.44,0,0,0-27.08-20.64c2-7,4.49-16.23,5-20.42.86-7.26,2.32-12.75-1.52-15.53s-7-1.62-7.85-.05-5.56,28.52-5.55,31.24a29.11,29.11,0,0,1-.37,3.53c-2.24-.05-4.57,0-6.93.18a30.16,30.16,0,0,1-.34-3.76c0-2.72-4.3-29.73-5.15-31.31s-4-2.77-7.85-.05-2.49,8.24-1.73,15.51c.45,4.29,2.91,13.83,4.85,21a72.33,72.33,0,0,0-11.85,3.28c-11,4.12-21.34,19.9-21.78,27.62s-5.46,28.66,12.95,44.1a29.79,29.79,0,0,0,12.79,7.42c7.49,1.88,35.79,3.64,45.57-1.8s16.27-10.64,19.24-21.23S392.5,147,385.48,134.13Z"/><ellipse class="cls-11" cx="321.11" cy="156.58" rx="5.28" ry="5.45" transform="translate(162.45 476.67) rotate(-89.63)"/><ellipse class="cls-11" cx="366.69" cy="156.88" rx="5.28" ry="5.45" transform="translate(207.43 522.54) rotate(-89.63)"/><path class="cls-12" d="M325.64,167.31s-3,2.94-1.33,5.47,4.73,4.08,9,4.66,18.89,1.33,23.5-.61,7.27-6.31,5.32-9.28-11.62-6.65-18-6.36S328.94,163.83,325.64,167.31Z"/><path class="cls-11" d="M340.28,160.43a5.43,5.43,0,0,0,1.65,3.86c1.67,1.33,4.31,1.24,5.47,0s2-4.4,1.27-5.39S340,157,340.28,160.43Z"/><path class="cls-8" d="M257.29,253a3.83,3.83,0,0,1-.14-1.55c.06-1.14-.57-20.27-.57-20.27a2.57,2.57,0,0,0-1.81-2c-3.57-.92-4.23-.82-6.79.09-4.15,1.49-7.91,4.51-8.42,9.14,0,0,.27,1.93.27,1.95,0,.49,1.26,17.61,1.39,18.19a6.53,6.53,0,0,0,4.39,4.28c3.25,1.06,14.18.55,14.18.55s3.43-.92,3.47-2.72a4.79,4.79,0,0,0-1.21-3.87A31.09,31.09,0,0,0,257.29,253Z"/><path class="cls-8" d="M212.64,231.85c3-5.51,8.94-4.48,11.29-4.4,5,.18,4.92,6.64,5.22,10.19a1.64,1.64,0,0,0,0,.25c0,.68.42,18.25.17,19.95s.31,1.24,1.07,1.62a11.6,11.6,0,0,1,5,5.89c1.45,3.7-3.69,3.94-4.08,4s-11.36.05-12.83-.45-4.94-1.82-5.32-4.68S212,246.11,212,246.11,211.18,234.51,212.64,231.85Z"/><path class="cls-13" d="M256.75,236c4.17-5.68,4.85-10.9,6.12-27.21a11,11,0,0,0-.35-5.06c-.45-1.9-2.82-5.66-3.45-7-1.81-3.86-2.61-5.85-2.61-5.85l-42.28-.28-2.12,3.49c-1.6,2.62-2,3.37-2.75,4.64a10.44,10.44,0,0,0-1.58,3.1c-.81,5.05-.35,9.75-.47,13.6-.49,15.16,4.53,20.6,4.91,21,0,0,6.15,5.26,9.31,6.69,2.43,1.09,7.39,1.45,8.19,1.48s9.8,0,9.8,0,7.4-.76,10.38-2.38A20,20,0,0,0,256.75,236Z"/><path class="cls-14" d="M233.44,225.25s3.32,4.23,8.34,5.05,10.85-1,12.66-4.91,3.34-15.55-3.55-20.18-13.63-1.42-14.86-.09-4.39,4.89-4.31,9.91S232.33,222.93,233.44,225.25Z"/><path class="cls-7" d="M192.34,130.53a42,42,0,0,1,27.08-20.17c-1.9-7-4.24-16.18-4.67-20.35-.76-7.23-2.13-12.7,1.71-15.41s6.93-1.52,7.78.05,5.13,28.41,5.09,31.11a27.72,27.72,0,0,0,.31,3.52c2.23,0,4.53.06,6.86.26a28.9,28.9,0,0,0,.39-3.73c0-2.7,4.64-29.49,5.5-31s4-2.71,7.78,0,2.36,8.21,1.51,15.43c-.5,4.25-3.06,13.71-5.07,20.76a73.9,73.9,0,0,1,11.7,3.41c10.79,4.24,20.86,20.06,21.21,27.74s5,28.54-13.4,43.65a29.49,29.49,0,0,1-12.76,7.2c-7.44,1.78-35.49,3.16-45.11-2.37s-16-10.78-18.77-21.34S185.22,143.24,192.34,130.53Z"/><ellipse class="cls-15" cx="256.39" cy="167.09" rx="2.37" ry="4.74" transform="translate(87.63 422.39) rotate(-89.63)"/><ellipse class="cls-15" cx="216.43" cy="166.83" rx="2.37" ry="4.74" transform="translate(48.19 382.17) rotate(-89.63)"/><path class="cls-12" d="M252.29,169s2.53,2.67,1.09,4.91-4.16,3.61-7.88,4.08-16.42,1-20.4-.82-6.25-5.74-4.52-8.38,10.18-5.82,15.74-5.49S249.45,165.86,252.29,169Z"/><path class="cls-11" d="M239.64,162.68a4.91,4.91,0,0,1-1.47,3.44,3.72,3.72,0,0,1-4.75,0c-1-1.09-1.66-4-1-4.84S240,159.63,239.64,162.68Z"/><path class="cls-11" d="M225.78,171.19a.57.57,0,0,1,.67-.12c.7.22,5,.82,6,.1A7.86,7.86,0,0,0,235,166s0,0,0,0a.09.09,0,0,1,0-.05s0,0,0-.06,0,0,0,0l0-.05,0,0,0-.05,0,0,0,0,.05,0,0,0,.05,0,0,0h.3l.05,0h0l.05,0,0,0,0,0,0,0,0,0s0,0,0,0l0,0,0,.05s0,0,0,.05a.43.43,0,0,0,0,0s0,0,0,.06V166a7.93,7.93,0,0,0,2.52,5.25c1,.73,5.25.19,6,0a.59.59,0,0,1,.67.13.57.57,0,0,1,0,.8,12.73,12.73,0,0,1-4.35.59,5.5,5.5,0,0,1-2.92-.59,8.35,8.35,0,0,1-2.42-3.54,8.46,8.46,0,0,1-2.47,3.5,5.42,5.42,0,0,1-2.94.56,12.65,12.65,0,0,1-4.33-.64A.58.58,0,0,1,225.78,171.19Z"/><path class="cls-16" d="M209.9,119.37s9.54,3.37,25.49-.67c0,0,17.54-2,18.61-3.6s-3.14-7.47-3.11-11.61,7.48-8.23,10.73-18.14,2.27-21.5-7.26-26.53-26.57,4-29.77,6.43-18.14,13.12-27.74,19.68-16,5.69-19.18,9.81-3.24,8.26,3.1,13.26,18,5.91,21.21,5.11,5.32-1.62,6.36.87S207.25,118.11,209.9,119.37Z"/><path class="cls-17" d="M184,101.4s23.31,7.6,25.44,6.79,11.73-6.55,19.16-7.33,17-.71,18.06-.71,3.2-2.46,5.34-4.1-7.46,4.09-7.44.78,5.35-6.59,5.39-12.38l.06-9.1s-6.46,13.2-8.59,14,.12-18.21-2-20.7S233,85.17,231.9,84.33s-3.14-7.47-3.16-5a34.94,34.94,0,0,1-1.1,6.61s-3.15-5-3.17-2.5-.09,14.07-2.21,13.22-4.16-14.09-8.4-15-4.25,0-3.24,9.09,4.19,9.13-.07,9.93-20.17-1-23.35-1S181.89,99.73,184,101.4Z"/><circle class="cls-12" cx="217.66" cy="153.64" r="9.78"/><circle class="cls-11" cx="217.66" cy="153.64" r="6.16"/><path class="cls-11" d="M203,143.8s.76,3.12,2.32,2.74,14.8-5.35,16-6.5-1.91-5.07-1.91-5.07-16,7.28-16.37,7.67S203,143.8,203,143.8Z"/><circle class="cls-12" cx="254.11" cy="153.88" r="9.78"/><circle class="cls-11" cx="254.11" cy="153.88" r="6.16"/><path class="cls-11" d="M268.91,144.23s-.79,3.11-2.35,2.71-14.73-5.54-15.89-6.71,2-5,2-5,15.88,7.48,16.27,7.88S268.91,144.23,268.91,144.23Z"/><rect class="cls-18" x="111.89" y="213.12" width="378.68" height="63.35" transform="translate(1.6 -1.96) rotate(0.37)"/><path class="cls-19" d="M206.74,207.46s2.6,23.18,17.59,31.28,47,4.78,42.92-30.19l-.77-11s-1.56-10.63-28.59-8.7S208.23,200.36,206.74,207.46Z"/><path class="cls-20" d="M207.69,207.72s10.76,7.41,27.74,4.36,27.83-7.72,30-11.07-.6-7.83-9.76-10.45-27.58-1.22-36,2.45S209,200,207.69,207.72Z"/><path class="cls-21" d="M209.33,206.67s22.27-11.63,36.25-11,17.75,2.46,18.08,3.26.19,2.75-3.44,4.43-24.88,9.88-39.46,6.87S209.6,208.25,209.33,206.67Z"/><path class="cls-22" d="M227.75,199.83A5.8,5.8,0,0,0,225.5,204c-.2,2.71,2.26,6.4,2.26,6.4s16.39-.37,18.56-3.33c0,0-3.34-7.64-7.91-9.14s-7.34-.93-7.34-.93a2.27,2.27,0,0,1-.94,2.27A4.66,4.66,0,0,1,227.75,199.83Z"/><path class="cls-23" d="M234.86,198.4s5.95,3.94,7.39,5.6a20.49,20.49,0,0,1,2.46,3.69s1.19-.31.83-.72S241.73,200.46,234.86,198.4Z"/><path class="cls-23" d="M233.23,199.45s7.3,6.76,7.63,7.57a3,3,0,0,1,.3,1.19l2-.25S237.05,200.51,233.23,199.45Z"/><path class="cls-23" d="M232,199.75c-.07-.38,8.38,8,8.35,8.4s-1.61.66-1.61.66S232.31,201.33,232,199.75Z"/><path class="cls-23" d="M231.26,199.7s5.56,9.36,5.94,9.39-2.35.22-2.35.22S230.79,200.83,231.26,199.7Z"/><path class="cls-23" d="M230.46,200l3.23,9.19-1.58.28S229.16,201.88,230.46,200Z"/><path class="cls-23" d="M229.27,200.33s1.29,9.06,1.68,9.08-1.58.28-1.58.28S227.61,201.77,229.27,200.33Z"/><path class="cls-23" d="M228.11,200.24l.48,9.39-.77,0S225.14,203.54,228.11,200.24Z"/><path class="cls-24" d="M241.93,197.74c-.39,0,18.33-.22,18.16,2.1s-3,3.68-3,3.68,6-2.68,5.35-3.9S256.05,196.43,241.93,197.74Z"/><path class="cls-24" d="M241.87,198.52s15.89,1.15,15,2.65,2.33.17,2-.64S247.41,197.36,241.87,198.52Z"/><path class="cls-24" d="M243.69,200.21c.39,0,11.69.07,11.55,2s-2.19,3.35-3,3.29,2.5-2.16,1-3S243.69,200.21,243.69,200.21Z"/><path class="cls-24" d="M246.27,202.34s3.87.29,3,1.78-2.85,1.74-2.49,2.16,5.18-1.57,4.49-2.79S247.51,201.27,246.27,202.34Z"/><path class="cls-24" d="M224.55,206.22s-1.24,1.08-.14,1.94a11.9,11.9,0,0,1,1.47,1.27s-2,1-3.52.14S223,206.88,224.55,206.22Z"/><path class="cls-24" d="M224.64,205.06s-4.07,2.43-4.13,3.2a1.71,1.71,0,0,0,.3,1.2l-3.46-.65S220.35,205.14,224.64,205.06Z"/><path class="cls-24" d="M224.7,204.28s-8.84,3.65-8.87,4-3.07-.61-3.07-.61,6.93-4.56,9.67-4.36A8,8,0,0,1,224.7,204.28Z"/><path class="cls-25" d="M201.72,177.29l26,22.54s3.48.25,3.32-2.88l-25-25.2s-2.63-1.36-4.71.44S201.72,177.29,201.72,177.29Z"/><path class="cls-7" d="M215.94,185a1.68,1.68,0,0,0-1.11,2.17,5.37,5.37,0,0,1,.38,1.77,22,22,0,0,1-1,4.53c-1.45,2.39-2.94,1.36-1.94.38,2.34-2.32-1.19-3.73-3.86-5.08a5.74,5.74,0,0,0-3.1-.8c-.8,0-6.21,10.78-5.19,20.56.37,3.5.35,7.39,6.17,8.21,12.08,1.69,12.87-7.69,16.8-14.27,3.63-6.08,5.15-7.83,5.19-9.15s-.43-4.65-1.69-5.77-3.52-.91-4.74-.49-2.57,1-2.57,1a8.72,8.72,0,0,0-.91-2C218,185.68,217.07,184.53,215.94,185Z"/><path class="cls-7" d="M275.63,199.74c-4.62-8.68-14.82-13-15.47-12.54l-.28.22h0a5.23,5.23,0,0,1,1.82,1.17,2.79,2.79,0,0,1,.53.24c5.32,2.9,7.47,13.61,1.24,16.68a3.82,3.82,0,0,1-2.21,1.16c-1.83,1.36-6.47,2.17-6.86,2.32-.73.29-1.49.31-1.72,0a5.25,5.25,0,0,1-.67-1.67,1.7,1.7,0,0,0-2.14-1.19c-1.22.22-1.39,1.71-1.49,2.23a8.77,8.77,0,0,0,.39,2.21s-1.44.29-2.69.61-3.24,1.42-3.66,3.05,1,4.67,1.83,5.74,2.06,2.11,9,3.32,8.45,2.44,17.53-5.72C275.22,213.65,277.28,202.85,275.63,199.74Z"/><path class="cls-26" d="M312.76,225.81s-4.9,0-11.75,7.7-.45,11.27,4.42,16.74,24.14,3.26,27.5,8.73,31.32-.19,35.86-2.1,15.53-8.45,14.43-13.12-22.92-16.47-24.41-19.2S359.25,216,354,216s-34,.94-38.51,2.85,1.87,3.13,1.1,5.06S312.76,225.81,312.76,225.81Z"/><rect class="cls-27" x="293.64" y="221.47" width="100.26" height="9.33" rx="4.66" ry="4.66" transform="translate(1.48 -2.23) rotate(0.37)"/><rect class="cls-28" x="293.73" y="220" width="100.26" height="9.33" rx="4.66" ry="4.66" transform="translate(1.47 -2.23) rotate(0.37)"/><path class="cls-9" d="M315.06,222.74c.65-.71.07-1.24-.92-1.54a10.46,10.46,0,0,1-2-.75c-.33-.2-.08-.67.51-1.06.38-.25,1.82-1.28,2.9-1.9a83.89,83.89,0,0,0,8-7.47c3.41-3.64,5.34-11.15.93-14a27.67,27.67,0,0,0-3.11-1.36s-2.89,2.15-9.82,7.41c-8.41,6.39-14.67,11-16.58,15.43s-.92,5.27.25,6a19.73,19.73,0,0,0,7,2.26,8.13,8.13,0,0,0,5.09-1.65c.8-.71,1.6-1.53,1.6-1.53a21.34,21.34,0,0,0,2.79.67C312.41,223.26,314.42,223.46,315.06,222.74Z"/><path class="cls-10" d="M315.07,222c.65-.71.07-1.24-.92-1.55a9.72,9.72,0,0,1-2-.75c-.33-.2-.08-.67.51-1,.39-.25,1.82-1.28,2.91-1.9a85.18,85.18,0,0,0,8-7.48c3.4-3.64,5.34-11.15.93-14a30.59,30.59,0,0,0-3.12-1.36s-2.89,2.15-9.82,7.41c-8.41,6.39-14.66,11.06-16.57,15.44s-.93,5.26.25,5.95a19.41,19.41,0,0,0,7,2.26,8.16,8.16,0,0,0,5.1-1.65c.79-.7,1.6-1.53,1.6-1.53a19.45,19.45,0,0,0,2.79.67C312.41,222.48,314.42,222.68,315.07,222Z"/><path class="cls-9" d="M373.54,223.59c-.6-.73-.06-1.26.86-1.56a9.26,9.26,0,0,0,1.86-.72c.31-.2.08-.68-.46-1.09-.36-.26-1.67-1.33-2.68-2a82.4,82.4,0,0,1-7.33-7.75c-3.11-3.75-4.85-11.43-.74-14.25a24.91,24.91,0,0,1,2.89-1.33s2.65,2.24,9,7.71c7.73,6.65,13.47,11.5,15.2,16s.81,5.37-.28,6a16.73,16.73,0,0,1-6.48,2.18,7.17,7.17,0,0,1-4.7-1.77c-.73-.73-2-1.86-2-1.86,0,.26-1.38.89-2,.92S374.13,224.33,373.54,223.59Z"/><path class="cls-10" d="M373.15,222.81c-.59-.73,0-1.26.87-1.56a9.26,9.26,0,0,0,1.86-.72c.3-.2.07-.68-.47-1.09-.35-.26-1.67-1.33-2.67-2a82.4,82.4,0,0,1-7.33-7.75c-3.12-3.75-4.85-11.43-.75-14.25a25.71,25.71,0,0,1,2.89-1.33s2.66,2.24,9,7.71c7.72,6.65,13.47,11.51,15.2,16s.81,5.37-.28,6a16.73,16.73,0,0,1-6.49,2.18,7.13,7.13,0,0,1-4.69-1.77c-.73-.73-2-1.86-2-1.86,0,.26-1.38.89-2,.92S373.74,223.55,373.15,222.81Z"/><path class="cls-29" d="M385,244.71S409,270.24,412.5,271.57s45.92-15,62.93-20.14-13.2-34.64-16.75-34.67-61.32,14-67.26,17.06S381.89,241.19,385,244.71Z"/><path class="cls-30" d="M386.18,243.49s23.56,22.7,27.05,23.89,45.17-13.31,61.91-17.87-13-30.78-16.51-30.81-60.32,12.44-66.16,15.12S383.1,240.37,386.18,243.49Z"/><path class="cls-26" d="M449.38,227.22s2.39-5.28,3.56-4.68,2.32,4.72,2.32,4.72,4.71-1.15,5.29.62-3.55,3.21-3.55,3.21a8.17,8.17,0,0,1,1.74,2.95c.58,1.77-4.1-.91-4.1-.91s-3.84,2.62-4.14,2.62-.57-2.65.32-3.52-5.88-.34-5.87-1.22S449.38,227.22,449.38,227.22Z"/><path class="cls-26" d="M461.74,238.57s2.39-5.28,3.56-4.68,2.32,4.72,2.32,4.72,4.71-1.15,5.29.62-3.55,3.21-3.55,3.21a8.27,8.27,0,0,1,1.75,2.95c.57,1.77-4.11-.91-4.11-.91s-3.84,2.62-4.13,2.62-.58-2.65.31-3.52-5.87-.34-5.87-1.22S461.74,238.57,461.74,238.57Z"/><path class="cls-26" d="M434.2,230.62s2.39-5.28,3.56-4.68,2.32,4.72,2.32,4.72,4.71-1.15,5.29.62-3.55,3.21-3.55,3.21a8.27,8.27,0,0,1,1.75,2.95c.57,1.77-4.11-.91-4.11-.91s-3.84,2.62-4.14,2.62-.57-2.65.32-3.52-5.88-.34-5.87-1.22S434.2,230.62,434.2,230.62Z"/><path class="cls-26" d="M444.21,245.84s2.39-5.28,3.56-4.68,2.32,4.72,2.32,4.72,4.71-1.15,5.29.62-3.55,3.21-3.55,3.21a8.17,8.17,0,0,1,1.74,2.95c.58,1.77-4.11-.91-4.11-.91s-3.84,2.62-4.13,2.62-.57-2.65.32-3.52-5.88-.34-5.87-1.22S444.21,245.84,444.21,245.84Z"/><path class="cls-26" d="M417.47,233.62s2.39-5.28,3.56-4.68,2.32,4.72,2.32,4.72,4.71-1.15,5.29.62-3.55,3.21-3.55,3.21a8.27,8.27,0,0,1,1.75,2.95c.57,1.77-4.11-.91-4.11-.91s-3.84,2.62-4.14,2.62-.57-2.65.32-3.52-5.88-.34-5.87-1.22S417.47,233.62,417.47,233.62Z"/><path class="cls-26" d="M425.53,249.22s2.39-5.28,3.56-4.68,2.32,4.71,2.32,4.71,4.71-1.14,5.29.63-3.55,3.21-3.55,3.21a8.27,8.27,0,0,1,1.75,3c.57,1.77-4.11-.91-4.11-.91s-3.84,2.62-4.14,2.62-.57-2.65.32-3.53-5.88-.33-5.87-1.21S425.53,249.22,425.53,249.22Z"/><path class="cls-26" d="M401.11,239.34s2.39-5.27,3.56-4.68,2.32,4.72,2.32,4.72,4.71-1.15,5.29.62-3.55,3.21-3.55,3.21a8.39,8.39,0,0,1,1.75,2.95c.57,1.77-4.11-.91-4.11-.91a47.34,47.34,0,0,1-4.14,2.62c-.29,0-.57-2.65.32-3.52s-5.88-.33-5.87-1.22S401.11,239.34,401.11,239.34Z"/><path class="cls-16" d="M325.88,114.86s31.84,11.57,40.45,1.91l1.31-3.9s35.55-1.46,36.8-19.51-7.74-23.74-19-24.94S365.06,76.18,356,75s-35-2.49-41.74-1.4-12.45,5.56-11.37,13.46,13.42,18.14,17.93,19.3a35.86,35.86,0,0,0,7.89,1.18Z"/><path class="cls-17" d="M311.93,90.51l12.36,8s-3.39,1.11-2.27,2.25,7.88,3.43,7.89,2.3,5.7-9,11.35-10.08,19.15,3.51,21.39,6.91,4.48,4.54,5.62,3.42l4.54-4.48c1.14-1.12,1.17-5.63-3.35-4.53s-6.76-2.31-7.88-3.44-3.36-4.54-4.49-3.42,2.23,3.4-4.53,2.23-12.4-1.21-14.67,1-4.55,4.49-9.06,4.46S312,88.25,311.93,90.51Z"/><path class="cls-31" d="M412.43,84.56a21.56,21.56,0,0,0-7.47,12c-1.59,7.68,2,21.24,6.33,25.42s14.62,10.84,26.5,9,24.45-14.82,24.29-25-2-22.08-20.85-29.45C441.23,76.48,423.31,72.49,412.43,84.56Z"/><path class="cls-32" d="M420.14,87.85s-10.08,8.66-9.95,17.16,5.77,16.5,11.12,18.76,24.95,4.51,30.71-8.33-.34-23-4.67-28S428.55,81.77,420.14,87.85Z"/><path class="cls-33" d="M425.07,76.72s3.71-36.63,1-45.95S420.64,7.89,422.3,5.31,429,1,430,6.9s-1,48.5,2.57,57.8,4,11.42,4,11.42Z"/><path class="cls-34" d="M427.49,11.19s-2.55,0-2.57-1.66,1.67-1.73,2.53-.89S427.49,11.19,427.49,11.19Z"/><path class="cls-35" d="M472.62,70.9l-.45-29.76.83-1.71c.82-1.72.4-29.78-.51-34s-3.44-2.5-4.27-.78-1.56,9.37-1.41,19.58,1.95,16.13,1.95,16.13L468.36,71l-13.6.2.41,27.21a3.81,3.81,0,0,0,2.6,3.37s23,.5,24.67.48,2.5-3.44,2.5-3.44l-.42-28.07Zm-3.68,3.28a1.24,1.24,0,0,1,0,2.48A1.24,1.24,0,0,1,468.94,74.18Zm.3,12.58a1.24,1.24,0,0,1,0-2.48A1.24,1.24,0,0,1,469.24,86.76Zm-5.19-13a1.25,1.25,0,0,1,0,2.49A1.25,1.25,0,0,1,464.05,73.72Zm.28,18.64a1.24,1.24,0,0,1,0-2.48A1.24,1.24,0,0,1,464.33,92.36ZM458.94,73.8a1.24,1.24,0,0,1,0,2.48A1.24,1.24,0,0,1,458.94,73.8Zm.42,13.32a1.24,1.24,0,0,1,0-2.48A1.24,1.24,0,0,1,459.36,87.12Zm-.56-8.53a1.24,1.24,0,0,1,0,2.48A1.24,1.24,0,0,1,458.8,78.59Zm.06,10.63a1.24,1.24,0,0,1,0,2.48A1.24,1.24,0,0,1,458.86,89.22Zm.38,4.46a1.24,1.24,0,0,1,0,2.48A1.24,1.24,0,0,1,459.24,93.68Zm.63,6.62a1.24,1.24,0,0,1,0-2.48A1.24,1.24,0,0,1,459.87,100.3ZM463.17,79a1.24,1.24,0,0,1,0,2.48A1.24,1.24,0,0,1,463.17,79Zm.51,5.62a1.25,1.25,0,0,1,0,2.49A1.25,1.25,0,0,1,463.68,84.57Zm.57,9.46a1.24,1.24,0,0,1,0,2.48A1.24,1.24,0,0,1,464.25,94Zm.41,6.09a1.24,1.24,0,0,1,0-2.48A1.24,1.24,0,0,1,464.66,100.12Zm4.15-20.94a1.24,1.24,0,0,1,0,2.48A1.24,1.24,0,0,1,468.81,79.18Zm.47,10.2a1.24,1.24,0,0,1,0,2.48A1.24,1.24,0,0,1,469.28,89.38Zm.17,4a1.24,1.24,0,0,1,0,2.48A1.24,1.24,0,0,1,469.45,93.42Zm.2,6.3a1.24,1.24,0,0,1,0-2.48A1.24,1.24,0,0,1,469.65,99.72Zm10.24-25.6a1.25,1.25,0,0,1,0,2.49A1.25,1.25,0,0,1,479.89,74.12Zm-5.34,12.56a1.24,1.24,0,0,1,0-2.48A1.24,1.24,0,0,1,474.55,86.68Zm0,5.1a1.24,1.24,0,0,1,0-2.48A1.24,1.24,0,0,1,474.52,91.78Zm-.47-17.46a1.24,1.24,0,0,1,0,2.48A1.24,1.24,0,0,1,474.05,74.32Zm0,4.89a1.24,1.24,0,0,1,0,2.48A1.24,1.24,0,0,1,474,79.21Zm.53,14.45a1.24,1.24,0,0,1,0,2.48A1.24,1.24,0,0,1,474.55,93.66Zm.31,6.09a1.24,1.24,0,0,1,0-2.48A1.24,1.24,0,0,1,474.86,99.75Zm4.9-20.63a1.24,1.24,0,0,1,0,2.48A1.24,1.24,0,0,1,479.76,79.12Zm.42,14.35a1.24,1.24,0,0,1,0,2.48A1.24,1.24,0,0,1,480.18,93.47Zm.21,6.41a1.24,1.24,0,0,1,0-2.48A1.24,1.24,0,0,1,480.39,99.88Zm-.13-8.39a1.25,1.25,0,0,1,0-2.49A1.25,1.25,0,0,1,480.26,91.49Zm-.07-4.68a1.24,1.24,0,0,1,0-2.48A1.24,1.24,0,0,1,480.19,86.81Z"/><text class="cls-36" transform="translate(138.5 40.77) rotate(-0.86)">一起做甜點</text><text class="cls-37" transform="translate(139.5 57.43) rotate(-0.86)"><tspan xml:space="preserve">2019.04.07  10:19PM</tspan></text><polygon class="cls-38" points="135.22 182.89 158.88 182.05 158.3 175.78 135.63 177.57 135.22 182.89"/><polygon class="cls-39" points="135.36 240.12 158.53 239.77 158.63 181.81 134.98 182.65 135.36 240.12"/><polygon class="cls-40" points="163.65 226.65 158.53 239.77 158.63 181.81 161.59 185.63 163.65 226.65"/><path class="cls-41" d="M142.7,222.43a1.22,1.22,0,0,0-.25,2.21,40,40,0,0,0,7.32,4.25c-3.16,1.34-7,2.07-7,6.26a1.23,1.23,0,0,0,1.23,1.19l5.21-.07c.81,0,4-.52,4.54.06,1,1.16,2.71-.58,1.68-1.74s-2.55-.79-3.89-.77l-6,.09c1.23-2.28,5.79-2.72,7.69-4.13a1.22,1.22,0,0,0-.32-2.2,37.46,37.46,0,0,1-7.12-3.6,46.26,46.26,0,0,1,6.3-1.4c1.53-.23.84-2.55-.68-2.32A47.12,47.12,0,0,0,142.7,222.43Z"/><path class="cls-41" d="M141.92,214.36c-1.55-.09-1.51,2.33,0,2.42a38.51,38.51,0,0,0,10-.78c1.52-.32.84-2.63-.68-2.32A35.28,35.28,0,0,1,141.92,214.36Z"/><path class="cls-41" d="M151.37,202.78c.14.39,1.4,3.15,1.2,3.39s-3.42.25-3.78.28a70.91,70.91,0,0,1-7.71.22c-1.56,0-1.52,2.38,0,2.42,3.85.08,8.34.26,12.1-.74,3.19-.85,1.23-4.14.48-6.25C153.18,200.65,150.86,201.31,151.37,202.78Z"/><path class="cls-41" d="M143,191.26l-2.53-2.3c-1.15-1-2.84.69-1.68,1.74l4.43,4c.24.21.49.47.75.73a39.74,39.74,0,0,1-5-.25c-1.54-.18-1.49,2.24,0,2.41a39.76,39.76,0,0,0,14.33-1c1.51-.38.83-2.7-.67-2.32a39.2,39.2,0,0,1-4.22.81,22.09,22.09,0,0,0,3.11-4.14c.83-1.32-1.28-2.5-2.1-1.18s-2.54,4.28-4.26,3.49A12,12,0,0,1,143,191.26Z"/><path class="cls-42" d="M164.26,239.29s1.51,12,5.11,15.45,17.43,9.05,27.52,1.36c0,0,6.92-3.87,5.14-19.37Z"/><path class="cls-43" d="M164.71,239.73s4,3,20,1,16.82-2.47,17.24-3.8-1.38-3.09-4.94-4.36-18.25-4.17-29.66,3.54C167.32,236.14,163.38,239.31,164.71,239.73Z"/><path class="cls-44" d="M167.78,237.47s-1.76.47-1.75,1.35,3.12.84,4.45,1.27,29.24-2.21,29.67-3.11a1.75,1.75,0,0,0-1.37-2.64c-1.78-.41-13.79-2.9-18.65-1.49S167.78,237.47,167.78,237.47Z"/><path class="cls-16" d="M171.21,229.43s-3.06,2.71-3.49,4,.52,4.87.53,5.31a2.06,2.06,0,0,0,.54,1s12.33.12,12.77-.33,2.11-7.13-2.36-9.28A10.64,10.64,0,0,0,171.21,229.43Z"/><path class="cls-45" d="M171.22,230.32s1.31-1.35,2.21-.92a4.45,4.45,0,0,0,1.78.42l.45.88-1.75,1.35s-1.32.91-.87,1.35a6.52,6.52,0,0,0,1.79.86l.46,1.32-1.31.91-2.22,0,1.34.87s0,1.33-.41,1.78-2.66,0-2.66,0-.89,0-1.37-2.64A6.4,6.4,0,0,1,171.22,230.32Z"/><path class="cls-16" d="M182.82,235s2.16-4,5.7-4.51,5.76-.09,7.56,1.21,2.29,5.29,2.29,5.29l-15.93,2Z"/><path class="cls-45" d="M184.58,233.67,183.27,235l-.39,3.55,9.73-1.47,0-2.22c0-.44-2.66,0-2.67-.4s0-.45-.46-1.33-.9-.87-1.35-.86A29.5,29.5,0,0,0,184.58,233.67Z"/><path class="cls-16" d="M175,248a12.91,12.91,0,0,0-2.94,11.13c1.43,6.63,5.91,9.67,10.34,9.16s8.8-4.12,6.92-11.63-8.58-10.08-10.8-10A5.29,5.29,0,0,0,175,248Z"/></g></svg>