<svg xmlns="http://www.w3.org/2000/svg" viewBox="0 0 765.04 758.33"><defs><style>.cls-1{fill:#5d9099;}.cls-2{fill:#95bbcc;}.cls-3{fill:#c6e4d5;}</style></defs><title>資產 5</title><g id="圖層_2" data-name="圖層 2"><g id="圖層_1-2" data-name="圖層 1"><path class="cls-1" d="M546.3,556s176.53,7.68,184.2,7.68,15.35-23,23-122.8S765,99.37,765,53.32,696,14.94,657.59,14.94,82,7.26,82,7.26,28.22-8.09,28.22,76.34s-7.68,406.79-7.68,406.79-7.67,46,38.38,53.73,168.85,7.67,168.85,7.67V744.09s38.38,23,38.38-15.35V544.53l245.61,7.68s-7.68,184.2,0,191.88,30.7,23,30.7,7.67S546.3,556,546.3,556Z"/><path class="cls-2" d="M526.23,549.87s176.53,7.68,184.21,7.68,15.35-23,23-122.81S745,93.19,745,47.14,675.9,8.77,637.52,8.77,61.88,1.09,61.88,1.09,8.15-14.26,8.15,70.17.48,477,.48,477-7.2,523,38.86,530.68s168.85,7.68,168.85,7.68V737.91s38.38,23,38.38-15.35V538.36L491.7,546s-7.68,184.21,0,191.88,30.7,23,30.7,7.68S526.23,549.87,526.23,549.87Z"/><path class="cls-3" d="M654.38,533c-38,0-562.78-15.2-568.08-15.35C83,517.27,13.49,509,13.49,460.06c0-45.57,7.6-380.47,7.68-383.85,0-1.09.22-29,19.35-45.87,11.4-10.06,26.91-14,46.15-11.6L654,26.41c3.65-.72,26.55-4.35,44.67,11.36C715.4,52.26,722.43,78.23,719.6,115L704.27,475.58C703.89,478.28,695.61,533,654.38,533ZM76.23,25.75c-12.56,0-22.84,3.46-30.63,10.34C29,50.72,28.84,76.05,28.84,76.3c-.07,3.46-7.67,338.28-7.67,383.76,0,42.07,65,49.84,65.67,49.91,5,.14,529.66,15.33,567.54,15.33,34.57,0,42.17-49.93,42.25-50.43l15.31-360.36c2.64-34.3-3.51-58.13-18.28-70.94C677.21,29.3,655.43,33.93,655.21,34l-.44.09h-.45L85.93,26.38A78.46,78.46,0,0,0,76.23,25.75Z"/></g></g></svg>