<svg id="圖層_1" data-name="圖層 1" xmlns="http://www.w3.org/2000/svg" xmlns:xlink="http://www.w3.org/1999/xlink" viewBox="0 0 726 546"><defs><style>.cls-1{fill:none;}.cls-2{clip-path:url(#clip-path);}.cls-3{fill:#e1cca4;}.cls-4{fill:#cfbfa7;}.cls-5{fill:#d5be9c;}.cls-6{fill:#b92d17;}.cls-7{fill:#e6351c;}.cls-8{fill:#5c9cd4;}.cls-9{fill:#e79ac3;}.cls-10{fill:#00a272;}.cls-11{fill:#f8c649;}.cls-12{fill:#d5ac43;}.cls-13{font-size:53.87px;fill:#4b4948;}.cls-13,.cls-14{font-family:AdobeFanHeitiStd-Bold, AdobeFanHeitiStd Bold-B5pc-H;font-weight:700;}.cls-14{font-size:28.2px;fill:#606365;}.cls-15{fill:#373a2f;}.cls-16{fill:#d8b352;}.cls-17{fill:#f6cb5a;}.cls-18{fill:#fff;}.cls-19{fill:#2b102e;}.cls-20{fill:#da4d55;}.cls-21{fill:#7f2e4d;}.cls-22{fill:#ea91c5;}.cls-23{fill:#8d8688;}.cls-24{fill:#a29a9c;}.cls-25{fill:#4f4a4c;}.cls-26{fill:#48832d;}.cls-27{fill:#3c4767;}</style><clipPath id="clip-path"><path class="cls-1" d="M711.27,110.91l-15.51,365C695.68,476.42,688,527,653,527c-38.37,0-569.82-15.39-574.86-15.53-.67-.07-66.52-8-66.52-50.55,0-46.07,7.7-385.21,7.78-388.72,0-.26.2-25.91,17-40.73,7.89-7,18.3-10.47,31-10.47a78.63,78.63,0,0,1,9.83.64l575.73,7.8h.46l.44-.1c.22-.06,22.28-4.75,38.94,9.7C707.71,52,713.94,76.16,711.27,110.91Z"/></clipPath></defs><title>act_v1</title><g class="cls-2"><rect class="cls-3" x="-24.09" y="17.87" width="783.38" height="532.25" rx="23.45" ry="23.45"/><path class="cls-4" d="M-4.6,160.25s97.16-12.54,145.74,1.57,216.28,23.5,230.38,14.1,170.83-42.31,189.63-42.31S716.3,161.82,716.3,161.82V91.29s-134.77-11-175.52-20.37-304-43.88-318.14-47-221,11-221,11Z"/><path class="cls-5" d="M716.3,243.31s-75.22,47-90.89,45.45-293.07,43.88-311.87,45.45S108.23,310.7,94.13,309.13s-76.79-34.48-76.79-34.48v47s210,15.67,224.11,31.34,321.27,6.27,340.08,17.24,137.91,9.41,137.91,9.41Z"/><path class="cls-4" d="M11.07,404.73,201.84,425.1s61.66,15.68,95.91,31.35,178.11-12.54,178.11-12.54S710,481.52,710,487.79s-79.31,3.14-79.31,3.14H14.2Z"/><path class="cls-6" d="M366.1,250.57s7.43,0,9.9-2.51,16.09-8.82,13.62,8.81-19.81,32.74-24.76,32.74-29.71-25.18-27.23-32.74,7.43-12.59,14.85-10.07S359.91,251.83,366.1,250.57Z"/><path class="cls-7" d="M366.1,247.44s7.43,0,9.9-2.52,16.09-8.81,13.62,8.82-19.81,32.73-24.76,32.73-29.71-25.18-27.23-32.73,7.43-12.6,14.85-10.08S359.91,248.7,366.1,247.44Z"/><path class="cls-8" d="M400,224s16-12.42,16-16,0-10.64-8.87-12.41-12.42,14.19-12.42,17.74S392.94,224,400,224Z"/><path class="cls-9" d="M446.16,238.14s-3.55,12.42,5.32,14.2,12.42-7.1,17.74-7.1,7.1-7.1,1.78-12.42S453.26,225.73,446.16,238.14Z"/><path class="cls-10" d="M453.26,286.05s0,5.32,3.55,7.09,19.51,1.78,21.28-3.55S476.32,279,471,277.17,453.26,277.17,453.26,286.05Z"/><path class="cls-11" d="M506.48,282.5s1.77,7.09,7.1,8.87,7.09,7.09,8.87,12.42,21.29,5.32,23.06-1.78S542,287.82,533.09,282.5,508.25,270.08,506.48,282.5Z"/><path class="cls-6" d="M560.77,234.71s0,12.42,5.32,16,7.1,8.87,12.42,5.32,3.55-14.19-1.77-19.51S564.32,225.84,560.77,234.71Z"/><path class="cls-7" d="M560.77,233.15s0,12.42,5.32,16,7.1,8.87,12.42,5.33,3.55-14.2-1.77-19.52S564.32,224.28,560.77,233.15Z"/><path class="cls-8" d="M513.58,160.08c1.58.8,30.16,5.33,31.93-7.09s-1.77-21.29-7.1-23.07S526,128.15,524.22,137s-8.87,7.1-10.64,10.64S506.48,156.53,513.58,160.08Z"/><path class="cls-9" d="M533.09,90.89c1.26,1.26,14.2,1.78,17.74-3.55s3.55-10.64-3.54-12.41-14.2,5.32-16,8.87S531.32,89.12,533.09,90.89Z"/><path class="cls-11" d="M424.87,121.05A12.61,12.61,0,0,0,432,131.7c7.09,3.55,19.51,5.32,24.84,0s3.54-10.65,0-12.42-14.2,1.77-17.75-1.78S424.87,112.18,424.87,121.05Z"/><path class="cls-11" d="M624.8,413s-9.12,4.34-10.63,12.92,1.55,20.88,10.68,22.43,15.21-3.31,16-7.6-8.38-11.73-5.35-17.11S636.2,407.61,624.8,413Z"/><path class="cls-10" d="M681,451.47a36.33,36.33,0,0,0,8.87,8.87c5.33,3.54,16,5.32,17.74-5.33s-1.77-12.42-8.87-14.19S679.26,442.59,681,451.47Z"/><path class="cls-10" d="M608.94,164.67a36.33,36.33,0,0,0,8.87,8.87c5.32,3.55,16,5.32,17.74-5.32s-1.77-12.42-8.87-14.2S607.17,155.8,608.94,164.67Z"/><path class="cls-11" d="M693.46,328.28s0,8.87,7.09,8.87,19.52-12.42,17.74-19.52-12.42-10.64-17.74-5.32S689.91,323,693.46,328.28Z"/><path class="cls-9" d="M353.91,156.53s3.54,7.1,8.87,7.1,5.32,3.55,10.64,5.32,12.42-3.54,8.87-14.19-17.74-10.64-23.06-7.1A11.46,11.46,0,0,0,353.91,156.53Z"/><path class="cls-8" d="M419.91,77.67s-3.55,10.65,5.32,10.65,17.74-14.2,16-19.52-5.32-8.87-10.65-7.09S427,72.35,419.91,77.67Z"/><path class="cls-8" d="M86.1,215.59s-3.55,10.64,5.32,10.64,17.74-14.19,16-19.51-5.33-8.88-10.65-7.1S93.19,210.26,86.1,215.59Z"/><path class="cls-7" d="M592,370.18s-3.54,12.42,7.1,12.42,16,0,21.29-1.78,10.65-8.87,7.1-14.19-17.74-8.87-24.84-5.32A29.58,29.58,0,0,0,592,370.18Z"/><path class="cls-6" d="M134.38,257.34s-3.54,12.42,7.1,12.42,16,0,21.29-1.77,10.64-8.88,7.1-14.2-17.74-8.87-24.84-5.32A29.58,29.58,0,0,0,134.38,257.34Z"/><path class="cls-7" d="M134.38,255.77s-3.54,12.42,7.1,12.42,16,0,21.29-1.77,10.64-8.87,7.1-14.19-17.74-8.88-24.84-5.33A29.58,29.58,0,0,0,134.38,255.77Z"/><path class="cls-11" d="M226.17,149.44s-3.55,3.55,0,12.42,7.1,10.64,16,0,14.19-16,10.64-21.29S235,138.79,226.17,149.44Z"/><path class="cls-10" d="M252.78,211.53s-1.77,7.1,5.32,8.87,19.52-3.55,21.29-12.42-5.32-10.64-10.64-8.87a86.65,86.65,0,0,0-12.42,5.33C252.78,206.21,252.78,211.53,252.78,211.53Z"/><path class="cls-11" d="M311.33,224s1.77,8.87,7.09,7.1,16-8.87,14.2-17.74-12.42-3.55-14.2,0S309.55,218.63,311.33,224Z"/><path class="cls-9" d="M681.87,216.27s-1.77,7.09,1.77,10.64,8.88,1.78,16-8.87,14.19-10.64,14.19-19.51-1.77-12.42-8.87-12.42S689,195,687.19,200.3,683.64,212.72,681.87,216.27Z"/><path class="cls-9" d="M603.51,326s-1.77,7.1,1.78,10.65,8.87,1.77,16-8.87,14.2-10.65,14.2-19.52-1.78-12.42-8.88-12.42-16,8.87-17.74,14.19S605.29,322.42,603.51,326Z"/><path class="cls-10" d="M76.1,277.51A36.11,36.11,0,0,0,85,286.38c5.32,3.55,16,5.32,17.74-5.32s-1.78-12.42-8.87-14.2S74.32,268.64,76.1,277.51Z"/><path class="cls-9" d="M69.1,398.06s-1.78,7.1,1.77,10.65,8.87,1.77,16-8.87S101,389.19,101,380.32s-1.77-12.42-8.87-12.42-16,8.87-17.74,14.2S70.87,394.51,69.1,398.06Z"/><path class="cls-7" d="M162.3,160.08s0,8.87,7.1,7.1,8.87-8.87,7.09-12.42S162.3,153,162.3,160.08Z"/><path class="cls-7" d="M171.17,229.27s-3.55,10.65-1.77,14.2,10.64,8.87,16,0,3.54-8.87,7.09-12.42,1.78-12.42-7.09-12.42S171.17,229.27,171.17,229.27Z"/><path class="cls-9" d="M235,266.53s-5.32,7.1,0,10.64,17.74-1.77,21.29-8.87,3.55-12.41-3.55-14.19S235,266.53,235,266.53Z"/><path class="cls-11" d="M200.8,420.68s-5.32-1.78-8.87,5.32-3.55,14.19,5.32,14.19,12.42,8.87,17.74,5.33S209.67,422.45,200.8,420.68Z"/><path class="cls-9" d="M306,394.27s-7.1,8.87-5.33,16,10.65,12.42,14.2,10.65,10.64-16,7.09-21.29S309.55,390.72,306,394.27Z"/><path class="cls-10" d="M346.81,378.3s-1.77,12.42,5.32,10.64,19.52-8.87,17.74-17.74-7.09-8.87-14.19-3.55S346.81,378.3,346.81,378.3Z"/><path class="cls-10" d="M180,378.3s-8.87,12.42-12.42,17.74-5.32,10.65,3.55,12.42,23.07-5.32,24.84-16S197.78,369.43,180,378.3Z"/><path class="cls-10" d="M70.34,88.37s-8.87,12.42-12.42,17.74-5.32,10.64,3.55,12.42,23.06-5.32,24.84-16S88.08,79.5,70.34,88.37Z"/><path class="cls-12" d="M164.08,319.75s0,10.65,10.64,12.42a34.72,34.72,0,0,0,24.84-5.32c5.32-3.55,0-16-5.32-17.74s-17.75,1.77-24.84,5.32S164.08,319.75,164.08,319.75Z"/><path class="cls-11" d="M164.08,318.19s0,10.64,10.64,12.42a34.76,34.76,0,0,0,24.84-5.33c5.32-3.55,0-16-5.32-17.74s-17.75,1.78-24.84,5.32S164.08,318.19,164.08,318.19Z"/><path class="cls-10" d="M472.77,197.34s10.65,3.55,12.42-3.55-5.32-10.64-12.42-10.64-8.87,5.32-7.09,8.87S463.9,197.34,472.77,197.34Z"/><path class="cls-8" d="M504.71,346.37s-5.33,7.09,0,12.41,0,7.1,3.54,10.65,23.07-5.32,23.07-12.42-8.87-10.64-14.19-12.42S504.71,346.37,504.71,346.37Z"/><path class="cls-9" d="M414.23,451s0,3.55,5.32,5.32,17.74-3.55,17.74-7.1-1.77-8.87-7.1-8.87S414.23,445.72,414.23,451Z"/><path class="cls-10" d="M511.47,428.24s2.88,9.94,11.55,4.89,13.92-11,11.39-15.34-8.93-7.87-12.81-7.06-2.27,8.58-4.89,11.56S511.11,422.64,511.47,428.24Z"/><path class="cls-8" d="M336.17,452.81s8.87,10.65,14.19,10.65,17.74-7.1,16-16-10.65-3.55-12.42-3.55-5.33-5.32-10.65-5.32S330.84,447.49,336.17,452.81Z"/><path class="cls-8" d="M402,385.42s8.87,10.65,14.19,10.65,17.74-7.1,16-16-10.65-3.55-12.42-3.55-5.32-5.32-10.65-5.32S396.67,380.1,402,385.42Z"/><path class="cls-7" d="M240.36,458.13s5.33,7.1,12.42,10.65,17.74,1.77,16-5.32-16-14.2-19.52-14.2S236.81,449.26,240.36,458.13Z"/><text class="cls-13" transform="translate(147.61 105.66)">攀岩聯聯看</text><text class="cls-14" transform="translate(148.98 136.3)"><tspan xml:space="preserve">2019.03.07  14:00PM</tspan></text><path class="cls-15" d="M494.81,44.28a383.29,383.29,0,0,1-6.62,137.35c-.28,1.23,1.61,1.75,1.89.53a384.86,384.86,0,0,0,6.69-137.88c-.16-1.23-2.12-1.25-2,0Z"/><path class="cls-15" d="M176.33,232.14A607.06,607.06,0,0,1,127.79,19.81c-.09-2-3.2-2-3.11,0A609.58,609.58,0,0,0,173.34,233c.77,1.81,3.77,1,3-.83Z"/><path class="cls-16" d="M547.62,245.89c-1.48,1.84-1.13,3.5,0,4.63a10.74,10.74,0,0,1,2.14,2.65c.28.67-.45,1.92-1.59,2.86-.74.61-3.57,3.13-5.58,4.59-5.78,5.69-12.16,12.81-17.25,19-7.71,9.37-16.63,30.1-12.92,39.34a33.24,33.24,0,0,0,3.15,4.71s5.77-5.3,19.7-18.31c16.9-15.79,29.4-27.31,35.68-39.19s5.65-14.64,4.61-16.91-4.68-7.5-7.75-8.3-6.71,1.51-8.39,3.28-3.48,3.9-3.48,3.9-2.34-2.37-3.28-2.67S549.11,244.05,547.62,245.89Z"/><path class="cls-17" d="M424.38,373.36a5.5,5.5,0,0,0,1.68-1.63c1.05-1.35,20.58-22.54,20.58-22.54a3.88,3.88,0,0,1,4-.51c5,2.47,5.63,3.22,7.65,6.78,3.26,5.78,4.58,12.92.62,18.69,0,0-2.22,1.94-2.24,2-.5.53-18.74,18.82-19.45,19.36A9.85,9.85,0,0,1,428,396c-4.73-2-16.69-13.32-16.69-13.32s-3-4.41-1.28-6.51,2.69-2.76,5.18-3.22S424.38,373.36,424.38,373.36Z"/><path class="cls-16" d="M509.1,357.39c-8.91-5.29-15.45,1-18.35,3.06-6.21,4.37-.07,13.33,2.82,18.56a2.41,2.41,0,0,1,.28.33c.66.93,16.33,26,18.23,28.15s.75,2,.14,3.15a18.71,18.71,0,0,0-.91,12.37c1.59,6.38,8.3,2.52,8.9,2.36s14.41-9.22,15.79-11.12,4.56-6.6,2.41-10.92-15.35-26.42-15.35-26.42S513.4,359.94,509.1,357.39Z"/><path class="cls-17" d="M448.16,371.88c-6.21-8.6-7.2-16.45-9-41-.31-4.34-.19-4.4.58-7.6.69-2.87,4.3-8.5,5.27-10.53,2.75-5.78,4-8.77,4-8.77h63.62l3.15,5.26c2.38,4,3,5.09,4.1,7,.54.92,2.08,3,2.34,4.68,1.17,7.6.43,14.66.58,20.46.59,22.81-7,30.95-7.6,31.58,0,0-9.3,7.85-14.07,10-3.66,1.63-11.14,2.12-12.34,2.15s-14.74-.14-14.74-.14-11.13-1.2-15.61-3.68A30.37,30.37,0,0,1,448.16,371.88Z"/><path class="cls-16" d="M552.59,206.85a69.37,69.37,0,0,0-3.8-6.36c.06-.65,0-1.33,0-1.89a33,33,0,0,0-.22-3.85,3.3,3.3,0,0,0,.21-1.09,158.59,158.59,0,0,0-2.47-33.77q0-.19-.09-.36a3.74,3.74,0,0,0-2.51-3.76c-2.37-.83-5.07.8-6.72,2.41-.12.11-.23.23-.34.34a30.3,30.3,0,0,0-3.31,1.92,19.85,19.85,0,0,0-4.35,4.33c-4.13,2.83-10.59,7.46-13.86,9.83a59.36,59.36,0,0,0-10-2.52c-12-1.88-27.2-.8-41.12,2.55-4.3-3.1-14.2-10.22-17-11.88a17.22,17.22,0,0,0-2-1.66,28.63,28.63,0,0,0-3.3-1.92l-.35-.34c-1.65-1.61-4.34-3.24-6.71-2.41a3.72,3.72,0,0,0-2.51,3.75,2.22,2.22,0,0,0-.09.37,158,158,0,0,0-2.48,33.77,4.52,4.52,0,0,0,.09.67c-8.3,10.22-14.18,22.61-14.55,30.23-.62,12.74-8.22,47.29,20.65,72.56,0,0,8.32,9.07,20,12.09s55.89,5.62,71.09-3.45,25.28-17.71,29.8-35.2S563.68,228,552.59,206.85Z"/><path class="cls-17" d="M549.45,206.21a65.88,65.88,0,0,0-3.8-6.21,16.72,16.72,0,0,0,0-1.85,31.19,31.19,0,0,0-.21-3.75,3.39,3.39,0,0,0,.21-1.07,150.66,150.66,0,0,0-2.48-33,2.11,2.11,0,0,0-.09-.36,3.62,3.62,0,0,0-2.51-3.66c-2.37-.82-5.06.78-6.71,2.35-.12.11-.24.22-.35.34a29,29,0,0,0-3.3,1.86,20.12,20.12,0,0,0-4.36,4.23c-4.13,2.76-10.58,7.29-13.86,9.6a60.63,60.63,0,0,0-10-2.46c-12.05-1.83-27.2-.78-41.12,2.49-4.3-3-14.21-10-17-11.6a17.79,17.79,0,0,0-2-1.62,28.38,28.38,0,0,0-3.31-1.87l-.34-.34c-1.65-1.57-4.35-3.16-6.72-2.35a3.65,3.65,0,0,0-2.51,3.67l-.09.35a151.32,151.32,0,0,0-2.47,33,3.29,3.29,0,0,0,.09.65c-8.31,10-14.19,22.08-14.55,29.52-.62,12.44-8.22,46.18,20.65,70.85,0,0,8.32,8.85,20,11.81s55.89,5.48,71.1-3.38,25.27-17.29,29.79-34.37S560.55,226.88,549.45,206.21Z"/><circle class="cls-18" cx="484.66" cy="219.75" r="13.67"/><circle class="cls-19" cx="482.2" cy="218.96" r="9.44"/><ellipse class="cls-19" cx="489.66" cy="229.77" rx="0.96" ry="1.75" transform="translate(11.04 481.73) rotate(-52.9)"/><ellipse class="cls-19" cx="491.83" cy="228.14" rx="0.96" ry="1.75" transform="translate(13.21 482.82) rotate(-52.9)"/><circle class="cls-18" cx="436.88" cy="219.75" r="13.67"/><circle class="cls-19" cx="439.34" cy="218.96" r="9.44"/><ellipse class="cls-19" cx="431.88" cy="229.77" rx="1.75" ry="0.96" transform="matrix(0.8, -0.6, 0.6, 0.8, -51.18, 307)"/><ellipse class="cls-19" cx="429.71" cy="228.14" rx="1.75" ry="0.96" transform="translate(-50.64 305.36) rotate(-37.1)"/><path class="cls-18" d="M490.64,242.17s4.45,4.63,2,8.57-7.22,6.34-13.69,7.19-28.64,1.89-35.61-1.2-11-9.93-8-14.56,17.68-10.27,27.39-9.76S485.66,236.69,490.64,242.17Z"/><path class="cls-19" d="M470.26,228.93s0,3.95-2.53,6-6.55,1.89-8.29,0-2.94-6.9-1.87-8.44S470.8,223.6,470.26,228.93Z"/><ellipse class="cls-20" cx="426.21" cy="239.23" rx="8.51" ry="4.26"/><ellipse class="cls-20" cx="498" cy="237.79" rx="8.51" ry="4.26"/><path class="cls-19" d="M479.76,245.28a1,1,0,0,0-1.18-.23c-1.26.39-8.86,1.39-10.6.1-2.08-1.55-4.47-5.86-4.54-9.31,0,0,0-.05,0-.08s0-.07,0-.1a.44.44,0,0,0,0-.1l0-.09-.05-.09-.05-.08s0-.05-.06-.07l-.06-.08-.07-.06L463,235l-.08-.05-.09,0-.09,0-.09,0-.1,0h-.23l-.1,0-.09,0-.1,0-.08,0-.09.05-.07.06-.08.06-.06.08-.06.07a.59.59,0,0,1,0,.08.41.41,0,0,0-.05.09l0,.09,0,.1s0,.07,0,.1,0,.05,0,.08c-.07,3.45-2.46,7.76-4.55,9.31-1.73,1.3-9.33.29-10.59-.1a1,1,0,0,0-1.18.23,1,1,0,0,0,.05,1.43c.44.41,4.25,1.09,7.72,1.09,2.16,0,4.19-.26,5.21-1a15,15,0,0,0,4.35-6.26,15.14,15.14,0,0,0,4.35,6.26c1,.76,3.05,1,5.21,1,3.48,0,7.29-.68,7.73-1.09A1,1,0,0,0,479.76,245.28Z"/><path class="cls-16" d="M399.89,257.15c1.84,1.3,2,2.9,1.38,4.21a9.41,9.41,0,0,0-1.1,3c-.05.68,1,1.63,2.23,2.2.83.37,4.06,2,6.25,2.78,6.75,3.75,14.45,8.63,20.73,13,9.52,6.59,23.45,23.25,22.92,32.6a30.61,30.61,0,0,1-1.39,5.08s-6.62-3.39-22.68-11.76c-19.48-10.15-33.83-17.51-42.84-26.76s-9.27-11.92-9-14.25,1.9-8,4.36-9.5,6.33-.31,8.33.88,5.28,2.94,5.28,2.94c-.38-.6.28-3,1-3.51S398.05,255.84,399.89,257.15Z"/><path class="cls-17" d="M399.89,258.72c1.84,1.3,2,2.9,1.38,4.21a9.33,9.33,0,0,0-1.1,3c-.05.68,1,1.63,2.23,2.2.83.37,4.06,2,6.25,2.78,6.75,3.74,14.45,8.63,20.73,13,9.52,6.6,23.45,23.26,22.92,32.61a30.71,30.71,0,0,1-1.39,5.07s-6.62-3.38-22.68-11.75c-19.48-10.15-33.83-17.51-42.84-26.76s-9.27-11.93-9-14.25,1.9-8,4.36-9.51,6.33-.3,8.33.89,5.28,2.94,5.28,2.94c-.38-.6.28-3,1-3.51S398.05,257.41,399.89,258.72Z"/><path class="cls-21" d="M440.48,351.45s78.75,7.83,80.91,6.27-3.34,11-3.34,11l3.53,6.07-22.72,12.73L497.09,384s-30,4.31-42.9-5.1l-2.54,2.75L434,362.81l7.06-7.45Z"/><path class="cls-22" d="M441.26,293.46s-11.75,15.67-13.32,15.67S440.48,317,440.48,317s-2.35,14.89-2.35,21.16a86.53,86.53,0,0,0,1.57,14.1s75.22,12.54,79.92,9.4,4.7-38.39,2.35-43.49c0,0,14.89-11.36,13.32-12.93s-5.09-4.31-5.09-4.31-8.23,10.58-25.86,11.37-53.28-3.14-53.28-3.14Z"/><path class="cls-15" d="M501.6,381.7v0c0-1.77-5.08-8.18-8.56-12.36a1.54,1.54,0,0,0,.72-.62c.76-1.53,2.75-4.15,3.94-6.45,11.71,1.39,20.79,2.27,21.66,1.74,2.61-1.56,3.66-9.4,3.66-9.4s-79.93-2.61-83.59-8.36l1.05,8.36s15,2.17,32,4.44a14.71,14.71,0,0,0-.49,3.43c-1.95.36-20.9,3.92-24.62,5.72-3.65-5-7.49-10.07-8.34-10.72l-1.3,1.57s5.16,5.42,9.51,11.05a7,7,0,0,0,.68.89c2.45,3.25,4.53,6.48,5.09,8.7l1.56-1.57s-1.87-2.61-4.31-6a.7.7,0,0,0,.21-.3c.73-1.88,15-5.35,22.13-7a2,2,0,0,0,.78.7,61.74,61.74,0,0,0,15.1,4.06l10.07,13.81-1.66.94s-1,1.3,1,1.43,22.2-11.88,22.34-13.71l-.56-.62Z"/><path class="cls-15" d="M424.81,373.39s-8.36-1.83-11.23-.92-4.45,2.48-4.45,5.62,14.11,21.94,21.95,20.37,9.4-6.27,9.4-6.27Z"/><path class="cls-15" d="M513.16,409s-2.75,3.72-2.45,10.68,2.06,7.15,5.88,7,24-9.11,22.52-20.28a14.66,14.66,0,0,0-3.23-7.73Z"/><path class="cls-23" d="M179.46,256.12c1.5,1.86,1.14,3.54,0,4.69a10.58,10.58,0,0,0-2.17,2.68c-.28.68.46,1.94,1.61,2.89.74.61,3.61,3.17,5.64,4.64,5.85,5.76,12.3,13,17.44,19.2,7.8,9.47,16.83,30.44,13.08,39.79a34.14,34.14,0,0,1-3.19,4.76s-5.84-5.37-19.92-18.52c-17.1-16-29.74-27.62-36.09-39.63s-5.71-14.81-4.66-17.1,4.73-7.59,7.84-8.4,6.78,1.52,8.48,3.32,3.52,3.94,3.52,3.94,2.37-2.39,3.32-2.7S178,254.26,179.46,256.12Z"/><path class="cls-24" d="M304.1,385a5.72,5.72,0,0,1-1.69-1.65c-1.07-1.37-20.82-22.79-20.82-22.79a3.93,3.93,0,0,0-4.08-.52c-5,2.49-5.69,3.26-7.73,6.86-3.3,5.85-4.64,13.07-.62,18.9,0,0,2.24,2,2.26,2,.51.54,18.95,19,19.67,19.58a10,10,0,0,0,9.32.57c4.79-2,16.88-13.47,16.88-13.47s3-4.46,1.3-6.58-2.72-2.8-5.24-3.26S304.1,385,304.1,385Z"/><path class="cls-23" d="M218.43,368.89c9-5.35,15.62,1,18.55,3.09,6.28,4.43.07,13.49-2.85,18.78a2,2,0,0,0-.29.33c-.66.94-16.51,26.26-18.43,28.47s-.76,2-.14,3.19a18.89,18.89,0,0,1,.91,12.51c-1.6,6.45-8.39,2.54-9,2.38s-14.56-9.32-16-11.25-4.61-6.66-2.43-11,15.52-26.73,15.52-26.73S214.08,371.47,218.43,368.89Z"/><path class="cls-24" d="M280.05,383.55c6.29-8.7,7.28-16.64,9.06-41.48.31-4.39.19-4.45-.59-7.69-.7-2.9-4.35-8.6-5.33-10.65-2.79-5.84-4-8.87-4-8.87H214.83l-3.2,5.32c-2.4,4-3,5.15-4.14,7.1-.55.93-2.11,3.06-2.36,4.73-1.19,7.69-.45,14.83-.6,20.7-.59,23.07,7.1,31.3,7.69,31.94,0,0,9.4,7.94,14.24,10.08,3.69,1.65,11.26,2.14,12.48,2.18s14.9-.15,14.9-.15,11.26-1.22,15.78-3.72A30.54,30.54,0,0,0,280.05,383.55Z"/><path class="cls-25" d="M285,212.21s33.95,86.65,44.51,71-11.35-63.49-19.89-71S266.54,170.55,285,212.21Z"/><path class="cls-23" d="M195.08,306.5s8.17,8.7,19.68,11.6,54.9,5.38,69.84-3.32,24.82-17,29.26-33.76,6.87-41.44-4-61.74a65,65,0,0,0-46.63-33.35c-16.35-2.49-38.55.41-55.31,7s-32.49,31.7-33.1,43.92S166.72,282.26,195.08,306.5Z"/><path class="cls-24" d="M195.08,304.93s8.17,8.7,19.68,11.6,54.9,5.39,69.84-3.31,24.82-17,29.26-33.77,6.87-41.43-4-61.74a65,65,0,0,0-46.63-33.35c-16.35-2.49-38.55.41-55.31,7s-32.49,31.7-33.1,43.92S166.72,280.69,195.08,304.93Z"/><path class="cls-25" d="M202.78,212.21s-33.94,86.65-44.51,71,11.36-63.49,19.89-71S221.22,170.55,202.78,212.21Z"/><path class="cls-18" d="M237.09,252.37s-4.5,4.67-2,8.66,7.3,6.41,13.85,7.27,29,1.91,36-1.21,11.08-10,8.06-14.72-17.88-10.4-27.7-9.88S242.13,246.82,237.09,252.37Z"/><path class="cls-19" d="M257.7,239s0,4,2.57,6.09,6.62,1.91,8.37,0,3-7,1.9-8.54S257.16,233.58,257.7,239Z"/><circle class="cls-18" cx="239.66" cy="230.74" r="14.88"/><circle class="cls-18" cx="284.99" cy="230.15" r="14.88"/><circle class="cls-19" cx="243.88" cy="230.6" r="7.94"/><circle class="cls-19" cx="281.31" cy="231.19" r="7.94"/><path class="cls-19" d="M287.94,205.36s-19.48,8.26-20.07,13,39-6.5,37.78-10S287.94,205.36,287.94,205.36Z"/><path class="cls-19" d="M235.42,205.36s19.48,8.26,20.07,13-39-6.5-37.78-10S235.42,205.36,235.42,205.36Z"/><path class="cls-23" d="M328.87,267.51c-1.86,1.32-2,2.94-1.39,4.26a9.69,9.69,0,0,1,1.11,3c.05.69-1,1.65-2.26,2.23-.83.37-4.1,2-6.32,2.81-6.82,3.79-14.61,8.73-21,13.13-9.63,6.68-23.72,23.52-23.18,33a30,30,0,0,0,1.4,5.13s6.7-3.42,22.94-11.88c19.7-10.27,34.22-17.71,43.33-27.07s9.37-12.06,9.12-14.41-1.92-8.1-4.41-9.62-6.4-.31-8.42.9-5.34,3-5.34,3c.38-.62-.29-3-1-3.56S330.73,266.19,328.87,267.51Z"/><path class="cls-24" d="M328.87,269.08c-1.86,1.32-2,2.94-1.39,4.26a9.69,9.69,0,0,1,1.11,3c.05.69-1,1.65-2.26,2.23-.83.37-4.1,2-6.32,2.81-6.82,3.79-14.61,8.73-21,13.13-9.63,6.67-23.72,23.52-23.18,33a30,30,0,0,0,1.4,5.13s6.7-3.43,22.94-11.89c19.7-10.26,34.22-17.71,43.33-27.06s9.37-12.06,9.12-14.42-1.92-8.09-4.41-9.61-6.4-.31-8.42.9-5.34,3-5.34,3c.38-.61-.29-3-1-3.55S330.73,267.76,328.87,269.08Z"/><path class="cls-26" d="M288.16,362.42s-80,8.17-82.16,6.54,2.61,11.45,2.61,11.45L203.83,387l25,13.08,1.79-3.68s30.44,4.5,43.57-5.31l2.58,2.86,17.91-19.63-7.16-7.76Z"/><path class="cls-27" d="M286.09,304.43S299.43,320.1,301,320.1s-14.13,7.84-14.13,7.84,4.73,14.1,2.35,21.16c-2,5.94-1.56,14.1-1.56,14.1s-75.23,12.54-79.93,9.4-4.7-38.39-2.35-43.49c0,0-14.89-11.36-13.32-12.93l7.07-7.05a46.17,46.17,0,0,0,28.21,11c17.63.79,51.72-4.7,51.72-4.7Z"/><path class="cls-15" d="M225.76,392.67v0c0-1.77,5.08-8.18,8.57-12.36a1.52,1.52,0,0,1-.73-.62c-.76-1.53-2.75-4.15-3.94-6.45-11.71,1.39-20.79,2.27-21.66,1.74-2.61-1.56-3.66-9.4-3.66-9.4s79.93-2.61,83.59-8.36l-1.05,8.36s-15.05,2.17-32,4.44a14.71,14.71,0,0,1,.49,3.43c2,.37,20.9,3.92,24.62,5.72,3.65-5,7.5-10.07,8.34-10.72l1.3,1.57s-5.16,5.42-9.51,11.05a7,7,0,0,1-.68.89c-2.45,3.25-4.53,6.48-5.09,8.7l-1.56-1.57s1.87-2.61,4.31-6a.7.7,0,0,1-.21-.3c-.73-1.88-15-5.35-22.13-7a2,2,0,0,1-.78.7,61.74,61.74,0,0,1-15.1,4.06l-10.07,13.81,1.66.94s1.05,1.3-1,1.43-22.2-11.88-22.33-13.71l.55-.62Z"/><path class="cls-15" d="M304.13,384.36s8.34-.26,11.21.65,4.44,2.48,4.44,5.62-14.1,21.94-21.94,20.37-9.4-6.27-9.4-6.27Z"/><path class="cls-15" d="M214.8,422s4.43,3.82,3.14,11c-1.24,6.85-3.35,6.47-7.17,6.37s-24.08-10.87-22.61-22c0,0,.2-2.84,3.14-6.27Z"/></g></svg>