<svg id="圖層_1" data-name="圖層 1" xmlns="http://www.w3.org/2000/svg" xmlns:xlink="http://www.w3.org/1999/xlink" viewBox="0 0 602 285"><defs><style>.cls-1{fill:none;}.cls-2{clip-path:url(#clip-path);}.cls-3{fill:#e1cca4;}.cls-4{fill:#cfbfa7;}.cls-5{fill:#d5be9c;}.cls-6{fill:#b92d17;}.cls-7{fill:#e6351c;}.cls-8{fill:#5c9cd4;}.cls-9{fill:#e79ac3;}.cls-10{fill:#00a272;}.cls-11{fill:#f8c649;}.cls-12{fill:#d5ac43;}.cls-13{font-size:29.97px;fill:#4b4948;}.cls-13,.cls-14{font-family:AdobeFanHeitiStd-Bold, AdobeFanHeitiStd Bold-B5pc-H;font-weight:700;}.cls-14{font-size:15.69px;fill:#606365;}.cls-15{fill:#373a2f;}.cls-16{fill:#d8b352;}.cls-17{fill:#f6cb5a;}.cls-18{fill:#fff;}.cls-19{fill:#2b102e;}.cls-20{fill:#da4d55;}.cls-21{fill:#7f2e4d;}.cls-22{fill:#ea91c5;}.cls-23{fill:#8d8688;}.cls-24{fill:#a29a9c;}.cls-25{fill:#4f4a4c;}.cls-26{fill:#48832d;}.cls-27{fill:#3c4767;}</style><clipPath id="clip-path"><path class="cls-1" d="M497.22,48.5l-4.7,203.18c0,.29-3.77,28.5-23.25,28.88-21.35.42-317.12-2.42-319.92-2.44-.37,0-37.08-3.71-37.54-27.4-.5-25.63.13-214.35.13-216.3,0-.14-.17-14.42,9-22.84,4.32-3.95,10.07-6,17.15-6.16a45,45,0,0,1,5.47.25L463.88,3.81h.25l.24-.06c.13,0,12.35-2.88,21.77,5C494.6,15.78,498.33,29.14,497.22,48.5Z"/></clipPath></defs><title>act_v1</title><g class="cls-2"><rect class="cls-3" x="90.02" y="0.42" width="435.81" height="296.1" rx="13.05" ry="13.05" transform="translate(-2.82 5.99) rotate(-1.11)"/><path class="cls-4" d="M99.56,83.65s53.91-8,81.09-.7S301.2,93.7,308.94,88.32,403.5,62.94,414,62.74s86.6,14,86.6,14l-.76-39.23S424.72,32.88,402,28.09,232.37,7,224.49,5.37,101.7,13.85,101.7,13.85Z"/><path class="cls-5" d="M501.44,122.09s-41.33,27-50.07,26.26-162.53,27.56-173,28.63S164,166.12,156.09,165.4,113,147.05,113,147.05l.51,26.15s117,6.46,125,15,178.76,0,189.34,5.93,76.81,3.74,76.81,3.74Z"/><path class="cls-4" d="M110.91,219.47l106.34,9.28s34.46,8.05,53.68,16.4,98.93-8.9,98.93-8.9,130.66,18.4,130.73,21.89-44.08,2.6-44.08,2.6l-342.92,6.64Z"/><path class="cls-6" d="M306.73,129.9s4.13-.08,5.48-1.51,8.86-5.07,7.67,4.76-10.67,18.42-13.42,18.47-16.79-13.68-15.5-17.91,4-7.09,8.15-5.76S303.3,130.67,306.73,129.9Z"/><path class="cls-7" d="M306.7,128.16s4.13-.08,5.48-1.51,8.85-5.08,7.66,4.75-10.66,18.43-13.41,18.48-16.8-13.69-15.5-17.92,4-7.08,8.15-5.76S303.27,128.92,306.7,128.16Z"/><path class="cls-8" d="M325.32,114.73s8.74-7.08,8.71-9.06-.12-5.92-5.07-6.81-6.76,8-6.72,10S321.37,114.8,325.32,114.73Z"/><path class="cls-9" d="M351.13,122.12s-1.84,6.95,3.11,7.84,6.83-4.08,9.79-4.14,3.87-4,.85-6.92S354.94,115.14,351.13,122.12Z"/><path class="cls-10" d="M355.59,148.69s.06,3,2.05,3.91,10.87.78,11.8-2.2-1.1-5.91-4.08-6.83S355.49,143.76,355.59,148.69Z"/><path class="cls-11" d="M385.16,146.14s1.06,3.93,4,4.86,4,3.87,5.07,6.81,11.9,2.73,12.81-1.23S405,148.72,400,145.86,386,139.22,385.16,146.14Z"/><path class="cls-6" d="M414.84,119s.13,6.91,3.13,8.83,4,4.85,7,2.82,1.83-7.93-1.19-10.83S416.72,114,414.84,119Z"/><path class="cls-7" d="M414.82,118.11S415,125,418,126.93s4.05,4.86,7,2.83,1.82-7.93-1.2-10.84S416.7,113.14,414.82,118.11Z"/><path class="cls-8" d="M387.78,78c.9.42,16.84,2.63,17.69-4.29s-1.22-11.83-4.2-12.75-6.92-.86-7.81,4.1-4.86,4-5.81,6S383.8,76.08,387.78,78Z"/><path class="cls-9" d="M397.89,39.28c.71.69,7.92.84,9.83-2.16s1.86-6-2.1-6.87-7.84,3.11-8.79,5.1S396.89,38.32,397.89,39.28Z"/><path class="cls-11" d="M338,57.22a7,7,0,0,0,4.07,5.85c4,1.9,10.91,2.75,13.81-.27s1.86-6-.13-6.91-7.88,1.14-9.89-.79S337.93,52.29,338,57.22Z"/><path class="cls-11" d="M452.38,217.48s-5,2.51-5.78,7.3,1.09,11.6,6.18,12.36,8.42-2,8.8-4.4-4.79-6.43-3.16-9.46S458.66,214.34,452.38,217.48Z"/><path class="cls-10" d="M484.06,238.25a20.28,20.28,0,0,0,5,4.83c3,1.92,8.94,2.79,9.82-3.15s-1.13-6.89-5.09-7.8S483,233.33,484.06,238.25Z"/><path class="cls-10" d="M440.88,79.5a20.21,20.21,0,0,0,5,4.84c3,1.92,8.94,2.79,9.81-3.15s-1.12-6.89-5.09-7.8S439.79,74.59,440.88,79.5Z"/><path class="cls-11" d="M489.65,169.59s.09,4.94,4,4.86,10.72-7.12,9.66-11-7-5.79-9.93-2.77S487.62,166.67,489.65,169.59Z"/><path class="cls-9" d="M298.93,77.72s2.05,3.91,5,3.86,3,1.91,6,2.84,6.87-2.11,4.78-8-10-5.73-12.9-3.7A6.39,6.39,0,0,0,298.93,77.72Z"/><path class="cls-8" d="M334.8,33.15s-1.86,6,3.07,5.86,9.72-8.08,8.67-11-3.05-4.88-6-3.84S338.69,30.11,334.8,33.15Z"/><path class="cls-8" d="M150.61,113.46s-1.86,6,3.07,5.86,9.72-8.09,8.68-11-3.06-4.87-6-3.83S154.5,110.42,150.61,113.46Z"/><path class="cls-7" d="M433.67,194s-1.84,6.95,4.08,6.83,8.88-.17,11.82-1.21,5.83-5.05,3.8-8-10-4.75-13.87-2.7A16.47,16.47,0,0,0,433.67,194Z"/><path class="cls-6" d="M177.92,136.16s-1.84,7,4.08,6.83,8.88-.17,11.82-1.22,5.83-5,3.8-8-10-4.74-13.88-2.69A16.37,16.37,0,0,0,177.92,136.16Z"/><path class="cls-7" d="M177.9,135.29s-1.84,6.94,4.08,6.83,8.88-.17,11.82-1.22,5.83-5.05,3.8-8-10-4.74-13.87-2.69A16.47,16.47,0,0,0,177.9,135.29Z"/><path class="cls-11" d="M227.81,75.15s-1.94,2,.13,6.91,4.06,5.85,8.88-.17,7.73-9,5.69-12S232.63,69.14,227.81,75.15Z"/><path class="cls-10" d="M243.28,109.4s-.91,4,3.06,4.88,10.81-2.18,11.7-7.14-3.07-5.86-6-4.81a47,47,0,0,0-6.85,3.09C243.22,106.44,243.28,109.4,243.28,109.4Z"/><path class="cls-11" d="M276,115.68s1.08,4.92,4,3.87,8.79-5.1,7.7-10-6.94-1.84-7.89.15S274.93,112.74,276,115.68Z"/><path class="cls-9" d="M482,107.42s-.91,4,1.1,5.9,4.95.89,8.78-5.11,7.78-6.07,7.69-11-1.12-6.88-5.07-6.81-8.78,5.11-9.71,8.09S483,105.42,482,107.42Z"/><path class="cls-9" d="M439.59,169.28s-.91,4,1.11,5.9,4.95.89,8.78-5.1,7.78-6.08,7.69-11-1.13-6.89-5.07-6.81-8.79,5.1-9.72,8.08S440.54,167.29,439.59,169.28Z"/><path class="cls-10" d="M145.71,148a20.22,20.22,0,0,0,5,4.84c3,1.92,8.94,2.79,9.81-3.15s-1.12-6.89-5.08-7.8S144.63,143.09,145.71,148Z"/><path class="cls-9" d="M143.12,215.13s-.91,4,1.1,5.91,5,.89,8.79-5.11,7.78-6.07,7.68-11-1.12-6.89-5.07-6.81-8.78,5.11-9.71,8.09S144.07,213.14,143.12,215.13Z"/><path class="cls-7" d="M192.4,81.76s.09,4.94,4,3.87,4.84-5,3.82-7S192.32,77.82,192.4,81.76Z"/><path class="cls-7" d="M198.08,120.15s-1.86,6-.84,7.92,6,4.81,8.89-.18,1.87-5,3.81-7,.85-6.93-4.08-6.83S198.08,120.15,198.08,120.15Z"/><path class="cls-9" d="M234,140.19s-2.88,4,.12,5.92,9.85-1.18,11.74-5.17,1.84-6.94-2.12-7.85S234,140.19,234,140.19Z"/><path class="cls-11" d="M216.62,226.3s-3-.93-4.88,3-1.82,7.93,3.11,7.84,7,4.8,9.93,2.77S221.57,227.19,216.62,226.3Z"/><path class="cls-9" d="M274.85,210.47s-3.85,5-2.79,8.94,6.06,6.79,8,5.77,5.75-9,3.72-11.92S276.79,208.46,274.85,210.47Z"/><path class="cls-10" d="M297.38,201.15s-.86,6.93,3.07,5.86,10.76-5.14,9.68-10.06-4-4.85-7.93-1.82S297.38,201.15,297.38,201.15Z"/><path class="cls-10" d="M204.62,203s-4.8,7-6.72,10-2.84,6,2.11,6.87,12.77-3.21,13.64-9.15S214.39,197.82,204.62,203Z"/><path class="cls-10" d="M140.47,42.86s-4.8,7-6.71,10-2.85,6,2.11,6.87,12.77-3.21,13.64-9.15S150.25,37.74,140.47,42.86Z"/><path class="cls-12" d="M195.11,170.55s.11,5.93,6,6.8a19.35,19.35,0,0,0,13.76-3.23c2.92-2-.17-8.88-3.15-9.81s-9.85,1.18-13.76,3.23S195.11,170.55,195.11,170.55Z"/><path class="cls-11" d="M195.09,169.68s.11,5.92,6,6.8a19.35,19.35,0,0,0,13.76-3.23c2.92-2-.17-8.88-3.15-9.81s-9.85,1.18-13.76,3.23S195.09,169.68,195.09,169.68Z"/><path class="cls-10" d="M365.49,99.14s6,1.86,6.87-2.11-3.08-5.86-7-5.78-4.88,3-3.86,5S360.56,99.24,365.49,99.14Z"/><path class="cls-8" d="M384.86,181.69s-2.89,4,.13,6.9.08,3.95,2.09,5.89,12.77-3.21,12.69-7.16-5-5.82-8-6.75S384.86,181.69,384.86,181.69Z"/><path class="cls-9" d="M335.66,240.88s0,2,3,2.91,9.83-2.17,9.79-4.14-1.09-4.92-4.05-4.86S335.6,237.92,335.66,240.88Z"/><path class="cls-10" d="M389.5,227.15s1.71,5.5,6.48,2.6,7.62-6.27,6.17-8.66-5-4.27-7.2-3.78-1.17,4.79-2.6,6.48S389.24,224,389.5,227.15Z"/><path class="cls-8" d="M292.26,242.71s5.05,5.83,8,5.77,9.79-4.14,8.71-9-6-1.86-7-1.84-3-2.91-6-2.85S289.24,239.81,292.26,242.71Z"/><path class="cls-8" d="M328.14,204.52s5.05,5.82,8,5.77,9.79-4.14,8.71-9.06-6-1.86-6.94-1.84-3-2.9-6-2.84S325.13,201.62,328.14,204.52Z"/><path class="cls-7" d="M239,246.7a22.91,22.91,0,0,0,7,5.79c4,1.9,9.89.8,8.82-3.13s-9-7.72-11-7.69S237,241.81,239,246.7Z"/><text class="cls-13" transform="translate(183.64 51.65) rotate(-1.11)">攀岩聯聯看</text><text class="cls-14" transform="translate(184.73 68.68) rotate(-1.11)"><tspan xml:space="preserve">2019.03.07  14:00PM</tspan></text><path class="cls-15" d="M376.1,13.77a213.23,213.23,0,0,1-2.2,76.47c-.15.68.91,1,1.05.27a214.15,214.15,0,0,0,2.24-76.76c-.11-.69-1.2-.68-1.09,0Z"/><path class="cls-15" d="M201,121.69A337.67,337.67,0,0,1,171.69,4.11c-.07-1.1-1.8-1.07-1.73,0a339.3,339.3,0,0,0,29.36,118c.45,1,2.11.51,1.66-.5Z"/><path class="cls-16" d="M407.65,125.34a1.78,1.78,0,0,0,0,2.57,6.07,6.07,0,0,1,1.22,1.46c.16.37-.23,1.07-.86,1.6-.4.35-1.95,1.78-3.05,2.61-3.15,3.23-6.63,7.26-9.39,10.75-4.19,5.29-8.93,16.92-6.76,22a18.08,18.08,0,0,0,1.8,2.58s3.15-3,10.76-10.39c9.23-9,16.06-15.51,19.42-22.18s3-8.21,2.38-9.46-2.68-4.12-4.4-4.53-3.71.91-4.63,1.91-1.89,2.21-1.89,2.21a9.24,9.24,0,0,0-1.85-1.45C409.91,124.88,408.45,124.3,407.65,125.34Z"/><path class="cls-17" d="M340.47,197.57a3.33,3.33,0,0,0,.92-.93c.57-.76,11.2-12.76,11.2-12.76a2.15,2.15,0,0,1,2.24-.32c2.79,1.31,3.16,1.73,4.32,3.69,1.88,3.18,2.69,7.13.55,10.39l-1.23,1.11c-.27.3-10.21,10.67-10.61,11a5.49,5.49,0,0,1-5.11.41c-2.66-1.06-9.43-7.23-9.43-7.23s-1.72-2.42-.79-3.61a4.09,4.09,0,0,1,2.85-1.85A26.59,26.59,0,0,1,340.47,197.57Z"/><path class="cls-16" d="M387.42,187.77c-5-2.84-8.58.73-10.17,1.9-3.41,2.5.1,7.42,1.76,10.3a.74.74,0,0,1,.17.18c.37.51,9.36,14.26,10.43,15.46s.44,1.1.12,1.75a10.37,10.37,0,0,0-.37,6.89c.95,3.53,4.64,1.31,5,1.21s7.92-5.28,8.67-6.35,2.46-3.72,1.22-6.1-8.82-14.53-8.82-14.53S389.84,189.14,387.42,187.77Z"/><path class="cls-17" d="M353.68,196.49c-3.55-4.72-4.18-9.07-5.42-22.72a9.32,9.32,0,0,1,.24-4.23c.35-1.6,2.3-4.78,2.82-5.91,1.47-3.25,2.12-4.92,2.12-4.92l35.38-.69s.81,1.3,1.82,2.89c1.36,2.18,1.69,2.8,2.35,3.86a8.76,8.76,0,0,1,1.35,2.58c.73,4.22.4,8.15.55,11.38.57,12.68-3.57,17.28-3.89,17.64,0,0-5.09,4.47-7.72,5.7-2,.94-6.18,1.3-6.84,1.33s-8.2.08-8.2.08-6.21-.55-8.72-1.88A16.89,16.89,0,0,1,353.68,196.49Z"/><path class="cls-16" d="M410,103.57a38.31,38.31,0,0,0-2.19-3.5c0-.36,0-.74,0-1a17,17,0,0,0-.17-2.14,1.6,1.6,0,0,0,.11-.6A88.14,88.14,0,0,0,406,77.52c0-.07,0-.14-.05-.2a2.07,2.07,0,0,0-1.44-2.06c-1.33-.44-2.81.5-3.71,1.41l-.19.19A16.92,16.92,0,0,0,398.8,78a11.06,11.06,0,0,0-2.37,2.46c-2.27,1.62-5.81,4.26-7.6,5.61a33.56,33.56,0,0,0-5.62-1.29c-6.72-.91-15.14-.15-22.84,1.86-2.43-1.68-8-5.53-9.57-6.42a10.34,10.34,0,0,0-1.14-.91,15.18,15.18,0,0,0-1.85-1l-.2-.19c-.94-.88-2.45-1.76-3.76-1.27a2.08,2.08,0,0,0-1.36,2.12,1.18,1.18,0,0,0,0,.2,87.72,87.72,0,0,0-1,18.81,1.91,1.91,0,0,0,.06.37c-4.51,5.78-7.64,12.73-7.77,17-.2,7.1-4.06,26.4,12.27,40.14a25.72,25.72,0,0,0,11.27,6.51c6.55,1.56,31.15,2.52,39.51-2.69s13.87-10.12,16.2-19.9S416.39,115.22,410,103.57Z"/><path class="cls-17" d="M408.24,103.25a36.94,36.94,0,0,0-2.19-3.42,8.77,8.77,0,0,0,0-1,18.2,18.2,0,0,0-.16-2.09,1.78,1.78,0,0,0,.1-.59,83.54,83.54,0,0,0-1.73-18.32,1.05,1.05,0,0,0,0-.19,2,2,0,0,0-1.44-2c-1.32-.42-2.81.49-3.71,1.38l-.19.19a17.29,17.29,0,0,0-1.81,1.08,11.05,11.05,0,0,0-2.38,2.4c-2.27,1.58-5.81,4.17-7.61,5.49a33.07,33.07,0,0,0-5.61-1.26c-6.72-.89-15.14-.14-22.85,1.83-2.42-1.64-8-5.4-9.56-6.27a9.15,9.15,0,0,0-1.14-.89,16.51,16.51,0,0,0-1.85-1l-.2-.18c-.94-.86-2.45-1.72-3.76-1.24a2,2,0,0,0-1.36,2.07c0,.06,0,.13,0,.2a83,83,0,0,0-1,18.36,2.07,2.07,0,0,0,.05.37c-4.51,5.64-7.65,12.43-7.77,16.57-.21,6.93-4.08,25.77,12.25,39.19a25.84,25.84,0,0,0,11.27,6.35c6.54,1.52,31.14,2.45,39.51-2.64s13.87-9.89,16.2-19.44S414.63,114.62,408.24,103.25Z"/><circle class="cls-18" cx="372.35" cy="111.48" r="7.6"/><circle class="cls-19" cx="370.96" cy="111.06" r="5.25"/><ellipse class="cls-19" cx="375.23" cy="117" rx="0.54" ry="0.97" transform="matrix(0.59, -0.81, 0.81, 0.59, 60.07, 351.86)"/><ellipse class="cls-19" cx="376.42" cy="116.07" rx="0.54" ry="0.97" transform="translate(61.32 352.44) rotate(-54.01)"/><circle class="cls-18" cx="345.76" cy="111.99" r="7.6"/><circle class="cls-19" cx="347.13" cy="111.52" r="5.25"/><ellipse class="cls-19" cx="343.09" cy="117.62" rx="0.97" ry="0.54" transform="translate(0.75 237.4) rotate(-38.21)"/><ellipse class="cls-19" cx="341.87" cy="116.74" rx="0.97" ry="0.54" transform="matrix(0.79, -0.62, 0.62, 0.79, 1.03, 236.46)"/><path class="cls-18" d="M375.91,123.89s2.53,2.52,1.18,4.74-3.95,3.6-7.54,4.15-15.9,1.35-19.81-.29-6.21-5.4-4.59-8,9.72-5.91,15.13-5.72S373.08,120.89,375.91,123.89Z"/><path class="cls-19" d="M364.43,116.74a4.74,4.74,0,0,1-1.34,3.37,3.61,3.61,0,0,1-4.61.09c-1-1-1.71-3.8-1.13-4.67S364.67,113.77,364.43,116.74Z"/><ellipse class="cls-20" cx="340.04" cy="122.94" rx="4.73" ry="2.37" transform="translate(-2.32 6.61) rotate(-1.11)"/><ellipse class="cls-20" cx="379.96" cy="121.37" rx="4.73" ry="2.37" transform="translate(-2.28 7.38) rotate(-1.11)"/><path class="cls-19" d="M369.89,125.73a.56.56,0,0,0-.66-.11c-.69.23-4.91.87-5.89.17a7.8,7.8,0,0,1-2.63-5.13.09.09,0,0,0,0,0v0s0,0,0-.06,0,0,0,0,0,0,0,0l0,0a.08.08,0,0,0,0,0l0,0,0,0,0,0,0,0-.05,0-.05,0H360l0,0-.05,0-.05,0-.05,0,0,0,0,0,0,0,0,0s0,0,0,0l0,0a.43.43,0,0,1,0,0s0,0,0,.06v0s0,0,0,.05a7.8,7.8,0,0,1-2.42,5.23c-1,.73-5.2.26-5.9.06a.54.54,0,0,0-.65.13.57.57,0,0,0,0,.8,12.64,12.64,0,0,0,4.31.52,5.44,5.44,0,0,0,2.89-.62,8.45,8.45,0,0,0,2.35-3.53,8.28,8.28,0,0,0,2.49,3.43,5.41,5.41,0,0,0,2.9.52,12.39,12.39,0,0,0,4.29-.7A.56.56,0,0,0,369.89,125.73Z"/><path class="cls-16" d="M325.6,133.19a1.78,1.78,0,0,1,.81,2.33,5.19,5.19,0,0,0-.58,1.66c0,.38.55.9,1.26,1.2.47.2,2.28,1.05,3.51,1.48,3.79,2,8.13,4.64,11.67,7,5.37,3.56,13.29,12.68,13.1,17.89a16.51,16.51,0,0,1-.72,2.83s-3.72-1.81-12.74-6.29c-10.94-5.44-19-9.37-24.12-14.42s-5.28-6.54-5.17-7.83,1-4.48,2.32-5.34,3.52-.24,4.64.41,3,1.58,3,1.58a2.41,2.41,0,0,1,.53-2C323.48,133.43,324.56,132.49,325.6,133.19Z"/><path class="cls-17" d="M325.61,134.06a1.77,1.77,0,0,1,.81,2.33,5.37,5.37,0,0,0-.57,1.66c0,.38.55.9,1.26,1.2.46.2,2.28,1.05,3.51,1.48,3.79,2,8.12,4.65,11.66,7,5.37,3.57,13.3,12.68,13.1,17.89a16.74,16.74,0,0,1-.71,2.83s-3.72-1.81-12.74-6.29c-10.95-5.43-19-9.37-24.12-14.42s-5.29-6.53-5.17-7.83,1-4.48,2.32-5.33,3.52-.24,4.64.4,3,1.58,3,1.58a2.39,2.39,0,0,1,.53-2C323.5,134.3,324.57,133.36,325.61,134.06Z"/><path class="cls-21" d="M349.19,185.21s43.88,3.51,45.07,2.61-1.74,6.14-1.74,6.14l2,3.34-12.5,7.33-1-1.95s-16.63,2.72-23.92-2.37l-1.39,1.56-10-10.27,3.85-4.22Z"/><path class="cls-22" d="M349,152.94s-6.37,8.85-7.24,8.86,7.06,4.23,7.06,4.23a114.67,114.67,0,0,0-1.08,11.79,47.44,47.44,0,0,0,1,7.83s42,6.16,44.56,4.37,2.2-21.41.84-24.22c0,0,8.16-6.48,7.27-7.33s-2.88-2.34-2.88-2.34-4.47,6-14.26,6.6-29.67-1.17-29.67-1.17Z"/><path class="cls-15" d="M383.51,201.38v0c0-1-2.92-4.5-4.9-6.79a.82.82,0,0,0,.4-.35c.41-.85,1.48-2.34,2.12-3.63,6.53.65,11.59,1,12.07.74,1.43-.9,1.93-5.27,1.93-5.27s-44.48-.59-46.58-3.75l.67,4.64s8.4,1,17.86,2.12a8.21,8.21,0,0,0-.24,1.92c-1.08.22-11.58,2.4-13.63,3.44a72.35,72.35,0,0,0-4.76-5.87l-.71.89s2.93,3,5.42,6a3.4,3.4,0,0,0,.38.49,16.5,16.5,0,0,1,2.92,4.78l.86-.89s-1.07-1.43-2.47-3.27a.37.37,0,0,0,.12-.17c.38-1.05,8.31-3.14,12.23-4.11a1.35,1.35,0,0,0,.44.38,34.33,34.33,0,0,0,8.45,2.09l5.75,7.57-.92.54s-.56.74.6.79,12.22-6.85,12.27-7.87l-.31-.34Z"/><path class="cls-15" d="M340.71,197.58s-4.67-.93-6.26-.39a3,3,0,0,0-2.41,3.17c0,1.75,8.08,12,12.42,11.1s5.17-3.59,5.17-3.59Z"/><path class="cls-15" d="M390.23,216.46a9.83,9.83,0,0,0-1.24,6c.23,3.87,1.22,4,3.34,3.86s13.25-5.32,12.31-11.52a8.21,8.21,0,0,0-1.88-4.27Z"/><path class="cls-23" d="M203,135a1.81,1.81,0,0,1,.06,2.6,5.81,5.81,0,0,0-1.18,1.52c-.15.38.28,1.07.93,1.59.42.33,2,1.72,3.19,2.52,3.31,3.14,7,7.07,9.9,10.49,4.44,5.18,9.69,16.75,7.7,22a18.13,18.13,0,0,1-1.72,2.68s-3.3-2.92-11.28-10.09c-9.68-8.69-16.83-15-20.5-21.65s-3.34-8.17-2.77-9.46,2.55-4.27,4.27-4.75,3.78.77,4.75,1.75,2,2.15,2,2.15a9.06,9.06,0,0,1,1.82-1.53C200.67,134.62,202.12,134,203,135Z"/><path class="cls-24" d="M273.69,205.36a3.16,3.16,0,0,1-1-.9c-.61-.75-11.82-12.45-11.82-12.45a2.19,2.19,0,0,0-2.27-.25c-2.77,1.44-3.14,1.88-4.23,3.9-1.78,3.29-2.44,7.32-.14,10.52,0,0,1.26,1.07,1.28,1.08.28.29,10.74,10.38,11.15,10.68a5.56,5.56,0,0,0,5.19.22c2.64-1.18,9.24-7.68,9.24-7.68s1.65-2.51.65-3.68a4.06,4.06,0,0,0-2.95-1.75A27,27,0,0,0,273.69,205.36Z"/><path class="cls-23" d="M225.87,197.3c4.95-3.07,8.69.4,10.35,1.52,3.54,2.39.18,7.5-1.39,10.47a1.57,1.57,0,0,0-.15.19c-.36.53-8.9,14.79-9.94,16s-.4,1.12-.05,1.77a10.49,10.49,0,0,1,.64,7c-.82,3.61-4.64,1.5-5,1.42s-8.2-5-9-6.08-2.64-3.66-1.47-6.11,8.34-15,8.34-15S223.47,198.78,225.87,197.3Z"/><path class="cls-24" d="M260.3,204.79c3.4-4.91,3.87-9.34,4.59-23.17a9.33,9.33,0,0,0-.41-4.27c-.42-1.6-2.51-4.74-3.08-5.86-1.61-3.22-2.33-4.9-2.33-4.9l-35.79.7-1.72,3c-1.29,2.26-1.6,2.9-2.23,4a8.9,8.9,0,0,0-1.26,2.66c-.58,4.29-.09,8.26-.11,11.52-.08,12.84,4.29,17.33,4.62,17.68,0,0,5.32,4.32,8,5.46,2.08.87,6.29,1.07,7,1.07s8.29-.24,8.29-.24,6.25-.8,8.74-2.24A17,17,0,0,0,260.3,204.79Z"/><path class="cls-25" d="M261.19,109.43s19.82,47.83,25.53,39-7-35.19-11.83-39.29S250.49,86.46,261.19,109.43Z"/><path class="cls-23" d="M212.21,162.85a25.36,25.36,0,0,0,11.07,6.24c6.43,1.49,30.59,2.4,38.81-2.6s13.62-9.71,15.91-19.1,3.37-23.12-2.91-34.29a36.15,36.15,0,0,0-26.29-18c-9.12-1.21-21.44.65-30.69,4.51s-17.73,18-17.94,24.79S196.17,149.67,212.21,162.85Z"/><path class="cls-24" d="M212.19,162a25.36,25.36,0,0,0,11.07,6.24c6.43,1.49,30.6,2.4,38.81-2.6s13.63-9.72,15.92-19.1,3.37-23.12-2.91-34.29a36.19,36.19,0,0,0-26.3-18c-9.12-1.21-21.44.64-30.69,4.51s-17.73,18-17.93,24.79S196.15,148.8,212.19,162Z"/><path class="cls-25" d="M215.48,110.32s-17.95,48.56-24,40,5.64-35.43,10.3-39.72S225.28,87,215.48,110.32Z"/><path class="cls-18" d="M235,132.29s-2.45,2.65-1,4.84,4.13,3.48,7.79,3.89,16.12.75,20-1.06,6.06-5.71,4.33-8.28-10.06-5.58-15.52-5.19S237.73,129.15,235,132.29Z"/><path class="cls-19" d="M246.31,124.61A4.82,4.82,0,0,0,247.8,128a3.67,3.67,0,0,0,4.66-.09c1-1.08,1.58-3.91,1-4.77S246,121.62,246.31,124.61Z"/><circle class="cls-18" cx="236.19" cy="120.23" r="8.28"/><circle class="cls-18" cx="261.4" cy="119.41" r="8.28"/><circle class="cls-19" cx="238.53" cy="120.11" r="4.42"/><circle class="cls-19" cx="259.36" cy="120.03" r="4.42"/><path class="cls-19" d="M262.77,105.59s-10.75,4.81-11,7.44,21.6-4,20.9-6S262.77,105.59,262.77,105.59Z"/><path class="cls-19" d="M233.56,106.16s10.92,4.38,11.3,7S223.12,110,223.74,108,233.56,106.16,233.56,106.16Z"/><path class="cls-23" d="M286.2,139.72a1.79,1.79,0,0,0-.72,2.39,5.23,5.23,0,0,1,.64,1.65c0,.38-.52.93-1.23,1.26-.46.22-2.26,1.15-3.48,1.63-3.76,2.18-8,5-11.52,7.53-5.28,3.82-12.94,13.34-12.54,18.59a17.28,17.28,0,0,0,.84,2.84s3.69-2,12.63-6.85c10.84-5.93,18.84-10.22,23.81-15.53s5.08-6.8,4.92-8.11-1.16-4.48-2.56-5.3-3.56-.1-4.67.59-2.94,1.71-2.94,1.71a2.41,2.41,0,0,0-.61-2C288.35,139.88,287.23,139,286.2,139.72Z"/><path class="cls-24" d="M286.22,140.59a1.8,1.8,0,0,0-.73,2.39,5.16,5.16,0,0,1,.65,1.65c0,.38-.52.93-1.23,1.26-.46.22-2.26,1.15-3.49,1.64-3.75,2.17-8,5-11.51,7.52-5.29,3.82-12.94,13.34-12.54,18.6a16.62,16.62,0,0,0,.84,2.84s3.69-2,12.62-6.86c10.85-5.93,18.85-10.22,23.81-15.52s5.09-6.81,4.92-8.12-1.15-4.48-2.55-5.3-3.57-.1-4.68.59-2.94,1.71-2.94,1.71a2.38,2.38,0,0,0-.61-2C288.37,140.75,287.24,139.84,286.22,140.59Z"/><path class="cls-26" d="M264.59,193s-44.4,5.41-45.64,4.52,1.58,6.34,1.58,6.34l-2.59,3.69,14.07,7,1-2.07s17,2.18,24.18-3.42l1.47,1.56,9.74-11.11-4.06-4.24Z"/><path class="cls-27" d="M262.81,160.72s7.59,8.57,8.46,8.55-7.77,4.51-7.77,4.51,2.77,7.8,1.53,11.75a25.21,25.21,0,0,0-.72,7.86s-41.71,7.78-44.35,6.09-3-21.31-1.78-24.16c0,0-8.4-6.16-7.55-7l3.86-4a25.7,25.7,0,0,0,15.81,5.8c9.81.24,28.71-3.17,28.71-3.17Z"/><path class="cls-15" d="M230.2,210.45v0c0-1,2.73-4.6,4.63-7a.81.81,0,0,1-.42-.34c-.44-.83-1.57-2.27-2.25-3.54-6.5.9-11.54,1.49-12,1.21-1.47-.85-2.14-5.2-2.14-5.2s44.43-2.31,46.4-5.54l-.49,4.66s-8.35,1.36-17.76,2.81a8.2,8.2,0,0,1,.31,1.9c1.09.18,11.67,2,13.76,2.92a73.9,73.9,0,0,1,4.52-6.05l.74.86s-2.81,3.06-5.17,6.24a2.94,2.94,0,0,1-.37.5,16.57,16.57,0,0,0-2.73,4.9l-.89-.86,2.33-3.37a.35.35,0,0,1-.12-.16c-.42-1-8.42-2.81-12.38-3.63a1.15,1.15,0,0,1-.43.39,34.18,34.18,0,0,1-8.35,2.42l-5.46,7.79.94.51s.59.71-.57.81-12.47-6.38-12.57-7.39L220,205Z"/><path class="cls-15" d="M273.7,205s4.64-.23,6.25.24a3,3,0,0,1,2.53,3.08c0,1.74-7.61,12.35-12,11.57s-5.3-3.39-5.3-3.39Z"/><path class="cls-15" d="M224.42,226.86a6.6,6.6,0,0,1,1.86,6.07c-.61,3.82-1.79,3.63-3.92,3.62s-13.5-5.79-12.81-12a6.69,6.69,0,0,1,1.68-3.53Z"/></g></svg>