<svg id="圖層_1" data-name="圖層 1" xmlns="http://www.w3.org/2000/svg" viewBox="0 0 1970 971"><defs><style>.cls-1{fill:#4d9cde;}.cls-2{fill:#c3e5ff;}.cls-3{opacity:0.6;}.cls-4{fill:#b6dbf8;}.cls-5{fill:#c995b7;}.cls-6{fill:#96bde9;}.cls-7{fill:#b8bbd6;}.cls-8{fill:#a1d6ff;}.cls-9{fill:#9ea5d8;}.cls-10{fill:#8288b8;}.cls-11{fill:#b1b5dc;}.cls-12{fill:#c9c6e5;}.cls-13{fill:#7cb9ea;}.cls-14{fill:#b2dafb;}.cls-15{fill:#dfcf7d;}.cls-16{fill:#3d9ae6;}.cls-17{fill:#d5ecfa;}.cls-18{fill:#a0dcff;}.cls-19{fill:#51a5d6;}.cls-20{fill:#97ade6;}.cls-21{fill:#5996c6;}.cls-22{fill:#549bdd;}.cls-23{fill:#aad7fa;}.cls-24{fill:#7eb3eb;}.cls-25{fill:#d6f3ff;}.cls-26{fill:#917d90;}.cls-27{fill:#5086c5;}.cls-28{fill:#71b5f4;}.cls-29{fill:#1275b5;}.cls-30{fill:#b6d7fa;}.cls-31{fill:#7cbaeb;}.cls-32{fill:#fff;}.cls-33{fill:#0066a7;}.cls-34{fill:#98d4fa;}.cls-35{fill:#a36464;}.cls-36{fill:#b2a0b2;}.cls-37{fill:#558bcb;}.cls-38{fill:#fffbee;}.cls-39{fill:#83abdb;}.cls-40{fill:#cbab55;}.cls-41{fill:#aedafe;}.cls-42{fill:#d3f1fe;}.cls-43{fill:#d5f2fe;}.cls-44{fill:#f6a39e;}.cls-45{fill:#b2a3b2;opacity:0.7;}.cls-46{fill:#637965;}.cls-47{fill:#83aaa3;}.cls-48{fill:#5b7566;}</style></defs><title>act_v1</title><circle class="cls-1" cx="1957.63" cy="576.01" r="12.64"/><circle class="cls-1" cx="1659.12" cy="559.15" r="12.64"/><path class="cls-1" d="M1941.46,679.74a12.64,12.64,0,1,0,9.42,15.2A12.64,12.64,0,0,0,1941.46,679.74Z"/><path class="cls-1" d="M1959.19,634.18a12.65,12.65,0,0,0-13.32,5.16,142.79,142.79,0,0,0-17.81-102.5,12.65,12.65,0,1,0-8.36-12.23,143,143,0,0,0-27.85-27.7h.32a12.65,12.65,0,1,0-11.63-7.7,141.69,141.69,0,0,0-37.89-16.15,12.63,12.63,0,1,0-7.61-1.78,142.64,142.64,0,0,0-28.68-2.89c-4.82,0-9.6.24-14.3.71a12.64,12.64,0,1,0-7,.88,141.27,141.27,0,0,0-41.46,13,12.65,12.65,0,1,0-10.1,5l.8,0a142.81,142.81,0,0,0-33.3,27,12.63,12.63,0,1,0-5,5.8,141.69,141.69,0,0,0-31.88,83.81,12.65,12.65,0,1,0-.14,6.19,142.24,142.24,0,0,0,5.89,40.57,13.59,13.59,0,0,0-2.23-.75,12.64,12.64,0,1,0,8.51,17.79,142.14,142.14,0,0,0,18.51,30.64,12.7,12.7,0,1,0,12.49,13.82,142.88,142.88,0,0,0,28.15,21.28,12.65,12.65,0,1,0,14.74,7.4,141.25,141.25,0,0,0,33.64,9.77,12.64,12.64,0,1,0,16.19,1.66c2.15.09,4.31.15,6.48.15a143.11,143.11,0,0,0,29.91-3.16,12.64,12.64,0,1,0,16.53-4.59c2.48-.86,4.92-1.78,7.34-2.77l.22.52,2.28-1-.21-.48A142.6,142.6,0,0,0,1886,728.85c-.14.39-.25.79-.35,1.19a12.64,12.64,0,1,0,15.2-9.42,12.27,12.27,0,0,0-2.14-.31l1.5-1.46-.51-.52a142.42,142.42,0,0,0,44.12-70.17,12.64,12.64,0,1,0,15.42-14ZM1675,610.77a131.36,131.36,0,1,1,258.57,32.84l-6.16-.89a125.91,125.91,0,0,0,4.1-32c0-2.92-.11-5.84-.31-8.73l3-.66-.53-2.43-2.7.6a125.16,125.16,0,0,0-249.81,11.22,126,126,0,0,0,4.87,34.76l-3.35.63.46,2.43,3.6-.68a124.48,124.48,0,0,0,31.08,51.36,126.22,126.22,0,0,0,12.93,11.29l-4.12,4.63A131.11,131.11,0,0,1,1675,610.77Zm255,0a123.45,123.45,0,0,1-4.13,31.73l-101.17-14.61a25.89,25.89,0,0,0,2.79-3.12l102.22-22.41C1929.93,605.14,1930,608,1930,610.77Zm-100.56,11a26.5,26.5,0,0,0,3-8.5l83.1-51.36-1.31-2.11-81.43,50.33c0-.47,0-.95,0-1.43a26.36,26.36,0,0,0-2.67-11.6l57.89-70.06-1.91-1.58L1829,594.8a26.71,26.71,0,0,0-7-7.53l28.85-83.89-2.35-.8-28.64,83.29a26.36,26.36,0,0,0-11.71-3.6V491h-2.47v91.26a26.33,26.33,0,0,0-10.46,2.46l-28.12-83.19-2.35.79L1793,585.86a26.58,26.58,0,0,0-8.6,8.08l-56.09-68.63-1.92,1.57L1783,596.2a26.45,26.45,0,0,0-3.12,11.37l-78.35-47.81-1.29,2.11,79.67,48.62a26.55,26.55,0,0,0,2,8.52l-97-17-.43,2.44,98.82,17.33a27.37,27.37,0,0,0,3.49,4.83l-99.18,18.64a123.67,123.67,0,1,1,242-45.37Zm-23.08,13.46c.88,0,1.76,0,2.62-.13l-3.07,99.29a123.07,123.07,0,0,1-36-5.45l36.2-93.72Zm-17.45-6.56a26.25,26.25,0,0,0,4.88,3.39L1707,681.49l1.23,2.15,88.39-50.25c.74.29,1.5.56,2.28.79l-67,75.21a124.11,124.11,0,0,1-43.53-61.76Zm12.66,6.12c.66.12,1.32.22,2,.29l-36,93.1a123.46,123.46,0,0,1-33.78-17.34Zm-34.54,94.83-2.22,5.76a130.86,130.86,0,0,1-36.17-18.74l4.13-4.63A124,124,0,0,0,1767.06,729.66Zm2.37.75a125.19,125.19,0,0,0,36.46,5.51l-.19,6.2a131.61,131.61,0,0,1-38.5-5.93Zm42.07-95.64q.76-.15,1.5-.33l39.65,91a122.61,122.61,0,0,1-44.23,9Zm4.94,1.36,68.21,70.3a123.46,123.46,0,0,1-29.71,18.06Zm.5-3c.58-.25,1.14-.52,1.69-.81l91.16,46.23a124.65,124.65,0,0,1-23.23,26.33Zm4.22-2.31c.36-.23.71-.48,1-.73l103,14.87a123,123,0,0,1-14.11,31.49Zm105.6,14.36,6.17.89a130.73,130.73,0,0,1-14.87,33.89l-5.52-2.8A123.64,123.64,0,0,0,1926.76,645.13Zm-118.58,97,.2-6.2a124.86,124.86,0,0,0,44.89-9l2.46,5.65A131,131,0,0,1,1808.18,742.1Zm47.38-16.18a124.52,124.52,0,0,0,30.18-18.37l4.32,4.46a131.11,131.11,0,0,1-32,19.56Zm42.54-5.63h-.78l.44-.36ZM1892,710.4l-4.32-4.45q3.72-3.18,7.22-6.68a126.38,126.38,0,0,0,16.33-20.06l5.54,2.81A132.16,132.16,0,0,1,1892,710.4Z"/><path class="cls-1" d="M768,660.91v99.78H979.18v-.3h.36v.3h115.91v-.08l46.65-.26v.34h75.79v-.38h10.68v.38H1760v-.38h.33l-.37-8.83-.6-127.89h-18.14s.65-80.74,0-80.74h-29.8v71.6h-20.08L1692,571h-25.26v9.14h-7.13l-.65,35-15.54.76-1.3,41.4-21.7-18.17L1614,640l1.94-125.67L1590,486.87l-4.54,86.83-20.4.38-.63,30.09H1549.2V675l-7.77-1.52V651.39H1533v-16l-16.77,7.31-.07-32.44L1473.41,608l-.64,87.59h-13v-3.8h-3.89v-8.38h-1.29v8.38h-1.94V684.9h-1.3v6.86h-6.8V654.82H1421v-17.9l-15.55-15.24V675l-7.45-.1V574.46l-25.59-.76.65-56.36-26.88-8-1.49,72.53-5.31-4.37v-16l-43.08-1.91-1.6,166h-9.08V490.3h-2.92v-5.72h1.3v-.76h-33.69v.76h1.3v5.72H1248v28.94h-19.44V636.16h-29.47v-61.7l-25.59-.76.65-56.36-26.88-8-2.22,107.77h-53.16l-9.39,17.52v24.76h-18.14v58.09l-16.84-39.05-30.11-1.31,1.28-161.69L994.08,488l-3.57,86.45H969.14v43.8h-10v-35.8h-5.83v-9.9H928l-1,43H908.25V542.47l-30.12.38-1.3,83h-21.6l.23-34.27H817.57v84.54h-7.45l.64-34.27-23.32.76Zm487.44-176.33v5.72h-2.6v-5.72Zm6.47,0v5.72h-5.18v-5.72Zm5.83,0v5.72h-4.53v-5.72Zm7.13,0v5.72h-5.83v-5.72Zm6.48,5.72h-5.19v-5.72h5.19Z"/><path class="cls-1" d="M677.91,731v42.18H830V773h.25v.13h83.47v0l33.59-.11v.14h54.57V773h7.7v.16h382.71V773h.24l-.27-3.73-.43-54.07h-13.06s.46-34.13,0-34.13h-21.46v30.26h-14.46l.47-18.35H1325.1v3.86H1320l-.46,14.82-11.2.32-.93,17.5-15.63-7.68-4.66.32,1.4-53.13-18.66-11.59-3.26,36.71-14.7.16-.45,12.72h-11v29.94l-5.6-.64v-9.34h-6.07v-6.76l-12.07,3.09,0-13.72-30.79-1-.46,37h-9.33V744h-2.8v-3.54h-.93V744h-1.4v-2.9H1170V744h-4.89V728.38h-17v-7.57l-11.19-6.44v22.54l-5.37,0V694.41l-18.42-.32.46-23.83-19.35-3.38-1.08,30.66-3.82-1.85v-6.76l-31-.8-1.16,70.2h-6.54v-99.5h-2.1v-2.42h.94v-.32h-24.26v.32h.94v2.42h-2.57v12.23h-14v49.43H988.32V694.41l-18.42-.32.47-23.83L951,666.88l-1.6,45.56H911.13l-6.77,7.41v10.46H891.3v24.57l-12.12-16.52-21.68-.55.92-68.36-17.73-11.59-2.56,36.55H822.74v18.51h-7.23V697.79h-4.2V693.6H793.12l-.7,18.2H778.89V680.89l-21.69.16-.93,35.09H740.71l.17-14.49H713.59V737.4h-5.37l.47-14.49-16.79.32Zm351-74.55v2.42H1027v-2.42Zm4.67,0v2.42h-3.73v-2.42Zm4.2,0v2.42h-3.27v-2.42Zm5.13,0v2.42h-4.2v-2.42Zm4.66,2.42h-3.73v-2.42h3.73Z"/><path class="cls-1" d="M1256,731.81V774h152.06v-.13h.26V774h83.47v0l33.59-.11V774H1580v-.16h7.69V774h382.72v-.16h.23l-.26-3.73-.44-54.07h-13.06s.47-34.13,0-34.13h-21.45v30.26h-14.46l.46-18.35h-18.19v3.86h-5.13l-.46,14.82-11.2.32-.93,17.5-15.63-7.68-4.66.32,1.4-53.13-18.66-11.59-3.27,36.71-14.69.16-.45,12.72h-11v29.94l-5.59-.64v-9.34h-6.07V721l-12.07,3.09-.06-13.72-30.78-1-.47,37h-9.33v-1.61h-2.79v-3.54h-.94v3.54H1749V742h-.93v2.9h-4.9V729.23h-17v-7.57l-11.2-6.44v22.54l-5.36,0V695.26l-18.43-.32.47-23.83-19.36-3.38-1.07,30.66-3.82-1.85v-6.76l-31-.8-1.16,70.2h-6.54v-99.5h-2.1v-2.42h.93v-.32h-24.25v.32h.93v2.42h-2.56v12.23h-14v49.43h-21.22V695.26l-18.42-.32.46-23.83-19.35-3.38-1.6,45.56h-38.29l-6.76,7.41v10.46H1469.4v24.56l-12.13-16.51-21.68-.55.93-68.36-17.73-11.59-2.56,36.55h-15.4v18.51h-7.23V698.64h-4.19v-4.19h-18.2l-.7,18.2H1357V681.73l-21.69.17-.93,35.09h-15.56l.16-14.49h-27.28v35.75h-5.37l.47-14.49-16.79.32Zm351-74.55v2.42h-1.86v-2.42Zm4.67,0v2.42h-3.74v-2.42Zm4.19,0v2.42h-3.26v-2.42Zm5.13,0v2.42h-4.19v-2.42Zm4.67,2.42h-3.73v-2.42h3.73Z"/><path class="cls-2" d="M1583.08,704.83l.6,26.87h-6.87V665.42h-34.93l.21,26.87h-19.91L1521,627.21l-27.77-.3v57.32h-17.31l-.9-33.74h-23.29v7.77h-5.37v28.06h-9.26V652h-19.7l-3.28-67.77-22.69,21.49,1.18,126.75-27.75,1-15.53,30.62V718.56H1332.6v-19.4L1324,685.42h-49l-2-84.48-24.78,6.27.59,44.18-23.58.6v48.36H1198V608.7h-17.91V586h-3.28v-4.48H1178v-.6h-31v.6h1.2V586h-2.69v184.5h-9L1135,640.34l-39.71,1.49v12.54l-4,2.8-.81-36.72L1064.79,630l.62,21.39-23.59.6v50.76l-18.21.3V644l-14.33,16.88V680.7H987.49v40.92h-6.27V714H980v7.6h-1.8v-9.28H977v9.28h-3.58v4.21H961.52l-.6-97-39.41,2.53L921.21,798H1198v-.29h9.85V798h69.86v-.26l43,.21V798h93.12v-.14l14.06-.09V798h194.65V719.76l-17.91-14.33Zm-407.51-123.3V586h-2.39v-4.48Zm-3.58,0V586h-4.78v-4.48Zm-6,0V586h-4.18v-4.48Zm-5.38,0V586h-5.37v-4.48Zm-11.34,0h4.78V586h-4.78Z"/><path class="cls-2" d="M903.6,699.75v12.54h-7.76v17.32l-7.17,1.19V675.27h-14L874,651.69l-18.81-.3-4.17-68.07-23.89,21.5L829,703.34l-6-.6L803,717l-1.19-32.45-14.33-.6-.6-27.46H780.3V649.3H757l.6,34H739.1V627.21H711.64c-.6,0,0,63.29,0,63.29H694.92l-.56,100.26-.34,6.92h.3V798H920l-.3-92.25Z"/><path class="cls-2" d="M1837.44,705.72l-16.12-6v12.54h-7.76v17.32l-7.17,1.19V675.27h-3.3l-.58-23.58-18.81-.3-4.18-68.07-23.88,21.5,1.79,98.52-6-.6L1739,711.6l-1-27.07-14.33-.6-.6-27.46h-6.57V649.3h-23.29l.6,34h-18.51V627.21h-27.46c-.6,0,0,63.29,0,63.29h-16.72l-.56,100.26-.34,6.92h.3V798h207.19Z"/><g class="cls-3"><path class="cls-4" d="M694.32,798H806L801.8,684.53l-14.33-.6-.6-27.46H780.3V649.3H757l.6,34H739.1V627.21H711.64c-.6,0,0,63.29,0,63.29H694.92Z"/><polygon class="cls-1" points="760.6 683.93 779.7 683.93 779.11 658.26 760 658.26 760.6 683.93"/><polygon class="cls-1" points="760.6 656.47 778.51 657.06 778.51 652.88 760 651.09 760.6 656.47"/><polygon class="cls-5" points="746.84 700.88 746.28 710.8 762.27 710.8 746.84 700.88"/><path class="cls-5" d="M738.21,689v26.87l37.61-1.2Zm8.09,10.81,18,11.58H745.65Z"/><polygon class="cls-1" points="742.88 797.97 775.52 797.97 775.23 770.21 742.39 757.07 742.88 797.97"/><polygon class="cls-2" points="714.32 728.41 714.32 797.08 737.71 797.97 737.61 749.91 726.86 729.01 714.32 728.41"/><polygon class="cls-6" points="694.72 783.45 710.14 783.35 710.14 754.69 735.22 754.09 734.72 797.97 694.02 797.68 694.72 783.45"/><polygon class="cls-4" points="1475.9 684.23 1493.22 684.23 1493.22 626.91 1520.98 627.21 1522.18 692.29 1555.02 692.29 1562.78 731.7 1583.68 731.7 1583.08 704.83 1604.58 705.43 1622.49 719.76 1622.49 797.97 1427.84 797.97 1427.24 686.32 1446.35 686.32 1446.35 658.26 1451.72 658.26 1451.72 650.49 1475.01 650.49 1475.9 684.23"/><polygon class="cls-1" points="1622.49 733.79 1619.8 733.79 1619.8 727.82 1613.83 727.82 1613.83 721.82 1606.94 721.25 1606.99 720.65 1614.43 721.27 1614.43 727.22 1620.4 727.22 1620.4 733.19 1622.49 733.19 1622.49 733.79"/><polygon class="cls-1" points="1587.26 720.35 1599.2 707.22 1587.86 707.22 1587.26 720.35"/><polygon class="cls-1" points="1590.25 745.43 1599.2 745.43 1598.61 715.58 1590.25 723.94 1590.25 745.43"/><polygon class="cls-5" points="1457.1 715.58 1494.12 717.37 1494.12 690.5 1457.1 715.58"/><path class="cls-4" d="M1469.12,712.93l18.76-11.64-.65,11Zm18.1-10.53-15.88,9.85,15.33-.54Z"/><rect class="cls-1" x="1454.71" y="653.48" width="17.91" height="4.78"/><rect class="cls-1" x="1454.11" y="660.05" width="18.51" height="26.27"/><rect class="cls-1" x="1585.47" y="758.57" width="5.97" height="9.55"/><rect class="cls-1" x="1590.25" y="769.91" width="7.17" height="9.55"/><rect class="cls-1" x="1602.79" y="706.62" width="1.19" height="45.98"/><rect class="cls-1" x="1619.5" y="745.43" width="1.19" height="51.35"/><rect class="cls-1" x="1615.32" y="743.04" width="1.19" height="51.35"/><rect class="cls-1" x="1611.14" y="741.25" width="1.19" height="51.35"/><polygon class="cls-7" points="1437.1 797.68 1437.1 651.99 1417.39 651.99 1414.11 584.22 1391.42 605.71 1393.21 797.97 1437.1 797.68"/><polygon class="cls-8" points="1394.4 617.06 1412.91 603.92 1412.91 590.19 1393.81 608.1 1394.4 617.06"/><polygon class="cls-8" points="1393.81 621.83 1395.6 671.39 1415.3 652.29 1412.91 609.29 1393.81 621.83"/><path class="cls-9" d="M1401.84,719.14l.64-15.81,22.13.63Zm1.21-15.2-.56,14,20.22-13.49Z"/><polygon class="cls-9" points="1402.16 723.94 1402.16 732.89 1425.45 731.1 1424.85 707.22 1402.16 723.94"/><polygon class="cls-7" points="1397.39 621.83 1398.58 621.83 1400.37 660.64 1399.18 661.84 1397.39 621.83"/><polygon class="cls-7" points="1401.57 619.45 1402.76 619.45 1403.96 656.47 1402.76 657.06 1401.57 619.45"/><path class="cls-7" d="M1407.54,617.65s.6-.59.6,0,.59,33.44.59,33.44h-1.19Z"/><path class="cls-7" d="M1404.1,727.86l15.61-10.41,1.3,9.76Zm15.15-9.38-13,8.7,14.14-.54Z"/><rect class="cls-10" x="1416.5" y="660.64" width="6.57" height="19.7"/><rect class="cls-10" x="1424.85" y="658.85" width="7.17" height="20.9"/><rect class="cls-2" x="1320.66" y="718.56" width="28.66" height="79.41"/><polygon class="cls-11" points="1332.61 797.97 1332.61 699.16 1323.95 685.42 1273.19 685.42 1270.21 692.59 1270.21 797.68 1332.61 797.97"/><rect class="cls-12" x="1278.57" y="694.38" width="7.17" height="9.55"/><rect class="cls-12" x="1286.03" y="706.02" width="6.57" height="8.96"/><polygon class="cls-13" points="1135.27 797.38 1134.67 770.51 1145.42 770.51 1145.42 586.01 1180.05 586.01 1180.05 608.7 1197.96 608.7 1197.96 797.97 1135.27 797.97 1135.27 797.38"/><rect class="cls-14" x="1148.4" y="590.79" width="29.26" height="15.52"/><rect class="cls-14" x="1148.4" y="614.07" width="47.17" height="1.19"/><rect class="cls-14" x="1148.4" y="617.65" width="47.17" height="1.19"/><rect class="cls-14" x="1147.81" y="648.11" width="47.17" height="1.19"/><rect class="cls-14" x="1147.81" y="676.77" width="47.17" height="1.19"/><rect class="cls-14" x="1148.4" y="704.83" width="47.17" height="1.19"/><rect class="cls-14" x="1148.4" y="754.98" width="47.17" height="1.19"/><rect class="cls-14" x="1148.4" y="759.16" width="47.17" height="1.19"/><rect class="cls-14" x="1148.4" y="770.51" width="47.17" height="1.19"/><polygon class="cls-14" points="1146.91 580.93 1146.91 581.53 1148.11 581.53 1148.11 586.31 1149.3 586.31 1149.3 581.53 1154.08 581.53 1154.08 586.31 1155.27 586.31 1155.27 581.53 1160.64 581.53 1160.64 586.31 1161.84 586.31 1161.84 581.53 1166.02 581.53 1166.02 586.31 1167.21 586.31 1167.21 581.53 1171.99 581.53 1171.99 586.31 1173.18 586.31 1173.18 581.53 1175.57 581.53 1175.57 586.31 1176.77 586.31 1176.77 581.53 1177.96 581.53 1177.96 580.93 1146.91 580.93"/><rect class="cls-15" x="1154.37" y="682.14" width="10.15" height="11.94"/><rect class="cls-15" x="1174.68" y="682.14" width="10.15" height="11.94"/><rect class="cls-15" x="1153.78" y="624.82" width="10.15" height="11.94"/><rect class="cls-15" x="1174.08" y="624.82" width="10.15" height="11.94"/><rect class="cls-14" x="1151.39" y="711.99" width="41.8" height="37.62"/><polygon class="cls-2" points="1272.9 600.94 1277.67 797.97 1225.13 797.97 1225.13 651.99 1248.71 651.39 1248.12 607.21 1272.9 600.94"/><rect class="cls-16" x="1251.7" y="607.8" width="6.57" height="4.18"/><rect class="cls-16" x="1259.46" y="607.8" width="6.57" height="4.18"/><rect class="cls-16" x="1251.7" y="613.18" width="6.57" height="5.37"/><rect class="cls-16" x="1259.46" y="613.18" width="6.57" height="5.37"/><rect class="cls-17" x="1248.71" y="668.71" width="7.17" height="9.55"/><rect class="cls-17" x="1242.15" y="656.76" width="7.17" height="9.55"/><polygon class="cls-2" points="1090.46 620.45 1094.37 797.97 1041.82 797.97 1041.82 651.99 1065.41 651.39 1064.79 630 1090.46 620.45"/><rect class="cls-16" x="1070.76" y="630.6" width="6.57" height="4.18"/><rect class="cls-16" x="1078.52" y="630.6" width="6.57" height="4.18"/><rect class="cls-16" x="1070.76" y="635.97" width="6.57" height="5.37"/><rect class="cls-16" x="1078.52" y="635.97" width="6.57" height="5.37"/><rect class="cls-17" x="1065.41" y="668.71" width="7.17" height="9.55"/><rect class="cls-17" x="1058.84" y="656.76" width="7.17" height="9.55"/><rect class="cls-18" x="1179.75" y="700.35" width="50.16" height="97.32"/><rect class="cls-19" x="1184.83" y="706.62" width="44.78" height="17.91"/><rect class="cls-20" x="1191.99" y="711.4" width="37.62" height="7.17"/><rect class="cls-21" x="1181.24" y="729.91" width="47.17" height="1.79"/><path class="cls-21" d="M1229,759.16v-1.79h-3V735.28h2.39v-1.79h-47.17v1.79h2.39V798h1.2v-3h43.58V793.2h-43.58V789H1229v-1.79h-44.18V764.54H1195v22.09h1.19V764.54h8.36v22.09h1.19V764.54h9v22.09h1.19V764.54h9v22.09H1226V764.54h3v-1.79h-44.18v-3.59Zm-4.18-23.88v22.09h-9V735.28Zm-10.15,0v22.09h-9V735.28Zm-10.15,0v22.09h-8.36V735.28Zm-9.55,0v22.09h-10.15V735.28Z"/><rect class="cls-22" x="1207.81" y="732.89" width="54.93" height="65.08"/><rect class="cls-23" x="1208.71" y="741.55" width="51.95" height="1.19"/><rect class="cls-23" x="1214.08" y="745.73" width="1.19" height="13.14"/><rect class="cls-23" x="1222.44" y="745.73" width="1.19" height="13.14"/><rect class="cls-23" x="1229.61" y="745.73" width="1.19" height="13.14"/><rect class="cls-23" x="1237.37" y="745.73" width="1.19" height="13.14"/><rect class="cls-23" x="1244.53" y="745.73" width="1.19" height="13.14"/><rect class="cls-23" x="1251.7" y="745.73" width="1.19" height="13.14"/><rect class="cls-23" x="1208.71" y="761.85" width="51.95" height="1.19"/><rect class="cls-23" x="1214.08" y="766.03" width="1.19" height="13.14"/><rect class="cls-23" x="1222.44" y="766.03" width="1.19" height="13.14"/><rect class="cls-23" x="1229.61" y="766.03" width="1.19" height="13.14"/><rect class="cls-23" x="1237.37" y="766.03" width="1.19" height="13.14"/><rect class="cls-23" x="1244.53" y="766.03" width="1.19" height="13.14"/><rect class="cls-23" x="1251.7" y="766.03" width="1.19" height="13.14"/><rect class="cls-23" x="1208.71" y="780.36" width="51.95" height="1.19"/><rect class="cls-23" x="1214.08" y="784.54" width="1.19" height="13.14"/><rect class="cls-23" x="1222.44" y="784.54" width="1.19" height="13.14"/><rect class="cls-23" x="1229.61" y="784.54" width="1.19" height="13.14"/><rect class="cls-23" x="1237.37" y="784.54" width="1.19" height="13.14"/><rect class="cls-23" x="1244.53" y="784.54" width="1.19" height="13.14"/><rect class="cls-23" x="1251.7" y="784.54" width="1.19" height="13.14"/><polygon class="cls-24" points="1342.76 797.97 1397.69 797.97 1397.09 732.29 1364.85 733.49 1343.35 775.88 1342.76 797.97"/><polygon class="cls-6" points="1478.89 797.97 1576.81 797.97 1576.81 665.42 1541.88 665.42 1542.48 741.55 1534.12 739.76 1534.72 715.28 1526.36 715.28 1526.36 699.16 1513.82 704.53 1514.42 742.74 1478.59 763.64 1478.89 797.97"/><path class="cls-25" d="M1566.23,777.1l-15.94-.64,9.56-14Zm-14.84-1.2,13.91.56-5.56-12.8Z"/><polygon class="cls-26" points="1544.27 743.94 1572.93 753.49 1572.93 730.21 1544.27 743.94"/><rect class="cls-25" x="1544.27" y="669.9" width="30.45" height="1.79"/><rect class="cls-25" x="1544.87" y="680.05" width="29.85" height="7.17"/><rect class="cls-25" x="1544.87" y="699.75" width="29.85" height="7.17"/><rect class="cls-27" x="1534.12" y="742.15" width="1.19" height="34.03"/><rect class="cls-27" x="1516.21" y="748.12" width="7.76" height="1.19"/><rect class="cls-27" x="1516.21" y="751.1" width="8.36" height="1.19"/><rect class="cls-27" x="1516.21" y="754.69" width="14.93" height="1.19"/><rect class="cls-27" x="1516.21" y="757.67" width="16.72" height="1.19"/><rect class="cls-27" x="1516.21" y="761.25" width="16.72" height="1.19"/><path class="cls-25" d="M1521.58,711.4a2.09,2.09,0,1,1,2.09-2.09A2.1,2.1,0,0,1,1521.58,711.4Zm0-3.59a1.5,1.5,0,1,0,1.49,1.5A1.5,1.5,0,0,0,1521.58,707.81Z"/><path class="cls-25" d="M1488.74,765.43c.6-.59,24.48-14.92,24.48-14.92l-1.79-1.8-23.88,14.93Z"/><path class="cls-25" d="M1495.61,784.24h-9.55V771.11h9.55Zm-9-.6H1495V771.7h-8.36Z"/><rect class="cls-27" x="1515.61" y="765.43" width="15.52" height="2.99"/><rect class="cls-27" x="1516.21" y="772.6" width="15.52" height="2.99"/><polygon class="cls-1" points="1044.81 797.97 1136.76 797.97 1134.97 640.34 1095.26 641.83 1095.26 654.37 1089.29 658.55 1088.1 759.46 1045.7 760.05 1044.81 797.97"/><rect class="cls-25" x="1099.44" y="654.37" width="34.03" height="1.79"/><rect class="cls-25" x="1105.41" y="664.52" width="15.52" height="1.19"/><rect class="cls-25" x="1105.41" y="693.18" width="14.33" height="1.19"/><rect class="cls-25" x="1105.41" y="750.5" width="15.52" height="1.79"/><polygon class="cls-25" points="1103.32 753.78 1088.1 753.78 1088.1 753.19 1102.73 753.19 1102.73 666.01 1089.25 665.9 1089.26 665.3 1103.32 665.42 1103.32 753.78"/><polygon class="cls-2" points="1089.19 668.3 1100.64 668.1 1100.04 749.9 1088.1 750 1089.19 668.3"/><rect class="cls-28" x="1089.89" y="669.3" width="9.55" height="7.17"/><rect class="cls-28" x="1089.89" y="677.66" width="9.55" height="8.36"/><rect class="cls-28" x="1089.89" y="687.21" width="9.55" height="10.15"/><rect class="cls-28" x="1089.89" y="698.55" width="9.55" height="9.55"/><rect class="cls-28" x="1089.89" y="709.3" width="9.55" height="7.17"/><rect class="cls-28" x="1089.29" y="717.66" width="10.15" height="7.17"/><rect class="cls-28" x="1089.29" y="726.02" width="10.15" height="6.57"/><rect class="cls-28" x="1088.7" y="733.78" width="10.75" height="7.76"/><rect class="cls-28" x="1088.7" y="742.74" width="10.75" height="6.57"/><polygon class="cls-25" points="1123.03 753.19 1136.16 753.19 1136.16 752.59 1123.54 752.59 1123.54 665.41 1135.17 665.3 1135.16 664.71 1123.03 664.82 1123.03 753.19"/><polygon class="cls-2" points="1135.22 667.7 1125.35 667.5 1125.86 749.31 1136.16 749.41 1135.22 667.7"/><rect class="cls-28" x="1126.38" y="668.7" width="8.24" height="7.17" transform="translate(2260.99 1344.56) rotate(-180)"/><rect class="cls-28" x="1126.38" y="677.06" width="8.24" height="8.36" transform="translate(2260.99 1362.48) rotate(-180)"/><rect class="cls-28" x="1126.38" y="686.61" width="8.24" height="10.15" transform="translate(2260.99 1383.37) rotate(-180)"/><rect class="cls-28" x="1126.38" y="697.96" width="8.24" height="9.55" transform="translate(2260.99 1405.47) rotate(-180)"/><rect class="cls-28" x="1126.38" y="708.7" width="8.24" height="7.17" transform="translate(2260.99 1424.57) rotate(-180)"/><rect class="cls-28" x="1126.38" y="717.06" width="8.76" height="7.17" transform="translate(2261.51 1441.29) rotate(-180)"/><rect class="cls-28" x="1126.38" y="725.42" width="8.76" height="6.57" transform="translate(2261.51 1457.41) rotate(-180)"/><rect class="cls-28" x="1126.38" y="733.18" width="9.27" height="7.76" transform="translate(2262.02 1474.13) rotate(-180)"/><rect class="cls-28" x="1126.38" y="742.14" width="9.27" height="6.57" transform="translate(2262.02 1490.85) rotate(-180)"/><polygon class="cls-25" points="1130.19 797.97 1129.6 766.92 1096.16 766.92 1096.01 797.97 1095.41 797.97 1095.56 766.32 1130.19 766.32 1130.79 797.96 1130.19 797.97"/><polygon class="cls-25" points="1126.16 797.97 1126.02 772.3 1100.93 772.88 1100.34 797.08 1099.74 797.07 1100.35 772.3 1126.61 771.69 1126.76 797.97 1126.16 797.97"/><rect class="cls-29" x="1071.38" y="770.2" width="1.19" height="26.87"/><rect class="cls-29" x="1074.96" y="770.2" width="1.19" height="26.87"/><rect class="cls-29" x="1077.95" y="770.2" width="1.19" height="26.87"/><rect class="cls-29" x="1081.53" y="770.2" width="1.19" height="26.87"/><rect class="cls-29" x="1083.92" y="770.2" width="1.19" height="26.87"/><rect class="cls-30" x="987.49" y="680.7" width="22.69" height="70.03"/><polygon class="cls-31" points="921.21 797.97 1048.39 797.97 1048.99 702.63 1023.61 703.05 1023.61 643.99 1009.28 660.87 1009.28 745.24 993.16 746.09 993.16 721.62 973.46 721.62 973.46 725.84 961.52 725.84 960.92 628.8 921.51 631.34 921.21 797.97"/><rect class="cls-32" x="925.09" y="635.56" width="34.03" height="42.19"/><path class="cls-33" d="M948.68,740.6H945.1v-5.91h3.58Zm-3-.84h2.39v-4.22h-2.39Z"/><path class="cls-33" d="M957,737.23h-3v-5.91h3Zm-2.39-.85h1.79v-4.22h-1.79Z"/><rect class="cls-33" x="988.98" y="713.18" width="1.19" height="8.44"/><rect class="cls-33" x="980.03" y="714.02" width="1.19" height="7.59"/><rect class="cls-33" x="977.04" y="712.34" width="1.19" height="9.28"/><rect class="cls-34" x="1011.07" y="681.12" width="10.75" height="0.84"/><rect class="cls-34" x="1011.07" y="683.65" width="11.34" height="0.84"/><rect class="cls-34" x="1011.07" y="702.21" width="10.75" height="1.69"/><rect class="cls-34" x="1012.87" y="707.27" width="33.44" height="1.69"/><path class="cls-34" d="M1033.46,728.79H1015V713.6h18.5Zm-17.91-.85h17.32v-13.5h-17.32Z"/><rect class="cls-34" x="1035.55" y="713.18" width="9.55" height="1.69"/><rect class="cls-34" x="1035.55" y="718.24" width="9.55" height="0.84"/><rect class="cls-34" x="1035.55" y="723.3" width="9.55" height="1.69"/><rect class="cls-34" x="1035.55" y="727.52" width="9.55" height="0.84"/><rect class="cls-34" x="1011.67" y="731.74" width="34.63" height="0.84"/><rect class="cls-34" x="1011.67" y="736.8" width="35.83" height="1.69"/><rect class="cls-33" x="964.5" y="736.8" width="7.17" height="0.84"/><rect class="cls-33" x="973.46" y="735.12" width="19.11" height="0.84"/><rect class="cls-33" x="973.46" y="726.68" width="0.6" height="39.66"/><rect class="cls-33" x="980.03" y="737.65" width="1.19" height="10.97"/><rect class="cls-33" x="987.19" y="737.65" width="0.6" height="10.97"/><rect class="cls-33" x="975.85" y="742.71" width="2.99" height="5.06"/><rect class="cls-33" x="961.52" y="728.37" width="1.79" height="39.66"/><path class="cls-33" d="M937,795c.59,0,35.22-24.47,35.22-24.47L971.07,768l-38.81,27Z"/><rect class="cls-33" x="965.1" y="746.08" width="6.57" height="1.69"/><rect class="cls-33" x="965.1" y="757.9" width="6.57" height="1.69"/><polygon class="cls-7" points="783.29 797.97 877.63 797.97 874.04 651.69 855.24 651.39 851.05 583.32 827.17 604.82 828.96 703.34 822.99 702.74 783.59 730.8 783.29 797.97"/><polygon class="cls-8" points="831.35 614.97 849.26 603.03 849.26 590.49 831.35 607.21 831.35 614.97"/><path class="cls-8" d="M849.26,609l-18.51,11.94,2.39,49L851.65,652Zm-13.73,50.75-1.19-38.21,1.19-.6,1.2,38.21Zm4.18-4.18-1.19-37s1.19-.6,1.19,0S840.9,655,840.9,655Zm6-6.57-1.19,1.2V616.76h1.19Z"/><path class="cls-35" d="M838.8,704.83H826.39l13.06,11.75Zm-10.85.6h10.28l.55,9.74Z"/><path class="cls-35" d="M828.66,727.82h0v6.89l7.76-.65.6-15.78v-.15l-8.37-7.08Zm7.41-.24-6.81.22v-5.45l7,.14Zm-6.81,6.48v-5.67l6.79-.22-.21,5.34Zm7.16-15.66-.13,3.49-7-.14v-9.41Z"/><polygon class="cls-35" points="798.51 793.2 797.91 793.2 797.91 727.82 803.89 727.82 803.89 724.83 809.21 724.83 808.62 720.65 813.44 720.65 813.44 715.9 821.48 715.28 821.52 715.87 814.04 716.45 814.04 721.25 809.3 721.25 809.9 725.43 804.48 725.43 804.48 728.41 798.51 728.41 798.51 793.2"/><rect class="cls-36" x="835.53" y="743.34" width="5.37" height="7.17"/><rect class="cls-36" x="830.16" y="751.7" width="5.37" height="6.57"/><rect class="cls-10" x="852.85" y="659.15" width="7.17" height="16.72"/><rect class="cls-10" x="861.8" y="657.96" width="6.57" height="21.5"/><rect class="cls-35" x="823.59" y="704.53" width="1.19" height="34.63"/><rect class="cls-35" x="815.83" y="726.62" width="1.19" height="40.6"/><rect class="cls-35" x="811.65" y="730.21" width="1.19" height="33.44"/><rect class="cls-35" x="807.47" y="733.79" width="1.19" height="29.85"/><path class="cls-36" d="M823.59,772s19.11,11.35,19.11,10.75-2.39-23.29-2.39-23.29Z"/><polyline class="cls-10" points="855.24 715.88 854.64 711.7 841.5 721.25 841.5 723.64 848.07 723.64 855.24 716.47"/><polygon class="cls-10" points="841.5 715.88 843.29 715.88 853.44 709.31 853.44 707.52 841.5 715.88"/><path class="cls-10" d="M839.71,703.93h1.19v-.59h12v-1.2s-13.14-.59-13.14,0Z"/><polygon class="cls-10" points="849.86 723.64 855.24 723.64 856.43 718.86 849.86 723.64"/><polygon class="cls-6" points="857.92 797.97 920.02 797.97 919.72 705.73 903.6 699.75 903.6 712.29 895.84 712.29 895.84 729.61 888.67 730.8 888.67 675.27 857.62 675.27 857.92 797.97"/><rect class="cls-37" x="858.82" y="677.06" width="28.06" height="1.79"/><rect class="cls-38" x="859.41" y="684.83" width="28.06" height="4.78"/><rect class="cls-38" x="859.41" y="700.35" width="28.06" height="4.78"/><rect class="cls-37" x="906.58" y="735.58" width="11.34" height="1.19"/><rect class="cls-37" x="905.99" y="737.97" width="11.94" height="1.19"/><rect class="cls-37" x="899.42" y="740.95" width="18.51" height="0.6"/><rect class="cls-37" x="897.63" y="743.34" width="20.3" height="0.6"/><rect class="cls-37" x="898.82" y="746.33" width="19.7" height="0.6"/><rect class="cls-37" x="895.24" y="731.4" width="1.19" height="65.68"/><path class="cls-37" d="M917.63,764.54H899.72V749h17.91Zm-17.32-.6H917V749.61H900.31Z"/><path class="cls-37" d="M908.67,709a2.11,2.11,0,1,1,2.39-2.09A2.25,2.25,0,0,1,908.67,709Zm0-3.58a1.52,1.52,0,1,0,1.8,1.49A1.67,1.67,0,0,0,908.67,705.43Z"/><path class="cls-39" d="M881.54,757.37H867.89l5.2-10.4Zm-12.69-.59h11.43l-7.07-8.71Z"/><path class="cls-37" d="M912,759.76H902.5l4-7.42Zm-8.45-.6h7.27l-4.15-5.71Z"/><polygon class="cls-40" points="861.8 740.36 886.88 732.59 861.8 723.04 861.8 740.36"/><path class="cls-4" d="M1630.55,798h111.66L1738,684.53l-14.33-.6-.6-27.46h-6.57V649.3h-23.29l.6,34h-18.51V627.21h-27.46c-.6,0,0,63.29,0,63.29h-16.72Z"/><polygon class="cls-1" points="1696.83 683.93 1715.93 683.93 1715.34 658.26 1696.23 658.26 1696.83 683.93"/><polygon class="cls-1" points="1696.83 656.47 1714.74 657.06 1714.74 652.88 1696.23 651.09 1696.83 656.47"/><polygon class="cls-5" points="1683.07 700.88 1682.51 710.8 1698.5 710.8 1683.07 700.88"/><path class="cls-5" d="M1674.44,689v26.87l37.61-1.2Zm8.09,10.81,18,11.58h-18.65Z"/><polygon class="cls-1" points="1679.11 797.97 1711.75 797.97 1711.45 770.21 1678.62 757.07 1679.11 797.97"/><polygon class="cls-2" points="1650.55 728.41 1650.55 797.08 1673.94 797.97 1673.84 749.91 1663.09 729.01 1650.55 728.41"/><polygon class="cls-6" points="1630.95 783.45 1646.37 783.35 1646.37 754.69 1671.45 754.09 1670.95 797.97 1630.25 797.68 1630.95 783.45"/><polygon class="cls-7" points="1711.75 797.97 1806.09 797.97 1802.51 651.69 1783.7 651.39 1779.52 583.32 1755.64 604.82 1757.43 703.34 1751.46 702.74 1712.05 730.8 1711.75 797.97"/><polygon class="cls-8" points="1759.82 614.97 1777.73 603.03 1777.73 590.49 1759.82 607.21 1759.82 614.97"/><path class="cls-8" d="M1777.73,609l-18.51,11.94,2.39,49L1780.12,652ZM1764,659.75l-1.2-38.21,1.2-.6,1.19,38.21Zm4.18-4.18-1.2-37s1.2-.6,1.2,0,1.19,36.42,1.19,36.42Zm6-6.57-1.19,1.2V616.76h1.19Z"/><path class="cls-35" d="M1767.27,704.83h-12.41l13.06,11.75Zm-10.85.6h10.28l.54,9.74Z"/><path class="cls-35" d="M1757.13,727.82h0v6.89l7.75-.65.61-15.78v-.15l-8.37-7.08Zm7.41-.24-6.81.22v-5.45l7,.14Zm-6.81,6.48v-5.67l6.78-.22-.2,5.34Zm7.16-15.66-.14,3.49-7-.14v-9.41Z"/><polygon class="cls-35" points="1726.98 793.2 1726.38 793.2 1726.38 727.82 1732.35 727.82 1732.35 724.83 1737.68 724.83 1737.09 720.65 1741.91 720.65 1741.91 715.9 1749.94 715.28 1749.99 715.87 1742.5 716.45 1742.5 721.25 1737.77 721.25 1738.37 725.43 1732.95 725.43 1732.95 728.41 1726.98 728.41 1726.98 793.2"/><rect class="cls-36" x="1764" y="743.34" width="5.37" height="7.17"/><rect class="cls-36" x="1758.63" y="751.7" width="5.37" height="6.57"/><rect class="cls-10" x="1781.31" y="659.15" width="7.17" height="16.72"/><rect class="cls-10" x="1790.27" y="657.96" width="6.57" height="21.5"/><rect class="cls-35" x="1752.06" y="704.53" width="1.19" height="34.63"/><rect class="cls-35" x="1744.3" y="726.62" width="1.19" height="40.6"/><rect class="cls-35" x="1740.12" y="730.21" width="1.19" height="33.44"/><rect class="cls-35" x="1735.94" y="733.79" width="1.19" height="29.85"/><path class="cls-36" d="M1752.06,772s19.1,11.35,19.1,10.75-2.38-23.29-2.38-23.29Z"/><polyline class="cls-10" points="1783.7 715.88 1783.11 711.7 1769.97 721.25 1769.97 723.64 1776.54 723.64 1783.7 716.47"/><polygon class="cls-10" points="1769.97 715.88 1771.76 715.88 1781.91 709.31 1781.91 707.52 1769.97 715.88"/><path class="cls-10" d="M1768.18,703.93h1.19v-.59h11.94v-1.2s-13.13-.59-13.13,0Z"/><polygon class="cls-10" points="1778.33 723.64 1783.7 723.64 1784.9 718.86 1778.33 723.64"/><polygon class="cls-6" points="1775.64 797.97 1837.74 797.97 1837.44 705.73 1821.32 699.75 1821.32 712.29 1813.56 712.29 1813.56 729.61 1806.39 730.8 1806.39 675.27 1775.34 675.27 1775.64 797.97"/><rect class="cls-37" x="1776.54" y="677.06" width="28.06" height="1.79"/><rect class="cls-38" x="1777.13" y="684.83" width="28.06" height="4.78"/><rect class="cls-38" x="1777.13" y="700.35" width="28.06" height="4.78"/><rect class="cls-37" x="1824.3" y="735.58" width="11.34" height="1.19"/><rect class="cls-37" x="1823.71" y="737.97" width="11.94" height="1.19"/><rect class="cls-37" x="1817.14" y="740.95" width="18.51" height="0.6"/><rect class="cls-37" x="1815.35" y="743.34" width="20.3" height="0.6"/><rect class="cls-37" x="1816.54" y="746.33" width="19.7" height="0.6"/><rect class="cls-37" x="1812.96" y="731.4" width="1.19" height="65.68"/><path class="cls-37" d="M1835.35,764.54h-17.91V749h17.91Zm-17.31-.6h16.71V749.61H1818Z"/><path class="cls-37" d="M1826.39,709a2.11,2.11,0,1,1,2.39-2.09A2.25,2.25,0,0,1,1826.39,709Zm0-3.58a1.52,1.52,0,1,0,1.8,1.49A1.67,1.67,0,0,0,1826.39,705.43Z"/><path class="cls-39" d="M1799.26,757.37h-13.65l5.2-10.4Zm-12.69-.59H1798l-7.07-8.71Z"/><path class="cls-37" d="M1829.67,759.76h-9.45l4-7.42Zm-8.45-.6h7.28l-4.16-5.71Z"/><polygon class="cls-40" points="1779.52 740.36 1804.6 732.59 1779.52 723.04 1779.52 740.36"/><path class="cls-41" d="M1354.66,798V783.05l6.65-.47-.08-6.7h21.5v3h7.76s0-5.18,0-6.57h23.29V798Z"/><rect class="cls-42" x="1393.48" y="778.27" width="7.17" height="5.37"/><rect class="cls-42" x="1401.83" y="778.27" width="7.17" height="5.37"/><path class="cls-42" d="M1361.83,781.26v9.55h17.32v-9.55Zm15.52,7.76h-13.73v-6h13.73Z"/><rect class="cls-43" x="1388.1" y="768.72" width="27.47" height="5.97"/></g><path class="cls-1" d="M60.34,647.3v99.78H271.51v-.3h.36v.3H387.78V747l46.64-.26v.34H510.2v-.38h10.69v.38h531.48v-.38h.33l-.37-8.83-.6-127.89h-18.14s.65-80.74,0-80.74h-29.8v71.6H983.71l.65-43.42H959.1v9.14H952l-.65,35-15.54.76-1.3,41.4-21.7-18.17-6.48.76,2-125.67-25.91-27.42-4.54,86.83-20.4.38-.63,30.09H841.53v70.83l-7.77-1.52V637.78h-8.42v-16l-16.78,7.31-.07-32.44-42.75-2.29L765.1,682h-13v-3.81h-3.89v-8.38H747v8.38h-2v-6.86h-1.29v6.86h-6.8V641.21H713.27v-17.9l-15.54-15.24v53.32l-7.45-.1V560.85l-25.59-.76.65-56.36-26.88-8L637,568.26l-5.3-4.37v-16L588.58,546,587,712h-9.09V476.69H575V471h1.3v-.77H542.59V471h1.3v5.71h-3.56v28.94H520.89V622.55H491.42v-61.7l-25.59-.76.65-56.36-26.88-8L437.38,603.5H384.22L374.82,621v24.76H356.69v58.09l-16.84-39-30.11-1.31L311,501.82,286.41,474.4l-3.57,86.45H261.47v43.8h-10v-35.8H245.6V559H220.34l-1,43H200.58V528.86l-30.12.38-1.3,83h-21.6l.23-34.27h-37.9v84.54h-7.45l.65-34.27L79.77,629ZM547.77,471v5.71h-2.59V471Zm6.48,0v5.71h-5.18V471Zm5.83,0v5.71h-4.53V471Zm7.13,0v5.71h-5.83V471Zm6.47,5.71H568.5V471h5.18Z"/><path class="cls-1" d="M-29.77,717.35v42.18H122.29v-.13h.25v.12H206v0l33.59-.11v.14h54.57v-.16h7.7v.16H684.59v-.16h.24l-.27-3.73-.43-54.07H671.07s.46-34.13,0-34.13H649.61v30.27H635.15l.47-18.36h-18.2v3.87h-5.13L611.83,698l-11.2.32-.93,17.5-15.63-7.68-4.66.32,1.4-53.13-18.66-11.59-3.26,36.71-14.7.16-.45,12.72h-11v29.95l-5.6-.65v-9.34H521.1v-6.76L509,709.65l0-13.72-30.79-1-.47,37H468.4v-1.61h-2.8v-3.54h-.94v3.54h-1.4v-2.9h-.93v2.9h-4.9V714.77h-17v-7.56l-11.2-6.45v22.55l-5.36,0V680.8l-18.42-.32.46-23.83-19.35-3.38-1.08,30.66-3.82-1.84v-6.77l-31-.8-1.16,70.2h-6.54v-99.5h-2.1V642.8h.94v-.32H317.5v.32h.93v2.42h-2.56v12.23h-14v49.43H280.65V680.8l-18.42-.32.46-23.83-19.35-3.38-1.6,45.56H203.46l-6.77,7.41V716.7H183.63v24.57L171.5,724.75l-21.67-.55.92-68.36L133,644.25l-2.56,36.55h-15.4v18.52h-7.22V684.18h-4.2V680H85.45l-.7,18.19H71.22V667.28l-21.69.16-.93,35.1H33l.16-14.49H5.92v35.74H.55L1,709.3l-16.79.32Zm351-74.55v2.42h-1.86V642.8Zm4.67,0v2.42h-3.73V642.8Zm4.2,0v2.42h-3.27V642.8Zm5.13,0v2.42H331V642.8Zm4.66,2.42h-3.73V642.8h3.73Z"/><path class="cls-2" d="M875.41,691.22l.6,26.87h-6.87V651.81H834.21l.21,26.87H814.51l-1.2-65.08-27.76-.3v57.32H768.23l-.89-33.73H744.05v7.76h-5.37v28.06h-9.26V638.38h-19.7l-3.28-67.77L683.75,592.1l1.18,126.75-27.75,1L641.65,750.5V705H624.93v-19.4l-8.65-13.74h-49l-2-84.48-24.78,6.27.59,44.18-23.58.6v48.36H490.29V595.09H472.38V572.4h-3.29v-4.48h1.2v-.6H439.24v.6h1.19v4.48h-2.68V756.9h-9L427.3,626.73l-39.71,1.49v12.54l-4,2.8-.81-36.72-25.67,9.55.62,21.39-23.59.6v50.76l-18.21.31V630.38l-14.33,16.88v19.83H279.82V708h-6.27v-7.6h-1.2V708h-1.79v-9.28h-1.19V708h-3.58v4.22H253.85l-.6-97-39.41,2.53-.3,166.64H490.29v-.3h9.85v.3H570v-.27l43,.21v.06h93.12v-.14l14.06-.1v.24H914.82V706.15l-17.91-14.33ZM467.9,567.92v4.48h-2.39v-4.48Zm-3.58,0v4.48h-4.78v-4.48Zm-6,0v4.48h-4.18v-4.48Zm-5.38,0v4.48H447.6v-4.48Zm-11.34,0h4.78v4.48h-4.78Z"/><path class="cls-2" d="M195.93,686.14v12.54h-7.76V716L181,717.19V661.66H167l-.58-23.58-18.81-.3-4.18-68.07-23.88,21.5,1.79,98.52-6-.6-20,14.24-1.2-32.45-14.33-.6-.59-27.46H72.63v-7.17H49.34l.6,34H31.43V613.6H4c-.59,0,0,63.29,0,63.29H-12.75l-.56,100.26-.34,6.92h.3v.3h225.7l-.3-92.25Z"/><path class="cls-2" d="M1129.77,692.12l-16.12-6v12.54h-7.76V716l-7.17,1.19V661.66h-3.3l-.58-23.58-18.81-.3-4.18-68.07L1048,591.21l1.79,98.52-6-.6L1031.35,698l-1-27.07-14.33-.6-.59-27.46h-6.57v-7.17H985.57l.6,34H967.66V613.6H940.19c-.59,0,0,63.29,0,63.29H923.48l-.56,100.26-.34,6.92h.3v.3h207.19Z"/><g class="cls-3"><path class="cls-4" d="M-13.35,784.37H98.3L94.12,670.92l-14.33-.6-.59-27.46H72.63v-7.17H49.34l.6,34H31.43V613.6H4c-.59,0,0,63.29,0,63.29H-12.75Z"/><polygon class="cls-1" points="52.93 670.32 72.03 670.32 71.44 644.65 52.33 644.65 52.93 670.32"/><polygon class="cls-1" points="52.93 642.86 70.84 643.45 70.84 639.27 52.33 637.48 52.93 642.86"/><polygon class="cls-5" points="39.16 687.27 38.61 697.19 54.6 697.19 39.16 687.27"/><path class="cls-5" d="M30.54,675.4v26.87l37.61-1.2Zm8.09,10.81,18,11.58H38Z"/><polygon class="cls-1" points="35.21 784.37 67.85 784.37 67.56 756.6 34.72 743.47 35.21 784.37"/><polygon class="cls-2" points="6.65 714.8 6.65 783.47 30.04 784.37 29.94 736.3 19.19 715.4 6.65 714.8"/><polygon class="cls-6" points="-12.95 769.84 2.47 769.74 2.47 741.08 27.55 740.48 27.05 784.37 -13.65 784.07 -12.95 769.84"/><polygon class="cls-4" points="768.23 670.62 785.55 670.62 785.55 613.3 813.31 613.6 814.51 678.68 847.35 678.68 855.11 718.09 876.01 718.09 875.41 691.22 896.91 691.82 914.82 706.15 914.82 784.37 720.17 784.37 719.57 672.71 738.68 672.71 738.68 644.65 744.05 644.65 744.05 636.88 767.34 636.88 768.23 670.62"/><polygon class="cls-1" points="914.82 720.18 912.13 720.18 912.13 714.21 906.16 714.21 906.16 708.21 899.27 707.64 899.32 707.04 906.76 707.66 906.76 713.61 912.73 713.61 912.73 719.58 914.82 719.58 914.82 720.18"/><polygon class="cls-1" points="879.59 706.74 891.53 693.61 880.19 693.61 879.59 706.74"/><polygon class="cls-1" points="882.58 731.82 891.53 731.82 890.93 701.97 882.58 710.33 882.58 731.82"/><polygon class="cls-5" points="749.43 701.97 786.45 703.76 786.45 676.89 749.43 701.97"/><path class="cls-4" d="M761.45,699.32l18.76-11.64-.65,11Zm18.1-10.53-15.88,9.85L779,698.1Z"/><rect class="cls-1" x="747.04" y="639.87" width="17.91" height="4.78"/><rect class="cls-1" x="746.44" y="646.44" width="18.51" height="26.27"/><rect class="cls-1" x="877.8" y="744.96" width="5.97" height="9.55"/><rect class="cls-1" x="882.58" y="756.3" width="7.17" height="9.55"/><rect class="cls-1" x="895.11" y="693.01" width="1.19" height="45.98"/><rect class="cls-1" x="911.83" y="731.82" width="1.19" height="51.35"/><rect class="cls-1" x="907.65" y="729.43" width="1.19" height="51.35"/><rect class="cls-1" x="903.47" y="727.64" width="1.19" height="51.35"/><polygon class="cls-7" points="729.42 784.07 729.42 638.38 709.72 638.38 706.44 570.61 683.75 592.1 685.54 784.37 729.42 784.07"/><polygon class="cls-8" points="686.73 603.45 705.24 590.31 705.24 576.58 686.13 594.49 686.73 603.45"/><polygon class="cls-8" points="686.13 608.23 687.93 657.78 707.63 638.68 705.24 595.69 686.13 608.23"/><path class="cls-9" d="M694.17,705.53l.63-15.81,22.13.63Zm1.21-15.2-.56,14L715,690.89Z"/><polygon class="cls-9" points="694.49 710.33 694.49 719.28 717.78 717.49 717.18 693.61 694.49 710.33"/><polygon class="cls-7" points="689.72 608.23 690.91 608.23 692.7 647.04 691.51 648.23 689.72 608.23"/><polygon class="cls-7" points="693.9 605.84 695.09 605.84 696.28 642.86 695.09 643.45 693.9 605.84"/><path class="cls-7" d="M699.87,604.05s.59-.6.59,0,.6,33.43.6,33.43h-1.19Z"/><path class="cls-7" d="M696.43,714.25,712,703.84l1.3,9.76Zm15.15-9.38-13.05,8.7,14.13-.54Z"/><rect class="cls-10" x="708.82" y="647.04" width="6.57" height="19.7"/><rect class="cls-10" x="717.18" y="645.24" width="7.17" height="20.9"/><rect class="cls-2" x="612.99" y="704.95" width="28.66" height="79.41"/><polygon class="cls-11" points="624.93 784.37 624.93 685.55 616.28 671.82 565.52 671.82 562.54 678.98 562.54 784.07 624.93 784.37"/><rect class="cls-12" x="570.9" y="680.77" width="7.17" height="9.55"/><rect class="cls-12" x="578.36" y="692.41" width="6.57" height="8.96"/><polygon class="cls-13" points="427.6 783.77 427 756.9 437.75 756.9 437.75 572.4 472.38 572.4 472.38 595.09 490.29 595.09 490.29 784.37 427.6 784.37 427.6 783.77"/><rect class="cls-14" x="440.73" y="577.18" width="29.26" height="15.52"/><rect class="cls-14" x="440.73" y="600.46" width="47.17" height="1.19"/><rect class="cls-14" x="440.73" y="604.05" width="47.17" height="1.19"/><rect class="cls-14" x="440.14" y="634.5" width="47.17" height="1.19"/><rect class="cls-14" x="440.14" y="663.16" width="47.17" height="1.19"/><rect class="cls-14" x="440.73" y="691.22" width="47.17" height="1.19"/><rect class="cls-14" x="440.73" y="741.38" width="47.17" height="1.19"/><rect class="cls-14" x="440.73" y="745.55" width="47.17" height="1.19"/><rect class="cls-14" x="440.73" y="756.9" width="47.17" height="1.19"/><polygon class="cls-14" points="439.24 567.33 439.24 567.92 440.43 567.92 440.43 572.7 441.63 572.7 441.63 567.92 446.4 567.92 446.4 572.7 447.6 572.7 447.6 567.92 452.97 567.92 452.97 572.7 454.17 572.7 454.17 567.92 458.35 567.92 458.35 572.7 459.54 572.7 459.54 567.92 464.32 567.92 464.32 572.7 465.51 572.7 465.51 567.92 467.9 567.92 467.9 572.7 469.09 572.7 469.09 567.92 470.29 567.92 470.29 567.33 439.24 567.33"/><rect class="cls-15" x="446.7" y="668.53" width="10.15" height="11.94"/><rect class="cls-15" x="467" y="668.53" width="10.15" height="11.94"/><rect class="cls-15" x="446.11" y="611.21" width="10.15" height="11.94"/><rect class="cls-15" x="466.41" y="611.21" width="10.15" height="11.94"/><rect class="cls-14" x="443.72" y="698.39" width="41.8" height="37.62"/><polygon class="cls-2" points="565.23 587.33 570 784.37 517.46 784.37 517.46 638.38 541.04 637.78 540.45 593.6 565.23 587.33"/><rect class="cls-16" x="544.03" y="594.19" width="6.57" height="4.18"/><rect class="cls-16" x="551.79" y="594.19" width="6.57" height="4.18"/><rect class="cls-16" x="544.03" y="599.57" width="6.57" height="5.37"/><rect class="cls-16" x="551.79" y="599.57" width="6.57" height="5.37"/><rect class="cls-17" x="541.04" y="655.1" width="7.17" height="9.55"/><rect class="cls-17" x="534.48" y="643.15" width="7.17" height="9.55"/><polygon class="cls-2" points="382.79 606.84 386.7 784.37 334.15 784.37 334.15 638.38 357.74 637.78 357.12 616.39 382.79 606.84"/><rect class="cls-16" x="363.09" y="616.99" width="6.57" height="4.18"/><rect class="cls-16" x="370.85" y="616.99" width="6.57" height="4.18"/><rect class="cls-16" x="363.09" y="622.36" width="6.57" height="5.37"/><rect class="cls-16" x="370.85" y="622.36" width="6.57" height="5.37"/><rect class="cls-17" x="357.74" y="655.1" width="7.17" height="9.55"/><rect class="cls-17" x="351.17" y="643.15" width="7.17" height="9.55"/><rect class="cls-18" x="472.08" y="686.74" width="50.16" height="97.32"/><rect class="cls-19" x="477.16" y="693.01" width="44.78" height="17.91"/><rect class="cls-20" x="484.32" y="697.79" width="37.62" height="7.17"/><rect class="cls-21" x="473.57" y="716.3" width="47.17" height="1.79"/><path class="cls-21" d="M521.34,745.55v-1.79h-3V721.67h2.39v-1.79H473.57v1.79H476v62.7h1.2v-3h43.58v-1.79H477.16v-4.18h44.18v-1.79H477.16V750.93h10.15V773h1.19V750.93h8.36V773h1.19V750.93h9V773h1.19V750.93h9V773h1.19V750.93h3v-1.79H477.16v-3.59Zm-4.18-23.88v22.09h-9V721.67Zm-10.15,0v22.09h-9V721.67Zm-10.15,0v22.09H488.5V721.67Zm-9.55,0v22.09H477.16V721.67Z"/><rect class="cls-22" x="500.14" y="719.28" width="54.93" height="65.08"/><rect class="cls-23" x="501.04" y="727.94" width="51.95" height="1.19"/><rect class="cls-23" x="506.41" y="732.12" width="1.19" height="13.14"/><rect class="cls-23" x="514.77" y="732.12" width="1.19" height="13.14"/><rect class="cls-23" x="521.94" y="732.12" width="1.19" height="13.14"/><rect class="cls-23" x="529.7" y="732.12" width="1.19" height="13.14"/><rect class="cls-23" x="536.86" y="732.12" width="1.19" height="13.14"/><rect class="cls-23" x="544.03" y="732.12" width="1.19" height="13.14"/><rect class="cls-23" x="501.04" y="748.24" width="51.95" height="1.19"/><rect class="cls-23" x="506.41" y="752.42" width="1.19" height="13.14"/><rect class="cls-23" x="514.77" y="752.42" width="1.19" height="13.14"/><rect class="cls-23" x="521.94" y="752.42" width="1.19" height="13.14"/><rect class="cls-23" x="529.7" y="752.42" width="1.19" height="13.14"/><rect class="cls-23" x="536.86" y="752.42" width="1.19" height="13.14"/><rect class="cls-23" x="544.03" y="752.42" width="1.19" height="13.14"/><rect class="cls-23" x="501.04" y="766.75" width="51.95" height="1.19"/><rect class="cls-23" x="506.41" y="770.93" width="1.19" height="13.14"/><rect class="cls-23" x="514.77" y="770.93" width="1.19" height="13.14"/><rect class="cls-23" x="521.94" y="770.93" width="1.19" height="13.14"/><rect class="cls-23" x="529.7" y="770.93" width="1.19" height="13.14"/><rect class="cls-23" x="536.86" y="770.93" width="1.19" height="13.14"/><rect class="cls-23" x="544.03" y="770.93" width="1.19" height="13.14"/><polygon class="cls-24" points="635.08 784.37 690.02 784.37 689.42 718.69 657.18 719.88 635.68 762.27 635.08 784.37"/><polygon class="cls-6" points="771.22 784.37 869.14 784.37 869.14 651.81 834.21 651.81 834.81 727.94 826.45 726.15 827.05 701.67 818.69 701.67 818.69 685.55 806.15 690.92 806.75 729.13 770.92 750.03 771.22 784.37"/><path class="cls-25" d="M858.56,763.49l-15.94-.64,9.56-14Zm-14.84-1.2,13.91.56-5.56-12.8Z"/><polygon class="cls-26" points="836.6 730.33 865.26 739.88 865.26 716.6 836.6 730.33"/><rect class="cls-25" x="836.6" y="656.29" width="30.45" height="1.79"/><rect class="cls-25" x="837.2" y="666.44" width="29.85" height="7.17"/><rect class="cls-25" x="837.2" y="686.14" width="29.85" height="7.17"/><rect class="cls-27" x="826.45" y="728.54" width="1.19" height="34.03"/><rect class="cls-27" x="808.54" y="734.51" width="7.76" height="1.19"/><rect class="cls-27" x="808.54" y="737.49" width="8.36" height="1.19"/><rect class="cls-27" x="808.54" y="741.08" width="14.93" height="1.19"/><rect class="cls-27" x="808.54" y="744.06" width="16.72" height="1.19"/><rect class="cls-27" x="808.54" y="747.64" width="16.72" height="1.19"/><path class="cls-25" d="M813.91,697.79A2.09,2.09,0,1,1,816,695.7,2.1,2.1,0,0,1,813.91,697.79Zm0-3.58a1.49,1.49,0,1,0,1.49,1.49A1.49,1.49,0,0,0,813.91,694.21Z"/><path class="cls-25" d="M781.07,751.82c.6-.59,24.48-14.92,24.48-14.92l-1.79-1.79L779.88,750Z"/><path class="cls-25" d="M787.94,770.63h-9.56V757.5h9.56Zm-9-.59h8.36V758.09H779Z"/><rect class="cls-27" x="807.94" y="751.82" width="15.52" height="2.99"/><rect class="cls-27" x="808.54" y="758.99" width="15.52" height="2.99"/><polygon class="cls-1" points="337.14 784.36 429.09 784.36 427.3 626.73 387.59 628.22 387.59 640.76 381.62 644.94 380.43 745.85 338.03 746.45 337.14 784.36"/><rect class="cls-25" x="391.77" y="640.76" width="34.03" height="1.79"/><rect class="cls-25" x="397.74" y="650.91" width="15.52" height="1.19"/><rect class="cls-25" x="397.74" y="679.57" width="14.33" height="1.19"/><rect class="cls-25" x="397.74" y="736.89" width="15.52" height="1.79"/><polygon class="cls-25" points="395.65 740.17 380.43 740.17 380.43 739.58 395.06 739.58 395.06 652.4 381.58 652.29 381.59 651.7 395.65 651.81 395.65 740.17"/><polygon class="cls-2" points="381.52 654.69 392.97 654.49 392.37 736.29 380.43 736.39 381.52 654.69"/><rect class="cls-28" x="382.22" y="655.69" width="9.55" height="7.17"/><rect class="cls-28" x="382.22" y="664.05" width="9.55" height="8.36"/><rect class="cls-28" x="382.22" y="673.6" width="9.55" height="10.15"/><rect class="cls-28" x="382.22" y="684.94" width="9.55" height="9.55"/><rect class="cls-28" x="382.22" y="695.69" width="9.55" height="7.17"/><rect class="cls-28" x="381.62" y="704.05" width="10.15" height="7.17"/><rect class="cls-28" x="381.62" y="712.41" width="10.15" height="6.57"/><rect class="cls-28" x="381.02" y="720.17" width="10.75" height="7.76"/><rect class="cls-28" x="381.02" y="729.13" width="10.75" height="6.57"/><polygon class="cls-25" points="415.36 739.58 428.49 739.58 428.49 738.98 415.87 738.98 415.87 651.8 427.5 651.7 427.49 651.1 415.36 651.21 415.36 739.58"/><polygon class="cls-2" points="427.55 654.1 417.68 653.9 418.19 735.7 428.49 735.8 427.55 654.1"/><rect class="cls-28" x="418.7" y="655.09" width="8.24" height="7.17" transform="translate(845.65 1317.35) rotate(-180)"/><rect class="cls-28" x="418.7" y="663.45" width="8.24" height="8.36" transform="translate(845.65 1335.26) rotate(-180)"/><rect class="cls-28" x="418.7" y="673" width="8.24" height="10.15" transform="translate(845.65 1356.16) rotate(-180)"/><rect class="cls-28" x="418.7" y="684.35" width="8.24" height="9.55" transform="translate(845.65 1378.25) rotate(-180)"/><rect class="cls-28" x="418.7" y="695.1" width="8.24" height="7.17" transform="translate(845.65 1397.36) rotate(-180)"/><rect class="cls-28" x="418.7" y="703.45" width="8.76" height="7.17" transform="translate(846.17 1414.07) rotate(-180)"/><rect class="cls-28" x="418.7" y="711.81" width="8.76" height="6.57" transform="translate(846.17 1430.2) rotate(-180)"/><rect class="cls-28" x="418.7" y="719.58" width="9.27" height="7.76" transform="translate(846.68 1446.91) rotate(-180)"/><rect class="cls-28" x="418.7" y="728.53" width="9.27" height="6.57" transform="translate(846.68 1463.63) rotate(-180)"/><polygon class="cls-25" points="422.52 784.37 421.93 753.31 388.49 753.31 388.34 784.36 387.74 784.36 387.89 752.71 422.52 752.71 423.12 784.35 422.52 784.37"/><polygon class="cls-25" points="418.49 784.36 418.34 758.69 393.26 759.28 392.67 783.47 392.07 783.46 392.67 758.69 418.94 758.08 419.09 784.36 418.49 784.36"/><rect class="cls-29" x="363.71" y="756.6" width="1.19" height="26.87"/><rect class="cls-29" x="367.29" y="756.6" width="1.19" height="26.87"/><rect class="cls-29" x="370.28" y="756.6" width="1.19" height="26.87"/><rect class="cls-29" x="373.86" y="756.6" width="1.19" height="26.87"/><rect class="cls-29" x="376.25" y="756.6" width="1.19" height="26.87"/><rect class="cls-30" x="279.82" y="667.09" width="22.69" height="70.03"/><polygon class="cls-31" points="213.54 784.37 340.72 784.37 341.32 689.02 315.94 689.45 315.94 630.38 301.61 647.26 301.61 731.63 285.49 732.48 285.49 708.01 265.79 708.01 265.79 712.23 253.84 712.23 253.25 615.2 213.84 617.73 213.54 784.37"/><rect class="cls-32" x="217.42" y="621.95" width="34.03" height="42.19"/><path class="cls-33" d="M241,727h-3.58v-5.9H241Zm-3-.84h2.39v-4.22H238Z"/><path class="cls-33" d="M249.37,723.62h-3v-5.91h3Zm-2.39-.85h1.79v-4.22H247Z"/><rect class="cls-33" x="281.31" y="699.57" width="1.19" height="8.44"/><rect class="cls-33" x="272.35" y="700.41" width="1.19" height="7.59"/><rect class="cls-33" x="269.37" y="698.73" width="1.19" height="9.28"/><rect class="cls-34" x="303.4" y="667.51" width="10.75" height="0.84"/><rect class="cls-34" x="303.4" y="670.04" width="11.34" height="0.84"/><rect class="cls-34" x="303.4" y="688.6" width="10.75" height="1.69"/><rect class="cls-34" x="305.19" y="693.66" width="33.44" height="1.69"/><path class="cls-34" d="M325.79,715.18H307.28V700h18.51Zm-17.91-.84H325.2v-13.5H307.88Z"/><rect class="cls-34" x="327.88" y="699.57" width="9.55" height="1.69"/><rect class="cls-34" x="327.88" y="704.63" width="9.55" height="0.84"/><rect class="cls-34" x="327.88" y="709.69" width="9.55" height="1.69"/><rect class="cls-34" x="327.88" y="713.91" width="9.55" height="0.84"/><rect class="cls-34" x="304" y="718.13" width="34.63" height="0.84"/><rect class="cls-34" x="304" y="723.19" width="35.83" height="1.69"/><rect class="cls-33" x="256.83" y="723.19" width="7.17" height="0.84"/><rect class="cls-33" x="265.79" y="721.51" width="19.11" height="0.84"/><rect class="cls-33" x="265.79" y="713.07" width="0.6" height="39.66"/><rect class="cls-33" x="272.35" y="724.04" width="1.19" height="10.97"/><rect class="cls-33" x="279.52" y="724.04" width="0.6" height="10.97"/><rect class="cls-33" x="268.18" y="729.1" width="2.99" height="5.06"/><rect class="cls-33" x="253.85" y="714.76" width="1.79" height="39.66"/><path class="cls-33" d="M229.36,781.41c.6,0,35.23-24.47,35.23-24.47l-1.19-2.53-38.81,27Z"/><rect class="cls-33" x="257.43" y="732.48" width="6.57" height="1.69"/><rect class="cls-33" x="257.43" y="744.29" width="6.57" height="1.69"/><polygon class="cls-7" points="75.61 784.37 169.96 784.37 166.37 638.08 147.56 637.78 143.38 569.71 119.5 591.21 121.29 689.73 115.32 689.13 75.91 717.19 75.61 784.37"/><polygon class="cls-8" points="123.68 601.36 141.59 589.42 141.59 576.88 123.68 593.6 123.68 601.36"/><path class="cls-8" d="M141.59,595.39l-18.51,11.94,2.39,49L144,638.38Zm-13.73,50.75-1.19-38.21,1.19-.6,1.19,38.21ZM132,642l-1.19-37s1.19-.6,1.19,0,1.19,36.42,1.19,36.42Zm6-6.57-1.19,1.2V603.15H138Z"/><path class="cls-35" d="M131.13,691.22H118.72L131.78,703Zm-10.85.6h10.28l.54,9.74Z"/><path class="cls-35" d="M121,714.21h0v6.89l7.76-.65.6-15.78v-.15L121,697.44Zm7.41-.24-6.81.22v-5.45l7,.14Zm-6.81,6.48v-5.66l6.78-.22-.2,5.33Zm7.16-15.66-.13,3.49-7-.14v-9.41Z"/><polygon class="cls-35" points="90.84 779.59 90.24 779.59 90.24 714.21 96.22 714.21 96.22 711.22 101.54 711.22 100.95 707.04 105.77 707.04 105.77 702.29 113.81 701.67 113.85 702.26 106.36 702.84 106.36 707.64 101.63 707.64 102.23 711.82 96.81 711.82 96.81 714.8 90.84 714.8 90.84 779.59"/><rect class="cls-36" x="127.86" y="729.73" width="5.37" height="7.17"/><rect class="cls-36" x="122.49" y="738.09" width="5.37" height="6.57"/><rect class="cls-10" x="145.18" y="645.54" width="7.17" height="16.72"/><rect class="cls-10" x="154.13" y="644.35" width="6.57" height="21.5"/><rect class="cls-35" x="115.92" y="690.92" width="1.19" height="34.63"/><rect class="cls-35" x="108.16" y="713.01" width="1.19" height="40.6"/><rect class="cls-35" x="103.98" y="716.6" width="1.19" height="33.44"/><rect class="cls-35" x="99.8" y="720.18" width="1.19" height="29.85"/><path class="cls-36" d="M115.92,758.39S135,769.74,135,769.14s-2.39-23.29-2.39-23.29Z"/><polyline class="cls-10" points="147.56 702.27 146.97 698.09 133.83 707.64 133.83 710.03 140.4 710.03 147.56 702.86"/><polygon class="cls-10" points="133.83 702.27 135.62 702.27 145.77 695.7 145.77 693.91 133.83 702.27"/><path class="cls-10" d="M132,690.32h1.19v-.59h12v-1.2s-13.14-.59-13.14,0Z"/><polygon class="cls-10" points="142.19 710.03 147.56 710.03 148.76 705.25 142.19 710.03"/><polygon class="cls-6" points="150.25 784.37 212.35 784.37 212.05 692.12 195.93 686.14 195.93 698.68 188.17 698.68 188.17 716 181 717.19 181 661.66 149.95 661.66 150.25 784.37"/><rect class="cls-37" x="151.15" y="663.46" width="28.06" height="1.79"/><rect class="cls-38" x="151.74" y="671.22" width="28.06" height="4.78"/><rect class="cls-38" x="151.74" y="686.74" width="28.06" height="4.78"/><rect class="cls-37" x="198.91" y="721.97" width="11.34" height="1.19"/><rect class="cls-37" x="198.32" y="724.36" width="11.94" height="1.19"/><rect class="cls-37" x="191.75" y="727.34" width="18.51" height="0.6"/><rect class="cls-37" x="189.96" y="729.73" width="20.3" height="0.6"/><rect class="cls-37" x="191.15" y="732.72" width="19.7" height="0.6"/><rect class="cls-37" x="187.57" y="717.79" width="1.19" height="65.68"/><path class="cls-37" d="M210,750.93H192.05V735.4H210Zm-17.32-.6h16.72V736H192.64Z"/><path class="cls-37" d="M201,695.4a2.11,2.11,0,1,1,2.39-2.09A2.26,2.26,0,0,1,201,695.4Zm0-3.58a1.52,1.52,0,1,0,1.79,1.49A1.67,1.67,0,0,0,201,691.82Z"/><path class="cls-39" d="M173.87,743.76H160.22l5.2-10.4Zm-12.69-.59h11.43l-7.07-8.71Z"/><path class="cls-37" d="M204.28,746.15h-9.45l4-7.42Zm-8.45-.6h7.27L199,739.84Z"/><polygon class="cls-40" points="154.13 726.75 179.21 718.99 154.13 709.43 154.13 726.75"/><path class="cls-4" d="M922.88,784.37h111.65l-4.18-113.45-14.33-.6-.59-27.46h-6.57v-7.17H985.57l.6,34H967.66V613.6H940.19c-.59,0,0,63.29,0,63.29H923.48Z"/><polygon class="cls-1" points="989.16 670.32 1008.26 670.32 1007.66 644.65 988.56 644.65 989.16 670.32"/><polygon class="cls-1" points="989.16 642.86 1007.07 643.45 1007.07 639.27 988.56 637.48 989.16 642.86"/><polygon class="cls-5" points="975.39 687.27 974.84 697.19 990.83 697.19 975.39 687.27"/><path class="cls-5" d="M966.77,675.4v26.87l37.61-1.2Zm8.08,10.81,18,11.58H974.21Z"/><polygon class="cls-1" points="971.44 784.37 1004.08 784.37 1003.78 756.6 970.95 743.47 971.44 784.37"/><polygon class="cls-2" points="942.88 714.8 942.88 783.47 966.27 784.37 966.17 736.3 955.42 715.4 942.88 714.8"/><polygon class="cls-6" points="923.28 769.84 938.7 769.74 938.7 741.08 963.78 740.48 963.28 784.37 922.58 784.07 923.28 769.84"/><polygon class="cls-7" points="1004.08 784.37 1098.42 784.37 1094.84 638.08 1076.03 637.78 1071.85 569.71 1047.97 591.21 1049.76 689.73 1043.79 689.13 1004.38 717.19 1004.08 784.37"/><polygon class="cls-8" points="1052.15 601.36 1070.06 589.42 1070.06 576.88 1052.15 593.6 1052.15 601.36"/><path class="cls-8" d="M1070.06,595.39l-18.51,11.94,2.39,49,18.51-17.91Zm-13.73,50.75-1.2-38.21,1.2-.6,1.19,38.21Zm4.18-4.18-1.2-37s1.2-.6,1.2,0,1.19,36.42,1.19,36.42Zm6-6.57-1.2,1.2V603.15h1.2Z"/><path class="cls-35" d="M1059.6,691.22h-12.41L1060.25,703Zm-10.85.6H1059l.54,9.74Z"/><path class="cls-35" d="M1049.46,714.21h0v6.89l7.75-.65.61-15.78v-.15l-8.37-7.08Zm7.41-.24-6.81.22v-5.45l7,.14Zm-6.81,6.48v-5.66l6.78-.22-.2,5.33Zm7.16-15.66-.14,3.49-7-.14v-9.41Z"/><polygon class="cls-35" points="1019.31 779.59 1018.71 779.59 1018.71 714.21 1024.68 714.21 1024.68 711.22 1030.01 711.22 1029.41 707.04 1034.24 707.04 1034.24 702.29 1042.27 701.67 1042.32 702.26 1034.83 702.84 1034.83 707.64 1030.1 707.64 1030.7 711.82 1025.28 711.82 1025.28 714.8 1019.31 714.8 1019.31 779.59"/><rect class="cls-36" x="1056.33" y="729.73" width="5.37" height="7.17"/><rect class="cls-36" x="1050.95" y="738.09" width="5.37" height="6.57"/><rect class="cls-10" x="1073.64" y="645.54" width="7.17" height="16.72"/><rect class="cls-10" x="1082.6" y="644.35" width="6.57" height="21.5"/><rect class="cls-35" x="1044.39" y="690.92" width="1.19" height="34.63"/><rect class="cls-35" x="1036.62" y="713.01" width="1.19" height="40.6"/><rect class="cls-35" x="1032.44" y="716.6" width="1.19" height="33.44"/><rect class="cls-35" x="1028.26" y="720.18" width="1.19" height="29.85"/><path class="cls-36" d="M1044.39,758.39s19.1,11.35,19.1,10.75-2.39-23.29-2.39-23.29Z"/><polyline class="cls-10" points="1076.03 702.27 1075.43 698.09 1062.3 707.64 1062.3 710.03 1068.87 710.03 1076.03 702.86"/><polygon class="cls-10" points="1062.3 702.27 1064.09 702.27 1074.24 695.7 1074.24 693.91 1062.3 702.27"/><path class="cls-10" d="M1060.51,690.32h1.19v-.59h11.94v-1.2s-13.13-.59-13.13,0Z"/><polygon class="cls-10" points="1070.66 710.03 1076.03 710.03 1077.23 705.25 1070.66 710.03"/><polygon class="cls-6" points="1067.97 784.37 1130.07 784.37 1129.77 692.12 1113.65 686.14 1113.65 698.68 1105.89 698.68 1105.89 716 1098.72 717.19 1098.72 661.66 1067.67 661.66 1067.97 784.37"/><rect class="cls-37" x="1068.87" y="663.46" width="28.06" height="1.79"/><rect class="cls-38" x="1069.46" y="671.22" width="28.06" height="4.78"/><rect class="cls-38" x="1069.46" y="686.74" width="28.06" height="4.78"/><rect class="cls-37" x="1116.63" y="721.97" width="11.34" height="1.19"/><rect class="cls-37" x="1116.04" y="724.36" width="11.94" height="1.19"/><rect class="cls-37" x="1109.47" y="727.34" width="18.51" height="0.6"/><rect class="cls-37" x="1107.68" y="729.73" width="20.3" height="0.6"/><rect class="cls-37" x="1108.87" y="732.72" width="19.7" height="0.6"/><rect class="cls-37" x="1105.29" y="717.79" width="1.19" height="65.68"/><path class="cls-37" d="M1127.68,750.93h-17.91V735.4h17.91Zm-17.32-.6h16.72V736h-16.72Z"/><path class="cls-37" d="M1118.72,695.4a2.11,2.11,0,1,1,2.39-2.09A2.26,2.26,0,0,1,1118.72,695.4Zm0-3.58a1.52,1.52,0,1,0,1.79,1.49A1.67,1.67,0,0,0,1118.72,691.82Z"/><path class="cls-39" d="M1091.59,743.76h-13.65l5.2-10.4Zm-12.69-.59h11.43l-7.07-8.71Z"/><path class="cls-37" d="M1122,746.15h-9.45l4-7.42Zm-8.45-.6h7.27l-4.15-5.71Z"/><polygon class="cls-40" points="1071.85 726.75 1096.93 718.99 1071.85 709.43 1071.85 726.75"/><path class="cls-41" d="M647,784.37V769.44l6.65-.47-.08-6.7h21.5v3h7.76s0-5.18,0-6.57h23.29v25.68Z"/><rect class="cls-42" x="685.8" y="764.66" width="7.17" height="5.37"/><rect class="cls-42" x="694.16" y="764.66" width="7.17" height="5.37"/><path class="cls-42" d="M654.16,767.65v9.55h17.31v-9.55Zm15.52,7.76H656v-6h13.73Z"/><rect class="cls-43" x="680.43" y="755.11" width="27.47" height="5.97"/></g><path class="cls-44" d="M-35,844.81S26.64,636.28,371.89,684.15c358.84,49.76,1149.49-38,1309.32,5,150.58,40.52,294.08,58.14,293.74,68.38L1976,977-35,977.3Z"/><path class="cls-45" d="M107.46,823.94a10.23,10.23,0,0,0-1,4.81c0,7.43-4.91,10.67-5.11,10.81a1.41,1.41,0,0,1-1.06.13c-.36-.1-.59-.32-.59-.57a50.57,50.57,0,0,0-1.6-11.3,12.06,12.06,0,0,0-1.16-3.18,3.43,3.43,0,0,0-.14,1c0,7.57-2.27,14.13-6.56,19-2.57,2.89-3,3.21-4,2.91s-1.16-.37,3.28-7.28c.77-1.2,1.54-2.39,2.18-3.43,1.79-2.89,1.49-3.17.22-4.37a15.49,15.49,0,0,1-3.46-4.53c-.57-1.1-1-2-1.36-2.58a6.59,6.59,0,0,1-1.87,1.79c-3.08,2-12.61,13.22-12.71,13.33a1.24,1.24,0,0,1-1.08.31c-.43-.07-.73-.32-.73-.61s.14-2.39,5-7.57c3.6-3.87,1.42-5.74.57-6.27a53.51,53.51,0,0,0-13.65,4c-4.3,2.08-14.1,12.12-18.6,17.34A5.69,5.69,0,0,1,41.77,851a1.75,1.75,0,0,1-1.32.3.89.89,0,0,1-.7-.52c-.11-.41.85-1.79,2.43-3.66.2-.63.38-1.34.57-2.1a42.88,42.88,0,0,1,5.49-13.35c2.87-4.63,8.93-10.07,21.44-9.73h.38a46.41,46.41,0,0,0,7.34-1.45c5.49-1.31,12.35-3,18.09-3a16.32,16.32,0,0,1,7.36,1.42C107.81,821.49,108.41,821.9,107.46,823.94Z"/><path class="cls-46" d="M106.81,801.08c-1.19-.26-1.83,1.11-3,3.58-.27.58-.54,1.17-.81,1.71a32.07,32.07,0,0,0-1.46,4c-.81,2.53-2,6.35-3.24,6.86a.47.47,0,0,1-.44,0,11.84,11.84,0,0,0-2.06-.74c-2.6-.75-5.07-1.47-3.86-11.16,1.65-13.19,1.63-18-1.7-24.69-1.7-3.4-1.73-3.47-2.61-3.14s-.68,1.07-.4,2.2a33,33,0,0,1,1.18,7.81c0,17.69-.7,22.53-1.29,23.42-1,.28-5.67-1.4-9.58-4-2.6-1.76-3.29-2.92-3.29-3.29,0-3.13,1.59-17.46,1.6-17.6a1,1,0,0,0-1.68-.74c-.48.54-11.67,13.5-6.54,22,1.32,2.21,2.76,4.29,4,6.12,1.43,2.07,3.19,4.61,3.36,5.54a5.46,5.46,0,0,1-1.5-.22c-6.06-1.51-7.53-2.88-10.7-7.64-1.08-1.62-2.3-2.45-3.45-2.35a2.11,2.11,0,0,0-1.75,1.36c-.72,1.7-.19,5.37,3.64,10.17,6.73,8.41,15,8.41,21.68,8.41a164.74,164.74,0,0,0,17.84-1.62,1,1,0,0,0,.55-.27c3.46-3.46,6.72-15.11,6.72-21.61C108.08,802.6,107.89,801.32,106.81,801.08Z"/><path class="cls-45" d="M1421.26,794.62a10.29,10.29,0,0,0-1,4.82c0,7.43-4.9,10.67-5.11,10.8a1.39,1.39,0,0,1-1,.14c-.36-.1-.59-.32-.59-.58a50.71,50.71,0,0,0-1.6-11.3,12.48,12.48,0,0,0-1.16-3.17,3.43,3.43,0,0,0-.14,1c0,7.57-2.27,14.12-6.57,19-2.56,2.88-3,3.21-4,2.9s-1.15-.36,3.28-7.27c.78-1.2,1.55-2.4,2.19-3.43,1.79-2.89,1.49-3.17.22-4.37a15.78,15.78,0,0,1-3.46-4.53c-.57-1.1-1-2-1.36-2.58a6.71,6.71,0,0,1-1.87,1.78c-3.08,2-12.61,13.23-12.71,13.34a1.22,1.22,0,0,1-1.09.3c-.42-.07-.72-.31-.72-.6s.14-2.39,5-7.58c3.61-3.87,1.43-5.73.58-6.26a53.08,53.08,0,0,0-13.65,4c-4.3,2.08-14.1,12.12-18.6,17.33a5.73,5.73,0,0,1-2.22,3.35,1.78,1.78,0,0,1-1.33.3.89.89,0,0,1-.69-.52c-.11-.41.85-1.79,2.43-3.67.19-.62.37-1.33.57-2.1a43.11,43.11,0,0,1,5.48-13.34c2.88-4.63,8.94-10.07,21.45-9.73h.37a46.26,46.26,0,0,0,7.35-1.45c5.49-1.31,12.35-2.95,18.08-2.95a16.29,16.29,0,0,1,7.36,1.42C1421.61,792.18,1422.21,792.59,1421.26,794.62Z"/><path class="cls-46" d="M1420.61,771.77c-1.19-.26-1.83,1.1-3,3.58-.26.57-.53,1.17-.8,1.71a31.49,31.49,0,0,0-1.46,4c-.81,2.52-2,6.34-3.24,6.85a.46.46,0,0,1-.45,0,12.57,12.57,0,0,0-2-.73c-2.61-.76-5.07-1.47-3.86-11.16,1.65-13.19,1.63-18-1.7-24.69-1.7-3.4-1.74-3.47-2.62-3.14s-.67,1.07-.39,2.2a33.51,33.51,0,0,1,1.18,7.81c0,17.68-.7,22.53-1.3,23.42-1,.28-5.66-1.4-9.57-4-2.6-1.76-3.29-2.92-3.29-3.3,0-3.13,1.58-17.45,1.6-17.59a1,1,0,0,0-.57-1,1,1,0,0,0-1.12.24c-.48.55-11.67,13.51-6.53,22.06,1.32,2.21,2.76,4.29,4,6.12,1.43,2.07,3.19,4.61,3.35,5.54a5.41,5.41,0,0,1-1.49-.22c-6.06-1.51-7.53-2.89-10.7-7.64-1.08-1.63-2.3-2.45-3.46-2.35a2.09,2.09,0,0,0-1.74,1.36c-.72,1.69-.2,5.37,3.64,10.17,6.73,8.41,15,8.41,21.68,8.41a165,165,0,0,0,17.84-1.62.93.93,0,0,0,.54-.27c3.47-3.46,6.72-15.11,6.72-21.61C1421.87,773.28,1421.68,772,1420.61,771.77Z"/><path class="cls-45" d="M324.81,921.1c-.74.1-1.15-.41-1.86-1.33l-.51-.63a10.18,10.18,0,0,1-.91-1.5c-.51-.93-1.27-2.35-2-2.54a.47.47,0,0,0-.28,0c-.42.12-.86.19-1.29.27-1.63.28-3.17.54-2.42,4.14,1,4.89,1,6.69-1.06,9.16-1.07,1.26-1.09,1.29-1.64,1.17s-.43-.4-.25-.82a7.89,7.89,0,0,0,.74-2.9c0-6.56-.44-8.36-.81-8.69a19.88,19.88,0,0,0-6,1.5c-1.64.65-2.07,1.08-2.07,1.22,0,1.16,1,6.48,1,6.53s-.12.31-.36.37a1,1,0,0,1-.7-.09c-.3-.21-7.31-5-4.1-8.19.83-.82,1.73-1.59,2.53-2.27a10.59,10.59,0,0,0,2.1-2.06,7.43,7.43,0,0,0-.94.08c-3.79.57-4.71,1.08-6.7,2.84a3.08,3.08,0,0,1-2.17.87,1.4,1.4,0,0,1-1.09-.5c-.45-.63-.12-2,2.28-3.78,4.22-3.12,9.42-3.12,13.59-3.12s10.89.58,11.18.6a.85.85,0,0,1,.34.1c2.17,1.29,4.22,5.61,4.22,8C325.61,920.54,325.49,921,324.81,921.1Z"/><path class="cls-46" d="M325.05,911.14a14.6,14.6,0,0,1-.65-4.69c0-7.23-3.08-10.38-3.21-10.51a.58.58,0,0,0-.66-.13.6.6,0,0,0-.37.55,75.16,75.16,0,0,1-1,11,16.65,16.65,0,0,1-.73,3.09,5.17,5.17,0,0,1-.09-1c0-7.37-1.42-13.75-4.11-18.46-1.61-2.81-1.89-3.13-2.5-2.83s-.72.36,2.06,7.08c.48,1.16,1,2.33,1.37,3.34,1.12,2.81.93,3.09.14,4.25a15.87,15.87,0,0,0-2.17,4.41c-.36,1.07-.64,1.93-.85,2.51a6.1,6.1,0,0,0-1.17-1.74c-1.94-1.93-7.91-12.86-8-13a.59.59,0,0,0-.68-.3.61.61,0,0,0-.46.59c0,.22.09,2.33,3.11,7.37,2.26,3.76.9,5.58.37,6.09a24.66,24.66,0,0,1-8.56-3.86c-2.7-2-8.84-11.79-11.66-16.87a6.21,6.21,0,0,0-1.39-3.25.84.84,0,0,0-.83-.3.69.69,0,0,0-.44.52,11.3,11.3,0,0,0,1.53,3.56c.12.61.23,1.29.35,2a57.72,57.72,0,0,0,3.44,13c1.8,4.5,5.6,9.8,13.44,9.47h.24a20,20,0,0,1,4.6,1.41c3.45,1.27,7.74,2.87,11.34,2.87a7.16,7.16,0,0,0,4.61-1.39C325.26,913.51,325.64,913.12,325.05,911.14Z"/><path class="cls-45" d="M941.41,795.48c-.75.09-1.15-.41-1.87-1.33l-.5-.64a9.5,9.5,0,0,1-.92-1.49c-.5-.94-1.27-2.35-2-2.54a.45.45,0,0,0-.28,0,12.43,12.43,0,0,1-1.29.28c-1.64.28-3.18.54-2.42,4.14,1,4.89,1,6.69-1.07,9.16-1.06,1.26-1.09,1.29-1.64,1.17s-.42-.4-.24-.82a7.89,7.89,0,0,0,.74-2.9c0-6.56-.45-8.36-.82-8.69a20,20,0,0,0-6,1.5c-1.63.65-2.06,1.08-2.06,1.22,0,1.16,1,6.48,1,6.53s-.11.3-.35.37a.91.91,0,0,1-.7-.1c-.3-.2-7.32-5-4.1-8.18.83-.82,1.73-1.59,2.52-2.27a10.73,10.73,0,0,0,2.11-2.06,5.82,5.82,0,0,0-.94.08c-3.8.56-4.72,1.07-6.71,2.84a3.06,3.06,0,0,1-2.16.87,1.45,1.45,0,0,1-1.1-.5c-.45-.63-.12-2,2.29-3.78,4.22-3.12,9.41-3.12,13.59-3.12,4,0,10.89.58,11.18.6a.85.85,0,0,1,.34.1c2.17,1.29,4.21,5.61,4.21,8C942.2,794.91,942.08,795.39,941.41,795.48Z"/><path class="cls-46" d="M941.64,785.51a14.47,14.47,0,0,1-.65-4.68c0-7.23-3.07-10.38-3.2-10.52a.61.61,0,0,0-1,.43,75.16,75.16,0,0,1-1,11,17,17,0,0,1-.72,3.09,5.17,5.17,0,0,1-.09-1c0-7.37-1.42-13.75-4.12-18.46-1.6-2.81-1.88-3.13-2.49-2.83s-.73.35,2.06,7.07c.48,1.17,1,2.34,1.36,3.35,1.13,2.81.94,3.08.14,4.25a16.17,16.17,0,0,0-2.17,4.41c-.35,1.07-.64,1.93-.85,2.51a5.9,5.9,0,0,0-1.17-1.74c-1.93-1.93-7.91-12.87-8-13a.6.6,0,0,0-1.13.29c0,.23.08,2.33,3.11,7.38,2.26,3.76.89,5.58.36,6.09a24.94,24.94,0,0,1-8.56-3.86c-2.69-2-8.83-11.79-11.66-16.87a6.17,6.17,0,0,0-1.39-3.25.83.83,0,0,0-.83-.3.7.7,0,0,0-.43.51c-.07.4.53,1.74,1.52,3.57q.18.91.36,2a57.32,57.32,0,0,0,3.44,13c1.8,4.5,5.6,9.79,13.44,9.47h.23a20.54,20.54,0,0,1,4.61,1.4c3.44,1.28,7.74,2.87,11.33,2.87a7.2,7.2,0,0,0,4.62-1.38C941.86,787.89,942.23,787.5,941.64,785.51Z"/><path class="cls-45" d="M1482.63,943.08c-.75.1-1.15-.41-1.86-1.33l-.51-.63a9.5,9.5,0,0,1-.92-1.49c-.5-.94-1.27-2.36-2-2.55a.57.57,0,0,0-.28,0,11.37,11.37,0,0,1-1.29.27c-1.63.28-3.18.55-2.42,4.14,1,4.9,1,6.69-1.07,9.17-1.06,1.26-1.08,1.28-1.64,1.16s-.42-.39-.24-.81a7.89,7.89,0,0,0,.74-2.9c0-6.57-.44-8.36-.81-8.69a19.5,19.5,0,0,0-6,1.49c-1.63.65-2.06,1.09-2.06,1.22,0,1.17,1,6.48,1,6.53s-.11.31-.35.37a.87.87,0,0,1-.7-.09c-.3-.2-7.32-5-4.1-8.18.83-.83,1.73-1.6,2.53-2.28a10.93,10.93,0,0,0,2.1-2,4.78,4.78,0,0,0-.94.08c-3.8.56-4.71,1.07-6.7,2.84a3.12,3.12,0,0,1-2.17.87,1.4,1.4,0,0,1-1.09-.51c-.45-.63-.13-2,2.28-3.77,4.22-3.12,9.41-3.12,13.59-3.12,4,0,10.89.57,11.18.6a.72.72,0,0,1,.34.1c2.17,1.28,4.21,5.6,4.21,8C1483.42,942.52,1483.3,943,1482.63,943.08Z"/><path class="cls-46" d="M1482.86,933.12a14.58,14.58,0,0,1-.65-4.68c0-7.23-3.07-10.39-3.2-10.52a.62.62,0,0,0-.66-.13.59.59,0,0,0-.37.56,76.85,76.85,0,0,1-1,11,17.36,17.36,0,0,1-.73,3.08,5,5,0,0,1-.09-1c0-7.36-1.42-13.74-4.11-18.46-1.61-2.81-1.89-3.12-2.5-2.83s-.72.36,2.06,7.08c.48,1.17,1,2.33,1.37,3.34,1.12,2.81.93,3.09.13,4.26a16.07,16.07,0,0,0-2.16,4.41c-.36,1.06-.65,1.92-.86,2.5a5.87,5.87,0,0,0-1.17-1.73c-1.93-1.94-7.9-12.87-8-13a.64.64,0,0,0-.69-.3.61.61,0,0,0-.45.59c0,.22.09,2.33,3.11,7.37,2.26,3.77.89,5.59.36,6.1a25,25,0,0,1-8.56-3.87c-2.69-2-8.83-11.79-11.65-16.86a6.37,6.37,0,0,0-1.39-3.26.85.85,0,0,0-.83-.29.69.69,0,0,0-.44.51c-.07.4.53,1.74,1.53,3.56.12.61.23,1.3.35,2a57.13,57.13,0,0,0,3.44,13c1.8,4.51,5.6,9.8,13.44,9.47h.24a20.69,20.69,0,0,1,4.6,1.41c3.44,1.28,7.74,2.87,11.33,2.87A7.26,7.26,0,0,0,1480,938C1483.08,935.5,1483.46,935.1,1482.86,933.12Z"/><path class="cls-45" d="M1813.74,853.5s13.38-2.84,17.4-1.7,5.35,9.09,5.35,15.34-2.67,10.8,4,10.8,24.09-.57,28.11,4.54,4,18.19,2.67,20.46-4,2.84-9.37,2.27-6.69-1.13-6.69-6.82,2.68-9.09-1.34-10.79-10.71-4-13.38-1.71-4,18.19-4,26.71-1.34,15.34-4,16.48-13.39.57-12-2.84,0-21-1.34-22.73-6.69-1.71-6.69,2.27,1.34,9.09-1.34,10.23-9.37,0-9.37-4-1.34-11.36,2.68-14.2,10-3.13,11.38-2.56,6.69-10.23,1.33-11.37-13.38-2.27-17.4,2.84,1.34,18.76-4,19.89-13.39,1.14-14.72-5.11-1.34-17,5.35-21,20.08-4.54,22.75-5.11,4-2.84,4-6.25S1811.73,855.49,1813.74,853.5Z"/><path class="cls-47" d="M1811.64,864.35s13.39,6.69,17.4,4,5.36-21.41,5.36-36.14-2.68-25.43,4-25.43,24.1,1.34,28.11-10.7,4-42.83,2.68-48.19-4-6.69-9.37-5.35-6.69,2.67-6.69,16.06,2.67,21.41-1.34,25.43-10.71,9.37-13.39,4-4-42.83-4-62.9-1.34-36.14-4-38.82-13.38-1.34-12,6.69,0,49.53-1.34,53.54-6.69,4-6.69-5.35,1.33-21.42-1.34-24.09-9.37,0-9.37,9.37-1.34,26.77,2.68,33.46,10,7.36,11.37,6,6.69,24.09,1.34,26.77-13.38,5.35-17.4-6.69,1.34-44.17-4-46.85-13.39-2.68-14.73,12-1.34,40.15,5.36,49.52,20.07,10.71,22.75,12.05,4,6.69,4,14.72S1809.64,859.66,1811.64,864.35Z"/><path class="cls-48" d="M1855.81,794.75s5.36,1.34,6.7-20.08-1.34-28.11-4-28.11-4.68,7.36-6,19.41a192.22,192.22,0,0,0-1.34,24.09C1851.13,795.42,1852.47,794.08,1855.81,794.75Z"/><path class="cls-48" d="M1808.3,757.94s-2.68-13.38-1.34-21.42,1.34-12-1.34-13.38-4-1.34-5.35,6.69-2.68,25.43,0,29.45S1811,766,1808.3,757.94Z"/><path class="cls-48" d="M1827,691s1.34,105.73,2.67,111.09,2.68,4,0,10.71-1.33,28.1-2.67,36.13,0,17.4-2.68,17.4-13.38,1.34-12-25.43-4-25.43,1.34-29.44,1.34-12.05,1.34-12.05,2.68-30.78,1.34-32.12,8-8,5.35-9.37-6.69,0-5.35-13.38,2.68-50.87,5.35-52.2A13.35,13.35,0,0,1,1827,691Z"/><path class="cls-48" d="M1793.58,798.09s-6.7-13.38-5.36-25.43,2.68-29.44,1.34-29.44-8-1.34-9.37,6.69,0,50.86,2.68,52.2S1797.59,811.48,1793.58,798.09Z"/></svg>