<?xml version="1.0" encoding="utf-8"?>
<!-- Generator: Adobe Illustrator 22.1.0, SVG Export Plug-In . SVG Version: 6.00 Build 0)  -->
<svg version="1.1" id="圖層_1" xmlns="http://www.w3.org/2000/svg" xmlns:xlink="http://www.w3.org/1999/xlink" x="0px" y="0px"
	 viewBox="0 0 1970 971" style="enable-background:new 0 0 1970 971;" xml:space="preserve">
<style type="text/css">
	.st0{fill:#4D9CDE;}
	.st1{fill:#C3E5FF;}
	.st2{opacity:0.6;}
	.st3{fill:#B6DBF8;}
	.st4{fill:#C995B7;}
	.st5{fill:#96BDE9;}
	.st6{fill:#B8BBD6;}
	.st7{fill:#A1D6FF;}
	.st8{fill:#9EA5D8;}
	.st9{fill:#8288B8;}
	.st10{fill:#B1B5DC;}
	.st11{fill:#C9C6E5;}
	.st12{fill:#7CB9EA;}
	.st13{fill:#B2DAFB;}
	.st14{fill:#DFCF7D;}
	.st15{fill:#3D9AE6;}
	.st16{fill:#D5ECFA;}
	.st17{fill:#A0DCFF;}
	.st18{fill:#51A5D6;}
	.st19{fill:#97ADE6;}
	.st20{fill:#5996C6;}
	.st21{fill:#549BDD;}
	.st22{fill:#AAD7FA;}
	.st23{fill:#7EB3EB;}
	.st24{fill:#D6F3FF;}
	.st25{fill:#917D90;}
	.st26{fill:#5086C5;}
	.st27{fill:#71B5F4;}
	.st28{fill:#1275B5;}
	.st29{fill:#B6D7FA;}
	.st30{fill:#7CBAEB;}
	.st31{fill:#FFFFFF;}
	.st32{fill:#0066A7;}
	.st33{fill:#98D4FA;}
	.st34{fill:#A36464;}
	.st35{fill:#B2A0B2;}
	.st36{fill:#558BCB;}
	.st37{fill:#FFFBEE;}
	.st38{fill:#83ABDB;}
	.st39{fill:#CBAB55;}
	.st40{fill:#AEDAFE;}
	.st41{fill:#D3F1FE;}
	.st42{fill:#D5F2FE;}
	.st43{fill:#ECDED9;}
	.st44{opacity:0.7;fill:#B2A3B2;enable-background:new    ;}
	.st45{fill:#637965;}
	.st46{fill:#83AAA3;}
	.st47{fill:#5B7566;}
</style>
<title>act_v1</title>
<circle class="st0" cx="1957.6" cy="576" r="12.6"/>
<circle class="st0" cx="1659.1" cy="559.2" r="12.6"/>
<path class="st0" d="M1941.5,679.7c-6.8-1.6-13.6,2.6-15.2,9.4c-1.6,6.8,2.6,13.6,9.4,15.2c6.8,1.6,13.6-2.6,15.2-9.4
	C1952.5,688.1,1948.3,681.3,1941.5,679.7C1941.5,679.7,1941.5,679.7,1941.5,679.7z"/>
<path class="st0" d="M1959.2,634.2c-5.1-1.2-10.4,0.9-13.3,5.2c7.2-35.2,0.8-71.8-17.8-102.5c6.6,2.4,13.8-1,16.2-7.6
	c2.4-6.6-1-13.8-7.6-16.2s-13.8,1-16.2,7.6c-0.5,1.3-0.7,2.6-0.7,4c-8-10.5-17.3-19.8-27.8-27.7h0.3c7,0,12.7-5.7,12.7-12.6
	c0-7-5.7-12.7-12.6-12.7c-7,0-12.7,5.7-12.7,12.6c0,1.7,0.3,3.4,1,5c-11.8-7.2-24.5-12.6-37.9-16.1c7-0.6,12.1-6.7,11.5-13.7
	c-0.6-7-6.7-12.1-13.7-11.5c-7,0.6-12.1,6.7-11.5,13.7c0.3,4,2.6,7.6,6,9.7c-9.4-1.9-19-2.9-28.7-2.9c-4.8,0-9.6,0.2-14.3,0.7
	c6.4-2.8,9.4-10.2,6.6-16.6c-2.8-6.4-10.2-9.4-16.6-6.6c-6.4,2.8-9.4,10.2-6.6,16.6c1.7,4,5.3,6.8,9.6,7.5
	c-14.4,2.2-28.4,6.6-41.5,13c4.2-5.6,3.1-13.5-2.4-17.7c-5.6-4.2-13.5-3.1-17.7,2.4c-4.2,5.6-3.1,13.5,2.4,17.7
	c2.2,1.7,4.9,2.6,7.6,2.6h0.8c-12.4,7.3-23.6,16.4-33.3,27c2.7-6.4-0.2-13.8-6.7-16.6c-6.4-2.7-13.8,0.2-16.6,6.7s0.2,13.8,6.7,16.6
	c3.8,1.6,8.1,1.3,11.6-0.9c-19.4,23.7-30.6,53.2-31.9,83.8c-1.6-6.8-8.3-11.1-15.1-9.5c-6.8,1.6-11.1,8.3-9.5,15.1
	c1.6,6.8,8.3,11.1,15.1,9.5c4.5-1,8.1-4.5,9.4-9c0,13.7,2,27.4,5.9,40.6c-0.7-0.3-1.5-0.6-2.2-0.8c-6.8-1.6-13.6,2.6-15.2,9.4
	c-1.6,6.8,2.6,13.6,9.4,15.2c5.8,1.3,11.7-1.5,14.3-6.8c4.9,11,11.1,21.2,18.5,30.6c-7-0.1-12.8,5.5-12.9,12.5
	c-0.1,7,5.5,12.8,12.5,12.9c6.6,0.1,12.2-5,12.8-11.6c8.5,8.2,17.9,15.4,28.2,21.3c-6.8,1.7-10.9,8.6-9.2,15.3s8.6,10.9,15.3,9.2
	c6.8-1.7,10.9-8.6,9.2-15.3c-0.2-0.6-0.4-1.2-0.6-1.8c10.8,4.6,22.1,7.9,33.6,9.8c-5.8,3.9-7.3,11.8-3.3,17.6
	c3.9,5.8,11.8,7.3,17.6,3.3c5.8-3.9,7.3-11.8,3.3-17.6c-0.4-0.6-0.9-1.2-1.4-1.7c2.2,0.1,4.3,0.2,6.5,0.2c10.1,0,20.1-1.1,29.9-3.2
	c-3.7,5.9-1.8,13.7,4.1,17.4s13.7,1.8,17.4-4.1s1.8-13.7-4.1-17.4c-0.3-0.2-0.6-0.3-0.9-0.5c2.5-0.9,4.9-1.8,7.3-2.8l0.2,0.5l2.3-1
	l-0.2-0.5c8.2-3.5,16.1-7.8,23.6-12.8c-0.1,0.4-0.2,0.8-0.3,1.2c-1.6,6.8,2.6,13.6,9.4,15.2c6.8,1.6,13.6-2.6,15.2-9.4
	c1.6-6.8-2.6-13.6-9.4-15.2c-0.7-0.2-1.4-0.3-2.1-0.3l1.5-1.5l-0.5-0.5c21.3-18.5,36.7-42.9,44.1-70.2c0.9,6.9,7.3,11.8,14.2,10.8
	s11.8-7.3,10.8-14.2C1968.2,639.6,1964.3,635.4,1959.2,634.2L1959.2,634.2z M1675,610.8c0-72.5,58.9-131.3,131.4-131.3
	c72.5,0,131.3,58.9,131.3,131.4c0,11-1.4,22-4.1,32.7l-6.2-0.9c2.7-10.4,4.1-21.2,4.1-32c0-2.9-0.1-5.8-0.3-8.7l3-0.7l-0.5-2.4
	l-2.7,0.6c-6.2-68.8-67.1-119.6-135.9-113.4c-64.5,5.8-113.8,59.9-113.9,124.6c0,11.8,1.6,23.5,4.9,34.8l-3.3,0.6l0.5,2.4l3.6-0.7
	c6,19.4,16.7,37,31.1,51.4c4,4.1,8.4,7.8,12.9,11.3l-4.1,4.6C1694.1,690.3,1675,651.7,1675,610.8z M1930,610.8
	c0,10.7-1.4,21.4-4.1,31.7l-101.2-14.6c1-1,1.9-2,2.8-3.1l102.2-22.4C1929.9,605.1,1930,608,1930,610.8z M1829.4,621.8
	c1.5-2.6,2.5-5.5,3-8.5l83.1-51.4l-1.3-2.1l-81.4,50.3c0-0.5,0-1,0-1.4c0-4-0.9-8-2.7-11.6L1888,527l-1.9-1.6l-57.1,69.3
	c-1.8-2.9-4.2-5.5-7-7.5l28.8-83.9l-2.3-0.8l-28.6,83.3c-3.6-2.1-7.6-3.3-11.7-3.6V491h-2.5v91.3c-3.6,0.1-7.2,0.9-10.5,2.5
	l-28.1-83.2l-2.3,0.8l28.2,83.5c-3.4,2-6.4,4.8-8.6,8.1l-56.1-68.6l-1.9,1.6l56.6,69.3c-1.9,3.5-2.9,7.4-3.1,11.4l-78.3-47.8
	l-1.3,2.1l79.7,48.6c0.2,2.9,0.9,5.8,2,8.5l-97-17l-0.4,2.4l98.8,17.3c1,1.7,2.2,3.4,3.5,4.8l-99.2,18.6
	c-18.9-65.6,18.9-134.2,84.6-153.1s134.2,18.9,153.1,84.6c2.2,7.6,3.6,15.3,4.3,23.1L1829.4,621.8z M1806.4,635.2
	c0.9,0,1.8,0,2.6-0.1l-3.1,99.3c-12.2,0-24.3-1.9-36-5.5l36.2-93.7L1806.4,635.2z M1788.9,628.7c1.5,1.3,3.1,2.4,4.9,3.4l-86.8,49.4
	l1.2,2.2l88.4-50.2c0.7,0.3,1.5,0.6,2.3,0.8l-67,75.2c-20.6-15.6-35.8-37.1-43.5-61.8L1788.9,628.7z M1801.6,634.8
	c0.7,0.1,1.3,0.2,2,0.3l-36,93.1c-12.1-4-23.5-9.9-33.8-17.3L1801.6,634.8z M1767,729.6l-2.2,5.8c-13-4.3-25.2-10.6-36.2-18.7
	l4.1-4.6C1743.2,719.6,1754.8,725.6,1767,729.6L1767,729.6z M1769.4,730.4c11.8,3.6,24.1,5.5,36.5,5.5l-0.2,6.2
	c-13.1-0.1-26-2.1-38.5-5.9L1769.4,730.4z M1811.5,634.7c0.5-0.1,1-0.2,1.5-0.3l39.7,91c-14.1,5.7-29.1,8.8-44.2,9L1811.5,634.7z
	 M1816.4,636.1l68.2,70.3c-9,7.4-19,13.5-29.7,18.1L1816.4,636.1z M1816.9,633.1c0.6-0.2,1.1-0.5,1.7-0.8l91.2,46.2
	c-6.5,9.8-14.3,18.7-23.2,26.3L1816.9,633.1z M1821.1,630.8c0.4-0.2,0.7-0.5,1-0.7l103,14.9c-3.2,11.1-8,21.7-14.1,31.5
	L1821.1,630.8z M1926.7,645.1l6.2,0.9c-3.3,11.9-8.3,23.4-14.9,33.9l-5.5-2.8C1918.8,667.2,1923.6,656.4,1926.7,645.1L1926.7,645.1z
	 M1808.1,742.1l0.2-6.2c15.4-0.2,30.6-3.3,44.9-9l2.5,5.7C1840.6,738.7,1824.5,741.9,1808.1,742.1L1808.1,742.1z M1855.5,726
	c10.9-4.7,21-10.8,30.2-18.4l4.3,4.5c-9.7,8-20.5,14.6-32,19.6L1855.5,726z M1898.1,720.3h-0.8l0.4-0.4L1898.1,720.3z M1892,710.4
	l-4.3-4.5c2.5-2.1,4.9-4.3,7.2-6.7c6.1-6.1,11.6-12.8,16.3-20.1l5.5,2.8C1909.9,692.6,1901.6,702.2,1892,710.4z"/>
<path class="st0" d="M768,660.9v99.8h211.2v-0.3h0.4v0.3h115.9v-0.1l46.7-0.3v0.3h75.8v-0.4h10.7v0.4H1760v-0.4h0.3l-0.4-8.8
	l-0.6-127.9h-18.1c0,0,0.7-80.7,0-80.7h-29.8v71.6h-20.1l0.7-43.4h-25.3v9.1h-7.1l-0.7,35l-15.5,0.8l-1.3,41.4l-21.7-18.2l-6.4,0.9
	l1.9-125.7l-25.9-27.5l-4.5,86.8l-20.4,0.4l-0.6,30.1h-15.2V675l-7.8-1.5v-22.1h-8.4v-16l-16.8,7.3l-0.1-32.4l-42.8-2.3l-0.6,87.6
	h-13v-3.8h-3.9v-8.4h-1.3v8.4h-1.9v-6.9h-1.3v6.9h-6.8v-36.9H1421v-17.9l-15.6-15.2V675l-7.4-0.1V574.5l-25.6-0.8l0.7-56.4l-26.9-8
	l-1.5,72.5l-5.3-4.4v-16l-43.1-1.9l-1.6,166h-9.1V490.3h-2.9v-5.7h1.3v-0.8h-33.7v0.8h1.3v5.7h-3.6v28.9h-19.4v116.9h-29.5v-61.7
	l-25.6-0.8l0.7-56.4l-26.9-8l-2.2,107.8h-53.2l-9.4,17.5v24.8h-18.1v58.1l-16.8-39l-30.1-1.3l1.3-161.7L994.1,488l-3.6,86.5h-21.4
	v43.8h-10v-35.8h-5.8v-9.9H928l-1,43h-18.8v-73.1l-30.1,0.4l-1.3,83h-21.6l0.2-34.3h-37.9v84.5h-7.5l0.6-34.3l-23.3,0.8L768,660.9z
	 M1255.4,484.6v5.7h-2.6v-5.7H1255.4z M1261.9,484.6v5.7h-5.2v-5.7H1261.9z M1267.7,484.6v5.7h-4.5v-5.7H1267.7z M1274.9,484.6v5.7
	h-5.8v-5.7H1274.9z M1281.3,490.3h-5.2v-5.7h5.2V490.3z"/>
<path class="st0" d="M677.9,731v42.2H830V773h0.2v0.1h83.5l0,0l33.6-0.1v0.1h54.6V773h7.7v0.2h382.7V773h0.2l-0.3-3.7l-0.4-54.1
	h-13.1c0,0,0.5-34.1,0-34.1h-21.5v30.3h-14.5l0.5-18.3h-18.2v3.9h-5.1l-0.5,14.8l-11.2,0.3l-0.9,17.5l-15.6-7.7l-4.7,0.3l1.4-53.1
	l-18.7-11.6l-3.3,36.7l-14.7,0.2l-0.4,12.7h-11v29.9l-5.6-0.6v-9.3h-6.1v-6.8l-12.1,3.1v-13.7l-30.8-1l-0.5,37h-9.3V744h-2.8v-3.5
	h-0.9v3.5h-1.4v-2.9h-1v2.9h-4.9v-15.6h-17v-7.6l-11.2-6.4v22.5h-5.4v-42.5l-18.4-0.3l0.5-23.8l-19.3-3.4l-1.1,30.7l-3.8-1.8v-6.8
	l-31-0.8l-1.2,70.2h-6.5v-99.5h-2.1v-2.4h0.9v-0.3h-24.3v0.3h0.9v2.4h-2.6v12.2h-14v49.4h-21.3v-26.1l-18.4-0.3l0.5-23.8l-19.4-3.4
	l-1.6,45.6h-38.3l-6.8,7.4v10.5h-13.1v24.6l-12.1-16.5l-21.7-0.5l0.9-68.4l-17.7-11.6l-2.6,36.5h-15.4v18.5h-7.2v-15.1h-4.2v-4.2
	h-18.2l-0.7,18.2h-13.5v-30.9l-21.7,0.2l-0.9,35.1h-15.6l0.2-14.5h-27.3v35.8h-5.4l0.5-14.5l-16.8,0.3L677.9,731z M1028.9,656.5v2.4
	h-1.9v-2.4H1028.9z M1033.6,656.5v2.4h-3.7v-2.4H1033.6z M1037.8,656.5v2.4h-3.3v-2.4H1037.8z M1042.9,656.5v2.4h-4.2v-2.4H1042.9z
	 M1047.6,658.9h-3.7v-2.4h3.7V658.9z"/>
<path class="st0" d="M1256,731.8V774h152.1v-0.1h0.3v0.1h83.5l0,0l33.6-0.1v0.1h54.6v-0.2h7.7v0.2h382.7v-0.2h0.2l-0.3-3.7
	l-0.4-54.1h-13.1c0,0,0.5-34.1,0-34.1h-21.4v30.3H1921l0.5-18.3h-18.2v3.9h-5.1l-0.5,14.8l-11.2,0.3l-0.9,17.5l-15.6-7.7l-4.7,0.3
	l1.4-53.1l-18.7-11.6l-3.3,36.7l-14.7,0.2l-0.4,12.7h-11v29.9l-5.6-0.6v-9.3h-6.1V721l-12.1,3.1l-0.1-13.7l-30.8-1l-0.5,37h-9.3
	v-1.6h-2.8v-3.5h-0.9v3.5h-1.5V742h-0.9v2.9h-4.9v-15.7h-17v-7.6l-11.2-6.4v22.5h-5.4v-42.5l-18.4-0.3l0.5-23.8l-19.4-3.4l-1.1,30.7
	l-3.8-1.8v-6.8l-31-0.8l-1.2,70.2h-6.5v-99.5h-2.1v-2.4h0.9v-0.3h-24.2v0.3h0.9v2.4h-2.6v12.2h-14v49.4h-21.2v-26.1l-18.4-0.3
	l0.5-23.8l-19.3-3.4l-1.6,45.6h-38.3l-6.8,7.4v10.5h-13.1v24.6l-12.1-16.5l-21.7-0.5l0.9-68.4l-17.7-11.6l-2.6,36.5h-15.4v18.5h-7.2
	v-15.1h-4.2v-4.2h-18.2l-0.7,18.2H1357v-30.9l-21.7,0.2l-0.9,35.1h-15.6l0.2-14.5h-27.3v35.8h-5.4l0.5-14.5l-16.8,0.3L1256,731.8z
	 M1607,657.3v2.4h-1.9v-2.4H1607z M1611.7,657.3v2.4h-3.7v-2.4H1611.7z M1615.9,657.3v2.4h-3.3v-2.4H1615.9z M1621,657.3v2.4h-4.2
	v-2.4H1621z M1625.7,659.7h-3.7v-2.4h3.7V659.7z"/>
<path class="st1" d="M1583.1,704.8l0.6,26.9h-6.9v-66.3h-34.9l0.2,26.9h-19.9l-1.2-65.1l-27.8-0.3v57.3h-17.3l-0.9-33.7h-23.3v7.8
	h-5.4v28.1h-9.3V652h-19.7l-3.3-67.8l-22.7,21.5l1.2,126.8l-27.8,1l-15.5,30.6v-45.5h-16.7v-19.4l-8.6-13.7h-49l-2-84.5l-24.8,6.3
	l0.6,44.2l-23.6,0.6v48.4H1198v-91.6h-17.9V586h-3.3v-4.5h1.2v-0.6h-31v0.6h1.2v4.5h-2.7v184.5h-9l-1.5-130.2l-39.7,1.5v12.5l-4,2.8
	l-0.8-36.7l-25.7,9.6l0.6,21.4l-23.6,0.6v50.8l-18.2,0.3v-59l-14.3,16.9v19.8h-21.8v40.9h-6.3V714H980v7.6h-1.8v-9.3H977v9.3h-3.6
	v4.2h-11.9l-0.6-97l-39.4,2.5L921.2,798H1198v-0.3h9.8v0.3h69.9v-0.3l43,0.2v0h93.1v-0.1l14.1-0.1v0.2h194.7v-78.2l-17.9-14.3
	L1583.1,704.8z M1175.6,581.5v4.5h-2.4v-4.5L1175.6,581.5z M1172,581.5v4.5h-4.8v-4.5L1172,581.5z M1166,581.5v4.5h-4.2v-4.5
	L1166,581.5z M1160.6,581.5v4.5h-5.4v-4.5L1160.6,581.5z M1149.3,581.5h4.8v4.5h-4.8V581.5z"/>
<path class="st1" d="M903.6,699.8v12.5h-7.8v17.3l-7.2,1.2v-55.5h-14l-0.7-23.6l-18.8-0.3l-4.2-68.1l-23.9,21.5l1.9,98.5l-6-0.6
	L803,717l-1.2-32.5l-14.3-0.6l-0.6-27.5h-6.6v-7.2H757l0.6,34h-18.5v-56.1h-27.5c-0.6,0,0,63.3,0,63.3h-16.7l-0.6,100.3l-0.3,6.9
	h0.3v0.3H920l-0.3-92.2L903.6,699.8z"/>
<path class="st1" d="M1837.4,705.7l-16.1-6v12.5h-7.8v17.3l-7.2,1.2v-55.5h-3.3l-0.6-23.6l-18.8-0.3l-4.2-68.1l-23.9,21.5l1.8,98.5
	l-6-0.6l-12.4,8.9l-1-27.1l-14.3-0.6l-0.6-27.5h-6.6v-7.2h-23.3l0.6,34h-18.5v-56.1h-27.5c-0.6,0,0,63.3,0,63.3h-16.7l-0.6,100.3
	l-0.3,6.9h0.3v0.3h207.2L1837.4,705.7z"/>
<g class="st2">
	<path class="st3" d="M694.3,798H806l-4.2-113.5l-14.3-0.6l-0.6-27.5h-6.6v-7.2H757l0.6,34h-18.5v-56.1h-27.5c-0.6,0,0,63.3,0,63.3
		h-16.7L694.3,798z"/>
	<polygon class="st0" points="760.6,683.9 779.7,683.9 779.1,658.3 760,658.3 	"/>
	<polygon class="st0" points="760.6,656.5 778.5,657.1 778.5,652.9 760,651.1 	"/>
	<polygon class="st4" points="746.8,700.9 746.3,710.8 762.3,710.8 	"/>
	<path class="st4" d="M738.2,689v26.9l37.6-1.2L738.2,689z M746.3,699.8l18,11.6h-18.7L746.3,699.8z"/>
	<polygon class="st0" points="742.9,798 775.5,798 775.2,770.2 742.4,757.1 	"/>
	<polygon class="st1" points="714.3,728.4 714.3,797.1 737.7,798 737.6,749.9 726.9,729 	"/>
	<polygon class="st5" points="694.7,783.5 710.1,783.3 710.1,754.7 735.2,754.1 734.7,798 694,797.7 	"/>
	<polygon class="st3" points="1475.9,684.2 1493.2,684.2 1493.2,626.9 1521,627.2 1522.2,692.3 1555,692.3 1562.8,731.7 
		1583.7,731.7 1583.1,704.8 1604.6,705.4 1622.5,719.8 1622.5,798 1427.8,798 1427.2,686.3 1446.3,686.3 1446.3,658.3 1451.7,658.3 
		1451.7,650.5 1475,650.5 	"/>
	<polygon class="st0" points="1622.5,733.8 1619.8,733.8 1619.8,727.8 1613.8,727.8 1613.8,721.8 1606.9,721.2 1607,720.7 
		1614.4,721.3 1614.4,727.2 1620.4,727.2 1620.4,733.2 1622.5,733.2 	"/>
	<polygon class="st0" points="1587.3,720.3 1599.2,707.2 1587.9,707.2 	"/>
	<polygon class="st0" points="1590.2,745.4 1599.2,745.4 1598.6,715.6 1590.2,723.9 	"/>
	<polygon class="st4" points="1457.1,715.6 1494.1,717.4 1494.1,690.5 	"/>
	<path class="st3" d="M1469.1,712.9l18.8-11.6l-0.7,11L1469.1,712.9z M1487.2,702.4l-15.9,9.8l15.3-0.5L1487.2,702.4z"/>
	<rect x="1454.7" y="653.5" class="st0" width="17.9" height="4.8"/>
	<rect x="1454.1" y="660" class="st0" width="18.5" height="26.3"/>
	<rect x="1585.5" y="758.6" class="st0" width="6" height="9.5"/>
	<rect x="1590.2" y="769.9" class="st0" width="7.2" height="9.5"/>
	<rect x="1602.8" y="706.6" class="st0" width="1.2" height="46"/>
	<rect x="1619.5" y="745.4" class="st0" width="1.2" height="51.3"/>
	<rect x="1615.3" y="743" class="st0" width="1.2" height="51.3"/>
	<rect x="1611.1" y="741.2" class="st0" width="1.2" height="51.3"/>
	<polygon class="st6" points="1437.1,797.7 1437.1,652 1417.4,652 1414.1,584.2 1391.4,605.7 1393.2,798 	"/>
	<polygon class="st7" points="1394.4,617.1 1412.9,603.9 1412.9,590.2 1393.8,608.1 	"/>
	<polygon class="st7" points="1393.8,621.8 1395.6,671.4 1415.3,652.3 1412.9,609.3 	"/>
	<path class="st8" d="M1401.8,719.1l0.6-15.8l22.1,0.6L1401.8,719.1z M1403,703.9l-0.6,14l20.2-13.5L1403,703.9z"/>
	<polygon class="st8" points="1402.2,723.9 1402.2,732.9 1425.4,731.1 1424.8,707.2 	"/>
	<polygon class="st6" points="1397.4,621.8 1398.6,621.8 1400.4,660.6 1399.2,661.8 	"/>
	<polygon class="st6" points="1401.6,619.5 1402.8,619.5 1404,656.5 1402.8,657.1 	"/>
	<path class="st6" d="M1407.5,617.7c0,0,0.6-0.6,0.6,0s0.6,33.4,0.6,33.4h-1.2V617.7z"/>
	<path class="st6" d="M1404.1,727.9l15.6-10.4l1.3,9.8L1404.1,727.9z M1419.2,718.5l-13,8.7l14.1-0.5L1419.2,718.5z"/>
	<rect x="1416.5" y="660.6" class="st9" width="6.6" height="19.7"/>
	<rect x="1424.8" y="658.8" class="st9" width="7.2" height="20.9"/>
	<rect x="1320.7" y="718.6" class="st1" width="28.7" height="79.4"/>
	<polygon class="st10" points="1332.6,798 1332.6,699.2 1323.9,685.4 1273.2,685.4 1270.2,692.6 1270.2,797.7 	"/>
	<rect x="1278.6" y="694.4" class="st11" width="7.2" height="9.5"/>
	<rect x="1286" y="706" class="st11" width="6.6" height="9"/>
	<polygon class="st12" points="1135.3,797.4 1134.7,770.5 1145.4,770.5 1145.4,586 1180.1,586 1180.1,608.7 1198,608.7 1198,798 
		1135.3,798 	"/>
	<rect x="1148.4" y="590.8" class="st13" width="29.3" height="15.5"/>
	<rect x="1148.4" y="614.1" class="st13" width="47.2" height="1.2"/>
	<rect x="1148.4" y="617.7" class="st13" width="47.2" height="1.2"/>
	<rect x="1147.8" y="648.1" class="st13" width="47.2" height="1.2"/>
	<rect x="1147.8" y="676.8" class="st13" width="47.2" height="1.2"/>
	<rect x="1148.4" y="704.8" class="st13" width="47.2" height="1.2"/>
	<rect x="1148.4" y="755" class="st13" width="47.2" height="1.2"/>
	<rect x="1148.4" y="759.2" class="st13" width="47.2" height="1.2"/>
	<rect x="1148.4" y="770.5" class="st13" width="47.2" height="1.2"/>
	<polygon class="st13" points="1146.9,580.9 1146.9,581.5 1148.1,581.5 1148.1,586.3 1149.3,586.3 1149.3,581.5 1154.1,581.5 
		1154.1,586.3 1155.3,586.3 1155.3,581.5 1160.6,581.5 1160.6,586.3 1161.8,586.3 1161.8,581.5 1166,581.5 1166,586.3 1167.2,586.3 
		1167.2,581.5 1172,581.5 1172,586.3 1173.2,586.3 1173.2,581.5 1175.6,581.5 1175.6,586.3 1176.8,586.3 1176.8,581.5 1178,581.5 
		1178,580.9 	"/>
	<rect x="1154.4" y="682.1" class="st14" width="10.2" height="11.9"/>
	<rect x="1174.7" y="682.1" class="st14" width="10.2" height="11.9"/>
	<rect x="1153.8" y="624.8" class="st14" width="10.2" height="11.9"/>
	<rect x="1174.1" y="624.8" class="st14" width="10.2" height="11.9"/>
	<rect x="1151.4" y="712" class="st13" width="41.8" height="37.6"/>
	<polygon class="st1" points="1272.9,600.9 1277.7,798 1225.1,798 1225.1,652 1248.7,651.4 1248.1,607.2 	"/>
	<rect x="1251.7" y="607.8" class="st15" width="6.6" height="4.2"/>
	<rect x="1259.5" y="607.8" class="st15" width="6.6" height="4.2"/>
	<rect x="1251.7" y="613.2" class="st15" width="6.6" height="5.4"/>
	<rect x="1259.5" y="613.2" class="st15" width="6.6" height="5.4"/>
	<rect x="1248.7" y="668.7" class="st16" width="7.2" height="9.5"/>
	<rect x="1242.2" y="656.8" class="st16" width="7.2" height="9.5"/>
	<polygon class="st1" points="1090.5,620.5 1094.4,798 1041.8,798 1041.8,652 1065.4,651.4 1064.8,630 	"/>
	<rect x="1070.8" y="630.6" class="st15" width="6.6" height="4.2"/>
	<rect x="1078.5" y="630.6" class="st15" width="6.6" height="4.2"/>
	<rect x="1070.8" y="636" class="st15" width="6.6" height="5.4"/>
	<rect x="1078.5" y="636" class="st15" width="6.6" height="5.4"/>
	<rect x="1065.4" y="668.7" class="st16" width="7.2" height="9.5"/>
	<rect x="1058.8" y="656.8" class="st16" width="7.2" height="9.5"/>
	<rect x="1179.8" y="700.3" class="st17" width="50.2" height="97.3"/>
	<rect x="1184.8" y="706.6" class="st18" width="44.8" height="17.9"/>
	<rect x="1192" y="711.4" class="st19" width="37.6" height="7.2"/>
	<rect x="1181.2" y="729.9" class="st20" width="47.2" height="1.8"/>
	<path class="st20" d="M1229,759.2v-1.8h-3v-22.1h2.4v-1.8h-47.2v1.8h2.4V798h1.2v-3h43.6v-1.8h-43.6V789h44.2v-1.8h-44.2v-22.7
		h10.2v22.1h1.2v-22.1h8.4v22.1h1.2v-22.1h9v22.1h1.2v-22.1h9v22.1h1.1v-22.1h3v-1.8h-44.2v-3.6H1229z M1224.8,735.3v22.1h-9v-22.1
		L1224.8,735.3z M1214.7,735.3v22.1h-9v-22.1L1214.7,735.3z M1204.5,735.3v22.1h-8.4v-22.1L1204.5,735.3z M1195,735.3v22.1h-10.2
		v-22.1L1195,735.3z"/>
	<rect x="1207.8" y="732.9" class="st21" width="54.9" height="65.1"/>
	<rect x="1208.7" y="741.5" class="st22" width="51.9" height="1.2"/>
	<rect x="1214.1" y="745.7" class="st22" width="1.2" height="13.1"/>
	<rect x="1222.4" y="745.7" class="st22" width="1.2" height="13.1"/>
	<rect x="1229.6" y="745.7" class="st22" width="1.2" height="13.1"/>
	<rect x="1237.4" y="745.7" class="st22" width="1.2" height="13.1"/>
	<rect x="1244.5" y="745.7" class="st22" width="1.2" height="13.1"/>
	<rect x="1251.7" y="745.7" class="st22" width="1.2" height="13.1"/>
	<rect x="1208.7" y="761.8" class="st22" width="51.9" height="1.2"/>
	<rect x="1214.1" y="766" class="st22" width="1.2" height="13.1"/>
	<rect x="1222.4" y="766" class="st22" width="1.2" height="13.1"/>
	<rect x="1229.6" y="766" class="st22" width="1.2" height="13.1"/>
	<rect x="1237.4" y="766" class="st22" width="1.2" height="13.1"/>
	<rect x="1244.5" y="766" class="st22" width="1.2" height="13.1"/>
	<rect x="1251.7" y="766" class="st22" width="1.2" height="13.1"/>
	<rect x="1208.7" y="780.4" class="st22" width="51.9" height="1.2"/>
	<rect x="1214.1" y="784.5" class="st22" width="1.2" height="13.1"/>
	<rect x="1222.4" y="784.5" class="st22" width="1.2" height="13.1"/>
	<rect x="1229.6" y="784.5" class="st22" width="1.2" height="13.1"/>
	<rect x="1237.4" y="784.5" class="st22" width="1.2" height="13.1"/>
	<rect x="1244.5" y="784.5" class="st22" width="1.2" height="13.1"/>
	<rect x="1251.7" y="784.5" class="st22" width="1.2" height="13.1"/>
	<polygon class="st23" points="1342.8,798 1397.7,798 1397.1,732.3 1364.8,733.5 1343.3,775.9 	"/>
	<polygon class="st5" points="1478.9,798 1576.8,798 1576.8,665.4 1541.9,665.4 1542.5,741.5 1534.1,739.8 1534.7,715.3 
		1526.4,715.3 1526.4,699.2 1513.8,704.5 1514.4,742.7 1478.6,763.6 	"/>
	<path class="st24" d="M1566.2,777.1l-15.9-0.6l9.6-14L1566.2,777.1z M1551.4,775.9l13.9,0.6l-5.6-12.8L1551.4,775.9z"/>
	<polygon class="st25" points="1544.3,743.9 1572.9,753.5 1572.9,730.2 	"/>
	<rect x="1544.3" y="669.9" class="st24" width="30.4" height="1.8"/>
	<rect x="1544.9" y="680" class="st24" width="29.8" height="7.2"/>
	<rect x="1544.9" y="699.8" class="st24" width="29.8" height="7.2"/>
	<rect x="1534.1" y="742.2" class="st26" width="1.2" height="34"/>
	<rect x="1516.2" y="748.1" class="st26" width="7.8" height="1.2"/>
	<rect x="1516.2" y="751.1" class="st26" width="8.4" height="1.2"/>
	<rect x="1516.2" y="754.7" class="st26" width="14.9" height="1.2"/>
	<rect x="1516.2" y="757.7" class="st26" width="16.7" height="1.2"/>
	<rect x="1516.2" y="761.2" class="st26" width="16.7" height="1.2"/>
	<path class="st24" d="M1521.6,711.4c-1.2,0-2.1-0.9-2.1-2.1c0-1.2,0.9-2.1,2.1-2.1c1.2,0,2.1,0.9,2.1,2.1l0,0
		C1523.7,710.5,1522.7,711.4,1521.6,711.4z M1521.6,707.8c-0.8,0-1.5,0.7-1.5,1.5c0,0.8,0.7,1.5,1.5,1.5c0.8,0,1.5-0.7,1.5-1.5
		c0,0,0,0,0,0C1523.1,708.5,1522.4,707.8,1521.6,707.8z"/>
	<path class="st24" d="M1488.7,765.4c0.6-0.6,24.5-14.9,24.5-14.9l-1.8-1.8l-23.9,14.9L1488.7,765.4z"/>
	<path class="st24" d="M1495.6,784.2h-9.6v-13.1h9.6V784.2z M1486.6,783.6h8.4v-11.9h-8.4L1486.6,783.6z"/>
	<rect x="1515.6" y="765.4" class="st26" width="15.5" height="3"/>
	<rect x="1516.2" y="772.6" class="st26" width="15.5" height="3"/>
	<polygon class="st0" points="1044.8,798 1136.8,798 1135,640.3 1095.3,641.8 1095.3,654.4 1089.3,658.5 1088.1,759.5 1045.7,760 	
		"/>
	<rect x="1099.4" y="654.4" class="st24" width="34" height="1.8"/>
	<rect x="1105.4" y="664.5" class="st24" width="15.5" height="1.2"/>
	<rect x="1105.4" y="693.2" class="st24" width="14.3" height="1.2"/>
	<rect x="1105.4" y="750.5" class="st24" width="15.5" height="1.8"/>
	<polygon class="st24" points="1103.3,753.8 1088.1,753.8 1088.1,753.2 1102.7,753.2 1102.7,666 1089.2,665.9 1089.3,665.3 
		1103.3,665.4 	"/>
	<polygon class="st1" points="1089.2,668.3 1100.6,668.1 1100,749.9 1088.1,750 	"/>
	<rect x="1089.9" y="669.3" class="st27" width="9.6" height="7.2"/>
	<rect x="1089.9" y="677.7" class="st27" width="9.6" height="8.4"/>
	<rect x="1089.9" y="687.2" class="st27" width="9.6" height="10.2"/>
	<rect x="1089.9" y="698.5" class="st27" width="9.6" height="9.5"/>
	<rect x="1089.9" y="709.3" class="st27" width="9.6" height="7.2"/>
	<rect x="1089.3" y="717.7" class="st27" width="10.2" height="7.2"/>
	<rect x="1089.3" y="726" class="st27" width="10.2" height="6.6"/>
	<rect x="1088.7" y="733.8" class="st27" width="10.8" height="7.8"/>
	<rect x="1088.7" y="742.7" class="st27" width="10.8" height="6.6"/>
	<polygon class="st24" points="1123,753.2 1136.2,753.2 1136.2,752.6 1123.5,752.6 1123.5,665.4 1135.2,665.3 1135.2,664.7 
		1123,664.8 	"/>
	<polygon class="st1" points="1135.2,667.7 1125.3,667.5 1125.9,749.3 1136.2,749.4 	"/>
	<rect x="1126.4" y="668.7" class="st27" width="8.2" height="7.2"/>
	<rect x="1126.4" y="677.1" class="st27" width="8.2" height="8.4"/>
	<rect x="1126.4" y="686.6" class="st27" width="8.2" height="10.2"/>
	<rect x="1126.4" y="698" class="st27" width="8.2" height="9.5"/>
	<rect x="1126.4" y="708.7" class="st27" width="8.2" height="7.2"/>
	<rect x="1126.4" y="717.1" class="st27" width="8.8" height="7.2"/>
	<rect x="1126.4" y="725.4" class="st27" width="8.8" height="6.6"/>
	<rect x="1126.4" y="733.2" class="st27" width="9.3" height="7.8"/>
	<rect x="1126.4" y="742.1" class="st27" width="9.3" height="6.6"/>
	<polygon class="st24" points="1130.2,798 1129.6,766.9 1096.2,766.9 1096,798 1095.4,798 1095.6,766.3 1130.2,766.3 1130.8,798 	
		"/>
	<polygon class="st24" points="1126.2,798 1126,772.3 1100.9,772.9 1100.3,797.1 1099.7,797.1 1100.3,772.3 1126.6,771.7 
		1126.8,798 	"/>
	<rect x="1071.4" y="770.2" class="st28" width="1.2" height="26.9"/>
	<rect x="1075" y="770.2" class="st28" width="1.2" height="26.9"/>
	<rect x="1077.9" y="770.2" class="st28" width="1.2" height="26.9"/>
	<rect x="1081.5" y="770.2" class="st28" width="1.2" height="26.9"/>
	<rect x="1083.9" y="770.2" class="st28" width="1.2" height="26.9"/>
	<rect x="987.5" y="680.7" class="st29" width="22.7" height="70"/>
	<polygon class="st30" points="921.2,798 1048.4,798 1049,702.6 1023.6,703 1023.6,644 1009.3,660.9 1009.3,745.2 993.2,746.1 
		993.2,721.6 973.5,721.6 973.5,725.8 961.5,725.8 960.9,628.8 921.5,631.3 	"/>
	<rect x="925.1" y="635.6" class="st31" width="34" height="42.2"/>
	<path class="st32" d="M948.7,740.6h-3.6v-5.9h3.6V740.6z M945.7,739.8h2.4v-4.2h-2.4V739.8z"/>
	<path class="st32" d="M957,737.2h-3v-5.9h3V737.2z M954.6,736.4h1.8v-4.2h-1.8V736.4z"/>
	<rect x="989" y="713.2" class="st32" width="1.2" height="8.4"/>
	<rect x="980" y="714" class="st32" width="1.2" height="7.6"/>
	<rect x="977" y="712.3" class="st32" width="1.2" height="9.3"/>
	<rect x="1011.1" y="681.1" class="st33" width="10.8" height="0.8"/>
	<rect x="1011.1" y="683.7" class="st33" width="11.3" height="0.8"/>
	<rect x="1011.1" y="702.2" class="st33" width="10.8" height="1.7"/>
	<rect x="1012.9" y="707.3" class="st33" width="33.4" height="1.7"/>
	<path class="st33" d="M1033.5,728.8H1015v-15.2h18.5L1033.5,728.8z M1015.5,727.9h17.3v-13.5h-17.3V727.9z"/>
	<rect x="1035.6" y="713.2" class="st33" width="9.6" height="1.7"/>
	<rect x="1035.6" y="718.2" class="st33" width="9.6" height="0.8"/>
	<rect x="1035.6" y="723.3" class="st33" width="9.6" height="1.7"/>
	<rect x="1035.6" y="727.5" class="st33" width="9.6" height="0.8"/>
	<rect x="1011.7" y="731.7" class="st33" width="34.6" height="0.8"/>
	<rect x="1011.7" y="736.8" class="st33" width="35.8" height="1.7"/>
	<rect x="964.5" y="736.8" class="st32" width="7.2" height="0.8"/>
	<rect x="973.5" y="735.1" class="st32" width="19.1" height="0.8"/>
	<rect x="973.5" y="726.7" class="st32" width="0.6" height="39.7"/>
	<rect x="980" y="737.7" class="st32" width="1.2" height="11"/>
	<rect x="987.2" y="737.7" class="st32" width="0.6" height="11"/>
	<rect x="975.8" y="742.7" class="st32" width="3" height="5.1"/>
	<rect x="961.5" y="728.4" class="st32" width="1.8" height="39.7"/>
	<path class="st32" d="M937,795c0.6,0,35.2-24.5,35.2-24.5l-1.1-2.5l-38.8,27H937z"/>
	<rect x="965.1" y="746.1" class="st32" width="6.6" height="1.7"/>
	<rect x="965.1" y="757.9" class="st32" width="6.6" height="1.7"/>
	<polygon class="st6" points="783.3,798 877.6,798 874,651.7 855.2,651.4 851,583.3 827.2,604.8 829,703.3 823,702.7 783.6,730.8 	
		"/>
	<polygon class="st7" points="831.3,615 849.3,603 849.3,590.5 831.3,607.2 	"/>
	<path class="st7" d="M849.3,609l-18.5,11.9l2.4,49l18.5-17.9L849.3,609z M835.5,659.8l-1.2-38.2l1.2-0.6l1.2,38.2L835.5,659.8z
		 M839.7,655.6l-1.2-37c0,0,1.2-0.6,1.2,0s1.2,36.4,1.2,36.4L839.7,655.6z M845.7,649l-1.2,1.2v-33.4h1.2V649z"/>
	<path class="st34" d="M838.8,704.8h-12.4l13.1,11.8L838.8,704.8z M828,705.4h10.3l0.5,9.7L828,705.4z"/>
	<path class="st34" d="M828.7,727.8L828.7,727.8v6.9l7.8-0.7l0.6-15.8v-0.2l-8.4-7.1L828.7,727.8z M836.1,727.6l-6.8,0.2v-5.5l7,0.1
		L836.1,727.6z M829.3,734.1v-5.7l6.8-0.2l-0.2,5.3L829.3,734.1z M836.4,718.4l-0.1,3.5l-7-0.1v-9.4L836.4,718.4z"/>
	<polygon class="st34" points="798.5,793.2 797.9,793.2 797.9,727.8 803.9,727.8 803.9,724.8 809.2,724.8 808.6,720.7 813.4,720.7 
		813.4,715.9 821.5,715.3 821.5,715.9 814,716.5 814,721.2 809.3,721.2 809.9,725.4 804.5,725.4 804.5,728.4 798.5,728.4 	"/>
	<rect x="835.5" y="743.3" class="st35" width="5.4" height="7.2"/>
	<rect x="830.2" y="751.7" class="st35" width="5.4" height="6.6"/>
	<rect x="852.8" y="659.2" class="st9" width="7.2" height="16.7"/>
	<rect x="861.8" y="658" class="st9" width="6.6" height="21.5"/>
	<rect x="823.6" y="704.5" class="st34" width="1.2" height="34.6"/>
	<rect x="815.8" y="726.6" class="st34" width="1.2" height="40.6"/>
	<rect x="811.7" y="730.2" class="st34" width="1.2" height="33.4"/>
	<rect x="807.5" y="733.8" class="st34" width="1.2" height="29.8"/>
	<path class="st35" d="M823.6,772c0,0,19.1,11.3,19.1,10.8s-2.4-23.3-2.4-23.3L823.6,772z"/>
	<polyline class="st9" points="855.2,715.9 854.6,711.7 841.5,721.2 841.5,723.6 848.1,723.6 855.2,716.5 	"/>
	<polygon class="st9" points="841.5,715.9 843.3,715.9 853.4,709.3 853.4,707.5 	"/>
	<path class="st9" d="M839.7,703.9h1.2v-0.6h12v-1.2c0,0-13.1-0.6-13.1,0L839.7,703.9z"/>
	<polygon class="st9" points="849.9,723.6 855.2,723.6 856.4,718.9 	"/>
	<polygon class="st5" points="857.9,798 920,798 919.7,705.7 903.6,699.8 903.6,712.3 895.8,712.3 895.8,729.6 888.7,730.8 
		888.7,675.3 857.6,675.3 	"/>
	<rect x="858.8" y="677.1" class="st36" width="28.1" height="1.8"/>
	<rect x="859.4" y="684.8" class="st37" width="28.1" height="4.8"/>
	<rect x="859.4" y="700.3" class="st37" width="28.1" height="4.8"/>
	<rect x="906.6" y="735.6" class="st36" width="11.3" height="1.2"/>
	<rect x="906" y="738" class="st36" width="11.9" height="1.2"/>
	<rect x="899.4" y="741" class="st36" width="18.5" height="0.6"/>
	<rect x="897.6" y="743.3" class="st36" width="20.3" height="0.6"/>
	<rect x="898.8" y="746.3" class="st36" width="19.7" height="0.6"/>
	<rect x="895.2" y="731.4" class="st36" width="1.2" height="65.7"/>
	<path class="st36" d="M917.6,764.5h-17.9V749h17.9L917.6,764.5z M900.3,763.9H917v-14.3h-16.7V763.9z"/>
	<path class="st36" d="M908.7,709c-1.2-0.2-2-1.2-1.8-2.4c0.2-1.2,1.2-2,2.4-1.8c1,0.1,1.8,1,1.8,2.1
		C911,708.1,909.9,709.1,908.7,709z M908.7,705.4c-0.8,0.2-1.4,0.9-1.2,1.8c0.2,0.8,0.9,1.4,1.8,1.2c0.7-0.1,1.2-0.8,1.2-1.5
		C910.4,706,909.6,705.4,908.7,705.4L908.7,705.4z"/>
	<path class="st38" d="M881.5,757.4h-13.6l5.2-10.4L881.5,757.4z M868.8,756.8h11.4l-7.1-8.7L868.8,756.8z"/>
	<path class="st36" d="M912,759.8h-9.5l4-7.4L912,759.8z M903.5,759.2h7.3l-4.2-5.7L903.5,759.2z"/>
	<polygon class="st39" points="861.8,740.4 886.9,732.6 861.8,723 	"/>
	<path class="st3" d="M1630.6,798h111.7l-4.2-113.5l-14.3-0.6l-0.6-27.5h-6.6v-7.2h-23.3l0.6,34h-18.5v-56.1h-27.5
		c-0.6,0,0,63.3,0,63.3h-16.7L1630.6,798z"/>
	<polygon class="st0" points="1696.8,683.9 1715.9,683.9 1715.3,658.3 1696.2,658.3 	"/>
	<polygon class="st0" points="1696.8,656.5 1714.7,657.1 1714.7,652.9 1696.2,651.1 	"/>
	<polygon class="st4" points="1683.1,700.9 1682.5,710.8 1698.5,710.8 	"/>
	<path class="st4" d="M1674.4,689v26.9l37.6-1.2L1674.4,689z M1682.5,699.8l18,11.6h-18.7L1682.5,699.8z"/>
	<polygon class="st0" points="1679.1,798 1711.8,798 1711.4,770.2 1678.6,757.1 	"/>
	<polygon class="st1" points="1650.6,728.4 1650.6,797.1 1673.9,798 1673.8,749.9 1663.1,729 	"/>
	<polygon class="st5" points="1630.9,783.5 1646.4,783.3 1646.4,754.7 1671.4,754.1 1670.9,798 1630.2,797.7 	"/>
	<polygon class="st6" points="1711.8,798 1806.1,798 1802.5,651.7 1783.7,651.4 1779.5,583.3 1755.6,604.8 1757.4,703.3 
		1751.5,702.7 1712.1,730.8 	"/>
	<polygon class="st7" points="1759.8,615 1777.7,603 1777.7,590.5 1759.8,607.2 	"/>
	<path class="st7" d="M1777.7,609l-18.5,11.9l2.4,49l18.5-17.9L1777.7,609z M1764,659.8l-1.2-38.2l1.2-0.6l1.2,38.2L1764,659.8z
		 M1768.2,655.6l-1.2-37c0,0,1.2-0.6,1.2,0s1.2,36.4,1.2,36.4L1768.2,655.6z M1774.2,649l-1.2,1.2v-33.4h1.2V649z"/>
	<path class="st34" d="M1767.3,704.8h-12.4l13.1,11.8L1767.3,704.8z M1756.4,705.4h10.3l0.5,9.7L1756.4,705.4z"/>
	<path class="st34" d="M1757.1,727.8L1757.1,727.8v6.9l7.8-0.7l0.6-15.8v-0.2l-8.4-7.1L1757.1,727.8z M1764.5,727.6l-6.8,0.2v-5.5
		l7,0.1L1764.5,727.6z M1757.7,734.1v-5.7l6.8-0.2l-0.2,5.3L1757.7,734.1z M1764.9,718.4l-0.1,3.5l-7-0.1v-9.4L1764.9,718.4z"/>
	<polygon class="st34" points="1727,793.2 1726.4,793.2 1726.4,727.8 1732.3,727.8 1732.3,724.8 1737.7,724.8 1737.1,720.7 
		1741.9,720.7 1741.9,715.9 1749.9,715.3 1750,715.9 1742.5,716.5 1742.5,721.2 1737.8,721.2 1738.4,725.4 1732.9,725.4 
		1732.9,728.4 1727,728.4 	"/>
	<rect x="1764" y="743.3" class="st35" width="5.4" height="7.2"/>
	<rect x="1758.6" y="751.7" class="st35" width="5.4" height="6.6"/>
	<rect x="1781.3" y="659.2" class="st9" width="7.2" height="16.7"/>
	<rect x="1790.3" y="658" class="st9" width="6.6" height="21.5"/>
	<rect x="1752.1" y="704.5" class="st34" width="1.2" height="34.6"/>
	<rect x="1744.3" y="726.6" class="st34" width="1.2" height="40.6"/>
	<rect x="1740.1" y="730.2" class="st34" width="1.2" height="33.4"/>
	<rect x="1735.9" y="733.8" class="st34" width="1.2" height="29.8"/>
	<path class="st35" d="M1752.1,772c0,0,19.1,11.3,19.1,10.8s-2.4-23.3-2.4-23.3L1752.1,772z"/>
	<polyline class="st9" points="1783.7,715.9 1783.1,711.7 1770,721.2 1770,723.6 1776.5,723.6 1783.7,716.5 	"/>
	<polygon class="st9" points="1770,715.9 1771.8,715.9 1781.9,709.3 1781.9,707.5 	"/>
	<path class="st9" d="M1768.2,703.9h1.2v-0.6h11.9v-1.2c0,0-13.1-0.6-13.1,0L1768.2,703.9z"/>
	<polygon class="st9" points="1778.3,723.6 1783.7,723.6 1784.9,718.9 	"/>
	<polygon class="st5" points="1775.6,798 1837.7,798 1837.4,705.7 1821.3,699.8 1821.3,712.3 1813.6,712.3 1813.6,729.6 
		1806.4,730.8 1806.4,675.3 1775.3,675.3 	"/>
	<rect x="1776.5" y="677.1" class="st36" width="28.1" height="1.8"/>
	<rect x="1777.1" y="684.8" class="st37" width="28.1" height="4.8"/>
	<rect x="1777.1" y="700.3" class="st37" width="28.1" height="4.8"/>
	<rect x="1824.3" y="735.6" class="st36" width="11.3" height="1.2"/>
	<rect x="1823.7" y="738" class="st36" width="11.9" height="1.2"/>
	<rect x="1817.1" y="741" class="st36" width="18.5" height="0.6"/>
	<rect x="1815.3" y="743.3" class="st36" width="20.3" height="0.6"/>
	<rect x="1816.5" y="746.3" class="st36" width="19.7" height="0.6"/>
	<rect x="1813" y="731.4" class="st36" width="1.2" height="65.7"/>
	<path class="st36" d="M1835.3,764.5h-17.9V749h17.9V764.5z M1818,763.9h16.7v-14.3H1818L1818,763.9z"/>
	<path class="st36" d="M1826.4,709c-1.2-0.2-2-1.2-1.8-2.4s1.2-2,2.4-1.8c1,0.1,1.8,1,1.8,2.1C1828.7,708.1,1827.6,709.1,1826.4,709
		z M1826.4,705.4c-0.8,0.2-1.4,0.9-1.2,1.8c0.2,0.8,0.9,1.4,1.8,1.2c0.7-0.1,1.2-0.8,1.2-1.5C1828.1,706,1827.3,705.4,1826.4,705.4
		L1826.4,705.4z"/>
	<path class="st38" d="M1799.3,757.4h-13.7l5.2-10.4L1799.3,757.4z M1786.6,756.8h11.4l-7.1-8.7L1786.6,756.8z"/>
	<path class="st36" d="M1829.7,759.8h-9.4l4-7.4L1829.7,759.8z M1821.2,759.2h7.3l-4.2-5.7L1821.2,759.2z"/>
	<polygon class="st39" points="1779.5,740.4 1804.6,732.6 1779.5,723 	"/>
	<path class="st40" d="M1354.7,798v-15l6.7-0.5l-0.1-6.7h21.5v3h7.8c0,0,0-5.2,0-6.6h23.3V798H1354.7z"/>
	<rect x="1393.5" y="778.3" class="st41" width="7.2" height="5.4"/>
	<rect x="1401.8" y="778.3" class="st41" width="7.2" height="5.4"/>
	<path class="st41" d="M1361.8,781.3v9.5h17.3v-9.5H1361.8z M1377.3,789h-13.7v-6h13.7V789z"/>
	<rect x="1388.1" y="768.7" class="st42" width="27.5" height="6"/>
</g>
<path class="st0" d="M60.3,647.3v99.8h211.2v-0.3h0.4v0.3h115.9V747l46.6-0.3v0.3h75.8v-0.4h10.7v0.4h531.5v-0.4h0.3l-0.4-8.8
	l-0.6-127.9h-18.1c0,0,0.7-80.7,0-80.7h-29.8v71.6h-20.1l0.7-43.4h-25.3v9.1H952l-0.7,35l-15.5,0.8l-1.3,41.4l-21.7-18.2l-6.5,0.8
	l2-125.7l-25.9-27.4l-4.5,86.8l-20.4,0.4l-0.6,30.1h-15.3v70.8l-7.8-1.5v-22.1h-8.4v-16l-16.8,7.3l-0.1-32.4l-42.8-2.3l-0.6,87.6
	h-13v-3.8h-3.9v-8.4H747v8.4h-2v-6.9h-1.3v6.9h-6.8v-37h-23.6v-17.9l-15.5-15.2v53.3l-7.5-0.1V560.8l-25.6-0.8l0.7-56.4l-26.9-8
	l-1.5,72.5l-5.3-4.4v-16l-43.1-1.9L587,712h-9.1V476.7H575V471h1.3v-0.8h-33.7v0.8h1.3v5.7h-3.6v28.9h-19.4v116.9h-29.5v-61.7
	l-25.6-0.8l0.6-56.4l-26.9-8l-2.2,107.8h-53.2l-9.4,17.5v24.8h-18.1v58.1l-16.8-39l-30.1-1.3l1.3-161.7l-24.6-27.4l-3.6,86.4h-21.4
	v43.8h-10v-35.8h-5.9V559h-25.3l-1,43h-18.8v-73.1l-30.1,0.4l-1.3,83h-21.6l0.2-34.3h-37.9v84.5h-7.4l0.7-34.3L79.8,629L60.3,647.3z
	 M547.8,471v5.7h-2.6V471H547.8z M554.2,471v5.7h-5.2V471H554.2z M560.1,471v5.7h-4.5V471H560.1z M567.2,471v5.7h-5.8V471H567.2z
	 M573.7,476.7h-5.2V471h5.2V476.7z"/>
<path class="st0" d="M-29.8,717.3v42.2h152.1v-0.1h0.2v0.1H206l0,0l33.6-0.1v0.1h54.6v-0.2h7.7v0.2h382.7v-0.2h0.2l-0.3-3.7
	l-0.4-54.1h-13.1c0,0,0.5-34.1,0-34.1h-21.5v30.3h-14.5l0.5-18.4h-18.2v3.9h-5.1l-0.5,14.8l-11.2,0.3l-0.9,17.5l-15.6-7.7l-4.7,0.3
	l1.4-53.1l-18.7-11.6l-3.3,36.7l-14.7,0.2l-0.5,12.7h-11v30l-5.6-0.7v-9.3h-6v-6.8l-12.1,3.1v-13.7l-30.8-1l-0.5,37h-9.3v-1.6h-2.8
	v-3.5h-0.9v3.5h-1.4v-2.9h-0.9v2.9h-4.9v-15.6h-17v-7.6l-11.2-6.5v22.5h-5.4v-42.5l-18.4-0.3l0.5-23.8l-19.4-3.4l-1.1,30.7l-3.8-1.8
	v-6.8l-31-0.8l-1.2,70.2H343v-99.5h-2.1v-2.4h0.9v-0.3h-24.3v0.3h0.9v2.4h-2.6v12.2h-14v49.4h-21.2v-26.1l-18.4-0.3l0.5-23.8
	l-19.4-3.4l-1.6,45.6h-38.3l-6.8,7.4v10.5h-13.1v24.6l-12.1-16.5l-21.7-0.5l0.9-68.4L133,644.2l-2.6,36.5H115v18.5h-7.2v-15.1h-4.2
	V680H85.4l-0.7,18.2H71.2v-30.9l-21.7,0.2l-0.9,35.1H33l0.2-14.5H5.9v35.7H0.6L1,709.3l-16.8,0.3L-29.8,717.3z M321.2,642.8v2.4
	h-1.9v-2.4H321.2z M325.9,642.8v2.4h-3.7v-2.4H325.9z M330.1,642.8v2.4h-3.3v-2.4H330.1z M335.2,642.8v2.4H331v-2.4H335.2z
	 M339.9,645.2h-3.7v-2.4h3.7V645.2z"/>
<path class="st1" d="M875.4,691.2l0.6,26.9h-6.9v-66.3h-34.9l0.2,26.9h-19.9l-1.2-65.1l-27.8-0.3v57.3h-17.3l-0.9-33.7H744v7.8h-5.4
	v28.1h-9.3v-34.3h-19.7l-3.3-67.8l-22.7,21.5l1.2,126.8l-27.8,1l-15.5,30.7V705h-16.7v-19.4l-8.7-13.7h-49l-2-84.5l-24.8,6.3
	l0.6,44.2l-23.6,0.6v48.4h-27.2v-91.7h-17.9v-22.7h-3.3v-4.5h1.2v-0.6h-31.1v0.6h1.2v4.5h-2.7v184.5h-9l-1.5-130.2l-39.7,1.5v12.5
	l-4,2.8l-0.8-36.7l-25.7,9.5l0.6,21.4l-23.6,0.6v50.8l-18.2,0.3v-59.1l-14.3,16.9v19.8h-21.8V708h-6.3v-7.6h-1.2v7.6h-1.8v-9.3h-1.2
	v9.3h-3.6v4.2h-11.9l-0.6-97l-39.4,2.5l-0.3,166.6h276.8v-0.3h9.9v0.3H570v-0.3l43,0.2v0.1h93.1v-0.1l14.1-0.1v0.2h194.6v-78.2
	l-17.9-14.3L875.4,691.2z M467.9,567.9v4.5h-2.4v-4.5H467.9z M464.3,567.9v4.5h-4.8v-4.5H464.3z M458.3,567.9v4.5h-4.2v-4.5H458.3z
	 M452.9,567.9v4.5h-5.3v-4.5H452.9z M441.6,567.9h4.8v4.5h-4.8V567.9z"/>
<path class="st1" d="M195.9,686.1v12.5h-7.8V716l-7.2,1.2v-55.5h-14l-0.6-23.6l-18.8-0.3l-4.2-68.1l-23.9,21.5l1.8,98.5l-6-0.6
	l-20,14.2l-1.2-32.5l-14.3-0.6l-0.6-27.5h-6.6v-7.2H49.3l0.6,34H31.4v-56.1H4c-0.6,0,0,63.3,0,63.3h-16.8l-0.6,100.3l-0.3,6.9h0.3
	v0.3h225.7l-0.3-92.2L195.9,686.1z"/>
<path class="st1" d="M1129.8,692.1l-16.1-6v12.5h-7.8V716l-7.2,1.2v-55.5h-3.3l-0.6-23.6l-18.8-0.3l-4.2-68.1l-23.8,21.5l1.8,98.5
	l-6-0.6l-12.4,8.9l-1-27.1l-14.3-0.6l-0.6-27.5h-6.6v-7.2h-23.3l0.6,34h-18.5v-56.1h-27.5c-0.6,0,0,63.3,0,63.3h-16.7l-0.6,100.3
	l-0.3,6.9h0.3v0.3h207.2L1129.8,692.1z"/>
<g class="st2">
	<path class="st3" d="M-13.4,784.4H98.3l-4.2-113.5l-14.3-0.6l-0.6-27.5h-6.6v-7.2H49.3l0.6,34H31.4v-56.1H4c-0.6,0,0,63.3,0,63.3
		h-16.8L-13.4,784.4z"/>
	<polygon class="st0" points="52.9,670.3 72,670.3 71.4,644.7 52.3,644.7 	"/>
	<polygon class="st0" points="52.9,642.9 70.8,643.5 70.8,639.3 52.3,637.5 	"/>
	<polygon class="st4" points="39.2,687.3 38.6,697.2 54.6,697.2 	"/>
	<path class="st4" d="M30.5,675.4v26.9l37.6-1.2L30.5,675.4z M38.6,686.2l18,11.6H38L38.6,686.2z"/>
	<polygon class="st0" points="35.2,784.4 67.8,784.4 67.6,756.6 34.7,743.5 	"/>
	<polygon class="st1" points="6.7,714.8 6.7,783.5 30,784.4 29.9,736.3 19.2,715.4 	"/>
	<polygon class="st5" points="-12.9,769.8 2.5,769.7 2.5,741.1 27.5,740.5 27,784.4 -13.6,784.1 	"/>
	<polygon class="st3" points="768.2,670.6 785.5,670.6 785.5,613.3 813.3,613.6 814.5,678.7 847.3,678.7 855.1,718.1 876,718.1 
		875.4,691.2 896.9,691.8 914.8,706.2 914.8,784.4 720.2,784.4 719.6,672.7 738.7,672.7 738.7,644.7 744,644.7 744,636.9 
		767.3,636.9 	"/>
	<polygon class="st0" points="914.8,720.2 912.1,720.2 912.1,714.2 906.2,714.2 906.2,708.2 899.3,707.6 899.3,707 906.8,707.7 
		906.8,713.6 912.7,713.6 912.7,719.6 914.8,719.6 	"/>
	<polygon class="st0" points="879.6,706.7 891.5,693.6 880.2,693.6 	"/>
	<polygon class="st0" points="882.6,731.8 891.5,731.8 890.9,702 882.6,710.3 	"/>
	<polygon class="st4" points="749.4,702 786.5,703.8 786.5,676.9 	"/>
	<path class="st3" d="M761.5,699.3l18.8-11.6l-0.7,11L761.5,699.3z M779.5,688.8l-15.9,9.8l15.3-0.5L779.5,688.8z"/>
	<rect x="747" y="639.9" class="st0" width="17.9" height="4.8"/>
	<rect x="746.4" y="646.4" class="st0" width="18.5" height="26.3"/>
	<rect x="877.8" y="745" class="st0" width="6" height="9.5"/>
	<rect x="882.6" y="756.3" class="st0" width="7.2" height="9.5"/>
	<rect x="895.1" y="693" class="st0" width="1.2" height="46"/>
	<rect x="911.8" y="731.8" class="st0" width="1.2" height="51.3"/>
	<rect x="907.7" y="729.4" class="st0" width="1.2" height="51.3"/>
	<rect x="903.5" y="727.6" class="st0" width="1.2" height="51.3"/>
	<polygon class="st6" points="729.4,784.1 729.4,638.4 709.7,638.4 706.4,570.6 683.8,592.1 685.5,784.4 	"/>
	<polygon class="st7" points="686.7,603.5 705.2,590.3 705.2,576.6 686.1,594.5 	"/>
	<polygon class="st7" points="686.1,608.2 687.9,657.8 707.6,638.7 705.2,595.7 	"/>
	<path class="st8" d="M694.2,705.5l0.6-15.8l22.1,0.6L694.2,705.5z M695.4,690.3l-0.6,14l20.2-13.4L695.4,690.3z"/>
	<polygon class="st8" points="694.5,710.3 694.5,719.3 717.8,717.5 717.2,693.6 	"/>
	<polygon class="st6" points="689.7,608.2 690.9,608.2 692.7,647 691.5,648.2 	"/>
	<polygon class="st6" points="693.9,605.8 695.1,605.8 696.3,642.9 695.1,643.5 	"/>
	<path class="st6" d="M699.9,604c0,0,0.6-0.6,0.6,0s0.6,33.4,0.6,33.4h-1.2V604z"/>
	<path class="st6" d="M696.4,714.2l15.6-10.4l1.3,9.8L696.4,714.2z M711.6,704.9l-13,8.7l14.1-0.5L711.6,704.9z"/>
	<rect x="708.8" y="647" class="st9" width="6.6" height="19.7"/>
	<rect x="717.2" y="645.2" class="st9" width="7.2" height="20.9"/>
	<rect x="613" y="705" class="st1" width="28.7" height="79.4"/>
	<polygon class="st10" points="624.9,784.4 624.9,685.5 616.3,671.8 565.5,671.8 562.5,679 562.5,784.1 	"/>
	<rect x="570.9" y="680.8" class="st11" width="7.2" height="9.5"/>
	<rect x="578.4" y="692.4" class="st11" width="6.6" height="9"/>
	<polygon class="st12" points="427.6,783.8 427,756.9 437.8,756.9 437.8,572.4 472.4,572.4 472.4,595.1 490.3,595.1 490.3,784.4 
		427.6,784.4 	"/>
	<rect x="440.7" y="577.2" class="st13" width="29.3" height="15.5"/>
	<rect x="440.7" y="600.5" class="st13" width="47.2" height="1.2"/>
	<rect x="440.7" y="604" class="st13" width="47.2" height="1.2"/>
	<rect x="440.1" y="634.5" class="st13" width="47.2" height="1.2"/>
	<rect x="440.1" y="663.2" class="st13" width="47.2" height="1.2"/>
	<rect x="440.7" y="691.2" class="st13" width="47.2" height="1.2"/>
	<rect x="440.7" y="741.4" class="st13" width="47.2" height="1.2"/>
	<rect x="440.7" y="745.5" class="st13" width="47.2" height="1.2"/>
	<rect x="440.7" y="756.9" class="st13" width="47.2" height="1.2"/>
	<polygon class="st13" points="439.2,567.3 439.2,567.9 440.4,567.9 440.4,572.7 441.6,572.7 441.6,567.9 446.4,567.9 446.4,572.7 
		447.6,572.7 447.6,567.9 453,567.9 453,572.7 454.2,572.7 454.2,567.9 458.4,567.9 458.4,572.7 459.5,572.7 459.5,567.9 
		464.3,567.9 464.3,572.7 465.5,572.7 465.5,567.9 467.9,567.9 467.9,572.7 469.1,572.7 469.1,567.9 470.3,567.9 470.3,567.3 	"/>
	<rect x="446.7" y="668.5" class="st14" width="10.1" height="11.9"/>
	<rect x="467" y="668.5" class="st14" width="10.1" height="11.9"/>
	<rect x="446.1" y="611.2" class="st14" width="10.1" height="11.9"/>
	<rect x="466.4" y="611.2" class="st14" width="10.1" height="11.9"/>
	<rect x="443.7" y="698.4" class="st13" width="41.8" height="37.6"/>
	<polygon class="st1" points="565.2,587.3 570,784.4 517.5,784.4 517.5,638.4 541,637.8 540.5,593.6 	"/>
	<rect x="544" y="594.2" class="st15" width="6.6" height="4.2"/>
	<rect x="551.8" y="594.2" class="st15" width="6.6" height="4.2"/>
	<rect x="544" y="599.6" class="st15" width="6.6" height="5.4"/>
	<rect x="551.8" y="599.6" class="st15" width="6.6" height="5.4"/>
	<rect x="541" y="655.1" class="st16" width="7.2" height="9.5"/>
	<rect x="534.5" y="643.2" class="st16" width="7.2" height="9.5"/>
	<polygon class="st1" points="382.8,606.8 386.7,784.4 334.1,784.4 334.1,638.4 357.7,637.8 357.1,616.4 	"/>
	<rect x="363.1" y="617" class="st15" width="6.6" height="4.2"/>
	<rect x="370.9" y="617" class="st15" width="6.6" height="4.2"/>
	<rect x="363.1" y="622.4" class="st15" width="6.6" height="5.4"/>
	<rect x="370.9" y="622.4" class="st15" width="6.6" height="5.4"/>
	<rect x="357.7" y="655.1" class="st16" width="7.2" height="9.5"/>
	<rect x="351.2" y="643.2" class="st16" width="7.2" height="9.5"/>
	<rect x="472.1" y="686.7" class="st17" width="50.2" height="97.3"/>
	<rect x="477.2" y="693" class="st18" width="44.8" height="17.9"/>
	<rect x="484.3" y="697.8" class="st19" width="37.6" height="7.2"/>
	<rect x="473.6" y="716.3" class="st20" width="47.2" height="1.8"/>
	<path class="st20" d="M521.3,745.5v-1.8h-3v-22.1h2.4v-1.8h-47.2v1.8h2.4v62.7h1.2v-3h43.6v-1.8h-43.6v-4.2h44.2v-1.8h-44.2v-22.7
		h10.1V773h1.2v-22.1h8.4V773h1.2v-22.1h9V773h1.2v-22.1h9V773h1.2v-22.1h3v-1.8h-44.3v-3.6H521.3z M517.2,721.7v22.1h-9v-22.1
		H517.2z M507,721.7v22.1h-9v-22.1H507z M496.9,721.7v22.1h-8.4v-22.1H496.9z M487.3,721.7v22.1h-10.2v-22.1H487.3z"/>
	<rect x="500.1" y="719.3" class="st21" width="54.9" height="65.1"/>
	<rect x="501" y="727.9" class="st22" width="51.9" height="1.2"/>
	<rect x="506.4" y="732.1" class="st22" width="1.2" height="13.1"/>
	<rect x="514.8" y="732.1" class="st22" width="1.2" height="13.1"/>
	<rect x="521.9" y="732.1" class="st22" width="1.2" height="13.1"/>
	<rect x="529.7" y="732.1" class="st22" width="1.2" height="13.1"/>
	<rect x="536.9" y="732.1" class="st22" width="1.2" height="13.1"/>
	<rect x="544" y="732.1" class="st22" width="1.2" height="13.1"/>
	<rect x="501" y="748.2" class="st22" width="51.9" height="1.2"/>
	<rect x="506.4" y="752.4" class="st22" width="1.2" height="13.1"/>
	<rect x="514.8" y="752.4" class="st22" width="1.2" height="13.1"/>
	<rect x="521.9" y="752.4" class="st22" width="1.2" height="13.1"/>
	<rect x="529.7" y="752.4" class="st22" width="1.2" height="13.1"/>
	<rect x="536.9" y="752.4" class="st22" width="1.2" height="13.1"/>
	<rect x="544" y="752.4" class="st22" width="1.2" height="13.1"/>
	<rect x="501" y="766.8" class="st22" width="51.9" height="1.2"/>
	<rect x="506.4" y="770.9" class="st22" width="1.2" height="13.1"/>
	<rect x="514.8" y="770.9" class="st22" width="1.2" height="13.1"/>
	<rect x="521.9" y="770.9" class="st22" width="1.2" height="13.1"/>
	<rect x="529.7" y="770.9" class="st22" width="1.2" height="13.1"/>
	<rect x="536.9" y="770.9" class="st22" width="1.2" height="13.1"/>
	<rect x="544" y="770.9" class="st22" width="1.2" height="13.1"/>
	<polygon class="st23" points="635.1,784.4 690,784.4 689.4,718.7 657.2,719.9 635.7,762.3 	"/>
	<polygon class="st5" points="771.2,784.4 869.1,784.4 869.1,651.8 834.2,651.8 834.8,727.9 826.5,726.2 827,701.7 818.7,701.7 
		818.7,685.5 806.2,690.9 806.8,729.1 770.9,750 	"/>
	<path class="st24" d="M858.6,763.5l-15.9-0.6l9.6-14L858.6,763.5z M843.7,762.3l13.9,0.6l-5.6-12.8L843.7,762.3z"/>
	<polygon class="st25" points="836.6,730.3 865.3,739.9 865.3,716.6 	"/>
	<rect x="836.6" y="656.3" class="st24" width="30.5" height="1.8"/>
	<rect x="837.2" y="666.4" class="st24" width="29.8" height="7.2"/>
	<rect x="837.2" y="686.1" class="st24" width="29.8" height="7.2"/>
	<rect x="826.5" y="728.5" class="st26" width="1.2" height="34"/>
	<rect x="808.5" y="734.5" class="st26" width="7.8" height="1.2"/>
	<rect x="808.5" y="737.5" class="st26" width="8.4" height="1.2"/>
	<rect x="808.5" y="741.1" class="st26" width="14.9" height="1.2"/>
	<rect x="808.5" y="744.1" class="st26" width="16.7" height="1.2"/>
	<rect x="808.5" y="747.6" class="st26" width="16.7" height="1.2"/>
	<path class="st24" d="M813.9,697.8c-1.2,0-2.1-0.9-2.1-2.1s0.9-2.1,2.1-2.1s2.1,0.9,2.1,2.1l0,0C816,696.9,815.1,697.8,813.9,697.8
		z M813.9,694.2c-0.8,0-1.5,0.7-1.5,1.5s0.7,1.5,1.5,1.5c0.8,0,1.5-0.7,1.5-1.5l0,0C815.4,694.9,814.7,694.2,813.9,694.2
		L813.9,694.2z"/>
	<path class="st24" d="M781.1,751.8c0.6-0.6,24.5-14.9,24.5-14.9l-1.8-1.8L779.9,750L781.1,751.8z"/>
	<path class="st24" d="M787.9,770.6h-9.6v-13.1h9.6V770.6z M778.9,770h8.4v-11.9H779L778.9,770z"/>
	<rect x="807.9" y="751.8" class="st26" width="15.5" height="3"/>
	<rect x="808.5" y="759" class="st26" width="15.5" height="3"/>
	<polygon class="st0" points="337.1,784.4 429.1,784.4 427.3,626.7 387.6,628.2 387.6,640.8 381.6,644.9 380.4,745.8 338,746.5 	"/>
	<rect x="391.8" y="640.8" class="st24" width="34" height="1.8"/>
	<rect x="397.7" y="650.9" class="st24" width="15.5" height="1.2"/>
	<rect x="397.7" y="679.6" class="st24" width="14.3" height="1.2"/>
	<rect x="397.7" y="736.9" class="st24" width="15.5" height="1.8"/>
	<polygon class="st24" points="395.6,740.2 380.4,740.2 380.4,739.6 395.1,739.6 395.1,652.4 381.6,652.3 381.6,651.7 395.6,651.8 	
		"/>
	<polygon class="st1" points="381.5,654.7 393,654.5 392.4,736.3 380.4,736.4 	"/>
	<rect x="382.2" y="655.7" class="st27" width="9.5" height="7.2"/>
	<rect x="382.2" y="664" class="st27" width="9.5" height="8.4"/>
	<rect x="382.2" y="673.6" class="st27" width="9.5" height="10.2"/>
	<rect x="382.2" y="684.9" class="st27" width="9.5" height="9.5"/>
	<rect x="382.2" y="695.7" class="st27" width="9.5" height="7.2"/>
	<rect x="381.6" y="704" class="st27" width="10.1" height="7.2"/>
	<rect x="381.6" y="712.4" class="st27" width="10.1" height="6.6"/>
	<rect x="381" y="720.2" class="st27" width="10.8" height="7.8"/>
	<rect x="381" y="729.1" class="st27" width="10.8" height="6.6"/>
	<polygon class="st24" points="415.4,739.6 428.5,739.6 428.5,739 415.9,739 415.9,651.8 427.5,651.7 427.5,651.1 415.4,651.2 	"/>
	<polygon class="st1" points="427.5,654.1 417.7,653.9 418.2,735.7 428.5,735.8 	"/>
	<rect x="418.7" y="655.1" class="st27" width="8.2" height="7.2"/>
	<rect x="418.7" y="663.5" class="st27" width="8.2" height="8.4"/>
	<rect x="418.7" y="673" class="st27" width="8.2" height="10.2"/>
	<rect x="418.7" y="684.4" class="st27" width="8.2" height="9.5"/>
	<rect x="418.7" y="695.1" class="st27" width="8.2" height="7.2"/>
	<rect x="418.7" y="703.4" class="st27" width="8.8" height="7.2"/>
	<rect x="418.7" y="711.8" class="st27" width="8.8" height="6.6"/>
	<rect x="418.7" y="719.6" class="st27" width="9.3" height="7.8"/>
	<rect x="418.7" y="728.5" class="st27" width="9.3" height="6.6"/>
	<polygon class="st24" points="422.5,784.4 421.9,753.3 388.5,753.3 388.3,784.4 387.7,784.4 387.9,752.7 422.5,752.7 423.1,784.3 	
		"/>
	<polygon class="st24" points="418.5,784.4 418.3,758.7 393.3,759.3 392.7,783.5 392.1,783.5 392.7,758.7 418.9,758.1 419.1,784.4 	
		"/>
	<rect x="363.7" y="756.6" class="st28" width="1.2" height="26.9"/>
	<rect x="367.3" y="756.6" class="st28" width="1.2" height="26.9"/>
	<rect x="370.3" y="756.6" class="st28" width="1.2" height="26.9"/>
	<rect x="373.9" y="756.6" class="st28" width="1.2" height="26.9"/>
	<rect x="376.2" y="756.6" class="st28" width="1.2" height="26.9"/>
	<rect x="279.8" y="667.1" class="st29" width="22.7" height="70"/>
	<polygon class="st30" points="213.5,784.4 340.7,784.4 341.3,689 315.9,689.5 315.9,630.4 301.6,647.3 301.6,731.6 285.5,732.5 
		285.5,708 265.8,708 265.8,712.2 253.8,712.2 253.2,615.2 213.8,617.7 	"/>
	<rect x="217.4" y="622" class="st31" width="34" height="42.2"/>
	<path class="st32" d="M241,727h-3.6v-5.9h3.6V727z M238,726.2h2.4v-4.2H238V726.2z"/>
	<path class="st32" d="M249.4,723.6h-3v-5.9h3V723.6z M247,722.8h1.8v-4.2H247L247,722.8z"/>
	<rect x="281.3" y="699.6" class="st32" width="1.2" height="8.4"/>
	<rect x="272.4" y="700.4" class="st32" width="1.2" height="7.6"/>
	<rect x="269.4" y="698.7" class="st32" width="1.2" height="9.3"/>
	<rect x="303.4" y="667.5" class="st33" width="10.8" height="0.8"/>
	<rect x="303.4" y="670" class="st33" width="11.3" height="0.8"/>
	<rect x="303.4" y="688.6" class="st33" width="10.8" height="1.7"/>
	<rect x="305.2" y="693.7" class="st33" width="33.4" height="1.7"/>
	<path class="st33" d="M325.8,715.2h-18.5V700h18.5V715.2z M307.9,714.3h17.3v-13.5h-17.3V714.3z"/>
	<rect x="327.9" y="699.6" class="st33" width="9.5" height="1.7"/>
	<rect x="327.9" y="704.6" class="st33" width="9.5" height="0.8"/>
	<rect x="327.9" y="709.7" class="st33" width="9.5" height="1.7"/>
	<rect x="327.9" y="713.9" class="st33" width="9.5" height="0.8"/>
	<rect x="304" y="718.1" class="st33" width="34.6" height="0.8"/>
	<rect x="304" y="723.2" class="st33" width="35.8" height="1.7"/>
	<rect x="256.8" y="723.2" class="st32" width="7.2" height="0.8"/>
	<rect x="265.8" y="721.5" class="st32" width="19.1" height="0.8"/>
	<rect x="265.8" y="713.1" class="st32" width="0.6" height="39.7"/>
	<rect x="272.4" y="724" class="st32" width="1.2" height="11"/>
	<rect x="279.5" y="724" class="st32" width="0.6" height="11"/>
	<rect x="268.2" y="729.1" class="st32" width="3" height="5.1"/>
	<rect x="253.9" y="714.8" class="st32" width="1.8" height="39.7"/>
	<path class="st32" d="M229.4,781.4c0.6,0,35.2-24.5,35.2-24.5l-1.2-2.5l-38.8,27H229.4z"/>
	<rect x="257.4" y="732.5" class="st32" width="6.6" height="1.7"/>
	<rect x="257.4" y="744.3" class="st32" width="6.6" height="1.7"/>
	<polygon class="st6" points="75.6,784.4 170,784.4 166.4,638.1 147.6,637.8 143.4,569.7 119.5,591.2 121.3,689.7 115.3,689.1 
		75.9,717.2 	"/>
	<polygon class="st7" points="123.7,601.4 141.6,589.4 141.6,576.9 123.7,593.6 	"/>
	<path class="st7" d="M141.6,595.4l-18.5,11.9l2.4,49l18.5-18L141.6,595.4z M127.9,646.1l-1.2-38.2l1.2-0.6l1.2,38.2L127.9,646.1z
		 M132,642l-1.2-37c0,0,1.2-0.6,1.2,0s1.2,36.4,1.2,36.4L132,642z M138,635.4l-1.2,1.2v-33.5h1.2V635.4z"/>
	<path class="st34" d="M131.1,691.2h-12.4l13.1,11.8L131.1,691.2z M120.3,691.8h10.3l0.5,9.7L120.3,691.8z"/>
	<path class="st34" d="M121,714.2L121,714.2v6.9l7.8-0.7l0.6-15.8v-0.2l-8.4-7.1V714.2z M128.4,714l-6.8,0.2v-5.5l7,0.1L128.4,714z
		 M121.6,720.5v-5.7l6.8-0.2l-0.2,5.3L121.6,720.5z M128.8,704.8l-0.1,3.5l-7-0.1v-9.4L128.8,704.8z"/>
	<polygon class="st34" points="90.8,779.6 90.2,779.6 90.2,714.2 96.2,714.2 96.2,711.2 101.5,711.2 100.9,707 105.8,707 
		105.8,702.3 113.8,701.7 113.8,702.3 106.4,702.8 106.4,707.6 101.6,707.6 102.2,711.8 96.8,711.8 96.8,714.8 90.8,714.8 	"/>
	<rect x="127.9" y="729.7" class="st35" width="5.4" height="7.2"/>
	<rect x="122.5" y="738.1" class="st35" width="5.4" height="6.6"/>
	<rect x="145.2" y="645.5" class="st9" width="7.2" height="16.7"/>
	<rect x="154.1" y="644.3" class="st9" width="6.6" height="21.5"/>
	<rect x="115.9" y="690.9" class="st34" width="1.2" height="34.6"/>
	<rect x="108.2" y="713" class="st34" width="1.2" height="40.6"/>
	<rect x="104" y="716.6" class="st34" width="1.2" height="33.4"/>
	<rect x="99.8" y="720.2" class="st34" width="1.2" height="29.8"/>
	<path class="st35" d="M115.9,758.4c0,0,19.1,11.3,19.1,10.8s-2.4-23.3-2.4-23.3L115.9,758.4z"/>
	<polyline class="st9" points="147.6,702.3 147,698.1 133.8,707.6 133.8,710 140.4,710 147.6,702.9 	"/>
	<polygon class="st9" points="133.8,702.3 135.6,702.3 145.8,695.7 145.8,693.9 	"/>
	<path class="st9" d="M132,690.3h1.2v-0.6h12v-1.2c0,0-13.1-0.6-13.1,0L132,690.3z"/>
	<polygon class="st9" points="142.2,710 147.6,710 148.8,705.2 	"/>
	<polygon class="st5" points="150.2,784.4 212.4,784.4 212.1,692.1 195.9,686.1 195.9,698.7 188.2,698.7 188.2,716 181,717.2 
		181,661.7 149.9,661.7 	"/>
	<rect x="151.1" y="663.5" class="st36" width="28.1" height="1.8"/>
	<rect x="151.7" y="671.2" class="st37" width="28.1" height="4.8"/>
	<rect x="151.7" y="686.7" class="st37" width="28.1" height="4.8"/>
	<rect x="198.9" y="722" class="st36" width="11.3" height="1.2"/>
	<rect x="198.3" y="724.4" class="st36" width="11.9" height="1.2"/>
	<rect x="191.8" y="727.3" class="st36" width="18.5" height="0.6"/>
	<rect x="190" y="729.7" class="st36" width="20.3" height="0.6"/>
	<rect x="191.1" y="732.7" class="st36" width="19.7" height="0.6"/>
	<rect x="187.6" y="717.8" class="st36" width="1.2" height="65.7"/>
	<path class="st36" d="M210,750.9h-17.9v-15.5H210V750.9z M192.7,750.3h16.7V736h-16.8L192.7,750.3z"/>
	<path class="st36" d="M201,695.4c-1.2-0.2-2-1.2-1.8-2.4c0.2-1.2,1.2-2,2.4-1.8c1,0.1,1.8,1,1.8,2.1
		C203.3,694.5,202.2,695.5,201,695.4z M201,691.8c-0.8,0.1-1.4,0.9-1.2,1.8c0.1,0.8,0.9,1.4,1.8,1.2c0.7-0.1,1.3-0.8,1.2-1.5
		C202.7,692.4,201.9,691.8,201,691.8z"/>
	<path class="st38" d="M173.9,743.8h-13.6l5.2-10.4L173.9,743.8z M161.2,743.2h11.4l-7.1-8.7L161.2,743.2z"/>
	<path class="st36" d="M204.3,746.2h-9.4l4-7.4L204.3,746.2z M195.8,745.6h7.3l-4.1-5.7L195.8,745.6z"/>
	<polygon class="st39" points="154.1,726.8 179.2,719 154.1,709.4 	"/>
	<path class="st3" d="M922.9,784.4h111.7l-4.2-113.5l-14.3-0.6l-0.6-27.5h-6.6v-7.2h-23.3l0.6,34h-18.5v-56.1h-27.5
		c-0.6,0,0,63.3,0,63.3h-16.7L922.9,784.4z"/>
	<polygon class="st0" points="989.2,670.3 1008.3,670.3 1007.7,644.7 988.6,644.7 	"/>
	<polygon class="st0" points="989.2,642.9 1007.1,643.5 1007.1,639.3 988.6,637.5 	"/>
	<polygon class="st4" points="975.4,687.3 974.8,697.2 990.8,697.2 	"/>
	<path class="st4" d="M966.8,675.4v26.9l37.6-1.2L966.8,675.4z M974.9,686.2l18,11.6h-18.6L974.9,686.2z"/>
	<polygon class="st0" points="971.4,784.4 1004.1,784.4 1003.8,756.6 971,743.5 	"/>
	<polygon class="st1" points="942.9,714.8 942.9,783.5 966.3,784.4 966.2,736.3 955.4,715.4 	"/>
	<polygon class="st5" points="923.3,769.8 938.7,769.7 938.7,741.1 963.8,740.5 963.3,784.4 922.6,784.1 	"/>
	<polygon class="st6" points="1004.1,784.4 1098.4,784.4 1094.8,638.1 1076,637.8 1071.8,569.7 1048,591.2 1049.8,689.7 
		1043.8,689.1 1004.4,717.2 	"/>
	<polygon class="st7" points="1052.2,601.4 1070.1,589.4 1070.1,576.9 1052.2,593.6 	"/>
	<path class="st7" d="M1070.1,595.4l-18.5,11.9l2.4,49l18.5-17.9L1070.1,595.4z M1056.3,646.1l-1.2-38.2l1.2-0.6l1.2,38.2
		L1056.3,646.1z M1060.5,642l-1.2-37c0,0,1.2-0.6,1.2,0s1.2,36.4,1.2,36.4L1060.5,642z M1066.5,635.4l-1.2,1.2v-33.4h1.2V635.4z"/>
	<path class="st34" d="M1059.6,691.2h-12.4l13.1,11.8L1059.6,691.2z M1048.8,691.8h10.2l0.5,9.7L1048.8,691.8z"/>
	<path class="st34" d="M1049.5,714.2L1049.5,714.2v6.9l7.8-0.7l0.6-15.8v-0.2l-8.4-7.1L1049.5,714.2z M1056.9,714l-6.8,0.2v-5.5
		l7,0.1L1056.9,714z M1050.1,720.5v-5.7l6.8-0.2l-0.2,5.3L1050.1,720.5z M1057.2,704.8l-0.1,3.5l-7-0.1v-9.4L1057.2,704.8z"/>
	<polygon class="st34" points="1019.3,779.6 1018.7,779.6 1018.7,714.2 1024.7,714.2 1024.7,711.2 1030,711.2 1029.4,707 
		1034.2,707 1034.2,702.3 1042.3,701.7 1042.3,702.3 1034.8,702.8 1034.8,707.6 1030.1,707.6 1030.7,711.8 1025.3,711.8 
		1025.3,714.8 1019.3,714.8 	"/>
	<rect x="1056.3" y="729.7" class="st35" width="5.4" height="7.2"/>
	<rect x="1050.9" y="738.1" class="st35" width="5.4" height="6.6"/>
	<rect x="1073.6" y="645.5" class="st9" width="7.2" height="16.7"/>
	<rect x="1082.6" y="644.3" class="st9" width="6.6" height="21.5"/>
	<rect x="1044.4" y="690.9" class="st34" width="1.2" height="34.6"/>
	<rect x="1036.6" y="713" class="st34" width="1.2" height="40.6"/>
	<rect x="1032.4" y="716.6" class="st34" width="1.2" height="33.4"/>
	<rect x="1028.3" y="720.2" class="st34" width="1.2" height="29.8"/>
	<path class="st35" d="M1044.4,758.4c0,0,19.1,11.3,19.1,10.8s-2.4-23.3-2.4-23.3L1044.4,758.4z"/>
	<polyline class="st9" points="1076,702.3 1075.4,698.1 1062.3,707.6 1062.3,710 1068.9,710 1076,702.9 	"/>
	<polygon class="st9" points="1062.3,702.3 1064.1,702.3 1074.2,695.7 1074.2,693.9 	"/>
	<path class="st9" d="M1060.5,690.3h1.2v-0.6h11.9v-1.2c0,0-13.1-0.6-13.1,0L1060.5,690.3z"/>
	<polygon class="st9" points="1070.7,710 1076,710 1077.2,705.2 	"/>
	<polygon class="st5" points="1068,784.4 1130.1,784.4 1129.8,692.1 1113.7,686.1 1113.7,698.7 1105.9,698.7 1105.9,716 
		1098.7,717.2 1098.7,661.7 1067.7,661.7 	"/>
	<rect x="1068.9" y="663.5" class="st36" width="28.1" height="1.8"/>
	<rect x="1069.5" y="671.2" class="st37" width="28.1" height="4.8"/>
	<rect x="1069.5" y="686.7" class="st37" width="28.1" height="4.8"/>
	<rect x="1116.6" y="722" class="st36" width="11.3" height="1.2"/>
	<rect x="1116" y="724.4" class="st36" width="11.9" height="1.2"/>
	<rect x="1109.5" y="727.3" class="st36" width="18.5" height="0.6"/>
	<rect x="1107.7" y="729.7" class="st36" width="20.3" height="0.6"/>
	<rect x="1108.9" y="732.7" class="st36" width="19.7" height="0.6"/>
	<rect x="1105.3" y="717.8" class="st36" width="1.2" height="65.7"/>
	<path class="st36" d="M1127.7,750.9h-17.9v-15.5h17.9V750.9z M1110.4,750.3h16.7V736h-16.7V750.3z"/>
	<path class="st36" d="M1118.7,695.4c-1.2-0.2-2-1.2-1.8-2.4s1.2-2,2.4-1.8c1,0.1,1.8,1,1.8,2.1C1121,694.5,1120,695.5,1118.7,695.4
		z M1118.7,691.8c-0.8,0.1-1.4,0.9-1.2,1.8c0.1,0.8,0.9,1.4,1.8,1.2c0.7-0.1,1.3-0.8,1.2-1.5
		C1120.4,692.4,1119.6,691.8,1118.7,691.8z"/>
	<path class="st38" d="M1091.6,743.8h-13.7l5.2-10.4L1091.6,743.8z M1078.9,743.2h11.4l-7.1-8.7L1078.9,743.2z"/>
	<path class="st36" d="M1122,746.2h-9.4l4-7.4L1122,746.2z M1113.6,745.6h7.3l-4.2-5.7L1113.6,745.6z"/>
	<polygon class="st39" points="1071.8,726.8 1096.9,719 1071.8,709.4 	"/>
	<path class="st40" d="M647,784.4v-14.9l6.7-0.5l-0.1-6.7h21.5v3h7.8c0,0,0-5.2,0-6.6h23.3v25.7L647,784.4z"/>
	<rect x="685.8" y="764.7" class="st41" width="7.2" height="5.4"/>
	<rect x="694.2" y="764.7" class="st41" width="7.2" height="5.4"/>
	<path class="st41" d="M654.2,767.7v9.5h17.3v-9.5H654.2z M669.7,775.4H656v-6h13.7L669.7,775.4z"/>
	<rect x="680.4" y="755.1" class="st42" width="27.5" height="6"/>
</g>
<path class="st43" d="M-35,844.8c0,0,61.6-208.5,406.9-160.7c358.8,49.8,1149.5-38,1309.3,5c150.6,40.5,294.1,58.1,293.7,68.4
	L1976,977l-2011,0.3V844.8z"/>
<path class="st44" d="M107.5,823.9c-0.7,1.5-1.1,3.1-1,4.8c0,7.4-4.9,10.7-5.1,10.8c-0.3,0.2-0.7,0.2-1.1,0.1
	c-0.4-0.1-0.6-0.3-0.6-0.6c-0.1-3.8-0.6-7.6-1.6-11.3c-0.2-1.1-0.6-2.2-1.2-3.2c-0.1,0.3-0.1,0.7-0.1,1c0,7.6-2.3,14.1-6.6,19
	c-2.6,2.9-3,3.2-4,2.9s-1.2-0.4,3.3-7.3c0.8-1.2,1.5-2.4,2.2-3.4c1.8-2.9,1.5-3.2,0.2-4.4c-1.4-1.3-2.6-2.8-3.5-4.5
	c-0.6-1.1-1-2-1.4-2.6c-0.5,0.7-1.1,1.3-1.9,1.8c-3.1,2-12.6,13.2-12.7,13.3c-0.3,0.3-0.7,0.4-1.1,0.3c-0.4-0.1-0.7-0.3-0.7-0.6
	s0.1-2.4,5-7.6c3.6-3.9,1.4-5.7,0.6-6.3c-4.7,0.7-9.3,2.1-13.7,4c-4.3,2.1-14.1,12.1-18.6,17.3c-0.3,1.3-1.1,2.5-2.3,3.3
	c-0.4,0.3-0.9,0.4-1.3,0.3c-0.3,0-0.6-0.2-0.7-0.5c-0.1-0.4,0.8-1.8,2.4-3.7c0.2-0.6,0.4-1.3,0.6-2.1c1.1-4.7,2.9-9.2,5.5-13.3
	c2.9-4.6,8.9-10.1,21.4-9.7h0.4c2.5-0.3,4.9-0.8,7.3-1.5c5.5-1.3,12.3-3,18.1-3c2.5-0.1,5.1,0.4,7.4,1.4
	C107.8,821.5,108.4,821.9,107.5,823.9z"/>
<path class="st45" d="M106.8,801.1c-1.2-0.3-1.8,1.1-3,3.6c-0.3,0.6-0.5,1.2-0.8,1.7c-0.6,1.3-1.1,2.6-1.5,4c-0.8,2.5-2,6.3-3.2,6.9
	c-0.1,0.1-0.3,0.1-0.4,0c-0.7-0.3-1.4-0.6-2.1-0.7c-2.6-0.8-5.1-1.5-3.9-11.2c1.7-13.2,1.6-18-1.7-24.7c-1.7-3.4-1.7-3.5-2.6-3.1
	s-0.7,1.1-0.4,2.2c0.7,2.5,1.1,5.2,1.2,7.8c0,17.7-0.7,22.5-1.3,23.4c-1,0.3-5.7-1.4-9.6-4c-2.6-1.8-3.3-2.9-3.3-3.3
	c0-3.1,1.6-17.5,1.6-17.6c0-0.6-0.4-1-1-1c-0.3,0-0.5,0.1-0.7,0.3c-0.5,0.5-11.7,13.5-6.5,22c1.3,2.2,2.8,4.3,4,6.1
	c1.4,2.1,3.2,4.6,3.4,5.5c-0.5,0-1-0.1-1.5-0.2c-6.1-1.5-7.5-2.9-10.7-7.6c-1.1-1.6-2.3-2.5-3.5-2.3c-0.8,0.1-1.5,0.6-1.8,1.4
	c-0.7,1.7-0.2,5.4,3.6,10.2c6.7,8.4,15,8.4,21.7,8.4c6-0.2,11.9-0.8,17.8-1.6c0.2,0,0.4-0.1,0.6-0.3c3.5-3.5,6.7-15.1,6.7-21.6
	C108.1,802.6,107.9,801.3,106.8,801.1z"/>
<path class="st44" d="M1421.3,794.6c-0.7,1.5-1.1,3.2-1,4.8c0,7.4-4.9,10.7-5.1,10.8c-0.3,0.2-0.7,0.2-1,0.1
	c-0.4-0.1-0.6-0.3-0.6-0.6c-0.1-3.8-0.6-7.6-1.6-11.3c-0.2-1.1-0.6-2.2-1.2-3.2c-0.1,0.3-0.1,0.7-0.1,1c0,7.6-2.3,14.1-6.6,19
	c-2.6,2.9-3,3.2-4,2.9s-1.2-0.4,3.3-7.3c0.8-1.2,1.6-2.4,2.2-3.4c1.8-2.9,1.5-3.2,0.2-4.4c-1.4-1.3-2.6-2.8-3.5-4.5
	c-0.6-1.1-1-2-1.4-2.6c-0.5,0.7-1.1,1.3-1.9,1.8c-3.1,2-12.6,13.2-12.7,13.3c-0.3,0.3-0.7,0.4-1.1,0.3c-0.4-0.1-0.7-0.3-0.7-0.6
	s0.1-2.4,5-7.6c3.6-3.9,1.4-5.7,0.6-6.3c-4.7,0.7-9.3,2.1-13.7,4c-4.3,2.1-14.1,12.1-18.6,17.3c-0.3,1.3-1.1,2.5-2.2,3.3
	c-0.4,0.3-0.9,0.4-1.3,0.3c-0.3,0-0.6-0.2-0.7-0.5c-0.1-0.4,0.8-1.8,2.4-3.7c0.2-0.6,0.4-1.3,0.6-2.1c1.1-4.7,2.9-9.2,5.5-13.3
	c2.9-4.6,8.9-10.1,21.4-9.7h0.4c2.5-0.3,4.9-0.8,7.3-1.5c5.5-1.3,12.3-3,18.1-3c2.5-0.1,5.1,0.4,7.4,1.4
	C1421.6,792.2,1422.2,792.6,1421.3,794.6z"/>
<path class="st45" d="M1420.6,771.8c-1.2-0.3-1.8,1.1-3,3.6c-0.3,0.6-0.5,1.2-0.8,1.7c-0.6,1.3-1.1,2.6-1.5,4
	c-0.8,2.5-2,6.3-3.2,6.8c-0.1,0.1-0.3,0.1-0.4,0c-0.6-0.3-1.3-0.5-2-0.7c-2.6-0.8-5.1-1.5-3.9-11.2c1.7-13.2,1.6-18-1.7-24.7
	c-1.7-3.4-1.7-3.5-2.6-3.1s-0.7,1.1-0.4,2.2c0.7,2.5,1.1,5.2,1.2,7.8c0,17.7-0.7,22.5-1.3,23.4c-1,0.3-5.7-1.4-9.6-4
	c-2.6-1.8-3.3-2.9-3.3-3.3c0-3.1,1.6-17.5,1.6-17.6c0-0.4-0.2-0.8-0.6-1c-0.4-0.2-0.8-0.1-1.1,0.2c-0.5,0.5-11.7,13.5-6.5,22.1
	c1.3,2.2,2.8,4.3,4,6.1c1.4,2.1,3.2,4.6,3.3,5.5c-0.5,0-1-0.1-1.5-0.2c-6.1-1.5-7.5-2.9-10.7-7.6c-1.1-1.6-2.3-2.5-3.5-2.3
	c-0.8,0.1-1.5,0.6-1.7,1.4c-0.7,1.7-0.2,5.4,3.6,10.2c6.7,8.4,15,8.4,21.7,8.4c6-0.2,11.9-0.8,17.8-1.6c0.2,0,0.4-0.1,0.5-0.3
	c3.5-3.5,6.7-15.1,6.7-21.6C1421.9,773.3,1421.7,772,1420.6,771.8z"/>
<path class="st44" d="M324.8,921.1c-0.7,0.1-1.1-0.4-1.9-1.3l-0.5-0.6c-0.3-0.5-0.7-1-0.9-1.5c-0.5-0.9-1.3-2.3-2-2.5
	c-0.1,0-0.2,0-0.3,0c-0.4,0.1-0.9,0.2-1.3,0.3c-1.6,0.3-3.2,0.5-2.4,4.1c1,4.9,1,6.7-1.1,9.2c-1.1,1.3-1.1,1.3-1.6,1.2
	s-0.4-0.4-0.2-0.8c0.4-0.9,0.7-1.9,0.7-2.9c0-6.6-0.4-8.4-0.8-8.7c-2.1,0.2-4.1,0.7-6,1.5c-1.6,0.7-2.1,1.1-2.1,1.2
	c0,1.2,1,6.5,1,6.5s-0.1,0.3-0.4,0.4c-0.2,0.1-0.5,0-0.7-0.1c-0.3-0.2-7.3-5-4.1-8.2c0.8-0.8,1.7-1.6,2.5-2.3
	c0.8-0.6,1.5-1.3,2.1-2.1c-0.3,0-0.6,0-0.9,0.1c-3.8,0.6-4.7,1.1-6.7,2.8c-0.6,0.6-1.4,0.9-2.2,0.9c-0.4,0-0.8-0.2-1.1-0.5
	c-0.5-0.6-0.1-2,2.3-3.8c4.2-3.1,9.4-3.1,13.6-3.1s10.9,0.6,11.2,0.6c0.1,0,0.2,0,0.3,0.1c2.2,1.3,4.2,5.6,4.2,8
	C325.6,920.5,325.5,921,324.8,921.1z"/>
<path class="st45" d="M325,911.1c-0.5-1.5-0.7-3.1-0.6-4.7c0-7.2-3.1-10.4-3.2-10.5c-0.2-0.2-0.4-0.2-0.7-0.1
	c-0.2,0.1-0.4,0.3-0.4,0.5c-0.1,3.7-0.4,7.4-1,11c-0.1,1.1-0.4,2.1-0.7,3.1c-0.1-0.3-0.1-0.7-0.1-1c0-7.4-1.4-13.8-4.1-18.5
	c-1.6-2.8-1.9-3.1-2.5-2.8s-0.7,0.4,2.1,7.1c0.5,1.2,1,2.3,1.4,3.3c1.1,2.8,0.9,3.1,0.1,4.2c-0.9,1.3-1.7,2.8-2.2,4.4
	c-0.4,1.1-0.6,1.9-0.9,2.5c-0.3-0.6-0.7-1.2-1.2-1.7c-1.9-1.9-7.9-12.9-8-13c-0.1-0.2-0.4-0.4-0.7-0.3c-0.3,0.1-0.5,0.3-0.5,0.6
	c0,0.2,0.1,2.3,3.1,7.4c2.3,3.8,0.9,5.6,0.4,6.1c-3.1-0.7-6-2-8.6-3.9c-2.7-2-8.8-11.8-11.7-16.9c-0.1-1.2-0.6-2.3-1.4-3.2
	c-0.2-0.2-0.5-0.4-0.8-0.3c-0.2,0.1-0.4,0.3-0.4,0.5c0.3,1.3,0.8,2.5,1.5,3.6c0.1,0.6,0.2,1.3,0.4,2c0.6,4.5,1.8,8.8,3.4,13
	c1.8,4.5,5.6,9.8,13.4,9.5h0.2c1.6,0.3,3.1,0.8,4.6,1.4c3.5,1.3,7.7,2.9,11.3,2.9c1.7,0.1,3.3-0.4,4.6-1.4
	C325.3,913.5,325.6,913.1,325,911.1z"/>
<path class="st44" d="M941.4,795.5c-0.8,0.1-1.2-0.4-1.9-1.3l-0.5-0.6c-0.4-0.5-0.7-1-0.9-1.5c-0.5-0.9-1.3-2.3-2-2.5
	c-0.1,0-0.2,0-0.3,0c-0.4,0.1-0.9,0.2-1.3,0.3c-1.6,0.3-3.2,0.5-2.4,4.1c1,4.9,1,6.7-1.1,9.2c-1.1,1.3-1.1,1.3-1.6,1.2
	s-0.4-0.4-0.2-0.8c0.4-0.9,0.7-1.9,0.7-2.9c0-6.6-0.5-8.4-0.8-8.7c-2.1,0.2-4.1,0.7-6,1.5c-1.6,0.7-2.1,1.1-2.1,1.2
	c0,1.2,1,6.5,1,6.5s-0.1,0.3-0.3,0.4c-0.2,0.1-0.5,0-0.7-0.1c-0.3-0.2-7.3-5-4.1-8.2c0.8-0.8,1.7-1.6,2.5-2.3
	c0.8-0.6,1.5-1.3,2.1-2.1c-0.3,0-0.6,0-0.9,0.1c-3.8,0.6-4.7,1.1-6.7,2.8c-0.6,0.6-1.4,0.9-2.2,0.9c-0.4,0-0.8-0.2-1.1-0.5
	c-0.5-0.6-0.1-2,2.3-3.8c4.2-3.1,9.4-3.1,13.6-3.1c4,0,10.9,0.6,11.2,0.6c0.1,0,0.2,0,0.3,0.1c2.2,1.3,4.2,5.6,4.2,8
	C942.2,794.9,942.1,795.4,941.4,795.5z"/>
<path class="st45" d="M941.6,785.5c-0.5-1.5-0.7-3.1-0.7-4.7c0-7.2-3.1-10.4-3.2-10.5c-0.3-0.2-0.6-0.2-0.9,0.1
	c-0.1,0.1-0.1,0.2-0.1,0.4c-0.1,3.7-0.4,7.4-1,11c-0.1,1.1-0.4,2.1-0.7,3.1c-0.1-0.3-0.1-0.7-0.1-1c0-7.4-1.4-13.8-4.1-18.5
	c-1.6-2.8-1.9-3.1-2.5-2.8s-0.7,0.3,2.1,7.1c0.5,1.2,1,2.3,1.4,3.3c1.1,2.8,0.9,3.1,0.1,4.2c-0.9,1.4-1.7,2.8-2.2,4.4
	c-0.3,1.1-0.6,1.9-0.8,2.5c-0.3-0.6-0.7-1.2-1.2-1.7c-1.9-1.9-7.9-12.9-8-13c-0.2-0.3-0.5-0.4-0.8-0.2c-0.2,0.1-0.3,0.3-0.3,0.5
	c0,0.2,0.1,2.3,3.1,7.4c2.3,3.8,0.9,5.6,0.4,6.1c-3.1-0.7-6-2-8.6-3.9c-2.7-2-8.8-11.8-11.7-16.9c-0.1-1.2-0.6-2.3-1.4-3.2
	c-0.2-0.3-0.5-0.4-0.8-0.3c-0.2,0.1-0.4,0.3-0.4,0.5c-0.1,0.4,0.5,1.7,1.5,3.6c0.1,0.6,0.2,1.3,0.4,2c0.6,4.5,1.8,8.8,3.4,13
	c1.8,4.5,5.6,9.8,13.4,9.5h0.2c1.6,0.3,3.1,0.8,4.6,1.4c3.4,1.3,7.7,2.9,11.3,2.9c1.7,0.1,3.3-0.4,4.6-1.4
	C941.9,787.9,942.2,787.5,941.6,785.5z"/>
<path class="st44" d="M1482.6,943.1c-0.8,0.1-1.2-0.4-1.9-1.3l-0.5-0.6c-0.4-0.5-0.7-1-0.9-1.5c-0.5-0.9-1.3-2.4-2-2.5
	c-0.1,0-0.2,0-0.3,0c-0.4,0.1-0.9,0.2-1.3,0.3c-1.6,0.3-3.2,0.5-2.4,4.1c1,4.9,1,6.7-1.1,9.2c-1.1,1.3-1.1,1.3-1.6,1.2
	s-0.4-0.4-0.2-0.8c0.4-0.9,0.7-1.9,0.7-2.9c0-6.6-0.4-8.4-0.8-8.7c-2.1,0.2-4.1,0.7-6,1.5c-1.6,0.7-2.1,1.1-2.1,1.2
	c0,1.2,1,6.5,1,6.5s-0.1,0.3-0.3,0.4c-0.2,0.1-0.5,0-0.7-0.1c-0.3-0.2-7.3-5-4.1-8.2c0.8-0.8,1.7-1.6,2.5-2.3c0.8-0.6,1.5-1.2,2.1-2
	c-0.3,0-0.6,0-0.9,0.1c-3.8,0.6-4.7,1.1-6.7,2.8c-0.6,0.6-1.4,0.9-2.2,0.9c-0.4,0-0.8-0.2-1.1-0.5c-0.4-0.6-0.1-2,2.3-3.8
	c4.2-3.1,9.4-3.1,13.6-3.1c4,0,10.9,0.6,11.2,0.6c0.1,0,0.2,0,0.3,0.1c2.2,1.3,4.2,5.6,4.2,8C1483.4,942.5,1483.3,943,1482.6,943.1z
	"/>
<path class="st45" d="M1482.9,933.1c-0.5-1.5-0.7-3.1-0.7-4.7c0-7.2-3.1-10.4-3.2-10.5c-0.2-0.2-0.4-0.2-0.7-0.1
	c-0.2,0.1-0.4,0.3-0.4,0.6c-0.1,3.7-0.4,7.4-1,11c-0.1,1-0.4,2.1-0.7,3.1c-0.1-0.3-0.1-0.7-0.1-1c0-7.4-1.4-13.7-4.1-18.5
	c-1.6-2.8-1.9-3.1-2.5-2.8s-0.7,0.4,2.1,7.1c0.5,1.2,1,2.3,1.4,3.3c1.1,2.8,0.9,3.1,0.1,4.3c-0.9,1.4-1.7,2.8-2.2,4.4
	c-0.4,1.1-0.7,1.9-0.9,2.5c-0.3-0.6-0.7-1.2-1.2-1.7c-1.9-1.9-7.9-12.9-8-13c-0.1-0.2-0.4-0.4-0.7-0.3c-0.3,0.1-0.5,0.3-0.4,0.6
	c0,0.2,0.1,2.3,3.1,7.4c2.3,3.8,0.9,5.6,0.4,6.1c-3.1-0.7-6-2.1-8.6-3.9c-2.7-2-8.8-11.8-11.7-16.9c-0.1-1.2-0.6-2.3-1.4-3.3
	c-0.2-0.2-0.5-0.4-0.8-0.3c-0.2,0.1-0.4,0.3-0.4,0.5c-0.1,0.4,0.5,1.7,1.5,3.6c0.1,0.6,0.2,1.3,0.3,2c0.6,4.5,1.8,8.8,3.4,13
	c1.8,4.5,5.6,9.8,13.4,9.5h0.2c1.6,0.3,3.1,0.8,4.6,1.4c3.4,1.3,7.7,2.9,11.3,2.9c1.7,0.1,3.3-0.3,4.7-1.3
	C1483.1,935.5,1483.5,935.1,1482.9,933.1z"/>
<path class="st44" d="M1813.7,853.5c0,0,13.4-2.8,17.4-1.7s5.3,9.1,5.3,15.3s-2.7,10.8,4,10.8s24.1-0.6,28.1,4.5s4,18.2,2.7,20.5
	s-4,2.8-9.4,2.3s-6.7-1.1-6.7-6.8s2.7-9.1-1.3-10.8s-10.7-4-13.4-1.7s-4,18.2-4,26.7s-1.3,15.3-4,16.5s-13.4,0.6-12-2.8
	s0-21-1.3-22.7s-6.7-1.7-6.7,2.3s1.3,9.1-1.3,10.2s-9.4,0-9.4-4s-1.3-11.4,2.7-14.2s10-3.1,11.4-2.6s6.7-10.2,1.3-11.4
	s-13.4-2.3-17.4,2.8s1.3,18.8-4,19.9s-13.4,1.1-14.7-5.1s-1.3-17,5.3-21s20.1-4.5,22.8-5.1s4-2.8,4-6.2S1811.7,855.5,1813.7,853.5z"
	/>
<path class="st46" d="M1811.6,864.3c0,0,13.4,6.7,17.4,4s5.4-21.4,5.4-36.1s-2.7-25.4,4-25.4s24.1,1.3,28.1-10.7s4-42.8,2.7-48.2
	s-4-6.7-9.4-5.3s-6.7,2.7-6.7,16.1s2.7,21.4-1.3,25.4s-10.7,9.4-13.4,4s-4-42.8-4-62.9s-1.3-36.1-4-38.8s-13.4-1.3-12,6.7
	s0,49.5-1.3,53.5s-6.7,4-6.7-5.3s1.3-21.4-1.3-24.1s-9.4,0-9.4,9.4s-1.3,26.8,2.7,33.5s10,7.4,11.4,6s6.7,24.1,1.3,26.8
	s-13.4,5.3-17.4-6.7s1.3-44.2-4-46.8s-13.4-2.7-14.7,12s-1.3,40.2,5.4,49.5s20.1,10.7,22.8,12s4,6.7,4,14.7
	S1809.6,859.7,1811.6,864.3z"/>
<path class="st47" d="M1855.8,794.8c0,0,5.4,1.3,6.7-20.1s-1.3-28.1-4-28.1s-4.7,7.4-6,19.4c-1,8-1.4,16-1.3,24.1
	C1851.1,795.4,1852.5,794.1,1855.8,794.8z"/>
<path class="st47" d="M1808.3,757.9c0,0-2.7-13.4-1.3-21.4s1.3-12-1.3-13.4s-4-1.3-5.3,6.7s-2.7,25.4,0,29.5S1811,766,1808.3,757.9z
	"/>
<path class="st47" d="M1827,691c0,0,1.3,105.7,2.7,111.1s2.7,4,0,10.7s-1.3,28.1-2.7,36.1s0,17.4-2.7,17.4s-13.4,1.3-12-25.4
	s-4-25.4,1.3-29.4s1.3-12,1.3-12s2.7-30.8,1.3-32.1s8-8,5.3-9.4s-6.7,0-5.3-13.4s2.7-50.9,5.3-52.2
	C1823.3,691.5,1825.2,691.1,1827,691z"/>
<path class="st47" d="M1793.6,798.1c0,0-6.7-13.4-5.4-25.4s2.7-29.4,1.3-29.4s-8-1.3-9.4,6.7s0,50.9,2.7,52.2
	S1797.6,811.5,1793.6,798.1z"/>
</svg>
