<svg xmlns="http://www.w3.org/2000/svg" viewBox="0 0 1920.5 1092.48532"><defs><style>.cls-1{fill:#f6a39e;}.cls-2,.cls-5{opacity:0.7;}.cls-3,.cls-5{fill:#b2a3b2;}.cls-4{fill:#637965;}.cls-6{fill:#83aaa3;}.cls-7{fill:#5b7566;}</style></defs><title>資產 11</title><g id="圖層_2" data-name="圖層 2"><g id="圖層_1-2" data-name="圖層 1"><rect class="cls-1" width="1920.5" height="1092.48532"/><g class="cls-2"><path class="cls-3" d="M1339.60031,1028.92846c-.04426.3435-.495.61858-1.06924.65331a1.345,1.345,0,0,1-1.26725-.5123c-.16423-.34281-4.02189-8.46355-4.02189-14.42291,0-3.26205-3.36031-6.2782-7.25059-9.77018a57.26184,57.26184,0,0,1-8.55628-8.91994c-2.308-3.21126-4.52507-4.67713-6.25473-5.32584a32.94164,32.94164,0,0,1,2.51936,3.63508c2.04764,3.667,2.04764,8.42674,2.04764,14.45278a54.43063,54.43063,0,0,1-1.63415,9.8452,12.61817,12.61817,0,0,1-.36923,4.49921,112.63722,112.63722,0,0,1-3.99627,11.91177,1.35906,1.35906,0,0,1-1.40469.52307c-.629-.07988-1.03779-.44214-.926-.81933.03844-.13094,2.54732-8.63826,4.29328-16.15987-.54511-5.519-4.16982-10.64127-4.21524-10.70587a.50251.50251,0,0,1-.06057-.10767c-.43562-1.0391-1.42333-3.43615-2.48908-6.28332-.30866-.22359-.63188-.46506-.96442-.71991a34.01364,34.01364,0,0,0,1.7646,4.23508c2.01386,3.601-1.52233,23.00108-1.93233,25.20137-.06989.37546-.59519.65505-1.25211.63178-.6313-.02084-1.12632-.33273-1.12632-.71028v-11.85655c0-3.74205-1.244-8.01-2.39939-11.52208q-.15025.61268-.318,1.28926c-.25392,1.019-.53229,2.136-.76408,3.1523.65925,2.05476.58471,3.4114-.44727,4.02686a2.07025,2.07025,0,0,1-1.6062.18616c-.94927-.2848-1.124-.78564-.35991-4.17759a59.744,59.744,0,0,0-3.98346-8.14263c-.24809-.44249-.5253-.90234-.82-1.36776-.07571,1.63728-.23412,3.60382-.44028,5.933-.2015,2.27913-.39252,4.43183-.39252,5.88017,0,3.64133-9.11886,19.6265-10.86482,20.087a1.866,1.866,0,0,1-1.29055-.12469c-.60567-.32822-.39718-.70124-.10832-1.21736a80.51825,80.51825,0,0,0,3.94852-9.16584c.66274-1.71369,1.32549-3.42738,1.9894-5.00908.933-2.22773.47406-5.92324-.01165-9.83548-.51133-4.11647-1.04012-8.37256-.00117-11.47276a37.12119,37.12119,0,0,0,1.96494-10.53082.42831.42831,0,0,1,.03611-.17227,6.1984,6.1984,0,0,1,5.57218-3.78165q.27255-.01771.5486-.01806c.23528,0,.47114.01685.707.03569-.42863-.9066-.7303-1.538-.82348-1.7334-4.70677-5.63149-3.31489-6.46089-2.85714-6.73458a2.37032,2.37032,0,0,1,1.22649-.29522,4.57157,4.57157,0,0,1,1.29987.20909c4.0813,1.21771,8.3012,2.47641,10.46648,5.0584,1.23231,1.46987,10.40358,5.471,15.88375,7.862,3.238,1.41221,5.10162,2.2305,5.76087,2.62367,1.2358.737.98305,1.70674.73729,2.64521-.31332,1.201-.70351,2.69592,1.39887,4.577a65.91049,65.91049,0,0,1,6.04158,6.60052,65.09,65.09,0,0,0,5.88666,6.44144C1341.50236,1013.16489,1339.80647,1027.32592,1339.60031,1028.92846Z"/><path class="cls-3" d="M1277.4444,999.28032c-.55326,4.452-1.39654,4.9549-1.80653,5.19872a2.04078,2.04078,0,0,1-1.67142.17644c-1.04944-.36122-1.04362-.77939,1.10885-5.59536a104.65368,104.65368,0,0,0,.51482-11.68254c0-.6613-1.08322-1.17256-1.7285-1.41847a11.14151,11.14151,0,0,0-3.88911-.70229c-.30517.84677-1.99988,2.77789-6.22328,7.3549-.90851.985-1.87991,2.03739-2.62885,2.87583a4.35556,4.35556,0,0,1-1.38606,1.87763,1.94789,1.94789,0,0,1-1.7681.14588c-.78271-.3501-.97257-.43485,1.03314-2.67994a46.977,46.977,0,0,0,2.67544-12.19658c0-2.26176,3.13435-5.35016,3.9753-6.13858v-2.16035c0-.2466.21431-.47514.56607-.605a1.82488,1.82488,0,0,1,.62664-.10628,1.8888,1.8888,0,0,1,.53346.075c.83163.248,8.18472,2.45835,10.24983,3.69,2.43666,1.4532,4.32589,6.56231,4.32589,9.9883,0,1.91722-2.0721,6.50535-3.89959,10.55374C1277.85206,998.3752,1277.6459,998.83019,1277.4444,999.28032Z"/><path class="cls-3" d="M1254.0841,1000.59112a1.315,1.315,0,0,1-1.30219.53349c-.59752-.04376-1.04711-.34663-1.04711-.70576v-8.29892a4.63715,4.63715,0,0,0-1.54912-3.89418,1.21982,1.21982,0,0,0-.04193.3369c0,2.34651-4.76151,8.21973-10.0658,14.54587l-5.96354,7.11386a1.55944,1.55944,0,0,1-1.34063.37441c-.53812-.07572-.919-.3626-.919-.69256,0-.53557.02329-13.18019,2.01036-19.10968,2.03832-6.07953,8.15793-7.68555,11.10942-7.68555a2.02012,2.02012,0,0,1,.23412.01389l9.94,1.18576a1.401,1.401,0,0,1,.75825.30287c.17588.157,4.27581,3.89,2.12684,7.73348C1256.084,995.83419,1254.1039,1000.54388,1254.0841,1000.59112Z"/></g><path class="cls-4" d="M1328.86594,915.26a1.193,1.193,0,0,0-2.3365-.23645c-.16423.57481-4.02189,14.19136-4.02189,24.18378,0,5.46968-3.36032,10.527-7.25059,16.38226a92.26742,92.26742,0,0,0-8.55628,14.9566c-2.308,5.38451-4.52507,7.84243-6.25473,8.93017a65.49477,65.49477,0,0,0,2.51936-6.09516c2.04764-6.14873,2.04764-14.12963,2.04764-24.23387a149.103,149.103,0,0,0-1.63415-16.50805,35.06619,35.06619,0,0,0-.36923-7.54411c-1.97309-11.838-3.9753-19.89283-3.99627-19.9732a1.19224,1.19224,0,0,0-2.33067.49677c.03844.21956,2.54732,14.48429,4.29328,27.09625a61.5383,61.5383,0,0,1-4.21524,17.95118,1.096,1.096,0,0,0-.06057.18054c-.43562,1.74233-1.42333,5.7616-2.48908,10.53563-.30866.37491-.63188.7798-.96442,1.20712.67439-3.09868,1.28181-5.6508,1.7646-7.10121,2.01386-6.03808-1.52233-38.56732-1.93233-42.25668a1.17473,1.17473,0,0,0-1.25211-1.05934,1.193,1.193,0,0,0-1.12632,1.191v19.8806c0,6.27453-1.244,13.43077-2.39939,19.31977q-.15025-1.02731-.318-2.16178c-.25392-1.70869-.53229-3.58162-.76408-5.28565.65925-3.44534.58471-5.72011-.44727-6.75208a1.35674,1.35674,0,0,0-1.60619-.31215c-.94927.47755-1.124,1.31734-.35991,7.00483a138.15339,138.15339,0,0,1-3.98346,13.65324c-.24809.74195-.5253,1.513-.82,2.2934-.07571-2.74532-.23412-6.04274-.44028-9.94816-.2015-3.82156-.39252-7.43113-.39252-9.85964,0-6.10564-9.11886-32.909-10.86482-33.68118a1.20306,1.20306,0,0,0-1.29055.20907c-.60567.55035-.39718,1.17582-.10832,2.04123,1.308,3.9258,2.651,9.74316,3.94852,15.36892.66275,2.87345,1.32549,5.74689,1.9894,8.399.933,3.73537.47405,9.93185-.01165,16.49175-.51133,6.90233-1.04012,14.03878-.00116,19.23707a101.31934,101.31934,0,0,1,1.96494,17.65767,1.14805,1.14805,0,0,0,.03611.28886c1.28123,5.12608,4.04053,6.17319,5.57218,6.34092a5.06052,5.06052,0,0,0,.5486.03028,5.34469,5.34469,0,0,0,.707-.05984c-.42863,1.52015-.7303,2.57891-.82348,2.9065-4.70677,9.44266-3.31489,10.83337-2.85714,11.29229a1.69673,1.69673,0,0,0,1.22648.495,2.9273,2.9273,0,0,0,1.29986-.35059c4.0813-2.04181,8.3012-4.15235,10.46648-8.48174,1.23231-2.46462,10.40358-9.1736,15.88375-13.18268,3.238-2.36794,5.10162-3.74,5.76087-4.39927,1.2358-1.2358.98305-2.8618.73729-4.43538a9.55548,9.55548,0,0,1,1.39887-7.67456,109.82649,109.82649,0,0,0,6.04158-11.06749,108.55886,108.55886,0,0,1,5.88666-10.80076C1330.768,941.69172,1329.0721,917.94705,1328.86594,915.26Z"/><path class="cls-4" d="M1266.71,964.97282c-.55326-7.46491-1.39654-8.30819-1.80653-8.717a1.34035,1.34035,0,0,0-1.67142-.29585c-1.04944.60567-1.04362,1.30685,1.10885,9.38209.304,4.334.51482,10.71457.51482,19.58883,0,1.10885-1.08322,1.9661-1.7285,2.37843a7.24137,7.24137,0,0,1-3.88911,1.17757c-.30517-1.41983-1.99988-4.65785-6.22328-12.33241-.90851-1.65162-1.87991-3.41622-2.62885-4.82208a8.10328,8.10328,0,0,0-1.38606-3.14833,1.28507,1.28507,0,0,0-1.7681-.2446c-.78272.587-.97257.72914,1.03314,4.49362a126.04828,126.04828,0,0,1,2.67544,20.45075c0,3.79244,3.13435,8.97093,3.9753,10.29293v3.62238a1.193,1.193,0,0,0,1.72617,1.06691c.83163-.41582,8.18472-4.12206,10.24983-6.18717,2.43666-2.43666,4.32589-11.00343,4.32589-16.748,0-3.21472-2.0721-10.90792-3.8996-17.6961C1267.11769,966.49049,1266.91153,965.72758,1266.71,964.97282Z"/><path class="cls-4" d="M1243.34973,962.77493a1.19243,1.19243,0,0,0-2.34931.28886V976.9791c0,3.8134-.95859,5.85522-1.54912,6.52961a3.36405,3.36405,0,0,1-.04193-.56491c0-3.93454-4.76151-13.78253-10.0658-24.38994L1223.38,946.62562a1.19269,1.19269,0,0,0-2.25962.53346c0,.898.0233,22.1,2.01037,32.04237,2.03832,10.19392,8.15793,12.88683,11.10942,12.88683a1.21811,1.21811,0,0,0,.23412-.0233l9.94-1.98823a1.19273,1.19273,0,0,0,.75825-.50783c.17588-.26323,4.27581-6.52262,2.12684-12.9672C1245.34961,970.75116,1243.36953,962.85413,1243.34973,962.77493Z"/><g class="cls-2"><path class="cls-3" d="M545.60031,1008.92846c-.04426.3435-.495.61858-1.06924.65331a1.345,1.345,0,0,1-1.26725-.5123c-.16423-.34281-4.02189-8.46355-4.02189-14.42291,0-3.26205-3.36031-6.2782-7.25059-9.77018a57.26187,57.26187,0,0,1-8.55628-8.91994c-2.308-3.21126-4.52507-4.67713-6.25473-5.32584a32.94171,32.94171,0,0,1,2.51936,3.63508c2.04764,3.667,2.04764,8.42674,2.04764,14.45278a54.43062,54.43062,0,0,1-1.63415,9.8452,12.61817,12.61817,0,0,1-.36923,4.49922,112.63726,112.63726,0,0,1-3.99627,11.91177,1.35906,1.35906,0,0,1-1.40469.52307c-.629-.07988-1.0378-.44214-.926-.81933.03844-.13094,2.54732-8.63826,4.29328-16.15987-.5451-5.519-4.16982-10.64127-4.21524-10.70587a.50249.50249,0,0,1-.06057-.10767c-.43562-1.0391-1.42333-3.43615-2.48908-6.28332-.30866-.22359-.63188-.46506-.96442-.71991a34.01386,34.01386,0,0,0,1.7646,4.23508c2.01386,3.601-1.52233,23.00108-1.93233,25.20137-.06989.37546-.59519.655-1.25211.63178-.6313-.02084-1.12632-.33273-1.12632-.71027V998.20315c0-3.74205-1.244-8.01-2.39939-11.52208q-.15025.61268-.318,1.28926c-.25392,1.019-.53229,2.136-.76408,3.1523.65925,2.05476.58471,3.4114-.44727,4.02686a2.07026,2.07026,0,0,1-1.6062.18616c-.94927-.2848-1.124-.78564-.35991-4.17759a59.74412,59.74412,0,0,0-3.98346-8.14263c-.24809-.44249-.5253-.90234-.82-1.36776-.07571,1.63728-.23412,3.60382-.44028,5.933-.2015,2.27913-.39252,4.43183-.39252,5.88017,0,3.64133-9.11886,19.6265-10.86482,20.087a1.866,1.866,0,0,1-1.29055-.12469c-.60567-.32822-.39718-.70124-.10832-1.21737a80.51847,80.51847,0,0,0,3.94851-9.16584c.66274-1.71369,1.32549-3.42738,1.9894-5.00909.933-2.22773.47405-5.92324-.01165-9.83548-.51133-4.11647-1.04013-8.37256-.00116-11.47276a37.12118,37.12118,0,0,0,1.96494-10.53082.42832.42832,0,0,1,.03611-.17227,6.1984,6.1984,0,0,1,5.57218-3.78165q.27255-.01771.5486-.01806c.23528,0,.47114.01685.707.03569-.42863-.9066-.7303-1.538-.82348-1.7334-4.70677-5.63149-3.31489-6.46089-2.85714-6.73458a2.37031,2.37031,0,0,1,1.22649-.29522,4.57157,4.57157,0,0,1,1.29987.20909c4.0813,1.21771,8.3012,2.47641,10.46648,5.0584,1.23231,1.46987,10.40358,5.471,15.88375,7.862,3.238,1.41221,5.10162,2.2305,5.76087,2.62367,1.2358.737.98305,1.70674.73729,2.64521-.31332,1.201-.70351,2.69592,1.39887,4.577a65.91042,65.91042,0,0,1,6.04158,6.60052,65.08993,65.08993,0,0,0,5.88667,6.44144C547.50235,993.16489,545.80647,1007.32592,545.60031,1008.92846Z"/><path class="cls-3" d="M483.4444,979.28032c-.55326,4.452-1.39654,4.9549-1.80653,5.19872a2.04078,2.04078,0,0,1-1.67142.17644c-1.04944-.36122-1.04362-.77939,1.10885-5.59537a104.6535,104.6535,0,0,0,.51482-11.68254c0-.6613-1.08322-1.17256-1.72849-1.41847a11.14152,11.14152,0,0,0-3.88911-.70229c-.30517.84677-1.99988,2.77789-6.22328,7.3549-.90851.985-1.87991,2.03739-2.62885,2.87583a4.35555,4.35555,0,0,1-1.38606,1.87763,1.94789,1.94789,0,0,1-1.7681.14588c-.78271-.3501-.97257-.43485,1.03314-2.67994a46.977,46.977,0,0,0,2.67544-12.19658c0-2.26176,3.13435-5.35016,3.9753-6.13858v-2.16035c0-.2466.21431-.47514.56607-.605a1.82488,1.82488,0,0,1,.62664-.10628,1.8888,1.8888,0,0,1,.53346.075c.83163.248,8.18472,2.45835,10.24983,3.69,2.43666,1.4532,4.3259,6.56231,4.3259,9.9883,0,1.91722-2.0721,6.50535-3.8996,10.55374C483.85206,978.3752,483.6459,978.83019,483.4444,979.28032Z"/><path class="cls-3" d="M460.0841,980.59112a1.315,1.315,0,0,1-1.30219.53349c-.59752-.04376-1.04711-.34663-1.04711-.70576v-8.29892a4.63715,4.63715,0,0,0-1.54912-3.89418,1.21983,1.21983,0,0,0-.04193.3369c0,2.34651-4.76151,8.21973-10.0658,14.54587l-5.96354,7.11386a1.55943,1.55943,0,0,1-1.34063.37441c-.53812-.07572-.919-.3626-.919-.69256,0-.53557.0233-13.18019,2.01036-19.10968,2.03832-6.07953,8.15793-7.68555,11.10942-7.68555a2.02011,2.02011,0,0,1,.23412.01389l9.94,1.18576a1.401,1.401,0,0,1,.75825.30287c.17588.157,4.27581,3.89,2.12684,7.73348C462.084,975.83419,460.1039,980.54388,460.0841,980.59112Z"/></g><path class="cls-4" d="M534.86594,895.26a1.193,1.193,0,0,0-2.3365-.23645c-.16423.57481-4.02189,14.19136-4.02189,24.18378,0,5.46968-3.36031,10.527-7.25059,16.38226a92.26742,92.26742,0,0,0-8.55628,14.9566c-2.308,5.38451-4.52507,7.84243-6.25473,8.93017a65.49447,65.49447,0,0,0,2.51936-6.09516c2.04764-6.14873,2.04764-14.12963,2.04764-24.23387a149.103,149.103,0,0,0-1.63415-16.50805,35.06619,35.06619,0,0,0-.36923-7.54411c-1.97309-11.838-3.9753-19.89283-3.99627-19.9732a1.19224,1.19224,0,0,0-2.33067.49677c.03844.21956,2.54732,14.48429,4.29328,27.09625a61.53831,61.53831,0,0,1-4.21524,17.95118,1.096,1.096,0,0,0-.06057.18054c-.43562,1.74233-1.42333,5.7616-2.48908,10.53563-.30866.37491-.63188.7798-.96442,1.20712.67439-3.09868,1.28181-5.6508,1.7646-7.10121,2.01386-6.03808-1.52233-38.56732-1.93233-42.25668a1.17473,1.17473,0,0,0-1.25211-1.05934,1.193,1.193,0,0,0-1.12632,1.191v19.8806c0,6.27453-1.244,13.43077-2.39939,19.31977q-.15025-1.02731-.318-2.16178c-.25392-1.70869-.53229-3.58162-.76408-5.28565.65925-3.44534.58471-5.72011-.44727-6.75208a1.35674,1.35674,0,0,0-1.6062-.31215c-.94927.47755-1.124,1.31734-.35991,7.00483a138.15356,138.15356,0,0,1-3.98346,13.65324c-.24809.74195-.5253,1.513-.82,2.2934-.07571-2.74532-.23412-6.04274-.44028-9.94816-.2015-3.82156-.39252-7.43113-.39252-9.85964,0-6.10564-9.11886-32.909-10.86482-33.68118a1.20306,1.20306,0,0,0-1.29055.20907c-.60567.55035-.39718,1.17582-.10832,2.04123,1.308,3.9258,2.651,9.74316,3.94851,15.36892.66274,2.87345,1.32549,5.74689,1.9894,8.399.933,3.73537.47405,9.93185-.01165,16.49175-.51133,6.90233-1.04012,14.03878-.00116,19.23707a101.31931,101.31931,0,0,1,1.96494,17.65767,1.14806,1.14806,0,0,0,.03611.28886c1.28123,5.12608,4.04053,6.17319,5.57218,6.34092a5.06053,5.06053,0,0,0,.5486.03028,5.3447,5.3447,0,0,0,.707-.05984c-.42863,1.52015-.7303,2.57891-.82348,2.9065-4.70677,9.44266-3.31489,10.83337-2.85714,11.29229a1.69674,1.69674,0,0,0,1.22649.495,2.9273,2.9273,0,0,0,1.29987-.35059c4.0813-2.04181,8.3012-4.15235,10.46648-8.48174,1.23231-2.46462,10.40358-9.1736,15.88375-13.18268,3.238-2.36794,5.10162-3.74,5.76087-4.39927,1.2358-1.2358.98305-2.8618.73729-4.43538a9.55549,9.55549,0,0,1,1.39887-7.67456,109.82635,109.82635,0,0,0,6.04158-11.06749,108.55874,108.55874,0,0,1,5.88667-10.80076C536.768,921.69172,535.0721,897.94705,534.86594,895.26Z"/><path class="cls-4" d="M472.71,944.97282c-.55326-7.46491-1.39654-8.30819-1.80653-8.717a1.34035,1.34035,0,0,0-1.67142-.29585c-1.04944.60567-1.04362,1.30685,1.10885,9.38209.304,4.334.51482,10.71457.51482,19.58883,0,1.10885-1.08322,1.9661-1.72849,2.37843a7.24137,7.24137,0,0,1-3.88911,1.17757c-.30517-1.41983-1.99988-4.65785-6.22328-12.33241-.90851-1.65162-1.87991-3.41622-2.62885-4.82208a8.10328,8.10328,0,0,0-1.38606-3.14833,1.28507,1.28507,0,0,0-1.7681-.2446c-.78271.587-.97257.72914,1.03314,4.49362a126.04826,126.04826,0,0,1,2.67544,20.45075c0,3.79244,3.13435,8.97093,3.9753,10.29293v3.62238a1.193,1.193,0,0,0,1.72616,1.06691c.83163-.41582,8.18472-4.12206,10.24983-6.18717,2.43666-2.43666,4.3259-11.00343,4.3259-16.748,0-3.21472-2.0721-10.90792-3.8996-17.6961C473.11769,946.49049,472.91153,945.72758,472.71,944.97282Z"/><path class="cls-4" d="M449.34973,942.77493a1.19243,1.19243,0,0,0-2.34931.28886V956.9791c0,3.8134-.95859,5.85522-1.54912,6.52961a3.36407,3.36407,0,0,1-.04193-.56491c0-3.93454-4.76151-13.78253-10.0658-24.38994L429.38,926.62562a1.19269,1.19269,0,0,0-2.25962.53346c0,.898.0233,22.1,2.01036,32.04237,2.03832,10.19392,8.15793,12.88683,11.10942,12.88683a1.2181,1.2181,0,0,0,.23412-.0233l9.94-1.98823a1.19273,1.19273,0,0,0,.75825-.50783c.17588-.26323,4.27581-6.52262,2.12684-12.9672C451.34961,950.75116,449.36953,942.85413,449.34973,942.77493Z"/><path class="cls-5" d="M203.22867,970.14213a12.61556,12.61556,0,0,0-1.28123,5.94566c0,9.1762-6.05555,13.18211-6.313,13.34829a1.70585,1.70585,0,0,1-1.29987.16655c-.44494-.11891-.73612-.39913-.73612-.70973a62.68312,62.68312,0,0,0-1.97193-13.959,15.46374,15.46374,0,0,0-1.43032-3.91776,4.21683,4.21683,0,0,0-.17588,1.23c0,9.34838-2.80473,17.45061-8.11018,23.43041-3.16464,3.5674-3.7144,3.97065-4.91643,3.59216-1.31967-.41676-1.428-.45089,4.05334-8.98189.9516-1.48173,1.90321-2.96308,2.6964-4.24036,2.21653-3.56777,1.84264-3.92.27139-5.404a19.15946,19.15946,0,0,1-4.27348-5.59455c-.70118-1.35606-1.26609-2.44729-1.68074-3.18215a8.27782,8.27782,0,0,1-2.30621,2.20421c-3.80991,2.454-15.58091,16.33163-15.69971,16.47155a1.513,1.513,0,0,1-1.3418.37662c-.5288-.087-.898-.3935-.898-.74461,0-.284.17238-2.95858,6.13359-9.35888,4.45285-4.78016,1.75878-7.0894.714-7.73649-2.1513.32786-10.27546,1.71993-16.868,4.9047-5.31011,2.56545-17.4154,14.96731-22.97593,21.40851a6.98407,6.98407,0,0,1-2.74067,4.13045,2.16562,2.16562,0,0,1-1.63415.37512,1.11073,1.11073,0,0,1-.86075-.64821c-.13162-.50566,1.05294-2.20571,3.00856-4.524.23645-.77612.45775-1.64453.69885-2.594a53.34431,53.34431,0,0,1,6.77654-16.48693c3.55017-5.71646,11.03488-12.43375,26.49116-12.01736.19684.00563.35176.01013.46124.01013,1.59688,0,5.06085-.82714,9.07227-1.7852,6.78585-1.62052,15.25245-3.642,22.34-3.642a20.08259,20.08259,0,0,1,9.09323,1.75406C203.65729,967.12316,204.39575,967.62394,203.22867,970.14213Z"/><path class="cls-4" d="M202.42033,941.91254c-1.46992-.3238-2.26312,1.3616-3.67247,4.42257-.32613.70817-.66158,1.43847-.99819,2.11053a39.231,39.231,0,0,0-1.803,4.963c-.99586,3.12154-2.50306,7.83879-3.99627,8.46892a.57459.57459,0,0,1-.55209-.04892,14.74458,14.74458,0,0,0-2.53567-.90851c-3.22054-.9318-6.26288-1.81236-4.76734-13.78137,2.03715-16.2949,2.008-22.27475-2.10355-30.5014-2.10122-4.2001-2.14431-4.28746-3.23219-3.87747-1.06342.39252-.8328,1.315-.48337,2.71271a41.24673,41.24673,0,0,1,1.45594,9.65115c0,21.845-.86891,27.83062-1.60037,28.92433-1.22532.3471-7.0025-1.72151-11.82807-4.977-3.21588-2.16877-4.06616-3.60841-4.06616-4.06732,0-3.86582,1.96028-21.55843,1.98008-21.73663a1.193,1.193,0,0,0-2.08374-.91666c-.59169.67556-14.41383,16.67811-8.0764,27.24242,1.63881,2.73135,3.41389,5.29613,4.98049,7.56042,1.76926,2.5578,3.94269,5.698,4.14652,6.8406a6.53732,6.53732,0,0,1-1.85079-.26673c-7.48354-1.87176-9.29357-3.56648-13.213-9.445-1.33481-2.00221-2.8385-3.02137-4.26882-2.90024a2.608,2.608,0,0,0-2.15712,1.6854c-.88638,2.08957-.23994,6.63327,4.50177,12.56187,8.31052,10.38727,18.5487,10.38727,26.77536,10.38727,7.94595,0,21.46525-1.91835,22.03714-1.99988a1.19731,1.19731,0,0,0,.67439-.33778c4.27581-4.27581,8.3012-18.65935,8.3012-26.688C203.98459,943.782,203.75047,942.20373,202.42033,941.91254Z"/><path class="cls-5" d="M149.80574,726.611c-1.46992.19172-2.26312-.8062-3.67247-2.61859-.32613-.41931-.66158-.85172-.99819-1.24964a18.51535,18.51535,0,0,1-1.803-2.93859c-.99586-1.84826-2.50306-4.64133-3.99627-5.01443a.9285.9285,0,0,0-.55209.029,22.17052,22.17052,0,0,1-2.53567.53793c-3.22054.55172-6.26288,1.07309-4.76734,8.15991,2.03715,9.64817,2.008,13.18882-2.10355,18.0598-2.10122,2.48687-2.14431,2.53859-3.23219,2.29584-1.06342-.23241-.8328-.77861-.48337-1.60619a15.51614,15.51614,0,0,0,1.45594-5.71442c0-12.93434-.86891-16.47844-1.60037-17.126-1.22532-.20551-7.0025,1.0193-11.82807,2.94686-3.21588,1.28412-4.06616,2.13653-4.06616,2.40825,0,2.28894,1.96028,12.76469,1.98008,12.87021.05707.30689-.22829.6-.70468.72413a1.79539,1.79539,0,0,1-1.37907-.18138c-.59169-.4-14.41383-9.87507-8.0764-16.13017,1.63881-1.61722,3.41389-3.13583,4.98049-4.4765,1.76926-1.51447,3.94269-3.37376,4.14652-4.0503a10.82993,10.82993,0,0,0-1.85079.15793c-7.48354,1.10826-9.29357,2.1117-13.213,5.59235a6.07553,6.07553,0,0,1-4.26882,1.71722,2.78652,2.78652,0,0,1-2.15712-.99792c-.88638-1.23723-.23994-3.92754,4.50177-7.43785,8.31052-6.15028,18.5487-6.15028,26.77536-6.15028,7.94595,0,21.46525,1.13585,22.03714,1.18413a1.61431,1.61431,0,0,1,.67439.2c4.27581,2.5317,8.3012,11.04816,8.3012,15.8019C151.37,725.50415,151.13589,726.43863,149.80574,726.611Z"/><path class="cls-4" d="M150.26582,706.9779a28.76416,28.76416,0,0,1-1.28123-9.23067c0-14.2461-6.05555-20.4653-6.313-20.7233a1.1926,1.1926,0,0,0-2.036.84328,148.73452,148.73452,0,0,1-1.97193,21.67141,33.14828,33.14828,0,0,1-1.43032,6.08234,9.94244,9.94244,0,0,1-.17588-1.90961c0-14.51341-2.80473-27.09217-8.11018-36.37584-3.16464-5.5384-3.7144-6.16446-4.91643-5.57684-1.31967.647-1.428.7,4.05334,13.94443.9516,2.30039,1.90321,4.60019,2.6964,6.58319,2.21653,5.539,1.84264,6.08584.27139,8.38972a31.52532,31.52532,0,0,0-4.27348,8.68557c-.70118,2.10529-1.26609,3.79943-1.68074,4.9403a11.6231,11.6231,0,0,0-2.30621-3.422c-3.80991-3.80991-15.58091-25.35494-15.69971-25.57217a1.1927,1.1927,0,0,0-2.23982.57131c0,.44086.17238,4.59321,6.13359,14.52972,4.45285,7.42123,1.75878,11.00634.714,12.01094-2.1513-.509-10.27546-2.6702-16.868-7.61458-5.31011-3.98288-17.4154-23.23684-22.97593-33.23683-.59752-2.895-1.32432-4.99679-2.74067-6.41255a1.642,1.642,0,0,0-1.63415-.58238,1.34672,1.34672,0,0,0-.86075,1.00635c-.13162.785,1.05294,3.42438,3.00856,7.02346.23645,1.20494.45775,2.55314.69885,4.02714a112.88687,112.88687,0,0,0,6.77654,25.596c3.55017,8.87484,11.03488,19.30346,26.49116,18.657.19684-.00874.35176-.01572.46124-.01572,1.59688,0,5.06085,1.28414,9.07227,2.77153,6.78585,2.51587,15.25245,5.6543,22.34,5.6543a14.18875,14.18875,0,0,0,9.09323-2.72319C150.69445,711.66487,151.4329,710.8874,150.26582,706.9779Z"/><g class="cls-2"><path class="cls-3" d="M30.13311,316.92846c.04426.3435.495.61858,1.06924.65331a1.345,1.345,0,0,0,1.26725-.5123c.16423-.34281,4.02189-8.46355,4.02189-14.42291,0-3.26205,3.36031-6.2782,7.25059-9.77018a57.26187,57.26187,0,0,0,8.55628-8.91994c2.308-3.21126,4.52507-4.67713,6.25473-5.32584a32.94169,32.94169,0,0,0-2.51936,3.63508c-2.04764,3.667-2.04764,8.42674-2.04764,14.45278a54.43063,54.43063,0,0,0,1.63415,9.8452,12.61817,12.61817,0,0,0,.36923,4.49922,112.63721,112.63721,0,0,0,3.99627,11.91177,1.35906,1.35906,0,0,0,1.40469.52307c.629-.07988,1.0378-.44214.926-.81933-.03844-.13094-2.54732-8.63826-4.29328-16.15987.5451-5.519,4.16982-10.64127,4.21524-10.70587a.50249.50249,0,0,0,.06057-.10767c.43562-1.0391,1.42333-3.43615,2.48908-6.28332.30866-.22359.63188-.46506.96442-.71991a34.01386,34.01386,0,0,1-1.7646,4.23508c-2.01386,3.601,1.52233,23.00108,1.93233,25.20137.06989.37546.59519.65505,1.25211.63178.6313-.02084,1.12632-.33273,1.12632-.71027V306.20315c0-3.74205,1.244-8.01,2.39939-11.52208q.15025.61268.318,1.28926c.25392,1.019.53229,2.136.76408,3.1523-.65925,2.05476-.58471,3.4114.44727,4.02686a2.07026,2.07026,0,0,0,1.6062.18616c.94927-.2848,1.124-.78564.35991-4.17759a59.74413,59.74413,0,0,1,3.98346-8.14263c.24809-.44249.5253-.90234.82-1.36776.07571,1.63728.23412,3.60382.44028,5.933.2015,2.27913.39252,4.43183.39252,5.88017,0,3.64133,9.11886,19.6265,10.86482,20.087a1.866,1.866,0,0,0,1.29055-.12469c.60567-.32822.39718-.70124.10832-1.21737A80.51845,80.51845,0,0,1,88.14483,311.04c-.66274-1.71369-1.32549-3.42738-1.9894-5.00908-.933-2.22773-.47405-5.92324.01165-9.83548.51133-4.11647,1.04013-8.37256.00116-11.47276a37.12118,37.12118,0,0,1-1.96494-10.53082.42832.42832,0,0,0-.03611-.17227A6.1984,6.1984,0,0,0,78.595,270.2379q-.27255-.01771-.5486-.01806c-.23528,0-.47114.01685-.707.03569.42863-.9066.7303-1.538.82348-1.7334,4.70677-5.63149,3.31489-6.46089,2.85714-6.73458a2.37031,2.37031,0,0,0-1.22649-.29522,4.57157,4.57157,0,0,0-1.29987.20909c-4.0813,1.21771-8.3012,2.47641-10.46648,5.0584-1.23231,1.46987-10.40358,5.471-15.88375,7.862-3.238,1.41221-5.10162,2.2305-5.76087,2.62367-1.2358.737-.98305,1.70674-.73729,2.64521.31332,1.201.70351,2.69592-1.39887,4.577a65.91042,65.91042,0,0,0-6.04158,6.60052,65.08994,65.08994,0,0,1-5.88667,6.44144C28.23106,301.16489,29.92695,315.32592,30.13311,316.92846Z"/><path class="cls-3" d="M92.289,287.28032c.55326,4.452,1.39654,4.9549,1.80653,5.19872a2.04078,2.04078,0,0,0,1.67142.17644c1.04944-.36122,1.04362-.77939-1.10885-5.59537a104.6535,104.6535,0,0,1-.51482-11.68254c0-.6613,1.08322-1.17256,1.72849-1.41846a11.14152,11.14152,0,0,1,3.88911-.70229c.30517.84677,1.99988,2.77789,6.22328,7.3549.90851.985,1.87991,2.03739,2.62885,2.87583a4.35555,4.35555,0,0,0,1.38606,1.87763,1.94789,1.94789,0,0,0,1.7681.14588c.78271-.3501.97257-.43485-1.03314-2.67994a46.977,46.977,0,0,1-2.67544-12.19658c0-2.26176-3.13435-5.35016-3.9753-6.13858v-2.16035c0-.2466-.21431-.47514-.56607-.605a1.82488,1.82488,0,0,0-.62664-.10628,1.8888,1.8888,0,0,0-.53346.075c-.83163.248-8.18472,2.45835-10.24983,3.69-2.43666,1.4532-4.3259,6.56231-4.3259,9.9883,0,1.91722,2.0721,6.50535,3.8996,10.55374C91.88136,286.3752,92.08752,286.83019,92.289,287.28032Z"/><path class="cls-3" d="M115.64932,288.59112a1.315,1.315,0,0,0,1.30219.53349c.59752-.04376,1.04711-.34663,1.04711-.70576v-8.29892a4.63715,4.63715,0,0,1,1.54912-3.89418,1.21983,1.21983,0,0,1,.04193.3369c0,2.34651,4.76151,8.21973,10.0658,14.54587l5.96354,7.11386a1.55943,1.55943,0,0,0,1.34063.37441c.53812-.07572.919-.3626.919-.69256,0-.53557-.0233-13.18019-2.01036-19.10968-2.03832-6.07953-8.15793-7.68555-11.10942-7.68555a2.02011,2.02011,0,0,0-.23412.01389l-9.94,1.18576a1.401,1.401,0,0,0-.75825.30287c-.17588.157-4.27581,3.89-2.12684,7.73348C113.64944,283.83419,115.62952,288.54388,115.64932,288.59112Z"/></g><path class="cls-4" d="M40.86748,203.26a1.193,1.193,0,0,1,2.3365-.23644c.16423.57481,4.02189,14.19136,4.02189,24.18378,0,5.46968,3.36031,10.527,7.25059,16.38226a92.26741,92.26741,0,0,1,8.55628,14.9566c2.308,5.38451,4.52507,7.84243,6.25473,8.93017a65.4945,65.4945,0,0,1-2.51936-6.09516c-2.04764-6.14873-2.04764-14.12963-2.04764-24.23387a149.103,149.103,0,0,1,1.63415-16.50805,35.0662,35.0662,0,0,1,.36923-7.54411c1.97309-11.838,3.9753-19.89283,3.99627-19.9732a1.19224,1.19224,0,0,1,2.33067.49677c-.03844.21956-2.54732,14.48429-4.29328,27.09625a61.53831,61.53831,0,0,0,4.21524,17.95118,1.096,1.096,0,0,1,.06057.18054c.43562,1.74233,1.42333,5.7616,2.48908,10.53563.30866.37491.63188.7798.96442,1.20712-.67439-3.09868-1.28181-5.6508-1.7646-7.10121-2.01386-6.03808,1.52233-38.56732,1.93233-42.25668a1.17473,1.17473,0,0,1,1.25211-1.05934,1.193,1.193,0,0,1,1.12632,1.191v19.8806c0,6.27453,1.244,13.43077,2.39939,19.31977q.15025-1.02731.318-2.16178c.25392-1.70869.53229-3.58162.76408-5.28565-.65925-3.44534-.58471-5.72011.44727-6.75208a1.35674,1.35674,0,0,1,1.6062-.31215c.94927.47755,1.124,1.31734.35991,7.00483a138.15353,138.15353,0,0,0,3.98346,13.65324c.24809.74195.5253,1.513.82,2.2934.07571-2.74532.23412-6.04274.44028-9.94816.2015-3.82156.39252-7.43113.39252-9.85964,0-6.10564,9.11886-32.909,10.86482-33.68118a1.20306,1.20306,0,0,1,1.29055.20907c.60567.55035.39718,1.17582.10832,2.04123-1.308,3.9258-2.651,9.74316-3.94851,15.36892-.66274,2.87345-1.32549,5.74689-1.9894,8.399-.933,3.73537-.47405,9.93185.01165,16.49175.51133,6.90233,1.04013,14.03878.00116,19.23707a101.31932,101.31932,0,0,0-1.96494,17.65767,1.14806,1.14806,0,0,1-.03611.28886c-1.28123,5.12608-4.04053,6.17319-5.57218,6.34092a5.06053,5.06053,0,0,1-.5486.03028,5.3447,5.3447,0,0,1-.707-.05984c.42863,1.52015.7303,2.57891.82348,2.9065,4.70677,9.44266,3.31489,10.83337,2.85714,11.29229a1.69674,1.69674,0,0,1-1.22649.495,2.9273,2.9273,0,0,1-1.29987-.35059c-4.0813-2.04181-8.3012-4.15235-10.46648-8.48174-1.23231-2.46462-10.40358-9.1736-15.88375-13.18268-3.238-2.36794-5.10162-3.74-5.76087-4.39927-1.2358-1.2358-.98305-2.8618-.73729-4.43538a9.55549,9.55549,0,0,0-1.39887-7.67456,109.82636,109.82636,0,0,1-6.04158-11.06749,108.55876,108.55876,0,0,0-5.88667-10.80076C38.96543,229.69172,40.66132,205.94705,40.86748,203.26Z"/><path class="cls-4" d="M103.02339,252.97282c.55326-7.46491,1.39654-8.30819,1.80653-8.717a1.34035,1.34035,0,0,1,1.67142-.29585c1.04944.60567,1.04362,1.30685-1.10885,9.38209-.304,4.334-.51482,10.71457-.51482,19.58883,0,1.10885,1.08322,1.9661,1.72849,2.37843a7.24137,7.24137,0,0,0,3.88911,1.17757c.30517-1.41983,1.99988-4.65785,6.22328-12.33241.90851-1.65162,1.87991-3.41622,2.62885-4.82208a8.10328,8.10328,0,0,1,1.38606-3.14833,1.28507,1.28507,0,0,1,1.7681-.2446c.78271.587.97257.72914-1.03314,4.49362a126.04826,126.04826,0,0,0-2.67544,20.45075c0,3.79244-3.13435,8.97093-3.9753,10.29293v3.62238a1.193,1.193,0,0,1-1.72617,1.06691c-.83163-.41582-8.18472-4.12206-10.24983-6.18717-2.43666-2.43666-4.3259-11.00343-4.3259-16.748,0-3.21472,2.0721-10.90792,3.8996-17.6961C102.61573,254.49049,102.82189,253.72758,103.02339,252.97282Z"/><path class="cls-4" d="M126.38369,250.77493a1.19243,1.19243,0,0,1,2.34931.28886V264.9791c0,3.8134.95859,5.85522,1.54912,6.52961a3.36406,3.36406,0,0,0,.04193-.56491c0-3.93454,4.76151-13.78253,10.0658-24.38994l5.96354-11.92824a1.19269,1.19269,0,0,1,2.25962.53346c0,.898-.0233,22.1-2.01036,32.04237-2.03832,10.19392-8.15793,12.88683-11.10942,12.88683a1.2181,1.2181,0,0,1-.23412-.0233l-9.94-1.98823a1.19273,1.19273,0,0,1-.75825-.50783c-.17588-.26323-4.27581-6.52262-2.12684-12.9672C124.38381,258.75116,126.36389,250.85413,126.38369,250.77493Z"/><g class="cls-2"><path class="cls-3" d="M1729.13311,151.92846c.04426.3435.495.61858,1.06924.65331a1.345,1.345,0,0,0,1.26725-.5123c.16423-.34281,4.02189-8.46355,4.02189-14.42291,0-3.26205,3.36032-6.2782,7.25059-9.77018a57.26192,57.26192,0,0,0,8.55628-8.91994c2.308-3.21126,4.52507-4.67713,6.25473-5.32584a32.94164,32.94164,0,0,0-2.51936,3.63508c-2.04764,3.667-2.04764,8.42674-2.04764,14.45278a54.43061,54.43061,0,0,0,1.63415,9.8452,12.61817,12.61817,0,0,0,.36923,4.49922,112.63715,112.63715,0,0,0,3.99627,11.91177,1.35906,1.35906,0,0,0,1.40469.52307c.629-.07988,1.03779-.44214.926-.81933-.03844-.13094-2.54732-8.63826-4.29328-16.15987.5451-5.519,4.16982-10.64127,4.21524-10.70587a.50249.50249,0,0,0,.06057-.10767c.43562-1.0391,1.42333-3.43615,2.48908-6.28332.30866-.22359.63188-.46506.96442-.71991a34.0137,34.0137,0,0,1-1.7646,4.23508c-2.01386,3.601,1.52233,23.00108,1.93233,25.20137.06988.37546.59519.65505,1.25211.63178.6313-.02084,1.12632-.33273,1.12632-.71027V141.20315c0-3.74205,1.244-8.01,2.39939-11.52208q.15025.61268.318,1.28926c.25392,1.019.53229,2.136.76408,3.1523-.65925,2.05476-.58471,3.4114.44726,4.02686a2.07026,2.07026,0,0,0,1.6062.18616c.94927-.2848,1.124-.78564.35991-4.17759a59.74419,59.74419,0,0,1,3.98346-8.14263c.24809-.44249.5253-.90234.82-1.36776.07571,1.63728.23412,3.60382.44028,5.933.2015,2.27913.39252,4.43183.39252,5.88017,0,3.64133,9.11886,19.6265,10.86482,20.087a1.866,1.866,0,0,0,1.29055-.12469c.60567-.32822.39718-.70124.10832-1.21737a80.51823,80.51823,0,0,1-3.94851-9.16584c-.66275-1.71369-1.32549-3.42738-1.9894-5.00908-.933-2.22773-.47406-5.92324.01165-9.83548.51133-4.11647,1.04012-8.37256.00116-11.47276a37.12119,37.12119,0,0,1-1.96494-10.53082.42831.42831,0,0,0-.03611-.17227,6.1984,6.1984,0,0,0-5.57218-3.78165q-.27255-.01771-.5486-.01806c-.23528,0-.47114.01685-.707.03569.42863-.9066.7303-1.538.82348-1.7334,4.70677-5.63149,3.31489-6.46089,2.85714-6.73458a2.37032,2.37032,0,0,0-1.22649-.29522,4.57157,4.57157,0,0,0-1.29986.20909c-4.0813,1.21771-8.3012,2.47641-10.46648,5.0584-1.23231,1.46987-10.40358,5.471-15.88375,7.862-3.238,1.41221-5.10162,2.23051-5.76087,2.62367-1.2358.737-.98305,1.70674-.73729,2.64521.31332,1.201.70351,2.69592-1.39887,4.577a65.9105,65.9105,0,0,0-6.04158,6.60052,65.08988,65.08988,0,0,1-5.88666,6.44144C1727.23106,136.16489,1728.92695,150.32592,1729.13311,151.92846Z"/><path class="cls-3" d="M1791.289,122.28032c.55326,4.452,1.39654,4.9549,1.80653,5.19872a2.04078,2.04078,0,0,0,1.67142.17644c1.04944-.36122,1.04362-.77939-1.10885-5.59537a104.65368,104.65368,0,0,1-.51482-11.68254c0-.6613,1.08322-1.17256,1.7285-1.41846a11.14152,11.14152,0,0,1,3.88911-.70229c.30517.84677,1.99988,2.77789,6.22328,7.3549.90851.985,1.87991,2.03739,2.62885,2.87583a4.35556,4.35556,0,0,0,1.38606,1.87763,1.94789,1.94789,0,0,0,1.7681.14588c.78272-.3501.97257-.43485-1.03314-2.67994a46.977,46.977,0,0,1-2.67544-12.19658c0-2.26176-3.13435-5.35016-3.9753-6.13858V97.33562c0-.2466-.21431-.47514-.56607-.605a1.82488,1.82488,0,0,0-.62664-.10628,1.8888,1.8888,0,0,0-.53346.075c-.83163.248-8.18472,2.45835-10.24983,3.69-2.43666,1.4532-4.32589,6.56231-4.32589,9.9883,0,1.91722,2.0721,6.50535,3.8996,10.55374C1790.88136,121.3752,1791.08752,121.83019,1791.289,122.28032Z"/><path class="cls-3" d="M1814.64932,123.59112a1.315,1.315,0,0,0,1.30219.53349c.59752-.04376,1.04711-.34663,1.04711-.70576v-8.29892a4.63715,4.63715,0,0,1,1.54912-3.89418,1.21982,1.21982,0,0,1,.04193.3369c0,2.34651,4.76151,8.21973,10.0658,14.54587l5.96354,7.11386a1.55943,1.55943,0,0,0,1.34063.37441c.53812-.07572.919-.3626.919-.69256,0-.53557-.02329-13.18019-2.01036-19.10968-2.03832-6.07953-8.15793-7.68555-11.10942-7.68555a2.02012,2.02012,0,0,0-.23412.01389l-9.94,1.18576a1.401,1.401,0,0,0-.75825.30287c-.17588.157-4.27581,3.89-2.12684,7.73348C1812.64944,118.83419,1814.62952,123.54388,1814.64932,123.59112Z"/></g><path class="cls-4" d="M1739.86748,38.26a1.193,1.193,0,0,1,2.3365-.23645c.16423.57481,4.02189,14.19136,4.02189,24.18378,0,5.46968,3.36031,10.527,7.25059,16.38226a92.26741,92.26741,0,0,1,8.55628,14.9566c2.308,5.38451,4.52507,7.84243,6.25473,8.93017a65.49439,65.49439,0,0,1-2.51936-6.09516c-2.04764-6.14873-2.04764-14.12963-2.04764-24.23387a149.10293,149.10293,0,0,1,1.63415-16.50805,35.06619,35.06619,0,0,1,.36923-7.54411c1.97309-11.838,3.9753-19.89283,3.99627-19.9732a1.19224,1.19224,0,0,1,2.33067.49677c-.03844.21956-2.54732,14.48429-4.29328,27.09625a61.53834,61.53834,0,0,0,4.21524,17.95118,1.096,1.096,0,0,1,.06057.18054c.43562,1.74233,1.42333,5.7616,2.48908,10.53563.30866.37491.63188.7798.96442,1.20712-.67439-3.09868-1.28181-5.6508-1.7646-7.10121-2.01386-6.03808,1.52233-38.56732,1.93233-42.25668a1.17473,1.17473,0,0,1,1.25211-1.05934,1.193,1.193,0,0,1,1.12632,1.191v19.8806c0,6.27453,1.244,13.43077,2.39939,19.31977q.15025-1.02731.318-2.16178c.25392-1.70869.53229-3.58162.76408-5.28565-.65925-3.44534-.58471-5.72011.44727-6.75208a1.35674,1.35674,0,0,1,1.6062-.31215c.94927.47755,1.124,1.31734.35991,7.00483a138.1534,138.1534,0,0,0,3.98346,13.65324c.24809.74195.5253,1.513.82,2.2934.07571-2.74532.23412-6.04274.44028-9.94816.2015-3.82156.39252-7.43113.39252-9.85964,0-6.10564,9.11886-32.909,10.86482-33.68118a1.20306,1.20306,0,0,1,1.29055.20907c.60567.55035.39718,1.17582.10832,2.04123-1.308,3.9258-2.651,9.74316-3.94852,15.36892-.66274,2.87345-1.32549,5.74689-1.9894,8.399-.933,3.73537-.47405,9.93185.01165,16.49175.51133,6.90233,1.04012,14.03878.00117,19.23707a101.31934,101.31934,0,0,0-1.96494,17.65767,1.14805,1.14805,0,0,1-.03611.28886c-1.28123,5.12608-4.04053,6.17319-5.57218,6.34092a5.06052,5.06052,0,0,1-.5486.03028,5.3447,5.3447,0,0,1-.707-.05984c.42863,1.52015.7303,2.57891.82348,2.9065,4.70677,9.44266,3.31489,10.83337,2.85714,11.29229a1.69674,1.69674,0,0,1-1.22649.495,2.9273,2.9273,0,0,1-1.29986-.35059c-4.0813-2.04181-8.3012-4.15235-10.46648-8.48174-1.23231-2.46462-10.40358-9.1736-15.88375-13.18268-3.238-2.36794-5.10162-3.74-5.76087-4.39927-1.2358-1.2358-.98305-2.8618-.73729-4.43538a9.55548,9.55548,0,0,0-1.39887-7.67456,109.82649,109.82649,0,0,1-6.04158-11.06749,108.55887,108.55887,0,0,0-5.88666-10.80076C1737.96543,64.69172,1739.66132,40.94705,1739.86748,38.26Z"/><path class="cls-4" d="M1802.02339,87.97282c.55326-7.46491,1.39654-8.30819,1.80653-8.717a1.34035,1.34035,0,0,1,1.67142-.29585c1.04944.60567,1.04362,1.30685-1.10885,9.38209-.304,4.334-.51482,10.71457-.51482,19.58883,0,1.10885,1.08322,1.9661,1.72849,2.37843a7.24137,7.24137,0,0,0,3.88911,1.17757c.30517-1.41983,1.99988-4.65785,6.22328-12.33241.90851-1.65162,1.87991-3.41622,2.62885-4.82208a8.10328,8.10328,0,0,1,1.38606-3.14833,1.28507,1.28507,0,0,1,1.7681-.2446c.78272.587.97257.72914-1.03314,4.49362a126.04827,126.04827,0,0,0-2.67544,20.45075c0,3.79244-3.13435,8.97093-3.9753,10.29293v3.62238a1.193,1.193,0,0,1-1.72617,1.06691c-.83163-.41582-8.18472-4.12206-10.24983-6.18717-2.43667-2.43666-4.3259-11.00343-4.3259-16.748,0-3.21472,2.0721-10.90792,3.8996-17.6961C1801.61573,89.49049,1801.82189,88.72758,1802.02339,87.97282Z"/><path class="cls-4" d="M1825.38369,85.77493a1.19243,1.19243,0,0,1,2.34931.28886V99.9791c0,3.8134.95859,5.85522,1.54912,6.52961a3.36405,3.36405,0,0,0,.04193-.56491c0-3.93454,4.76151-13.78253,10.0658-24.38994l5.96354-11.92824a1.19269,1.19269,0,0,1,2.25962.53346c0,.898-.02329,22.1-2.01037,32.04237-2.03832,10.19392-8.15793,12.88683-11.10942,12.88683a1.21811,1.21811,0,0,1-.23412-.0233l-9.94-1.98823a1.19273,1.19273,0,0,1-.75825-.50783c-.17588-.26323-4.27581-6.52262-2.12684-12.9672C1823.38381,93.75116,1825.36389,85.85413,1825.38369,85.77493Z"/><path class="cls-5" d="M735.92768,1009.611c1.46992.19172,2.26312-.8062,3.67247-2.61859.32613-.41931.66158-.85172.99819-1.24964a18.51536,18.51536,0,0,0,1.803-2.93859c.99586-1.84826,2.50306-4.64133,3.99627-5.01443a.9285.9285,0,0,1,.55209.029,22.17052,22.17052,0,0,0,2.53567.53793c3.22054.55172,6.26288,1.07309,4.76734,8.15991-2.03715,9.64817-2.008,13.18882,2.10355,18.0598,2.10122,2.48687,2.14431,2.53859,3.23219,2.29584,1.06342-.23241.8328-.77861.48337-1.60619a15.51613,15.51613,0,0,1-1.45594-5.71442c0-12.93434.86891-16.47844,1.60037-17.126,1.22532-.20551,7.0025,1.0193,11.82807,2.94687,3.21588,1.28412,4.06616,2.13653,4.06616,2.40825,0,2.28894-1.96028,12.76469-1.98008,12.87021-.05707.30689.22829.6.70468.72413a1.79539,1.79539,0,0,0,1.37907-.18138c.59169-.4,14.41383-9.87507,8.0764-16.13017-1.63881-1.61722-3.41389-3.13583-4.98049-4.4765-1.76926-1.51447-3.94269-3.37376-4.14652-4.0503a10.82993,10.82993,0,0,1,1.85079.15793c7.48354,1.10826,9.29357,2.1117,13.213,5.59235a6.07553,6.07553,0,0,0,4.26882,1.71722,2.78652,2.78652,0,0,0,2.15712-.99792c.88638-1.23723.23994-3.92754-4.50177-7.43785-8.31052-6.15028-18.5487-6.15028-26.77536-6.15028-7.94595,0-21.46525,1.13585-22.03714,1.18413a1.61431,1.61431,0,0,0-.67439.2c-4.27581,2.5317-8.3012,11.04816-8.3012,15.8019C734.36341,1008.50415,734.59753,1009.43863,735.92768,1009.611Z"/><path class="cls-4" d="M735.4676,989.9779a28.76416,28.76416,0,0,0,1.28123-9.23067c0-14.2461,6.05555-20.4653,6.313-20.7233a1.1926,1.1926,0,0,1,2.036.84328,148.73452,148.73452,0,0,0,1.97193,21.67141A33.14828,33.14828,0,0,0,748.5,988.621a9.94244,9.94244,0,0,0,.17588-1.90961c0-14.51341,2.80473-27.09217,8.11018-36.37584,3.16464-5.5384,3.7144-6.16446,4.91643-5.57684,1.31967.647,1.428.7-4.05334,13.94443-.9516,2.30039-1.90321,4.60019-2.6964,6.58319-2.21653,5.539-1.84264,6.08584-.27139,8.38972a31.52532,31.52532,0,0,1,4.27348,8.68557c.70118,2.10529,1.26609,3.79943,1.68074,4.9403a11.6231,11.6231,0,0,1,2.30621-3.422c3.80991-3.80991,15.58091-25.35494,15.69971-25.57217a1.1927,1.1927,0,0,1,2.23982.57131c0,.44086-.17238,4.59321-6.13359,14.52972-4.45285,7.42123-1.75878,11.00634-.714,12.01094,2.1513-.509,10.27546-2.6702,16.868-7.61458,5.31011-3.98288,17.4154-23.23684,22.97593-33.23683.59752-2.895,1.32432-4.99679,2.74067-6.41255a1.642,1.642,0,0,1,1.63415-.58238,1.34672,1.34672,0,0,1,.86075,1.00635c.13162.785-1.05294,3.42438-3.00856,7.02346-.23645,1.20494-.45775,2.55314-.69885,4.02714a112.88687,112.88687,0,0,1-6.77654,25.596c-3.55017,8.87484-11.03488,19.30346-26.49116,18.657-.19684-.00874-.35176-.01572-.46124-.01572-1.59688,0-5.06085,1.28414-9.07227,2.77153-6.78585,2.51587-15.25245,5.6543-22.34,5.6543a14.18875,14.18875,0,0,1-9.09323-2.72319C735.039,994.66487,734.30052,993.8874,735.4676,989.9779Z"/><path class="cls-5" d="M1468.286,92.16225a11.56951,11.56951,0,0,0-1.175,5.45266c0,8.41533-5.55344,12.08909-5.78951,12.24149a1.5644,1.5644,0,0,1-1.19208.15274c-.408-.10905-.67509-.366-.67509-.65088a57.48563,57.48563,0,0,0-1.80842-12.80155,14.18152,14.18152,0,0,0-1.31172-3.59291,3.86719,3.86719,0,0,0-.16129,1.128c0,8.57324-2.57217,16.00365-7.43771,21.48762-2.90223,3.2716-3.40641,3.64142-4.50877,3.2943-1.21024-.3822-1.30958-.41351,3.71725-8.23713.8727-1.35887,1.7454-2.71739,2.47283-3.88876,2.03274-3.27194,1.68985-3.595.24888-4.9559a17.57082,17.57082,0,0,1-3.91914-5.13066c-.643-1.24362-1.16111-2.24436-1.54138-2.91829a7.59144,7.59144,0,0,1-2.115,2.02144c-3.494,2.25056-14.289,14.97745-14.39794,15.10577a1.38751,1.38751,0,0,1-1.23054.34539c-.485-.07981-.82356-.36087-.82356-.68287,0-.26042.15809-2.71326,5.625-8.58287,4.08363-4.3838,1.61295-6.50157.65479-7.095a60.10319,60.10319,0,0,0-15.46932,4.498c-4.86981,2.35273-15.97136,13.72626-21.07083,19.63337a6.405,6.405,0,0,1-2.51342,3.788,1.986,1.986,0,0,1-1.49865.344,1.01863,1.01863,0,0,1-.78938-.59446c-.1207-.46373.96563-2.02282,2.7591-4.14884.21684-.71177.41979-1.50817.6409-2.37888a48.92114,48.92114,0,0,1,6.21464-15.11987c3.2558-5.24247,10.11989-11.40277,24.29458-11.02092.18052.00516.32259.00929.423.00929a52.87549,52.87549,0,0,0,8.32-1.63718c6.22319-1.48615,13.98776-3.34006,20.48761-3.34006a18.41739,18.41739,0,0,1,8.33924,1.60862C1468.679,89.3936,1469.35627,89.85286,1468.286,92.16225Z"/><path class="cls-4" d="M1467.54465,66.27338c-1.348-.297-2.07546,1.2487-3.368,4.05586-.29909.64945-.60672,1.3192-.91543,1.93553a35.9781,35.9781,0,0,0-1.65354,4.5515c-.91329,2.86271-2.29551,7.18882-3.66491,7.7667a.527.527,0,0,1-.50632-.04486,13.522,13.522,0,0,0-2.32542-.83318c-2.9535-.85454-5.74358-1.66208-4.372-12.63865,1.86824-14.94377,1.84153-20.42779-1.92913-27.97231-1.927-3.85184-1.96651-3.932-2.96419-3.556-.97524.36-.76374,1.206-.44329,2.48778a37.82668,37.82668,0,0,1,1.33522,8.8509c0,20.03363-.79686,25.523-1.46767,26.526-1.12372.31832-6.42187-1.57876-10.84732-4.56431-2.94923-1.98894-3.729-3.30921-3.729-3.73007,0-3.54527,1.79774-19.77086,1.8159-19.93429a1.09407,1.09407,0,0,0-1.911-.84065c-.54263.61954-13.21867,15.2952-7.40673,24.98355,1.50292,2.50487,3.13082,4.857,4.56752,6.93353,1.62256,2.34571,3.61577,5.22551,3.8027,6.27339a5.99526,5.99526,0,0,1-1.69733-.24461c-6.863-1.71656-8.523-3.27075-12.11738-8.66183-1.22413-1.83619-2.60314-2.77085-3.91486-2.65976a2.39172,2.39172,0,0,0-1.97826,1.54565c-.81288,1.91631-.22,6.08326,4.1285,11.52027,7.62143,9.526,17.01069,9.526,24.55522,9.526,7.28709,0,19.6854-1.75928,20.20988-1.83406a1.098,1.098,0,0,0,.61847-.30977c3.92127-3.92127,7.61289-17.11217,7.61289-24.4751C1468.97921,67.9878,1468.7645,66.54043,1467.54465,66.27338Z"/><path class="cls-6" d="M1812.08819,891.141s23.41618,11.70809,30.441,7.02485,9.36647-37.46589,9.36647-63.22369-4.68324-44.49075,7.02485-44.49075,42.14913,2.34162,49.174-18.73295,7.02485-74.93178,4.68324-84.29826-7.02486-11.70809-16.39133-9.36647-11.70809,4.68324-11.70809,28.09942,4.68324,37.46589-2.34162,44.49075-18.73295,16.39133-23.41618,7.02485-7.02485-74.93178-7.02485-110.05606-2.34162-63.22369-7.02486-67.90693-23.41618-2.34162-21.07456,11.70809,0,86.63988-2.34162,93.66473-11.70809,7.02485-11.70809-9.36647,2.34162-37.46589-2.34162-42.14913-16.39133,0-16.39133,16.39133-2.34162,46.83237,4.68324,58.54046,17.56214,12.8789,19.90376,10.53728,11.70809,42.14913,2.34162,46.83237-23.41618,9.36647-30.441-11.70809,2.34162-77.2734-7.02485-81.95664-23.41618-4.68324-25.7578,21.07456-2.34162,70.24855,9.36647,86.63988,35.12427,18.73295,39.80751,21.07456,7.02485,11.70809,7.02485,25.7578S1808.57576,882.94531,1812.08819,891.141Z"/><path class="cls-5" d="M1811.51343,890.535s30.53211-2.97915,33.15931-1.13135-21.38255,12.90772-41.91306,21.524-39.70181,14.69521-29.10179,15.16389,40.02651.90392,29.58883,8.23482-53.36512,25.34677-62.95077,28.38623-15.69207,3.63529-22.30568,2.47705-6.86721-2.03527,11.7969-9.86826,34.10258-12.34532,33.3418-14.97642-3.89517-6.233-15.60082-3.28724-66.08516,24.78437-94.08132,36.53385-52.51309,21.05534-60.48592,22.43447-23.06647-.154-9.748-4.76011,69.05719-28.98207,72.53642-31.4257-5.0008-2.81857-18.06567,2.66452-27.74257,12.62652-35.7154,14.00565-14.84-.65614-1.77517-6.13924,35.20821-15.75972,50.90028-19.395,26.1653-3.60514,26.4189-2.7281,44.19542-13.63071,39.44822-15.57225-13.73441-4.07054-36.89213,2.69795-59.47155,25.9426-71.68439,27.13426-24.93288.62925-6.52237-8.08077,53.87231-23.59271,77.53722-28.60713,46.73137-4.86037,52.83779-5.4562,15.69207-3.63529,26.89053-8.33509S1801.801,893.136,1811.51343,890.535Z"/><path class="cls-7" d="M1889.36159,769.37682s9.36647,2.34162,11.70809-35.12427-2.34162-49.174-7.02485-49.174-8.19566,12.8789-10.53728,33.95346a336.6165,336.6165,0,0,0-2.34162,42.14913C1881.16593,770.54763,1883.50754,768.206,1889.36159,769.37682Z"/><path class="cls-7" d="M1806.23414,704.98232s-4.68324-23.41618-2.34162-37.46589,2.34162-21.07456-2.34162-23.41618-7.02486-2.34162-9.36647,11.70809-4.68324,44.49075,0,51.5156S1810.91738,719.032,1806.23414,704.98232Z"/><path class="cls-7" d="M1839.0168,587.90141s2.34162,184.98784,4.68324,194.35432,4.68324,7.02485,0,18.73295-2.34162,49.174-4.68324,63.22369,0,30.441-4.68324,30.441-23.41618,2.34162-21.07456-44.49075-7.02485-44.49075,2.34162-51.5156,2.34162-21.07456,2.34162-21.07456,4.68324-53.85722,2.34162-56.19884,14.04971-14.04971,9.36647-16.39133-11.70809,0-9.36647-23.41618,4.68324-88.98149,9.36647-91.32311A23.33424,23.33424,0,0,1,1839.0168,587.90141Z"/><path class="cls-7" d="M1780.47634,775.23087s-11.70809-23.41618-9.36647-44.49075,4.68324-51.5156,2.34162-51.5156-14.04971-2.34162-16.39133,11.70809,0,88.98149,4.68324,91.32311S1787.5012,798.64705,1780.47634,775.23087Z"/></g></g></svg>