<svg id="圖層_1" data-name="圖層 1" xmlns="http://www.w3.org/2000/svg" viewBox="0 0 1920 1080"><defs><style>.cls-1{fill:#f6a39e;}.cls-2,.cls-5{opacity:0.7;}.cls-3,.cls-5{fill:#b2a3b2;}.cls-4{fill:#637965;}.cls-6{fill:#83aaa3;}.cls-7{fill:#5b7566;}</style></defs><title>活動巴士</title><rect class="cls-1" x="-7.7" y="-2.49" width="1920.5" height="1092.49"/><g class="cls-2"><path class="cls-3" d="M1388.09,964.41c0,.35-.5.62-1.07.66a1.35,1.35,0,0,1-1.27-.51c-.16-.35-4-8.47-4-14.43,0-3.26-3.36-6.28-7.25-9.77a57,57,0,0,1-8.56-8.92c-2.31-3.21-4.52-4.67-6.25-5.32a33.32,33.32,0,0,1,2.52,3.63c2,3.67,2,8.43,2,14.45a54.09,54.09,0,0,1-1.63,9.85,12.71,12.71,0,0,1-.37,4.5,111.55,111.55,0,0,1-4,11.91,1.35,1.35,0,0,1-1.4.52c-.63-.08-1-.44-.93-.82,0-.13,2.55-8.63,4.3-16.16-.55-5.51-4.17-10.64-4.22-10.7l-.06-.11c-.44-1-1.42-3.43-2.49-6.28l-1-.72a33.3,33.3,0,0,0,1.76,4.23c2,3.6-1.52,23-1.93,25.2-.07.38-.6.66-1.25.64s-1.13-.34-1.13-.71V953.69c0-3.74-1.24-8-2.4-11.52-.1.41-.2.84-.32,1.29-.25,1-.53,2.13-.76,3.15.66,2,.58,3.41-.45,4a2.07,2.07,0,0,1-1.6.18c-1-.28-1.13-.78-.36-4.18a59.77,59.77,0,0,0-4-8.14c-.25-.44-.52-.9-.82-1.37-.07,1.64-.23,3.61-.44,5.94s-.39,4.43-.39,5.88c0,3.64-9.12,19.62-10.87,20.08a1.83,1.83,0,0,1-1.29-.12c-.6-.33-.39-.7-.1-1.22a80.87,80.87,0,0,0,3.94-9.16c.67-1.72,1.33-3.43,2-5,.94-2.23.48-5.93,0-9.84-.51-4.11-1-8.37,0-11.47a37.23,37.23,0,0,0,2-10.53.47.47,0,0,1,0-.17,6.2,6.2,0,0,1,5.57-3.79h.55c.24,0,.47,0,.71,0l-.82-1.73c-4.71-5.63-3.32-6.46-2.86-6.74a2.4,2.4,0,0,1,1.23-.29,4.74,4.74,0,0,1,1.3.21c4.08,1.22,8.3,2.47,10.46,5.06,1.23,1.47,10.41,5.47,15.89,7.86,3.23,1.41,5.1,2.23,5.76,2.62,1.23.74,1,1.71.73,2.65-.31,1.2-.7,2.69,1.4,4.57a66.38,66.38,0,0,1,6,6.6,65,65,0,0,0,5.89,6.45C1390,948.65,1388.29,962.81,1388.09,964.41Z"/><path class="cls-3" d="M1325.93,934.77c-.55,4.45-1.4,5-1.81,5.2a2,2,0,0,1-1.67.17c-1-.36-1-.78,1.11-5.59a103,103,0,0,0,.52-11.69c0-.66-1.09-1.17-1.73-1.41a11.12,11.12,0,0,0-3.89-.71c-.31.85-2,2.78-6.22,7.36-.91,1-1.88,2-2.63,2.87a4.36,4.36,0,0,1-1.39,1.88,2,2,0,0,1-1.77.15c-.78-.35-1-.44,1-2.68a47.41,47.41,0,0,0,2.67-12.2c0-2.26,3.14-5.35,4-6.14v-2.16c0-.24.21-.47.56-.6a1.85,1.85,0,0,1,.63-.11,1.89,1.89,0,0,1,.53.08c.83.24,8.19,2.45,10.25,3.69,2.44,1.45,4.33,6.56,4.33,10,0,1.92-2.07,6.51-3.9,10.56Z"/><path class="cls-3" d="M1302.57,936.08a1.31,1.31,0,0,1-1.3.53c-.6,0-1-.35-1-.7v-8.3a4.64,4.64,0,0,0-1.55-3.9,1.51,1.51,0,0,0,0,.34c0,2.35-4.76,8.22-10.07,14.54l-6,7.12a1.56,1.56,0,0,1-1.34.37c-.54-.07-.92-.36-.92-.69,0-.54,0-13.18,2-19.11s8.16-7.68,11.11-7.68h.23l9.94,1.18a1.39,1.39,0,0,1,.76.31c.18.15,4.28,3.89,2.13,7.73C1304.57,931.32,1302.59,936,1302.57,936.08Z"/></g><path class="cls-4" d="M1377.35,850.75a1.19,1.19,0,0,0-2.33-.24c-.17.57-4,14.19-4,24.18,0,5.47-3.36,10.53-7.25,16.39a92.59,92.59,0,0,0-8.55,14.95c-2.31,5.39-4.53,7.84-6.26,8.93,1.26-2.68,2.2-5.14,2.52-6.09,2-6.15,2-14.13,2-24.24a148.64,148.64,0,0,0-1.64-16.5,35.38,35.38,0,0,0-.36-7.55c-2-11.84-4-19.89-4-20a1.19,1.19,0,0,0-2.33.49c0,.22,2.55,14.49,4.29,27.1a61.57,61.57,0,0,1-4.21,17.95.64.64,0,0,0-.06.18c-.44,1.75-1.43,5.76-2.49,10.54-.31.37-.63.78-1,1.21.68-3.1,1.28-5.66,1.77-7.11,2-6-1.53-38.56-1.94-42.25a1.17,1.17,0,0,0-1.25-1.06,1.19,1.19,0,0,0-1.12,1.19v19.88c0,6.27-1.25,13.43-2.4,19.32-.1-.69-.21-1.41-.32-2.16-.25-1.71-.53-3.58-.77-5.29.66-3.44.59-5.72-.44-6.75a1.36,1.36,0,0,0-1.61-.31c-1,.48-1.12,1.32-.36,7a139.13,139.13,0,0,1-4,13.66c-.25.74-.53,1.51-.82,2.29-.08-2.75-.24-6-.44-10s-.39-7.43-.39-9.86c0-6.1-9.12-32.91-10.87-33.68a1.2,1.2,0,0,0-1.29.21c-.61.55-.4,1.18-.11,2,1.31,3.93,2.65,9.74,3.95,15.37.66,2.87,1.33,5.75,2,8.4.93,3.73.47,9.93,0,16.49-.51,6.9-1,14,0,19.24a100.86,100.86,0,0,1,2,17.66.9.9,0,0,0,0,.28c1.28,5.13,4,6.18,5.57,6.35.18,0,.36,0,.55,0a5.83,5.83,0,0,0,.71-.06c-.43,1.52-.73,2.57-.83,2.9-4.7,9.44-3.31,10.84-2.86,11.29a1.72,1.72,0,0,0,1.23.5,3,3,0,0,0,1.3-.35c4.08-2,8.3-4.15,10.47-8.48,1.23-2.47,10.4-9.18,15.88-13.19,3.24-2.36,5.1-3.74,5.76-4.39,1.24-1.24,1-2.87.74-4.44a9.57,9.57,0,0,1,1.4-7.67,110.55,110.55,0,0,0,6-11.07,107.5,107.5,0,0,1,5.89-10.8C1379.25,877.18,1377.56,853.43,1377.35,850.75Z"/><path class="cls-4" d="M1315.2,900.46c-.56-7.47-1.4-8.31-1.81-8.72a1.33,1.33,0,0,0-1.67-.29c-1,.6-1,1.3,1.11,9.38.3,4.33.51,10.71.51,19.59,0,1.11-1.08,2-1.73,2.38a7.26,7.26,0,0,1-3.89,1.17c-.3-1.42-2-4.65-6.22-12.33-.91-1.65-1.88-3.42-2.63-4.82a8.1,8.1,0,0,0-1.38-3.15,1.29,1.29,0,0,0-1.77-.24c-.78.58-1,.72,1,4.49a125.9,125.9,0,0,1,2.68,20.45c0,3.79,3.13,9,4,10.29v3.63a1.2,1.2,0,0,0,.57,1,1.17,1.17,0,0,0,.62.18,1.13,1.13,0,0,0,.54-.13c.83-.41,8.18-4.12,10.25-6.18,2.43-2.44,4.32-11,4.32-16.75,0-3.22-2.07-10.91-3.9-17.7C1315.6,902,1315.4,901.21,1315.2,900.46Z"/><path class="cls-4" d="M1291.84,898.26a1.19,1.19,0,0,0-2.35.29v13.92c0,3.81-1,5.85-1.55,6.52a2.79,2.79,0,0,1,0-.56c0-3.93-4.77-13.78-10.07-24.39l-6-11.93a1.21,1.21,0,0,0-1.34-.63,1.2,1.2,0,0,0-.92,1.17c0,.89,0,22.1,2,32,2,10.19,8.15,12.88,11.11,12.88a.93.93,0,0,0,.23,0l9.94-2a1.2,1.2,0,0,0,.76-.5c.17-.27,4.27-6.53,2.13-13C1293.84,906.24,1291.86,898.34,1291.84,898.26Z"/><g class="cls-2"><path class="cls-3" d="M1526.09,588.41c0,.35-.5.62-1.07.66a1.35,1.35,0,0,1-1.27-.51c-.16-.35-4-8.47-4-14.43,0-3.26-3.36-6.28-7.25-9.77a57,57,0,0,1-8.56-8.92c-2.31-3.21-4.52-4.67-6.25-5.32a33.32,33.32,0,0,1,2.52,3.63c2,3.67,2,8.43,2,14.45a54.09,54.09,0,0,1-1.63,9.85,12.71,12.71,0,0,1-.37,4.5,111.55,111.55,0,0,1-4,11.91,1.35,1.35,0,0,1-1.4.52c-.63-.08-1-.44-.93-.82,0-.13,2.55-8.63,4.3-16.16-.55-5.51-4.17-10.64-4.22-10.7l-.06-.11c-.44-1-1.42-3.43-2.49-6.28l-1-.72a33.3,33.3,0,0,0,1.76,4.23c2,3.6-1.52,23-1.93,25.2-.07.38-.6.66-1.25.64s-1.13-.34-1.13-.71V577.69c0-3.74-1.24-8-2.4-11.52-.1.41-.2.84-.32,1.29-.25,1-.53,2.13-.76,3.15.66,2,.58,3.41-.45,4a2.07,2.07,0,0,1-1.6.18c-1-.28-1.13-.78-.36-4.18a59.77,59.77,0,0,0-4-8.14c-.25-.44-.52-.9-.82-1.37-.07,1.64-.23,3.61-.44,5.94s-.39,4.43-.39,5.88c0,3.64-9.12,19.62-10.87,20.08a1.83,1.83,0,0,1-1.29-.12c-.6-.33-.39-.7-.1-1.22a80.87,80.87,0,0,0,3.94-9.16c.67-1.72,1.33-3.43,2-5,.94-2.23.48-5.93,0-9.84-.51-4.11-1-8.37,0-11.47a37.23,37.23,0,0,0,2-10.53.47.47,0,0,1,0-.17,6.2,6.2,0,0,1,5.57-3.79h.55c.24,0,.47,0,.71,0l-.82-1.73c-4.71-5.63-3.32-6.46-2.86-6.74a2.4,2.4,0,0,1,1.23-.29,4.74,4.74,0,0,1,1.3.21c4.08,1.22,8.3,2.47,10.46,5.06,1.23,1.47,10.41,5.47,15.89,7.86,3.23,1.41,5.1,2.23,5.76,2.62,1.23.74,1,1.71.73,2.65-.31,1.2-.7,2.69,1.4,4.57a66.38,66.38,0,0,1,6,6.6,65,65,0,0,0,5.89,6.45C1528,572.65,1526.29,586.81,1526.09,588.41Z"/><path class="cls-3" d="M1463.93,558.77c-.55,4.45-1.4,5-1.81,5.2a2,2,0,0,1-1.67.17c-1-.36-1-.78,1.11-5.59a103,103,0,0,0,.52-11.69c0-.66-1.09-1.17-1.73-1.41a11.12,11.12,0,0,0-3.89-.71c-.31.85-2,2.78-6.22,7.36-.91,1-1.88,2-2.63,2.87a4.36,4.36,0,0,1-1.39,1.88,2,2,0,0,1-1.77.15c-.78-.35-1-.44,1-2.68a47.41,47.41,0,0,0,2.67-12.2c0-2.26,3.14-5.35,4-6.14v-2.16c0-.24.21-.47.56-.6a1.85,1.85,0,0,1,.63-.11,1.89,1.89,0,0,1,.53.08c.83.24,8.19,2.45,10.25,3.69,2.44,1.45,4.33,6.56,4.33,10,0,1.92-2.07,6.51-3.9,10.56Z"/><path class="cls-3" d="M1440.57,560.08a1.31,1.31,0,0,1-1.3.53c-.6,0-1-.35-1-.7v-8.3a4.64,4.64,0,0,0-1.55-3.9,1.51,1.51,0,0,0,0,.34c0,2.35-4.76,8.22-10.07,14.54l-6,7.12a1.56,1.56,0,0,1-1.34.37c-.54-.07-.92-.36-.92-.69,0-.54,0-13.18,2-19.11s8.16-7.68,11.11-7.68h.23l9.94,1.18a1.39,1.39,0,0,1,.76.31c.18.15,4.28,3.89,2.13,7.73C1442.57,555.32,1440.59,560,1440.57,560.08Z"/></g><path class="cls-4" d="M1515.35,474.75a1.19,1.19,0,0,0-2.33-.24c-.17.57-4,14.19-4,24.18,0,5.47-3.36,10.53-7.25,16.39a92.59,92.59,0,0,0-8.55,14.95c-2.31,5.39-4.53,7.84-6.26,8.93,1.26-2.68,2.2-5.14,2.52-6.09,2-6.15,2-14.13,2-24.24a148.64,148.64,0,0,0-1.64-16.5,35.38,35.38,0,0,0-.36-7.55c-2-11.84-4-19.89-4-20a1.19,1.19,0,0,0-2.33.49c0,.22,2.55,14.49,4.29,27.1a61.57,61.57,0,0,1-4.21,17.95.64.64,0,0,0-.06.18c-.44,1.75-1.43,5.76-2.49,10.54-.31.37-.63.78-1,1.21.68-3.1,1.28-5.66,1.77-7.11,2-6-1.53-38.56-1.94-42.25a1.17,1.17,0,0,0-1.25-1.06,1.19,1.19,0,0,0-1.12,1.19v19.88c0,6.27-1.25,13.43-2.4,19.32-.1-.69-.21-1.41-.32-2.16-.25-1.71-.53-3.58-.77-5.29.66-3.44.59-5.72-.44-6.75a1.36,1.36,0,0,0-1.61-.31c-1,.48-1.12,1.32-.36,7a139.13,139.13,0,0,1-4,13.66c-.25.74-.53,1.51-.82,2.29-.08-2.75-.24-6-.44-9.95s-.39-7.43-.39-9.86c0-6.1-9.12-32.91-10.87-33.68a1.2,1.2,0,0,0-1.29.21c-.61.55-.4,1.18-.11,2,1.31,3.93,2.65,9.74,3.95,15.37.66,2.87,1.33,5.75,2,8.4.93,3.73.47,9.93,0,16.49-.51,6.9-1,14,0,19.24a100.86,100.86,0,0,1,2,17.66.9.9,0,0,0,0,.28c1.28,5.13,4,6.18,5.57,6.35.18,0,.36,0,.55,0a5.83,5.83,0,0,0,.71-.06c-.43,1.52-.73,2.57-.83,2.9-4.7,9.44-3.31,10.84-2.86,11.29a1.72,1.72,0,0,0,1.23.5,3,3,0,0,0,1.3-.35c4.08-2,8.3-4.15,10.47-8.48,1.23-2.47,10.4-9.18,15.88-13.19,3.24-2.36,5.1-3.74,5.76-4.39,1.24-1.24,1-2.87.74-4.44a9.57,9.57,0,0,1,1.4-7.67,110.55,110.55,0,0,0,6-11.07,107.5,107.5,0,0,1,5.89-10.8C1517.25,501.18,1515.56,477.43,1515.35,474.75Z"/><path class="cls-4" d="M1453.2,524.46c-.56-7.47-1.4-8.31-1.81-8.72a1.33,1.33,0,0,0-1.67-.29c-1,.6-1,1.3,1.11,9.38.3,4.33.51,10.71.51,19.59,0,1.11-1.08,2-1.73,2.38a7.26,7.26,0,0,1-3.89,1.17c-.3-1.42-2-4.65-6.22-12.33-.91-1.65-1.88-3.42-2.63-4.82a8.1,8.1,0,0,0-1.38-3.15,1.29,1.29,0,0,0-1.77-.24c-.78.58-1,.72,1,4.49a125.9,125.9,0,0,1,2.68,20.45c0,3.79,3.13,9,4,10.29v3.63a1.2,1.2,0,0,0,.57,1,1.17,1.17,0,0,0,.62.18,1.13,1.13,0,0,0,.54-.13c.83-.41,8.18-4.12,10.25-6.18,2.43-2.44,4.32-11,4.32-16.75,0-3.22-2.07-10.91-3.9-17.7C1453.6,526,1453.4,525.21,1453.2,524.46Z"/><path class="cls-4" d="M1429.84,522.26a1.19,1.19,0,0,0-2.35.29v13.92c0,3.81-1,5.85-1.55,6.52a2.79,2.79,0,0,1,0-.56c0-3.93-4.77-13.78-10.07-24.39l-6-11.93a1.21,1.21,0,0,0-1.34-.63,1.2,1.2,0,0,0-.92,1.17c0,.89,0,22.1,2,32,2,10.19,8.15,12.88,11.11,12.88a.93.93,0,0,0,.23,0l9.94-2a1.2,1.2,0,0,0,.76-.5c.17-.27,4.27-6.53,2.13-13C1431.84,530.24,1429.86,522.34,1429.84,522.26Z"/><path class="cls-5" d="M256.71,975.63a12.59,12.59,0,0,0-1.28,5.94c0,9.18-6.05,13.19-6.31,13.35a1.69,1.69,0,0,1-1.3.17c-.44-.12-.74-.4-.74-.71a62.49,62.49,0,0,0-2-14,15.54,15.54,0,0,0-1.43-3.92,4.19,4.19,0,0,0-.17,1.23c0,9.35-2.81,17.45-8.11,23.43-3.17,3.57-3.72,4-4.92,3.59s-1.43-.45,4.05-9c.95-1.48,1.91-3,2.7-4.24,2.22-3.57,1.84-3.92.27-5.4a19.21,19.21,0,0,1-4.27-5.6c-.7-1.35-1.27-2.44-1.68-3.18a8.49,8.49,0,0,1-2.31,2.21c-3.81,2.45-15.58,16.33-15.7,16.47a1.49,1.49,0,0,1-1.34.37c-.53-.08-.9-.39-.9-.74s.17-3,6.13-9.36c4.46-4.78,1.76-7.09.72-7.74-2.15.33-10.28,1.72-16.87,4.91-5.31,2.56-17.41,15-23,21.41a6.94,6.94,0,0,1-2.74,4.13,2.1,2.1,0,0,1-1.63.37,1.07,1.07,0,0,1-.86-.65c-.13-.5,1.05-2.2,3-4.52.23-.78.46-1.64.7-2.59a53.25,53.25,0,0,1,6.77-16.49c3.55-5.72,11-12.43,26.49-12h.47c1.59,0,5.06-.82,9.07-1.78,6.78-1.62,15.25-3.64,22.34-3.64a20,20,0,0,1,9.09,1.75C257.14,972.61,257.88,973.11,256.71,975.63Z"/><path class="cls-4" d="M255.91,947.4c-1.47-.33-2.27,1.36-3.68,4.42-.32.71-.66,1.44-1,2.11a38.82,38.82,0,0,0-1.81,5c-1,3.13-2.5,7.84-4,8.47a.58.58,0,0,1-.56-.05,14.73,14.73,0,0,0-2.53-.9c-3.22-.94-6.26-1.82-4.77-13.79,2-16.29,2-22.27-2.1-30.5-2.1-4.2-2.15-4.28-3.23-3.87s-.84,1.31-.49,2.71a41.36,41.36,0,0,1,1.46,9.65c0,21.84-.87,27.83-1.6,28.92-1.23.35-7-1.72-11.83-5-3.22-2.17-4.07-3.61-4.07-4.07,0-3.87,2-21.56,2-21.74a1.19,1.19,0,0,0-2.08-.91c-.59.67-14.41,16.67-8.08,27.24,1.64,2.73,3.42,5.3,5,7.56,1.77,2.56,3.95,5.7,4.15,6.84a6.37,6.37,0,0,1-1.85-.27c-7.48-1.87-9.29-3.56-13.21-9.44-1.34-2-2.84-3-4.27-2.9a2.61,2.61,0,0,0-2.16,1.68c-.89,2.09-.24,6.64,4.5,12.57,8.31,10.38,18.55,10.38,26.78,10.38,7.94,0,21.46-1.92,22-2a1.15,1.15,0,0,0,.68-.33c4.28-4.28,8.3-18.66,8.3-26.69C257.47,949.27,257.24,947.69,255.91,947.4Z"/><path class="cls-5" d="M130.29,792.1c-1.47.19-2.26-.81-3.67-2.62-.33-.42-.66-.85-1-1.25a19.5,19.5,0,0,1-1.8-2.94c-1-1.85-2.51-4.64-4-5a.94.94,0,0,0-.55,0,20.51,20.51,0,0,1-2.54.54c-3.22.55-6.26,1.08-4.76,8.16,2,9.65,2,13.19-2.11,18.06-2.1,2.49-2.14,2.54-3.23,2.3s-.83-.78-.48-1.61A15.55,15.55,0,0,0,107.6,802c0-12.94-.87-16.48-1.6-17.13-1.22-.2-7,1-11.82,3-3.22,1.28-4.07,2.14-4.07,2.41,0,2.29,2,12.76,2,12.87.06.3-.23.6-.71.72a1.77,1.77,0,0,1-1.37-.18c-.6-.4-14.42-9.88-8.08-16.13,1.64-1.62,3.41-3.14,5-4.48,1.77-1.51,3.94-3.37,4.15-4.05a11.22,11.22,0,0,0-1.85.16c-7.49,1.11-9.3,2.11-13.22,5.59a6.06,6.06,0,0,1-4.27,1.72,2.76,2.76,0,0,1-2.15-1c-.89-1.23-.24-3.93,4.5-7.44,8.31-6.15,18.55-6.15,26.77-6.15,8,0,21.47,1.14,22,1.19a1.51,1.51,0,0,1,.67.2c4.28,2.53,8.31,11.05,8.31,15.8C131.86,791,131.62,791.92,130.29,792.1Z"/><path class="cls-4" d="M130.75,772.46a28.77,28.77,0,0,1-1.28-9.23c0-14.24-6.06-20.46-6.31-20.72a1.2,1.2,0,0,0-2,.84,148.08,148.08,0,0,1-2,21.67,33.21,33.21,0,0,1-1.43,6.09,9.83,9.83,0,0,1-.18-1.91c0-14.52-2.8-27.09-8.11-36.38-3.16-5.54-3.71-6.16-4.91-5.58s-1.43.7,4,14c1,2.3,1.9,4.6,2.7,6.58,2.21,5.54,1.84,6.09.27,8.39a31.65,31.65,0,0,0-4.28,8.69c-.7,2.1-1.26,3.8-1.68,4.94a11.46,11.46,0,0,0-2.3-3.42c-3.81-3.81-15.58-25.36-15.7-25.58a1.21,1.21,0,0,0-1.34-.58,1.19,1.19,0,0,0-.9,1.16c0,.44.17,4.59,6.13,14.52,4.45,7.43,1.76,11,.72,12-2.16-.51-10.28-2.67-16.87-7.62-5.31-4-17.42-23.24-23-33.24-.6-2.89-1.32-5-2.74-6.41a1.64,1.64,0,0,0-1.63-.58,1.34,1.34,0,0,0-.86,1c-.14.78,1,3.42,3,7,.24,1.2.46,2.55.7,4a112.79,112.79,0,0,0,6.78,25.59c3.55,8.88,11,19.31,26.49,18.66l.46,0c1.6,0,5.06,1.29,9.07,2.78,6.79,2.51,15.26,5.65,22.34,5.65a14.23,14.23,0,0,0,9.1-2.72C131.18,777.15,131.92,776.37,130.75,772.46Z"/><g class="cls-2"><path class="cls-3" d="M1651.62,1019.41c0,.35.49.62,1.07.66a1.36,1.36,0,0,0,1.27-.51c.16-.35,4-8.47,4-14.43,0-3.26,3.36-6.28,7.25-9.77a57,57,0,0,0,8.55-8.92c2.31-3.21,4.53-4.67,6.26-5.32a33.32,33.32,0,0,0-2.52,3.63c-2,3.67-2,8.43-2,14.45a54.29,54.29,0,0,0,1.64,9.85,12.48,12.48,0,0,0,.37,4.5,113.1,113.1,0,0,0,4,11.91,1.38,1.38,0,0,0,1.41.52c.63-.08,1-.44.92-.82,0-.13-2.54-8.63-4.29-16.16.54-5.51,4.17-10.64,4.21-10.7a.3.3,0,0,0,.06-.11c.44-1,1.43-3.43,2.49-6.28l1-.72a33,33,0,0,1-1.77,4.23c-2,3.6,1.53,23,1.94,25.2.07.38.59.66,1.25.64s1.12-.34,1.12-.71v-11.86c0-3.74,1.25-8,2.4-11.52l.32,1.29c.26,1,.53,2.13.77,3.15-.66,2-.59,3.41.44,4a2.09,2.09,0,0,0,1.61.18c1-.28,1.12-.78.36-4.18a60.6,60.6,0,0,1,4-8.14c.25-.44.53-.9.82-1.37.08,1.64.24,3.61.44,5.94s.4,4.43.4,5.88c0,3.64,9.11,19.62,10.86,20.08a1.83,1.83,0,0,0,1.29-.12c.61-.33.4-.7.11-1.22a80.76,80.76,0,0,1-3.95-9.16c-.66-1.72-1.32-3.43-2-5-.93-2.23-.47-5.93,0-9.84.51-4.11,1-8.37,0-11.47a37,37,0,0,1-2-10.53.33.33,0,0,0,0-.17,6.2,6.2,0,0,0-5.57-3.79h-.55c-.23,0-.47,0-.7,0,.42-.9.73-1.54.82-1.73,4.71-5.63,3.31-6.46,2.86-6.74a2.43,2.43,0,0,0-1.23-.29,4.63,4.63,0,0,0-1.3.21c-4.08,1.22-8.3,2.47-10.47,5.06-1.23,1.47-10.4,5.47-15.88,7.86-3.24,1.41-5.1,2.23-5.76,2.62-1.24.74-1,1.71-.74,2.65.31,1.2.7,2.69-1.4,4.57a66.38,66.38,0,0,0-6,6.6,63.81,63.81,0,0,1-5.89,6.45C1649.72,1003.65,1651.41,1017.81,1651.62,1019.41Z"/><path class="cls-3" d="M1713.77,989.77c.56,4.45,1.4,5,1.81,5.2a2,2,0,0,0,1.67.17c1-.36,1-.78-1.11-5.59a106.05,106.05,0,0,1-.51-11.69c0-.66,1.08-1.17,1.73-1.41a11.12,11.12,0,0,1,3.89-.71c.3.85,2,2.78,6.22,7.36.91,1,1.88,2,2.63,2.87a4.28,4.28,0,0,0,1.39,1.88,2,2,0,0,0,1.76.15c.79-.35,1-.44-1-2.68a47,47,0,0,1-2.68-12.2c0-2.26-3.13-5.35-4-6.14v-2.16c0-.24-.22-.47-.57-.6a1.84,1.84,0,0,0-.62-.11,1.91,1.91,0,0,0-.54.08c-.83.24-8.18,2.45-10.25,3.69-2.43,1.45-4.32,6.56-4.32,10,0,1.92,2.07,6.51,3.9,10.56Z"/><path class="cls-3" d="M1737.14,991.08a1.3,1.3,0,0,0,1.3.53c.59,0,1-.35,1-.7v-8.3a4.64,4.64,0,0,1,1.55-3.9,1.06,1.06,0,0,1,0,.34c0,2.35,4.76,8.22,10.06,14.54l6,7.12a1.58,1.58,0,0,0,1.35.37c.53-.07.91-.36.91-.69,0-.54,0-13.18-2-19.11s-8.15-7.68-11.11-7.68H1746l-9.94,1.18a1.43,1.43,0,0,0-.76.31c-.17.15-4.27,3.89-2.12,7.73C1735.14,986.32,1737.12,991,1737.14,991.08Z"/></g><path class="cls-4" d="M1662.35,905.75a1.19,1.19,0,0,1,2.34-.24c.16.57,4,14.19,4,24.18,0,5.47,3.36,10.53,7.25,16.39a91.85,91.85,0,0,1,8.56,14.95c2.31,5.39,4.52,7.84,6.25,8.93-1.26-2.68-2.2-5.14-2.52-6.09-2-6.15-2-14.13-2-24.24a148.13,148.13,0,0,1,1.63-16.5,35.38,35.38,0,0,1,.37-7.55c2-11.84,4-19.89,4-20a1.19,1.19,0,0,1,2.33.49c0,.22-2.55,14.49-4.3,27.1a61.41,61.41,0,0,0,4.22,17.95l.06.18c.43,1.75,1.42,5.76,2.49,10.54.31.37.63.78,1,1.21-.67-3.1-1.28-5.66-1.76-7.11-2-6,1.52-38.56,1.93-42.25a1.18,1.18,0,0,1,1.25-1.06,1.19,1.19,0,0,1,1.13,1.19v19.88c0,6.27,1.24,13.43,2.4,19.32.1-.69.2-1.41.32-2.16.25-1.71.53-3.58.76-5.29-.66-3.44-.58-5.72.45-6.75a1.35,1.35,0,0,1,1.6-.31c1,.48,1.13,1.32.36,7a137.14,137.14,0,0,0,4,13.66c.25.74.52,1.51.82,2.29.07-2.75.23-6,.44-10s.39-7.43.39-9.86c0-6.1,9.12-32.91,10.86-33.68a1.21,1.21,0,0,1,1.3.21c.6.55.39,1.18.1,2-1.3,3.93-2.65,9.74-3.94,15.37-.67,2.87-1.33,5.75-2,8.4-.94,3.73-.48,9.93,0,16.49.51,6.9,1,14,0,19.24a101.51,101.51,0,0,0-2,17.66,1.33,1.33,0,0,1,0,.28c-1.28,5.13-4,6.18-5.57,6.35l-.55,0a5.67,5.67,0,0,1-.71-.06c.43,1.52.73,2.57.82,2.9,4.71,9.44,3.32,10.84,2.86,11.29a1.7,1.7,0,0,1-1.23.5,3.05,3.05,0,0,1-1.3-.35c-4.08-2-8.3-4.15-10.46-8.48-1.23-2.47-10.41-9.18-15.89-13.19-3.23-2.36-5.1-3.74-5.76-4.39-1.23-1.24-1-2.87-.73-4.44a9.57,9.57,0,0,0-1.4-7.67,110.55,110.55,0,0,1-6-11.07,109.54,109.54,0,0,0-5.89-10.8C1660.45,932.18,1662.15,908.43,1662.35,905.75Z"/><path class="cls-4" d="M1724.51,955.46c.55-7.47,1.4-8.31,1.81-8.72a1.33,1.33,0,0,1,1.67-.29c1,.6,1,1.3-1.11,9.38-.31,4.33-.52,10.71-.52,19.59,0,1.11,1.09,2,1.73,2.38A7.26,7.26,0,0,0,1732,979c.31-1.42,2-4.65,6.22-12.33.91-1.65,1.88-3.42,2.63-4.82a8.08,8.08,0,0,1,1.39-3.15,1.29,1.29,0,0,1,1.77-.24c.78.58,1,.72-1,4.49a126.92,126.92,0,0,0-2.67,20.45c0,3.79-3.14,9-4,10.29v3.63a1.19,1.19,0,0,1-1.19,1.19,1.12,1.12,0,0,1-.53-.13c-.83-.41-8.19-4.12-10.25-6.18-2.44-2.44-4.33-11-4.33-16.75,0-3.22,2.07-10.91,3.9-17.7Z"/><path class="cls-4" d="M1747.87,953.26a1.19,1.19,0,0,1,2.35.29v13.92c0,3.81,1,5.85,1.55,6.52a3.82,3.82,0,0,0,0-.56c0-3.93,4.76-13.78,10.07-24.39l6-11.93a1.21,1.21,0,0,1,1.34-.63,1.2,1.2,0,0,1,.92,1.17c0,.89,0,22.1-2,32-2,10.19-8.16,12.88-11.11,12.88a.86.86,0,0,1-.23,0l-9.94-2a1.18,1.18,0,0,1-.76-.5c-.18-.27-4.28-6.53-2.13-13C1745.87,961.24,1747.85,953.34,1747.87,953.26Z"/><g class="cls-2"><path class="cls-3" d="M1713.62,134.41c0,.35.49.62,1.07.66a1.36,1.36,0,0,0,1.27-.51c.16-.35,4-8.47,4-14.43,0-3.26,3.36-6.28,7.25-9.77a57,57,0,0,0,8.55-8.92c2.31-3.21,4.53-4.67,6.26-5.32a33.32,33.32,0,0,0-2.52,3.63c-2,3.67-2,8.43-2,14.45a54.29,54.29,0,0,0,1.64,9.85,12.48,12.48,0,0,0,.37,4.5,113.1,113.1,0,0,0,4,11.91,1.38,1.38,0,0,0,1.41.52c.63-.08,1-.44.92-.82,0-.13-2.54-8.63-4.29-16.16.54-5.51,4.17-10.64,4.21-10.7a.3.3,0,0,0,.06-.11c.44-1,1.43-3.43,2.49-6.28l1-.72a33,33,0,0,1-1.77,4.23c-2,3.6,1.53,23,1.94,25.2.07.38.59.66,1.25.64s1.12-.34,1.12-.71V123.69c0-3.74,1.25-8,2.4-11.52l.32,1.29c.26,1,.53,2.13.77,3.15-.66,2-.59,3.41.44,4a2.09,2.09,0,0,0,1.61.18c1-.28,1.12-.78.36-4.18a60.6,60.6,0,0,1,4-8.14c.25-.44.53-.9.82-1.37.08,1.64.24,3.61.44,5.94s.4,4.43.4,5.88c0,3.64,9.11,19.62,10.86,20.08a1.83,1.83,0,0,0,1.29-.12c.61-.33.4-.7.11-1.22a80.76,80.76,0,0,1-3.95-9.16c-.66-1.72-1.32-3.43-2-5-.93-2.23-.47-5.93,0-9.84.51-4.11,1-8.37,0-11.47a37,37,0,0,1-2-10.53.33.33,0,0,0,0-.17,6.2,6.2,0,0,0-5.57-3.79h-.55c-.23,0-.47,0-.7,0,.42-.9.73-1.54.82-1.73,4.71-5.63,3.31-6.46,2.86-6.74a2.43,2.43,0,0,0-1.23-.29,4.63,4.63,0,0,0-1.3.21c-4.08,1.22-8.3,2.47-10.47,5.06-1.23,1.47-10.4,5.47-15.88,7.86-3.24,1.41-5.1,2.23-5.76,2.62-1.24.74-1,1.71-.74,2.65.31,1.2.7,2.69-1.4,4.57a66.38,66.38,0,0,0-6,6.6,63.81,63.81,0,0,1-5.89,6.45C1711.72,118.65,1713.41,132.81,1713.62,134.41Z"/><path class="cls-3" d="M1775.77,104.77c.56,4.45,1.4,5,1.81,5.2a2,2,0,0,0,1.67.17c1-.36,1-.78-1.11-5.59a106.05,106.05,0,0,1-.51-11.69c0-.66,1.08-1.17,1.73-1.41a11.12,11.12,0,0,1,3.89-.71c.3.85,2,2.78,6.22,7.36.91,1,1.88,2,2.63,2.87a4.28,4.28,0,0,0,1.39,1.88,2,2,0,0,0,1.76.15c.79-.35,1-.44-1-2.68a47,47,0,0,1-2.68-12.2c0-2.26-3.13-5.35-4-6.14V79.82c0-.24-.22-.47-.57-.6a1.84,1.84,0,0,0-.62-.11,1.91,1.91,0,0,0-.54.08c-.83.24-8.18,2.45-10.25,3.69-2.43,1.45-4.32,6.56-4.32,10,0,1.92,2.07,6.51,3.9,10.56Z"/><path class="cls-3" d="M1799.14,106.08a1.3,1.3,0,0,0,1.3.53c.59,0,1-.35,1-.7v-8.3a4.64,4.64,0,0,1,1.55-3.9,1.06,1.06,0,0,1,0,.34c0,2.35,4.76,8.22,10.06,14.54l6,7.12a1.58,1.58,0,0,0,1.35.37c.53-.07.91-.36.91-.69,0-.54,0-13.18-2-19.11-2-6.08-8.15-7.68-11.11-7.68H1808l-9.94,1.18a1.43,1.43,0,0,0-.76.31c-.17.15-4.27,3.89-2.12,7.73C1797.14,101.32,1799.12,106,1799.14,106.08Z"/></g><path class="cls-4" d="M1724.35,20.75a1.19,1.19,0,0,1,2.34-.24c.16.57,4,14.19,4,24.18,0,5.47,3.36,10.53,7.25,16.39a91.85,91.85,0,0,1,8.56,15c2.31,5.39,4.52,7.84,6.25,8.93-1.26-2.68-2.2-5.14-2.52-6.09-2-6.15-2-14.13-2-24.24a148.13,148.13,0,0,1,1.63-16.5,35.38,35.38,0,0,1,.37-7.55c2-11.84,4-19.89,4-20a1.19,1.19,0,0,1,2.33.49c0,.22-2.55,14.49-4.3,27.1a61.41,61.41,0,0,0,4.22,17.95l.06.18c.43,1.75,1.42,5.76,2.49,10.54.31.37.63.78,1,1.21-.67-3.1-1.28-5.66-1.76-7.11-2-6,1.52-38.56,1.93-42.25a1.18,1.18,0,0,1,1.25-1.06,1.19,1.19,0,0,1,1.13,1.19V38.73c0,6.27,1.24,13.43,2.4,19.32.1-.69.2-1.41.32-2.16.25-1.71.53-3.58.76-5.29-.66-3.44-.58-5.72.45-6.75a1.35,1.35,0,0,1,1.6-.31c1,.48,1.13,1.32.36,7a137.14,137.14,0,0,0,4,13.66c.25.74.52,1.51.82,2.29.07-2.75.23-6,.44-9.95s.39-7.43.39-9.86c0-6.1,9.12-32.91,10.86-33.68a1.21,1.21,0,0,1,1.3.21c.6.55.39,1.18.1,2-1.3,3.93-2.65,9.74-3.94,15.37-.67,2.87-1.33,5.75-2,8.4-.94,3.73-.48,9.93,0,16.49.51,6.9,1,14,0,19.24a101.51,101.51,0,0,0-2,17.66,1.33,1.33,0,0,1,0,.28c-1.28,5.13-4,6.18-5.57,6.35l-.55,0a5.67,5.67,0,0,1-.71-.06c.43,1.52.73,2.57.82,2.9,4.71,9.44,3.32,10.84,2.86,11.29a1.7,1.7,0,0,1-1.23.5,3.05,3.05,0,0,1-1.3-.35c-4.08-2-8.3-4.15-10.46-8.48-1.23-2.47-10.41-9.18-15.89-13.19-3.23-2.36-5.1-3.74-5.76-4.39-1.23-1.24-1-2.87-.73-4.44a9.57,9.57,0,0,0-1.4-7.67,110.55,110.55,0,0,1-6-11.07,109.54,109.54,0,0,0-5.89-10.8C1722.45,47.18,1724.15,23.43,1724.35,20.75Z"/><path class="cls-4" d="M1786.51,70.46c.55-7.47,1.4-8.31,1.81-8.72a1.33,1.33,0,0,1,1.67-.29c1,.6,1,1.3-1.11,9.38-.31,4.33-.52,10.71-.52,19.59,0,1.11,1.09,2,1.73,2.38A7.26,7.26,0,0,0,1794,94c.31-1.42,2-4.65,6.22-12.33.91-1.65,1.88-3.42,2.63-4.82a8.08,8.08,0,0,1,1.39-3.15,1.29,1.29,0,0,1,1.77-.24c.78.58,1,.72-1,4.49a126.92,126.92,0,0,0-2.67,20.45c0,3.79-3.14,9-4,10.29v3.63a1.19,1.19,0,0,1-1.19,1.19,1.12,1.12,0,0,1-.53-.13c-.83-.41-8.19-4.12-10.25-6.18-2.44-2.44-4.33-11-4.33-16.75,0-3.22,2.07-10.91,3.9-17.7Z"/><path class="cls-4" d="M1809.87,68.26a1.19,1.19,0,0,1,2.35.29V82.47c0,3.81,1,5.85,1.55,6.52a3.82,3.82,0,0,0,0-.56c0-3.93,4.76-13.78,10.07-24.39l6-11.93a1.21,1.21,0,0,1,1.34-.63,1.2,1.2,0,0,1,.92,1.17c0,.89,0,22.1-2,32-2,10.19-8.16,12.88-11.11,12.88a.86.86,0,0,1-.23,0l-9.94-2a1.18,1.18,0,0,1-.76-.5c-.18-.27-4.28-6.53-2.13-13C1807.87,76.24,1809.85,68.34,1809.87,68.26Z"/><path class="cls-5" d="M1621.41,702.1c1.47.19,2.27-.81,3.68-2.62.32-.42.66-.85,1-1.25a18.69,18.69,0,0,0,1.81-2.94c1-1.85,2.5-4.64,4-5a1,1,0,0,1,.56,0,20,20,0,0,0,2.53.54c3.22.55,6.26,1.08,4.77,8.16-2,9.65-2,13.19,2.1,18.06,2.1,2.49,2.15,2.54,3.23,2.3s.84-.78.49-1.61a15.34,15.34,0,0,1-1.46-5.71c0-12.94.87-16.48,1.6-17.13,1.23-.2,7,1,11.83,3,3.22,1.28,4.07,2.14,4.07,2.41,0,2.29-2,12.76-2,12.87-.06.3.22.6.7.72a1.79,1.79,0,0,0,1.38-.18c.59-.4,14.41-9.88,8.08-16.13-1.64-1.62-3.42-3.14-5-4.48-1.77-1.51-4-3.37-4.15-4.05a11.22,11.22,0,0,1,1.85.16c7.48,1.11,9.29,2.11,13.21,5.59a6.08,6.08,0,0,0,4.27,1.72,2.78,2.78,0,0,0,2.16-1c.89-1.23.24-3.93-4.5-7.44-8.31-6.15-18.55-6.15-26.78-6.15-7.94,0-21.46,1.14-22,1.19a1.55,1.55,0,0,0-.67.2c-4.28,2.53-8.3,11.05-8.3,15.8C1619.85,701,1620.08,701.92,1621.41,702.1Z"/><path class="cls-4" d="M1621,682.46a28.77,28.77,0,0,0,1.28-9.23c0-14.24,6.06-20.46,6.32-20.72a1.19,1.19,0,0,1,2,.84,149,149,0,0,0,2,21.67,33.21,33.21,0,0,0,1.43,6.09,10.79,10.79,0,0,0,.17-1.91c0-14.52,2.81-27.09,8.11-36.38,3.17-5.54,3.72-6.16,4.92-5.58s1.43.7-4,14c-1,2.3-1.91,4.6-2.7,6.58-2.22,5.54-1.84,6.09-.27,8.39a31.71,31.71,0,0,1,4.27,8.69c.7,2.1,1.27,3.8,1.68,4.94a11.51,11.51,0,0,1,2.31-3.42c3.81-3.81,15.58-25.36,15.7-25.58a1.2,1.2,0,0,1,1.34-.58,1.19,1.19,0,0,1,.9,1.16c0,.44-.18,4.59-6.14,14.52-4.45,7.43-1.76,11-.71,12,2.15-.51,10.28-2.67,16.87-7.62,5.31-4,17.41-23.24,23-33.24.6-2.89,1.33-5,2.74-6.41a1.65,1.65,0,0,1,1.64-.58,1.38,1.38,0,0,1,.86,1c.13.78-1,3.42-3,7-.24,1.2-.46,2.55-.7,4a113.2,113.2,0,0,1-6.77,25.59c-3.55,8.88-11,19.31-26.5,18.66l-.46,0c-1.59,0-5.06,1.29-9.07,2.78-6.79,2.51-15.25,5.65-22.34,5.65a14.2,14.2,0,0,1-9.09-2.72C1620.52,687.15,1619.79,686.37,1621,682.46Z"/><path class="cls-5" d="M150.77,100.65a11.54,11.54,0,0,0-1.17,5.45c0,8.42-5.56,12.09-5.79,12.24a1.62,1.62,0,0,1-1.19.16c-.41-.11-.68-.37-.68-.66a57.3,57.3,0,0,0-1.81-12.8,14.08,14.08,0,0,0-1.31-3.59,3.93,3.93,0,0,0-.16,1.13c0,8.57-2.57,16-7.44,21.49-2.9,3.27-3.41,3.64-4.51,3.29s-1.31-.41,3.72-8.24c.87-1.36,1.74-2.71,2.47-3.89,2-3.27,1.69-3.59.25-5a17.76,17.76,0,0,1-3.92-5.13c-.64-1.25-1.16-2.25-1.54-2.92a7.61,7.61,0,0,1-2.11,2c-3.5,2.25-14.29,15-14.4,15.11a1.39,1.39,0,0,1-1.23.34c-.49-.08-.83-.36-.83-.68s.16-2.71,5.63-8.58c4.08-4.39,1.61-6.51.65-7.1a60.21,60.21,0,0,0-15.47,4.5c-4.87,2.35-16,13.73-21.07,19.63a6.38,6.38,0,0,1-2.51,3.79,2,2,0,0,1-1.5.34,1,1,0,0,1-.79-.59c-.12-.46,1-2,2.76-4.15.22-.71.42-1.51.64-2.38a49,49,0,0,1,6.22-15.12c3.25-5.24,10.12-11.4,24.29-11h.42a52.51,52.51,0,0,0,8.32-1.64c6.23-1.48,14-3.34,20.49-3.34A18.41,18.41,0,0,1,145.54,95C151.16,97.88,151.84,98.34,150.77,100.65Z"/><path class="cls-4" d="M150,74.76c-1.35-.3-2.07,1.25-3.37,4.06-.3.64-.6,1.31-.91,1.93a35.77,35.77,0,0,0-1.66,4.55c-.91,2.87-2.29,7.19-3.66,7.77a.51.51,0,0,1-.51,0,13.17,13.17,0,0,0-2.32-.83c-3-.85-5.75-1.66-4.38-12.64,1.87-14.94,1.85-20.43-1.92-28-1.93-3.85-2-3.93-3-3.56s-.76,1.21-.44,2.49a38.06,38.06,0,0,1,1.33,8.85c0,20-.79,25.53-1.46,26.53-1.13.32-6.43-1.58-10.85-4.57-3-2-3.73-3.3-3.73-3.73,0-3.54,1.8-19.77,1.82-19.93a1.1,1.1,0,0,0-1.92-.84c-.54.62-13.21,15.29-7.4,25,1.5,2.51,3.13,4.86,4.57,6.94,1.62,2.34,3.61,5.22,3.8,6.27a6.44,6.44,0,0,1-1.7-.24c-6.86-1.72-8.52-3.28-12.12-8.67-1.22-1.83-2.6-2.77-3.91-2.66a2.4,2.4,0,0,0-2,1.55c-.81,1.92-.22,6.08,4.13,11.52,7.62,9.53,17,9.53,24.55,9.53,7.29,0,19.69-1.76,20.21-1.84a1.05,1.05,0,0,0,.62-.31c3.92-3.92,7.62-17.11,7.62-24.47C151.47,76.47,151.25,75,150,74.76Z"/><path class="cls-6" d="M1264.34,369.28s17.49,8.75,22.74,5.25,7-28,7-47.23-3.5-33.23,5.25-33.23,31.49,1.75,36.73-14,5.25-56,3.5-63-5.25-8.74-12.24-7-8.75,3.5-8.75,21,3.5,28-1.75,33.23-14,12.25-17.49,5.25-5.25-56-5.25-82.21-1.75-47.23-5.25-50.73-17.49-1.75-15.74,8.74,0,64.72-1.75,70-8.74,5.25-8.74-7,1.75-28-1.75-31.49-12.25,0-12.25,12.24-1.75,35,3.5,43.73,13.12,9.63,14.87,7.88,8.75,31.48,1.75,35-17.49,7-22.74-8.75,1.75-57.72-5.25-61.22-17.49-3.5-19.24,15.74-1.75,52.48,7,64.73,26.23,14,29.73,15.74,5.25,8.75,5.25,19.24S1261.71,363.16,1264.34,369.28Z"/><path class="cls-5" d="M1263.91,368.83s22.8-2.22,24.77-.84-16,9.64-31.31,16.08-29.66,11-21.74,11.32,29.9.68,22.1,6.15-39.86,18.94-47,21.21S1199,425.47,1194,424.6s-5.13-1.52,8.81-7.37,25.48-9.22,24.91-11.19-2.91-4.66-11.65-2.45-49.37,18.51-70.28,27.29-39.23,15.73-45.19,16.76-17.23-.12-7.28-3.56,51.59-21.65,54.19-23.48-3.74-2.1-13.5,2-20.72,9.44-26.68,10.47-11.08-.49-1.32-4.59,26.3-11.77,38-14.49,19.55-2.69,19.73-2,33-10.18,29.47-11.63-10.26-3-27.56,2-44.42,19.38-53.55,20.27-18.62.47-4.87-6,40.25-17.62,57.92-21.37,34.91-3.63,39.47-4.08,11.73-2.71,20.09-6.22S1256.65,370.78,1263.91,368.83Z"/><path class="cls-7" d="M1322.06,278.32s7,1.75,8.75-26.23-1.75-36.74-5.25-36.74-6.12,9.62-7.87,25.37a251.3,251.3,0,0,0-1.75,31.48C1315.94,279.2,1317.69,277.45,1322.06,278.32Z"/><path class="cls-7" d="M1260,230.22s-3.5-17.49-1.75-28,1.75-15.74-1.75-17.49-5.24-1.75-7,8.75-3.5,33.23,0,38.48S1263.46,240.72,1260,230.22Z"/><path class="cls-7" d="M1284.45,142.76S1286.2,281,1288,288s3.5,5.24,0,14-1.75,36.73-3.5,47.23,0,22.74-3.5,22.74-17.49,1.75-15.74-33.24-5.25-33.23,1.75-38.48,1.75-15.74,1.75-15.74,3.5-40.24,1.75-42,10.49-10.5,7-12.25-8.74,0-7-17.49,3.5-66.47,7-68.22A17.44,17.44,0,0,1,1284.45,142.76Z"/><path class="cls-7" d="M1240.72,282.7s-8.75-17.49-7-33.24,3.5-38.48,1.75-38.48-10.49-1.75-12.24,8.75,0,66.47,3.5,68.22S1246,300.19,1240.72,282.7Z"/><path class="cls-6" d="M167.13,517.49s14.12,7.06,18.35,4.23,5.65-22.58,5.65-38.1-2.83-26.82,4.23-26.82,25.4,1.41,29.64-11.29,4.23-45.16,2.82-50.81-4.23-7.05-9.88-5.64-7.06,2.82-7.06,16.94,2.83,22.58-1.41,26.81-11.29,9.88-14.11,4.23-4.23-45.16-4.23-66.33-1.42-38.1-4.24-40.93-14.11-1.41-12.7,7.06,0,52.22-1.41,56.45-7.06,4.24-7.06-5.64,1.41-22.58-1.41-25.41-9.88,0-9.88,9.88-1.41,28.23,2.82,35.29,10.59,7.76,12,6.35,7.06,25.4,1.41,28.22-14.11,5.65-18.35-7.05,1.42-46.58-4.23-49.4-14.11-2.82-15.52,12.7-1.42,42.34,5.64,52.22,21.17,11.29,24,12.7,4.24,7.06,4.24,15.53S165,512.55,167.13,517.49Z"/><path class="cls-5" d="M166.79,517.12s18.4-1.79,20-.68-12.89,7.78-25.26,13-23.93,8.85-17.54,9.14,24.12.54,17.83,5-32.16,15.28-37.94,17.11-9.46,2.19-13.44,1.49-4.14-1.23,7.11-6,20.55-7.44,20.09-9-2.34-3.76-9.4-2-39.83,14.94-56.7,22-31.65,12.69-36.46,13.53-13.9-.1-5.87-2.87,41.62-17.47,43.72-18.94-3-1.7-10.89,1.6-16.72,7.61-21.53,8.44-8.94-.39-1.07-3.7,21.22-9.5,30.68-11.69,15.77-2.17,15.92-1.64,26.64-8.22,23.78-9.39-8.28-2.45-22.24,1.63-35.84,15.64-43.2,16.35-15,.38-3.93-4.87,32.47-14.22,46.73-17.24,28.16-2.93,31.85-3.29,9.45-2.19,16.2-5S160.93,518.69,166.79,517.12Z"/><path class="cls-7" d="M213.71,444.1s5.64,1.41,7-21.17-1.41-29.64-4.23-29.64-4.94,7.77-6.35,20.47a203,203,0,0,0-1.41,25.4C208.77,444.81,210.18,443.4,213.71,444.1Z"/><path class="cls-7" d="M163.6,405.29s-2.82-14.11-1.41-22.58,1.41-12.7-1.41-14.12-4.23-1.41-5.64,7.06-2.83,26.82,0,31.05S166.43,413.76,163.6,405.29Z"/><path class="cls-7" d="M183.36,334.72s1.41,111.5,2.83,117.14,2.82,4.24,0,11.29-1.42,29.64-2.83,38.11,0,18.35-2.82,18.35-14.11,1.41-12.7-26.82-4.24-26.81,1.41-31.05,1.41-12.7,1.41-12.7,2.82-32.46,1.41-33.87,8.47-8.47,5.65-9.88-7.06,0-5.65-14.11,2.83-53.63,5.65-55.05A14.05,14.05,0,0,1,183.36,334.72Z"/><path class="cls-7" d="M148.08,447.63s-7.06-14.11-5.65-26.82,2.83-31.05,1.42-31.05-8.47-1.41-9.88,7.06,0,53.63,2.82,55S152.31,461.74,148.08,447.63Z"/></svg>