<?xml version="1.0" encoding="utf-8"?>
<!-- Generator: Adobe Illustrator 22.1.0, SVG Export Plug-In . SVG Version: 6.00 Build 0)  -->
<svg version="1.1" id="圖層_1" xmlns="http://www.w3.org/2000/svg" xmlns:xlink="http://www.w3.org/1999/xlink" x="0px" y="0px"
	 viewBox="0 0 1920 1080" style="enable-background:new 0 0 1920 1080;" xml:space="preserve">
<style type="text/css">
	.st0{fill:#ECDED9;}
	.st1{opacity:0.7;}
	.st2{fill:#B2A3B2;}
	.st3{fill:#637965;}
	.st4{opacity:0.7;fill:#B2A3B2;enable-background:new    ;}
	.st5{fill:#83AAA3;}
	.st6{fill:#5B7566;}
</style>
<title>活動巴士</title>
<rect x="-1.7" y="-6.5" class="st0" width="1920.5" height="1092.5"/>
<g class="st1">
	<path class="st2" d="M1394.1,960.4c0,0.3-0.5,0.6-1.1,0.7c-0.5,0.1-1-0.1-1.3-0.5c-0.2-0.3-4-8.5-4-14.4c0-3.3-3.4-6.3-7.2-9.8
		c-3.2-2.7-6-5.6-8.6-8.9c-2.3-3.2-4.5-4.7-6.2-5.3c0.9,1.2,1.8,2.4,2.5,3.6c2,3.7,2,8.4,2,14.5c-0.2,3.3-0.8,6.6-1.6,9.8
		c0.1,1.5,0,3-0.4,4.5c-1.1,4-2.4,8-4,11.9c-0.3,0.4-0.9,0.6-1.4,0.5c-0.6-0.1-1-0.4-0.9-0.8c0-0.1,2.6-8.6,4.3-16.2
		c-0.6-5.5-4.2-10.6-4.2-10.7l-0.1-0.1c-0.4-1-1.4-3.4-2.5-6.3l-1-0.7c0.5,1.4,1.1,2.9,1.8,4.2c2,3.6-1.5,23-1.9,25.2
		c-0.1,0.4-0.6,0.7-1.2,0.6s-1.1-0.3-1.1-0.7v-11.9c0-3.7-1.2-8-2.4-11.5c-0.1,0.4-0.2,0.8-0.3,1.3c-0.2,1-0.5,2.1-0.8,3.2
		c0.7,2,0.6,3.4-0.4,4c-0.5,0.3-1.1,0.3-1.6,0.2c-1-0.3-1.1-0.8-0.4-4.2c-1.1-2.8-2.5-5.5-4-8.1c-0.2-0.4-0.5-0.9-0.8-1.4
		c-0.1,1.6-0.2,3.6-0.4,5.9s-0.4,4.4-0.4,5.9c0,3.6-9.1,19.6-10.9,20.1c-0.4,0.1-0.9,0.1-1.3-0.1c-0.6-0.3-0.4-0.7-0.1-1.2
		c1.5-3,2.8-6,3.9-9.2c0.7-1.7,1.3-3.4,2-5c0.9-2.2,0.5-5.9,0-9.8c-0.5-4.1-1-8.4,0-11.5c1.2-3.4,1.8-6.9,2-10.5c0-0.1,0-0.1,0-0.2
		c0.9-2.2,3.1-3.7,5.6-3.8h0.6c0.2,0,0.5,0,0.7,0l-0.8-1.7c-4.7-5.6-3.3-6.5-2.9-6.7c0.4-0.2,0.8-0.3,1.2-0.3c0.4,0,0.9,0.1,1.3,0.2
		c4.1,1.2,8.3,2.5,10.5,5.1c1.2,1.5,10.4,5.5,15.9,7.9c3.2,1.4,5.1,2.2,5.8,2.6c1.2,0.7,1,1.7,0.7,2.7c-0.3,1.2-0.7,2.7,1.4,4.6
		c2.1,2.1,4.2,4.3,6,6.6c1.8,2.3,3.8,4.4,5.9,6.5C1396,944.7,1394.3,958.8,1394.1,960.4z"/>
	<path class="st2" d="M1331.9,930.8c-0.6,4.5-1.4,5-1.8,5.2c-0.5,0.3-1.1,0.4-1.7,0.2c-1-0.4-1-0.8,1.1-5.6
		c0.4-3.9,0.6-7.8,0.5-11.7c0-0.7-1.1-1.2-1.7-1.4c-1.2-0.5-2.6-0.7-3.9-0.7c-0.3,0.8-2,2.8-6.2,7.4c-0.9,1-1.9,2-2.6,2.9
		c-0.3,0.7-0.8,1.4-1.4,1.9c-0.5,0.3-1.2,0.4-1.8,0.2c-0.8-0.3-1-0.4,1-2.7c1.4-3.9,2.3-8,2.7-12.2c0-2.3,3.1-5.3,4-6.1v-2.2
		c0-0.2,0.2-0.5,0.6-0.6c0.2-0.1,0.4-0.1,0.6-0.1c0.2,0,0.4,0,0.5,0.1c0.8,0.2,8.2,2.5,10.2,3.7c2.4,1.5,4.3,6.6,4.3,10
		c0,1.9-2.1,6.5-3.9,10.6L1331.9,930.8z"/>
	<path class="st2" d="M1308.6,932.1c-0.3,0.4-0.8,0.6-1.3,0.5c-0.6,0-1-0.3-1-0.7v-8.3c0.1-1.5-0.4-2.9-1.6-3.9c0,0.1,0,0.2,0,0.3
		c0,2.3-4.8,8.2-10.1,14.5l-6,7.1c-0.4,0.3-0.9,0.5-1.3,0.4c-0.5-0.1-0.9-0.4-0.9-0.7c0-0.5,0-13.2,2-19.1s8.2-7.7,11.1-7.7h0.2
		l9.9,1.2c0.3,0,0.5,0.1,0.8,0.3c0.2,0.2,4.3,3.9,2.1,7.7C1310.6,927.3,1308.6,932,1308.6,932.1z"/>
</g>
<path class="st3" d="M1383.3,846.8c0-0.7-0.6-1.1-1.3-1.1c-0.5,0-0.9,0.4-1.1,0.9c-0.2,0.6-4,14.2-4,24.2c0,5.5-3.4,10.5-7.2,16.4
	c-3.3,4.7-6.2,9.7-8.6,15c-2.3,5.4-4.5,7.8-6.3,8.9c1.3-2.7,2.2-5.1,2.5-6.1c2-6.2,2-14.1,2-24.2c-0.2-5.5-0.8-11-1.6-16.5
	c0.1-2.5,0-5.1-0.4-7.5c-2-11.8-4-19.9-4-20c-0.1-0.6-0.8-1.1-1.4-0.9c-0.6,0.1-1.1,0.8-0.9,1.4l0,0c0,0.2,2.6,14.5,4.3,27.1
	c-0.5,6.2-1.9,12.2-4.2,18c0,0.1,0,0.1-0.1,0.2c-0.4,1.8-1.4,5.8-2.5,10.5c-0.3,0.4-0.6,0.8-1,1.2c0.7-3.1,1.3-5.7,1.8-7.1
	c2-6-1.5-38.6-1.9-42.2c-0.1-0.6-0.6-1.1-1.2-1.1c-0.6,0-1.1,0.6-1.1,1.2v19.9c0,6.3-1.2,13.4-2.4,19.3c-0.1-0.7-0.2-1.4-0.3-2.2
	c-0.2-1.7-0.5-3.6-0.8-5.3c0.7-3.4,0.6-5.7-0.4-6.8c-0.4-0.5-1.1-0.6-1.6-0.3c-1,0.5-1.1,1.3-0.4,7c-1.1,4.6-2.4,9.2-4,13.7
	c-0.2,0.7-0.5,1.5-0.8,2.3c-0.1-2.8-0.2-6-0.4-10s-0.4-7.4-0.4-9.9c0-6.1-9.1-32.9-10.9-33.7c-0.4-0.2-0.9-0.1-1.3,0.2
	c-0.6,0.5-0.4,1.2-0.1,2c1.3,3.9,2.7,9.7,3.9,15.4c0.7,2.9,1.3,5.8,2,8.4c0.9,3.7,0.5,9.9,0,16.5c-0.5,6.9-1,14,0,19.2
	c1.2,5.8,1.9,11.7,2,17.7c0,0.1,0,0.2,0,0.3c1.3,5.1,4,6.2,5.6,6.3c0.2,0,0.4,0,0.6,0c0.2,0,0.5,0,0.7-0.1c-0.4,1.5-0.7,2.6-0.8,2.9
	c-4.7,9.4-3.3,10.8-2.9,11.3c0.3,0.3,0.8,0.5,1.2,0.5c0.5,0,0.9-0.1,1.3-0.3c4.1-2,8.3-4.2,10.5-8.5c1.2-2.5,10.4-9.2,15.9-13.2
	c3.2-2.4,5.1-3.7,5.8-4.4c1.2-1.2,1-2.9,0.7-4.4c-0.6-2.6-0.1-5.4,1.4-7.7c2.2-3.6,4.2-7.3,6-11.1c1.8-3.7,3.7-7.3,5.9-10.8
	C1385.2,873.2,1383.6,849.4,1383.3,846.8z"/>
<path class="st3" d="M1321.2,896.5c-0.6-7.5-1.4-8.3-1.8-8.7c-0.4-0.5-1.1-0.6-1.7-0.3c-1,0.6-1,1.3,1.1,9.4
	c0.3,4.3,0.5,10.7,0.5,19.6c0,1.1-1.1,2-1.7,2.4c-1.2,0.8-2.5,1.2-3.9,1.2c-0.3-1.4-2-4.7-6.2-12.3c-0.9-1.7-1.9-3.4-2.6-4.8
	c-0.2-1.1-0.7-2.2-1.4-3.2c-0.4-0.5-1.2-0.6-1.8-0.2c-0.8,0.6-1,0.7,1,4.5c1.5,6.7,2.3,13.6,2.7,20.5c0,3.8,3.1,9,4,10.3v3.6
	c0,0.4,0.2,0.8,0.6,1c0.2,0.1,0.4,0.2,0.6,0.2c0.2,0,0.4,0,0.5-0.1c0.8-0.4,8.2-4.1,10.2-6.2c2.4-2.4,4.3-11,4.3-16.8
	c0-3.2-2.1-10.9-3.9-17.7C1321.6,898,1321.4,897.2,1321.2,896.5z"/>
<path class="st3" d="M1297.8,894.3c-0.1-0.6-0.8-1-1.4-0.9c-0.6,0.1-0.9,0.6-0.9,1.2v13.9c0,3.8-1,5.8-1.6,6.5c0-0.2,0-0.4,0-0.6
	c0-3.9-4.8-13.8-10.1-24.4l-6-11.9c-0.3-0.5-0.8-0.7-1.3-0.6c-0.5,0.1-0.9,0.6-0.9,1.2c0,0.9,0,22.1,2,32c2,10.2,8.2,12.9,11.1,12.9
	c0.1,0,0.2,0,0.2,0l9.9-2c0.3-0.1,0.6-0.2,0.8-0.5c0.2-0.3,4.3-6.5,2.1-13C1299.8,902.2,1297.9,894.3,1297.8,894.3z"/>
<g class="st1">
	<path class="st2" d="M1532.1,584.4c0,0.3-0.5,0.6-1.1,0.7c-0.5,0.1-1-0.1-1.3-0.5c-0.2-0.3-4-8.5-4-14.4c0-3.3-3.4-6.3-7.2-9.8
		c-3.2-2.7-6-5.6-8.6-8.9c-2.3-3.2-4.5-4.7-6.2-5.3c0.9,1.2,1.8,2.4,2.5,3.6c2,3.7,2,8.4,2,14.5c-0.2,3.3-0.8,6.6-1.6,9.8
		c0.1,1.5,0,3-0.4,4.5c-1.1,4-2.4,8-4,11.9c-0.3,0.4-0.9,0.6-1.4,0.5c-0.6-0.1-1-0.4-0.9-0.8c0-0.1,2.6-8.6,4.3-16.2
		c-0.6-5.5-4.2-10.6-4.2-10.7l-0.1-0.1c-0.4-1-1.4-3.4-2.5-6.3l-1-0.7c0.5,1.4,1.1,2.9,1.8,4.2c2,3.6-1.5,23-1.9,25.2
		c-0.1,0.4-0.6,0.7-1.2,0.6s-1.1-0.3-1.1-0.7v-11.9c0-3.7-1.2-8-2.4-11.5c-0.1,0.4-0.2,0.8-0.3,1.3c-0.2,1-0.5,2.1-0.8,3.2
		c0.7,2,0.6,3.4-0.4,4c-0.5,0.3-1.1,0.3-1.6,0.2c-1-0.3-1.1-0.8-0.4-4.2c-1.1-2.8-2.5-5.5-4-8.1c-0.2-0.4-0.5-0.9-0.8-1.4
		c-0.1,1.6-0.2,3.6-0.4,5.9s-0.4,4.4-0.4,5.9c0,3.6-9.1,19.6-10.9,20.1c-0.4,0.1-0.9,0.1-1.3-0.1c-0.6-0.3-0.4-0.7-0.1-1.2
		c1.5-3,2.8-6,3.9-9.2c0.7-1.7,1.3-3.4,2-5c0.9-2.2,0.5-5.9,0-9.8c-0.5-4.1-1-8.4,0-11.5c1.2-3.4,1.8-6.9,2-10.5c0-0.1,0-0.1,0-0.2
		c0.9-2.2,3.1-3.7,5.6-3.8h0.6c0.2,0,0.5,0,0.7,0l-0.8-1.7c-4.7-5.6-3.3-6.5-2.9-6.7c0.4-0.2,0.8-0.3,1.2-0.3c0.4,0,0.9,0.1,1.3,0.2
		c4.1,1.2,8.3,2.5,10.5,5.1c1.2,1.5,10.4,5.5,15.9,7.9c3.2,1.4,5.1,2.2,5.8,2.6c1.2,0.7,1,1.7,0.7,2.7c-0.3,1.2-0.7,2.7,1.4,4.6
		c2.1,2.1,4.2,4.3,6,6.6c1.8,2.3,3.8,4.4,5.9,6.5C1534,568.7,1532.3,582.8,1532.1,584.4z"/>
	<path class="st2" d="M1469.9,554.8c-0.6,4.5-1.4,5-1.8,5.2c-0.5,0.3-1.1,0.4-1.7,0.2c-1-0.4-1-0.8,1.1-5.6
		c0.4-3.9,0.6-7.8,0.5-11.7c0-0.7-1.1-1.2-1.7-1.4c-1.2-0.5-2.6-0.7-3.9-0.7c-0.3,0.8-2,2.8-6.2,7.4c-0.9,1-1.9,2-2.6,2.9
		c-0.3,0.7-0.8,1.4-1.4,1.9c-0.5,0.3-1.2,0.4-1.8,0.2c-0.8-0.3-1-0.4,1-2.7c1.4-3.9,2.3-8,2.7-12.2c0-2.3,3.1-5.3,4-6.1v-2.2
		c0-0.2,0.2-0.5,0.6-0.6c0.2-0.1,0.4-0.1,0.6-0.1c0.2,0,0.4,0,0.5,0.1c0.8,0.2,8.2,2.5,10.2,3.7c2.4,1.5,4.3,6.6,4.3,10
		c0,1.9-2.1,6.5-3.9,10.6L1469.9,554.8z"/>
	<path class="st2" d="M1446.6,556.1c-0.3,0.4-0.8,0.6-1.3,0.5c-0.6,0-1-0.3-1-0.7v-8.3c0.1-1.5-0.4-2.9-1.6-3.9c0,0.1,0,0.2,0,0.3
		c0,2.3-4.8,8.2-10.1,14.5l-6,7.1c-0.4,0.3-0.9,0.5-1.3,0.4c-0.5-0.1-0.9-0.4-0.9-0.7c0-0.5,0-13.2,2-19.1s8.2-7.7,11.1-7.7h0.2
		l9.9,1.2c0.3,0,0.5,0.1,0.8,0.3c0.2,0.2,4.3,3.9,2.1,7.7C1448.6,551.3,1446.6,556,1446.6,556.1z"/>
</g>
<path class="st3" d="M1521.3,470.8c0-0.7-0.6-1.1-1.3-1.1c-0.5,0-0.9,0.4-1.1,0.9c-0.2,0.6-4,14.2-4,24.2c0,5.5-3.4,10.5-7.2,16.4
	c-3.3,4.7-6.2,9.7-8.6,15c-2.3,5.4-4.5,7.8-6.3,8.9c1.3-2.7,2.2-5.1,2.5-6.1c2-6.2,2-14.1,2-24.2c-0.2-5.5-0.8-11-1.6-16.5
	c0.1-2.5,0-5.1-0.4-7.5c-2-11.8-4-19.9-4-20c-0.1-0.6-0.8-1.1-1.4-0.9c-0.6,0.1-1.1,0.8-0.9,1.4c0,0.2,2.6,14.5,4.3,27.1
	c-0.5,6.2-1.9,12.2-4.2,18c0,0.1,0,0.1-0.1,0.2c-0.4,1.8-1.4,5.8-2.5,10.5c-0.3,0.4-0.6,0.8-1,1.2c0.7-3.1,1.3-5.7,1.8-7.1
	c2-6-1.5-38.6-1.9-42.2c-0.1-0.6-0.6-1.1-1.2-1.1c-0.6,0-1.1,0.6-1.1,1.2v19.9c0,6.3-1.2,13.4-2.4,19.3c-0.1-0.7-0.2-1.4-0.3-2.2
	c-0.2-1.7-0.5-3.6-0.8-5.3c0.7-3.4,0.6-5.7-0.4-6.8c-0.4-0.5-1.1-0.6-1.6-0.3c-1,0.5-1.1,1.3-0.4,7c-1.1,4.6-2.4,9.2-4,13.7
	c-0.2,0.7-0.5,1.5-0.8,2.3c-0.1-2.8-0.2-6-0.4-10s-0.4-7.4-0.4-9.9c0-6.1-9.1-32.9-10.9-33.7c-0.4-0.2-0.9-0.1-1.3,0.2
	c-0.6,0.5-0.4,1.2-0.1,2c1.3,3.9,2.7,9.7,3.9,15.4c0.7,2.9,1.3,5.8,2,8.4c0.9,3.7,0.5,9.9,0,16.5c-0.5,6.9-1,14,0,19.2
	c1.2,5.8,1.9,11.7,2,17.7c0,0.1,0,0.2,0,0.3c1.3,5.1,4,6.2,5.6,6.3c0.2,0,0.4,0,0.6,0c0.2,0,0.5,0,0.7-0.1c-0.4,1.5-0.7,2.6-0.8,2.9
	c-4.7,9.4-3.3,10.8-2.9,11.3c0.3,0.3,0.8,0.5,1.2,0.5c0.5,0,0.9-0.1,1.3-0.3c4.1-2,8.3-4.2,10.5-8.5c1.2-2.5,10.4-9.2,15.9-13.2
	c3.2-2.4,5.1-3.7,5.8-4.4c1.2-1.2,1-2.9,0.7-4.4c-0.6-2.6-0.1-5.4,1.4-7.7c2.2-3.6,4.2-7.3,6-11.1c1.8-3.7,3.7-7.3,5.9-10.8
	C1523.2,497.2,1521.6,473.4,1521.3,470.8z"/>
<path class="st3" d="M1459.2,520.5c-0.6-7.5-1.4-8.3-1.8-8.7c-0.4-0.5-1.1-0.6-1.7-0.3c-1,0.6-1,1.3,1.1,9.4
	c0.3,4.3,0.5,10.7,0.5,19.6c0,1.1-1.1,2-1.7,2.4c-1.2,0.8-2.5,1.2-3.9,1.2c-0.3-1.4-2-4.7-6.2-12.3c-0.9-1.7-1.9-3.4-2.6-4.8
	c-0.2-1.1-0.7-2.2-1.4-3.2c-0.4-0.5-1.2-0.6-1.8-0.2c-0.8,0.6-1,0.7,1,4.5c1.5,6.7,2.3,13.6,2.7,20.5c0,3.8,3.1,9,4,10.3v3.6
	c0,0.4,0.2,0.8,0.6,1c0.2,0.1,0.4,0.2,0.6,0.2c0.2,0,0.4,0,0.5-0.1c0.8-0.4,8.2-4.1,10.2-6.2c2.4-2.4,4.3-11,4.3-16.8
	c0-3.2-2.1-10.9-3.9-17.7C1459.6,522,1459.4,521.2,1459.2,520.5z"/>
<path class="st3" d="M1435.8,518.3c-0.1-0.6-0.8-1-1.4-0.9c-0.6,0.1-0.9,0.6-0.9,1.2v13.9c0,3.8-1,5.8-1.6,6.5c0-0.2,0-0.4,0-0.6
	c0-3.9-4.8-13.8-10.1-24.4l-6-11.9c-0.3-0.5-0.8-0.7-1.3-0.6c-0.5,0.1-0.9,0.6-0.9,1.2c0,0.9,0,22.1,2,32c2,10.2,8.2,12.9,11.1,12.9
	c0.1,0,0.2,0,0.2,0l9.9-2c0.3-0.1,0.6-0.2,0.8-0.5c0.2-0.3,4.3-6.5,2.1-13C1437.8,526.2,1435.9,518.3,1435.8,518.3z"/>
<path class="st4" d="M262.7,971.6c-0.9,1.8-1.3,3.9-1.3,5.9c0,9.2-6.1,13.2-6.3,13.3c-0.4,0.2-0.9,0.3-1.3,0.2
	c-0.4-0.1-0.7-0.4-0.7-0.7c-0.1-4.7-0.8-9.4-2-14c-0.3-1.4-0.8-2.7-1.4-3.9c-0.1,0.4-0.2,0.8-0.2,1.2c0,9.3-2.8,17.5-8.1,23.4
	c-3.2,3.6-3.7,4-4.9,3.6s-1.4-0.5,4.1-9c0.9-1.5,1.9-3,2.7-4.2c2.2-3.6,1.8-3.9,0.3-5.4c-1.8-1.6-3.2-3.5-4.3-5.6
	c-0.7-1.3-1.3-2.4-1.7-3.2c-0.6,0.9-1.4,1.6-2.3,2.2c-3.8,2.5-15.6,16.3-15.7,16.5c-0.4,0.3-0.9,0.5-1.3,0.4
	c-0.5-0.1-0.9-0.4-0.9-0.7s0.2-3,6.1-9.4c4.5-4.8,1.8-7.1,0.7-7.7c-2.1,0.3-10.3,1.7-16.9,4.9c-5.3,2.6-17.4,15-23,21.4
	c-0.4,1.7-1.3,3.1-2.7,4.1c-0.5,0.3-1.1,0.5-1.6,0.4c-0.4,0-0.7-0.3-0.9-0.7c-0.1-0.5,1.1-2.2,3-4.5c0.2-0.8,0.5-1.6,0.7-2.6
	c1.3-5.8,3.6-11.4,6.8-16.5c3.6-5.7,11-12.4,26.5-12h0.5c1.6,0,5.1-0.8,9.1-1.8c6.8-1.6,15.2-3.6,22.3-3.6c3.1-0.1,6.2,0.5,9.1,1.8
	C263.1,968.6,263.9,969.1,262.7,971.6z"/>
<path class="st3" d="M261.9,943.4c-1.5-0.3-2.3,1.4-3.7,4.4c-0.3,0.7-0.7,1.4-1,2.1c-0.7,1.6-1.3,3.3-1.8,5c-1,3.1-2.5,7.8-4,8.5
	c-0.2,0.1-0.4,0.1-0.6,0c-0.8-0.4-1.7-0.7-2.5-0.9c-3.2-0.9-6.3-1.8-4.8-13.8c2-16.3,2-22.3-2.1-30.5c-2.1-4.2-2.1-4.3-3.2-3.9
	s-0.8,1.3-0.5,2.7c0.9,3.1,1.4,6.4,1.5,9.7c0,21.8-0.9,27.8-1.6,28.9c-1.2,0.3-7-1.7-11.8-5c-3.2-2.2-4.1-3.6-4.1-4.1
	c0-3.9,2-21.6,2-21.7c0.1-0.7-0.4-1.2-1.1-1.3c-0.4,0-0.8,0.1-1,0.4c-0.6,0.7-14.4,16.7-8.1,27.2c1.6,2.7,3.4,5.3,5,7.6
	c1.8,2.6,3.9,5.7,4.1,6.8c-0.6,0-1.2-0.1-1.9-0.3c-7.5-1.9-9.3-3.6-13.2-9.4c-1.3-2-2.8-3-4.3-2.9c-1,0.1-1.8,0.8-2.2,1.7
	c-0.9,2.1-0.2,6.6,4.5,12.6c8.3,10.4,18.6,10.4,26.8,10.4c7.9,0,21.5-1.9,22-2c0.3,0,0.5-0.1,0.7-0.3c4.3-4.3,8.3-18.7,8.3-26.7
	C263.5,945.3,263.2,943.7,261.9,943.4z"/>
<path class="st4" d="M136.3,788.1c-1.5,0.2-2.3-0.8-3.7-2.6c-0.3-0.4-0.7-0.8-1-1.2c-0.7-0.9-1.3-1.9-1.8-2.9c-1-1.8-2.5-4.6-4-5
	c-0.2-0.1-0.4-0.1-0.6,0c-0.8,0.2-1.7,0.4-2.5,0.5c-3.2,0.5-6.3,1.1-4.8,8.2c2,9.7,2,13.2-2.1,18.1c-2.1,2.5-2.1,2.5-3.2,2.3
	s-0.8-0.8-0.5-1.6c0.8-1.8,1.3-3.8,1.5-5.7c0-12.9-0.9-16.5-1.6-17.1c-1.2-0.2-7,1-11.8,3c-3.2,1.3-4.1,2.1-4.1,2.4
	c0,2.3,2,12.8,2,12.9c0.1,0.3-0.2,0.6-0.7,0.7c-0.5,0.1-1,0.1-1.4-0.2c-0.6-0.4-14.4-9.9-8.1-16.1c1.6-1.6,3.4-3.1,5-4.5
	c1.8-1.5,3.9-3.4,4.2-4c-0.6,0-1.2,0.1-1.8,0.2c-7.5,1.1-9.3,2.1-13.2,5.6c-1.1,1.1-2.7,1.7-4.3,1.7c-0.8,0-1.6-0.4-2.2-1
	c-0.9-1.2-0.2-3.9,4.5-7.4c8.3-6.2,18.6-6.2,26.8-6.2c8,0,21.5,1.1,22,1.2c0.2,0,0.5,0.1,0.7,0.2c4.3,2.5,8.3,11,8.3,15.8
	C137.9,787,137.6,787.9,136.3,788.1z"/>
<path class="st3" d="M136.8,768.5c-0.9-3-1.4-6.1-1.3-9.2c0-14.2-6.1-20.5-6.3-20.7c-0.5-0.4-1.3-0.4-1.7,0.1
	c-0.2,0.2-0.3,0.5-0.3,0.7c-0.1,7.3-0.8,14.5-2,21.7c-0.3,2.1-0.8,4.1-1.4,6.1c-0.1-0.6-0.2-1.3-0.2-1.9c0-14.5-2.8-27.1-8.1-36.4
	c-3.2-5.5-3.7-6.2-4.9-5.6s-1.4,0.7,4,14c1,2.3,1.9,4.6,2.7,6.6c2.2,5.5,1.8,6.1,0.3,8.4c-1.9,2.7-3.3,5.6-4.3,8.7
	c-0.7,2.1-1.3,3.8-1.7,4.9c-0.6-1.3-1.3-2.4-2.3-3.4c-3.8-3.8-15.6-25.4-15.7-25.6c-0.3-0.5-0.8-0.7-1.3-0.6
	c-0.5,0.1-0.9,0.6-0.9,1.2c0,0.4,0.2,4.6,6.1,14.5c4.4,7.4,1.8,11,0.7,12c-2.2-0.5-10.3-2.7-16.9-7.6c-5.3-4-17.4-23.2-23-33.2
	c-0.6-2.9-1.3-5-2.7-6.4c-0.4-0.5-1-0.7-1.6-0.6c-0.4,0.2-0.8,0.5-0.9,1c-0.1,0.8,1,3.4,3,7c0.2,1.2,0.5,2.5,0.7,4
	c1.2,8.8,3.5,17.4,6.8,25.6c3.5,8.9,11,19.3,26.5,18.7h0.5c1.6,0,5.1,1.3,9.1,2.8c6.8,2.5,15.3,5.7,22.3,5.7
	c3.3,0.2,6.5-0.8,9.1-2.7C137.2,773.2,137.9,772.4,136.8,768.5z"/>
<g class="st1">
	<path class="st2" d="M1657.6,1015.4c0,0.3,0.5,0.6,1.1,0.7c0.5,0.1,1-0.1,1.3-0.5c0.2-0.3,4-8.5,4-14.4c0-3.3,3.4-6.3,7.2-9.8
		c3.2-2.7,6-5.6,8.6-8.9c2.3-3.2,4.5-4.7,6.3-5.3c-0.9,1.2-1.8,2.4-2.5,3.6c-2,3.7-2,8.4-2,14.5c0.2,3.3,0.8,6.6,1.6,9.8
		c-0.2,1.5,0,3,0.4,4.5c1.1,4,2.4,8,4,11.9c0.3,0.4,0.9,0.6,1.4,0.5c0.6-0.1,1-0.4,0.9-0.8c0-0.1-2.5-8.6-4.3-16.2
		c0.5-5.5,4.2-10.6,4.2-10.7c0,0,0-0.1,0.1-0.1c0.4-1,1.4-3.4,2.5-6.3l1-0.7c-0.5,1.4-1.1,2.9-1.8,4.2c-2,3.6,1.5,23,1.9,25.2
		c0.1,0.4,0.6,0.7,1.2,0.6s1.1-0.3,1.1-0.7v-11.9c0-3.7,1.2-8,2.4-11.5l0.3,1.3c0.3,1,0.5,2.1,0.8,3.2c-0.7,2-0.6,3.4,0.4,4
		c0.5,0.3,1.1,0.3,1.6,0.2c1-0.3,1.1-0.8,0.4-4.2c1.1-2.8,2.5-5.5,4-8.1c0.2-0.4,0.5-0.9,0.8-1.4c0.1,1.6,0.2,3.6,0.4,5.9
		s0.4,4.4,0.4,5.9c0,3.6,9.1,19.6,10.9,20.1c0.4,0.1,0.9,0.1,1.3-0.1c0.6-0.3,0.4-0.7,0.1-1.2c-1.5-3-2.8-6-3.9-9.2
		c-0.7-1.7-1.3-3.4-2-5c-0.9-2.2-0.5-5.9,0-9.8c0.5-4.1,1-8.4,0-11.5c-1.2-3.4-1.8-6.9-2-10.5c0-0.1,0-0.1,0-0.2
		c-0.9-2.2-3.1-3.7-5.6-3.8h-0.6c-0.2,0-0.5,0-0.7,0c0.4-0.9,0.7-1.5,0.8-1.7c4.7-5.6,3.3-6.5,2.9-6.7c-0.4-0.2-0.8-0.3-1.2-0.3
		c-0.4,0-0.9,0.1-1.3,0.2c-4.1,1.2-8.3,2.5-10.5,5.1c-1.2,1.5-10.4,5.5-15.9,7.9c-3.2,1.4-5.1,2.2-5.8,2.6c-1.2,0.7-1,1.7-0.7,2.7
		c0.3,1.2,0.7,2.7-1.4,4.6c-2.1,2.1-4.2,4.3-6,6.6c-1.8,2.3-3.8,4.4-5.9,6.5C1655.7,999.7,1657.4,1013.8,1657.6,1015.4z"/>
	<path class="st2" d="M1719.8,985.8c0.6,4.5,1.4,5,1.8,5.2c0.5,0.3,1.1,0.4,1.7,0.2c1-0.4,1-0.8-1.1-5.6c-0.4-3.9-0.6-7.8-0.5-11.7
		c0-0.7,1.1-1.2,1.7-1.4c1.2-0.5,2.6-0.7,3.9-0.7c0.3,0.8,2,2.8,6.2,7.4c0.9,1,1.9,2,2.6,2.9c0.3,0.7,0.8,1.4,1.4,1.9
		c0.5,0.3,1.2,0.4,1.8,0.2c0.8-0.3,1-0.4-1-2.7c-1.4-3.9-2.3-8-2.7-12.2c0-2.3-3.1-5.3-4-6.1v-2.2c0-0.2-0.2-0.5-0.6-0.6
		c-0.2-0.1-0.4-0.1-0.6-0.1c-0.2,0-0.4,0-0.5,0.1c-0.8,0.2-8.2,2.5-10.2,3.7c-2.4,1.5-4.3,6.6-4.3,10c0,1.9,2.1,6.5,3.9,10.6
		L1719.8,985.8z"/>
	<path class="st2" d="M1743.1,987.1c0.3,0.4,0.8,0.6,1.3,0.5c0.6,0,1-0.3,1-0.7v-8.3c-0.1-1.5,0.4-2.9,1.6-3.9c0,0.1,0,0.2,0,0.3
		c0,2.3,4.8,8.2,10.1,14.5l6,7.1c0.4,0.3,0.9,0.5,1.3,0.4c0.5-0.1,0.9-0.4,0.9-0.7c0-0.5,0-13.2-2-19.1s-8.2-7.7-11.1-7.7h-0.2
		l-9.9,1.2c-0.3,0-0.5,0.1-0.8,0.3c-0.2,0.2-4.3,3.9-2.1,7.7C1741.1,982.3,1743.1,987,1743.1,987.1z"/>
</g>
<path class="st3" d="M1668.3,901.8c0-0.7,0.6-1.2,1.2-1.1c0.5,0,1,0.4,1.1,0.9c0.2,0.6,4,14.2,4,24.2c0,5.5,3.4,10.5,7.2,16.4
	c3.3,4.7,6.2,9.7,8.6,15c2.3,5.4,4.5,7.8,6.2,8.9c-1.3-2.7-2.2-5.1-2.5-6.1c-2-6.2-2-14.1-2-24.2c0.2-5.5,0.8-11,1.6-16.5
	c-0.1-2.5,0-5.1,0.4-7.5c2-11.8,4-19.9,4-20c0.1-0.6,0.8-1.1,1.4-0.9c0.6,0.1,1.1,0.8,0.9,1.4l0,0c0,0.2-2.6,14.5-4.3,27.1
	c0.5,6.2,1.9,12.2,4.2,18l0.1,0.2c0.4,1.8,1.4,5.8,2.5,10.5c0.3,0.4,0.6,0.8,1,1.2c-0.7-3.1-1.3-5.7-1.8-7.1c-2-6,1.5-38.6,1.9-42.2
	c0.1-0.6,0.6-1.1,1.2-1.1c0.6,0,1.1,0.6,1.1,1.2v19.9c0,6.3,1.2,13.4,2.4,19.3c0.1-0.7,0.2-1.4,0.3-2.2c0.2-1.7,0.5-3.6,0.8-5.3
	c-0.7-3.4-0.6-5.7,0.4-6.8c0.4-0.4,1.1-0.6,1.6-0.3c1,0.5,1.1,1.3,0.4,7c1.1,4.6,2.4,9.2,4,13.7c0.2,0.7,0.5,1.5,0.8,2.3
	c0.1-2.8,0.2-6,0.4-10s0.4-7.4,0.4-9.9c0-6.1,9.1-32.9,10.9-33.7c0.4-0.2,0.9-0.1,1.3,0.2c0.6,0.5,0.4,1.2,0.1,2
	c-1.3,3.9-2.7,9.7-3.9,15.4c-0.7,2.9-1.3,5.8-2,8.4c-0.9,3.7-0.5,9.9,0,16.5c0.5,6.9,1,14,0,19.2c-1.2,5.8-1.9,11.7-2,17.7
	c0,0.1,0,0.2,0,0.3c-1.3,5.1-4,6.2-5.6,6.3h-0.6c-0.2,0-0.5,0-0.7-0.1c0.4,1.5,0.7,2.6,0.8,2.9c4.7,9.4,3.3,10.8,2.9,11.3
	c-0.3,0.3-0.8,0.5-1.2,0.5c-0.5,0-0.9-0.1-1.3-0.3c-4.1-2-8.3-4.2-10.5-8.5c-1.2-2.5-10.4-9.2-15.9-13.2c-3.2-2.4-5.1-3.7-5.8-4.4
	c-1.2-1.2-1-2.9-0.7-4.4c0.6-2.6,0.1-5.4-1.4-7.7c-2.2-3.6-4.2-7.3-6-11.1c-1.8-3.7-3.7-7.3-5.9-10.8
	C1666.4,928.2,1668.2,904.4,1668.3,901.8z"/>
<path class="st3" d="M1730.5,951.5c0.6-7.5,1.4-8.3,1.8-8.7c0.4-0.5,1.1-0.6,1.7-0.3c1,0.6,1,1.3-1.1,9.4
	c-0.3,4.3-0.5,10.7-0.5,19.6c0,1.1,1.1,2,1.7,2.4c1.2,0.8,2.5,1.2,3.9,1.2c0.3-1.4,2-4.7,6.2-12.3c0.9-1.7,1.9-3.4,2.6-4.8
	c0.2-1.1,0.7-2.2,1.4-3.2c0.4-0.5,1.2-0.6,1.8-0.2c0.8,0.6,1,0.7-1,4.5c-1.4,6.7-2.3,13.6-2.7,20.5c0,3.8-3.1,9-4,10.3v3.6
	c0,0.7-0.5,1.2-1.2,1.2c-0.2,0-0.4,0-0.5-0.1c-0.8-0.4-8.2-4.1-10.2-6.2c-2.4-2.4-4.3-11-4.3-16.8c0-3.2,2.1-10.9,3.9-17.7
	L1730.5,951.5z"/>
<path class="st3" d="M1753.9,949.3c0.1-0.6,0.8-1,1.4-0.9c0.6,0.1,0.9,0.6,0.9,1.2v13.9c0,3.8,1,5.8,1.6,6.5c0-0.2,0-0.4,0-0.6
	c0-3.9,4.8-13.8,10.1-24.4l6-11.9c0.3-0.5,0.8-0.7,1.3-0.6c0.5,0.1,0.9,0.6,0.9,1.2c0,0.9,0,22.1-2,32c-2,10.2-8.2,12.9-11.1,12.9
	c-0.1,0-0.2,0-0.2,0l-9.9-2c-0.3-0.1-0.6-0.2-0.8-0.5c-0.2-0.3-4.3-6.5-2.1-13C1751.9,957.2,1753.8,949.3,1753.9,949.3z"/>
<g class="st1">
	<path class="st2" d="M1719.6,130.4c0,0.4,0.5,0.6,1.1,0.7c0.5,0.1,1-0.1,1.3-0.5c0.2-0.4,4-8.5,4-14.4c0-3.3,3.4-6.3,7.2-9.8
		c3.2-2.7,6-5.6,8.6-8.9c2.3-3.2,4.5-4.7,6.3-5.3c-0.9,1.2-1.8,2.4-2.5,3.6c-2,3.7-2,8.4-2,14.4c0.2,3.3,0.8,6.6,1.6,9.8
		c-0.2,1.5,0,3,0.4,4.5c1.1,4,2.4,8,4,11.9c0.3,0.4,0.9,0.6,1.4,0.5c0.6-0.1,1-0.4,0.9-0.8c0-0.1-2.5-8.6-4.3-16.2
		c0.5-5.5,4.2-10.6,4.2-10.7c0,0,0-0.1,0.1-0.1c0.4-1,1.4-3.4,2.5-6.3l1-0.7c-0.5,1.4-1.1,2.9-1.8,4.2c-2,3.6,1.5,23,1.9,25.2
		c0.1,0.4,0.6,0.7,1.2,0.6s1.1-0.3,1.1-0.7v-11.9c0-3.7,1.2-8,2.4-11.5l0.3,1.3c0.3,1,0.5,2.1,0.8,3.2c-0.7,2-0.6,3.4,0.4,4
		c0.5,0.3,1.1,0.3,1.6,0.2c1-0.3,1.1-0.8,0.4-4.2c1.1-2.8,2.5-5.5,4-8.1c0.2-0.4,0.5-0.9,0.8-1.4c0.1,1.6,0.2,3.6,0.4,5.9
		s0.4,4.4,0.4,5.9c0,3.6,9.1,19.6,10.9,20.1c0.4,0.1,0.9,0.1,1.3-0.1c0.6-0.3,0.4-0.7,0.1-1.2c-1.5-3-2.8-6-3.9-9.2
		c-0.7-1.7-1.3-3.4-2-5c-0.9-2.2-0.5-5.9,0-9.8c0.5-4.1,1-8.4,0-11.5c-1.2-3.4-1.8-6.9-2-10.5c0-0.1,0-0.1,0-0.2
		c-0.9-2.2-3.1-3.7-5.6-3.8h-0.6c-0.2,0-0.5,0-0.7,0c0.4-0.9,0.7-1.5,0.8-1.7c4.7-5.6,3.3-6.5,2.9-6.7c-0.4-0.2-0.8-0.3-1.2-0.3
		c-0.4,0-0.9,0.1-1.3,0.2c-4.1,1.2-8.3,2.5-10.5,5.1c-1.2,1.5-10.4,5.5-15.9,7.9c-3.2,1.4-5.1,2.2-5.8,2.6c-1.2,0.7-1,1.7-0.7,2.7
		c0.3,1.2,0.7,2.7-1.4,4.6c-2.1,2.1-4.2,4.3-6,6.6c-1.8,2.3-3.8,4.4-5.9,6.4C1717.7,114.7,1719.4,128.8,1719.6,130.4z"/>
	<path class="st2" d="M1781.8,100.8c0.6,4.4,1.4,5,1.8,5.2c0.5,0.3,1.1,0.4,1.7,0.2c1-0.4,1-0.8-1.1-5.6c-0.4-3.9-0.6-7.8-0.5-11.7
		c0-0.7,1.1-1.2,1.7-1.4c1.2-0.5,2.6-0.7,3.9-0.7c0.3,0.8,2,2.8,6.2,7.4c0.9,1,1.9,2,2.6,2.9c0.3,0.7,0.8,1.4,1.4,1.9
		c0.5,0.3,1.2,0.4,1.8,0.2c0.8-0.3,1-0.4-1-2.7c-1.4-3.9-2.3-8-2.7-12.2c0-2.3-3.1-5.3-4-6.1v-2.2c0-0.2-0.2-0.5-0.6-0.6
		c-0.2-0.1-0.4-0.1-0.6-0.1c-0.2,0-0.4,0-0.5,0.1c-0.8,0.2-8.2,2.4-10.2,3.7c-2.4,1.4-4.3,6.6-4.3,10c0,1.9,2.1,6.5,3.9,10.6
		L1781.8,100.8z"/>
	<path class="st2" d="M1805.1,102.1c0.3,0.4,0.8,0.6,1.3,0.5c0.6,0,1-0.3,1-0.7v-8.3c-0.1-1.5,0.4-2.9,1.6-3.9c0,0.1,0,0.2,0,0.3
		c0,2.3,4.8,8.2,10.1,14.5l6,7.1c0.4,0.3,0.9,0.5,1.3,0.4c0.5-0.1,0.9-0.4,0.9-0.7c0-0.5,0-13.2-2-19.1c-2-6.1-8.2-7.7-11.1-7.7
		h-0.2l-9.9,1.2c-0.3,0-0.5,0.1-0.8,0.3c-0.2,0.2-4.3,3.9-2.1,7.7C1803.1,97.3,1805.1,102,1805.1,102.1z"/>
</g>
<path class="st3" d="M1730.3,16.8c0-0.7,0.6-1.2,1.2-1.1c0.5,0,1,0.4,1.1,0.9c0.2,0.6,4,14.2,4,24.2c0,5.5,3.4,10.5,7.2,16.4
	c3.3,4.7,6.2,9.7,8.6,15c2.3,5.4,4.5,7.8,6.2,8.9c-1.3-2.7-2.2-5.1-2.5-6.1c-2-6.2-2-14.1-2-24.2c0.2-5.5,0.8-11,1.6-16.5
	c-0.1-2.5,0-5.1,0.4-7.5c2-11.8,4-19.9,4-20c0.1-0.6,0.8-1.1,1.4-0.9c0.6,0.1,1.1,0.8,0.9,1.4l0,0c0,0.2-2.6,14.5-4.3,27.1
	c0.5,6.2,1.9,12.2,4.2,18l0.1,0.2c0.4,1.8,1.4,5.8,2.5,10.5c0.3,0.4,0.6,0.8,1,1.2c-0.7-3.1-1.3-5.7-1.8-7.1c-2-6,1.5-38.6,1.9-42.2
	c0.1-0.6,0.6-1.1,1.2-1.1c0.6,0,1.1,0.6,1.1,1.2v19.9c0,6.3,1.2,13.4,2.4,19.3c0.1-0.7,0.2-1.4,0.3-2.2c0.2-1.7,0.5-3.6,0.8-5.3
	c-0.7-3.4-0.6-5.7,0.4-6.8c0.4-0.4,1.1-0.6,1.6-0.3c1,0.5,1.1,1.3,0.4,7c1.1,4.6,2.4,9.2,4,13.7c0.2,0.7,0.5,1.5,0.8,2.3
	c0.1-2.8,0.2-6,0.4-10s0.4-7.4,0.4-9.9c0-6.1,9.1-32.9,10.9-33.7c0.4-0.2,0.9-0.1,1.3,0.2c0.6,0.6,0.4,1.2,0.1,2
	c-1.3,3.9-2.7,9.7-3.9,15.4c-0.7,2.9-1.3,5.7-2,8.4c-0.9,3.7-0.5,9.9,0,16.5c0.5,6.9,1,14,0,19.2c-1.2,5.8-1.9,11.7-2,17.7
	c0,0.1,0,0.2,0,0.3c-1.3,5.1-4,6.2-5.6,6.3h-0.6c-0.2,0-0.5,0-0.7-0.1c0.4,1.5,0.7,2.6,0.8,2.9c4.7,9.4,3.3,10.8,2.9,11.3
	c-0.3,0.3-0.8,0.5-1.2,0.5c-0.5,0-0.9-0.1-1.3-0.3c-4.1-2-8.3-4.2-10.5-8.5c-1.2-2.5-10.4-9.2-15.9-13.2c-3.2-2.4-5.1-3.7-5.8-4.4
	c-1.2-1.2-1-2.9-0.7-4.4c0.6-2.6,0.1-5.4-1.4-7.7c-2.2-3.6-4.2-7.3-6-11.1c-1.8-3.7-3.7-7.3-5.9-10.8
	C1728.4,43.2,1730.2,19.4,1730.3,16.8z"/>
<path class="st3" d="M1792.5,66.5c0.6-7.5,1.4-8.3,1.8-8.7c0.4-0.5,1.1-0.6,1.7-0.3c1,0.6,1,1.3-1.1,9.4c-0.3,4.3-0.5,10.7-0.5,19.6
	c0,1.1,1.1,2,1.7,2.4c1.2,0.8,2.5,1.2,3.9,1.2c0.3-1.4,2-4.7,6.2-12.3c0.9-1.7,1.9-3.4,2.6-4.8c0.2-1.1,0.7-2.2,1.4-3.2
	c0.4-0.5,1.2-0.6,1.8-0.2c0.8,0.6,1,0.7-1,4.5c-1.4,6.7-2.3,13.6-2.7,20.4c0,3.8-3.1,9-4,10.3v3.6c0,0.7-0.5,1.2-1.2,1.2
	c-0.2,0-0.4,0-0.5-0.1c-0.8-0.4-8.2-4.1-10.2-6.2c-2.4-2.4-4.3-11-4.3-16.8c0-3.2,2.1-10.9,3.9-17.7L1792.5,66.5z"/>
<path class="st3" d="M1815.9,64.3c0.1-0.6,0.8-1,1.4-0.9c0.6,0.1,0.9,0.6,0.9,1.2v13.9c0,3.8,1,5.8,1.6,6.5c0-0.2,0-0.4,0-0.6
	c0-3.9,4.8-13.8,10.1-24.4l6-11.9c0.3-0.5,0.8-0.7,1.3-0.6c0.5,0.1,0.9,0.6,0.9,1.2c0,0.9,0,22.1-2,32c-2,10.2-8.2,12.9-11.1,12.9
	c-0.1,0-0.2,0-0.2,0l-9.9-2c-0.3-0.1-0.6-0.2-0.8-0.5c-0.2-0.3-4.3-6.5-2.1-13C1813.9,72.2,1815.8,64.3,1815.9,64.3z"/>
<path class="st4" d="M1627.4,698.1c1.5,0.2,2.3-0.8,3.7-2.6c0.3-0.4,0.7-0.8,1-1.2c0.7-0.9,1.3-1.9,1.8-2.9c1-1.8,2.5-4.6,4-5
	c0.2-0.1,0.4-0.1,0.6,0c0.8,0.2,1.7,0.4,2.5,0.5c3.2,0.5,6.3,1.1,4.8,8.2c-2,9.7-2,13.2,2.1,18.1c2.1,2.5,2.2,2.5,3.2,2.3
	s0.8-0.8,0.5-1.6c-0.9-1.8-1.3-3.7-1.5-5.7c0-12.9,0.9-16.5,1.6-17.1c1.2-0.2,7,1,11.8,3c3.2,1.3,4.1,2.1,4.1,2.4
	c0,2.3-2,12.8-2,12.9c-0.1,0.3,0.2,0.6,0.7,0.7c0.5,0.1,1,0.1,1.4-0.2c0.6-0.4,14.4-9.9,8.1-16.1c-1.6-1.6-3.4-3.1-5-4.5
	c-1.8-1.5-4-3.4-4.2-4c0.6,0,1.2,0.1,1.8,0.2c7.5,1.1,9.3,2.1,13.2,5.6c1.1,1.1,2.7,1.7,4.3,1.7c0.8,0,1.6-0.4,2.2-1
	c0.9-1.2,0.2-3.9-4.5-7.4c-8.3-6.2-18.6-6.2-26.8-6.2c-7.9,0-21.5,1.1-22,1.2c-0.2,0-0.5,0.1-0.7,0.2c-4.3,2.5-8.3,11-8.3,15.8
	C1625.8,697,1626.1,697.9,1627.4,698.1z"/>
<path class="st3" d="M1627,678.5c0.9-3,1.4-6.1,1.3-9.2c0-14.2,6.1-20.5,6.3-20.7c0.5-0.4,1.2-0.4,1.7,0.1c0.2,0.2,0.3,0.5,0.3,0.8
	c0.1,7.3,0.8,14.5,2,21.7c0.3,2.1,0.8,4.1,1.4,6.1c0.1-0.6,0.2-1.3,0.2-1.9c0-14.5,2.8-27.1,8.1-36.4c3.2-5.5,3.7-6.2,4.9-5.6
	s1.4,0.7-4,14c-1,2.3-1.9,4.6-2.7,6.6c-2.2,5.5-1.8,6.1-0.3,8.4c1.9,2.7,3.3,5.6,4.3,8.7c0.7,2.1,1.3,3.8,1.7,4.9
	c0.6-1.3,1.3-2.4,2.3-3.4c3.8-3.8,15.6-25.4,15.7-25.6c0.3-0.5,0.8-0.7,1.3-0.6c0.5,0.1,0.9,0.6,0.9,1.2c0,0.4-0.2,4.6-6.1,14.5
	c-4.4,7.4-1.8,11-0.7,12c2.2-0.5,10.3-2.7,16.9-7.6c5.3-4,17.4-23.2,23-33.2c0.6-2.9,1.3-5,2.7-6.4c0.4-0.5,1-0.7,1.6-0.6
	c0.4,0.2,0.8,0.5,0.9,1c0.1,0.8-1,3.4-3,7c-0.2,1.2-0.5,2.5-0.7,4c-1.2,8.8-3.5,17.4-6.8,25.6c-3.6,8.9-11,19.3-26.5,18.7h-0.5
	c-1.6,0-5.1,1.3-9.1,2.8c-6.8,2.5-15.2,5.7-22.3,5.7c-3.3,0.2-6.5-0.8-9.1-2.7C1626.5,683.2,1625.8,682.4,1627,678.5z"/>
<path class="st4" d="M156.8,96.7c-0.8,1.7-1.2,3.6-1.2,5.4c0,8.4-5.6,12.1-5.8,12.2c-0.4,0.2-0.8,0.3-1.2,0.2
	c-0.4-0.1-0.7-0.4-0.7-0.7c-0.1-4.3-0.7-8.6-1.8-12.8c-0.3-1.3-0.7-2.5-1.3-3.6c-0.1,0.4-0.2,0.7-0.2,1.1c0,8.6-2.6,16-7.4,21.5
	c-2.9,3.3-3.4,3.6-4.5,3.3c-1.1-0.3-1.3-0.4,3.7-8.2c0.9-1.4,1.7-2.7,2.5-3.9c2-3.3,1.7-3.6,0.2-5c-1.6-1.5-2.9-3.2-3.9-5.1
	c-0.6-1.2-1.2-2.2-1.5-2.9c-0.6,0.8-1.3,1.5-2.1,2c-3.5,2.2-14.3,15-14.4,15.1c-0.3,0.3-0.8,0.4-1.2,0.3c-0.5-0.1-0.8-0.4-0.8-0.7
	s0.2-2.7,5.6-8.6c4.1-4.4,1.6-6.5,0.7-7.1c-5.3,0.8-10.5,2.3-15.5,4.5c-4.9,2.3-16,13.7-21.1,19.6c-0.3,1.5-1.2,2.9-2.5,3.8
	c-0.4,0.3-1,0.4-1.5,0.3c-0.3,0-0.6-0.3-0.8-0.6c-0.1-0.5,1-2,2.8-4.2c0.2-0.7,0.4-1.5,0.6-2.4c1.2-5.4,3.3-10.5,6.2-15.1
	c3.2-5.2,10.1-11.4,24.3-11h0.4c2.8-0.3,5.6-0.9,8.3-1.6c6.2-1.5,14-3.3,20.5-3.3c2.9-0.1,5.7,0.5,8.3,1.7
	C157.2,93.9,157.8,94.3,156.8,96.7z"/>
<path class="st3" d="M156,70.8c-1.4-0.3-2.1,1.2-3.4,4.1c-0.3,0.6-0.6,1.3-0.9,1.9c-0.7,1.5-1.2,3-1.7,4.6c-0.9,2.9-2.3,7.2-3.7,7.8
	c-0.2,0.1-0.4,0.1-0.5,0c-0.7-0.3-1.5-0.6-2.3-0.8c-3-0.8-5.8-1.7-4.4-12.6c1.9-14.9,1.9-20.4-1.9-28c-1.9-3.8-2-3.9-3-3.6
	s-0.8,1.2-0.4,2.5c0.8,2.9,1.2,5.9,1.3,8.8c0,20-0.8,25.5-1.5,26.5c-1.1,0.3-6.4-1.6-10.8-4.6c-3-2-3.7-3.3-3.7-3.7
	c0-3.5,1.8-19.8,1.8-19.9c0.1-0.6-0.4-1.1-1-1.2c-0.4,0-0.7,0.1-0.9,0.4c-0.5,0.6-13.2,15.3-7.4,25c1.5,2.5,3.1,4.9,4.6,6.9
	c1.6,2.3,3.6,5.2,3.8,6.3c-0.6,0-1.1-0.1-1.7-0.2c-6.9-1.7-8.5-3.3-12.1-8.7c-1.2-1.8-2.6-2.8-3.9-2.7c-0.9,0.1-1.7,0.7-2,1.6
	c-0.8,1.9-0.2,6.1,4.1,11.5c7.6,9.5,17,9.5,24.6,9.5c7.3,0,19.7-1.8,20.2-1.8c0.2,0,0.5-0.1,0.6-0.3c3.9-3.9,7.6-17.1,7.6-24.5
	C157.5,72.5,157.2,71,156,70.8z"/>
<path class="st5" d="M1270.3,365.3c0,0,17.5,8.8,22.7,5.2s7-28,7-47.2s-3.5-33.2,5.2-33.2s31.5,1.8,36.7-14s5.2-56,3.5-63
	s-5.2-8.7-12.2-7s-8.8,3.5-8.8,21s3.5,28-1.8,33.2s-14,12.2-17.5,5.2s-5.2-56-5.2-82.2s-1.8-47.2-5.2-50.7s-17.5-1.8-15.7,8.7
	s0,64.7-1.8,70s-8.7,5.2-8.7-7s1.8-28-1.8-31.5s-12.2,0-12.2,12.2s-1.8,35,3.5,43.7s13.1,9.6,14.9,7.9s8.8,31.5,1.8,35
	s-17.5,7-22.7-8.8s1.8-57.7-5.2-61.2s-17.5-3.5-19.2,15.7s-1.8,52.5,7,64.7s26.2,14,29.7,15.7s5.2,8.8,5.2,19.2
	S1267.7,359.2,1270.3,365.3z"/>
<path class="st4" d="M1269.9,364.8c0,0,22.8-2.2,24.8-0.8s-16,9.6-31.3,16.1s-29.7,11-21.7,11.3s29.9,0.7,22.1,6.1
	s-39.9,18.9-47,21.2s-11.7,2.7-16.7,1.9s-5.1-1.5,8.8-7.4s25.5-9.2,24.9-11.2s-2.9-4.7-11.7-2.5s-49.4,18.5-70.3,27.3
	s-39.2,15.7-45.2,16.8s-17.2-0.1-7.3-3.6s51.6-21.6,54.2-23.5s-3.7-2.1-13.5,2s-20.7,9.4-26.7,10.5s-11.1-0.5-1.3-4.6
	s26.3-11.8,38-14.5s19.6-2.7,19.7-2s33-10.2,29.5-11.6s-10.3-3-27.6,2s-44.4,19.4-53.6,20.3s-18.6,0.5-4.9-6s40.2-17.6,57.9-21.4
	s34.9-3.6,39.5-4.1s11.7-2.7,20.1-6.2S1262.7,366.8,1269.9,364.8z"/>
<path class="st6" d="M1328.1,274.3c0,0,7,1.8,8.8-26.2s-1.8-36.7-5.2-36.7s-6.1,9.6-7.9,25.4c-1.2,10.4-1.8,21-1.8,31.5
	C1321.9,275.2,1323.7,273.5,1328.1,274.3z"/>
<path class="st6" d="M1266,226.2c0,0-3.5-17.5-1.8-28s1.8-15.7-1.8-17.5s-5.2-1.8-7,8.8s-3.5,33.2,0,38.5S1269.5,236.7,1266,226.2z"
	/>
<path class="st6" d="M1290.4,138.8c0,0,1.8,138.2,3.6,145.2s3.5,5.2,0,14s-1.8,36.7-3.5,47.2s0,22.7-3.5,22.7s-17.5,1.8-15.7-33.2
	s-5.2-33.2,1.8-38.5s1.8-15.7,1.8-15.7s3.5-40.2,1.8-42s10.5-10.5,7-12.2s-8.7,0-7-17.5s3.5-66.5,7-68.2
	C1285.7,139.5,1288,138.9,1290.4,138.8z"/>
<path class="st6" d="M1246.7,278.7c0,0-8.8-17.5-7-33.2s3.5-38.5,1.8-38.5s-10.5-1.8-12.2,8.8s0,66.5,3.5,68.2
	S1252,296.2,1246.7,278.7z"/>
<path class="st5" d="M173.1,513.5c0,0,14.1,7.1,18.4,4.2s5.6-22.6,5.6-38.1s-2.8-26.8,4.2-26.8s25.4,1.4,29.6-11.3
	s4.2-45.2,2.8-50.8s-4.2-7-9.9-5.6s-7.1,2.8-7.1,16.9s2.8,22.6-1.4,26.8s-11.3,9.9-14.1,4.2s-4.2-45.2-4.2-66.3s-1.4-38.1-4.2-40.9
	s-14.1-1.4-12.7,7.1s0,52.2-1.4,56.5s-7.1,4.2-7.1-5.6s1.4-22.6-1.4-25.4s-9.9,0-9.9,9.9s-1.4,28.2,2.8,35.3s10.6,7.8,12,6.4
	s7.1,25.4,1.4,28.2s-14.1,5.6-18.4-7s1.4-46.6-4.2-49.4s-14.1-2.8-15.5,12.7s-1.4,42.3,5.6,52.2s21.2,11.3,24,12.7s4.2,7.1,4.2,15.5
	S171,508.5,173.1,513.5z"/>
<path class="st4" d="M172.8,513.1c0,0,18.4-1.8,20-0.7s-12.9,7.8-25.3,13s-23.9,8.8-17.5,9.1s24.1,0.5,17.8,5s-32.2,15.3-37.9,17.1
	s-9.5,2.2-13.4,1.5s-4.1-1.2,7.1-6s20.6-7.4,20.1-9s-2.3-3.8-9.4-2s-39.8,14.9-56.7,22s-31.7,12.7-36.5,13.5s-13.9-0.1-5.9-2.9
	s41.6-17.5,43.7-18.9s-3-1.7-10.9,1.6s-16.7,7.6-21.5,8.4s-8.9-0.4-1.1-3.7s21.2-9.5,30.7-11.7s15.8-2.2,15.9-1.6s26.6-8.2,23.8-9.4
	s-8.3-2.5-22.2,1.6s-35.8,15.6-43.2,16.3s-15,0.4-3.9-4.9s32.5-14.2,46.7-17.2s28.2-2.9,31.8-3.3s9.5-2.2,16.2-5
	S166.9,514.7,172.8,513.1z"/>
<path class="st6" d="M219.7,440.1c0,0,5.6,1.4,7-21.2s-1.4-29.6-4.2-29.6s-4.9,7.8-6.4,20.5c-1,8.4-1.5,16.9-1.4,25.4
	C214.8,440.8,216.2,439.4,219.7,440.1z"/>
<path class="st6" d="M169.6,401.3c0,0-2.8-14.1-1.4-22.6s1.4-12.7-1.4-14.1s-4.2-1.4-5.6,7.1s-2.8,26.8,0,31
	S172.4,409.8,169.6,401.3z"/>
<path class="st6" d="M189.4,330.7c0,0,1.4,111.5,2.8,117.1s2.8,4.2,0,11.3s-1.4,29.6-2.8,38.1s0,18.3-2.8,18.3s-14.1,1.4-12.7-26.8
	s-4.2-26.8,1.4-31s1.4-12.7,1.4-12.7s2.8-32.5,1.4-33.9s8.5-8.5,5.6-9.9s-7.1,0-5.6-14.1s2.8-53.6,5.6-55
	C185.5,331.3,187.4,330.8,189.4,330.7z"/>
<path class="st6" d="M154.1,443.6c0,0-7.1-14.1-5.6-26.8s2.8-31,1.4-31s-8.5-1.4-9.9,7.1s0,53.6,2.8,55S158.3,457.7,154.1,443.6z"/>
</svg>
