<svg xmlns="http://www.w3.org/2000/svg" viewBox="0 0 1214.45 577"><defs><style>.cls-1{fill:#ef5c79;}.cls-2{fill:#fbc5cf;}.cls-3{fill:#f0a1c8;}</style></defs><title>資產 6</title><g id="圖層_2" data-name="圖層 2"><g id="圖層_1-2" data-name="圖層 1"><path class="cls-1" d="M1148.84,241.64C1057.23,174.73,894.53,139.84,757,131.52c39.23-40.15,17.32-78.66,7.73-92.76C754.24,23.36,701.89-.25,680,1.81c-19.69,1.84-56.28,106.21-63.37,127-20.43.3-41.18.85-62.06,1.66-5.41-16-43.64-126.74-63.93-128.64-21.88-2.06-74.24,21.55-84.71,36.95-10.18,15-34.29,57.48,15.73,100.24-46.15,4.14-90.8,9.4-131.58,15.73C149,176.63,16.31,259.43,11.21,299.81s-68,149.88,170.9,230c0,0,68.87,28.74,165.8,38.32s462.54,17.8,588.37-11S1145.44,501,1182.86,445.58,1240.68,308.71,1148.84,241.64Z"/><path class="cls-2" d="M1122.79,236.47C1035,170.53,879.1,136.15,747.31,128c37.59-39.56,16.59-77.51,7.4-91.41-10-15.17-60.2-38.44-81.16-36.42C654.67,2,619.62,104.79,612.82,125.27c-19.58.28-39.45.83-59.46,1.63C548.17,111.15,511.54,2,492.09.12c-21-2-71.13,21.25-81.17,36.42C401.17,51.3,378.07,93.18,426,135.33c-44.21,4.07-87,9.26-126.07,15.49C164.67,172.4,37.57,254,32.69,293.8S-32.49,441.5,196.45,520.4c0,0,66,28.33,158.87,37.77s443.21,17.54,563.79-10.79,200.42-55.3,236.27-109.93S1210.78,302.57,1122.79,236.47Z"/><ellipse class="cls-3" cx="610.32" cy="346.67" rx="443.63" ry="178.91"/></g></g></svg>