<svg xmlns="http://www.w3.org/2000/svg" viewBox="0 0 459 642"><defs><style>.cls-1{fill:none;}.cls-2{fill:#2c3f5b;}.cls-3{fill:#18273e;}.cls-4{fill:#fff;}</style></defs><title>資產 19</title><g id="圖層_2" data-name="圖層 2"><g id="圖層_1-2" data-name="圖層 1"><rect class="cls-1" width="459" height="642"/><path class="cls-2" d="M143.86746,420.27876s14.46782,14.74168,34.82994,19.65557,97.16661,9.1258,123.60165-5.61588,43.93931-28.78137,51.79838-57.21176,12.14583-70.19847-7.1446-104.59573-53.58453-52.29786-82.52018-56.50977-68.231.702-97.88108,11.93374-57.51406,53.70183-58.58575,74.41038S93.67662,379.21265,143.86746,420.27876Z"/><path class="cls-3" d="M160.2836,260.52651S100.203,407.33487,81.5046,380.86481s20.09775-107.5727,35.19707-120.3383S192.91239,189.95159,160.2836,260.52651Z"/><path class="cls-3" d="M305.74722,260.52651s60.08056,146.80836,78.779,120.3383-20.09775-107.5727-35.19707-120.3383S273.11843,189.95159,305.74722,260.52651Z"/><path class="cls-2" d="M176.52093,431.322s-25.23709,44.16491-31.54637,56.25769-18.66493,33.91234-21.55668,52.84016-2.10309,22.87111,0,25.5,8.41236,8.14948,12.35566,7.88659,7.36082-4.99484,8.67525-8.14948,2.62886-6.835,2.62886-6.835,3.68041,2.19072,4.90721,2.19072,4.732.35052,5.7835-2.80412,0-5.25773-1.75258-6.30927a13.1147,13.1147,0,0,1-3.549-2.67268c-.59149-.78866.32861-2.56314,1.31443-4.33763S160.682,533.9134,160.682,533.9134s1.05155.06572,1.31443,1.8402,5.76159,14.3054,7.25128,16.32086,2.62886,2.10309,2.62886,3.9433-2.89175,49.51027-2.366,54.15459-.96392,3.32989-3.067,4.29381a31.55944,31.55944,0,0,0-14.19586,15.5103c-4.29381,9.90205,9.63917,11.04123,10.69071,11.39174s30.84534,1.2268,34.87626,0,13.58246-4.46907,14.89689-12.1804,4.81958-49.20357,4.81958-49.20357a1.9578,1.9578,0,0,1,2.03737-2.16881c2.16881.06572,26.61725-.26289,26.61725-.26289a1.89985,1.89985,0,0,1,1.44588,1.643c.06572,1.31443,3.72422,47.80151,4.07474,49.37882a17.791,17.791,0,0,0,12.00514,11.567c8.85051,2.80412,38.55667,1.2268,38.55667,1.2268s9.28865-2.54124,9.37628-7.44845-.46005-6.94458-3.3518-10.49355-13.01288-10.18685-13.01288-10.18685a10.139,10.139,0,0,1-.39433-4.20618c.13144-3.08892-1.90593-55.0747-1.90593-55.0747s2.89175-4.60051,4.5567-7.93041,4.90721-10.866,4.99484-12.7938,1.35825-1.62113,1.68685-.76675,8.14948,12.68427,8.87242,13.47293,1.90593,1.57732,1.05155,2.4317-5.71778,4.2719-5.91494,6.17783c0,0-.9201,5.32345,4.2719,5.45489s5.38917-2.16881,5.38917-2.16881.98582-.13144,1.31443,1.90593,5.58634,12.81571,9.06958,13.47293,12.94715-3.15464,14.78736-8.60953,1.77448-15.70746.59149-20.63658-14.393-47.71388-28.85178-69.00767-18.92782-34.701-21.81957-40.35306l-1.57732-3.28608Z"/><path class="cls-4" d="M205.21992,539.99841s8.95028,11.23757,22.37569,13.326,28.93923-2.78453,33.71271-13.326,8.65194-41.56907-9.84531-53.80112-36.3978-3.58011-39.67957,0-11.63536,13.12707-11.337,26.55249S202.23649,533.83267,205.21992,539.99841Z"/></g></g></svg>