<svg xmlns="http://www.w3.org/2000/svg" viewBox="0 0 459 642"><defs><style>.cls-1{fill:none;}.cls-2{fill:#da4d55;}.cls-3{fill:#fff;}.cls-4{fill:#2b102e;}</style></defs><title>資產 34</title><g id="圖層_2" data-name="圖層 2"><g id="圖層_1-2" data-name="圖層 1"><rect class="cls-1" width="459" height="642"/><ellipse class="cls-2" cx="167.86426" cy="359.34441" rx="14.61353" ry="7.08139"/><ellipse class="cls-2" cx="291.13574" cy="359.34441" rx="14.61353" ry="7.08139"/><path class="cls-3" d="M180.47258,365.17654s-7.86983,7.9261-3.46654,14.678,12.76954,10.86169,24.2181,12.32949,50.63784,3.22915,62.967-2.05492,19.37448-17.02644,14.09053-24.95254-31.26336-17.61356-48.43619-16.73288S189.27916,355.78264,180.47258,365.17654Z"/><path class="cls-4" d="M260.14522,371.82111c-2.17578.64846-15.36524,2.337-18.37359.16631-3.06125-2.20935-6.48818-7.73475-7.54962-12.8904a8.4968,8.4968,0,0,0,4.52143-2.29632c3.07091-3.24282,5.20193-11.8254,3.30944-14.462-1.892-2.63606-23.38887-4.99443-22.44389,4.14405,0,0,0,6.78011,4.48837,10.31792a12.17871,12.17871,0,0,0,5.91194,2.42143c-1.09043,5.12-4.48634,10.57374-7.52368,12.76529-3.00886,2.17375-16.1973.48215-18.37156-.16631a1.79879,1.79879,0,0,0-2.05372.37229,1.66479,1.66479,0,0,0,.08951,2.40567c.76188.68762,7.36551,1.83909,13.39646,1.83909,3.74582,0,7.2704-.44451,9.03778-1.71906,2.78406-2.00947,5.73037-6.03451,7.54453-10.51271,1.81468,4.4782,4.761,8.50324,7.545,10.51271,1.76738,1.27505,5.292,1.71906,9.03828,1.71906,6.03044,0,12.63509-1.15146,13.397-1.83909a1.6652,1.6652,0,0,0,.089-2.40567A1.79548,1.79548,0,0,0,260.14522,371.82111Z"/><circle class="cls-3" cx="271.97807" cy="324.27834" r="25.16806"/><circle class="cls-4" cx="267.43254" cy="322.82388" r="17.38633"/><ellipse class="cls-4" cx="281.17983" cy="342.73411" rx="1.77471" ry="3.22495" transform="translate(-161.78864 360.27536) rotate(-52.90216)"/><ellipse class="cls-4" cx="285.17983" cy="339.73411" rx="1.77471" ry="3.22495" transform="translate(-157.80854 362.27532) rotate(-52.90216)"/><circle class="cls-3" cx="183.97807" cy="324.27834" r="25.16806"/><circle class="cls-4" cx="188.52361" cy="322.82388" r="17.38633"/><ellipse class="cls-4" cx="174.77632" cy="342.73411" rx="3.22495" ry="1.77471" transform="translate(-171.35609 174.78832) rotate(-37.09784)"/><ellipse class="cls-4" cx="170.77632" cy="339.73411" rx="3.22495" ry="1.77471" transform="translate(-170.35613 171.76843) rotate(-37.09784)"/></g></g></svg>