<svg xmlns="http://www.w3.org/2000/svg" viewBox="0 0 459 642"><defs><style>.cls-1{fill:none;}.cls-2{fill:#fff;}.cls-3{fill:#2b102e;}</style></defs><title>資產 30</title><g id="圖層_2" data-name="圖層 2"><g id="圖層_1-2" data-name="圖層 1"><rect class="cls-1" width="459" height="642"/><path class="cls-2" d="M185.80289,371.64694s-7.24169,7.52559-3.18985,13.93628,11.75032,10.31285,22.2851,11.70647,46.59611,3.066,57.94125-1.95108,17.82808-16.16608,12.96587-23.69167-28.768-16.72353-44.57019-15.88736S193.90656,362.72772,185.80289,371.64694Z"/><path class="cls-3" d="M221.8155,353.89787s0,6.43762,4.13008,9.79639,10.65127,3.07886,13.47712,0,4.78669-11.22769,3.04546-13.73085S220.946,345.22108,221.8155,353.89787Z"/><circle class="cls-2" cx="192.26612" cy="334.72271" r="25.16806"/><circle class="cls-2" cx="268.91646" cy="333.72454" r="25.16806"/><circle class="cls-3" cx="199.39308" cy="334.49024" r="13.42251"/><circle class="cls-3" cx="262.69497" cy="335.48841" r="13.42251"/><path class="cls-3" d="M273.90214,291.80987s-32.93958,13.97437-33.93775,21.95972,65.87915-10.97986,63.88282-16.96887S273.90214,291.80987,273.90214,291.80987Z"/><path class="cls-3" d="M185.09786,291.80987s32.93958,13.97437,33.93775,21.95972-65.87915-10.97986-63.88282-16.96887S185.09786,291.80987,185.09786,291.80987Z"/></g></g></svg>