<svg xmlns="http://www.w3.org/2000/svg" viewBox="0 0 363.83475 351"><defs><style>.cls-1{fill:#2c3f5b;}.cls-2{fill:#18273e;}.cls-3{fill:none;}</style></defs><title>資產 28</title><g id="圖層_2" data-name="圖層 2"><g id="圖層_1-2" data-name="圖層 1"><path class="cls-1" d="M88.88464,326.55966s14.46782,14.74168,34.82994,19.65557,97.16662,9.1258,123.60165-5.61588,43.93931-28.78137,51.79838-57.21176,12.14583-70.19847-7.1446-104.59573S238.38548,126.494,209.44983,122.2821s-68.231.702-97.88108,11.93374S54.05469,187.91767,52.983,208.62622,38.69379,285.49355,88.88464,326.55966Z"/><path class="cls-2" d="M105.30078,166.80741s-60.08056,146.80836-78.779,120.3383S46.61953,179.573,61.71885,166.80741,137.92957,96.23249,105.30078,166.80741Z"/><path class="cls-2" d="M250.7644,166.80741s60.08056,146.80836,78.779,120.3383-20.09775-107.5727-35.19707-120.3383S218.13561,96.23249,250.7644,166.80741Z"/><rect class="cls-3" width="363.83475" height="351"/></g></g></svg>