<svg xmlns="http://www.w3.org/2000/svg" viewBox="0 0 363.83475 352.78923"><defs><style>.cls-1{fill:#ae675c;}.cls-2{fill:none;}</style></defs><title>資產 27</title><g id="圖層_2" data-name="圖層 2"><g id="圖層_1-2" data-name="圖層 1"><path class="cls-1" d="M291.64978,181.04426a108.60644,108.60644,0,0,0-6.65827-10.32876,29.35443,29.35443,0,0,0,.07141-3.06554,48.06012,48.06012,0,0,0-.37871-6.23916,5.12655,5.12655,0,0,0,.3733-1.76729,238.1834,238.1834,0,0,0-4.34-54.80768,5.41124,5.41124,0,0,0-.15365-.59046c-.12876-2.80291-1.27463-5.07645-4.39629-6.09308-4.14742-1.351-8.86615,1.29877-11.76166,3.90631-.20667.18612-.40684.37328-.60485.56068a51.92329,51.92329,0,0,0-5.78453,3.10533,34.00316,34.00316,0,0,0-7.62723,7.02986c-7.23553,4.58637-18.53463,12.10914-24.27371,15.94768a110.66077,110.66077,0,0,0-17.59434-4.08473c-21.08876-3.04269-47.63041-1.29517-72.01286,4.14018-7.52714-5.03564-24.8764-16.5805-29.72173-19.27661a30.19072,30.19072,0,0,0-3.5166-2.70484,51.97124,51.97124,0,0,0-5.78453-3.10533c-.19855-.18741-.39873-.37456-.60485-.56068-2.89605-2.60754-7.61424-5.25732-11.7622-3.90631-3.12111,1.01663-4.267,3.29017-4.39575,6.09308a5.17547,5.17547,0,0,0-.15365.59046,238.1834,238.1834,0,0,0-4.34,54.80768,5.44887,5.44887,0,0,0,.16068,1.09108c-14.54951,16.581-24.83961,36.69146-25.485,49.04989-1.07932,20.67832-14.39478,76.75474,36.16468,117.7607,0,0,14.57548,14.72,35.087,19.62678s97.88095,9.11241,124.51024-5.60762,44.26313-28.73919,52.17926-57.128C306.76357,257.09917,311.08141,215.39235,291.64978,181.04426Z"/><rect class="cls-2" width="363.83475" height="351"/></g></g></svg>