<svg xmlns="http://www.w3.org/2000/svg" viewBox="0 0 363.83475 352.06574"><defs><style>.cls-1{fill:#e1a565;}.cls-2{fill:none;}</style></defs><title>資產 26</title><g id="圖層_2" data-name="圖層 2"><g id="圖層_1-2" data-name="圖層 1"><path class="cls-1" d="M292.25022,180.26457c-17.26886-30.96651-46.64279-48.54229-73.31639-54.79188,5.29823-18.88075,11.8106-43.51653,13.06847-54.72307,2.185-19.458,6.00879-34.183-4.37-41.54547s-18.84254-4.20714-21.16626,0c-2.32264,4.20714-14.47785,76.42433-14.4085,83.70208a76.04369,76.04369,0,0,1-.91967,9.46708c-6.0536-.09963-12.31418.10169-18.67077.58752a82.54046,82.54046,0,0,1-.99649-10.0546c.06828-7.27775-12.08693-79.49494-14.40957-83.70208-2.32371-4.20714-10.78744-7.36249-21.16626,0s-6.555,22.08746-4.37,41.54547c1.28775,11.46177,8.07,36.96908,13.428,56.00185a200.69478,200.69478,0,0,0-31.88968,8.98793c-29.45074,11.21886-57.12723,53.641-58.192,74.32589-1.0637,20.68491-14.193,76.78023,35.66011,117.7998,0,0,14.37116,14.725,34.59534,19.63313,20.22525,4.90867,96.513,9.1158,122.77047-5.60917s43.64373-28.74893,51.45025-57.1471C307.1527,256.34378,311.4107,214.62319,292.25022,180.26457Z"/><rect class="cls-2" width="363.83475" height="351"/></g></g></svg>