<svg xmlns="http://www.w3.org/2000/svg" viewBox="0 0 363.83475 351.78764"><defs><style>.cls-1{fill:#e1a565;}.cls-2{fill:none;}</style></defs><title>資產 25</title><g id="圖層_2" data-name="圖層 2"><g id="圖層_1-2" data-name="圖層 1"><path class="cls-1" d="M292.104,178.29652a110.6713,110.6713,0,0,0-19.03692-25.05606c4.3501-2.5848,9.34435-8.34511,5.3843-14.95128-5.88937-9.82473-14.99112-10.88686-22.219-6.63833-2.71149,1.59424-3.91614,3.42548-4.36265,5.09077A114.65566,114.65566,0,0,0,209.65287,121.295c-28.91144-4.24853-68.17319.70843-97.79884,12.03768a54.887,54.887,0,0,0-5.05176,2.25133,9.43409,9.43409,0,0,0-3.92764-3.93321c-7.22786-4.24853-16.32961-3.1864-22.219,6.63833-3.53446,5.89722.06692,11.12128,3.9747,14.01362C67.08041,169.98408,54.0437,194.228,53.31694,208.38993c-1.07079,20.889-14.27691,77.53569,35.8716,118.95887,0,0,14.45572,14.86986,34.80081,19.82682,20.34509,4.95645,97.08568,9.205,123.49894-5.66488,26.41222-14.86986,43.90256-29.0318,51.7547-57.70939S311.37831,212.99268,292.104,178.29652Z"/><rect class="cls-2" width="363.83475" height="351"/></g></g></svg>