<svg xmlns="http://www.w3.org/2000/svg" viewBox="0 0 48.79 52.24"><defs><style>.cls-1{fill:#f05c79;}.cls-2{fill:#fff;}</style></defs><title>chatroom_btn_gift</title><g id="圖層_2" data-name="圖層 2"><g id="圖層_1-2" data-name="圖層 1"><circle class="cls-1" cx="24.4" cy="27.84" r="24.4"/><circle class="cls-2" cx="24.4" cy="24.4" r="24.4"/><path class="cls-1" d="M35.34,27.5h-12c-1.08,0-1.48.39-1.48,1.46q0,4.85,0,9.69c0,1.14.38,1.51,1.54,1.51h12c1.15,0,1.54-.39,1.54-1.52q0-4.8,0-9.59C36.93,27.86,36.56,27.5,35.34,27.5Z"/><path class="cls-1" d="M39.4,19.46A1.22,1.22,0,0,0,38,18.1c-4.92,0-9.85,0-14.78,0-1,0-1.39.42-1.4,1.45,0,1.42,0,2.85,0,4.28,0,1.27.36,1.62,1.65,1.62h7c2.48,0,5,0,7.44,0,1,0,1.44-.41,1.45-1.41C39.41,22.52,39.4,21,39.4,19.46Z"/><path class="cls-1" d="M16.34,15a23.29,23.29,0,0,0,10.77.91,20.65,20.65,0,0,0,5.3-1.35,8.39,8.39,0,0,0,3.06-2.26,3.1,3.1,0,0,0-1.39-5A6.85,6.85,0,0,0,31,7c-2.48.35-4.18,2-5.66,3.87-.4.5-.75,1-1.06,1.45a48,48,0,0,0-3.44-3.65A6.28,6.28,0,0,0,15.19,7c-3,.65-4.11,3.75-2,6A8.5,8.5,0,0,0,16.34,15ZM30.93,9.37a2.79,2.79,0,0,1,1-.15c.75,0,1.72,0,1.84.87a2.35,2.35,0,0,1-1,1.68c-1.84,1.33-4,1.56-6.44,1.77C27.57,11.63,28.86,10.07,30.93,9.37Zm-16.34.74c.17-.94,1.21-.92,2-.88a5.3,5.3,0,0,1,3.51,1.87c.67.69,1.24,1.49,2,2.44-2.47-.19-4.63-.43-6.47-1.71C15.15,11.46,14.5,10.61,14.59,10.11Z"/><path class="cls-1" d="M19,33.91c0-1.66,0-3.33,0-5,0-1-.41-1.41-1.43-1.42q-2,0-4.08,0c-1,0-1.42.4-1.42,1.42,0,3.3,0,6.6,0,9.89a1.22,1.22,0,0,0,1.39,1.37h4.08c1.08,0,1.47-.4,1.48-1.47,0-1.6,0-3.2,0-4.8Z"/><path class="cls-1" d="M17.66,25.46A1.19,1.19,0,0,0,19,24.1V19.42a1.18,1.18,0,0,0-1.34-1.31H10.9a1.18,1.18,0,0,0-1.34,1.3c0,1.6,0,3.2,0,4.79a1.16,1.16,0,0,0,1.28,1.27Z"/></g></g></svg>