<svg xmlns="http://www.w3.org/2000/svg" viewBox="0 0 852.94122 505.28383"><defs><style>.cls-1{fill:#534741;}.cls-2{fill:#e94e58;}.cls-3{fill:#eff3f0;}.cls-4{fill:#e1a565;}.cls-5{fill:#73798b;}.cls-6{font-size:40.12303px;font-family:AdobeFanHeitiStd-Bold-B5pc-H, Adobe Fan Heiti Std;}</style></defs><title>資產 44</title><g id="圖層_2" data-name="圖層 2"><g id="圖層_1-2" data-name="圖層 1"><path class="cls-1" d="M259.61892,438.76679s-9.47046,24.57888,18.42556,32.28536,50.72-3.08259,55.792-13.87165,0-17.53784,0-17.53784Z"/><path class="cls-2" d="M758.93782,221.48791c1.98045-.03592,36.65219.09847,38.46661-9.09236s-6.42362-135.726-16.57492-149.2788S759.9735,5.4948,595.45767.84672,213.28587,10.83011,136.574,41.22138,27.46734,142.41087,18.61658,200.57155,1.176,440.52014,1.176,440.52014s-5.74766,10.78848,8.17084,13.5887,71.46228,7.86194,71.46228,7.86194,9.9576,2.87206,11.74435-7.84459,20.92717-47.69545,50.66161-46.70837c0,0,35.64813-.64649,45.91011,19.00958s8.36454,24.26943,8.36454,24.26943-1.89744,4.61337,2.06346,4.54154l75.25716-1.3648,204.04185-.64769s7.97715,2.908,9.81924-4.757,9.64281-44.95377,43.25514-48.616,63.68933,4.29041,73.12109,20.558c8.20972,14.15988-5.062,38.64395,12.9004,45.9498s85.11021,5.694,116.79743,5.11932,96.98678-4.81151,114.39578-28.022c0,0,3.9609-.07183,3.79488-9.22674l-.83013-45.77456s-.05534-3.05164-8.03249-5.95961-27.837-5.60045-27.837-5.60045,5.554-21.46921-16.4247-31.75486a216.63189,216.63189,0,0,0-41.86619-14.504Z"/><polygon class="cls-3" points="607.677 138.132 781.986 147.38 791.89 212.115 603.716 207.491 607.677 138.132"/><path class="cls-2" d="M603.71573,213.6559l190.15461,6.16518s0,4.62388-9.90389,6.16518-27.73088,3.08259-27.73088,3.08259L752.274,340.04208H601.735Z"/><path class="cls-2" d="M724.54314,343.12467h31.69243s39.61554,13.87165,45.55787,24.66072,5.94233,20.03683,5.94233,20.03683v7.70647s27.73088,0,31.69243,4.62388,5.94233,30.8259,5.94233,40.07367-3.96155,10.78906-3.96155,10.78906-49.51943,21.57813-83.19264,23.11942-95.0773-3.08259-130.73129-16.95424c0,0-1.98078-1.54129-1.98078-6.16518V407.85906s-1.98078-4.62388,7.92311-4.62388,67.34642-1.54129,67.34642-1.54129,1.98078-26.202-1.98078-33.90849c0,0-5.94233-7.70647-19.80777-12.33036S627.48506,344.666,627.48506,344.666l75.26953-1.54129L744.35091,355.455s9.90389,3.08259,9.90389,13.87165a81.92207,81.92207,0,0,0,1.98078,18.49554h9.90389s1.98078-23.11942-5.94233-29.2846S746.33169,349.28985,724.54314,343.12467Z"/><path class="cls-2" d="M601.735,346.20726s59.42331,10.78906,69.3272,15.41295,13.86544,3.08259,17.827,13.87165a64.52992,64.52992,0,0,1,3.96155,20.03683H623.5235s3.96155-18.49554,0-20.03683-19.80777-9.24777-21.78855-13.87165S601.735,346.20726,601.735,346.20726Z"/><polygon class="cls-3" points="671.062 235.234 720.582 235.234 724.543 335.418 682.947 335.418 671.062 235.234"/><polygon class="cls-3" points="613.62 235.234 665.12 235.234 677.004 335.418 613.62 335.418 613.62 235.234"/><path class="cls-4" d="M661.15827,427.89589s-1.98078,13.87165,5.94233,16.95424,21.78855,0,25.7501-9.24777,0-16.95424-7.92311-21.57813S665.11982,417.10683,661.15827,427.89589Z"/><path class="cls-4" d="M809.71656,418.64812s-5.94233,10.78906,0,16.95424,13.86544,3.08259,19.80777,0,5.94233-13.87165,1.98078-18.49554S815.65889,412.48294,809.71656,418.64812Z"/><path class="cls-1" d="M134.36187,409.28676s-29.86233,9.25374-35.29185,29.612,2.71476,51.821,24.43282,61.07471,43.43612,5.55225,59.72466-14.806,10.859-53.67171-10.859-66.627S134.36187,409.28676,134.36187,409.28676Z"/><path class="cls-5" d="M131.34628,443.6979s-4.84359,12.21521-1.61453,22.68538,20.98888,12.21521,25.83247,5.23509,8.07265-20.94035,1.61453-26.17544S142.648,438.46281,131.34628,443.6979Z"/><path class="cls-1" d="M511.446,417.04315s-21.03317,26.42034-13.50094,47.89721,33.93525,44.61349,58.95159,39.66852,42.15478-21.456,44.31718-49.53609-22.94237-54.51981-50.20954-52.87944S511.446,417.04315,511.446,417.04315Z"/><path class="cls-5" d="M529.67869,449.59817s3.10368,13.85071,12.35325,21.23464,26.16617-1.85765,26.24588-11.03462-5.5265-23.60381-14.47551-24.35046S536.58515,438.052,529.67869,449.59817Z"/><text class="cls-6" transform="translate(613.81341 193.09075) rotate(0.16191) scale(1.04234 1)">活動巴士</text></g></g></svg>