<svg xmlns="http://www.w3.org/2000/svg" viewBox="0 0 317 219"><defs><style>.cls-1{fill:#b2a3b2;opacity:0.7;}.cls-2{fill:#95bbcc;}.cls-3{fill:#c6e4d5;}</style></defs><title>資產 12</title><g id="圖層_2" data-name="圖層 2"><g id="圖層_1-2" data-name="圖層 1"><path class="cls-1" d="M106.68022,200.34553s-39.52216.44736-41.17717.47791,1.06109.827,18.34753,4.17636,62.3555,11.40642,71.0977,12.93819,22.18022,1.00152,30.45525.84877,125.58245-2.036,125.58245-2.036,14.49911.29674-1.52827-2.5115-75.56779-13.56115-75.56779-13.56115a97.40693,97.40693,0,0,0-18.47427-1.63431c-11.38707-.072-37.86716.41681-37.86716.41681L139.66562,192.823s-12.64613-.61313-5.361.66334l34.96881,6.12706-54.41721.72231s-33.31381-6.15761-36.42585-6.38236-10.99112-.64368-8.07706-.13309S106.68022,200.34553,106.68022,200.34553Z"/><path class="cls-2" d="M59.0918,144.99694s-47.68812,2.0239-49.76152,2.0239-4.14679-6.07171-6.22019-32.38246S0,24.57469,0,12.43127,18.66057,2.31175,29.02755,2.31175,184.5323.28784,184.5323.28784,199.04607-3.76,199.04607,18.503s2.0734,107.26689,2.0734,107.26689,2.0734,12.14342-10.367,14.16732-45.61473,2.0239-45.61473,2.0239v52.62149s-10.367,6.07171-10.367-4.04781V141.96109L68.42209,143.985s2.0734,48.57368,0,50.59759-8.29359,6.07171-8.29359,2.0239S59.0918,144.99694,59.0918,144.99694Z"/><path class="cls-3" d="M22.80736,140.94914c10.26372,0,152.03019-4.00729,153.46172-4.04781.88281-.09289,19.6669-2.27887,19.6669-15.17928,0-12.01594-2.05315-100.32751-2.0734-101.2179,0-.28856-.05872-7.644-5.228-12.097-3.0777-2.65242-7.269-3.68315-12.4667-3.05858L22.90455,7.37052c-.98608-.18974-7.17185-1.14635-12.06782,2.99731-4.51328,3.82051-6.41457,10.669-5.6492,20.35663l4.14274,95.08888C9.43152,126.52685,11.66893,140.94914,22.80736,140.94914ZM178.98839,7.19758a12.26961,12.26961,0,0,1,8.27536,2.72654c4.47279,3.85609,4.52543,10.53556,4.52543,10.60276.02025.91313,2.0734,89.202,2.0734,101.19518,0,11.09194-17.5611,13.14253-17.73928,13.1613-1.34447.03459-143.08259,4.04188-153.31594,4.04188-9.34041,0-11.39356-13.16624-11.41381-13.29966L7.25689,30.60291c-.71273-9.0463.94963-15.3285,4.93849-18.70628,4.44444-3.7632,10.32649-2.54174,10.38723-2.52494L22.7,9.39739l.12149-.002L176.3683,7.3636A21.71348,21.71348,0,0,1,178.98839,7.19758Z"/></g></g></svg>