<svg xmlns="http://www.w3.org/2000/svg" viewBox="0 0 2652.83898 580.4789"><defs><style>.cls-1{fill:#f26d7a;}.cls-2{opacity:0.46;}.cls-3{fill:#b3d5f0;}.cls-4{fill:#4c92ce;}.cls-5{fill:#c290b0;}.cls-6{fill:#c0dff5;}.cls-7{fill:#91b6e0;}.cls-8{fill:#b5b8d1;}.cls-9{fill:#9fceee;}.cls-10{fill:#99a0cf;}.cls-11{fill:#7e83b0;}.cls-12{fill:#dcb6d6;}.cls-13{fill:#c5c3e0;}.cls-14{fill:#7ab0de;}.cls-15{fill:#afd3f0;}.cls-16{fill:#d8c97c;}.cls-17{fill:#4190ce;}.cls-18{fill:#d2e8f6;}.cls-19{fill:#9ed4f3;}.cls-20{fill:#519bc8;}.cls-21{fill:#93a6d5;}.cls-22{fill:#578eba;}.cls-23{fill:#5392ce;}.cls-24{fill:#a7d0ef;}.cls-25{fill:#7dabdb;}.cls-26{fill:#abd3f0;}.cls-27{fill:#d0eaf7;}.cls-28{fill:#d2ecf8;}.cls-29{fill:#d3ecf8;}.cls-30{fill:#8d7b8d;}.cls-31{fill:#4d7fb8;}.cls-32{fill:#72acdd;}.cls-33{fill:#1a6fa9;}.cls-34{fill:#b4d1ed;}.cls-35{fill:#7ab1df;}.cls-36{fill:#fff;}.cls-37{fill:#07619c;}.cls-38{fill:#96ccee;}.cls-39{fill:#9e6262;}.cls-40{fill:#af9dae;}.cls-41{fill:#5283bd;}.cls-42{fill:#fffaed;}.cls-43{fill:#80a4d1;}.cls-44{fill:#c5a654;}</style></defs><title>資產 13</title><g id="圖層_2" data-name="圖層 2"><g id="圖層_1-2" data-name="圖層 1"><path class="cls-1" d="M242.43459,366.22465V569.82579H673.33252l.0029-.61318.72865.00569v.60749H910.59073V569.677l95.18184-.5354-.0142.68414h154.64742v-.7771H1182.215v.7771h138.78614v-.01518h9.25241l.66089.01518.00032-.01518h8.26076l.66089.00455v-.00455H1406.586v.003l.66089-.003h4.29608l-.00032.01518h855.187l-.00355-.77141.66444-.00569-.74963-18.00657-1.233-260.97362H2228.3982s1.32177-164.746,0-164.746h-60.80155V271.418h-40.975l1.32177-88.58981h-51.54914v18.65049h-14.5395l-1.32177,71.49353-31.72255,1.55421-2.64677,84.47776-44.27616-37.07444-13.21773,1.55421,3.96532-256.44419L1919.76426,11.0883l-9.25241,177.17962-41.63584.7771-1.27853,61.39118h-31.1049V394.97748l-15.86127-3.10841v-45.072h-17.183V314.15871l-34.22346,14.90441-.14263-66.19325-87.237-4.66262-1.32177,178.73383h-26.43546V429.17h-7.93064V412.07376h-2.64355V429.17h-3.96532V415.18217h-2.64355V429.17h-13.87861V353.791h-48.24471V317.26712L1543.059,286.183v108.7945l-15.20039-.21021V189.82213l-52.21-1.55421,1.32177-115.01133L1422.1168,56.93741l-3.05128,147.99839-10.82734-8.912V163.38543l-87.89789-3.88552-3.27442,338.83235H1298.531v-480.25h-5.948V6.42568h2.64354V4.87147h-68.73218V6.42568h2.64355V18.08223h-7.26975V77.14211H1182.215V315.71291h-60.14066V189.82213l-52.21-1.55421,1.32177-115.01133-54.85357-16.31918-4.53407,219.92032H903.321L884.15528,312.6045v50.51173H847.14564V481.66779l-34.36609-79.69638-61.43307-2.67547,2.61418-329.92487L703.73329,13.41961l-7.26975,176.40252H652.845V279.189H632.35756V206.14131h-11.896V185.93661H568.91247l-1.98266,87.81271H528.5984V124.54543l-61.46243.7771-2.64355,169.40859H420.4073l.46662-69.93932H343.55021v172.517H328.34982l1.32177-69.93932-47.58382,1.55421Zm994.634-359.799V18.08223h-5.28709V6.42568Zm13.21773,0V18.08223h-10.57418V6.42568Zm11.896,0V18.08223h-9.25241V6.42568Zm14.5395,0V18.08223h-11.896V6.42568Zm13.21773,11.65655h-10.57418V6.42568h10.57418Z"/><path class="cls-1" d="M2039.92666,511.86278v61.62586h130.4239l.00088-.1856.22055.00172v.18388h71.59173v-.045l28.80958-.16205-.0043.20707h46.80858v-.23521h6.60121v.23521h42.0077V573.484h2.80051l.2.00459.0001-.00459h2.50036l.2.00138V573.484h20.2037v.00092l.2-.00092h1.30034l-.0001.00459h258.84743l-.00108-.23349.20111-.00172-.2269-5.45022-.37321-78.99132h-11.20205s.40007-49.8652,0-49.8652h-18.40337v44.22008h-12.40227l.40007-26.81431h-15.60286v5.64512h-4.40081l-.40007,21.63961-9.60176.47043-.80112,25.56967-13.40148-11.22167-4.00073.47043,1.20022-77.62036-16.00293-16.93535-2.80051,53.62861-12.60231.23521-.387,18.58184h-9.41481v43.74966l-4.80088-.94085V505.98245h-5.201v-9.879l-10.35873,4.51126-.04317-20.03533-26.40484-1.41128-.40007,54.099H2467.205v-2.35213h-2.40044v-5.17469h-.80015v5.17469h-1.20022v-4.23384h-.80015v4.23384h-4.20077V508.09937h-14.60268v-11.055l-9.60176-9.40853v32.92985l-4.60084-.06363V458.46938l-15.8029-.47043.40007-34.81155-16.603-4.93948-.92356,44.79606-3.27721-2.69749v-9.879l-26.60487-1.17607-.9911,102.55755h-5.61011V406.48727h-1.80033v-3.5282h.80015v-.47043h-20.80381v.47043h.80015v3.5282h-2.2004v17.8762h-12.0022v72.21045h-18.20333V458.46938l-15.8029-.47043.40007-34.81155-16.603-4.93948-1.37237,66.56534h-32.8339l-5.80106,10.81981v15.28886H2222.9602V546.805l-10.40191-24.12245-18.59452-.80981.79126-99.86144L2179.55225,405.076l-2.2004,53.3934h-13.20242V485.5189h-6.20114v-22.11h-3.60066v-6.11554h-15.60286l-.60011,26.57909h-11.60213V438.71148l-18.60341.23521-.80015,51.27648h-13.34366l.14124-21.16919h-23.40429v52.21733h-4.60084l.40007-21.16919-14.40264.47043Zm301.05517-108.90371v3.5282h-1.60029v-3.5282Zm4.00073,0v3.5282H2341.782v-3.5282Zm3.60066,0v3.5282h-2.80051v-3.5282Zm4.40081,0v3.5282h-3.60066v-3.5282Zm4.00073,3.5282h-3.20059v-3.5282h3.20059Z"/><path class="cls-1" d="M0,454.93558v98.41131H208.276l.0014-.29638.3522.00275v.29363h114.326v-.0719l46.00647-.25879-.00686.33068h74.74936v-.37562H454.2461v.37562h67.08276v-.00734H525.801l.31944.00734.00016-.00734h3.99287l.31944.0022v-.0022h32.26361v.00147l.31944-.00147h2.07653l-.00016.00734H978.44993l-.00172-.37286.32116-.00275-.36234-8.70354-.596-126.1425H959.92231s.63888-79.63053,0-79.63053H930.53367v70.61575H910.72829l.63888-42.82019H886.45072v9.01478H879.423l-.63888,34.55664-15.3332.75123-1.27933,40.83262-21.401-17.92006-6.38883.75123,1.91665-123.95318L810.743,283.27921l-4.47218,85.64038-20.12483.37562-.618,29.67364H770.49338v69.86452l-7.6666-1.50246V445.54519H754.5213V429.76933l-16.542,7.2041-.06894-31.99474L695.744,402.725l-.63888,86.39161H682.32747v-3.75616h-3.8333V477.0969h-1.27777v8.26355h-1.91665v-6.76108H674.022v6.76108h-6.70828V448.92573H643.99447V431.27179l-15.3332-15.02463v52.5862l-7.34716-.10161V369.67082l-25.23589-.75123.63888-55.59112-26.51366-7.88793-1.47484,71.53553-5.23343-4.30766V356.89255l-42.48575-1.87808-1.5827,163.77578h-8.95887V286.65975h-2.875v-5.63424h1.27777v-.75123H475.64869v.75123h1.27777v5.63424H473.4126v28.54679H454.2461v115.314H425.1769V369.67082l-25.23589-.75123.63888-55.59112-26.51366-7.88793-2.19156,106.29924h-52.433l-9.26381,17.27832v24.415H292.28916v57.3023l-16.611-38.52152-29.69388-1.2932,1.26357-159.47032-24.27757-27.04433-3.51386,85.26476H198.3733v43.1958H188.4706V377.55875h-5.75v-9.766H157.8042l-.95833,42.44457H138.31826V338.1191l-29.70808.37562-1.27777,81.88422H86.02372l.22554-33.80541H48.87458v83.38668H41.52742l.63888-33.80541-22.9998.75123ZM480.75976,281.02552v5.63424h-2.55553v-5.63424Zm6.38883,0v5.63424h-5.11107v-5.63424Zm5.75,0v5.63424h-4.47218v-5.63424Zm7.02772,0v5.63424h-5.75v-5.63424Zm6.38883,5.63424H501.204v-5.63424h5.11107Z"/><path class="cls-1" d="M2543.09253,332.95695l-57.489-1.59692,1.59692,71.86121h-18.36453V225.96359h-93.41957l.56376,71.86121h-53.262L2319.52431,123.761l-74.25659-.79846V276.26644h-46.31056l-2.39537-90.22574h-62.27972V206.8006h-14.37224v75.055h-24.7522V190.033h-52.69822L2033.67638,8.783l-60.6828,57.489,3.15874,338.991-74.2215,2.749L1860.411,489.89837V368.0891h-44.71364V316.18933l-23.15528-36.72906h-131.0586l-5.4777-225.96359-66.272,16.76762,1.59692,118.17177-63.07817,1.59692V319.38316h-72.65967V74.25659h-47.90747V13.57378h-8.783V1.59692h3.19383V0h-83.03962V1.59692h3.19383V13.57378h-7.18612v493.447h-22.39269l-3.95642-348.14324-106.1949,3.99229v33.53523l-13.081,9.15692-3.68663-152.06529-66.272,16.76762,1.59692,118.17177-63.07818,1.59692v210.5769l-18.36453.216V289.04176l-38.326,31.93832V358.5076H923.02143V435.958H906.25382V421.58578H903.06V435.958h-4.79075V418.39194H895.0754V435.958h-9.58149v7.98458H853.55559l-1.59692-183.64532L746.56223,265.088l-.17232,68.0122-41.34749-15.314v33.53523H684.28252V397.632l-19.163,3.19383V252.3127H627.53976l-1.54467-63.07817-50.30285-.79846L564.51383,6.38766l-63.87663,57.489,4.79075,263.49111-15.96916-1.59692L435.966,363.86405l-3.19773-86.79916-38.326-1.59692-1.59692-73.45813H375.27931v-19.163H312.99959l1.59692,91.0242H265.09212V123.761H191.634c-1.59692,0,0,169.27308,0,169.27308H146.92035L145.431,561.17789l-.90606,18.50255.80314.00585-.00468.79261H1178.528v-.01559h5.19l.79846.00312v-.00312h80.64425v.00468l.79846-.00468h9.98072v.01559l.79846-.01559h11.17841v.01559h167.67616v-.79846H1481.942v.79846h186.83915l-.01715-.70294,114.99509.55011v.15283H2069.522v-.62419l.88033-.00585.00312.63H2591v-209.196Zm-1147.384-331.36V13.57378h-6.38766V1.59692Zm-9.5815,0V13.57378h-12.77533V1.59692Zm-15.96916,0V13.57378h-11.17841V1.59692Zm-14.37224,0V13.57378h-14.37224V1.59692Zm-30.3414,0h12.77533V13.57378h-12.77533Z"/><g class="cls-2"><path class="cls-3" d="M145.32343,580.4789H443.94669l-11.17841-303.414-38.326-1.59692-1.59692-73.45813H375.27931v-19.163H312.99959l1.59692,91.0242H265.09212V123.761H191.634c-1.59692,0,0,169.27308,0,169.27308H146.92035Z"/><polygon class="cls-4" points="322.581 275.468 373.682 275.468 372.085 206.801 320.984 206.801 322.581 275.468"/><polygon class="cls-4" points="322.581 202.01 370.489 203.607 370.489 192.428 320.984 187.638 322.581 202.01"/><polygon class="cls-5" points="285.774 320.796 284.3 347.329 327.049 347.329 285.774 320.796"/><path class="cls-5" d="M262.69674,289.04176V360.903l100.6057-3.19383Zm21.63634,28.9285,48.15231,30.95584H282.613Z"/><polygon class="cls-4" points="275.206 580.479 362.504 580.479 361.706 506.222 273.875 471.09 275.206 580.479"/><polygon class="cls-6" points="198.82 394.438 198.82 578.084 261.366 580.479 261.1 451.927 232.355 396.035 198.82 394.438"/><polygon class="cls-7" points="146.388 541.621 187.642 541.354 187.642 464.703 254.712 463.106 253.381 580.479 144.525 579.68 146.388 541.621"/><polygon class="cls-3" points="2198.957 276.266 2245.268 276.266 2245.268 122.963 2319.524 123.761 2322.718 297.825 2410.549 297.825 2431.308 403.221 2487.2 403.221 2485.604 331.36 2543.093 332.957 2591 371.283 2591 580.479 2070.405 580.479 2068.809 281.856 2119.91 281.856 2119.91 206.801 2134.282 206.801 2134.282 186.041 2196.562 186.041 2198.957 276.266"/><polygon class="cls-4" points="2591 408.81 2583.814 408.81 2583.814 392.841 2567.845 392.841 2567.845 376.808 2549.414 375.272 2549.546 373.681 2569.442 375.339 2569.442 391.244 2585.411 391.244 2585.411 407.214 2591 407.214 2591 408.81"/><polygon class="cls-4" points="2496.782 372.88 2528.72 337.748 2498.379 337.748 2496.782 372.88"/><polygon class="cls-4" points="2504.767 439.95 2528.72 439.95 2527.123 360.105 2504.767 382.461 2504.767 439.95"/><polygon class="cls-5" points="2148.654 360.105 2247.663 364.895 2247.663 293.034 2148.654 360.105"/><path class="cls-3" d="M2180.81408,353.02444l50.17029-31.13986L2229.2549,351.295Zm48.39559-28.15812-42.45082,26.34911,40.98647-1.46436Z"/><rect class="cls-4" x="2142.26666" y="194.02527" width="47.90747" height="12.77533"/><rect class="cls-4" x="2140.66974" y="211.59135" width="49.50439" height="70.2643"/><rect class="cls-4" x="2491.99122" y="475.08245" width="15.96916" height="25.55065"/><rect class="cls-4" x="2504.76655" y="505.42386" width="19.16299" height="25.55065"/><rect class="cls-4" x="2538.30178" y="336.15078" width="3.19383" height="122.96252"/><rect class="cls-4" x="2583.01542" y="439.95031" width="3.19383" height="137.33476"/><rect class="cls-4" x="2571.83701" y="433.56264" width="3.19383" height="137.33476"/><rect class="cls-4" x="2560.6586" y="428.7719" width="3.19383" height="137.33476"/><polygon class="cls-8" points="2095.158 579.68 2095.158 190.033 2042.459 190.033 2033.676 8.783 1972.994 66.272 1977.784 580.479 2095.158 579.68"/><polygon class="cls-9" points="1980.978 96.613 2030.483 61.481 2030.483 24.752 1979.381 72.66 1980.978 96.613"/><polygon class="cls-9" points="1979.381 109.389 1984.172 241.933 2036.87 190.831 2030.483 75.854 1979.381 109.389"/><path class="cls-10" d="M2000.878,369.62207l1.69049-42.27616,59.188,1.69049Zm3.22346-40.63558-1.50335,37.56963,54.09942-36.06628Z"/><polygon class="cls-10" points="2001.738 382.461 2001.738 406.415 2064.018 401.624 2062.421 337.748 2001.738 382.461"/><polygon class="cls-8" points="1988.963 109.389 1992.157 109.389 1996.947 213.188 1993.753 216.382 1988.963 109.389"/><polygon class="cls-8" points="2000.141 103.001 2003.335 103.001 2006.529 202.01 2003.335 203.607 2000.141 103.001"/><path class="cls-8" d="M2016.11031,98.21032s1.59692-1.59692,1.59692,0,1.59692,89.42729,1.59692,89.42729h-3.19383Z"/><path class="cls-8" d="M2006.92336,392.9489l41.7475-27.83062,3.47922,26.0918Zm40.503-25.08281-34.90446,23.27068,37.81291-1.455Z"/><rect class="cls-11" x="2040.06404" y="213.18826" width="17.56607" height="52.69822"/><rect class="cls-11" x="2062.42087" y="208.39751" width="19.16299" height="55.89205"/><rect class="cls-6" x="1783.75906" y="368.0891" width="76.65196" height="212.3898"/><polygon class="cls-12" points="1815.697 580.479 1815.697 316.189 1792.542 279.46 1656.804 279.46 1648.82 298.623 1648.82 579.68 1815.697 580.479"/><rect class="cls-13" x="1671.17649" y="303.414" width="19.16299" height="25.55065"/><rect class="cls-13" x="1691.13794" y="334.55386" width="17.56607" height="23.95374"/><polygon class="cls-14" points="1287.917 578.882 1286.32 507.021 1315.064 507.021 1315.064 13.574 1407.685 13.574 1407.685 74.257 1455.593 74.257 1455.593 580.479 1287.917 580.479 1287.917 578.882"/><rect class="cls-15" x="1323.04884" y="26.34911" width="78.24887" height="41.51981"/><rect class="cls-15" x="1323.04884" y="88.62883" width="126.15635" height="3.19383"/><rect class="cls-15" x="1323.04884" y="98.21032" width="126.15635" height="3.19383"/><rect class="cls-15" x="1321.45193" y="179.65303" width="126.15635" height="3.19383"/><rect class="cls-15" x="1321.45193" y="256.30499" width="126.15635" height="3.19383"/><rect class="cls-15" x="1323.04884" y="331.36003" width="126.15635" height="3.19383"/><rect class="cls-15" x="1323.04884" y="465.50096" width="126.15635" height="3.19383"/><rect class="cls-15" x="1323.04884" y="476.67937" width="126.15635" height="3.19383"/><rect class="cls-15" x="1323.04884" y="507.02077" width="126.15635" height="3.19383"/><polygon class="cls-15" points="1319.057 0 1319.057 1.597 1322.25 1.597 1322.25 14.372 1325.444 14.372 1325.444 1.597 1338.22 1.597 1338.22 14.372 1341.413 14.372 1341.413 1.597 1355.786 1.597 1355.786 14.372 1358.979 14.372 1358.979 1.597 1370.158 1.597 1370.158 14.372 1373.352 14.372 1373.352 1.597 1386.127 1.597 1386.127 14.372 1389.321 14.372 1389.321 1.597 1395.709 1.597 1395.709 14.372 1398.902 14.372 1398.902 1.597 1402.096 1.597 1402.096 0 1319.057 0"/><rect class="cls-16" x="1339.018" y="270.67723" width="27.14757" height="31.93832"/><rect class="cls-16" x="1393.31314" y="270.67723" width="27.14757" height="31.93832"/><rect class="cls-16" x="1337.42109" y="117.37331" width="27.14757" height="31.93832"/><rect class="cls-16" x="1391.71622" y="117.37331" width="27.14757" height="31.93832"/><rect class="cls-15" x="1331.03342" y="350.52302" width="111.78411" height="100.6057"/><polygon class="cls-6" points="1656.006 53.497 1668.781 580.479 1528.253 580.479 1528.253 190.033 1591.331 188.436 1589.734 70.264 1656.006 53.497"/><rect class="cls-17" x="1599.31528" y="71.86121" width="17.56607" height="11.17841"/><rect class="cls-17" x="1620.07518" y="71.86121" width="17.56607" height="11.17841"/><rect class="cls-17" x="1599.31528" y="86.23345" width="17.56607" height="14.37224"/><rect class="cls-17" x="1620.07518" y="86.23345" width="17.56607" height="14.37224"/><rect class="cls-18" x="1591.3307" y="234.74662" width="19.16299" height="25.55065"/><rect class="cls-18" x="1573.76463" y="202.80831" width="19.16299" height="25.55065"/><polygon class="cls-6" points="1165.753 53.497 1178.528 580.479 1037.999 580.479 1037.999 190.033 1101.078 188.436 1099.481 70.264 1165.753 53.497"/><rect class="cls-17" x="1109.06212" y="71.86121" width="17.56607" height="11.17841"/><rect class="cls-17" x="1129.82203" y="71.86121" width="17.56607" height="11.17841"/><rect class="cls-17" x="1109.06212" y="86.23345" width="17.56607" height="14.37224"/><rect class="cls-17" x="1129.82203" y="86.23345" width="17.56607" height="14.37224"/><rect class="cls-18" x="1101.07754" y="234.74662" width="19.16299" height="25.55065"/><rect class="cls-18" x="1083.51147" y="202.80831" width="19.16299" height="25.55065"/><rect class="cls-19" x="1406.88692" y="319.38316" width="134.14093" height="260.29728"/><rect class="cls-20" x="1420.46071" y="336.15078" width="119.76869" height="47.90747"/><rect class="cls-21" x="1439.6237" y="348.92611" width="100.6057" height="19.16299"/><rect class="cls-22" x="1410.87921" y="398.4305" width="126.15635" height="4.79075"/><path class="cls-22" d="M1538.63248,476.67937v-4.79075h-7.98458V412.80274h6.38766V408.012H1410.87921v4.79075h6.38766V580.4789h3.19383v-7.98458h116.57485v-4.79075H1420.46071V556.52516h118.17177v-4.79075H1420.46071v-60.6828h27.14757V550.1375h3.19383V491.05161h22.35682V550.1375h3.19383V491.05161h23.95374V550.1375h3.19383V491.05161h23.95374V550.1375h3.19383V491.05161h7.98458v-4.79075H1420.46071v-9.58149Zm-11.17841-63.87663v59.08589h-23.95374V412.80274Zm-27.14757,0v59.08589h-23.95374V412.80274Zm-27.14757,0v59.08589h-22.35682V412.80274Zm-25.55065,0v59.08589h-27.14757V412.80274Z"/><rect class="cls-23" x="1481.94197" y="406.41507" width="146.91625" height="174.06382"/><rect class="cls-24" x="1484.33734" y="429.57035" width="138.93168" height="3.19383"/><rect class="cls-24" x="1498.70958" y="440.74876" width="3.19383" height="35.13215"/><rect class="cls-24" x="1521.0664" y="440.74876" width="3.19383" height="35.13215"/><rect class="cls-24" x="1540.22939" y="440.74876" width="3.19383" height="35.13215"/><rect class="cls-24" x="1560.9893" y="440.74876" width="3.19383" height="35.13215"/><rect class="cls-24" x="1580.15229" y="440.74876" width="3.19383" height="35.13215"/><rect class="cls-24" x="1599.31528" y="440.74876" width="3.19383" height="35.13215"/><rect class="cls-24" x="1484.33734" y="483.86549" width="138.93168" height="3.19383"/><rect class="cls-24" x="1498.70958" y="495.0439" width="3.19383" height="35.13215"/><rect class="cls-24" x="1521.0664" y="495.0439" width="3.19383" height="35.13215"/><rect class="cls-24" x="1540.22939" y="495.0439" width="3.19383" height="35.13215"/><rect class="cls-24" x="1560.9893" y="495.0439" width="3.19383" height="35.13215"/><rect class="cls-24" x="1580.15229" y="495.0439" width="3.19383" height="35.13215"/><rect class="cls-24" x="1599.31528" y="495.0439" width="3.19383" height="35.13215"/><rect class="cls-24" x="1484.33734" y="533.36988" width="138.93168" height="3.19383"/><rect class="cls-24" x="1498.70958" y="544.54829" width="3.19383" height="35.13215"/><rect class="cls-24" x="1521.0664" y="544.54829" width="3.19383" height="35.13215"/><rect class="cls-24" x="1540.22939" y="544.54829" width="3.19383" height="35.13215"/><rect class="cls-24" x="1560.9893" y="544.54829" width="3.19383" height="35.13215"/><rect class="cls-24" x="1580.15229" y="544.54829" width="3.19383" height="35.13215"/><rect class="cls-24" x="1599.31528" y="544.54829" width="3.19383" height="35.13215"/><polygon class="cls-25" points="1842.845 580.479 1989.761 580.479 1988.164 404.818 1901.931 408.012 1844.442 521.393 1842.845 580.479"/><path class="cls-26" d="M1911.427,580.4789c0-19.163-.0226-39.9229-.0226-39.9229l17.79352-1.24741-.20485-17.91558h57.489l-.00039,7.98458h20.7603s.06326-13.84747,0-17.56607h62.27972V580.4789Z"/><rect class="cls-27" x="2015.22656" y="527.78068" width="19.16299" height="14.37224"/><rect class="cls-27" x="2037.58339" y="527.78068" width="19.16299" height="14.37224"/><path class="cls-27" d="M1930.59,535.76526v25.55065h46.31056V535.76526Zm41.51981,20.75991h-36.72906V540.556h36.72906Z"/><rect class="cls-28" x="2000.85432" y="502.23002" width="73.45813" height="15.96916"/><polygon class="cls-7" points="2206.942 580.479 2468.836 580.479 2468.836 225.964 2375.416 225.964 2377.013 429.57 2354.656 424.78 2356.253 359.306 2333.897 359.306 2333.897 316.189 2300.361 330.562 2301.958 432.764 2206.143 488.656 2206.942 580.479"/><path class="cls-29" d="M2440.53279,524.63675l-42.63329-1.70452,25.58028-37.51816Zm-39.69209-3.186,37.21251,1.48931-14.88531-34.23544Z"/><polygon class="cls-30" points="2381.804 435.958 2458.456 461.509 2458.456 399.229 2381.804 435.958"/><rect class="cls-29" x="2381.80403" y="237.94046" width="81.44271" height="4.79075"/><rect class="cls-29" x="2383.40094" y="265.08803" width="79.84579" height="19.16299"/><rect class="cls-29" x="2383.40094" y="317.78625" width="79.84579" height="19.16299"/><rect class="cls-31" x="2354.65646" y="431.16727" width="3.19383" height="91.0242"/><rect class="cls-31" x="2306.74898" y="447.13643" width="20.75991" height="3.19383"/><rect class="cls-31" x="2306.74898" y="455.12101" width="22.35682" height="3.19383"/><rect class="cls-31" x="2306.74898" y="464.7025" width="39.9229" height="3.19383"/><rect class="cls-31" x="2306.74898" y="472.68708" width="44.71364" height="3.19383"/><rect class="cls-31" x="2306.74898" y="482.26858" width="44.71364" height="3.19383"/><path class="cls-29" d="M2321.12123,348.92611a5.58921,5.58921,0,1,1,5.58921-5.58921A5.596,5.596,0,0,1,2321.12123,348.92611Zm0-9.58149a3.99229,3.99229,0,1,0,3.99229,3.99229A3.99649,3.99649,0,0,0,2321.12123,339.34461Z"/><path class="cls-29" d="M2233.29086,493.447c1.59692-1.59692,65.47355-39.9229,65.47355-39.9229l-4.79075-4.79075-63.87663,39.9229Z"/><path class="cls-29" d="M2251.65539,543.74983h-25.55065V508.61769h25.55065Zm-23.95374-1.59692h22.35682V510.2146h-22.35682Z"/><rect class="cls-31" x="2305.15207" y="493.44699" width="41.51981" height="7.98458"/><rect class="cls-31" x="2306.74898" y="512.60998" width="41.51981" height="7.98458"/><polygon class="cls-4" points="1047.581 580.463 1293.506 580.463 1288.715 158.878 1182.52 162.87 1182.52 196.405 1166.551 207.583 1163.357 477.462 1049.976 479.059 1047.581 580.463"/><rect class="cls-29" x="1193.69866" y="196.40505" width="91.0242" height="4.79075"/><rect class="cls-29" x="1209.66782" y="223.55262" width="41.51981" height="3.19383"/><rect class="cls-29" x="1209.66782" y="300.20458" width="38.32598" height="3.19383"/><rect class="cls-29" x="1209.66782" y="453.5085" width="41.51981" height="4.79075"/><polygon class="cls-29" points="1204.079 462.292 1163.357 462.292 1163.357 460.695 1202.482 460.695 1202.482 227.539 1166.445 227.245 1166.458 225.649 1204.079 225.954 1204.079 462.292"/><polygon class="cls-6" points="1166.285 233.666 1196.892 233.134 1195.296 451.912 1163.357 452.178 1166.285 233.666"/><rect class="cls-32" x="1168.14801" y="236.32795" width="25.55065" height="19.16299"/><rect class="cls-32" x="1168.14801" y="258.68477" width="25.55065" height="22.35682"/><rect class="cls-32" x="1168.14801" y="284.23542" width="25.55065" height="27.14757"/><rect class="cls-32" x="1168.14801" y="314.57682" width="25.55065" height="25.55065"/><rect class="cls-32" x="1168.14801" y="343.32131" width="25.55065" height="19.16299"/><rect class="cls-32" x="1166.55109" y="365.67813" width="27.14757" height="19.16299"/><rect class="cls-32" x="1166.55109" y="388.03495" width="27.14757" height="17.56607"/><rect class="cls-32" x="1164.95418" y="408.79485" width="28.74448" height="20.75991"/><rect class="cls-32" x="1164.95418" y="432.74859" width="28.74448" height="17.56607"/><polygon class="cls-29" points="1256.777 460.694 1291.909 460.694 1291.909 459.098 1258.154 459.098 1258.154 225.942 1289.245 225.648 1289.234 224.051 1256.777 224.357 1256.777 460.694"/><polygon class="cls-6" points="1289.383 232.069 1262.976 231.537 1264.354 450.315 1291.909 450.581 1289.383 232.069"/><rect class="cls-32" x="1265.73184" y="234.73087" width="22.04368" height="19.16299" transform="translate(2553.50735 488.62472) rotate(-180)"/><rect class="cls-32" x="1265.73184" y="257.08769" width="22.04368" height="22.35682" transform="translate(2553.50735 536.5322) rotate(-180)"/><rect class="cls-32" x="1265.73184" y="282.63834" width="22.04368" height="27.14757" transform="translate(2553.50735 592.42425) rotate(-180)"/><rect class="cls-32" x="1265.73184" y="312.97974" width="22.04368" height="25.55065" transform="translate(2553.50735 651.51013) rotate(-180)"/><rect class="cls-32" x="1265.73184" y="341.72423" width="22.04368" height="19.16299" transform="translate(2553.50735 702.61144) rotate(-180)"/><rect class="cls-32" x="1265.73184" y="364.08105" width="23.4214" height="19.16299" transform="translate(2554.88508 747.32508) rotate(-180)"/><rect class="cls-32" x="1265.73184" y="386.43787" width="23.4214" height="17.56607" transform="translate(2554.88508 790.44181) rotate(-180)"/><rect class="cls-32" x="1265.73184" y="407.19777" width="24.79913" height="20.75991" transform="translate(2556.26281 835.15545) rotate(-180)"/><rect class="cls-32" x="1265.73184" y="431.15151" width="24.79913" height="17.56607" transform="translate(2556.26281 879.8691) rotate(-180)"/><polygon class="cls-29" points="1275.94 580.479 1274.359 497.424 1184.913 497.424 1184.516 580.466 1182.919 580.46 1183.322 495.827 1275.924 495.827 1277.537 580.448 1275.94 580.479"/><polygon class="cls-29" points="1265.161 580.468 1264.766 511.815 1197.672 513.376 1196.094 578.087 1194.497 578.049 1196.113 511.813 1266.354 510.18 1266.758 580.459 1265.161 580.468"/><rect class="cls-33" x="1118.64362" y="506.20672" width="3.19383" height="71.86121"/><rect class="cls-33" x="1128.22511" y="506.20672" width="3.19383" height="71.86121"/><rect class="cls-33" x="1136.20969" y="506.20672" width="3.19383" height="71.86121"/><rect class="cls-33" x="1145.79119" y="506.20672" width="3.19383" height="71.86121"/><rect class="cls-33" x="1152.17885" y="506.20672" width="3.19383" height="71.86121"/><rect class="cls-34" x="923.02143" y="358.5076" width="60.6828" height="132.54401"/><polygon class="cls-35" points="745.764 580.479 1085.907 580.479 1087.504 400.027 1019.635 400.826 1019.635 289.042 981.309 320.98 981.309 480.672 938.192 482.269 938.192 435.958 885.494 435.958 885.494 443.943 853.556 443.943 851.959 260.297 746.562 265.088 745.764 580.479"/><rect class="cls-36" x="756.14373" y="273.0726" width="91.0242" height="79.84579"/><path class="cls-37" d="M819.2219,471.88862h-9.58149V460.71021h9.58149Zm-7.98458-1.59692H817.625v-7.98458h-6.38766Z"/><path class="cls-37" d="M841.57872,465.501h-7.98458V454.32255h7.98458Zm-6.38766-1.59692h4.79075v-7.98458h-4.79075Z"/><rect class="cls-37" x="927.01372" y="419.98886" width="3.19383" height="15.96916"/><rect class="cls-37" x="903.05998" y="421.58578" width="3.19383" height="14.37224"/><rect class="cls-37" x="895.0754" y="418.39194" width="3.19383" height="17.56607"/><rect class="cls-38" x="986.09961" y="359.30606" width="28.74448" height="1.59692"/><rect class="cls-38" x="986.09961" y="364.09681" width="30.3414" height="1.59692"/><rect class="cls-38" x="986.09961" y="399.22895" width="28.74448" height="3.19383"/><rect class="cls-38" x="990.89035" y="408.81045" width="89.42729" height="3.19383"/><path class="cls-38" d="M1045.98395,449.5318H996.47956V420.78732h49.50439Zm-47.90747-1.59692H1044.387V422.38423H998.07647Z"/><rect class="cls-38" x="1051.57315" y="419.98886" width="25.55065" height="3.19383"/><rect class="cls-38" x="1051.57315" y="429.57035" width="25.55065" height="1.59692"/><rect class="cls-38" x="1051.57315" y="439.15185" width="25.55065" height="3.19383"/><rect class="cls-38" x="1051.57315" y="447.13643" width="25.55065" height="1.59692"/><rect class="cls-38" x="987.69652" y="455.12101" width="92.62112" height="1.59692"/><rect class="cls-38" x="987.69652" y="464.7025" width="95.81495" height="3.19383"/><rect class="cls-37" x="861.54017" y="464.7025" width="19.16299" height="1.59692"/><rect class="cls-37" x="885.49391" y="461.50867" width="51.10131" height="1.59692"/><rect class="cls-37" x="885.49391" y="445.53951" width="1.59692" height="75.05504"/><rect class="cls-37" x="903.05998" y="466.29942" width="3.19383" height="20.75991"/><rect class="cls-37" x="922.22297" y="466.29942" width="1.59692" height="20.75991"/><rect class="cls-37" x="891.88157" y="475.88091" width="7.98458" height="9.58149"/><rect class="cls-37" x="853.55559" y="448.73334" width="4.79075" height="75.05504"/><path class="cls-37" d="M788.082,574.88969c1.59692,0,94.218-46.31056,94.218-46.31056l-3.19383-4.79075L775.30672,574.88969Z"/><rect class="cls-37" x="863.13709" y="482.26858" width="17.56607" height="3.19383"/><rect class="cls-37" x="863.13709" y="504.6254" width="17.56607" height="3.19383"/><polygon class="cls-8" points="383.264 580.479 635.577 580.479 625.995 189.235 575.692 188.436 564.514 6.388 500.637 63.877 505.428 327.368 489.459 325.771 384.062 400.826 383.264 580.479"/><polygon class="cls-9" points="511.816 91.024 559.723 59.086 559.723 25.551 511.816 70.264 511.816 91.024"/><path class="cls-9" d="M559.72308,75.055l-49.50439,31.93832,6.38766,130.9471L566.11075,190.033ZM522.994,210.79289l-3.19383-102.20261,3.19383-1.59692L526.18785,209.196Zm11.17841-11.17841L530.9786,100.6057s3.19383-1.59692,3.19383,0,3.19383,97.41186,3.19383,97.41186Zm15.96916-17.56607-3.19383,3.19383V95.81495h3.19383Z"/><path class="cls-39" d="M531.73339,331.36H498.55684L533.48,362.79151Zm-29.01584,1.59692h27.50625l1.44721,26.05749Z"/><path class="cls-39" d="M504.62949,392.84051l-.02651.00078.02651.79846v17.63469l20.73183-1.72635,1.625-42.22626.014-.38987-22.37086-18.92907Zm19.8016-.64329-18.20468.591V378.22109l18.72828.36492ZM506.2264,409.54029V394.38674l18.14308-.58949-.54894,14.27555Zm19.149-41.891-.35927,9.33977-18.78969-.3657V351.44624Z"/><polygon class="cls-39" points="423.985 567.704 422.388 567.704 422.388 392.841 438.357 392.841 438.357 384.857 452.608 384.857 451.011 373.678 463.908 373.678 463.908 360.962 485.406 359.309 485.527 360.9 465.505 362.441 465.505 375.275 452.851 375.275 454.448 386.454 439.954 386.454 439.954 394.438 423.985 394.438 423.985 567.704"/><rect class="cls-40" x="522.99402" y="434.3611" width="14.37224" height="19.16299"/><rect class="cls-40" x="508.62178" y="456.71792" width="14.37224" height="17.56607"/><rect class="cls-11" x="569.30458" y="209.19597" width="19.16299" height="44.71364"/><rect class="cls-11" x="593.25832" y="206.00214" width="17.56607" height="57.48897"/><rect class="cls-39" x="491.0557" y="330.56157" width="3.19383" height="92.62112"/><rect class="cls-39" x="470.2958" y="389.64746" width="3.19383" height="108.59028"/><rect class="cls-39" x="459.11739" y="399.22895" width="3.19383" height="89.42729"/><rect class="cls-39" x="447.93898" y="408.81045" width="3.19383" height="79.84579"/><path class="cls-40" d="M491.0557,511.01306s51.10131,30.3414,51.10131,28.74448-6.38766-62.27972-6.38766-62.27972Z"/><polyline class="cls-11" points="575.692 360.903 574.095 349.725 538.963 375.275 538.963 381.663 556.529 381.663 575.692 362.5"/><polygon class="cls-11" points="538.963 360.903 543.754 360.903 570.901 343.337 570.901 338.546 538.963 360.903"/><path class="cls-11" d="M534.17243,328.96466h3.19383v-1.59692h31.93832v-3.19383s-35.13215-1.59692-35.13215,0Z"/><polygon class="cls-11" points="561.32 381.663 575.692 381.663 578.886 368.888 561.32 381.663"/><polygon class="cls-7" points="582.878 580.479 748.958 580.479 748.159 333.755 705.042 317.786 705.042 351.321 684.283 351.321 684.283 397.632 665.12 400.826 665.12 252.313 582.08 252.313 582.878 580.479"/><rect class="cls-41" x="585.27374" y="257.10345" width="75.05504" height="4.79075"/><rect class="cls-42" x="586.87065" y="277.86335" width="75.05504" height="12.77533"/><rect class="cls-42" x="586.87065" y="319.38316" width="75.05504" height="12.77533"/><rect class="cls-41" x="713.027" y="413.6012" width="30.3414" height="3.19383"/><rect class="cls-41" x="711.43009" y="419.98886" width="31.93832" height="3.19383"/><rect class="cls-41" x="693.86401" y="427.97344" width="49.50439" height="1.59692"/><rect class="cls-41" x="689.07326" y="434.3611" width="54.29514" height="1.59692"/><rect class="cls-41" x="692.2671" y="442.34568" width="52.69822" height="1.59692"/><rect class="cls-41" x="682.6856" y="402.42279" width="3.19383" height="175.66074"/><path class="cls-41" d="M742.56994,491.05161H694.66247V449.5318h47.90747Zm-46.31056-1.59692H740.973v-38.326H696.25939Z"/><path class="cls-41" d="M718.61621,342.53844c-3.52288,0-6.38766-2.50766-6.38766-5.58921s2.86478-5.58921,6.38766-5.58921,6.38766,2.50766,6.38766,5.58921S722.13909,342.53844,718.61621,342.53844Zm0-9.58149c-2.64177,0-4.79075,1.79029-4.79075,3.99229s2.149,3.99229,4.79075,3.99229,4.79075-1.79029,4.79075-3.99229S721.258,332.95695,718.61621,332.95695Z"/><path class="cls-43" d="M646.03763,471.88862h-36.5045l13.906-27.81347Zm-33.922-1.59692h30.566l-18.92127-23.28784Z"/><path class="cls-41" d="M727.36961,478.27629H702.10123l10.82909-19.8554Zm-22.57983-1.59692H724.235l-11.11135-15.27675Z"/><polygon class="cls-44" points="593.258 426.377 660.329 405.617 593.258 380.066 593.258 426.377"/></g></g></g></svg>