<svg xmlns="http://www.w3.org/2000/svg" viewBox="0 0 1920.24471 456.67484"><defs><style>.cls-1{fill:#7487a2;}.cls-2,.cls-3{fill:none;stroke-miterlimit:10;}.cls-2{stroke:#d5cda0;stroke-width:3px;}.cls-3{stroke:#d5d5de;stroke-width:7px;}.cls-4{fill:#f6a39e;}.cls-5,.cls-8{fill:#b2a3b2;}.cls-5,.cls-7{opacity:0.7;}.cls-6{fill:#637965;}.cls-9{fill:#83aaa3;}.cls-10{fill:#5b7566;}</style></defs><title>資產 10</title><g id="圖層_2" data-name="圖層 2"><g id="圖層_1-2" data-name="圖層 1"><path class="cls-1" d="M1917.85442,23.1962c-68.90165-3.92665-919.16213-50.16979-1908.32195,0H8.0152c-2.39877.14157-4.77259.28439-7.15086.427V252H1919.8591V23.1962Z"/><path class="cls-2" d="M.1178,103.5593S1093.88326,17.39446,1919.11257,100.131"/><path class="cls-3" d="M1.123,220.26563s1093.76545-31.18372,1918.99476-1.24074"/><path class="cls-4" d="M1918.11191,252.681c-68.93774-3.50087-919.64362-44.72972-1909.32159,0H7.27225c-2.4.12622-4.77509.25355-7.1546.38069V456.67484h1920V252.681Z"/><path class="cls-5" d="M1229.39341,263.62833a12.61556,12.61556,0,0,0-1.28123,5.94566c0,9.1762-6.05555,13.18211-6.313,13.34829a1.70585,1.70585,0,0,1-1.29987.16655c-.44494-.11891-.73612-.39913-.73612-.70973a62.68314,62.68314,0,0,0-1.97193-13.959,15.46375,15.46375,0,0,0-1.43032-3.91776,4.21684,4.21684,0,0,0-.17588,1.23c0,9.34838-2.80473,17.45061-8.11018,23.43041-3.16463,3.5674-3.7144,3.97065-4.91642,3.59215-1.31967-.41676-1.428-.4509,4.05334-8.98189.9516-1.48173,1.90321-2.96308,2.6964-4.24036,2.21653-3.56777,1.84264-3.92.27139-5.404a19.15947,19.15947,0,0,1-4.27348-5.59455c-.70118-1.35606-1.26609-2.44729-1.68074-3.18215a8.27782,8.27782,0,0,1-2.30621,2.20421c-3.80991,2.454-15.58091,16.33163-15.69971,16.47155a1.513,1.513,0,0,1-1.3418.37662c-.5288-.087-.898-.3935-.898-.74461,0-.284.17238-2.95858,6.13359-9.35888,4.45285-4.78016,1.75878-7.0894.714-7.73649-2.1513.32786-10.27546,1.71993-16.868,4.9047-5.31011,2.56545-17.4154,14.96731-22.97593,21.40851a6.98407,6.98407,0,0,1-2.74067,4.13045,2.16562,2.16562,0,0,1-1.63415.37512,1.11073,1.11073,0,0,1-.86075-.64821c-.13162-.50566,1.05294-2.20571,3.00856-4.524.23644-.77612.45775-1.64453.69885-2.594a53.34431,53.34431,0,0,1,6.77654-16.48693c3.55017-5.71646,11.03488-12.43375,26.49116-12.01736.19684.00563.35175.01013.46124.01013,1.59688,0,5.06085-.82714,9.07227-1.7852,6.78586-1.62052,15.25245-3.642,22.34-3.642a20.08259,20.08259,0,0,1,9.09323,1.75406C1229.822,260.60936,1230.5605,261.11015,1229.39341,263.62833Z"/><path class="cls-6" d="M1228.58507,235.39874c-1.46992-.3238-2.26312,1.3616-3.67247,4.42257-.32613.70817-.66158,1.43847-.99819,2.11053a39.23114,39.23114,0,0,0-1.803,4.963c-.99586,3.12154-2.50306,7.83879-3.99627,8.46892a.57459.57459,0,0,1-.55209-.04892,14.74459,14.74459,0,0,0-2.53567-.90851c-3.22054-.9318-6.26288-1.81236-4.76734-13.78137,2.03715-16.2949,2.008-22.27475-2.10355-30.5014-2.10121-4.2001-2.14431-4.28746-3.23219-3.87747-1.06342.39252-.8328,1.315-.48337,2.71271a41.24674,41.24674,0,0,1,1.45594,9.65115c0,21.845-.86891,27.83062-1.60037,28.92433-1.22532.3471-7.0025-1.72151-11.82807-4.977-3.21589-2.16877-4.06616-3.60841-4.06616-4.06732,0-3.86582,1.96028-21.55843,1.98008-21.73663a1.193,1.193,0,0,0-2.08374-.91666c-.5917.67556-14.41383,16.67811-8.0764,27.24242,1.63881,2.73135,3.41389,5.29613,4.98049,7.56042,1.76926,2.5578,3.94269,5.698,4.14652,6.8406a6.53731,6.53731,0,0,1-1.85079-.26673c-7.48354-1.87176-9.29357-3.56648-13.213-9.445-1.33481-2.00221-2.8385-3.02137-4.26882-2.90024a2.608,2.608,0,0,0-2.15712,1.6854c-.88638,2.08957-.23994,6.63327,4.50177,12.56187,8.31052,10.38727,18.5487,10.38727,26.77536,10.38727,7.94595,0,21.46524-1.91835,22.03714-1.99988a1.19732,1.19732,0,0,0,.67439-.33778c4.27581-4.27581,8.3012-18.65935,8.3012-26.688C1230.14934,237.26817,1229.91522,235.68993,1228.58507,235.39874Z"/><path class="cls-5" d="M1378.09243,357.09724c1.46992.19172,2.26312-.8062,3.67247-2.61859.32613-.41931.66158-.85171.99819-1.24964a18.51541,18.51541,0,0,0,1.803-2.93859c.99586-1.84826,2.50306-4.64133,3.99627-5.01443a.9285.9285,0,0,1,.55209.029,22.17053,22.17053,0,0,0,2.53567.53793c3.22054.55172,6.26288,1.07309,4.76734,8.15991-2.03715,9.64817-2.008,13.18882,2.10354,18.0598,2.10122,2.48687,2.14431,2.53859,3.23219,2.29584,1.06342-.23241.8328-.77861.48337-1.60619a15.51614,15.51614,0,0,1-1.45594-5.71442c0-12.93434.86891-16.47844,1.60037-17.126,1.22532-.20552,7.0025,1.0193,11.82807,2.94686,3.21589,1.28412,4.06616,2.13653,4.06616,2.40825,0,2.28894-1.96028,12.76469-1.98008,12.87021-.05707.30689.22829.6.70468.72413a1.79539,1.79539,0,0,0,1.37907-.18138c.5917-.4,14.41383-9.87507,8.0764-16.13017-1.63881-1.61722-3.41389-3.13583-4.98049-4.4765-1.76926-1.51447-3.94269-3.37376-4.14652-4.0503a10.82994,10.82994,0,0,1,1.85079.15793c7.48354,1.10826,9.29357,2.1117,13.213,5.59235a6.07553,6.07553,0,0,0,4.26882,1.71722,2.78652,2.78652,0,0,0,2.15712-.99792c.88638-1.23723.23994-3.92754-4.50177-7.43785-8.31052-6.15028-18.5487-6.15028-26.77536-6.15028-7.946,0-21.46525,1.13585-22.03714,1.18413a1.61431,1.61431,0,0,0-.67439.2c-4.27581,2.5317-8.3012,11.04816-8.3012,15.8019C1376.52816,355.99036,1376.76228,356.92483,1378.09243,357.09724Z"/><path class="cls-6" d="M1377.63235,337.46411a28.76417,28.76417,0,0,0,1.28123-9.23067c0-14.2461,6.05555-20.4653,6.313-20.7233a1.1926,1.1926,0,0,1,2.036.84328,148.73455,148.73455,0,0,0,1.97193,21.67141,33.1483,33.1483,0,0,0,1.43032,6.08234,9.94244,9.94244,0,0,0,.17588-1.90961c0-14.51341,2.80473-27.09217,8.11018-36.37584,3.16464-5.5384,3.7144-6.16446,4.91643-5.57684,1.31967.647,1.428.7-4.05334,13.94443-.9516,2.30039-1.90321,4.60019-2.69641,6.58319-2.21653,5.539-1.84264,6.08584-.27139,8.38972a31.52533,31.52533,0,0,1,4.27348,8.68557c.70118,2.10529,1.26609,3.79943,1.68074,4.9403a11.62311,11.62311,0,0,1,2.30621-3.422c3.80991-3.80991,15.58091-25.35494,15.69971-25.57217a1.1927,1.1927,0,0,1,2.23982.57131c0,.44086-.17238,4.59321-6.13359,14.52972-4.45285,7.42123-1.75878,11.00634-.714,12.01094,2.1513-.509,10.27546-2.6702,16.868-7.61458,5.31011-3.98288,17.4154-23.23684,22.97593-33.23683.59752-2.895,1.32433-4.99679,2.74067-6.41255a1.642,1.642,0,0,1,1.63415-.58238,1.34672,1.34672,0,0,1,.86075,1.00635c.13162.785-1.05294,3.42438-3.00856,7.02346-.23645,1.20494-.45775,2.55314-.69885,4.02714a112.88688,112.88688,0,0,1-6.77654,25.596c-3.55017,8.87484-11.03488,19.30346-26.49116,18.657-.19684-.00874-.35175-.01572-.46124-.01572-1.59688,0-5.06085,1.28414-9.07227,2.77153-6.78585,2.51587-15.25245,5.6543-22.34,5.6543a14.18875,14.18875,0,0,1-9.09323-2.72319C1377.20372,342.15108,1376.46526,341.3736,1377.63235,337.46411Z"/><g class="cls-7"><path class="cls-8" d="M737.19931,372.8747c-.04059.315-.454.56729-.98059.59914a1.23344,1.23344,0,0,1-1.16217-.46982c-.15061-.31438-3.68841-7.76178-3.68841-13.227,0-2.99157-3.08169-5.75763-6.64939-8.96006a52.51387,52.51387,0,0,1-7.84682-8.18032,12.89836,12.89836,0,0,0-5.7361-4.88424,30.21027,30.21027,0,0,1,2.31046,3.33367c1.87785,3.363,1.87785,7.728,1.87785,13.2544a49.91739,49.91739,0,0,1-1.49865,9.02886,11.57191,11.57191,0,0,1-.33861,4.12615,103.29764,103.29764,0,0,1-3.66491,10.92408,1.24637,1.24637,0,0,1-1.28822.4797c-.57681-.07326-.95174-.40548-.8492-.7514.03525-.12008,2.3361-7.922,3.93729-14.81994-.49991-5.06134-3.82407-9.75892-3.86573-9.81817a.46083.46083,0,0,1-.05555-.09874c-.3995-.95294-1.30531-3.15123-2.28269-5.76233-.28307-.205-.57949-.4265-.88445-.66022a31.19352,31.19352,0,0,0,1.61829,3.88392c1.84688,3.30245-1.39611,21.0939-1.7721,23.11174-.06409.34432-.54584.60074-1.14829.57939-.579-.01911-1.03293-.30515-1.03293-.65138V363.03869c0-3.43177-1.14081-7.34579-2.20044-10.5667q-.13779.56188-.29161,1.18236c-.23286.93455-.48816,1.95892-.70072,2.89092.60459,1.88438.53622,3.12854-.41018,3.693a1.8986,1.8986,0,0,1-1.473.17073c-.87056-.26119-1.03079-.7205-.33007-3.8312a54.79031,54.79031,0,0,0-3.65316-7.46746c-.22752-.4058-.48175-.82752-.752-1.25435-.06943,1.50152-.2147,3.305-.40377,5.441-.18479,2.09015-.36,4.06436-.36,5.3926,0,3.3394-8.36275,17.99912-9.96394,18.42148a1.71128,1.71128,0,0,1-1.18354-.11435c-.55545-.301-.36425-.6431-.09934-1.11642a73.84207,73.84207,0,0,0,3.62111-8.40583c.60779-1.57159,1.21558-3.14319,1.82444-4.59374.85561-2.043.43475-5.4321-.01068-9.01995-.46893-3.77514-.95388-7.67833-.00107-10.52147a34.04319,34.04319,0,0,0,1.802-9.65763.3928.3928,0,0,1,.03311-.158,5.68444,5.68444,0,0,1,5.11015-3.46808q.25-.01624.50311-.01656c.21577,0,.43208.01545.64838.03273-.39309-.83143-.66975-1.4105-.7552-1.58967-4.3165-5.16454-3.04-5.92517-2.62023-6.17617a2.17377,2.17377,0,0,1,1.12479-.27074,4.19251,4.19251,0,0,1,1.19208.19175c3.74289,1.11674,7.61289,2.27107,9.59862,4.639,1.13013,1.348,9.54094,5.01738,14.56671,7.2101,2.96953,1.29512,4.67861,2.04556,5.2832,2.40613,1.13333.67591.90154,1.56522.67616,2.42587a3.56024,3.56024,0,0,0,1.28288,4.1975,60.44532,60.44532,0,0,1,5.54063,6.05322,59.69285,59.69285,0,0,0,5.39856,5.90734C738.94364,358.41819,737.38837,371.405,737.19931,372.8747Z"/><path class="cls-8" d="M680.19719,345.6849c-.50738,4.08283-1.28074,4.54406-1.65674,4.76766a1.87156,1.87156,0,0,1-1.53283.16181c-.96243-.33126-.95709-.71477,1.0169-5.13141a95.9759,95.9759,0,0,0,.47213-10.71385c0-.60647-.9934-1.07533-1.58517-1.30085a10.21769,10.21769,0,0,0-3.56664-.64405c-.27986.77656-1.83406,2.54755-5.70726,6.74505-.83318.90333-1.724,1.86846-2.41087,2.63737a3.9944,3.9944,0,0,1-1.27113,1.72194,1.78637,1.78637,0,0,1-1.62149.13378c-.71781-.32107-.89193-.39879.94747-2.45773a43.08177,43.08177,0,0,0,2.4536-11.18527c0-2.07422,2.87446-4.90653,3.64568-5.62958v-1.98122c0-.22615.19654-.43574.51913-.55487a1.67356,1.67356,0,0,1,.57468-.09747,1.73218,1.73218,0,0,1,.48922.0688c.76268.22743,7.50607,2.25451,9.39994,3.384,2.23462,1.3327,3.9672,6.01818,3.9672,9.1601,0,1.75825-1.90028,5.96594-3.57625,9.67865C680.57105,344.85483,680.382,345.2721,680.19719,345.6849Z"/><path class="cls-8" d="M658.77387,346.887a1.206,1.206,0,0,1-1.19422.48925c-.548-.04013-.96029-.31789-.96029-.64724v-7.6108a4.25265,4.25265,0,0,0-1.42067-3.57128,1.11868,1.11868,0,0,0-.03845.309c0,2.15194-4.3667,7.53818-9.23117,13.33976l-5.46906,6.524a1.43013,1.43013,0,0,1-1.22947.34337c-.4935-.06944-.84279-.33254-.84279-.63514,0-.49116.02136-12.08733,1.84367-17.52516,1.86931-5.57543,7.4815-7.04829,10.18826-7.04829a1.85261,1.85261,0,0,1,.2147.01274l9.11581,1.08744a1.28483,1.28483,0,0,1,.69538.27775c.16129.144,3.92127,3.56746,1.95049,7.09224C660.60792,342.52451,658.792,346.84369,658.77387,346.887Z"/></g><path class="cls-6" d="M727.355,268.63129a1.09406,1.09406,0,0,0-2.14276-.21684c-.15061.52714-3.68841,13.01465-3.68841,22.17853,0,5.01615-3.08169,9.65417-6.64939,15.02389a84.61685,84.61685,0,0,0-7.84682,13.71644c-2.11659,4.938-4.14986,7.19216-5.7361,8.1897a60.06387,60.06387,0,0,0,2.31046-5.58976c1.87785-5.6389,1.87785-12.958,1.87785-22.22446a136.73976,136.73976,0,0,0-1.49865-15.13925,32.1586,32.1586,0,0,0-.33861-6.91857c-1.80949-10.8564-3.64568-18.24337-3.66491-18.31707a1.09338,1.09338,0,0,0-2.13742.45558c.03525.20135,2.3361,13.2833,3.93729,24.8495a56.43571,56.43571,0,0,1-3.86573,16.46272,1.0051,1.0051,0,0,0-.05555.16557c-.3995,1.59786-1.30531,5.28386-2.28269,9.662-.28307.34382-.57949.71514-.88445,1.107.61847-2.84175,1.17553-5.18225,1.61829-6.5124,1.84688-5.53742-1.39611-35.36942-1.7721-38.75287a1.07733,1.07733,0,0,0-1.14829-.97151,1.09407,1.09407,0,0,0-1.03293,1.09221v18.23215a97.22179,97.22179,0,0,1-2.20044,17.71783q-.13779-.94213-.29161-1.98253c-.23286-1.567-.48816-3.28464-.70072-4.84738.60459-3.15966.53622-5.24581-.41018-6.19221a1.24424,1.24424,0,0,0-1.473-.28627c-.87056.438-1.03079,1.20811-.33007,6.424a126.69821,126.69821,0,0,1-3.65316,12.52115c-.22752.68043-.48175,1.38756-.752,2.10324-.06943-2.51769-.2147-5.54169-.40377-9.12329-.18479-3.50468-.36-6.815-.36-9.0421,0-5.59938-8.36275-30.18023-9.96394-30.88843a1.10331,1.10331,0,0,0-1.18354.19174c-.55545.50471-.36425,1.07832-.09934,1.872,1.19956,3.60029,2.43117,8.93529,3.62111,14.09457.60779,2.63519,1.21558,5.27038,1.82444,7.70261.85561,3.42564.43475,9.10833-.01068,15.1243-.46893,6.33-.95388,12.87472-.00107,17.642a92.91819,92.91819,0,0,1,1.802,16.19354,1.05287,1.05287,0,0,0,.03311.26491c1.175,4.701,3.7055,5.66133,5.11015,5.81515a4.64094,4.64094,0,0,0,.50311.02777,4.90152,4.90152,0,0,0,.64838-.05488c-.39309,1.3941-.66975,2.36507-.7552,2.6655-4.3165,8.6597-3.04,9.9351-2.62023,10.356a1.556,1.556,0,0,0,1.12479.454,2.68457,2.68457,0,0,0,1.19208-.32152c3.74289-1.87251,7.61289-3.808,9.59862-7.77845,1.13013-2.26026,9.54094-8.41295,14.56671-12.08961,2.96953-2.1716,4.67861-3.42991,5.2832-4.0345,1.13333-1.13333.90154-2.62451.67615-4.06761a8.76317,8.76317,0,0,1,1.28288-7.03821,100.71985,100.71985,0,0,0,5.54063-10.1498,99.55734,99.55734,0,0,1,5.39856-9.90519C729.09933,292.87139,727.54407,271.09557,727.355,268.63129Z"/><path class="cls-6" d="M670.35289,314.22208c-.50738-6.84594-1.28074-7.6193-1.65674-7.99422a1.22921,1.22921,0,0,0-1.53283-.27132c-.96243.55545-.95709,1.19849,1.0169,8.60415.27879,3.97468.47213,9.82615.47213,17.96457,0,1.0169-.9934,1.80308-1.58517,2.18121a6.64093,6.64093,0,0,1-3.56664,1.07993c-.27986-1.30211-1.83406-4.27163-5.70726-11.30984-.83318-1.51467-1.724-3.133-2.41087-4.42225a7.43138,7.43138,0,0,0-1.27113-2.88728,1.17852,1.17852,0,0,0-1.62149-.22432c-.71781.53836-.89193.66868.94747,4.121a115.59667,115.59667,0,0,1,2.4536,18.755c0,3.478,2.87446,8.22709,3.64568,9.43947v3.322a1.094,1.094,0,0,0,1.583.97845c.76268-.38134,7.50607-3.78027,9.39994-5.67415,2.23462-2.23462,3.9672-10.09105,3.9672-15.35929,0-2.94816-1.90028-10.00346-3.57625-16.22879C670.72675,315.61392,670.53768,314.91426,670.35289,314.22208Z"/><path class="cls-6" d="M648.92956,312.20644a1.09356,1.09356,0,0,0-2.15451.26491v12.76149c0,3.49721-.87911,5.36972-1.42067,5.98819a3.08513,3.08513,0,0,1-.03845-.51807c0-3.6083-4.3667-12.63972-9.23117-22.36759l-5.46906-10.93918a1.09379,1.09379,0,0,0-2.07226.48922c0,.82356.02136,20.26756,1.84367,29.38551,1.86931,9.34867,7.4815,11.81829,10.18826,11.81829a1.11711,1.11711,0,0,0,.2147-.02136l9.11581-1.82338a1.09383,1.09383,0,0,0,.69538-.46572c.16129-.24141,3.92127-5.98178,1.95049-11.892C650.76362,319.5213,648.94772,312.27907,648.92956,312.20644Z"/><path class="cls-5" d="M418.90323,338.11909c-1.348.17582-2.07546-.73935-3.368-2.40147-.29909-.38454-.60672-.78109-.91543-1.146a16.98011,16.98011,0,0,1-1.65354-2.69493c-.91329-1.695-2.29551-4.25648-3.66491-4.59865a.85151.85151,0,0,0-.50632.02656,20.33224,20.33224,0,0,1-2.32542.49332c-2.9535.506-5.74358.98411-4.372,7.48331,1.86824,8.84817,1.84153,12.09524-1.92912,16.56233-1.927,2.28067-1.96651,2.3281-2.96419,2.10547-.97524-.21314-.76375-.71405-.44329-1.473a14.22958,14.22958,0,0,0,1.33522-5.2406c0-11.86186-.79686-15.11209-1.46767-15.706-1.12372-.18847-6.42187.93478-10.84732,2.70252-2.94923,1.17765-3.729,1.95937-3.729,2.20856,0,2.09915,1.79774,11.70628,1.8159,11.803.05234.28145-.20936.55024-.64625.66409a1.64652,1.64652,0,0,1-1.26472-.16634c-.54263-.36683-13.21867-9.05625-7.40673-14.7927,1.50292-1.48313,3.13082-2.87581,4.56752-4.10532,1.62256-1.38889,3.61577-3.094,3.8027-3.71446a9.93194,9.93194,0,0,0-1.69733.14483c-6.863,1.01637-8.523,1.9366-12.11738,5.12865a5.57176,5.57176,0,0,1-3.91486,1.57484,2.55547,2.55547,0,0,1-1.97826-.91518c-.81288-1.13464-.22-3.60188,4.1285-6.82112,7.62143-5.64031,17.01069-5.64031,24.55522-5.64031,7.28709,0,19.6854,1.04167,20.20988,1.08594a1.48045,1.48045,0,0,1,.61847.18341c3.92127,2.32178,7.61289,10.13207,7.61289,14.49165C420.33779,337.104,420.12308,337.961,418.90323,338.11909Z"/><path class="cls-6" d="M419.32516,320.11388a26.37911,26.37911,0,0,1-1.175-8.46529c0-13.06485-5.55344-18.76838-5.78951-19.005a1.09372,1.09372,0,0,0-1.86717.77336,136.40185,136.40185,0,0,1-1.80842,19.87447,30.39971,30.39971,0,0,1-1.31172,5.578,9.118,9.118,0,0,1-.16129-1.75127c0-13.31-2.57217-24.84576-7.43771-33.35965-2.90223-5.07917-3.40641-5.65332-4.50877-5.11442-1.21024.59337-1.30958.642,3.71725,12.7882.8727,2.10965,1.7454,4.21876,2.47283,6.03733,2.03274,5.07971,1.68985,5.58122.24888,7.69407a28.91132,28.91132,0,0,0-3.91914,7.96538c-.643,1.93073-1.16111,3.48439-1.54138,4.53067a10.65934,10.65934,0,0,0-2.115-3.1383c-3.494-3.494-14.289-23.25258-14.39794-23.45179a1.0938,1.0938,0,0,0-2.0541.52394c0,.4043.15809,4.21235,5.625,13.325,4.08363,6.80588,1.61294,10.09372.65479,11.015a45.01359,45.01359,0,0,1-15.46932-6.9832c-4.86981-3.65263-15.97136-21.3101-21.07083-30.48092-.548-2.65495-1.21452-4.58247-2.51342-5.88084a1.50588,1.50588,0,0,0-1.49865-.53409,1.23506,1.23506,0,0,0-.78938.9229c-.1207.72.96563,3.14044,2.7591,6.4411.21684,1.105.41979,2.34144.64091,3.69322a103.5266,103.5266,0,0,0,6.21464,23.47369c3.2558,8.139,10.11989,17.70287,24.29458,17.11.18052-.008.32259-.01442.423-.01442,1.46447,0,4.64122,1.17766,8.32,2.54172,6.22319,2.30726,13.98776,5.18546,20.4876,5.18546a13.01226,13.01226,0,0,0,8.33925-2.49739C419.71824,324.41222,420.39547,323.69921,419.32516,320.11388Z"/><path class="cls-9" d="M1828.31988,390.21151s13.06411,6.53205,16.98334,3.91923,5.22564-20.90257,5.22564-35.27309-2.61282-24.82181,3.91923-24.82181,23.51539,1.30641,27.43463-10.45129,3.91923-41.80515,2.61282-47.03079-3.91923-6.53205-9.14487-5.22564-6.53205,2.61282-6.53205,15.67693,2.61282,20.90257-1.30641,24.8218-10.45129,9.14488-13.06411,3.91923-3.91923-41.80515-3.91923-61.40131-1.30641-35.27309-3.91923-37.88591-13.06411-1.30641-11.7577,6.53205,0,48.3372-1.30641,52.25643-6.53205,3.91923-6.53205-5.22564,1.30641-20.90257-1.30641-23.51539-9.14488,0-9.14488,9.14488-1.30641,26.12822,2.61282,32.66027,9.79808,7.18526,11.10449,5.87885,6.53205,23.51539,1.30641,26.12822-13.06411,5.22564-16.98334-6.53205,1.30641-43.11156-3.91923-45.72438-13.06411-2.61282-14.37052,11.7577-1.30641,39.19232,5.22564,48.3372,19.59616,10.45129,22.209,11.7577,3.91923,6.53205,3.91923,14.37052S1826.36027,385.63908,1828.31988,390.21151Z"/><path class="cls-5" d="M1827.99922,389.87345s17.03415-1.6621,18.49989-.63119-11.92952,7.20134-23.38369,12.00845-22.15,8.1986-16.23616,8.46007,22.33117.50431,16.50789,4.59428-29.7729,14.1412-35.12083,15.83695-8.75475,2.02816-12.44455,1.382-3.83128-1.1355,6.5816-5.5056,19.02615-6.88757,18.6017-8.35548-2.17315-3.47743-8.70385-1.834-36.86953,13.82743-52.48885,20.38258-29.29755,11.747-33.74567,12.5164-12.869-.08594-5.4385-2.65571,38.52766-16.16937,40.46875-17.53269-2.79-1.57251-10.079,1.48656-15.47784,7.04445-19.926,7.81388-8.2794-.36607-.99038-3.42514,19.643-8.79249,28.39774-10.82066,14.59787-2.01134,14.73935-1.522,24.657-7.6047,22.00853-8.6879-7.66256-2.271-20.58246,1.50521-33.17973,14.47362-39.99339,15.13846-13.91029.35107-3.63889-4.50834,30.05587-13.16259,43.25874-15.96018,26.07187-2.71165,29.4787-3.04407,8.75475-2.02816,15.00248-4.65022S1822.58055,391.32455,1827.99922,389.87345Z"/><path class="cls-10" d="M1871.43144,322.27815s5.22564,1.30641,6.53205-19.59616-1.30641-27.43463-3.91923-27.43463-4.57244,7.18526-5.87885,18.943a187.80159,187.80159,0,0,0-1.30641,23.51539C1866.859,322.93136,1868.16541,321.62495,1871.43144,322.27815Z"/><path class="cls-10" d="M1825.05385,286.35186s-2.61282-13.06411-1.30641-20.90257,1.30641-11.7577-1.30641-13.06411-3.91923-1.30641-5.22564,6.53205-2.61282,24.8218,0,28.741S1827.66668,294.19032,1825.05385,286.35186Z"/><path class="cls-10" d="M1843.34361,221.03132s1.30641,103.20645,2.61282,108.4321,2.61282,3.91923,0,10.45129-1.30641,27.43463-2.61282,35.27309,0,16.98334-2.61282,16.98334-13.06411,1.30641-11.7577-24.82181-3.91923-24.8218,1.30641-28.741,1.30641-11.7577,1.30641-11.7577,2.61282-30.04745,1.30641-31.35386,7.83847-7.83846,5.22564-9.14488-6.53205,0-5.22564-13.06411,2.61282-49.64361,5.22564-50.95A13.01839,13.01839,0,0,1,1843.34361,221.03132Z"/><path class="cls-10" d="M1810.68334,325.54418s-6.53205-13.06411-5.22564-24.8218,2.61282-28.741,1.30641-28.741-7.83846-1.30641-9.14487,6.53205,0,49.64361,2.61282,50.95S1814.60257,338.60829,1810.68334,325.54418Z"/><path class="cls-9" d="M173.422,389.41555s12.57432,6.28716,16.34662,3.7723,5.02973-20.11892,5.02973-33.95067-2.51486-23.89121,3.7723-23.89121,22.63378,1.25743,26.40608-10.05946,3.7723-40.23783,2.51486-45.26756-3.7723-6.28716-8.802-5.02973-6.28716,2.51486-6.28716,15.08919,2.51486,20.11892-1.25743,23.89121-10.05946,8.802-12.57432,3.7723-3.7723-40.23783-3.7723-59.09932-1.25743-33.95067-3.7723-36.46553-12.57432-1.25743-11.31689,6.28716,0,46.525-1.25743,50.29729-6.28716,3.7723-6.28716-5.02973,1.25743-20.11892-1.25743-22.63378-8.802,0-8.802,8.802-1.25743,25.14864,2.51486,31.43581,9.43074,6.91588,10.68817,5.65845,6.28716,22.63378,1.25743,25.14864-12.57432,5.02973-16.34662-6.28716,1.25743-41.49526-3.7723-44.01013-12.57432-2.51486-13.83175,11.31689-1.25743,37.723,5.02973,46.525S166.50615,339.747,169.021,341.00441s3.7723,6.28716,3.7723,13.83175S171.53588,385.01454,173.422,389.41555Z"/><path class="cls-5" d="M173.11338,389.09016s16.39552-1.59978,17.80631-.60753-11.48227,6.93135-22.507,11.55824-21.31959,7.89122-15.62745,8.1429,21.494.4854,15.889,4.422-28.65669,13.611-33.80411,15.2432-8.42653,1.95213-11.978,1.33016-3.68764-1.09293,6.33485-5.29919,18.31284-6.62935,17.90431-8.04223-2.09168-3.34706-8.37753-1.76523-35.48726,13.309-50.521,19.61842-28.19915,11.30657-32.48051,12.04715-12.38653-.08272-5.2346-2.55614,37.08322-15.56316,38.95154-16.87537-2.68539-1.51355-9.70114,1.43083-14.89756,6.78035-19.17891,7.52093-7.969-.35234-.95325-3.29673,18.90656-8.46285,27.33308-10.415,14.05058-1.93593,14.18676-1.465,23.73262-7.31959,21.18341-8.36218-7.37528-2.18585-19.81081,1.44878-31.93579,13.931-38.494,14.57091-13.38878.3379-3.50246-4.33932,28.929-12.66911,41.63693-15.36182,25.09441-2.61,28.37352-2.92994,8.42653-1.95213,14.44-4.47588S167.89787,390.48685,173.11338,389.09016Z"/><path class="cls-10" d="M214.91729,324.02907s5.02973,1.25743,6.28716-18.86148-1.25743-26.40608-3.7723-26.40608-4.401,6.91588-5.65845,18.23277a180.76062,180.76062,0,0,0-1.25743,22.63378C210.51628,324.65779,211.77371,323.40036,214.91729,324.02907Z"/><path class="cls-10" d="M170.27845,289.44969s-2.51486-12.57432-1.25743-20.11892,1.25743-11.31689-1.25743-12.57432-3.7723-1.25743-5.02973,6.28716-2.51486,23.89121,0,27.66351S172.79331,296.99428,170.27845,289.44969Z"/><path class="cls-10" d="M187.8825,226.57807s1.25743,99.33715,2.51486,104.36688,2.51486,3.7723,0,10.05946-1.25743,26.40608-2.51486,33.95067,0,16.34662-2.51486,16.34662-12.57432,1.25743-11.31689-23.89121-3.7723-23.89121,1.25743-27.66351,1.25743-11.31689,1.25743-11.31689,2.51486-28.92094,1.25743-30.17837,7.54459-7.54459,5.02973-8.802-6.28716,0-5.02973-12.57432,2.51486-47.78243,5.02973-49.03986A12.53032,12.53032,0,0,1,187.8825,226.57807Z"/><path class="cls-10" d="M156.44669,327.17265s-6.28716-12.57432-5.02973-23.89121,2.51486-27.66351,1.25743-27.66351-7.54459-1.25743-8.802,6.28716,0,47.78243,2.51486,49.03986S160.219,339.747,156.44669,327.17265Z"/></g></g></svg>