<svg xmlns="http://www.w3.org/2000/svg" viewBox="0 0 1200 112.97173"><defs><style>.cls-1{fill:#fdfdfd;}.cls-2{fill:#d8d8d8;}.cls-3{fill:#666;}.cls-4{fill:#fefefe;}</style></defs><title>資產 19</title><g id="圖層_2" data-name="圖層 2"><g id="圖層_1-2" data-name="圖層 1"><path class="cls-1" d="M1199.28314.03377c.21242.11971.59423-.24468.66958.17372a6.84658,6.84658,0,0,1,.0147,1.19484q0,55.08442.03258,110.1688c.00125,1.17146-.22987,1.40071-1.40113,1.4006q-598.57258-.049-1197.14517,0c-1.17055.00009-1.40282-.22809-1.40155-1.40022Q.11194,56.48711.10545,1.40268C.10572.95925-.28171.34146.427.03377L.45474.41859Q.51251,28.12729.57147,55.836c.04337,18.24389.11848,36.48776.10691,54.7316-.001,1.60012.31477,2.07122,2.01365,2.071q597.44733-.06426,1194.89462-.00281c1.624.00016,1.92829-.485,1.92662-1.98981q-.06052-54.2278-.03909-108.45569a3.3791,3.3791,0,0,0-.1816-1.84077Q1199.28682.19169,1199.28314.03377Z"/><path class="cls-2" d="M1199.28314.03377q.00363.15792.00944.31578c-.8551.0088-1.7102.02529-2.56529.02529Q599.87313.37649,3.01887.37768c-.85471,0-1.70942.02669-2.56414.04091L.427.03377Z"/><path class="cls-3" d="M.45474.41859C1.30945.40437,2.16416.37769,3.01887.37768Q599.87306.375,1196.72729.37484c.8551,0,1.7102-.01649,2.56529-.02529a3.37905,3.37905,0,0,1,.1816,1.84076q.013,54.22786.03909,108.45569c.00167,1.50476-.30263,1.99-1.92662,1.98981Q600.13934,112.576,2.692,112.63862c-1.69888.00018-2.01466-.47092-2.01365-2.071C.68995,92.32374.61484,74.07986.57147,55.836Q.50559,28.1273.45474.41859ZM110.25968,63.18724c5.01091,0,10.02247-.04427,15.03228.03,1.31054.01944,1.64025-.40085,1.61164-1.65506-.07918-3.47166-.05929-6.94678-.00819-10.41949.01521-1.0343-.304-1.37906-1.35885-1.37569q-15.2888.04876-30.57779-.00061c-1.07068-.00354-1.36034.36977-1.34607,1.38829.04869,3.47279.07233,6.94795-.00977,10.41947-.03006,1.27118.3311,1.66093,1.62445,1.64234C100.23726,63.14453,105.24877,63.18724,110.25968,63.18724Zm132.55847-13.401c-5.06786,0-10.13592.02563-15.20336-.02-1.11454-.01-1.6341.20178-1.60415,1.48251.08257,3.52848.061,7.06063.00871,10.59027-.01547,1.04522.3238,1.3702,1.36764,1.367q15.2888-.04739,30.57778.00133c1.08059.00363,1.35091-.38889,1.33725-1.3968-.047-3.47283-.07328-6.948.01086-10.41946.03109-1.28309-.35177-1.65185-1.63326-1.63355C252.72668,49.82827,247.77211,49.78628,242.81815,49.78628Zm132.26448.00013c-5.06786,0-10.136.02908-15.20332-.02253-1.12315-.01144-1.47435.33607-1.45484,1.45723.06144,3.52935.05141,7.06081.00451,10.5906-.01345,1.00932.25928,1.39923,1.33853,1.39561q15.28877-.05129,30.57778-.00123c1.04534.00325,1.38259-.32442,1.36639-1.36819-.05287-3.41571-.0819-6.83444.01082-10.24845.03763-1.38531-.31311-1.86467-1.77861-1.8378C384.99159,49.84246,380.03659,49.78626,375.08263,49.78641Zm132.3852-.00013c-5.01089,0-10.022.02512-15.03254-.01951-1.10765-.00986-1.63974.189-1.60917,1.47736.0837,3.52843.06077,7.06061.00936,10.59027-.01512,1.039.31261,1.3752,1.36263,1.3719q15.28883-.04818,30.57778.00092c1.075.00359,1.35632-.37809,1.34237-1.392-.04795-3.47281-.07271-6.948.01023-10.41947.03045-1.27628-.34013-1.65686-1.62834-1.63853C517.49023,49.82852,512.47875,49.78628,507.46782,49.78628ZM639.84358,63.18715c5.06786,0,10.13571-.01243,15.20348.01151.90726.00429,1.50266-.06522,1.48278-1.24675-.06123-3.64327-.04941-7.28855-.00455-10.9323.01232-.99847-.37743-1.25007-1.30925-1.2479q-15.28889.03555-30.57778-.00985c-1.2-.00508-1.409.46895-1.39408,1.51588.04953,3.47276.06887,6.94779-.0081,10.41955-.02744,1.239.42037,1.52475,1.575,1.51258C629.82143,63.15708,634.83265,63.18724,639.84358,63.18715ZM44.051,63.18723c5.01561,0,10.03154-.03024,15.04658.02321,1.1253.012,1.60935-.18936,1.577-1.4679-.08944-3.53146-.06561-7.06722-.00916-10.6.01623-1.01559-.22248-1.38354-1.31373-1.37934q-15.30308.0589-30.60644-.00014c-1.095-.00424-1.327.37-1.311,1.382.05583,3.53284.08047,7.06861-.00951,10.6-.03267,1.28247.45767,1.477,1.57968,1.46516C34.01947,63.1573,39.03539,63.18723,44.051,63.18723Zm132.23329,0c5.07262,0,10.14553-.02951,15.2176.02293,1.12058.01157,1.61353-.17981,1.58074-1.464-.09025-3.53142-.06528-7.06719-.00967-10.6.01589-1.01055-.21311-1.38745-1.30973-1.38318q-15.30308.05952-30.60644.00026c-1.08965-.00418-1.33125.36106-1.31492,1.37819.05674,3.53282.08023,7.06857-.009,10.6-.03226,1.2769.44912,1.48133,1.57583,1.46906C166.36673,63.15656,171.32567,63.18723,176.28429,63.18723Zm132.499,0c5.01561,0,10.03159-.03335,15.04655.02442,1.19245.01373,1.709-.18082,1.66574-1.55695-.10934-3.47329-.07691-6.95308-.01228-10.4286.02028-1.08985-.24765-1.46918-1.40328-1.46435q-15.21754.06369-30.43543-.00059c-1.16681-.005-1.41571.39309-1.396,1.4714.06248,3.4186.08,6.8405-.006,10.25808-.03266,1.29956.26976,1.756,1.66546,1.73113C298.86514,63.1333,303.8247,63.18726,308.78332,63.18726Zm132.49028-13.401c-5.01561,0-10.03155.03006-15.04657-.0231-1.12344-.0119-1.61092.18557-1.57834,1.46641.08979,3.53144.06549,7.06721.00931,10.6-.01612,1.01369.21885,1.385,1.31213,1.3808q15.30311-.05914,30.60643,0c1.093.00422,1.32855-.36653,1.31238-1.38056-.05622-3.53283-.08044-7.06859.00931-10.6.03258-1.28047-.45436-1.47856-1.57809-1.46665C451.30514,49.81638,446.2892,49.78629,441.2736,49.78629Zm132.58012,0c-5.07262,0-10.14553.02962-15.2176-.023-1.12189-.01164-1.61238.18245-1.57964,1.4651.09009,3.53143.06545,7.0672.00956,10.6-.016,1.012.21572,1.38632,1.3108,1.38207q15.30311-.05935,30.60643-.00015c1.0912.0042,1.33-.36355,1.31372-1.37929-.05655-3.53282-.08036-7.06858.00915-10.6.03241-1.2786-.45152-1.48015-1.57684-1.46795C583.77128,49.81683,578.81231,49.78629,573.85371,49.78629Zm132.23376,0c-5.01565,0-10.03155.0303-15.04657-.02324-1.12594-.012-1.60862.19066-1.57625,1.46848.08938,3.53146.06565,7.06723.009,10.6-.01629,1.01645.22382,1.38293,1.31426,1.37874q15.303-.0588,30.60643.00019c1.09566.00425,1.32637-.371,1.31034-1.3826-.0558-3.53284-.08086-7.06862.00944-10.6.03274-1.28361-.45891-1.47634-1.58006-1.46455C716.119,49.81611,711.10312,49.78629,706.08747,49.78629Zm65.942,13.40082c5.13092,0,10.262-.02323,15.39259.01965,1.02374.00856,1.3881-.26982,1.37006-1.34084q-.091-5.38595.00067-10.77415c.01921-1.09173-.38407-1.32626-1.38643-1.32334q-15.13616.04421-30.27223-.00963c-1.27951-.00629-1.50154.48878-1.48341,1.60525.05563,3.41971.08336,6.84267-.01119,10.26067-.03725,1.34864.46059,1.603,1.68154,1.58764C762.22321,63.1506,767.12659,63.18682,772.02948,63.18712Zm66.47167-13.40078c-5.06585,0-10.13187.02179-15.19738-.01787-1.048-.00821-1.51273.19489-1.48375,1.4.08478,3.527.07225,7.05812.00543,10.58587-.02122,1.11383.29653,1.45972,1.4272,1.4554q15.1973-.05811,30.395-.00192c1.14653.00406,1.43338-.39664,1.41366-1.48782-.0629-3.471-.07075-6.94479.00284-10.41533.02539-1.19859-.34565-1.55594-1.53645-1.54237C848.51933,49.81936,843.51012,49.78641,838.50115,49.78634Zm66.02153,13.40085c5.06585,0,10.13187-.02122,15.19738.01747,1.04246.008,1.51616-.18512,1.48742-1.39606-.08512-3.58392-.05739-7.1715-.01236-10.75688.01186-.94853-.25828-1.28608-1.24619-1.28319q-15.3682.04485-30.73657.0029c-.99042-.00248-1.25245.36723-1.24067,1.30763.04427,3.52846.06407,7.05877-.00835,10.58631-.02447,1.19361.33746,1.5598,1.53278,1.54605C894.50441,63.1538,899.51371,63.18711,904.52268,63.18719ZM970.804,63.187c5.06585,0,10.13187-.0218,15.19738.01758,1.06919.00831,1.49962-.25173,1.47305-1.43074q-.119-5.29085.00025-10.58577c.02723-1.1931-.43018-1.42078-1.48475-1.41794q-15.19743.04087-30.395-.00317c-1.03235-.00329-1.37708.28866-1.35929,1.347.05947,3.528.07326,7.05879-.00518,10.58607-.02715,1.22246.37906,1.52494,1.547,1.51158C960.78572,63.15435,965.795,63.18722,970.804,63.187Zm66.3067.00016c5.009,0,10.018-.023,15.02665.01855,1.05732.00877,1.50471-.21181,1.47723-1.40641-.08236-3.58405-.05772-7.17157-.01094-10.7569.01261-.96075-.27949-1.27634-1.256-1.27356q-15.28288.04353-30.56576-.00348c-1.155-.00415-1.42619.412-1.40723,1.49392.06089,3.471.07109,6.94486-.00384,10.41534-.026,1.20675.35935,1.54931,1.54255,1.53627C1026.97857,63.1551,1032.04484,63.18712,1037.11069,63.18718Zm66.03038-13.40084c-5.009,0-10.018.02288-15.02665-.01848-1.05624-.00872-1.50571.20969-1.47807,1.40568.08253,3.584.0578,7.17158.01111,10.75691-.01245.96.278,1.277,1.25537,1.27424q15.28288-.04362,30.56575.00342c1.15405.00414,1.427-.41036,1.408-1.49322-.06106-3.471-.07108-6.94486.00376-10.41536.02606-1.20591-.358-1.55-1.542-1.53695C1113.27311,49.8185,1108.20692,49.7864,1103.14107,49.78634Zm66.20237.00007q-7.51345,0-15.02682-.00385c-.83037-.00128-1.55633-.07883-1.53428,1.179.065,3.69865.04945,7.39946.00585,11.09873-.01128.95549.41623,1.1363,1.23508,1.13518q15.36833-.021,30.73657.00936c.9819.00283,1.26364-.3231,1.25145-1.27806-.04594-3.58535-.072-7.1729.01178-10.75689.028-1.20255-.432-1.40988-1.48224-1.40158C1179.47531,49.80837,1174.40929,49.78634,1169.34344,49.7864Z"/><path class="cls-4" d="M110.25968,63.18724c-5.01091,0-10.02242-.04271-15.0323.02928-1.29335.01859-1.65451-.37116-1.62445-1.64234.0821-3.47153.05846-6.94669.00977-10.41947-.01427-1.01852.27539-1.39184,1.34607-1.38829q15.2888.05058,30.57779.00061c1.05481-.00337,1.37406.34139,1.35885,1.37569-.0511,3.47272-.071,6.94783.00819,10.41949.02861,1.25422-.30111,1.6745-1.61164,1.65506C120.28216,63.143,115.27059,63.18724,110.25968,63.18724Z"/><path class="cls-4" d="M242.81815,49.78628c4.954,0,9.90853.042,14.86147-.02873,1.2815-.0183,1.66436.35046,1.63326,1.63355-.08414,3.47143-.05791,6.94662-.01086,10.41946.01366,1.00791-.25667,1.40043-1.33725,1.3968Q242.676,63.15594,227.387,63.206c-1.04383.00324-1.38311-.32174-1.36764-1.367.05233-3.52963.07386-7.06179-.00871-10.59027-.02995-1.28073.48961-1.49254,1.60415-1.48251C232.68223,49.81192,237.7503,49.78628,242.81815,49.78628Z"/><path class="cls-4" d="M375.08263,49.78633c4.954-.00007,9.909.05613,14.86126-.03468,1.46549-.02687,1.81624.45249,1.77861,1.8378-.09272,3.414-.06369,6.83274-.01082,10.24845.0162,1.04377-.321,1.37144-1.36639,1.36819q-15.28883-.04759-30.57778.00123c-1.07925.00362-1.352-.38629-1.33853-1.39561.0469-3.52979.05693-7.06125-.00451-10.5906-.0195-1.12116.3317-1.46867,1.45484-1.45723C364.94667,49.81549,370.01477,49.78641,375.08263,49.78633Z"/><path class="cls-4" d="M507.46782,49.78628c5.01093,0,10.0224.04224,15.03233-.029,1.2882-.01833,1.65878.36225,1.62834,1.63853-.08295,3.47149-.05818,6.94667-.01023,10.41947.01395,1.01389-.26738,1.39557-1.34237,1.392q-15.28877-.05095-30.57778-.00092c-1.05.0033-1.37775-.33291-1.36263-1.3719.05141-3.52966.07434-7.06184-.00936-10.59027-.03057-1.28838.50151-1.48722,1.60917-1.47736C497.4458,49.8114,502.45694,49.78628,507.46782,49.78628Z"/><path class="cls-4" d="M639.84358,63.18719c-5.01093,0-10.02215-.03011-15.0325.02269-1.15464.01216-1.60244-.27361-1.575-1.51258.077-3.47176.05764-6.94679.0081-10.41955-.01491-1.04693.19408-1.521,1.39408-1.51588q15.2887.06464,30.57778.00985c.93182-.00217,1.32157.24944,1.30925,1.2479-.04486,3.64375-.05668,7.289.00455,10.9323.01988,1.18153-.57552,1.251-1.48278,1.24675C649.97929,63.17472,644.91144,63.18715,639.84358,63.18719Z"/><path class="cls-4" d="M44.051,63.18723c-5.01561,0-10.03153-.02993-15.04658.023-1.122.01185-1.61235-.18269-1.57968-1.46516.09-3.53143.06534-7.0672.00951-10.6-.016-1.012.21595-1.38628,1.311-1.382q15.30308.05934,30.60644.00014c1.09125-.0042,1.33.36375,1.31373,1.37934-.05646,3.53282-.08028,7.06858.00916,10.6.03238,1.27853-.45167,1.47989-1.577,1.4679C54.08255,63.157,49.06661,63.18723,44.051,63.18723Z"/><path class="cls-4" d="M176.28429,63.18723c-4.95862,0-9.91756-.03068-14.8756.02328-1.12671.01227-1.60809-.19217-1.57583-1.46906.08923-3.53147.06574-7.06723.009-10.6-.01633-1.01714.22527-1.38237,1.31492-1.37819q15.30308.0587,30.60644-.00026c1.09663-.00427,1.32562.37263,1.30973,1.38318-.05561,3.53285-.08059,7.06862.00967,10.6.03279,1.28419-.46017,1.47558-1.58074,1.464C186.42982,63.15773,181.35691,63.18723,176.28429,63.18723Z"/><path class="cls-4" d="M308.78332,63.18726c-4.95862,0-9.91818-.054-14.87521.03454-1.3957.02491-1.69813-.43157-1.66546-1.73113.08593-3.41758.06845-6.83948.006-10.25808-.01971-1.07831.22919-1.47642,1.396-1.4714q15.21754.06545,30.43543.00059c1.15564-.00483,1.42356.37449,1.40328,1.46435-.06463,3.47553-.09706,6.95532.01228,10.4286.04331,1.37613-.47328,1.57068-1.66574,1.55695C318.81491,63.15391,313.79893,63.18726,308.78332,63.18726Z"/><path class="cls-4" d="M441.2736,49.78629c5.01561,0,10.03155.03008,15.04657-.02312,1.12373-.01191,1.61067.18618,1.57809,1.46665-.08975,3.53144-.06553,7.06721-.00931,10.6.01616,1.014-.21939,1.38478-1.31238,1.38056q-15.30311-.0591-30.60643,0c-1.09328.00422-1.32825-.36711-1.31213-1.3808.05617-3.53283.08048-7.06859-.00931-10.6-.03258-1.28084.45491-1.47831,1.57834-1.46641C431.242,49.81635,436.258,49.78629,441.2736,49.78629Z"/><path class="cls-4" d="M573.85371,49.78629c4.9586,0,9.91757.03054,14.87558-.02321,1.12532-.0122,1.60925.18935,1.57684,1.46795-.0895,3.53146-.0657,7.06722-.00915,10.6.01625,1.01574-.22252,1.38349-1.31372,1.37929q-15.30311-.05889-30.60643.00015c-1.09508.00425-1.32683-.37006-1.3108-1.38207.05588-3.53284.08052-7.06861-.00956-10.6-.03274-1.28265.45775-1.47674,1.57964-1.4651C563.70819,49.81591,568.7811,49.78629,573.85371,49.78629Z"/><path class="cls-4" d="M706.08747,49.78629c5.01565,0,10.03155.02983,15.04661-.023,1.12114-.01179,1.6128.18095,1.58006,1.46455-.0903,3.53142-.06524,7.0672-.00944,10.6.016,1.01157-.21467,1.38686-1.31034,1.3826q-15.303-.05937-30.60643-.00019c-1.09044.00419-1.33055-.3623-1.31426-1.37874.05663-3.53282.08036-7.06859-.009-10.6-.03237-1.27782.45031-1.4805,1.57625-1.46848C696.05592,49.81659,701.07182,49.78629,706.08747,49.78629Z"/><path class="cls-4" d="M772.02948,63.187c-4.90288-.00015-9.80627-.03637-14.7084.0254-1.221.01537-1.7188-.239-1.68154-1.58764.09456-3.418.06682-6.841.01119-10.26067-.01813-1.11647.2039-1.61154,1.48341-1.60525q15.13591.07442,30.27223.00963c1.00236-.00292,1.40564.2316,1.38643,1.32334q-.0946,5.38582-.00067,10.77415c.018,1.071-.34632,1.34939-1.37006,1.34084C782.29149,63.16389,777.1604,63.18712,772.02948,63.187Z"/><path class="cls-4" d="M838.50115,49.78637c5.009,0,10.01818.033,15.02657-.02409,1.19081-.01357,1.56185.34378,1.53645,1.54237-.07359,3.47054-.06574,6.94437-.00284,10.41533.01971,1.09118-.26713,1.49188-1.41366,1.48782q-15.1973-.0538-30.395.00192c-1.13066.00432-1.44841-.34157-1.4272-1.4554.06682-3.52775.07935-7.05889-.00543-10.58587-.029-1.2051.43578-1.40819,1.48375-1.4C828.36928,49.80813,833.4353,49.78634,838.50115,49.78637Z"/><path class="cls-4" d="M904.52268,63.18715c-5.009,0-10.01827-.03335-15.02657.02427-1.19532.01375-1.55725-.35244-1.53278-1.54605.07242-3.52754.05262-7.05785.00835-10.58631-.01178-.9404.25026-1.31011,1.24067-1.30763q15.36833.03845,30.73657-.0029c.98791-.00289,1.258.33467,1.24619,1.28319-.045,3.58537-.07275,7.173.01236,10.75688.02873,1.21095-.445,1.404-1.48742,1.39606C914.65455,63.166,909.58853,63.18719,904.52268,63.18715Z"/><path class="cls-4" d="M970.804,63.18712c-5.009.0001-10.01827-.03277-15.02657.02453-1.16792.01335-1.57412-.28912-1.547-1.51158.07843-3.52728.06465-7.058.00518-10.58607-.01779-1.05834.32694-1.35029,1.35929-1.347q15.19743.04834,30.395.00317c1.05457-.00283,1.512.22485,1.48475,1.41794q-.121,5.29077-.00025,10.58577c.02656,1.179-.40387,1.439-1.47305,1.43074C980.93586,63.16523,975.86984,63.187,970.804,63.18712Z"/><path class="cls-4" d="M1037.11069,63.18715c-5.06585,0-10.13212-.03205-15.19738.02376-1.1832.013-1.56853-.32952-1.54255-1.53627.07493-3.47048.06474-6.94431.00384-10.41534-.019-1.0819.25226-1.49807,1.40723-1.49392q15.28275.05493,30.56576.00348c.97655-.00278,1.26865.31282,1.256,1.27356-.04678,3.58533-.07142,7.17285.01094,10.7569.02748,1.1946-.41991,1.41518-1.47723,1.40641C1047.1287,63.16418,1042.11965,63.18718,1037.11069,63.18715Z"/><path class="cls-4" d="M1103.14107,49.78637c5.06585,0,10.132.03213,15.1973-.02379,1.184-.01308,1.568.331,1.542,1.53695-.07484,3.4705-.06482,6.94432-.00376,10.41536.019,1.08286-.25393,1.49736-1.408,1.49322q-15.28275-.05484-30.56575-.00342c-.97739.00279-1.26782-.31425-1.25537-1.27424.04669-3.58534.07142-7.17287-.01111-10.75691-.02765-1.196.42183-1.4144,1.47807-1.40568C1093.12306,49.80922,1098.1321,49.78634,1103.14107,49.78637Z"/><path class="cls-4" d="M1169.34344,49.78637c5.06585,0,10.13187.022,15.19738-.01807,1.05022-.00831,1.51022.199,1.48224,1.40158-.08378,3.584-.05772,7.17153-.01178,10.75689.0122.955-.26955,1.28089-1.25145,1.27806q-15.3682-.04432-30.73657-.00936c-.81885.00112-1.24635-.17969-1.23508-1.13518.0436-3.69927.05914-7.40008-.00585-11.09873-.02205-1.25783.70391-1.18029,1.53428-1.179Q1161.83008,49.79417,1169.34344,49.78637Z"/></g></g></svg>