<svg xmlns="http://www.w3.org/2000/svg" viewBox="0 0 584.33959 344.67294"><defs><style>.cls-1{fill:#534741;}.cls-2{fill:#e94e58;}.cls-3{fill:#eff3f0;}.cls-4{fill:#e1a565;}.cls-5{fill:#73798b;}.cls-6{font-size:27.41319px;font-family:AdobeFanHeitiStd-Bold-B5pc-H, Adobe Fan Heiti Std;}</style></defs><title>資產 36</title><g id="圖層_2" data-name="圖層 2"><g id="圖層_1-2" data-name="圖層 1"><path class="cls-1" d="M180.36215,299.45538s-6.48765,16.83753,12.62225,22.11678,34.74527-2.1117,38.2198-9.50265,0-12.01413,0-12.01413Z"/><path class="cls-2" d="M522.60006,156.33171c1.35691,0,25.10288.52792,26.4598-5.80717s-2.71383-93.9706-9.49839-103.47325S525.99234,6.929,413.36859,1.64976,151.48445,3.76146,98.56485,23.8226,22.57774,92.45282,15.79318,132.5751.86714,298.34347.86714,298.34347s-4.07074,7.39095,5.42765,9.50265,48.84886,6.3351,48.84886,6.3351,6.78456,2.1117,8.14148-5.27925,14.926-32.73133,35.27973-31.67548c0,0,24.42443,0,31.209,13.726s5.42765,16.89359,5.42765,16.89359-1.35691,3.16755,1.35691,3.16755h51.56268l139.762,2.1117s5.42765,2.1117,6.78456-3.16755,7.163-30.97631,30.23053-33.088,43.56931,3.76694,49.82732,15.13857c5.44718,9.89825-3.94712,26.66889,8.26509,31.94813s58.22363,5.0066,79.93423,5.0066,66.48872-2.1117,78.70093-17.94944c0,0,2.71383,0,2.71383-6.3351V273.00308s0-2.1117-5.42765-4.2234-18.99678-4.2234-18.99678-4.2234,4.07074-14.78189-10.8553-22.17284A147.4275,147.4275,0,0,0,520.56469,231.825Z"/><polygon class="cls-3" points="418.796 93.509 538.205 99.844 544.989 144.189 416.082 141.022 418.796 93.509"/><path class="cls-2" d="M416.08242,145.2453l130.26362,4.2234s0,3.16755-6.78456,4.2234-18.99678,2.1117-18.99678,2.1117L517.85087,231.825H414.7255Z"/><path class="cls-2" d="M498.85409,233.93665h21.7106s27.13825,9.50265,31.209,16.89359a31.349,31.349,0,0,1,4.07074,13.726v5.27925s18.99678,0,21.7106,3.16755,4.07074,21.117,4.07074,27.45209-2.71383,7.39095-2.71383,7.39095S544.98912,322.628,521.9216,323.68386s-65.13181-2.1117-89.55624-11.61434c0,0-1.35691-1.05585-1.35691-4.2234V278.28233s-1.35691-3.16755,5.42765-3.16755,46.135-1.05585,46.135-1.05585,1.35691-17.94944-1.35691-23.22869c0,0-4.07074-5.27925-13.56913-8.4468s-35.27973-7.39095-35.27973-7.39095l51.56268-1.05585,28.49517,8.4468s6.78456,2.1117,6.78456,9.50265a56.11994,56.11994,0,0,0,1.35691,12.67019h6.78456s1.35691-15.83774-4.07074-20.06114S513.78013,238.16,498.85409,233.93665Z"/><path class="cls-2" d="M414.7255,236.04835s40.70738,7.39095,47.49194,10.55849,9.49839,2.1117,12.21221,9.50265a44.20561,44.20561,0,0,1,2.71383,13.726H429.65154s2.71383-12.67019,0-13.726-13.56913-6.3351-14.926-9.50265S414.7255,236.04835,414.7255,236.04835Z"/><polygon class="cls-3" points="462.217 160.027 496.14 160.027 498.854 228.657 470.359 228.657 462.217 160.027"/><polygon class="cls-3" points="422.867 160.027 458.147 160.027 466.288 228.657 422.867 228.657 422.867 160.027"/><path class="cls-4" d="M455.43288,292.00837s-1.35691,9.50265,4.07074,11.61434,14.926,0,17.63986-6.3351,0-11.61434-5.42765-14.78189S458.14671,284.61743,455.43288,292.00837Z"/><path class="cls-4" d="M557.20133,285.67328s-4.07074,7.39095,0,11.61434,9.49839,2.1117,13.56913,0,4.07074-9.50265,1.35691-12.67019S561.27207,281.44988,557.20133,285.67328Z"/><path class="cls-1" d="M94.556,279.26037s-20.45691,6.33919-24.17635,20.28541,1.85972,35.49946,16.73747,41.83865,29.7555,3.80351,40.91382-10.1427,7.43888-36.7673-7.43888-45.64217S94.556,279.26037,94.556,279.26037Z"/><path class="cls-5" d="M92.49019,302.83339s-3.31805,8.36791-1.106,15.54041,14.37823,8.36791,17.69629,3.58625,5.53009-14.345,1.106-17.93124S100.23232,299.24714,92.49019,302.83339Z"/><path class="cls-1" d="M395.69368,334.96636s21.78423-16.02616,15.92407-34.48826S391.9354,280.798,380.09248,278.43737s-39.53226,7.87668-45.515,23.9781-2.11,38.01046,21.57989,41.57969S395.69368,334.96636,395.69368,334.96636Z"/><path class="cls-5" d="M362.76742,303.20011s-3.83348,8.06489-1.27783,14.97765,16.61176,8.06489,20.44525,3.45638,6.38914-13.82552,1.27783-17.2819S371.71221,299.74373,362.76742,303.20011Z"/><text class="cls-6" transform="translate(423.77544 131.54778) rotate(1.13629) scale(1.04234 1)">活動巴士</text></g></g></svg>