<svg xmlns="http://www.w3.org/2000/svg" viewBox="0 0 1197.5664 370"><defs><style>.cls-1{fill:#b6dbf8;}.cls-2{fill:#4d9cde;}.cls-3{fill:#c995b7;}.cls-4{fill:#c3e5ff;}.cls-5{fill:#96bde9;}.cls-6{fill:#b1b5dc;}.cls-7{fill:#c9c6e5;}.cls-8{fill:#7cb9ea;}.cls-9{fill:#b2dafb;}.cls-10{fill:#dfcf7d;}.cls-11{fill:#3d9ae6;}.cls-12{fill:#d5ecfa;}.cls-13{fill:#a0dcff;}.cls-14{fill:#51a5d6;}.cls-15{fill:#97ade6;}.cls-16{fill:#5996c6;}.cls-17{fill:#549bdd;}.cls-18{fill:#aad7fa;}.cls-19{fill:#d6f3ff;}.cls-20{fill:#71b5f4;}.cls-21{fill:#1275b5;}.cls-22{fill:#b6d7fa;}.cls-23{fill:#7cbaeb;}.cls-24{fill:#fff;}.cls-25{fill:#0066a7;}.cls-26{fill:#98d4fa;}.cls-27{fill:#b8bbd6;}.cls-28{fill:#a1d6ff;}.cls-29{fill:#a36464;}.cls-30{fill:#b2a0b2;}.cls-31{fill:#8288b8;}.cls-32{fill:#558bcb;}.cls-33{fill:#fffbee;}.cls-34{fill:#83abdb;}.cls-35{fill:#cbab55;}</style></defs><title>資產 6</title><g id="圖層_2" data-name="圖層 2"><g id="圖層_1-2" data-name="圖層 1"><path class="cls-1" d="M.532,367.71579H199.494l-7.44777-193L166.511,173.7l-1.064-46.72632H153.74335V114.78421H112.2486l1.064,57.9h-32.983V77.2H31.387c-1.064,0,0,107.67369,0,107.67369H1.596Z"/><polygon class="cls-2" points="118.632 173.7 152.679 173.7 151.615 130.021 117.568 130.021 118.632 173.7"/><polygon class="cls-2" points="118.632 126.974 150.551 127.989 150.551 120.879 117.568 117.832 118.632 126.974"/><polygon class="cls-3" points="94.109 202.533 93.127 219.411 121.609 219.411 94.109 202.533"/><path class="cls-3" d="M78.73362,182.33421v45.71053l67.03-2.03158Zm14.41552,18.40126,32.08216,19.69084H92.00308Z"/><polygon class="cls-2" points="87.068 367.716 145.232 367.716 144.7 320.482 86.181 298.134 87.068 367.716"/><polygon class="cls-4" points="36.175 249.376 36.175 366.192 77.847 367.716 77.67 285.945 58.518 250.392 36.175 249.376"/><polygon class="cls-5" points="1.241 342.998 28.727 342.829 28.727 294.071 73.414 293.055 72.527 367.716 0 367.208 1.241 342.998"/><polygon class="cls-1" points="899.585 175.732 930.44 175.732 930.44 78.216 979.914 78.724 982.042 189.445 1040.561 189.445 1054.392 256.487 1091.631 256.487 1090.567 210.776 1128.87 211.792 1160.789 236.171 1160.789 369.239 813.935 369.239 812.871 179.287 846.918 179.287 846.918 131.545 856.494 131.545 856.494 118.339 897.989 118.339 899.585 175.732"/><polygon class="cls-2" points="1160.789 260.042 1156.001 260.042 1156.001 249.884 1145.361 249.884 1145.361 239.686 1133.082 238.709 1133.17 237.697 1146.425 238.751 1146.425 248.868 1157.065 248.868 1157.065 259.026 1160.789 259.026 1160.789 260.042"/><polygon class="cls-2" points="1098.015 237.187 1119.294 214.839 1099.079 214.839 1098.015 237.187"/><polygon class="cls-2" points="1103.335 279.85 1119.294 279.85 1118.23 229.061 1103.335 243.282 1103.335 279.85"/><polygon class="cls-3" points="866.07 229.061 932.036 232.108 932.036 186.397 866.07 229.061"/><path class="cls-1" d="M887.49668,224.55693,920.92335,204.749l-1.15229,18.70779Zm32.24425-17.91123-28.28346,16.76053,27.30781-.93147Z"/><rect class="cls-2" x="861.81391" y="123.41842" width="31.91903" height="8.12632"/><rect class="cls-2" x="860.74995" y="134.59211" width="32.983" height="44.69474"/><rect class="cls-2" x="1094.82286" y="302.19737" width="10.63968" height="16.25263"/><rect class="cls-2" x="1103.3346" y="321.49737" width="12.76761" height="16.25263"/><rect class="cls-2" x="1125.67793" y="213.82369" width="2.12794" height="78.21579"/><rect class="cls-2" x="1155.46902" y="279.85" width="2.12794" height="87.3579"/><rect class="cls-2" x="1148.02125" y="275.78684" width="2.12794" height="87.3579"/><rect class="cls-2" x="1140.57348" y="272.73948" width="2.12794" height="87.3579"/><rect class="cls-4" x="1146.49595" y="234.9" width="51.07045" height="135.1"/><polygon class="cls-6" points="1001.726 368.732 1001.726 200.618 986.298 177.255 895.861 177.255 890.541 189.445 890.541 368.224 1001.726 368.732"/><rect class="cls-7" x="905.43659" y="192.49211" width="12.76761" height="16.25263"/><rect class="cls-7" x="918.73619" y="212.3" width="11.70365" height="15.23684"/><polygon class="cls-8" points="664.98 368.224 663.916 322.513 683.067 322.513 683.067 8.634 744.777 8.634 744.777 47.234 776.696 47.234 776.696 369.239 664.98 369.239 664.98 368.224"/><rect class="cls-9" x="688.38716" y="16.76053" width="52.13442" height="26.41053"/><rect class="cls-9" x="688.38716" y="56.37632" width="84.05346" height="2.03158"/><rect class="cls-9" x="688.38716" y="62.47105" width="84.05346" height="2.03158"/><rect class="cls-9" x="687.3232" y="114.27632" width="84.05346" height="2.03158"/><rect class="cls-9" x="687.3232" y="163.03421" width="84.05346" height="2.03158"/><rect class="cls-9" x="688.38716" y="210.77632" width="84.05346" height="2.03158"/><rect class="cls-9" x="688.38716" y="296.10263" width="84.05346" height="2.03158"/><rect class="cls-9" x="688.38716" y="303.21316" width="84.05346" height="2.03158"/><rect class="cls-9" x="688.38716" y="322.51316" width="84.05346" height="2.03158"/><polygon class="cls-9" points="685.727 0 685.727 1.016 687.855 1.016 687.855 9.142 689.983 9.142 689.983 1.016 698.495 1.016 698.495 9.142 700.623 9.142 700.623 1.016 710.199 1.016 710.199 9.142 712.326 9.142 712.326 1.016 719.774 1.016 719.774 9.142 721.902 9.142 721.902 1.016 730.414 1.016 730.414 9.142 732.542 9.142 732.542 1.016 736.798 1.016 736.798 9.142 738.926 9.142 738.926 1.016 741.054 1.016 741.054 0 685.727 0"/><rect class="cls-10" x="699.02684" y="172.17632" width="18.08745" height="20.31579"/><rect class="cls-10" x="735.20175" y="172.17632" width="18.08745" height="20.31579"/><rect class="cls-10" x="697.96287" y="74.66053" width="18.08745" height="20.31579"/><rect class="cls-10" x="734.13778" y="74.66053" width="18.08745" height="20.31579"/><rect class="cls-9" x="693.707" y="222.96579" width="74.47775" height="63.99474"/><polygon class="cls-4" points="938.952 31.489 947.463 366.7 853.834 366.7 853.834 118.339 895.861 117.324 894.797 42.155 938.952 31.489"/><rect class="cls-11" x="901.18072" y="43.17105" width="11.70365" height="7.11053"/><rect class="cls-11" x="915.0123" y="43.17105" width="11.70365" height="7.11053"/><rect class="cls-11" x="901.18072" y="52.31316" width="11.70365" height="9.14211"/><rect class="cls-11" x="915.0123" y="52.31316" width="11.70365" height="9.14211"/><rect class="cls-12" x="895.86088" y="146.78158" width="12.76761" height="16.25263"/><rect class="cls-12" x="884.15724" y="126.46579" width="12.76761" height="16.25263"/><polygon class="cls-4" points="633.016 66.712 639.977 368.732 546.347 368.732 546.347 120.371 588.374 119.355 587.265 82.965 633.016 66.712"/><rect class="cls-11" x="597.90495" y="83.9806" width="11.70365" height="7.11053"/><rect class="cls-11" x="611.73653" y="83.9806" width="11.70365" height="7.11053"/><rect class="cls-11" x="597.90495" y="93.12271" width="11.70365" height="9.14211"/><rect class="cls-11" x="611.73653" y="93.12271" width="11.70365" height="9.14211"/><rect class="cls-12" x="588.37419" y="148.81316" width="12.76761" height="16.25263"/><rect class="cls-12" x="576.67054" y="128.49737" width="12.76761" height="16.25263"/><rect class="cls-13" x="769.7807" y="150.33684" width="89.37329" height="165.57369"/><rect class="cls-14" x="778.82443" y="161.00263" width="79.79758" height="30.47368"/><rect class="cls-15" x="791.59204" y="169.12895" width="67.02997" height="12.18947"/><rect class="cls-16" x="772.44062" y="200.61842" width="84.05346" height="3.04737"/><path class="cls-16" d="M857.558,250.39211v-3.04737H852.2382V209.76053h4.25587v-3.04737H772.44062v3.04737h4.25587v106.6579h2.12794v-5.07895h77.66965v-3.04737H778.82443v-7.11053H857.558v-3.04737H778.82443v-38.6h18.08745v37.58421h2.12794V259.53421h14.89555v37.58421h2.12794V259.53421h15.95952v37.58421h2.12794V259.53421h15.95952v37.58421h2.12794V259.53421H857.558v-3.04737H778.82443v-6.09474Zm-7.44777-40.63158v37.58421H834.15075V209.76053Zm-18.08745,0v37.58421H816.0633V209.76053Zm-18.08745,0v37.58421H799.03981V209.76053Zm-17.02348,0v37.58421H778.82443V209.76053Z"/><rect class="cls-17" x="760.20499" y="258.01053" width="97.88504" height="110.72105"/><rect class="cls-18" x="761.80094" y="272.73948" width="92.5652" height="2.03158"/><rect class="cls-18" x="771.37665" y="279.85" width="2.12794" height="22.34737"/><rect class="cls-18" x="786.2722" y="279.85" width="2.12794" height="22.34737"/><rect class="cls-18" x="799.03981" y="279.85" width="2.12794" height="22.34737"/><rect class="cls-18" x="812.87139" y="279.85" width="2.12794" height="22.34737"/><rect class="cls-18" x="825.63901" y="279.85" width="2.12794" height="22.34737"/><rect class="cls-18" x="838.40662" y="279.85" width="2.12794" height="22.34737"/><rect class="cls-18" x="761.80094" y="307.27632" width="92.5652" height="2.03158"/><rect class="cls-18" x="771.37665" y="314.38684" width="2.12794" height="22.34737"/><rect class="cls-18" x="786.2722" y="314.38684" width="2.12794" height="22.34737"/><rect class="cls-18" x="799.03981" y="314.38684" width="2.12794" height="22.34737"/><rect class="cls-18" x="812.87139" y="314.38684" width="2.12794" height="22.34737"/><rect class="cls-18" x="825.63901" y="314.38684" width="2.12794" height="22.34737"/><rect class="cls-18" x="838.40662" y="314.38684" width="2.12794" height="22.34737"/><rect class="cls-18" x="761.80094" y="338.76579" width="92.5652" height="2.03158"/><rect class="cls-18" x="771.37665" y="345.87632" width="2.12794" height="22.34737"/><rect class="cls-18" x="786.2722" y="345.87632" width="2.12794" height="22.34737"/><rect class="cls-18" x="799.03981" y="345.87632" width="2.12794" height="22.34737"/><rect class="cls-18" x="812.87139" y="345.87632" width="2.12794" height="22.34737"/><rect class="cls-18" x="825.63901" y="345.87632" width="2.12794" height="22.34737"/><rect class="cls-18" x="838.40662" y="345.87632" width="2.12794" height="22.34737"/><polygon class="cls-2" points="543.156 368.732 707.007 368.732 703.815 100.563 633.061 103.103 633.061 124.434 622.421 131.545 620.293 303.213 544.752 304.229 543.156 368.732"/><rect class="cls-19" x="640.50861" y="124.43421" width="60.64616" height="3.04737"/><rect class="cls-19" x="651.14829" y="141.70263" width="27.66316" height="2.03158"/><rect class="cls-19" x="651.14829" y="190.46053" width="25.53523" height="2.03158"/><rect class="cls-19" x="651.14829" y="287.97632" width="27.66316" height="3.04737"/><polygon class="cls-19" points="647.424 293.563 620.293 293.563 620.293 292.547 646.36 292.547 646.36 144.238 622.351 144.052 622.359 143.036 647.424 143.23 647.424 293.563"/><polygon class="cls-4" points="622.244 148.136 642.637 147.797 641.573 286.961 620.293 287.13 622.244 148.136"/><rect class="cls-20" x="623.48513" y="149.82895" width="17.02348" height="12.18947"/><rect class="cls-20" x="623.48513" y="164.05" width="17.02348" height="14.22105"/><rect class="cls-20" x="623.48513" y="180.30263" width="17.02348" height="17.26842"/><rect class="cls-20" x="623.48513" y="199.60263" width="17.02348" height="16.25263"/><rect class="cls-20" x="623.48513" y="217.88684" width="17.02348" height="12.18947"/><rect class="cls-20" x="622.42116" y="232.1079" width="18.08745" height="12.18947"/><rect class="cls-20" x="622.42116" y="246.32895" width="18.08745" height="11.17368"/><rect class="cls-20" x="621.35719" y="259.53421" width="19.15142" height="13.20526"/><rect class="cls-20" x="621.35719" y="274.77105" width="19.15142" height="11.17368"/><polygon class="cls-19" points="682.535 292.547 705.942 292.547 705.942 291.531 683.453 291.531 683.453 143.222 704.168 143.036 704.16 142.02 682.535 142.214 682.535 292.547"/><polygon class="cls-4" points="704.26 147.12 686.666 146.781 687.584 285.945 705.942 286.114 704.26 147.12"/><rect class="cls-20" x="688.50173" y="148.81305" width="14.68691" height="12.18947" transform="translate(1391.69038 309.81558) rotate(-180)"/><rect class="cls-20" x="688.50173" y="163.03411" width="14.68691" height="14.22105" transform="translate(1391.69038 340.28927) rotate(-180)"/><rect class="cls-20" x="688.50173" y="179.28674" width="14.68691" height="17.26842" transform="translate(1391.69038 375.8419) rotate(-180)"/><rect class="cls-20" x="688.50173" y="198.58674" width="14.68691" height="16.25263" transform="translate(1391.69038 413.42611) rotate(-180)"/><rect class="cls-20" x="688.50173" y="216.87095" width="14.68691" height="12.18947" transform="translate(1391.69038 445.93137) rotate(-180)"/><rect class="cls-20" x="688.50173" y="231.092" width="15.60484" height="12.18947" transform="translate(1392.60831 474.37348) rotate(-180)"/><rect class="cls-20" x="688.50173" y="245.31306" width="15.60484" height="11.17368" transform="translate(1392.60831 501.7998) rotate(-180)"/><rect class="cls-20" x="688.50173" y="258.51832" width="16.52277" height="13.20526" transform="translate(1393.52624 530.2419) rotate(-180)"/><rect class="cls-20" x="688.50173" y="273.75516" width="16.52277" height="11.17368" transform="translate(1393.52624 558.68401) rotate(-180)"/><polygon class="cls-19" points="695.303 368.742 694.249 315.911 634.655 315.911 634.391 368.734 633.327 368.73 633.595 314.895 695.293 314.895 696.367 368.722 695.303 368.742"/><polygon class="cls-19" points="688.121 368.735 687.858 325.065 643.156 326.058 642.105 367.22 641.041 367.196 642.117 325.064 688.916 324.025 689.185 368.729 688.121 368.735"/><rect class="cls-21" x="590.50213" y="321.49737" width="2.12794" height="45.71053"/><rect class="cls-21" x="596.88593" y="321.49737" width="2.12794" height="45.71053"/><rect class="cls-21" x="602.20577" y="321.49737" width="2.12794" height="45.71053"/><rect class="cls-21" x="608.58958" y="321.49737" width="2.12794" height="45.71053"/><rect class="cls-21" x="612.84545" y="321.49737" width="2.12794" height="45.71053"/><rect class="cls-22" x="465.48591" y="169.21053" width="40.43078" height="119.13847"/><polygon class="cls-23" points="347.385 368.732 574.011 368.732 575.075 206.531 529.856 207.249 529.856 106.77 504.321 135.479 504.321 279.019 475.594 280.454 475.594 238.828 440.483 238.828 440.483 246.005 419.203 246.005 418.139 80.933 347.917 85.239 347.385 368.732"/><rect class="cls-24" x="354.30128" y="92.41646" width="60.64616" height="71.77016"/><path class="cls-25" d="M396.328,271.12416H389.9442V261.07634H396.328Zm-5.31984-1.4354H395.264v-7.177h-4.25587Z"/><path class="cls-25" d="M411.22355,265.38255h-5.31984V255.33473h5.31984Zm-4.25587-1.4354h3.1919v-7.177h-3.1919Z"/><rect class="cls-25" x="468.14583" y="224.47356" width="2.12794" height="14.35403"/><rect class="cls-25" x="452.18631" y="225.90896" width="2.12794" height="12.91863"/><rect class="cls-25" x="446.86647" y="223.03816" width="2.12794" height="15.78944"/><rect class="cls-26" x="507.51264" y="169.92824" width="19.15142" height="1.4354"/><rect class="cls-26" x="507.51264" y="174.23445" width="20.21539" height="1.4354"/><rect class="cls-26" x="507.51264" y="205.81332" width="19.15142" height="2.87081"/><rect class="cls-26" x="510.70454" y="214.42574" width="59.5822" height="2.87081"/><path class="cls-26" d="M547.41143,251.02852h-32.983V225.19126h32.983Zm-31.919-1.4354h30.85507V226.62666H515.4924Z"/><rect class="cls-26" x="551.13532" y="224.47356" width="17.02348" height="2.87081"/><rect class="cls-26" x="551.13532" y="233.08598" width="17.02348" height="1.4354"/><rect class="cls-26" x="551.13532" y="241.6984" width="17.02348" height="2.87081"/><rect class="cls-26" x="551.13532" y="248.87541" width="17.02348" height="1.4354"/><rect class="cls-26" x="508.57661" y="256.05243" width="61.71013" height="1.4354"/><rect class="cls-26" x="508.57661" y="264.66485" width="63.83807" height="2.87081"/><rect class="cls-25" x="424.52315" y="264.66485" width="12.76761" height="1.4354"/><rect class="cls-25" x="440.48267" y="261.79404" width="34.04697" height="1.4354"/><rect class="cls-25" x="440.48267" y="247.44001" width="1.06397" height="67.46395"/><rect class="cls-25" x="452.18631" y="266.10025" width="2.12794" height="18.66024"/><rect class="cls-25" x="464.95393" y="266.10025" width="1.06397" height="18.66024"/><rect class="cls-25" x="444.73854" y="274.71267" width="5.31984" height="8.61242"/><rect class="cls-25" x="419.20331" y="250.31082" width="3.1919" height="67.46395"/><path class="cls-25" d="M375.58063,363.70767c1.064,0,62.7741-41.62669,62.7741-41.62669l-2.12794-4.30621-69.15791,45.9329Z"/><rect class="cls-25" x="425.58712" y="280.45428" width="11.70365" height="2.87081"/><rect class="cls-25" x="425.58712" y="300.54993" width="11.70365" height="2.87081"/><polygon class="cls-27" points="120.76 367.716 288.867 367.716 282.483 118.847 248.968 118.339 241.521 2.539 198.962 39.108 202.154 206.713 191.514 205.697 121.292 253.439 120.76 367.716"/><polygon class="cls-28" points="206.41 56.376 238.329 36.061 238.329 14.729 206.41 43.171 206.41 56.376"/><path class="cls-28" d="M238.32879,46.21842l-32.983,20.31579,4.25587,83.29474,32.983-30.47368Zm-24.47126,86.34211L211.72959,67.55l2.12794-1.01579,2.12794,65.01053ZM221.3053,125.45l-2.12794-62.97895s2.12794-1.01579,2.12794,0,2.12794,61.96316,2.12794,61.96316ZM231.945,114.27632,229.817,116.3079V59.42368H231.945Z"/><path class="cls-29" d="M219.68026,209.25263H197.57591L220.844,229.246ZM200.348,210.26842h18.32643l.96422,16.575Z"/><path class="cls-29" d="M201.6219,248.36l-.01766.0005.01766.50789v11.21733l13.81288-1.09812,1.08267-26.85989.00935-.248-14.9049-12.04068Zm13.1931-.40919-12.12913.376v-9.2661l12.478.23212Zm-12.12913,11.03183v-9.63909l12.08809-.375-.36574,9.0806Zm12.75826-26.64662-.23937,5.941-12.5189-.23262V222.02936Z"/><polygon class="cls-29" points="147.892 359.589 146.828 359.589 146.828 248.361 157.467 248.361 157.467 243.282 166.962 243.282 165.898 236.171 174.491 236.171 174.491 228.082 188.814 227.031 188.895 228.043 175.555 229.023 175.555 237.187 167.124 237.187 168.188 244.297 158.531 244.297 158.531 249.376 147.892 249.376 147.892 359.589"/><rect class="cls-30" x="213.85753" y="274.77105" width="9.57571" height="12.18947"/><rect class="cls-30" x="204.28182" y="288.99211" width="9.57571" height="11.17368"/><rect class="cls-31" x="244.71259" y="131.54474" width="12.76761" height="28.44211"/><rect class="cls-31" x="260.67211" y="129.51316" width="11.70365" height="36.56842"/><rect class="cls-29" x="192.57817" y="208.74474" width="2.12794" height="58.91579"/><rect class="cls-29" x="178.74659" y="246.32895" width="2.12794" height="69.07368"/><rect class="cls-29" x="171.29881" y="252.42369" width="2.12794" height="56.88421"/><rect class="cls-29" x="163.85104" y="258.51842" width="2.12794" height="50.78947"/><path class="cls-30" d="M192.57817,323.529s34.047,19.3,34.047,18.28421-4.25587-39.61579-4.25587-39.61579Z"/><polyline class="cls-31" points="248.968 228.045 247.904 220.934 224.497 237.187 224.497 241.25 236.201 241.25 248.968 229.061"/><polygon class="cls-31" points="224.497 228.045 227.689 228.045 245.777 216.871 245.777 213.824 224.497 228.045"/><path class="cls-31" d="M221.3053,207.72895h2.12794v-1.01579h21.27936v-2.03158s-23.40729-1.01579-23.40729,0Z"/><polygon class="cls-31" points="239.393 241.25 248.968 241.25 251.096 233.124 239.393 241.25"/><polygon class="cls-5" points="250.564 368.732 361.217 368.732 360.685 211.792 331.958 201.634 331.958 222.966 318.126 222.966 318.126 252.424 305.359 254.455 305.359 159.987 250.032 159.987 250.564 368.732"/><rect class="cls-32" x="252.16037" y="163.03421" width="50.00649" height="3.04737"/><rect class="cls-33" x="253.22434" y="176.23948" width="50.00649" height="8.12632"/><rect class="cls-33" x="253.22434" y="202.65" width="50.00649" height="8.12632"/><rect class="cls-32" x="337.27779" y="262.58158" width="20.21539" height="2.03158"/><rect class="cls-32" x="336.21382" y="266.64474" width="21.27936" height="2.03158"/><rect class="cls-32" x="324.51018" y="271.72369" width="32.983" height="1.01579"/><rect class="cls-32" x="321.31827" y="275.78684" width="36.17491" height="1.01579"/><rect class="cls-32" x="323.44621" y="280.86579" width="35.11094" height="1.01579"/><rect class="cls-32" x="317.0624" y="255.47105" width="2.12794" height="111.73684"/><path class="cls-32" d="M356.96119,311.84737h-31.919V285.43684h31.919Zm-30.85507-1.01579h29.7911V286.45263h-29.7911Z"/><path class="cls-32" d="M341.00168,217.37895c-2.34717,0-4.25587-1.59511-4.25587-3.55526s1.9087-3.55526,4.25587-3.55526,4.25587,1.59511,4.25587,3.55526S343.34885,217.37895,341.00168,217.37895Zm0-6.09474c-1.76012,0-3.1919,1.1388-3.1919,2.53947s1.43178,2.53947,3.1919,2.53947,3.1919-1.1388,3.1919-2.53947S342.7618,211.28421,341.00168,211.28421Z"/><path class="cls-34" d="M292.64517,299.6579H268.32353l9.265-17.692Zm-22.601-1.01579h20.365l-12.60656-14.81327Z"/><path class="cls-32" d="M346.83376,303.72106H329.99834l7.215-12.62991Zm-15.04413-1.01579h12.95568l-7.4031-9.71745Z"/><polygon class="cls-35" points="257.48 270.708 302.167 257.503 257.48 241.25 257.48 270.708"/></g></g></svg>