<svg xmlns="http://www.w3.org/2000/svg" viewBox="0 0 232.09 311.3"><defs><style>.cls-1{fill:#fbf8e5;}.cls-2{fill:#eaae1f;}.cls-3{fill:#ff1b6a;}</style></defs><title>資產 15</title><g id="圖層_2" data-name="圖層 2"><g id="圖層_1-2" data-name="圖層 1"><rect class="cls-1" x="119.94" y="21.31" width="17.6" height="21.38" transform="translate(72.12 151.98) rotate(-78.7)"/><rect class="cls-2" x="8.21" y="218.84" width="162.17" height="21.65" transform="translate(-153.42 272.21) rotate(-78.7)"/><rect class="cls-2" x="121.76" y="1.94" width="21.64" height="21.57" transform="translate(94.12 140.24) rotate(-78.7)"/><polygon class="cls-1" points="114 50.82 94.57 148.03 0 129.13 21.89 19.62 116.53 38.54 114.08 50.79 135.05 54.98 137.5 42.73 232.09 61.63 210.2 171.14 115.8 152.27 135.23 55.06 114 50.82"/><rect class="cls-1" x="119.54" y="36.07" width="12.5" height="21.38" transform="translate(55.28 160.95) rotate(-78.7)"/><rect class="cls-1" x="65.33" y="90.72" width="99.14" height="21.65" transform="translate(-7.19 194.32) rotate(-78.7)"/><path class="cls-3" d="M115.18,73.22c-3.3-23.41-41.07-9.68-40.68,6.28.55,22.56,40.91,57.81,40.91,57.81v-.77c4.22-3.76,40-36.22,40.5-57.44C156.31,63,118.09,49.25,115.18,73.22Z"/></g></g></svg>