<svg xmlns="http://www.w3.org/2000/svg" viewBox="0 0 243.99 142.77"><defs><style>.cls-1{fill:#fff;stroke:#ff1b6a;stroke-miterlimit:10;stroke-width:3px;}.cls-2{font-size:31.31px;fill:#ff1b6a;font-family:AdobeMingStd-Light-B5pc-H, Adobe Ming Std;}.cls-3{fill:#d7e1b4;}.cls-4{fill:#899c55;}.cls-5{fill:#899d55;}.cls-6{fill:#879a52;}.cls-7{fill:#a5bd69;}.cls-8{fill:#d9e3b8;}.cls-9{fill:#536c31;}.cls-10{fill:#84974e;}.cls-11{fill:#dde7bb;}.cls-12{fill:#92a45c;}.cls-13{fill:#d8e1b0;}.cls-14{fill:#dce6b9;}.cls-15{fill:#8b9c56;}.cls-16{fill:#d9e3b9;}.cls-17{fill:#d7e3b4;}.cls-18{fill:#d7e0b0;}.cls-19{fill:#c4d2a0;}.cls-20{fill:#dfe9bc;}.cls-21{fill:#495f25;}.cls-22{fill:#a1b860;}.cls-23{fill:#a6bc67;}.cls-24{fill:#d0dbae;}.cls-25{fill:#869952;}.cls-26{fill:#dbe3b5;}.cls-27{fill:#a4bb66;}.cls-28{fill:#d8e3b5;}.cls-29{fill:#a1b861;}.cls-30{fill:#b5c77f;}.cls-31{fill:#e5f0c1;}.cls-32{fill:#7b8f4d;}.cls-33{fill:#c4d3a0;}.cls-34{fill:#dce6bc;}.cls-35{fill:#4e652a;}.cls-36{fill:#b3c576;}.cls-37{fill:#889a52;}.cls-38{fill:#859751;}.cls-39{fill:#889a55;}.cls-40{fill:#dae4b6;}.cls-41{fill:#dde9ba;}.cls-42{fill:#849550;}.cls-43{fill:#f9faf0;}.cls-44{fill:#e2edc3;}.cls-45{fill:#e1ecc3;}.cls-46{fill:#dde9b6;}.cls-47{fill:#859651;}.cls-48{fill:#d8e3b3;}.cls-49{fill:#899d53;}.cls-50{fill:#cbd9a3;}.cls-51{fill:#dbe5bc;}.cls-52{fill:#83954c;}.cls-53{fill:#869a4e;}.cls-54{fill:#d4e1ae;}.cls-55{fill:#85994b;}.cls-56{fill:#889954;}.cls-57{fill:#dae4ba;}.cls-58{fill:#d9e5b4;}.cls-59{fill:#81944d;}.cls-60{fill:#83974d;}.cls-61{fill:#879850;}.cls-62{fill:#879a4f;}.cls-63{fill:#869a4d;}.cls-64{fill:#879854;}.cls-65{fill:#dbe3ba;}.cls-66{fill:#d5e2b0;}.cls-67{fill:#dae4b9;}.cls-68{fill:#d3e0ae;}.cls-69{fill:#536a2f;}.cls-70{fill:#8fa15c;}.cls-71{fill:#8fa159;}.cls-72{fill:#849850;}.cls-73{fill:#a8c06c;}.cls-74{fill:#a8b97b;}.cls-75{fill:#839651;}.cls-76{fill:#7c8f48;}.cls-77{fill:#899e52;}.cls-78{fill:#859850;}.cls-79{fill:#bdcb94;}.cls-80{fill:#80924b;}.cls-81{fill:#899b58;}.cls-82{fill:#8c9e57;}.cls-83{fill:#dfeabc;}.cls-84{fill:#819449;}.cls-85{fill:#809347;}.cls-86{fill:#dae5b6;}.cls-87{fill:#d8e0b4;}.cls-88{fill:#a3bb62;}.cls-89{fill:#496026;}.cls-90{fill:#7c8e58;}.cls-91{fill:#475f26;}.cls-92{fill:#a1b761;}.cls-93{fill:#6c843c;}.cls-94{fill:#536b31;}.cls-95{fill:#5d7332;}.cls-96{fill:#50682c;}.cls-97{fill:#536b2f;}.cls-98{fill:#a1b95f;}.cls-99{fill:#acc571;}.cls-100{fill:#a5bc68;}.cls-101{fill:#c6d49c;}.cls-102{fill:#7c8e52;}.cls-103{fill:#889c55;}.cls-104{fill:#d8e1b6;}.cls-105{fill:#899c54;}.cls-106{fill:#d7e1b2;}.cls-107{fill:#d7e0b2;}.cls-108{fill:#869851;}.cls-109{fill:#879951;}.cls-110{fill:#889b54;}.cls-111{fill:#899c53;}.cls-112{fill:#859851;}.cls-113{fill:#899b55;}.cls-114{fill:#899b53;}.cls-115{fill:#dbe6b9;}.cls-116{fill:#84964e;}.cls-117{fill:#83964e;}.cls-118{fill:#80934a;}.cls-119{fill:#d1dcac;}.cls-120{fill:#dce6b6;}.cls-121{fill:#aab97a;}.cls-122{fill:#d9e3b1;}.cls-123{fill:#dfe9bd;}.cls-124{fill:#dde8b7;}.cls-125{fill:#849651;}.cls-126{fill:#d8e3b4;}.cls-127{fill:#dde7ba;}.cls-128{fill:#dde7bd;}.cls-129{fill:#d9e3b7;}.cls-130{fill:#7d8e4a;}.cls-131{fill:#839450;}.cls-132{fill:#dee8ba;}.cls-133{fill:#d6dfb0;}.cls-134{fill:#a0b75e;}.cls-135{fill:#dfe8bd;}.cls-136{fill:#d6dfaf;}.cls-137{fill:#d9e4b9;}.cls-138{fill:#b0c477;}.cls-139{fill:#a1b865;}.cls-140{fill:#4f672a;}.cls-141{fill:#aac26e;}.cls-142{fill:#a1b95e;}.cls-143{fill:#a4bd6c;}.cls-144{fill:#a1b75e;}.cls-145{fill:#d9e3b5;}.cls-146{fill:#83954f;}.cls-147{fill:#879a54;}.cls-148{fill:#889b55;}.cls-149{fill:#819348;}.cls-150{fill:#dce5b8;}.cls-151{fill:#dce7b9;}.cls-152{fill:#84984f;}.cls-153{fill:#e0e8c2;}.cls-154{fill:#889a56;}.cls-155{fill:#dce7b8;}.cls-156{fill:#7f914b;}.cls-157{fill:#d9e3b6;}.cls-158{fill:#d9e5b7;}.cls-159{fill:#d8e2b4;}.cls-160{fill:#dae5b5;}.cls-161{fill:#dee9be;}</style></defs><title>資產 9</title><g id="圖層_2" data-name="圖層 2"><g id="圖層_1-2" data-name="圖層 1"><path class="cls-1" d="M236.76,1.5H18A5.75,5.75,0,0,0,12.3,7.23v94.09L2.27,140l35.34-17.19H236.76a5.74,5.74,0,0,0,5.73-5.73V7.23A5.74,5.74,0,0,0,236.76,1.5Z"/><text class="cls-2" transform="translate(42.27 73.98)">富豪排行</text><path class="cls-3" d="M175.77,75.21V50.59a9,9,0,0,1,1.45-3.29,7.8,7.8,0,0,1,3.56-2.42,4.71,4.71,0,0,1,.75-.25c1.41-.34,1.41-.34,1.43-1.78a8,8,0,0,1,2-4.44A8.67,8.67,0,0,1,189.88,36a39.67,39.67,0,0,1,4.08-.06c1.5,0,3,0,4.49,0s3,0,4.54,0,3,0,4.54,0,3,0,4.53,0,3,0,4.54,0,3,0,4.52,0,3,0,4.43,0a11.27,11.27,0,0,1,4.28.47,10.36,10.36,0,0,1,3,2,7.45,7.45,0,0,1,1.94,3.58V66.77a8.08,8.08,0,0,1-4.83,5.7,6.65,6.65,0,0,1-.76.23c-1.84.45-1.53.34-1.62,2a7.63,7.63,0,0,1-1.88,4l-.6.61a8.4,8.4,0,0,1-4.23,2.1c-1.42.14-2.85.06-4.28.06s-3,0-4.49,0-3,0-4.53,0-3,0-4.54,0-3,0-4.54,0-3,0-4.53,0-3,0-4.53,0-2.95,0-4.43,0a11.23,11.23,0,0,1-4.27-.48,8.5,8.5,0,0,1-2.8-1.74A7.66,7.66,0,0,1,175.77,75.21Z"/><path class="cls-4" d="M181.91,78.36a3.29,3.29,0,0,1-2.94-2c.06-.57-.3-1.07-.24-1.64a21.24,21.24,0,0,1-.11-2.39c0-7.14-.05-14.29,0-21.43a7.5,7.5,0,0,1,.38-1.13,4.05,4.05,0,0,1,1.79-1.87,7.91,7.91,0,0,1,2.78-.36h35.67a6.71,6.71,0,0,1,1.79.1,1.12,1.12,0,0,1,.41.37c1,1,.89,1.35-.47,2-.46.21-.88.4-1.06.91a.62.62,0,0,1-.53.39c-.85.14-1.35.35-.25,1a.43.43,0,0,1,.22.58c-.21.45-.61.48-1,.42-.34-.26-.78.08-1.12-.19a3.71,3.71,0,0,1-.4-2.65c0-.19.1-.38,0-.56-.46-.19-1-.08-1.44-.26-3.7-.1-7.39,0-11.09,0-5.88,0-11.76,0-17.64,0a.46.46,0,0,0-.51.45,1.59,1.59,0,0,1-.06.3,16.83,16.83,0,0,0,0,2.13,1.82,1.82,0,0,1-.94,1.63c-.4.06-.77.17-.9.63a2.45,2.45,0,0,1-1.26.66,3,3,0,0,1-1.93-.19c-.23-.33-.34-.09-.46.1a1.17,1.17,0,0,0-.14.3c0,4.76,0,9.51,0,14.26.05.09.1.18.16.27.18.25.23.66.7.52,2.6-.54,4.37.66,5.15,3.5A2,2,0,0,1,186,76c-.18.12-.57,0-.6.21-.14,1-1.09,1.28-1.66,1.9C183.12,78.25,182.49,78.15,181.91,78.36Z"/><path class="cls-5" d="M231.85,41.85a1.76,1.76,0,0,1,.19,1.21q0,11.42,0,22.83a3,3,0,0,1-.43,1.83c-.46.25-.91.51-.86,1.14l-.55.6a.57.57,0,0,1-.66.3v-.09a.61.61,0,0,1-.15-.56,51.18,51.18,0,0,0,0-5.94,1.22,1.22,0,0,1,.09-.6,2.34,2.34,0,0,0,.22-1.33c0-4.36,0-8.72,0-13.08,0-.47.14-1-.41-1.32l-.49-.14a3.05,3.05,0,0,0-1.44-.11.54.54,0,0,1-.4-.23,3.81,3.81,0,0,0-2.2-1.8.68.68,0,0,1-.34-.33,2.44,2.44,0,0,1-.14-.46c-.44-.93.16-1.88-.09-2.81a3.71,3.71,0,0,0-1.24-.08q-14.16,0-28.32,0c-.36,0-.76-.13-1.07.17a3.1,3.1,0,0,0-.11.51c-.12.36-.12.77-.51,1a64.24,64.24,0,0,1-6.51.16.87.87,0,0,1-.39-.1,2.7,2.7,0,0,1,1.13-2.53c.18-.11,0-.26,0-.39a1.31,1.31,0,0,1,.89-.51,6.38,6.38,0,0,0,1.07.15c-.12-.18-.51.11-.67-.21.18-.43.6-.27.91-.38a2.07,2.07,0,0,1,.86.08.83.83,0,0,1,.26.23,5.18,5.18,0,0,0,1.47,0H227a5.52,5.52,0,0,1,3.55.9,3.76,3.76,0,0,1,1.12,3c0,1.27,0,2.54,0,3.81,0-1.32,0-2.63,0-4C231.72,42.51,231.57,42.15,231.85,41.85Z"/><path class="cls-4" d="M218.2,53.09a2.68,2.68,0,0,1,.55-.11c.24,0,.48,0,.5-.3s-.24-.25-.4-.31a2.49,2.49,0,0,1-.4-.2.75.75,0,0,1-.38-.76c.08-.29.36-.37.64-.36.59,0,1.15,0,1.12-.82,0-.22.21-.29.4-.32a2.55,2.55,0,0,0,1.79-1.1c-.07-.25-.89-.07-.64-.73.18-.24.44-.22.69-.26.7,0,1,.67,1.6.91l.08.13c.11.43-.28.75-.27,1.16,0,.15,0,.31-.07.46-1.23.94-.8,2-.17,3,.1,5.81,0,11.62,0,17.42a5.5,5.5,0,0,0,.13,1.81,1.93,1.93,0,0,1,.21.52,4.76,4.76,0,0,1-.3-2.13c0-5.54,0-11.09,0-16.64,0-1,.22-1.88.28-2.83a.7.7,0,0,1,.46-.71.43.43,0,0,1,.38.16,2.35,2.35,0,0,1,.21,1.33c0,7.33,0,14.66,0,22a2.6,2.6,0,0,1,0,.4,1.21,1.21,0,0,1-.09.35c-.19.55-.66,1-.65,1.63A2.25,2.25,0,0,1,222.09,78a13.19,13.19,0,0,1-3.6.19c-.63-.25-.45-1.07-1-1.39a5.22,5.22,0,0,1-.46-.48,4.45,4.45,0,0,1,.37-4,3.19,3.19,0,0,1,1.12-1.1,2,2,0,0,1,1.27-.44,5.39,5.39,0,0,0,1.92,0c.25,0,.54,0,.66-.31.08-5,0-10,0-15a.45.45,0,0,0-.2-.21l-.43-.13c-.32-.11-.68-.11-1-.23s-.47-.28-.71,0a.86.86,0,0,1-.4.21,2,2,0,0,1-1.83-1.23A.85.85,0,0,1,218.2,53.09Z"/><path class="cls-6" d="M218.2,77.94l3.89,0a1.39,1.39,0,0,1-1.22.44H182.13l-.22,0a2.78,2.78,0,0,1,1.8-.42,4,4,0,0,1,2.63-.45c4.87.19,9.74.05,14.62.08,5.13,0,10.27,0,15.41,0C217,77.58,217.67,77.45,218.2,77.94Z"/><path class="cls-7" d="M224.55,43.73v.48a1.49,1.49,0,0,0,.83,1.24c.19.1.36.21.39.45a.57.57,0,0,1-.58.49c-.87-.32-1.54-1-2.45-1.27l-1.13-.25a2,2,0,0,0-1.57-.36c-1.43.15-2.88-.11-4.32.13v0a.67.67,0,0,1-.48.07c-.6-.14-1.15-.42-1.74-.6-.41-.16-.86-.19-1.26-.38s-.57-.26-.34-.65a1.64,1.64,0,0,1,1.37-.37h6.79a15.66,15.66,0,0,1,3.32.61,1.38,1.38,0,0,1,.72.12Z"/><path class="cls-8" d="M189.39,38.93c-.3.09-.66,0-.9.26s-.35.07-.47.22l-.89.28a.87.87,0,0,1,.87-.91,9.27,9.27,0,0,1,2.29-.28,1.81,1.81,0,0,1,1-.1h35.9a1.81,1.81,0,0,1,1,.1h1.13c.09.33-.09.51-.36.64a5.63,5.63,0,0,1-1.64,0,11.33,11.33,0,0,0-1.93-.07c-11.07,0-22.14,0-33.2,0A11.94,11.94,0,0,0,189.39,38.93Z"/><path class="cls-9" d="M229.1,69.76l-.47.23a.92.92,0,0,1-.76,0,.88.88,0,0,1-.36-.49c-.19-2-.07-4.08-.07-6.12a1.07,1.07,0,0,1,.47-1,1.39,1.39,0,0,1,1.18,0,.76.76,0,0,1,.3.26,2.5,2.5,0,0,1,0,.61c0,1.63,0,3.26,0,4.89A2.54,2.54,0,0,1,229.1,69.76Z"/><path class="cls-10" d="M222.07,47.82c-.15.29-.43.25-.69.26-.34-.38-.78-.22-1.18-.22-12.61,0-25.23,0-37.84,0-.65,0-1.19.44-1.83.25a.29.29,0,0,1,0-.27c.13-.16.26-.3.49-.19h.43a2.14,2.14,0,0,1,1.32-.2h37.6a2.23,2.23,0,0,1,1.32.2A.4.4,0,0,1,222.07,47.82Z"/><path class="cls-11" d="M181.48,47.41c0-.49.36-.23.52-.23q19.65,0,39.29,0h.46s0,0,.06.07l-.22.16a1.93,1.93,0,0,1-1,.1H182.49A2.17,2.17,0,0,1,181.48,47.41Z"/><path class="cls-12" d="M181.48,47.41h40.11l.06.2H181.41C181.43,47.54,181.46,47.48,181.48,47.41Z"/><path class="cls-13" d="M228.19,38.5h-37.9c.34-.37.78-.22,1.18-.22H227C227.41,38.28,227.85,38.13,228.19,38.5Z"/><path class="cls-14" d="M224.33,49.22a2.82,2.82,0,0,1,.68,2c0,7.82,0,15.63,0,23.45,0,.57.18,1.37-.68,1.66-.31-.37-.11-.74,0-1.1l.05,0a1.56,1.56,0,0,0,.2-1c0-7.71,0-15.42,0-23.12a.93.93,0,0,0-.14-.36,2.18,2.18,0,0,1-.26-1.25A.61.61,0,0,1,224.33,49.22Z"/><path class="cls-15" d="M178.48,50.59l.21-.28a.56.56,0,0,1,.14.41c0,8.05,0,16.1,0,24.14,0,.22,0,.46-.16.64-.31-.36-.14-.8-.23-1.2a1.21,1.21,0,0,1-.28-.84q0-10.2,0-20.42A6.19,6.19,0,0,1,178.48,50.59Z"/><path class="cls-16" d="M178.46,73.6v.7l-.42.22a1.47,1.47,0,0,1-.11-.88V52.84A1.51,1.51,0,0,1,178,52c.05-.38-.15-.82.22-1.14a2.46,2.46,0,0,1,.11,1.23c0,6.78,0,13.55,0,20.33A3.19,3.19,0,0,0,178.46,73.6Z"/><path class="cls-17" d="M178.46,73.6c-.35-.39-.19-.87-.19-1.31q0-10.74,0-21.48l.22-.22Q178.47,62.1,178.46,73.6Z"/><path class="cls-18" d="M178,52V74.52c-.44,0-.22-.38-.22-.57q0-10.53,0-21C177.81,52.58,177.72,52.21,178,52Z"/><path class="cls-19" d="M215.22,44.64l.49,0-.47.21a20.58,20.58,0,0,1-3.68.1c-2.74,0-5.48,0-8.21,0a.51.51,0,0,1-.38-.16c0-.39.28-.45.53-.57a1.26,1.26,0,0,1,.64,0c2.92.13,5.84,0,8.76.06A7,7,0,0,1,215.22,44.64Z"/><path class="cls-20" d="M203,44.88h12.24c-.33.37-.77.22-1.17.22H203l-.09-.11Z"/><path class="cls-21" d="M186,42.61l.23,0,.17.08a.6.6,0,0,1,.19.3c-.06.88.37,1.19,1.22,1.16,1.24,0,2.48,0,3.73,0a2.1,2.1,0,0,0,1.28-.36.51.51,0,0,1,.64.06.57.57,0,0,1,.15.3.43.43,0,0,1-.39.48l0,0a1,1,0,0,1-.38.2c-2,.08-4,0-6,0a1.19,1.19,0,0,1-.84-.22Z"/><path class="cls-22" d="M193.21,44.6l.29-.4a1.09,1.09,0,0,1,.75-.17c2.58.08,5.17,0,7.75,0,.52,0,1.07-.06,1.48.37-.09.22-.3.22-.49.24a.66.66,0,0,1-.3.15c-2.93.1-5.86.08-8.79,0a1.36,1.36,0,0,1-.43-.14Z"/><path class="cls-23" d="M227.29,51.05l-.94-2.71a2,2,0,0,1,0-1.23.63.63,0,0,1,.33,0,6.64,6.64,0,0,1,1.11,5.31.29.29,0,0,1-.33.06C227.24,52,227.56,51.48,227.29,51.05Z"/><path class="cls-24" d="M193.47,44.69H203a1.34,1.34,0,0,1,0,.2h0c-2.73.24-5.47,0-8.2.1a2,2,0,0,1-1.1-.1Z"/><path class="cls-25" d="M231.85,41.85v5.3h-.26c0-1.27,0-2.54,0-3.81a3.67,3.67,0,0,0-1.14-3A.71.71,0,0,1,231,40c.36.24.7.49.65,1Z"/><path class="cls-26" d="M193.7,44.89H203v.22h-8.13C194.47,45.11,194,45.26,193.7,44.89Z"/><path class="cls-27" d="M222.73,45.12c1-.08,1.66.78,2.51,1.13.4.27,1,.24,1.13.92h0c-.19.19.12.7-.42.66A11.65,11.65,0,0,0,222.73,45.12Z"/><path class="cls-28" d="M231.64,41l-.75-.85c-.6-.25-1.12-.67-1.75-.87a.25.25,0,0,1-.07-.27l.25-.52a6.93,6.93,0,0,1,2.51,2C232.09,40.75,232,40.94,231.64,41Z"/><path class="cls-20" d="M193,44.69l.22,0c0,.32-.2.46-.52.46l-6.46,0c-.09,0-.18-.12-.27-.18a49,49,0,0,1,5.14-.12A8,8,0,0,0,193,44.69Z"/><path class="cls-29" d="M215.71,44.64c.69-.42,1.46-.13,2.19-.2a12.4,12.4,0,0,0,2.57-.18.81.81,0,0,1,1.13.61A44.56,44.56,0,0,0,215.71,44.64Z"/><path class="cls-30" d="M227.27,55.84v-.48c-.08-.15,0-.24.15-.25a.64.64,0,0,1,.34.48c.12,2.06.05,4.13,0,6.19a2.07,2.07,0,0,1-.08.42,1.74,1.74,0,0,0-.11.18l-.18.12a.26.26,0,0,1-.25-.28C227.22,60.09,227.05,58,227.27,55.84Z"/><path class="cls-31" d="M227.05,69.74V62.67a.25.25,0,0,1,.36.11,48.79,48.79,0,0,1,0,6.84A.26.26,0,0,1,227.05,69.74Z"/><path class="cls-32" d="M229.31,63.13v-.42l.05-.1h.11l.08.07v.46a36,36,0,0,1,0,6.14v.4l-.24.06A42.77,42.77,0,0,1,229.31,63.13Z"/><path class="cls-33" d="M193,44.69a6,6,0,0,1-2.64.18c-1.46.05-2.93,0-4.39,0v-.23Z"/><path class="cls-34" d="M227.25,62.67h-.2c0-1.92,0-3.85,0-5.77,0-.36-.13-.76.21-1.06,0,2.2,0,4.41,0,6.61A.13.13,0,0,1,227.25,62.67Z"/><path class="cls-35" d="M229.31,63.13q0,3.3,0,6.6l-.11,0h-.11c0-1.85,0-3.7,0-5.56C229.1,63.84,229,63.44,229.31,63.13Z"/><path class="cls-36" d="M227.24,54l0-.51a.42.42,0,0,1,0-.51c.51-.15,1.06-.25,1.3.37a.71.71,0,0,1-.6,1,.8.8,0,0,1-.65-.25Z"/><path class="cls-37" d="M230.76,68.86c-.65,0-.23-.42-.17-.55.17-.44.42-.86,1-.59A1.78,1.78,0,0,1,230.76,68.86Z"/><path class="cls-38" d="M180.54,47.91v.16a9.44,9.44,0,0,1-1.36,1.6.16.16,0,0,1-.25,0c0-.64.7-.85.87-1.38S180,47.55,180.54,47.91Z"/><path class="cls-39" d="M224.31,75.21v1.1l-.44.49C223.42,76.1,224,75.7,224.31,75.21Z"/><path class="cls-40" d="M180.54,47.91c-.36-.09-.56.13-.75.38-.19-.14-.4-.28-.07-.49s.76-.68,1.26-.19Z"/><path class="cls-41" d="M227.05,69.74h.21a1.6,1.6,0,0,1,.71.19l.66.06C228,70.58,227.48,70.45,227.05,69.74Z"/><path class="cls-7" d="M226,47.83l.42-.66a1,1,0,0,1,0,1.17Z"/><path class="cls-42" d="M178.69,75.5l0-.52c.07-.09.15-.09.23,0-.16.46.48.89,0,1.36A1.29,1.29,0,0,1,178.69,75.5Z"/><path class="cls-43" d="M225.69,79.31c-.25,0-.52,0-.69-.23.16-.15.31-.31.46-.46C225.73,78.79,225.69,79.06,225.69,79.31Z"/><path class="cls-44" d="M227.3,53.08c0,.15,0,.3,0,.45a1.06,1.06,0,0,1,0-1.35.5.5,0,0,1,.15.26C227.62,52.7,227.59,52.92,227.3,53.08Z"/><path class="cls-7" d="M227.31,52.43l0-.25c0-.38,0-.76,0-1.13.39.39.15.89.22,1.34C227.46,52.49,227.4,52.51,227.31,52.43Z"/><path class="cls-45" d="M227.32,55.14c0,.08,0,.15,0,.22a1,1,0,0,1,0-1.32l.08,0a1.3,1.3,0,0,1,.17.84A.51.51,0,0,1,227.32,55.14Z"/><path class="cls-46" d="M224.33,49.22l0,.29-.13,0a.5.5,0,0,1-.22-.16c-.13-.18-.1-.45-.32-.58l0-.07C224.21,48.45,224.27,48.83,224.33,49.22Z"/><path class="cls-47" d="M178.92,49.67h.25l-.22.92c-.08.1-.15.1-.23,0l0-.28C178.71,50.07,178.71,49.83,178.92,49.67Z"/><path class="cls-48" d="M229.55,69.76l.66-.3C230.18,70,230,70.1,229.55,69.76Z"/><path class="cls-3" d="M218,53.81a2.59,2.59,0,0,0,1.83,1.1c.68-.11,1.36.05,2,0l.46,0a2.1,2.1,0,0,1,.22,1.43c0,4.77,0,9.53,0,14.3a.55.55,0,0,1,0,.42l-.7-.18c-.66,0-1.33,0-2,0-.44,0-.76.29-1.16.41s-.94.27-.93.9a4.59,4.59,0,0,0-.41,4.12c-.5.46-1.12.26-1.7.32H188.25a9.41,9.41,0,0,1-1.68-.06c-.54-.15-.49-.51-.39-1a2.06,2.06,0,0,0,0-1.56,4.16,4.16,0,0,0-3.43-3.36,12.65,12.65,0,0,0-1.76.16.54.54,0,0,1-.34-.62,4,4,0,0,0,.18-1.14,23.9,23.9,0,0,0,.09-2.93c0-.93-.2-1.91.53-2.7a.52.52,0,0,0,0-.54c-.58-1.47.06-3.07-.46-4.56-.24-.67,0-1.42-.19-2.12a1.84,1.84,0,0,1-.21-.77.41.41,0,0,1,.17-.26,10.69,10.69,0,0,1,2.19.11s.08,0,.11,0-.12-.12-.12-.22c.35-.3.91-.21,1.19-.66a1.09,1.09,0,0,1,.68-.42,1.92,1.92,0,0,0,.9-1.57,1.47,1.47,0,0,1,.15-.34,1,1,0,0,1,.23-.11c.21-.17.16-.43.22-.65.15-.79.74-.88,1.38-.88,2.84,0,5.67,0,8.5,0a6.71,6.71,0,0,1,1,.25c.23.06.59.09.52.45s-.33.33-.73.35c.53,0,.93.06,1,.55a.92.92,0,0,1-.45.44A14.06,14.06,0,0,0,195,54a10.38,10.38,0,0,0-3.77,3.93,7.75,7.75,0,0,0-1,3.16c0,.84,0,1.69,0,2.53.35,3.67,2.46,6.1,5.51,7.87a3.93,3.93,0,0,1,1.23.77c.22.6.69.34,1.09.32.72,0,1.41.26,2.12.31A4.94,4.94,0,0,1,201,73a3.69,3.69,0,0,0,2,0,10.84,10.84,0,0,0,3.95-1.06,6.8,6.8,0,0,0,2-1,3.69,3.69,0,0,0,1.61-1.29,4.38,4.38,0,0,0,.72-.77c.94-.66,1.19-1.84,1.94-2.65a.55.55,0,0,0,.14-.83.83.83,0,0,1,.27-.67c.14,0,.36,0,.37-.18a30,30,0,0,0,.25-3.14c0-.24-.2.07-.29,0-.49-.38-.27-1-.49-1.45-.06-.2-.12-.4-.2-.6s-.24-.57-.34-.86a24.89,24.89,0,0,0-1.91-3c0-.23-.06-.47-.4-.45-.53-.16-.9-.61-1.41-.81a7.26,7.26,0,0,0-1.57-1,15.49,15.49,0,0,0-4.31-1.32,5.5,5.5,0,0,0-2.79.11,3.5,3.5,0,0,1-1.92.19c-.45-.16-.86-.41-.69-1s.6-.31,1-.3a72.54,72.54,0,0,0,7.52-.15,1.22,1.22,0,0,1,1,.28c.18.29.13.47-.25.54.22,0,.33-.12.45-.24a4.74,4.74,0,0,1,1.34-.82c2.14-.12,4.28,0,6.42,0a1.93,1.93,0,0,1,1,.23c.25.12.31.37.38.67a1.7,1.7,0,0,0-.19-.69,1,1,0,0,1,0-.79c.27-.17.41,0,.52.2,0,1-.25,2.06.45,3C217.88,53.2,217.86,53.54,218,53.81Z"/><path class="cls-49" d="M218.2,77.94H183.71c0-.36,0-.65.51-.69a.82.82,0,0,0,.77-.94c-.13-1.11.45-.49.82-.4a.77.77,0,0,1,.1.25c.1.36.38.42.7.42h31.14C217.91,77,218.69,77.27,218.2,77.94Z"/><path class="cls-50" d="M186,49.93c-.22-.19-.21-.36,0-.51a2.05,2.05,0,0,1,.89-.08q14,0,27.91,0a1.93,1.93,0,0,1,.89.08c.52.16,1.12-.23,1.59.26a6.67,6.67,0,0,1-2.22.32H186.61A3.57,3.57,0,0,1,186,49.93Z"/><path class="cls-51" d="M186.21,49.68h31.07l-.21.45-.46-.23a1.36,1.36,0,0,1-.38.24,4.68,4.68,0,0,1-1.24.08q-13.58,0-27.14,0C187.28,50.2,186.53,50.53,186.21,49.68Z"/><path class="cls-3" d="M186.21,49.68c.37.39.86.21,1.29.21h28.89a.28.28,0,0,1-.13.38,3.45,3.45,0,0,1-1.56.17H187.15a6.61,6.61,0,0,0-.77,0,.84.84,0,0,1-.35,0,.22.22,0,0,1-.09-.3.75.75,0,0,0,0-.21Z"/><path class="cls-52" d="M215.69,49.42H186c.35-.34.79-.2,1.18-.2H214.5C214.9,49.22,215.34,49.08,215.69,49.42Z"/><path class="cls-53" d="M178.72,50.59H179V75h-.23Z"/><path class="cls-54" d="M180.76,55.37v.23a38.87,38.87,0,0,1,.28,7.92c-.08,2.08.1,4.17-.17,6.24a.92.92,0,0,1-.11.43l.24.71c-.84.24-.3-.5-.5-.71a1.59,1.59,0,0,1-.19-1V56.13a1.59,1.59,0,0,1,.19-1c.08-.11-.07-.45.28-.3A.38.38,0,0,1,180.76,55.37Z"/><path class="cls-55" d="M180.31,70.19c-.25.09-.23-.1-.23-.23V55.38a.36.36,0,0,1,0-.21s.12,0,.19,0a.91.91,0,0,1,.11.54v14A.91.91,0,0,1,180.31,70.19Z"/><path class="cls-56" d="M180.31,70.19v-15h.19v15Z"/><path class="cls-57" d="M180.76,55.37l0-.52a6,6,0,0,0,2.22.28l.44,0C182.59,55.9,181.64,55.12,180.76,55.37Z"/><path class="cls-58" d="M185.75,76.12a.83.83,0,0,0,.06-.21,3.18,3.18,0,0,0,.38-1.81.35.35,0,0,1,0-.11c0-.11.18-.19.19-.08a5.78,5.78,0,0,1-.2,2.41C185.94,76.52,185.76,76.53,185.75,76.12Z"/><path class="cls-59" d="M185.94,50.14a.76.76,0,0,1,.06.2,1.62,1.62,0,0,1,0,1.86l-.23.28C185.89,51.71,185.47,50.89,185.94,50.14Z"/><path class="cls-60" d="M218,53.81l-.44-.71a.52.52,0,0,1,.68,0Z"/><path class="cls-61" d="M184.87,54.05a.91.91,0,0,1-.68.42C184.11,53.83,184.48,53.93,184.87,54.05Z"/><path class="cls-62" d="M193.25,41c-.3-.48-.3-.51.09-.52s.82.06,1.24.06c9.67,0,19.34,0,29,0,.41,0,1.05-.32,1.16.49a1.66,1.66,0,0,1-.62.23c-2.84.1-5.67,0-8.51,0q-10.32,0-20.64,0A2.38,2.38,0,0,1,193.25,41Z"/><path class="cls-7" d="M226.37,47.17c-.36-.33-1-.36-1.13-.92l.45-.43a1.26,1.26,0,0,1,1.36.48l.22.19a.21.21,0,0,1,.24-.07c.21.17.53.2.67.48.62,1.39,1.42,2.73,1.38,4.34,0,.1,0,.21-.07.32-.14.35-.1.75-.23,1.11a.46.46,0,0,1-.38.28,1.68,1.68,0,0,1-1.15-.59c.23-1.77-.54-3.35-1-5C226.71,47.28,226.5,47.23,226.37,47.17Z"/><path class="cls-63" d="M229.1,39.18c.8,0,1.27.51,1.79,1l-.43.17a4.08,4.08,0,0,0-3-.91H189.85c.05-.09.07-.18.11-.19a1.76,1.76,0,0,1,.33,0A1.89,1.89,0,0,1,191.6,39h34.7A17.52,17.52,0,0,1,229.1,39.18Z"/><path class="cls-64" d="M229.1,39.18H190.29V39c.25-.25.57-.15.86-.15h35.68a1.41,1.41,0,0,1,.67.08l1.57.09Z"/><path class="cls-65" d="M229.36,51.5a8.82,8.82,0,0,0-1-3.54,2,2,0,0,1-.41-1.25c.33-.4.82.13,1.16-.2.63-.25.9-.18.89.64,0,4.88,0,9.76,0,14.64,0,.36.11.79-.44.88l0-.07a.74.74,0,0,1-.21-.73,37.57,37.57,0,0,0,0-5.41,1.09,1.09,0,0,1,0-.36c.23-1.5,0-3,.16-4.52A.18.18,0,0,1,229.36,51.5Z"/><path class="cls-66" d="M227.5,38.93l-33.92,0c-1.1,0-2.19,0-3.29,0l-.9-.07c.36-.34.8-.19,1.2-.19q17.85,0,35.72,0C226.71,38.74,227.14,38.59,227.5,38.93Z"/><path class="cls-67" d="M224.32,41.05h.44a3.17,3.17,0,0,0-.21,2.67l-.45,0c-.14-.26-.58-.32-.44-.79.31-1.1-.39-1.18-1.19-1.12-9.33,0-18.66,0-28,0a.93.93,0,0,0-.68.3c-.19.11-.37.16-.48-.1a1,1,0,0,1,0-.61c.34-.48.84-.25,1.26-.25,9.48,0,19,0,28.45,0A3.39,3.39,0,0,0,224.32,41.05Z"/><path class="cls-68" d="M224.32,41.05c-.4.34-.87.18-1.31.18-9.44,0-18.88,0-28.33,0-.42,0-1-.3-1.21.45-.2,0-.31,0-.24-.23l0-.46h30.28C223.79,41,224.06,41,224.32,41.05Z"/><path class="cls-69" d="M227.05,46.3a3.88,3.88,0,0,1-1.36-.48c-.14-.1-.28-.2-.43-.29a1,1,0,0,1-.49-1.1A2.64,2.64,0,0,1,227.05,46.3Z"/><path class="cls-70" d="M186.22,42.59c.61-.44,1.31-.18,2-.2,1.61,0,3.22,0,4.84,0,.45.13.1.26,0,.39a21.32,21.32,0,0,1-6.81-.14Z"/><path class="cls-71" d="M229.55,69.27V63.13a3.65,3.65,0,0,1,.2,2.28C229.71,66.7,230,68,229.55,69.27Z"/><path class="cls-72" d="M231.64,66.07V62.25h.11v3.82Z"/><path class="cls-73" d="M224.77,44.43c.17.37.33.73.49,1.1-.72-.18-.79-.31-.72-1.32A2.39,2.39,0,0,0,224.77,44.43Z"/><path class="cls-74" d="M229.12,46.51c-.3.59-.78.09-1.16.2s-.45.2-.45-.2a1.2,1.2,0,0,1,1.12,0Z"/><path class="cls-75" d="M193.24,42.58l-.22-.2c0-.32-.11-.67.21-.91l.24.23,0,.44a.41.41,0,0,1,.11.26.55.55,0,0,1-.12.24l-.14,0Z"/><path class="cls-63" d="M188,39.41c.09-.21.28-.21.47-.22h.64v.22Z"/><path class="cls-76" d="M228.63,46.47l-1.12,0-.24,0A1,1,0,0,1,228.63,46.47Z"/><path class="cls-77" d="M223.2,50.36V49.9c.27-.2.44-.63.91-.46h0c.13.54.39,1.07,0,1.6a8,8,0,0,0-.43,2.85c0,6,0,12,0,18.07,0,.88.53,1.74.06,2.73-.59-.52,0-1.32-.5-1.76a2.46,2.46,0,0,1-.11-1.23c0-6.14,0-12.29,0-18.43C222.91,52.29,223.38,51.34,223.2,50.36Z"/><path class="cls-78" d="M217.75,76.58a2.41,2.41,0,0,1-1.32.23H187.16c-.4,0-.84.15-1.18-.22a2.41,2.41,0,0,1,1.22-.11h27.26a3.25,3.25,0,0,0,1.24-.08l1.61,0A.47.47,0,0,1,217.75,76.58Z"/><path class="cls-79" d="M224.58,50.57c.33.36.2.8.2,1.2,0,7.4,0,14.8,0,22.2,0,.43.29,1-.41,1.26l0-.25a2.34,2.34,0,0,0,.11-1.23c0-7.39,0-14.79,0-22.19C224.45,51.23,224.32,50.87,224.58,50.57Z"/><path class="cls-80" d="M224.58,50.57c0,7.71,0,15.42,0,23.12,0,.43.2.92-.21,1.29V51c-.16-.25-.18-.44.2-.43Z"/><path class="cls-81" d="M223.2,52.87V72.93c-.4-.38-.22-.86-.22-1.29,0-6.19,0-12.37,0-18.55C222.91,52.88,223,52.82,223.2,52.87Z"/><path class="cls-82" d="M222.51,71.1v-.22a1.31,1.31,0,0,1-.1-.78q0-7.21,0-14.43a1.21,1.21,0,0,1,.11-.77c.41,0,.21.32.21.48q0,7.44,0,14.89C222.74,70.57,222.8,70.89,222.51,71.1Z"/><path class="cls-83" d="M222.52,54.9v16c-.37-.34-.22-.78-.22-1.18V55Z"/><path class="cls-4" d="M223.2,52.87l-.23.22c-1.06-.77-1-1.78.23-2.73C223.87,51.19,223.38,52,223.2,52.87Z"/><path class="cls-84" d="M221.83,54.91a2.39,2.39,0,0,1-2,0l.23-.22a.48.48,0,0,1,.68,0C221.08,54.75,221.51,54.54,221.83,54.91Z"/><path class="cls-85" d="M219.81,70.92a3.58,3.58,0,0,1,2,0A2.41,2.41,0,0,1,219.81,70.92Z"/><path class="cls-4" d="M224.11,49.44c-.32.13-.52.49-.91.46l.43-1.1A.66.66,0,0,1,224.11,49.44Z"/><path class="cls-86" d="M217.72,72.23q-.19-1,.93-.9Z"/><path class="cls-4" d="M224.53,50.61a.43.43,0,0,0-.2.43h-.23v-1.6l.2.07C224.38,49.88,224.45,50.24,224.53,50.61Z"/><path class="cls-4" d="M221.92,53.81c.16,0,.33.11.24.27a.87.87,0,0,1-.46.3c-.17,0-.28-.09-.22-.27A.48.48,0,0,1,221.92,53.81Z"/><path class="cls-4" d="M220.7,54.69H220c0-.19,0-.38.29-.41S220.67,54.46,220.7,54.69Z"/><path class="cls-87" d="M193.7,41.92a.45.45,0,0,1,.22-.45,1.72,1.72,0,0,0,1,.11H222a1.71,1.71,0,0,0,1-.11c1.17-.15,1.22.74,1,1.39-.14.42.15.56.12.83l-.45-.17c-.85-.07-1.63-.46-2.46-.59a.33.33,0,0,1-.12-.24c-2.41,0-4.83-.08-7.24.07a.94.94,0,0,1-.5,0c-.63-.31-1.24,0-1.86.06a1.59,1.59,0,0,1-.72-.08c-2,0-4-.09-6-.06-3.25.07-6.5,0-9.75,0C194.43,42.69,193.84,42.68,193.7,41.92Z"/><path class="cls-9" d="M211.81,43.31c.56.38,1.32.22,1.85.66s.12.57-.34.57H206.6a2.43,2.43,0,0,1-1.15-.87c.52-.72,1.37-.44,2.05-.68h3.07a3.89,3.89,0,0,1,.76.05A.7.7,0,0,1,211.81,43.31Z"/><path class="cls-88" d="M211.81,43.31l-.41,0c-.13-.22-.16-.41.12-.54,2.4-.18,4.81-.13,7.21-.11a5.22,5.22,0,0,1,2.45.2,5.67,5.67,0,0,1,2.47.7c-.7.49-1.26-.16-1.89-.25-2.87-.44-5.76-.09-8.64-.21A2.21,2.21,0,0,0,211.81,43.31Z"/><path class="cls-89" d="M206.4,44.43h6.46c.35,0,.73,0,.8-.46a3.17,3.17,0,0,1,1.56.67l-10.53,0c-.29,0-.62.08-.83-.22.11-.61.6-.59,1-.64C205.35,44.15,206,44.09,206.4,44.43Z"/><path class="cls-90" d="M228,69.93a.63.63,0,0,1-.71-.19c0-2.36,0-4.71,0-7.07a.78.78,0,0,0,0-.22.57.57,0,0,1,.18,0,15.18,15.18,0,0,1,.14,3.37,30.67,30.67,0,0,0,.13,3.95Z"/><path class="cls-91" d="M227.74,69.74c-.39-.33-.22-.78-.23-1.17q0-3.07,0-6.15h0a.52.52,0,0,1,.7,0,1.36,1.36,0,0,0-.46,1.31C227.74,65.75,227.74,67.74,227.74,69.74Z"/><path class="cls-92" d="M229.31,62.71a.46.46,0,0,0-.2-.05,1.14,1.14,0,0,1-.29-.54l-.06-.42c0-1.51,0-3,0-4.52,0-.42-.16-1,.6-1.1a22.75,22.75,0,0,1,0,6.54Z"/><path class="cls-93" d="M229.09,62.24c0,.14,0,.28,0,.42a1.42,1.42,0,0,1-.92-.22h-.7a.75.75,0,0,1,0-.21A1.16,1.16,0,0,1,229.09,62.24Z"/><path class="cls-7" d="M205,44a2.25,2.25,0,0,0-1.17.48h-8.59a5.26,5.26,0,0,1-1.77-.24l-.09-.23a1.23,1.23,0,0,1,0-1.35l.1,0a.34.34,0,0,1,.31,0,1.23,1.23,0,0,0,.68.14h9.89a5,5,0,0,1,1.23.08c1,.58-.25.51-.23.8A.55.55,0,0,1,205,44Z"/><path class="cls-94" d="M193,43.75c-.07.69-.57.68-1.07.68h-4.26c-1.56,0-1.64-.11-1.26-1.59a.38.38,0,0,1,.37,0c2,.06,4,.05,6,0a.92.92,0,0,1,.37-.05C193.51,43.16,193.23,43.45,193,43.75Z"/><path class="cls-95" d="M193.24,42.83H193a36.4,36.4,0,0,1-6.35,0h-.23l-.23-.21,7-.05v.06c.07,0,.09.08.07.13S193.26,42.83,193.24,42.83Z"/><path class="cls-96" d="M193.24,42.83v-.19a.37.37,0,0,1,.18,0,3.23,3.23,0,0,1,0,1.35l-.39-.22Z"/><path class="cls-97" d="M227.73,52.36a1.69,1.69,0,0,1,1.16.5c.69.47.48,1.07.23,1.67a1.14,1.14,0,0,1-.7.59,1.06,1.06,0,0,1-.9-.12c-.24-.34-.09-.57.22-.74.42,0,.74-.11.67-.63-.11-.7-.76-.34-1.11-.55a.59.59,0,0,0,0-.64l.2,0Z"/><path class="cls-98" d="M227.51,62v-6.6a.22.22,0,0,1,.32,0,1.07,1.07,0,0,1,.14.35,5.17,5.17,0,0,1,.07,1c-.1,1.72.21,3.45-.18,5.15A.24.24,0,0,1,227.51,62Z"/><path class="cls-99" d="M227.51,62a1.61,1.61,0,0,0,.22,0,2,2,0,0,1,.31-.2,1,1,0,0,1,1.05.21v.25l-1.58,0Z"/><path class="cls-100" d="M227.73,55.37h-.21l-.2-.24v-.23c.07-.1.13-.1.19,0l.89,0C228.37,55.43,228,55.36,227.73,55.37Z"/><path class="cls-101" d="M229.33,62.62l0-6.55a.83.83,0,0,1-.2-.32,2.67,2.67,0,0,1,0-1.16,7.73,7.73,0,0,0,.12-1.92,3.77,3.77,0,0,1,.08-1.16h.26a19.87,19.87,0,0,1,0,4.56v.23a30,30,0,0,1,0,5.69l0,.62Z"/><path class="cls-102" d="M227.51,54.92h-.19V54l.42.25Z"/><path class="cls-103" d="M213.37,66.3c-.64.93-1,2.1-2,2.75a1.35,1.35,0,0,0-.66.75,3.52,3.52,0,0,1-1.61,1.29c-1,0-1.68.68-2.5,1.09a11.77,11.77,0,0,1-5.68.88,1.47,1.47,0,0,0-.88.07l-2.29-.41c-.36.16-.68.17-.85-.28A14.82,14.82,0,0,1,192.13,69a9.56,9.56,0,0,1-2.27-5.16A8.73,8.73,0,0,0,190,62c-.21-1.59,1.08-2.81,1-4.36a10.11,10.11,0,0,1,3.79-3.94c1.06-.22,1.91-1,3-1.12-.06-.1-.2-.1-.26-.2l.46-.24a.29.29,0,0,1,.32,0,6.88,6.88,0,0,0,2.88-.37c.58-.08,1.16,0,1.73-.09a.6.6,0,0,1,.51,0,11.59,11.59,0,0,1,4.36,1.38c.25.75,1,.61,1.54,1,.58.11.89.64,1.37.89.28,0,.32.3.44.49a10.53,10.53,0,0,1,2,3,.72.72,0,0,0,.3.87.52.52,0,0,1,.19.48,32.31,32.31,0,0,1,.23,4.71.63.63,0,0,1-.15.32l-.21.67C213.66,65.74,213.7,66.05,213.37,66.3Z"/><path class="cls-104" d="M216.39,50.13V49.9h.22l.23.69c-.15.11-.07.34-.23.45-1.77-.46-3.57-.14-5.35-.22-.86,0-1.73,0-2.59,0-.83.63-1.75.09-2.62.14a78.76,78.76,0,0,1-9.09,0,.82.82,0,0,1-.31-.11c-2.8,0-5.59,0-8.38,0-.92,0-1.7,0-1.84,1.15-.23-.62-.55-1.26.29-1.7h28.45A2.31,2.31,0,0,0,216.39,50.13Z"/><path class="cls-105" d="M186.42,62.21c0,.56-.38.82-.72,1.15a3.35,3.35,0,0,1-2,.45,1.69,1.69,0,0,1-1.61-1.37.23.23,0,0,1-.07-.17c0-.06,0-.09,0-.09a2.75,2.75,0,0,0,.05-1l0-.14.28-.87a.67.67,0,0,1,.65-.39,1.08,1.08,0,0,0,.77,0,1.4,1.4,0,0,1,1.75.6c.14.24.3.12.46.14a.58.58,0,0,1,.41.51A1.41,1.41,0,0,0,186.42,62.21Z"/><path class="cls-4" d="M215.7,76.38c-.4.35-.87.19-1.31.19H186c-.29,0-.57-.1-.23-.46a.38.38,0,0,0,.46.2l27.9,0C214.64,76.35,215.17,76.37,215.7,76.38Z"/><path class="cls-106" d="M196.65,50.81h12a1.08,1.08,0,0,1-1.13.69c-.75-1-1.75-.25-2.57-.25-2.05,0-4.11,0-6.17,0-.25,0-.63-.4-.73.1s.27.56.64.6c0,.39-.21.36-.47.24l-.24,0a1.15,1.15,0,0,0-1.43-.27c.16-.58.8-.28,1-.79C197.31,50.93,196.84,51.19,196.65,50.81Z"/><path class="cls-107" d="M181,56.29c.13,0,.4-.11.36,0-.56,1.81.72,3.58.11,5.39a1,1,0,0,0,.1.54c.28.7.74,1.37-.23,2-.19.11-.08.71-.12,1.08-.13,1.33.29,2.7-.22,4a3.74,3.74,0,0,1-.11-1.56q0-5.16,0-10.32A2.1,2.1,0,0,1,181,56.29Z"/><path class="cls-108" d="M218.41,60.86c.31.22.49.63.93.68a.93.93,0,0,1,0,1.32c-1.53.8-1.85.77-2.53-.2a1.52,1.52,0,0,1,0-1.13l.7-.68A.77.77,0,0,1,218.41,60.86Z"/><path class="cls-109" d="M219.34,62.86V61.54c.46-.73,1.21-.59,1.79-.4s.57.92.46,1.47C221.38,63.67,220.44,63.76,219.34,62.86Z"/><path class="cls-57" d="M181,56.29v13c-.19.28.46.76-.23.91V55.6C181,55.77,181,56,181,56.29Z"/><path class="cls-110" d="M213.67,64.52a3.06,3.06,0,0,1-.07-1.85,2.59,2.59,0,0,0-.1-1.75c-.16-.41-.33-.85.14-1.21.38.48.11,1.14.46,1.63C214.36,62.46,214.59,63.56,213.67,64.52Z"/><path class="cls-111" d="M191,57.67a1.35,1.35,0,0,1,.07,1.49,8.57,8.57,0,0,0-1,2.83c-.26-.34,0-.78-.2-1.13A7.61,7.61,0,0,1,191,57.67Z"/><path class="cls-112" d="M200.06,73.13c1.17-.54,2.42,0,3.64-.34l3.16-.77a.19.19,0,0,1,.3,0A7.42,7.42,0,0,1,203,73.17a5.1,5.1,0,0,1-2.13,0Z"/><path class="cls-113" d="M215.25,62c-.91-1,0-1,.64-1.14a5.52,5.52,0,0,1,.07,2.49c-.24.29-.45.11-.67,0A1.53,1.53,0,0,1,215.25,62Z"/><path class="cls-114" d="M186,60.58l-.82.66c.21-1-.17-1.35-1-1.18-.41.08-.8.25-1.13-.14-.06-.2,0-.29.22-.25A2,2,0,0,1,186,60.58Z"/><path class="cls-6" d="M197.54,52.41l.88.28a19.21,19.21,0,0,0-2.47.84c-.34.15-.67.73-1.15.2A8.09,8.09,0,0,1,197.54,52.41Z"/><path class="cls-115" d="M213.67,64.52c.68-1,.35-2.11.43-3.18.08-.07.11-.55.23-.18a6.82,6.82,0,0,1-.22,3.74c-.06.26-.24-.12-.39-.16A.42.42,0,0,1,213.67,64.52Z"/><path class="cls-114" d="M207.16,72.05l-.3,0a.66.66,0,0,1,.7-.69,1.28,1.28,0,0,0,.93-.53c.62-.83.44.15.63.29C208.43,71.33,208,72.15,207.16,72.05Z"/><path class="cls-116" d="M198.24,52.2l.47-.24c.61-.06,1.26.16,1.81-.27a.91.91,0,0,1,.65,0,.22.22,0,0,1,.07.19c0,.07,0,.1-.06.1A5.18,5.18,0,0,1,198.24,52.2Z"/><path class="cls-6" d="M209.34,54c-.61.21-1.09-.47-1.73-.29a1.15,1.15,0,0,1,.19-.67A3.5,3.5,0,0,1,209.34,54Z"/><path class="cls-117" d="M183.72,63.81l2-.45C185.11,63.84,184.51,64.27,183.72,63.81Z"/><path class="cls-106" d="M201.18,51.74l-.66-.05a4.63,4.63,0,0,1,2.92,0l-.45.06A3.7,3.7,0,0,1,201.18,51.74Z"/><path class="cls-118" d="M189.87,60.86c.34.33.14.75.2,1.13-.1.6.2,1.24-.21,1.81A13.76,13.76,0,0,1,189.87,60.86Z"/><path class="cls-119" d="M216,63.34c0-.83,0-1.66-.07-2.49A2.83,2.83,0,0,1,216,63.34Z"/><path class="cls-120" d="M186.66,50.36c-.44.48-.14,1.06-.23,1.59l-.08.3-.16-.1a3.61,3.61,0,0,1,0-1.76.48.48,0,0,1,.47-.26c.07,0,.1.1.07.15S186.69,50.36,186.66,50.36Z"/><path class="cls-103" d="M200.91,73.18H203A2.9,2.9,0,0,1,200.91,73.18Z"/><path class="cls-121" d="M186.19,50.39v1.76l-.19.05V50.34Z"/><path class="cls-106" d="M207.42,51.53c-.21,0-.06.64-.51.53a.3.3,0,0,1-.17-.26C206.82,51.24,207.3,51.68,207.42,51.53Z"/><path class="cls-122" d="M183.25,59.67l-.22.25-.66.3C182.43,59.66,182.58,59.26,183.25,59.67Z"/><path class="cls-123" d="M215.25,62c0,.44,0,.88,0,1.32C214.81,62.88,215,62.44,215.25,62Z"/><path class="cls-124" d="M218.41,60.86h-.87c.21-.48.58-.17.89-.18a.13.13,0,0,1,0,.1S218.43,60.83,218.41,60.86Z"/><path class="cls-125" d="M213.45,59.23c-.54-.07-.56-.14-.3-.87Z"/><path class="cls-126" d="M213.37,66.3c0-.3.09-.59.14-.89C214.28,65.83,213.82,66.07,213.37,66.3Z"/><path class="cls-127" d="M216.61,51a.49.49,0,0,1,.23-.45v1.17C216.48,51.55,216.67,51.26,216.61,51Z"/><path class="cls-128" d="M196.92,72.44a1.36,1.36,0,0,0,.85.28C197.37,73,197,73.17,196.92,72.44Z"/><path class="cls-129" d="M211.15,55.41l-.44-.49c.11-.16.27-.29.43-.18S211.1,55.18,211.15,55.41Z"/><path class="cls-107" d="M182.15,62.2l0,.24a1.07,1.07,0,0,1,0-1.35h.09A2,2,0,0,1,182.15,62.2Z"/><path class="cls-130" d="M186.42,62.21a.79.79,0,0,1,0-1.12C186.41,61.46,186.42,61.83,186.42,62.21Z"/><path class="cls-131" d="M210.73,69.8a.63.63,0,0,1,.66-.75A1.29,1.29,0,0,1,210.73,69.8Z"/><path class="cls-132" d="M216.77,74.73a.53.53,0,0,1-.07-.68C217,74.26,216.75,74.5,216.77,74.73Z"/><path class="cls-119" d="M216.84,61.53l0,1.13A.79.79,0,0,1,216.84,61.53Z"/><path class="cls-133" d="M186.66,50.36v-.23h29.73c-.38.39-.86.22-1.29.22Z"/><path class="cls-100" d="M229.3,52.63v2.06a.19.19,0,0,1-.25,0,.39.39,0,0,1-.12-.25,2,2,0,0,0,0-1.62l.21-.22C229.16,52.53,229.23,52.54,229.3,52.63Z"/><path class="cls-134" d="M229.3,52.63h-.2c0-.38-.14-.8.19-1.13C229.29,51.88,229.3,52.26,229.3,52.63Z"/><path class="cls-135" d="M229.55,62V56.29A14.72,14.72,0,0,1,229.55,62Z"/><path class="cls-135" d="M229.55,56.06V51.5l0-.43C229.63,52.73,230.06,54.4,229.55,56.06Z"/><path class="cls-136" d="M223,41.47c-.34.37-.78.22-1.18.22q-13.35,0-26.69,0c-.4,0-.84.15-1.18-.22Z"/><path class="cls-137" d="M193.69,42.63l-.17,0,0-.45.2-.22c.32.48.8.47,1.3.46,3.8,0,7.59-.09,11.39-.08a17.71,17.71,0,0,0,3.92-.06c.33-.07.49.1.63.35a1.32,1.32,0,0,1-1.15.33c-5.08-.12-10.16-.07-15.24-.09A1.38,1.38,0,0,1,193.69,42.63Z"/><path class="cls-138" d="M193.69,42.63l17.25,0h.69a2.83,2.83,0,0,1,1.58,0h.47a51.46,51.46,0,0,1,7.45,0,1.46,1.46,0,0,0,.05.2l-9.79,0c-.85.43-1.76.15-2.64.21-.71.05-1.43,0-2.13.07a9.37,9.37,0,0,0-2.24-.18H195a2,2,0,0,0-1.1.11A.47.47,0,0,1,193.69,42.63Z"/><path class="cls-137" d="M221.13,42.62l-7.45,0c.22-.28.54-.21.83-.21h7.35C221.66,42.74,221.36,42.54,221.13,42.62Z"/><path class="cls-137" d="M213.21,42.59h-1.58A1.32,1.32,0,0,1,213.21,42.59Z"/><path class="cls-139" d="M206.63,42.84h4.76v.43l-.71,0a10.92,10.92,0,0,0-2.68,0l-.49,0c-.28-.21-.62,0-.9-.14A.2.2,0,0,1,206.63,42.84Z"/><path class="cls-140" d="M205,44l.24-.23c.08-.1.16-.09.23,0,.48,0,.87.09.9.68C205.92,44.36,205.29,44.7,205,44Z"/><path class="cls-141" d="M205.5,43.75l-.23,0c0-.49.53-.37.68-.66a.54.54,0,0,1,.68,0c.3,0,.65-.1.89.2A10.82,10.82,0,0,0,205.5,43.75Z"/><path class="cls-142" d="M208,43.24a4.31,4.31,0,0,1,2.68,0Z"/><path class="cls-100" d="M229.3,55.82v.25c-.44,1.09-.13,2.22-.19,3.32-.06.86,0,1.73,0,2.6H228a33.62,33.62,0,0,1-.11-4.14,3,3,0,0,0-.12-1.33V55.6a2.19,2.19,0,0,1,1.33-.52C229.32,55.27,229.1,55.61,229.3,55.82Z"/><path class="cls-142" d="M206.63,43.06H193.92c.3-.35.7-.22,1.06-.22,3.88,0,7.77,0,11.65,0Z"/><path class="cls-96" d="M186.66,42.83H193c-1.37.49-2.79.15-4.18.2A3.32,3.32,0,0,1,186.66,42.83Z"/><path class="cls-7" d="M229.09,55.15l-1.36.45v-.23l.67-.4.53-.49.17.21A.31.31,0,0,1,229.09,55.15Z"/><path class="cls-143" d="M227.73,56.51c.49.93.15,1.92.22,2.87s0,1.74,0,2.6h-.23Z"/><path class="cls-144" d="M229.09,55.15v-.46h.2v1.13C229.05,55.65,229.11,55.39,229.09,55.15Z"/><path class="cls-3" d="M200.71,66.1a.54.54,0,0,0,.49.19c.47-.2,1,0,1.45-.15.67-.21,1.17-.53,1.12-1.33-.39-.71-1.16-.7-1.81-.86-.36-.09-.73-.07-1-.38-1.45-.51-3-1-3.36-2.75a12.71,12.71,0,0,1,.41-2.94v-.22a1,1,0,0,1,.89-.95l.7-.43c.23-.56.87-.37,1.24-.68s-.14-1.07.37-1.45c.86-.06,1.79-.27,1.72,1.15,0,.3.34.45.65.53a1.75,1.75,0,0,1,1,.46.82.82,0,0,1,.06.19A4.83,4.83,0,0,0,206,57.61c.74,1,.62,1.43-.5,1.68a3.46,3.46,0,0,0-1.15.38c-.71-.24-.84-1.16-1.58-1.36-.44-.35-.89-.13-1.34,0s-.65.38-1,.6c-.19.51-.48,1,.44,1.1a3.87,3.87,0,0,1,1.31.5,4.33,4.33,0,0,0,2.6.68.76.76,0,0,1,.66.39,6,6,0,0,1,1.6,2.52c.32.5.08,1,0,1.52-.12.31-.11.7-.45.91a5.37,5.37,0,0,1-1.8,1.62c-.27-.06-.53-.09-.65.25a1.65,1.65,0,0,0-1.5,1.8c0,.78-.9.53-1.47.23a2.1,2.1,0,0,0,0-1.56c-1.29-.41-2.72-.54-3.55-1.85a.48.48,0,0,0,0-.44c-.45-.66-.24-1.1.45-1.39s1.41-.27,1.65.56c.18.6.37.53.75.28A.38.38,0,0,1,200.71,66.1Z"/><path class="cls-25" d="M200.32,58.85l.87-.68a1.74,1.74,0,0,1,1.54,0,3,3,0,0,1,1.59,1.53c.15.12.14.43.08.38-.35-.28-1.1.06-1.12-.83s-.77-.65-1.32-.65-1-.08-1,.53.4.83.93.94a37.29,37.29,0,0,0,4.46,1l-.86.48-.65-.22a6.94,6.94,0,0,1-2.71-.71l-1.36-.47C200.05,59.89,200,59.42,200.32,58.85Z"/><path class="cls-6" d="M196.88,65.85c-.08.16-.1.4-.23.48s-.25-.11-.22-.24c.1-.52-.46-.75-.56-1.21,1,.28,1.74-.5,2.7-.51,1.22,0,1.43-.05,1.71,1.26.06.23-.06.28-.25.29C199,64.8,198.3,64.78,196.88,65.85Z"/><path class="cls-145" d="M196.88,65.85c-.06-.14-.19-.38-.16-.4a7.59,7.59,0,0,1,2.4-.67c.52-.16.51.43.72.7a3.47,3.47,0,0,1,.26.37c.1.13.34.07.4.27a2.08,2.08,0,0,1-1,.52,1.13,1.13,0,0,0-.31-1.29c-.42-.34-.79,0-1.15.09s-.77.34-.32.87c.1.11.45.55-.1.69Z"/><path class="cls-146" d="M204.57,56.29l-1.3-.34c-.25-.08-.56-.16-.51-.5.21-1.39-.74-1.19-1.56-1.17a.15.15,0,0,1-.09-.19l.07-.08h1.13c.22,0,.6,0,.58.2-.11,1.3.91,1.44,1.72,1.81C204.64,56,204.59,56.2,204.57,56.29Z"/><path class="cls-147" d="M201,55.81l-1.36.47c0-.42-.26-1.07.66-.79.25.07.44,0,.25-.44s-.17-1.1.67-1h0C200.87,54.58,201.26,55.24,201,55.81Z"/><path class="cls-148" d="M201,63.57c.68.14,1.36.27,2,.43a1.08,1.08,0,0,1,.9.72q-.1.16-.21,0c-.77-.18-1.41-.74-2.27-.62C201.15,64.14,201,63.88,201,63.57Z"/><path class="cls-149" d="M203.68,64.72h.21c.2,1.19-.61,1.46-1.48,1.62a6.16,6.16,0,0,1-1.21,0c.27-.31.63-.16,1-.21A1.58,1.58,0,0,0,203.68,64.72Z"/><path class="cls-150" d="M198,57.88a11.59,11.59,0,0,1-.41,2.94A3.71,3.71,0,0,1,198,57.88Z"/><path class="cls-151" d="M206,57.61a1.74,1.74,0,0,1-1.34-1.13A2.49,2.49,0,0,1,206,57.61Z"/><path class="cls-152" d="M198.9,56.71l-.89.95C197.87,56.85,198.07,56.65,198.9,56.71Z"/><path class="cls-64" d="M206.89,65.64c.05-.52.11-1,.16-1.56a1.53,1.53,0,0,1,0,1.78A.41.41,0,0,1,206.89,65.64Z"/><path class="cls-80" d="M201.18,51.74H203c-.56.42-1.21.11-1.81.2Z"/><path class="cls-6" d="M206.89,65.64l.19.22c-.13.24.33.92-.47.65C206.7,66.22,206.79,65.93,206.89,65.64Z"/><path class="cls-153" d="M201.16,68.85a1.21,1.21,0,0,1,0,1.56Z"/><path class="cls-154" d="M200.5,66.12l-.4-.27.18-.22c.54-.21.56.06.43.47Z"/><path class="cls-155" d="M204.16,68.38c-.11,0-.37-.07-.26-.18s.58-.47.91-.07Z"/><path class="cls-156" d="M182.15,62.2l0-1.12A.86.86,0,0,1,182.15,62.2Z"/><path class="cls-157" d="M218.45,62.07c0,.4-.06.75-.44.77s-.5-.36-.51-.71,0-.48.42-.45S218.49,61.75,218.45,62.07Z"/><path class="cls-158" d="M220.46,61.54c.45,0,.49.3.49.62s-.08.74-.52.68a.75.75,0,0,1-.61-.71C219.8,61.69,220.14,61.6,220.46,61.54Z"/><path class="cls-159" d="M202.09,60.63a15.89,15.89,0,0,1,2.71.71A2.88,2.88,0,0,1,202.09,60.63Z"/><path class="cls-160" d="M200.32,58.85a1.47,1.47,0,0,0,.41,1.31c-.83,0-1-.31-.59-1.39,0,0,.07,0,.1,0S200.29,58.82,200.32,58.85Z"/><path class="cls-103" d="M201,55.81c.09-.6-.23-1.25.22-1.8l0,.27C201,54.77,201.37,55.35,201,55.81Z"/><path class="cls-161" d="M202.73,58.14l-1.54,0c.47-.52,1-.26,1.58-.21,0,0,0,.06,0,.09A.47.47,0,0,1,202.73,58.14Z"/><path class="cls-20" d="M204.24,65.67a.73.73,0,0,1,0-.77A.64.64,0,0,1,204.24,65.67Z"/></g></g></svg>