<svg xmlns="http://www.w3.org/2000/svg" viewBox="0 0 717.07 397.46"><defs><style>.cls-1{fill:#233569;}.cls-2{fill:#99cae1;}.cls-3{fill:#6786a4;}.cls-4{fill:#fee1f1;}.cls-5{fill:#9acae1;}.cls-6{fill:#a4cee3;}.cls-7{fill:#9acbe1;}.cls-8{fill:#a1cee3;}.cls-9{fill:#fce3f1;}.cls-10{fill:#9ecce2;}.cls-11{fill:#f1e0f0;}.cls-12{fill:#aed2e6;}.cls-13{fill:#b2d1e6;}.cls-14{fill:#b1d1e5;}.cls-15{fill:#b5d2e6;}.cls-16{fill:#b7d3e7;}.cls-17{fill:#b5d3e7;}.cls-18{fill:#afd3e6;}.cls-19{fill:#aed0e5;}.cls-20{fill:#f5e1f1;}.cls-21{fill:#c1d8ea;}.cls-22{fill:#c4d9ea;}.cls-23{fill:#b1d2e6;}.cls-24{fill:#aed1e5;}.cls-25{fill:#e4deee;}.cls-26{fill:#bfd6e9;}.cls-27{fill:#2259cd;}.cls-28{fill:#0325a5;}.cls-29{fill:#082ba7;}.cls-30{fill:#0426a5;}.cls-31{fill:#0427a5;}.cls-32{fill:#0528a5;}.cls-33{fill:#2045b0;}.cls-34{fill:#173bad;}.cls-35{fill:#1a3fae;}.cls-36{fill:#1c41af;}.cls-37{fill:#183dae;}.cls-38{fill:#193eae;}.cls-39{fill:#1a3eae;}.cls-40{fill:#183dad;}.cls-41{fill:#183cad;}.cls-42{fill:#0022a3;}.cls-43{fill:#1d42af;}.cls-44{fill:#0325a4;}.cls-45{fill:#0f33a9;}.cls-46{fill:#0f32a9;}.cls-47{fill:#0c30a8;}.cls-48{fill:#0c2fa8;}.cls-49{fill:#0e31a9;}.cls-50{fill:#1337ab;}.cls-51{fill:#1236ab;}.cls-52{fill:#1438ac;}.cls-53{fill:#0d31a9;}.cls-54{fill:#1438ab;}.cls-55{fill:#3158b7;}.cls-56{fill:#1b40ae;}.cls-57{fill:#274db3;}.cls-58{fill:#274eb4;}.cls-59{fill:#3057b7;}.cls-60{fill:#9bcae0;}.cls-61{fill:#fdfcfb;}.cls-62{fill:#9bc9e0;}.cls-63{fill:#99c8de;}.cls-64{fill:#fdfcfc;}.cls-65{fill:#f96e0b;}.cls-66{fill:#fa6e0a;}.cls-67{fill:#fb6d08;}.cls-68{fill:#fee9f4;}.cls-69{fill:#fefdfe;}.cls-70{fill:#ccc;opacity:0.5;}</style></defs><title>資產 1</title><g id="圖層_2" data-name="圖層 2"><g id="圖層_1-2" data-name="圖層 1"><path class="cls-1" d="M668.39,313.1c-12.13,26.61-24.31,53.2-36.31,79.87-1.44,3.19-3.06,4.31-6.66,4.31q-167.86-.18-335.74-.08c-17.09,0-33.7-3.91-50.56-5.83-6.72-.76-13.41-1.74-20.12-2.57a11.56,11.56,0,0,0-8.21,1.71c-13.36,9.09-27.92,7.63-42.59,4.71-4.71-.94-9.1-3-13.53-4.85-10.93-4.68-21.71-5.58-32.11,1.84-5.38,3.84-11.4,5.16-18,3.06a13.77,13.77,0,0,1-6-3.79q-42-43.82-84-87.57c-.83-.87-1.71-1.68-2.57-2.52-.56-3.49,2.3-3.13,4-2.93,6.75.83,13.56.16,20.28.9,9.88,1.1,19.82.86,29.72,1.4,24.16,1.33,48.35,2.08,72.5,3.62,7.35.46,14.73.65,22.08.83,18.64.48,37.27,1.32,55.88,2.16,25.37,1.16,50.77,1.53,76.12,3.31,9.29.64,18.63.59,27.95.95,41.65,1.63,83.34,1,125,1,29.34,0,58.67-.64,88-1.16,19.25-.34,38.52.08,57.75-.74,23.14-1,46.29-.91,69.43-1.67a21.23,21.23,0,0,1,5.4.29C668.06,309.8,669.53,310.67,668.39,313.1Z"/><path class="cls-2" d="M668.39,313.1c.48-3.32-1.84-2.68-3.73-2.64-25.41.53-50.82,1.18-76.23,1.57-34.75.54-69.5.6-104.24,1.38-45.27,1-90.55,1.51-135.82.39-34-.84-67.91-2.64-101.88-3.82-17-.58-34-1.43-50.92-2.06q-69-2.58-137.9-6.22-20.94-1.08-41.9-1.86c-1.28,0-3.54-1.39-3.78,1.55L0,290.63l1-1.21c12.11.31,24.13,1.81,36.2,2.76,9.85.78,19.72,1.4,29.59,2,13.9.87,27.79,2,41.66,3.32,7.9.74,15.82,1.29,23.73,1.94,18.67,1.55,37.37,2.75,56.06,3.85,13.62.79,27.21,1.84,40.76,3.42,7.67.9,8.51.29,8.6-7.59.07-6.62.05-13.24.2-19.86.15-6.42,1.16-7.38,7.67-7.47,6-.08,12-.19,18.05,0,3.24.11,4.2-1.1,4-4.18-.23-3.9.08-7.83-.13-11.73-.17-3,.71-4.45,4-4.18,3,.25,6-.17,9,.11,3.52.33,4.41-1.15,4.24-4.41-.23-4.35,0-8.72,0-13.08a2.73,2.73,0,0,1,.82-2.45c1.49,1.4,1.37,3.26,1.42,5.05.1,3,.1,6,0,9s1.24,4.45,4.29,4.36c1.66,0,3.31,0,5,0,51.6,0,103.21.08,154.82-.1,6.17,0,10.77,1.73,15.16,6.15,13.28,13.38,7.62,11,26.44,11.07,43.78.12,87.57,0,131.35,0a115,115,0,0,0,12.17-.47q5.49,15.82,11,31.67a3.78,3.78,0,0,0,3.34,2.94,72.19,72.19,0,0,0,11.64.76C668.44,302.59,671,306.87,668.39,313.1Z"/><path class="cls-3" d="M636.13,267.06c-.75,2.85-3.1,1.87-4.85,1.87q-41.06.09-82.09,0c-22.85,0-45.71-.05-68.56.06a8.89,8.89,0,0,1-7.11-2.93c-4.56-4.78-8.64-10.92-14.29-13.51-6-2.75-13.59-.76-20.49-.77q-74-.07-147.94.07c-4.42,0-5.72-1.27-5.39-5.56.37-4.78.08-9.61.07-14.42h0c2.33-1.91,5.13-1.44,7.8-1.44q48.72,0,97.45,0,104.22,0,208.44,0c6.93,0,13.78,1.31,20.71,1a9,9,0,0,1,4.27,1.3c4.52,9.84,7,20.4,10.82,30.5C635.44,264.48,635.74,265.78,636.13,267.06Z"/><path class="cls-2" d="M624.15,232.73c-112.89-1.66-225.78-.18-338.67-.82.11-1.79-.64-3.59.09-5.38a2.92,2.92,0,0,1,1.25-.44c18.76-.15,37.53.24,56.29-.07,2.36,0,4.62,1.64,7,.36a5.35,5.35,0,0,1,1.62-.4c6.28.39,12.57.1,18.85.16,15.81.38,31.6.09,47.4-.24a3.85,3.85,0,0,1,2.13.54h-.07c1.35,1,2.91.51,4.36.51,13.09.05,26.24-.77,39.24.26,12.5,1,24.9-.74,35.11.2H482.71c-2.37,0-3.89-.82-3.47-3.41,1.14-7,.49-14.06,1.27-21.06a297.45,297.45,0,0,1,1.77-34.55c.32-3.2-1.15-4.16-3.51-5,1.19-1.45,2.89-1.51,4.53-1.53q11.26-.18,22.54,0c1.64,0,3.34.07,4.55,1.5q2.45,17.08,4.9,34.18c1.13,8,2.3,16,3.29,24,.45,3.7,1.84,5.13,5.95,5.1,29.76-.18,59.52.06,89.27-.12C618.89,226.5,623,226.88,624.15,232.73Z"/><path class="cls-4" d="M433.84,174.79c3.11.12,6.32-.72,9.28.91,1.66,2.74,1.13,5.74,1.07,8.68-1.71,2.1-4.13,1.21-6.28,1.45a1.82,1.82,0,0,0-.83.2,1,1,0,0,0,.31.09c3.59-.17,5.86,1,5.88,5,0,12.41.06,24.82,0,37.23a5.27,5.27,0,0,1-.95,3.39c-2.06,1.31-4.35.72-6.54.74q-10.49.11-21,0c-2.06,0-4.59.17-3.47-3.31,2.29-5.45,4.53-10.94,6.58-16.49,2.58-5,4-10.43,6.35-15.48s3.91-10.32,6.26-15.32C431.58,179.51,432.26,176.94,433.84,174.79Z"/><path class="cls-4" d="M445.57,174.8h9.16c1.65,2.11,2,4.83,3.29,7.11,2,4.44,3.24,9.18,5.42,13.54,2.74,6.63,5.07,13.44,8.16,19.94,1.47,4.32,3.1,8.58,4.95,12.76.56,1.26,1.64,2.61.08,4-9.16.87-18.33.21-27.49.37-3.36.05-3.87-2.32-4-4.87-.21-5.41-.18-10.83-.06-16.24.16-8-.63-15.94.49-23.86,1.32-3,4-1.56,6-2-1.67-.29-3.78.65-5.46-1A17.46,17.46,0,0,1,445.57,174.8Z"/><path class="cls-5" d="M372.42,193.58c.24-9.23,4.4-16.13,12.93-19.77s16.4-2.2,23.47,3.76c.7.59,1.54,1.12,1.48,2.11-.1,1.48-1.43,1.24-2.39,1.49-12.72,3.3-22.19,10.77-28.65,22.18-.55,1-.95,2.53-2.22,2.61-1.67.1-1.9-1.68-2.5-2.8A17.45,17.45,0,0,1,372.42,193.58Z"/><path class="cls-6" d="M446.41,186.56c0,13.35.28,26.7,0,40-.08,4.31,1.36,5.31,5.35,5.14,7-.29,14.09-.05,21.14-.09,1.44,0,3,.49,4.24-.84-.39-1,.08-1.14.9-1l1.07,2.6a22.15,22.15,0,0,1-7.47,1c-14.09-.05-28.19,0-42.28,0-4.54-1-9.15-.19-13.71-.48-1.75-.11-3.57.44-5.26-.43-.36-.24-.85-.36-.91-.9l1.85-4.49c.82-.2,1.27,0,.92.93-.87,2.38-.83,3.74,2.5,3.67,9.07-.22,18.16-.08,27.24-.09,1-2.76.41-5.61.44-8.42.09-10.68,0-21.36.05-32.05,0-1.6-.47-3.34.82-4.75A2.2,2.2,0,0,1,446.41,186.56Z"/><path class="cls-7" d="M409.51,231.61l.91.9c-1.76,1.11-3.74.9-5.68.91-20.06.09-40.1-1.57-60.17-.89,1.35-1.46,3.11-.79,4.68-.8,12.18-.06,24.35-.1,36.53,0,3.17,0,4.6-.77,3.31-4.17a23.68,23.68,0,0,1-.9-4.4c-.69-4,.25-4.89,4.43-4.37a15.4,15.4,0,0,0,3.59.06c5.88-.67,5.88-.7,7.11,5.39a18.9,18.9,0,0,1,.73,3.51C404.1,231.63,405.85,232.92,409.51,231.61Z"/><path class="cls-8" d="M539.51,208.94c-.25,6.58.78,13.2-.76,19.75-.58,2.45.23,3.95,3.25,3.87,6-.17,12-.09,18,0,1.39,0,3-.6,4.43.93-1.29,1.28-2.83.81-4.18.82-9.77,0-19.6.64-29.32-.11-16.22-1.27-32.42-.41-48.63-.78-1.17,0-2.45.25-3.28-1,14.1,0,28.2,0,42.29.09,4.16,0,8.32.51,12.46.94,3.24.35,3.86-1.11,4.11-4.1C538.51,222.56,538,215.67,539.51,208.94Z"/><path class="cls-9" d="M437.56,164.78l6.26,0c.7,2.75.78,5.44-.73,8l-8.3.09a6.63,6.63,0,0,1,1.18-4.77C436.78,167.14,436.66,165.71,437.56,164.78Z"/><path class="cls-10" d="M442.89,149.37c1.37-1.21,2.73-1.41,3.49.51,1.41,3.56,2.64,7.2,3.94,10.81.35,1-.17,1.32-1.05,1.38a3.19,3.19,0,0,1-2-2.83,2.65,2.65,0,0,1-.81,2.8l-1.77.05C442.71,158.05,443.6,153.6,442.89,149.37Z"/><path class="cls-11" d="M446.47,164.85l4.59,0c1.25,2.59,2.64,5.12,2.71,8.09l-7.3,0A6.83,6.83,0,0,1,446.47,164.85Z"/><path class="cls-12" d="M442.89,149.37c2.46,4,1.78,8.4,1.84,12.72l-1.68-.08c-2.37-2.31-.38-4.78-.48-6.73-.78,2.05-.36,5.2-3.21,6.82-1.22,0-1.53-.61-1.05-1.72C439.91,156.74,440.75,152.78,442.89,149.37Z"/><path class="cls-13" d="M470.86,215.46a136.51,136.51,0,0,1-8-20,1.44,1.44,0,0,1,.83-.83c3.39,6.33,5.64,13.13,8.18,19.81A1.2,1.2,0,0,1,470.86,215.46Z"/><path class="cls-10" d="M445.57,174.8c1.81,3.12.77,6.48.82,9.74a1.55,1.55,0,0,1-2.47,0c-1.6-2.84-.69-5.91-.8-8.88Z"/><path class="cls-14" d="M470.86,215.46l1-1,6.22,15.39-.9,1C474.05,226.11,472.62,220.72,470.86,215.46Z"/><path class="cls-15" d="M431.21,182c-2.18,5.07-3.56,10.48-6.35,15.3a1.41,1.41,0,0,1-.8-.84c1.34-5.72,4-10.94,6.21-16.31C432,180,431.74,180.92,431.21,182Z"/><path class="cls-16" d="M412.28,228.05l-.92-.93c2.13-5.11,3.41-10.57,6.36-15.34.78-.19,1.24-.07.83.87A71.85,71.85,0,0,1,412.28,228.05Z"/><path class="cls-17" d="M418.55,212.65l-.83-.87c1.88-5.21,3.28-10.63,6.34-15.35l.8.84C422.92,202.47,421.41,207.83,418.55,212.65Z"/><path class="cls-18" d="M446.47,164.85v8l-3.38,0c0-2.69-.64-5.43.73-8Z"/><path class="cls-19" d="M463.67,194.64c-.27.28-.55.56-.83.83-2.59-4.2-3.77-9-5.48-13.52a1.52,1.52,0,0,1,.9-.84C460.84,185.31,462.09,190,463.67,194.64Z"/><path class="cls-20" d="M439.36,162.1l2.91-7.23.77,0q0,3.54,0,7.09Z"/><path class="cls-21" d="M458.26,181.11l-.9.84a11,11,0,0,1-2.63-7.16C457.62,175.94,458,178.47,458.26,181.11Z"/><path class="cls-22" d="M431.21,182a1.93,1.93,0,0,0-.94-1.85c.73-2.08.76-4.64,3.57-5.33C433.91,177.53,432.42,179.7,431.21,182Z"/><path class="cls-23" d="M453.77,172.89c-1.28-2.57-2.67-5.1-2.71-8.09C453.39,167,455.2,169.42,453.77,172.89Z"/><path class="cls-24" d="M436.63,168.43c-.61,1.49-1.22,3-1.84,4.46-2.19-2.46.32-4.24.92-6.29C437.37,166.53,437.16,167.4,436.63,168.43Z"/><path class="cls-25" d="M446.5,162v-4.83c2.07,1.35,1.78,3.48,2.77,4.86Z"/><path class="cls-26" d="M436.63,168.43a1.92,1.92,0,0,0-.92-1.83,2.78,2.78,0,0,1,1.85-1.82C437.47,166.05,437.87,167.45,436.63,168.43Z"/><path class="cls-27" d="M443.43,335.71c-19.8,0-34.25.22-48.7,0-21.92-.41-43.86-.8-65.75-1.89-14.07-.7-28.14-.82-42.2-1.67-21.71-1.3-43.4-2.87-65.14-3.7-15.13-.57-30.25-1.63-45.36-2.65-19.59-1.34-39.16-2.92-58.74-4.26-5.84-.4-11.69-.45-17.53-.94-14.05-1.17-28.13-1.9-42.19-2.81-1.34-.09-3,0-3-1.84s1.7-1.86,3-1.78c11.38.7,22.77,1.21,34.11,2.27,6.13.57,12.27.69,18.4,1.14q31.85,2.36,63.76,4c14.22.73,28.43,1.74,42.65,2.59,22.16,1.33,44.32,2.69,66.5,3.7,12.59.57,25.18,1.09,37.77,1.66,20.41.92,40.83,1.33,61.25,2,36.4,1.16,72.79.54,109.18.35,9.58-.05,19.22-.29,28.82-.59,20.42-.63,40.84-1.09,61.25-1.91,16.94-.68,33.86-1.71,50.78-2.71,7-.42,14-1.2,21.05-1.73,1.37-.1,3.5-.52,3.43,1.63,0,1.74-2,1.92-3.54,2-14.09.62-28.11,2.17-42.19,2.89-23.39,1.2-46.79,2-70.19,2.85-16.84.61-33.69-.18-50.48.84C472.93,336.18,455.5,335.24,443.43,335.71Z"/><path class="cls-28" d="M364.39,268.54H341c-2.21,0-4.65-.13-4.5-3,.15-2.68,2.62-2.41,4.56-2.42q23,0,46,0c2,0,4.66-.43,4.62,2.76s-2.63,2.67-4.68,2.67C379.41,268.56,371.9,268.54,364.39,268.54Z"/><path class="cls-29" d="M571.43,284.93c-5.1,0-10.21.08-15.31,0-1.86-.05-4.34.06-4.3-2.76,0-2.57,2.14-2.93,4.22-2.93q15.32,0,30.62,0c2,0,4.2.21,4.27,2.86.07,2.8-2.23,2.83-4.19,2.85-5.1.07-10.21,0-15.31,0Z"/><path class="cls-30" d="M485.07,290.51H469.28c-1.89,0-3.86-.13-3.89-2.62s1.94-2.82,3.82-2.82q15.56-.06,31.12,0c2,0,4.22.32,4.13,3-.09,2.51-2.21,2.43-4,2.43Z"/><path class="cls-30" d="M538.93,313.88H524.55c-1.94,0-3.81-.38-3.84-2.75s1.79-2.71,3.77-2.7q14.61,0,29.21,0c2,0,3.82.28,3.86,2.67s-1.86,2.77-3.79,2.78Z"/><path class="cls-30" d="M445.81,268.54c-4.65,0-9.3,0-13.95,0-1.82,0-3.38-.34-3.44-2.57s1.37-2.84,3.23-2.85q14.4,0,28.8,0c1.65,0,3.1.67,3.07,2.54s-1.37,2.86-3.31,2.86Q453,268.52,445.81,268.54Z"/><path class="cls-31" d="M503.35,268.69c-4.06,0-8.12,0-12.18,0-1.83,0-3.48-.59-3.56-2.63-.09-2.39,1.72-2.82,3.72-2.82q12,0,23.92,0c1.85,0,3.44.42,3.51,2.55.08,2.42-1.7,2.9-3.68,2.91Z"/><path class="cls-32" d="M415.37,290.5H405c-1.72,0-3.11-.71-3.24-2.45-.15-2,1.3-3,3.18-3q10.38-.07,20.75,0c1.83,0,3.42.75,3.48,2.76s-1.61,2.67-3.42,2.68C422.28,290.52,418.82,290.5,415.37,290.5Z"/><path class="cls-32" d="M415.93,313.82c-3.16,0-6.31,0-9.47,0-1.73,0-3-.9-2.95-2.7s1.18-2.66,3-2.66h19.41c1.72,0,3.07.8,3.18,2.52.12,2-1.27,2.89-3.21,2.89h-9.93Z"/><path class="cls-33" d="M606.88,305.69c.09,1.65-.47,2.8-2.48,2.83-2.28.05-2.75-1.27-2.75-3.2,0-2.13,1-2.92,3.07-2.87C607,302.5,606.88,304,606.88,305.69Z"/><path class="cls-34" d="M495.08,311.38c.17,1.85-.7,2.59-2.61,2.6-2.41,0-2.51-1.47-2.52-3.25,0-2.09,1.2-2.36,2.9-2.37C495.06,308.34,495.16,309.73,495.08,311.38Z"/><path class="cls-35" d="M376.2,313.76c-1.94.21-2.65-.7-2.63-2.6s.42-2.81,2.47-2.81,2.67.76,2.64,2.66C378.65,312.75,378.3,314,376.2,313.76Z"/><path class="cls-34" d="M453,308.41c2-.23,2.5.9,2.53,2.67,0,2.07-.74,2.95-2.87,2.9s-2.3-1.32-2.29-3C450.4,309.23,451.05,308.18,453,308.41Z"/><path class="cls-36" d="M617.06,305.38c.05,1.68-.08,3.17-2.27,3.1-2-.05-2.46-1.32-2.46-3s.22-3,2.38-3S617.14,303.77,617.06,305.38Z"/><path class="cls-37" d="M566.59,305.05c0,2,0,3.47-2.22,3.43s-2.63-1.41-2.63-3.27.6-2.75,2.59-2.73C566.52,302.5,566.65,303.85,566.59,305.05Z"/><path class="cls-38" d="M551.64,305.47c0-1.57.06-3,2.26-3,2,0,2.56.94,2.55,2.72s-.3,3.25-2.58,3.28S551.62,307,551.64,305.47Z"/><path class="cls-34" d="M532.82,306c0-2-.12-3.52,2.17-3.53,1.91,0,2.66.79,2.68,2.65s-.37,3.24-2.59,3.33S532.71,307.17,532.82,306Z"/><path class="cls-38" d="M535.94,279.57c2-.18,2.37,1.08,2.36,2.78s-.22,2.91-2.33,2.91-2.89-1-2.82-3C533.22,280.44,534,279.48,535.94,279.57Z"/><path class="cls-39" d="M546.34,279.57c2-.12,2.52,1.07,2.57,2.76.07,2-.75,3-2.86,2.93s-2.27-1.39-2.28-3C543.76,280.47,544.41,279.42,546.34,279.57Z"/><path class="cls-35" d="M598.22,305.46c0,1.57,0,3.07-2.23,3-2,0-2.44-1.31-2.42-3s.3-2.95,2.38-3S598.25,303.87,598.22,305.46Z"/><path class="cls-40" d="M453.55,288.29c0-1.64-.1-3.18,2.17-3.16,1.92,0,2.65.93,2.63,2.78,0,1.68-.31,3-2.34,3.09S453.41,290,453.55,288.29Z"/><path class="cls-34" d="M527.58,288.28c0-1.63-.12-3.16,2.13-3.15,2,0,2.52,1.08,2.51,2.82s-.29,2.95-2.3,3.05S527.46,289.84,527.58,288.28Z"/><path class="cls-41" d="M542.52,287.9c.12,1.84-.16,3.19-2.31,3.12-2-.07-2.49-1.2-2.49-3s.5-2.87,2.49-2.93C542.37,285.07,542.67,286.37,542.52,287.9Z"/><path class="cls-35" d="M548.42,287.91c-.14-1.72.31-2.88,2.39-2.79s2.2,1.47,2.24,3.07c0,1.79-.57,2.84-2.51,2.83C548.32,291,548.38,289.46,548.42,287.91Z"/><path class="cls-38" d="M570.8,312.38c.08-2.29-.07-3.83,2.17-3.88s2.73,1.23,2.72,3.1-.59,2.84-2.52,2.88S570.72,313.27,570.8,312.38Z"/><path class="cls-42" d="M587.76,305.6c.08,1.63-.35,2.75-2.19,2.72-2.19,0-2.25-1.5-2.23-3.11s.25-2.65,2.18-2.61C587.74,302.64,587.81,304.08,587.76,305.6Z"/><path class="cls-39" d="M560.42,285.13c2.77.15,2.81,1.64,2.81,3.23,0,1.93-.94,2.79-2.78,2.58-2.12-.24-1.93-1.91-1.93-3.42C558.52,285.82,559.43,285.1,560.42,285.13Z"/><path class="cls-43" d="M393.07,285.16c2,.1,2.24,1.45,2.25,3.07,0,1.81-.75,2.81-2.6,2.75-2.07-.06-2.15-1.52-2.18-3.1C390.51,286.1,391.12,285,393.07,285.16Z"/><path class="cls-44" d="M513.92,308.47c2.5-.1,2,1.69,2.07,3.1.11,1.74-.72,2.37-2.41,2.31-2.32-.07-2-1.7-2-3.16C511.46,309,512.32,308.28,513.92,308.47Z"/><path class="cls-45" d="M505.41,311.51c.12,1.65-.55,2.44-2.28,2.43-2.12,0-2.27-1.33-2.31-2.95-.05-1.87.69-2.65,2.61-2.6C505.79,308.46,505.32,310.12,505.41,311.51Z"/><path class="cls-46" d="M471.41,308.45c2.15-.28,2.61.92,2.54,2.69-.06,1.39,0,2.69-2,2.78s-2.81-.59-2.74-2.54C469.26,309.82,469.18,308.23,471.41,308.45Z"/><path class="cls-47" d="M465.57,311c.09,1.77-.18,2.9-2.1,3-2.16.09-2.45-1.13-2.41-2.85,0-1.48.13-2.65,2.1-2.67S465.82,309.38,465.57,311Z"/><path class="cls-48" d="M440.09,310.9c-.25-1.93.7-2.58,2.61-2.5s2.11,1.22,2.14,2.71c0,1.78-.48,2.81-2.52,2.82C440.08,314,440,312.57,440.09,310.9Z"/><path class="cls-49" d="M399.54,311.21c.16,1.85-.59,2.74-2.56,2.72-2.3,0-2.14-1.53-2.19-3.07s.52-2.45,2.31-2.47C399.17,308.36,399.7,309.43,399.54,311.21Z"/><path class="cls-49" d="M422.14,265.71c.16,1.91-.19,3.1-2.3,3s-2.2-1.43-2.22-3,.4-2.5,2.2-2.54C421.85,263.15,422.46,264.11,422.14,265.71Z"/><path class="cls-50" d="M596.1,282.14c-.08-1.46.26-2.54,2.12-2.57,2,0,2.47,1.09,2.47,2.81s-.41,2.86-2.44,2.84C596,285.19,596.05,283.73,596.1,282.14Z"/><path class="cls-51" d="M619.44,279.61c2.38,0,2.14,1.64,2.2,3.14.06,1.66-.67,2.46-2.38,2.46-2.09,0-2.37-1.26-2.38-2.95C616.87,280.41,617.57,279.42,619.44,279.61Z"/><path class="cls-52" d="M627.57,282.32c-.12-1.73.42-2.83,2.44-2.75,2.19.08,2.1,1.59,2.13,3.11s-.48,2.53-2.24,2.54C627.85,285.24,627.45,284,627.57,282.32Z"/><path class="cls-53" d="M414,265.62c.14,2-.29,3.12-2.38,3.13s-2.32-1.31-2.32-2.95.22-2.62,2.16-2.6S414.32,263.85,414,265.62Z"/><path class="cls-54" d="M388.93,311.1c.13,1.76-.41,2.85-2.43,2.84s-2.24-1.39-2.25-3,.35-2.54,2.19-2.57S389.09,309.3,388.93,311.1Z"/><path class="cls-50" d="M609.08,285.2c-2.65-.1-2.31-1.8-2.35-3.25-.05-1.65.67-2.49,2.41-2.34,2.12.18,2.17,1.71,2.13,3.24S610.38,285.3,609.08,285.2Z"/><path class="cls-55" d="M623.26,307.75A3.54,3.54,0,0,1,623,303c.83-1.11,2.56-.85,3.68-.12s1.16,2.43.82,3.67c-.68,2.54-2.28,2.75-4.26,1.22a8.09,8.09,0,0,0,1.81-2.16C624,306.22,623.94,307.22,623.26,307.75Z"/><path class="cls-42" d="M545.56,304.18v2.7c-1,1.4-2.4,2.05-3.59.69a3.3,3.3,0,0,1,0-4.08C543.16,302.12,544.57,302.77,545.56,304.18Z"/><path class="cls-42" d="M577.05,304.19v2.67c-1,1.55-2.36,2.12-3.57.57a3.32,3.32,0,0,1,0-3.81C574.68,302.11,576.07,302.63,577.05,304.19Z"/><path class="cls-56" d="M482.44,313.92c-2.05.22-2.65-.83-2.62-2.63,0-1.6.1-2.91,2.26-2.94,1.95,0,2.63.82,2.55,2.65C484.56,312.56,484.6,314.09,482.44,313.92Z"/><path class="cls-57" d="M545.56,304.18c-1.07-.36-2.21-1.49-3.22-.14a2.51,2.51,0,0,0,0,3c1,1.31,2.16.24,3.23-.13-.67,2.8-2.84,2.05-4,1a3.55,3.55,0,0,1,.11-4.8C542.7,302.11,545,301.22,545.56,304.18Z"/><path class="cls-58" d="M577.05,304.19c-1-.46-2.14-1.48-3.13-.14a2.52,2.52,0,0,0,0,2.93c1,1.33,2.1.34,3.14-.12-.61,2.94-2.81,2-3.86,1a3.46,3.46,0,0,1,0-4.79C574.23,302.18,576.6,301.1,577.05,304.19Z"/><path class="cls-59" d="M526.7,307.87c-1.5,1.06-3.24,1.39-4.29-.24a4.19,4.19,0,0,1,0-4.31c1.1-1.59,2.83-1.18,4.34-.2-.11.17-.21.34-.31.51-2.3,1.19-2.63,2.43-.1,3.75Z"/><path class="cls-59" d="M526.78,303.12a3.93,3.93,0,0,1-.08,4.75l-.37-.37a3.27,3.27,0,0,1,0-4Z"/><path class="cls-60" d="M620.63,242.74c1.41,4.62,0,7.11-4.57,7.17q-17.25.18-34.52,0c-5.21-.06-7.13-3.5-5.39-9,1.74,1.17,3.43,2.31,5.72,2.27C594.79,243,607.72,243.68,620.63,242.74Z"/><path class="cls-61" d="M529.74,250.48c.46-6.84.46-6.84,7-6.58a91.18,91.18,0,0,1,16.09.62c5.19.67,10.41.12,15.6-.48,6,.25,6,.25,6.39,6.55-1.59,1.41-3.57,1.42-5.51,1.43q-17,.06-34.09,0C533.25,252,531.27,252,529.74,250.48Z"/><path class="cls-62" d="M567.21,242c1.53,4.51-.11,7.83-4.52,7.91q-17.36.3-34.72-.13c-2.84-.08-6.29-.85-5.69-5.29,1.91-1.63,4.24-1.24,6.45-1.25q15.27-.09,30.55,0A21.77,21.77,0,0,0,567.21,242Z"/><path class="cls-63" d="M529.74,250.48l45,.11c.75,4.11-2.19,5.12-5.08,5.17-11.41.2-22.82.24-34.22,0C532.65,255.66,529.21,254.9,529.74,250.48Z"/><path class="cls-64" d="M567.21,242c.11,2.21-1.06,2.71-3.07,2.69-14-.12-27.91-.14-41.86-.2.63-6.19.63-6.19,6.93-6.34a178.14,178.14,0,0,0,31.75,0C563.76,238.22,567.19,237.33,567.21,242Z"/><path class="cls-64" d="M620.63,242.74c-.35,2.09-2,1.87-3.44,1.87-12.54,0-25.07-.11-37.61.07-3.08,0-3.46-1.44-3.43-3.76.45-4.71,4.22-1.95,6.37-2.83a179,179,0,0,0,31.74,0C617.55,238,621.1,237.63,620.63,242.74Z"/><path class="cls-65" d="M614.26,238.1c-1.14,1.79-3,1.84-4.79,1.84-7.37,0-14.73,0-22.1,0a6,6,0,0,1-4.85-1.87c0-3,1.53-4.16,4.51-4.11,7.59.11,15.18.1,22.77,0C612.74,234,614.33,235,614.26,238.1Z"/><path class="cls-66" d="M561,238.08a5.65,5.65,0,0,1-4.82,1.88c-7.36-.06-14.72,0-22.08,0-1.86,0-3.6-.25-4.85-1.84,0-3.31,1.84-4.33,4.89-4.29q11,.13,21.92,0C559.07,233.77,560.92,234.8,561,238.08Z"/><path class="cls-67" d="M568.4,244a5.54,5.54,0,0,1-4.82,1.89q-11.7-.24-23.39-.44c-1.41,0-2.7-.23-3.48-1.59-.11-3.13,1.62-4.1,4.49-4.07,7.58.06,15.17.09,22.76,0C567,239.77,568.33,241.15,568.4,244Z"/><path class="cls-7" d="M410.42,232.51c4.93,0,9.85,0,14.77,0,1.43,0,3-.49,4.2.88-4.93,0-9.85,0-14.77,0C413.18,233.38,411.59,233.89,410.42,232.51Z"/><path class="cls-68" d="M443.9,186.51c-1.11,1.59-.9,3.41-.9,5.2,0,12.09,0,24.19-.07,36.29,0,1.2.92,2.82-.91,3.63,0-12.91-.16-25.83.11-38.74.08-4.19-.84-6.24-5.37-5.57-1.26.18-2.74.42-3.76-.87A14.25,14.25,0,0,1,443.9,186.51Z"/><path class="cls-69" d="M443.9,186.51l-10.9-.06c.29-2.19,2-1.76,3.4-1.79,2.51-.06,5-.06,7.52-.08l2.47,0h9.48l0,1.21c-3,1.52-6.36.28-9.49.81Z"/><path class="cls-42" d="M623.26,307.75a2.22,2.22,0,0,1,0-.45c.41-1.34-1-3.56,1.69-3.78,1-.08,1.58.77,1.63,1.76.13,2.45-1.71,2.34-3.34,2.48Z"/><path class="cls-42" d="M483.48,310.86c0,1.21-.41,1.86-1.28,1.83-1.19-.05-1.34-1-1.24-1.95s.54-1.39,1.48-1.23S483.41,310.47,483.48,310.86Z"/><path class="cls-42" d="M526.35,303.52c0,1.33,0,2.66,0,4-1.66.26-3.33.55-3.31-2S524.69,303.26,526.35,303.52Z"/><path class="cls-70" d="M498,87.52s23.11-11,48.84-1.93S593.71,87,593.71,87s22.29-4.82,33,13.62S609,158.24,588.48,151.36c-18.14-6.09-29.82,2.68-60.26-.14-33.05-3.07-77.33-15.14-59.58-36S498,87.52,498,87.52Z"/><path class="cls-70" d="M553,47.52s23.11-11,48.84-1.93S648.71,47,648.71,47s22.29-4.82,33,13.62S664,118.24,643.48,111.36c-18.14-6.09-29.82,2.68-60.26-.14-33.05-3.07-77.33-15.14-59.58-36S553,47.52,553,47.52Z"/><path class="cls-70" d="M586,5.52s23.11-11,48.84-1.93S681.71,5,681.71,5s22.29-4.82,33,13.62S697,76.24,676.48,69.36c-18.14-6.09-29.82,2.68-60.26-.14-33.05-3.07-77.33-15.14-59.58-36S586,5.52,586,5.52Z"/></g></g></svg>