<svg xmlns="http://www.w3.org/2000/svg" viewBox="0 0 48.79 52.24"><defs><style>.cls-1{fill:#f05c79;}.cls-2{fill:#fff;}</style></defs><title>資產 29</title><g id="圖層_2" data-name="圖層 2"><g id="圖層_1-2" data-name="圖層 1"><circle class="cls-1" cx="24.4" cy="27.84" r="24.4"/><circle class="cls-2" cx="24.4" cy="24.4" r="24.4"/><path class="cls-1" d="M41.54,17.16A5,5,0,0,0,36.31,12H29.22V8.55c0-1.06-.47-1.53-1.53-1.53H20.88c-1.05,0-1.52.48-1.53,1.54V12h-.72c-2.17,0-4.35,0-6.53,0a4.91,4.91,0,0,0-5,5.09q0,8.52,0,17A4.92,4.92,0,0,0,12,39H16.2c6.77,0,13.54,0,20.32,0a5.18,5.18,0,0,0,2-.41,4.85,4.85,0,0,0,3-4.86C41.54,28.21,41.53,22.69,41.54,17.16ZM21.87,9.46c1.54,0,3,0,4.54,0a.48.48,0,0,1,.35.34c0,2,0,4,0,6a2.44,2.44,0,0,1-2.34,2.28,2.34,2.34,0,0,1-2.5-2C21.79,13.93,21.87,11.74,21.87,9.46ZM39.09,34a2.46,2.46,0,0,1-2.54,2.54q-12.24,0-24.5,0A2.44,2.44,0,0,1,9.5,34.07q0-8.57,0-17.14a2.4,2.4,0,0,1,2.34-2.5c2.84,0,5.69,0,8.53,0a1.07,1.07,0,0,1,.26.08,14.26,14.26,0,0,0,0,1.46,3.67,3.67,0,0,0,7.23.56,15.32,15.32,0,0,0,.19-2.12H31.1c1.78,0,3.57,0,5.35,0a2.48,2.48,0,0,1,2.64,2.67C39.09,22.73,39.1,28.39,39.09,34Z"/><path class="cls-1" d="M14.87,28.7a2.24,2.24,0,0,0,2.8,0A5.44,5.44,0,0,0,20,24.06a3.6,3.6,0,0,0-3.77-3.46c-2.07.07-3.57,1.62-3.58,4.07A5.56,5.56,0,0,0,14.87,28.7Z"/><path class="cls-1" d="M18.59,29.61a3.64,3.64,0,0,1-4.59,0,1.15,1.15,0,0,0-1.91.77c-.1.79-.12,1.59-.18,2.45h8.71a22.43,22.43,0,0,0-.2-2.64A1.12,1.12,0,0,0,18.59,29.61Z"/><path class="cls-1" d="M23.75,24.27a2.62,2.62,0,0,0,.28,0c3.87,0,7.74,0,11.61,0a1,1,0,0,0,.54-.07c.18-.15.43-.41.4-.58s-.31-.42-.53-.54a1.49,1.49,0,0,0-.6,0H23.78c-.38,0-.67.14-.7.55S23.36,24.23,23.75,24.27Z"/><path class="cls-1" d="M35.94,31.67c-.11,0-.22,0-.33,0H24c-.13,0-.3,0-.38,0s-.51.38-.5.55.28.46.48.62.33,0,.5,0H35.93a.61.61,0,0,0,.67-.6A.6.6,0,0,0,35.94,31.67Z"/><path class="cls-1" d="M23.68,26.73h9.6c.55,0,.91-.27.86-.65s-.43-.58-.87-.57c-1.56,0-3.12,0-4.68,0H23.73a.57.57,0,0,0-.65.54C23,26.48,23.32,26.65,23.68,26.73Z"/><path class="cls-1" d="M35.79,29.21H27.54c-.42,0-.76.12-.75.6s.35.61.76.61H35.8c.5,0,.86-.28.8-.64S36.21,29.2,35.79,29.21Z"/><path class="cls-1" d="M24.28,29.21h0c-.21,0-.45-.07-.61,0s-.54.35-.55.54a.81.81,0,0,0,.47.61,3.51,3.51,0,0,0,1.37,0,.88.88,0,0,0,.52-.59c.06-.36-.23-.55-.59-.58S24.48,29.21,24.28,29.21Z"/><path class="cls-1" d="M24.34,16.86a1.2,1.2,0,0,0,1.16-1.24,1.21,1.21,0,0,0-2.42,0A1.21,1.21,0,0,0,24.34,16.86Z"/></g></g></svg>