<svg xmlns="http://www.w3.org/2000/svg" viewBox="0 0 58.4 53.36"><defs><style>.cls-1{fill:#f05c79;}.cls-2{fill:#fcc6d0;}</style></defs><title>資產 20</title><g id="圖層_2" data-name="圖層 2"><g id="圖層_1-2" data-name="圖層 1"><path class="cls-1" d="M50.93,15.08,29.83,2.17c-8.22-5-20-1-26.13,8.91h0C-2.45,21-.76,33.25,7.47,38.28L7,38c-.64,2.09-1.82,3.69-2.46,5.78C4,45.5,4.87,47,6.62,46.31c2.52-.94,4.4-3.14,6.68-4.66l15.27,9.54c8.22,5,20,1,26.13-8.91h0C60.85,32.35,59.16,20.11,50.93,15.08Z"/><circle class="cls-2" cx="18.44" cy="18.14" r="4.9"/><circle class="cls-2" cx="29.61" cy="25.81" r="4.9"/><circle class="cls-2" cx="40.78" cy="33.48" r="4.9"/></g></g></svg>