<svg xmlns="http://www.w3.org/2000/svg" viewBox="0 0 484 113.52"><defs><style>.cls-1{fill:#f05c79;}.cls-2{fill:#fcc6d0;}</style></defs><title>chatroom</title><g id="圖層_2" data-name="圖層 2"><g id="圖層_1-2" data-name="圖層 1"><path class="cls-1" d="M30,46.42C41.14,27.6,57.57,23.2,72.11,28.33c-.41-.27-.81-.55-1.25-.82-16.12-9.85-36.42-7.39-49.55,15.4-7.88,13.67.15,25.79,8.86,32.5A307,307,0,0,0,0,112.68H9.42a295.29,295.29,0,0,1,29.33-35C30.1,71.22,22.13,59.57,30,46.42Z"/><path class="cls-1" d="M87.8,40.38a119.9,119.9,0,0,1,11.18-5C164.52,10.09,251.39-1,315.35,8.51,345.43,13,378.12,24.23,408.75,43c1-3.71,3.66-7.8,9.65-11.35,10.87-6.44,23.64-7.4,34.81-.49-12.35-11.48-27.66-11.38-40.37-3.61-6,3.7-8.73,8-9.73,11.81C372.24,19.84,339.28,8.13,309,3.5,244.5-6.36,157,5.14,90.88,31.41c-2.49,1-5,2.11-7.46,3.31A18.14,18.14,0,0,1,87.8,40.38Z"/><path class="cls-2" d="M79.62,36.63c1.26-.66,2.53-1.29,3.8-1.91a28.07,28.07,0,0,0-4.31-3.11,40,40,0,0,0-7-3.28A20.81,20.81,0,0,1,79.62,36.63Z"/><path class="cls-2" d="M484,113.52a247.73,247.73,0,0,0-28.35-33.76c9.62-5.76,20.67-18.61,11.91-33.34-4.17-7-9.08-12-14.35-15.3a50.45,50.45,0,0,1,9.18,11.79c8.83,15.32-2.31,28.68-12,34.67A255.14,255.14,0,0,1,479,112.68H9.42l-.61.84Z"/><path class="cls-2" d="M450.38,77.58c9.7-6,20.84-19.35,12-34.67a50.45,50.45,0,0,0-9.18-11.79c-11.17-6.91-23.94-5.95-34.81.49-6,3.55-8.66,7.64-9.65,11.35-30.63-18.73-63.32-30-93.4-34.45C251.39-1,164.52,10.09,99,35.36a119.9,119.9,0,0,0-11.18,5,18.14,18.14,0,0,0-4.38-5.66c-1.27.62-2.54,1.25-3.8,1.91a20.81,20.81,0,0,0-7.51-8.3C57.57,23.2,41.14,27.6,30,46.42c-7.82,13.15.15,24.8,8.8,31.25a295.29,295.29,0,0,0-29.33,35H479A255.14,255.14,0,0,0,450.38,77.58Zm-73.94.09h0c-7.46,12-21.72,16.91-31.7,10.81L326.23,76.91c-2.76,1.84-5,4.51-8.11,5.65-2.12.79-3.22-1-2.56-3.12.78-2.54,2.21-4.47,3-7l.61.4c-10-6.11-12-20.95-4.57-33h0c7.46-12,21.72-16.9,31.69-10.8l25.59,15.65C381.84,50.78,383.9,65.63,376.44,77.67Z"/><path class="cls-1" d="M371.87,44.68,346.28,29c-10-6.1-24.23-1.24-31.69,10.8h0c-7.46,12.05-5.41,26.89,4.57,33l-.61-.4c-.78,2.54-2.21,4.47-3,7-.66,2.14.44,3.91,2.56,3.12,3.07-1.14,5.35-3.81,8.11-5.65l18.51,11.57c10,6.1,24.24,1.24,31.7-10.81h0C383.9,65.63,381.84,50.78,371.87,44.68Zm-34.5,7.08a5.95,5.95,0,1,1-1.54-8.27A6,6,0,0,1,337.37,51.76Zm13.55,9.3a5.94,5.94,0,1,1-1.54-8.27A5.94,5.94,0,0,1,350.92,61.06Zm13.54,9.3a5.94,5.94,0,1,1-1.53-8.26A5.93,5.93,0,0,1,364.46,70.36Z"/><path class="cls-2" d="M335.83,43.49a5.94,5.94,0,1,0,1.54,8.27A5.94,5.94,0,0,0,335.83,43.49Z"/><path class="cls-2" d="M349.38,52.79a5.94,5.94,0,1,0,1.54,8.27A5.94,5.94,0,0,0,349.38,52.79Z"/><path class="cls-2" d="M362.93,62.1a5.94,5.94,0,1,0,1.53,8.26A6,6,0,0,0,362.93,62.1Z"/></g></g></svg>