<svg xmlns="http://www.w3.org/2000/svg" viewBox="0 0 498.06 528.95"><defs><style>.cls-1{fill:#f05c79;}.cls-2{fill:#fcc6d0;}</style></defs><title>資產 19</title><g id="圖層_2" data-name="圖層 2"><g id="圖層_1-2" data-name="圖層 1"><path class="cls-1" d="M13.35,528.13,12.22,96.51S32.53,76,43.63,66.86c-8.8-5.32-16.92-14.93-9-25.77C46.52,25,64.14,21.68,79.36,26.72a24.14,24.14,0,0,0-6.7-4.57C56.34,14.22,35.8,16.2,22.5,34.54c-8,11,.15,20.76,9,26.16C20.35,70,0,90.8,0,90.8L1.13,529l485.69-.84v-.79Z"/><path class="cls-1" d="M93.58,36.11c3.78-1.55,7.57-3,11.39-4.14C171.71,11.14,260.17,2,325.31,9.83a297.51,297.51,0,0,1,95.11,28.41c1-3.06,3.72-6.43,9.83-9.36,9.9-4.75,21.35-5.88,31.79-2-12.86-11.07-29.5-11.39-43.17-4.74-6.12,3-8.84,6.39-9.85,9.5a295.18,295.18,0,0,0-95.3-28.84C248.45-5.12,159.81,4.14,92.93,25.29c-3,.95-6,2-9,3.22l.8.37C89.46,31.14,92.14,33.67,93.58,36.11Z"/><path class="cls-2" d="M469,34.54c8.94,12.34-2.33,23.09-12.15,27.92A223.72,223.72,0,0,1,485.15,90h.54v.62l.12.13h-.12l1.13,436.61,11.24,0L496.93,96.42h.12l-.12-.13v-.61h-.53a222.81,222.81,0,0,0-28.22-27.1c9.8-4.75,21.05-15.34,12.13-27.49A39.93,39.93,0,0,0,462,26.89,44.26,44.26,0,0,1,469,34.54Z"/><path class="cls-2" d="M83.94,28.51a43.88,43.88,0,0,0-4.58-1.79,13.82,13.82,0,0,1,2.17,2.77Z"/><path class="cls-2" d="M34.68,41.09c-8,10.84.15,20.45,9,25.77C32.53,76,12.22,96.51,12.22,96.51l1.13,431.62,473.47-.81L485.69,90.71h.12l-.12-.13V90h-.54a223.72,223.72,0,0,0-28.27-27.5C466.7,57.63,478,46.88,469,34.54a44.26,44.26,0,0,0-7-7.65c-10.44-3.89-21.89-2.76-31.79,2-6.11,2.93-8.82,6.3-9.83,9.36A297.51,297.51,0,0,0,325.31,9.83C260.17,2,171.71,11.14,105,32c-3.82,1.19-7.61,2.59-11.39,4.14-1.44-2.44-4.12-5-8.84-7.23l-.8-.37-2.41,1a13.82,13.82,0,0,0-2.17-2.77C64.14,21.68,46.52,25,34.68,41.09Z"/></g></g></svg>