<?xml version="1.0" encoding="utf-8"?>
<!-- Generator: Adobe Illustrator 16.0.0, SVG Export Plug-In . SVG Version: 6.00 Build 0)  -->
<!DOCTYPE svg PUBLIC "-//W3C//DTD SVG 1.1//EN" "http://www.w3.org/Graphics/SVG/1.1/DTD/svg11.dtd">
<svg version="1.1" id="圖層_1" xmlns="http://www.w3.org/2000/svg" xmlns:xlink="http://www.w3.org/1999/xlink" x="0px" y="0px"
	 width="841.89px" height="472px" viewBox="0 -15.86 841.89 472" enable-background="new 0 -15.86 841.89 472" xml:space="preserve"
	>
<title>資產 23</title>
<g id="圖層_2">
	<g id="圖層_1-2">
		<circle cx="420.945" cy="234.219" r="205.234"/>
		<circle cx="420.945" cy="205.233" r="205.233"/>
		<path d="M565.179,144.321c1.135-23.052-16.635-42.66-39.688-43.793c-1.449-0.071-2.902-0.067-4.354,0.013h-59.613V71.901
			c0-8.652-3.98-12.806-12.893-12.892h-57.278c-8.652,0-12.806,4.067-12.806,12.979c0,8.912,0,18.516,0,28.553h-6.057
			c-18.343,0-36.686,0-54.942,0c-22.831-0.684-41.894,17.271-42.578,40.102c-0.027,0.909-0.024,1.819,0.008,2.728v143.283
			c-0.43,22.838,17.735,41.699,40.572,42.129c0.233,0.006,0.466,0.008,0.699,0.008h35.734c56.932,0,113.951,0,170.883,0
			c5.943,0.031,11.832-1.146,17.305-3.461c16.293-6.816,26.375-23.316,25.006-40.926
			C565.121,237.564,565.121,190.87,565.179,144.321z M399.66,79.602c12.979,0,25.957,0,38.244,0
			c1.424,0.352,2.547,1.442,2.941,2.855c0,16.872,0.432,33.831,0,50.703c-0.703,10.488-9.223,18.746-19.727,19.122
			c-10.49,0.724-19.719-6.872-21.025-17.305C399.055,117.152,399.66,98.723,399.66,79.602z M544.5,286.392
			c0.34,11.463-8.678,21.031-20.141,21.371c-0.41,0.012-0.82,0.012-1.23,0H317.117c-11.36,0.529-21-8.25-21.529-19.611
			c-0.023-0.5-0.028-1-0.015-1.5c0-47.992,0-96.041,0-144.148c-0.719-11.063,7.667-20.614,18.729-21.333
			c0.303-0.02,0.607-0.032,0.911-0.038c23.967,0,47.847,0,71.814,0c0.744,0.151,1.469,0.383,2.163,0.692
			c-0.215,4.093-0.215,8.194,0,12.287c1.805,16.963,17.02,29.252,33.982,27.447c12.723-1.354,23.295-10.411,26.584-22.775
			c1.039-5.835,1.703-11.73,1.99-17.65h70.604c11.49-0.755,21.418,7.949,22.172,19.441c0.068,1.018,0.061,2.039-0.023,3.055V286.392
			z"/>
		<path d="M340.824,241.4c6.848,5.593,16.687,5.593,23.534,0c12.58-8.891,19.808-23.542,19.208-38.936
			c-0.41-16.672-14.258-29.855-30.93-29.445c-0.246,0.006-0.492,0.015-0.737,0.027c-17.305,0.52-30.024,13.584-30.11,34.609
			C322.985,221.118,329.921,233.414,340.824,241.4z"/>
		<path d="M372.146,249.101c-11.273,9.135-27.402,9.135-38.676,0c-4.003-3.553-10.128-3.188-13.68,0.815
			c-1.401,1.578-2.248,3.57-2.413,5.674c-0.779,6.576-0.952,13.325-1.471,20.593h73.285c-0.138-7.408-0.687-14.803-1.644-22.15
			c-1.191-5.07-6.268-8.215-11.338-7.023C374.703,247.362,373.308,248.081,372.146,249.101z"/>
		<path d="M415.494,204.195h100.021c1.527,0.202,3.08-0.007,4.498-0.605c1.559-1.211,3.635-3.461,3.375-4.932
			c-0.26-1.471-2.596-3.46-4.412-4.499c-1.816-1.038-3.375,0-5.105,0h-98.117c-3.201,0-5.624,1.125-5.883,4.672
			C409.61,202.378,412.206,203.762,415.494,204.195z"/>
		<path d="M518.025,266.405H417.57c-1.038,0-2.509-0.433-3.201,0c-0.692,0.433-4.24,3.115-4.153,4.586
			c0.086,1.471,2.336,3.807,4.067,5.191c1.73,1.384,2.769,0,4.153,0h99.501c3.289,0,5.625-1.817,5.625-5.019
			c-0.129-2.769-2.477-4.909-5.246-4.781C518.218,266.388,518.121,266.395,518.025,266.405z"/>
		<path d="M414.715,224.96h80.726c4.672,0,7.701-2.25,7.268-5.451c-0.432-3.202-3.633-4.759-7.268-4.759c-13.15,0-25.957,0-39.367,0
			h-40.667c-2.648-0.385-5.107,1.45-5.492,4.098c-0.023,0.162-0.039,0.324-0.045,0.487
			C409.524,222.797,411.86,224.269,414.715,224.96z"/>
		<path d="M516.812,245.726c-11.42,0-22.842,0-34.609,0h-34.781c-3.547,0-6.402,0.952-6.402,5.105s3.027,5.105,6.488,5.105h69.219
			c4.24,0,7.182-2.423,6.748-5.451C523.042,247.457,520.361,245.64,516.812,245.726z"/>
		<path d="M419.907,245.726L419.907,245.726c-1.644,0-3.721-0.605-5.019,0c-1.298,0.606-4.586,2.942-4.672,4.5
			c0.359,2.294,1.858,4.249,3.98,5.191c3.796,0.778,7.712,0.778,11.509,0c2.182-0.855,3.801-2.734,4.326-5.019
			c0.518-3.028-1.904-4.672-4.934-4.845L419.907,245.726z"/>
		<path d="M420.512,141.812c5.558-0.188,9.923-4.824,9.776-10.383c0-5.639-4.57-10.209-10.209-10.209s-10.21,4.571-10.21,10.209l0,0
			c-0.15,5.589,4.258,10.242,9.847,10.393C419.981,141.829,420.247,141.825,420.512,141.812z"/>
	</g>
</g>
</svg>
