<svg xmlns="http://www.w3.org/2000/svg" viewBox="0 0 28.14 36.36"><defs><style>.cls-1{fill:#f05c79;}</style></defs><title>chatroom_btn_send</title><g id="圖層_2" data-name="圖層 2"><g id="圖層_1-2" data-name="圖層 1"><path class="cls-1" d="M26.61,17.11a12.68,12.68,0,0,0-7.8-6,53.07,53.07,0,0,0,1.33-5.65c0-.31.07-.6.1-.89.23-1.76.41-3.16-.73-4A2.45,2.45,0,0,0,17.59,0a1.38,1.38,0,0,0-.9.63A84.76,84.76,0,0,0,15.09,10a5.9,5.9,0,0,1-.05.66h0c-.45,0-.91,0-1.38,0a6.84,6.84,0,0,1-.06-.7A84.76,84.76,0,0,0,12,.67a1.35,1.35,0,0,0-.9-.63A2.46,2.46,0,0,0,9.17.55c-1.14.81-1,2.21-.73,4,0,.29.07.58.11.89a50.62,50.62,0,0,0,1.36,5.78,21.41,21.41,0,0,0-3.13.91C3.41,13.39.38,18.19.26,20.51c0,.27-.05.6-.09,1-.28,2.83-.81,8.11,4,12.13a9.13,9.13,0,0,0,3.92,2.24,32.15,32.15,0,0,0,6.19.51c2.83,0,5.81-.29,7.35-1.16,3-1.68,4.87-3.28,5.74-6.44C28.1,26.21,28.93,21.3,26.61,17.11Z"/></g></g></svg>