<?xml version="1.0" encoding="utf-8"?>
<!-- Generator: Adobe Illustrator 22.1.0, SVG Export Plug-In . SVG Version: 6.00 Build 0)  -->
<svg version="1.1" id="圖層_1" xmlns="http://www.w3.org/2000/svg" xmlns:xlink="http://www.w3.org/1999/xlink" x="0px" y="0px"
	 viewBox="0 0 777 954" style="enable-background:new 0 0 777 954;" xml:space="preserve">
<style type="text/css">
	.st0{opacity:0.5;fill:#C5798A;}
	.st1{fill:#FAE8F0;stroke:#EF5C79;stroke-miterlimit:10;}
</style>
<path class="st0" d="M757.8,176.2c0,0,0.7-20.2-11.9-32.4c-9.7-9.4-14.3-11.8-23.3-14.8c15.1-8.6,23.4-30.7,9.7-52.6
	c-20.5-32.5-52-36.1-77.1-22c-9.4,5.3-13.6,11.4-15.1,16.9C591.8,43.4,540.6,26.6,493.4,20C393.1,5.9,256.8,22.4,154,60
	c-5.9,2.1-11.7,4.7-17.5,7.5c-2.2-4.4-6.4-9-13.6-13.1c-25.1-14.1-56.7-10.6-77.1,22c-12.3,19.6-5.8,38,7.8,47.6
	c-10.7,1.6-13.4,0.7-27.2,16.7c-15.8,18.3-15.1,35.6-15.1,35.6L12.9,955l746.6-1.5L757.8,176.2z"/>
<path class="st1" d="M749.6,186.4V185c0,0,2.4-15.4-11.6-30.5c-13-14-16-14-31.6-17.5c14.8-8.4,31.7-27.2,18.3-48.8
	c-20-32-50.8-35.5-75.3-21.7c-9.2,5.2-13.3,11.2-14.8,16.6c-47-27.4-97-43.9-143.1-50.4c-98-13.9-231.1,2.3-331.6,39.3
	c-5.7,2.1-11.4,4.6-17.1,7.3c-2.2-4.3-6.2-8.8-13.3-12.8C104.8,52.7,74,56.2,54,88.2c-12,19.2,0.2,36.3,13.5,45.7
	C57,135.5,48.9,136,35,151.5c-17,19-14.8,35-14.8,35L21.9,952l729.4-1.5L749.6,186.4z"/>
<title>0117首頁PSD</title>
</svg>
