<svg xmlns="http://www.w3.org/2000/svg" viewBox="0 0 91.38 118.07"><defs><style>.cls-1{fill:#f6c2cb;}.cls-2{fill:#040000;}.cls-3{fill:#fff;}</style></defs><title>chatroom_face_02</title><g id="圖層_2" data-name="圖層 2"><g id="圖層_1-2" data-name="圖層 1"><path class="cls-1" d="M85.38,56.15A40.16,40.16,0,0,0,59.63,36.77c1.86-6.67,4.15-15.38,4.59-19.34C65,10.55,66.33,5.34,62.69,2.74s-6.62-1.49-7.44,0-5.08,27-5.06,29.59a26.9,26.9,0,0,1-.32,3.35c-2.13,0-4.33,0-6.56.21A29.11,29.11,0,0,1,43,32.33c0-2.57-4.24-28.1-5.06-29.59s-3.79-2.6-7.43,0-2.3,7.81-1.54,14.69c.46,4.05,2.84,13.07,4.72,19.8a70.28,70.28,0,0,0-11.2,3.17c-10.34,4-20.06,19-20.44,26.28s-5,27.15,12.53,41.65a28.27,28.27,0,0,0,12.15,6.94c7.1,1.73,33.89,3.22,43.11-2s15.33-10.17,18.07-20.21S92.11,68.29,85.38,56.15Z"/><path class="cls-2" d="M46.5,118.07c-8.53,0-16.62-.81-20.1-1.66a29.2,29.2,0,0,1-12.71-7.26C-2.08,96.09-.36,79,.56,69.75c.12-1.2.23-2.26.28-3.13C1.22,59.07,11.08,43.5,22,39.3a69.43,69.43,0,0,1,10.15-3c-1.85-6.67-4-14.91-4.42-18.77-.11-1-.23-1.95-.35-2.87C26.67,9,26.09,4.41,29.78,1.78A7.9,7.9,0,0,1,36,.14a4.35,4.35,0,0,1,2.9,2c1,1.81,5.23,27.5,5.21,30.17a16.25,16.25,0,0,0,.2,2.29c1.52-.09,3-.14,4.48-.14h0A16.71,16.71,0,0,0,49,32.34C49,29.67,53.22,4,54.22,2.17a4.35,4.35,0,0,1,2.9-2,7.92,7.92,0,0,1,6.25,1.64C67.06,4.41,66.48,9,65.74,14.69c-.11.92-.24,1.88-.35,2.87-.42,3.82-2.5,11.86-4.3,18.36A41,41,0,0,1,86.41,55.58c7.53,13.59,4.86,29.53,2.6,37.81-2.81,10.29-9,15.46-18.63,20.92C65.38,117.14,55.68,118.07,46.5,118.07ZM34.73,2.36A6.16,6.16,0,0,0,31.15,3.7c-2.42,1.73-2.13,5-1.4,10.69q.18,1.39.36,2.91c.34,3.12,2,9.9,4.68,19.61l.34,1.22-1.25.25a68.5,68.5,0,0,0-11,3.12c-10,3.83-19.33,18.44-19.68,25.24,0,.91-.16,2-.28,3.24C2,78.75.39,95.08,15.29,107.42A27.43,27.43,0,0,0,27,114.12c6.78,1.66,33.28,3.21,42.26-1.86,9.13-5.15,14.92-10,17.51-19.49,2.17-7.94,4.74-23.19-2.38-36h0a38.94,38.94,0,0,0-25-18.8l-1.19-.28.33-1.18c1.83-6.59,4.12-15.27,4.55-19.16.11-1,.24-2,.36-2.91.72-5.67,1-9-1.41-10.69-2.08-1.49-3.62-1.42-4.35-1.26a2,2,0,0,0-1.36.87c-.75,1.7-4.94,26.41-4.92,29a25,25,0,0,1-.29,3.19l-.18,1.36h-1c-2.07,0-4.23,0-6.45.2l-1.11.09-.21-1.58a24.35,24.35,0,0,1-.3-3.25c0-2.6-4.17-27.31-4.93-29a2.08,2.08,0,0,0-1.34-.83A4,4,0,0,0,34.73,2.36Z"/><path class="cls-3" d="M29,87.91s-2.78,2.8-1.23,5.18,4.51,3.84,8.55,4.36,17.88,1.14,22.24-.73,6.84-6,5-8.81-11-6.22-17.1-5.91S32.07,84.59,29,87.91Z"/><path d="M75.43,61.49c-1-2.61-2.67-3-5.18-3-6.41-.14-13.32,1.26-19.71,1.88-12.66,1.22-25.3,2.61-37.8,5-1.49.28-.86,2.55.62,2.27l.5-.09.05.07C20.26,73.31,28,79.86,37.24,78.13a13.08,13.08,0,0,0,3-1,1.38,1.38,0,0,0,1.27-.53c0-.07.08-.14.13-.21a11.53,11.53,0,0,0,5.63-9.1c2.6,3.13,5.48,6.65,8.85,8.14,3.06,1.34,7.2,1,10.42.54C73.26,75,77.91,68.37,75.43,61.49Zm-5.18-.65a5,5,0,0,1,2,2.08,1.19,1.19,0,0,0-.52.46l-.16.27a1.11,1.11,0,0,0-1,.11,1.08,1.08,0,0,0-1.77-.21l-.82,1,.39-1c.44-1.11-1.21-2-2-1.15s-1.58,1.87-2.34,2.83l.69-2.81a1.13,1.13,0,0,0-.87-1.41C66.35,60.61,69,60.23,70.25,60.84Zm-7.36.42a1.14,1.14,0,0,0-.31.31l-3.4,5.07c.09-.72.19-1.45.28-2.18.17-1.3-1.6-1.4-2.2-.59L56,65.56c0-.42,0-.83,0-1.26a1.19,1.19,0,0,0-2-.83L52.59,65l-.06-.24a2.69,2.69,0,0,0,.74-.7,1,1,0,0,0-.44-1.55l6.51-.62C60.2,61.8,61.49,61.53,62.89,61.26ZM46.74,63.09,49,62.87a5.47,5.47,0,0,0-.76,1.86Zm3.35,3.43c.12-.13.25-.25.37-.37a8.42,8.42,0,0,1,.07,1L50,66.59Zm2.49,1.92c.32-.35.65-.7,1-1-.05.6-.11,1.21-.21,1.85a1.34,1.34,0,0,0,0,.64c-.44-.38-.88-.78-1.31-1.19A1.07,1.07,0,0,0,52.58,68.44ZM41,72.35l0,0a1,1,0,0,0,.15-.14l-.06.18Zm-9.56-2.21-.87-.63c.33,0,.67.1,1,.13C31.54,69.81,31.49,70,31.45,70.14ZM35,72.77c0,.06,0,.12.08.17l-.31.14Zm-7.2-1.55a14,14,0,0,1,1.41,1.67l-2.15-1.06A8.89,8.89,0,0,0,27.79,71.22ZM25,66.67a1.34,1.34,0,0,0-.6-.89c2.4-.36,4.81-.68,7.22-1A37.76,37.76,0,0,0,25,66.67Zm-7.45.93s0,.06,0,.08l-.08-.07Zm4.28,1-.05.22a1.2,1.2,0,0,0,1.14,1.5,15,15,0,0,0,1.87-.22l-.57.63a1.33,1.33,0,0,0-.78,1.59,44.33,44.33,0,0,1-4.52-3.46A13.53,13.53,0,0,0,21.82,68.62Zm14.89,6.91a12.38,12.38,0,0,0,2-1.55l.54.21a3.36,3.36,0,0,0-.07.59A13.89,13.89,0,0,1,36.71,75.53Zm7.2-4.48A17,17,0,0,0,44,65.39a1.19,1.19,0,0,0-2-.52c-.12.17-.27.3-.4.46a1,1,0,0,0-.31.08l0,0a1.11,1.11,0,0,0,0-.17A1.18,1.18,0,0,0,39,64.64l-.09.25a12.38,12.38,0,0,0-3.32-.25.91.91,0,0,0-.55-.28q4.74-.55,9.49-1a1,1,0,0,0,0,.66A8.43,8.43,0,0,1,43.91,71.05Zm10.46-.35a1.24,1.24,0,0,0,1.13-.54l1-1.41c-.11.89-.23,1.79-.34,2.68a.91.91,0,0,0,.14.65A22,22,0,0,1,54.37,70.7Zm2.74,1.83A1.32,1.32,0,0,0,58.4,72l2.49-3.71c-.21.86-.42,1.72-.62,2.58a1.18,1.18,0,0,0,2.15.91c.13-.22.28-.42.41-.64l-.06.17c-.43,1.07,1.25,2.06,2,1.15l1.9-2.42s0,0,0,.06c-.46,1.29,1.48,2,2.15.91.46-.74.91-1.48,1.36-2.22a1.26,1.26,0,0,0,.39,0c-.07.34-.15.68-.22,1a1.21,1.21,0,0,0,.86,1.42,11,11,0,0,1-3.67,2.13A12,12,0,0,1,57.11,72.53Z"/><path d="M48.66,74.09c-.83,1.83.55,3.35,1.76,4.68.82.91,1.75,1.72,2.61,2.6s2.94,2.46.59,2.78c-1.49.19-1.51,2.55,0,2.35,2.2-.29,4.56-1.85,3.17-4.21a17.15,17.15,0,0,0-3-3.45c-.45-.44-3.39-3-3.13-3.56C51.31,73.91,49.28,72.71,48.66,74.09Z"/><path d="M69.75,89c-2.34,8-12.72,11.51-20.19,12.81-5.53,1-11.39.49-15.47-3.81l-.25-.22c9.25-.86,18.29-2.91,27.51-3.67.68,0,1.44-.72,1.13-1.49a42.74,42.74,0,0,0-1.77-4A14.1,14.1,0,0,0,69.5,78.35a1.18,1.18,0,0,0-2.27-.62c-2.15,8.44-8.82,9.79-16.47,10.19-4.94.25-10.11-1.4-14.95-.71-6.13.88-8,6.54-4.44,11.31,5.51,7.3,15,6.92,23,4.59C61.61,101,69.74,97.48,72,89.65A1.18,1.18,0,0,0,69.75,89Zm-34.63,3q2.84-4.11,7.36-2c1.1.11,2.19.22,3.29.26a42.47,42.47,0,0,0,12.77-1,1.39,1.39,0,0,0,.12.43l1,2.18c-9.07.9-18,2.9-27.13,3.62a1.14,1.14,0,0,0-.41.12C31.47,94.21,32.46,93,35.12,92.07Z"/></g></g></svg>