<svg xmlns="http://www.w3.org/2000/svg" viewBox="0 0 91.38 118.07"><defs><style>.cls-1{fill:#f6c2cb;}.cls-2{fill:#040000;}.cls-3{fill:#fff;}</style></defs><title>chatroom_face_03</title><g id="圖層_2" data-name="圖層 2"><g id="圖層_1-2" data-name="圖層 1"><path class="cls-1" d="M85.38,56.15A40.16,40.16,0,0,0,59.63,36.77c1.86-6.67,4.15-15.38,4.59-19.34C65,10.55,66.33,5.34,62.69,2.74s-6.62-1.49-7.44,0-5.08,27-5.06,29.59a26.9,26.9,0,0,1-.32,3.35c-2.13,0-4.33,0-6.56.21A29.11,29.11,0,0,1,43,32.33c0-2.57-4.24-28.1-5.06-29.59s-3.79-2.6-7.43,0-2.3,7.81-1.54,14.69c.46,4.05,2.84,13.07,4.72,19.8a70.28,70.28,0,0,0-11.2,3.17c-10.34,4-20.06,19-20.44,26.28s-5,27.15,12.53,41.65a28.27,28.27,0,0,0,12.15,6.94c7.1,1.73,33.89,3.22,43.11-2s15.33-10.17,18.07-20.21S92.11,68.29,85.38,56.15Z"/><path class="cls-2" d="M46.5,118.07c-8.53,0-16.62-.81-20.1-1.66a29.2,29.2,0,0,1-12.71-7.26C-2.08,96.09-.36,79,.56,69.75c.12-1.2.23-2.26.28-3.13C1.22,59.07,11.08,43.5,22,39.3a69.43,69.43,0,0,1,10.15-3c-1.85-6.67-4-14.91-4.42-18.77-.11-1-.23-1.95-.35-2.87C26.67,9,26.09,4.41,29.78,1.78A7.9,7.9,0,0,1,36,.14a4.35,4.35,0,0,1,2.9,2c1,1.81,5.23,27.5,5.21,30.17a16.25,16.25,0,0,0,.2,2.29c1.52-.09,3-.14,4.48-.14h0A16.71,16.71,0,0,0,49,32.34C49,29.67,53.22,4,54.22,2.17a4.35,4.35,0,0,1,2.9-2,7.92,7.92,0,0,1,6.25,1.64C67.06,4.41,66.48,9,65.74,14.69c-.11.92-.24,1.88-.35,2.87-.42,3.82-2.5,11.86-4.3,18.36A41,41,0,0,1,86.41,55.58c7.53,13.59,4.86,29.53,2.6,37.81-2.81,10.29-9,15.46-18.63,20.92C65.38,117.14,55.68,118.07,46.5,118.07ZM34.73,2.36A6.16,6.16,0,0,0,31.15,3.7c-2.42,1.73-2.13,5-1.4,10.69q.18,1.39.36,2.91c.34,3.12,2,9.9,4.68,19.61l.34,1.22-1.25.25a68.5,68.5,0,0,0-11,3.12c-10,3.83-19.33,18.44-19.68,25.24,0,.91-.16,2-.28,3.24C2,78.75.39,95.08,15.29,107.42A27.43,27.43,0,0,0,27,114.12c6.78,1.66,33.28,3.21,42.26-1.86,9.13-5.15,14.92-10,17.51-19.49,2.17-7.94,4.74-23.19-2.38-36h0a38.94,38.94,0,0,0-25-18.8l-1.19-.28.33-1.18c1.83-6.59,4.12-15.27,4.55-19.16.11-1,.24-2,.36-2.91.72-5.67,1-9-1.41-10.69-2.08-1.49-3.62-1.42-4.35-1.26a2,2,0,0,0-1.36.87c-.75,1.7-4.94,26.41-4.92,29a25,25,0,0,1-.29,3.19l-.18,1.36h-1c-2.06,0-4.23,0-6.45.2l-1.11.09-.21-1.58a24.35,24.35,0,0,1-.3-3.25c0-2.6-4.17-27.31-4.93-29a2.08,2.08,0,0,0-1.34-.83A4,4,0,0,0,34.73,2.36Z"/><path class="cls-3" d="M29,87.91s-2.78,2.8-1.23,5.18,4.51,3.84,8.55,4.36,17.88,1.14,22.24-.73,6.84-6,5-8.81-11-6.22-17.1-5.91S32.07,84.59,29,87.91Z"/><path d="M27.73,72.47a31.93,31.93,0,0,1,4.49-5c1.29-1.16-.62-3-1.9-1.9a33.82,33.82,0,0,0-4.63,5.1c-1.83-1.53-3.69-3-5.46-4.53-1.31-1.12-3.22.77-1.9,1.9,1.88,1.61,3.92,3.18,5.9,4.83a33.78,33.78,0,0,0-2.37,4.45c-.67,1.57,1.64,2.94,2.32,1.35a31.36,31.36,0,0,1,2.12-4,32.46,32.46,0,0,1,4.3,4.57c1,1.37,3.35,0,2.31-1.35A37.38,37.38,0,0,0,27.73,72.47Z"/><path d="M72.2,74.77,65.9,70h0a12,12,0,0,1,4.36-5.85c1.44-1,.09-3.27-1.35-2.31a14.25,14.25,0,0,0-5.15,6.47,21.51,21.51,0,0,0-3.67-2.48c-1.54-.77-2.91,1.55-1.36,2.32a23.1,23.1,0,0,1,4,2.77c-.5,1.52-.94,3.09-1.38,4.64a1.34,1.34,0,0,0,2.59.72c.33-1.19.65-2.41,1-3.63l5.88,4.44C72.23,78.13,73.57,75.8,72.2,74.77Z"/><path d="M53.62,86.66c-5.22,0-12.46,1.3-16.19,3.79s-7.7,5.13-7.7,9.35,1.49,5.66,4.25,7a4.08,4.08,0,0,0,1.87.42c2.77,0,5.86-2.22,6.66-3,1.82-1.82,4.31-4.31,8.43-3.27a22.2,22.2,0,0,1,4,1.39,9.72,9.72,0,0,0,4.64,1c3.08,0,7.16-.74,7.16-7.16C66.75,90.47,58.85,86.66,53.62,86.66ZM38.75,92.42C42,90.22,48.87,89,53.62,89c4.25,0,10.76,3.21,10.76,7.17S62.62,101,59.59,101a7.56,7.56,0,0,1-3.7-.84,24.12,24.12,0,0,0-4.37-1.52c-5.45-1.37-8.85,2.06-10.69,3.9-.86.86-4.19,3-5.79,2.17-2.16-1.08-2.93-2-2.93-4.91S35.33,94.7,38.75,92.42Z"/></g></g></svg>