<svg id="圖層_1" data-name="圖層 1" xmlns="http://www.w3.org/2000/svg" viewBox="0 0 777 954"><defs><style>.cls-1{fill:#f05c79;}.cls-2{fill:#fcc6d0;}</style></defs><title>0117首頁PSD</title><path class="cls-1" d="M761.26,176.86h.18l-.18-.24v-1.1h-.83a373.9,373.9,0,0,0-43.58-48.77c15.14-8.55,32.52-27.63,18.74-49.5-20.5-32.52-52.17-36-77.33-22-9.43,5.27-13.63,11.34-15.18,16.85C594.88,44.33,543.46,27.6,496.14,21,395.53,6.92,258.88,23.34,155.78,60.84,149.89,63,144,65.51,138.2,68.3c-2.23-4.4-6.38-8.95-13.67-13C99.38,41.21,67.7,44.73,47.2,77.25c-12.3,19.53.23,36.82,13.84,46.4C43.89,140.08,12.51,177,12.51,177l1.75,777L763,952.5Z"/><path class="cls-2" d="M752.14,187.35h.17l-.17-.24V186h-.8A366.68,366.68,0,0,0,708.87,138c14.75-8.43,31.68-27.22,18.25-48.77-20-32-50.82-35.51-75.33-21.65-9.19,5.2-13.28,11.17-14.79,16.61-47-27.39-97-43.87-143.14-50.39-98-13.86-231.14,2.31-331.59,39.27-5.74,2.11-11.45,4.59-17.13,7.34-2.17-4.34-6.21-8.81-13.31-12.83C107.32,53.7,76.46,57.17,56.49,89.21c-12,19.24.23,36.28,13.48,45.71C53.27,151.11,22.7,187.5,22.7,187.5L24.4,953l729.44-1.48Z"/></svg>