<svg xmlns="http://www.w3.org/2000/svg" viewBox="0 0 47.44 68.87"><defs><style>.cls-1{font-size:10.31px;font-family:AdobeFanHeitiStd-Bold, AdobeFanHeitiStd Bold-B5pc-H;font-weight:700;}.cls-1,.cls-2{fill:#f05c79;}.cls-3{fill:#fff;}</style></defs><title>資產 22</title><g id="圖層_2" data-name="圖層 2"><g id="圖層_1-2" data-name="圖層 1"><text class="cls-1" transform="translate(7.1 65.88)">送禮物</text><circle class="cls-2" cx="23.72" cy="27.07" r="23.72"/><circle class="cls-3" cx="23.72" cy="23.72" r="23.72"/><path class="cls-2" d="M34.36,26.74H22.66c-1.06,0-1.45.38-1.45,1.42,0,3.14,0,6.29,0,9.43,0,1.11.37,1.46,1.49,1.47H34.42c1.11,0,1.5-.38,1.5-1.48q0-4.65,0-9.32C35.91,27.09,35.55,26.74,34.36,26.74Z"/><path class="cls-2" d="M38.31,18.93A1.19,1.19,0,0,0,37,17.6c-4.79,0-9.58,0-14.38,0-1,0-1.35.41-1.36,1.41q0,2.08,0,4.17c0,1.23.35,1.57,1.6,1.58H36.89c1,0,1.4-.41,1.41-1.37C38.32,21.9,38.31,20.41,38.31,18.93Z"/><path class="cls-2" d="M15.89,14.59a22.54,22.54,0,0,0,10.47.89,20.32,20.32,0,0,0,5.15-1.32,7.83,7.83,0,0,0,3-2.2,3,3,0,0,0-1.35-4.85,6.59,6.59,0,0,0-3-.3c-2.41.33-4.06,1.93-5.51,3.76-.38.48-.72,1-1,1.41a47.31,47.31,0,0,0-3.34-3.55,6.11,6.11,0,0,0-5.51-1.59c-2.94.63-4,3.64-1.91,5.82A8.14,8.14,0,0,0,15.89,14.59ZM30.07,9.11A2.89,2.89,0,0,1,31,9c.73,0,1.68,0,1.79.85a2.22,2.22,0,0,1-.95,1.63c-1.8,1.3-3.94,1.52-6.27,1.73C26.81,11.31,28.06,9.79,30.07,9.11Zm-15.88.72c.16-.91,1.17-.9,2-.85a5.15,5.15,0,0,1,3.43,1.81c.65.68,1.2,1.45,2,2.38-2.41-.19-4.51-.43-6.3-1.66C14.73,11.14,14.1,10.32,14.19,9.83Z"/><path class="cls-2" d="M18.43,33c0-1.62,0-3.24,0-4.86,0-1-.4-1.36-1.39-1.37-1.33,0-2.65,0-4,0-1,0-1.38.38-1.39,1.38,0,3.21,0,6.41,0,9.62A1.19,1.19,0,0,0,13,39.07c1.32,0,2.64,0,4,0,1.06,0,1.44-.38,1.45-1.43,0-1.55,0-3.1,0-4.66Z"/><path class="cls-2" d="M17.17,24.75a1.15,1.15,0,0,0,1.26-1.31c0-1.52,0-3,0-4.56a1.15,1.15,0,0,0-1.3-1.28H14c-1.12,0-2.24,0-3.36,0a1.15,1.15,0,0,0-1.31,1.27q0,2.32,0,4.65a1.13,1.13,0,0,0,1.24,1.24C12.75,24.77,15,24.76,17.17,24.75Z"/></g></g></svg>