<svg xmlns="http://www.w3.org/2000/svg" viewBox="0 0 47.44 68.8"><defs><style>.cls-1{font-size:10.31px;font-family:AdobeFanHeitiStd-Bold, AdobeFanHeitiStd Bold-B5pc-H;font-weight:700;}.cls-1,.cls-2{fill:#f05c79;}.cls-3{fill:#fff;}</style></defs><title>資產 23</title><g id="圖層_2" data-name="圖層 2"><g id="圖層_1-2" data-name="圖層 1"><text class="cls-1" transform="translate(4.68 65.81)">查看檔案</text><circle class="cls-2" cx="23.72" cy="27.07" r="23.72"/><circle class="cls-3" cx="23.72" cy="23.72" r="23.72"/><path class="cls-2" d="M40.39,16.68a4.83,4.83,0,0,0-5.09-5.06H28.41V8.31c0-1-.46-1.48-1.49-1.49H20.3c-1,0-1.48.47-1.48,1.5s0,2.14,0,3.3h-.7c-2.12,0-4.24,0-6.35,0a4.78,4.78,0,0,0-4.92,4.95V33.13A4.78,4.78,0,0,0,11.62,38h4.13c6.58,0,13.17,0,19.75,0a5.07,5.07,0,0,0,2-.4,4.73,4.73,0,0,0,2.89-4.73Q40.38,24.75,40.39,16.68ZM21.26,9.2c1.5,0,3,0,4.42,0a.47.47,0,0,1,.34.33c0,1.95.05,3.91,0,5.86a2.37,2.37,0,0,1-2.28,2.21,2.29,2.29,0,0,1-2.43-2C21.19,13.54,21.26,11.41,21.26,9.2ZM38,33.1a2.4,2.4,0,0,1-2.47,2.47H11.72a2.38,2.38,0,0,1-2.49-2.44q0-8.32,0-16.66A2.32,2.32,0,0,1,11.5,14c2.77,0,5.53,0,8.3,0a1.21,1.21,0,0,1,.25.08,13.51,13.51,0,0,0,0,1.42,3.57,3.57,0,0,0,7,.54A16.06,16.06,0,0,0,27.28,14h8.16A2.41,2.41,0,0,1,38,16.6Z"/><path class="cls-2" d="M14.46,27.9a2.15,2.15,0,0,0,2.72,0A5.26,5.26,0,0,0,19.4,23.4,3.49,3.49,0,0,0,15.74,20c-2,.06-3.47,1.57-3.48,4A5.43,5.43,0,0,0,14.46,27.9Z"/><path class="cls-2" d="M18.08,28.79a3.55,3.55,0,0,1-4.47,0,1.12,1.12,0,0,0-1.86.75c-.09.76-.11,1.54-.17,2.38h8.47a23.15,23.15,0,0,0-.19-2.56A1.09,1.09,0,0,0,18.08,28.79Z"/><path class="cls-2" d="M23.09,23.6H34.65a1,1,0,0,0,.52-.07c.18-.14.42-.4.39-.57s-.3-.4-.51-.52-.39,0-.59,0H23.12c-.37,0-.65.13-.68.54S22.71,23.55,23.09,23.6Z"/><path class="cls-2" d="M34.94,30.79H23.33c-.12,0-.29-.05-.37,0s-.49.36-.48.53.27.44.47.6.32,0,.48,0h11.5c.38,0,.65-.21.65-.58A.58.58,0,0,0,34.94,30.79Z"/><path class="cls-2" d="M23,26h9.33c.54,0,.89-.26.84-.63s-.42-.55-.84-.55c-1.52,0-3,0-4.55,0H23.08a.56.56,0,0,0-.64.53C22.4,25.75,22.67,25.92,23,26Z"/><path class="cls-2" d="M34.8,28.4c-1.32,0-2.64,0-4,0H26.78c-.41,0-.74.11-.74.59s.35.59.75.59h8c.49,0,.83-.28.78-.63S35.21,28.39,34.8,28.4Z"/><path class="cls-2" d="M23.6,28.4h0c-.19,0-.43-.07-.58,0s-.53.34-.54.52a.79.79,0,0,0,.46.6,3.31,3.31,0,0,0,1.33,0,.82.82,0,0,0,.5-.58c.06-.35-.22-.54-.57-.56Z"/><path class="cls-2" d="M23.67,16.39a1.17,1.17,0,0,0,1.13-1.2,1.18,1.18,0,0,0-2.36,0A1.17,1.17,0,0,0,23.67,16.39Z"/></g></g></svg>