<svg xmlns="http://www.w3.org/2000/svg" viewBox="0 0 91.38 118.07"><defs><style>.cls-1{fill:#f6c2cb;}.cls-2{fill:#040000;}.cls-3{fill:#fff;}</style></defs><title>chatroom_face_01</title><g id="圖層_2" data-name="圖層 2"><g id="圖層_1-2" data-name="圖層 1"><path class="cls-1" d="M85.38,56.14A40.17,40.17,0,0,0,59.63,36.77c1.86-6.67,4.15-15.38,4.59-19.34C65,10.55,66.33,5.34,62.69,2.74s-6.62-1.49-7.44,0-5.08,27-5.06,29.59a27.25,27.25,0,0,1-.32,3.35c-2.13,0-4.33,0-6.56.21A29.11,29.11,0,0,1,43,32.33c0-2.57-4.24-28.1-5.06-29.59s-3.79-2.6-7.43,0-2.3,7.81-1.54,14.69c.46,4.05,2.84,13.07,4.72,19.8a70.28,70.28,0,0,0-11.2,3.17c-10.34,4-20.06,19-20.44,26.28s-5,27.15,12.53,41.65a28.27,28.27,0,0,0,12.15,6.94c7.1,1.73,33.89,3.22,43.11-2s15.33-10.17,18.07-20.21S92.11,68.29,85.38,56.14Z"/><path class="cls-2" d="M46.5,118.07c-8.53,0-16.62-.81-20.1-1.66a29.2,29.2,0,0,1-12.71-7.26C-2.08,96.09-.36,79,.56,69.75c.12-1.21.23-2.26.28-3.13C1.22,59.07,11.08,43.5,22,39.3a69.43,69.43,0,0,1,10.15-3c-1.85-6.67-4-14.91-4.42-18.77-.11-1-.23-1.95-.35-2.87C26.67,9,26.09,4.41,29.78,1.78A7.94,7.94,0,0,1,36,.14a4.35,4.35,0,0,1,2.9,2c1,1.81,5.23,27.5,5.21,30.17a16.25,16.25,0,0,0,.2,2.29c1.52-.09,3-.14,4.48-.14h0A16.71,16.71,0,0,0,49,32.34C49,29.67,53.22,4,54.22,2.17a4.35,4.35,0,0,1,2.9-2,7.93,7.93,0,0,1,6.25,1.64C67.06,4.41,66.48,9,65.74,14.69c-.11.92-.24,1.88-.35,2.87-.42,3.81-2.5,11.86-4.3,18.36A41.06,41.06,0,0,1,86.41,55.57c7.53,13.6,4.86,29.54,2.6,37.82-2.81,10.29-9,15.46-18.63,20.92C65.38,117.14,55.68,118.07,46.5,118.07ZM34.73,2.36A6.16,6.16,0,0,0,31.15,3.7c-2.42,1.73-2.13,5-1.4,10.69q.18,1.39.36,2.91c.34,3.12,2,9.9,4.68,19.61l.34,1.22-1.25.25a68.5,68.5,0,0,0-11,3.12c-10,3.83-19.33,18.44-19.68,25.24,0,.9-.16,2-.28,3.24C2,78.75.39,95.08,15.29,107.42A27.43,27.43,0,0,0,27,114.12c6.78,1.66,33.28,3.21,42.26-1.86,9.13-5.16,14.92-10,17.51-19.49,2.17-7.94,4.74-23.19-2.38-36h0a38.94,38.94,0,0,0-25-18.8l-1.19-.28.33-1.18c1.83-6.59,4.12-15.27,4.55-19.16.11-1,.24-2,.36-2.91.72-5.67,1-9-1.41-10.69-2.08-1.49-3.62-1.42-4.35-1.26a2,2,0,0,0-1.36.87c-.75,1.7-4.94,26.41-4.92,29a25,25,0,0,1-.29,3.19l-.18,1.36h-1c-2.07,0-4.23,0-6.45.2l-1.11.08-.21-1.57a24.35,24.35,0,0,1-.3-3.25c0-2.6-4.17-27.31-4.93-29a2.08,2.08,0,0,0-1.34-.83A4,4,0,0,0,34.73,2.36Z"/><path class="cls-3" d="M31.32,89.78s-2.78,2.8-1.23,5.18,4.51,3.84,8.55,4.36,17.88,1.14,22.23-.73,6.84-6,5-8.81-11-6.22-17.1-5.91S34.43,86.46,31.32,89.78Z"/><path d="M30.26,65.44c-7.32,0-13.06,3-13.06,6.73s5.74,6.74,13.06,6.74,13.05-3,13.05-6.74S37.58,65.44,30.26,65.44ZM29,77.2c-6.11-.3-10.12-2.74-10.12-5s4-4.73,10.13-5a5.32,5.32,0,0,0,0,10Zm4.4-.18a5.3,5.3,0,0,0,0-9.7c5,.66,8.22,2.81,8.22,4.85S38.43,76.37,33.41,77Z"/><path d="M69,65.44c-7.32,0-13,3-13,6.73s5.73,6.74,13,6.74,13-3,13-6.74S76.32,65.44,69,65.44ZM67.75,77.2c-6.1-.3-10.12-2.74-10.12-5s4-4.73,10.13-5a5.32,5.32,0,0,0,0,10Zm4.4-.18a5.3,5.3,0,0,0,0-9.7c5,.66,8.22,2.81,8.22,4.85S77.17,76.37,72.15,77Z"/><path d="M52.25,84.75H48.37a.85.85,0,1,0,0,1.69h5.05a.82.82,0,0,0,.68-.36.84.84,0,0,0,.12-.75L47.48,65.11a.84.84,0,0,0-1.07-.53.85.85,0,0,0-.53,1.07Z"/><path d="M56,92.33H45.84a.85.85,0,0,0,0,1.69H56a.85.85,0,0,0,0-1.69Z"/></g></g></svg>