<svg xmlns="http://www.w3.org/2000/svg" xmlns:xlink="http://www.w3.org/1999/xlink" viewBox="0 0 1325.86 505.74"><defs><style>.cls-1,.cls-4,.cls-61,.cls-66{fill:none;}.cls-2{fill:#00427e;}.cls-3{fill:#9ddcf9;opacity:0.4;}.cls-4,.cls-57{stroke:#000;}.cls-14,.cls-4,.cls-5,.cls-55,.cls-56,.cls-57,.cls-60,.cls-61,.cls-63,.cls-65,.cls-66{stroke-miterlimit:10;}.cls-5{fill:#f6c2cb;}.cls-14,.cls-5{stroke:#040000;}.cls-6{fill:#207d99;}.cls-7{opacity:0.7;}.cls-8{clip-path:url(#clip-path);}.cls-9{fill:#0b1a27;}.cls-10{fill:#174a67;}.cls-11{fill:#004e3f;}.cls-12{fill:#0e283c;}.cls-13{fill:#340a0b;}.cls-14{fill:#38bacd;}.cls-15{fill:#da4d55;}.cls-16,.cls-55{fill:#fff;}.cls-17{fill:#19191a;}.cls-18{fill:#882428;}.cls-19{fill:#efeeda;}.cls-20{fill:#5b3b24;}.cls-21{fill:#b37952;}.cls-22{fill:#8b654f;}.cls-23{fill:#725741;}.cls-24{fill:#1b1c2c;}.cls-25{fill:#181a31;}.cls-26{fill:#16151d;}.cls-27{fill:#22232c;}.cls-28{fill:#17161e;}.cls-29{fill:#56545d;}.cls-30{fill:#56555d;}.cls-31{fill:#e8e8e8;}.cls-32{fill:#67656b;}.cls-33{fill:#0a0a0b;}.cls-34{fill:#57565f;}.cls-35{fill:#0d0d16;}.cls-36{fill:#4e4c55;}.cls-37{fill:#807e80;}.cls-38{fill:#1b1c24;}.cls-39{fill:#040000;}.cls-40{fill:#47464c;}.cls-41{fill:#040102;}.cls-42{fill:#060507;}.cls-43{fill:#57565e;}.cls-44{fill:#53525a;}.cls-45{fill:#3e3d44;}.cls-46{fill:#161821;}.cls-47{fill:#171922;}.cls-48{fill:#171829;}.cls-49{fill:#7e675c;}.cls-50{fill:#2b102e;}.cls-51{fill:#dd86ae;}.cls-52{fill:#e2b4aa;}.cls-53{fill:#2c112f;}.cls-54{fill:#dbb592;}.cls-55,.cls-56{stroke:#1b1464;stroke-width:2px;}.cls-56{fill:url(#搖擺);}.cls-57{fill:#80685d;}.cls-58{fill:#ded3be;}.cls-59,.cls-60{fill:#ccc;}.cls-60,.cls-61{stroke:#484549;}.cls-62{fill:#484549;}.cls-63,.cls-65,.cls-66{stroke:#ccc;}.cls-64{fill:#d4145a;}.cls-65{fill:#c1272d;stroke-width:0.25px;}.cls-66{stroke-width:0.5px;}</style><clipPath id="clip-path"><path class="cls-1" d="M271.14,472.17a8.44,8.44,0,0,1-.32-3.48c.1-2.55-1.58-45.54-1.58-45.54s2.39-3.8,3.77-6.56,4.05-9,4.13-10.58,1.12-1.34,1.39-.63,6.74,10.49,7.34,11.14,1.26,1.1,1.07,1.68c7.87-1.84,15.74-3.83,23.66-5.27-2.51-8.65-12.49-39.16-23.32-55.1-11.95-17.61-15.65-28.7-18-33.37l-1.31-2.72H249.25c1.22,3.94,3,9.73,3.64,11.58,1,2.89-2.9,15.43-6.76,20.25S228.77,368,224,369a29.08,29.08,0,0,1-13-.49c-3.86-1-21.23-17.36-23.15-24.11-1.78-6.23,4.64-19.84,4.89-22.67H172.94s-20.87,36.52-26.09,46.52-15.11,27.49-17.69,43l2.74.41.35.05.34.05c6.5.85,13,1.66,19.48,2.71a12.44,12.44,0,0,1,2.4.63c1.35-2.25,5.37-8.51,5.37-8.51s.87.06,1.09,1.53,4.76,11.83,6,13.49,2.18,1.74,2.18,3.26-2.39,40.94-2,44.78-.8,2.76-2.53,3.55A26.11,26.11,0,0,0,152.87,486c-3.55,8.19,8,9.13,8.84,9.42s25.5,1,28.84,0,11.23-3.7,12.31-10.07,4-40.69,4-40.69-.11-1.85,1.68-1.79,22-.22,22-.22a1.57,1.57,0,0,1,1.2,1.36c0,1.09,3.08,39.53,3.37,40.83a14.73,14.73,0,0,0,9.93,9.57c7.32,2.31,31.88,1,31.88,1s7.68-2.1,7.75-6.16-.38-5.74-2.77-8.68S271.14,472.17,271.14,472.17Z"/></clipPath><pattern id="搖擺" data-name="搖擺" width="108.34" height="109.64" patternTransform="translate(445.34 390.83)" patternUnits="userSpaceOnUse" viewBox="0 0 108.34 109.64"><rect class="cls-1" width="108.34" height="109.64"/><path class="cls-2" d="M87.47,144.34a.27.27,0,0,1,.25-.21c12.91-.14,24.75-3.27,34-11.52-8,5.56-22.94,7.51-31.52,3.62a.25.25,0,0,1,.11-.48c10.68.29,19.28-3,26-9-6.87-.42-12.57-4.74-12.55-9.84a.26.26,0,0,1,.2-.25.27.27,0,0,1,.28.14c1.12,2.49,4.75,3.79,8.58,2.88,4.18-1,7-4.18,6.3-7.16-.47-2-2.43-3.4-4.95-3.79a.26.26,0,0,1-.22-.26.27.27,0,0,1,.23-.24,17.53,17.53,0,0,1,3.32,0c6.49.62,11.52,4.6,12,9.18,4.71-.55,8.89-3.16,10.38-6.77a.25.25,0,0,1,.27-.16.26.26,0,0,1,.22.23c.37,4.75-1.26,7.84-5,10.86a21.8,21.8,0,0,1,17.25.53.26.26,0,0,1,.15.28.28.28,0,0,1-.24.21,16.26,16.26,0,0,0-11.74,5.07c18.26-5.13,33.09,6.2,28,23.05a.26.26,0,0,1-.27.18.26.26,0,0,1-.23-.23c-.91-9.71-7.7-16.11-17.86-17.07a17.45,17.45,0,0,1,11.56,15.53.25.25,0,0,1-.19.26.27.27,0,0,1-.3-.14,16.74,16.74,0,0,0-14.16-9.81c6.34,2.58,10.4,8.6,11.57,16.42a.25.25,0,0,1-.17.28.25.25,0,0,1-.3-.13c-3.87-7.58-12.16-12.79-22.45-8.81-10.62,4.11-15.27,16.39-16.3,25a.26.26,0,0,1-.24.22.25.25,0,0,1-.26-.19c-3.72-15.69,3.58-31.95,16.64-38.84-7.1,2-13.44,6.26-17,13.35-8.3,1-14,3.87-16.86,9.24a.25.25,0,0,1-.29.13.27.27,0,0,1-.19-.27c.19-2.11.94-6.33,4.08-8.27-7,0-12.51-.89-17.8-3A.26.26,0,0,1,87.47,144.34ZM117,197.81a.24.24,0,0,0-.31,0,.25.25,0,0,0-.05.31c1.62,2.8.14,6.82-3,6.82-5.72,0-8.47-10.77-7.6-20.59,2.17,5.75,4,8,7.35,10.79a.24.24,0,0,0,.32,0,.25.25,0,0,0,.07-.31,46.53,46.53,0,0,1-5.9-24.09c1.46,6,3.19,9.32,8.13,14.38a.24.24,0,0,0,.32,0,.25.25,0,0,0,.09-.31,44.24,44.24,0,0,1-1-34.27.25.25,0,0,0-.06-.28.26.26,0,0,0-.29,0c-5.2,2.55-8.26,4.23-12.75,10.39,1.36,7.4.23,11.05-3.17,17.2,3.94-9.92,1.84-23.9-8.19-29.6a.25.25,0,0,0-.32.07.26.26,0,0,0,0,.33,17.92,17.92,0,0,1,4.16,17.93c1.53-10.39-7.6-19.12-17.78-19.12-9.6,0-16.15,7.51-15.61,14.94s5.44,11,9.67,12.5a.25.25,0,0,0,.3-.1.26.26,0,0,0,0-.32c-5.61-5.69-6.38-16.49,3.58-19.76-5.86,5.06-3.69,16.83,5.69,17.73a.26.26,0,0,0,.27-.17.27.27,0,0,0-.11-.3,8,8,0,0,1-3.68-6.57c0-4.68,3.43-6.51,5.68-6.51,3.42,0,6.26,3.25,6.26,8.18,0,5.84-5.26,10.68-12,11.43s-12.78-2.15-15.75-6.46a.25.25,0,0,0-.31-.08.24.24,0,0,0-.14.29,17.14,17.14,0,0,0,26.88,9.51c-6.61,7.5-17,7.6-25.72-.09a.26.26,0,0,0-.32,0,.24.24,0,0,0-.07.31c2.66,5.41,9.25,11.82,18.6,10.89,8.56-.86,13.52-9,14.53-15.69.55,8.52-1.4,14.53-8.76,20.14a.25.25,0,0,0-.07.32.26.26,0,0,0,.3.13c6.78-2,12.23-5.43,15-12.55,0,6.17-2.14,12.38-7.53,16.52a.24.24,0,0,0-.07.31.25.25,0,0,0,.29.13c3.46-1,6.17-2.49,8.14-5.18,1.31,11.1,6.52,17.69,12.53,17.69,4.12,0,7.2-3,7.2-7.87A11.36,11.36,0,0,0,117,197.81Zm99.23-91.62c-3.17-3.91-9.54-5.4-16.44-4a22.71,22.71,0,0,0-1.61-11.49.25.25,0,0,0-.48.12c.37,8.77-4.62,15.85-13.45,18.91,6.91-4.75,8.93-14.19,5.64-19.06a.25.25,0,0,0-.31-.09.25.25,0,0,0-.15.28c.37,2.06-.61,4.68-2.72,6.72-2.9,2.82-6.84,3.45-8.81,1.43s-1.19-6,1.71-8.76A9.58,9.58,0,0,1,183,88.08a.28.28,0,0,0,.17-.28.26.26,0,0,0-.23-.22c-6.39-.55-10.77,3.25-13.52,7.88s-7.57,8.41-13.21,7.67a.26.26,0,0,0-.27.17.24.24,0,0,0,.11.3,11,11,0,0,0,9.86,1.05c-5.79,4.91-14.05,7.74-21.84,5.23a.25.25,0,0,0-.29.1.26.26,0,0,0,0,.31c5.9,6.57,17.69,6.7,25.11,1.37-3,4.32-7.07,7.49-14.3,8.48a.28.28,0,0,0-.22.23.26.26,0,0,0,.17.26c8.29,3.08,16.6,0,23.44-8.21a26.35,26.35,0,0,1-14.76,14,.25.25,0,0,0-.17.28.26.26,0,0,0,.25.21c3.94.08,7.48-.86,12.26-3.57C172.1,129,172.87,139,178,145.61a.27.27,0,0,0,.3.08.26.26,0,0,0,.15-.28c-1.18-7.2,1.3-15.33,5.61-19.64a18.18,18.18,0,0,0,5.9,19.64.26.26,0,0,0,.25.05.28.28,0,0,0,.17-.21c1.23-9.41,11.77-19,20.6-19.77a.25.25,0,0,0,0-.5,20.83,20.83,0,0,0-12.39,1,21.87,21.87,0,0,1,9.56-6.25.25.25,0,0,0-.06-.49,20.37,20.37,0,0,0-12.73,3.54A31.44,31.44,0,0,1,214.8,109.3.25.25,0,0,0,215,109a.24.24,0,0,0-.22-.24c-11.92-1.3-21.75,3.32-28.22,11.92,1.64-4.9,6.36-9.76,12.94-12.62,5.85-2.55,11.85-2.95,16.42-1.51a.27.27,0,0,0,.29-.1A.26.26,0,0,0,216.19,106.19Zm-52.91,75.57c4.81-10.49,4.47-18.69.6-29a.26.26,0,0,0-.5.1c.63,12.62-2.82,21.65-10.29,27.8,8.25-9.85,4.35-29.56-8.83-29.56-9.58,0-17.51,8-19.45,17.53a.25.25,0,0,0,.16.29.26.26,0,0,0,.31-.11c2.84-4.76,7.4-7.85,12.45-7.85,8.14,0,10.54,6.46,10.54,11,0,6.18-4.92,11.34-8.7,11.34a4.93,4.93,0,0,1-5-4.93,8.86,8.86,0,0,1,6.37-8.16.26.26,0,0,0,.18-.28.25.25,0,0,0-.25-.22,10.47,10.47,0,0,0-9.63,5.57,17.4,17.4,0,0,1,.64-7.72.25.25,0,0,0-.12-.3.25.25,0,0,0-.32.07c-7.36,9.39-3.84,25.62,2,32.35-5.53-4-10.42-12.63-10.34-24.39a.25.25,0,0,0-.21-.25.24.24,0,0,0-.28.15c-4.11,10.26-1.93,29.25,9.28,39.86a20.19,20.19,0,0,1-9.12-.7.27.27,0,0,0-.3.12.25.25,0,0,0,.06.32c4.09,3.46,9.81,4.54,15.26,4.54-4.69-5.5-3.13-16.55,4.36-16.55,5.35,0,7.77,8.3,3.64,12.78a.27.27,0,0,0,0,.31.25.25,0,0,0,.3.1c4.78-1.65,9.94-5.79,9.94-11,0-5-4.81-9.39-11.8-9.05,8.82-2.5,18,.27,22.88,6.26a.25.25,0,0,0,.31.06.24.24,0,0,0,.13-.29c-2.79-10.71-12-15.2-23.43-13.7,9.28-3.76,23.25-.48,29.42,7.31a.25.25,0,0,0,.3.07.26.26,0,0,0,.15-.28C172.53,188.66,169,183.71,163.28,181.76Z"/><path class="cls-3" d="M189.67,162.47a.27.27,0,0,1-.25.21c-12.91.14-24.75,3.27-34,11.52,8-5.56,22.94-7.51,31.53-3.62a.28.28,0,0,1,.14.29.27.27,0,0,1-.26.19c-10.68-.29-19.28,3-26,9,6.87.42,12.57,4.74,12.55,9.84a.26.26,0,0,1-.2.25A.26.26,0,0,1,173,190c-1.12-2.48-4.75-3.78-8.58-2.88-4.18,1-7,4.19-6.3,7.17.47,2,2.43,3.4,5,3.79a.26.26,0,0,1,.22.25.27.27,0,0,1-.23.25,17.53,17.53,0,0,1-3.32,0c-6.49-.62-11.51-4.6-11.95-9.18-4.71.55-8.88,3.16-10.38,6.77a.25.25,0,0,1-.49-.07c-.37-4.75,1.26-7.84,5-10.86a21.8,21.8,0,0,1-17.25-.53.26.26,0,0,1,.1-.49,16.26,16.26,0,0,0,11.73-5.07c-18.26,5.13-33.09-6.2-28-23.05a.26.26,0,0,1,.27-.18.26.26,0,0,1,.23.23c.91,9.71,7.7,16.11,17.86,17.07a17.45,17.45,0,0,1-11.56-15.53.25.25,0,0,1,.19-.26.26.26,0,0,1,.3.14,16.74,16.74,0,0,0,14.16,9.81c-6.34-2.58-10.4-8.6-11.57-16.42a.25.25,0,0,1,.17-.28.25.25,0,0,1,.3.13c3.87,7.58,12.16,12.79,22.45,8.81,10.62-4.11,15.27-16.39,16.3-25a.28.28,0,0,1,.24-.23.27.27,0,0,1,.26.2c3.72,15.69-3.58,31.95-16.63,38.84,7.09-2,13.44-6.26,17-13.35,8.3-1,14-3.87,16.86-9.24a.25.25,0,0,1,.29-.13.27.27,0,0,1,.19.27c-.19,2.11-.95,6.33-4.08,8.27,7,0,12.51.89,17.8,3A.26.26,0,0,1,189.67,162.47ZM160.18,109a.26.26,0,0,0,.32,0,.27.27,0,0,0,0-.32c-1.62-2.79-.14-6.81,3.05-6.81,5.72,0,8.47,10.77,7.6,20.59-2.16-5.75-4-8-7.35-10.79a.24.24,0,0,0-.32,0,.23.23,0,0,0-.06.31,46.61,46.61,0,0,1,5.89,24.09c-1.46-6-3.19-9.32-8.13-14.38a.24.24,0,0,0-.32,0,.25.25,0,0,0-.09.31,44.22,44.22,0,0,1,.95,34.26.28.28,0,0,0,.06.29.28.28,0,0,0,.29,0c5.2-2.55,8.26-4.23,12.75-10.39-1.36-7.4-.23-11.05,3.17-17.19-3.94,9.91-1.84,23.89,8.19,29.58a.24.24,0,0,0,.32-.06.26.26,0,0,0,0-.33,17.93,17.93,0,0,1-4.16-17.93c-1.53,10.39,7.6,19.12,17.78,19.12,9.6,0,16.15-7.51,15.61-14.94s-5.44-11-9.67-12.5a.25.25,0,0,0-.3.1.24.24,0,0,0,0,.31c5.61,5.7,6.38,16.5-3.58,19.76,5.86-5,3.69-16.82-5.69-17.72a.26.26,0,0,0-.27.17.28.28,0,0,0,.11.3,8,8,0,0,1,3.68,6.57c0,4.67-3.43,6.51-5.68,6.51-3.42,0-6.26-3.25-6.26-8.18,0-5.84,5.26-10.68,12-11.43s12.78,2.15,15.75,6.46a.25.25,0,0,0,.31.08.24.24,0,0,0,.14-.29A17.14,17.14,0,0,0,189.47,125c6.61-7.5,17-7.6,25.72.09a.26.26,0,0,0,.32,0,.25.25,0,0,0,.07-.32c-2.66-5.4-9.25-11.81-18.6-10.88-8.56.86-13.52,9-14.53,15.69-.55-8.52,1.4-14.53,8.76-20.14a.26.26,0,0,0,.07-.32.26.26,0,0,0-.3-.13c-6.78,2-12.23,5.43-15,12.54,0-6.16,2.14-12.37,7.53-16.51a.24.24,0,0,0,.07-.31.25.25,0,0,0-.29-.13c-3.46,1-6.17,2.49-8.14,5.18-1.31-11.1-6.52-17.69-12.53-17.69-4.12,0-7.2,3-7.2,7.87A11.36,11.36,0,0,0,160.18,109ZM61,200.62c3.17,3.91,9.54,5.39,16.43,4A22.7,22.7,0,0,0,79,216.1a.26.26,0,0,0,.29.13.26.26,0,0,0,.19-.26c-.37-8.76,4.62-15.84,13.45-18.9C86,201.82,84,211.26,87.29,216.13a.25.25,0,0,0,.31.09.25.25,0,0,0,.15-.28c-.37-2.06.61-4.68,2.71-6.72,2.91-2.82,6.85-3.45,8.82-1.43s1.19,6-1.71,8.76a9.58,9.58,0,0,1-3.45,2.18A.28.28,0,0,0,94,219a.26.26,0,0,0,.23.22c6.39.55,10.77-3.26,13.52-7.88s7.57-8.41,13.21-7.67a.26.26,0,0,0,.27-.17.24.24,0,0,0-.11-.3,11,11,0,0,0-9.86-1.05c5.79-4.91,14.05-7.74,21.84-5.23a.27.27,0,0,0,.29-.1.26.26,0,0,0,0-.31c-5.9-6.57-17.69-6.7-25.1-1.37,3-4.32,7.06-7.49,14.29-8.48a.28.28,0,0,0,.22-.23.26.26,0,0,0-.17-.26c-8.29-3.08-16.6,0-23.44,8.21a26.35,26.35,0,0,1,14.76-14,.25.25,0,0,0,.17-.28.26.26,0,0,0-.25-.21c-3.94-.08-7.48.86-12.26,3.57,3.51-5.69,2.74-15.64-2.37-22.26a.27.27,0,0,0-.3-.08.26.26,0,0,0-.15.28c1.18,7.2-1.3,15.33-5.61,19.64a18.18,18.18,0,0,0-5.9-19.64.26.26,0,0,0-.25-.05.27.27,0,0,0-.17.2c-1.23,9.42-11.77,19-20.6,19.78a.25.25,0,0,0,0,.5,20.83,20.83,0,0,0,12.39-1A21.76,21.76,0,0,1,69,187a.26.26,0,0,0-.17.28.25.25,0,0,0,.23.22A20.39,20.39,0,0,0,81.77,184a31.44,31.44,0,0,1-19.43,13.51.25.25,0,0,0-.19.26.26.26,0,0,0,.22.24c11.92,1.3,21.75-3.32,28.22-11.92-1.64,4.9-6.36,9.76-12.94,12.62-5.85,2.54-11.85,2.95-16.42,1.51a.27.27,0,0,0-.29.1A.25.25,0,0,0,61,200.62Zm52.91-75.57c-4.81,10.49-4.47,18.68-.6,29.05a.26.26,0,0,0,.5-.1c-.63-12.62,2.82-21.65,10.29-27.8-8.25,9.85-4.35,29.56,8.83,29.56,9.58,0,17.51-8,19.45-17.53a.25.25,0,0,0-.16-.29.24.24,0,0,0-.3.11c-2.85,4.76-7.41,7.85-12.46,7.85-8.14,0-10.54-6.46-10.54-11,0-6.18,4.92-11.34,8.7-11.34a4.94,4.94,0,0,1,5.05,4.93,8.88,8.88,0,0,1-6.38,8.16.25.25,0,0,0-.18.28.26.26,0,0,0,.25.22,10.48,10.48,0,0,0,9.63-5.57,17.4,17.4,0,0,1-.64,7.72.25.25,0,0,0,.12.3.25.25,0,0,0,.32-.07c7.36-9.39,3.84-25.62-2-32.35,5.53,4,10.42,12.63,10.34,24.39a.26.26,0,0,0,.49.1c4.11-10.26,1.93-29.25-9.28-39.86a20.19,20.19,0,0,1,9.12.7.27.27,0,0,0,.3-.12.25.25,0,0,0-.06-.32c-4.09-3.45-9.81-4.54-15.26-4.54,4.7,5.5,3.13,16.55-4.36,16.55-5.34,0-7.77-8.3-3.64-12.78a.27.27,0,0,0,0-.31.25.25,0,0,0-.3-.1c-4.77,1.65-9.94,5.79-9.94,11,0,5,4.81,9.39,11.8,9-8.82,2.5-18.05-.27-22.88-6.26a.25.25,0,0,0-.44.23c2.79,10.71,12,15.2,23.44,13.7-9.29,3.76-23.25.49-29.43-7.31a.26.26,0,0,0-.31-.07.27.27,0,0,0-.14.28C104.61,118.15,108.1,123.09,113.86,125.05Z"/><path class="cls-2" d="M-20.86,144.34a.25.25,0,0,1,.24-.21c12.91-.14,24.76-3.27,34-11.52-8,5.56-22.94,7.51-31.52,3.62a.27.27,0,0,1-.15-.29.26.26,0,0,1,.26-.19c10.68.29,19.28-3,26-9-6.87-.42-12.57-4.74-12.55-9.84a.26.26,0,0,1,.2-.25.27.27,0,0,1,.28.14c1.12,2.49,4.75,3.79,8.58,2.88,4.18-1,7-4.18,6.3-7.16-.47-2-2.43-3.4-4.95-3.79a.25.25,0,0,1,0-.5,17.43,17.43,0,0,1,3.31,0c6.49.62,11.52,4.6,12,9.18,4.71-.55,8.89-3.16,10.38-6.77a.26.26,0,0,1,.28-.16.27.27,0,0,1,.21.23c.38,4.75-1.26,7.84-5,10.86a21.8,21.8,0,0,1,17.25.53.26.26,0,0,1,.15.28.28.28,0,0,1-.24.21,16.22,16.22,0,0,0-11.73,5.07c18.25-5.13,33.08,6.2,28,23.05a.26.26,0,0,1-.27.18.26.26,0,0,1-.23-.23c-.91-9.71-7.7-16.11-17.86-17.07a17.45,17.45,0,0,1,11.56,15.53.25.25,0,0,1-.48.12,16.77,16.77,0,0,0-14.16-9.81c6.33,2.58,10.39,8.6,11.57,16.42a.26.26,0,0,1-.18.28A.25.25,0,0,1,50,156c-3.87-7.58-12.16-12.79-22.45-8.81-10.61,4.11-15.27,16.39-16.3,25a.26.26,0,0,1-.24.22.25.25,0,0,1-.26-.19C7,156.6,14.32,140.34,27.38,133.45c-7.1,2-13.44,6.26-17,13.35-8.29,1-14,3.87-16.86,9.24a.25.25,0,0,1-.29.13A.27.27,0,0,1-7,155.9c.19-2.11,1-6.33,4.08-8.27-7,0-12.51-.89-17.8-3A.24.24,0,0,1-20.86,144.34ZM8.62,197.81a.24.24,0,0,0-.31,0,.25.25,0,0,0-.05.31c1.62,2.8.14,6.82-3,6.82-5.72,0-8.47-10.77-7.6-20.59,2.17,5.75,4,8,7.35,10.79a.24.24,0,0,0,.32,0,.24.24,0,0,0,.07-.31,46.53,46.53,0,0,1-5.9-24.09c1.46,6,3.2,9.32,8.13,14.38a.24.24,0,0,0,.32,0,.25.25,0,0,0,.09-.31,44.29,44.29,0,0,1-1-34.27.25.25,0,0,0-.06-.28.26.26,0,0,0-.29,0c-5.2,2.55-8.26,4.23-12.75,10.39,1.36,7.4.23,11.05-3.17,17.2,3.94-9.92,1.84-23.9-8.19-29.6a.25.25,0,0,0-.32.07.26.26,0,0,0,0,.33,17.88,17.88,0,0,1,4.16,17.93c1.53-10.39-7.59-19.12-17.78-19.12-9.6,0-16.15,7.51-15.61,14.94s5.45,11,9.67,12.5a.25.25,0,0,0,.3-.1.26.26,0,0,0,0-.32c-5.61-5.69-6.38-16.49,3.58-19.76-5.86,5.06-3.69,16.83,5.69,17.73a.26.26,0,0,0,.27-.17.26.26,0,0,0-.11-.3,8,8,0,0,1-3.67-6.57c0-4.68,3.42-6.51,5.67-6.51,3.42,0,6.26,3.25,6.26,8.18,0,5.84-5.26,10.68-12,11.43s-12.78-2.15-15.75-6.46a.25.25,0,0,0-.31-.08.25.25,0,0,0-.14.29,17.15,17.15,0,0,0,26.89,9.51c-6.62,7.5-17,7.6-25.73-.09a.26.26,0,0,0-.32,0,.24.24,0,0,0-.07.31c2.66,5.41,9.25,11.82,18.6,10.89,8.56-.86,13.52-9,14.53-15.69.55,8.52-1.4,14.53-8.76,20.14a.28.28,0,0,0-.07.32.26.26,0,0,0,.3.13c6.78-2,12.23-5.43,15.05-12.55,0,6.17-2.14,12.38-7.53,16.52a.24.24,0,0,0-.07.31.25.25,0,0,0,.29.13c3.46-1,6.18-2.49,8.14-5.18C-5,208.11.22,214.7,6.23,214.7c4.12,0,7.2-3,7.2-7.87A11.36,11.36,0,0,0,8.62,197.81Zm99.23-91.62c-3.16-3.91-9.54-5.4-16.43-4a22.82,22.82,0,0,0-1.61-11.49.28.28,0,0,0-.3-.13.26.26,0,0,0-.19.25c.38,8.77-4.62,15.85-13.45,18.91,6.91-4.75,8.93-14.19,5.64-19.06a.25.25,0,0,0-.46.19c.37,2.06-.61,4.68-2.71,6.72-2.91,2.82-6.85,3.45-8.81,1.43s-1.2-6,1.7-8.76a9.58,9.58,0,0,1,3.45-2.18.26.26,0,0,0,.17-.28.26.26,0,0,0-.23-.22C68.23,87,63.85,90.83,61.1,95.46s-7.57,8.41-13.21,7.67a.26.26,0,0,0-.27.17.26.26,0,0,0,.11.3,11,11,0,0,0,9.86,1.05c-5.79,4.91-14,7.74-21.84,5.23a.25.25,0,0,0-.29.1.26.26,0,0,0,0,.31c5.91,6.57,17.69,6.7,25.11,1.37-3,4.32-7.07,7.49-14.3,8.48a.26.26,0,0,0-.21.23.24.24,0,0,0,.16.26c8.29,3.08,16.6,0,23.44-8.21a26.35,26.35,0,0,1-14.76,14,.25.25,0,0,0-.17.28.26.26,0,0,0,.25.21c3.94.08,7.49-.86,12.26-3.57-3.5,5.69-2.74,15.64,2.37,22.26a.28.28,0,0,0,.31.08.26.26,0,0,0,.14-.28c-1.17-7.2,1.3-15.33,5.61-19.64a18.18,18.18,0,0,0,5.9,19.64.27.27,0,0,0,.26.05.29.29,0,0,0,.16-.21c1.23-9.41,11.77-19,20.6-19.77a.25.25,0,0,0,0-.5,20.83,20.83,0,0,0-12.39,1,21.87,21.87,0,0,1,9.56-6.25.25.25,0,0,0,.18-.27.27.27,0,0,0-.24-.22A20.39,20.39,0,0,0,87,122.81a31.44,31.44,0,0,1,19.43-13.51.27.27,0,0,0,.2-.26.26.26,0,0,0-.23-.24c-11.92-1.3-21.75,3.32-28.22,11.92,1.65-4.9,6.36-9.76,12.94-12.62,5.85-2.55,11.85-2.95,16.43-1.51a.25.25,0,0,0,.27-.4ZM54.94,181.76c4.81-10.49,4.47-18.69.6-29a.27.27,0,0,0-.29-.17.26.26,0,0,0-.2.27c.62,12.62-2.83,21.65-10.3,27.8,8.25-9.85,4.35-29.56-8.83-29.56-9.58,0-17.51,8-19.45,17.53a.26.26,0,0,0,.47.18c2.84-4.76,7.41-7.85,12.45-7.85,8.14,0,10.54,6.46,10.54,11,0,6.18-4.92,11.34-8.7,11.34a4.93,4.93,0,0,1-5-4.93,8.86,8.86,0,0,1,6.37-8.16.26.26,0,0,0,.18-.28.25.25,0,0,0-.25-.22,10.48,10.48,0,0,0-9.63,5.57,17.4,17.4,0,0,1,.64-7.72.24.24,0,0,0-.12-.3.25.25,0,0,0-.32.07c-7.35,9.39-3.83,25.62,2,32.35-5.53-4-10.42-12.63-10.34-24.39a.25.25,0,0,0-.2-.25.26.26,0,0,0-.29.15C10.1,185.4,12.28,204.39,23.49,215a20.2,20.2,0,0,1-9.12-.7.27.27,0,0,0-.3.12.25.25,0,0,0,.06.32c4.09,3.46,9.81,4.54,15.26,4.54-4.69-5.5-3.13-16.55,4.36-16.55,5.35,0,7.77,8.3,3.65,12.78a.26.26,0,0,0,0,.31.25.25,0,0,0,.3.1c4.78-1.65,9.94-5.79,9.94-11,0-5-4.81-9.39-11.8-9.05,8.82-2.5,18,.27,22.88,6.26a.26.26,0,0,0,.45-.23c-2.8-10.71-12-15.2-23.44-13.7,9.28-3.76,23.25-.48,29.42,7.31a.26.26,0,0,0,.31.07.27.27,0,0,0,.14-.28C64.2,188.66,60.7,183.71,54.94,181.76Z"/><path class="cls-3" d="M81.33,162.47a.26.26,0,0,1-.25.21c-12.91.14-24.75,3.27-34,11.52,8-5.56,22.94-7.51,31.53-3.62a.25.25,0,0,1,.14.29.26.26,0,0,1-.26.19c-10.68-.29-19.27,3-26,9,6.87.42,12.57,4.74,12.56,9.84a.26.26,0,0,1-.49.1c-1.12-2.48-4.75-3.78-8.58-2.88-4.18,1-7,4.19-6.3,7.17.47,2,2.44,3.4,5,3.79a.25.25,0,0,1,0,.5,17.53,17.53,0,0,1-3.32,0c-6.49-.62-11.51-4.6-12-9.18-4.71.55-8.88,3.16-10.38,6.77a.25.25,0,0,1-.49-.07c-.37-4.75,1.26-7.84,5-10.86a21.8,21.8,0,0,1-17.25-.53.27.27,0,0,1-.14-.29.26.26,0,0,1,.24-.2,16.24,16.24,0,0,0,11.73-5.07C9.82,184.25-5,172.92.12,156.07a.26.26,0,0,1,.27-.18.26.26,0,0,1,.23.23c.92,9.71,7.7,16.11,17.86,17.07A17.45,17.45,0,0,1,6.92,157.66a.27.27,0,0,1,.19-.26.26.26,0,0,1,.3.14,16.75,16.75,0,0,0,14.16,9.81c-6.34-2.58-10.4-8.6-11.57-16.42a.25.25,0,0,1,.17-.28.25.25,0,0,1,.3.13c3.87,7.58,12.16,12.79,22.45,8.81,10.62-4.11,15.27-16.39,16.3-25a.28.28,0,0,1,.24-.23.26.26,0,0,1,.26.2c3.72,15.69-3.58,31.95-16.63,38.84,7.09-2,13.44-6.26,17-13.35,8.3-1,14-3.87,16.86-9.24a.26.26,0,0,1,.3-.13.27.27,0,0,1,.18.27c-.18,2.11-.94,6.33-4.08,8.27,7,0,12.51.89,17.8,3A.26.26,0,0,1,81.33,162.47ZM51.84,109a.26.26,0,0,0,.32,0,.27.27,0,0,0,0-.32c-1.62-2.79-.14-6.81,3-6.81,5.72,0,8.47,10.77,7.6,20.59-2.16-5.75-4-8-7.35-10.79a.24.24,0,0,0-.32,0,.23.23,0,0,0-.06.31A46.61,46.61,0,0,1,61,136.05c-1.46-6-3.19-9.32-8.12-14.38a.26.26,0,0,0-.33,0,.25.25,0,0,0-.09.31,44.22,44.22,0,0,1,1,34.26.28.28,0,0,0,.06.29.28.28,0,0,0,.29,0C59,154,62,152.31,66.52,146.15c-1.36-7.4-.23-11.05,3.17-17.19-3.94,9.91-1.84,23.89,8.19,29.58a.24.24,0,0,0,.32-.06.25.25,0,0,0,0-.33A17.93,17.93,0,0,1,74,140.22c-1.53,10.39,7.6,19.12,17.78,19.12,9.6,0,16.15-7.51,15.61-14.94s-5.44-11-9.67-12.5a.25.25,0,0,0-.3.1.26.26,0,0,0,0,.31c5.61,5.7,6.38,16.5-3.58,19.76,5.86-5,3.69-16.82-5.69-17.72a.24.24,0,0,0-.26.17.26.26,0,0,0,.1.3,8,8,0,0,1,3.68,6.57c0,4.67-3.42,6.51-5.68,6.51-3.42,0-6.26-3.25-6.26-8.18,0-5.84,5.26-10.68,12-11.43s12.78,2.15,15.75,6.46a.26.26,0,0,0,.32.08.25.25,0,0,0,.14-.29A17.15,17.15,0,0,0,81.13,125c6.61-7.5,17-7.6,25.72.09a.26.26,0,0,0,.32,0,.27.27,0,0,0,.08-.32c-2.67-5.4-9.26-11.81-18.61-10.88-8.56.86-13.52,9-14.52,15.69-.56-8.52,1.39-14.53,8.75-20.14a.26.26,0,0,0-.22-.45c-6.79,2-12.23,5.43-15.05,12.54,0-6.16,2.14-12.37,7.52-16.51a.24.24,0,0,0,.07-.31.24.24,0,0,0-.29-.13c-3.45,1-6.17,2.49-8.14,5.18-1.31-11.1-6.52-17.69-12.52-17.69-4.13,0-7.21,3-7.21,7.87A11.36,11.36,0,0,0,51.84,109Zm-99.23,91.62c3.17,3.91,9.54,5.39,16.44,4a22.71,22.71,0,0,0,1.61,11.49.26.26,0,0,0,.29.13.24.24,0,0,0,.19-.26c-.37-8.76,4.62-15.84,13.45-18.9-6.91,4.75-8.92,14.19-5.64,19.06a.25.25,0,0,0,.31.09.25.25,0,0,0,.15-.28c-.37-2.06.61-4.68,2.72-6.72,2.9-2.82,6.85-3.45,8.81-1.43s1.19,6-1.71,8.76a9.58,9.58,0,0,1-3.45,2.18.28.28,0,0,0-.17.28.26.26,0,0,0,.23.22c6.39.55,10.77-3.26,13.52-7.88s7.57-8.41,13.21-7.67a.26.26,0,0,0,.27-.17.24.24,0,0,0-.11-.3,11,11,0,0,0-9.86-1.05c5.8-4.91,14.05-7.74,21.84-5.23a.27.27,0,0,0,.29-.1.27.27,0,0,0,0-.31c-5.91-6.57-17.69-6.7-25.11-1.37,3-4.32,7.06-7.49,14.29-8.48a.28.28,0,0,0,.22-.23.26.26,0,0,0-.17-.26c-8.29-3.08-16.6,0-23.44,8.21a26.34,26.34,0,0,1,14.77-14,.26.26,0,0,0,.16-.28.25.25,0,0,0-.25-.21c-3.94-.08-7.48.86-12.26,3.57,3.51-5.69,2.74-15.64-2.37-22.26a.27.27,0,0,0-.3-.08.26.26,0,0,0-.15.28c1.18,7.2-1.3,15.33-5.61,19.64a18.18,18.18,0,0,0-5.9-19.64.26.26,0,0,0-.25-.05.27.27,0,0,0-.17.2c-1.23,9.42-11.77,19-20.6,19.78a.26.26,0,0,0-.23.24.26.26,0,0,0,.2.26,20.83,20.83,0,0,0,12.39-1A21.76,21.76,0,0,1-39.36,187a.26.26,0,0,0-.17.28.25.25,0,0,0,.23.22A20.37,20.37,0,0,0-26.57,184,31.44,31.44,0,0,1-46,197.51a.25.25,0,0,0-.19.26A.27.27,0,0,0-46,198c11.92,1.3,21.75-3.32,28.22-11.92-1.64,4.9-6.36,9.76-12.94,12.62-5.85,2.54-11.85,2.95-16.42,1.51a.27.27,0,0,0-.29.1A.25.25,0,0,0-47.39,200.62ZM5.52,125.05c-4.81,10.49-4.47,18.68-.6,29.05a.26.26,0,0,0,.5-.1c-.62-12.62,2.82-21.65,10.3-27.8-8.25,9.85-4.36,29.56,8.82,29.56,9.58,0,17.51-8,19.45-17.53a.26.26,0,0,0-.15-.29.25.25,0,0,0-.31.11c-2.85,4.76-7.41,7.85-12.46,7.85-8.14,0-10.54-6.46-10.54-11,0-6.18,4.92-11.34,8.71-11.34a4.94,4.94,0,0,1,5,4.93,8.88,8.88,0,0,1-6.38,8.16.25.25,0,0,0-.18.28.26.26,0,0,0,.25.22,10.48,10.48,0,0,0,9.63-5.57A17.4,17.4,0,0,1,37,139.3a.25.25,0,0,0,.13.3.24.24,0,0,0,.31-.07c7.36-9.39,3.84-25.62-2-32.35,5.53,4,10.42,12.63,10.34,24.39a.26.26,0,0,0,.21.25.25.25,0,0,0,.28-.15c4.11-10.26,1.93-29.25-9.28-39.86a20.19,20.19,0,0,1,9.12.7.26.26,0,0,0,.3-.12.26.26,0,0,0,0-.32c-4.1-3.45-9.82-4.54-15.27-4.54,4.7,5.5,3.14,16.55-4.35,16.55-5.35,0-7.78-8.3-3.65-12.78a.24.24,0,0,0,0-.31.24.24,0,0,0-.29-.1c-4.78,1.65-10,5.79-10,11,0,5,4.81,9.39,11.8,9-8.82,2.5-18-.27-22.88-6.26a.25.25,0,0,0-.44.23c2.79,10.71,12,15.2,23.44,13.7-9.28,3.76-23.25.49-29.43-7.31a.25.25,0,0,0-.3-.07.24.24,0,0,0-.14.28C-3.73,118.15-.24,123.09,5.52,125.05Z"/><path class="cls-2" d="M87.47,34.69a.27.27,0,0,1,.25-.2c12.91-.14,24.75-3.27,34-11.52-8,5.56-22.94,7.51-31.52,3.62A.26.26,0,0,1,90,26.3a.25.25,0,0,1,.26-.19c10.68.29,19.28-3,26-9-6.87-.42-12.57-4.74-12.55-9.84a.26.26,0,0,1,.2-.25.24.24,0,0,1,.28.14c1.12,2.49,4.75,3.78,8.58,2.88,4.18-1,7-4.19,6.3-7.16-.47-2-2.43-3.41-4.95-3.79a.26.26,0,0,1-.22-.26.27.27,0,0,1,.23-.24,17.53,17.53,0,0,1,3.32,0c6.49.62,11.52,4.6,12,9.18,4.71-.55,8.89-3.16,10.38-6.78a.26.26,0,0,1,.49.08c.37,4.75-1.26,7.84-5,10.86a21.8,21.8,0,0,1,17.25.53.26.26,0,0,1,.15.28.28.28,0,0,1-.24.21,16.26,16.26,0,0,0-11.74,5.07c18.26-5.14,33.09,6.2,28,23.05a.26.26,0,0,1-.27.18.26.26,0,0,1-.23-.23c-.91-9.71-7.7-16.12-17.86-17.08a17.47,17.47,0,0,1,11.56,15.54.25.25,0,0,1-.19.26.27.27,0,0,1-.3-.14,16.72,16.72,0,0,0-14.16-9.81c6.34,2.58,10.4,8.6,11.57,16.42a.25.25,0,0,1-.17.28.25.25,0,0,1-.3-.13c-3.87-7.58-12.16-12.79-22.45-8.81-10.62,4.11-15.27,16.39-16.3,25a.27.27,0,0,1-.24.22.25.25,0,0,1-.26-.19C115.36,47,122.66,30.7,135.72,23.81c-7.1,2-13.44,6.26-17,13.35-8.3,1-14,3.86-16.86,9.24a.25.25,0,0,1-.29.13.27.27,0,0,1-.19-.27c.19-2.11.94-6.33,4.08-8.27-7,0-12.51-.89-17.8-3A.28.28,0,0,1,87.47,34.69ZM117,88.17a.24.24,0,0,0-.31,0,.25.25,0,0,0-.05.31c1.62,2.8.14,6.82-3,6.82-5.72,0-8.47-10.77-7.6-20.6,2.17,5.76,4,8.06,7.35,10.8a.24.24,0,0,0,.32,0,.26.26,0,0,0,.07-.32,46.5,46.5,0,0,1-5.9-24.08c1.46,6,3.19,9.32,8.13,14.38a.24.24,0,0,0,.32,0,.25.25,0,0,0,.09-.31,44.24,44.24,0,0,1-1-34.27.24.24,0,0,0-.06-.28.26.26,0,0,0-.29,0c-5.2,2.55-8.26,4.23-12.75,10.39,1.36,7.4.23,11-3.17,17.19,3.94-9.91,1.84-23.89-8.19-29.59a.25.25,0,0,0-.32.07.26.26,0,0,0,0,.33A17.92,17.92,0,0,1,94.77,57C96.3,46.56,87.17,37.83,77,37.83c-9.6,0-16.15,7.51-15.61,14.94s5.44,11,9.67,12.5a.25.25,0,0,0,.3-.1.26.26,0,0,0,0-.32c-5.61-5.69-6.38-16.49,3.58-19.76C69,50.15,71.21,61.92,80.59,62.82a.26.26,0,0,0,.27-.17.27.27,0,0,0-.11-.3,8,8,0,0,1-3.68-6.57c0-4.68,3.43-6.51,5.68-6.51,3.42,0,6.26,3.25,6.26,8.18,0,5.84-5.26,10.68-12,11.43s-12.78-2.15-15.75-6.46a.25.25,0,0,0-.31-.09.26.26,0,0,0-.14.3,17.14,17.14,0,0,0,26.88,9.51c-6.61,7.5-17,7.6-25.72-.09a.26.26,0,0,0-.32,0,.24.24,0,0,0-.07.31c2.66,5.41,9.25,11.82,18.6,10.89,8.56-.86,13.52-9,14.53-15.69.55,8.52-1.4,14.53-8.76,20.14a.25.25,0,0,0-.07.32.26.26,0,0,0,.3.13c6.78-2,12.23-5.43,15-12.55,0,6.16-2.14,12.38-7.53,16.51a.26.26,0,0,0,.22.45c3.46-1,6.17-2.49,8.14-5.19,1.31,11.1,6.52,17.7,12.53,17.7,4.12,0,7.2-3,7.2-7.88A11.35,11.35,0,0,0,117,88.17ZM216.19-3.45c-3.17-3.91-9.54-5.4-16.44-4a22.71,22.71,0,0,0-1.61-11.49.26.26,0,0,0-.29-.14.27.27,0,0,0-.19.26C198-10,193-3,184.21.1c6.91-4.75,8.93-14.19,5.64-19.06a.27.27,0,0,0-.31-.1.26.26,0,0,0-.15.28c.37,2.06-.61,4.69-2.72,6.73-2.9,2.81-6.84,3.45-8.81,1.43s-1.19-6,1.71-8.76A9.75,9.75,0,0,1,183-21.57a.26.26,0,0,0,.17-.27.26.26,0,0,0-.23-.22c-6.39-.55-10.77,3.25-13.52,7.88s-7.57,8.41-13.21,7.67a.24.24,0,0,0-.27.17.24.24,0,0,0,.11.3,11.05,11.05,0,0,0,9.86,1C160.14-.08,151.88,2.75,144.09.24a.25.25,0,0,0-.29.1.26.26,0,0,0,0,.31c5.9,6.56,17.69,6.69,25.11,1.37-3,4.32-7.07,7.49-14.3,8.48a.28.28,0,0,0-.22.22.26.26,0,0,0,.17.27c8.29,3.08,16.6-.05,23.44-8.22a26.34,26.34,0,0,1-14.76,14,.25.25,0,0,0-.17.28.26.26,0,0,0,.25.21c3.94.08,7.48-.86,12.26-3.57C172.1,19.4,172.87,29.35,178,36a.25.25,0,0,0,.3.07.24.24,0,0,0,.15-.27c-1.18-7.2,1.3-15.33,5.61-19.64a18.18,18.18,0,0,0,5.9,19.64.26.26,0,0,0,.25,0,.3.3,0,0,0,.17-.21c1.23-9.42,11.77-19,20.6-19.77a.26.26,0,0,0,.23-.24.25.25,0,0,0-.2-.26,20.83,20.83,0,0,0-12.39,1,21.78,21.78,0,0,1,9.56-6.25.25.25,0,0,0-.06-.49,20.37,20.37,0,0,0-12.73,3.54A31.4,31.4,0,0,1,214.8-.34.25.25,0,0,0,215-.6a.24.24,0,0,0-.22-.24C202.85-2.14,193,2.48,186.55,11.08c1.64-4.9,6.36-9.76,12.94-12.62,5.85-2.55,11.85-2.95,16.42-1.51a.27.27,0,0,0,.29-.1A.25.25,0,0,0,216.19-3.45ZM163.28,72.12c4.81-10.49,4.47-18.69.6-29.06a.28.28,0,0,0-.29-.16.27.27,0,0,0-.21.27c.63,12.62-2.82,21.65-10.29,27.8,8.25-9.85,4.35-29.56-8.83-29.56-9.58,0-17.51,8-19.45,17.53a.24.24,0,0,0,.16.28.26.26,0,0,0,.31-.1c2.84-4.76,7.4-7.85,12.45-7.85,8.14,0,10.54,6.46,10.54,11,0,6.19-4.92,11.35-8.7,11.35a4.94,4.94,0,0,1-5-4.93,8.85,8.85,0,0,1,6.37-8.16.26.26,0,0,0,.18-.28.25.25,0,0,0-.25-.22,10.46,10.46,0,0,0-9.63,5.57,17.45,17.45,0,0,1,.64-7.73.24.24,0,0,0-.12-.29.26.26,0,0,0-.32.06c-7.36,9.4-3.84,25.63,2,32.36C127.85,86,123,77.36,123,65.6a.25.25,0,0,0-.21-.25.24.24,0,0,0-.28.15c-4.11,10.25-1.93,29.25,9.28,39.85a20,20,0,0,1-9.12-.69.26.26,0,0,0-.3.12.25.25,0,0,0,.06.32c4.09,3.45,9.81,4.54,15.26,4.54-4.69-5.5-3.13-16.56,4.36-16.56,5.35,0,7.77,8.3,3.64,12.79a.27.27,0,0,0,0,.31.26.26,0,0,0,.3.1c4.78-1.66,9.94-5.79,9.94-11,0-5-4.81-9.39-11.8-9.05,8.82-2.5,18,.27,22.88,6.25a.25.25,0,0,0,.31.07.24.24,0,0,0,.13-.29c-2.79-10.72-12-15.2-23.43-13.71,9.28-3.75,23.25-.48,29.42,7.31a.24.24,0,0,0,.3.08.26.26,0,0,0,.15-.28C172.53,79,169,74.07,163.28,72.12Z"/><path class="cls-3" d="M189.67,52.83a.27.27,0,0,1-.25.21c-12.91.13-24.75,3.27-34,11.51,8-5.55,22.94-7.51,31.53-3.62a.29.29,0,0,1,.14.29.27.27,0,0,1-.26.2c-10.68-.29-19.28,3-26,9,6.87.43,12.57,4.74,12.55,9.85a.26.26,0,0,1-.2.25.26.26,0,0,1-.28-.15c-1.12-2.49-4.75-3.78-8.58-2.88-4.18,1-7,4.19-6.3,7.17.47,2,2.43,3.4,5,3.79a.24.24,0,0,1,.22.25.27.27,0,0,1-.23.25,18.4,18.4,0,0,1-3.32,0c-6.49-.62-11.51-4.6-11.95-9.18-4.71.54-8.88,3.16-10.38,6.77a.26.26,0,0,1-.27.16.27.27,0,0,1-.22-.24c-.37-4.75,1.26-7.83,5-10.85A21.76,21.76,0,0,1,124.59,75a.24.24,0,0,1-.14-.28.25.25,0,0,1,.24-.2,16.3,16.3,0,0,0,11.73-5.07c-18.26,5.13-33.09-6.2-28-23.05a.26.26,0,0,1,.27-.18.25.25,0,0,1,.23.23c.91,9.71,7.7,16.11,17.86,17.07A17.45,17.45,0,0,1,115.26,48a.27.27,0,0,1,.19-.27.28.28,0,0,1,.3.15,16.74,16.74,0,0,0,14.16,9.81c-6.34-2.58-10.4-8.6-11.57-16.42a.25.25,0,0,1,.17-.28.24.24,0,0,1,.3.13C122.68,48.72,131,53.93,141.26,50c10.62-4.11,15.27-16.39,16.3-25a.25.25,0,0,1,.5,0c3.72,15.69-3.58,32-16.63,38.84,7.09-2,13.44-6.26,17-13.36,8.3-1,14-3.86,16.86-9.24a.26.26,0,0,1,.29-.12.26.26,0,0,1,.19.26c-.19,2.11-.95,6.33-4.08,8.28a45.77,45.77,0,0,1,17.8,3A.26.26,0,0,1,189.67,52.83ZM160.18-.64a.26.26,0,0,0,.32,0,.27.27,0,0,0,0-.32c-1.62-2.79-.14-6.81,3.05-6.81,5.72,0,8.47,10.77,7.6,20.59-2.16-5.75-4-8-7.35-10.79a.24.24,0,0,0-.32,0,.23.23,0,0,0-.06.31,46.61,46.61,0,0,1,5.89,24.09c-1.46-6-3.19-9.32-8.13-14.38a.23.23,0,0,0-.32,0,.25.25,0,0,0-.09.31,44.22,44.22,0,0,1,.95,34.26.26.26,0,0,0,.35.33c5.2-2.55,8.26-4.23,12.75-10.39-1.36-7.4-.23-11,3.17-17.2-3.94,9.92-1.84,23.9,8.19,29.59a.24.24,0,0,0,.32-.06.26.26,0,0,0,0-.33,17.93,17.93,0,0,1-4.16-17.93C180.84,41,190,49.69,200.15,49.69c9.6,0,16.15-7.5,15.61-14.94s-5.44-11-9.67-12.49a.25.25,0,0,0-.3.1.24.24,0,0,0,0,.31c5.61,5.7,6.38,16.5-3.58,19.76,5.86-5,3.69-16.83-5.69-17.72a.26.26,0,0,0-.27.17.26.26,0,0,0,.11.29,8.05,8.05,0,0,1,3.68,6.58c0,4.67-3.43,6.51-5.68,6.51-3.42,0-6.26-3.26-6.26-8.18,0-5.84,5.26-10.68,12-11.43s12.78,2.15,15.75,6.45a.25.25,0,0,0,.45-.2,17.13,17.13,0,0,0-26.88-9.51c6.61-7.5,17-7.61,25.72.09a.26.26,0,0,0,.32,0,.25.25,0,0,0,.07-.32c-2.66-5.4-9.25-11.82-18.6-10.88-8.56.85-13.52,9-14.53,15.69-.55-8.52,1.4-14.54,8.76-20.14a.26.26,0,0,0,.07-.32.25.25,0,0,0-.3-.13c-6.78,2-12.23,5.42-15,12.54,0-6.16,2.14-12.37,7.53-16.51a.24.24,0,0,0,.07-.31.24.24,0,0,0-.29-.13c-3.46,1-6.17,2.49-8.14,5.18-1.31-11.1-6.52-17.69-12.53-17.69-4.12,0-7.2,3-7.2,7.87A11.38,11.38,0,0,0,160.18-.64ZM61,91c3.17,3.9,9.54,5.39,16.43,4A22.64,22.64,0,0,0,79,106.45a.25.25,0,0,0,.29.14.27.27,0,0,0,.19-.26c-.37-8.76,4.62-15.84,13.45-18.91C86,92.18,84,101.62,87.29,106.49a.25.25,0,0,0,.31.09.25.25,0,0,0,.15-.28c-.37-2.06.61-4.68,2.71-6.72,2.91-2.82,6.85-3.46,8.82-1.43s1.19,5.94-1.71,8.76a9.72,9.72,0,0,1-3.45,2.18.27.27,0,0,0-.17.27.25.25,0,0,0,.23.22c6.39.56,10.77-3.25,13.52-7.87s7.57-8.41,13.21-7.67a.26.26,0,0,0,.27-.17.24.24,0,0,0-.11-.3,11,11,0,0,0-9.86-1.06c5.79-4.9,14.05-7.74,21.84-5.22a.26.26,0,0,0,.29-.11.24.24,0,0,0,0-.3c-5.9-6.57-17.69-6.7-25.1-1.38,3-4.31,7.06-7.48,14.29-8.47a.28.28,0,0,0,.22-.23.26.26,0,0,0-.17-.26c-8.29-3.08-16.6,0-23.44,8.21a26.32,26.32,0,0,1,14.76-14,.25.25,0,0,0,.17-.28.26.26,0,0,0-.25-.21c-3.94-.08-7.48.86-12.26,3.57,3.51-5.69,2.74-15.64-2.37-22.26a.27.27,0,0,0-.3-.08.26.26,0,0,0-.15.28c1.18,7.2-1.3,15.32-5.61,19.64a18.2,18.2,0,0,0-5.9-19.65.25.25,0,0,0-.25,0,.27.27,0,0,0-.17.2c-1.23,9.42-11.77,19-20.6,19.78a.26.26,0,0,0-.23.23.26.26,0,0,0,.2.27,20.83,20.83,0,0,0,12.39-1A21.76,21.76,0,0,1,69,77.4a.25.25,0,0,0-.17.27.25.25,0,0,0,.23.23,20.45,20.45,0,0,0,12.73-3.54A31.44,31.44,0,0,1,62.34,87.87a.25.25,0,0,0-.19.26.26.26,0,0,0,.22.24c11.92,1.3,21.75-3.32,28.22-11.92C89,81.35,84.23,86.2,77.65,89.07,71.8,91.61,65.8,92,61.23,90.58a.24.24,0,0,0-.29.1A.26.26,0,0,0,61,91Zm52.91-75.57c-4.81,10.48-4.47,18.68-.6,29.05a.26.26,0,0,0,.5-.1c-.63-12.62,2.82-21.65,10.29-27.81-8.25,9.86-4.35,29.56,8.83,29.56,9.58,0,17.51-8,19.45-17.52a.25.25,0,0,0-.16-.29.24.24,0,0,0-.3.11c-2.85,4.76-7.41,7.85-12.46,7.85-8.14,0-10.54-6.47-10.54-11,0-6.18,4.92-11.34,8.7-11.34a4.94,4.94,0,0,1,5.05,4.92A8.88,8.88,0,0,1,136.24,27a.25.25,0,0,0-.18.28.26.26,0,0,0,.25.22,10.48,10.48,0,0,0,9.63-5.57,17.42,17.42,0,0,1-.64,7.72.25.25,0,0,0,.12.3.25.25,0,0,0,.32-.07c7.36-9.39,3.84-25.62-2-32.36,5.53,4,10.42,12.64,10.34,24.4a.26.26,0,0,0,.21.25.25.25,0,0,0,.28-.16c4.11-10.25,1.93-29.24-9.28-39.85a20.18,20.18,0,0,1,9.12.69.25.25,0,0,0,.3-.11.25.25,0,0,0-.06-.32c-4.09-3.46-9.81-4.54-15.26-4.54,4.7,5.5,3.13,16.55-4.36,16.55-5.34,0-7.77-8.3-3.64-12.78a.27.27,0,0,0,0-.31.25.25,0,0,0-.3-.1c-4.77,1.65-9.94,5.79-9.94,11,0,5.05,4.81,9.4,11.8,9.06-8.82,2.5-18.05-.27-22.88-6.26A.25.25,0,0,0,109.8-5a.24.24,0,0,0-.13.29c2.79,10.71,12,15.2,23.44,13.7-9.29,3.76-23.25.48-29.43-7.31a.26.26,0,0,0-.31-.07.27.27,0,0,0-.14.28C104.61,8.51,108.1,13.45,113.86,15.41Z"/><path class="cls-2" d="M-20.86,34.69a.25.25,0,0,1,.24-.2c12.91-.14,24.76-3.27,34-11.52-8,5.56-22.94,7.51-31.52,3.62a.27.27,0,0,1-.15-.29.25.25,0,0,1,.26-.19c10.68.29,19.28-3,26-9C1.05,16.72-4.65,12.4-4.63,7.3a.26.26,0,0,1,.2-.25.24.24,0,0,1,.28.14C-3,9.68.6,11,4.43,10.07c4.18-1,7-4.19,6.3-7.16C10.26.89,8.3-.5,5.78-.88a.25.25,0,0,1-.21-.26.25.25,0,0,1,.23-.24,17.43,17.43,0,0,1,3.31,0c6.49.62,11.52,4.6,12,9.18C25.77,7.25,30,4.64,31.44,1a.27.27,0,0,1,.28-.15.26.26,0,0,1,.21.23c.38,4.75-1.26,7.84-5,10.86a21.8,21.8,0,0,1,17.25.53.26.26,0,0,1,.15.28.28.28,0,0,1-.24.21,16.22,16.22,0,0,0-11.73,5.07c18.25-5.14,33.08,6.2,28,23.05a.26.26,0,0,1-.27.18.26.26,0,0,1-.23-.23C58.93,31.34,52.14,24.93,42,24A17.47,17.47,0,0,1,53.54,39.51a.25.25,0,0,1-.48.12A16.75,16.75,0,0,0,38.9,29.82c6.33,2.58,10.39,8.6,11.57,16.42a.26.26,0,0,1-.18.28.25.25,0,0,1-.3-.13c-3.87-7.58-12.16-12.79-22.45-8.81-10.61,4.11-15.27,16.39-16.3,25a.27.27,0,0,1-.24.22.25.25,0,0,1-.26-.19C7,47,14.32,30.7,27.38,23.81c-7.1,2-13.44,6.26-17,13.35-8.29,1-14,3.86-16.86,9.24a.25.25,0,0,1-.29.13A.27.27,0,0,1-7,46.26c.19-2.11,1-6.33,4.08-8.27-7,0-12.51-.89-17.8-3A.26.26,0,0,1-20.86,34.69ZM8.62,88.17a.24.24,0,0,0-.31,0,.25.25,0,0,0-.05.31c1.62,2.8.14,6.82-3,6.82-5.72,0-8.47-10.77-7.6-20.6,2.17,5.76,4,8.06,7.35,10.8a.24.24,0,0,0,.32,0,.25.25,0,0,0,.07-.32A46.5,46.5,0,0,1-.55,61.12c1.46,6,3.2,9.32,8.13,14.38a.24.24,0,0,0,.32,0A.25.25,0,0,0,8,75.22,44.29,44.29,0,0,1,7,41,.24.24,0,0,0,7,40.67a.26.26,0,0,0-.29,0C1.49,43.18-1.57,44.86-6.06,51c1.36,7.4.23,11-3.17,17.19,3.94-9.91,1.84-23.89-8.19-29.59a.25.25,0,0,0-.32.07.26.26,0,0,0,0,.33A17.87,17.87,0,0,1-13.57,57C-12,46.56-21.16,37.83-31.35,37.83c-9.6,0-16.15,7.51-15.61,14.94s5.45,11,9.67,12.5a.25.25,0,0,0,.3-.1.26.26,0,0,0,0-.32c-5.61-5.69-6.38-16.49,3.58-19.76-5.86,5.06-3.69,16.83,5.69,17.73a.26.26,0,0,0,.27-.17.26.26,0,0,0-.11-.3,8,8,0,0,1-3.67-6.57c0-4.68,3.42-6.51,5.67-6.51,3.42,0,6.26,3.25,6.26,8.18,0,5.84-5.26,10.68-12,11.43s-12.78-2.15-15.75-6.46a.25.25,0,0,0-.31-.09.27.27,0,0,0-.14.3,17.15,17.15,0,0,0,26.89,9.51c-6.62,7.5-17,7.6-25.73-.09a.26.26,0,0,0-.32,0,.24.24,0,0,0-.07.31c2.66,5.41,9.25,11.82,18.6,10.89,8.56-.86,13.52-9,14.53-15.69.55,8.52-1.4,14.53-8.76,20.14a.28.28,0,0,0-.07.32.26.26,0,0,0,.3.13c6.78-2,12.23-5.43,15.05-12.55,0,6.16-2.14,12.38-7.53,16.51a.25.25,0,0,0-.07.32.25.25,0,0,0,.29.13c3.46-1,6.18-2.49,8.14-5.19C-5,98.46.22,105.06,6.23,105.06c4.12,0,7.2-3,7.2-7.88A11.35,11.35,0,0,0,8.62,88.17ZM107.85-3.45c-3.16-3.91-9.54-5.4-16.43-4a22.82,22.82,0,0,0-1.61-11.49.28.28,0,0,0-.3-.14.27.27,0,0,0-.19.26C89.7-10,84.7-3,75.87.1,82.78-4.65,84.8-14.09,81.51-19a.27.27,0,0,0-.31-.1.26.26,0,0,0-.15.28c.37,2.06-.61,4.69-2.71,6.73-2.91,2.81-6.85,3.45-8.81,1.43s-1.2-6,1.7-8.76a9.75,9.75,0,0,1,3.45-2.19.25.25,0,0,0,.17-.27.26.26,0,0,0-.23-.22c-6.39-.55-10.77,3.25-13.52,7.88S53.53-5.77,47.89-6.51a.24.24,0,0,0-.27.17.26.26,0,0,0,.11.3,11.05,11.05,0,0,0,9.86,1C51.8-.08,43.55,2.75,35.75.24a.25.25,0,0,0-.29.1.26.26,0,0,0,0,.31C41.4,7.21,53.18,7.34,60.6,2c-3,4.32-7.07,7.49-14.3,8.48a.25.25,0,0,0-.21.22.24.24,0,0,0,.16.27c8.29,3.08,16.6-.05,23.44-8.22a26.34,26.34,0,0,1-14.76,14,.25.25,0,0,0-.17.28.26.26,0,0,0,.25.21c3.94.08,7.49-.86,12.26-3.57C63.77,19.4,64.53,29.35,69.64,36A.26.26,0,0,0,70,36a.25.25,0,0,0,.14-.27c-1.17-7.2,1.3-15.33,5.61-19.64a18.18,18.18,0,0,0,5.9,19.64.27.27,0,0,0,.26,0,.31.31,0,0,0,.16-.21c1.23-9.42,11.77-19,20.6-19.77a.25.25,0,0,0,.23-.24.24.24,0,0,0-.2-.26,20.83,20.83,0,0,0-12.39,1,21.78,21.78,0,0,1,9.56-6.25.25.25,0,0,0,.18-.27.27.27,0,0,0-.24-.22A20.39,20.39,0,0,0,87,13.17,31.4,31.4,0,0,1,106.46-.34a.27.27,0,0,0,.2-.26.26.26,0,0,0-.23-.24C94.51-2.14,84.68,2.48,78.21,11.08c1.65-4.9,6.36-9.76,12.94-12.62C97-4.09,103-4.49,107.58-3a.26.26,0,0,0,.28-.1A.25.25,0,0,0,107.85-3.45ZM54.94,72.12c4.81-10.49,4.47-18.69.6-29.06a.28.28,0,0,0-.29-.16.26.26,0,0,0-.2.27c.62,12.62-2.83,21.65-10.3,27.8C53,61.12,49.1,41.41,35.92,41.41c-9.58,0-17.51,8-19.45,17.53a.25.25,0,0,0,.16.28.26.26,0,0,0,.31-.1c2.84-4.76,7.41-7.85,12.45-7.85,8.14,0,10.54,6.46,10.54,11,0,6.19-4.92,11.35-8.7,11.35a4.94,4.94,0,0,1-5-4.93,8.85,8.85,0,0,1,6.37-8.16.26.26,0,0,0,.18-.28.25.25,0,0,0-.25-.22,10.47,10.47,0,0,0-9.63,5.57,17.45,17.45,0,0,1,.64-7.73.23.23,0,0,0-.12-.29.26.26,0,0,0-.32.06C15.71,67,19.23,83.26,25,90,19.51,86,14.62,77.36,14.7,65.6a.25.25,0,0,0-.2-.25.26.26,0,0,0-.29.15c-4.11,10.25-1.93,29.25,9.28,39.85a20,20,0,0,1-9.12-.69.26.26,0,0,0-.3.12.25.25,0,0,0,.06.32c4.09,3.45,9.81,4.54,15.26,4.54-4.69-5.5-3.13-16.56,4.36-16.56,5.35,0,7.77,8.3,3.65,12.79a.26.26,0,0,0,0,.31.27.27,0,0,0,.3.1c4.78-1.66,9.94-5.79,9.94-11,0-5-4.81-9.39-11.8-9.05,8.82-2.5,18,.27,22.88,6.25a.26.26,0,0,0,.45-.22c-2.8-10.72-12-15.2-23.44-13.71C45,74.78,59,78.05,65.12,85.84a.25.25,0,0,0,.31.08.27.27,0,0,0,.14-.28C64.2,79,60.7,74.07,54.94,72.12Z"/><path class="cls-3" d="M81.33,52.83a.26.26,0,0,1-.25.21c-12.91.13-24.75,3.27-34,11.51,8-5.55,22.94-7.51,31.53-3.62a.26.26,0,0,1-.12.49c-10.68-.29-19.27,3-26,9,6.87.43,12.57,4.74,12.56,9.85a.26.26,0,0,1-.49.1c-1.12-2.49-4.75-3.78-8.58-2.88-4.18,1-7,4.19-6.3,7.17.47,2,2.44,3.4,5,3.79a.24.24,0,0,1,.22.25.26.26,0,0,1-.23.25,18.4,18.4,0,0,1-3.32,0c-6.49-.62-11.51-4.6-12-9.18-4.71.54-8.88,3.16-10.38,6.77a.26.26,0,0,1-.27.16.27.27,0,0,1-.22-.24c-.37-4.75,1.26-7.83,5-10.85A21.76,21.76,0,0,1,16.25,75a.25.25,0,0,1,.1-.48,16.28,16.28,0,0,0,11.73-5.07C9.82,74.61-5,63.28.12,46.43a.26.26,0,0,1,.27-.18.25.25,0,0,1,.23.23c.92,9.71,7.7,16.11,17.86,17.07A17.45,17.45,0,0,1,6.92,48a.29.29,0,0,1,.19-.27.28.28,0,0,1,.3.15,16.75,16.75,0,0,0,14.16,9.81c-6.34-2.58-10.4-8.6-11.57-16.42a.25.25,0,0,1,.17-.28.24.24,0,0,1,.3.13C14.34,48.72,22.63,53.93,32.92,50c10.62-4.11,15.27-16.39,16.3-25a.27.27,0,0,1,.24-.23.26.26,0,0,1,.26.2c3.72,15.69-3.58,32-16.63,38.84,7.09-2,13.44-6.26,17-13.36,8.3-1,14-3.86,16.86-9.24a.27.27,0,0,1,.3-.12.26.26,0,0,1,.18.26c-.18,2.11-.94,6.33-4.08,8.28a45.77,45.77,0,0,1,17.8,3A.26.26,0,0,1,81.33,52.83ZM51.84-.64a.26.26,0,0,0,.32,0,.27.27,0,0,0,0-.32c-1.62-2.79-.14-6.81,3-6.81C61-7.79,63.72,3,62.85,12.8c-2.16-5.75-4-8-7.35-10.79a.24.24,0,0,0-.32,0,.23.23,0,0,0-.06.31A46.61,46.61,0,0,1,61,26.41c-1.46-6-3.19-9.32-8.12-14.38a.25.25,0,0,0-.33,0,.25.25,0,0,0-.09.31,44.22,44.22,0,0,1,1,34.26.26.26,0,0,0,.35.33C59,44.35,62,42.67,66.52,36.51c-1.36-7.4-.23-11,3.17-17.2-3.94,9.92-1.84,23.9,8.19,29.59a.24.24,0,0,0,.32-.06.25.25,0,0,0,0-.33A17.93,17.93,0,0,1,74,30.58C72.5,41,81.63,49.69,91.81,49.69c9.6,0,16.15-7.5,15.61-14.94s-5.44-11-9.67-12.49a.25.25,0,0,0-.3.1.26.26,0,0,0,0,.31c5.61,5.7,6.38,16.5-3.58,19.76,5.86-5,3.69-16.83-5.69-17.72a.24.24,0,0,0-.26.17.24.24,0,0,0,.1.29,8.05,8.05,0,0,1,3.68,6.58c0,4.67-3.42,6.51-5.68,6.51-3.42,0-6.26-3.26-6.26-8.18,0-5.84,5.26-10.68,12-11.43s12.78,2.15,15.75,6.45a.25.25,0,0,0,.46-.2,17.14,17.14,0,0,0-26.89-9.51c6.61-7.5,17-7.61,25.72.09a.26.26,0,0,0,.32,0,.27.27,0,0,0,.08-.32C104.58,9.77,98,3.35,88.64,4.29c-8.56.85-13.52,9-14.52,15.69-.56-8.52,1.39-14.54,8.75-20.14a.25.25,0,0,0,.07-.32.24.24,0,0,0-.29-.13c-6.79,2-12.23,5.42-15.05,12.54,0-6.16,2.14-12.37,7.52-16.51a.24.24,0,0,0,.07-.31A.23.23,0,0,0,74.9-5C71.45-4,68.73-2.53,66.76.16c-1.31-11.1-6.52-17.69-12.52-17.69-4.13,0-7.21,3-7.21,7.87A11.38,11.38,0,0,0,51.84-.64ZM-47.39,91c3.17,3.9,9.54,5.39,16.44,4a22.65,22.65,0,0,0,1.61,11.48.25.25,0,0,0,.29.14.25.25,0,0,0,.19-.26c-.37-8.76,4.62-15.84,13.45-18.91-6.91,4.76-8.92,14.2-5.64,19.07a.25.25,0,0,0,.31.09.25.25,0,0,0,.15-.28c-.37-2.06.61-4.68,2.72-6.72,2.9-2.82,6.85-3.46,8.81-1.43s1.19,5.94-1.71,8.76a9.72,9.72,0,0,1-3.45,2.18.27.27,0,0,0-.17.27.25.25,0,0,0,.23.22c6.39.56,10.77-3.25,13.52-7.87S6.93,93.3,12.57,94a.26.26,0,0,0,.27-.17.24.24,0,0,0-.11-.3,11,11,0,0,0-9.86-1.06c5.8-4.9,14.05-7.74,21.84-5.22a.26.26,0,0,0,.27-.41C19.07,80.31,7.29,80.18-.13,85.5,2.9,81.19,6.93,78,14.16,77a.28.28,0,0,0,.22-.23.26.26,0,0,0-.17-.26c-8.29-3.08-16.6,0-23.44,8.21a26.31,26.31,0,0,1,14.77-14,.26.26,0,0,0,.16-.28.25.25,0,0,0-.25-.21c-3.94-.08-7.48.86-12.26,3.57,3.51-5.69,2.74-15.64-2.37-22.26a.27.27,0,0,0-.3-.08.26.26,0,0,0-.15.28c1.18,7.2-1.3,15.32-5.61,19.64a18.2,18.2,0,0,0-5.9-19.65.25.25,0,0,0-.25,0,.27.27,0,0,0-.17.2c-1.23,9.42-11.77,19-20.6,19.78a.26.26,0,0,0-.23.23.26.26,0,0,0,.2.27,20.83,20.83,0,0,0,12.39-1,21.76,21.76,0,0,1-9.56,6.24.25.25,0,0,0-.17.27.25.25,0,0,0,.23.23,20.43,20.43,0,0,0,12.73-3.54A31.44,31.44,0,0,1-46,87.87a.25.25,0,0,0-.19.26.27.27,0,0,0,.22.24c11.92,1.3,21.75-3.32,28.22-11.92-1.64,4.9-6.36,9.75-12.94,12.62-5.85,2.54-11.85,2.94-16.42,1.51a.24.24,0,0,0-.29.1A.26.26,0,0,0-47.39,91ZM5.52,15.41C.71,25.89,1.05,34.09,4.92,44.46a.26.26,0,0,0,.5-.1C4.8,31.74,8.24,22.71,15.72,16.55c-8.25,9.86-4.36,29.56,8.82,29.56,9.58,0,17.51-8,19.45-17.52a.26.26,0,0,0-.15-.29.25.25,0,0,0-.31.11c-2.85,4.76-7.41,7.85-12.46,7.85-8.14,0-10.54-6.47-10.54-11,0-6.18,4.92-11.34,8.71-11.34a4.94,4.94,0,0,1,5,4.92A8.88,8.88,0,0,1,27.9,27a.25.25,0,0,0-.18.28.26.26,0,0,0,.25.22,10.48,10.48,0,0,0,9.63-5.57A17.42,17.42,0,0,1,37,29.66a.25.25,0,0,0,.13.3.24.24,0,0,0,.31-.07c7.36-9.39,3.84-25.62-2-32.36,5.53,4,10.42,12.64,10.34,24.4a.26.26,0,0,0,.21.25.25.25,0,0,0,.28-.16C50.36,11.77,48.18-7.22,37-17.83a20.18,20.18,0,0,1,9.12.69.25.25,0,0,0,.3-.11.26.26,0,0,0,0-.32c-4.1-3.46-9.82-4.54-15.27-4.54,4.7,5.5,3.14,16.55-4.35,16.55-5.35,0-7.78-8.3-3.65-12.78a.24.24,0,0,0,0-.31.24.24,0,0,0-.29-.1c-4.78,1.65-10,5.79-10,11,0,5.05,4.81,9.4,11.8,9.06-8.82,2.5-18-.27-22.88-6.26A.24.24,0,0,0,1.46-5a.24.24,0,0,0-.13.29C4.12,6,13.29,10.49,24.77,9c-9.28,3.76-23.25.48-29.43-7.31A.25.25,0,0,0-5,1.61a.24.24,0,0,0-.14.28C-3.73,8.51-.24,13.45,5.52,15.41Z"/></pattern></defs><title>資產 23</title><g id="圖層_2" data-name="圖層 2"><g id="圖層_1-2" data-name="圖層 1"><line class="cls-4" x1="219.45" y1="82.92" x2="26.45" y2="97.92"/><path class="cls-5" d="M173.16,321.74s-20.86,36.52-26.08,46.52-15.44,28-17.83,43.69-1.74,18.92,0,21.09,7,6.74,10.22,6.52,6.09-4.13,7.17-6.74,2.18-5.65,2.18-5.65,3,1.81,4.06,1.81,3.91.29,4.78-2.32,0-4.34-1.45-5.21a11,11,0,0,1-2.94-2.21c-.49-.66.28-2.12,1.09-3.59s5.71-9.08,5.71-9.08.87.06,1.08,1.53,4.77,11.83,6,13.49,2.17,1.74,2.17,3.26-2.39,40.94-1.95,44.78-.8,2.76-2.54,3.55A26.11,26.11,0,0,0,153.09,486c-3.55,8.19,8,9.13,8.84,9.42s25.51,1,28.84,0,11.23-3.7,12.32-10.07,4-40.69,4-40.69-.11-1.85,1.68-1.79,22-.22,22-.22A1.58,1.58,0,0,1,232,444c.05,1.09,3.08,39.53,3.37,40.83a14.71,14.71,0,0,0,9.92,9.57c7.32,2.31,31.89,1,31.89,1s7.68-2.1,7.75-6.16-.38-5.74-2.77-8.68-10.76-8.42-10.76-8.42a8.28,8.28,0,0,1-.33-3.48c.11-2.55-1.57-45.54-1.57-45.54s2.39-3.8,3.76-6.56,4.06-9,4.13-10.58,1.13-1.34,1.4-.63,6.74,10.49,7.33,11.14,1.58,1.3.87,2-4.72,3.53-4.89,5.11c0,0-.76,4.4,3.54,4.51s4.45-1.79,4.45-1.79.82-.11,1.09,1.57,4.62,10.6,7.5,11.14,10.7-2.61,12.23-7.12,1.46-13,.49-17.06-11.91-39.46-23.86-57.06-15.65-28.7-18-33.37l-1.31-2.72Z"/><path class="cls-6" d="M310.6,412.93c-2.51-8.65-12.49-39.16-23.32-55.1a172.24,172.24,0,0,1-16.79-30.69,41.59,41.59,0,0,1-10.7,3.39,43.13,43.13,0,0,1-7.19,1.9c.11.35.21.65.29.89,1,2.89-2.9,15.43-6.76,20.25S228.77,368,224,369a29.09,29.09,0,0,1-13-.49c-3.86-1-21.23-17.36-23.15-24.11-.83-2.9.12-7.4,1.4-11.66-.88-.09-1.71-.19-.72-.12a8.4,8.4,0,0,1-3.08-.8h-.13l-.28,0a6.53,6.53,0,0,1-2.29.26,17.22,17.22,0,0,1-4.46-.76c-.89-.29-2.63-.52-2.12-.78a7.57,7.57,0,0,1-5.29-1.61q-.84-.24-1.65-.54c-6.26,11-18.48,32.56-22.31,39.89-5.14,9.85-15.11,27.49-17.69,43l2.74.41.35.05.34.05c6.5.85,13,1.66,19.48,2.71a12.44,12.44,0,0,1,2.4.63c1.35-2.25,5.37-8.51,5.37-8.51s.87.06,1.09,1.53,4.76,11.83,6,13.49,2.18,1.74,2.18,3.26-2.39,40.94-2,44.78-.8,2.76-2.53,3.55A26.11,26.11,0,0,0,152.87,486c-3.55,8.19,8,9.13,8.84,9.42s25.5,1,28.84,0,11.23-3.7,12.31-10.07,4-40.69,4-40.69a1.62,1.62,0,0,1,1.69-1.79c1.79.05,22-.22,22-.22a1.57,1.57,0,0,1,1.2,1.36c0,1.09,3.08,39.53,3.37,40.83a14.73,14.73,0,0,0,9.93,9.57c7.32,2.31,31.88,1,31.88,1s7.68-2.1,7.75-6.16-.38-5.74-2.77-8.68-10.76-8.42-10.76-8.42a8.44,8.44,0,0,1-.32-3.48c.1-2.55-1.58-45.54-1.58-45.54s2.39-3.8,3.77-6.56,4.06-9,4.13-10.58,1.12-1.34,1.39-.63,6.74,10.49,7.34,11.14,1.27,1.1,1.07,1.68C294.81,416.36,302.68,414.37,310.6,412.93Z"/><g class="cls-7"><g class="cls-8"><polygon class="cls-9" points="241.33 355.19 233.87 355.19 230.14 361.66 233.87 368.12 241.33 368.12 245.06 361.66 241.33 355.19"/><polygon class="cls-6" points="252.54 361.78 245.08 361.78 241.35 368.24 245.08 374.7 252.54 374.7 256.27 368.24 252.54 361.78"/><polygon class="cls-10" points="252.54 348.86 245.08 348.86 241.35 355.32 245.08 361.78 252.54 361.78 256.27 355.32 252.54 348.86"/><polygon class="cls-11" points="263.76 355.19 256.3 355.19 252.57 361.66 256.3 368.12 263.76 368.12 267.49 361.66 263.76 355.19"/><polygon class="cls-10" points="264 368.12 256.54 368.12 252.81 374.58 256.54 381.04 264 381.04 267.73 374.58 264 368.12"/><polygon class="cls-9" points="252.79 374.7 245.33 374.7 241.59 381.16 245.33 387.62 252.79 387.62 256.52 381.16 252.79 374.7"/><polygon class="cls-9" points="241.57 368.36 234.11 368.36 230.38 374.82 234.11 381.28 241.57 381.28 245.3 374.82 241.57 368.36"/><polygon class="cls-9" points="264.3 381.53 256.84 381.53 253.11 387.99 256.84 394.45 264.3 394.45 268.03 387.99 264.3 381.53"/><polygon class="cls-6" points="275.52 388.11 268.06 388.11 264.32 394.57 268.06 401.04 275.52 401.04 279.25 394.57 275.52 388.11"/><polygon class="cls-11" points="275.52 375.19 268.06 375.19 264.32 381.65 268.06 388.11 275.52 388.11 279.25 381.65 275.52 375.19"/><polygon class="cls-11" points="286.73 381.53 279.27 381.53 275.54 387.99 279.27 394.45 286.73 394.45 290.46 387.99 286.73 381.53"/><polygon class="cls-10" points="286.98 394.45 279.51 394.45 275.78 400.91 279.51 407.38 286.98 407.38 290.71 400.91 286.98 394.45"/><polygon class="cls-9" points="275.76 401.04 268.3 401.04 264.57 407.5 268.3 413.96 275.76 413.96 279.49 407.5 275.76 401.04"/><polygon class="cls-11" points="264.54 394.7 257.08 394.7 253.35 401.16 257.08 407.62 264.54 407.62 268.27 401.16 264.54 394.7"/><polygon class="cls-12" points="274.95 348.47 267.49 348.47 263.75 354.93 267.49 361.39 274.95 361.39 278.68 354.93 274.95 348.47"/><polygon class="cls-6" points="286.16 355.05 278.7 355.05 274.97 361.51 278.7 367.98 286.16 367.98 289.89 361.51 286.16 355.05"/><polygon class="cls-12" points="286.16 342.13 278.7 342.13 274.97 348.59 278.7 355.05 286.16 355.05 289.89 348.59 286.16 342.13"/><polygon class="cls-9" points="286.41 367.98 278.94 367.98 275.21 374.44 278.94 380.9 286.41 380.9 290.14 374.44 286.41 367.98"/><polygon class="cls-12" points="275.19 361.64 267.73 361.64 264 368.1 267.73 374.56 275.19 374.56 278.92 368.1 275.19 361.64"/><path class="cls-9" d="M254.38,331.4c-.62,0-1.24.07-1.85.08a15.94,15.94,0,0,1-10.18-3.5l-1,1.74,3.73,6.46h7.46l2.78-4.81Z"/><path class="cls-9" d="M174,328.85a16.52,16.52,0,0,1-3-.47l1.72,3h7.46l.26-.46A48.27,48.27,0,0,1,174,328.85Z"/><path class="cls-10" d="M261.43,329.84a15.21,15.21,0,0,1-2.8,1,17.19,17.19,0,0,1-3.22.49l-2.85,4.94,3.73,6.46h7.46l3.73-6.46-3.73-6.46Z"/><path class="cls-10" d="M273.63,323.26l-.35.26a15.79,15.79,0,0,1-3.87,3.05,22.06,22.06,0,0,1-4.35,2.05l-.8.26-.49.84,3.73,6.46H275l3.74-6.46L275,323.26Z"/><polygon class="cls-12" points="275.21 336.18 267.75 336.18 264.02 342.64 267.75 349.1 275.21 349.1 278.94 342.64 275.21 336.18"/><polygon class="cls-6" points="263.99 342.76 256.53 342.76 252.8 349.22 256.53 355.69 263.99 355.69 267.72 349.22 263.99 342.76"/><polygon class="cls-11" points="252.78 336.42 245.32 336.42 241.59 342.88 245.32 349.35 252.78 349.35 256.51 342.88 252.78 336.42"/><polygon class="cls-12" points="229.56 388.25 222.1 388.25 218.37 394.71 222.1 401.18 229.56 401.18 233.29 394.71 229.56 388.25"/><polygon class="cls-6" points="240.78 394.84 233.31 394.84 229.59 401.3 233.31 407.76 240.78 407.76 244.51 401.3 240.78 394.84"/><polygon class="cls-10" points="240.78 381.91 233.31 381.91 229.59 388.38 233.31 394.84 240.78 394.84 244.51 388.38 240.78 381.91"/><polygon class="cls-12" points="251.99 388.25 244.53 388.25 240.8 394.71 244.53 401.18 251.99 401.18 255.72 394.71 251.99 388.25"/><polygon class="cls-9" points="252.24 401.18 244.78 401.18 241.04 407.64 244.78 414.1 252.24 414.1 255.97 407.64 252.24 401.18"/><polygon class="cls-10" points="229.8 401.42 222.34 401.42 218.61 407.88 222.34 414.34 229.8 414.34 233.53 407.88 229.8 401.42"/><polygon class="cls-11" points="206.59 361.36 199.13 361.36 195.4 367.82 199.13 374.28 206.59 374.28 210.32 367.82 206.59 361.36"/><polygon class="cls-11" points="195.01 353.64 187.55 353.64 183.82 360.1 187.55 366.56 195.01 366.56 198.74 360.1 195.01 353.64"/><polygon class="cls-6" points="217.8 367.94 210.34 367.94 206.61 374.4 210.34 380.86 217.8 380.86 221.53 374.4 217.8 367.94"/><polygon class="cls-9" points="229.02 361.36 221.56 361.36 217.83 367.82 221.56 374.28 229.02 374.28 232.75 367.82 229.02 361.36"/><polygon class="cls-11" points="229.26 374.28 221.8 374.28 218.07 380.74 221.8 387.2 229.26 387.2 232.99 380.74 229.26 374.28"/><polygon class="cls-9" points="218.05 380.86 210.59 380.86 206.86 387.32 210.59 393.79 218.05 393.79 221.78 387.32 218.05 380.86"/><polygon class="cls-10" points="206.83 374.52 199.37 374.52 195.64 380.99 199.37 387.45 206.83 387.45 210.56 380.99 206.83 374.52"/><polygon class="cls-9" points="287.63 408.25 280.17 408.25 276.44 414.71 280.17 421.17 287.63 421.17 291.36 414.71 287.63 408.25"/><polygon class="cls-10" points="298.84 401.91 291.38 401.91 287.65 408.37 291.38 414.83 298.84 414.83 302.57 408.37 298.84 401.91"/><polygon class="cls-11" points="310.06 408.25 302.6 408.25 298.87 414.71 302.6 421.17 310.06 421.17 313.79 414.71 310.06 408.25"/><polygon class="cls-9" points="298.83 376.31 291.37 376.31 287.64 382.77 291.37 389.23 298.83 389.23 302.56 382.77 298.83 376.31"/><polygon class="cls-10" points="310.05 382.89 302.59 382.89 298.86 389.36 302.59 395.82 310.05 395.82 313.78 389.36 310.05 382.89"/><polygon class="cls-6" points="310.29 395.82 302.83 395.82 299.1 402.28 302.83 408.74 310.29 408.74 314.02 402.28 310.29 395.82"/><polygon class="cls-11" points="299.08 389.48 291.62 389.48 287.89 395.94 291.62 402.4 299.08 402.4 302.81 395.94 299.08 389.48"/><polygon class="cls-12" points="275.86 441.31 268.4 441.31 264.67 447.77 268.4 454.23 275.86 454.23 279.59 447.77 275.86 441.31"/><polygon class="cls-10" points="276.11 454.47 268.64 454.47 264.91 460.94 268.64 467.4 276.11 467.4 279.84 460.94 276.11 454.47"/><polygon class="cls-11" points="252.89 414.41 245.43 414.41 241.7 420.87 245.43 427.33 252.89 427.33 256.62 420.87 252.89 414.41"/><polygon class="cls-6" points="264.1 421 256.64 421 252.91 427.46 256.64 433.92 264.1 433.92 267.83 427.46 264.1 421"/><polygon class="cls-12" points="264.1 408.07 256.64 408.07 252.91 414.53 256.64 421 264.1 421 267.83 414.53 264.1 408.07"/><polygon class="cls-9" points="275.32 414.41 267.86 414.41 264.13 420.87 267.86 427.33 275.32 427.33 279.05 420.87 275.32 414.41"/><polygon class="cls-11" points="275.56 427.33 268.1 427.33 264.37 433.8 268.1 440.26 275.56 440.26 279.29 433.8 275.56 427.33"/><polygon class="cls-9" points="264.35 433.92 256.89 433.92 253.16 440.38 256.89 446.84 264.35 446.84 268.08 440.38 264.35 433.92"/><polygon class="cls-10" points="253.13 427.58 245.67 427.58 241.94 434.04 245.67 440.5 253.13 440.5 256.86 434.04 253.13 427.58"/><polygon class="cls-9" points="184.41 426.58 176.95 426.58 173.22 433.04 176.95 439.5 184.41 439.5 188.15 433.04 184.41 426.58"/><polygon class="cls-6" points="195.63 433.16 188.17 433.16 184.44 439.62 188.17 446.08 195.63 446.08 199.36 439.62 195.63 433.16"/><polygon class="cls-10" points="195.63 420.24 188.17 420.24 184.44 426.7 188.17 433.16 195.63 433.16 199.36 426.7 195.63 420.24"/><polygon class="cls-11" points="206.85 426.58 199.39 426.58 195.66 433.04 199.39 439.5 206.85 439.5 210.58 433.04 206.85 426.58"/><polygon class="cls-10" points="207.09 439.5 199.63 439.5 195.9 445.96 199.63 452.42 207.09 452.42 210.82 445.96 207.09 439.5"/><polygon class="cls-9" points="195.88 446.08 188.41 446.08 184.68 452.54 188.41 459 195.88 459 199.6 452.54 195.88 446.08"/><polygon class="cls-9" points="184.66 439.74 177.2 439.74 173.47 446.2 177.2 452.67 184.66 452.67 188.39 446.2 184.66 439.74"/><polygon class="cls-9" points="207.39 452.91 199.93 452.91 196.2 459.37 199.93 465.83 207.39 465.83 211.12 459.37 207.39 452.91"/><polygon class="cls-6" points="276.48 479.75 269.02 479.75 265.29 486.21 269.02 492.67 276.48 492.67 280.21 486.21 276.48 479.75"/><polygon class="cls-6" points="241.75 408.37 234.29 408.37 230.56 414.83 234.29 421.29 241.75 421.29 245.49 414.83 241.75 408.37"/><polygon class="cls-11" points="276.48 466.83 269.02 466.83 265.29 473.29 269.02 479.75 276.48 479.75 280.21 473.29 276.48 466.83"/><polygon class="cls-11" points="287.7 473.17 280.24 473.17 276.5 479.63 280.24 486.09 287.7 486.09 291.43 479.63 287.7 473.17"/><polygon class="cls-11" points="242.36 461.59 234.9 461.59 231.17 468.05 234.9 474.51 242.36 474.51 246.09 468.05 242.36 461.59"/><polygon class="cls-10" points="287.94 486.09 280.48 486.09 276.75 492.55 280.48 499.01 287.94 499.01 291.67 492.55 287.94 486.09"/><polygon class="cls-10" points="240.67 421.46 233.21 421.46 229.48 427.92 233.21 434.38 240.67 434.38 244.41 427.92 240.67 421.46"/><polygon class="cls-10" points="240.67 434.97 233.21 434.97 229.48 441.43 233.21 447.89 240.67 447.89 244.41 441.43 240.67 434.97"/><polygon class="cls-10" points="253.21 439.79 245.75 439.79 242.02 446.25 245.75 452.71 253.21 452.71 256.94 446.25 253.21 439.79"/><polygon class="cls-10" points="242.6 448.47 235.14 448.47 231.41 454.93 235.14 461.39 242.6 461.39 246.33 454.93 242.6 448.47"/><polygon class="cls-10" points="262.86 447.51 255.4 447.51 251.67 453.97 255.4 460.43 262.86 460.43 266.59 453.97 262.86 447.51"/><polygon class="cls-9" points="276.72 492.67 269.26 492.67 265.53 499.13 269.26 505.6 276.72 505.6 280.45 499.13 276.72 492.67"/><polygon class="cls-6" points="253.33 468.18 245.87 468.18 242.14 474.64 245.87 481.1 253.33 481.1 257.06 474.64 253.33 468.18"/><polygon class="cls-11" points="253.33 455.25 245.87 455.25 242.14 461.71 245.87 468.18 253.33 468.18 257.06 461.71 253.33 455.25"/><polygon class="cls-11" points="264.55 461.59 257.08 461.59 253.35 468.05 257.08 474.51 264.55 474.51 268.28 468.05 264.55 461.59"/><polygon class="cls-10" points="264.79 474.51 257.33 474.51 253.6 480.98 257.33 487.44 264.79 487.44 268.52 480.98 264.79 474.51"/><polygon class="cls-9" points="253.57 481.1 246.11 481.1 242.38 487.56 246.11 494.02 253.57 494.02 257.3 487.56 253.57 481.1"/><polygon class="cls-9" points="264.18 487.85 256.72 487.85 252.99 494.31 256.72 500.77 264.18 500.77 267.92 494.31 264.18 487.85"/><polygon class="cls-9" points="242 474.35 234.54 474.35 230.81 480.81 234.54 487.27 242 487.27 245.73 480.81 242 474.35"/><polygon class="cls-11" points="207.63 466.08 200.17 466.08 196.44 472.54 200.17 479 207.63 479 211.36 472.54 207.63 466.08"/><polygon class="cls-11" points="161.33 479.58 153.87 479.58 150.14 486.04 153.87 492.5 161.33 492.5 165.06 486.04 161.33 479.58"/><polygon class="cls-12" points="218.03 419.85 210.57 419.85 206.84 426.31 210.57 432.77 218.03 432.77 221.76 426.31 218.03 419.85"/><polygon class="cls-6" points="229.25 426.44 221.79 426.44 218.06 432.9 221.79 439.36 229.25 439.36 232.98 432.9 229.25 426.44"/><polygon class="cls-12" points="229.25 413.51 221.79 413.51 218.06 419.97 221.79 426.44 229.25 426.44 232.98 419.97 229.25 413.51"/><polygon class="cls-9" points="229.49 439.36 222.03 439.36 218.3 445.82 222.03 452.28 229.49 452.28 233.22 445.82 229.49 439.36"/><polygon class="cls-12" points="218.28 433.02 210.82 433.02 207.09 439.48 210.82 445.94 218.28 445.94 222.01 439.48 218.28 433.02"/><polygon class="cls-9" points="195.62 394.64 188.16 394.64 184.43 401.1 188.16 407.56 195.62 407.56 199.35 401.1 195.62 394.64"/><polygon class="cls-10" points="206.84 401.22 199.38 401.22 195.65 407.68 199.38 414.14 206.84 414.14 210.57 407.68 206.84 401.22"/><polygon class="cls-6" points="206.84 388.3 199.38 388.3 195.65 394.76 199.38 401.22 206.84 401.22 210.57 394.76 206.84 388.3"/><polygon class="cls-10" points="218.05 394.64 210.59 394.64 206.86 401.1 210.59 407.56 218.05 407.56 221.78 401.1 218.05 394.64"/><polygon class="cls-12" points="218.3 407.56 210.84 407.56 207.11 414.02 210.84 420.48 218.3 420.48 222.03 414.02 218.3 407.56"/><polygon class="cls-6" points="207.08 414.14 199.62 414.14 195.89 420.61 199.62 427.07 207.08 427.07 210.81 420.61 207.08 414.14"/><polygon class="cls-11" points="195.87 407.8 188.4 407.8 184.67 414.26 188.4 420.73 195.87 420.73 199.6 414.26 195.87 407.8"/><polygon class="cls-12" points="172.65 459.63 165.19 459.63 161.46 466.1 165.19 472.56 172.65 472.56 176.38 466.1 172.65 459.63"/><polygon class="cls-6" points="183.86 466.22 176.4 466.22 172.67 472.68 176.4 479.14 183.86 479.14 187.59 472.68 183.86 466.22"/><polygon class="cls-10" points="183.86 453.3 176.4 453.3 172.67 459.76 176.4 466.22 183.86 466.22 187.59 459.76 183.86 453.3"/><polygon class="cls-12" points="195.08 459.63 187.62 459.63 183.89 466.1 187.62 472.56 195.08 472.56 198.81 466.1 195.08 459.63"/><polygon class="cls-9" points="195.32 472.56 187.86 472.56 184.13 479.02 187.86 485.48 195.32 485.48 199.05 479.02 195.32 472.56"/><polygon class="cls-9" points="205.94 479.31 198.47 479.31 194.74 485.77 198.47 492.23 205.94 492.23 209.66 485.77 205.94 479.31"/><polygon class="cls-9" points="183.75 479.31 176.29 479.31 172.56 485.77 176.29 492.23 183.75 492.23 187.48 485.77 183.75 479.31"/><polygon class="cls-9" points="183.75 492.81 176.29 492.81 172.56 499.27 176.29 505.74 183.75 505.74 187.48 499.27 183.75 492.81"/><polygon class="cls-9" points="195.32 486.06 187.86 486.06 184.13 492.52 187.86 498.98 195.32 498.98 199.05 492.52 195.32 486.06"/><polygon class="cls-10" points="172.89 472.8 165.43 472.8 161.7 479.26 165.43 485.72 172.89 485.72 176.62 479.26 172.89 472.8"/><polygon class="cls-10" points="171.93 487.27 164.47 487.27 160.74 493.73 164.47 500.19 171.93 500.19 175.66 493.73 171.93 487.27"/><polygon class="cls-9" points="172.11 432.74 164.65 432.74 160.92 439.2 164.65 445.66 172.11 445.66 175.84 439.2 172.11 432.74"/><polygon class="cls-11" points="172.35 445.66 164.89 445.66 161.16 452.12 164.89 458.58 172.35 458.58 176.08 452.12 172.35 445.66"/><polygon class="cls-6" points="148.37 379.14 140.9 379.14 137.17 385.6 140.9 392.06 148.37 392.06 152.09 385.6 148.37 379.14"/><polygon class="cls-10" points="148.37 366.22 140.9 366.22 137.17 372.68 140.9 379.14 148.37 379.14 152.09 372.68 148.37 366.22"/><polygon class="cls-11" points="159.58 372.56 152.12 372.56 148.39 379.02 152.12 385.48 159.58 385.48 163.31 379.02 159.58 372.56"/><polygon class="cls-10" points="159.82 385.48 152.36 385.48 148.63 391.94 152.36 398.4 159.82 398.4 163.56 391.94 159.82 385.48"/><polygon class="cls-9" points="148.61 392.06 141.15 392.06 137.42 398.52 141.15 404.99 148.61 404.99 152.34 398.52 148.61 392.06"/><polygon class="cls-9" points="137.39 385.72 129.93 385.72 126.2 392.19 129.93 398.65 137.39 398.65 141.12 392.19 137.39 385.72"/><polygon class="cls-9" points="160.12 398.89 152.66 398.89 148.93 405.35 152.66 411.81 160.12 411.81 163.85 405.35 160.12 398.89"/><polygon class="cls-6" points="171.34 405.48 163.88 405.48 160.15 411.94 163.88 418.4 171.34 418.4 175.07 411.94 171.34 405.48"/><polygon class="cls-11" points="171.34 392.55 163.88 392.55 160.15 399.01 163.88 405.48 171.34 405.48 175.07 399.01 171.34 392.55"/><polygon class="cls-11" points="182.55 398.89 175.09 398.89 171.36 405.35 175.09 411.81 182.55 411.81 186.28 405.35 182.55 398.89"/><polygon class="cls-11" points="195.09 380.56 187.63 380.56 183.9 387.03 187.63 393.49 195.09 393.49 198.82 387.03 195.09 380.56"/><polygon class="cls-10" points="182.8 411.81 175.34 411.81 171.61 418.28 175.34 424.74 182.8 424.74 186.53 418.28 182.8 411.81"/><polygon class="cls-9" points="171.58 418.4 164.12 418.4 160.39 424.86 164.12 431.32 171.58 431.32 175.31 424.86 171.58 418.4"/><polygon class="cls-12" points="170.77 365.83 163.31 365.83 159.58 372.3 163.31 378.76 170.77 378.76 174.5 372.3 170.77 365.83"/><polygon class="cls-6" points="181.98 372.42 174.52 372.42 170.79 378.88 174.52 385.34 181.98 385.34 185.72 378.88 181.98 372.42"/><polygon class="cls-12" points="181.98 359.5 174.52 359.5 170.79 365.96 174.52 372.42 181.98 372.42 185.72 365.96 181.98 359.5"/><polygon class="cls-12" points="193.56 339.24 186.1 339.24 182.37 345.7 186.1 352.16 193.56 352.16 197.29 345.7 193.56 339.24"/><polygon class="cls-12" points="193.56 366.25 186.1 366.25 182.37 372.71 186.1 379.17 193.56 379.17 197.29 372.71 193.56 366.25"/><polygon class="cls-9" points="182.23 385.34 174.77 385.34 171.04 391.8 174.77 398.26 182.23 398.26 185.96 391.8 182.23 385.34"/><polygon class="cls-12" points="171.01 379 163.55 379 159.82 385.46 163.55 391.92 171.01 391.92 174.74 385.46 171.01 379"/><path class="cls-9" d="M166,326.15h-3.83l-3.73,6.46,3.73,6.46h7.46l3.73-6.46-2.47-4.27A16.24,16.24,0,0,1,166,326.15Z"/><polygon class="cls-9" points="181.15 332.9 173.69 332.9 169.96 339.36 173.69 345.82 181.15 345.82 184.88 339.36 181.15 332.9"/><polygon class="cls-9" points="183.08 346.41 175.62 346.41 171.89 352.87 175.62 359.33 183.08 359.33 186.81 352.87 183.08 346.41"/><polygon class="cls-10" points="159.57 347.2 152.11 347.2 148.38 353.66 152.11 360.13 159.57 360.13 163.3 353.66 159.57 347.2"/><polygon class="cls-10" points="170.79 340.62 163.33 340.62 159.6 347.08 163.33 353.54 170.79 353.54 174.52 347.08 170.79 340.62"/><polygon class="cls-12" points="171.03 353.54 163.57 353.54 159.84 360 163.57 366.46 171.03 366.46 174.76 360 171.03 353.54"/><path class="cls-12" d="M191.76,332.12A40.05,40.05,0,0,1,181.07,331v0l3.73,6.46h7.46l3.49-6A17.87,17.87,0,0,1,191.76,332.12Z"/><polygon class="cls-6" points="159.81 360.13 152.35 360.13 148.62 366.59 152.35 373.05 159.81 373.05 163.55 366.59 159.81 360.13"/><polygon class="cls-11" points="148.6 353.79 141.14 353.79 137.41 360.25 141.14 366.71 148.6 366.71 152.33 360.25 148.6 353.79"/><polygon class="cls-10" points="136.6 399.28 129.14 399.28 125.41 405.74 129.14 412.2 136.6 412.2 140.33 405.74 136.6 399.28"/><polygon class="cls-12" points="147.81 405.62 140.35 405.62 136.62 412.08 140.35 418.54 147.81 418.54 151.54 412.08 147.81 405.62"/></g></g><path class="cls-13" d="M146,280.28a25.38,25.38,0,0,1-20.33,15.81c-15.81,2.26-35-3.39-50.82-26s-29.36-11.29-31.62-6.77h0s-4.52,4.51-4.52,9-9-4.52-2.26-13.55S54.5,243,61.28,240.75s9-4.52,6.77-9S41,224.94,29.66,220.42,2.55,204.61.29,193.32s9-36.14,18.07-40.66,9,4.52,6.78,6.78-9,2.25-13.55,9S4.81,184.28,9.33,188.8s18.07,9,27.1,4.52S56.76,175.25,59,168.47s2.26-18.07,2.26-18.07,27.1,18.07,29.36,20.33L111,191.06,178.73,164s122-2.26,124.23-2.26,49.69-29.36,49.69-29.36-2.26,15.81,0,18.07,15.81,9,24.85,20.33,11.29,22.59,9,29.36-9,9-13.55,13.55-11.29,9-9,13.56,6.78,9,13.56,9,22.58,2.26,27.1,6.78,4.52,6.77,4.52,6.77-11.29-9-29.36-6.77-38.4,4.52-42.92,9-20.33,6.78-27.1,13.55-2.26-11.29,0-22.58-18.07-74.54-18.07-74.54l-97.13,2.26L147.11,182,129,200.09Z"/><path class="cls-5" d="M309.1,192.64a91.31,91.31,0,0,0-58.36-45.3c4.22-15.61,9.4-36,10.4-45.24,1.74-16.09,4.79-28.26-3.47-34.35s-15-3.47-16.85,0S229.3,130.94,229.35,137a64.2,64.2,0,0,1-.73,7.83c-4.82-.08-9.8.08-14.86.49A69.68,69.68,0,0,1,213,137c.05-6-9.62-65.72-11.47-69.2s-8.59-6.08-16.85,0S179.43,86,181.17,102.1c1,9.48,6.43,30.56,10.69,46.3a155.72,155.72,0,0,0-25.38,7.43C143,165.1,121,200.18,120.16,217.28s-11.29,63.47,28.39,97.38c0,0,11.43,12.18,27.53,16.24s76.82,7.53,97.71-4.64,34.74-23.77,40.95-47.25S324.35,221,309.1,192.64Z"/><circle class="cls-14" cx="171.38" cy="243.24" r="11.69"/><circle class="cls-14" cx="269.13" cy="243.24" r="11.69"/><ellipse class="cls-15" cx="171.14" cy="262.1" rx="11.69" ry="5.85"/><ellipse class="cls-15" cx="269.77" cy="262.1" rx="11.69" ry="5.85"/><path class="cls-16" d="M181.23,266.92s-6.3,6.54-2.77,12.12,10.21,9,19.37,10.17,40.52,2.67,50.38-1.69,15.51-14.06,11.28-20.6-25-14.54-38.76-13.82S188.28,259.16,181.23,266.92Z"/><path class="cls-17" d="M212.54,251.48s0,5.6,3.59,8.52,9.27,2.68,11.72,0,4.17-9.76,2.65-11.94S211.79,243.94,212.54,251.48Z"/><path class="cls-17" d="M246.62,272.71a1.41,1.41,0,0,0-1.64-.31c-1.74.54-12.3,1.93-14.7.14-2.9-2.16-6.21-8.14-6.31-12.92a.43.43,0,0,0,0-.11c0-.05,0-.1,0-.14s0-.09,0-.14a.56.56,0,0,1,0-.12s-.05-.08-.07-.13l-.06-.11-.09-.11-.08-.1-.1-.08-.11-.09-.11-.06-.12-.07-.13,0-.13,0-.14,0h-.31l-.14,0-.13,0-.13,0-.13.07-.11.06-.11.09-.1.08-.08.1-.09.11-.06.11a1.39,1.39,0,0,0-.06.13.56.56,0,0,0,0,.12.37.37,0,0,0,0,.14.59.59,0,0,0,0,.14s0,.07,0,.11c-.11,4.78-3.42,10.76-6.32,12.92-2.4,1.8-13,.4-14.69-.14a1.41,1.41,0,0,0-1.58,2.3c.61.56,5.9,1.52,10.72,1.52,3,0,5.82-.37,7.23-1.42a20.9,20.9,0,0,0,6-8.68,20.9,20.9,0,0,0,6,8.68c1.41,1.05,4.23,1.42,7.23,1.42,4.82,0,10.11-1,10.72-1.52A1.41,1.41,0,0,0,246.62,272.71Z"/><path class="cls-18" d="M268.86,217.08s-24.24,3.62-25,5.68,48.47-2.84,47-4.39S268.86,217.08,268.86,217.08Z"/><path class="cls-18" d="M170.72,217.08s24.24,3.62,25,5.68-48.47-2.84-47-4.39S170.72,217.08,170.72,217.08Z"/><path class="cls-18" d="M188,180.28s17.87,6.7,38,4.47,31.27-6.7,40.2-4.47,22.33,22.33,24.57,35.73,26.71,34,26.71,42.94,6.45-2,8.68-8.68.34-18.62,7-32-4.47-26.8,6.7-53.6,22.33-42.44,4.47-62.54-53.6-38-91.57-51.36S190.27,37.35,194.73,24,205.9,6.08,219.3,8.31s20.1,8.94,15.63,13.4,22.34,11.17,24.57,0-13.4-26.8-44.67-20.1-67,24.57-82.63,42.44c0,0-6.7,2.23-11.17,17.86s-8.93,13.4-15.63,13.4-26.8-4.46-35.73,2.24S54,84.25,56.26,93.18s6.7,8.93,6.7,8.93S58.5,91,65.2,88.71s20.1,0,17.87,4.47-11.17,13.4-13.4,11.17a6.92,6.92,0,0,0-4.47-2.24s2.23,4.47-2.24,8.94-15.63,11.16-15.63,24.56S56.26,153.48,65.2,158s20.1,6.7,20.1,15.63-6.7,13.4,0,24.57,11.17,8.93,20.1,13.4,12.41,39.69,12.41,39.69,30-57.56,36.72-62S163.47,178.05,188,180.28Z"/><path class="cls-13" d="M120.7,245.45s8.84-10.61,11.58-19.29A74.38,74.38,0,0,1,140,210.72c9.65-13.5,12.54-21.22,21.24-26,8.08-4.42,12.29-5.59,23.45-3.35s15.64,2.23,24.57,4.46A69.73,69.73,0,0,0,221.53,187c6.7,0,13.4,0,17.87-2.23s29-6.67,38,4.46,12.43,24.52,15,32.12c1.62,4.73,24.12,33.77,24.12,33.77.32,0-10.23-20.81-11.58-25.08s-11.27-11-13.5-15.44-2.91-5.27,1.56-7.5,8.93-4.47,4.47-4.47-11.17,0-11.17-4.46,0-6.7,2.23-8.94-2.23,0-4.46,0-11.17-4.46-11.17-8.93-4.47,2.23-8.93-4.47c0,0-2.24,2.24-2.24-6.7,0,0-2.23,6.7-8.93,8.94s-11.17,6.7-13.4,2.23v-4.47s-4.27,5.67-8.73,7.9c0,0-20.62,2.24-25.08,0s-1.92-5.66-1.92-5.66l-2.24,4.46s-2.23,0-4.46-6.7c0,0-2.24-4.46-2.24-6.7s-2.23,8.94-2.23,11.17-6.7,0-8.93-4.47S181.33,162.41,188,158s-4.46-4.47-8.93-4.47-22.33-4.47-29,0-14.18,12.61-20.1,22.33c-5.41,8.87-9.27,40.09-9.27,44.56Z"/><path class="cls-19" d="M304.17,236.11s13.4-38,15.63-49.13,0-69.23-4.47-75.93-8.93,24.56-8.93,24.56,0-13.4-4.47-13.4-8.93,15.64-11.16,17.87-4.47-2.23-4.47-6.7c0,0-22.33-11.17-40.2-29s-22.33-24.57-24.57-26.8-4.46-2.24-8.93,2.23-29,35.73-53.6,46.9c0,0-8.93,4.47-8.93,8.93v8.94s-6.7,0-8.94-11.17-4.46-11.17-6.7-8.93S130,135.61,130,135.61s-4.47-17.86-4.47-22.33-6.7,2.23-6.7,4.47-2.23,64.76-2.23,67,8.93,42.43,11.16,46.9c0,0,2.24,11.16,4.47,13.4s0-38,0-49.14,2.23-35.73,17.87-40.2,38-2.23,44.66,0,20.1,13.4,22.34,13.4,8.93-8.93,26.8-13.4,33.5-4.46,42.43,2.24c0,0,15.63,8.93,15.63,20.1v53.6c0,4.46-2.23,11.16,0,8.93A6.91,6.91,0,0,0,304.17,236.11Z"/><path class="cls-20" d="M217.07,146.78s-15.64-2.23-20.1-11.17c0,0-4.47-13.4-4.47-6.7s4.47,22.34,11.17,26.8,8.93,8.94,11.16,8.94h2.24Z"/><path class="cls-20" d="M194.73,115.51s2.24,15.64,6.7,20.1,13.4,6.7,15.64,6.7V84.25l-8.94,8.93c-4.46,4.47-31.26,31.27-46.9,38,0,0-6.7,2.23-4.46,4.46s4.46,8.94,6.7,8.94H188s4.47,0,2.24-6.7-4.47-11.17-2.24-15.64S192.5,113.28,194.73,115.51Z"/><path class="cls-21" d="M130,162.41l4.46-4.46c4.47-4.47,11.17-6.7,8.94-11.17s-4.47-20.1-6.7-17.87-6.7,11.17-6.7,17.87Z"/><path class="cls-22" d="M154.53,153.48s20.1-2.23,24.57-2.23,17.87,2.23,20.1,4.46-4.47-11.16-4.47-11.16-6.7,2.23-8.93,2.23-20.1-2.23-29,0-17.87,8.93-22.34,13.4S130,169.11,130,184.75s0,0,2.23-6.7,4.47-15.64,11.17-20.1S154.53,153.48,154.53,153.48Z"/><path class="cls-21" d="M127.73,135.61s-2.23-13.4-4.46-15.63-4.47,58.07-4.47,64.77,8.93,46.9,11.17,49.13,0-33.5,0-38-4.47-4.46-4.47-15.63S127.73,144.55,127.73,135.61Z"/><path class="cls-23" d="M219.3,111.05s2.23-11.17,4.47-13.4,4.46,0,8.93,2.23,6.7,2.23,0-4.47S219.3,82,219.3,84.25Z"/><path class="cls-23" d="M304.17,227.18c-1,2,6.7-22.33,6.7-29s-2.24-15.64,0-17.87,6.7,4.47,6.7-2.23-2.24-49.14-2.24-51.37v-13.4s-2.23,2.23-4.46,11.17c0,0-4.47,13.4-4.47,15.63v20.1l-4.47-6.7c-4.46-6.7-6.7-6.7-6.7-6.7l4.47-17.87s-6.7,13.4-8.93,13.4-2.24,2.24-6.7,2.24-6.7-4.47-4.47-6.7a3.1,3.1,0,0,0,0-4.47s0,4.47-6.7,6.7-22.33,2.23-24.57,2.23,0,0,0-6.7,0-13.4-2.23-17.86l-2.23-2.24h0s2.23,15.64,0,20.1-11.17,20.1-13.4,22.34,6.7-11.17,15.63-11.17,22.33-2.23,33.5,0,15.63,4.47,20.1,8.93,6.7,13.4,6.7,13.4S306.4,222.71,304.17,227.18Z"/><path class="cls-9" d="M225,402.29c-5.09-6.41-6.9-7.59-6.9-7.59s-.85-1.07-3.09,1.59S208.9,407.24,207.5,411s-.25,10.65-.25,10.65l1.37,5s.84,1.06.95.11-.51-3.95-.08-7.78a20,20,0,0,1,2.8-7.45,7.2,7.2,0,0,1,6.3-4.13c4.9-.41,9.44,10.79,9.22,12.71a41.64,41.64,0,0,1,.41,4.9l-.22,1.92s2-.74,2.58-5.53A27.17,27.17,0,0,0,225,402.29Z"/><path class="cls-19" d="M228,425s2-.74,2.58-5.53A27.17,27.17,0,0,0,225,400.36c-5.09-6.41-6.9-7.59-6.9-7.59s-.85-1.06-3.09,1.59S208.9,405.31,207.5,409s-.25,10.66-.25,10.66l1.37,5s.84,1.06.95.11-.52-3.95-.08-7.78a20,20,0,0,1,2.8-7.45,7.2,7.2,0,0,1,6.3-4.13c4.9-.41,9.44,10.79,9.22,12.71a41.64,41.64,0,0,1,.41,4.9L228,425"/><path class="cls-21" d="M217,393.62l-.36,11.61a13.91,13.91,0,0,0-3.09,1.59c-1.07.85-2.36,3.61-3.65,6.38,0,0-1.72,6.6-1,8.62a18.35,18.35,0,0,1,.7-14.48C213.39,400,212.54,398.93,217,393.62Z"/><path class="cls-21" d="M218,393.73c-.11,1,10.4,10.9,11.55,17.83s-1.48-4.05-3.17-6.19S218,393.73,218,393.73Z"/><path class="cls-24" d="M524.54,305l-25.2,22.42-5.12,4.85-3.35,1.62c-.38,1.21-.75,2.43-1.13,3.65l-2.57,1.71c.49,2.47,1,4.95,1.48,7.42l6.64-2.05-6.64,2.05-1.33.91c0,1.76,0,3.53,0,5.29l1.26,1.88,16.49-16.6,4.52-3.89-.81-1.28-5.12,3.48h0l5.12-3.48-9.88-3.63,9.88,3.63.81,1.28,21.69-22Z"/><path class="cls-24" d="M487.32,347.55l-6.31-4.1L478.92,346l-2.19,2.41q-4.8,5.15-9.62,10.29c-.53.33-1.08.65-1.62,1h0l-.06.12L465,360l-8.36,9.78-2.45,1.9L452,374.84a.67.67,0,0,0-.49.84l6.54,6.74,5.48.42,3.83-3L477.22,365c-.32-.41-.64-.82-1-1.24l-7-2.24h0l7,2.24c.31.42.63.83,1,1.24l2.78-3.35.15.19h0l7.31-6,1.11-1.14-1.26-1.88C487.31,351.08,487.31,349.31,487.32,347.55Zm-6.27,4.24-4-.6,4,.6,4.43,3.78Z"/><path class="cls-24" d="M488.65,346.64c-.5-2.47-1-4.95-1.48-7.42L481,343.45l6.31,4.1Z"/><path class="cls-25" d="M616.62,221.06l-1.32,1,1.76,5.06-7-4.69a9,9,0,0,1,1.1-1h0l1.36-1-.16-5.21q-.71-3.82-1.43-7.63l-3.25-4.83L594.83,183.8c1.55,6.72,3.45,13.36,4.48,20.17.43,2.84-1,6-1.55,9.05l2.82,3.16,7.06,5.76,2.46-.4-2.46.4a6.94,6.94,0,0,0,.38,1.35l-16.38,18.18-7.5,5.14-2.95,3.75L560,270.78l-6.26,4q-1.75,2.81-3.52,5.61l6.8,7.2L575.23,271h0a2,2,0,0,0,.83-1.2l2.46-1.74-1-1.37-1.46-2.21,1.46,2.21,1,1.37,2.55-1.68,23.18-22.64,13.36-10.39.1,0,4-7.1C620.05,224.55,618.34,222.8,616.62,221.06Zm-57.17,51.1.53-1.32-.53,1.32,7.38.34Zm33.18-29.45-.72-.91.72.91,4.07.71Zm10.65-.32Zm.09,0c.82-.6,1.65-1.19,2.48-1.78L603.3,233l2.55,7.66C605,241.22,604.19,241.81,603.37,242.41Zm10-6.92-2.55,1.71,2.55-1.72-.27-4.43.27,4.44,4.22-2.16h0Z"/><path class="cls-26" d="M747.23,167.26c-.28-.47-.55-.95-.83-1.43l-5-4.94-6.25-6.37-.92-1L723.82,150c3.35,4.6,6.57,9.31,10.09,13.78,2.8,3.55,6,6.81,9,10.2l-1.47.78-8.68-4.25L732.45,181l.59,1.28,18.49,24.35,3.15,3.33-.22.2,2.46,1.48c1.6.25,3.46.08,4.76.83,7.38,4.24,14.72,8.56,21.82,13.21,1.37.9,1.63,3.37,2.39,5.11l-3.43,2.05-2.67,7.1,9.7,19.65,10.33,3.15,1.94,4.25.69,1.53.35,1.49,1.05,2.64.61,1.24,3.79,13.27.53,1.3c-.67,5.52-3,11.57-1.6,16.43,1.84,6.41,10.13,12.08,9.55,17.74-4.41,43.33-10.11,86.6-16,129.84-.62,4.57-5.12,8.8-7.82,13.19q.21-7.39.43-14.79,3.17-42.14,6.32-84.29c.12-.8.23-1.6.35-2.4a4.72,4.72,0,0,1-.6-.81c-7.87-36-14.74-72.25-24.5-107.64-1.81-6.55-15.24-9.55-23.31-14.19l-5.66-8.38-10.72-20.87q-1.38-2.49-2.77-5l-5.3-13.94a2.91,2.91,0,0,0,.09-1.37l-15.8-17.76-3.28-4.82,0,.07c-.37-2.56-.73-5.12-1.1-7.68l-.32-1.1-.77.92-7.1,15.86h0l-.45,2.08v-.05q4.86,12.51,9.7,25l-44.74-11.68,19.91-7.79,5.09,1.4.54-2.12.25,0,30.72-49.3,8.42,4.38Z"/><path class="cls-27" d="M663.41,192.85l44.74,11.68c0,.56.08,1.12.13,1.67l-.11,0-.08,3.6,2,.4,0,0L734,228.94l5,2h-.06l2.15.36-.08,0,5,1.92,5.66,8.38c-1.79.76-5,1.42-5.1,2.31-.24,2,.38,5,1.84,6,4.23,3,11.78,4,13.19,7.8,13.21,35,25.4,70.4,37.88,105.69a4.72,4.72,0,0,0,.6.81c-.12.8-.23,1.6-.35,2.4q-3.17,42.15-6.32,84.29L778.66,344.2l-1.14-2.83q-1.69-5-3.38-10.06l.21-1.76L770,320.1l-.7-1.25-.72-1.24-.75-3.07-2-3.77Q762.9,304,760,297.16l-2.24-3.66-49-71.91-.94-1.11-63.26-9.37-2.59,1.5-11.55,7.18L629.22,218l33.24-25.92A6.6,6.6,0,0,1,663.41,192.85Z"/><path class="cls-28" d="M650.39,179.5l4.34-4.95c.21,0,.54.13.6,0a5,5,0,0,0,.49-1l10.11-22.7-.59-1.39-1.67-2.42-1.13-1-14.82-.57c-.2-.05-.52-.21-.58-.14a5.84,5.84,0,0,0-.64.9L643.93,148l-4.58-1.85L615,122.43l-.37-1,64.79,6.16-5.08,4.54c2.76,1.53,5.49,4.4,8.28,4.34,7.82-.16,15.67-1.53,23.5-2.42l-27.44,19-24.53,29a11.15,11.15,0,0,1-1.32.6l-.91-1.28C651.43,180.75,650.91,180.13,650.39,179.5Z"/><path class="cls-29" d="M652.85,182.66a11.15,11.15,0,0,0,1.32-.6l1.49,2.07-4.33,9.47,11.76-3.89-.63,2.34L629.21,218l-3.66,5.67-3.79,2.65c-1.71-1.74-3.42-3.49-5.14-5.23l5.51-9.19L622,212q1.93-2,3.86-4.09l14.76-13.36Z"/><path class="cls-30" d="M678.7,153.05l27.44-19,1.64-.63,3.59.36,8.77-1.26-.22,2.56-30.72,49.3c-.53-.61-1.05-1.22-1.58-1.82,1.78-3.85,3.38-7.78,5.36-11.53,5.56-10.5,11.28-20.92,16.93-31.36l-29.83,15.51Z"/><path class="cls-31" d="M707.78,133.4l-1.64.63c-7.83.89-15.68,2.26-23.5,2.42-2.79.06-5.52-2.81-8.28-4.34l5.08-4.54,2.85,1-1,2.14,2.13-.52h0l2.74,0-.19,0,9.12-1.76,2.22-.69,5.18.48L720,119.3l5.95-2-5.13,8.53L711,133.07Z"/><path class="cls-32" d="M720.79,125.85l5.13-8.53,2.62-1.9,2.59-.07,2.2,1.82-.66,1.76c.21-.59.43-1.18.64-1.78l-.33-3.39-1.58-2,7.79-.8c0,2.27.11,4.54.16,6.81l-12.49,9Z"/><path class="cls-33" d="M747.23,167.26l-18.89-27.82L753,170.53l-2.43,1.59Z"/><path class="cls-34" d="M720,119.3l-17.5,8.88,2.36-2.76,13.26-8.54Z"/><path class="cls-26" d="M640.62,194.55l-14.76,13.36a3.7,3.7,0,0,0-.59-.92L639,192.09C639.55,192.91,640.08,193.73,640.62,194.55Z"/><path class="cls-35" d="M640.62,194.55c-.54-.82-1.07-1.64-1.6-2.46l6.08-6.24,6.84-4.47.91,1.28Z"/><path class="cls-36" d="M720.79,125.85l6.07.94-6.72,5.71-8.77,1.26c-.14-.23-.28-.46-.41-.69Z"/><path class="cls-33" d="M789.49,259.58l-9.7-19.65Z"/><path class="cls-37" d="M720,119.3l-1.88-2.42,7.63-2.76,2.82,1.3-2.62,1.9Z"/><path class="cls-38" d="M770,320.1q2.18,4.72,4.36,9.45a6.18,6.18,0,0,1-.79.45Z"/><path class="cls-39" d="M750.57,172.12l2.43-1.59,2,7.72Z"/><path class="cls-27" d="M616.62,221.06l-1.32,1h-.07c-.25-.41-.52-.8-.8-1.19s-.45-.65-.68-1l1.13-1.51,7.25-6.48Z"/><path class="cls-24" d="M610.91,207.51l-3.25-4.83Z"/><path class="cls-40" d="M625.55,223.64l3.66-5.67c.4.61.8,1.21,1.19,1.82Z"/><path class="cls-33" d="M782.46,232.83l3.43-2.05c.82,2.1,1.63,4.21,2.45,6.31Z"/><path class="cls-33" d="M741.42,160.89l5,4.94Z"/><path class="cls-40" d="M728.54,115.42l-2.82-1.3,5.68-2.33,1.58,2-1.85,1.58Z"/><path class="cls-40" d="M695.07,128.39,686,130.15Z"/><path class="cls-37" d="M704.83,125.42l-2.36,2.76-5.18-.48Z"/><path class="cls-39" d="M741.4,174.71l1.47-.78,2.4,3.16Z"/><path class="cls-27" d="M625.27,207a3.7,3.7,0,0,1,.59.92Q623.94,210,622,212Z"/><path class="cls-41" d="M651.94,181.38l-6.84,4.47,5.29-6.35C650.91,180.13,651.43,180.75,651.94,181.38Z"/><path class="cls-42" d="M639.35,146.19l4.58,1.85Z"/><path class="cls-35" d="M454.15,371.72,452,374.84Z"/><path class="cls-41" d="M754.68,210l-3.15-3.33Z"/><path class="cls-41" d="M801.76,267l-1.94-4.25C800.47,264.14,801.11,265.56,801.76,267Z"/><path class="cls-33" d="M765.82,310.77l2,3.77Z"/><path class="cls-33" d="M757.72,293.5l2.24,3.66C759.22,295.94,758.47,294.72,757.72,293.5Z"/><path class="cls-35" d="M777.52,341.37l1.14,2.83Z"/><path class="cls-42" d="M642,212.61l2.59-1.5Z"/><path class="cls-41" d="M804.46,273.88l-.61-1.24A1.22,1.22,0,0,1,804.46,273.88Z"/><path class="cls-41" d="M802.8,270l-.35-1.49C802.57,269,802.68,269.51,802.8,270Z"/><path class="cls-32" d="M795.6,253.42c-.17,0-.38.09-.51,0s-.18-.26-.27-.4l.93-.29Z"/><path class="cls-41" d="M655.82,173.61a5,5,0,0,1-.49,1c-.06.09-.39,0-.6,0A1.34,1.34,0,0,1,655.82,173.61Z"/><path class="cls-42" d="M734.25,153.5l.92,1-.64-.35Z"/><path class="cls-41" d="M646.5,146.25a5.84,5.84,0,0,1,.64-.9c.06-.07.38.09.58.14A1.5,1.5,0,0,1,646.5,146.25Z"/><path class="cls-35" d="M773.57,330a6.18,6.18,0,0,0,.79-.45c-.08.59-.15,1.18-.22,1.76Z"/><path class="cls-43" d="M683.37,130.14l-2.13.52,1-2.14Z"/><path class="cls-38" d="M768.58,317.61l.72,1.24Z"/><path class="cls-43" d="M686.14,130.12l-2.74,0Z"/><path class="cls-41" d="M733,182.27l-.59-1.28Z"/><path class="cls-35" d="M707.8,220.48l.94,1.11Z"/><path class="cls-40" d="M550.23,280.4,524.54,305l6.73,7.24,8.08-7.23,1.34-2.38,1.69-1.16,2.41-1.85,12.24-12Z"/><path class="cls-41" d="M808.78,288.45l-.53-1.3Z"/><path class="cls-41" d="M665.34,149.52l.59,1.39Z"/><path class="cls-41" d="M662.54,146.06l1.13,1Z"/><path class="cls-41" d="M756.92,211.63l-2.46-1.48Z"/><path class="cls-42" d="M799.4,363.36c-12.48-35.29-24.67-70.69-37.88-105.69-1.41-3.76-9-4.84-13.19-7.8-1.46-1-2.08-4-1.84-6,.11-.89,3.31-1.55,5.1-2.31,8.07,4.64,21.5,7.64,23.31,14.19C784.66,291.11,791.53,327.39,799.4,363.36Z"/><path class="cls-38" d="M727.23,192a2.91,2.91,0,0,1-.09,1.37q.4,6.7.82,13.39l-8.71-4.59q-10.39-11.34-20.8-22.66v.05l.45-2.08h0l9.29-8,0-.07,2.07,5.63Z"/><path class="cls-44" d="M698.45,179.51q10.41,11.33,20.8,22.66l-11,4-.12-1.68Q703.31,192,698.45,179.51Z"/><path class="cls-36" d="M678.7,153.05l1.38,2.11c-.17.73-.35,1.45-.52,2.18l-1.07.65-15.87,22.86,20.82,3.44a4.24,4.24,0,0,1-.13.78l-19.9,7.78a6.6,6.6,0,0,0-.95-.8l.63-2.34-7.43-5.58-1.49-2.07Z"/><path class="cls-45" d="M745.93,233.15l-5-1.92-7-17.86,1.33-1.09Z"/><path class="cls-44" d="M708.17,169.49l-9.29,8,7.1-15.86c.36.07.72.13,1.09.18C707.44,164.37,707.8,166.93,708.17,169.49Z"/><path class="cls-36" d="M727.23,192l-17-16.95,1.21-.81Z"/><path class="cls-45" d="M728,206.76q-.42-6.69-.82-13.39,2.65,7,5.3,13.94l-1.76,1.12Z"/><path class="cls-36" d="M687.62,182.54c.53.6,1,1.21,1.58,1.82l-.25,0-.54,2.12-5.09-1.4a4.94,4.94,0,0,0,.12-.77l1.71-2.71,1.08-.61Z"/><path class="cls-44" d="M711.43,174.24l-1.21.81-2.07-5.63Z"/><path class="cls-43" d="M730.68,208.43l1.76-1.12q1.39,2.48,2.77,5l-1.33,1.09C732.81,211.72,731.75,210.07,730.68,208.43Z"/><path class="cls-44" d="M698.89,177.48l-.45,2.08Z"/><path class="cls-42" d="M799.65,366.57c.12-.8.23-1.6.35-2.4C799.88,365,799.77,365.77,799.65,366.57Z"/><path class="cls-30" d="M688.41,186.46c.18-.7.36-1.41.55-2.12C688.77,185.05,688.59,185.76,688.41,186.46Z"/><path class="cls-44" d="M706,161.63l.77-.92.32,1.1C706.7,161.76,706.34,161.7,706,161.63Z"/><path class="cls-46" d="M730.68,208.43c1.07,1.64,2.13,3.29,3.2,4.94l7,17.86.07,0-2.14-.36h.06L735.4,228l-25.32-17.89,0,0L709.3,209c-.38-.94-.75-1.88-1.13-2.81l.11,0,11-4,8.71,4.59Z"/><path class="cls-36" d="M710.08,210.15q12.66,8.94,25.31,17.89l-1.43.9Z"/><path class="cls-45" d="M734,228.94l1.43-.9,3.53,2.86Z"/><path class="cls-44" d="M708.17,206.17c.38.93.75,1.87,1.13,2.81l-1.21.79Z"/><path class="cls-45" d="M738.86,230.89l2.14.36Z"/><path class="cls-36" d="M708.09,209.77l1.21-.79c.28.39.56.79.83,1.19Z"/><path class="cls-38" d="M655.66,184.13l7.43,5.58-11.76,3.89Z"/><path class="cls-47" d="M687.62,182.54c-.46-.53-.93-1-1.39-1.57-.21-.49-.42-1-.64-1.47v.05l-6-22.21c.17-.73.35-1.45.52-2.18l29.83-15.51C704.26,150.09,698.54,160.51,693,171,691,174.76,689.4,178.69,687.62,182.54Z"/><path class="cls-40" d="M711,133.07c.13.23.27.46.41.69l-3.59-.36Z"/><path class="cls-25" d="M610,222.41a8.31,8.31,0,0,1,1.1-1l1.36-1a2.61,2.61,0,0,1,1.25-.49c.23.33.46.65.68,1s.54.79.8,1.19h.07l1.76,5.06Z"/><path class="cls-40" d="M733.31,117.15l-.64,1.78.66-1.75Z"/><path class="cls-27" d="M731.13,115.35l1.85-1.58.33,3.38,0,0Z"/><path class="cls-48" d="M615.23,222c-.26-.4-.53-.79-.8-1.19C614.71,221.23,615,221.62,615.23,222Z"/><path class="cls-46" d="M685.15,181.58l-1.71,2.71-20.82-3.44L678.49,158q3.56,10.78,7.1,21.56v-.05Z"/><path class="cls-45" d="M685.59,179.55Q682,168.78,678.49,158l1.07-.65Z"/><path class="cls-45" d="M685.15,181.58l.44-2.08c.22.49.43,1,.64,1.47Z"/><path class="cls-27" d="M415.35,425.49c.67-1.28,1.34-2.55,2-3.83C416.69,422.94,416,424.21,415.35,425.49Z"/><path class="cls-40" d="M451.49,375.68,426.26,401l-1.14,1L411.76,414.9l6.17,6.16,1.16-1.06a5.6,5.6,0,0,1,.59-.77c.1-.09.36,0,.54,0q18.91-18.39,37.81-36.8Z"/><path class="cls-27" d="M419.09,420a5.6,5.6,0,0,1,.59-.77c.1-.09.36,0,.54,0A1.53,1.53,0,0,1,419.09,420Z"/><path class="cls-27" d="M411.76,414.9l-31.48,28.35-1.15,1.83c-1.34,1.65-2.69,3.29-4,4.93l-5.9,5.65c-.09,1.54-.18,3.07-.28,4.6l3.49,4.31,12.87-7.6,4.85-6.27,4.87-3.78L407.6,433l5.39-5.46,2.36-2c.67-1.28,1.34-2.55,2-3.83l.48-.12.1-.48Z"/><path class="cls-42" d="M372.28,464.77l.12-.2,12.88-7.6Z"/><path class="cls-35" d="M368.92,460.26l-5.31,5.28-2.81,1.32-3.75,5.84c.11,1.11.23,2.21.34,3.32l2.38.16,4.52-1.54,3.8-3.56,1.33-2.07h0l2.86-4.24.12-.2Z"/><path class="cls-49" d="M605.1,189.1a86.76,86.76,0,0,0-8.34-12.44l.4-.16a15.49,15.49,0,0,0,12-12.53c1.49-8.41-1.63-20-11.12-21.73-5.4-3.51-13-1.79-18.44,1.06a18.81,18.81,0,0,0-3.31,2.23,11.58,11.58,0,0,0-5.24,7.4,11.06,11.06,0,0,0-.53,1.72,88,88,0,0,0-29.32-10.09c-22.41-3.32-52.84.55-75.8,9.41-.57.22-1.14.46-1.7.71a11.45,11.45,0,0,0-.54-1.75,11.58,11.58,0,0,0-5.24-7.4,18.81,18.81,0,0,0-3.31-2.23c-5.4-2.85-13-4.57-18.44-1.06C426.67,144,423.55,155.56,425,164a15.49,15.49,0,0,0,12,12.53l.32.13c-10,12.51-16.87,26.91-17.34,36-.83,16.32-11.06,60.59,27.81,93A64.89,64.89,0,0,0,463,316.52h.89c.28.28.55.56.8.85a51.15,51.15,0,0,0,10.15,3.7c15.77,3.88,75.26,7.2,95.73-4.42s34-22.69,40.12-45.1S620,216.22,605.1,189.1Z"/><path class="cls-49" d="M607.56,407.09c-.93-3.89-11.36-37.66-22.77-54.47s-14.94-27.39-17.23-31.85l-1.24-2.59H475.64s-19.92,34.86-24.9,44.4-14.73,26.77-17,41.71-1.66,18,0,20.13,6.64,6.43,9.75,6.22,5.81-3.94,6.85-6.43,2.07-5.4,2.07-5.4,2.91,1.73,3.87,1.73,3.74.28,4.57-2.21,0-4.15-1.38-5a10.17,10.17,0,0,1-2.8-2.11c-.47-.62.25-2,1-3.42s5.45-8.67,5.45-8.67.83.05,1,1.46,4.54,11.29,5.72,12.88,2.08,1.66,2.08,3.11-2.29,39.08-1.87,42.74-.76,2.63-2.42,3.39A24.92,24.92,0,0,0,456.48,475c-3.39,7.81,7.61,8.71,8.44,9s24.35,1,27.53,0,10.72-3.53,11.76-9.62,3.8-38.83,3.8-38.83-.1-1.77,1.61-1.71,21-.21,21-.21a1.5,1.5,0,0,1,1.14,1.29c.05,1,2.94,37.73,3.22,39a14,14,0,0,0,9.47,9.13c7,2.21,30.44,1,30.44,1s7.33-2,7.4-5.88-.37-5.48-2.65-8.28-10.27-8-10.27-8a7.92,7.92,0,0,1-.31-3.32c.1-2.44-1.51-43.48-1.51-43.48s2.29-3.63,3.6-6.25,3.87-8.58,3.94-10.1,1.07-1.28,1.33-.61,6.44,10,7,10.64,1.5,1.24.83,1.92-4.52,3.37-4.67,4.87c0,0-.73,4.2,3.37,4.31s4.25-1.71,4.25-1.71.78-.11,1,1.5,4.41,10.12,7.16,10.63,10.22-2.49,11.67-6.79S608.49,411,607.56,407.09Z"/><circle class="cls-50" cx="474.38" cy="221.49" r="11.16"/><circle class="cls-50" cx="567.68" cy="221.49" r="11.16"/><path class="cls-16" d="M483.78,244.1s-6,6.25-2.65,11.57,9.75,8.56,18.49,9.71,38.68,2.55,48.1-1.62,14.79-13.41,10.76-19.66-23.88-13.88-37-13.19S490.5,236.7,483.78,244.1Z"/><path class="cls-50" d="M513.67,229.37s0,5.34,3.42,8.13,8.84,2.55,11.19,0,4-9.32,2.53-11.4S512.94,222.17,513.67,229.37Z"/><path d="M582.3,313.86c16.07-13.73,30.67-28.8,38.81-48.7,4.78-11.69,8.56-23.75,5.9-36.94a77.71,77.71,0,0,0-13.49-31.12c-7.34-10.06-12.94-18.45-22.6-26-7.6-5.92-26.68-23.91-28-27-3.15-7.37-4.25-14.72.82-21a3.54,3.54,0,0,0,.74-2.42c0-.36-1.37-.88-2-.77a62.55,62.55,0,0,0-8.15,1.76c-12,3.74-24.08,7.38-36,11.47-25,8.58-51.7,15.49-73.41,30.92C428.31,175.91,417,193.43,409,212.52c-10.68,25.48-6.29,63.52,12.88,83.6,21,22,38.33,21.49,37.88,21.84h0c-.28.22-42.61,3.16-41.88,3.16,3.78,3.78,15.17,7,25.33,9.92q-5.25,4.15-10.46,8.27l.6,1h3.84c7.75,0,11.94-.15,19.69-.15a4.62,4.62,0,0,1,0,1c-1,3-27,33-27,60,0,2.81,10.59,1.79,13,3,2,1,1.22,11,2,13,1.47,3.82,8.37-5.43,10-2,1.19,2.52-1.27,9.69,0,12,.28.51,7-6.09,7-4,0,2.91-6.6,39.68-2,41,7,2,6-7,11-6,3.92.78,1.89,8,6,7s5-7,7-7c3,0,4,4,7,8,3.6,4.8,6-6,7-6s3-1,7,4c2.5,3.12,9-8,10-8,2,0,5.33,7.16,7,9,2.27,2.51,4.1-4.71,7-5,4.58-.47,8.07,11.92,11,9,8.63-8.64,8.76-7.74,11-6,5.66,4.39,8,6,12,2,1.34-1.35,5-10,8-5,3.16,5.28,6,9,8,6,3.69-5.54,0-48,3-55,1-2.31,6.08,4.91,8,3,4-4,2.37.18,5-6,1.24-2.93,13.8,2.18,15-1,1.33-3.55-5-26-12-44a151.2,151.2,0,0,0-11-22c7.07,0,8.26-.09,15.33-.09-5.74-6-11.44-12-17.24-17.93-2.17-2.21-4.58-4.17-7-6.33a25.32,25.32,0,0,1,2.13-1.78A20.66,20.66,0,0,0,582.3,313.86Zm-5.6-21.3c-8,6.39-15.33,13.5-23.08,20.16-2.2,1.89-4.84,3.26-7.2,5-8.28,6-16.37,12.33-26,16.07a8.26,8.26,0,0,1-6,.08,111.21,111.21,0,0,1-13.18-8.07c-9.21-6.5-18.06-13.52-27.43-19.77-12.14-8.1-24.71-15.55-34.25-26.95-2.56-3.05-6.33-5.34-8.11-8.73-5.15-9.85-10.05-19.83-11.08-31.29-2.49-27.69,8.62-46.66,34.39-57.63,13.46-5.73,27.65-8.36,42.18-9.34,4.35-.29,8.7-.48,13-.72,18.2.27,36.06,2.73,52.58,10.56,14.64,6.94,28.24,15.73,36.55,30.4,7.72,13.64,9.58,27.81,4.34,43.09S589.11,282.59,576.7,292.56Z"/><path class="cls-51" d="M1120.81,309.83s-22,38.42-27.44,48.94-16.24,29.5-18.76,46-1.83,19.89,0,22.18,7.32,7.09,10.75,6.86,6.4-4.34,7.55-7.09,2.29-5.94,2.29-5.94,3.2,1.9,4.26,1.9,4.12.31,5-2.44,0-4.57-1.53-5.49a11.43,11.43,0,0,1-3.09-2.32c-.51-.69.29-2.23,1.15-3.77s6-9.55,6-9.55.92.05,1.14,1.6,5,12.44,6.31,14.2,2.29,1.83,2.29,3.43-2.52,43.07-2.06,47.11-.84,2.9-2.67,3.73a27.48,27.48,0,0,0-12.35,13.5c-3.73,8.61,8.39,9.6,9.3,9.91s26.84,1.06,30.34,0,11.82-3.89,13-10.6,4.2-42.8,4.2-42.8-.12-2,1.77-1.89,23.15-.23,23.15-.23a1.66,1.66,0,0,1,1.26,1.43c.06,1.14,3.24,41.58,3.55,43a15.46,15.46,0,0,0,10.44,10.06c7.7,2.44,33.54,1.07,33.54,1.07s8.08-2.21,8.16-6.48-.4-6-2.92-9.13-11.32-8.86-11.32-8.86a9,9,0,0,1-.34-3.66c.11-2.69-1.66-47.91-1.66-47.91s2.52-4,4-6.9,4.26-9.46,4.34-11.13,1.18-1.41,1.47-.67,7.09,11,7.72,11.72,1.65,1.37.91,2.12-5,3.71-5.14,5.37c0,0-.8,4.63,3.71,4.75s4.69-1.89,4.69-1.89.86-.12,1.14,1.66,4.86,11.15,7.89,11.72,11.27-2.75,12.87-7.49,1.54-13.67.51-17.95-12.52-41.51-25.1-60-16.46-30.19-19-35.1l-1.37-2.86Z"/><path class="cls-52" d="M1142.68,409.81s7.89,9.91,19.72,11.75,25.52-2.46,29.72-11.75,7.63-36.65-8.68-47.43-32.08-3.16-35,0-10.25,11.57-10,23.41S1140.05,404.37,1142.68,409.81Z"/><path class="cls-51" d="M1262.44,188.61c-16-29.81-44.43-45.36-68.46-49.06,6.85-17.89,3-35.05,1.35-41.33-1.83-6.86-11-17.38-14.8-16.47-3.45.83-9.84,47.33-11.08,56.58-3.57.13-7.19.38-10.84.74-.94-7.12-7.62-56.47-11.17-57.32-3.82-.91-13,9.61-14.8,16.47-1.78,6.67-6,25.61,2.75,44.66a160.76,160.76,0,0,0-23,7c-24.66,9.76-47.83,46.65-48.72,64.64s-11.89,66.78,29.85,102.46c0,0,12,12.81,29,17.07s80.82,7.93,102.8-4.87,36.54-25,43.08-49.71S1278.48,218.5,1262.44,188.61Z"/><circle class="cls-53" cx="1119.03" cy="237.37" r="12.3"/><circle class="cls-53" cx="1221.87" cy="237.37" r="12.3"/><ellipse class="cls-54" cx="1118.78" cy="257.22" rx="12.3" ry="6.15"/><ellipse class="cls-54" cx="1222.54" cy="257.22" rx="12.3" ry="6.15"/><path class="cls-16" d="M1129.39,262.28s-6.63,6.88-2.92,12.75,10.75,9.43,20.39,10.71,42.62,2.8,53-1.79,16.31-14.79,11.86-21.67S1185.41,247,1171,247.75,1136.8,254.12,1129.39,262.28Z"/><path class="cls-53" d="M1162.33,246s0,5.89,3.78,9,9.75,2.81,12.33,0,4.38-10.28,2.79-12.57S1161.54,238.11,1162.33,246Z"/><path class="cls-53" d="M1198.18,268.38a1.48,1.48,0,0,0-1.72-.33c-1.84.56-12.94,2-15.47.15-3-2.27-6.53-8.57-6.64-13.59,0-.05,0-.09,0-.13s0-.09,0-.14,0-.1,0-.14,0-.09,0-.13a.84.84,0,0,0-.06-.14l-.07-.11-.09-.12-.09-.1a.81.81,0,0,0-.1-.09l-.12-.09a.47.47,0,0,0-.12-.07l-.12-.07-.14-.05-.14,0-.14,0h-.33l-.15,0-.14,0-.13.05-.13.07-.12.07a.44.44,0,0,0-.11.09l-.11.09-.09.1-.09.12-.06.11a.91.91,0,0,0-.07.14.5.5,0,0,0,0,.13.57.57,0,0,0,0,.14.78.78,0,0,0,0,.14.51.51,0,0,0,0,.13c-.1,5-3.59,11.32-6.64,13.59-2.53,1.88-13.63.41-15.46-.15a1.49,1.49,0,0,0-1.73.33,1.46,1.46,0,0,0,.08,2.08c.64.6,6.2,1.6,11.27,1.6,3.16,0,6.12-.38,7.61-1.49a22,22,0,0,0,6.35-9.13c1.53,3.89,4,7.38,6.35,9.13,1.49,1.11,4.46,1.49,7.61,1.49,5.08,0,10.64-1,11.28-1.6A1.46,1.46,0,0,0,1198.18,268.38Z"/><path class="cls-55" d="M1105.38,328.37c-.71.31,14.77,2.58,20.18,10.37,16.24,23.35,69.31,71,69.31,71l-33.68-34.54,53-44.78,13.67-4.29s9.06,22.29,30.53,43.35,63.94,36.22,63.94,36.22l-89,20.22v29.33l-130.61-1,5.72-64.27-3,38.43L1022,406.74s37.32-14.86,54.56-30.18S1105.38,328.37,1105.38,328.37Z"/><path class="cls-56" d="M1105.38,328.37c-.71.31,15.78,1.57,21.19,9.36,16.24,23.35,68.3,72,68.3,72l-33.68-34.54,53-44.78,13.67-4.29s9.06,22.29,30.53,43.35,63.94,36.22,63.94,36.22l-89,20.22v29.33l-130.61-1,5.72-64.27-3,38.43L1022,406.74s37.32-14.86,54.56-30.18S1105.38,328.37,1105.38,328.37Z"/><path class="cls-57" d="M802.86,291.78S779,333.6,773,345.05s-17.67,32.12-20.41,50-2,21.66,0,24.15,8,7.72,11.7,7.47,7-4.73,8.21-7.72,2.49-6.47,2.49-6.47,3.49,2.07,4.65,2.07,4.48.34,5.48-2.65,0-5-1.66-6a12.22,12.22,0,0,1-3.36-2.53c-.56-.74.31-2.42,1.24-4.1s6.54-10.4,6.54-10.4,1,.06,1.24,1.74,5.46,13.55,6.87,15.46,2.49,2,2.49,3.73-2.74,46.89-2.24,51.29-.91,3.15-2.91,4.06a30,30,0,0,0-13.44,14.69c-4.07,9.38,9.13,10.46,10.12,10.79s29.21,1.16,33,0,12.86-4.23,14.11-11.53,4.56-46.6,4.56-46.6-.12-2.12,1.93-2.05,25.21-.25,25.21-.25a1.79,1.79,0,0,1,1.37,1.55c.06,1.25,3.52,45.27,3.86,46.76a16.83,16.83,0,0,0,11.36,11c8.39,2.65,36.52,1.16,36.52,1.16s8.79-2.41,8.88-7.05-.44-6.58-3.18-9.94-12.32-9.65-12.32-9.65a9.53,9.53,0,0,1-.37-4c.12-2.93-1.81-52.16-1.81-52.16s2.74-4.35,4.32-7.51,4.64-10.29,4.73-12.11,1.28-1.54,1.59-.73,7.72,12,8.41,12.76,1.8,1.5,1,2.3-5.41,4.05-5.6,5.85c0,0-.87,5,4,5.17s5.1-2.05,5.1-2.05.93-.13,1.24,1.8,5.29,12.14,8.59,12.76,12.26-3,14-8.15,1.68-14.88.56-19.55-13.63-45.18-27.33-65.34-17.92-32.87-20.66-38.22l-1.49-3.11Z"/><path class="cls-58" d="M822,401.07s8.63,10.83,21.57,12.85,27.88-2.69,32.48-12.85,8.34-40.06-9.48-51.84-35.08-3.45-38.24,0-11.22,12.65-10.93,25.59S819.11,395.13,822,401.07Z"/><path class="cls-57" d="M955.05,138.93a103.89,103.89,0,0,0-17.77-23.59c4.06-2.43,8.72-7.86,5-14.08C936.8,92,928.3,91,921.55,95a8.11,8.11,0,0,0-4.07,4.8,106.44,106.44,0,0,0-39.43-14.55c-27-4-63.66.67-91.33,11.34A47.87,47.87,0,0,0,782,98.72,8.78,8.78,0,0,0,778.34,95c-6.75-4-15.25-3-20.75,6.25-3.31,5.55.06,10.47,3.71,13.2-16.39,16.64-28.57,39.47-29.25,52.8-1,19.67-13.33,73,33.5,112,0,0,13.5,14,32.5,18.67s90.67,8.67,115.34-5.33,41-27.34,48.33-54.34S973.05,171.6,955.05,138.93Z"/><path class="cls-16" d="M803.88,210.19s-7.25,7.52-3.19,13.93,11.75,10.32,22.28,11.71,46.6,3.07,57.94-2,17.83-16.17,13-23.69-28.77-16.73-44.57-15.89S812,201.27,803.88,210.19Z"/><path class="cls-53" d="M839.89,192.44s0,6.44,4.13,9.8,10.65,3.07,13.48,0,4.78-11.23,3-13.74S839,183.76,839.89,192.44Z"/><circle class="cls-16" cx="810.34" cy="173.26" r="25.17"/><circle class="cls-16" cx="886.99" cy="172.27" r="25.17"/><circle class="cls-53" cx="817.47" cy="173.03" r="13.42"/><circle class="cls-53" cx="880.77" cy="174.03" r="13.42"/><path class="cls-53" d="M905.74,136s-35.48-4.65-40.38,1.73,62.35,23.92,63.67,17.75S905.74,136,905.74,136Z"/><path class="cls-53" d="M790.63,138.71S825.57,131,831,136.92s-60,29.25-61.88,23.21S790.63,138.71,790.63,138.71Z"/><circle class="cls-59" cx="840.45" cy="393.22" r="3.5"/><polygon class="cls-60" points="787.15 292.72 851.75 298.29 851.46 395.06 851.77 298.01 912.32 292.72 914.96 302.72 925.96 319.72 947.96 373.72 913.46 375.22 911.46 350.22 910.96 398.72 793.96 397.72 794.96 344.72 794.96 374.72 751.96 363.72 786.96 302.72 787.15 292.72"/><line class="cls-61" x1="787.45" y1="302.22" x2="851.45" y2="307.22"/><line class="cls-61" x1="850.95" y1="307.22" x2="914.95" y2="303.22"/><line class="cls-61" x1="844.95" y1="333.55" x2="858.95" y2="333.55"/><line class="cls-61" x1="844.95" y1="347.55" x2="858.95" y2="347.55"/><line class="cls-61" x1="844.95" y1="361.89" x2="858.95" y2="361.89"/><line class="cls-61" x1="844.95" y1="377.89" x2="858.95" y2="377.89"/><circle class="cls-62" cx="860.95" cy="333.55" r="2"/><circle class="cls-62" cx="842.95" cy="333.55" r="2"/><circle class="cls-62" cx="859.95" cy="347.55" r="2"/><circle class="cls-62" cx="842.95" cy="347.55" r="2"/><circle class="cls-62" cx="859.95" cy="361.89" r="2"/><circle class="cls-62" cx="843.95" cy="361.89" r="2"/><circle class="cls-62" cx="859.95" cy="377.89" r="2"/><circle class="cls-62" cx="843.95" cy="377.89" r="2"/><polygon class="cls-63" points="786.18 296.72 817.74 303.22 854.08 333.55 830.97 353.46 832.41 423.22 831.49 354.22 888.1 303.22 915.22 297.72 924.24 311.4 936.81 331.27 964.96 394.36 921.46 396.22 919.24 366.9 922.67 423.57 832.45 424.96 832.45 422.85 788.96 422.4 790.1 360.48 790.1 395.53 740.96 382.68 783.96 305.4 786.18 296.72"/><circle class="cls-59" cx="840.45" cy="372.22" r="3.5"/><circle class="cls-59" cx="840.45" cy="394.22" r="3.5"/><path class="cls-64" d="M866.24,318.7c-4-.89-15-7-15-7s-11,6.08-15,7-7.72-2.4-7.72-5.36V302.08c0-3,3.54-6.21,7.72-5.36,4,.82,15,6.43,15,6.43s11-5.61,15-6.43c4.18-.85,7.71,2.4,7.71,5.36v11.26C874,316.3,870.4,319.62,866.24,318.7Z"/><circle class="cls-65" cx="851.2" cy="307.71" r="6.17"/><path class="cls-66" d="M838.87,304c0,1.28,2.41,2.31,5.39,2.31"/><path class="cls-66" d="M839.4,309.85c.55,1.16,3.18,1,5.87-.23"/><path class="cls-66" d="M864.86,309.35c-.32-1.31-3.79-1.58-7.77-.61"/><path class="cls-66" d="M862.77,305.49c-1.17-1.48-3.77-1.36-5.83.27"/></g></g></svg>