<svg xmlns="http://www.w3.org/2000/svg" xmlns:xlink="http://www.w3.org/1999/xlink" viewBox="0 0 1110.23 485.8"><defs><style>.cls-1{fill:none;}.cls-2{fill:#12a095;}.cls-3{fill:#7e675c;stroke:#040000;}.cls-14,.cls-3{stroke-miterlimit:10;}.cls-4{fill:#dbd0bb;}.cls-11,.cls-5{fill:#fff;}.cls-6{fill:#2b102e;}.cls-7{fill:#d281a6;}.cls-8{fill:#ddb0a6;}.cls-9{fill:#d6b18f;}.cls-10{fill:#ded18e;}.cls-11{font-size:72.31px;font-family:Impact, Impact;}.cls-12{fill:#a77e49;}.cls-13{fill:#af7c58;}.cls-14{fill:#dbad6c;stroke:#979797;}.cls-15{clip-path:url(#clip-path);}.cls-16{fill:#514740;}</style><clipPath id="clip-path"><path class="cls-1" d="M928.64,286.11l8.35,2.08,122.1,90.8a337,337,0,0,0,3.13,34.44c2.51,16.17,6.26,33.39,6.26,33.39L1039.26,428l-16.7,31.3-21.91-29.22L968.3,462.48l-4.08-43.59-47.06,20.23s1-3.78,2.09-21.52-2.09-36.53-2.09-36.53,5.41-11,8.35-33.39S928.64,286.11,928.64,286.11Z"/></clipPath></defs><title>資產 21</title><g id="圖層_2" data-name="圖層 2"><g id="圖層_1-2" data-name="圖層 1"><path class="cls-2" d="M62.11,271.77s-24,42-30,53.5-17.75,32.25-20.5,50.25-2,21.75,0,24.25,8,7.75,11.75,7.5,7-4.75,8.25-7.75,2.5-6.5,2.5-6.5,3.5,2.08,4.66,2.08,4.5.33,5.5-2.67,0-5-1.66-6a12.42,12.42,0,0,1-3.38-2.54c-.56-.75.31-2.43,1.25-4.12S47,369.33,47,369.33s1,.06,1.25,1.75,5.48,13.6,6.9,15.52,2.5,2,2.5,3.75-2.75,47.08-2.25,51.5-.92,3.17-2.92,4.08A30.09,30.09,0,0,0,39,460.68c-4.08,9.42,9.17,10.5,10.17,10.84s29.33,1.16,33.17,0,12.91-4.25,14.16-11.59,4.59-46.79,4.59-46.79a1.86,1.86,0,0,1,1.93-2.06c2.07.06,25.32-.25,25.32-.25a1.8,1.8,0,0,1,1.37,1.56c.06,1.25,3.54,45.46,3.88,47a16.92,16.92,0,0,0,11.41,11c8.42,2.67,36.67,1.17,36.67,1.17s8.83-2.42,8.92-7.09-.44-6.6-3.19-10S175,444.77,175,444.77a9.59,9.59,0,0,1-.37-4c.12-2.94-1.81-52.38-1.81-52.38s2.75-4.37,4.33-7.54,4.67-10.33,4.75-12.17,1.29-1.54,1.6-.72S191.29,380,192,380.77s1.81,1.5,1,2.31-5.44,4.06-5.62,5.88c0,0-.88,5.06,4.06,5.18s5.12-2.06,5.12-2.06.94-.12,1.25,1.81,5.32,12.19,8.63,12.82,12.31-3,14.06-8.19,1.69-14.94.56-19.63-13.68-45.37-27.43-65.62-18-33-20.75-38.38l-1.5-3.12Z"/><path class="cls-3" d="M629,280.53s-23.9,41.82-29.87,53.27-17.68,32.12-20.42,50-2,21.66,0,24.15,8,7.72,11.7,7.47,7-4.73,8.22-7.72,2.49-6.47,2.49-6.47,3.48,2.07,4.64,2.07,4.49.33,5.48-2.65,0-5-1.66-6a12.22,12.22,0,0,1-3.36-2.53c-.56-.75.31-2.43,1.25-4.11S614,377.68,614,377.68s1,.06,1.25,1.74,5.45,13.55,6.86,15.46,2.49,2,2.49,3.73-2.74,46.89-2.24,51.29-.91,3.15-2.9,4.06A29.89,29.89,0,0,0,606,468.65c-4.06,9.38,9.13,10.46,10.13,10.79s29.21,1.16,33,0,12.87-4.23,14.11-11.54,4.57-46.59,4.57-46.59a1.86,1.86,0,0,1,1.93-2.06c2.05.07,25.2-.25,25.2-.25a1.81,1.81,0,0,1,1.37,1.56c.06,1.25,3.53,45.27,3.86,46.76a16.85,16.85,0,0,0,11.37,11c8.38,2.65,36.51,1.16,36.51,1.16s8.8-2.41,8.88-7.06-.44-6.57-3.17-9.93-12.33-9.65-12.33-9.65a9.53,9.53,0,0,1-.37-4c.12-2.93-1.81-52.16-1.81-52.16s2.74-4.35,4.32-7.51,4.65-10.29,4.73-12.11,1.29-1.54,1.6-.73,7.71,12,8.4,12.76,1.8,1.49,1,2.3-5.41,4.05-5.6,5.85c0,0-.87,5,4,5.17s5.1-2.06,5.1-2.06.94-.12,1.25,1.81,5.29,12.13,8.59,12.76,12.26-3,14-8.16,1.68-14.87.56-19.54S773.64,342,760,321.85,742,289,739.28,283.64l-1.49-3.11Z"/><path class="cls-4" d="M648.13,389.82s8.62,10.83,21.56,12.84,27.89-2.68,32.49-12.84,8.33-40.06-9.49-51.85-35.08-3.45-38.24,0-11.21,12.65-10.92,25.59S645.25,383.88,648.13,389.82Z"/><path class="cls-3" d="M781.2,127.68a104.22,104.22,0,0,0-17.78-23.59c4.06-2.44,8.73-7.86,5-14.08-5.5-9.25-14-10.25-20.75-6.25a8.12,8.12,0,0,0-4.08,4.79A106.61,106.61,0,0,0,704.2,74c-27-4-63.67.67-91.34,11.33a51.63,51.63,0,0,0-4.71,2.12,8.85,8.85,0,0,0-3.67-3.7c-6.75-4-15.25-3-20.75,6.25-3.3,5.55.06,10.47,3.71,13.19-16.39,16.65-28.56,39.48-29.24,52.81-1,19.67-13.34,73,33.5,112,0,0,13.5,14,32.5,18.67s90.66,8.66,115.33-5.34,41-27.33,48.33-54.33S799.2,160.34,781.2,127.68Z"/><path class="cls-5" d="M630,198.93s-7.24,7.53-3.19,13.94,11.75,10.31,22.29,11.71,46.59,3.06,57.94-2,17.82-16.17,13-23.7-28.77-16.72-44.57-15.88S638.12,190,630,198.93Z"/><path class="cls-6" d="M666,181.19s0,6.43,4.13,9.79,10.65,3.08,13.48,0,4.79-11.23,3.05-13.73S665.16,172.51,666,181.19Z"/><circle class="cls-5" cx="636.48" cy="162.01" r="25.17"/><circle class="cls-5" cx="713.13" cy="161.01" r="25.17"/><circle class="cls-6" cx="643.61" cy="161.78" r="13.42"/><circle class="cls-6" cx="706.91" cy="162.78" r="13.42"/><path class="cls-6" d="M718.12,119.1s-32.94,14-33.94,22,65.88-11,63.88-17S718.12,119.1,718.12,119.1Z"/><path class="cls-6" d="M629.31,119.1s32.94,14,33.94,22-65.88-11-63.88-17S629.31,119.1,629.31,119.1Z"/><path class="cls-7" d="M334,266.09s-25.61,44.82-32,57.09-18.94,34.41-21.88,53.61-2.13,23.21,0,25.88,8.54,8.27,12.54,8,7.47-5.07,8.8-8.27,2.67-6.93,2.67-6.93,3.74,2.22,5,2.22,4.8.35,5.87-2.85,0-5.33-1.78-6.4a13.34,13.34,0,0,1-3.6-2.71c-.6-.8.33-2.6,1.33-4.4s7-11.14,7-11.14,1.06.07,1.33,1.87,5.85,14.51,7.36,16.56,2.66,2.13,2.66,4-2.93,50.24-2.4,54.95-1,3.38-3.11,4.36a32,32,0,0,0-14.4,15.74c-4.36,10,9.78,11.2,10.84,11.55s31.3,1.25,35.39,0,13.79-4.53,15.12-12.35,4.89-49.93,4.89-49.93a2,2,0,0,1,2.07-2.2c2.2.06,27-.27,27-.27a1.91,1.91,0,0,1,1.46,1.67c.07,1.33,3.78,48.5,4.14,50.1s3.2,8.89,12.18,11.74,39.12,1.24,39.12,1.24,9.43-2.57,9.52-7.55-.47-7.05-3.41-10.65-13.2-10.34-13.2-10.34a10.36,10.36,0,0,1-.4-4.27c.13-3.13-1.93-55.88-1.93-55.88s2.93-4.67,4.62-8,5-11,5.07-13,1.38-1.64,1.71-.78,8.27,12.87,9,13.67,1.94,1.6,1.07,2.47-5.8,4.34-6,6.27c0,0-.94,5.4,4.33,5.54s5.47-2.21,5.47-2.21,1-.13,1.34,1.94,5.66,13,9.2,13.67,13.14-3.2,15-8.74,1.8-15.93.6-20.94-14.6-48.41-29.27-70-19.21-35.21-22.14-40.94l-1.6-3.34Z"/><path class="cls-8" d="M359.52,382.71s9.21,11.55,23,13.7,29.76-2.86,34.67-13.7,8.89-42.74-10.13-55.32-37.42-3.68-40.8,0-12,13.5-11.65,27.3S356.46,376.37,359.52,382.71Z"/><path class="cls-7" d="M499.21,124.71c-18.67-34.78-51.82-52.91-79.85-57.23,8-20.87,3.53-40.88,1.57-48.21-2.13-8-12.8-20.27-17.26-19.2-4,1-11.47,55.19-12.91,66-4.17.15-8.4.44-12.65.86-1.1-8.3-8.89-65.86-13-66.85C360.62-1,350,11.27,347.82,19.27c-2.08,7.78-7,29.87,3.2,52.1a186.13,186.13,0,0,0-26.81,8.17c-28.76,11.38-55.79,54.42-56.83,75.4s-13.87,77.89,34.82,119.5c0,0,14,14.94,33.79,19.92s94.26,9.25,119.9-5.69,42.63-29.16,50.25-58S517.93,159.56,499.21,124.71Z"/><circle class="cls-6" cx="331.94" cy="181.57" r="14.35"/><circle class="cls-6" cx="451.89" cy="181.57" r="14.35"/><ellipse class="cls-9" cx="331.65" cy="204.72" rx="14.35" ry="7.17"/><ellipse class="cls-9" cx="452.68" cy="204.72" rx="14.35" ry="7.17"/><path class="cls-5" d="M344,210.63s-7.72,8-3.4,14.87,12.54,11,23.78,12.49,49.72,3.27,61.82-2.08,19-17.25,13.84-25.28-30.7-17.84-47.56-16.95S352.67,201.11,344,210.63Z"/><path class="cls-6" d="M382.45,191.69s0,6.87,4.41,10.46,11.36,3.28,14.38,0,5.1-12,3.25-14.65S381.52,182.44,382.45,191.69Z"/><path class="cls-6" d="M424.27,217.74a1.74,1.74,0,0,0-2-.38c-2.14.66-15.09,2.37-18,.17-3.55-2.64-7.62-10-7.74-15.85,0-.05,0-.1,0-.14s0-.12,0-.17a1.09,1.09,0,0,0-.05-.17.88.88,0,0,0-.05-.15,1.09,1.09,0,0,0-.08-.15,1.19,1.19,0,0,0-.18-.27,1.47,1.47,0,0,0-.1-.13l-.13-.1a.69.69,0,0,0-.13-.11l-.14-.08a.71.71,0,0,0-.15-.08l-.16,0-.16-.05-.17,0-.15,0h-.07l-.16,0-.17,0-.16.05-.16,0-.15.08-.14.08-.13.11-.12.1a.64.64,0,0,0-.1.13.69.69,0,0,0-.11.13s-.05.09-.08.14a1.09,1.09,0,0,1-.08.15s0,.1,0,.15a1.09,1.09,0,0,1-.05.17s0,.11,0,.17,0,.09,0,.14c-.13,5.86-4.19,13.21-7.75,15.85-2.95,2.2-15.9.49-18-.17a1.73,1.73,0,0,0-1.93,2.82c.75.69,7.23,1.86,13.15,1.86,3.68,0,7.14-.45,8.87-1.74,2.74-2,5.63-6.11,7.41-10.65,1.78,4.54,4.68,8.61,7.41,10.65,1.74,1.29,5.2,1.74,8.87,1.74,5.93,0,12.41-1.17,13.16-1.86A1.73,1.73,0,0,0,424.27,217.74Z"/><path class="cls-10" d="M74.38,272.5S104,290,114.75,290c11,.05,45.39-18.56,45.39-18.56l14.89-2s-5.47,2-7.18,31.49a76.15,76.15,0,0,0,4.94,31.25l9.29,30.55,3.9,44.66L48,409.43,46,369l7.91-16.67s6.92-17.68,9.22-44.21c3-34.8-4.64-37.63-4.64-37.63Z"/><text class="cls-11" transform="translate(100.5 381.25) scale(1.05 1)">1</text><path class="cls-2" d="M34.78,257.69s13.16,14,31.67,18.67S154.79,285,178.82,271s40-27.33,47.1-54.33,11-66.67-6.5-99.33-48.72-49.67-75-53.67-62,.67-89,11.33S3.12,126,2.14,145.69-10.85,218.69,34.78,257.69Z"/><circle class="cls-6" cx="59.54" cy="169.03" r="13.45"/><circle class="cls-6" cx="171.96" cy="169.03" r="13.45"/><ellipse class="cls-9" cx="59.26" cy="190.73" rx="13.45" ry="6.72"/><ellipse class="cls-9" cx="172.69" cy="190.73" rx="13.45" ry="6.72"/><path class="cls-5" d="M70.86,196.27s-7.24,7.52-3.19,13.94S79.42,220.52,90,221.91,136.55,225,147.9,220s17.83-16.17,13-23.69-28.76-16.72-44.57-15.89S79,187.35,70.86,196.27Z"/><path class="cls-6" d="M106.87,178.52s0,6.44,4.13,9.8,10.65,3.07,13.48,0,4.79-11.23,3-13.73S106,169.84,106.87,178.52Z"/><path class="cls-6" d="M146.06,202.93a1.62,1.62,0,0,0-1.89-.35c-2,.61-14.13,2.22-16.9.16-3.33-2.48-7.14-9.36-7.26-14.86a.68.68,0,0,0,0-.14.76.76,0,0,0,0-.15c0-.06,0-.11,0-.16s0-.1-.05-.14l-.07-.14c0-.05,0-.09-.07-.14l-.1-.12a.52.52,0,0,0-.1-.11l-.12-.1a.58.58,0,0,0-.12-.1l-.13-.08-.14-.07-.15-.05-.15,0-.16,0h-.35l-.17,0-.15,0-.14.05-.14.07-.14.08-.12.1a1.56,1.56,0,0,0-.21.21l-.1.12a.91.91,0,0,0-.07.14.61.61,0,0,0-.07.14.58.58,0,0,0,0,.14.75.75,0,0,0,0,.16s0,.1,0,.15,0,.09,0,.14c-.12,5.5-3.93,12.38-7.26,14.86-2.77,2.06-14.9.45-16.9-.16a1.62,1.62,0,0,0-1.81,2.64c.7.65,6.78,1.74,12.33,1.74,3.44,0,6.69-.42,8.31-1.63,2.56-1.91,5.27-5.73,6.94-10,1.67,4.25,4.38,8.07,7,10,1.62,1.21,4.87,1.63,8.31,1.63,5.55,0,11.63-1.09,12.33-1.74A1.62,1.62,0,0,0,146.06,202.93Z"/><path class="cls-12" d="M936.46,276.71s-25,43.83-31.31,55.83S886.63,366.2,883.76,385s-2.09,22.69,0,25.3,8.35,8.09,12.26,7.83,7.31-5,8.61-8.09,2.61-6.78,2.61-6.78,3.65,2.17,4.87,2.17,4.7.35,5.74-2.78,0-5.22-1.74-6.26a13,13,0,0,1-3.52-2.65c-.59-.79.33-2.55,1.3-4.31s6.85-10.89,6.85-10.89,1,.06,1.31,1.82,5.72,14.2,7.19,16.2,2.61,2.09,2.61,3.92S929,449.6,929.5,454.21s-1,3.31-3,4.26a31.33,31.33,0,0,0-14.09,15.4c-4.26,9.82,9.57,10.95,10.61,11.3s30.61,1.22,34.62,0,13.47-4.43,14.78-12.09,4.78-48.83,4.78-48.83-.13-2.22,2-2.15,26.42-.26,26.42-.26a1.88,1.88,0,0,1,1.44,1.63c.06,1.3,3.69,47.44,4,49A17.65,17.65,0,0,0,1023,484c8.79,2.79,38.27,1.22,38.27,1.22s9.22-2.52,9.31-7.39-.46-6.89-3.33-10.41-12.92-10.11-12.92-10.11a10.12,10.12,0,0,1-.39-4.18c.13-3.06-1.89-54.66-1.89-54.66s2.87-4.56,4.52-7.87,4.87-10.78,5-12.7,1.35-1.6,1.67-.76,8.09,12.59,8.81,13.37,1.89,1.57,1,2.42-5.67,4.24-5.87,6.13c0,0-.91,5.28,4.24,5.41s5.35-2.15,5.35-2.15,1-.13,1.31,1.89,5.54,12.72,9,13.37,12.85-3.13,14.67-8.54,1.76-15.59.59-20.48-14.28-47.36-28.63-68.49-18.79-34.44-21.66-40l-1.56-3.26Z"/><path class="cls-13" d="M961.41,390.77s9,11.3,22.5,13.4,29.11-2.8,33.91-13.4,8.7-41.8-9.9-54.11-36.61-3.6-39.91,0-11.7,13.21-11.4,26.71S958.41,384.57,961.41,390.77Z"/><path class="cls-12" d="M1097.15,121a108.52,108.52,0,0,0-6.27-10.25c.11-1,.06-2.13.07-3a49.2,49.2,0,0,0-.36-6.19,5.43,5.43,0,0,0,.36-1.75,249.3,249.3,0,0,0-4.09-54.4,4.45,4.45,0,0,0-.15-.58c-.12-2.79-1.2-5-4.14-6.05-3.9-1.34-8.35,1.29-11.08,3.87l-.57.56a49.36,49.36,0,0,0-5.44,3.08,32.85,32.85,0,0,0-7.19,7c-6.81,4.55-17.46,12-22.86,15.83A100.15,100.15,0,0,0,1018.86,65C999,62,974,63.71,951,69.1c-7.09-5-23.43-16.45-28-19.13a27.27,27.27,0,0,0-3.31-2.68,47.14,47.14,0,0,0-5.45-3.09c-.18-.18-.37-.37-.57-.55-2.72-2.59-7.17-5.22-11.07-3.88-2.94,1-4,3.27-4.14,6a4.91,4.91,0,0,0-.15.58,248.68,248.68,0,0,0-4.09,54.4,7,7,0,0,0,.15,1.08c-13.7,16.46-23.39,36.42-24,48.68-1,20.52-13.56,76.18,34.06,116.87,0,0,13.73,14.61,33,19.48s92.19,9,117.28-5.56,41.69-28.53,49.14-56.7S1115.46,155.08,1097.15,121Z"/><circle class="cls-6" cx="930.3" cy="182.49" r="14.03"/><circle class="cls-6" cx="1047.62" cy="182.49" r="14.03"/><ellipse class="cls-9" cx="930.01" cy="205.14" rx="14.03" ry="7.02"/><ellipse class="cls-9" cx="1048.39" cy="205.14" rx="14.03" ry="7.02"/><path class="cls-5" d="M942.12,210.91s-7.56,7.86-3.33,14.55,12.26,10.76,23.25,12.22,48.63,3.19,60.47-2,18.61-16.87,13.53-24.73-30-17.45-46.51-16.58S950.57,201.61,942.12,210.91Z"/><path class="cls-6" d="M979.7,192.39s0,6.72,4.31,10.22,11.12,3.22,14.06,0,5-11.71,3.18-14.32S978.79,183.34,979.7,192.39Z"/><path class="cls-6" d="M1020.6,217.87a1.68,1.68,0,0,0-2-.37c-2.09.64-14.76,2.31-17.65.16-3.47-2.58-7.45-9.76-7.57-15.5a.68.68,0,0,0,0-.14.78.78,0,0,0,0-.16c0-.06,0-.11,0-.17s0-.1-.05-.15l-.08-.15-.08-.13a.64.64,0,0,0-.1-.13l-.1-.12-.12-.11-.13-.1-.14-.08-.14-.07a.76.76,0,0,0-.16-.06l-.15,0-.17,0h-.37a.86.86,0,0,0-.17,0l-.16,0-.15.06-.15.07-.14.08-.12.1a1.31,1.31,0,0,0-.12.11l-.11.12a1.47,1.47,0,0,0-.1.13.83.83,0,0,0-.07.13,1.09,1.09,0,0,0-.08.15l0,.15a1.09,1.09,0,0,0,0,.17s0,.1,0,.16,0,.09,0,.14c-.12,5.74-4.1,12.92-7.58,15.5-2.89,2.16-15.55.48-17.64-.16a1.69,1.69,0,0,0-1.89,2.75c.73.68,7.08,1.82,12.87,1.82,3.6,0,7-.44,8.68-1.7,2.67-2,5.5-6,7.24-10.42,1.74,4.44,4.57,8.43,7.25,10.42,1.69,1.26,5.08,1.7,8.68,1.7,5.79,0,12.13-1.14,12.86-1.82A1.69,1.69,0,0,0,1020.6,217.87Z"/><path class="cls-14" d="M928.64,286.11l8.35,2.08,122.1,90.8a337,337,0,0,0,3.13,34.44c2.51,16.17,6.26,33.39,6.26,33.39L1039.26,428l-16.7,31.3-21.91-29.22L968.3,462.48l-4.08-43.59-47.06,20.23s1-3.78,2.09-21.52-2.09-36.53-2.09-36.53,5.41-11,8.35-33.39S928.64,286.11,928.64,286.11Z"/><g class="cls-15"><ellipse class="cls-16" cx="925.51" cy="322.63" rx="8.35" ry="12.52"/><ellipse class="cls-16" cx="965.16" cy="333.07" rx="8.35" ry="6.26"/><ellipse class="cls-16" cx="1041.87" cy="372.72" rx="12" ry="8.35"/><ellipse class="cls-16" cx="946.9" cy="385.77" rx="9.91" ry="10.96"/><ellipse class="cls-16" cx="999.6" cy="390.99" rx="7.31" ry="6.78"/><ellipse class="cls-16" cx="957.34" cy="421.77" rx="12" ry="10.44"/><ellipse class="cls-16" cx="1001.69" cy="361.77" rx="13.57" ry="8.87"/><ellipse class="cls-16" cx="1061.87" cy="411.34" rx="6.96" ry="10.44" transform="translate(-63.41 586.04) rotate(-30)"/><ellipse class="cls-16" cx="1012.65" cy="439.52" rx="15.13" ry="12.52"/></g></g></g></svg>