<svg id="圖層_1" data-name="圖層 1" xmlns="http://www.w3.org/2000/svg" xmlns:xlink="http://www.w3.org/1999/xlink" viewBox="0 0 393 538"><defs><style>.cls-1{fill:none;}.cls-2{fill:#efff8a;}.cls-3{fill:#ebe4ba;}.cls-4{fill:#b67a50;}.cls-5{fill:#725741;}.cls-6{fill:#7e675c;}.cls-24,.cls-6{stroke:#040000;}.cls-24,.cls-26,.cls-30,.cls-6{stroke-miterlimit:10;}.cls-7{fill:#dbd0bb;}.cls-34,.cls-8{fill:#207d99;}.cls-33,.cls-34,.cls-35,.cls-9{opacity:0.7;}.cls-10{clip-path:url(#clip-path);}.cls-11{fill:#0e283c;}.cls-12,.cls-32,.cls-37{fill:#174a67;}.cls-13,.cls-35,.cls-36{fill:#004e3f;}.cls-14,.cls-33{fill:#0b1a27;}.cls-15{fill:#c37c53;}.cls-16{opacity:0.71;}.cls-17{clip-path:url(#clip-path-2);}.cls-18{fill:#684033;}.cls-19{fill:#d9a866;}.cls-20{fill:#864a2d;}.cls-21{fill:#d58f5d;}.cls-22{fill:#f0d09b;}.cls-23{fill:#b0724c;}.cls-24{fill:#d39c63;}.cls-25{fill:#fff;}.cls-26{fill:#dfe282;stroke:#86bc43;}.cls-27{fill:#1e0e06;}.cls-28{fill:#5b3b24;}.cls-29{fill:#040000;}.cls-30{fill:#edecd9;stroke:#b37952;}.cls-31{fill:#b37952;}.cls-32{opacity:0.8;}.cls-36,.cls-37{opacity:0.5;}.cls-38{fill:#28210c;}</style><clipPath id="clip-path"><path class="cls-1" d="M139.61,400c0,1.82-2.86,49.08-2.34,53.68s-1,3.3-3,4.26a31.3,31.3,0,0,0-14.08,15.38c-4.25,9.81,9.56,10.94,10.6,11.29s30.58,1.22,34.58,0,13.46-4.43,14.77-12.07,4.77-48.78,4.77-48.78-.13-2.22,2-2.15,26.39-.27,26.39-.27a1.9,1.9,0,0,1,1.44,1.63c.06,1.31,3.69,47.39,4,49a17.65,17.65,0,0,0,11.91,11.46c8.77,2.78,38.22,1.22,38.22,1.22s9.21-2.52,9.3-7.38-.46-6.89-3.33-10.41-12.9-10.1-12.9-10.1a10,10,0,0,1-.39-4.17c.12-2.75-1.51-44.85-1.83-53.17H139.56A3.89,3.89,0,0,1,139.61,400Z"/></clipPath><clipPath id="clip-path-2"><path class="cls-1" d="M309.41,388.33c-1.18-4.88-14.27-47.3-28.61-68.41s-18.76-34.4-21.63-40l-1.56-3.26H143.71s-25,43.78-31.27,55.77-18.5,33.62-21.37,52.39c-1,6.58-1.56,11.34-1.77,14.85h36.21a4.34,4.34,0,0,0-2.12-3.47,13.06,13.06,0,0,1-3.52-2.65c-.59-.79.32-2.54,1.3-4.3S128,378.37,128,378.37s1,.06,1.31,1.82,5.71,14.18,7.18,16.18c1.3,1.75,2.32,2,2.56,3.3H259.23c0-.92-.06-1.43-.06-1.43s2.87-4.56,4.52-7.86,4.86-10.78,4.95-12.69,1.35-1.6,1.67-.76,8.08,12.58,8.8,13.36,1.89,1.56,1,2.41-5.67,4.23-5.86,6.12a6.09,6.09,0,0,0-.07.85h36A46.3,46.3,0,0,0,309.41,388.33Z"/></clipPath></defs><title>0122</title><ellipse class="cls-2" cx="212.53" cy="476.46" rx="117.54" ry="56.1"/><path class="cls-3" d="M110.91,146.12a21.92,21.92,0,0,0-13.82-1.52c-7.81,1.69-27.35,5.91-39.09-3s-15.09-13.09-17.06-18.4-1.14-12.84-4.49-17l-6.72-8.36c-1.12-1.39-6.42.57-8.38-4.73l-5.89-15.9c-2-5.31-2.81-9.21-2.53-11.73,0,0-.85-3.9.27-2.51s37.23,54.93,45.33,62.18S76.42,136,85.35,135.69s8.93-.29,10.6-3.92,3.34-7.27-9-22.6S62.91,73.48,59.28,71.81s-5-.55-8.11-7.25-21-40.44-21-40.44-3.09-6.7,4.18-3.36S71,57.83,72.1,59.22s-1.94,6.15-1.94,6.15,32.74,49.35,38.89,51.3,17.86-.59,19.22-24.6c0,0-12.61-24.27-26-41L76.5,19s-5.32-9.49,6.42-.57S103,32.09,103.89,36s-.55,5,2.8,9.21.85,3.9,9.23,8.63A41.08,41.08,0,0,1,133,72.24s7,28.74,4.81,37.4S123,128.37,124.71,136.18s3.66,13.12,8.68,13.67,9.76-7.84,14.78-7.29,7,5.85,2.81,9.21-12.27,7.56-11.42,11.47S342.43,447.36,342.43,447.36s5.32,9.48,7,5.85,3.61-9.78,2.77-13.68.55-5,6.14,1.94,4.52,28.47,5.09,34.89-1.95,6.14-9.49,5.32-25.69-9.17-32.41-17.53,8.93-.3,11.45,0,7.81-1.69,5.57-4.48S131.19,170,131.19,170s-2.24-2.79-6.42.57-15.33,12.31-19,10.64-2-5.3-.57-6.42l15.33-12.31S123.06,151.26,110.91,146.12Z"/><path class="cls-4" d="M33.8,25.79s28,34.85,26.58,36-6.13,9.5-7,5.59S33.52,28.3,33.8,25.79Z"/><path class="cls-5" d="M54.8,66.23s3.91-.84,3.07-4.75-4.2-8.09-4.2-8.09,2,5.3,1.68,7.82S53.41,67.35,54.8,66.23Z"/><path class="cls-4" d="M60.67,70.69s1.67-3.63,2.79-2.24,38.89,51.3,39.74,55.21.84,3.9-2,6.14-3.92-10.6-8.4-16.18S60.67,70.69,60.67,70.69Z"/><path class="cls-5" d="M55.65,70.14s6.14,1.94,5,.55,2.79-2.24,4.19-3.36,5.3-2,5.57-4.47.28-2.52-2.24-2.79-9.2,2.8-10.87,6.44Z"/><path class="cls-4" d="M16.29,69.65s7.28,14.78,10.64,19l15.66,19.52c1.12,1.39,7.56,12.27,7.29,14.78s-8.09,4.2-7.82,1.69-1.71-19.26-5.34-20.93-7.83-9.76-10.34-10-5.6-7-7.56-12.27A52.92,52.92,0,0,1,16.29,69.65Z"/><path class="cls-4" d="M51.56,130.72s21.8,10,25.7,9.17,12.84-1.14,10,1.1-9.48,5.32-18.14,3.1-16.76-9.46-17.88-10.85A1.76,1.76,0,0,1,51.56,130.72Z"/><path class="cls-5" d="M50.17,131.84a5.51,5.51,0,0,1,3.91-.84c2.51.27,3.35,4.18,3.63,1.67s-4.48-5.58-7-5.85-5.3,2-4.18,3.35,6.71,8.37,8.11,7.25S50.17,131.84,50.17,131.84Z"/><path class="cls-4" d="M95.13,139.3s12.84-1.13,16.47.53,15.1,13.1,15.94,17-17,15.94-17.28,18.45-5.3,2-5.3,2,18.12-14.54,18.4-17.06-6.17-13.39-9.8-15.05S96,143.21,96,143.21,92.61,139,95.13,139.3Z"/><path class="cls-5" d="M98.19,134.55s12.84-1.14,14,.26l10.07,12.54s-10.62-7.52-15.65-8.07S94.28,135.4,98.19,134.55Z"/><path class="cls-4" d="M108.59,178.92s1.12,1.4,3.91-.84,13.94-11.19,16.45-10.92,9,11.15,9,11.15l202,280.22s1.12,1.4.27-2.51S132,162.41,132,162.41s-1.12-1.39-8.09,4.2Z"/><path class="cls-4" d="M325.15,465.81c-1.12-1.39,17,6.95,23.46,6.39s9.49-5.32,10.31-12.86a55,55,0,0,0-.86-15.36s3.94,22,3.39,27.08,2.54,11.72-1.1,10.05S330.75,472.78,325.15,465.81Z"/><path class="cls-4" d="M339.39,463.56s6.14,1.94,7.54.82,1.94-6.14,1.94-6.14-4.18,3.35-5.3,2S339.39,463.56,339.39,463.56Z"/><path class="cls-6" d="M143.72,276.88s-25,43.78-31.28,55.77S93.94,366.27,91.07,385s-2.09,22.67,0,25.28,8.34,8.08,12.25,7.81,7.3-4.95,8.6-8.07,2.61-6.78,2.61-6.78,3.64,2.17,4.86,2.17,4.69.35,5.73-2.78,0-5.21-1.73-6.25a13.06,13.06,0,0,1-3.52-2.65c-.59-.79.32-2.54,1.3-4.3S128,378.59,128,378.59s1.05.06,1.31,1.82,5.71,14.18,7.18,16.18,2.61,2.08,2.61,3.91-2.87,49.08-2.34,53.69-1,3.3-3.05,4.25a31.34,31.34,0,0,0-14.07,15.38c-4.26,9.82,9.56,10.95,10.6,11.29s30.58,1.22,34.58,0,13.46-4.43,14.76-12.07,4.78-48.78,4.78-48.78-.13-2.22,2-2.15,26.39-.26,26.39-.26a1.87,1.87,0,0,1,1.43,1.63c.07,1.3,3.7,47.39,4,48.95a17.66,17.66,0,0,0,11.9,11.47c8.78,2.78,38.23,1.21,38.23,1.21s9.21-2.52,9.29-7.38-.45-6.88-3.32-10.4-12.9-10.1-12.9-10.1a10.09,10.09,0,0,1-.39-4.17c.13-3.06-1.89-54.6-1.89-54.6s2.87-4.56,4.52-7.86,4.86-10.78,4.95-12.69,1.35-1.61,1.67-.76,8.08,12.58,8.8,13.36,1.89,1.56,1,2.41-5.67,4.23-5.86,6.12c0,0-.92,5.28,4.23,5.41s5.34-2.15,5.34-2.15,1-.13,1.31,1.89,5.54,12.71,9,13.36S307,414.42,308.82,409s1.76-15.57.59-20.46-14.27-47.3-28.61-68.41-18.76-34.4-21.63-40l-1.56-3.26Z"/><path class="cls-7" d="M163.74,391.3s9,11.33,22.57,13.44,29.2-2.81,34-13.44,8.73-41.94-9.93-54.28-36.72-3.61-40,0-11.74,13.24-11.44,26.79S160.73,385.08,163.74,391.3Z"/><path class="cls-8" d="M138.57,399.47c0,1.83-2.87,49.09-2.35,53.69s-1,3.3-3,4.26a31.21,31.21,0,0,0-14.07,15.37c-4.26,9.82,9.55,10.95,10.59,11.3s30.58,1.21,34.58,0,13.47-4.43,14.77-12.08,4.78-48.78,4.78-48.78a1.94,1.94,0,0,1,2-2.15c2.15.07,26.39-.26,26.39-.26a1.89,1.89,0,0,1,1.43,1.63c.06,1.3,3.69,47.39,4,48.95a17.64,17.64,0,0,0,11.9,11.47c8.77,2.78,38.22,1.22,38.22,1.22s9.21-2.52,9.3-7.39-.46-6.88-3.32-10.4-12.9-10.1-12.9-10.1a9.86,9.86,0,0,1-.39-4.17c.11-2.76-1.51-44.85-1.84-53.17H138.51A2.8,2.8,0,0,1,138.57,399.47Z"/><g class="cls-9"><g class="cls-10"><polygon class="cls-11" points="257.78 424.03 249.68 424.03 245.63 431.04 249.68 438.06 257.78 438.06 261.83 431.04 257.78 424.03"/><polygon class="cls-12" points="258.04 438.32 249.95 438.32 245.9 445.33 249.95 452.35 258.04 452.35 262.09 445.33 258.04 438.32"/><polygon class="cls-13" points="232.85 394.84 224.75 394.84 220.7 401.85 224.75 408.87 232.85 408.87 236.89 401.85 232.85 394.84"/><polygon class="cls-8" points="245.02 401.99 236.92 401.99 232.87 409 236.92 416.01 245.02 416.01 249.07 409 245.02 401.99"/><polygon class="cls-14" points="257.19 394.84 249.09 394.84 245.04 401.85 249.09 408.87 257.19 408.87 261.24 401.85 257.19 394.84"/><polygon class="cls-13" points="257.46 408.87 249.36 408.87 245.31 415.88 249.36 422.89 257.46 422.89 261.5 415.88 257.46 408.87"/><polygon class="cls-14" points="245.28 416.01 237.19 416.01 233.14 423.02 237.19 430.04 245.28 430.04 249.33 423.02 245.28 416.01"/><polygon class="cls-12" points="233.11 409.13 225.01 409.13 220.97 416.14 225.01 423.16 233.11 423.16 237.16 416.14 233.11 409.13"/><polygon class="cls-14" points="158.53 408.04 150.44 408.04 146.39 415.06 150.44 422.07 158.53 422.07 162.58 415.06 158.53 408.04"/><polygon class="cls-8" points="170.7 415.19 162.61 415.19 158.56 422.2 162.61 429.21 170.7 429.21 174.75 422.2 170.7 415.19"/><polygon class="cls-12" points="170.7 401.16 162.61 401.16 158.56 408.18 162.61 415.19 170.7 415.19 174.75 408.18 170.7 401.16"/><polygon class="cls-13" points="182.88 408.04 174.78 408.04 170.73 415.06 174.78 422.07 182.88 422.07 186.93 415.06 182.88 408.04"/><polygon class="cls-12" points="183.14 422.07 175.04 422.07 171 429.08 175.04 436.09 183.14 436.09 187.19 429.08 183.14 422.07"/><polygon class="cls-14" points="170.97 429.21 162.87 429.21 158.82 436.23 162.87 443.24 170.97 443.24 175.02 436.23 170.97 429.21"/><polygon class="cls-14" points="158.8 422.33 150.7 422.33 146.65 429.35 150.7 436.36 158.8 436.36 162.84 429.35 158.8 422.33"/><polygon class="cls-14" points="183.47 436.62 175.37 436.62 171.32 443.64 175.37 450.65 183.47 450.65 187.51 443.64 183.47 436.62"/><polygon class="cls-8" points="258.45 465.75 250.35 465.75 246.3 472.77 250.35 479.78 258.45 479.78 262.5 472.77 258.45 465.75"/><polygon class="cls-13" points="258.45 451.73 250.35 451.73 246.3 458.74 250.35 465.75 258.45 465.75 262.5 458.74 258.45 451.73"/><polygon class="cls-13" points="270.62 458.61 262.53 458.61 258.48 465.62 262.53 472.63 270.62 472.63 274.67 465.62 270.62 458.61"/><polygon class="cls-13" points="221.42 446.05 213.32 446.05 209.27 453.06 213.32 460.07 221.42 460.07 225.47 453.06 221.42 446.05"/><polygon class="cls-12" points="270.89 472.63 262.79 472.63 258.74 479.65 262.79 486.66 270.89 486.66 274.94 479.65 270.89 472.63"/><polygon class="cls-12" points="219.59 402.49 211.49 402.49 207.44 409.5 211.49 416.52 219.59 416.52 223.64 409.5 219.59 402.49"/><polygon class="cls-12" points="219.59 417.15 211.49 417.15 207.44 424.16 211.49 431.17 219.59 431.17 223.64 424.16 219.59 417.15"/><polygon class="cls-12" points="233.2 422.38 225.1 422.38 221.05 429.4 225.1 436.41 233.2 436.41 237.25 429.4 233.2 422.38"/><polygon class="cls-12" points="221.68 431.81 213.59 431.81 209.54 438.82 213.59 445.83 221.68 445.83 225.73 438.82 221.68 431.81"/><polygon class="cls-12" points="243.67 430.76 235.57 430.76 231.52 437.77 235.57 444.78 243.67 444.78 247.72 437.77 243.67 430.76"/><polygon class="cls-14" points="258.71 479.78 250.62 479.78 246.57 486.79 250.62 493.8 258.71 493.8 262.76 486.79 258.71 479.78"/><polygon class="cls-8" points="233.32 453.19 225.23 453.19 221.18 460.2 225.23 467.22 233.32 467.22 237.37 460.2 233.32 453.19"/><polygon class="cls-13" points="233.32 439.17 225.23 439.17 221.18 446.18 225.23 453.19 233.32 453.19 237.37 446.18 233.32 439.17"/><polygon class="cls-13" points="245.5 446.05 237.4 446.05 233.35 453.06 237.4 460.07 245.5 460.07 249.55 453.06 245.5 446.05"/><polygon class="cls-12" points="245.76 460.07 237.66 460.07 233.62 467.08 237.66 474.1 245.76 474.1 249.81 467.08 245.76 460.07"/><polygon class="cls-14" points="233.59 467.22 225.49 467.22 221.44 474.23 225.49 481.24 233.59 481.24 237.64 474.23 233.59 467.22"/><polygon class="cls-14" points="245.1 474.54 237.01 474.54 232.96 481.56 237.01 488.57 245.1 488.57 249.15 481.56 245.1 474.54"/><polygon class="cls-14" points="221.03 459.89 212.93 459.89 208.88 466.9 212.93 473.91 221.03 473.91 225.08 466.9 221.03 459.89"/><polygon class="cls-13" points="183.73 450.91 175.63 450.91 171.58 457.93 175.63 464.94 183.73 464.94 187.78 457.93 183.73 450.91"/><polygon class="cls-13" points="133.48 465.57 125.38 465.57 121.33 472.58 125.38 479.6 133.48 479.6 137.53 472.58 133.48 465.57"/><polygon class="cls-11" points="195.02 400.75 186.92 400.75 182.87 407.76 186.92 414.77 195.02 414.77 199.07 407.76 195.02 400.75"/><polygon class="cls-8" points="207.19 407.89 199.09 407.89 195.04 414.9 199.09 421.92 207.19 421.92 211.24 414.9 207.19 407.89"/><polygon class="cls-11" points="207.19 393.87 199.09 393.87 195.04 400.88 199.09 407.89 207.19 407.89 211.24 400.88 207.19 393.87"/><polygon class="cls-11" points="195.28 415.04 187.19 415.04 183.14 422.05 187.19 429.06 195.28 429.06 199.33 422.05 195.28 415.04"/><polygon class="cls-8" points="183.13 394.55 175.03 394.55 170.99 401.56 175.03 408.57 183.13 408.57 187.18 401.56 183.13 394.55"/><polygon class="cls-11" points="145.76 443.92 137.66 443.92 133.62 450.93 137.66 457.95 145.76 457.95 149.81 450.93 145.76 443.92"/><polygon class="cls-8" points="157.93 451.07 149.84 451.07 145.79 458.08 149.84 465.09 157.93 465.09 161.98 458.08 157.93 451.07"/><polygon class="cls-12" points="157.93 437.04 149.84 437.04 145.79 444.05 149.84 451.07 157.93 451.07 161.98 444.05 157.93 437.04"/><polygon class="cls-11" points="170.11 443.92 162.01 443.92 157.96 450.93 162.01 457.95 170.11 457.95 174.16 450.93 170.11 443.92"/><polygon class="cls-14" points="170.37 457.95 162.27 457.95 158.22 464.96 162.27 471.97 170.37 471.97 174.42 464.96 170.37 457.95"/><polygon class="cls-14" points="181.89 465.27 173.79 465.27 169.74 472.29 173.79 479.3 181.89 479.3 185.94 472.29 181.89 465.27"/><polygon class="cls-14" points="157.81 465.27 149.71 465.27 145.66 472.29 149.71 479.3 157.81 479.3 161.86 472.29 157.81 465.27"/><polygon class="cls-14" points="157.81 479.93 149.71 479.93 145.66 486.94 149.71 493.96 157.81 493.96 161.86 486.94 157.81 479.93"/><polygon class="cls-14" points="170.37 472.6 162.27 472.6 158.22 479.62 162.27 486.63 170.37 486.63 174.42 479.62 170.37 472.6"/><polygon class="cls-12" points="146.03 458.21 137.93 458.21 133.88 465.22 137.93 472.24 146.03 472.24 150.07 465.22 146.03 458.21"/><polygon class="cls-12" points="144.98 473.91 136.88 473.91 132.83 480.93 136.88 487.94 144.98 487.94 149.03 480.93 144.98 473.91"/><polygon class="cls-14" points="145.17 414.73 137.08 414.73 133.03 421.75 137.08 428.76 145.17 428.76 149.22 421.75 145.17 414.73"/><polygon class="cls-13" points="145.44 428.76 137.34 428.76 133.29 435.77 137.34 442.78 145.44 442.78 149.49 435.77 145.44 428.76"/><polygon class="cls-12" points="156.78 392.02 148.68 392.02 144.63 399.04 148.68 406.05 156.78 406.05 160.82 399.04 156.78 392.02"/><polygon class="cls-14" points="144.6 399.17 136.51 399.17 132.46 406.18 136.51 413.19 144.6 413.19 148.65 406.18 144.6 399.17"/></g></g><path class="cls-15" d="M309.41,388.33c-1.18-4.88-14.27-47.3-28.61-68.41s-18.76-34.4-21.63-40l-1.56-3.26H143.71s-25,43.78-31.27,55.77-18.5,33.62-21.37,52.39c-1,6.58-1.56,11.34-1.77,14.85h36.21a4.34,4.34,0,0,0-2.12-3.47,13.06,13.06,0,0,1-3.52-2.65c-.59-.79.32-2.54,1.3-4.3S128,378.37,128,378.37s1,.06,1.31,1.82,5.71,14.18,7.18,16.18c1.3,1.75,2.32,2,2.56,3.3H259.23c0-.92-.06-1.43-.06-1.43s2.87-4.56,4.52-7.86,4.86-10.78,4.95-12.69,1.35-1.6,1.67-.76,8.08,12.58,8.8,13.36,1.89,1.56,1,2.41-5.67,4.23-5.86,6.12a6.09,6.09,0,0,0-.07.85h36A46.3,46.3,0,0,0,309.41,388.33Z"/><g class="cls-16"><g class="cls-17"><polygon class="cls-18" points="222.94 306.25 214.84 306.25 210.79 313.27 214.84 320.28 222.94 320.28 226.99 313.27 222.94 306.25"/><polygon class="cls-19" points="235.11 313.4 227.01 313.4 222.96 320.41 227.01 327.43 235.11 327.43 239.16 320.41 235.11 313.4"/><polygon class="cls-19" points="211.03 298.74 202.93 298.74 198.88 305.76 202.93 312.77 211.03 312.77 215.08 305.76 211.03 298.74"/><polygon class="cls-19" points="221.5 291.42 213.4 291.42 209.35 298.43 213.4 305.44 221.5 305.44 225.55 298.43 221.5 291.42"/><polygon class="cls-19" points="223.59 276.76 215.5 276.76 211.45 283.77 215.5 290.78 223.59 290.78 227.64 283.77 223.59 276.76"/><polygon class="cls-20" points="235.11 299.38 227.01 299.38 222.96 306.39 227.01 313.4 235.11 313.4 239.16 306.39 235.11 299.38"/><polygon class="cls-20" points="184.86 295.19 176.76 295.19 172.71 302.2 176.76 309.21 184.86 309.21 188.91 302.2 184.86 295.19"/><polygon class="cls-20" points="172.3 275.3 164.2 275.3 160.15 282.31 164.2 289.32 172.3 289.32 176.34 282.31 172.3 275.3"/><polygon class="cls-21" points="247.28 306.25 239.19 306.25 235.14 313.27 239.19 320.28 247.28 320.28 251.33 313.27 247.28 306.25"/><polygon class="cls-19" points="247.55 320.28 239.45 320.28 235.4 327.29 239.45 334.31 247.55 334.31 251.59 327.29 247.55 320.28"/><polygon class="cls-22" points="235.37 327.43 227.28 327.43 223.23 334.44 227.28 341.45 235.37 341.45 239.42 334.44 235.37 327.43"/><polygon class="cls-22" points="223.2 320.54 215.1 320.54 211.06 327.56 215.1 334.57 223.2 334.57 227.25 327.56 223.2 320.54"/><polygon class="cls-22" points="247.87 334.84 239.77 334.84 235.72 341.85 239.77 348.86 247.87 348.86 251.92 341.85 247.87 334.84"/><polygon class="cls-20" points="260.04 341.98 251.94 341.98 247.9 348.99 251.94 356.01 260.04 356.01 264.09 348.99 260.04 341.98"/><polygon class="cls-21" points="260.04 327.96 251.94 327.96 247.9 334.97 251.94 341.98 260.04 341.98 264.09 334.97 260.04 327.96"/><polygon class="cls-21" points="272.21 334.84 264.12 334.84 260.07 341.85 264.12 348.86 272.21 348.86 276.26 341.85 272.21 334.84"/><polygon class="cls-19" points="272.48 348.86 264.38 348.86 260.33 355.87 264.38 362.89 272.48 362.89 276.53 355.87 272.48 348.86"/><polygon class="cls-18" points="260.31 356.01 252.21 356.01 248.16 363.02 252.21 370.03 260.31 370.03 264.36 363.02 260.31 356.01"/><polygon class="cls-19" points="248.13 349.13 240.04 349.13 235.99 356.14 240.04 363.15 248.13 363.15 252.18 356.14 248.13 349.13"/><polygon class="cls-21" points="259.42 298.96 251.33 298.96 247.28 305.97 251.33 312.98 259.42 312.98 263.47 305.97 259.42 298.96"/><polygon class="cls-19" points="271.6 306.1 263.5 306.1 259.45 313.12 263.5 320.13 271.6 320.13 275.64 313.12 271.6 306.1"/><polygon class="cls-19" points="286.25 314.48 278.16 314.48 274.11 321.49 278.16 328.5 286.25 328.5 290.3 321.49 286.25 314.48"/><polygon class="cls-21" points="271.6 292.08 263.5 292.08 259.45 299.09 263.5 306.1 271.6 306.1 275.64 299.09 271.6 292.08"/><polygon class="cls-22" points="271.86 320.13 263.76 320.13 259.71 327.14 263.76 334.15 271.86 334.15 275.91 327.14 271.86 320.13"/><polygon class="cls-21" points="259.69 313.25 251.59 313.25 247.54 320.26 251.59 327.27 259.69 327.27 263.74 320.26 259.69 313.25"/><polygon class="cls-21" points="259.71 285.62 251.61 285.62 247.56 292.63 251.61 299.64 259.71 299.64 263.76 292.63 259.71 285.62"/><polygon class="cls-20" points="247.54 292.76 239.44 292.76 235.39 299.77 239.44 306.79 247.54 306.79 251.59 299.77 247.54 292.76"/><polygon class="cls-21" points="235.36 285.88 227.27 285.88 223.22 292.89 227.27 299.91 235.36 299.91 239.41 292.89 235.36 285.88"/><polygon class="cls-23" points="210.17 342.13 202.07 342.13 198.02 349.15 202.07 356.16 210.17 356.16 214.22 349.15 210.17 342.13"/><polygon class="cls-20" points="222.34 349.28 214.24 349.28 210.19 356.29 214.24 363.3 222.34 363.3 226.39 356.29 222.34 349.28"/><polygon class="cls-18" points="222.34 335.25 214.24 335.25 210.19 342.27 214.24 349.28 222.34 349.28 226.39 342.27 222.34 335.25"/><polygon class="cls-23" points="234.51 342.13 226.41 342.13 222.37 349.15 226.41 356.16 234.51 356.16 238.56 349.15 234.51 342.13"/><polygon class="cls-23" points="247.07 276.18 238.98 276.18 234.93 283.19 238.98 290.2 247.07 290.2 251.12 283.19 247.07 276.18"/><polygon class="cls-23" points="235.56 269.9 227.46 269.9 223.41 276.91 227.46 283.92 235.56 283.92 239.61 276.91 235.56 269.9"/><polygon class="cls-23" points="261.73 270.94 253.63 270.94 249.59 277.96 253.63 284.97 261.73 284.97 265.78 277.96 261.73 270.94"/><polygon class="cls-22" points="234.78 356.16 226.68 356.16 222.63 363.17 226.68 370.18 234.78 370.18 238.82 363.17 234.78 356.16"/><polygon class="cls-18" points="210.43 356.42 202.33 356.42 198.28 363.44 202.33 370.45 210.43 370.45 214.48 363.44 210.43 356.42"/><polygon class="cls-21" points="185.23 312.94 177.14 312.94 173.09 319.96 177.14 326.97 185.23 326.97 189.28 319.96 185.23 312.94"/><polygon class="cls-21" points="172.67 304.57 164.57 304.57 160.53 311.58 164.57 318.59 172.67 318.59 176.72 311.58 172.67 304.57"/><polygon class="cls-20" points="197.41 320.09 189.31 320.09 185.26 327.1 189.31 334.11 197.41 334.11 201.46 327.1 197.41 320.09"/><polygon class="cls-22" points="209.58 312.94 201.48 312.94 197.43 319.96 201.48 326.97 209.58 326.97 213.63 319.96 209.58 312.94"/><polygon class="cls-21" points="209.84 326.97 201.75 326.97 197.7 333.98 201.75 340.99 209.84 340.99 213.89 333.98 209.84 326.97"/><polygon class="cls-19" points="197.35 332.97 188.61 332.97 184.24 340.53 188.61 348.1 197.35 348.1 201.72 340.53 197.35 332.97"/><polygon class="cls-20" points="185.5 327.23 177.4 327.23 173.35 334.25 177.4 341.26 185.5 341.26 189.55 334.25 185.5 327.23"/><polygon class="cls-19" points="273.19 363.83 265.09 363.83 261.04 370.85 265.09 377.86 273.19 377.86 277.24 370.85 273.19 363.83"/><polygon class="cls-19" points="285.36 356.95 277.26 356.95 273.21 363.97 277.26 370.98 285.36 370.98 289.41 363.97 285.36 356.95"/><polygon class="cls-19" points="297.53 363.83 289.44 363.83 285.39 370.85 289.44 377.86 297.53 377.86 301.58 370.85 297.53 363.83"/><polygon class="cls-19" points="197.03 304.16 188.93 304.16 184.88 311.17 188.93 318.19 197.03 318.19 201.08 311.17 197.03 304.16"/><polygon class="cls-18" points="285.35 329.17 277.25 329.17 273.2 336.18 277.25 343.2 285.35 343.2 289.4 336.18 285.35 329.17"/><polygon class="cls-20" points="297.52 336.32 289.43 336.32 285.38 343.33 289.43 350.34 297.52 350.34 301.57 343.33 297.52 336.32"/><polygon class="cls-19" points="297.79 350.34 289.69 350.34 285.64 357.35 289.69 364.37 297.79 364.37 301.84 357.35 297.79 350.34"/><polygon class="cls-21" points="285.62 343.46 277.52 343.46 273.47 350.47 277.52 357.49 285.62 357.49 289.66 350.47 285.62 343.46"/><polygon class="cls-19" points="235.49 370.52 227.39 370.52 223.34 377.54 227.39 384.55 235.49 384.55 239.53 377.54 235.49 370.52"/><polygon class="cls-22" points="247.66 377.67 239.56 377.67 235.51 384.68 239.56 391.69 247.66 391.69 251.71 384.68 247.66 377.67"/><polygon class="cls-18" points="247.66 363.64 239.56 363.64 235.51 370.65 239.56 377.67 247.66 377.67 251.71 370.65 247.66 363.64"/><polygon class="cls-18" points="259.83 370.52 251.73 370.52 247.68 377.54 251.73 384.55 259.83 384.55 263.88 377.54 259.83 370.52"/><polygon class="cls-18" points="274.49 378.9 266.39 378.9 262.34 385.91 266.39 392.92 274.49 392.92 278.54 385.91 274.49 378.9"/><polygon class="cls-18" points="260.09 384.55 252 384.55 247.95 391.56 252 398.57 260.09 398.57 264.14 391.56 260.09 384.55"/><polygon class="cls-23" points="247.92 391.69 239.82 391.69 235.78 398.7 239.82 405.72 247.92 405.72 251.97 398.7 247.92 391.69"/><polygon class="cls-20" points="235.75 384.81 227.65 384.81 223.6 391.82 227.65 398.84 235.75 398.84 239.8 391.82 235.75 384.81"/><polygon class="cls-18" points="161.17 383.73 153.07 383.73 149.03 390.74 153.07 397.75 161.17 397.75 165.22 390.74 161.17 383.73"/><polygon class="cls-22" points="173.34 390.87 165.25 390.87 161.2 397.88 165.25 404.89 173.34 404.89 177.39 397.88 173.34 390.87"/><polygon class="cls-20" points="173.34 376.85 165.25 376.85 161.2 383.86 165.25 390.87 173.34 390.87 177.39 383.86 173.34 376.85"/><polygon class="cls-20" points="185.52 383.73 177.42 383.73 173.37 390.74 177.42 397.75 185.52 397.75 189.56 390.74 185.52 383.73"/><polygon class="cls-23" points="223.4 363.97 215.3 363.97 211.25 370.98 215.3 377.99 223.4 377.99 227.45 370.98 223.4 363.97"/><polygon class="cls-20" points="222.23 378.17 214.13 378.17 210.08 385.19 214.13 392.2 222.23 392.2 226.28 385.19 222.23 378.17"/><polygon class="cls-18" points="222.23 392.83 214.13 392.83 210.08 399.84 214.13 406.86 222.23 406.86 226.28 399.84 222.23 392.83"/><polygon class="cls-23" points="197.66 376.43 189.56 376.43 185.51 383.44 189.56 390.45 197.66 390.45 201.71 383.44 197.66 376.43"/><polygon class="cls-22" points="209.83 383.57 201.73 383.57 197.68 390.58 201.73 397.6 209.83 397.6 213.88 390.58 209.83 383.57"/><polygon class="cls-23" points="209.83 369.55 201.73 369.55 197.68 376.56 201.73 383.57 209.83 383.57 213.88 376.56 209.83 369.55"/><polygon class="cls-20" points="197.92 390.72 189.82 390.72 185.78 397.73 189.82 404.74 197.92 404.74 201.97 397.73 197.92 390.72"/><polygon class="cls-18" points="171.08 349.1 162.34 349.1 157.98 356.67 162.34 364.24 171.08 364.24 175.45 356.67 171.08 349.1"/><polygon class="cls-23" points="185.5 356.21 177.41 356.21 173.36 363.22 177.41 370.23 185.5 370.23 189.55 363.22 185.5 356.21"/><polygon class="cls-19" points="185.5 342.18 177.41 342.18 173.36 349.19 177.41 356.21 185.5 356.21 189.55 349.19 185.5 342.18"/><polygon class="cls-18" points="197.68 349.06 189.58 349.06 185.53 356.07 189.58 363.09 197.68 363.09 201.73 356.07 197.68 349.06"/><polygon class="cls-23" points="197.94 363.09 189.84 363.09 185.8 370.1 189.84 377.11 197.94 377.11 201.99 370.1 197.94 363.09"/><polygon class="cls-22" points="185.77 370.23 177.67 370.23 173.62 377.24 177.67 384.26 185.77 384.26 189.82 377.24 185.77 370.23"/><polygon class="cls-23" points="173.6 363.35 165.5 363.35 161.45 370.36 165.5 377.38 173.6 377.38 177.65 370.36 173.6 363.35"/><polygon class="cls-20" points="147.8 390.47 139.69 390.47 135.63 397.5 139.69 404.52 147.8 404.52 151.85 397.5 147.8 390.47"/><polygon class="cls-18" points="122.05 332.24 113.95 332.24 109.9 339.26 113.95 346.27 122.05 346.27 126.09 339.26 122.05 332.24"/><polygon class="cls-23" points="122.05 318.22 113.95 318.22 109.9 325.23 113.95 332.24 122.05 332.24 126.09 325.23 122.05 318.22"/><polygon class="cls-21" points="134.22 325.1 126.12 325.1 122.07 332.11 126.12 339.12 134.22 339.12 138.27 332.11 134.22 325.1"/><polygon class="cls-18" points="134.48 339.12 126.39 339.12 122.34 346.14 126.39 353.15 134.48 353.15 138.53 346.14 134.48 339.12"/><polygon class="cls-23" points="122.31 346.27 114.21 346.27 110.16 353.28 114.21 360.29 122.31 360.29 126.36 353.28 122.31 346.27"/><polygon class="cls-23" points="110.14 339.39 102.04 339.39 97.99 346.4 102.04 353.41 110.14 353.41 114.19 346.4 110.14 339.39"/><polygon class="cls-20" points="134.77 353.68 126.66 353.68 122.61 360.7 126.66 367.73 134.77 367.73 138.83 360.7 134.77 353.68"/><polygon class="cls-18" points="146.98 360.82 138.88 360.82 134.83 367.84 138.88 374.85 146.98 374.85 151.03 367.84 146.98 360.82"/><polygon class="cls-21" points="146.98 346.8 138.88 346.8 134.83 353.81 138.88 360.82 146.98 360.82 151.03 353.81 146.98 346.8"/><polygon class="cls-21" points="159.15 353.68 151.05 353.68 147 360.69 151.05 367.7 159.15 367.7 163.2 360.69 159.15 353.68"/><polygon class="cls-21" points="172.76 333.79 164.66 333.79 160.61 340.8 164.66 347.81 172.76 347.81 176.81 340.8 172.76 333.79"/><polygon class="cls-23" points="159.41 367.7 151.32 367.7 147.27 374.72 151.32 381.73 159.41 381.73 163.46 374.72 159.41 367.7"/><polygon class="cls-20" points="147.23 374.88 139.12 374.88 135.06 381.91 139.12 388.93 147.23 388.93 151.28 381.91 147.23 374.88"/><polygon class="cls-23" points="146.36 317.8 138.26 317.8 134.21 324.81 138.26 331.83 146.36 331.83 150.41 324.81 146.36 317.8"/><polygon class="cls-20" points="158.53 324.95 150.44 324.95 146.39 331.96 150.44 338.97 158.53 338.97 162.58 331.96 158.53 324.95"/><polygon class="cls-23" points="158.53 310.92 150.44 310.92 146.39 317.93 150.44 324.95 158.53 324.95 162.58 317.93 158.53 310.92"/><polygon class="cls-23" points="171.09 288.94 163 288.94 158.95 295.95 163 302.96 171.09 302.96 175.14 295.95 171.09 288.94"/><polygon class="cls-23" points="184.71 280.56 176.61 280.56 172.56 287.57 176.61 294.59 184.71 294.59 188.75 287.57 184.71 280.56"/><polygon class="cls-23" points="197.27 288.94 189.17 288.94 185.12 295.95 189.17 302.96 197.27 302.96 201.32 295.95 197.27 288.94"/><polygon class="cls-23" points="209.83 282.66 201.73 282.66 197.68 289.67 201.73 296.68 209.83 296.68 213.88 289.67 209.83 282.66"/><polygon class="cls-23" points="198.31 272.19 190.22 272.19 186.17 279.2 190.22 286.21 198.31 286.21 202.36 279.2 198.31 272.19"/><polygon class="cls-23" points="145.97 274.28 137.87 274.28 133.82 281.29 137.87 288.31 145.97 288.31 150.02 281.29 145.97 274.28"/><polygon class="cls-23" points="171.09 318.25 163 318.25 158.95 325.26 163 332.27 171.09 332.27 175.14 325.26 171.09 318.25"/><polygon class="cls-23" points="158.8 338.97 150.7 338.97 146.65 345.98 150.7 353 158.8 353 162.85 345.98 158.8 338.97"/><polygon class="cls-23" points="146.62 332.09 138.53 332.09 134.48 339.1 138.53 346.12 146.62 346.12 150.67 339.1 146.62 332.09"/><polygon class="cls-18" points="157.63 282.06 149.53 282.06 145.48 289.07 149.53 296.09 157.63 296.09 161.68 289.07 157.63 282.06"/><polygon class="cls-18" points="160.77 267.4 152.67 267.4 148.62 274.42 152.67 281.43 160.77 281.43 164.82 274.42 160.77 267.4"/><polygon class="cls-18" points="159.72 296.72 151.63 296.72 147.58 303.73 151.63 310.74 159.72 310.74 163.77 303.73 159.72 296.72"/><polygon class="cls-18" points="134.21 297.58 126.11 297.58 122.06 304.59 126.11 311.61 134.21 311.61 138.26 304.59 134.21 297.58"/><polygon class="cls-18" points="146.38 290.44 138.28 290.44 134.23 297.45 138.28 304.46 146.38 304.46 150.43 297.45 146.38 290.44"/><polygon class="cls-23" points="146.65 304.46 138.55 304.46 134.5 311.47 138.55 318.49 146.65 318.49 150.69 311.47 146.65 304.46"/><polygon class="cls-20" points="134.47 311.61 126.38 311.61 122.33 318.62 126.38 325.63 134.47 325.63 138.52 318.62 134.47 311.61"/><polygon class="cls-21" points="122.3 304.73 114.2 304.73 110.15 311.74 114.2 318.75 122.3 318.75 126.35 311.74 122.3 304.73"/><polygon class="cls-23" points="109.28 354.1 101.18 354.1 97.13 361.11 101.18 368.12 109.28 368.12 113.32 361.11 109.28 354.1"/><polygon class="cls-18" points="121.45 360.98 113.35 360.98 109.3 367.99 113.35 375 121.45 375 125.5 367.99 121.45 360.98"/><polygon class="cls-18" points="134.01 368.31 125.91 368.31 121.86 375.32 125.91 382.33 134.01 382.33 138.06 375.32 134.01 368.31"/><polygon class="cls-18" points="134.01 381.92 125.91 381.92 121.86 388.93 125.91 395.94 134.01 395.94 138.06 388.93 134.01 381.92"/></g></g><path class="cls-24" d="M303.05,116.86a109.39,109.39,0,0,0-18.61-24.7c4.25-2.54,9.13-8.22,5.26-14.73-5.76-9.69-14.65-10.73-21.72-6.55-2.65,1.58-3.83,3.38-4.27,5a111.58,111.58,0,0,0-41.27-15.22c-28.27-4.19-66.65.7-95.62,11.86-1.65.64-3.3,1.39-4.94,2.22A9.26,9.26,0,0,0,118,70.88c-7.06-4.18-16-3.14-21.72,6.55-3.45,5.81.07,11,3.89,13.81-17.16,17.43-29.91,41.32-30.62,55.28-1,20.59-14,76.42,35.07,117.25,0,0,14.14,14.66,34,19.55s94.92,9.07,120.74-5.59,42.92-28.61,50.6-56.88S321.89,151.06,303.05,116.86Z"/><path class="cls-25" d="M144.78,191.46s-7.58,7.88-3.34,14.59,12.3,10.8,23.33,12.25,48.78,3.21,60.66-2,18.67-16.92,13.58-24.8S208.89,174,192.35,174.83,153.27,182.12,144.78,191.46Z"/><circle class="cls-25" cx="151.55" cy="152.8" r="26.35"/><circle class="cls-25" cx="231.79" cy="151.76" r="26.35"/><circle class="cls-26" cx="159.01" cy="152.56" r="14.05"/><circle class="cls-26" cx="225.28" cy="153.61" r="14.05"/><path class="cls-27" d="M237,107.88s-34.48,14.63-35.53,23,69-11.5,66.88-17.77S237,107.88,237,107.88Z"/><path class="cls-27" d="M144,107.88s34.49,14.63,35.53,23-69-11.5-66.87-17.77S144,107.88,144,107.88Z"/><path class="cls-27" d="M301.4,167.26s-4.19,23-8.38,35.59S275.23,228,266.85,234.26c-7.22,5.42-20.19,2.09-28.26-1.95s-10.1-8.07-20.2-8.07-32.31-2-44.43,0-10.09-2-16.15,4-6.27,14.55-13.44,13.31c-24.08-4.19-40.78-13-45-20.94-16.75-31.41-23-74.48-23-78.52,0-2.06-8.45,16.12-9.42,36.64-.94,19.62,5.55,41.46,7.32,46.07,5.24,13.61,29.32,45,48.16,54.44,24.58,12.28,55.62,9.58,69.76,9.58s56-2.41,67.38-8.54c13.61-7.33,33.92-23.11,37.69-28.26C308.73,236.35,322.94,189.47,301.4,167.26Z"/><path class="cls-27" d="M248.64,200s-8.69-4.12-12,1.21-3.89,10.39-9,13.25c-6.06,3.38-5.9,2.38-14.14,2.38s-26.35-1.33-36.23,0-9.06.64-15-1.18c-7.89-2.41-5.63-1.2-10.14-3.61-1.22-.65-6.77-7.23-7.89-9.64-3-6.33-8,1.71-12.06-8.43-1.62-4,3,17.3,3,23.95s8.78,24.43,15.37,32.42,30,9.07,41.53,9.07,32.85.45,42.15-3.56C247,250.3,250.35,225.47,248.64,200Z"/><path class="cls-28" d="M137.06,212.92s9.51,22.94,11.49,20.29c3.14-4.19-1-15.7-1-24.85.07-9.49-.1-16.84,5.16-19.12s50-3.68,57.93-1.4,18.4,0,21,9.12-1.92,31.13,6,26.57,12.53-29.64,12.43-33.41c-.1-4-4.24-8.45-23.66-13.68,0,0-28.48-2.6-34.35-2.31-20.51,1-16,0-26.2,3-15.48,4.47-19.37,3-25.07,5.93-3.19,1.66-9.12,5.93-9,11.66C131.86,197.9,137.06,212.92,137.06,212.92Z"/><path class="cls-28" d="M152.74,245.77c2.21,7.49,4.36,20.14,17.8,24.08s42.43,0,47.81,0,13.44-3.94,16.13-19.73,2.68-19.73,0-23.68-4.58,14-12.64,10-8.87-2.13-14.25-6.07-27.34-2.9-30.77,2.82c-3.14,5.24-16.75,6.28-20.94,2.1C150.14,229.57,149.07,233.3,152.74,245.77Z"/><path class="cls-29" d="M182.48,172.88s0,6.74,4.33,10.25,11.15,3.23,14.11,0,5-11.75,3.19-14.37S181.57,163.79,182.48,172.88Z"/><path class="cls-29" d="M220.31,198.66a1.53,1.53,0,0,0-1.79-.33c-1.89.58-13.34,2.09-16,.15-3.14-2.34-6.74-8.84-6.85-14,0,0,0-.08,0-.12s0-.1,0-.15a.88.88,0,0,0-.05-.15.65.65,0,0,0,0-.13c0-.05,0-.09-.07-.14a.75.75,0,0,0-.07-.12l-.09-.12-.09-.11-.11-.09-.12-.09-.12-.07-.13-.07-.14-.05-.14,0-.16,0-.13,0h-.07l-.13,0-.16,0-.14,0-.14.05-.13.07-.12.07-.12.09-.11.09-.09.11-.09.12a.75.75,0,0,0-.07.12l-.07.14a.65.65,0,0,0,0,.13.88.88,0,0,0-.05.15s0,.1,0,.15,0,.08,0,.12c-.11,5.19-3.71,11.69-6.85,14-2.61,1.94-14.06.43-15.95-.15a1.53,1.53,0,0,0-1.71,2.49c.66.61,6.4,1.64,11.63,1.64,3.26,0,6.32-.39,7.85-1.54,2.42-1.8,5-5.4,6.55-9.42,1.58,4,4.14,7.62,6.56,9.42,1.53,1.15,4.59,1.54,7.85,1.54,5.23,0,11-1,11.63-1.64A1.53,1.53,0,0,0,220.31,198.66Z"/><polygon class="cls-18" points="260.57 408.04 138.09 407 132.85 391.29 263.71 391.29 260.57 408.04"/><path class="cls-30" d="M209.52,413.4s2.2-.8,2.8-6a29.51,29.51,0,0,0-6.06-20.72c-5.52-7-7.48-8.23-7.48-8.23s-.92-1.16-3.36,1.72-6.63,11.88-8.15,15.92-.27,11.56-.27,11.56l1.48,5.44s.92,1.16,1,.12-.56-4.28-.08-8.44a21.54,21.54,0,0,1,3-8.08,7.81,7.81,0,0,1,6.84-4.48c5.32-.45,10.25,11.71,10,13.79a45.34,45.34,0,0,1,.44,5.32l-.24,2.08"/><path class="cls-31" d="M197.62,379.37l-.39,12.6a15.06,15.06,0,0,0-3.36,1.72c-1.16.92-2.56,3.92-4,6.92,0,0-1.87,7.16-1.07,9.36a19.9,19.9,0,0,1,.75-15.72C193.66,386.29,192.74,385.13,197.62,379.37Z"/><path class="cls-31" d="M198.66,379.49c-.12,1,11.29,11.83,12.53,19.35s-1.6-4.4-3.44-6.72S198.66,379.49,198.66,379.49Z"/><rect class="cls-31" x="138.61" y="392.71" width="5.54" height="6.32" rx="1.14" ry="1.14"/><rect class="cls-31" x="145.45" y="392.71" width="5.54" height="6.32" rx="1.14" ry="1.14"/><rect class="cls-31" x="152.29" y="392.71" width="5.54" height="6.32" rx="1.14" ry="1.14"/><rect class="cls-31" x="159.13" y="392.71" width="5.54" height="6.32" rx="1.14" ry="1.14"/><rect class="cls-31" x="165.97" y="392.71" width="5.54" height="6.32" rx="1.14" ry="1.14"/><rect class="cls-31" x="172.81" y="392.71" width="5.54" height="6.32" rx="1.14" ry="1.14"/><rect class="cls-31" x="179.65" y="392.71" width="5.54" height="6.32" rx="1.14" ry="1.14"/><rect class="cls-31" x="138.61" y="399.63" width="5.54" height="6.32" rx="1.14" ry="1.14"/><rect class="cls-31" x="145.45" y="399.63" width="5.54" height="6.32" rx="1.14" ry="1.14"/><rect class="cls-31" x="152.29" y="399.63" width="5.54" height="6.32" rx="1.14" ry="1.14"/><rect class="cls-31" x="159.13" y="399.63" width="5.54" height="6.32" rx="1.14" ry="1.14"/><rect class="cls-31" x="165.97" y="399.63" width="5.54" height="6.32" rx="1.14" ry="1.14"/><rect class="cls-31" x="172.81" y="399.63" width="5.54" height="6.32" rx="1.14" ry="1.14"/><rect class="cls-31" x="179.65" y="399.63" width="5.54" height="6.32" rx="1.14" ry="1.14"/><rect class="cls-31" x="213.98" y="392.71" width="5.54" height="6.32" rx="1.14" ry="1.14"/><rect class="cls-31" x="220.83" y="392.71" width="5.54" height="6.32" rx="1.14" ry="1.14"/><rect class="cls-31" x="227.67" y="392.71" width="5.54" height="6.32" rx="1.14" ry="1.14"/><rect class="cls-31" x="234.51" y="392.71" width="5.54" height="6.32" rx="1.14" ry="1.14"/><rect class="cls-31" x="241.35" y="392.71" width="5.54" height="6.32" rx="1.14" ry="1.14"/><rect class="cls-31" x="248.19" y="392.71" width="5.54" height="6.32" rx="1.14" ry="1.14"/><rect class="cls-31" x="255.03" y="392.71" width="5.54" height="6.32" rx="1.14" ry="1.14"/><rect class="cls-31" x="213.98" y="399.63" width="5.54" height="6.32" rx="1.14" ry="1.14"/><rect class="cls-31" x="220.83" y="399.63" width="5.54" height="6.32" rx="1.14" ry="1.14"/><rect class="cls-31" x="227.67" y="399.63" width="5.54" height="6.32" rx="1.14" ry="1.14"/><rect class="cls-31" x="234.51" y="399.63" width="5.54" height="6.32" rx="1.14" ry="1.14"/><rect class="cls-31" x="241.35" y="399.63" width="5.54" height="6.32" rx="1.14" ry="1.14"/><rect class="cls-31" x="248.19" y="399.63" width="5.54" height="6.32" rx="1.14" ry="1.14"/><rect class="cls-31" x="255.03" y="399.63" width="5.54" height="6.32" rx="1.14" ry="1.14"/><path class="cls-8" d="M271,414.33s1.59,4.84,5.58,4.87,7,3.08,11,3.11,8.59-4.15,15.78-6.51,13.9-9.24,14.5-13.46,1.62-7.23-1.37-10.27-7.37-4.29-6-6.09,6.39-4.77,3.8-6.6-6.58-1.87-7.37-4.29-.19-6.64,1.82-12.66-1.77-11.48-.36-13.28,3.8-6.61,2.61-10.24-4.17-6.67-2.77-8.47S310,317.78,307.4,316s-1.79.59-4.6,4.18-13.61,19.21-19.62,25.19-13,15-11.81,18.61l4.36,13.32-15.36-4.35c-6.59-1.87-6.19-.66-2.81,3.6s12.56,7.95,13.35,10.37,1.59,4.84-.21,5.43-2.8,3.59-.21,5.43,4.78,2.45,1.59,4.84S271,414.33,271,414.33Z"/><path class="cls-32" d="M271,414.33s1.59,4.84,5.58,4.87,7,3.08,11,3.11,8.59-4.15,15.78-6.51,13.9-9.24,14.5-13.46,1.62-7.23-1.37-10.27-7.37-4.29-6-6.09,6.39-4.77,3.8-6.6-6.58-1.87-7.37-4.29-.19-6.64,1.82-12.66-1.77-11.48-.36-13.28,3.8-6.61,2.61-10.24-4.17-6.67-2.77-8.47S310,317.78,307.4,316s-1.79.59-4.6,4.18-13.61,19.21-19.62,25.19-13,15-11.81,18.61l4.36,13.32-15.36-4.35c-6.59-1.87-6.19-.66-2.81,3.6s12.56,7.95,13.35,10.37,1.59,4.84-.21,5.43-2.8,3.59-.21,5.43,4.78,2.45,1.59,4.84S271,414.33,271,414.33Z"/><path class="cls-33" d="M272.72,412.47s1.47,4.5,5.18,4.53,6.49,2.86,10.19,2.89,8-3.86,14.67-6.05,12.91-8.59,13.47-12.51,1.5-6.71-1.28-9.54-6.85-4-5.55-5.65,6-4.44,3.54-6.14-6.11-1.73-6.85-4-.17-6.17,1.7-11.76-1.65-10.67-.35-12.34,3.54-6.14,2.44-9.52-3.88-6.2-2.58-7.87,1.69-11.76-.71-13.46-1.67.55-4.28,3.89-12.65,17.84-18.22,23.4-12.09,13.92-11,17.29L277.16,378l-14.27-4c-6.12-1.73-5.75-.61-2.61,3.34S272,384.71,272.69,387s1.47,4.5-.2,5-2.6,3.35-.2,5.05,4.45,2.28,1.48,4.5S272.72,412.47,272.72,412.47Z"/><path class="cls-34" d="M294.35,402.27s-3,2.22-.57,3.93,7.05-1.07,6.68-2.19S300.29,397.84,294.35,402.27Z"/><path class="cls-34" d="M304,397.87s-3.54,6.14.17,6.17,4.64-2.77,3.91-5S304,397.87,304,397.87Z"/><path class="cls-34" d="M311.05,396.8s-2.24,4.47-.2,5.05,4.28-3.89,3.91-5S314,394.59,311.05,396.8Z"/><path class="cls-35" d="M273.94,407.71a4.59,4.59,0,0,0,5.38-.51c3-2.22,5.2-6.69,3.16-7.27a11,11,0,0,0-9.85,3.33C269.86,406.56,273.94,407.71,273.94,407.71Z"/><path class="cls-34" d="M288.06,394.37s-.56,3.92,3.14,3.95,18.38-6,20.05-6.56.56-3.92-4.82-3.4S289.36,392.7,288.06,394.37Z"/><path class="cls-36" d="M282.54,377.51s1.3-1.68.19-5.05-5-9.57.59-15.13,13.76-14.47,16.36-17.81,4.28-3.89,4.84-7.81.94-2.8-5.94,4.43-21,20.58-21.57,24.5S282.17,376.38,282.54,377.51Z"/><path class="cls-37" d="M304.87,344.05s-2.81,8.38-6.71,13.4-5.77,10.6-4.67,14,1.84,5.62.54,7.29-2.77-2.82-4.25-7.32,1.33-12.89,3.57-17.36,9.85-9.45,10.78-12.24S304.87,344.05,304.87,344.05Z"/><path class="cls-34" d="M266,377.93s7.79,1.19,10.19,2.89,2.58,7.87,2.58,7.87a36.73,36.73,0,0,0-5.55-5.65Z"/><path class="cls-8" d="M127.84,414.33s-1.58,4.84-5.58,4.87-7,3.08-11,3.11-8.59-4.15-15.78-6.51S81.62,406.56,81,402.34s-1.62-7.23,1.37-10.27,7.38-4.29,6-6.09-6.4-4.77-3.81-6.6,6.58-1.87,7.37-4.29.19-6.64-1.82-12.66,1.77-11.48.37-13.28-3.81-6.61-2.62-10.24,4.17-6.67,2.77-8.47-1.82-12.66.77-14.49,1.8.59,4.6,4.18,13.62,19.21,19.62,25.19,13,15,11.82,18.61l-4.36,13.32,15.35-4.35c6.59-1.87,6.19-.66,2.81,3.6s-12.56,7.95-13.35,10.37-1.59,4.84.21,5.43,2.8,3.59.21,5.43-4.78,2.45-1.58,4.84S127.84,414.33,127.84,414.33Z"/><path class="cls-32" d="M127.84,414.33s-1.58,4.84-5.58,4.87-7,3.08-11,3.11-8.59-4.15-15.78-6.51S81.62,406.56,81,402.34s-1.62-7.23,1.37-10.27,7.38-4.29,6-6.09-6.4-4.77-3.81-6.6,6.58-1.87,7.37-4.29.19-6.64-1.82-12.66,1.77-11.48.37-13.28-3.81-6.61-2.62-10.24,4.17-6.67,2.77-8.47-1.82-12.66.77-14.49,1.8.59,4.6,4.18,13.62,19.21,19.62,25.19,13,15,11.82,18.61l-4.36,13.32,15.35-4.35c6.59-1.87,6.19-.66,2.81,3.6s-12.56,7.95-13.35,10.37-1.59,4.84.21,5.43,2.8,3.59.21,5.43-4.78,2.45-1.58,4.84S127.84,414.33,127.84,414.33Z"/><path class="cls-33" d="M126.07,412.47s-1.47,4.5-5.18,4.53-6.48,2.86-10.19,2.89-8-3.86-14.67-6.05-12.9-8.59-13.47-12.51-1.5-6.71,1.28-9.54,6.85-4,5.55-5.65-6-4.44-3.54-6.14,6.12-1.73,6.85-4,.17-6.17-1.69-11.76,1.64-10.67.34-12.34-3.54-6.14-2.43-9.52,3.88-6.2,2.57-7.87-1.69-11.76.71-13.46,1.67.55,4.28,3.89,12.65,17.84,18.23,23.4,12.08,13.92,11,17.29L121.63,378l14.27-4c6.12-1.73,5.75-.61,2.61,3.34s-11.67,7.39-12.4,9.64-1.48,4.5.19,5,2.61,3.35.2,5.05-4.45,2.28-1.47,4.5S126.07,412.47,126.07,412.47Z"/><path class="cls-34" d="M104.44,402.27s3,2.22.57,3.93S98,405.13,98.33,404,98.5,397.84,104.44,402.27Z"/><path class="cls-34" d="M94.79,397.87s3.54,6.14-.17,6.17-4.64-2.77-3.91-5S94.79,397.87,94.79,397.87Z"/><path class="cls-34" d="M87.74,396.8s2.24,4.47.2,5.05-4.27-3.89-3.91-5S84.77,394.59,87.74,396.8Z"/><path class="cls-35" d="M124.86,407.71a4.59,4.59,0,0,1-5.38-.51c-3-2.22-5.21-6.69-3.17-7.27a11,11,0,0,1,9.85,3.33C128.93,406.56,124.86,407.71,124.86,407.71Z"/><path class="cls-34" d="M110.73,394.37s.57,3.92-3.14,3.95-18.37-6-20-6.56-.57-3.92,4.81-3.4S109.43,392.7,110.73,394.37Z"/><path class="cls-36" d="M116.26,377.51s-1.31-1.68-.2-5.05,5-9.57-.59-15.13-13.76-14.47-16.36-17.81-4.28-3.89-4.84-7.81-.93-2.8,5.94,4.43,21,20.58,21.57,24.5S116.62,376.38,116.26,377.51Z"/><path class="cls-37" d="M93.93,344.05s2.8,8.38,6.7,13.4,5.78,10.6,4.67,14-1.84,5.62-.54,7.29,2.78-2.82,4.25-7.32-1.33-12.89-3.56-17.36-9.85-9.45-10.79-12.24S93.93,344.05,93.93,344.05Z"/><path class="cls-34" d="M132.76,377.93s-7.79,1.19-10.19,2.89-2.58,7.87-2.58,7.87a36.73,36.73,0,0,1,5.55-5.65Z"/><path class="cls-27" d="M87.57,60.32S66.83,72.9,60.9,75.42,52,83,52,90.51v15.1c0,2.51,5.93-7.55,5.93-10.06s0-5,3-7.55,5.93,7.55-11.85,22.64S28.31,135.8,31.27,145.86s8.89,22.64,5.93,27.67-14.82,20.13-17.78,30.19-3,30.19,3,37.74,14.82,20.12,11.85,25.16-8.89,7.54-8.89,17.61,5.93,12.58,5.93,12.58-3-12.58,0-15.1,11.85-5,8.89-15.09-11.85-27.68-8.89-32.71S49.05,213.79,52,211.27s3,12.58,0,20.13-5.92,15.09-5.92,20.12,14.81,17.61,20.74,20.13,23.7,5,23.7,12.58,0,12.58-8.89,12.58-14.81-5-14.81-10.07-3-5-11.85-2.51-20.75,7.54-17.78,12.58S52,309.38,66.83,306.87s35.56-12.58,41.48-17.61S119.24,274,119.24,274,88,252.87,81.55,236.35C69,203.9,69,176.68,78.41,133.76c4.51-20.56,22-42.92,22-42.92Z"/><path class="cls-28" d="M96.46,95.55s26.67,5,38.52,5,127.42,2.51,130.38,0h11.85s5.93,42.76,8.89,52.83,0,75.47,0,85.53,3,32.71,5.93,42.77,8.89,20.13,5.93,25.16-5.93,7.55-14.82,10.06-14.82,5-11.85,10.06,14.81,15.1,17.78,15.1-3-5-3-10.06,0-12.58,5.93-15.1,17.78,0,20.74-7.55,5.93-22.64,8.89-30.19,8.89-5,11.85-2.51,8.89,12.58,3,15.09-14.82,0-14.82,0-3,2.52,3,7.55,14.82,5,23.71,2.52,20.74-17.61,17.78-25.16S348.33,264.1,348.33,254s0-17.61-8.89-25.16-11.85-15.09-11.85-17.61,8.89,0,11.85,2.52,11.85,7.54,11.85,12.57-3,17.61,5.93,22.65S375,256.55,378,246.49s0-15.09-3-15.09c0,0,3,5-3,7.54s-20.74-2.51-14.81-10.06,14.81-10.06,5.93-20.13-23.71-35.22-23.71-62.89-3-52.83-20.74-67.93c0,0-11.85-5-17.78-15.09s-11.85-20.13-41.49-32.7S223.88,12.53,218,15s-3,2.52-11.85,5-14.82-7.54-32.6-5-62.22,15.1-77,22.64S84.61,55.29,81.64,57.81C81.64,57.81,75.72,88,96.46,95.55Z"/><path class="cls-27" d="M87.57,47.75s-3,15.09,3,25.15,8.89,2.52,11.86,0,14.81-2.51,20.74,2.52,8.89,7.55,17.78,5,23.7-7.55,29.63-2.52a25.92,25.92,0,0,0,23.7,5c8.89-2.52,59.27,2.51,65.19,0s8.89-7.55,11.86-2.52,11.85,5,8.89,12.58l-3,7.55s-101.73,1.25-130.87.63S85.1,102.67,81.89,79,87.57,47.75,87.57,47.75Z"/><path class="cls-28" d="M102.39,77.93s3-5,5.92-5,0,7.55,3,12.58,3,7.55,0,5S99.42,83,102.39,77.93Z"/><path class="cls-28" d="M114.24,75.42s0,10.06,5.93,15.09,8.88,5,5.92,0,0-7.54-3-10.06S114.24,72.9,114.24,75.42Z"/><path class="cls-28" d="M129.05,85.48s0,5,5.93,7.55,11.85,0,8.89-2.52S129.05,83,129.05,83Z"/><path class="cls-28" d="M152.76,80.45s-5.93,2.52-5.93,5,3,10.07,5.93,10.07S158.69,77.93,152.76,80.45Z"/><path class="cls-28" d="M161.65,77.93c-3,2.52,0,7.55,3,12.58s3,7.55,5.93,2.52,3-2.52,0-7.55S164.61,75.42,161.65,77.93Z"/><path class="cls-38" d="M298,57.81c0,2.51,0,10.06,3,12.58s8.89,2.51,11.85,5S298,77.93,295,77.93s-5.92,0-5.92-5,3-15.09,3-17.61S298,57.81,298,57.81Z"/><path class="cls-38" d="M185.35,95.55a6.9,6.9,0,0,0,8.89,2.51c5.93-2.51,8.89-12.58,20.75-12.58s41.48,10.07,41.48,17.61-3,35.22,0,42.77,11.85,22.64,23.71,35.22,23.7,32.71,23.7,45.28,3,27.68-3,32.71a21.24,21.24,0,0,1-14.82,5c-3,0,8.89,10.06,20.75,2.52s17.77-12.58,17.77-20.13-11.85-30.19-11.85-40.25S289.07,171,277.21,161s-8.89-17.61-8.89-27.67S286.1,103.09,274.25,93,259.43,75.42,244.62,72.9s-35.56,0-47.41,12.58S185.35,95.55,185.35,95.55Z"/><path class="cls-28" d="M182.39,98.06a6.9,6.9,0,0,0,8.89,2.52C197.21,98.06,200.17,88,212,88s41.49,10.06,41.49,17.61-3,35.22,0,42.77,11.85,22.64,23.7,35.22,23.71,32.7,23.71,45.28,3,27.67-3,32.7a21.22,21.22,0,0,1-14.82,5c-3,0,8.89,10.06,20.74,2.51s17.78-12.58,17.78-20.12-11.85-30.19-11.85-40.26-23.71-35.22-35.56-45.28-8.89-17.61-8.89-27.67,17.78-30.19,5.93-40.25-14.82-17.62-29.63-20.13-35.56,0-47.42,12.58S182.39,98.06,182.39,98.06Z"/></svg>