<svg id="圖層_1" data-name="圖層 1" xmlns="http://www.w3.org/2000/svg" viewBox="0 0 393 538"><defs><style>.cls-1{fill:#efff8a;}.cls-2{fill:#d281a6;}.cls-3{fill:#ddb0a6;}.cls-4{fill:#2b102e;}.cls-5{fill:#d6b18f;}.cls-6{fill:#fff;}.cls-7{fill:#cbcbcb;}.cls-8{fill:#474548;}</style></defs><title>0122</title><ellipse class="cls-1" cx="199.22" cy="481.52" rx="109.97" ry="52.48"/><path class="cls-2" d="M136.47,271.61s-26.08,45.64-32.6,58.14-19.29,35-22.28,54.6-2.17,23.64,0,26.35,8.7,8.42,12.77,8.15,7.61-5.16,9-8.42,2.71-7.06,2.71-7.06,3.81,2.26,5.07,2.26,4.89.36,6-2.9,0-5.43-1.81-6.52a13.34,13.34,0,0,1-3.67-2.76c-.61-.81.34-2.65,1.36-4.48s7.13-11.34,7.13-11.34,1.09.07,1.36,1.9,6,14.78,7.49,16.86,2.72,2.18,2.72,4.08-3,51.16-2.44,56-1,3.44-3.17,4.44a32.49,32.49,0,0,0-14.67,16c-4.44,10.23,10,11.41,11,11.77s31.88,1.27,36,0,14-4.62,15.4-12.59,5-50.84,5-50.84A2,2,0,0,1,181,423c2.25.07,27.51-.27,27.51-.27a2,2,0,0,1,1.49,1.7c.07,1.36,3.85,49.4,4.21,51a18.41,18.41,0,0,0,12.41,11.95c9.15,2.9,39.84,1.27,39.84,1.27S276,486,276.1,481s-.47-7.17-3.46-10.84-13.45-10.53-13.45-10.53-.54-1.15-.41-4.35-2-56.91-2-56.91,3-4.75,4.7-8.19,5.07-11.23,5.17-13.22,1.4-1.68,1.74-.8,8.42,13.11,9.17,13.93,2,1.63,1.08,2.51-5.9,4.41-6.11,6.38c0,0-.95,5.5,4.42,5.64s5.56-2.24,5.56-2.24,1-.14,1.36,2,5.78,13.24,9.38,13.92,13.37-3.26,15.28-8.9,1.83-16.23.61-21.32-14.88-49.31-29.82-71.31S259.8,280.85,256.82,275l-1.63-3.4Z"/><path class="cls-3" d="M162.45,390.38s9.37,11.76,23.43,13.95,30.3-2.92,35.3-13.95,9.06-43.53-10.31-56.34-38.11-3.75-41.55,0-12.18,13.74-11.87,27.8S159.32,383.92,162.45,390.38Z"/><path class="cls-2" d="M304.71,127.63c-19-35.42-52.78-53.89-81.33-58.29,8.14-21.25,3.6-41.63,1.6-49.09C222.81,12.1,211.94-.4,207.41.69c-4.09,1-11.69,56.21-13.16,67.21q-6.36.22-12.88.88C180.25,60.32,172.32,1.7,168.1.69,163.56-.4,152.7,12.1,150.52,20.25c-2.11,7.92-7.11,30.42,3.27,53.05a190.66,190.66,0,0,0-27.31,8.32C97.19,93.22,69.66,137,68.6,158.41s-14.11,79.33,35.47,121.71c0,0,14.29,15.21,34.41,20.28s96,9.42,122.11-5.79,43.41-29.71,51.18-59S323.76,163.12,304.71,127.63Z"/><circle class="cls-4" cx="134.36" cy="185.54" r="14.61"/><circle class="cls-4" cx="256.52" cy="185.54" r="14.61"/><ellipse class="cls-5" cx="134.05" cy="209.11" rx="14.61" ry="7.31"/><ellipse class="cls-5" cx="257.31" cy="209.11" rx="14.61" ry="7.31"/><path class="cls-6" d="M146.66,215.13s-7.87,8.18-3.46,15.14S156,241.48,167.41,243s50.63,3.33,63-2.12,19.38-17.57,14.09-25.75S213.2,197,196,197.87,155.47,205.44,146.66,215.13Z"/><path class="cls-4" d="M185.79,195.84s0,7,4.49,10.65,11.58,3.34,14.65,0,5.2-12.2,3.31-14.92S184.85,186.42,185.79,195.84Z"/><path class="cls-4" d="M228.38,222.37a1.75,1.75,0,0,0-2-.38c-2.18.67-15.37,2.41-18.37.17-3.62-2.7-7.76-10.17-7.89-16.15a.68.68,0,0,0,0-.14.88.88,0,0,0,0-.17,1.09,1.09,0,0,0-.05-.17,1,1,0,0,0,0-.16,1.09,1.09,0,0,0-.08-.15.64.64,0,0,0-.08-.14l-.1-.14a1.31,1.31,0,0,0-.11-.12,1436023117705.19,1436023117705.19,0,0,1-.26-.22l-.14-.08-.15-.08-.16-.06-.17,0-.17,0-.16,0h-.07l-.16,0-.18,0-.16,0-.16.06-.15.08-.15.08-.13.11-.12.11a1.31,1.31,0,0,0-.11.12l-.1.14a.64.64,0,0,0-.08.14,1.09,1.09,0,0,0-.08.15,1,1,0,0,0-.06.16,1.54,1.54,0,0,1,0,.17c0,.05,0,.11,0,.17s0,.09,0,.14c-.13,6-4.27,13.45-7.89,16.15-3,2.24-16.19.5-18.37-.17a1.75,1.75,0,0,0-2,2.86c.76.71,7.36,1.9,13.39,1.9,3.75,0,7.27-.46,9-1.77,2.78-2.08,5.73-6.23,7.54-10.85,1.82,4.62,4.76,8.77,7.55,10.85,1.76,1.31,5.29,1.77,9,1.77,6,0,12.63-1.19,13.39-1.9A1.75,1.75,0,0,0,228.38,222.37Z"/><path class="cls-7" d="M290.85,321.58l-14.18-21.92-3.53-13.36-78.9,6.88-.58.06v.26l-83.61-7.22-.27,13.47s-54.55,58.42-45.63,79.54c5.55,13.13,55.24,14.13,55.24,14.13s-7.77,27.93-.56,30.09c41.16,12.37,152.89,3.38,153,3.24,6.85-11.41-2.28-31.95-2.28-31.95s43.44,8.21,50.2-2.38C330,376.3,290.85,321.58,290.85,321.58Zm-97,97.84Z"/><path class="cls-8" d="M205,306.83a2.58,2.58,0,0,0,5.08-.65,2.76,2.76,0,0,0-.14-.82l66.18-4.14-.08-1.29-67,4.19a2.52,2.52,0,0,0-1.55-.52,2.56,2.56,0,0,0-1.78.73l-12.09.75-8.86-.69a2.54,2.54,0,0,0-1.85-.79,2.58,2.58,0,0,0-1.55.52l-70.23-5.48-.1,1.29,69.44,5.42a2.54,2.54,0,0,0-.15.83,2.58,2.58,0,0,0,5.08.65h8.82l-.06,12.51h-7.46a2.6,2.6,0,1,0,0,1.29h7.46l-.08,18.55h-8.59v.65a2.59,2.59,0,1,0-2.58,2.59,2.59,2.59,0,0,0,2.58-2.59v.64h8.58L194,357.3h-8.5v.64a2.59,2.59,0,1,0-2.58,2.6,2.59,2.59,0,0,0,2.58-2.6v.65H194l-.08,17.25h-7.21a2.6,2.6,0,1,0,0,1.29h7.21l-.09,19.42h-7.12a2.59,2.59,0,1,0,0,1.29H202.4a2.56,2.56,0,0,0,.67,1.18,2.59,2.59,0,1,0,0-3.66,2.54,2.54,0,0,0-.67,1.19h-6.87l.09-19.42h6.78a2.59,2.59,0,1,0,0-1.29h-6.77l.07-17.25h6.7a2.59,2.59,0,1,0,0-1.3h-6.69l.08-16.82h7.81v-1.3h-7.81l.08-18.55H205a2.59,2.59,0,1,0,0-1.29h-9.11l.06-12.51Z"/><circle class="cls-8" cx="206.19" cy="339.83" r="2.59"/></svg>