<svg id="圖層_1" data-name="圖層 1" xmlns="http://www.w3.org/2000/svg" xmlns:xlink="http://www.w3.org/1999/xlink" viewBox="0 0 393 538"><defs><style>.cls-1{fill:none;}.cls-2{fill:#efff8a;}.cls-3{fill:#f6c2cb;}.cls-4{fill:#207d99;}.cls-5{opacity:0.7;}.cls-6{clip-path:url(#clip-path);}.cls-7{fill:#0b1a27;}.cls-8{fill:#174a67;}.cls-9{fill:#004e3f;}.cls-10{fill:#0e283c;}.cls-11{fill:#340a0b;}.cls-12{fill:#38bacd;stroke:#040000;stroke-miterlimit:10;}.cls-13{fill:#da4d55;}.cls-14{fill:#fff;}.cls-15{fill:#19191a;}.cls-16{fill:#882428;}.cls-17{fill:#efeeda;}.cls-18{fill:#5b3b24;}.cls-19{fill:#b37952;}.cls-20{fill:#8b654f;}.cls-21{fill:#725741;}</style><clipPath id="clip-path"><path class="cls-1" d="M255.75,468.14a7.85,7.85,0,0,1-.3-3.28c.1-2.41-1.49-43-1.49-43s2.26-3.59,3.56-6.19,3.82-8.47,3.89-10,1.06-1.26,1.32-.59,6.35,9.89,6.92,10.5,1.19,1,1,1.59c7.42-1.74,14.84-3.61,22.32-5-2.38-8.16-11.79-36.94-22-52-11.28-16.61-14.76-27.06-17-31.47l-1.23-2.57H235.11c1.15,3.72,2.84,9.18,3.43,10.92.91,2.73-2.73,14.56-6.37,19.11s-16.38,13.65-20.93,14.56a27.45,27.45,0,0,1-12.28-.46c-3.64-.91-20-16.38-21.84-22.74-1.68-5.88,4.38-18.72,4.62-21.39H163.12s-19.68,34.45-24.6,43.88-14.25,25.93-16.69,40.54l2.58.39.33,0,.33.05c6.13.8,12.27,1.56,18.37,2.55a11.53,11.53,0,0,1,2.26.6c1.28-2.13,5.07-8,5.07-8s.82.06,1,1.44,4.49,11.16,5.65,12.73,2.05,1.64,2.05,3.07-2.25,38.62-1.84,42.24-.76,2.6-2.4,3.35a24.69,24.69,0,0,0-11.07,12.1c-3.35,7.73,7.52,8.61,8.34,8.89s24.06.95,27.2,0,10.6-3.49,11.62-9.5,3.76-38.38,3.76-38.38a1.53,1.53,0,0,1,1.59-1.69c1.69.05,20.76-.21,20.76-.21a1.49,1.49,0,0,1,1.13,1.28c0,1,2.9,37.29,3.18,38.52a13.87,13.87,0,0,0,9.36,9c6.91,2.19,30.08,1,30.08,1s7.24-2,7.31-5.81-.36-5.42-2.62-8.19S255.75,468.14,255.75,468.14Z"/></clipPath></defs><title>0122</title><ellipse class="cls-2" cx="204.31" cy="485.28" rx="97.15" ry="46.36"/><path class="cls-3" d="M163.34,326.24s-19.69,34.45-24.61,43.88-14.56,26.46-16.81,41.22-1.64,17.84,0,19.89,6.56,6.35,9.64,6.15,5.74-3.9,6.76-6.36,2.05-5.33,2.05-5.33,2.87,1.71,3.83,1.71,3.69.27,4.51-2.19,0-4.1-1.37-4.92a10.36,10.36,0,0,1-2.76-2.08c-.47-.62.25-2,1-3.39s5.38-8.56,5.38-8.56.82.05,1,1.44,4.49,11.16,5.65,12.73,2.06,1.64,2.06,3.07-2.26,38.62-1.85,42.24-.75,2.6-2.39,3.35a24.64,24.64,0,0,0-11.07,12.1c-3.35,7.73,7.51,8.61,8.33,8.89s24.06.95,27.21,0,10.59-3.49,11.62-9.5,3.76-38.38,3.76-38.38a1.52,1.52,0,0,1,1.58-1.69c1.7.05,20.77-.21,20.77-.21a1.48,1.48,0,0,1,1.12,1.28c0,1,2.91,37.29,3.18,38.52a13.87,13.87,0,0,0,9.37,9c6.9,2.19,30.07,1,30.07,1s7.24-2,7.31-5.81-.36-5.42-2.61-8.19S256,468.14,256,468.14a7.92,7.92,0,0,1-.31-3.28c.1-2.41-1.49-43-1.49-43s2.26-3.59,3.56-6.19,3.83-8.47,3.89-10,1.06-1.26,1.32-.59,6.36,9.89,6.92,10.5,1.49,1.23.82,1.9-4.46,3.33-4.61,4.82c0,0-.72,4.15,3.33,4.25s4.2-1.69,4.2-1.69.77-.1,1,1.49,4.35,10,7.07,10.51,10.1-2.46,11.54-6.72,1.38-12.25.46-16.09-11.23-37.22-22.51-53.83-14.76-27.06-17-31.47l-1.23-2.57Z"/><path class="cls-4" d="M293,412.26c-2.38-8.16-11.79-36.94-22-52a162.68,162.68,0,0,1-15.84-28.94,39.79,39.79,0,0,1-10.1,3.2,41.14,41.14,0,0,1-6.78,1.79c.11.33.2.61.28.83.91,2.73-2.73,14.56-6.37,19.11s-16.38,13.65-20.93,14.56a27.45,27.45,0,0,1-12.28-.46c-3.64-.91-20-16.38-21.84-22.74-.78-2.74.12-7,1.32-11-.83-.08-1.61-.17-.67-.11a7.92,7.92,0,0,1-2.91-.75h-.12l-.27,0a6,6,0,0,1-2.16.25,16.58,16.58,0,0,1-4.2-.72c-.84-.28-2.48-.49-2-.74a6.66,6.66,0,0,1-.77,0,7.12,7.12,0,0,1-4.23-1.54c-.52-.14-1-.31-1.55-.5-5.91,10.38-17.43,30.71-21,37.62-4.85,9.29-14.25,25.93-16.69,40.54l2.58.39.33,0,.33.05c6.13.8,12.27,1.56,18.38,2.55a11.62,11.62,0,0,1,2.25.6c1.28-2.13,5.07-8,5.07-8s.82.06,1,1.44,4.49,11.16,5.65,12.73,2.05,1.64,2.05,3.07-2.25,38.62-1.84,42.24-.76,2.6-2.4,3.35a24.69,24.69,0,0,0-11.07,12.1c-3.35,7.73,7.52,8.61,8.34,8.89s24.06.95,27.2,0,10.6-3.49,11.62-9.5,3.76-38.38,3.76-38.38a1.53,1.53,0,0,1,1.59-1.69c1.69.05,20.76-.21,20.76-.21a1.49,1.49,0,0,1,1.13,1.28c0,1,2.91,37.29,3.18,38.52a13.87,13.87,0,0,0,9.36,9c6.91,2.19,30.08,1,30.08,1s7.24-2,7.31-5.81-.36-5.42-2.61-8.19-10.15-7.94-10.15-7.94a7.92,7.92,0,0,1-.31-3.28c.1-2.41-1.49-43-1.49-43s2.26-3.59,3.56-6.19,3.82-8.47,3.89-10,1.06-1.26,1.32-.59,6.35,9.89,6.92,10.5,1.19,1,1,1.59C278.08,415.49,285.5,413.62,293,412.26Z"/><g class="cls-5"><g class="cls-6"><polygon class="cls-7" points="227.63 357.8 220.59 357.8 217.08 363.89 220.59 369.99 227.63 369.99 231.15 363.89 227.63 357.8"/><polygon class="cls-4" points="238.21 364.01 231.18 364.01 227.66 370.1 231.18 376.2 238.21 376.2 241.73 370.1 238.21 364.01"/><polygon class="cls-8" points="238.21 351.82 231.18 351.82 227.66 357.92 231.18 364.01 238.21 364.01 241.73 357.92 238.21 351.82"/><polygon class="cls-9" points="248.79 357.8 241.75 357.8 238.24 363.89 241.75 369.99 248.79 369.99 252.31 363.89 248.79 357.8"/><polygon class="cls-8" points="249.02 369.99 241.98 369.99 238.47 376.08 241.98 382.18 249.02 382.18 252.54 376.08 249.02 369.99"/><polygon class="cls-7" points="238.44 376.2 231.41 376.2 227.89 382.29 231.41 388.39 238.44 388.39 241.96 382.29 238.44 376.2"/><polygon class="cls-7" points="227.86 370.22 220.82 370.22 217.31 376.31 220.82 382.41 227.86 382.41 231.38 376.31 227.86 370.22"/><polygon class="cls-7" points="249.3 382.64 242.26 382.64 238.75 388.74 242.26 394.83 249.3 394.83 252.82 388.74 249.3 382.64"/><polygon class="cls-4" points="259.88 388.85 252.84 388.85 249.32 394.94 252.84 401.04 259.88 401.04 263.4 394.94 259.88 388.85"/><polygon class="cls-9" points="259.88 376.66 252.84 376.66 249.32 382.76 252.84 388.85 259.88 388.85 263.4 382.76 259.88 376.66"/><polygon class="cls-9" points="270.46 382.64 263.42 382.64 259.9 388.74 263.42 394.83 270.46 394.83 273.98 388.74 270.46 382.64"/><polygon class="cls-8" points="270.69 394.83 263.65 394.83 260.13 400.93 263.65 407.02 270.69 407.02 274.21 400.93 270.69 394.83"/><polygon class="cls-7" points="260.11 401.04 253.07 401.04 249.56 407.13 253.07 413.23 260.11 413.23 263.63 407.13 260.11 401.04"/><polygon class="cls-9" points="249.53 395.06 242.5 395.06 238.98 401.15 242.5 407.25 249.53 407.25 253.05 401.15 249.53 395.06"/><polygon class="cls-10" points="259.34 351.46 252.31 351.46 248.79 357.55 252.31 363.65 259.34 363.65 262.86 357.55 259.34 351.46"/><polygon class="cls-4" points="269.92 357.67 262.89 357.67 259.37 363.76 262.89 369.86 269.92 369.86 273.44 363.76 269.92 357.67"/><polygon class="cls-10" points="269.92 345.48 262.89 345.48 259.37 351.57 262.89 357.67 269.92 357.67 273.44 351.57 269.92 345.48"/><polygon class="cls-7" points="270.15 369.86 263.12 369.86 259.6 375.95 263.12 382.05 270.15 382.05 273.67 375.95 270.15 369.86"/><polygon class="cls-10" points="259.57 363.88 252.54 363.88 249.02 369.97 252.54 376.07 259.57 376.07 263.09 369.97 259.57 363.88"/><path class="cls-7" d="M240,335.35c-.59,0-1.17.07-1.75.08a15,15,0,0,1-9.6-3.3l-.95,1.64,3.52,6.09h7l2.62-4.54Z"/><path class="cls-7" d="M164.16,333a16.57,16.57,0,0,1-2.86-.44l1.63,2.8h7l.25-.43A46.24,46.24,0,0,1,164.16,333Z"/><path class="cls-8" d="M246.59,333.88a14.23,14.23,0,0,1-2.64,1,16.83,16.83,0,0,1-3,.46L238.23,340l3.52,6.09h7L252.3,340l-3.52-6.1Z"/><path class="cls-8" d="M258.1,327.67l-.32.26a15.12,15.12,0,0,1-3.66,2.87,21.54,21.54,0,0,1-4.1,1.94l-.76.24-.45.79,3.51,6.09h7l3.52-6.09-3.52-6.1Z"/><polygon class="cls-10" points="259.59 339.86 252.55 339.86 249.04 345.96 252.55 352.05 259.59 352.05 263.11 345.96 259.59 339.86"/><polygon class="cls-4" points="249.01 346.07 241.97 346.07 238.46 352.17 241.97 358.26 249.01 358.26 252.53 352.17 249.01 346.07"/><polygon class="cls-9" points="238.43 340.09 231.4 340.09 227.88 346.19 231.4 352.28 238.43 352.28 241.95 346.19 238.43 340.09"/><polygon class="cls-10" points="216.53 388.98 209.5 388.98 205.98 395.08 209.5 401.17 216.53 401.17 220.05 395.08 216.53 388.98"/><polygon class="cls-4" points="227.11 395.19 220.08 395.19 216.56 401.29 220.08 407.38 227.11 407.38 230.63 401.29 227.11 395.19"/><polygon class="cls-8" points="227.11 383 220.08 383 216.56 389.1 220.08 395.19 227.11 395.19 230.63 389.1 227.11 383"/><polygon class="cls-10" points="237.69 388.98 230.66 388.98 227.14 395.08 230.66 401.17 237.69 401.17 241.21 395.08 237.69 388.98"/><polygon class="cls-7" points="237.92 401.17 230.88 401.17 227.37 407.27 230.88 413.36 237.92 413.36 241.44 407.27 237.92 401.17"/><polygon class="cls-8" points="216.76 401.4 209.73 401.4 206.21 407.5 209.73 413.59 216.76 413.59 220.28 407.5 216.76 401.4"/><polygon class="cls-9" points="194.86 363.61 187.83 363.61 184.31 369.71 187.83 375.8 194.86 375.8 198.38 369.71 194.86 363.61"/><polygon class="cls-9" points="183.95 356.33 176.91 356.33 173.39 362.43 176.91 368.52 183.95 368.52 187.46 362.43 183.95 356.33"/><polygon class="cls-4" points="205.44 369.82 198.41 369.82 194.89 375.92 198.41 382.01 205.44 382.01 208.96 375.92 205.44 369.82"/><polygon class="cls-7" points="216.02 363.61 208.99 363.61 205.47 369.71 208.99 375.8 216.02 375.8 219.54 369.71 216.02 363.61"/><polygon class="cls-9" points="216.25 375.8 209.22 375.8 205.7 381.9 209.22 387.99 216.25 387.99 219.77 381.9 216.25 375.8"/><polygon class="cls-7" points="205.67 382.01 198.64 382.01 195.12 388.11 198.64 394.2 205.67 394.2 209.19 388.11 205.67 382.01"/><polygon class="cls-8" points="195.09 376.03 188.06 376.03 184.54 382.13 188.06 388.22 195.09 388.22 198.61 382.13 195.09 376.03"/><polygon class="cls-7" points="271.31 407.84 264.27 407.84 260.75 413.94 264.27 420.03 271.31 420.03 274.82 413.94 271.31 407.84"/><polygon class="cls-8" points="281.89 401.86 274.85 401.86 271.33 407.96 274.85 414.05 281.89 414.05 285.4 407.96 281.89 401.86"/><polygon class="cls-9" points="292.46 407.84 285.43 407.84 281.91 413.94 285.43 420.03 292.46 420.03 295.98 413.94 292.46 407.84"/><polygon class="cls-7" points="281.88 377.72 274.84 377.72 271.32 383.81 274.84 389.91 281.88 389.91 285.4 383.81 281.88 377.72"/><polygon class="cls-8" points="292.46 383.93 285.42 383.93 281.9 390.02 285.42 396.12 292.46 396.12 295.98 390.02 292.46 383.93"/><polygon class="cls-4" points="292.69 396.12 285.65 396.12 282.13 402.21 285.65 408.31 292.69 408.31 296.2 402.21 292.69 396.12"/><polygon class="cls-9" points="282.11 390.14 275.07 390.14 271.55 396.23 275.07 402.33 282.11 402.33 285.63 396.23 282.11 390.14"/><polygon class="cls-10" points="260.21 439.03 253.17 439.03 249.65 445.12 253.17 451.21 260.21 451.21 263.73 445.12 260.21 439.03"/><polygon class="cls-8" points="260.44 451.44 253.4 451.44 249.88 457.54 253.4 463.63 260.44 463.63 263.96 457.54 260.44 451.44"/><polygon class="cls-9" points="238.54 413.66 231.5 413.66 227.98 419.75 231.5 425.85 238.54 425.85 242.06 419.75 238.54 413.66"/><polygon class="cls-4" points="249.12 419.87 242.08 419.87 238.56 425.96 242.08 432.06 249.12 432.06 252.64 425.96 249.12 419.87"/><polygon class="cls-10" points="249.12 407.68 242.08 407.68 238.56 413.77 242.08 419.87 249.12 419.87 252.64 413.77 249.12 407.68"/><polygon class="cls-7" points="259.7 413.66 252.66 413.66 249.14 419.75 252.66 425.85 259.7 425.85 263.21 419.75 259.7 413.66"/><polygon class="cls-9" points="259.93 425.85 252.89 425.85 249.37 431.94 252.89 438.04 259.93 438.04 263.44 431.94 259.93 425.85"/><polygon class="cls-7" points="249.35 432.06 242.31 432.06 238.79 438.15 242.31 444.25 249.35 444.25 252.87 438.15 249.35 432.06"/><polygon class="cls-8" points="238.77 426.08 231.73 426.08 228.21 432.17 231.73 438.26 238.77 438.26 242.29 432.17 238.77 426.08"/><polygon class="cls-7" points="173.95 425.13 166.91 425.13 163.39 431.23 166.91 437.32 173.95 437.32 177.47 431.23 173.95 425.13"/><polygon class="cls-4" points="184.53 431.34 177.49 431.34 173.97 437.44 177.49 443.53 184.53 443.53 188.05 437.44 184.53 431.34"/><polygon class="cls-8" points="184.53 419.15 177.49 419.15 173.97 425.25 177.49 431.34 184.53 431.34 188.05 425.25 184.53 419.15"/><polygon class="cls-9" points="195.11 425.13 188.07 425.13 184.55 431.23 188.07 437.32 195.11 437.32 198.63 431.23 195.11 425.13"/><polygon class="cls-8" points="195.34 437.32 188.3 437.32 184.78 443.41 188.3 449.51 195.34 449.51 198.86 443.41 195.34 437.32"/><polygon class="cls-7" points="184.76 443.53 177.72 443.53 174.2 449.62 177.72 455.72 184.76 455.72 188.28 449.62 184.76 443.53"/><polygon class="cls-7" points="174.18 437.55 167.14 437.55 163.62 443.64 167.14 449.74 174.18 449.74 177.7 443.64 174.18 437.55"/><polygon class="cls-7" points="195.62 449.97 188.58 449.97 185.06 456.07 188.58 462.16 195.62 462.16 199.14 456.07 195.62 449.97"/><polygon class="cls-4" points="260.79 475.29 253.75 475.29 250.24 481.38 253.75 487.48 260.79 487.48 264.31 481.38 260.79 475.29"/><polygon class="cls-4" points="228.04 407.96 221 407.96 217.48 414.05 221 420.15 228.04 420.15 231.56 414.05 228.04 407.96"/><polygon class="cls-9" points="260.79 463.1 253.75 463.1 250.24 469.19 253.75 475.29 260.79 475.29 264.31 469.19 260.79 463.1"/><polygon class="cls-9" points="271.37 469.08 264.33 469.08 260.81 475.17 264.33 481.27 271.37 481.27 274.89 475.17 271.37 469.08"/><polygon class="cls-9" points="228.61 458.16 221.57 458.16 218.05 464.25 221.57 470.35 228.61 470.35 232.13 464.25 228.61 458.16"/><polygon class="cls-8" points="271.6 481.27 264.56 481.27 261.05 487.36 264.56 493.46 271.6 493.46 275.12 487.36 271.6 481.27"/><polygon class="cls-8" points="227.02 420.31 219.98 420.31 216.46 426.4 219.98 432.5 227.02 432.5 230.54 426.4 227.02 420.31"/><polygon class="cls-8" points="227.02 433.05 219.98 433.05 216.46 439.14 219.98 445.23 227.02 445.23 230.54 439.14 227.02 433.05"/><polygon class="cls-8" points="238.84 437.59 231.81 437.59 228.29 443.69 231.81 449.78 238.84 449.78 242.36 443.69 238.84 437.59"/><polygon class="cls-8" points="228.84 445.78 221.8 445.78 218.28 451.88 221.8 457.97 228.84 457.97 232.36 451.88 228.84 445.78"/><polygon class="cls-8" points="247.94 444.87 240.91 444.87 237.39 450.97 240.91 457.06 247.94 457.06 251.46 450.97 247.94 444.87"/><polygon class="cls-7" points="261.02 487.48 253.98 487.48 250.47 493.57 253.98 499.67 261.02 499.67 264.54 493.57 261.02 487.48"/><polygon class="cls-4" points="238.95 464.37 231.92 464.37 228.4 470.46 231.92 476.56 238.95 476.56 242.47 470.46 238.95 464.37"/><polygon class="cls-9" points="238.95 452.18 231.92 452.18 228.4 458.27 231.92 464.37 238.95 464.37 242.47 458.27 238.95 452.18"/><polygon class="cls-9" points="249.53 458.16 242.5 458.16 238.98 464.25 242.5 470.35 249.53 470.35 253.05 464.25 249.53 458.16"/><polygon class="cls-8" points="249.76 470.35 242.73 470.35 239.21 476.44 242.73 482.54 249.76 482.54 253.28 476.44 249.76 470.35"/><polygon class="cls-7" points="239.18 476.56 232.15 476.56 228.63 482.65 232.15 488.75 239.18 488.75 242.7 482.65 239.18 476.56"/><polygon class="cls-7" points="249.19 482.93 242.16 482.93 238.64 489.02 242.16 495.12 249.19 495.12 252.71 489.02 249.19 482.93"/><polygon class="cls-7" points="228.27 470.19 221.23 470.19 217.71 476.28 221.23 482.38 228.27 482.38 231.78 476.28 228.27 470.19"/><polygon class="cls-9" points="195.85 462.39 188.81 462.39 185.29 468.49 188.81 474.58 195.85 474.58 199.37 468.49 195.85 462.39"/><polygon class="cls-9" points="152.18 475.13 145.14 475.13 141.62 481.22 145.14 487.32 152.18 487.32 155.69 481.22 152.18 475.13"/><polygon class="cls-10" points="205.66 418.79 198.62 418.79 195.1 424.88 198.62 430.98 205.66 430.98 209.18 424.88 205.66 418.79"/><polygon class="cls-4" points="216.24 425 209.2 425 205.69 431.09 209.2 437.19 216.24 437.19 219.76 431.09 216.24 425"/><polygon class="cls-10" points="216.24 412.81 209.2 412.81 205.69 418.9 209.2 425 216.24 425 219.76 418.9 216.24 412.81"/><polygon class="cls-7" points="216.47 437.19 209.43 437.19 205.91 443.28 209.43 449.38 216.47 449.38 219.99 443.28 216.47 437.19"/><polygon class="cls-10" points="205.89 431.21 198.85 431.21 195.34 437.3 198.85 443.4 205.89 443.4 209.41 437.3 205.89 431.21"/><polygon class="cls-7" points="184.52 395 177.48 395 173.96 401.1 177.48 407.19 184.52 407.19 188.04 401.1 184.52 395"/><polygon class="cls-8" points="195.1 401.21 188.06 401.21 184.54 407.31 188.06 413.4 195.1 413.4 198.62 407.31 195.1 401.21"/><polygon class="cls-4" points="195.1 389.02 188.06 389.02 184.54 395.12 188.06 401.21 195.1 401.21 198.62 395.12 195.1 389.02"/><polygon class="cls-8" points="205.68 395 198.64 395 195.12 401.1 198.64 407.19 205.68 407.19 209.2 401.1 205.68 395"/><polygon class="cls-10" points="205.91 407.19 198.87 407.19 195.35 413.29 198.87 419.38 205.91 419.38 209.43 413.29 205.91 407.19"/><polygon class="cls-4" points="195.33 413.4 188.29 413.4 184.77 419.5 188.29 425.59 195.33 425.59 198.85 419.5 195.33 413.4"/><polygon class="cls-9" points="184.75 407.42 177.71 407.42 174.19 413.52 177.71 419.61 184.75 419.61 188.27 413.52 184.75 407.42"/><polygon class="cls-10" points="162.85 456.31 155.81 456.31 152.29 462.41 155.81 468.5 162.85 468.5 166.37 462.41 162.85 456.31"/><polygon class="cls-4" points="173.43 462.52 166.39 462.52 162.87 468.62 166.39 474.71 173.43 474.71 176.95 468.62 173.43 462.52"/><polygon class="cls-8" points="173.43 450.33 166.39 450.33 162.87 456.43 166.39 462.52 173.43 462.52 176.95 456.43 173.43 450.33"/><polygon class="cls-10" points="184.01 456.31 176.97 456.31 173.45 462.41 176.97 468.5 184.01 468.5 187.53 462.41 184.01 456.31"/><polygon class="cls-7" points="184.24 468.5 177.2 468.5 173.68 474.6 177.2 480.69 184.24 480.69 187.76 474.6 184.24 468.5"/><polygon class="cls-7" points="194.25 474.87 187.21 474.87 183.69 480.97 187.21 487.06 194.25 487.06 197.77 480.97 194.25 474.87"/><polygon class="cls-7" points="173.32 474.87 166.28 474.87 162.76 480.97 166.28 487.06 173.32 487.06 176.84 480.97 173.32 474.87"/><polygon class="cls-7" points="173.32 487.61 166.28 487.61 162.76 493.7 166.28 499.8 173.32 499.8 176.84 493.7 173.32 487.61"/><polygon class="cls-7" points="184.24 481.24 177.2 481.24 173.68 487.34 177.2 493.43 184.24 493.43 187.76 487.34 184.24 481.24"/><polygon class="cls-8" points="163.08 468.73 156.04 468.73 152.53 474.83 156.04 480.92 163.08 480.92 166.6 474.83 163.08 468.73"/><polygon class="cls-8" points="162.17 482.38 155.13 482.38 151.62 488.48 155.13 494.57 162.17 494.57 165.69 488.48 162.17 482.38"/><polygon class="cls-7" points="162.34 430.94 155.3 430.94 151.78 437.04 155.3 443.13 162.34 443.13 165.86 437.04 162.34 430.94"/><polygon class="cls-9" points="162.57 443.13 155.53 443.13 152.01 449.23 155.53 455.32 162.57 455.32 166.09 449.23 162.57 443.13"/><polygon class="cls-4" points="139.95 380.39 132.91 380.39 129.39 386.48 132.91 392.58 139.95 392.58 143.47 386.48 139.95 380.39"/><polygon class="cls-8" points="139.95 368.2 132.91 368.2 129.39 374.29 132.91 380.39 139.95 380.39 143.47 374.29 139.95 368.2"/><polygon class="cls-9" points="150.53 374.18 143.49 374.18 139.97 380.27 143.49 386.37 150.53 386.37 154.04 380.27 150.53 374.18"/><polygon class="cls-8" points="150.75 386.37 143.72 386.37 140.2 392.46 143.72 398.56 150.75 398.56 154.27 392.46 150.75 386.37"/><polygon class="cls-7" points="140.18 392.58 133.14 392.58 129.62 398.67 133.14 404.77 140.18 404.77 143.69 398.67 140.18 392.58"/><polygon class="cls-7" points="129.6 386.6 122.56 386.6 119.04 392.69 122.56 398.79 129.6 398.79 133.12 392.69 129.6 386.6"/><polygon class="cls-7" points="151.04 399.02 144 399.02 140.48 405.11 144 411.21 151.04 411.21 154.56 405.11 151.04 399.02"/><polygon class="cls-4" points="161.62 405.23 154.58 405.23 151.06 411.32 154.58 417.42 161.62 417.42 165.13 411.32 161.62 405.23"/><polygon class="cls-9" points="161.62 393.04 154.58 393.04 151.06 399.13 154.58 405.23 161.62 405.23 165.13 399.13 161.62 393.04"/><polygon class="cls-9" points="172.19 399.02 165.16 399.02 161.64 405.11 165.16 411.21 172.19 411.21 175.71 405.11 172.19 399.02"/><polygon class="cls-9" points="184.02 381.73 176.99 381.73 173.47 387.82 176.99 393.92 184.02 393.92 187.54 387.82 184.02 381.73"/><polygon class="cls-8" points="172.43 411.21 165.39 411.21 161.87 417.3 165.39 423.4 172.43 423.4 175.94 417.3 172.43 411.21"/><polygon class="cls-7" points="161.84 417.42 154.81 417.42 151.29 423.51 154.81 429.61 161.84 429.61 165.36 423.51 161.84 417.42"/><polygon class="cls-10" points="161.08 367.83 154.04 367.83 150.52 373.93 154.04 380.02 161.08 380.02 164.6 373.93 161.08 367.83"/><polygon class="cls-4" points="171.66 374.05 164.62 374.05 161.1 380.14 164.62 386.23 171.66 386.23 175.18 380.14 171.66 374.05"/><polygon class="cls-10" points="171.66 361.86 164.62 361.86 161.1 367.95 164.62 374.05 171.66 374.05 175.18 367.95 171.66 361.86"/><polygon class="cls-10" points="182.58 342.75 175.54 342.75 172.02 348.84 175.54 354.94 182.58 354.94 186.09 348.84 182.58 342.75"/><polygon class="cls-10" points="182.58 368.23 175.54 368.23 172.02 374.32 175.54 380.41 182.58 380.41 186.09 374.32 182.58 368.23"/><polygon class="cls-7" points="171.89 386.23 164.85 386.23 161.33 392.33 164.85 398.42 171.89 398.42 175.41 392.33 171.89 386.23"/><polygon class="cls-10" points="161.31 380.25 154.27 380.25 150.75 386.35 154.27 392.44 161.31 392.44 164.83 386.35 161.31 380.25"/><path class="cls-7" d="M156.54,330.4h-3.62l-3.52,6.1,3.52,6.09h7l3.52-6.09-2.32-4A14.91,14.91,0,0,1,156.54,330.4Z"/><polygon class="cls-7" points="170.87 336.77 163.84 336.77 160.32 342.87 163.84 348.96 170.87 348.96 174.39 342.87 170.87 336.77"/><polygon class="cls-7" points="172.69 349.51 165.66 349.51 162.14 355.61 165.66 361.7 172.69 361.7 176.21 355.61 172.69 349.51"/><polygon class="cls-8" points="150.52 350.26 143.48 350.26 139.96 356.36 143.48 362.45 150.52 362.45 154.03 356.36 150.52 350.26"/><polygon class="cls-8" points="161.1 344.05 154.06 344.05 150.54 350.15 154.06 356.24 161.1 356.24 164.62 350.15 161.1 344.05"/><polygon class="cls-10" points="161.33 356.24 154.29 356.24 150.77 362.34 154.29 368.43 161.33 368.43 164.84 362.34 161.33 356.24"/><path class="cls-10" d="M180.88,336a37.86,37.86,0,0,1-10.08-1v0l3.52,6.09h7l3.29-5.7A16.39,16.39,0,0,1,180.88,336Z"/><polygon class="cls-4" points="150.75 362.45 143.71 362.45 140.19 368.55 143.71 374.64 150.75 374.64 154.26 368.55 150.75 362.45"/><polygon class="cls-9" points="140.17 356.47 133.13 356.47 129.61 362.57 133.13 368.66 140.17 368.66 143.69 362.57 140.17 356.47"/><polygon class="cls-8" points="128.85 399.38 121.81 399.38 118.29 405.48 121.81 411.57 128.85 411.57 132.37 405.48 128.85 399.38"/><polygon class="cls-10" points="139.43 405.36 132.39 405.36 128.87 411.45 132.39 417.55 139.43 417.55 142.94 411.45 139.43 405.36"/></g></g><path class="cls-11" d="M137.7,287.13a24,24,0,0,1-19.18,14.92c-14.91,2.13-33-3.2-47.94-24.5s-27.69-10.66-29.82-6.4h0s-4.27,4.27-4.27,8.53-8.52-4.26-2.13-12.79,17-14.91,23.44-17,8.52-4.26,6.39-8.52S38.63,234.93,28,230.67,2.41,215.76.28,205.11s8.52-34.09,17-38.35,8.52,4.26,6.39,6.39-8.52,2.13-12.78,8.52S4.54,196.59,8.8,200.85s17,8.52,25.56,4.26,19.18-17.05,21.31-23.44,2.13-17,2.13-17,25.57,17,27.7,19.17L104.67,203l63.92-25.57s115-2.13,117.18-2.13,46.87-27.7,46.87-27.7-2.13,14.92,0,17,14.91,8.52,23.44,19.17,10.65,21.31,8.52,27.7-8.52,8.52-12.79,12.78-10.65,8.52-8.52,12.79,6.39,8.52,12.79,8.52,21.3,2.13,25.56,6.39,4.26,6.39,4.26,6.39-10.65-8.52-27.69-6.39-36.22,4.26-40.48,8.52-19.18,6.39-25.57,12.78-2.13-10.65,0-21.3-17-70.31-17-70.31L183.5,183.8l-44.74,10.65-17,17.05Z"/><path class="cls-3" d="M291.56,204.47a86.12,86.12,0,0,0-55.05-42.73c4-14.72,8.87-33.93,9.81-42.67,1.65-15.18,4.52-26.66-3.28-32.4s-14.14-3.28-15.89,0-10.87,59.6-10.81,65.27a62.5,62.5,0,0,1-.69,7.39c-4.55-.08-9.25.07-14,.45a67.06,67.06,0,0,1-.75-7.84c.05-5.67-9.07-62-10.82-65.27s-8.1-5.74-15.89,0-4.92,17.22-3.28,32.4c1,8.94,6.06,28.83,10.08,43.67a145.8,145.8,0,0,0-23.94,7c-22.11,8.75-42.89,41.83-43.69,58s-10.65,59.87,26.78,91.86c0,0,10.79,11.48,26,15.31s72.46,7.11,92.17-4.37,32.76-22.42,38.62-44.57S305.94,231.26,291.56,204.47Z"/><circle class="cls-12" cx="161.66" cy="252.2" r="11.03"/><circle class="cls-12" cx="253.86" cy="252.2" r="11.03"/><ellipse class="cls-13" cx="161.43" cy="269.99" rx="11.03" ry="5.51"/><ellipse class="cls-13" cx="254.47" cy="269.99" rx="11.03" ry="5.51"/><path class="cls-14" d="M170.94,274.53S165,280.7,168.33,286s9.64,8.46,18.28,9.6,38.21,2.52,47.52-1.6,14.62-13.26,10.63-19.43-23.59-13.71-36.55-13S177.59,267.22,170.94,274.53Z"/><path class="cls-15" d="M200.48,260s0,5.28,3.39,8,8.74,2.52,11,0,3.93-9.21,2.5-11.26S199.77,252.86,200.48,260Z"/><path class="cls-15" d="M232.63,280a1.32,1.32,0,0,0-1.55-.29c-1.65.5-11.6,1.82-13.87.13-2.73-2-5.86-7.68-6-12.19a.43.43,0,0,0,0-.11.62.62,0,0,0,0-.13s0-.08,0-.13a.36.36,0,0,0,0-.11.67.67,0,0,0-.06-.12l-.06-.11-.08-.1-.08-.09-.09-.09a.39.39,0,0,1-.1-.08l-.11-.06-.12-.06-.12,0-.12,0h-.13l-.12,0h-.06l-.12,0h-.13l-.12,0-.12,0-.12.06-.11.06-.09.08-.1.09-.08.09-.08.1-.06.11-.06.12a.36.36,0,0,0,0,.11c0,.05,0,.09,0,.13s0,.09,0,.13,0,.07,0,.11c-.1,4.51-3.23,10.15-6,12.19-2.27,1.69-12.22.37-13.86-.13a1.32,1.32,0,0,0-1.48,2.16c.57.54,5.55,1.43,10.11,1.43,2.82,0,5.48-.34,6.82-1.34a19.69,19.69,0,0,0,5.69-8.18,19.61,19.61,0,0,0,5.7,8.18c1.33,1,4,1.34,6.82,1.34,4.55,0,9.53-.89,10.11-1.43A1.34,1.34,0,0,0,232.63,280Z"/><path class="cls-16" d="M253.6,227.52s-22.86,3.41-23.55,5.36,45.72-2.68,44.34-4.14S253.6,227.52,253.6,227.52Z"/><path class="cls-16" d="M161,227.52s22.86,3.41,23.56,5.36-45.73-2.68-44.34-4.14S161,227.52,161,227.52Z"/><path class="cls-16" d="M177.36,192.81s16.85,6.32,35.81,4.21,29.5-6.32,37.92-4.21,21.07,21.07,23.18,33.71,25.2,32.07,25.2,40.5,6.08-1.87,8.18-8.19.32-17.57,6.64-30.21-4.21-25.28,6.32-50.56,21.07-40,4.21-59-50.55-35.81-86.37-48.45-59-12.64-54.77-25.28S194.21,28.5,206.85,30.6s19,8.43,14.75,12.64,21.07,10.54,23.17,0-12.64-25.28-42.13-19-63.2,23.18-77.94,40c0,0-6.32,2.1-10.54,16.85S105.74,93.8,99.42,93.8s-25.28-4.21-33.71,2.11S51,102.23,53.07,110.65s6.32,8.43,6.32,8.43-4.21-10.53,2.11-12.64,19,0,16.85,4.21-10.53,12.64-12.64,10.54a6.5,6.5,0,0,0-4.21-2.11s2.11,4.21-2.11,8.43S44.65,138,44.65,150.68s8.42,16.85,16.85,21.07,19,6.31,19,14.74-6.32,12.64,0,23.17,10.53,8.43,19,12.64,11.7,37.44,11.7,37.44,28.32-54.29,34.64-58.5S154.19,190.7,177.36,192.81Z"/><path class="cls-11" d="M113.85,254.28s8.34-10,10.92-18.19a69.7,69.7,0,0,1,7.28-14.56c9.1-12.74,11.83-20,20-24.51,7.62-4.16,11.59-5.26,22.12-3.16S189,196,197.37,198.08a66.29,66.29,0,0,0,11.59,1c6.32,0,12.64,0,16.85-2.11s27.35-6.28,35.82,4.22,11.73,23.13,14.18,30.3c1.52,4.45,22.75,31.84,22.75,31.84.3,0-9.65-19.62-10.92-23.66S277,229.38,274.9,225.17s-2.74-5,1.47-7.08,8.43-4.21,4.22-4.21-10.54,0-10.54-4.22,0-6.32,2.11-8.42-2.11,0-4.21,0-10.54-4.22-10.54-8.43-4.21,2.11-8.42-4.21c0,0-2.11,2.1-2.11-6.32,0,0-2.11,6.32-8.43,8.42s-10.53,6.32-12.64,2.11V188.6s-4,5.34-8.23,7.45c0,0-19.45,2.11-23.66,0s-1.81-5.35-1.81-5.35L190,194.92s-2.1,0-4.21-6.32c0,0-2.11-4.22-2.11-6.32s-2.1,8.42-2.1,10.53-6.32,0-8.43-4.21S171,176,177.36,171.75s-4.21-4.22-8.42-4.22-21.07-4.21-27.39,0-13.37,11.9-19,21.07c-5.1,8.36-8.74,37.81-8.74,42Z"/><path class="cls-17" d="M286.91,245.48s12.64-35.82,14.74-46.35,0-65.3-4.21-71.62S289,150.68,289,150.68,289,138,284.8,138s-8.43,14.75-10.53,16.85-4.22-2.1-4.22-6.32c0,0-21.06-10.53-37.92-27.38S211.07,98,209,95.91s-4.21-2.11-8.43,2.1S173.15,131.72,150,142.25c0,0-8.43,4.22-8.43,8.43v8.43s-6.32,0-8.43-10.54-4.21-10.53-6.32-8.42-4.21,10.53-4.21,10.53-4.21-16.85-4.21-21.07-6.32,2.11-6.32,4.22S110,194.92,110,197s8.43,40,10.53,44.24c0,0,2.11,10.54,4.22,12.64s0-35.81,0-46.34,2.1-33.71,16.85-37.92,35.81-2.11,42.13,0,19,12.64,21.07,12.64,8.42-8.43,25.28-12.64,31.6-4.21,40,2.11c0,0,14.75,8.42,14.75,18.95v50.56c0,4.22-2.11,10.54,0,8.43A6.52,6.52,0,0,0,286.91,245.48Z"/><path class="cls-18" d="M204.75,161.21s-14.75-2.1-19-10.53c0,0-4.21-12.64-4.21-6.32s4.21,21.07,10.53,25.28,8.42,8.42,10.53,8.42h2.11Z"/><path class="cls-18" d="M183.68,131.72s2.11,14.75,6.32,19S202.64,157,204.75,157V102.23l-8.43,8.42c-4.21,4.22-29.49,29.5-44.24,35.82,0,0-6.32,2.1-4.21,4.21s4.21,8.43,6.32,8.43h23.17s4.22,0,2.11-6.32-4.21-10.54-2.11-14.75S181.58,129.61,183.68,131.72Z"/><path class="cls-19" d="M122.59,176l4.21-4.21c4.22-4.22,10.54-6.32,8.43-10.54s-4.21-19-6.32-16.85-6.32,10.53-6.32,16.85Z"/><path class="cls-20" d="M145.76,167.53s19-2.1,23.18-2.1,16.85,2.1,19,4.21-4.22-10.53-4.22-10.53-6.32,2.1-8.42,2.1-19-2.1-27.39,0S131,169.64,126.8,173.85s-4.21,8.43-4.21,23.17,0,0,2.11-6.32,4.21-14.74,10.53-18.95S145.76,167.53,145.76,167.53Z"/><path class="cls-19" d="M120.48,150.68s-2.1-12.64-4.21-14.75-4.21,54.77-4.21,61.09,8.42,44.24,10.53,46.35,0-31.6,0-35.81-4.21-4.22-4.21-14.75S120.48,159.11,120.48,150.68Z"/><path class="cls-21" d="M206.85,127.51S209,117,211.07,114.87s4.21,0,8.42,2.1,6.32,2.11,0-4.21-12.64-12.64-12.64-10.53Z"/><path class="cls-21" d="M286.91,237.05c-1,1.88,6.32-21.07,6.32-27.39s-2.11-14.74,0-16.85,6.32,4.21,6.32-2.11-2.11-46.34-2.11-48.45V129.61s-2.11,2.11-4.21,10.54c0,0-4.22,12.64-4.22,14.74v19l-4.21-6.32c-4.21-6.32-6.32-6.32-6.32-6.32l4.21-16.85S276.37,157,274.27,157s-2.11,2.11-6.32,2.11-6.32-4.22-4.22-6.32a2.92,2.92,0,0,0,0-4.22s0,4.22-6.32,6.32S236.35,157,234.24,157s0,0,0-6.32,0-12.64-2.11-16.85l-2.1-2.11h0s2.1,14.75,0,19-10.54,19-12.64,21.07,6.32-10.54,14.74-10.54,21.07-2.1,31.6,0,14.75,4.22,19,8.43S289,182.28,289,182.28,289,232.84,286.91,237.05Z"/><path class="cls-7" d="M212.23,402.22c-4.8-6-6.5-7.15-6.5-7.15s-.8-1-2.92,1.49-5.77,10.33-7.09,13.84-.23,10.05-.23,10.05l1.29,4.73s.8,1,.9.1-.49-3.72-.07-7.33a18.8,18.8,0,0,1,2.63-7,6.8,6.8,0,0,1,5.95-3.9c4.62-.38,8.9,10.18,8.7,12a40.48,40.48,0,0,1,.38,4.63c-.1.9-.21,1.8-.21,1.8s1.92-.69,2.43-5.21A25.64,25.64,0,0,0,212.23,402.22Z"/><path class="cls-17" d="M215.06,423.62s1.91-.69,2.43-5.21a25.64,25.64,0,0,0-5.26-18c-4.8-6-6.5-7.15-6.5-7.15s-.8-1-2.92,1.49-5.77,10.33-7.09,13.84-.23,10.05-.23,10.05l1.29,4.73s.8,1,.9.1-.49-3.72-.07-7.33a18.8,18.8,0,0,1,2.63-7,6.8,6.8,0,0,1,5.95-3.9c4.62-.38,8.9,10.18,8.7,12a40.48,40.48,0,0,1,.38,4.63l-.21,1.8"/><path class="cls-19" d="M204.72,394.05,204.38,405a13,13,0,0,0-2.92,1.49c-1,.8-2.22,3.41-3.44,6,0,0-1.63,6.22-.93,8.14a17.34,17.34,0,0,1,.65-13.67C201.28,400.06,200.48,399.06,204.72,394.05Z"/><path class="cls-19" d="M205.62,394.15c-.1.9,9.81,10.28,10.9,16.82s-1.4-3.82-3-5.84S205.62,394.15,205.62,394.15Z"/></svg>