<svg xmlns="http://www.w3.org/2000/svg" viewBox="0 0 90.83 183.78"><defs><style>.cls-1{fill:#cd4776;}.cls-2{fill:#e2b4aa;}.cls-3{fill:#2c112f;}.cls-4{fill:#dbb592;}.cls-5{fill:none;}</style></defs><title>資產 5</title><g id="圖層_2" data-name="圖層 2"><g id="圖層_1-2" data-name="圖層 1"><path class="cls-1" d="M28.44,109.64s-8.88,15.54-11.1,19.8S10.77,141.37,9.76,148s-.74,8.05,0,9,3,2.87,4.34,2.77,2.59-1.76,3.06-2.87.92-2.4.92-2.4a6.7,6.7,0,0,0,1.73.77c.43,0,1.66.12,2-1a1.74,1.74,0,0,0-.61-2.22,4.55,4.55,0,0,1-1.25-.94c-.21-.27.11-.9.46-1.52s2.43-3.87,2.43-3.87.37,0,.46.65a36.11,36.11,0,0,0,2.55,5.74c.53.71.93.75.93,1.39s-1,17.43-.83,19.06-.34,1.17-1.08,1.51a11.09,11.09,0,0,0-5,5.46c-1.51,3.48,3.39,3.88,3.76,4s10.86.43,12.28,0,4.78-1.57,5.24-4.29S42.87,162,42.87,162s0-.79.72-.77S53,161.1,53,161.1a.68.68,0,0,1,.51.58c0,.46,1.31,16.82,1.43,17.38a6.27,6.27,0,0,0,4.23,4.07c3.11,1,13.56.43,13.56.43s3.27-.9,3.3-2.62a4.6,4.6,0,0,0-1.18-3.7,30.52,30.52,0,0,0-4.58-3.58,3.61,3.61,0,0,1-.13-1.48c0-1.09-.68-19.38-.68-19.38s1-1.62,1.61-2.79a23.2,23.2,0,0,0,1.76-4.51c0-.67.47-.57.59-.26s2.87,4.46,3.12,4.74.67.55.37.85-2,1.51-2.08,2.18c0,0-.32,1.87,1.5,1.92s1.9-.77,1.9-.77.35,0,.46.67,2,4.51,3.19,4.74,4.56-1.11,5.21-3a16.86,16.86,0,0,0,.21-7.26c-.42-1.73-5.07-16.79-10.16-24.28a82.6,82.6,0,0,1-7.68-14.2l-.55-1.16Z"/><path class="cls-2" d="M37.29,150.09a14.26,14.26,0,0,0,8,4.75c4.79.74,10.32-1,12-4.75s3.09-14.83-3.51-19.19-13-1.28-14.15,0-4.15,4.68-4,9.47S36.22,147.89,37.29,150.09Z"/><path class="cls-1" d="M86.2,54.7A38.86,38.86,0,0,0,61.36,35.42c1.8-6.64,4-15.31,4.43-19.25.74-6.85,2-12-1.48-14.62s-6.38-1.48-7.17,0S52.24,28.44,52.26,31A28.43,28.43,0,0,1,52,34.33c-2.05,0-4.17,0-6.33.21A30.45,30.45,0,0,1,45.29,31c0-2.56-4.1-28-4.88-29.45s-3.66-2.59-7.17,0S31,9.32,31.76,16.17c.43,4,2.73,13,4.54,19.7A66.28,66.28,0,0,0,25.5,39C15.53,43,6.15,57.91,5.79,65.19S1,92.2,17.87,106.63a27.18,27.18,0,0,0,11.72,6.91c6.85,1.72,32.69,3.2,41.58-2S86,101.45,88.6,91.46,92.69,66.79,86.2,54.7Z"/><circle class="cls-3" cx="27.59" cy="76.23" r="4.98"/><circle class="cls-3" cx="69.19" cy="76.23" r="4.98"/><ellipse class="cls-4" cx="27.49" cy="84.26" rx="4.98" ry="2.49"/><ellipse class="cls-4" cx="69.46" cy="84.26" rx="4.98" ry="2.49"/><path class="cls-2" d="M31.78,86.31S29.1,89.1,30.6,91.47,35,95.28,38.85,95.8s17.24,1.13,21.44-.72,6.59-6,4.79-8.77-10.64-6.19-16.49-5.88S34.78,83,31.78,86.31Z"/><path class="cls-3" d="M45.11,79.74a5.2,5.2,0,0,0,1.52,3.63c1.53,1.24,3.95,1.14,5,0s1.77-4.16,1.13-5.08S44.78,76.53,45.11,79.74Z"/><path class="cls-3" d="M59.61,88.78a.59.59,0,0,0-.7-.13c-.74.22-5.23.82-6.26,0A8.24,8.24,0,0,1,50,83.21a.43.43,0,0,0,0,0,.13.13,0,0,0,0-.06s0,0,0-.06,0,0,0-.05l0-.06s0,0,0,0l0,0s0,0,0,0a.08.08,0,0,0,0,0l0,0-.05,0,0,0-.06,0-.06,0h-.25l-.05,0-.06,0-.05,0,0,0,0,0-.05,0,0,0,0,0a.08.08,0,0,0,0,0l0,.06s0,0,0,.05,0,0,0,.06v.06a.43.43,0,0,0,0,0,8.24,8.24,0,0,1-2.68,5.49c-1,.77-5.52.17-6.26,0a.58.58,0,0,0-.7.13.6.6,0,0,0,0,.84,13.38,13.38,0,0,0,4.56.65,5.73,5.73,0,0,0,3.08-.61A8.86,8.86,0,0,0,49.37,86a8.86,8.86,0,0,0,2.57,3.69,5.73,5.73,0,0,0,3.08.61,13.38,13.38,0,0,0,4.56-.65A.6.6,0,0,0,59.61,88.78Z"/><rect class="cls-5" y="101.74" width="52.18" height="52.18"/></g></g></svg>