<?xml version="1.0" encoding="utf-8"?>
<!-- Generator: Adobe Illustrator 22.1.0, SVG Export Plug-In . SVG Version: 6.00 Build 0)  -->
<svg version="1.1" id="圖層_1" xmlns="http://www.w3.org/2000/svg" xmlns:xlink="http://www.w3.org/1999/xlink" x="0px" y="0px"
	 viewBox="0 0 229 387" style="enable-background:new 0 0 229 387;" xml:space="preserve">
<style type="text/css">
	.st0{fill:#EFFF8A;}
	.st1{fill:#E61F62;}
	.st2{fill:#80685D;stroke:#000000;stroke-miterlimit:10;}
	.st3{fill:#FFFFFF;}
	.st4{fill:#2C112F;}
	.st5{fill:#DED3BE;}
	.st6{fill:#6793F4;}
	.st7{fill:#FFFFFF;stroke:#231815;stroke-miterlimit:10;}
	.st8{fill:#E8415A;}
	.st9{font-family:'DFKanTingLiuStd-W9-B5pc-H';}
	.st10{font-size:37.7957px;}
</style>
<title>資產 7</title>
<g>
	<ellipse class="st0" cx="116.8" cy="335.9" rx="52.6" ry="25.1"/>
	<g>
		<g id="圖層_2_1_">
			<g id="圖層_1-2">
				<path class="st1" d="M41.4,155.9c4.7-6.4,10.4-12,16.9-16.6v-3.5c-0.6,5.1-1.5,10.2-2.7,15.2c-0.2,0.8,0.5,2.9,0,3.5l12.1-15.3
					v-3.5c-1.9,5-3.5,10.1-4.6,15.3c-0.2,0.8,0.5,2.9,0,3.5l10.3-12.9v-3.5c-0.8,5.3-2.1,10.6-1.9,16c0.1,3,2.1,4.3,4.7,2
					c3.4-2.9,6.1-7.3,8.9-10.8c0.6-0.7-0.6-2.8,0-3.5c-2.5,3.1-4.9,6.2-7.4,9.2c-1.7,2-6.1,5.1-6.2,0.1v3.2
					c0.5-4.2,1.3-8.5,1.9-12.7c0.1-0.8-0.4-2.9,0-3.5l-10.3,13v3.5c1.1-5.2,2.7-10.4,4.6-15.3c0.3-0.8-0.5-2.8,0-3.5L55.6,151v3.5
					c1.2-5,2.1-10.1,2.7-15.2c0.1-0.5-0.3-3.3,0-3.5c-6.5,4.6-12.2,10.2-16.9,16.6C40.9,153.2,42,155.2,41.4,155.9z"/>
				<path class="st2" d="M83,204.1c0,0-15.8,27.6-19.7,35.2s-11.7,21.2-13.5,33.1c-1.8,11.8-1.3,14.3,0,16c1.3,1.6,5.3,5.1,7.7,4.9
					c2.5-0.2,4.6-3.1,5.4-5.1c0.8-2,1.6-4.3,1.6-4.3s2.3,1.4,3.1,1.4s3,0.2,3.6-1.8c0.7-2,0-3.3-1.1-3.9c-0.8-0.4-1.6-1-2.2-1.7
					c-0.4-0.5,0.2-1.6,0.8-2.7s4.3-6.9,4.3-6.9s0.7,0,0.8,1.2c0.1,1.1,3.6,9,4.5,10.2c0.9,1.3,1.6,1.3,1.6,2.5
					c0,1.2-1.8,31-1.5,33.9c0.3,2.9-0.6,2.1-1.9,2.7c-4,2.1-7.1,5.6-8.9,9.7c-2.7,6.2,6,6.9,6.7,7.1c0.7,0.2,19.3,0.8,21.8,0
					s8.5-2.8,9.3-7.6s3-30.8,3-30.8c-0.1-0.7,0.4-1.3,1.1-1.4c0.1,0,0.1,0,0.2,0c1.4,0,16.7-0.2,16.7-0.2c0.5,0.1,0.9,0.5,0.9,1
					c0,0.8,2.3,29.9,2.6,30.9c1.1,3.5,4,6.2,7.5,7.2c5.5,1.8,24.1,0.8,24.1,0.8s5.8-1.6,5.9-4.7c0.1-3.1-0.3-4.3-2.1-6.6
					c-1.8-2.2-8.1-6.4-8.1-6.4c-0.3-0.8-0.3-1.7-0.2-2.6c0.1-1.9-1.2-34.5-1.2-34.5s1.8-2.9,2.9-5c1-2.1,3.1-6.8,3.1-8
					c0.1-1.2,0.9-1,1.1-0.5c0.2,0.5,5.1,7.9,5.6,8.4c0.5,0.5,1.2,1,0.7,1.5c-0.5,0.5-3.6,2.6-3.7,3.8c0,0-0.6,3.3,2.7,3.4
					s3.4-1.4,3.4-1.4s0.6-0.1,0.8,1.2c0.2,1.3,3.5,8,5.7,8.4s8.1-1.9,9.2-5.4c1.1-3.4,1.1-9.8,0.4-12.9s-9-29.9-18.1-43.2
					c-9-13.3-11.9-21.7-13.7-25.3l-1-2.1L83,204.1z"/>
				<path class="st2" d="M183.6,103.1c-3.1-5.7-7.1-11-11.7-15.6c2.7-1.6,5.8-5.2,3.3-9.3c-3.6-6.1-9.3-6.8-13.7-4.1
					c-1.3,0.6-2.3,1.8-2.7,3.2c-8-4.9-16.8-8.2-26.1-9.6C114.9,65,90.7,68,72.4,75.1c-1,0.4-2.1,0.9-3.1,1.4c-0.5-1-1.4-1.9-2.4-2.4
					c-4.5-2.6-10.1-2-13.7,4.1c-2.2,3.7,0,6.9,2.4,8.7c-10.8,11-18.9,26.1-19.3,34.9c-0.7,13-8.8,48.2,22.1,74
					c0,0,8.9,9.3,21.5,12.3c12.6,3.1,59.9,5.7,76.2-3.5s27.1-18.1,31.9-35.9C192.9,150.9,195.5,124.7,183.6,103.1z"/>
				<path class="st3" d="M84.4,156.5c0,0-4.8,5-2.1,9.2c2.7,4.2,7.8,6.8,14.7,7.7c7,0.9,30.8,2,38.3-1.3c7.5-3.3,11.8-10.7,8.6-15.7
					s-19-11-29.5-10.5C104,146.5,89.7,150.6,84.4,156.5z"/>
				<circle class="st3" cx="88.7" cy="132.1" r="16.6"/>
				<circle class="st3" cx="139.3" cy="131.4" r="16.6"/>
				<circle class="st4" cx="93.4" cy="131.9" r="8.9"/>
				<circle class="st4" cx="135.2" cy="132.6" r="8.9"/>
				<path class="st4" d="M142.6,103.7c0,0-21.8,9.2-22.4,14.5c-0.7,5.3,43.5-7.3,42.2-11.2C161.1,103.1,142.6,103.7,142.6,103.7z"/>
				<path class="st4" d="M83.9,103.7c0,0,21.8,9.2,22.4,14.5c0.6,5.3-43.5-7.3-42.2-11.2C65.4,103.1,83.9,103.7,83.9,103.7z"/>
				<path class="st5" d="M96.3,272.7c0,0,5.7,7.2,14.3,8.5c8.6,1.3,18.4-1.8,21.5-8.5c3-6.7,5.5-26.5-6.3-34.3
					c-11.8-7.8-23.2-2.3-25.3,0c-2.1,2.3-7.4,8.4-7.2,16.9C93.5,263.9,94.5,268.8,96.3,272.7z"/>
				
					<image style="overflow:visible;opacity:0.75;enable-background:new    ;" width="208" height="132" xlink:href="6962F09CF285A45F.png"  transform="matrix(0.6976 0 0 0.6976 49.1092 204.9511)">
				</image>
				<polygon class="st6" points="75.8,210.9 98.4,217.8 115.5,240.1 138,215 158,211.8 178.2,232.8 163.1,260.1 161,281.1 77,280.8 
					72.2,261.1 55.3,237.7 				"/>
				<circle class="st7" cx="167.4" cy="80.5" r="3.3"/>
				<text transform="matrix(1 0 0 1 98.2964 271.2649)" class="st8 st9 st10">吉</text>
				<circle class="st7" cx="61.5" cy="80.5" r="3.3"/>
				<path class="st4" d="M107.1,141c0,0,0,5.1,3.3,7.8s8.5,2.4,10.7,0c2.2-2.4,3.8-8.9,2.4-10.9C122.1,135.9,106.4,134.1,107.1,141z
					"/>
			</g>
		</g>
	</g>
</g>
</svg>
