<svg id="圖層_1" data-name="圖層 1" xmlns="http://www.w3.org/2000/svg" viewBox="0 0 393 538"><defs><style>.cls-1{fill:#efff8a;}.cls-2{fill:#af675c;}.cls-3{fill:#fff;}.cls-4{fill:#2b102e;}.cls-5{fill:#2c112f;}.cls-6{fill:#cbcbcb;}.cls-7{fill:#474548;}.cls-8{fill:#040000;}.cls-9{fill:#b6282c;}</style></defs><title>0122</title><ellipse class="cls-1" cx="207.67" cy="479.01" rx="117.32" ry="55.99"/><path class="cls-2" d="M142.31,245.17S114.6,293.68,107.67,307,87.17,344.21,84,365s-2.31,25.12,0,28,9.24,8.95,13.57,8.67,8.09-5.49,9.53-9,2.89-7.5,2.89-7.5,4,2.4,5.39,2.4,5.19.39,6.35-3.08,0-5.77-1.93-6.93a14.46,14.46,0,0,1-3.89-2.93c-.65-.87.36-2.82,1.44-4.77s7.58-12,7.58-12,1.15.07,1.44,2,6.33,15.71,8,17.93,2.88,2.31,2.88,4.33-3.17,54.38-2.59,59.48-1.06,3.65-3.37,4.71a34.69,34.69,0,0,0-15.6,17c-4.71,10.87,10.59,12.13,11.75,12.51s33.88,1.35,38.3,0,14.92-4.91,16.36-13.38,5.3-54,5.3-54a2.15,2.15,0,0,1,2.24-2.38c2.38.07,29.23-.29,29.23-.29a2.08,2.08,0,0,1,1.59,1.8c.07,1.45,4.09,52.51,4.47,54.24s3.47,9.62,13.19,12.7,42.35,1.35,42.35,1.35,10.2-2.79,10.3-8.18-.51-7.63-3.69-11.53S272.75,445,272.75,445s-.58-1.23-.43-4.62-2.09-60.49-2.09-60.49,3.17-5.06,5-8.71,5.39-11.94,5.49-14.06,1.49-1.78,1.85-.84,8.95,13.93,9.74,14.8,2.1,1.73,1.16,2.67-6.28,4.69-6.5,6.79c0,0-1,5.84,4.69,6s5.92-2.39,5.92-2.39,1.09-.14,1.45,2.1,6.13,14.07,10,14.8,14.22-3.47,16.24-9.46,1.95-17.25.65-22.67-15.81-52.4-31.69-75.79-20.79-38.11-24-44.32l-1.74-3.61Z"/><path class="cls-2" d="M318.84,67.89a120.93,120.93,0,0,0-20.62-27.36c4.71-2.82,10.12-9.11,5.83-16.33C297.67,13.47,287.81,12.32,280,17c-2.93,1.75-4.24,3.74-4.72,5.56A123.49,123.49,0,0,0,229.53,5.65C198.22,1,155.69,6.42,123.6,18.79c-1.83.71-3.66,1.54-5.47,2.46a10.39,10.39,0,0,0-4.25-4.3c-7.83-4.63-17.69-3.48-24.07,7.25-3.83,6.44.07,12.15,4.3,15.31C75.1,58.81,61,85.29,60.2,100.75,59,123.56,44.73,185.42,99.05,230.65c0,0,15.66,16.24,37.7,21.65s105.15,10.05,133.76-6.18,47.56-31.71,56.06-63S339.71,105.78,318.84,67.89Z"/><path class="cls-3" d="M143.5,150.54s-8.4,8.73-3.7,16.16,13.63,12,25.84,13.58,54.05,3.55,67.21-2.26,20.67-18.75,15-27.48-33.36-19.4-51.69-18.43S152.9,140.19,143.5,150.54Z"/><path class="cls-4" d="M185.27,130s0,7.47,4.79,11.36,12.35,3.57,15.63,0,5.55-13,3.53-15.92S184.26,119.89,185.27,130Z"/><circle class="cls-3" cx="144.75" cy="113.65" r="27.44"/><circle class="cls-5" cx="144.75" cy="113.65" r="17.27"/><path class="cls-5" d="M103.39,86.32S105.57,95,109.93,94s41.44-15.27,44.71-18.54-5.45-14.17-5.45-14.17S104.48,82,103.39,83.05,103.39,86.32,103.39,86.32Z"/><circle class="cls-3" cx="247.02" cy="113.65" r="27.44"/><circle class="cls-5" cx="247.02" cy="113.65" r="17.27"/><path class="cls-5" d="M288.39,86.32S286.21,95,281.85,94s-41.44-15.27-44.71-18.54,5.45-14.17,5.45-14.17S287.3,82,288.39,83.05,288.39,86.32,288.39,86.32Z"/><polygon class="cls-6" points="126.78 244.29 202.8 250.51 274.04 244.29 277.14 256.05 290.08 276.05 315.96 339.58 269.27 340.85 272.44 369 134.79 367.82 135.96 340.76 85.37 327.82 126.55 256.05 126.78 244.29"/><path class="cls-7" d="M176.23,259.92h0l-49.1-3.87a.59.59,0,1,1,.1-1.17l49.09,3.86a.59.59,0,0,1-.05,1.18Z"/><path class="cls-7" d="M228.15,260.8a.59.59,0,0,1-.05-1.17l49-3.58a.59.59,0,0,1,.08,1.18l-49,3.57Z"/><polygon class="cls-8" points="125.25 249.58 162.38 257.23 205.13 292.91 177.94 316.33 179.64 398.41 178.56 317.23 245.16 257.23 277.06 250.76 287.67 266.86 302.46 290.23 335.57 364.45 284.39 366.64 285.82 398.81 179.68 400.45 179.68 397.97 128.51 397.44 129.86 365.83 72.04 350.71 122.63 259.8 125.25 249.58"/><circle class="cls-6" cx="189.1" cy="338.41" r="4.12"/><circle class="cls-6" cx="189.1" cy="364.29" r="4.12"/><path class="cls-6" d="M195.42,264a.26.26,0,0,0-.26-.15c.05.17.11.33.17.49A.28.28,0,0,0,195.42,264Z"/><path class="cls-6" d="M209,262.85a.3.3,0,0,0-.21.36.29.29,0,0,0,.35.21l.1,0c0-.21.08-.41.11-.62Z"/><path class="cls-6" d="M208.71,259.39a.3.3,0,0,0,.18.53.26.26,0,0,0,.18-.07h0c-.06-.19-.14-.38-.21-.56Z"/><path class="cls-9" d="M195.33,264.38s0,0-.05.05a11.51,11.51,0,0,1-4.76,1.25c-1.25,0-2.18-.37-2.53-1.11a.29.29,0,0,1,.14-.39.29.29,0,0,1,.39.14c.5,1.05,3.24,1.14,6.51-.42a.29.29,0,0,1,.13,0,7.05,7.05,0,0,1-.28-2,7.27,7.27,0,0,1,4.52-6.72c-4.07-2-11.6-5.52-15-6.21-4.91-1-9.08,2.83-9.08,6.31v13.25c0,3.48,4.18,7.38,9.08,6.3,3.24-.71,10.28-4.26,14.43-6.45A7.27,7.27,0,0,1,195.33,264.38Zm-8-6.88a.3.3,0,0,1,.59,0c0,1.17,2.43,2.43,6.05,2.43a.29.29,0,0,1,.3.29.3.3,0,0,1-.3.3C190.25,260.52,187.33,259.19,187.33,257.5Z"/><path class="cls-9" d="M219.83,249c-3.35.69-10.88,4.23-15,6.21a7.29,7.29,0,0,1,4,4.08c2.51-1.88,5.66-2,7.1-.15a.3.3,0,0,1,0,.42.3.3,0,0,1-.41-.05c-1.27-1.61-4.15-1.45-6.43.34a7.17,7.17,0,0,1,.31,2.08,8.1,8.1,0,0,1-.06.86,20.16,20.16,0,0,1,5.93-.58c1.89.14,3,.69,3.22,1.59a.29.29,0,0,1-.21.35h-.07a.29.29,0,0,1-.29-.22c-.14-.6-1.15-1-2.7-1.15a20.45,20.45,0,0,0-6,.62,7.28,7.28,0,0,1-3.83,5c4.15,2.19,11.19,5.74,14.43,6.45,4.9,1.08,9.07-2.82,9.07-6.3V255.3C228.9,251.82,224.74,248,219.83,249Z"/><circle class="cls-9" cx="202.07" cy="261.85" r="6.81"/></svg>