<svg xmlns="http://www.w3.org/2000/svg" viewBox="0 0 86.83 159.65"><defs><style>.cls-1{fill:#daa164;stroke:#000;stroke-miterlimit:10;}.cls-2{fill:#b57e59;}.cls-3{fill:#2c112f;}.cls-4{fill:#dbb592;}.cls-5{fill:#fff;}</style></defs><title>資產 4</title><g id="圖層_2" data-name="圖層 2"><g id="圖層_1-2" data-name="圖層 1"><path class="cls-1" d="M24.72,85s-8.88,15.54-11.1,19.8S7.05,116.74,6,123.41s-.74,8,0,9,3,2.87,4.35,2.77,2.59-1.75,3-2.86.93-2.41.93-2.41a6.61,6.61,0,0,0,1.72.77c.43,0,1.67.13,2-1a1.74,1.74,0,0,0-.62-2.23,4.55,4.55,0,0,1-1.25-.94c-.21-.27.12-.9.46-1.52s2.43-3.86,2.43-3.86.37,0,.47.64a35.7,35.7,0,0,0,2.55,5.75c.52.71.92.74.92,1.38s-1,17.43-.83,19.06-.34,1.17-1.08,1.51a11.18,11.18,0,0,0-5,5.46c-1.51,3.49,3.4,3.89,3.77,4s10.85.43,12.27,0,4.78-1.57,5.24-4.29,1.7-17.31,1.7-17.31a.69.69,0,0,1,.72-.77c.76,0,9.36-.09,9.36-.09a.67.67,0,0,1,.51.58c0,.46,1.31,16.82,1.43,17.38a6.29,6.29,0,0,0,4.23,4.07c3.11,1,13.57.43,13.57.43s3.27-.89,3.3-2.62a4.57,4.57,0,0,0-1.18-3.69A30.6,30.6,0,0,0,66.51,149a3.45,3.45,0,0,1-.14-1.48c0-1.09-.67-19.38-.67-19.38s1-1.62,1.6-2.79a22.75,22.75,0,0,0,1.76-4.5c0-.68.48-.57.59-.27s2.87,4.46,3.13,4.74.67.55.37.85-2,1.51-2.09,2.18c0,0-.32,1.87,1.51,1.92s1.89-.77,1.89-.77.35,0,.47.67,2,4.51,3.19,4.75,4.55-1.11,5.2-3a16.76,16.76,0,0,0,.21-7.27c-.42-1.73-5.06-16.79-10.15-24.28a81.46,81.46,0,0,1-7.68-14.2L65.14,85Z"/><path class="cls-2" d="M33.56,125.46a14.26,14.26,0,0,0,8,4.75c4.79.74,10.32-1,12-4.75s3.09-14.83-3.51-19.19-13-1.28-14.15,0-4.15,4.68-4,9.47S32.5,123.26,33.56,125.46Z"/><path class="cls-1" d="M81.7,29.8a39.68,39.68,0,0,0-2.23-3.64c0-.36,0-.75,0-1.07a20.14,20.14,0,0,0-.13-2.2,1.71,1.71,0,0,0,.12-.62A87.85,87.85,0,0,0,78,3,1.6,1.6,0,0,0,78,2.77,2.12,2.12,0,0,0,76.52.63c-1.38-.48-3,.46-3.92,1.37l-.21.2a18.35,18.35,0,0,0-1.93,1.09,11.72,11.72,0,0,0-2.54,2.48C65.5,7.38,61.73,10,59.81,11.38a35,35,0,0,0-5.88-1.44c-7-1.07-15.91-.45-24,1.46C27.37,9.63,21.57,5.56,20,4.61a12.25,12.25,0,0,0-1.18-1,17.39,17.39,0,0,0-1.93-1.09l-.2-.2C15.68,1.46,14.1.52,12.72,1a2.13,2.13,0,0,0-1.47,2.14,1.6,1.6,0,0,0-.05.21A88.46,88.46,0,0,0,9.75,22.64,2.18,2.18,0,0,0,9.8,23C4.94,28.86,1.51,35.93,1.29,40.28c-.36,7.28-4.81,27,12.08,41.44a27.18,27.18,0,0,0,11.72,6.91c6.85,1.73,32.69,3.21,41.58-2S81.45,76.54,84.1,66.55,88.18,41.89,81.7,29.8Z"/><circle class="cls-3" cx="22.53" cy="51.6" r="4.98"/><circle class="cls-3" cx="64.13" cy="51.6" r="4.98"/><ellipse class="cls-4" cx="22.43" cy="59.63" rx="4.98" ry="2.49"/><ellipse class="cls-4" cx="64.4" cy="59.63" rx="4.98" ry="2.49"/><path class="cls-5" d="M26.72,61.68S24,64.47,25.54,66.84s4.35,3.82,8.25,4.33S51,72.31,55.23,70.45s6.6-6,4.8-8.77-10.65-6.19-16.5-5.88S29.72,58.38,26.72,61.68Z"/><path class="cls-3" d="M40.05,55.11a5.18,5.18,0,0,0,1.53,3.63c1.52,1.24,3.94,1.14,5,0s1.77-4.16,1.13-5.08S39.73,51.9,40.05,55.11Z"/><path class="cls-3" d="M54.55,64.15a.6.6,0,0,0-.7-.13c-.74.22-5.23.82-6.26.06a8.29,8.29,0,0,1-2.68-5.5.43.43,0,0,0,0,0v-.06s0,0,0-.06l0,0,0,0a.08.08,0,0,0,0-.05l0,0,0,0-.05,0,0,0,0,0-.05,0-.06,0h-.36l-.06,0,0,0-.05,0,0,0,0,0s0,0,0,0l0,0s0,0,0,.05l0,0,0,0s0,0,0,.06a.13.13,0,0,0,0,.06.43.43,0,0,0,0,0A8.29,8.29,0,0,1,41,64.08c-1,.76-5.52.16-6.26-.06a.6.6,0,0,0-.67,1,13.38,13.38,0,0,0,4.56.65,5.84,5.84,0,0,0,3.08-.6,8.89,8.89,0,0,0,2.57-3.7A8.89,8.89,0,0,0,46.88,65a5.84,5.84,0,0,0,3.08.6A13.38,13.38,0,0,0,54.52,65,.6.6,0,0,0,54.55,64.15Z"/></g></g></svg>