<svg xmlns="http://www.w3.org/2000/svg" viewBox="0 0 88.09 152.47"><defs><style>.cls-1{fill:#80685d;}.cls-2{fill:#ded3be;}.cls-3{fill:#2c112f;}.cls-4{fill:#fff;}</style></defs><title>資產 6</title><g id="圖層_2" data-name="圖層 2"><g id="圖層_1-2" data-name="圖層 1"><path class="cls-1" d="M83.33,21.77a38.36,38.36,0,0,0-3.72-5.55l.18-.07a6.91,6.91,0,0,0,5.35-5.59c.66-3.75-.73-8.9-5-9.68C77.77-.69,74.37.08,72,1.35a8.31,8.31,0,0,0-1.48,1,5.14,5.14,0,0,0-2.33,3.3,5.28,5.28,0,0,0-.24.77,39.15,39.15,0,0,0-13.07-4.5C44.85.43,31.28,2.16,21,6.1l-.76.32A4.15,4.15,0,0,0,20,5.64a5.14,5.14,0,0,0-2.33-3.3,8.31,8.31,0,0,0-1.48-1C13.83.08,10.42-.69,8,.88c-4.23.78-5.62,5.93-4.95,9.68A6.9,6.9,0,0,0,8.4,16.15l.14.06C4.09,21.78,1,28.2.81,32.25c-.37,7.28-4.93,27,12.4,41.45a28,28,0,0,0,12,6.91c7,1.72,33.55,3.2,42.67-2S83.09,68.52,85.8,58.53,90,33.86,83.33,21.77Z"/><path class="cls-1" d="M25.24,78.33s-8.88,15.54-11.1,19.8-6.57,11.93-7.58,18.59-.74,8,0,9,3,2.86,4.34,2.77,2.6-1.76,3.06-2.87.92-2.4.92-2.4a6.7,6.7,0,0,0,1.73.77c.43,0,1.66.12,2-1a1.74,1.74,0,0,0-.61-2.22,4.55,4.55,0,0,1-1.25-.94c-.21-.28.11-.9.46-1.52s2.43-3.87,2.43-3.87.37,0,.46.65a37.9,37.9,0,0,0,2.55,5.74c.53.71.93.74.93,1.39s-1,17.42-.83,19.06-.34,1.17-1.08,1.51a11.09,11.09,0,0,0-5,5.46c-1.51,3.48,3.39,3.88,3.76,4s10.86.43,12.28,0S37.52,150.67,38,148s1.7-17.31,1.7-17.31,0-.79.71-.77,9.37-.09,9.37-.09a.67.67,0,0,1,.51.58c0,.46,1.31,16.82,1.43,17.37a6.25,6.25,0,0,0,4.23,4.07c3.11,1,13.57.44,13.57.44s3.26-.9,3.29-2.62a4.59,4.59,0,0,0-1.17-3.7A30.35,30.35,0,0,0,67,142.35a3.5,3.5,0,0,1-.14-1.48c0-1.09-.67-19.38-.67-19.38s1-1.62,1.6-2.79a22.8,22.8,0,0,0,1.76-4.51c0-.67.48-.57.59-.27s2.87,4.47,3.12,4.75.67.55.37.85-2,1.5-2.08,2.17c0,0-.32,1.88,1.51,1.92s1.89-.76,1.89-.76.35,0,.46.67,2,4.51,3.2,4.74,4.55-1.11,5.2-3a16.87,16.87,0,0,0,.21-7.26c-.42-1.73-5.07-16.79-10.16-24.28a81.47,81.47,0,0,1-7.67-14.2l-.56-1.16Z"/><path class="cls-2" d="M34.09,118.77s3.19,4,8,4.76,10.32-1,12-4.76S57.18,104,50.58,99.59s-13-1.28-14.15,0-4.15,4.68-4,9.47S33,116.58,34.09,118.77Z"/><circle class="cls-3" cx="23.2" cy="38.06" r="4.98"/><circle class="cls-3" cx="64.8" cy="38.06" r="4.98"/><path class="cls-4" d="M27.39,48.14s-2.68,2.78-1.18,5.15,4.35,3.82,8.25,4.34S51.7,58.76,55.9,56.9s6.59-6,4.8-8.76S50.05,42,44.2,42.26,30.39,44.84,27.39,48.14Z"/><path class="cls-3" d="M40.72,41.57a5.18,5.18,0,0,0,1.52,3.62c1.53,1.25,3.95,1.14,5,0S49,41,48.36,40.11,40.39,38.36,40.72,41.57Z"/></g></g></svg>