<svg xmlns="http://www.w3.org/2000/svg" viewBox="0 0 105.3 151.66"><defs><style>.cls-1{fill:#1d77b5;}.cls-2{fill:#fff;}.cls-3{fill:#2c112f;}.cls-4{fill:#dbb592;}</style></defs><title>資產 3</title><g id="圖層_2" data-name="圖層 2"><g id="圖層_1-2" data-name="圖層 1"><path class="cls-1" d="M32.77,77.52s-8.88,15.55-11.1,19.8-6.57,11.93-7.59,18.6-.74,8,0,9,3,2.87,4.35,2.77,2.59-1.75,3.05-2.86.93-2.41.93-2.41a6.55,6.55,0,0,0,1.73.77c.43,0,1.66.13,2-1a1.74,1.74,0,0,0-.61-2.22,4.38,4.38,0,0,1-1.25-.95c-.21-.27.11-.9.46-1.52s2.43-3.86,2.43-3.86.37,0,.46.64A36.6,36.6,0,0,0,30.21,120c.53.71.93.74.93,1.38s-1,17.43-.84,19.06S30,141.63,29.22,142a11.13,11.13,0,0,0-5,5.46c-1.51,3.49,3.39,3.89,3.76,4s10.86.43,12.27,0,4.78-1.57,5.25-4.29,1.69-17.31,1.69-17.31,0-.79.72-.76,9.37-.1,9.37-.1a.68.68,0,0,1,.51.58c0,.46,1.31,16.82,1.43,17.38A6.27,6.27,0,0,0,63.45,151c3.12,1,13.57.43,13.57.43s3.27-.89,3.3-2.62a4.57,4.57,0,0,0-1.18-3.69,30.6,30.6,0,0,0-4.58-3.59,3.68,3.68,0,0,1-.14-1.48c0-1.09-.67-19.38-.67-19.38s1-1.62,1.61-2.79a23,23,0,0,0,1.75-4.5c0-.68.48-.57.6-.27s2.87,4.46,3.12,4.74.67.55.37.85-2,1.51-2.08,2.18c0,0-.32,1.87,1.5,1.92s1.9-.77,1.9-.77.35,0,.46.68,2,4.51,3.19,4.74,4.56-1.11,5.21-3a16.91,16.91,0,0,0,.2-7.27c-.41-1.73-5.06-16.79-10.15-24.28a81.46,81.46,0,0,1-7.68-14.2l-.55-1.16Z"/><path class="cls-2" d="M41.62,118a14.26,14.26,0,0,0,8,4.75c4.78.74,10.32-1,12-4.75s3.08-14.83-3.51-19.19-13-1.28-14.15,0-4.15,4.68-4.05,9.47S40.55,115.77,41.62,118Z"/><path class="cls-1" d="M22.66,72.31a27.18,27.18,0,0,0,11.72,6.91c6.85,1.73,32.69,3.21,41.58-2S90.74,67.13,93.39,57.14,97.47,32.47,91,20.38A38.7,38.7,0,0,0,63.22.53C53.49-.95,40.27.77,30.29,4.72S10.94,23.59,10.58,30.87,5.77,57.88,22.66,72.31Z"/><path class="cls-3" d="M28.18,16.17S8,67.76,1.68,58.46s6.76-37.8,11.84-42.29S39.16-8.63,28.18,16.17Z"/><path class="cls-3" d="M77.12,16.17s20.21,51.59,26.5,42.29-6.76-37.8-11.84-42.29S66.14-8.63,77.12,16.17Z"/><circle class="cls-3" cx="31.82" cy="39.51" r="4.98"/><circle class="cls-3" cx="73.42" cy="39.51" r="4.98"/><ellipse class="cls-4" cx="31.72" cy="47.54" rx="4.98" ry="2.49"/><ellipse class="cls-4" cx="73.69" cy="47.54" rx="4.98" ry="2.49"/><path class="cls-2" d="M36,49.59s-2.68,2.78-1.18,5.15,4.35,3.82,8.25,4.33,17.24,1.14,21.44-.72,6.59-6,4.8-8.76-10.65-6.19-16.5-5.88S39,46.29,36,49.59Z"/><path class="cls-3" d="M49.34,43a5.18,5.18,0,0,0,1.52,3.62c1.53,1.25,4,1.14,5,0s1.77-4.15,1.13-5.08S49,39.81,49.34,43Z"/><path class="cls-3" d="M63.84,52.05a.6.6,0,0,0-.7-.13c-.74.23-5.23.82-6.26.06a8.26,8.26,0,0,1-2.68-5.5s0,0,0,0v-.06l0,0s0,0,0-.06l0,0,0-.05,0,0,0,0,0,0,0,0,0,0,0,0h-.06l-.05,0h-.26l0,0h-.06l0,0-.05,0,0,0,0,0,0,0,0,0,0,.05,0,0,0,.06,0,0v.06s0,0,0,0A8.26,8.26,0,0,1,50.32,52c-1,.76-5.52.17-6.26-.06a.6.6,0,0,0-.7.13.61.61,0,0,0,0,.85,13.47,13.47,0,0,0,4.56.64,5.74,5.74,0,0,0,3.08-.6,8.89,8.89,0,0,0,2.57-3.7,8.89,8.89,0,0,0,2.57,3.7,5.74,5.74,0,0,0,3.08.6,13.47,13.47,0,0,0,4.56-.64A.61.61,0,0,0,63.84,52.05Z"/></g></g></svg>