<svg xmlns="http://www.w3.org/2000/svg" xmlns:xlink="http://www.w3.org/1999/xlink" viewBox="0 0 67.82 137.23"><defs><style>.cls-1{fill:none;}.cls-2{clip-path:url(#clip-path);}.cls-3{fill:#cd4776;}.cls-4{fill:#e2b4aa;}.cls-5{fill:#2c112f;}.cls-6{fill:#dbb592;}</style><clipPath id="clip-path" transform="translate(-29.77 -16)"><circle class="cls-1" cx="65.94" cy="65.94" r="65.94"/></clipPath></defs><title>資產 16</title><g id="圖層_2" data-name="圖層 2"><g id="圖層_1-2" data-name="圖層 1"><g class="cls-2"><path class="cls-3" d="M51,97.87s-6.63,11.61-8.29,14.79-4.91,8.91-5.67,13.88-.55,6,0,6.7,2.22,2.14,3.25,2.07,1.94-1.31,2.28-2.14.69-1.79.69-1.79a5,5,0,0,0,1.29.57c.32,0,1.24.09,1.52-.74a1.28,1.28,0,0,0-.46-1.65,3.35,3.35,0,0,1-.93-.71c-.16-.2.08-.67.34-1.14s1.82-2.88,1.82-2.88.27,0,.34.48a27.46,27.46,0,0,0,1.91,4.29c.39.53.69.56.69,1s-.76,13-.62,14.23-.26.87-.81,1.13a8.28,8.28,0,0,0-3.73,4.07c-1.13,2.6,2.53,2.9,2.81,3s8.1.32,9.16,0,3.57-1.18,3.92-3.2,1.26-12.93,1.26-12.93,0-.59.54-.57,7-.07,7-.07a.48.48,0,0,1,.38.43c0,.34,1,12.56,1.07,13a4.67,4.67,0,0,0,3.16,3c2.33.74,10.13.33,10.13.33s2.44-.67,2.46-2a3.4,3.4,0,0,0-.88-2.76,23,23,0,0,0-3.42-2.68,2.8,2.8,0,0,1-.1-1.1c0-.81-.5-14.47-.5-14.47s.76-1.21,1.2-2.09a16.52,16.52,0,0,0,1.31-3.36c0-.5.36-.42.44-.2s2.14,3.33,2.33,3.54.51.42.28.64-1.5,1.12-1.55,1.62c0,0-.25,1.4,1.12,1.44s1.42-.57,1.42-.57.25,0,.34.5S90,135,90.88,135.16s3.41-.83,3.89-2.26a12.66,12.66,0,0,0,.16-5.43c-.32-1.29-3.79-12.53-7.59-18.13a61.11,61.11,0,0,1-5.73-10.6l-.41-.87Z" transform="translate(-29.77 -16)"/><path class="cls-4" d="M57.61,128.07a10.68,10.68,0,0,0,6,3.55c3.58.56,7.71-.74,9-3.55s2.3-11.07-2.62-14.32-9.69-1-10.57,0a10.31,10.31,0,0,0-3,7.07C56.42,124.39,56.82,126.43,57.61,128.07Z" transform="translate(-29.77 -16)"/><path class="cls-3" d="M94.13,56.85a29,29,0,0,0-18.54-14.4A132.52,132.52,0,0,0,78.9,28.08c.55-5.11,1.51-9-1.11-10.92s-4.77-1.1-5.35,0-3.67,20.08-3.65,22a19.32,19.32,0,0,1-.23,2.49c-1.53,0-3.11,0-4.72.15a22,22,0,0,1-.25-2.64c0-1.91-3.06-20.88-3.65-22s-2.73-1.93-5.35,0S52.93,23,53.48,28.08a135.32,135.32,0,0,0,3.4,14.71,49.93,49.93,0,0,0-8.07,2.36c-7.45,3-14.44,14.09-14.71,19.53s-3.59,20.17,9,30.94a20.31,20.31,0,0,0,8.75,5.16c5.12,1.29,24.41,2.4,31.06-1.47s11-7.55,13-15S99,65.87,94.13,56.85Z" transform="translate(-29.77 -16)"/><circle class="cls-5" cx="20.6" cy="56.92" r="3.72"/><circle class="cls-5" cx="51.66" cy="56.92" r="3.72"/><ellipse class="cls-6" cx="20.52" cy="62.92" rx="3.72" ry="1.86"/><ellipse class="cls-6" cx="51.87" cy="62.92" rx="3.72" ry="1.86"/><path class="cls-4" d="M53.5,80.45s-2,2.08-.88,3.85,3.25,2.85,6.16,3.24,12.87.84,16-.54,4.92-4.47,3.58-6.55-8-4.62-12.32-4.39S55.74,78,53.5,80.45Z" transform="translate(-29.77 -16)"/><path class="cls-5" d="M63.45,75.55a3.84,3.84,0,0,0,1.14,2.7,2.92,2.92,0,0,0,3.73,0c.78-.85,1.32-3.1.84-3.79S63.21,73.15,63.45,75.55Z" transform="translate(-29.77 -16)"/><path class="cls-5" d="M74.28,82.29a.45.45,0,0,0-.52-.1c-.56.18-3.91.62-4.67,0a6.19,6.19,0,0,1-2-4.11v0s0,0,0,0v0a.06.06,0,0,1,0,0l0,0a.05.05,0,0,1,0,0l0,0,0,0,0,0,0,0,0,0,0,0h-.35l0,0,0,0,0,0,0,0,0,0,0,0a.05.05,0,0,1,0,0,.08.08,0,0,1,0,0s0,0,0,0v0a.09.09,0,0,0,0,0v0a6.19,6.19,0,0,1-2,4.11c-.76.57-4.12.13-4.67,0a.46.46,0,0,0-.52.1.44.44,0,0,0,0,.63,10,10,0,0,0,3.41.49,4.36,4.36,0,0,0,2.3-.45,6.74,6.74,0,0,0,1.91-2.76A6.85,6.85,0,0,0,68.55,83a4.36,4.36,0,0,0,2.3.45,10,10,0,0,0,3.41-.49A.44.44,0,0,0,74.28,82.29Z" transform="translate(-29.77 -16)"/><rect class="cls-1" y="75.97" width="38.96" height="38.96"/></g></g></g></svg>