<svg xmlns="http://www.w3.org/2000/svg" xmlns:xlink="http://www.w3.org/1999/xlink" viewBox="0 0 69.92 128.4"><defs><style>.cls-1{fill:none;}.cls-2{clip-path:url(#clip-path);}.cls-3{fill:#daa164;stroke:#000;stroke-miterlimit:10;}.cls-4{fill:#b57e59;}.cls-5{fill:#2c112f;}.cls-6{fill:#dbb592;}.cls-7{fill:#fff;}</style><clipPath id="clip-path" transform="translate(-36.54 -36.89)"><circle class="cls-1" cx="70.91" cy="70.91" r="70.91"/></clipPath></defs><title>資產 17</title><g id="圖層_2" data-name="圖層 2"><g id="圖層_1-2" data-name="圖層 1"><g class="cls-2"><path class="cls-3" d="M56.48,105.25s-7.13,12.48-8.91,15.9-5.28,9.58-6.09,14.93-.6,6.46,0,7.21,2.37,2.3,3.49,2.22,2.08-1.41,2.45-2.3.74-1.93.74-1.93a5.31,5.31,0,0,0,1.39.62c.35,0,1.34.1,1.63-.79a1.4,1.4,0,0,0-.49-1.79,3.42,3.42,0,0,1-1-.75c-.17-.22.09-.73.37-1.23s1.95-3.1,1.95-3.1.29,0,.37.52a29.15,29.15,0,0,0,2,4.61c.42.57.74.6.74,1.12s-.82,14-.67,15.3-.27.94-.87,1.21a9,9,0,0,0-4,4.39c-1.21,2.79,2.73,3.12,3,3.22s8.72.34,9.86,0,3.84-1.27,4.21-3.45,1.36-13.9,1.36-13.9a.55.55,0,0,1,.58-.61c.61,0,7.52-.08,7.52-.08a.55.55,0,0,1,.41.47c0,.37,1,13.5,1.15,14a5,5,0,0,0,3.39,3.27c2.5.79,10.9.35,10.9.35s2.62-.72,2.65-2.11a3.68,3.68,0,0,0-1-3A24.12,24.12,0,0,0,90,156.66a2.85,2.85,0,0,1-.11-1.19c0-.87-.54-15.56-.54-15.56s.82-1.3,1.29-2.25a18.15,18.15,0,0,0,1.41-3.61c0-.55.38-.46.48-.22s2.3,3.59,2.5,3.81.54.45.3.69-1.61,1.2-1.67,1.74c0,0-.26,1.51,1.21,1.54s1.52-.61,1.52-.61.28,0,.37.54,1.58,3.62,2.56,3.81,3.66-.89,4.18-2.44a13.56,13.56,0,0,0,.17-5.83c-.33-1.39-4.07-13.48-8.15-19.5a65.16,65.16,0,0,1-6.17-11.4l-.44-.93Z" transform="translate(-36.54 -36.89)"/><path class="cls-4" d="M63.59,137.73a11.37,11.37,0,0,0,6.4,3.81c3.85.6,8.29-.79,9.66-3.81s2.47-11.91-2.82-15.41-10.42-1-11.36,0a11.08,11.08,0,0,0-3.25,7.6C62.3,133.77,62.73,136,63.59,137.73Z" transform="translate(-36.54 -36.89)"/><path class="cls-3" d="M102.24,60.91A32.3,32.3,0,0,0,100.45,58a8.68,8.68,0,0,0,0-.87,14.72,14.72,0,0,0-.1-1.76,1.93,1.93,0,0,0,.1-.5A70.55,70.55,0,0,0,99.3,39.38a1,1,0,0,0,0-.17,1.7,1.7,0,0,0-1.18-1.72c-1.11-.38-2.37.37-3.15,1.1l-.16.16a13.15,13.15,0,0,0-1.55.88,9.44,9.44,0,0,0-2,2c-1.94,1.29-5,3.42-6.51,4.5A28.66,28.66,0,0,0,79.94,45a53.63,53.63,0,0,0-19.31,1.17c-2-1.42-6.67-4.69-8-5.45a7.8,7.8,0,0,0-.94-.76,14.14,14.14,0,0,0-1.56-.88s-.1-.11-.16-.16a3.39,3.39,0,0,0-3.15-1.1,1.7,1.7,0,0,0-1.18,1.72.85.85,0,0,0,0,.17,71.13,71.13,0,0,0-1.17,15.48,2.51,2.51,0,0,0,0,.31c-3.9,4.69-6.66,10.37-6.84,13.86-.29,5.85-3.86,21.69,9.7,33.28a21.83,21.83,0,0,0,9.41,5.55c5.5,1.38,26.25,2.57,33.39-1.59s11.87-8.12,14-16.14S107.45,70.62,102.24,60.91Z" transform="translate(-36.54 -36.89)"/><circle class="cls-5" cx="18.19" cy="41.54" r="4"/><circle class="cls-5" cx="51.6" cy="41.54" r="4"/><ellipse class="cls-6" cx="18.11" cy="47.98" rx="4" ry="2"/><ellipse class="cls-6" cx="51.81" cy="47.98" rx="4" ry="2"/><path class="cls-7" d="M58.09,86.52s-2.15,2.23-1,4.14,3.5,3.06,6.63,3.48,13.84.91,17.21-.58,5.3-4.81,3.86-7-8.55-5-13.25-4.72S60.5,83.87,58.09,86.52Z" transform="translate(-36.54 -36.89)"/><path class="cls-5" d="M68.79,81.24A4.14,4.14,0,0,0,70,84.15a3.14,3.14,0,0,0,4,0c.83-.91,1.42-3.33.9-4.08S68.54,78.66,68.79,81.24Z" transform="translate(-36.54 -36.89)"/><path class="cls-5" d="M80.44,88.5a.48.48,0,0,0-.56-.11c-.6.18-4.2.66-5,0A6.62,6.62,0,0,1,72.7,84s0,0,0,0v0l0,0s0,0,0,0l0,0s0,0,0,0l0,0,0,0,0,0,0,0,0,0,0,0h0l0,0h-.2l-.05,0h0l0,0,0,0,0,0,0,0,0,0,0,0a.05.05,0,0,0,0,0l0,0s0,0,0,0,0,0,0,0a.06.06,0,0,0,0,0v0a6.67,6.67,0,0,1-2.16,4.42c-.82.61-4.43.13-5,0a.49.49,0,0,0-.54.79,10.9,10.9,0,0,0,3.66.51,4.6,4.6,0,0,0,2.47-.48,7.18,7.18,0,0,0,2.07-3,7.08,7.08,0,0,0,2.06,3,4.63,4.63,0,0,0,2.47.48,10.85,10.85,0,0,0,3.66-.51A.48.48,0,0,0,80.44,88.5Z" transform="translate(-36.54 -36.89)"/></g></g></g></svg>