<svg xmlns="http://www.w3.org/2000/svg" xmlns:xlink="http://www.w3.org/1999/xlink" viewBox="0 0 412.26 543.65"><defs><style>.cls-1{fill:none;}.cls-2{clip-path:url(#clip-path);}.cls-3{fill:#efff8a;}.cls-4{fill:#f6c2cb;}.cls-5{fill:#207d99;}.cls-6{opacity:0.7;}.cls-7{clip-path:url(#clip-path-2);}.cls-8{fill:#0b1a27;}.cls-9{fill:#174a67;}.cls-10{fill:#004e3f;}.cls-11{fill:#0e283c;}.cls-12{fill:#340a0b;}.cls-13{fill:#38bacd;stroke:#040000;stroke-miterlimit:10;}.cls-14{fill:#da4d55;}.cls-15{fill:#fff;}.cls-16{fill:#19191a;}.cls-17{fill:#882428;}.cls-18{fill:#efeeda;}.cls-19{fill:#5b3b24;}.cls-20{fill:#b37952;}.cls-21{fill:#8b654f;}.cls-22{fill:#725741;}</style><clipPath id="clip-path" transform="translate(-3.14 -1.5)"><circle class="cls-1" cx="217" cy="217" r="217"/></clipPath><clipPath id="clip-path-2" transform="translate(-3.14 -1.5)"><path class="cls-1" d="M276.36,477.3a8.59,8.59,0,0,1-.32-3.51c.11-2.57-1.59-45.89-1.59-45.89s2.41-3.83,3.8-6.61,4.08-9.05,4.16-10.66,1.13-1.35,1.4-.64,6.79,10.57,7.4,11.23,1.27,1.11,1.08,1.7c7.93-1.86,15.85-3.86,23.84-5.31-2.54-8.72-12.59-39.47-23.5-55.53-12.05-17.75-15.77-28.92-18.18-33.63l-1.32-2.74H254.31c1.23,4,3,9.8,3.66,11.67,1,2.91-2.92,15.55-6.8,20.41s-17.5,14.58-22.36,15.55a29.39,29.39,0,0,1-13.12-.48c-3.89-1-21.39-17.5-23.33-24.3-1.8-6.28,4.68-20,4.93-22.85H177.41s-21,36.8-26.29,46.88c-5.18,9.92-15.22,27.7-17.83,43.3l2.76.42.35.05.35,0c6.55.86,13.11,1.68,19.63,2.73a13.11,13.11,0,0,1,2.41.64c1.37-2.27,5.42-8.57,5.42-8.57s.88.05,1.09,1.53,4.81,11.92,6,13.6,2.19,1.75,2.19,3.29-2.41,41.25-2,45.12-.81,2.78-2.56,3.58a26.29,26.29,0,0,0-11.83,12.92c-3.58,8.26,8,9.21,8.91,9.5s25.7,1,29.06,0,11.32-3.73,12.41-10.15,4-41,4-41a1.64,1.64,0,0,1,1.7-1.81c1.8.06,22.18-.22,22.18-.22a1.58,1.58,0,0,1,1.2,1.37c.06,1.1,3.1,39.83,3.4,41.15a14.84,14.84,0,0,0,10,9.64c7.38,2.33,32.13,1,32.13,1s7.74-2.12,7.81-6.21-.38-5.79-2.79-8.74S276.36,477.3,276.36,477.3Z"/></clipPath></defs><title>資產 52</title><g id="圖層_2" data-name="圖層 2"><g id="圖層_1-2" data-name="圖層 1"><g class="cls-2"><ellipse class="cls-3" cx="218.27" cy="494.12" rx="103.78" ry="49.53"/><path class="cls-4" d="M177.63,325.71s-21,36.8-26.28,46.88-15.55,28.26-18,44-1.76,19.06,0,21.25,7,6.79,10.29,6.57,6.13-4.16,7.23-6.79,2.19-5.7,2.19-5.7,3.07,1.83,4.09,1.83,3.94.29,4.82-2.34,0-4.38-1.46-5.25a10.93,10.93,0,0,1-3-2.23c-.49-.66.28-2.14,1.1-3.62s5.75-9.14,5.75-9.14.87.05,1.09,1.53,4.8,11.92,6,13.6,2.19,1.75,2.19,3.29-2.4,41.25-2,45.12-.8,2.78-2.55,3.58a26.29,26.29,0,0,0-11.83,12.92c-3.58,8.26,8,9.21,8.91,9.5s25.7,1,29.06,0,11.32-3.73,12.41-10.15,4-41,4-41a1.63,1.63,0,0,1,1.69-1.81c1.81.06,22.18-.22,22.18-.22a1.6,1.6,0,0,1,1.21,1.37c.05,1.1,3.1,39.83,3.39,41.15a14.86,14.86,0,0,0,10,9.64c7.37,2.33,32.13,1,32.13,1s7.74-2.12,7.81-6.21-.38-5.79-2.79-8.74-10.85-8.49-10.85-8.49a8.43,8.43,0,0,1-.33-3.51c.11-2.57-1.58-45.89-1.58-45.89s2.41-3.83,3.79-6.61,4.09-9.05,4.16-10.66,1.14-1.35,1.41-.64,6.79,10.57,7.39,11.23,1.59,1.31.88,2-4.76,3.56-4.93,5.14c0,0-.77,4.44,3.56,4.55s4.49-1.81,4.49-1.81.82-.11,1.1,1.59,4.65,10.68,7.55,11.23,10.79-2.63,12.33-7.18,1.47-13.08.49-17.19-12-39.76-24-57.5-15.77-28.92-18.18-33.63l-1.32-2.74Z" transform="translate(-3.14 -1.5)"/><path class="cls-5" d="M316.13,417.61c-2.54-8.72-12.59-39.47-23.5-55.53a173.43,173.43,0,0,1-16.92-30.93,42.17,42.17,0,0,1-10.79,3.42,44.48,44.48,0,0,1-7.24,1.92c.11.35.21.65.29.89,1,2.91-2.92,15.55-6.8,20.41s-17.5,14.58-22.36,15.55a29.39,29.39,0,0,1-13.12-.48c-3.89-1-21.39-17.5-23.33-24.3-.84-2.93.12-7.46,1.41-11.76-.89-.09-1.72-.18-.72-.12a8.55,8.55,0,0,1-3.11-.8h-.13l-.28,0a6.39,6.39,0,0,1-2.31.26,17.45,17.45,0,0,1-4.49-.76c-.89-.3-2.65-.53-2.14-.79a7.48,7.48,0,0,1-.82,0,7.63,7.63,0,0,1-4.51-1.65c-.56-.15-1.12-.33-1.66-.53-6.31,11.09-18.63,32.81-22.48,40.19-5.18,9.92-15.22,27.7-17.83,43.3l2.76.42.35.05.35,0c6.55.86,13.11,1.68,19.63,2.73a13.11,13.11,0,0,1,2.41.64c1.37-2.27,5.42-8.57,5.42-8.57s.88.05,1.09,1.53,4.81,11.92,6,13.6,2.19,1.75,2.19,3.29-2.41,41.25-2,45.12-.81,2.78-2.56,3.58a26.29,26.29,0,0,0-11.83,12.92c-3.58,8.26,8,9.21,8.91,9.5s25.7,1,29.06,0,11.32-3.73,12.41-10.15,4-41,4-41a1.64,1.64,0,0,1,1.7-1.81c1.8.06,22.18-.22,22.18-.22a1.58,1.58,0,0,1,1.2,1.37c.06,1.1,3.1,39.83,3.4,41.15a14.84,14.84,0,0,0,10,9.64c7.38,2.33,32.13,1,32.13,1s7.74-2.12,7.81-6.21-.38-5.79-2.79-8.74-10.84-8.49-10.84-8.49a8.43,8.43,0,0,1-.33-3.51c.11-2.57-1.59-45.89-1.59-45.89s2.41-3.83,3.8-6.61,4.08-9.05,4.16-10.66,1.13-1.35,1.4-.64,6.79,10.57,7.4,11.23,1.27,1.11,1.08,1.7C300.22,421.06,308.14,419.06,316.13,417.61Z" transform="translate(-3.14 -1.5)"/><g class="cls-6"><g class="cls-7"><polygon class="cls-8" points="243.18 357.93 235.66 357.93 231.9 364.44 235.66 370.95 243.18 370.95 246.94 364.44 243.18 357.93"/><polygon class="cls-5" points="254.48 364.56 246.97 364.56 243.21 371.07 246.97 377.58 254.48 377.58 258.24 371.07 254.48 364.56"/><polygon class="cls-9" points="254.48 351.54 246.97 351.54 243.21 358.05 246.97 364.56 254.48 364.56 258.24 358.05 254.48 351.54"/><polygon class="cls-10" points="265.79 357.93 258.27 357.93 254.51 364.44 258.27 370.95 265.79 370.95 269.55 364.44 265.79 357.93"/><polygon class="cls-9" points="266.03 370.95 258.51 370.95 254.75 377.46 258.51 383.97 266.03 383.97 269.79 377.46 266.03 370.95"/><polygon class="cls-8" points="254.73 377.58 247.21 377.58 243.45 384.09 247.21 390.6 254.73 390.6 258.49 384.09 254.73 377.58"/><polygon class="cls-8" points="243.43 371.19 235.91 371.19 232.15 377.7 235.91 384.21 243.43 384.21 247.19 377.7 243.43 371.19"/><polygon class="cls-8" points="266.33 384.46 258.81 384.46 255.05 390.97 258.81 397.48 266.33 397.48 270.09 390.97 266.33 384.46"/><polygon class="cls-5" points="277.63 391.1 270.12 391.1 266.36 397.61 270.12 404.12 277.63 404.12 281.39 397.61 277.63 391.1"/><polygon class="cls-10" points="277.63 378.07 270.12 378.07 266.36 384.58 270.12 391.1 277.63 391.1 281.39 384.58 277.63 378.07"/><polygon class="cls-10" points="288.94 384.46 281.42 384.46 277.66 390.97 281.42 397.48 288.94 397.48 292.69 390.97 288.94 384.46"/><polygon class="cls-9" points="289.18 397.48 281.66 397.48 277.9 404 281.66 410.51 289.18 410.51 292.94 404 289.18 397.48"/><polygon class="cls-8" points="277.88 404.12 270.36 404.12 266.6 410.63 270.36 417.14 277.88 417.14 281.64 410.63 277.88 404.12"/><polygon class="cls-10" points="266.58 397.73 259.06 397.73 255.3 404.24 259.06 410.75 266.58 410.75 270.34 404.24 266.58 397.73"/><polygon class="cls-11" points="277.06 351.15 269.54 351.15 265.78 357.66 269.54 364.17 277.06 364.17 280.82 357.66 277.06 351.15"/><polygon class="cls-5" points="288.36 357.78 280.84 357.78 277.08 364.29 280.84 370.81 288.36 370.81 292.12 364.29 288.36 357.78"/><polygon class="cls-11" points="288.36 344.76 280.84 344.76 277.08 351.27 280.84 357.78 288.36 357.78 292.12 351.27 288.36 344.76"/><polygon class="cls-8" points="288.61 370.81 281.09 370.81 277.33 377.32 281.09 383.83 288.61 383.83 292.37 377.32 288.61 370.81"/><polygon class="cls-11" points="277.31 364.42 269.79 364.42 266.03 370.93 269.79 377.44 277.31 377.44 281.06 370.93 277.31 364.42"/><path class="cls-8" d="M259.48,335.44c-.63,0-1.25.07-1.87.08A16,16,0,0,1,247.35,332l-1,1.75,3.76,6.51h7.51l2.8-4.85Z" transform="translate(-3.14 -1.5)"/><path class="cls-8" d="M178.51,332.88a16,16,0,0,1-3-.48l1.73,3h7.52l.27-.46A51.18,51.18,0,0,1,178.51,332.88Z" transform="translate(-3.14 -1.5)"/><path class="cls-9" d="M266.58,333.87a15,15,0,0,1-2.82,1.05,17.5,17.5,0,0,1-3.25.49l-2.87,5,3.76,6.51h7.52l3.76-6.51-3.76-6.52Z" transform="translate(-3.14 -1.5)"/><path class="cls-9" d="M278.88,327.24l-.36.27a15.6,15.6,0,0,1-3.9,3.07,22.38,22.38,0,0,1-4.38,2.07l-.81.26-.49.84,3.76,6.51h7.52l3.76-6.51-3.76-6.51Z" transform="translate(-3.14 -1.5)"/><polygon class="cls-11" points="277.32 338.76 269.81 338.76 266.05 345.27 269.81 351.79 277.32 351.79 281.08 345.27 277.32 338.76"/><polygon class="cls-5" points="266.02 345.4 258.5 345.4 254.75 351.91 258.5 358.42 266.02 358.42 269.78 351.91 266.02 345.4"/><polygon class="cls-10" points="254.72 339.01 247.2 339.01 243.44 345.52 247.2 352.03 254.72 352.03 258.48 345.52 254.72 339.01"/><polygon class="cls-11" points="231.32 391.24 223.81 391.24 220.05 397.75 223.81 404.26 231.32 404.26 235.08 397.75 231.32 391.24"/><polygon class="cls-5" points="242.63 397.87 235.11 397.87 231.35 404.38 235.11 410.89 242.63 410.89 246.39 404.38 242.63 397.87"/><polygon class="cls-9" points="242.63 384.85 235.11 384.85 231.35 391.36 235.11 397.87 242.63 397.87 246.39 391.36 242.63 384.85"/><polygon class="cls-11" points="253.93 391.24 246.41 391.24 242.65 397.75 246.41 404.26 253.93 404.26 257.69 397.75 253.93 391.24"/><polygon class="cls-8" points="254.17 404.26 246.66 404.26 242.9 410.77 246.66 417.28 254.17 417.28 257.93 410.77 254.17 404.26"/><polygon class="cls-9" points="231.57 404.5 224.05 404.5 220.29 411.02 224.05 417.53 231.57 417.53 235.33 411.02 231.57 404.5"/><polygon class="cls-10" points="208.18 364.14 200.66 364.14 196.9 370.65 200.66 377.16 208.18 377.16 211.93 370.65 208.18 364.14"/><polygon class="cls-10" points="196.51 356.36 188.99 356.36 185.23 362.87 188.99 369.38 196.51 369.38 200.27 362.87 196.51 356.36"/><polygon class="cls-5" points="219.48 370.77 211.96 370.77 208.2 377.28 211.96 383.79 219.48 383.79 223.24 377.28 219.48 370.77"/><polygon class="cls-8" points="230.78 364.14 223.26 364.14 219.5 370.65 223.26 377.16 230.78 377.16 234.54 370.65 230.78 364.14"/><polygon class="cls-10" points="231.03 377.16 223.51 377.16 219.75 383.67 223.51 390.18 231.03 390.18 234.78 383.67 231.03 377.16"/><polygon class="cls-8" points="219.72 383.79 212.2 383.79 208.44 390.3 212.2 396.81 219.72 396.81 223.48 390.3 219.72 383.79"/><polygon class="cls-9" points="208.42 377.4 200.9 377.4 197.14 383.91 200.9 390.43 208.42 390.43 212.18 383.91 208.42 377.4"/><polygon class="cls-8" points="289.84 411.39 282.32 411.39 278.56 417.9 282.32 424.41 289.84 424.41 293.6 417.9 289.84 411.39"/><polygon class="cls-9" points="301.14 405 293.62 405 289.86 411.51 293.62 418.02 301.14 418.02 304.9 411.51 301.14 405"/><polygon class="cls-10" points="312.44 411.39 304.93 411.39 301.17 417.9 304.93 424.41 312.44 424.41 316.2 417.9 312.44 411.39"/><polygon class="cls-8" points="301.13 379.2 293.61 379.2 289.85 385.71 293.61 392.22 301.13 392.22 304.89 385.71 301.13 379.2"/><polygon class="cls-9" points="312.43 385.84 304.92 385.84 301.16 392.35 304.92 398.86 312.43 398.86 316.19 392.35 312.43 385.84"/><polygon class="cls-5" points="312.68 398.86 305.16 398.86 301.4 405.37 305.16 411.88 312.68 411.88 316.44 405.37 312.68 398.86"/><polygon class="cls-10" points="301.38 392.47 293.86 392.47 290.1 398.98 293.86 405.49 301.38 405.49 305.14 398.98 301.38 392.47"/><polygon class="cls-11" points="277.98 444.7 270.46 444.7 266.7 451.21 270.46 457.72 277.98 457.72 281.74 451.21 277.98 444.7"/><polygon class="cls-9" points="278.23 457.97 270.71 457.97 266.95 464.48 270.71 470.99 278.23 470.99 281.99 464.48 278.23 457.97"/><polygon class="cls-10" points="254.83 417.6 247.31 417.6 243.56 424.11 247.31 430.62 254.83 430.62 258.59 424.11 254.83 417.6"/><polygon class="cls-5" points="266.13 424.23 258.62 424.23 254.86 430.74 258.62 437.25 266.13 437.25 269.89 430.74 266.13 424.23"/><polygon class="cls-11" points="266.13 411.21 258.62 411.21 254.86 417.72 258.62 424.23 266.13 424.23 269.89 417.72 266.13 411.21"/><polygon class="cls-8" points="277.44 417.6 269.92 417.6 266.16 424.11 269.92 430.62 277.44 430.62 281.19 424.11 277.44 417.6"/><polygon class="cls-10" points="277.68 430.62 270.16 430.62 266.4 437.13 270.16 443.64 277.68 443.64 281.44 437.13 277.68 430.62"/><polygon class="cls-8" points="266.38 437.25 258.86 437.25 255.1 443.76 258.86 450.27 266.38 450.27 270.14 443.76 266.38 437.25"/><polygon class="cls-9" points="255.08 430.87 247.56 430.87 243.8 437.38 247.56 443.89 255.08 443.89 258.84 437.38 255.08 430.87"/><polygon class="cls-8" points="185.83 429.85 178.31 429.85 174.56 436.37 178.31 442.88 185.83 442.88 189.59 436.37 185.83 429.85"/><polygon class="cls-5" points="197.13 436.49 189.62 436.49 185.86 443 189.62 449.51 197.13 449.51 200.89 443 197.13 436.49"/><polygon class="cls-9" points="197.13 423.47 189.62 423.47 185.86 429.98 189.62 436.49 197.13 436.49 200.89 429.98 197.13 423.47"/><polygon class="cls-10" points="208.44 429.85 200.92 429.85 197.16 436.37 200.92 442.88 208.44 442.88 212.2 436.37 208.44 429.85"/><polygon class="cls-9" points="208.68 442.88 201.16 442.88 197.41 449.39 201.16 455.9 208.68 455.9 212.44 449.39 208.68 442.88"/><polygon class="cls-8" points="197.38 449.51 189.86 449.51 186.1 456.02 189.86 462.53 197.38 462.53 201.14 456.02 197.38 449.51"/><polygon class="cls-8" points="186.08 443.12 178.56 443.12 174.8 449.63 178.56 456.14 186.08 456.14 189.84 449.63 186.08 443.12"/><polygon class="cls-8" points="208.98 456.39 201.46 456.39 197.71 462.9 201.46 469.41 208.98 469.41 212.74 462.9 208.98 456.39"/><polygon class="cls-5" points="278.61 483.44 271.09 483.44 267.33 489.95 271.09 496.46 278.61 496.46 282.37 489.95 278.61 483.44"/><polygon class="cls-5" points="243.61 411.51 236.09 411.51 232.34 418.02 236.09 424.53 243.61 424.53 247.37 418.02 243.61 411.51"/><polygon class="cls-10" points="278.61 470.42 271.09 470.42 267.33 476.93 271.09 483.44 278.61 483.44 282.37 476.93 278.61 470.42"/><polygon class="cls-10" points="289.91 476.8 282.39 476.8 278.63 483.31 282.39 489.83 289.91 489.83 293.67 483.31 289.91 476.8"/><polygon class="cls-10" points="244.22 465.14 236.7 465.14 232.94 471.65 236.7 478.16 244.22 478.16 247.98 471.65 244.22 465.14"/><polygon class="cls-9" points="290.15 489.83 282.63 489.83 278.88 496.34 282.63 502.85 290.15 502.85 293.91 496.34 290.15 489.83"/><polygon class="cls-9" points="242.52 424.7 235.01 424.7 231.25 431.21 235.01 437.72 242.52 437.72 246.28 431.21 242.52 424.7"/><polygon class="cls-9" points="242.52 438.31 235.01 438.31 231.25 444.82 235.01 451.33 242.52 451.33 246.28 444.82 242.52 438.31"/><polygon class="cls-9" points="255.16 443.17 247.64 443.17 243.88 449.68 247.64 456.19 255.16 456.19 258.92 449.68 255.16 443.17"/><polygon class="cls-9" points="244.47 451.92 236.95 451.92 233.19 458.43 236.95 464.94 244.47 464.94 248.23 458.43 244.47 451.92"/><polygon class="cls-9" points="264.88 450.94 257.36 450.94 253.6 457.46 257.36 463.97 264.88 463.97 268.64 457.46 264.88 450.94"/><polygon class="cls-8" points="278.85 496.46 271.33 496.46 267.57 502.97 271.33 509.48 278.85 509.48 282.61 502.97 278.85 496.46"/><polygon class="cls-5" points="255.28 471.77 247.76 471.77 244 478.29 247.76 484.8 255.28 484.8 259.04 478.29 255.28 471.77"/><polygon class="cls-10" points="255.28 458.75 247.76 458.75 244 465.26 247.76 471.77 255.28 471.77 259.04 465.26 255.28 458.75"/><polygon class="cls-10" points="266.58 465.14 259.06 465.14 255.3 471.65 259.06 478.16 266.58 478.16 270.34 471.65 266.58 465.14"/><polygon class="cls-9" points="266.82 478.16 259.31 478.16 255.55 484.67 259.31 491.18 266.82 491.18 270.58 484.67 266.82 478.16"/><polygon class="cls-8" points="255.52 484.8 248 484.8 244.25 491.31 248 497.82 255.52 497.82 259.28 491.31 255.52 484.8"/><polygon class="cls-8" points="266.21 491.6 258.7 491.6 254.94 498.11 258.7 504.62 266.21 504.62 269.97 498.11 266.21 491.6"/><polygon class="cls-8" points="243.86 477.99 236.34 477.99 232.58 484.5 236.34 491.01 243.86 491.01 247.62 484.5 243.86 477.99"/><polygon class="cls-10" points="209.23 469.66 201.71 469.66 197.95 476.17 201.71 482.68 209.23 482.68 212.99 476.17 209.23 469.66"/><polygon class="cls-10" points="162.57 483.27 155.05 483.27 151.29 489.78 155.05 496.29 162.57 496.29 166.33 489.78 162.57 483.27"/><polygon class="cls-11" points="219.71 423.08 212.19 423.08 208.43 429.59 212.19 436.1 219.71 436.1 223.47 429.59 219.71 423.08"/><polygon class="cls-5" points="231.01 429.71 223.49 429.71 219.74 436.22 223.49 442.74 231.01 442.74 234.77 436.22 231.01 429.71"/><polygon class="cls-11" points="231.01 416.69 223.49 416.69 219.74 423.2 223.49 429.71 231.01 429.71 234.77 423.2 231.01 416.69"/><polygon class="cls-8" points="231.26 442.74 223.74 442.74 219.98 449.25 223.74 455.76 231.26 455.76 235.02 449.25 231.26 442.74"/><polygon class="cls-11" points="219.96 436.35 212.44 436.35 208.68 442.86 212.44 449.37 219.96 449.37 223.72 442.86 219.96 436.35"/><polygon class="cls-8" points="197.13 397.67 189.61 397.67 185.85 404.18 189.61 410.69 197.13 410.69 200.88 404.18 197.13 397.67"/><polygon class="cls-9" points="208.43 404.31 200.91 404.31 197.15 410.81 200.91 417.33 208.43 417.33 212.19 410.81 208.43 404.31"/><polygon class="cls-5" points="208.43 391.28 200.91 391.28 197.15 397.79 200.91 404.31 208.43 404.31 212.19 397.79 208.43 391.28"/><polygon class="cls-9" points="219.73 397.67 212.21 397.67 208.45 404.18 212.21 410.69 219.73 410.69 223.49 404.18 219.73 397.67"/><polygon class="cls-11" points="219.97 410.69 212.46 410.69 208.7 417.2 212.46 423.71 219.97 423.71 223.73 417.2 219.97 410.69"/><polygon class="cls-5" points="208.67 417.33 201.15 417.33 197.4 423.84 201.15 430.35 208.67 430.35 212.43 423.84 208.67 417.33"/><polygon class="cls-10" points="197.37 410.94 189.85 410.94 186.09 417.45 189.85 423.96 197.37 423.96 201.13 417.45 197.37 410.94"/><polygon class="cls-11" points="173.97 463.17 166.46 463.17 162.7 469.68 166.46 476.19 173.97 476.19 177.73 469.68 173.97 463.17"/><polygon class="cls-5" points="185.28 469.8 177.76 469.8 174 476.31 177.76 482.82 185.28 482.82 189.04 476.31 185.28 469.8"/><polygon class="cls-9" points="185.28 456.78 177.76 456.78 174 463.29 177.76 469.8 185.28 469.8 189.04 463.29 185.28 456.78"/><polygon class="cls-11" points="196.58 463.17 189.06 463.17 185.3 469.68 189.06 476.19 196.58 476.19 200.34 469.68 196.58 463.17"/><polygon class="cls-8" points="196.82 476.19 189.31 476.19 185.55 482.7 189.31 489.21 196.82 489.21 200.58 482.7 196.82 476.19"/><polygon class="cls-8" points="207.52 482.99 200 482.99 196.24 489.5 200 496.01 207.52 496.01 211.28 489.5 207.52 482.99"/><polygon class="cls-8" points="185.16 482.99 177.64 482.99 173.88 489.5 177.64 496.01 185.16 496.01 188.92 489.5 185.16 482.99"/><polygon class="cls-8" points="185.16 496.6 177.64 496.6 173.88 503.11 177.64 509.62 185.16 509.62 188.92 503.11 185.16 496.6"/><polygon class="cls-8" points="196.82 489.8 189.31 489.8 185.55 496.31 189.31 502.82 196.82 502.82 200.58 496.31 196.82 489.8"/><polygon class="cls-9" points="174.22 476.44 166.7 476.44 162.94 482.95 166.7 489.46 174.22 489.46 177.98 482.95 174.22 476.44"/><polygon class="cls-9" points="173.25 491.01 165.73 491.01 161.97 497.53 165.73 504.04 173.25 504.04 177.01 497.53 173.25 491.01"/><polygon class="cls-8" points="173.43 436.06 165.91 436.06 162.15 442.58 165.91 449.09 173.43 449.09 177.19 442.58 173.43 436.06"/><polygon class="cls-10" points="173.68 449.09 166.16 449.09 162.4 455.6 166.16 462.11 173.68 462.11 177.43 455.6 173.68 449.09"/><polygon class="cls-5" points="149.5 382.06 141.99 382.06 138.23 388.57 141.99 395.08 149.5 395.08 153.26 388.57 149.5 382.06"/><polygon class="cls-9" points="149.5 369.03 141.99 369.03 138.23 375.54 141.99 382.06 149.5 382.06 153.26 375.54 149.5 369.03"/><polygon class="cls-10" points="160.81 375.42 153.29 375.42 149.53 381.93 153.29 388.44 160.81 388.44 164.57 381.93 160.81 375.42"/><polygon class="cls-9" points="161.05 388.44 153.53 388.44 149.78 394.95 153.53 401.46 161.05 401.46 164.81 394.95 161.05 388.44"/><polygon class="cls-8" points="149.75 395.08 142.23 395.08 138.47 401.59 142.23 408.1 149.75 408.1 153.51 401.59 149.75 395.08"/><polygon class="cls-8" points="138.45 388.69 130.93 388.69 127.17 395.2 130.93 401.71 138.45 401.71 142.21 395.2 138.45 388.69"/><polygon class="cls-8" points="161.35 401.96 153.84 401.96 150.08 408.47 153.84 414.98 161.35 414.98 165.11 408.47 161.35 401.96"/><polygon class="cls-5" points="172.66 408.59 165.14 408.59 161.38 415.1 165.14 421.61 172.66 421.61 176.41 415.1 172.66 408.59"/><polygon class="cls-10" points="172.66 395.57 165.14 395.57 161.38 402.08 165.14 408.59 172.66 408.59 176.41 402.08 172.66 395.57"/><polygon class="cls-10" points="183.96 401.96 176.44 401.96 172.68 408.47 176.44 414.98 183.96 414.98 187.72 408.47 183.96 401.96"/><polygon class="cls-10" points="196.59 383.49 189.07 383.49 185.32 390 189.07 396.51 196.59 396.51 200.35 390 196.59 383.49"/><polygon class="cls-9" points="184.2 414.98 176.69 414.98 172.93 421.49 176.69 428 184.2 428 187.96 421.49 184.2 414.98"/><polygon class="cls-8" points="172.9 421.61 165.38 421.61 161.62 428.13 165.38 434.64 172.9 434.64 176.66 428.13 172.9 421.61"/><polygon class="cls-11" points="172.08 368.65 164.56 368.65 160.8 375.16 164.56 381.67 172.08 381.67 175.84 375.16 172.08 368.65"/><polygon class="cls-5" points="183.38 375.28 175.87 375.28 172.11 381.79 175.87 388.3 183.38 388.3 187.14 381.79 183.38 375.28"/><polygon class="cls-11" points="183.38 362.26 175.87 362.26 172.11 368.77 175.87 375.28 183.38 375.28 187.14 368.77 183.38 362.26"/><polygon class="cls-11" points="195.05 341.85 187.53 341.85 183.77 348.36 187.53 354.87 195.05 354.87 198.81 348.36 195.05 341.85"/><polygon class="cls-11" points="195.05 369.06 187.53 369.06 183.77 375.57 187.53 382.08 195.05 382.08 198.81 375.57 195.05 369.06"/><polygon class="cls-8" points="183.63 388.3 176.11 388.3 172.35 394.81 176.11 401.32 183.63 401.32 187.39 394.81 183.63 388.3"/><polygon class="cls-11" points="172.33 381.91 164.81 381.91 161.05 388.42 164.81 394.94 172.33 394.94 176.09 388.42 172.33 381.91"/><path class="cls-8" d="M170.37,330.16H166.5l-3.76,6.51,3.76,6.51H174l3.76-6.51-2.48-4.3A16.29,16.29,0,0,1,170.37,330.16Z" transform="translate(-3.14 -1.5)"/><polygon class="cls-8" points="182.54 335.46 175.03 335.46 171.27 341.97 175.03 348.48 182.54 348.48 186.3 341.97 182.54 335.46"/><polygon class="cls-8" points="184.49 349.07 176.97 349.07 173.21 355.58 176.97 362.09 184.49 362.09 188.25 355.58 184.49 349.07"/><polygon class="cls-9" points="160.8 349.87 153.28 349.87 149.52 356.38 153.28 362.89 160.8 362.89 164.56 356.38 160.8 349.87"/><polygon class="cls-9" points="172.1 343.24 164.58 343.24 160.82 349.75 164.58 356.26 172.1 356.26 175.86 349.75 172.1 343.24"/><polygon class="cls-11" points="172.35 356.26 164.83 356.26 161.07 362.77 164.83 369.28 172.35 369.28 176.1 362.77 172.35 356.26"/><path class="cls-11" d="M196.37,336.17a40.52,40.52,0,0,1-10.76-1.08l0,0,3.76,6.51h7.52l3.52-6.09A18.22,18.22,0,0,1,196.37,336.17Z" transform="translate(-3.14 -1.5)"/><polygon class="cls-5" points="161.04 362.89 153.53 362.89 149.77 369.4 153.53 375.92 161.04 375.92 164.8 369.4 161.04 362.89"/><polygon class="cls-10" points="149.74 356.5 142.22 356.5 138.46 363.02 142.22 369.53 149.74 369.53 153.5 363.02 149.74 356.5"/><polygon class="cls-9" points="137.65 402.35 130.13 402.35 126.37 408.86 130.13 415.37 137.65 415.37 141.41 408.86 137.65 402.35"/><polygon class="cls-11" points="148.95 408.73 141.43 408.73 137.67 415.25 141.43 421.76 148.95 421.76 152.71 415.25 148.95 408.73"/></g></g><path class="cls-12" d="M150.24,283.93a25.55,25.55,0,0,1-20.48,15.93c-15.94,2.28-35.28-3.41-51.22-26.17S49,262.31,46.68,266.86h0s-4.55,4.55-4.55,9.1-9.11-4.55-2.28-13.65,18.21-15.93,25-18.21,9.1-4.55,6.83-9.1S44.4,228.17,33,223.61,5.71,207.68,3.43,196.3s9.11-36.42,18.21-41,9.11,4.55,6.83,6.83-9.1,2.28-13.66,9.11S8,187.2,12.54,191.75s18.21,9.1,27.31,4.55,20.49-18.21,22.76-25,2.28-18.21,2.28-18.21,27.31,18.21,29.59,20.48L115,194l68.28-27.32s122.91-2.27,125.19-2.27,50.07-29.59,50.07-29.59-2.27,15.93,0,18.21,15.93,9.1,25,20.48,11.38,22.76,9.1,29.59-9.1,9.1-13.65,13.66-11.38,9.1-9.11,13.65,6.83,9.11,13.66,9.11,22.76,2.27,27.31,6.83,4.55,6.82,4.55,6.82-11.38-9.1-29.59-6.82-38.69,4.55-43.24,9.1-20.49,6.83-27.31,13.66-2.28-11.38,0-22.76-18.21-75.11-18.21-75.11l-97.87,2.27-47.8,11.38-18.21,18.21Z" transform="translate(-3.14 -1.5)"/><path class="cls-4" d="M314.61,195.62A92,92,0,0,0,255.81,150c4.25-15.72,9.47-36.25,10.48-45.58,1.75-16.21,4.82-28.48-3.5-34.61s-15.12-3.51-17,0-11.61,63.66-11.56,69.73a65.11,65.11,0,0,1-.73,7.88c-4.86-.08-9.88.09-15,.49a73,73,0,0,1-.8-8.37c.06-6.07-9.69-66.23-11.55-69.73s-8.66-6.14-17,0-5.26,18.4-3.5,34.61c1,9.54,6.47,30.79,10.76,46.65a155.78,155.78,0,0,0-25.57,7.49c-23.62,9.34-45.82,44.68-46.67,61.92s-11.39,64,28.6,98.13c0,0,11.52,12.27,27.74,16.36S258,342.53,279,330.27s35-23.95,41.26-47.61S330,224.24,314.61,195.62Z" transform="translate(-3.14 -1.5)"/><circle class="cls-13" cx="172.7" cy="245.11" r="11.78"/><circle class="cls-13" cx="271.2" cy="245.11" r="11.78"/><ellipse class="cls-14" cx="172.46" cy="264.12" rx="11.78" ry="5.89"/><ellipse class="cls-14" cx="271.85" cy="264.12" rx="11.78" ry="5.89"/><path class="cls-15" d="M185.76,270.47s-6.34,6.59-2.79,12.21,10.29,9,19.52,10.26,40.83,2.68,50.77-1.71,15.62-14.17,11.36-20.76-25.2-14.65-39.05-13.92S192.86,262.65,185.76,270.47Z" transform="translate(-3.14 -1.5)"/><path class="cls-16" d="M217.32,254.92s0,5.64,3.62,8.58,9.33,2.7,11.8,0,4.2-9.84,2.67-12S216.55,247.31,217.32,254.92Z" transform="translate(-3.14 -1.5)"/><path class="cls-16" d="M251.66,276.31A1.41,1.41,0,0,0,250,276c-1.75.54-12.39,1.94-14.81.14-2.92-2.18-6.26-8.21-6.36-13a.5.5,0,0,0,0-.12.66.66,0,0,0,0-.14l0-.13a.93.93,0,0,1,0-.13s-.05-.08-.07-.13l-.06-.11-.09-.11-.08-.1-.11-.09a.39.39,0,0,0-.1-.08l-.12-.07-.12-.06-.13-.05-.13,0h-.14l-.13,0h-.06l-.13,0h-.14l-.13,0-.13.05-.12.06-.12.07-.1.08-.1.09a.81.81,0,0,0-.09.1.76.76,0,0,0-.08.11l-.07.11a1.39,1.39,0,0,0-.06.13s0,.08-.05.13l0,.13c0,.05,0,.09,0,.14s0,.08,0,.12c-.1,4.81-3.44,10.84-6.35,13-2.43,1.8-13.06.4-14.82-.14a1.42,1.42,0,0,0-1.58,2.31c.61.57,5.94,1.53,10.8,1.53,3,0,5.86-.37,7.29-1.43a21,21,0,0,0,6.08-8.75,21,21,0,0,0,6.08,8.75c1.43,1.06,4.27,1.43,7.29,1.43,4.86,0,10.19-1,10.8-1.53A1.41,1.41,0,0,0,251.66,276.31Z" transform="translate(-3.14 -1.5)"/><path class="cls-17" d="M274.07,220.24s-24.43,3.65-25.17,5.74,48.85-2.87,47.37-4.43S274.07,220.24,274.07,220.24Z" transform="translate(-3.14 -1.5)"/><path class="cls-17" d="M175.17,220.24s24.43,3.65,25.17,5.74-48.85-2.87-47.37-4.43S175.17,220.24,175.17,220.24Z" transform="translate(-3.14 -1.5)"/><path class="cls-17" d="M192.62,183.17s18,6.75,38.26,4.5,31.5-6.75,40.5-4.5,22.51,22.5,24.76,36,26.92,34.27,26.92,43.27,6.5-2,8.75-8.74.34-18.77,7.09-32.28-4.5-27,6.75-54,22.51-42.76,4.5-63-54-38.26-92.27-51.76-63-13.51-58.51-27,11.25-18,24.75-15.75,20.26,9,15.76,13.5,22.5,11.25,24.75,0-13.5-27-45-20.25-67.51,24.75-83.27,42.75c0,0-6.75,2.26-11.25,18s-9,13.5-15.75,13.5-27-4.5-36,2.25S57.59,86.39,59.84,95.4s6.75,9,6.75,9-4.5-11.25,2.25-13.5,20.25,0,18,4.5-11.25,13.5-13.5,11.25a7,7,0,0,0-4.5-2.25s2.25,4.5-2.25,9-15.75,11.25-15.75,24.76,9,18,18,22.5,20.25,6.75,20.25,15.75-6.75,13.51,0,24.76,11.26,9,20.26,13.5,12.5,40,12.5,40,30.26-58,37-62.5S167.86,180.92,192.62,183.17Z" transform="translate(-3.14 -1.5)"/><path class="cls-12" d="M124.77,248.84s8.9-10.69,11.66-19.44a75.1,75.1,0,0,1,7.78-15.56c9.72-13.6,12.64-21.38,21.4-26.17,8.14-4.45,12.38-5.63,23.63-3.38s15.75,2.25,24.76,4.5a70.12,70.12,0,0,0,12.37,1.13c6.76,0,13.51,0,18-2.25s29.21-6.72,38.26,4.5,12.53,24.71,15.15,32.37c1.63,4.76,24.3,34,24.3,34,.33-.05-10.3-21-11.67-25.28s-11.35-11.05-13.6-15.55-2.93-5.31,1.57-7.56,9-4.5,4.5-4.5-11.25,0-11.25-4.5,0-6.75,2.25-9-2.25,0-4.5,0-11.25-4.5-11.25-9-4.5,2.25-9-4.51c0,0-2.25,2.26-2.25-6.75,0,0-2.25,6.75-9,9s-11.25,6.75-13.5,2.25v-4.51s-4.3,5.72-8.8,8c0,0-20.77,2.25-25.27,0s-1.94-5.71-1.94-5.71l-2.25,4.5s-2.25,0-4.5-6.76c0,0-2.25-4.5-2.25-6.75s-2.25,9-2.25,11.26-6.75,0-9-4.51-2.25-13.5,4.5-18-4.5-4.5-9-4.5-22.5-4.5-29.25,0-14.28,12.71-20.26,22.5c-5.44,8.94-9.33,40.4-9.33,44.9Z" transform="translate(-3.14 -1.5)"/><path class="cls-18" d="M309.64,239.43s13.51-38.26,15.76-49.51,0-69.77-4.5-76.52-9,24.76-9,24.76,0-13.51-4.5-13.51-9,15.76-11.25,18-4.5-2.25-4.5-6.75c0,0-22.51-11.26-40.51-29.26s-22.5-24.76-24.76-27-4.5-2.25-9,2.25-29.25,36-54,47.26c0,0-9,4.5-9,9v9s-6.75,0-9-11.25-4.5-11.26-6.76-9-4.5,11.26-4.5,11.26-4.5-18-4.5-22.51-6.75,2.25-6.75,4.5-2.25,65.27-2.25,67.52,9,42.76,11.25,47.26c0,0,2.25,11.25,4.5,13.5s0-38.26,0-49.51,2.25-36,18-40.51,38.26-2.25,45,0,20.25,13.5,22.5,13.5,9-9,27-13.5,33.76-4.5,42.76,2.25c0,0,15.75,9,15.75,20.26v54c0,4.5-2.25,11.25,0,9A7,7,0,0,0,309.64,239.43Z" transform="translate(-3.14 -1.5)"/><path class="cls-19" d="M221.87,149.41s-15.75-2.25-20.25-11.25c0,0-4.5-13.51-4.5-6.76s4.5,22.51,11.25,27,9,9,11.25,9h2.25Z" transform="translate(-3.14 -1.5)"/><path class="cls-19" d="M199.37,117.9s2.25,15.75,6.75,20.26,13.5,6.75,15.75,6.75V86.39l-9,9c-4.5,4.5-31.51,31.5-47.26,38.25,0,0-6.75,2.26-4.5,4.51s4.5,9,6.75,9h24.76s4.5,0,2.25-6.75-4.5-11.26-2.25-15.76S197.12,115.65,199.37,117.9Z" transform="translate(-3.14 -1.5)"/><path class="cls-20" d="M134.1,165.16l4.5-4.5c4.51-4.5,11.26-6.75,9-11.25s-4.5-20.26-6.75-18-6.76,11.26-6.76,18Z" transform="translate(-3.14 -1.5)"/><path class="cls-21" d="M158.86,156.16s20.25-2.25,24.75-2.25,18,2.25,20.26,4.5-4.5-11.25-4.5-11.25-6.75,2.25-9,2.25-20.26-2.25-29.26,0-18,9-22.51,13.5-4.5,9-4.5,24.76,0,0,2.25-6.75,4.51-15.76,11.26-20.26S158.86,156.16,158.86,156.16Z" transform="translate(-3.14 -1.5)"/><path class="cls-20" d="M131.85,138.16s-2.25-13.51-4.5-15.76-4.5,58.52-4.5,65.27,9,47.26,11.25,49.51,0-33.76,0-38.26-4.5-4.5-4.5-15.75S131.85,147.16,131.85,138.16Z" transform="translate(-3.14 -1.5)"/><path class="cls-22" d="M224.12,113.4s2.25-11.25,4.51-13.5,4.5,0,9,2.25,6.75,2.25,0-4.5-13.51-13.51-13.51-11.26Z" transform="translate(-3.14 -1.5)"/><path class="cls-22" d="M309.64,230.43c-1,2,6.75-22.51,6.75-29.26s-2.25-15.75,0-18,6.76,4.5,6.76-2.25-2.25-49.52-2.25-51.77v-13.5s-2.25,2.25-4.51,11.25c0,0-4.5,13.51-4.5,15.76v20.25l-4.5-6.75c-4.5-6.75-6.75-6.75-6.75-6.75l4.5-18s-6.75,13.51-9,13.51-2.25,2.25-6.75,2.25-6.75-4.5-4.5-6.75a3.12,3.12,0,0,0,0-4.5s0,4.5-6.75,6.75-22.51,2.25-24.76,2.25,0,0,0-6.75,0-13.51-2.25-18l-2.25-2.25h0s2.25,15.75,0,20.26-11.25,20.25-13.5,22.5,6.75-11.25,15.75-11.25,22.51-2.25,33.76,0,15.75,4.5,20.25,9,6.75,13.5,6.75,13.5S311.89,225.93,309.64,230.43Z" transform="translate(-3.14 -1.5)"/><path class="cls-8" d="M229.87,406.88c-5.13-6.46-7-7.64-7-7.64s-.86-1.08-3.12,1.6-6.16,11-7.57,14.78-.25,10.73-.25,10.73l1.38,5s.85,1.08,1,.12-.52-4-.08-7.84a20.21,20.21,0,0,1,2.82-7.5,7.25,7.25,0,0,1,6.35-4.17c4.94-.41,9.51,10.88,9.29,12.81a41.86,41.86,0,0,1,.42,4.94c-.12,1-.23,1.93-.23,1.93s2.05-.74,2.6-5.57A27.4,27.4,0,0,0,229.87,406.88Z" transform="translate(-3.14 -1.5)"/><path class="cls-18" d="M232.89,429.75s2.05-.75,2.6-5.58a27.37,27.37,0,0,0-5.62-19.23c-5.13-6.46-7-7.65-7-7.65s-.86-1.07-3.12,1.6-6.16,11-7.57,14.79-.25,10.73-.25,10.73l1.38,5s.85,1.08,1,.11-.52-4-.08-7.83a20.21,20.21,0,0,1,2.82-7.51,7.25,7.25,0,0,1,6.35-4.16c4.94-.41,9.51,10.87,9.29,12.8a42.07,42.07,0,0,1,.42,4.94l-.23,1.94" transform="translate(-3.14 -1.5)"/><path class="cls-20" d="M221.84,398.15l-.36,11.7a13.84,13.84,0,0,0-3.12,1.6c-1.08.85-2.37,3.64-3.67,6.42,0,0-1.74,6.65-1,8.69a18.46,18.46,0,0,1,.7-14.59C218.17,404.57,217.32,403.5,221.84,398.15Z" transform="translate(-3.14 -1.5)"/><path class="cls-20" d="M222.81,398.26c-.11,1,10.48,11,11.63,18s-1.48-4.09-3.19-6.24S222.81,398.26,222.81,398.26Z" transform="translate(-3.14 -1.5)"/></g></g></g></svg>