<svg xmlns="http://www.w3.org/2000/svg" xmlns:xlink="http://www.w3.org/1999/xlink" viewBox="0 0 67.24 116.37"><defs><style>.cls-1{fill:none;}.cls-2{clip-path:url(#clip-path);}.cls-3{fill:#80685d;}.cls-4{fill:#ded3be;}.cls-5{fill:#2c112f;}.cls-6{fill:#fff;}</style><clipPath id="clip-path" transform="translate(-34.03 -37.33)"><circle class="cls-1" cx="67.4" cy="67.4" r="67.4"/></clipPath></defs><title>資產 15</title><g id="圖層_2" data-name="圖層 2"><g id="圖層_1-2" data-name="圖層 1"><g class="cls-2"><path class="cls-3" d="M97.63,53.94a28.91,28.91,0,0,0-2.84-4.23l.14-.06A5.25,5.25,0,0,0,99,45.39c.51-2.87-.55-6.8-3.78-7.39-1.84-1.2-4.44-.62-6.28.35a6.68,6.68,0,0,0-1.12.76A4,4,0,0,0,86,41.63a4,4,0,0,0-.18.59,30.06,30.06,0,0,0-10-3.44c-7.62-1.13-18,.19-25.79,3.2l-.58.25a3.8,3.8,0,0,0-.18-.6,4,4,0,0,0-1.79-2.52,6.68,6.68,0,0,0-1.12-.76c-1.84-1-4.44-1.55-6.28-.35-3.23.59-4.29,4.52-3.78,7.39a5.25,5.25,0,0,0,4.08,4.26l.11.05c-3.4,4.25-5.74,9.15-5.9,12.24-.28,5.56-3.77,20.62,9.46,31.64a21.35,21.35,0,0,0,9.18,5.27c5.37,1.32,25.61,2.45,32.57-1.51S97.44,89.62,99.52,82,102.72,63.17,97.63,53.94Z" transform="translate(-34.03 -37.33)"/><path class="cls-3" d="M53.3,97.11S46.52,109,44.82,112.22s-5,9.11-5.79,14.2-.56,6.14,0,6.84,2.26,2.19,3.32,2.12,2-1.34,2.33-2.19.71-1.83.71-1.83a5.07,5.07,0,0,0,1.32.59c.32,0,1.27.09,1.55-.76a1.32,1.32,0,0,0-.47-1.69,3.6,3.6,0,0,1-1-.72c-.15-.21.09-.69.36-1.16s1.85-3,1.85-3,.28,0,.35.49a28.18,28.18,0,0,0,2,4.39c.4.54.71.56.71,1s-.78,13.3-.64,14.55-.26.89-.82,1.15a8.46,8.46,0,0,0-3.81,4.17c-1.16,2.66,2.58,3,2.87,3.06s8.28.33,9.36,0,3.65-1.2,4-3.27S64.31,137,64.31,137s0-.6.55-.58,7.15-.07,7.15-.07a.52.52,0,0,1,.39.44c0,.35,1,12.84,1.09,13.26a4.76,4.76,0,0,0,3.22,3.11c2.38.75,10.36.33,10.36.33s2.5-.68,2.52-2a3.5,3.5,0,0,0-.9-2.82,23.69,23.69,0,0,0-3.5-2.74,2.71,2.71,0,0,1-.1-1.13c0-.83-.51-14.79-.51-14.79s.77-1.23,1.22-2.13a17.1,17.1,0,0,0,1.34-3.43c0-.52.37-.44.45-.21s2.19,3.41,2.39,3.62.51.42.28.65-1.54,1.15-1.59,1.66c0,0-.25,1.43,1.15,1.47s1.45-.59,1.45-.59.26,0,.35.52,1.5,3.44,2.44,3.61,3.47-.84,4-2.31a13,13,0,0,0,.16-5.54c-.32-1.33-3.87-12.82-7.75-18.54A61.17,61.17,0,0,1,84.58,98l-.43-.88Z" transform="translate(-34.03 -37.33)"/><path class="cls-4" d="M60.05,128a10.84,10.84,0,0,0,6.09,3.63c3.65.57,7.87-.76,9.17-3.63s2.36-11.31-2.68-14.64-9.9-1-10.8,0a10.54,10.54,0,0,0-3.08,7.22C58.83,124.22,59.24,126.3,60.05,128Z" transform="translate(-34.03 -37.33)"/><circle class="cls-5" cx="17.71" cy="29.05" r="3.8"/><circle class="cls-5" cx="49.46" cy="29.05" r="3.8"/><path class="cls-6" d="M54.93,74.07s-2,2.12-.9,3.93,3.32,2.92,6.3,3.31,13.16.87,16.36-.55,5-4.57,3.66-6.69-8.12-4.73-12.58-4.49S57.22,71.55,54.93,74.07Z" transform="translate(-34.03 -37.33)"/><path class="cls-5" d="M65.11,69.05a4,4,0,0,0,1.16,2.77,3,3,0,0,0,3.81,0c.8-.87,1.35-3.17.86-3.88S64.86,66.6,65.11,69.05Z" transform="translate(-34.03 -37.33)"/></g></g></g></svg>