<svg xmlns="http://www.w3.org/2000/svg" xmlns:xlink="http://www.w3.org/1999/xlink" viewBox="0 0 366.57 518.14"><defs><style>.cls-1{fill:none;}.cls-2{clip-path:url(#clip-path);}.cls-3{fill:#efff8a;}.cls-4{fill:#ebe4ba;}.cls-5{fill:#b67a50;}.cls-6{fill:#725741;}.cls-7{fill:#7e675c;}.cls-25,.cls-7{stroke:#040000;}.cls-25,.cls-27,.cls-31,.cls-7{stroke-miterlimit:10;}.cls-8{fill:#dbd0bb;}.cls-35,.cls-9{fill:#207d99;}.cls-10,.cls-34,.cls-35,.cls-36{opacity:0.7;}.cls-11{clip-path:url(#clip-path-2);}.cls-12{fill:#0e283c;}.cls-13,.cls-33,.cls-38{fill:#174a67;}.cls-14,.cls-36,.cls-37{fill:#004e3f;}.cls-15,.cls-34{fill:#0b1a27;}.cls-16{fill:#c37c53;}.cls-17{opacity:0.71;}.cls-18{clip-path:url(#clip-path-3);}.cls-19{fill:#684033;}.cls-20{fill:#d9a866;}.cls-21{fill:#864a2d;}.cls-22{fill:#d58f5d;}.cls-23{fill:#f0d09b;}.cls-24{fill:#b0724c;}.cls-25{fill:#d39c63;}.cls-26{fill:#fff;}.cls-27{fill:#dfe282;stroke:#86bc43;}.cls-28{fill:#1e0e06;}.cls-29{fill:#5b3b24;}.cls-30{fill:#040000;}.cls-31{fill:#edecd9;stroke:#b37952;}.cls-32{fill:#b37952;}.cls-33{opacity:0.8;}.cls-37,.cls-38{opacity:0.5;}.cls-39{fill:#28210c;}</style><clipPath id="clip-path" transform="translate(-43.12 -50.91)"><circle class="cls-1" cx="217" cy="217" r="217"/></clipPath><clipPath id="clip-path-2" transform="translate(-43.12 -50.91)"><path class="cls-1" d="M170.11,436.5c0,1.82-2.86,49.08-2.34,53.68s-1,3.3-3,4.26a31.3,31.3,0,0,0-14.08,15.38c-4.25,9.81,9.56,10.94,10.6,11.29s30.58,1.22,34.58,0,13.46-4.43,14.77-12.07,4.77-48.78,4.77-48.78-.13-2.22,2-2.15,26.39-.27,26.39-.27a1.9,1.9,0,0,1,1.44,1.63c.06,1.31,3.69,47.39,4,49a17.65,17.65,0,0,0,11.91,11.46c8.77,2.78,38.22,1.22,38.22,1.22s9.21-2.52,9.3-7.38-.46-6.89-3.33-10.41-12.9-10.1-12.9-10.1a10,10,0,0,1-.39-4.17c.12-2.75-1.51-44.85-1.83-53.17H170.06A3.89,3.89,0,0,1,170.11,436.5Z"/></clipPath><clipPath id="clip-path-3" transform="translate(-43.12 -50.91)"><path class="cls-1" d="M339.91,424.83c-1.18-4.88-14.27-47.3-28.61-68.41s-18.76-34.4-21.63-40l-1.56-3.26H174.21s-25,43.78-31.27,55.77-18.5,33.62-21.37,52.39c-1,6.58-1.56,11.34-1.77,14.85H156a4.34,4.34,0,0,0-2.12-3.47,13.06,13.06,0,0,1-3.52-2.65c-.59-.79.32-2.54,1.3-4.3s6.84-10.88,6.84-10.88,1,.06,1.31,1.82,5.71,14.18,7.18,16.18c1.3,1.75,2.32,2,2.56,3.3H289.73c0-.92-.06-1.43-.06-1.43s2.87-4.56,4.52-7.86,4.86-10.78,4.95-12.69,1.35-1.6,1.67-.76,8.08,12.58,8.8,13.36,1.89,1.56,1,2.41-5.67,4.23-5.86,6.12a6.09,6.09,0,0,0-.07.85h36A46.3,46.3,0,0,0,339.91,424.83Z"/></clipPath></defs><title>資產 53</title><g id="圖層_2" data-name="圖層 2"><g id="圖層_1-2" data-name="圖層 1"><g class="cls-2"><ellipse class="cls-3" cx="199.91" cy="462.04" rx="117.54" ry="56.1"/><path class="cls-4" d="M141.41,182.62a21.92,21.92,0,0,0-13.82-1.52c-7.81,1.69-27.35,5.91-39.09-3S73.41,165,71.44,159.7s-1.14-12.84-4.49-17l-6.72-8.36c-1.12-1.39-6.42.57-8.38-4.73L46,113.69c-2-5.31-2.81-9.21-2.53-11.73,0,0-.85-3.9.27-2.51S80.93,154.38,89,161.63s17.89,10.86,26.82,10.56,8.93-.29,10.6-3.92,3.34-7.27-9-22.6S93.41,110,89.78,108.31s-5-.55-8.11-7.25-21-40.44-21-40.44-3.09-6.7,4.18-3.36,36.63,37.07,37.75,38.46-1.94,6.15-1.94,6.15,32.74,49.35,38.89,51.3,17.86-.59,19.22-24.6c0,0-12.61-24.27-26-41L107,55.52S101.68,46,113.42,55s20.12,13.64,21,17.55-.55,5,2.8,9.21.85,3.9,9.23,8.63a41.08,41.08,0,0,1,17.06,18.4s7,28.74,4.81,37.4-14.76,18.73-13.08,26.54,3.66,13.12,8.68,13.67,9.76-7.84,14.78-7.29,7,5.85,2.81,9.21-12.27,7.56-11.42,11.47S372.93,483.86,372.93,483.86s5.32,9.48,7,5.85,3.61-9.78,2.77-13.68.55-5,6.14,1.94,4.52,28.47,5.09,34.89-1.95,6.14-9.49,5.32S358.74,509,352,500.65s8.93-.3,11.45,0,7.81-1.69,5.57-4.48-207.35-289.7-207.35-289.7-2.24-2.79-6.42.57-15.33,12.31-19,10.64-2-5.3-.57-6.42l15.33-12.31S153.56,187.76,141.41,182.62Z" transform="translate(-43.12 -50.91)"/><path class="cls-5" d="M64.3,62.29s28,34.85,26.58,36-6.13,9.5-7,5.59S64,64.8,64.3,62.29Z" transform="translate(-43.12 -50.91)"/><path class="cls-6" d="M85.3,102.73s3.91-.84,3.07-4.75-4.2-8.09-4.2-8.09,2,5.3,1.68,7.82S83.91,103.85,85.3,102.73Z" transform="translate(-43.12 -50.91)"/><path class="cls-5" d="M91.17,107.19S92.84,103.56,94,105s38.89,51.3,39.74,55.21.84,3.9-1.95,6.14-3.92-10.6-8.4-16.18S91.17,107.19,91.17,107.19Z" transform="translate(-43.12 -50.91)"/><path class="cls-6" d="M86.15,106.64s6.14,1.94,5,.55S94,105,95.36,103.83s5.3-2,5.57-4.47.28-2.52-2.24-2.79-9.2,2.8-10.87,6.44Z" transform="translate(-43.12 -50.91)"/><path class="cls-5" d="M46.79,106.15s7.28,14.78,10.64,19l15.66,19.52c1.12,1.39,7.56,12.27,7.29,14.78s-8.09,4.2-7.82,1.69-1.71-19.26-5.34-20.93-7.83-9.76-10.34-10-5.6-7-7.56-12.27A52.92,52.92,0,0,1,46.79,106.15Z" transform="translate(-43.12 -50.91)"/><path class="cls-5" d="M82.06,167.22s21.8,10,25.7,9.17,12.84-1.14,10,1.1-9.48,5.32-18.14,3.1-16.76-9.46-17.88-10.85A1.76,1.76,0,0,1,82.06,167.22Z" transform="translate(-43.12 -50.91)"/><path class="cls-6" d="M80.67,168.34a5.51,5.51,0,0,1,3.91-.84c2.51.27,3.35,4.18,3.63,1.67s-4.48-5.58-7-5.85-5.3,2-4.18,3.35,6.71,8.37,8.11,7.25S80.67,168.34,80.67,168.34Z" transform="translate(-43.12 -50.91)"/><path class="cls-5" d="M125.63,175.8s12.84-1.13,16.47.53,15.1,13.1,15.94,17-17,15.94-17.28,18.45-5.3,2-5.3,2,18.12-14.54,18.4-17.06-6.17-13.39-9.8-15.05-17.59-1.93-17.59-1.93S123.11,175.53,125.63,175.8Z" transform="translate(-43.12 -50.91)"/><path class="cls-6" d="M128.69,171.05s12.84-1.14,14,.26l10.07,12.54s-10.62-7.52-15.65-8.07S124.78,171.9,128.69,171.05Z" transform="translate(-43.12 -50.91)"/><path class="cls-5" d="M139.09,215.42s1.12,1.4,3.91-.84,13.94-11.19,16.45-10.92,9,11.15,9,11.15L370.44,495s1.12,1.4.27-2.51S162.52,198.91,162.52,198.91s-1.12-1.39-8.09,4.2Z" transform="translate(-43.12 -50.91)"/><path class="cls-5" d="M355.65,502.31c-1.12-1.39,17,6.95,23.46,6.39s9.49-5.32,10.31-12.86a55,55,0,0,0-.86-15.36s3.94,22,3.39,27.08,2.54,11.72-1.1,10.05S361.25,509.28,355.65,502.31Z" transform="translate(-43.12 -50.91)"/><path class="cls-5" d="M369.89,500.06s6.14,1.94,7.54.82,1.94-6.14,1.94-6.14-4.18,3.35-5.3,2S369.89,500.06,369.89,500.06Z" transform="translate(-43.12 -50.91)"/><path class="cls-7" d="M174.22,313.38s-25,43.78-31.28,55.77-18.5,33.62-21.37,52.39-2.09,22.67,0,25.28,8.34,8.08,12.25,7.81,7.3-4.95,8.6-8.07,2.61-6.78,2.61-6.78,3.64,2.17,4.86,2.17,4.69.35,5.73-2.78,0-5.21-1.73-6.25a13.06,13.06,0,0,1-3.52-2.65c-.59-.79.32-2.54,1.3-4.3s6.84-10.88,6.84-10.88,1.05.06,1.31,1.82,5.71,14.18,7.18,16.18,2.61,2.08,2.61,3.91-2.87,49.08-2.34,53.69-1,3.3-3.05,4.25a31.34,31.34,0,0,0-14.07,15.38c-4.26,9.82,9.56,10.95,10.6,11.29s30.58,1.22,34.58,0,13.46-4.43,14.76-12.07,4.78-48.78,4.78-48.78-.13-2.22,2-2.15,26.39-.26,26.39-.26a1.87,1.87,0,0,1,1.43,1.63c.07,1.3,3.7,47.39,4,48.95a17.66,17.66,0,0,0,11.9,11.47c8.78,2.78,38.23,1.21,38.23,1.21s9.21-2.52,9.29-7.38-.45-6.88-3.32-10.4-12.9-10.1-12.9-10.1a10.09,10.09,0,0,1-.39-4.17c.13-3.06-1.89-54.6-1.89-54.6s2.87-4.56,4.52-7.86,4.86-10.78,4.95-12.69,1.35-1.61,1.67-.76,8.08,12.58,8.8,13.36,1.89,1.56,1,2.41-5.67,4.23-5.86,6.12c0,0-.92,5.28,4.23,5.41s5.34-2.15,5.34-2.15,1-.13,1.31,1.89,5.54,12.71,9,13.36,12.83-3.13,14.66-8.54,1.76-15.57.59-20.46-14.27-47.3-28.61-68.41-18.76-34.4-21.63-40l-1.56-3.26Z" transform="translate(-43.12 -50.91)"/><path class="cls-8" d="M194.24,427.8s9,11.33,22.57,13.44,29.2-2.81,34-13.44,8.73-41.94-9.93-54.28-36.72-3.61-40,0-11.74,13.24-11.44,26.79S191.23,421.58,194.24,427.8Z" transform="translate(-43.12 -50.91)"/><path class="cls-9" d="M169.07,436c0,1.83-2.87,49.09-2.35,53.69s-1,3.3-3,4.26a31.21,31.21,0,0,0-14.07,15.37c-4.26,9.82,9.55,10.95,10.59,11.3s30.58,1.21,34.58,0,13.47-4.43,14.77-12.08,4.78-48.78,4.78-48.78a1.94,1.94,0,0,1,2-2.15c2.15.07,26.39-.26,26.39-.26a1.89,1.89,0,0,1,1.43,1.63c.06,1.3,3.69,47.39,4,48.95a17.64,17.64,0,0,0,11.9,11.47c8.77,2.78,38.22,1.22,38.22,1.22s9.21-2.52,9.3-7.39-.46-6.88-3.32-10.4-12.9-10.1-12.9-10.1a9.86,9.86,0,0,1-.39-4.17c.11-2.76-1.51-44.85-1.84-53.17H169A2.8,2.8,0,0,1,169.07,436Z" transform="translate(-43.12 -50.91)"/><g class="cls-10"><g class="cls-11"><polygon class="cls-12" points="245.16 409.62 237.06 409.62 233.01 416.63 237.06 423.64 245.16 423.64 249.2 416.63 245.16 409.62"/><polygon class="cls-13" points="245.42 423.91 237.32 423.91 233.27 430.92 237.32 437.93 245.42 437.93 249.47 430.92 245.42 423.91"/><polygon class="cls-14" points="220.22 380.43 212.13 380.43 208.08 387.44 212.13 394.45 220.22 394.45 224.27 387.44 220.22 380.43"/><polygon class="cls-9" points="232.4 387.57 224.3 387.57 220.25 394.59 224.3 401.6 232.4 401.6 236.44 394.59 232.4 387.57"/><polygon class="cls-15" points="244.57 380.43 236.47 380.43 232.42 387.44 236.47 394.45 244.57 394.45 248.62 387.44 244.57 380.43"/><polygon class="cls-14" points="244.83 394.45 236.74 394.45 232.69 401.47 236.74 408.48 244.83 408.48 248.88 401.47 244.83 394.45"/><polygon class="cls-15" points="232.66 401.6 224.56 401.6 220.51 408.61 224.56 415.62 232.66 415.62 236.71 408.61 232.66 401.6"/><polygon class="cls-13" points="220.49 394.72 212.39 394.72 208.34 401.73 212.39 408.74 220.49 408.74 224.54 401.73 220.49 394.72"/><polygon class="cls-15" points="145.91 393.63 137.81 393.63 133.76 400.64 137.81 407.65 145.91 407.65 149.96 400.64 145.91 393.63"/><polygon class="cls-9" points="158.08 400.77 149.98 400.77 145.94 407.79 149.98 414.8 158.08 414.8 162.13 407.79 158.08 400.77"/><polygon class="cls-13" points="158.08 386.75 149.98 386.75 145.94 393.76 149.98 400.77 158.08 400.77 162.13 393.76 158.08 386.75"/><polygon class="cls-14" points="170.25 393.63 162.16 393.63 158.11 400.64 162.16 407.65 170.25 407.65 174.3 400.64 170.25 393.63"/><polygon class="cls-13" points="170.52 407.65 162.42 407.65 158.37 414.67 162.42 421.68 170.52 421.68 174.57 414.67 170.52 407.65"/><polygon class="cls-15" points="158.34 414.8 150.25 414.8 146.2 421.81 150.25 428.82 158.34 428.82 162.39 421.81 158.34 414.8"/><polygon class="cls-15" points="146.17 407.92 138.08 407.92 134.03 414.93 138.08 421.94 146.17 421.94 150.22 414.93 146.17 407.92"/><polygon class="cls-15" points="170.84 422.21 162.74 422.21 158.69 429.22 162.74 436.24 170.84 436.24 174.89 429.22 170.84 422.21"/><polygon class="cls-9" points="245.83 451.34 237.73 451.34 233.68 458.35 237.73 465.37 245.83 465.37 249.88 458.35 245.83 451.34"/><polygon class="cls-14" points="245.83 437.32 237.73 437.32 233.68 444.33 237.73 451.34 245.83 451.34 249.88 444.33 245.83 437.32"/><polygon class="cls-14" points="258 444.2 249.9 444.2 245.85 451.21 249.9 458.22 258 458.22 262.05 451.21 258 444.2"/><polygon class="cls-14" points="208.8 431.63 200.7 431.63 196.65 438.65 200.7 445.66 208.8 445.66 212.84 438.65 208.8 431.63"/><polygon class="cls-13" points="258.26 458.22 250.17 458.22 246.12 465.23 250.17 472.25 258.26 472.25 262.31 465.23 258.26 458.22"/><polygon class="cls-13" points="206.97 388.08 198.87 388.08 194.82 395.09 198.87 402.11 206.97 402.11 211.01 395.09 206.97 388.08"/><polygon class="cls-13" points="206.97 402.74 198.87 402.74 194.82 409.75 198.87 416.76 206.97 416.76 211.01 409.75 206.97 402.74"/><polygon class="cls-13" points="220.58 407.97 212.48 407.97 208.43 414.98 212.48 422 220.58 422 224.63 414.98 220.58 407.97"/><polygon class="cls-13" points="209.06 417.39 200.96 417.39 196.91 424.4 200.96 431.42 209.06 431.42 213.11 424.4 209.06 417.39"/><polygon class="cls-13" points="231.04 416.35 222.95 416.35 218.9 423.36 222.95 430.37 231.04 430.37 235.09 423.36 231.04 416.35"/><polygon class="cls-15" points="246.09 465.37 237.99 465.37 233.95 472.38 237.99 479.39 246.09 479.39 250.14 472.38 246.09 465.37"/><polygon class="cls-9" points="220.7 438.78 212.6 438.78 208.56 445.79 212.6 452.8 220.7 452.8 224.75 445.79 220.7 438.78"/><polygon class="cls-14" points="220.7 424.75 212.6 424.75 208.56 431.77 212.6 438.78 220.7 438.78 224.75 431.77 220.7 424.75"/><polygon class="cls-14" points="232.87 431.63 224.78 431.63 220.73 438.65 224.78 445.66 232.87 445.66 236.92 438.65 232.87 431.63"/><polygon class="cls-13" points="233.14 445.66 225.04 445.66 220.99 452.67 225.04 459.68 233.14 459.68 237.19 452.67 233.14 445.66"/><polygon class="cls-15" points="220.97 452.8 212.87 452.8 208.82 459.82 212.87 466.83 220.97 466.83 225.01 459.82 220.97 452.8"/><polygon class="cls-15" points="232.48 460.13 224.38 460.13 220.34 467.14 224.38 474.16 232.48 474.16 236.53 467.14 232.48 460.13"/><polygon class="cls-15" points="208.4 445.48 200.31 445.48 196.26 452.49 200.31 459.5 208.4 459.5 212.45 452.49 208.4 445.48"/><polygon class="cls-14" points="171.11 436.5 163.01 436.5 158.96 443.51 163.01 450.53 171.11 450.53 175.15 443.51 171.11 436.5"/><polygon class="cls-14" points="120.86 451.16 112.76 451.16 108.71 458.17 112.76 465.18 120.86 465.18 124.9 458.17 120.86 451.16"/><polygon class="cls-12" points="182.4 386.33 174.3 386.33 170.25 393.35 174.3 400.36 182.4 400.36 186.44 393.35 182.4 386.33"/><polygon class="cls-9" points="194.57 393.48 186.47 393.48 182.42 400.49 186.47 407.5 194.57 407.5 198.62 400.49 194.57 393.48"/><polygon class="cls-12" points="194.57 379.45 186.47 379.45 182.42 386.46 186.47 393.48 194.57 393.48 198.62 386.46 194.57 379.45"/><polygon class="cls-12" points="182.66 400.62 174.56 400.62 170.51 407.63 174.56 414.65 182.66 414.65 186.71 407.63 182.66 400.62"/><polygon class="cls-9" points="170.51 380.14 162.41 380.14 158.36 387.15 162.41 394.16 170.51 394.16 174.56 387.15 170.51 380.14"/><polygon class="cls-12" points="133.14 429.51 125.04 429.51 120.99 436.52 125.04 443.53 133.14 443.53 137.19 436.52 133.14 429.51"/><polygon class="cls-9" points="145.31 436.65 137.21 436.65 133.16 443.67 137.21 450.68 145.31 450.68 149.36 443.67 145.31 436.65"/><polygon class="cls-13" points="145.31 422.63 137.21 422.63 133.16 429.64 137.21 436.65 145.31 436.65 149.36 429.64 145.31 422.63"/><polygon class="cls-12" points="157.48 429.51 149.39 429.51 145.34 436.52 149.39 443.53 157.48 443.53 161.53 436.52 157.48 429.51"/><polygon class="cls-15" points="157.75 443.53 149.65 443.53 145.6 450.55 149.65 457.56 157.75 457.56 161.8 450.55 157.75 443.53"/><polygon class="cls-15" points="169.26 450.86 161.17 450.86 157.12 457.88 161.17 464.89 169.26 464.89 173.31 457.88 169.26 450.86"/><polygon class="cls-15" points="145.19 450.86 137.09 450.86 133.04 457.88 137.09 464.89 145.19 464.89 149.23 457.88 145.19 450.86"/><polygon class="cls-15" points="145.19 465.52 137.09 465.52 133.04 472.53 137.09 479.54 145.19 479.54 149.23 472.53 145.19 465.52"/><polygon class="cls-15" points="157.75 458.19 149.65 458.19 145.6 465.2 149.65 472.21 157.75 472.21 161.8 465.2 157.75 458.19"/><polygon class="cls-13" points="133.4 443.8 125.31 443.8 121.26 450.81 125.31 457.82 133.4 457.82 137.45 450.81 133.4 443.8"/><polygon class="cls-13" points="132.36 459.5 124.26 459.5 120.21 466.51 124.26 473.53 132.36 473.53 136.4 466.51 132.36 459.5"/><polygon class="cls-15" points="132.55 400.32 124.45 400.32 120.4 407.33 124.45 414.35 132.55 414.35 136.6 407.33 132.55 400.32"/><polygon class="cls-14" points="132.81 414.35 124.72 414.35 120.67 421.36 124.72 428.37 132.81 428.37 136.86 421.36 132.81 414.35"/><polygon class="cls-13" points="144.15 377.61 136.06 377.61 132.01 384.62 136.06 391.64 144.15 391.64 148.2 384.62 144.15 377.61"/><polygon class="cls-15" points="131.98 384.76 123.88 384.76 119.83 391.77 123.88 398.78 131.98 398.78 136.03 391.77 131.98 384.76"/></g></g><path class="cls-16" d="M339.91,424.83c-1.18-4.88-14.27-47.3-28.61-68.41s-18.76-34.4-21.63-40l-1.56-3.26H174.21s-25,43.78-31.27,55.77-18.5,33.62-21.37,52.39c-1,6.58-1.56,11.34-1.77,14.85H156a4.34,4.34,0,0,0-2.12-3.47,13.06,13.06,0,0,1-3.52-2.65c-.59-.79.32-2.54,1.3-4.3s6.84-10.88,6.84-10.88,1,.06,1.31,1.82,5.71,14.18,7.18,16.18c1.3,1.75,2.32,2,2.56,3.3H289.73c0-.92-.06-1.43-.06-1.43s2.87-4.56,4.52-7.86,4.86-10.78,4.95-12.69,1.35-1.6,1.67-.76,8.08,12.58,8.8,13.36,1.89,1.56,1,2.41-5.67,4.23-5.86,6.12a6.09,6.09,0,0,0-.07.85h36A46.3,46.3,0,0,0,339.91,424.83Z" transform="translate(-43.12 -50.91)"/><g class="cls-17"><g class="cls-18"><polygon class="cls-19" points="210.31 291.84 202.22 291.84 198.17 298.86 202.22 305.87 210.31 305.87 214.36 298.86 210.31 291.84"/><polygon class="cls-20" points="222.49 298.99 214.39 298.99 210.34 306 214.39 313.01 222.49 313.01 226.53 306 222.49 298.99"/><polygon class="cls-20" points="198.41 284.33 190.31 284.33 186.26 291.34 190.31 298.36 198.41 298.36 202.46 291.34 198.41 284.33"/><polygon class="cls-20" points="208.88 277 200.78 277 196.73 284.01 200.78 291.03 208.88 291.03 212.93 284.01 208.88 277"/><polygon class="cls-20" points="210.97 262.35 202.87 262.35 198.82 269.36 202.87 276.37 210.97 276.37 215.02 269.36 210.97 262.35"/><polygon class="cls-21" points="222.49 284.96 214.39 284.96 210.34 291.98 214.39 298.99 222.49 298.99 226.53 291.98 222.49 284.96"/><polygon class="cls-21" points="172.24 280.77 164.14 280.77 160.09 287.79 164.14 294.8 172.24 294.8 176.28 287.79 172.24 280.77"/><polygon class="cls-21" points="159.67 260.88 151.57 260.88 147.53 267.9 151.57 274.91 159.67 274.91 163.72 267.9 159.67 260.88"/><polygon class="cls-22" points="234.66 291.84 226.56 291.84 222.51 298.86 226.56 305.87 234.66 305.87 238.71 298.86 234.66 291.84"/><polygon class="cls-20" points="234.92 305.87 226.83 305.87 222.78 312.88 226.83 319.89 234.92 319.89 238.97 312.88 234.92 305.87"/><polygon class="cls-23" points="222.75 313.01 214.65 313.01 210.6 320.02 214.65 327.04 222.75 327.04 226.8 320.02 222.75 313.01"/><polygon class="cls-23" points="210.58 306.13 202.48 306.13 198.43 313.14 202.48 320.16 210.58 320.16 214.63 313.14 210.58 306.13"/><polygon class="cls-23" points="235.25 320.42 227.15 320.42 223.1 327.44 227.15 334.45 235.25 334.45 239.29 327.44 235.25 320.42"/><polygon class="cls-21" points="247.42 327.57 239.32 327.57 235.27 334.58 239.32 341.59 247.42 341.59 251.47 334.58 247.42 327.57"/><polygon class="cls-22" points="247.42 313.54 239.32 313.54 235.27 320.56 239.32 327.57 247.42 327.57 251.47 320.56 247.42 313.54"/><polygon class="cls-22" points="259.59 320.42 251.49 320.42 247.44 327.44 251.49 334.45 259.59 334.45 263.64 327.44 259.59 320.42"/><polygon class="cls-20" points="259.86 334.45 251.76 334.45 247.71 341.46 251.76 348.47 259.86 348.47 263.9 341.46 259.86 334.45"/><polygon class="cls-19" points="247.68 341.59 239.59 341.59 235.54 348.61 239.59 355.62 247.68 355.62 251.73 348.61 247.68 341.59"/><polygon class="cls-20" points="235.51 334.71 227.41 334.71 223.37 341.73 227.41 348.74 235.51 348.74 239.56 341.73 235.51 334.71"/><polygon class="cls-22" points="246.8 284.55 238.7 284.55 234.65 291.56 238.7 298.57 246.8 298.57 250.85 291.56 246.8 284.55"/><polygon class="cls-20" points="258.97 291.69 250.88 291.69 246.83 298.7 250.88 305.71 258.97 305.71 263.02 298.7 258.97 291.69"/><polygon class="cls-20" points="273.63 300.06 265.53 300.06 261.48 307.08 265.53 314.09 273.63 314.09 277.68 307.08 273.63 300.06"/><polygon class="cls-22" points="258.97 277.67 250.88 277.67 246.83 284.68 250.88 291.69 258.97 291.69 263.02 284.68 258.97 277.67"/><polygon class="cls-23" points="259.24 305.71 251.14 305.71 247.09 312.73 251.14 319.74 259.24 319.74 263.29 312.73 259.24 305.71"/><polygon class="cls-22" points="247.06 298.83 238.97 298.83 234.92 305.85 238.97 312.86 247.06 312.86 251.11 305.85 247.06 298.83"/><polygon class="cls-22" points="247.09 271.2 238.99 271.2 234.94 278.22 238.99 285.23 247.09 285.23 251.13 278.22 247.09 271.2"/><polygon class="cls-21" points="234.91 278.35 226.82 278.35 222.77 285.36 226.82 292.38 234.91 292.38 238.96 285.36 234.91 278.35"/><polygon class="cls-22" points="222.74 271.47 214.64 271.47 210.59 278.48 214.64 285.49 222.74 285.49 226.79 278.48 222.74 271.47"/><polygon class="cls-24" points="197.54 327.72 189.45 327.72 185.4 334.73 189.45 341.75 197.54 341.75 201.59 334.73 197.54 327.72"/><polygon class="cls-21" points="209.72 334.87 201.62 334.87 197.57 341.88 201.62 348.89 209.72 348.89 213.76 341.88 209.72 334.87"/><polygon class="cls-19" points="209.72 320.84 201.62 320.84 197.57 327.85 201.62 334.87 209.72 334.87 213.76 327.85 209.72 320.84"/><polygon class="cls-24" points="221.89 327.72 213.79 327.72 209.74 334.73 213.79 341.75 221.89 341.75 225.94 334.73 221.89 327.72"/><polygon class="cls-24" points="234.45 261.77 226.35 261.77 222.31 268.78 226.35 275.79 234.45 275.79 238.5 268.78 234.45 261.77"/><polygon class="cls-24" points="222.94 255.49 214.84 255.49 210.79 262.5 214.84 269.51 222.94 269.51 226.98 262.5 222.94 255.49"/><polygon class="cls-24" points="249.11 256.53 241.01 256.53 236.96 263.55 241.01 270.56 249.11 270.56 253.16 263.55 249.11 256.53"/><polygon class="cls-23" points="222.15 341.75 214.06 341.75 210.01 348.76 214.06 355.77 222.15 355.77 226.2 348.76 222.15 341.75"/><polygon class="cls-19" points="197.81 342.01 189.71 342.01 185.66 349.02 189.71 356.04 197.81 356.04 201.86 349.02 197.81 342.01"/><polygon class="cls-22" points="172.61 298.53 164.51 298.53 160.46 305.54 164.51 312.56 172.61 312.56 176.66 305.54 172.61 298.53"/><polygon class="cls-22" points="160.05 290.16 151.95 290.16 147.9 297.17 151.95 304.18 160.05 304.18 164.1 297.17 160.05 290.16"/><polygon class="cls-21" points="184.78 305.68 176.69 305.68 172.64 312.69 176.69 319.7 184.78 319.7 188.83 312.69 184.78 305.68"/><polygon class="cls-23" points="196.96 298.53 188.86 298.53 184.81 305.54 188.86 312.56 196.96 312.56 201 305.54 196.96 298.53"/><polygon class="cls-22" points="197.22 312.56 189.12 312.56 185.07 319.57 189.12 326.58 197.22 326.58 201.27 319.57 197.22 312.56"/><polygon class="cls-20" points="184.73 318.55 175.99 318.55 171.62 326.12 175.99 333.69 184.73 333.69 189.1 326.12 184.73 318.55"/><polygon class="cls-21" points="172.88 312.82 164.78 312.82 160.73 319.83 164.78 326.85 172.88 326.85 176.92 319.83 172.88 312.82"/><polygon class="cls-20" points="260.56 349.42 252.47 349.42 248.42 356.43 252.47 363.45 260.56 363.45 264.61 356.43 260.56 349.42"/><polygon class="cls-20" points="272.74 342.54 264.64 342.54 260.59 349.55 264.64 356.57 272.74 356.57 276.79 349.55 272.74 342.54"/><polygon class="cls-20" points="284.91 349.42 276.81 349.42 272.76 356.43 276.81 363.45 284.91 363.45 288.96 356.43 284.91 349.42"/><polygon class="cls-20" points="184.41 289.75 176.31 289.75 172.26 296.76 176.31 303.77 184.41 303.77 188.46 296.76 184.41 289.75"/><polygon class="cls-19" points="272.73 314.76 264.63 314.76 260.58 321.77 264.63 328.78 272.73 328.78 276.77 321.77 272.73 314.76"/><polygon class="cls-21" points="284.9 321.9 276.8 321.9 272.75 328.92 276.8 335.93 284.9 335.93 288.95 328.92 284.9 321.9"/><polygon class="cls-20" points="285.16 335.93 277.07 335.93 273.02 342.94 277.07 349.95 285.16 349.95 289.21 342.94 285.16 335.93"/><polygon class="cls-22" points="272.99 329.05 264.89 329.05 260.85 336.06 264.89 343.07 272.99 343.07 277.04 336.06 272.99 329.05"/><polygon class="cls-20" points="222.86 356.11 214.76 356.11 210.72 363.12 214.76 370.14 222.86 370.14 226.91 363.12 222.86 356.11"/><polygon class="cls-23" points="235.03 363.26 226.94 363.26 222.89 370.27 226.94 377.28 235.03 377.28 239.08 370.27 235.03 363.26"/><polygon class="cls-19" points="235.03 349.23 226.94 349.23 222.89 356.24 226.94 363.26 235.03 363.26 239.08 356.24 235.03 349.23"/><polygon class="cls-19" points="247.21 356.11 239.11 356.11 235.06 363.12 239.11 370.14 247.21 370.14 251.25 363.12 247.21 356.11"/><polygon class="cls-19" points="261.86 364.49 253.76 364.49 249.72 371.5 253.76 378.51 261.86 378.51 265.91 371.5 261.86 364.49"/><polygon class="cls-19" points="247.47 370.14 239.37 370.14 235.32 377.15 239.37 384.16 247.47 384.16 251.52 377.15 247.47 370.14"/><polygon class="cls-24" points="235.3 377.28 227.2 377.28 223.15 384.29 227.2 391.31 235.3 391.31 239.35 384.29 235.3 377.28"/><polygon class="cls-21" points="223.13 370.4 215.03 370.4 210.98 377.41 215.03 384.43 223.13 384.43 227.17 377.41 223.13 370.4"/><polygon class="cls-19" points="148.55 369.31 140.45 369.31 136.4 376.32 140.45 383.34 148.55 383.34 152.6 376.32 148.55 369.31"/><polygon class="cls-23" points="160.72 376.46 152.62 376.46 148.57 383.47 152.62 390.48 160.72 390.48 164.77 383.47 160.72 376.46"/><polygon class="cls-21" points="160.72 362.43 152.62 362.43 148.57 369.44 152.62 376.46 160.72 376.46 164.77 369.44 160.72 362.43"/><polygon class="cls-21" points="172.89 369.31 164.79 369.31 160.75 376.32 164.79 383.34 172.89 383.34 176.94 376.32 172.89 369.31"/><polygon class="cls-24" points="210.78 349.55 202.68 349.55 198.63 356.57 202.68 363.58 210.78 363.58 214.83 356.57 210.78 349.55"/><polygon class="cls-21" points="209.6 363.76 201.51 363.76 197.46 370.77 201.51 377.79 209.6 377.79 213.65 370.77 209.6 363.76"/><polygon class="cls-19" points="209.6 378.42 201.51 378.42 197.46 385.43 201.51 392.44 209.6 392.44 213.65 385.43 209.6 378.42"/><polygon class="cls-24" points="185.03 362.01 176.94 362.01 172.89 369.03 176.94 376.04 185.03 376.04 189.08 369.03 185.03 362.01"/><polygon class="cls-23" points="197.21 369.16 189.11 369.16 185.06 376.17 189.11 383.19 197.21 383.19 201.25 376.17 197.21 369.16"/><polygon class="cls-24" points="197.21 355.13 189.11 355.13 185.06 362.15 189.11 369.16 197.21 369.16 201.25 362.15 197.21 355.13"/><polygon class="cls-21" points="185.3 376.31 177.2 376.31 173.15 383.32 177.2 390.33 185.3 390.33 189.35 383.32 185.3 376.31"/><polygon class="cls-19" points="158.46 334.69 149.72 334.69 145.35 342.25 149.72 349.82 158.46 349.82 162.83 342.25 158.46 334.69"/><polygon class="cls-24" points="172.88 341.8 164.78 341.8 160.74 348.81 164.78 355.82 172.88 355.82 176.93 348.81 172.88 341.8"/><polygon class="cls-20" points="172.88 327.77 164.78 327.77 160.74 334.78 164.78 341.8 172.88 341.8 176.93 334.78 172.88 327.77"/><polygon class="cls-19" points="185.05 334.65 176.96 334.65 172.91 341.66 176.96 348.68 185.05 348.68 189.1 341.66 185.05 334.65"/><polygon class="cls-24" points="185.32 348.68 177.22 348.68 173.17 355.69 177.22 362.7 185.32 362.7 189.37 355.69 185.32 348.68"/><polygon class="cls-23" points="173.15 355.82 165.05 355.82 161 362.83 165.05 369.84 173.15 369.84 177.19 362.83 173.15 355.82"/><polygon class="cls-24" points="160.97 348.94 152.88 348.94 148.83 355.95 152.88 362.96 160.97 362.96 165.02 355.95 160.97 348.94"/><polygon class="cls-21" points="135.18 376.06 127.06 376.06 123.01 383.08 127.06 390.11 135.18 390.11 139.23 383.08 135.18 376.06"/><polygon class="cls-19" points="109.42 317.83 101.33 317.83 97.28 324.84 101.33 331.86 109.42 331.86 113.47 324.84 109.42 317.83"/><polygon class="cls-24" points="109.42 303.81 101.33 303.81 97.28 310.82 101.33 317.83 109.42 317.83 113.47 310.82 109.42 303.81"/><polygon class="cls-22" points="121.59 310.69 113.5 310.69 109.45 317.7 113.5 324.71 121.59 324.71 125.64 317.7 121.59 310.69"/><polygon class="cls-19" points="121.86 324.71 113.76 324.71 109.71 331.72 113.76 338.74 121.86 338.74 125.91 331.72 121.86 324.71"/><polygon class="cls-24" points="109.69 331.86 101.59 331.86 97.54 338.87 101.59 345.88 109.69 345.88 113.73 338.87 109.69 331.86"/><polygon class="cls-24" points="97.51 324.98 89.42 324.98 85.37 331.99 89.42 339 97.51 339 101.56 331.99 97.51 324.98"/><polygon class="cls-21" points="122.15 339.27 114.04 339.27 109.98 346.29 114.04 353.31 122.15 353.31 126.2 346.29 122.15 339.27"/><polygon class="cls-19" points="134.35 346.41 126.26 346.41 122.21 353.43 126.26 360.44 134.35 360.44 138.4 353.43 134.35 346.41"/><polygon class="cls-22" points="134.35 332.39 126.26 332.39 122.21 339.4 126.26 346.41 134.35 346.41 138.4 339.4 134.35 332.39"/><polygon class="cls-22" points="146.53 339.27 138.43 339.27 134.38 346.28 138.43 353.29 146.53 353.29 150.58 346.28 146.53 339.27"/><polygon class="cls-22" points="160.14 319.38 152.04 319.38 147.99 326.39 152.04 333.4 160.14 333.4 164.19 326.39 160.14 319.38"/><polygon class="cls-24" points="146.79 353.29 138.69 353.29 134.65 360.31 138.69 367.32 146.79 367.32 150.84 360.31 146.79 353.29"/><polygon class="cls-21" points="134.6 360.47 126.5 360.47 122.44 367.49 126.5 374.52 134.6 374.52 138.66 367.49 134.6 360.47"/><polygon class="cls-24" points="133.74 303.39 125.64 303.39 121.59 310.4 125.64 317.41 133.74 317.41 137.78 310.4 133.74 303.39"/><polygon class="cls-21" points="145.91 310.53 137.81 310.53 133.76 317.55 137.81 324.56 145.91 324.56 149.96 317.55 145.91 310.53"/><polygon class="cls-24" points="145.91 296.51 137.81 296.51 133.76 303.52 137.81 310.53 145.91 310.53 149.96 303.52 145.91 296.51"/><polygon class="cls-24" points="158.47 274.52 150.37 274.52 146.33 281.54 150.37 288.55 158.47 288.55 162.52 281.54 158.47 274.52"/><polygon class="cls-24" points="172.08 266.15 163.98 266.15 159.94 273.16 163.98 280.17 172.08 280.17 176.13 273.16 172.08 266.15"/><polygon class="cls-24" points="184.64 274.52 176.55 274.52 172.5 281.54 176.55 288.55 184.64 288.55 188.69 281.54 184.64 274.52"/><polygon class="cls-24" points="197.21 268.24 189.11 268.24 185.06 275.26 189.11 282.27 197.21 282.27 201.25 275.26 197.21 268.24"/><polygon class="cls-24" points="185.69 257.77 177.59 257.77 173.54 264.79 177.59 271.8 185.69 271.8 189.74 264.79 185.69 257.77"/><polygon class="cls-24" points="133.35 259.87 125.25 259.87 121.2 266.88 125.25 273.89 133.35 273.89 137.4 266.88 133.35 259.87"/><polygon class="cls-24" points="158.47 303.84 150.37 303.84 146.33 310.85 150.37 317.86 158.47 317.86 162.52 310.85 158.47 303.84"/><polygon class="cls-24" points="146.17 324.56 138.08 324.56 134.03 331.57 138.08 338.58 146.17 338.58 150.22 331.57 146.17 324.56"/><polygon class="cls-24" points="134 317.68 125.9 317.68 121.86 324.69 125.9 331.7 134 331.7 138.05 324.69 134 317.68"/><polygon class="cls-19" points="145.01 267.65 136.91 267.65 132.86 274.66 136.91 281.67 145.01 281.67 149.06 274.66 145.01 267.65"/><polygon class="cls-19" points="148.15 252.99 140.05 252.99 136 260 140.05 267.02 148.15 267.02 152.19 260 148.15 252.99"/><polygon class="cls-19" points="147.1 282.31 139 282.31 134.95 289.32 139 296.33 147.1 296.33 151.15 289.32 147.1 282.31"/><polygon class="cls-19" points="121.58 283.17 113.49 283.17 109.44 290.18 113.49 297.19 121.58 297.19 125.63 290.18 121.58 283.17"/><polygon class="cls-19" points="133.76 276.02 125.66 276.02 121.61 283.04 125.66 290.05 133.76 290.05 137.81 283.04 133.76 276.02"/><polygon class="cls-24" points="134.02 290.05 125.92 290.05 121.88 297.06 125.92 304.07 134.02 304.07 138.07 297.06 134.02 290.05"/><polygon class="cls-21" points="121.85 297.19 113.75 297.19 109.7 304.21 113.75 311.22 121.85 311.22 125.9 304.21 121.85 297.19"/><polygon class="cls-22" points="109.68 290.31 101.58 290.31 97.53 297.33 101.58 304.34 109.68 304.34 113.72 297.33 109.68 290.31"/><polygon class="cls-24" points="96.65 339.69 88.55 339.69 84.51 346.7 88.55 353.71 96.65 353.71 100.7 346.7 96.65 339.69"/><polygon class="cls-19" points="108.82 346.56 100.73 346.56 96.68 353.58 100.73 360.59 108.82 360.59 112.87 353.58 108.82 346.56"/><polygon class="cls-19" points="121.39 353.89 113.29 353.89 109.24 360.91 113.29 367.92 121.39 367.92 125.44 360.91 121.39 353.89"/><polygon class="cls-19" points="121.39 367.5 113.29 367.5 109.24 374.52 113.29 381.53 121.39 381.53 125.44 374.52 121.39 367.5"/></g></g><path class="cls-25" d="M333.55,153.36a109.39,109.39,0,0,0-18.61-24.7c4.25-2.54,9.13-8.22,5.26-14.73-5.76-9.69-14.65-10.73-21.72-6.55-2.65,1.58-3.83,3.38-4.27,5a111.58,111.58,0,0,0-41.27-15.22c-28.27-4.19-66.65.7-95.62,11.86-1.65.64-3.3,1.39-4.94,2.22a9.26,9.26,0,0,0-3.84-3.88c-7.06-4.18-16-3.14-21.72,6.55-3.45,5.81.07,11,3.89,13.81-17.16,17.43-29.91,41.32-30.62,55.28-1,20.59-14,76.42,35.07,117.25,0,0,14.14,14.66,34,19.55s94.92,9.07,120.74-5.59,42.92-28.61,50.6-56.88S352.39,187.56,333.55,153.36Z" transform="translate(-43.12 -50.91)"/><path class="cls-26" d="M175.28,228s-7.58,7.88-3.34,14.59,12.3,10.8,23.33,12.25,48.78,3.21,60.66-2,18.67-16.92,13.58-24.8-30.12-17.51-46.66-16.63S183.77,218.62,175.28,228Z" transform="translate(-43.12 -50.91)"/><circle class="cls-26" cx="138.93" cy="138.39" r="26.35"/><circle class="cls-26" cx="219.17" cy="137.35" r="26.35"/><circle class="cls-27" cx="146.39" cy="138.15" r="14.05"/><circle class="cls-27" cx="212.66" cy="139.19" r="14.05"/><path class="cls-28" d="M267.51,144.38S233,159,232,167.37s69-11.5,66.88-17.77S267.51,144.38,267.51,144.38Z" transform="translate(-43.12 -50.91)"/><path class="cls-28" d="M174.54,144.38s34.49,14.63,35.53,23-69-11.5-66.87-17.77S174.54,144.38,174.54,144.38Z" transform="translate(-43.12 -50.91)"/><path class="cls-28" d="M331.9,203.76s-4.19,23-8.38,35.59-17.79,25.13-26.17,31.41c-7.22,5.42-20.19,2.09-28.26-1.95s-10.1-8.07-20.2-8.07-32.31-2-44.43,0-10.09-2-16.15,4-6.27,14.55-13.44,13.31c-24.08-4.19-40.78-13-45-20.94-16.75-31.41-23-74.48-23-78.52,0-2.06-8.45,16.12-9.42,36.64-.94,19.62,5.55,41.46,7.32,46.07,5.24,13.61,29.32,45,48.16,54.44,24.58,12.28,55.62,9.58,69.76,9.58s56-2.41,67.38-8.54c13.61-7.33,33.92-23.11,37.69-28.26C339.23,272.85,353.44,226,331.9,203.76Z" transform="translate(-43.12 -50.91)"/><path class="cls-28" d="M279.14,236.45s-8.69-4.12-12,1.21-3.89,10.39-9,13.25c-6.06,3.38-5.9,2.38-14.14,2.38s-26.35-1.33-36.23,0-9.06.64-15-1.18c-7.89-2.41-5.63-1.2-10.14-3.61-1.22-.65-6.77-7.23-7.89-9.64-3-6.33-8,1.71-12.06-8.43-1.62-4,3,17.3,3,23.95s8.78,24.43,15.37,32.42,30,9.07,41.53,9.07,32.85.45,42.15-3.56C277.54,286.8,280.85,262,279.14,236.45Z" transform="translate(-43.12 -50.91)"/><path class="cls-29" d="M167.56,249.42s9.51,22.94,11.49,20.29c3.14-4.19-1-15.7-1-24.85.07-9.49-.1-16.84,5.16-19.12s50-3.68,57.93-1.4,18.4,0,21,9.12-1.92,31.13,6,26.57,12.53-29.64,12.43-33.41c-.1-4-4.24-8.45-23.66-13.68,0,0-28.48-2.6-34.35-2.31-20.51,1-16,0-26.2,3-15.48,4.47-19.37,3-25.07,5.93-3.19,1.66-9.12,5.93-9,11.66C162.36,234.4,167.56,249.42,167.56,249.42Z" transform="translate(-43.12 -50.91)"/><path class="cls-29" d="M183.24,282.27c2.21,7.49,4.36,20.14,17.8,24.08s42.43,0,47.81,0,13.44-3.94,16.13-19.73,2.68-19.73,0-23.68-4.58,14-12.64,10-8.87-2.13-14.25-6.07-27.34-2.9-30.77,2.82c-3.14,5.24-16.75,6.28-20.94,2.1C180.64,266.07,179.57,269.8,183.24,282.27Z" transform="translate(-43.12 -50.91)"/><path class="cls-30" d="M213,209.38s0,6.74,4.33,10.25,11.15,3.23,14.11,0,5-11.75,3.19-14.37S212.07,200.29,213,209.38Z" transform="translate(-43.12 -50.91)"/><path class="cls-30" d="M250.81,235.16a1.53,1.53,0,0,0-1.79-.33c-1.89.58-13.34,2.09-16,.15-3.14-2.34-6.74-8.84-6.85-14,0,0,0-.08,0-.12s0-.1,0-.15a.88.88,0,0,0-.05-.15.65.65,0,0,0,0-.13c0-.05,0-.09-.07-.14a.75.75,0,0,0-.07-.12l-.09-.12-.09-.11-.11-.09-.12-.09-.12-.07-.13-.07-.14-.05-.14,0-.16,0-.13,0h-.07l-.13,0-.16,0-.14,0-.14.05-.13.07-.12.07-.12.09-.11.09-.09.11-.09.12a.75.75,0,0,0-.07.12l-.07.14a.65.65,0,0,0,0,.13.88.88,0,0,0-.05.15s0,.1,0,.15,0,.08,0,.12c-.11,5.19-3.71,11.69-6.85,14-2.61,1.94-14.06.43-15.95-.15a1.53,1.53,0,0,0-1.71,2.49c.66.61,6.4,1.64,11.63,1.64,3.26,0,6.32-.39,7.85-1.54,2.42-1.8,5-5.4,6.55-9.42,1.58,4,4.14,7.62,6.56,9.42,1.53,1.15,4.59,1.54,7.85,1.54,5.23,0,11-1,11.63-1.64A1.53,1.53,0,0,0,250.81,235.16Z" transform="translate(-43.12 -50.91)"/><polygon class="cls-19" points="247.95 393.63 125.46 392.58 120.23 376.88 251.09 376.88 247.95 393.63"/><path class="cls-31" d="M240,449.9s2.2-.8,2.8-6a29.51,29.51,0,0,0-6.06-20.72c-5.52-7-7.48-8.23-7.48-8.23s-.92-1.16-3.36,1.72-6.63,11.88-8.15,15.92-.27,11.56-.27,11.56l1.48,5.44s.92,1.16,1,.12-.56-4.28-.08-8.44a21.54,21.54,0,0,1,3-8.08,7.81,7.81,0,0,1,6.84-4.48c5.32-.45,10.25,11.71,10,13.79a45.34,45.34,0,0,1,.44,5.32L240,449.9" transform="translate(-43.12 -50.91)"/><path class="cls-32" d="M228.12,415.87l-.39,12.6a15.06,15.06,0,0,0-3.36,1.72c-1.16.92-2.56,3.92-4,6.92,0,0-1.87,7.16-1.07,9.36a19.9,19.9,0,0,1,.75-15.72C224.16,422.79,223.24,421.63,228.12,415.87Z" transform="translate(-43.12 -50.91)"/><path class="cls-32" d="M229.16,416c-.12,1,11.29,11.83,12.53,19.35s-1.6-4.4-3.44-6.72S229.16,416,229.16,416Z" transform="translate(-43.12 -50.91)"/><rect class="cls-32" x="125.98" y="378.3" width="5.54" height="6.32" rx="1.14" ry="1.14"/><rect class="cls-32" x="132.83" y="378.3" width="5.54" height="6.32" rx="1.14" ry="1.14"/><rect class="cls-32" x="139.67" y="378.3" width="5.54" height="6.32" rx="1.14" ry="1.14"/><rect class="cls-32" x="146.51" y="378.3" width="5.54" height="6.32" rx="1.14" ry="1.14"/><rect class="cls-32" x="153.35" y="378.3" width="5.54" height="6.32" rx="1.14" ry="1.14"/><rect class="cls-32" x="160.19" y="378.3" width="5.54" height="6.32" rx="1.14" ry="1.14"/><rect class="cls-32" x="167.03" y="378.3" width="5.54" height="6.32" rx="1.14" ry="1.14"/><rect class="cls-32" x="125.98" y="385.22" width="5.54" height="6.32" rx="1.14" ry="1.14"/><rect class="cls-32" x="132.83" y="385.22" width="5.54" height="6.32" rx="1.14" ry="1.14"/><rect class="cls-32" x="139.67" y="385.22" width="5.54" height="6.32" rx="1.14" ry="1.14"/><rect class="cls-32" x="146.51" y="385.22" width="5.54" height="6.32" rx="1.14" ry="1.14"/><rect class="cls-32" x="153.35" y="385.22" width="5.54" height="6.32" rx="1.14" ry="1.14"/><rect class="cls-32" x="160.19" y="385.22" width="5.54" height="6.32" rx="1.14" ry="1.14"/><rect class="cls-32" x="167.03" y="385.22" width="5.54" height="6.32" rx="1.14" ry="1.14"/><rect class="cls-32" x="201.36" y="378.3" width="5.54" height="6.32" rx="1.14" ry="1.14"/><rect class="cls-32" x="208.2" y="378.3" width="5.54" height="6.32" rx="1.14" ry="1.14"/><rect class="cls-32" x="215.04" y="378.3" width="5.54" height="6.32" rx="1.14" ry="1.14"/><rect class="cls-32" x="221.88" y="378.3" width="5.54" height="6.32" rx="1.14" ry="1.14"/><rect class="cls-32" x="228.73" y="378.3" width="5.54" height="6.32" rx="1.14" ry="1.14"/><rect class="cls-32" x="235.57" y="378.3" width="5.54" height="6.32" rx="1.14" ry="1.14"/><rect class="cls-32" x="242.41" y="378.3" width="5.54" height="6.32" rx="1.14" ry="1.14"/><rect class="cls-32" x="201.36" y="385.22" width="5.54" height="6.32" rx="1.14" ry="1.14"/><rect class="cls-32" x="208.2" y="385.22" width="5.54" height="6.32" rx="1.14" ry="1.14"/><rect class="cls-32" x="215.04" y="385.22" width="5.54" height="6.32" rx="1.14" ry="1.14"/><rect class="cls-32" x="221.88" y="385.22" width="5.54" height="6.32" rx="1.14" ry="1.14"/><rect class="cls-32" x="228.73" y="385.22" width="5.54" height="6.32" rx="1.14" ry="1.14"/><rect class="cls-32" x="235.57" y="385.22" width="5.54" height="6.32" rx="1.14" ry="1.14"/><rect class="cls-32" x="242.41" y="385.22" width="5.54" height="6.32" rx="1.14" ry="1.14"/><path class="cls-9" d="M301.45,450.83s1.59,4.84,5.58,4.87,7,3.08,11,3.11,8.59-4.15,15.78-6.51,13.9-9.24,14.5-13.46,1.62-7.23-1.37-10.27-7.37-4.29-6-6.09,6.39-4.77,3.8-6.6-6.58-1.87-7.37-4.29-.19-6.64,1.82-12.66-1.77-11.48-.36-13.28,3.8-6.61,2.61-10.24-4.17-6.67-2.77-8.47,1.82-12.66-.77-14.49-1.79.59-4.6,4.18-13.61,19.21-19.62,25.19-13,15-11.81,18.61l4.36,13.32-15.36-4.35c-6.59-1.87-6.19-.66-2.81,3.6s12.56,7.95,13.35,10.37,1.59,4.84-.21,5.43-2.8,3.59-.21,5.43,4.78,2.45,1.59,4.84S301.45,450.83,301.45,450.83Z" transform="translate(-43.12 -50.91)"/><path class="cls-33" d="M301.45,450.83s1.59,4.84,5.58,4.87,7,3.08,11,3.11,8.59-4.15,15.78-6.51,13.9-9.24,14.5-13.46,1.62-7.23-1.37-10.27-7.37-4.29-6-6.09,6.39-4.77,3.8-6.6-6.58-1.87-7.37-4.29-.19-6.64,1.82-12.66-1.77-11.48-.36-13.28,3.8-6.61,2.61-10.24-4.17-6.67-2.77-8.47,1.82-12.66-.77-14.49-1.79.59-4.6,4.18-13.61,19.21-19.62,25.19-13,15-11.81,18.61l4.36,13.32-15.36-4.35c-6.59-1.87-6.19-.66-2.81,3.6s12.56,7.95,13.35,10.37,1.59,4.84-.21,5.43-2.8,3.59-.21,5.43,4.78,2.45,1.59,4.84S301.45,450.83,301.45,450.83Z" transform="translate(-43.12 -50.91)"/><path class="cls-34" d="M303.22,449s1.47,4.5,5.18,4.53,6.49,2.86,10.19,2.89,8-3.86,14.67-6.05,12.91-8.59,13.47-12.51,1.5-6.71-1.28-9.54-6.85-4-5.55-5.65,6-4.44,3.54-6.14-6.11-1.73-6.85-4-.17-6.17,1.7-11.76-1.65-10.67-.35-12.34,3.54-6.14,2.44-9.52-3.88-6.2-2.58-7.87,1.69-11.76-.71-13.46-1.67.55-4.28,3.89-12.65,17.84-18.22,23.4-12.09,13.92-11,17.29l4.05,12.37-14.27-4c-6.12-1.73-5.75-.61-2.61,3.34s11.67,7.39,12.41,9.64,1.47,4.5-.2,5-2.6,3.35-.2,5.05,4.45,2.28,1.48,4.5S303.22,449,303.22,449Z" transform="translate(-43.12 -50.91)"/><path class="cls-35" d="M324.85,438.77s-3,2.22-.57,3.93,7.05-1.07,6.68-2.19S330.79,434.34,324.85,438.77Z" transform="translate(-43.12 -50.91)"/><path class="cls-35" d="M334.5,434.37s-3.54,6.14.17,6.17,4.64-2.77,3.91-5S334.5,434.37,334.5,434.37Z" transform="translate(-43.12 -50.91)"/><path class="cls-35" d="M341.55,433.3s-2.24,4.47-.2,5.05,4.28-3.89,3.91-5S344.52,431.09,341.55,433.3Z" transform="translate(-43.12 -50.91)"/><path class="cls-36" d="M304.44,444.21a4.59,4.59,0,0,0,5.38-.51c3-2.22,5.2-6.69,3.16-7.27a11,11,0,0,0-9.85,3.33C300.36,443.06,304.44,444.21,304.44,444.21Z" transform="translate(-43.12 -50.91)"/><path class="cls-35" d="M318.56,430.87s-.56,3.92,3.14,3.95,18.38-6,20.05-6.56.56-3.92-4.82-3.4S319.86,429.2,318.56,430.87Z" transform="translate(-43.12 -50.91)"/><path class="cls-37" d="M313,414s1.3-1.68.19-5.05-5-9.57.59-15.13,13.76-14.47,16.36-17.81,4.28-3.89,4.84-7.81.94-2.8-5.94,4.43-21,20.58-21.57,24.5S312.67,412.88,313,414Z" transform="translate(-43.12 -50.91)"/><path class="cls-38" d="M335.37,380.55s-2.81,8.38-6.71,13.4-5.77,10.6-4.67,14,1.84,5.62.54,7.29-2.77-2.82-4.25-7.32,1.33-12.89,3.57-17.36,9.85-9.45,10.78-12.24S335.37,380.55,335.37,380.55Z" transform="translate(-43.12 -50.91)"/><path class="cls-35" d="M296.53,414.43s7.79,1.19,10.19,2.89,2.58,7.87,2.58,7.87a36.73,36.73,0,0,0-5.55-5.65Z" transform="translate(-43.12 -50.91)"/><path class="cls-9" d="M158.34,450.83s-1.58,4.84-5.58,4.87-7,3.08-11,3.11-8.59-4.15-15.78-6.51-13.89-9.24-14.5-13.46-1.62-7.23,1.37-10.27,7.38-4.29,6-6.09-6.4-4.77-3.81-6.6,6.58-1.87,7.37-4.29.19-6.64-1.82-12.66,1.77-11.48.37-13.28-3.81-6.61-2.62-10.24,4.17-6.67,2.77-8.47-1.82-12.66.77-14.49,1.8.59,4.6,4.18,13.62,19.21,19.62,25.19,13,15,11.82,18.61l-4.36,13.32,15.35-4.35c6.59-1.87,6.19-.66,2.81,3.6s-12.56,7.95-13.35,10.37-1.59,4.84.21,5.43,2.8,3.59.21,5.43-4.78,2.45-1.58,4.84S158.34,450.83,158.34,450.83Z" transform="translate(-43.12 -50.91)"/><path class="cls-33" d="M158.34,450.83s-1.58,4.84-5.58,4.87-7,3.08-11,3.11-8.59-4.15-15.78-6.51-13.89-9.24-14.5-13.46-1.62-7.23,1.37-10.27,7.38-4.29,6-6.09-6.4-4.77-3.81-6.6,6.58-1.87,7.37-4.29.19-6.64-1.82-12.66,1.77-11.48.37-13.28-3.81-6.61-2.62-10.24,4.17-6.67,2.77-8.47-1.82-12.66.77-14.49,1.8.59,4.6,4.18,13.62,19.21,19.62,25.19,13,15,11.82,18.61l-4.36,13.32,15.35-4.35c6.59-1.87,6.19-.66,2.81,3.6s-12.56,7.95-13.35,10.37-1.59,4.84.21,5.43,2.8,3.59.21,5.43-4.78,2.45-1.58,4.84S158.34,450.83,158.34,450.83Z" transform="translate(-43.12 -50.91)"/><path class="cls-34" d="M156.57,449s-1.47,4.5-5.18,4.53-6.48,2.86-10.19,2.89-8-3.86-14.67-6.05-12.9-8.59-13.47-12.51-1.5-6.71,1.28-9.54,6.85-4,5.55-5.65-6-4.44-3.54-6.14,6.12-1.73,6.85-4,.17-6.17-1.69-11.76,1.64-10.67.34-12.34-3.54-6.14-2.43-9.52,3.88-6.2,2.57-7.87-1.69-11.76.71-13.46,1.67.55,4.28,3.89,12.65,17.84,18.23,23.4,12.08,13.92,11,17.29l-4.06,12.37,14.27-4c6.12-1.73,5.75-.61,2.61,3.34s-11.67,7.39-12.4,9.64-1.48,4.5.19,5,2.61,3.35.2,5.05-4.45,2.28-1.47,4.5S156.57,449,156.57,449Z" transform="translate(-43.12 -50.91)"/><path class="cls-35" d="M134.94,438.77s3,2.22.57,3.93-7-1.07-6.68-2.19S129,434.34,134.94,438.77Z" transform="translate(-43.12 -50.91)"/><path class="cls-35" d="M125.29,434.37s3.54,6.14-.17,6.17-4.64-2.77-3.91-5S125.29,434.37,125.29,434.37Z" transform="translate(-43.12 -50.91)"/><path class="cls-35" d="M118.24,433.3s2.24,4.47.2,5.05-4.27-3.89-3.91-5S115.27,431.09,118.24,433.3Z" transform="translate(-43.12 -50.91)"/><path class="cls-36" d="M155.36,444.21a4.59,4.59,0,0,1-5.38-.51c-3-2.22-5.21-6.69-3.17-7.27a11,11,0,0,1,9.85,3.33C159.43,443.06,155.36,444.21,155.36,444.21Z" transform="translate(-43.12 -50.91)"/><path class="cls-35" d="M141.23,430.87s.57,3.92-3.14,3.95-18.37-6-20-6.56-.57-3.92,4.81-3.4S139.93,429.2,141.23,430.87Z" transform="translate(-43.12 -50.91)"/><path class="cls-37" d="M146.76,414s-1.31-1.68-.2-5.05,5-9.57-.59-15.13S132.21,379.36,129.61,376s-4.28-3.89-4.84-7.81-.93-2.8,5.94,4.43,21,20.58,21.57,24.5S147.12,412.88,146.76,414Z" transform="translate(-43.12 -50.91)"/><path class="cls-38" d="M124.43,380.55s2.8,8.38,6.7,13.4,5.78,10.6,4.67,14-1.84,5.62-.54,7.29,2.78-2.82,4.25-7.32S138.18,395,136,390.54s-9.85-9.45-10.79-12.24S124.43,380.55,124.43,380.55Z" transform="translate(-43.12 -50.91)"/><path class="cls-35" d="M163.26,414.43s-7.79,1.19-10.19,2.89-2.58,7.87-2.58,7.87a36.73,36.73,0,0,1,5.55-5.65Z" transform="translate(-43.12 -50.91)"/><path class="cls-28" d="M118.07,96.82S97.33,109.4,91.4,111.92s-8.89,7.55-8.89,15.09v15.1c0,2.51,5.93-7.55,5.93-10.06s0-5,3-7.55,5.93,7.55-11.85,22.64S58.81,172.3,61.77,182.36,70.66,205,67.7,210s-14.82,20.13-17.78,30.19-3,30.19,3,37.74,14.82,20.12,11.85,25.16-8.89,7.54-8.89,17.61,5.93,12.58,5.93,12.58-3-12.58,0-15.1,11.85-5,8.89-15.09-11.85-27.68-8.89-32.71,17.78-20.12,20.74-22.64,3,12.58,0,20.13S76.59,283,76.59,288s14.81,17.61,20.74,20.13,23.7,5,23.7,12.58,0,12.58-8.89,12.58-14.81-5-14.81-10.07-3-5-11.85-2.51-20.75,7.54-17.78,12.58,14.81,12.57,29.63,10.06,35.56-12.58,41.48-17.61,10.93-15.22,10.93-15.22-31.29-21.17-37.69-37.69c-12.56-32.45-12.56-59.67-3.14-102.59,4.51-20.56,22-42.92,22-42.92Z" transform="translate(-43.12 -50.91)"/><path class="cls-29" d="M127,132.05s26.67,5,38.52,5,127.42,2.51,130.38,0h11.85s5.93,42.76,8.89,52.83,0,75.47,0,85.53,3,32.71,5.93,42.77,8.89,20.13,5.93,25.16-5.93,7.55-14.82,10.06-14.82,5-11.85,10.06,14.81,15.1,17.78,15.1-3-5-3-10.06,0-12.58,5.93-15.1,17.78,0,20.74-7.55,5.93-22.64,8.89-30.19,8.89-5,11.85-2.51,8.89,12.58,3,15.09-14.82,0-14.82,0-3,2.52,3,7.55,14.82,5,23.71,2.52,20.74-17.61,17.78-25.16-17.78-12.58-17.78-22.64,0-17.61-8.89-25.16-11.85-15.09-11.85-17.61,8.89,0,11.85,2.52,11.85,7.54,11.85,12.57-3,17.61,5.93,22.65,17.78,7.54,20.74-2.52,0-15.09-3-15.09c0,0,3,5-3,7.54s-20.74-2.51-14.81-10.06,14.81-10.06,5.93-20.13S369.94,210,369.94,182.36s-3-52.83-20.74-67.93c0,0-11.85-5-17.78-15.09s-11.85-20.13-41.49-32.7S254.38,49,248.45,51.54s-3,2.52-11.85,5-14.82-7.54-32.6-5-62.22,15.1-77,22.64-11.85,17.61-14.82,20.13C112.14,94.31,106.22,124.5,127,132.05Z" transform="translate(-43.12 -50.91)"/><path class="cls-28" d="M118.07,84.25s-3,15.09,3,25.15,8.89,2.52,11.86,0,14.81-2.51,20.74,2.52,8.89,7.55,17.78,5,23.7-7.55,29.63-2.52a25.92,25.92,0,0,0,23.7,5c8.89-2.52,59.27,2.51,65.19,0s8.89-7.55,11.86-2.52,11.85,5,8.89,12.58l-3,7.55s-101.73,1.25-130.87.63-61.24,1.46-64.45-22.23S118.07,84.25,118.07,84.25Z" transform="translate(-43.12 -50.91)"/><path class="cls-29" d="M132.89,114.43s3-5,5.92-5,0,7.55,3,12.58,3,7.55,0,5S129.92,119.47,132.89,114.43Z" transform="translate(-43.12 -50.91)"/><path class="cls-29" d="M144.74,111.92s0,10.06,5.93,15.09,8.88,5,5.92,0,0-7.54-3-10.06S144.74,109.4,144.74,111.92Z" transform="translate(-43.12 -50.91)"/><path class="cls-29" d="M159.55,122s0,5,5.93,7.55,11.85,0,8.89-2.52-14.82-7.54-14.82-7.54Z" transform="translate(-43.12 -50.91)"/><path class="cls-29" d="M183.26,117s-5.93,2.52-5.93,5,3,10.07,5.93,10.07S189.19,114.43,183.26,117Z" transform="translate(-43.12 -50.91)"/><path class="cls-29" d="M192.15,114.43c-3,2.52,0,7.55,3,12.58s3,7.55,5.93,2.52,3-2.52,0-7.55S195.11,111.92,192.15,114.43Z" transform="translate(-43.12 -50.91)"/><path class="cls-39" d="M328.46,94.31c0,2.51,0,10.06,3,12.58s8.89,2.51,11.85,5-14.81,2.51-17.78,2.51-5.92,0-5.92-5,3-15.09,3-17.61S328.46,94.31,328.46,94.31Z" transform="translate(-43.12 -50.91)"/><path class="cls-39" d="M215.85,132.05a6.9,6.9,0,0,0,8.89,2.51c5.93-2.51,8.89-12.58,20.75-12.58S287,132.05,287,139.59s-3,35.22,0,42.77,11.85,22.64,23.71,35.22,23.7,32.71,23.7,45.28,3,27.68-3,32.71a21.24,21.24,0,0,1-14.82,5c-3,0,8.89,10.06,20.75,2.52s17.77-12.58,17.77-20.13-11.85-30.19-11.85-40.25-23.7-35.22-35.56-45.29-8.89-17.61-8.89-27.67,17.78-30.19,5.93-40.25-14.82-17.61-29.63-20.13-35.56,0-47.41,12.58S215.85,132.05,215.85,132.05Z" transform="translate(-43.12 -50.91)"/><path class="cls-29" d="M212.89,134.56a6.9,6.9,0,0,0,8.89,2.52c5.93-2.52,8.89-12.58,20.74-12.58S284,134.56,284,142.11s-3,35.22,0,42.77,11.85,22.64,23.7,35.22,23.71,32.7,23.71,45.28,3,27.67-3,32.7a21.22,21.22,0,0,1-14.82,5c-3,0,8.89,10.06,20.74,2.51s17.78-12.58,17.78-20.12-11.85-30.19-11.85-40.26S316.6,210,304.75,200s-8.89-17.61-8.89-27.67,17.78-30.19,5.93-40.25S287,114.43,272.16,111.92s-35.56,0-47.42,12.58S212.89,134.56,212.89,134.56Z" transform="translate(-43.12 -50.91)"/></g></g></g></svg>