<svg xmlns="http://www.w3.org/2000/svg" viewBox="0 0 99.76 99.76"><defs><style>.cls-1{fill:#fff;}.cls-2{fill:#a77e49;}.cls-3{fill:#d6b18f;}.cls-4{fill:#2b102e;}</style></defs><title>driend_demo_01</title><g id="圖層_2" data-name="圖層 2"><g id="圖層_1-2" data-name="圖層 1"><circle class="cls-1" cx="49.88" cy="49.88" r="49.88"/><path class="cls-2" d="M80.63,36.22a34.66,34.66,0,0,0-1.84-3c0-.3,0-.62,0-.89a15.74,15.74,0,0,0-.11-1.82,1.6,1.6,0,0,0,.11-.52A73.36,73.36,0,0,0,77.6,14a.85.85,0,0,0,0-.17A1.77,1.77,0,0,0,76.34,12c-1.15-.4-2.45.38-3.26,1.14l-.16.16a14.16,14.16,0,0,0-1.61.91,9.78,9.78,0,0,0-2.11,2.05c-2,1.34-5.14,3.54-6.73,4.66a29.48,29.48,0,0,0-4.87-1.19,55.65,55.65,0,0,0-20,1.2c-2.08-1.47-6.89-4.84-8.23-5.62a6.91,6.91,0,0,0-1-.79,13.21,13.21,0,0,0-1.6-.91l-.17-.16c-.8-.77-2.11-1.54-3.26-1.14a1.75,1.75,0,0,0-1.21,1.77c0,.06,0,.12-.05.18a73.35,73.35,0,0,0-1.2,16,1.64,1.64,0,0,0,0,.32c-4,4.84-6.89,10.71-7.07,14.32-.29,6-4,22.41,10,34.38A22.43,22.43,0,0,0,33.67,85c5.68,1.43,27.12,2.66,34.5-1.64S80.43,75,82.63,66.71,86,46.25,80.63,36.22Z"/><ellipse class="cls-3" cx="31.46" cy="60.97" rx="4.13" ry="2.06"/><ellipse class="cls-3" cx="66.29" cy="60.97" rx="4.13" ry="2.06"/><path class="cls-1" d="M35,62.67S32.8,65,34,67s3.61,3.17,6.84,3.6,14.31.94,17.79-.6,5.48-5,4-7.28S53.82,57.54,49,57.8,37.51,59.93,35,62.67Z"/><path class="cls-4" d="M46.08,57.22a4.29,4.29,0,0,0,1.27,3,3.23,3.23,0,0,0,4.13,0c.87-.94,1.47-3.45.94-4.21S45.81,54.56,46.08,57.22Z"/><path class="cls-4" d="M58.11,64.72a.49.49,0,0,0-.58-.11c-.61.19-4.34.68-5.19,0a6.91,6.91,0,0,1-2.23-4.56v0a.43.43,0,0,0,0-.05s0,0,0,0,0,0,0,0,0,0,0-.05,0,0,0,0l0,0,0,0,0,0,0,0,0,0,0,0h0l-.05,0h-.21l0,0h0l0,0,0,0,0,0,0,0,0,0,0,0a.08.08,0,0,1,0,0s0,0,0,.05,0,0,0,0,0,0,0,0a.11.11,0,0,1,0,.05v0a6.91,6.91,0,0,1-2.23,4.56c-.85.63-4.57.14-5.19,0a.49.49,0,0,0-.55.81,11,11,0,0,0,3.78.54,4.68,4.68,0,0,0,2.55-.51,7.33,7.33,0,0,0,2.14-3.06,7.23,7.23,0,0,0,2.13,3.06A4.68,4.68,0,0,0,54.3,66a11.15,11.15,0,0,0,3.79-.54A.49.49,0,0,0,58.11,64.72Z"/><circle class="cls-1" cx="32.66" cy="50.46" r="8.22"/><circle class="cls-4" cx="32.66" cy="50.46" r="5.17"/><path class="cls-4" d="M20.27,42.28s.65,2.61,2,2.29S34.64,40,35.62,39,34,34.77,34,34.77,20.6,41,20.27,41.3,20.27,42.28,20.27,42.28Z"/><circle class="cls-1" cx="63.28" cy="50.46" r="8.22"/><circle class="cls-4" cx="63.28" cy="50.46" r="5.17"/><path class="cls-4" d="M75.66,42.28s-.65,2.61-2,2.29S61.3,40,60.32,39,62,34.77,62,34.77,75.33,41,75.66,41.3,75.66,42.28,75.66,42.28Z"/></g></g></svg>