<svg xmlns="http://www.w3.org/2000/svg" xmlns:xlink="http://www.w3.org/1999/xlink" viewBox="0 0 99.76 106.37"><defs><style>.cls-1{fill:none;}.cls-2{fill:#fff;}.cls-3{clip-path:url(#clip-path);}.cls-4{fill:#c04670;}.cls-5{fill:#ddb0a6;}.cls-6{fill:#2b102e;}</style><clipPath id="clip-path"><circle class="cls-1" cx="49.88" cy="56.48" r="49.88"/></clipPath></defs><title>driend_demo_03</title><g id="圖層_2" data-name="圖層 2"><g id="圖層_1-2" data-name="圖層 1"><circle class="cls-2" cx="49.88" cy="56.48" r="49.88"/><g class="cls-3"><path class="cls-4" d="M82,45.93A32.65,32.65,0,0,0,61.17,29.74c1.51-5.57,3.36-12.85,3.72-16.16.62-5.75,1.71-10.1-1.24-12.28s-5.36-1.24-6,0S53.51,23.88,53.53,26a22.75,22.75,0,0,1-.26,2.8c-1.72,0-3.5,0-5.31.17a26.35,26.35,0,0,1-.29-3c0-2.15-3.43-23.48-4.09-24.73s-3.07-2.17-6,0-1.87,6.53-1.25,12.28c.37,3.38,2.3,10.92,3.82,16.54a55.07,55.07,0,0,0-9.07,2.66c-8.37,3.31-16.25,15.84-16.55,22s-4,22.68,10.14,34.8a22.81,22.81,0,0,0,9.84,5.8c5.76,1.45,27.45,2.69,34.92-1.66S81.82,85.19,84,76.8,87.47,56.08,82,45.93Z"/><path class="cls-5" d="M36.33,72.47s-2.25,2.34-1,4.33S39,80,42.27,80.44s14.47,1,18-.6,5.54-5,4-7.37-8.94-5.19-13.85-4.93S38.85,69.7,36.33,72.47Z"/><path class="cls-6" d="M47.52,67a4.32,4.32,0,0,0,1.29,3A3.26,3.26,0,0,0,53,70c.88-1,1.49-3.49.95-4.26S47.25,64.26,47.52,67Z"/><circle class="cls-2" cx="63.97" cy="61.95" r="7.82"/><circle class="cls-6" cx="63.97" cy="61.95" r="4.92"/><circle class="cls-2" cx="36" cy="61.95" r="7.82"/><circle class="cls-6" cx="36" cy="61.95" r="4.92"/></g></g></g></svg>