<svg xmlns="http://www.w3.org/2000/svg" viewBox="0 0 99.76 99.76"><defs><style>.cls-1{fill:#fff;}.cls-2{fill:#1e71a9;}.cls-3{fill:#2b102e;}.cls-4{fill:#d6b18f;}</style></defs><title>driend_demo_02</title><g id="圖層_2" data-name="圖層 2"><g id="圖層_1-2" data-name="圖層 1"><circle class="cls-1" cx="49.88" cy="49.88" r="49.88"/><path class="cls-2" d="M25.14,76.79a23.56,23.56,0,0,0,10.16,6c5.94,1.5,28.34,2.78,36.05-1.71S84.17,72.3,86.46,63.64,90,42.25,84.37,31.77A33.54,33.54,0,0,0,60.31,14.56c-8.44-1.28-19.9.21-28.55,3.63S15,34.55,14.67,40.86,10.51,64.28,25.14,76.79Z"/><path class="cls-3" d="M29.93,28.12S12.41,72.85,7,64.78,12.82,32,17.22,28.12,39.45,6.62,29.93,28.12Z"/><path class="cls-3" d="M72.36,28.12s17.52,44.73,23,36.66S89.47,32,85.07,28.12,62.84,6.62,72.36,28.12Z"/><circle class="cls-3" cx="33.09" cy="48.35" r="4.31"/><circle class="cls-3" cx="69.15" cy="48.35" r="4.31"/><ellipse class="cls-4" cx="33" cy="55.31" rx="4.31" ry="2.16"/><ellipse class="cls-4" cx="69.38" cy="55.31" rx="4.31" ry="2.16"/><path class="cls-1" d="M36.72,57.09s-2.32,2.41-1,4.47,3.77,3.31,7.15,3.75,14.95,1,18.59-.62,5.72-5.19,4.16-7.6-9.23-5.37-14.3-5.1S39.32,54.23,36.72,57.09Z"/><path class="cls-3" d="M48.27,51.39a4.49,4.49,0,0,0,1.33,3.15,3.39,3.39,0,0,0,4.32,0c.9-1,1.53-3.6,1-4.41S48,48.61,48.27,51.39Z"/><path class="cls-3" d="M60.84,59.23a.51.51,0,0,0-.6-.12c-.65.2-4.54.71-5.43,0a7.16,7.16,0,0,1-2.33-4.76v0a.11.11,0,0,0,0-.05.43.43,0,0,1,0,0s0,0,0,0,0,0,0-.05,0,0,0,0l0,0s0,0,0,0l0,0,0,0,0,0,0,0h-.05l0,0h-.21l0,0h-.05l0,0,0,0,0,0,0,0,0,0,0,0,0,0,0,.05s0,0,0,0a1865820318486.43,1865820318486.43,0,0,0,0,.1v0a7.16,7.16,0,0,1-2.33,4.76c-.89.67-4.78.15-5.42,0a.52.52,0,0,0-.58.85,11.51,11.51,0,0,0,4,.56A5,5,0,0,0,49.74,60,7.7,7.7,0,0,0,52,56.79,7.6,7.6,0,0,0,54.19,60a5,5,0,0,0,2.67.53,11.64,11.64,0,0,0,4-.56A.51.51,0,0,0,60.84,59.23Z"/></g></g></svg>