<svg xmlns="http://www.w3.org/2000/svg" xmlns:xlink="http://www.w3.org/1999/xlink" viewBox="0 0 22.7 25.49"><defs><style>.cls-1,.cls-2{fill:none;stroke-miterlimit:10;}.cls-1{stroke:#e25974;}.cls-2{stroke:#eff3f0;}.cls-3{clip-path:url(#clip-path);}.cls-4{fill:#f05c79;}</style><clipPath id="clip-path"><circle class="cls-1" cx="11.42" cy="11.32" r="10.78"/></clipPath></defs><title>head_member_icon</title><g id="圖層_2" data-name="圖層 2"><g id="圖層_1-2" data-name="圖層 1"><circle class="cls-2" cx="11.28" cy="11.28" r="10.78"/><g class="cls-3"><path class="cls-4" d="M16.42,13.83a6.48,6.48,0,0,0-.3-4.55,4.77,4.77,0,0,0-3.44-2.46,8.61,8.61,0,0,0-4.07.52,4.73,4.73,0,0,0-2.44,3.24c0,.9-.6,3.34,1.49,5.13A3.42,3.42,0,0,0,9,16.52c-.29.51-1,1.82-1.26,2.25a8.34,8.34,0,0,0-.94,2.3c-.12.82-.09,1,0,1.11s.37.35.54.34.32-.22.38-.35.11-.3.11-.3A.81.81,0,0,0,8,22c.05,0,.2,0,.25-.12a.21.21,0,0,0-.08-.27c-.07-.05-.13-.08-.15-.12s0-.11.06-.19.3-.48.3-.48,0,0,0,.08a4.08,4.08,0,0,0,.32.72c.06.08.11.09.11.17s-.12,2.15-.1,2.36,0,.14-.13.18A1.46,1.46,0,0,0,8,25c-.19.43.42.48.46.5a12.8,12.8,0,0,0,1.52,0c.18-.06.6-.2.65-.54s.21-2.14.21-2.14,0-.1.09-.09h1.16a.07.07,0,0,1,.06.07s.17,2.08.18,2.15a.78.78,0,0,0,.52.5,8.63,8.63,0,0,0,1.68.06s.41-.12.41-.33a.58.58,0,0,0-.14-.46,4.22,4.22,0,0,0-.57-.44.55.55,0,0,1,0-.18c0-.14-.08-2.4-.08-2.4a3.6,3.6,0,0,0,.2-.35,3.2,3.2,0,0,0,.22-.56c0-.08.05-.07.07,0a6.66,6.66,0,0,0,.39.59s.08.07,0,.1-.25.19-.26.27,0,.24.19.24.23-.09.23-.09,0,0,.06.08.24.56.4.59a.76.76,0,0,0,.64-.38,2.11,2.11,0,0,0,0-.9,13.56,13.56,0,0,0-1.26-3,10.71,10.71,0,0,1-.95-1.76l0-.07.14-.07A3.92,3.92,0,0,0,16.42,13.83Z"/></g><circle class="cls-1" cx="11.42" cy="11.32" r="10.78"/></g></g></svg>