<svg xmlns="http://www.w3.org/2000/svg" xmlns:xlink="http://www.w3.org/1999/xlink" viewBox="0 0 171.75 106.46"><defs><style>.cls-1{fill:none;}.cls-2,.cls-3,.cls-5{fill:#fff;}.cls-2,.cls-3{stroke:#fff;}.cls-11,.cls-2,.cls-3,.cls-4{stroke-miterlimit:10;}.cls-2{stroke-width:12px;}.cls-3{stroke-width:11px;}.cls-4{stroke:#040000;stroke-width:3px;}.cls-6{clip-path:url(#clip-path);}.cls-7{fill:#80685d;}.cls-8{fill:#fcc6d0;}.cls-9{fill:#2c112f;}.cls-10{fill:#e94e58;}.cls-11{fill:#f05c79;stroke:#000;}</style><clipPath id="clip-path"><path class="cls-1" d="M139,12,102.57,6.27C88.4,4,74.5,16.23,71.69,33.4h0c-2.82,17.16,6.48,33,20.66,35.28l-.88-.16c.3,3.25-.4,6.11-.1,9.35.26,2.74,2.34,4.23,4.37,2.34,2.94-2.73,4.28-6.82,6.55-10.21l26.43,4.44c14.18,2.24,28.08-10,30.89-27.13h0C162.42,30.14,153.13,14.26,139,12Z"/></clipPath></defs><title>資產 31</title><g id="圖層_2" data-name="圖層 2"><g id="圖層_1-2" data-name="圖層 1"><path class="cls-2" d="M139,12,102.57,6.27C88.4,4,74.5,16.23,71.69,33.4h0c-2.82,17.16,6.48,33,20.66,35.28l-.88-.16c.3,3.25-.4,6.11-.1,9.35.26,2.74,2.34,4.23,4.37,2.34,2.94-2.73,4.28-6.82,6.55-10.21l26.43,4.44c14.18,2.24,28.08-10,30.89-27.13h0C162.42,30.14,153.13,14.26,139,12Z"/><path class="cls-3" d="M7.61,75.76a14.22,14.22,0,0,0,3.82-1.33c1.67-.93,4.27-3,4.47-4.72s-1.5-2.71-2-2.43-4,3.7-4.38,3.87-1-.53-.43-1.47,2.38-3.45,2.63-4.72-1.48-2.66-2.14-2a22.64,22.64,0,0,0-4.09,9.84A2.47,2.47,0,0,0,7.61,75.76Z"/><path class="cls-3" d="M14,90.59s0,1.07.54,1.47,1.39-.51,1.56-2.69.81-8.74-2.76-10.52a3.75,3.75,0,0,0-5.47,2c-.06.51-.23,6.56,1.75,9.11,0,0,1.33,1.61,1.61.17a10.39,10.39,0,0,0,0-3.23,3.61,3.61,0,0,1,2.1-.42C14.69,86.48,14,90.59,14,90.59Z"/><path class="cls-3" d="M23.27,72.68s3.71-2.06,4-2.55.11-1.69-1.56-1.47a4.65,4.65,0,0,0-2.1,1.14c-1,.93-1.09-.06-1.09-.06a2.27,2.27,0,0,0-2.62-.82c-1.93.42-1.64,1-1.64,1.13S19,76.39,20,77.29s3.77.77,4.86,0,3.14-3,3.37-4.13-.46-1.55-1.53-1.13-2.73,1.67-3,1.73S22.4,73.73,23.27,72.68Z"/><path class="cls-3" d="M25.31,88.49c.09,0,4-.75,6-3.26,0,0,1.41-1.52.8-2.11s-1.12-1.3-2-.91-2.59,2.35-3.4,2.78-2.42.79-2.47-.26.74-1.5,2.07-2.15,3.74-2.09,3.8-2.8-1-1.91-1.47-1.86-4.43,2.54-5.1,2.43S23,80,22.46,79.47a.91.91,0,0,0-1.47.28c-.11.43-.08,6.48,1.41,7.75A3.66,3.66,0,0,0,25.31,88.49Z"/><path class="cls-3" d="M9.06,97a12.84,12.84,0,0,0,2.59,3.52c1.21.85,2.25.59,3.28-1.48,0,0-1.34-3.82-2.59-4.84a2.5,2.5,0,0,0-3.28.17A2.78,2.78,0,0,0,9.06,97Z"/><path class="cls-3" d="M16.92,96.89s.73,2.55,1.6,2.8,2.29-1.4,2-4.28-.62-3.69-1.8-3.69-2.87,1.13-3,1.92S16.92,96.89,16.92,96.89Z"/><path class="cls-3" d="M22.49,94.6a9.26,9.26,0,0,0,.43,3.78,1.39,1.39,0,0,0,2.64,0c.47-1.06.77-5.47,0-6.41s-2.29-.42-2.81.68A2.91,2.91,0,0,0,22.49,94.6Z"/><path class="cls-3" d="M27.76,90.7s-.52-1,.82-1.74,2.07-.76,2.33.38-.26,7.43-.86,8.15-1.8,1.78-2.39.34S27.76,90.7,27.76,90.7Z"/><path class="cls-3" d="M41.84,73.61S58.07,68,58.76,67.16s1.33-2.48.46-2.88-3.28,1.13-5.12,1.81-4.55,1.64-5.53.06-1-2.62-3.57-1.93-.69,3-.52,3.57.87.9,0,1.47S39.36,71,38.67,71.75s-1.61.73-1.5,4S38.32,99.24,39,100s3.8.17,3.92-1-1.27-13.46-1.32-14.76c0,0-1.27-6.68-.87-8.26S41.09,73.87,41.84,73.61Z"/><path class="cls-3" d="M45.18,81.36s-1.85.68-2.54,0-.63-2,0-2.26,2.82-.79,2.82-.79-.8-2.94,0-3.51,1.67-.68,1.85,0L47.68,77s0,.62,1,.42,7.05-.93,7.45-.93.78-.08.81-.79a28.25,28.25,0,0,1-.2-3.17c.17-.37.69-.34,1.53,0s1,1.92,1.12,2.6.2,1.25.69,1.19,2.24-.06,2.5.85.15,1.24-.34,1.47-1.82.17-2.1.48S61.48,92,61.53,92.78s.47,2.2-.09,2.93a1.21,1.21,0,0,1-2.2-.6c-.26-1.4-2-15.23-2-15.23a2.37,2.37,0,0,0-1.4-.13c-1.06.11-6.76.6-6.76.6s-.39-.47-.26.76,1.81,15.83,1.64,16.51-2.29,2.24-2.72.72-1.81-17.23-1.81-17.23S45.71,80.81,45.18,81.36Z"/><path class="cls-3" d="M43.52,85.14s0,7,.35,8,1,1.27,1.55.93.22-7.89,0-8.27S43.87,84,43.52,85.14Z"/><path class="cls-3" d="M51.55,83.87s.17,4.37.61,5.09,1.34.4,2,.5,1.38,1.45.77,2.05a3.87,3.87,0,0,1-2.89.55c-.52-.21-1.08,0-1.43-1.91a48.66,48.66,0,0,1-.56-5.94C50.13,83.78,50.69,82.81,51.55,83.87Z"/><path class="cls-3" d="M55.2,83.39s.76,8.38,1,8.75,1.85.85,1.68-1.23-.56-7.28-.82-7.69S55.6,82.19,55.2,83.39Z"/><path class="cls-3" d="M61,82.69s.69,7,1.12,8,2.94.34,4.54,0,2.16-.89,1.81-1.53A1,1,0,0,0,67,88.52c-.82.23-3,1.17-3.32,0s-.91-5.65-1.21-5.83S60.92,81.82,61,82.69Z"/><path class="cls-3" d="M79.15,74.29s4.66-.05,5.52-1a1.74,1.74,0,0,0-.4-2.71c-.81-.28-7,.34-7,.34s-.23-3.57-1-4-3.51-.39-3.4,1.13.46,3.4.46,3.4.34.45-.46.56a45.13,45.13,0,0,0-4.78,1,2.2,2.2,0,0,0-1,2.09c.23.79.52,1.24,1.53,1.07s4.75-.68,4.75-.68,1.15-.26,1.27.72.92,4.83.92,4.83.23.56-.75.9S71.32,82.55,71,83s-1,2.09.4,2.26a56.35,56.35,0,0,0,9.91-1.08c1.78-.45,2.53-1.41,1.78-2.49s-3.91-.28-3.91-.28-.75.51-.93-1.64-.51-4.69-.51-4.69S77.88,74.34,79.15,74.29Z"/><path class="cls-3" d="M72.24,90.87a12.9,12.9,0,0,0,.4,4.41c.63,1.93,2.07,4,3.68,4.41s6.11-.62,7-4-.4-7.24-1.44-7.64-5.81-.79-8.06.79A3.75,3.75,0,0,0,72.24,90.87Z"/><path class="cls-4" d="M7.61,76.27a14.63,14.63,0,0,0,3.82-1.33c1.67-.93,4.27-3,4.47-4.72s-1.5-2.72-2-2.44-4,3.71-4.38,3.88-1-.54-.43-1.47,2.38-3.45,2.63-4.73-1.48-2.65-2.14-2A22.58,22.58,0,0,0,5.53,73.3,2.47,2.47,0,0,0,7.61,76.27Z"/><path class="cls-4" d="M14,91.09s0,1.08.54,1.47,1.39-.51,1.56-2.68.81-8.75-2.76-10.53a3.76,3.76,0,0,0-5.47,2c-.06.51-.23,6.57,1.75,9.11,0,0,1.33,1.62,1.61.17a10.33,10.33,0,0,0,0-3.22,3.65,3.65,0,0,1,2.1-.43C14.69,87,14,91.09,14,91.09Z"/><path class="cls-4" d="M23.27,73.19a30,30,0,0,0,4-2.55c.29-.48.11-1.7-1.56-1.47a4.69,4.69,0,0,0-2.1,1.13c-1,.93-1.09-.06-1.09-.06a2.28,2.28,0,0,0-2.62-.82c-1.93.43-1.64,1-1.64,1.14S19,76.89,20,77.8s3.77.76,4.86,0,3.14-3,3.37-4.13-.46-1.56-1.53-1.13-2.73,1.66-3,1.72S22.4,74.23,23.27,73.19Z"/><path class="cls-4" d="M25.31,89c.09,0,4-.75,6-3.26,0,0,1.41-1.52.8-2.12s-1.12-1.3-2-.9-2.59,2.35-3.4,2.77-2.42.79-2.47-.25.74-1.5,2.07-2.15,3.74-2.1,3.8-2.8-1-1.92-1.47-1.87-4.43,2.55-5.1,2.43S23,80.51,22.46,80a.91.91,0,0,0-1.47.28c-.11.42-.08,6.48,1.41,7.75A3.71,3.71,0,0,0,25.31,89Z"/><path class="cls-4" d="M9.06,97.48A12.84,12.84,0,0,0,11.65,101c1.21.85,2.25.59,3.28-1.49,0,0-1.34-3.82-2.59-4.84a2.52,2.52,0,0,0-3.28.17A2.78,2.78,0,0,0,9.06,97.48Z"/><path class="cls-4" d="M16.92,97.4s.73,2.55,1.6,2.8,2.29-1.4,2-4.29-.62-3.69-1.8-3.69-2.87,1.13-3,1.92S16.92,97.4,16.92,97.4Z"/><path class="cls-4" d="M22.49,95.11a9.21,9.21,0,0,0,.43,3.77,1.39,1.39,0,0,0,2.64,0c.47-1.06.77-5.47,0-6.4s-2.29-.43-2.81.68A2.91,2.91,0,0,0,22.49,95.11Z"/><path class="cls-4" d="M27.76,91.21s-.52-1,.82-1.74,2.07-.77,2.33.38-.26,7.42-.86,8.14-1.8,1.79-2.39.34S27.76,91.21,27.76,91.21Z"/><path class="cls-4" d="M41.84,74.12s16.23-5.6,16.92-6.45,1.33-2.49.46-2.88-3.28,1.13-5.12,1.81-4.55,1.64-5.53.05S47.54,64,45,64.72s-.69,3-.52,3.57.87.91,0,1.47-5.12,1.76-5.81,2.49-1.61.74-1.5,4S38.32,99.75,39,100.54s3.8.17,3.92-1-1.27-13.47-1.32-14.77c0,0-1.27-6.67-.87-8.26S41.09,74.38,41.84,74.12Z"/><path class="cls-4" d="M45.18,81.87s-1.85.68-2.54,0-.63-2,0-2.26,2.82-.79,2.82-.79-.8-2.95,0-3.51,1.67-.68,1.85,0l.37,2.18s0,.62,1,.42S55.71,77,56.11,77s.78-.09.81-.8a28.09,28.09,0,0,1-.2-3.16c.17-.37.69-.34,1.53,0s1,1.92,1.12,2.6.2,1.24.69,1.19,2.24-.06,2.5.85.15,1.24-.34,1.47-1.82.17-2.1.48,1.36,12.91,1.41,13.67.47,2.21-.09,2.93a1.21,1.21,0,0,1-2.2-.59c-.26-1.4-2-15.23-2-15.23a2.26,2.26,0,0,0-1.4-.13l-6.76.59s-.39-.46-.26.77,1.81,15.82,1.64,16.5-2.29,2.25-2.72.72-1.81-17.22-1.81-17.22S45.71,81.32,45.18,81.87Z"/><path class="cls-4" d="M43.52,85.65s0,7,.35,8,1,1.27,1.55.93.22-7.89,0-8.27S43.87,84.46,43.52,85.65Z"/><path class="cls-4" d="M51.55,84.37s.17,4.37.61,5.1,1.34.4,2,.49S55.57,91.42,55,92a3.83,3.83,0,0,1-2.89.55c-.52-.21-1.08,0-1.43-1.91a48.49,48.49,0,0,1-.56-5.94C50.13,84.29,50.69,83.31,51.55,84.37Z"/><path class="cls-4" d="M55.2,83.9s.76,8.37,1,8.75,1.85.85,1.68-1.23-.56-7.29-.82-7.7S55.6,82.7,55.2,83.9Z"/><path class="cls-4" d="M61,83.2s.69,7,1.12,8,2.94.34,4.54,0,2.16-.89,1.81-1.52A1,1,0,0,0,67,89c-.82.22-3,1.17-3.32,0s-.91-5.66-1.21-5.83S60.92,82.32,61,83.2Z"/><path class="cls-4" d="M79.15,74.8s4.66-.06,5.52-1a1.75,1.75,0,0,0-.4-2.72c-.81-.28-7,.34-7,.34s-.23-3.56-1-4-3.51-.4-3.4,1.13.46,3.39.46,3.39.34.46-.46.57a42.86,42.86,0,0,0-4.78,1,2.21,2.21,0,0,0-1,2.09c.23.8.52,1.25,1.53,1.08s4.75-.68,4.75-.68,1.15-.27,1.27.71.92,4.83.92,4.83.23.57-.75.91-3.45.68-3.8,1.13-1,2.09.4,2.26a57.27,57.27,0,0,0,9.91-1.07c1.78-.45,2.53-1.42,1.78-2.49s-3.91-.28-3.91-.28-.75.51-.93-1.64-.51-4.7-.51-4.7S77.88,74.85,79.15,74.8Z"/><path class="cls-4" d="M72.24,91.37a13,13,0,0,0,.4,4.42c.63,1.92,2.07,4,3.68,4.41s6.11-.62,7-4-.4-7.24-1.44-7.63-5.81-.8-8.06.79A3.76,3.76,0,0,0,72.24,91.37Z"/><path class="cls-5" d="M139,12,102.57,6.27C88.4,4,74.5,16.23,71.69,33.4h0c-2.82,17.16,6.48,33,20.66,35.28l-.88-.16c.3,3.25-.4,6.11-.1,9.35.26,2.74,2.34,4.23,4.37,2.34,2.94-2.73,4.28-6.82,6.55-10.21l26.43,4.44c14.18,2.24,28.08-10,30.89-27.13h0C162.42,30.14,153.13,14.26,139,12Z"/><g class="cls-6"><path class="cls-7" d="M165.88,34.43a25,25,0,0,0-3-3.08l.11-.06a4.42,4.42,0,0,0,2.8-4.1c0-2.43-1.46-5.52-4.25-5.55-1.72-.72-3.82.13-5.21,1.2a5.67,5.67,0,0,0-.84.78A3.29,3.29,0,0,0,154.36,26a4.43,4.43,0,0,0-.06.51,26.18,26.18,0,0,0-8.87-1.4,48.25,48.25,0,0,0-21.16,6.34l-.45.29a3.45,3.45,0,0,0-.24-.47,3.35,3.35,0,0,0-1.87-1.82,5.48,5.48,0,0,0-1-.46c-1.68-.54-4-.64-5.32.6-2.62,1-2.93,4.35-2.09,6.64a4.49,4.49,0,0,0,4,2.93l.1,0c-2.22,4-3.47,8.36-3.15,10.93.57,4.62-.15,17.53,12.55,24.71a18.36,18.36,0,0,0,8.47,3c4.69.31,21.83-1.66,27.09-5.92s8.59-8,9.21-14.6S171.49,41.31,165.88,34.43Z"/><path class="cls-8" d="M115.38,50A24.85,24.85,0,0,0,102.89,34.1a109.63,109.63,0,0,0,5.91-11.19c1.58-4.11,3.24-7.11,1.45-9.27s-3.78-1.94-4.51-1.15-7.45,15.84-7.86,17.43a18.2,18.2,0,0,1-.73,2c-1.29-.34-2.63-.64-4-.88a17.55,17.55,0,0,1,.36-2.24c.43-1.58,2-17.94,1.71-19S93.34,7.64,90.7,8.68,88,13.13,87.4,17.47a112.52,112.52,0,0,0-.34,12.91,43.89,43.89,0,0,0-7.31.23c-6.92.85-15.24,8.57-16.65,13S55.69,59.55,64,71.17a17.44,17.44,0,0,0,6.25,6.14c4,2.16,20,7.2,26.48,5.42s10.94-3.89,14.23-9.65S117.5,58.49,115.38,50Z"/><path class="cls-5" d="M135.36,58.94s-1.24,2.21.13,3.45,3.45,1.67,6,1.33,11.25-2.2,13.63-4.08,3.2-4.88,1.57-6.33-7.9-2.1-11.59-.92S136.72,56.35,135.36,58.94Z"/><path class="cls-9" d="M142.78,52.54a3.38,3.38,0,0,0,1.6,2,2.62,2.62,0,0,0,3.2-.84c.48-.9.43-2.92-.15-3.4S142,50.57,142.78,52.54Z"/><ellipse class="cls-5" cx="134.54" cy="49.92" rx="6.19" ry="6.08"/><ellipse class="cls-5" cx="152.68" cy="44.89" rx="6.19" ry="6.08"/><ellipse class="cls-9" cx="136.22" cy="49.42" rx="3.3" ry="3.24"/><ellipse class="cls-9" cx="151.31" cy="45.69" rx="3.3" ry="3.24"/><path class="cls-9" d="M151.19,34.8s-6.93,5.32-6.66,7.25,14.95-6.69,14.09-8S151.19,34.8,151.19,34.8Z"/><path class="cls-9" d="M130.11,40.36s8.71,1.2,9.46,3-16.34,1.56-16.25,0S130.11,40.36,130.11,40.36Z"/><ellipse class="cls-9" cx="79.33" cy="46.03" rx="3.1" ry="3.04"/><ellipse class="cls-9" cx="103.29" cy="55.64" rx="3.1" ry="3.04"/><ellipse class="cls-10" cx="77.38" cy="50.55" rx="1.52" ry="3.09" transform="translate(1.88 103.86) rotate(-68.38)"/><ellipse class="cls-10" cx="101.56" cy="60.24" rx="1.52" ry="3.09" transform="matrix(0.37, -0.93, 0.93, 0.37, 8.13, 132.46)"/><path class="cls-5" d="M79.37,52.7s-2.19,1-1.89,2.65,1.61,3.16,3.73,4.35,9.67,4.63,12.52,4.55,5.21-1.87,4.82-3.86-4.67-6-8.11-7.13S81.88,51.53,79.37,52.7Z"/><path class="cls-9" d="M88.59,52.06a3.12,3.12,0,0,0,0,2.41,2.46,2.46,0,0,0,2.87,1.15c.87-.4,2-1.94,1.84-2.62S89.16,50.17,88.59,52.06Z"/><path class="cls-9" d="M94.82,60.52a.37.37,0,0,0-.37-.23c-.48,0-3.21-.75-3.62-1.41a5,5,0,0,1-.25-3.74v0a.08.08,0,0,0,0,0s0,0,0,0V55a74924413361.69,74924413361.69,0,0,0,0-.06.06.06,0,0,0,0,0v0l0,0,0,0,0,0,0,0,0,0,0,0h-.36l0,0,0,0,0,0,0,0,0,0,0,0v0a5.15,5.15,0,0,1-2.84,2.49c-.77.2-3.22-1.18-3.59-1.48a.4.4,0,0,0-.43-.09.36.36,0,0,0-.18.49,8.34,8.34,0,0,0,2.47,1.42,3.75,3.75,0,0,0,1.92.37,5.48,5.48,0,0,0,2.34-1.5,5.37,5.37,0,0,0,.61,2.68,3.65,3.65,0,0,0,1.63,1.06A8.45,8.45,0,0,0,94.6,61,.36.36,0,0,0,94.82,60.52Z"/></g><path class="cls-11" d="M8.63,74.25a14.64,14.64,0,0,0,3.83-1.33c1.67-.94,4.26-3,4.47-4.73s-1.5-2.71-2-2.43-4,3.71-4.38,3.88-1-.54-.43-1.47,2.38-3.46,2.63-4.73-1.48-2.66-2.14-2a22.64,22.64,0,0,0-4.09,9.85A2.47,2.47,0,0,0,8.63,74.25Z"/><path class="cls-11" d="M15,89.07s0,1.07.54,1.47,1.39-.51,1.56-2.69.8-8.74-2.77-10.52a3.76,3.76,0,0,0-5.47,2c0,.51-.23,6.57,1.76,9.11,0,0,1.33,1.61,1.61.17a10.19,10.19,0,0,0,0-3.22,3.71,3.71,0,0,1,2.11-.43C15.72,85,15,89.07,15,89.07Z"/><path class="cls-11" d="M24.3,71.16a29.82,29.82,0,0,0,4-2.54c.29-.48.11-1.7-1.56-1.47a4.69,4.69,0,0,0-2.1,1.13c-1,.93-1.09-.06-1.09-.06a2.28,2.28,0,0,0-2.62-.82c-1.93.43-1.64,1-1.64,1.13S20,74.87,21,75.78s3.78.76,4.87,0,3.14-3,3.37-4.13-.46-1.56-1.53-1.14-2.73,1.67-3,1.73S23.43,72.21,24.3,71.16Z"/><path class="cls-11" d="M26.34,87c.09,0,4-.76,6-3.26,0,0,1.41-1.52.8-2.12s-1.12-1.3-2-.9-2.59,2.34-3.4,2.77-2.42.79-2.48-.26.75-1.49,2.08-2.15,3.74-2.09,3.8-2.8-1-1.91-1.47-1.86-4.43,2.54-5.1,2.43-.51-.34-1.09-.88a.91.91,0,0,0-1.47.29c-.11.42-.09,6.47,1.41,7.75A3.71,3.71,0,0,0,26.34,87Z"/><path class="cls-11" d="M10.09,95.46A12.69,12.69,0,0,0,12.68,99c1.21.85,2.24.6,3.28-1.48,0,0-1.34-3.82-2.59-4.84a2.5,2.5,0,0,0-3.28.17A2.78,2.78,0,0,0,10.09,95.46Z"/><path class="cls-11" d="M18,95.38s.73,2.54,1.6,2.8,2.28-1.4,2-4.29S21,90.2,19.78,90.2s-2.87,1.13-3,1.92S18,95.38,18,95.38Z"/><path class="cls-11" d="M23.52,93.09A9.21,9.21,0,0,0,24,96.86a1.38,1.38,0,0,0,2.63,0c.48-1.06.78-5.47,0-6.4s-2.28-.43-2.8.67A2.94,2.94,0,0,0,23.52,93.09Z"/><path class="cls-11" d="M28.79,89.18s-.52-1,.82-1.74,2.07-.76,2.33.39-.26,7.42-.86,8.14-1.8,1.78-2.39.34S28.79,89.18,28.79,89.18Z"/><path class="cls-11" d="M42.86,72.1s16.24-5.6,16.93-6.45,1.33-2.49.46-2.89S57,63.89,55.13,64.57s-4.55,1.64-5.53.06S48.56,62,46,62.7s-.69,3-.52,3.57.87.91,0,1.47-5.12,1.76-5.81,2.49-1.61.74-1.5,4S39.35,97.73,40,98.52s3.8.17,3.92-1-1.27-13.47-1.33-14.77c0,0-1.26-6.68-.86-8.26S42.12,72.35,42.86,72.1Z"/><path class="cls-11" d="M46.2,79.85s-1.84.68-2.53,0-.63-2,0-2.26,2.82-.8,2.82-.8-.8-2.94,0-3.5,1.67-.68,1.84,0l.38,2.17s0,.63,1,.43S56.74,75,57.14,75s.78-.08.81-.79a28.12,28.12,0,0,1-.2-3.17c.17-.36.69-.33,1.52,0s1,1.93,1.13,2.61.2,1.24.69,1.18,2.24,0,2.5.85.15,1.25-.34,1.47-1.82.17-2.1.49,1.36,12.91,1.41,13.67.47,2.21-.09,2.93a1.21,1.21,0,0,1-2.2-.59c-.26-1.4-2-15.24-2-15.24a2.33,2.33,0,0,0-1.4-.12l-6.76.59s-.39-.47-.26.76S51.67,95.42,51.5,96.1s-2.29,2.25-2.72.72S47,79.59,47,79.59,46.74,79.3,46.2,79.85Z"/><path class="cls-11" d="M44.55,83.62s0,7,.34,8,1,1.28,1.56.94.21-7.89,0-8.28S44.89,82.44,44.55,83.62Z"/><path class="cls-11" d="M52.58,82.35s.17,4.37.61,5.09,1.33.41,2,.5,1.39,1.46.78,2a3.87,3.87,0,0,1-2.89.55c-.52-.21-1.08,0-1.43-1.91a48.49,48.49,0,0,1-.56-5.94C51.16,82.27,51.72,81.29,52.58,82.35Z"/><path class="cls-11" d="M56.22,81.87s.77,8.38,1,8.76,1.86.84,1.69-1.23-.56-7.29-.82-7.7S56.63,80.67,56.22,81.87Z"/><path class="cls-11" d="M62,81.17s.69,7,1.12,8,2.94.34,4.53,0,2.16-.89,1.82-1.53A1.05,1.05,0,0,0,68,87c-.82.23-3,1.18-3.32,0s-.91-5.65-1.21-5.83S62,80.3,62,81.17Z"/><path class="cls-11" d="M80.17,72.78s4.67-.06,5.53-1A1.75,1.75,0,0,0,85.3,69c-.81-.28-7,.34-7,.34s-.23-3.56-1-4-3.51-.4-3.4,1.13.46,3.39.46,3.39.34.45-.46.57a42.86,42.86,0,0,0-4.78,1,2.21,2.21,0,0,0-1,2.09c.23.79.52,1.25,1.53,1.08s4.75-.68,4.75-.68,1.15-.27,1.27.71.92,4.83.92,4.83.23.57-.75.91S72.34,81,72,81.49s-1,2.09.4,2.26a57.27,57.27,0,0,0,9.91-1.07c1.78-.46,2.53-1.42,1.78-2.49s-3.92-.29-3.92-.29-.74.51-.92-1.64-.51-4.69-.51-4.69S78.91,72.83,80.17,72.78Z"/><path class="cls-11" d="M73.27,89.35a13,13,0,0,0,.4,4.42c.63,1.92,2.07,4,3.68,4.41s6.11-.62,7-4-.4-7.24-1.44-7.64-5.81-.79-8.06.8A3.76,3.76,0,0,0,73.27,89.35Z"/></g></g></svg>