<svg xmlns="http://www.w3.org/2000/svg" xmlns:xlink="http://www.w3.org/1999/xlink" viewBox="0 0 314.66 188.08"><defs><style>.cls-1,.cls-12{fill:none;}.cls-2,.cls-3,.cls-5{fill:#fff;}.cls-2,.cls-3{stroke:#fff;}.cls-11,.cls-12,.cls-2,.cls-3,.cls-4{stroke-miterlimit:10;}.cls-2{stroke-width:12px;}.cls-3{stroke-width:11px;}.cls-4{stroke:#040000;stroke-width:3px;}.cls-6{clip-path:url(#clip-path);}.cls-7{fill:#80685d;}.cls-8{fill:#fcc6d0;}.cls-9{fill:#2c112f;}.cls-10{fill:#e94e58;}.cls-11{fill:#f05c79;stroke:#000;}.cls-12{stroke:#060001;stroke-width:2px;}</style><clipPath id="clip-path"><path class="cls-1" d="M253.67,17.2,186,6.49C159.66,2.32,133.81,25,128.58,57h0c-5.23,31.92,12.06,61.45,38.42,65.62l-1.63-.3c.57,6-.75,11.36-.18,17.38.48,5.1,4.34,7.87,8.13,4.35,5.46-5.08,8-12.69,12.18-19l49.15,8.26c26.36,4.17,52.21-18.54,57.44-50.46h0C297.32,50.89,280,21.37,253.67,17.2Z"/></clipPath></defs><title>logo</title><g id="圖層_2" data-name="圖層 2"><g id="圖層_1-2" data-name="圖層 1"><path class="cls-2" d="M253.67,17.2,186,6.49C159.66,2.32,133.81,25,128.58,57h0c-5.23,31.92,12.06,61.45,38.42,65.62l-1.63-.3c.57,6-.75,11.36-.18,17.38.48,5.1,4.34,7.87,8.13,4.35,5.46-5.08,8-12.69,12.18-19l49.15,8.26c26.36,4.17,52.21-18.54,57.44-50.46h0C297.32,50.89,280,21.37,253.67,17.2Z"/><path class="cls-3" d="M9.42,135.73a26.76,26.76,0,0,0,7.12-2.47c3.1-1.73,7.92-5.63,8.29-8.78s-2.78-5-3.64-4.53-7.49,6.89-8.13,7.21-1.93-1-.81-2.74,4.42-6.41,4.89-8.78-2.75-4.94-4-3.73-6.9,10.52-7.6,18.3C5.56,130.21,4.7,135.05,9.42,135.73Z"/><path class="cls-3" d="M21.25,163.3s-.06,2,1,2.73,2.57-.94,2.9-5,1.49-16.26-5.14-19.57S10,144.15,9.84,145.1,9.42,157.3,13.11,162c0,0,2.46,3,3,.31a19.28,19.28,0,0,0-.06-6,6.76,6.76,0,0,1,3.91-.78C22.59,155.67,21.25,163.3,21.25,163.3Z"/><path class="cls-3" d="M38.54,130s6.91-3.84,7.44-4.73.21-3.16-2.89-2.74a8.67,8.67,0,0,0-3.91,2.11c-1.87,1.73-2-.11-2-.11s-1.29-2.31-4.87-1.53-3.06,1.9-3.06,2.11,1.4,11.78,3.16,13.46,7,1.43,9,0,5.84-5.57,6.26-7.68-.85-2.89-2.83-2.1-5.09,3.1-5.52,3.21S36.93,132,38.54,130Z"/><path class="cls-3" d="M42.34,159.41c.16,0,7.39-1.4,11.14-6.07,0,0,2.62-2.82,1.49-3.93s-2.08-2.42-3.69-1.68-4.82,4.36-6.32,5.15-4.49,1.48-4.6-.47,1.39-2.79,3.85-4,7-3.89,7.07-5.21-1.82-3.56-2.73-3.46-8.24,4.73-9.48,4.52-1-.64-2-1.63a1.69,1.69,0,0,0-2.73.52c-.21.79-.16,12,2.62,14.41A6.88,6.88,0,0,0,42.34,159.41Z"/><path class="cls-3" d="M12.12,175.19s2.57,5,4.82,6.55,4.17,1.1,6.1-2.77c0,0-2.49-7.1-4.82-9a4.65,4.65,0,0,0-6.1.31C11.16,171.32,11.45,174,12.12,175.19Z"/><path class="cls-3" d="M26.73,175s1.37,4.73,3,5.21,4.25-2.61,3.77-8-1.15-6.87-3.34-6.87-5.33,2.1-5.57,3.58S26.73,175,26.73,175Z"/><path class="cls-3" d="M37.09,170.77s-.4,4.26.81,7,4,2,4.9,0,1.44-10.18,0-11.91-4.26-.79-5.22,1.26A5.42,5.42,0,0,0,37.09,170.77Z"/><path class="cls-3" d="M46.89,163.51s-1-1.82,1.53-3.24,3.85-1.42,4.33.71-.48,13.81-1.6,15.15-3.34,3.32-4.44.63S46.89,163.51,46.89,163.51Z"/><path class="cls-3" d="M73.07,131.74s30.19-10.42,31.48-12,2.46-4.63.86-5.36-6.11,2.1-9.53,3.36-8.46,3.06-10.28.11S83.67,113,79,114.26s-1.29,5.59-1,6.64,1.6,1.68,0,2.74-9.53,3.26-10.82,4.62-3,1.37-2.78,7.47,2.14,43.66,3.42,45.14,7.07.31,7.28-1.79-2.35-25-2.46-27.46c0,0-2.35-12.41-1.6-15.36S71.69,132.21,73.07,131.74Z"/><path class="cls-3" d="M79.28,146.15s-3.43,1.26-4.71,0-1.18-3.79,0-4.21,5.25-1.47,5.25-1.47-1.5-5.47,0-6.52,3.1-1.27,3.42,0l.7,4.05s0,1.15,1.82.79,13.11-1.74,13.86-1.74,1.45-.16,1.5-1.47-.69-5.21-.37-5.89,1.28-.64,2.84,0,1.87,3.57,2.08,4.83.38,2.32,1.29,2.21,4.17-.1,4.66,1.58.26,2.32-.65,2.74-3.37.31-3.9.89,2.54,24,2.62,25.43.88,4.11-.16,5.45a2.26,2.26,0,0,1-4.1-1.11c-.48-2.6-3.69-28.32-3.69-28.32a4.3,4.3,0,0,0-2.61-.24c-2,.2-12.57,1.11-12.57,1.11s-.72-.87-.48,1.42,3.37,29.43,3,30.69-4.26,4.18-5.06,1.34-3.37-32-3.37-32S80.27,145.12,79.28,146.15Z"/><path class="cls-3" d="M76.2,153.17s0,13.1.64,14.91,1.93,2.37,2.9,1.74.4-14.68,0-15.39S76.84,151,76.2,153.17Z"/><path class="cls-3" d="M91.14,150.8s.32,8.13,1.12,9.47,2.49.75,3.78.93,2.57,2.7,1.44,3.81-4.41,1.42-5.38,1-2,.08-2.65-3.55a87.59,87.59,0,0,1-1-11C88.49,150.65,89.53,148.83,91.14,150.8Z"/><path class="cls-3" d="M97.91,149.92s1.42,15.57,1.9,16.28,3.45,1.57,3.13-2.3-1-13.54-1.52-14.3S98.67,147.69,97.91,149.92Z"/><path class="cls-3" d="M108.73,148.61s1.28,13,2.08,14.82,5.46.63,8.44,0,4-1.66,3.37-2.84-1.21-1.56-2.73-1.13-5.62,2.18-6.19,0S112,149,111.46,148.61,108.56,147,108.73,148.61Z"/><path class="cls-3" d="M142.45,133s8.68-.11,10.28-1.89.75-4.53-.75-5.05-13.06.63-13.06.63-.43-6.63-1.93-7.47-6.53-.74-6.31,2.1.85,6.31.85,6.31.63.85-.86,1.06a82.3,82.3,0,0,0-8.88,1.78c-.86.42-2.25,2.42-1.82,3.9s1,2.31,2.83,2,8.84-1.27,8.84-1.27,2.14-.5,2.35,1.33,1.72,9,1.72,9,.43,1.06-1.39,1.69-6.43,1.26-7.07,2.1-1.93,3.89.75,4.21,15.1-1.16,18.41-2,4.72-2.63,3.32-4.63-7.28-.53-7.28-.53-1.39.95-1.71-3.05-1-8.73-1-8.73S140.1,133.1,142.45,133Z"/><path class="cls-3" d="M129.6,163.82a24.17,24.17,0,0,0,.75,8.21c1.18,3.58,3.86,7.47,6.86,8.21s11.35-1.16,12.95-7.47-.75-13.47-2.67-14.21-10.82-1.47-15,1.48A7.07,7.07,0,0,0,129.6,163.82Z"/><path class="cls-4" d="M9.42,136.67a26.76,26.76,0,0,0,7.12-2.47c3.1-1.73,7.92-5.63,8.29-8.78s-2.78-5-3.64-4.53-7.49,6.89-8.13,7.21-1.93-1-.81-2.74,4.42-6.41,4.89-8.78-2.75-4.94-4-3.73-6.9,10.52-7.6,18.3C5.56,131.15,4.7,136,9.42,136.67Z"/><path class="cls-4" d="M21.25,164.24s-.06,2,1,2.73,2.57-.94,2.9-5,1.49-16.26-5.14-19.57S10,145.09,9.84,146s-.42,12.2,3.27,16.94c0,0,2.46,3,3,.31a19.28,19.28,0,0,0-.06-6,6.76,6.76,0,0,1,3.91-.78C22.59,156.61,21.25,164.24,21.25,164.24Z"/><path class="cls-4" d="M38.54,130.94s6.91-3.84,7.44-4.73.21-3.16-2.89-2.74a8.67,8.67,0,0,0-3.91,2.11c-1.87,1.73-2-.11-2-.11s-1.29-2.31-4.87-1.53-3.06,1.9-3.06,2.11,1.4,11.78,3.16,13.46,7,1.43,9,0,5.84-5.57,6.26-7.68-.85-2.89-2.83-2.1-5.09,3.1-5.52,3.21S36.93,132.89,38.54,130.94Z"/><path class="cls-4" d="M42.34,160.35c.16,0,7.39-1.4,11.14-6.07,0,0,2.62-2.82,1.49-3.93s-2.08-2.42-3.69-1.68S46.46,153,45,153.82s-4.49,1.48-4.6-.47,1.39-2.79,3.85-4,7-3.89,7.07-5.21-1.82-3.56-2.73-3.46-8.24,4.73-9.48,4.52-1-.64-2-1.63a1.69,1.69,0,0,0-2.73.52c-.21.79-.16,12,2.62,14.41A6.88,6.88,0,0,0,42.34,160.35Z"/><path class="cls-4" d="M12.12,176.13s2.57,5,4.82,6.55,4.17,1.1,6.1-2.77c0,0-2.49-7.1-4.82-9a4.65,4.65,0,0,0-6.1.31C11.16,172.26,11.45,174.91,12.12,176.13Z"/><path class="cls-4" d="M26.73,176s1.37,4.73,3,5.21,4.25-2.61,3.77-8-1.15-6.87-3.34-6.87-5.33,2.1-5.57,3.58S26.73,176,26.73,176Z"/><path class="cls-4" d="M37.09,171.71s-.4,4.26.81,7,4,2,4.9,0,1.44-10.18,0-11.91-4.26-.79-5.22,1.26A5.42,5.42,0,0,0,37.09,171.71Z"/><path class="cls-4" d="M46.89,164.45s-1-1.82,1.53-3.24,3.85-1.42,4.33.71-.48,13.81-1.6,15.15-3.34,3.32-4.44.63S46.89,164.45,46.89,164.45Z"/><path class="cls-4" d="M73.07,132.68s30.19-10.42,31.48-12,2.46-4.63.86-5.36-6.11,2.1-9.53,3.36-8.46,3.06-10.28.11-1.93-4.87-6.64-3.59-1.29,5.59-1,6.64,1.6,1.68,0,2.74-9.53,3.26-10.82,4.62-3,1.37-2.78,7.47,2.14,43.66,3.42,45.14,7.07.31,7.28-1.79-2.35-25-2.46-27.46c0,0-2.35-12.41-1.6-15.36S71.69,133.15,73.07,132.68Z"/><path class="cls-4" d="M79.28,147.09s-3.43,1.26-4.71,0-1.18-3.79,0-4.21,5.25-1.47,5.25-1.47-1.5-5.47,0-6.52,3.1-1.27,3.42,0l.7,4.05s0,1.15,1.82.79S98.87,138,99.62,138s1.45-.16,1.5-1.47-.69-5.21-.37-5.89,1.28-.64,2.84,0,1.87,3.57,2.08,4.83.38,2.32,1.29,2.21,4.17-.1,4.66,1.58.26,2.32-.65,2.74-3.37.31-3.9.89,2.54,24,2.62,25.43.88,4.11-.16,5.45a2.26,2.26,0,0,1-4.1-1.11c-.48-2.6-3.69-28.32-3.69-28.32a4.3,4.3,0,0,0-2.61-.24c-2,.2-12.57,1.11-12.57,1.11s-.72-.87-.48,1.42,3.37,29.43,3,30.69-4.26,4.18-5.06,1.34-3.37-32-3.37-32S80.27,146.06,79.28,147.09Z"/><path class="cls-4" d="M76.2,154.11s0,13.1.64,14.91,1.93,2.37,2.9,1.74.4-14.68,0-15.39S76.84,151.9,76.2,154.11Z"/><path class="cls-4" d="M91.14,151.75s.32,8.12,1.12,9.46,2.49.75,3.78.93,2.57,2.7,1.44,3.81-4.41,1.42-5.38,1-2,.08-2.65-3.55a87.59,87.59,0,0,1-1-11C88.49,151.59,89.53,149.77,91.14,151.75Z"/><path class="cls-4" d="M97.91,150.86s1.42,15.57,1.9,16.28,3.45,1.57,3.13-2.3-1-13.54-1.52-14.3S98.67,148.63,97.91,150.86Z"/><path class="cls-4" d="M108.73,149.55s1.28,13,2.08,14.82,5.46.63,8.44,0,4-1.66,3.37-2.84-1.21-1.56-2.73-1.13-5.62,2.18-6.19,0-1.68-10.51-2.24-10.85S108.56,147.93,108.73,149.55Z"/><path class="cls-4" d="M142.45,133.94s8.68-.11,10.28-1.89.75-4.53-.75-5.05-13.06.63-13.06.63-.43-6.63-1.93-7.47-6.53-.74-6.31,2.1.85,6.31.85,6.31.63.85-.86,1.06a82.3,82.3,0,0,0-8.88,1.78c-.86.42-2.25,2.42-1.82,3.9s1,2.31,2.83,2,8.84-1.27,8.84-1.27,2.14-.5,2.35,1.33,1.72,9,1.72,9,.43,1.06-1.39,1.69-6.43,1.26-7.07,2.1-1.93,3.89.75,4.21,15.1-1.16,18.41-2,4.72-2.63,3.32-4.63-7.28-.53-7.28-.53-1.39.95-1.71-3.05-1-8.73-1-8.73S140.1,134,142.45,133.94Z"/><path class="cls-4" d="M129.6,164.76a24.17,24.17,0,0,0,.75,8.21c1.18,3.58,3.86,7.47,6.86,8.21s11.35-1.16,12.95-7.47-.75-13.47-2.67-14.21-10.82-1.47-15,1.48A7.07,7.07,0,0,0,129.6,164.76Z"/><path class="cls-5" d="M253.67,17.2,186,6.49C159.66,2.32,133.81,25,128.58,57h0c-5.23,31.92,12.06,61.45,38.42,65.62l-1.63-.3c.57,6-.75,11.36-.18,17.38.48,5.1,4.34,7.87,8.13,4.35,5.46-5.08,8-12.69,12.18-19l49.15,8.26c26.36,4.17,52.21-18.54,57.44-50.46h0C297.32,50.89,280,21.37,253.67,17.2Z"/><g class="cls-6"><path class="cls-7" d="M303.75,58.87a45.85,45.85,0,0,0-5.58-5.72l.2-.13a8.19,8.19,0,0,0,5.2-7.62c0-4.52-2.7-10.26-7.9-10.32-3.2-1.34-7.09.25-9.69,2.23a9.36,9.36,0,0,0-1.55,1.46,6.11,6.11,0,0,0-2.1,4.33,6,6,0,0,0-.12.95,48.36,48.36,0,0,0-16.49-2.6c-12.2.31-28,5.09-39.36,11.79l-.83.53a6.49,6.49,0,0,0-.45-.87,6.23,6.23,0,0,0-3.47-3.38,10.13,10.13,0,0,0-2-.86c-3.13-1-7.34-1.2-9.88,1.12-4.88,1.78-5.46,8.09-3.89,12.34a8.3,8.3,0,0,0,7.52,5.44l.18,0c-4.14,7.43-6.47,15.56-5.87,20.34,1.06,8.59-.28,32.6,23.34,45.95a34.15,34.15,0,0,0,15.75,5.63c8.72.58,40.6-3.09,50.39-11s16-14.92,17.12-27.16S314.18,71.65,303.75,58.87Z"/><path class="cls-8" d="M209.83,87.79a46.23,46.23,0,0,0-23.22-29.53c4.11-7.1,9.31-16.41,11-20.82,2.93-7.65,6-13.21,2.68-17.24s-7-3.59-8.38-2.12S178.05,47.52,177.3,50.47a34.43,34.43,0,0,1-1.37,3.74c-2.39-.65-4.89-1.2-7.46-1.64a35.12,35.12,0,0,1,.67-4.17c.8-2.93,3.66-33.36,3.19-35.29S168.84,9,164,11,159,19.25,157.8,27.34c-.71,4.76-.74,15.76-.64,24a82.1,82.1,0,0,0-13.59.43c-12.86,1.58-28.33,15.95-30.95,24.2s-13.79,29.63,1.6,51.23a32.41,32.41,0,0,0,11.62,11.41c7.49,4,37.27,13.4,49.24,10.08s20.35-7.23,26.46-17.93S213.77,103.61,209.83,87.79Z"/><path class="cls-5" d="M247,104.44s-2.31,4.11.24,6.42,6.41,3.11,11.23,2.49,20.93-4.09,25.35-7.59,5.95-9.09,2.92-11.79-14.68-3.91-21.56-1.7S249.51,99.63,247,104.44Z"/><path class="cls-9" d="M260.79,92.55s.76,2.8,3,3.77,5.07.1,6-1.56.79-5.43-.28-6.32S259.38,88.89,260.79,92.55Z"/><ellipse class="cls-5" cx="245.47" cy="87.67" rx="11.5" ry="11.3"/><ellipse class="cls-5" cx="279.2" cy="78.32" rx="11.5" ry="11.3"/><ellipse class="cls-9" cx="248.59" cy="86.74" rx="6.14" ry="6.03"/><ellipse class="cls-9" cx="276.66" cy="79.81" rx="6.14" ry="6.03"/><path class="cls-9" d="M276.43,59.56S263.55,69.45,264.05,73s27.79-12.42,26.2-14.79S276.43,59.56,276.43,59.56Z"/><path class="cls-9" d="M237.23,69.89s16.19,2.23,17.58,5.58-30.39,2.9-30.21.07S237.23,69.89,237.23,69.89Z"/><ellipse class="cls-9" cx="142.79" cy="80.44" rx="5.76" ry="5.66"/><ellipse class="cls-9" cx="187.34" cy="98.31" rx="5.76" ry="5.66"/><ellipse class="cls-10" cx="139.17" cy="88.85" rx="2.83" ry="5.74" transform="translate(5.3 185.5) rotate(-68.38)"/><ellipse class="cls-10" cx="184.13" cy="106.87" rx="2.83" ry="5.74" transform="translate(16.93 238.67) rotate(-68.38)"/><path class="cls-5" d="M142.87,92.85s-4.08,1.78-3.51,4.92,3,5.88,6.94,8.1,18,8.59,23.27,8.44,9.68-3.46,9-7.16-8.69-11.08-15.09-13.27S147.53,90.66,142.87,92.85Z"/><path class="cls-9" d="M160,91.66s-1,2.51,0,4.47,3.72,2.89,5.34,2.14,3.71-3.61,3.43-4.86S161.08,88.14,160,91.66Z"/><path class="cls-9" d="M171.6,107.39a.69.69,0,0,0-.69-.44c-.89-.07-6-1.38-6.73-2.62a9.27,9.27,0,0,1-.47-6.94s0,0,0,0,0,0,0-.07a.15.15,0,0,0,0-.07v-.13s0,0,0-.06a.14.14,0,0,0,0-.06.14.14,0,0,0,0-.06l0-.06,0-.06,0,0,0,0-.05,0-.06,0-.06,0,0,0h-.09l-.07,0h-.26l-.06,0-.07,0,0,0-.06,0-.05,0-.06,0,0,0,0,0,0,.06,0,0a9.56,9.56,0,0,1-5.28,4.63c-1.43.36-6-2.19-6.67-2.75a.72.72,0,0,0-.81-.16.67.67,0,0,0-.34.9,15.54,15.54,0,0,0,4.61,2.64,6.77,6.77,0,0,0,3.56.69,10.38,10.38,0,0,0,4.36-2.79,10,10,0,0,0,1.14,5,6.67,6.67,0,0,0,3,2,15.86,15.86,0,0,0,5.17,1.28A.68.68,0,0,0,171.6,107.39Z"/></g><path class="cls-11" d="M11.33,132.91a26.76,26.76,0,0,0,7.12-2.47c3.1-1.73,7.92-5.63,8.3-8.78s-2.79-5-3.64-4.53S15.61,124,15,124.34s-1.93-1-.8-2.74,4.42-6.41,4.88-8.78-2.74-4.94-4-3.73-6.91,10.52-7.61,18.3C7.47,127.39,6.62,132.23,11.33,132.91Z"/><path class="cls-11" d="M23.16,160.48s-.05,2,1,2.73,2.57-.94,2.89-5,1.5-16.26-5.14-19.57-10.07,2.68-10.17,3.63-.43,12.2,3.26,16.94c0,0,2.47,3,3,.31a19.09,19.09,0,0,0-.05-6,6.73,6.73,0,0,1,3.91-.78C24.5,152.85,23.16,160.48,23.16,160.48Z"/><path class="cls-11" d="M40.45,127.18s6.91-3.84,7.44-4.73.22-3.16-2.89-2.74a8.65,8.65,0,0,0-3.9,2.1c-1.88,1.74-2-.1-2-.1s-1.28-2.31-4.87-1.53-3,1.9-3,2.11,1.39,11.78,3.16,13.46,7,1.42,9,0,5.84-5.57,6.27-7.68-.86-2.89-2.84-2.1-5.09,3.1-5.51,3.21S38.85,129.13,40.45,127.18Z"/><path class="cls-11" d="M44.25,156.59c.16,0,7.39-1.4,11.14-6.07,0,0,2.62-2.82,1.5-3.93s-2.09-2.42-3.7-1.68-4.81,4.36-6.31,5.15-4.5,1.48-4.61-.47,1.39-2.79,3.86-4,7-3.89,7.06-5.21-1.82-3.56-2.73-3.46-8.24,4.73-9.47,4.52-1-.64-2-1.63a1.69,1.69,0,0,0-2.73.52c-.21.79-.16,12,2.63,14.41A6.86,6.86,0,0,0,44.25,156.59Z"/><path class="cls-11" d="M14,172.37s2.57,5,4.82,6.55S23,180,25,176.15c0,0-2.49-7.1-4.81-9a4.67,4.67,0,0,0-6.11.31C13.07,168.5,13.36,171.15,14,172.37Z"/><path class="cls-11" d="M28.65,172.21s1.36,4.73,3,5.21,4.26-2.61,3.77-8-1.14-6.87-3.34-6.87-5.33,2.1-5.57,3.57S28.65,172.21,28.65,172.21Z"/><path class="cls-11" d="M39,168s-.4,4.26.8,7,4,2,4.9,0,1.44-10.18,0-11.91-4.26-.79-5.22,1.26A5.45,5.45,0,0,0,39,168Z"/><path class="cls-11" d="M48.8,160.69s-1-1.82,1.53-3.24,3.85-1.42,4.34.71-.49,13.81-1.61,15.15-3.34,3.32-4.44.63S48.8,160.69,48.8,160.69Z"/><path class="cls-11" d="M75,128.92s30.2-10.42,31.48-12,2.47-4.63.86-5.36-6.1,2.1-9.53,3.36-8.46,3-10.28.11-1.93-4.87-6.64-3.59-1.28,5.59-1,6.64,1.6,1.68,0,2.74-9.53,3.26-10.82,4.62-3,1.37-2.78,7.47,2.14,43.66,3.43,45.14,7.06.31,7.28-1.79-2.36-25-2.46-27.46c0,0-2.36-12.41-1.61-15.36S73.61,129.39,75,128.92Z"/><path class="cls-11" d="M81.19,143.33s-3.42,1.26-4.71,0-1.18-3.79,0-4.21,5.25-1.47,5.25-1.47-1.5-5.47,0-6.52,3.1-1.27,3.43,0l.69,4.05s.05,1.15,1.82.79,13.12-1.74,13.87-1.74,1.44-.16,1.5-1.47-.7-5.21-.38-5.9,1.29-.63,2.84,0,1.87,3.58,2.09,4.84.37,2.32,1.28,2.21,4.18-.1,4.66,1.58.27,2.32-.64,2.74-3.38.31-3.91.89,2.54,24,2.62,25.43.89,4.11-.16,5.45a2.25,2.25,0,0,1-4.09-1.11c-.49-2.6-3.7-28.32-3.7-28.32a4.3,4.3,0,0,0-2.61-.24c-2,.2-12.57,1.11-12.57,1.11s-.72-.87-.48,1.42,3.38,29.43,3.05,30.69-4.25,4.18-5.05,1.34-3.38-32-3.38-32S82.18,142.3,81.19,143.33Z"/><path class="cls-11" d="M78.12,150.35s0,13.1.64,14.91,1.93,2.37,2.89,1.74.4-14.68,0-15.39S78.76,148.14,78.12,150.35Z"/><path class="cls-11" d="M93.05,148s.32,8.13,1.13,9.47,2.49.75,3.77.93,2.57,2.7,1.45,3.81-4.42,1.42-5.38,1-2,.08-2.65-3.55a86.2,86.2,0,0,1-1.05-11C90.4,147.83,91.45,146,93.05,148Z"/><path class="cls-11" d="M99.83,147.1s1.41,15.57,1.89,16.28,3.46,1.57,3.14-2.3-1-13.54-1.53-14.3S100.58,144.87,99.83,147.1Z"/><path class="cls-11" d="M110.64,145.79s1.28,13,2.09,14.82,5.46.63,8.43,0,4-1.66,3.37-2.84-1.2-1.56-2.73-1.13-5.62,2.18-6.18,0-1.69-10.51-2.25-10.85S110.47,144.17,110.64,145.79Z"/><path class="cls-11" d="M144.37,130.18s8.67-.11,10.28-1.89.74-4.53-.75-5-13.07.63-13.07.63-.43-6.63-1.92-7.47-6.54-.74-6.32,2.1.86,6.31.86,6.31.62.84-.87,1.06a82.79,82.79,0,0,0-8.88,1.78c-.86.42-2.25,2.42-1.82,3.9s1,2.31,2.83,2,8.84-1.27,8.84-1.27,2.14-.5,2.36,1.33,1.71,9,1.71,9,.43,1.06-1.39,1.69-6.43,1.26-7.07,2.1-1.93,3.89.75,4.21,15.1-1.16,18.42-2S153,146,151.65,144s-7.28-.53-7.28-.53-1.4.95-1.72-3.05-1-8.73-1-8.73S142,130.27,144.37,130.18Z"/><path class="cls-11" d="M131.52,161a23.89,23.89,0,0,0,.75,8.21c1.18,3.58,3.85,7.47,6.85,8.21s11.35-1.16,13-7.47-.75-13.47-2.68-14.21-10.82-1.47-15,1.48A7,7,0,0,0,131.52,161Z"/><path class="cls-12" d="M253.67,17.2,186,6.49C159.66,2.32,133.81,25,128.58,57h0c-5.23,31.92,12.06,61.45,38.42,65.62l-1.63-.3c.57,6-.75,11.36-.18,17.38.48,5.1,4.34,7.87,8.13,4.35,5.46-5.08,8-12.69,12.18-19l49.15,8.26c26.36,4.17,52.21-18.54,57.44-50.46h0C297.32,50.89,280,21.37,253.67,17.2Z"/></g></g></svg>