<svg id="圖層_1" data-name="圖層 1" xmlns="http://www.w3.org/2000/svg" xmlns:xlink="http://www.w3.org/1999/xlink" viewBox="0 0 2110 1256"><defs><style>.cls-1{fill:none;}.cls-2{clip-path:url(#clip-path);}.cls-3{fill:#4e77ff;opacity:0.39;}.cls-4{fill:#4d9cde;}.cls-5{clip-path:url(#clip-path-2);}.cls-6{fill:#7a9ec3;}.cls-7{opacity:0.63;}.cls-8{fill:#b6dbf8;}.cls-9{fill:#c995b7;}.cls-10{fill:#c3e5ff;}.cls-11{fill:#96bde9;}.cls-12{fill:#b8bbd6;}.cls-13{fill:#a1d6ff;}.cls-14{fill:#9ea5d8;}.cls-15{fill:#8288b8;}.cls-16{fill:#b1b5dc;}.cls-17{fill:#c9c6e5;}.cls-18{fill:#7cb9ea;}.cls-19{fill:#b2dafb;}.cls-20{fill:#dfcf7d;}.cls-21{fill:#3d9ae6;}.cls-22{fill:#d5ecfa;}.cls-23{fill:#a0dcff;}.cls-24{fill:#51a5d6;}.cls-25{fill:#97ade6;}.cls-26{fill:#5996c6;}.cls-27{fill:#549bdd;}.cls-28{fill:#aad7fa;}.cls-29{fill:#7eb3eb;}.cls-30{fill:#aedafe;}.cls-31{fill:#d3f1fe;}.cls-32{fill:#d5f2fe;}.cls-33{fill:#d6f3ff;}.cls-34{fill:#917d90;}.cls-35{fill:#5086c5;}.cls-36{fill:#71b5f4;}.cls-37{fill:#1275b5;}.cls-38{fill:#b6d7fa;}.cls-39{fill:#7cbaeb;}.cls-40{fill:#fff;}.cls-41{fill:#0066a7;}.cls-42{fill:#98d4fa;}.cls-43{fill:#a36464;}.cls-44{fill:#b2a0b2;}.cls-45{fill:#558bcb;}.cls-46{fill:#fffbee;}.cls-47{fill:#83abdb;}.cls-48{fill:#cbab55;}.cls-49{fill:#557f89;}.cls-50{fill:#233569;}.cls-51{fill:#99cae1;}.cls-52{fill:#6786a4;}.cls-53{fill:#fee1f1;}.cls-54{fill:#a4cee3;}.cls-55{fill:#032e58;}.cls-56{fill:#9acbe1;}.cls-57{fill:#a1cee3;}.cls-58{fill:#fce3f1;}.cls-59{fill:#9ecce2;}.cls-60{fill:#f1e0f0;}.cls-61{fill:#aed2e6;}.cls-62{fill:#b2d1e6;}.cls-63{fill:#b1d1e5;}.cls-64{fill:#b5d2e6;}.cls-65{fill:#b7d3e7;}.cls-66{fill:#b5d3e7;}.cls-67{fill:#afd3e6;}.cls-68{fill:#aed0e5;}.cls-69{fill:#f5e1f1;}.cls-70{fill:#c1d8ea;}.cls-71{fill:#c4d9ea;}.cls-72{fill:#b1d2e6;}.cls-73{fill:#aed1e5;}.cls-74{fill:#e4deee;}.cls-75{fill:#bfd6e9;}.cls-76{fill:#2259cd;}.cls-77{fill:#0325a5;}.cls-78{fill:#082ba7;}.cls-79{fill:#0426a5;}.cls-80{fill:#0427a5;}.cls-81{fill:#0528a5;}.cls-82{fill:#2045b0;}.cls-83{fill:#173bad;}.cls-84{fill:#1a3fae;}.cls-85{fill:#1c41af;}.cls-86{fill:#183dae;}.cls-87{fill:#193eae;}.cls-88{fill:#1a3eae;}.cls-89{fill:#183dad;}.cls-90{fill:#183cad;}.cls-91{fill:#0022a3;}.cls-92{fill:#1d42af;}.cls-93{fill:#0325a4;}.cls-94{fill:#0f33a9;}.cls-95{fill:#0f32a9;}.cls-96{fill:#0c30a8;}.cls-97{fill:#0c2fa8;}.cls-98{fill:#0e31a9;}.cls-99{fill:#1337ab;}.cls-100{fill:#1236ab;}.cls-101{fill:#1438ac;}.cls-102{fill:#0d31a9;}.cls-103{fill:#0e32a9;}.cls-104{fill:#1438ab;}.cls-105{fill:#3158b7;}.cls-106{fill:#1b40ae;}.cls-107{fill:#274db3;}.cls-108{fill:#274eb4;}.cls-109{fill:#3057b7;}.cls-110{fill:#9bcae0;}.cls-111{fill:#fdfcfb;}.cls-112{fill:#9bc9e0;}.cls-113{fill:#99c8de;}.cls-114{fill:#fdfcfc;}.cls-115{fill:#f96e0b;}.cls-116{fill:#fa6e0a;}.cls-117{fill:#fb6d08;}.cls-118{fill:#fee9f4;}.cls-119{fill:#fefdfe;}</style><clipPath id="clip-path"><rect class="cls-1" x="1" y="-8" width="2109" height="1264"/></clipPath><clipPath id="clip-path-2"><rect class="cls-1" x="-60" y="-161" width="1653.09" height="771"/></clipPath></defs><title>0122</title><g class="cls-2"><rect class="cls-3" x="-162" y="594" width="1896" height="752"/><circle class="cls-4" cx="586.66" cy="275.18" r="23.29"/><circle class="cls-4" cx="67.58" cy="224.32" r="23.29"/><path class="cls-4" d="M556.88,466.25a23.29,23.29,0,1,0,17.35,28A23.29,23.29,0,0,0,556.88,466.25Z"/><path class="cls-4" d="M590.69,348.31a21.79,21.79,0,0,0-23,8.9A246.29,246.29,0,0,0,537,180.5a21.8,21.8,0,1,0-14.4-21.08,246.83,246.83,0,0,0-48-47.75l.56,0A21.81,21.81,0,1,0,455.1,98.42a243.86,243.86,0,0,0-65.31-27.84,21.79,21.79,0,1,0-13.13-3.08,246,246,0,0,0-49.42-5q-12.5,0-24.67,1.23a21.8,21.8,0,1,0-12.07,1.51A243.59,243.59,0,0,0,219,87.61a21.8,21.8,0,1,0-17.42,8.69c.47,0,.93,0,1.39,0a246.43,246.43,0,0,0-57.41,46.63,21.78,21.78,0,1,0-8.6,10A244.27,244.27,0,0,0,82,297.37,21.81,21.81,0,1,0,81.8,308,245.11,245.11,0,0,0,92,378a22,22,0,0,0-3.85-1.29,21.8,21.8,0,1,0,14.67,30.66,245.06,245.06,0,0,0,31.93,52.82,21.8,21.8,0,1,0,21,26.78,20.49,20.49,0,0,0,.48-3,247,247,0,0,0,48.52,36.7,21.8,21.8,0,1,0,25.41,12.74,243.18,243.18,0,0,0,58,16.85,21.8,21.8,0,1,0,27.92,2.85c3.71.17,7.43.27,11.18.27A246.51,246.51,0,0,0,378.78,548a21.81,21.81,0,0,0,13.56,32.69A21.8,21.8,0,0,0,407.28,540q6.41-2.21,12.66-4.76l.38.89,3.92-1.71-.36-.83a244.06,244.06,0,0,0,40.54-22.12c-.22.68-.42,1.36-.59,2.07A21.8,21.8,0,1,0,490,497.32a21.45,21.45,0,0,0-3.69-.53l2.59-2.52-.88-.9a245.43,245.43,0,0,0,76.05-121,21.8,21.8,0,1,0,26.59-24.1ZM100.8,308c0-125.06,101.38-226.44,226.44-226.44S553.67,182.9,553.67,308a226.65,226.65,0,0,1-7.13,56.6L535.92,363A217.09,217.09,0,0,0,543,308c0-5-.19-10.07-.53-15l5.23-1.15-.92-4.17-4.65,1A215.76,215.76,0,0,0,111.48,308a216.92,216.92,0,0,0,8.4,59.91L114.11,369l.79,4.2,6.21-1.16a214.65,214.65,0,0,0,53.57,88.53A219.77,219.77,0,0,0,197,480l-7.11,8A226.08,226.08,0,0,1,100.8,308Zm439.62,0a212.67,212.67,0,0,1-7.12,54.69L358.9,337.47a45.43,45.43,0,0,0,4.8-5.38l176.22-38.63C540.24,298.26,540.42,303.09,540.42,308ZM367.07,327a45.33,45.33,0,0,0,5.25-14.65L515.58,223.8l-2.25-3.64L372.94,306.92c.05-.82.07-1.64.07-2.47a45.45,45.45,0,0,0-4.6-20l99.8-120.76-3.3-2.73L366.19,280.43a45.91,45.91,0,0,0-12.05-13l49.72-144.62-4-1.39L350.45,265a45.52,45.52,0,0,0-20.18-6.21V101.43H326V258.75A45.5,45.5,0,0,0,308,263L259.49,119.58,255.44,121,304.14,265A46,46,0,0,0,289.31,279L192.63,160.63l-3.31,2.71L287,282.83a45.37,45.37,0,0,0-5.37,19.6L146.54,220l-2.23,3.65,137.35,83.81a45.22,45.22,0,0,0,3.44,14.69L117.82,292.83l-.73,4.21,170.36,29.87a45.84,45.84,0,0,0,6,8.33l-171,32.14A212.78,212.78,0,0,1,114.05,308c0-117.55,95.63-213.19,213.18-213.19,111.22,0,202.8,85.61,212.35,194.39Zm-39.79,23.2c1.52,0,3-.08,4.52-.22l-5.3,171.18a212.7,212.7,0,0,1-62-9.41l62.42-161.56Zm-30.08-11.3a45.48,45.48,0,0,0,8.41,5.85L155.88,429.86l2.11,3.72,152.38-86.64c1.28.51,2.59,1,3.93,1.36L198.76,478a214,214,0,0,1-75-106.47ZM319,349.42c1.13.21,2.27.39,3.43.51l-62,160.49a212.67,212.67,0,0,1-58.24-29.9ZM259.49,512.91l-3.84,9.93a225.73,225.73,0,0,1-62.36-32.31l7.12-8A213.43,213.43,0,0,0,259.49,512.91Zm4.08,1.29a216.4,216.4,0,0,0,62.85,9.5l-.33,10.68a226.31,226.31,0,0,1-66.37-10.22ZM336.1,349.32c.86-.17,1.73-.35,2.58-.57L407,505.64a211.94,211.94,0,0,1-76.25,15.46Zm8.51,2.35L462.2,472.86A213.79,213.79,0,0,1,411,504Zm.86-5.26c1-.43,2-.9,2.92-1.39L505.52,424.7a214.86,214.86,0,0,1-40,45.4Zm7.28-4c.61-.41,1.21-.84,1.8-1.28L532.16,366.8a212.35,212.35,0,0,1-24.31,54.29Zm182,24.74,10.63,1.53a225.47,225.47,0,0,1-25.64,58.44l-9.51-4.83A213.31,213.31,0,0,0,534.79,367.18ZM330.37,534.36l.33-10.69a215.23,215.23,0,0,0,77.4-15.58l4.24,9.75A225.87,225.87,0,0,1,330.37,534.36ZM412,506.45a214.22,214.22,0,0,0,52-31.66l7.45,7.68a226.12,226.12,0,0,1-55.23,33.73Zm73.34-9.7c-.45,0-.9,0-1.34,0l.75-.63Zm-10.58-17L467.35,472q6.4-5.49,12.44-11.51a217.46,217.46,0,0,0,28.15-34.59l9.55,4.85A227.72,227.72,0,0,1,474.8,479.71Z"/><g class="cls-5"><path class="cls-4" d="M239.2,410.08V593.87h389v-.55h.66v.55H842.36v-.13l85.92-.49v.62h139.6v-.7h19.69v.7h979v-.7h.6l-.67-16.26-1.12-235.58H2032s1.19-148.72,0-148.72h-54.89V324.49h-37l1.19-80h-46.53v16.84h-13.13l-1.19,64.54-28.64,1.4-2.39,76.26-40-33.47-11.94,1.4L1801.08,140l-47.72-50.51L1745,249.43l-37.58.7-1.16,55.42h-28.07V436l-14.32-2.8V392.54h-15.51V363.08l-30.9,13.45-.13-59.75-78.75-4.21-1.19,161.34h-23.86v-7h-7.16V451.47H1504V466.9h-3.58V454.27H1498V466.9h-12.52v-68h-43.56v-33l-28.63-28.06V436l-13.72-.19v-185l-47.13-1.41,1.19-103.82-49.52-14.73-2.75,133.6-9.78-8.05V227l-79.34-3.51-3,305.87h-16.73V95.8h-5.37V85.28h2.39v-1.4h-62v1.4h2.39V95.8h-6.57v53.32h-35.79V364.48h-54.29V250.84l-47.13-1.41,1.19-103.82-49.52-14.73L933.72,329.4H835.8l-17.31,32.27v45.6H785.08v107l-31-71.94-55.45-2.42L701,142.1,655.62,91.59l-6.56,159.25H609.69v80.67h-18.5V265.57H580.45V247.33H533.92l-1.79,79.27h-34.6V191.91l-55.49.7-2.38,152.93h-39.8l.42-63.14h-69.8V438.14H316.76L318,375,275,376.4Zm897.87-324.8V95.8h-4.77V85.28Zm11.94,0V95.8h-9.55V85.28Zm10.74,0V95.8h-8.36V85.28Zm13.12,0V95.8h-10.74V85.28ZM1184.8,95.8h-9.54V85.28h9.54Z"/><path class="cls-6" d="M1601,415.75l1.11,49.5h-12.72V332.71h-64.71l.47,60h-37L1486,272.77l-51.43-.55V377.81h-32.08l-1.66-62.14h-43.14V330h-10v51.7h-17.15V306.32h-36.5L1288,181.48l-42,39.6,2.19,234-51.41,1.9L1168,513.4V429.5h-31V393.76l-16-25.3h-90.78l-3.79-155.63-45.91,11.55,1.11,81.39-43.69,1.1v89.64H887.58V227.68H854.39v-41.8h-6.08v-8.25h2.21v-1.1H793v1.1h2.21v8.25h-5V525.74H773.59l-2.71-237-73.56,2.75v23.1l-7.33,5.1-1.57-70.9-47.56,17.6,1.15,39.4-43.69,1.1V414.68l-33.74.55V306.44L538,337.52v36.53H497.66v75.38H486.05v-14h-2.22v14h-3.32v-17.1H478.3v17.1h-6.63v7.77H449.54l-1.1-178.74-73,4.67-.55,307H610.49l.07-11H774.2l0-2.75H887.58v-.55h147.67v-.48l79.65.38v.1h88.43v1.16h109.51V574.8h.55l.06,12.53h360.61V443.25l-33.18-26.4ZM846.1,177.63v8.25h-4.43v-8.25Zm-6.64,0v8.25h-8.85v-8.25Zm-11.06,0v8.25h-7.74v-8.25Zm-10,0v8.25h-10v-8.25Zm-21,0h8.85v8.25h-8.85Z"/><path class="cls-6" d="M342.25,419.05v23.1H327.87v31.9l-13.28,2.19V374h-26l-1.07-43.45L252.65,330,244.9,204.58l-44.24,39.6L204,425.65l-11.06-1.1L155.5,451l-1.85-50.14-26.55-1.1L126,349.21H113.83V336H70.69l1.1,62.7H37.5V295.32H-13.38c-1.11,0,0,116.58,0,116.58h-31l-1,184.69L-46,609.33h.55v.55H161.39L161,600H372.66l-.55-169.93Z"/><path class="cls-6" d="M2072.26,436.65l-29.86-11v23.1H2028v31.89l-13.28,2.2V380.56h-6.12l-1.07-43.45-34.84-.55L1965,211.18l-44.25,39.59L1924,432.25l-11.06-1.1-23,16.29-1.89-50.93-26.55-1.1-1.1-50.6h-12.17v-13.2h-43.14l1.1,62.7h-34.29V290.92h-50.88c-1.11,0,0,116.58,0,116.58h-31l-1,184.69-.63,12.74h.56v.55h150.44v1.1h233.4Z"/><g class="cls-7"><path class="cls-8" d="M-42.16,604.38H164.69l-7.74-209-26.55-1.1-1.11-50.6H117.13v-13.2H74l1.1,62.7H40.8V289.82H-10.08c-1.11,0,0,116.58,0,116.58H-41Z"/><polygon class="cls-4" points="80.62 394.31 116.02 394.31 114.91 347.01 79.52 347.01 80.62 394.31"/><polygon class="cls-4" points="80.62 343.71 113.81 344.81 113.81 337.11 79.52 333.81 80.62 343.71"/><polygon class="cls-9" points="55.13 425.52 54.11 443.8 83.72 443.8 55.13 425.52"/><path class="cls-9" d="M39.14,403.65v49.5l69.69-2.2Zm15,19.93L87.48,444.9H52.94Z"/><polygon class="cls-4" points="47.81 604.38 108.28 604.38 107.72 553.24 46.88 529.04 47.81 604.38"/><polygon class="cls-10" points="-5.1 476.25 -5.1 602.73 38.22 604.38 38.04 515.84 18.13 477.35 -5.1 476.25"/><polygon class="cls-11" points="-41.42 577.62 -12.85 577.43 -12.85 524.64 33.61 523.54 32.69 604.38 -42.71 603.83 -41.42 577.62"/><polygon class="cls-8" points="1405.79 372.31 1437.87 372.31 1437.87 266.72 1489.3 267.27 1491.52 387.16 1552.35 387.16 1566.73 459.75 1605.45 459.75 1604.34 410.25 1644.16 411.35 1677.35 437.75 1677.35 581.83 1316.74 581.83 1315.64 376.16 1351.04 376.16 1351.04 324.46 1360.99 324.46 1360.99 310.17 1404.13 310.17 1405.79 372.31"/><polygon class="cls-4" points="1677.35 463.6 1672.37 463.6 1672.37 452.6 1661.31 452.6 1661.31 441.56 1648.54 440.5 1648.63 439.4 1662.42 440.54 1662.42 451.5 1673.48 451.5 1673.48 462.5 1677.35 462.5 1677.35 463.6"/><polygon class="cls-4" points="1612.09 438.85 1634.21 414.65 1613.19 414.65 1612.09 438.85"/><polygon class="cls-4" points="1617.62 485.04 1634.21 485.04 1633.1 430.05 1617.62 445.45 1617.62 485.04"/><polygon class="cls-9" points="1370.95 430.05 1439.53 433.35 1439.53 383.86 1370.95 430.05"/><path class="cls-8" d="M1393.22,425.17,1428,403.73,1426.78,424Zm33.52-19.39-29.4,18.15,28.39-1Z"/><rect class="cls-4" x="1366.52" y="315.67" width="33.18" height="8.8"/><rect class="cls-4" x="1365.41" y="327.76" width="34.29" height="48.39"/><rect class="cls-4" x="1608.77" y="509.24" width="11.06" height="17.6"/><rect class="cls-4" x="1617.62" y="530.14" width="13.27" height="17.6"/><rect class="cls-4" x="1640.85" y="413.55" width="2.21" height="84.69"/><rect class="cls-4" x="1671.82" y="485.04" width="2.21" height="94.59"/><rect class="cls-4" x="1664.08" y="480.64" width="2.21" height="94.59"/><rect class="cls-4" x="1656.33" y="477.34" width="2.21" height="94.59"/><polygon class="cls-12" points="1333.89 569.18 1333.89 300.82 1297.39 300.82 1291.3 175.98 1249.27 215.58 1252.59 569.73 1333.89 569.18"/><polygon class="cls-13" points="1254.8 236.48 1289.09 212.28 1289.09 186.98 1253.69 219.98 1254.8 236.48"/><polygon class="cls-13" points="1253.69 245.28 1257.01 336.56 1293.52 301.37 1289.09 222.18 1253.69 245.28"/><path class="cls-14" d="M1268.58,424.51l1.18-29.12,41,1.16Zm2.24-28-1,25.88,37.47-24.84Z"/><polygon class="cls-14" points="1269.18 433.35 1269.18 449.85 1312.32 446.55 1311.21 402.56 1269.18 433.35"/><polygon class="cls-12" points="1260.33 245.28 1262.54 245.28 1265.86 316.77 1263.65 318.96 1260.33 245.28"/><polygon class="cls-12" points="1268.07 240.88 1270.29 240.88 1272.5 309.07 1270.29 310.17 1268.07 240.88"/><path class="cls-12" d="M1279.14,237.58s1.1-1.1,1.1,0,1.11,61.59,1.11,61.59h-2.21Z"/><path class="cls-12" d="M1272.77,440.57l28.92-19.16,2.41,18Zm28.06-17.27-24.18,16,26.19-1Z"/><rect class="cls-15" x="1295.73" y="316.77" width="12.17" height="36.3"/><rect class="cls-15" x="1311.21" y="313.47" width="13.27" height="38.5"/><rect class="cls-10" x="1118.19" y="424" width="53.1" height="146.28"/><polygon class="cls-16" points="1140.31 570.28 1140.31 388.26 1124.27 362.96 1030.25 362.96 1024.72 376.16 1024.72 569.73 1140.31 570.28"/><rect class="cls-17" x="1040.21" y="379.46" width="13.27" height="17.6"/><rect class="cls-17" x="1054.03" y="400.9" width="12.17" height="16.5"/><polygon class="cls-18" points="774.73 569.73 773.63 520.24 793.54 520.24 793.54 180.38 857.69 180.38 857.69 222.18 890.88 222.18 890.88 570.83 774.73 570.83 774.73 569.73"/><rect class="cls-19" x="799.07" y="189.18" width="54.2" height="28.6"/><rect class="cls-19" x="799.07" y="232.08" width="87.39" height="2.2"/><rect class="cls-19" x="799.07" y="238.68" width="87.39" height="2.2"/><rect class="cls-19" x="797.96" y="294.77" width="87.39" height="2.2"/><rect class="cls-19" x="797.96" y="347.56" width="87.39" height="2.2"/><rect class="cls-19" x="799.07" y="399.26" width="87.39" height="2.2"/><rect class="cls-19" x="799.07" y="491.64" width="87.39" height="2.2"/><rect class="cls-19" x="799.07" y="499.34" width="87.39" height="2.2"/><rect class="cls-19" x="799.07" y="520.24" width="87.39" height="2.2"/><polygon class="cls-19" points="796.3 171.03 796.3 172.13 798.51 172.13 798.51 180.93 800.73 180.93 800.73 172.13 809.58 172.13 809.58 180.93 811.79 180.93 811.79 172.13 821.74 172.13 821.74 180.93 823.96 180.93 823.96 172.13 831.7 172.13 831.7 180.93 833.91 180.93 833.91 172.13 842.76 172.13 842.76 180.93 844.97 180.93 844.97 172.13 849.4 172.13 849.4 180.93 851.61 180.93 851.61 172.13 853.82 172.13 853.82 171.03 796.3 171.03"/><rect class="cls-20" x="810.13" y="357.46" width="18.8" height="22"/><rect class="cls-20" x="847.74" y="357.46" width="18.8" height="22"/><rect class="cls-20" x="809.02" y="251.87" width="18.8" height="22"/><rect class="cls-20" x="846.63" y="251.87" width="18.8" height="22"/><rect class="cls-19" x="804.6" y="412.45" width="77.43" height="69.29"/><polygon class="cls-10" points="1029.7 207.33 1038.55 570.28 941.21 570.28 941.21 301.37 984.9 300.27 983.79 218.88 1029.7 207.33"/><rect class="cls-21" x="990.43" y="219.98" width="12.17" height="7.7"/><rect class="cls-21" x="1004.81" y="219.98" width="12.17" height="7.7"/><rect class="cls-21" x="990.43" y="229.88" width="12.17" height="9.9"/><rect class="cls-21" x="1004.81" y="229.88" width="12.17" height="9.9"/><rect class="cls-22" x="984.9" y="332.16" width="13.27" height="17.6"/><rect class="cls-22" x="972.73" y="310.17" width="13.27" height="17.6"/><polygon class="cls-10" points="691.72 243.27 698.96 570.28 601.62 570.28 601.62 301.37 645.31 300.27 644.16 260.87 691.72 243.27"/><rect class="cls-21" x="655.22" y="261.97" width="12.17" height="7.7"/><rect class="cls-21" x="669.6" y="261.97" width="12.17" height="7.7"/><rect class="cls-21" x="655.22" y="271.86" width="12.17" height="9.9"/><rect class="cls-21" x="669.6" y="271.86" width="12.17" height="9.9"/><rect class="cls-22" x="645.31" y="332.16" width="13.27" height="17.6"/><rect class="cls-22" x="633.14" y="310.17" width="13.27" height="17.6"/><rect class="cls-23" x="857.14" y="391.01" width="92.92" height="179.28"/><rect class="cls-24" x="866.54" y="402.55" width="82.96" height="33"/><rect class="cls-25" x="879.82" y="411.35" width="69.69" height="13.2"/><rect class="cls-26" x="859.9" y="445.45" width="87.39" height="3.3"/><path class="cls-26" d="M948.4,499.34V496h-5.53V455.35h4.42v-3.3H859.9v3.3h4.43V570.83h2.21v-5.5h80.75V562H866.54v-7.7H948.4V551H866.54v-41.8h18.81v40.7h2.21v-40.7H903v40.7h2.22v-40.7h16.59v40.7h2.21v-40.7h16.59v40.7h2.22v-40.7h5.53v-3.3H866.54v-6.6Zm-7.75-44V496H924.06V455.35Zm-18.8,0V496H905.26V455.35Zm-18.81,0V496H887.56V455.35Zm-17.69,0V496H866.54V455.35Z"/><rect class="cls-27" x="909.13" y="450.4" width="101.77" height="119.88"/><rect class="cls-28" x="910.79" y="466.35" width="96.23" height="2.2"/><rect class="cls-28" x="920.74" y="474.05" width="2.21" height="24.2"/><rect class="cls-28" x="936.23" y="474.05" width="2.21" height="24.2"/><rect class="cls-28" x="949.5" y="474.05" width="2.21" height="24.2"/><rect class="cls-28" x="963.88" y="474.05" width="2.21" height="24.2"/><rect class="cls-28" x="977.16" y="474.05" width="2.21" height="24.2"/><rect class="cls-28" x="990.43" y="474.05" width="2.21" height="24.2"/><rect class="cls-28" x="910.79" y="503.74" width="96.23" height="2.2"/><rect class="cls-28" x="920.74" y="511.44" width="2.21" height="24.2"/><rect class="cls-28" x="936.23" y="511.44" width="2.21" height="24.2"/><rect class="cls-28" x="949.5" y="511.44" width="2.21" height="24.2"/><rect class="cls-28" x="963.88" y="511.44" width="2.21" height="24.2"/><rect class="cls-28" x="977.16" y="511.44" width="2.21" height="24.2"/><rect class="cls-28" x="990.43" y="511.44" width="2.21" height="24.2"/><rect class="cls-28" x="910.79" y="537.84" width="96.23" height="2.2"/><rect class="cls-28" x="920.74" y="545.54" width="2.21" height="24.2"/><rect class="cls-28" x="936.23" y="545.54" width="2.21" height="24.2"/><rect class="cls-28" x="949.5" y="545.54" width="2.21" height="24.2"/><rect class="cls-28" x="963.88" y="545.54" width="2.21" height="24.2"/><rect class="cls-28" x="977.16" y="545.54" width="2.21" height="24.2"/><rect class="cls-28" x="990.43" y="545.54" width="2.21" height="24.2"/><polygon class="cls-29" points="1159.12 570.28 1260.88 570.28 1259.78 449.3 1200.05 451.5 1160.22 529.59 1159.12 570.28"/><path class="cls-30" d="M1206.62,571.44c0-13.2,0-27.5,0-27.5l12.32-.86-.14-12.34h39.82v5.5H1273s0-9.53,0-12.09h43.14v47.29Z"/><rect class="cls-31" x="1278.52" y="535.14" width="13.27" height="9.9"/><rect class="cls-31" x="1294.01" y="535.14" width="13.27" height="9.9"/><path class="cls-31" d="M1219.9,540.64v17.6H1252v-17.6Zm28.76,14.3h-25.44v-11h25.44Z"/><rect class="cls-32" x="1268.57" y="517.55" width="50.88" height="11"/><polygon class="cls-11" points="1411.32 571.38 1592.73 571.38 1592.73 327.21 1528.02 327.21 1529.13 467.45 1513.64 464.15 1514.74 419.05 1499.26 419.05 1499.26 389.36 1476.03 399.25 1477.14 469.65 1410.77 508.14 1411.32 571.38"/><path class="cls-33" d="M1573.12,532.92l-29.53-1.17,17.72-25.84Zm-27.49-2.19,25.78,1-10.31-23.58Z"/><polygon class="cls-34" points="1532.44 471.85 1585.54 489.44 1585.54 446.55 1532.44 471.85"/><rect class="cls-33" x="1532.44" y="335.46" width="56.41" height="3.3"/><rect class="cls-33" x="1533.55" y="354.16" width="55.31" height="13.2"/><rect class="cls-33" x="1533.55" y="390.46" width="55.31" height="13.2"/><rect class="cls-35" x="1513.64" y="468.55" width="2.21" height="62.69"/><rect class="cls-35" x="1480.45" y="479.54" width="14.38" height="2.2"/><rect class="cls-35" x="1480.45" y="485.04" width="15.49" height="2.2"/><rect class="cls-35" x="1480.45" y="491.64" width="27.65" height="2.2"/><rect class="cls-35" x="1480.45" y="497.14" width="30.97" height="2.2"/><rect class="cls-35" x="1480.45" y="503.74" width="30.97" height="2.2"/><path class="cls-33" d="M1490.41,411.9a3.85,3.85,0,1,1,3.87-3.85A3.86,3.86,0,0,1,1490.41,411.9Zm0-6.6a2.75,2.75,0,1,0,2.77,2.75A2.77,2.77,0,0,0,1490.41,405.3Z"/><path class="cls-33" d="M1429.57,511.44c1.11-1.1,45.35-27.5,45.35-27.5l-3.31-3.3-44.25,27.5Z"/><path class="cls-33" d="M1442.29,546.09h-17.7v-24.2h17.7ZM1425.7,545h15.49V523H1425.7Z"/><rect class="cls-35" x="1479.35" y="511.44" width="28.76" height="5.5"/><rect class="cls-35" x="1480.45" y="524.64" width="28.76" height="5.5"/><polygon class="cls-4" points="607.15 573.58 777.5 573.58 774.18 283.22 700.62 285.97 700.62 309.07 689.56 316.77 687.35 502.64 608.81 503.74 607.15 573.58"/><rect class="cls-33" x="708.36" y="309.07" width="63.05" height="3.3"/><rect class="cls-33" x="719.42" y="327.76" width="28.76" height="2.2"/><rect class="cls-33" x="719.42" y="380.56" width="26.55" height="2.2"/><rect class="cls-33" x="719.42" y="486.14" width="28.76" height="3.3"/><polygon class="cls-33" points="715.55 492.19 687.35 492.19 687.35 491.09 714.45 491.09 714.45 330.51 689.48 330.31 689.49 329.21 715.55 329.42 715.55 492.19"/><polygon class="cls-10" points="689.37 334.73 710.57 334.36 709.47 485.04 687.35 485.23 689.37 334.73"/><rect class="cls-36" x="690.66" y="336.56" width="17.7" height="13.2"/><rect class="cls-36" x="690.66" y="351.96" width="17.7" height="15.4"/><rect class="cls-36" x="690.66" y="369.56" width="17.7" height="18.7"/><rect class="cls-36" x="690.66" y="390.46" width="17.7" height="17.6"/><rect class="cls-36" x="690.66" y="410.25" width="17.7" height="13.2"/><rect class="cls-36" x="689.56" y="425.65" width="18.8" height="13.2"/><rect class="cls-36" x="689.56" y="441.05" width="18.8" height="12.1"/><rect class="cls-36" x="688.45" y="455.35" width="19.91" height="14.3"/><rect class="cls-36" x="688.45" y="471.85" width="19.91" height="12.1"/><polygon class="cls-33" points="752.05 491.09 776.39 491.09 776.39 489.99 753.01 489.99 753.01 329.41 774.54 329.21 774.54 328.11 752.05 328.32 752.05 491.09"/><polygon class="cls-10" points="774.64 333.63 756.35 333.26 757.3 483.94 776.39 484.13 774.64 333.63"/><rect class="cls-36" x="758.26" y="335.46" width="15.27" height="13.2" transform="translate(1531.79 684.12) rotate(-180)"/><rect class="cls-36" x="758.26" y="350.86" width="15.27" height="15.4" transform="translate(1531.79 717.12) rotate(-180)"/><rect class="cls-36" x="758.26" y="368.46" width="15.27" height="18.7" transform="translate(1531.79 755.62) rotate(-180)"/><rect class="cls-36" x="758.26" y="389.36" width="15.27" height="17.6" transform="translate(1531.79 796.31) rotate(-180)"/><rect class="cls-36" x="758.26" y="409.15" width="15.27" height="13.2" transform="translate(1531.79 831.51) rotate(-180)"/><rect class="cls-36" x="758.26" y="424.55" width="16.22" height="13.2" transform="translate(1532.74 862.3) rotate(-180)"/><rect class="cls-36" x="758.26" y="439.95" width="16.22" height="12.1" transform="translate(1532.74 892) rotate(-180)"/><rect class="cls-36" x="758.26" y="454.25" width="17.18" height="14.3" transform="translate(1533.69 922.79) rotate(-180)"/><rect class="cls-36" x="758.26" y="470.75" width="17.18" height="12.1" transform="translate(1533.69 953.59) rotate(-180)"/><polygon class="cls-33" points="765.33 573.59 764.23 516.39 702.28 516.39 702 573.59 700.9 573.58 701.17 515.29 765.32 515.29 766.43 573.57 765.33 573.59"/><polygon class="cls-33" points="757.86 573.59 757.59 526.3 711.12 527.38 710.02 571.95 708.91 571.92 710.03 526.3 758.69 525.18 758.97 573.58 757.86 573.59"/><rect class="cls-37" x="656.37" y="522.44" width="2.21" height="49.49"/><rect class="cls-37" x="663.01" y="522.44" width="2.21" height="49.49"/><rect class="cls-37" x="668.54" y="522.44" width="2.21" height="49.49"/><rect class="cls-37" x="675.18" y="522.44" width="2.21" height="49.49"/><rect class="cls-37" x="679.6" y="522.44" width="2.21" height="49.49"/><rect class="cls-38" x="500.96" y="368.55" width="42.03" height="129"/><polygon class="cls-39" points="378.18 584.58 613.79 584.58 614.89 408.96 567.88 409.73 567.88 300.94 541.33 332.02 541.33 487.44 511.47 489 511.47 443.93 474.96 443.93 474.96 451.7 452.84 451.7 451.74 272.96 378.73 277.63 378.18 584.58"/><rect class="cls-40" x="385.37" y="285.4" width="63.05" height="77.71"/><path class="cls-41" d="M429.06,478.9h-6.64V468h6.64Zm-5.53-1.56H428v-7.77h-4.42Z"/><path class="cls-41" d="M444.55,472.68H439V461.8h5.54Zm-4.43-1.56h3.32v-7.77h-3.32Z"/><rect class="cls-41" x="503.72" y="428.38" width="2.21" height="15.54"/><rect class="cls-41" x="487.13" y="429.94" width="2.21" height="13.99"/><rect class="cls-41" x="481.6" y="426.83" width="2.21" height="17.1"/><rect class="cls-42" x="544.65" y="369.32" width="19.91" height="1.55"/><rect class="cls-42" x="544.65" y="373.99" width="21.02" height="1.55"/><rect class="cls-42" x="544.65" y="408.18" width="19.91" height="3.11"/><rect class="cls-42" x="547.97" y="417.5" width="61.94" height="3.11"/><path class="cls-42" d="M586.13,457.14H551.84v-28h34.29ZM553,455.58H585V430.72H553Z"/><rect class="cls-42" x="590" y="428.38" width="17.7" height="3.11"/><rect class="cls-42" x="590" y="437.71" width="17.7" height="1.55"/><rect class="cls-42" x="590" y="447.03" width="17.7" height="3.11"/><rect class="cls-42" x="590" y="454.81" width="17.7" height="1.55"/><rect class="cls-42" x="545.76" y="462.58" width="64.16" height="1.55"/><rect class="cls-42" x="545.76" y="471.9" width="66.37" height="3.11"/><rect class="cls-41" x="458.37" y="471.9" width="13.27" height="1.55"/><rect class="cls-41" x="474.96" y="468.79" width="35.4" height="1.55"/><rect class="cls-41" x="474.96" y="453.25" width="1.11" height="73.05"/><rect class="cls-41" x="487.13" y="473.46" width="2.21" height="20.2"/><rect class="cls-41" x="500.41" y="473.46" width="1.11" height="20.2"/><rect class="cls-41" x="479.39" y="482.78" width="5.53" height="9.33"/><rect class="cls-41" x="452.84" y="456.36" width="3.32" height="73.05"/><path class="cls-41" d="M407.49,579.14c1.11,0,65.26-45.07,65.26-45.07l-2.21-4.66-71.9,49.73Z"/><rect class="cls-41" x="459.48" y="489" width="12.17" height="3.11"/><rect class="cls-41" x="459.48" y="510.76" width="12.17" height="3.11"/><polygon class="cls-12" points="122.66 594.48 297.43 594.48 290.79 325.01 255.95 324.46 248.2 199.08 203.96 238.68 207.28 420.15 196.22 419.05 123.21 470.75 122.66 594.48"/><polygon class="cls-13" points="211.7 257.37 244.89 235.38 244.89 212.28 211.7 243.07 211.7 257.37"/><path class="cls-13" d="M244.89,246.37l-34.3,22L215,358.56l34.29-33Zm-25.45,93.49-2.21-70.39,2.21-1.1,2.22,70.39Zm7.75-7.7L225,264s2.22-1.1,2.22,0,2.21,67.09,2.21,67.09Zm11.06-12.09-2.21,2.2v-61.6h2.21Z"/><path class="cls-43" d="M225.5,422.9h-23l24.19,21.65ZM205.4,424h19l1,17.95Z"/><path class="cls-43" d="M206.72,465.25h0v12.69l14.36-1.19,1.13-29.08v-.27l-15.5-13Zm13.72-.45-12.61.41v-10l13,.25Zm-12.61,11.95V466.31l12.57-.41-.38,9.84Zm13.26-28.85-.25,6.43-13-.25V436.74Z"/><polygon class="cls-43" points="150.86 585.68 149.76 585.68 149.76 465.25 160.82 465.25 160.82 459.75 170.69 459.75 169.58 452.05 178.52 452.05 178.52 443.29 193.41 442.15 193.49 443.25 179.62 444.31 179.62 453.15 170.86 453.15 171.96 460.85 161.92 460.85 161.92 466.35 150.86 466.35 150.86 585.68"/><rect class="cls-44" x="219.44" y="493.84" width="9.96" height="13.2"/><rect class="cls-44" x="209.49" y="509.24" width="9.96" height="12.1"/><rect class="cls-15" x="251.52" y="338.76" width="13.27" height="30.8"/><rect class="cls-15" x="268.11" y="336.56" width="12.17" height="39.59"/><rect class="cls-43" x="197.32" y="422.35" width="2.21" height="63.79"/><rect class="cls-43" x="182.94" y="463.05" width="2.21" height="74.79"/><rect class="cls-43" x="175.2" y="469.65" width="2.21" height="61.59"/><rect class="cls-43" x="167.46" y="476.25" width="2.21" height="54.99"/><path class="cls-44" d="M197.32,546.64s35.4,20.89,35.4,19.79-4.43-42.89-4.43-42.89Z"/><polyline class="cls-15" points="255.95 443.25 254.84 435.55 230.51 453.15 230.51 457.55 242.67 457.55 255.95 444.35"/><polygon class="cls-15" points="230.51 443.25 233.82 443.25 252.63 431.15 252.63 427.85 230.51 443.25"/><path class="cls-15" d="M227.19,421.25h2.21v-1.1h22.12V418s-24.33-1.1-24.33,0Z"/><polygon class="cls-15" points="245.99 457.55 255.95 457.55 258.16 448.75 245.99 457.55"/><polygon class="cls-11" points="260.93 594.48 375.96 594.48 375.41 424.55 345.55 413.55 345.55 436.65 331.17 436.65 331.17 468.55 317.89 470.75 317.89 368.46 260.37 368.46 260.93 594.48"/><rect class="cls-45" x="262.58" y="371.76" width="51.99" height="3.3"/><rect class="cls-46" x="263.69" y="386.06" width="51.99" height="8.8"/><rect class="cls-46" x="263.69" y="414.65" width="51.99" height="8.8"/><rect class="cls-45" x="351.08" y="479.54" width="21.02" height="2.2"/><rect class="cls-45" x="349.97" y="483.94" width="22.12" height="2.2"/><rect class="cls-45" x="337.8" y="489.44" width="34.29" height="1.1"/><rect class="cls-45" x="334.48" y="493.84" width="37.61" height="1.1"/><rect class="cls-45" x="336.7" y="499.34" width="36.5" height="1.1"/><rect class="cls-45" x="330.06" y="471.85" width="2.21" height="120.98"/><path class="cls-45" d="M371.54,532.89H338.36v-28.6h33.18Zm-32.08-1.1h31v-26.4h-31Z"/><path class="cls-45" d="M355,430.6a3.89,3.89,0,1,1,4.42-3.85A4.18,4.18,0,0,1,355,430.6Zm0-6.6a2.8,2.8,0,1,0,3.32,2.75A3.08,3.08,0,0,0,355,424Z"/><path class="cls-47" d="M304.67,519.69H279.39L289,500.53Zm-23.49-1.1h21.17l-13.11-16Z"/><path class="cls-45" d="M361,524.09h-17.5l7.5-13.68ZM345.37,523h13.47l-7.7-10.52Z"/><polygon class="cls-48" points="268.12 488.34 314.57 474.05 268.12 456.45 268.12 488.34"/><path class="cls-8" d="M1692.28,600h206.85l-7.74-209-26.55-1.1-1.1-50.6h-12.17v-13.2h-43.14l1.1,62.7h-34.29V285.42h-50.88c-1.11,0,0,116.58,0,116.58h-31Z"/><polygon class="cls-4" points="1815.07 389.91 1850.46 389.91 1849.36 342.61 1813.96 342.61 1815.07 389.91"/><polygon class="cls-4" points="1815.07 339.31 1848.25 340.41 1848.25 332.71 1813.96 329.41 1815.07 339.31"/><polygon class="cls-9" points="1789.57 421.13 1788.55 439.4 1818.16 439.4 1789.57 421.13"/><path class="cls-9" d="M1773.58,399.26v49.49l69.69-2.2Zm15,19.92,33.36,21.32h-34.55Z"/><polygon class="cls-4" points="1782.25 599.98 1842.72 599.98 1842.16 548.84 1781.33 524.64 1782.25 599.98"/><polygon class="cls-10" points="1729.34 471.85 1729.34 598.33 1772.66 599.98 1772.48 511.44 1752.57 472.95 1729.34 471.85"/><polygon class="cls-11" points="1693.02 573.22 1721.6 573.03 1721.6 520.24 1768.05 519.14 1767.13 599.98 1691.73 599.43 1693.02 573.22"/><polygon class="cls-12" points="1842.72 601.08 2017.49 601.08 2010.85 331.61 1976.01 331.06 1968.27 205.68 1924.02 245.28 1927.34 426.75 1916.28 425.65 1843.27 477.35 1842.72 601.08"/><polygon class="cls-13" points="1931.76 263.97 1964.95 241.97 1964.95 218.88 1931.76 249.67 1931.76 263.97"/><path class="cls-13" d="M1965,253l-34.29,22,4.42,90.19,34.29-33Zm-25.44,93.49-2.22-70.39,2.22-1.1,2.21,70.39Zm7.74-7.7L1945,270.57s2.21-1.1,2.21,0,2.21,67.09,2.21,67.09Zm11.06-12.1-2.21,2.2V267.27h2.21Z"/><path class="cls-43" d="M1945.56,429.5h-23l24.19,21.65Zm-20.1,1.1h19l1,17.95Z"/><path class="cls-43" d="M1926.79,471.85h0l0,.55v12.14l14.36-1.19,1.12-29.08V454l-15.49-13Zm13.71-.45-12.61.41v-10l13,.25Zm-12.61,12V472.91l12.57-.41-.38,9.84Zm13.27-28.86-.25,6.44-13-.25V443.34Z"/><polygon class="cls-43" points="1870.92 592.28 1869.82 592.28 1869.82 471.85 1880.88 471.85 1880.88 466.35 1890.75 466.35 1889.65 458.65 1898.58 458.65 1898.58 449.89 1913.47 448.75 1913.55 449.85 1899.68 450.91 1899.68 459.75 1890.92 459.75 1892.03 467.45 1881.99 467.45 1881.99 472.95 1870.92 472.95 1870.92 592.28"/><rect class="cls-44" x="1939.51" y="500.44" width="9.96" height="13.2"/><rect class="cls-44" x="1929.55" y="515.84" width="9.96" height="12.1"/><rect class="cls-15" x="1971.58" y="345.36" width="13.27" height="30.8"/><rect class="cls-15" x="1988.18" y="343.16" width="12.17" height="39.59"/><rect class="cls-43" x="1917.38" y="428.95" width="2.21" height="63.79"/><rect class="cls-43" x="1903" y="469.65" width="2.21" height="74.79"/><rect class="cls-43" x="1895.26" y="476.25" width="2.21" height="61.59"/><rect class="cls-43" x="1887.52" y="482.84" width="2.21" height="54.99"/><path class="cls-44" d="M1917.38,553.24s35.4,20.89,35.4,19.79-4.42-42.89-4.42-42.89Z"/><polyline class="cls-15" points="1976.01 449.85 1974.9 442.15 1950.57 459.75 1950.57 464.15 1962.74 464.15 1976.01 450.95"/><polygon class="cls-15" points="1950.57 449.85 1953.89 449.85 1972.69 437.75 1972.69 434.45 1950.57 449.85"/><path class="cls-15" d="M1947.25,427.85h2.21v-1.1h22.12v-2.2s-24.33-1.1-24.33,0Z"/><polygon class="cls-15" points="1966.05 464.15 1976.01 464.15 1978.22 455.35 1966.05 464.15"/><polygon class="cls-11" points="1961.08 601.08 2076.12 601.08 2075.56 431.15 2045.7 420.15 2045.7 443.25 2031.32 443.25 2031.32 475.14 2018.04 477.35 2018.04 375.06 1960.52 375.06 1961.08 601.08"/><rect class="cls-45" x="1962.74" y="378.36" width="51.99" height="3.3"/><rect class="cls-46" x="1963.84" y="392.66" width="51.99" height="8.8"/><rect class="cls-46" x="1963.84" y="421.25" width="51.99" height="8.8"/><rect class="cls-45" x="2051.23" y="486.14" width="21.02" height="2.2"/><rect class="cls-45" x="2050.12" y="490.54" width="22.12" height="2.2"/><rect class="cls-45" x="2037.95" y="496.04" width="34.29" height="1.1"/><rect class="cls-45" x="2034.64" y="500.44" width="37.61" height="1.1"/><rect class="cls-45" x="2036.85" y="505.94" width="36.5" height="1.1"/><rect class="cls-45" x="2030.21" y="478.44" width="2.21" height="120.98"/><path class="cls-45" d="M2071.69,539.49h-33.18v-28.6h33.18Zm-32.08-1.1h31V512h-31Z"/><path class="cls-45" d="M2055.1,437.2a3.89,3.89,0,1,1,4.42-3.85A4.18,4.18,0,0,1,2055.1,437.2Zm0-6.6a2.8,2.8,0,1,0,3.32,2.75A3.08,3.08,0,0,0,2055.1,430.6Z"/><path class="cls-47" d="M2004.83,526.29h-25.29l9.63-19.16Zm-23.5-1.1h21.17l-13.11-16Z"/><path class="cls-45" d="M2061.16,530.69h-17.5l7.5-13.68Zm-15.64-1.1H2059l-7.7-10.52Z"/><polygon class="cls-48" points="1968.27 494.94 2014.72 480.64 1968.27 463.05 1968.27 494.94"/></g></g><rect class="cls-49" x="-86" y="582" width="1644" height="27"/><path class="cls-50" d="M2177.67,533.59c-29.09,65.06-58.3,130-87.08,195.24-3.44,7.79-7.32,10.55-16,10.54q-402.52-.42-805-.19c-41,0-80.82-9.56-121.24-14.24-16.11-1.87-32.16-4.27-48.25-6.3-7-.87-13.69,0-19.68,4.19-32,22.22-67,18.66-102.11,11.5-11.32-2.3-21.83-7.19-32.46-11.84-26.19-11.45-52.06-13.64-77,4.49-12.9,9.38-27.33,12.61-43.13,7.48a32.92,32.92,0,0,1-14.32-9.26Q710.75,618.08,609.92,511.12c-2-2.11-4.12-4.1-6.18-6.15-1.32-8.53,5.51-7.65,9.53-7.15,16.19,2,32.52.38,48.62,2.19,23.71,2.68,47.53,2.1,71.28,3.43,57.92,3.24,115.92,5.08,173.84,8.83,17.62,1.14,35.32,1.59,52.93,2.05,44.7,1.16,89.36,3.21,134,5.28,60.83,2.83,121.74,3.73,182.52,8.07,22.26,1.59,44.66,1.45,67,2.34,99.88,4,199.84,2.46,299.76,2.42,70.34,0,140.68-1.57,211-2.84,46.16-.83,92.35.19,138.47-1.8,55.47-2.4,111-2.25,166.47-4.09,4.32-.14,8.7-.28,12.95.71C2176.86,525.52,2180.39,527.65,2177.67,533.59Z"/><path class="cls-51" d="M2177.67,533.59c1.14-8.1-4.42-6.54-9-6.44-60.93,1.3-121.85,2.87-182.78,3.83-83.31,1.31-166.64,1.46-249.93,3.38-108.56,2.51-217.13,3.69-325.67.95-81.45-2.06-162.85-6.46-244.29-9.33-40.72-1.44-81.41-3.51-122.11-5.06q-165.39-6.27-330.66-15.2-50.21-2.64-100.45-4.55c-3.07-.12-8.5-3.38-9.08,3.8L575,478.67l2.32-3c29,.77,57.87,4.43,86.8,6.77,23.63,1.9,47.29,3.42,71,4.93,33.35,2.13,66.64,4.91,99.91,8.1,18.93,1.82,37.93,3.15,56.89,4.76,44.76,3.79,89.59,6.72,134.43,9.39,32.66,2,65.25,4.52,97.72,8.38,18.4,2.19,20.42.69,20.62-18.57.17-16.18.12-32.36.49-48.54.36-15.68,2.77-18,18.38-18.26,14.43-.2,28.87-.47,43.28,0,7.78.28,10.08-2.67,9.66-10.21-.53-9.53.2-19.14-.31-28.67-.4-7.45,1.72-10.87,9.6-10.22,7.17.6,14.47-.41,21.62.27,8.45.8,10.57-2.81,10.17-10.78-.54-10.63,0-21.32,0-32,0-2.21,0-4.45,2-6,3.56,3.42,3.27,8,3.41,12.35.23,7.35.23,14.72.07,22.07s3,10.88,10.29,10.65c4-.12,7.93,0,11.9,0,123.74,0,247.48.19,371.22-.24,14.8-.05,25.83,4.22,36.37,15,31.84,32.69,18.27,26.92,63.39,27.05,105,.29,210,.08,314.94.12a273.22,273.22,0,0,0,29.18-1.15q13.18,38.7,26.32,77.42c1.39,4.12,3.2,6.29,8,7.2,9.31,1.76,18.6,1.6,27.91,1.84C2177.78,507.91,2183.92,518.37,2177.67,533.59Z"/><path class="cls-52" d="M2100.3,421.05c-1.79,7-7.42,4.57-11.63,4.58q-98.4.19-196.82.09c-54.8,0-109.6-.12-164.39.14-7,0-12.16-1.94-17-7.16-10.94-11.68-20.72-26.7-34.26-33-14.36-6.72-32.6-1.85-49.14-1.87q-177.36-.19-354.72.18c-10.62,0-13.73-3.11-12.93-13.6.88-11.69.18-23.5.17-35.26v0c5.59-4.69,12.31-3.52,18.7-3.53q116.83-.12,233.67-.05,249.9,0,499.8-.1c16.62,0,33,3.2,49.65,2.5,3.73-.16,7,1.55,10.25,3.17,10.84,24.06,16.87,49.86,25.94,74.56C2098.65,414.74,2099.39,417.93,2100.3,421.05Z"/><path class="cls-51" d="M2071.59,337.13c-270.68-4.07-541.38-.43-812.07-2,.27-4.38-1.52-8.8.21-13.16a6.64,6.64,0,0,1,3-1.07c45-.38,90,.57,135-.17,5.65-.09,11.08,4,16.86.86a12.79,12.79,0,0,1,3.88-1c15.06,1,30.13.24,45.2.4,37.9.91,75.78.21,113.66-.6a9,9,0,0,1,5.09,1.32h-.15c3.24,2.5,7,1.24,10.45,1.26,31.38.11,62.9-1.88,94.09.62,30,2.4,59.71-1.79,84.19.49-9.3,0-23.91,0-38.53,0-5.7,0-9.35-2-8.33-8.35,2.74-17.06,1.17-34.37,3.05-51.47-.44-28.25,1.46-56.4,4.24-84.46.77-7.81-2.75-10.17-8.43-12.13,2.86-3.55,6.94-3.68,10.88-3.74q27-.4,54,0c3.93.06,8,.19,10.9,3.68q5.88,41.76,11.75,83.54c2.72,19.52,5.53,39,7.9,58.6,1.09,9,4.42,12.54,14.27,12.48,71.35-.45,142.7.13,214-.3C2059,321.91,2068.71,322.83,2071.59,337.13Z"/><path class="cls-53" d="M1473.78,180.83c7.47.3,15.16-1.76,22.27,2.23,4,6.69,2.7,14,2.55,21.21-4.1,5.13-9.9,3-15,3.55a3.86,3.86,0,0,0-2,.5,3.38,3.38,0,0,0,.76.22c8.59-.43,14,2.48,14.08,12.22.11,30.33.16,60.67,0,91,0,2.95-.39,5.85-2.29,8.29-4.92,3.21-10.42,1.74-15.66,1.8q-25.15.28-50.33,0c-5-.06-11,.42-8.33-8.08,5.49-13.33,10.86-26.74,15.78-40.32,6.18-12.15,9.55-25.48,15.23-37.85,5.5-12.27,9.38-25.22,15-37.44C1468.38,192.36,1470,186.07,1473.78,180.83Z"/><path class="cls-53" d="M1501.92,180.86l22,0c4,5.18,4.82,11.8,7.88,17.4,4.79,10.84,7.77,22.42,13,33.08,6.57,16.22,12.14,32.87,19.55,48.75,3.53,10.57,7.44,21,11.88,31.19,1.34,3.08,3.93,6.39.19,9.7-22,2.13-44,.52-65.91.9-8.06.14-9.28-5.65-9.51-11.88-.49-13.23-.41-26.48-.14-39.71.4-19.45-1.5-39,1.19-58.32,3.15-7.28,9.66-3.83,14.29-4.79-4-.71-9.06,1.58-13.1-2.36C1500.32,196.93,1500.31,188.94,1501.92,180.86Z"/><path class="cls-54" d="M1503.94,209.6c.11,32.63.67,65.26.06,97.87-.2,10.55,3.26,13,12.82,12.58,16.88-.7,33.8-.12,50.7-.22,3.46,0,7.29,1.2,10.16-2.07-.93-2.37.19-2.78,2.17-2.36l2.55,6.36c-5.8,2.06-11.77,2.47-17.9,2.45-33.8-.14-67.59-.07-101.38-.07-10.89-2.46-21.93-.46-32.88-1.17-4.2-.27-8.54,1.08-12.6-1-.87-.59-2-.88-2.18-2.21q2.2-5.49,4.43-11c2-.48,3-.07,2.2,2.28-2.09,5.83-2,9.16,6,9,21.77-.52,43.55-.19,65.33-.2,2.43-6.74,1-13.73,1-20.58.22-26.11,0-52.23.14-78.35,0-3.92-1.14-8.17,2-11.6C1499.11,207.43,1501.58,207.32,1503.94,209.6Z"/><path class="cls-55" d="M1798.8,167.66l-75.82.06c-5.76-1.74-10-4.9-8.53-11.78s7-7.82,12.63-7.78c21.6.16,43.19.54,64.79.73,5.38,0,10.26,1,12.38,6.74S1802.21,164.39,1798.8,167.66Z"/><path class="cls-56" d="M1415.46,319.72l2.18,2.21c-4.23,2.71-9,2.19-13.62,2.22-48.11.22-96.16-3.83-144.29-2.17,3.23-3.58,7.47-1.94,11.23-2,29.19-.15,58.39-.24,87.59,0,7.6.06,11-1.89,7.93-10.2-1.25-3.38-1.53-7.14-2.15-10.75-1.65-9.78.6-11.95,10.62-10.68a36,36,0,0,0,8.62.13c14.09-1.63,14.08-1.69,17,13.19.57,2.86,1.72,5.7,1.75,8.56C1402.49,319.77,1406.67,322.92,1415.46,319.72Z"/><path class="cls-57" d="M1727.17,264.31c-.6,16.09,1.86,32.26-1.83,48.28-1.38,6,.56,9.66,7.81,9.46,14.41-.41,28.85-.23,43.27,0,3.33.05,7.11-1.46,10.61,2.29-3.08,3.12-6.79,2-10,2-23.44.11-47,1.58-70.31-.27-38.89-3.09-77.74-1-116.6-1.89-2.82-.06-5.88.61-7.86-2.38,33.8,0,67.6-.1,101.39.22,10,.09,20,1.24,29.89,2.31,7.76.84,9.24-2.71,9.85-10C1724.77,297.61,1723.56,280.76,1727.17,264.31Z"/><path class="cls-58" d="M1482.71,156.36l15,.07c1.68,6.72,1.85,13.31-1.77,19.54l-19.89.21c-.86-4.34.77-8.06,2.83-11.67C1480.84,162.12,1480.54,158.64,1482.71,156.36Z"/><path class="cls-59" d="M1495.5,118.69c3.27-3,6.53-3.46,8.35,1.24,3.38,8.72,6.33,17.61,9.45,26.43.84,2.4-.4,3.23-2.51,3.37-3.48-1.9-5-5-4.7-6.91a6.57,6.57,0,0,1-1.95,6.85l-4.23.12C1495.05,139.92,1497.2,129,1495.5,118.69Z"/><path class="cls-60" d="M1504.08,156.54l11-.12c3,6.31,6.31,12.5,6.49,19.77l-17.51-.12Q1497.88,166.31,1504.08,156.54Z"/><path class="cls-61" d="M1495.5,118.69c5.9,9.71,4.25,20.54,4.41,31.1l-4-.21c-5.68-5.64-.92-11.68-1.16-16.43-1.85,5-.85,12.7-7.7,16.65-2.91-.11-3.66-1.48-2.49-4.19C1488.34,136.7,1490.37,127,1495.5,118.69Z"/><path class="cls-62" d="M1562.56,280.26c-8-15.64-13.74-32.21-19.23-48.88a3.48,3.48,0,0,1,2-2c8.13,15.47,13.52,32.08,19.6,48.41A2.9,2.9,0,0,1,1562.56,280.26Z"/><path class="cls-59" d="M1501.92,180.86c4.33,7.62,1.84,15.82,2,23.8-2,2.07-3.93,2-5.93.09-3.84-6.94-1.66-14.42-1.91-21.69Z"/><path class="cls-63" d="M1562.56,280.26l2.36-2.49,14.94,37.62-2.18,2.37C1570.2,306.28,1566.77,293.11,1562.56,280.26Z"/><path class="cls-64" d="M1467.49,198.39c-5.23,12.39-8.53,25.61-15.24,37.39a3.47,3.47,0,0,1-1.91-2.06c3.21-14,9.48-26.75,14.88-39.86C1469.26,193.65,1468.76,195.82,1467.49,198.39Z"/><path class="cls-65" d="M1422.09,311l-2.2-2.28c5.11-12.48,8.18-25.83,15.25-37.49,1.87-.46,3-.17,2,2.14C1433.21,286.39,1428.86,299.21,1422.09,311Z"/><path class="cls-66" d="M1437.14,273.39l-2-2.14c4.51-12.74,7.86-26,15.2-37.53l1.92,2.06C1447.62,248.48,1444,261.61,1437.14,273.39Z"/><path class="cls-67" d="M1504.08,156.54q0,9.77,0,19.54L1496,176c0-6.57-1.53-13.29,1.77-19.54Z"/><path class="cls-68" d="M1545.32,229.36c-.66.68-1.32,1.35-2,2-6.21-10.26-9-21.92-13.14-33.06a3.71,3.71,0,0,1,2.17-2C1538.53,206.54,1541.54,218.11,1545.32,229.36Z"/><path class="cls-69" d="M1487,149.8l7-17.66,1.84.12v17.32Z"/><path class="cls-70" d="M1532.36,196.27l-2.17,2c-4.44-5-6-11-6.31-17.5C1530.81,183.63,1531.79,189.83,1532.36,196.27Z"/><path class="cls-71" d="M1467.49,198.39c-.1-1.85-.45-3.58-2.27-4.53,1.76-5.09,1.84-11.33,8.56-13C1474,187.53,1470.38,192.83,1467.49,198.39Z"/><path class="cls-72" d="M1521.58,176.19c-3.08-6.28-6.4-12.47-6.49-19.77C1520.66,161.85,1525,167.69,1521.58,176.19Z"/><path class="cls-73" d="M1480.49,165.28q-2.21,5.46-4.42,10.9c-5.25-6,.77-10.36,2.21-15.38C1482.25,160.64,1481.75,162.77,1480.49,165.28Z"/><path class="cls-74" d="M1504.14,149.67V137.85c5,3.3,4.28,8.51,6.65,11.88Z"/><path class="cls-75" d="M1480.49,165.28c-.11-1.81-.42-3.52-2.21-4.48a6.76,6.76,0,0,1,4.43-4.44C1482.5,159.47,1483.45,162.88,1480.49,165.28Z"/><path class="cls-76" d="M1638.25,588.86c-47.48,0-82.13.54-116.76-.12-52.57-1-105.16-2-157.67-4.62-33.72-1.7-67.48-2-101.17-4.07-52.06-3.19-104.07-7-156.21-9-36.28-1.4-72.52-4-108.75-6.49-47-3.26-93.9-7.13-140.86-10.41-14-1-28-1.08-42-2.28-33.67-2.87-67.44-4.65-101.16-6.88-3.2-.22-7.32,0-7.3-4.5s4.1-4.56,7.33-4.35c27.27,1.7,54.59,2.95,81.78,5.54,14.7,1.4,29.43,1.7,44.12,2.8q76.38,5.73,152.89,9.86c34.09,1.81,68.18,4.26,102.27,6.34,53.14,3.24,106.26,6.59,159.45,9,30.18,1.4,60.38,2.66,90.56,4.05,48.94,2.25,97.91,3.27,146.86,4.86,87.28,2.84,174.54,1.32,261.8.84,23-.12,46.07-.69,69.11-1.42,49-1.56,97.92-2.68,146.86-4.68,40.6-1.66,81.18-4.18,121.75-6.63,16.85-1,33.65-2.94,50.48-4.22,3.29-.25,8.4-1.27,8.23,4-.13,4.27-4.77,4.71-8.5,4.88-33.77,1.52-67.38,5.3-101.16,7.07-56.09,2.92-112.18,4.88-168.29,7-40.39,1.49-80.8-.43-121.06,2.07C1709,590,1667.2,587.71,1638.25,588.86Z"/><path class="cls-77" d="M1307.26,410h-56.2c-5.29,0-11.15-.33-10.78-7.43.34-6.54,6.28-5.89,10.93-5.89q55.11,0,110.22,0c4.88,0,11.17-1,11.09,6.74s-6.33,6.52-11.23,6.53C1343.28,410,1325.27,410,1307.26,410Z"/><path class="cls-78" d="M1945.17,464.74c-12.24,0-24.48.19-36.71-.11-4.47-.11-10.4.16-10.31-6.73.08-6.3,5.13-7.18,10.12-7.18q36.72,0,73.43,0c4.85,0,10.07.52,10.23,7,.17,6.83-5.35,6.91-10,7-12.23.16-24.47,0-36.71,0Z"/><path class="cls-79" d="M1243.69,450.3c12.25,0,24.51,0,36.76,0,4.57,0,9.4.39,9.58,6.26.19,6.59-5,7.15-9.94,7.13-24.86-.08-49.72-.24-74.58-.33-4.61,0-9.55-.69-9.7-6.26-.16-6.27,5.09-7.19,10.06-7.21,12.61-.05,25.21,0,37.82,0Z"/><path class="cls-79" d="M1596.64,463.7h-37.86c-4.54,0-9.27-.32-9.34-6.42s4.65-6.88,9.15-6.89q37.32-.15,74.63,0c4.86,0,10.12.78,9.89,7.36-.21,6.14-5.29,5.95-9.7,5.95Q1615,463.72,1596.64,463.7Z"/><path class="cls-79" d="M1725.78,520.83H1691.3c-4.66,0-9.14-.92-9.22-6.71s4.3-6.63,9.06-6.62q35,.12,70,0c4.72,0,9.15.68,9.24,6.53s-4.44,6.78-9.07,6.79Q1743.55,520.86,1725.78,520.83Z"/><path class="cls-79" d="M1502.48,410c-11.15,0-22.29,0-33.44,0-4.36,0-8.11-.84-8.25-6.29-.14-5.29,3.3-7,7.75-7q34.53-.06,69,0c4,0,7.44,1.65,7.36,6.21-.08,4.81-3.28,7-7.94,7Z"/><path class="cls-79" d="M1248.3,520.46c-10.41,0-20.82,0-31.23,0-4.55,0-9.17-.3-9.47-6.27s4.08-7,8.76-7q32.31,0,64.62,0c4.65,0,9.1,1,9,6.92s-4.71,6.4-9.33,6.37C1269.84,520.41,1259.07,520.46,1248.3,520.46Z"/><path class="cls-80" d="M1640.46,410.37c-9.74,0-19.47,0-29.21,0-4.37,0-8.35-1.45-8.53-6.42-.22-5.86,4.12-6.92,8.93-6.91q28.66.08,57.34,0c4.43,0,8.25,1,8.43,6.25.19,5.92-4.08,7.09-8.83,7.1C1659.22,410.39,1649.84,410.37,1640.46,410.37Z"/><path class="cls-81" d="M1429.49,463.68c-8.29,0-16.58,0-24.87,0-4.13,0-7.46-1.74-7.77-6-.36-4.94,3.1-7.26,7.63-7.29q24.87-.18,49.75-.05c4.39,0,8.2,1.84,8.34,6.74.14,5.17-3.86,6.53-8.2,6.56C1446.08,463.73,1437.78,463.68,1429.49,463.68Z"/><path class="cls-81" d="M1430.85,520.69c-7.57,0-15.15.08-22.72,0-4.14-.06-7.14-2.18-7.07-6.59s2.84-6.5,7.14-6.49h46.52c4.14,0,7.38,1.95,7.63,6.15.3,4.92-3,7.07-7.69,7.07h-23.81Z"/><path class="cls-82" d="M2030.17,515.49c.23,4-1.12,6.83-6,6.92-5.45.11-6.58-3.12-6.58-7.82,0-5.21,2.39-7.16,7.36-7C2030.49,507.69,2030.18,511.45,2030.17,515.49Z"/><path class="cls-83" d="M1620.62,514.73c.41,4.53-1.67,6.32-6.24,6.34-5.78,0-6-3.57-6.06-7.93,0-5.12,2.88-5.77,7-5.8C1620.58,507.3,1620.82,510.68,1620.62,514.73Z"/><path class="cls-84" d="M1335.58,520.55c-4.65.51-6.36-1.71-6.32-6.36,0-4.31,1-6.88,6-6.88,4.62,0,6.38,1.87,6.31,6.51C1341.46,518.07,1340.61,521.1,1335.58,520.55Z"/><path class="cls-83" d="M1519.78,507.46c4.87-.57,6,2.2,6.06,6.54.1,5-1.76,7.2-6.87,7.08s-5.52-3.24-5.5-7.21C1513.49,509.48,1515.06,506.91,1519.78,507.46Z"/><path class="cls-85" d="M2054.58,514.73c.12,4.1-.18,7.74-5.44,7.58-4.8-.14-5.9-3.23-5.91-7.41s.55-7.28,5.71-7.29S2054.77,510.8,2054.58,514.73Z"/><path class="cls-86" d="M1933.57,513.92c0,4.82,0,8.47-5.32,8.38s-6.32-3.44-6.31-8,1.44-6.73,6.2-6.69C1933.39,507.68,1933.72,511,1933.57,513.92Z"/><path class="cls-87" d="M1897.73,515c0-3.84.14-7.24,5.4-7.32,4.78-.07,6.14,2.29,6.13,6.66s-.73,7.94-6.18,8C1897.83,522.37,1897.67,518.79,1897.73,515Z"/><path class="cls-83" d="M1852.6,516.3c0-4.91-.3-8.62,5.2-8.65,4.58,0,6.39,2,6.41,6.49s-.87,7.92-6.2,8.13S1852.33,519.1,1852.6,516.3Z"/><path class="cls-87" d="M1860.07,451.64c4.83-.44,5.68,2.64,5.67,6.79s-.53,7.12-5.59,7.1-6.94-2.52-6.76-7.39C1853.55,453.77,1855.46,451.42,1860.07,451.64Z"/><path class="cls-88" d="M1885,451.63c4.77-.3,6,2.61,6.16,6.76.16,4.9-1.81,7.34-6.87,7.15s-5.44-3.41-5.46-7.35C1878.83,453.82,1880.39,451.27,1885,451.63Z"/><path class="cls-84" d="M2009.41,514.92c0,3.83,0,7.49-5.34,7.4-4.87-.09-5.86-3.2-5.82-7.29s.72-7.23,5.72-7.37C2009.3,507.52,2009.48,511,2009.41,514.92Z"/><path class="cls-89" d="M1521.05,458.28c-.08-4-.24-7.76,5.21-7.73,4.59,0,6.34,2.27,6.29,6.81,0,4.11-.72,7.26-5.61,7.56S1520.7,462.41,1521.05,458.28Z"/><path class="cls-83" d="M1698.57,458.26c0-4-.29-7.73,5.1-7.7,4.7,0,6,2.64,6,6.9,0,4-.71,7.2-5.53,7.45C1699.15,465.18,1698.28,462.08,1698.57,458.26Z"/><path class="cls-90" d="M1734.38,457.33c.29,4.49-.37,7.79-5.54,7.61-4.72-.15-6-2.92-6-7.23s1.2-7,6-7.17C1734,450.41,1734.73,453.59,1734.38,457.33Z"/><path class="cls-84" d="M1748.53,457.36c-.34-4.2.74-7.05,5.73-6.82s5.29,3.59,5.36,7.51c.08,4.36-1.35,6.94-6,6.9C1748.28,464.91,1748.44,461.14,1748.53,457.36Z"/><path class="cls-87" d="M1802.19,517.16c.18-5.58-.18-9.35,5.21-9.48s6.54,3,6.53,7.58c0,4.25-1.43,6.94-6,7C1802.9,522.43,1802,519.34,1802.19,517.16Z"/><path class="cls-91" d="M1984.33,515.26c.19,4-.83,6.71-5.26,6.66-5.23-.07-5.38-3.68-5.35-7.6,0-3.67.61-6.49,5.25-6.4C1984.27,508,1984.44,511.55,1984.33,515.26Z"/><path class="cls-88" d="M1777.3,450.57c6.65.36,6.73,4,6.75,7.89,0,4.71-2.25,6.81-6.67,6.3-5.09-.59-4.63-4.66-4.63-8.35C1772.75,452.24,1774.92,450.49,1777.3,450.57Z"/><path class="cls-92" d="M1376,450.63c4.84.24,5.37,3.55,5.39,7.51,0,4.41-1.78,6.86-6.23,6.72-5-.15-5.16-3.71-5.22-7.58C1369.9,452.92,1371.36,450.34,1376,450.63Z"/><path class="cls-93" d="M1665.8,507.61c6-.23,4.74,4.14,5,7.59.27,4.25-1.72,5.77-5.78,5.64-5.56-.18-4.75-4.17-4.9-7.74C1659.9,508.83,1662,507.15,1665.8,507.61Z"/><path class="cls-94" d="M1645.39,515.05c.3,4-1.3,6-5.46,5.92-5.08,0-5.43-3.25-5.54-7.2-.12-4.58,1.65-6.48,6.26-6.35C1646.32,507.59,1645.19,511.65,1645.39,515.05Z"/><path class="cls-95" d="M1563.89,507.55c5.13-.66,6.24,2.27,6.07,6.58-.14,3.41-.09,6.59-4.8,6.8-4.47.2-6.72-1.43-6.56-6.21C1558.72,510.9,1558.52,507,1563.89,507.55Z"/><path class="cls-96" d="M1549.87,513.67c.22,4.33-.43,7.09-5,7.27-5.19.21-5.87-2.77-5.79-7,.07-3.62.33-6.48,5.06-6.55C1549.1,507.36,1550.48,509.84,1549.87,513.67Z"/><path class="cls-97" d="M1488.79,513.54c-.61-4.71,1.66-6.3,6.25-6.09s5,3,5.13,6.61c.1,4.35-1.16,6.87-6,6.91C1488.75,521,1488.57,517.64,1488.79,513.54Z"/><path class="cls-98" d="M1391.55,514.31c.38,4.52-1.41,6.69-6.15,6.65-5.5-.05-5.13-3.75-5.26-7.5-.13-4,1.26-6,5.55-6.05C1390.65,507.35,1391.93,510,1391.55,514.31Z"/><path class="cls-98" d="M1445.74,403.08c.38,4.68-.45,7.58-5.53,7.42s-5.27-3.51-5.32-7.36,1-6.11,5.29-6.21C1445.05,396.83,1446.5,399.17,1445.74,403.08Z"/><path class="cls-99" d="M2004.32,457.91c-.19-3.58.64-6.2,5.08-6.27,4.86-.08,5.92,2.66,5.94,6.87s-1,7-5.86,6.93C2004.17,465.38,2004.21,461.8,2004.32,457.91Z"/><path class="cls-100" d="M2060.29,451.72c5.7,0,5.14,4,5.27,7.68.15,4.05-1.6,6-5.7,6-5,0-5.69-3.1-5.7-7.22C2054.14,453.68,2055.81,451.26,2060.29,451.72Z"/><path class="cls-101" d="M2079.78,458.35c-.29-4.22,1-6.9,5.86-6.72,5.26.21,5,3.88,5.11,7.59s-1.15,6.19-5.37,6.23C2080.45,465.5,2079.49,462.52,2079.78,458.35Z"/><path class="cls-98" d="M1190.2,520.43c-5,.64-6.43-1.89-6.38-6.42,0-4.25,1-7,6-7,4.29,0,5.68,2.15,5.54,6.11C1195.17,516.84,1195.79,521,1190.2,520.43Z"/><path class="cls-102" d="M1426.19,402.87c.33,4.8-.7,7.62-5.71,7.64-5.23,0-5.57-3.2-5.55-7.2,0-3.67.52-6.41,5.16-6.37S1427,398.53,1426.19,402.87Z"/><path class="cls-103" d="M1304.39,513.75c-.41-4.46,1.12-6.85,6-6.7,5.24.17,5.38,3.55,5.44,7.47s-1.46,6-5.65,6.07C1305.16,520.73,1304,518.07,1304.39,513.75Z"/><path class="cls-104" d="M1366.1,514c.31,4.3-1,7-5.82,7-5.19,0-5.36-3.39-5.4-7.3s.83-6.21,5.24-6.29C1364.89,507.3,1366.48,509.64,1366.1,514Z"/><path class="cls-99" d="M2035.45,465.4c-6.35-.25-5.53-4.4-5.63-7.94-.12-4,1.6-6.09,5.78-5.73,5.07.44,5.19,4.17,5.11,7.91C2040.63,463.61,2038.57,465.63,2035.45,465.4Z"/><path class="cls-105" d="M2069.46,520.51c-3.44-3.72-3.08-8.21-.56-11.65,2-2.71,6.14-2.09,8.82-.3,3.05,2,2.78,5.94,2,9-1.64,6.21-5.48,6.72-10.22,3a19.61,19.61,0,0,0,4.33-5.3C2071.26,516.79,2071.09,519.23,2069.46,520.51Z"/><path class="cls-91" d="M1883.14,511.78c0,2.2,0,4.41,0,6.61-2.37,3.43-5.76,5-8.62,1.68a8.19,8.19,0,0,1,0-10C1877.38,506.76,1880.78,508.34,1883.14,511.78Z"/><path class="cls-91" d="M1958.65,511.83v6.52c-2.36,3.78-5.66,5.19-8.57,1.4a8.26,8.26,0,0,1,0-9.32C1953,506.74,1956.3,508,1958.65,511.83Z"/><path class="cls-106" d="M1590.33,520.92c-4.91.56-6.36-2-6.3-6.42,0-3.92.26-7.11,5.43-7.19,4.69-.07,6.3,2,6.11,6.49C1595.42,517.6,1595.49,521.34,1590.33,520.92Z"/><path class="cls-107" d="M1883.14,511.78c-2.56-.87-5.29-3.63-7.71-.34a6.2,6.2,0,0,0,0,7.26c2.42,3.21,5.18.58,7.75-.31-1.63,6.86-6.83,5-9.5,2.5-3.22-3-2.49-8.93.27-11.75C1876.27,506.74,1881.83,504.55,1883.14,511.78Z"/><path class="cls-108" d="M1958.65,511.83c-2.48-1.13-5.13-3.62-7.5-.36a6.26,6.26,0,0,0,0,7.17c2.34,3.24,5,.83,7.52-.29-1.46,7.19-6.75,4.94-9.27,2.43-3-3-3-8.82.14-11.71C1951.88,506.91,1957.57,504.26,1958.65,511.83Z"/><path class="cls-109" d="M1837.93,520.8c-3.62,2.6-7.77,3.41-10.3-.58a10.43,10.43,0,0,1,.08-10.54c2.63-3.87,6.78-2.89,10.39-.48l-.73,1.25c-5.51,2.9-6.3,5.93-.24,9.16C1837.4,520,1837.66,520.4,1837.93,520.8Z"/><path class="cls-109" d="M1838.1,509.2c2.3,3.91,2.63,7.78-.18,11.6-.3-.29-.6-.59-.89-.89a8.1,8.1,0,0,1,.06-9.72Z"/><path class="cls-110" d="M2063.15,361.59c3.37,11.31-.08,17.4-11,17.53q-41.37.47-82.77,0c-12.49-.15-17.1-8.55-12.93-22,4.17,2.88,8.23,5.65,13.72,5.56C2001.19,362.17,2032.19,363.89,2063.15,361.59Z"/><path class="cls-111" d="M1703.74,365.86c1.1-16.73,1.1-16.73,16.71-16.09a216.34,216.34,0,0,1,38.57,1.5c12.45,1.64,25,.31,37.41-1.16,14.33.61,14.33.61,15.32,16-3.81,3.47-8.54,3.48-13.2,3.5q-40.87.15-81.74,0C1712.16,369.57,1707.4,369.64,1703.74,365.86Z"/><path class="cls-112" d="M1935.05,359.68c3.67,11-.27,19.13-10.83,19.32q-41.61.74-83.25-.32c-6.82-.18-15.1-2.07-13.65-12.91,4.58-4,10.17-3,15.46-3.08q36.63-.19,73.26,0A51.85,51.85,0,0,0,1935.05,359.68Z"/><path class="cls-113" d="M1703.74,365.86l108,.25c1.81,10.06-5.25,12.52-12.18,12.65-27.34.49-54.71.58-82-.08C1710.73,378.51,1702.46,376.66,1703.74,365.86Z"/><path class="cls-114" d="M1935.05,359.68c.28,5.39-2.55,6.6-7.37,6.56-33.45-.28-66.91-.34-100.36-.47,1.51-15.15,1.51-15.15,16.62-15.5a420.85,420.85,0,0,0,76.13,0C1926.78,350.55,1935,348.37,1935.05,359.68Z"/><path class="cls-114" d="M2063.15,361.59c-.84,5.12-4.69,4.57-8.26,4.57-30.06,0-60.11-.27-90.16.19-7.4.11-8.3-3.54-8.24-9.21,1.09-11.5,10.12-4.76,15.28-6.91a422.34,422.34,0,0,0,76.1,0C2055.77,350.11,2064.26,349.12,2063.15,361.59Z"/><path class="cls-115" d="M2047.87,350.26c-2.74,4.38-7.07,4.5-11.48,4.5-17.67,0-35.33-.11-53,.06-4.62,0-8.5-1.07-11.62-4.59.06-7.33,3.67-10.16,10.82-10.05,18.19.28,36.39.25,54.58,0C2044.23,340.11,2048.05,342.76,2047.87,350.26Z"/><path class="cls-116" d="M1920.07,350.22c-3,3.73-7,4.62-11.56,4.58-17.64-.15-35.29-.08-52.93,0-4.47,0-8.65-.61-11.64-4.49,0-8.09,4.41-10.59,11.73-10.5q26.28.33,52.56,0C1915.55,339.68,1920,342.19,1920.07,350.22Z"/><path class="cls-117" d="M1796.43,350.11c-3,3.79-7,4.71-11.56,4.61q-28-.59-56.07-1.06c-3.38-.06-6.48-.56-8.35-3.89-.26-7.64,3.88-10,10.76-10,18.19.17,36.39.24,54.58,0C1793.11,339.67,1796.28,343,1796.43,350.11Z"/><path class="cls-56" d="M1417.64,321.93c11.81,0,23.61-.07,35.41.07,3.44,0,7.26-1.2,10.07,2.14-11.81,0-23.62.08-35.42-.05C1424.26,324.05,1420.44,325.29,1417.64,321.93Z"/><path class="cls-118" d="M1497.9,209.47c-2.64,3.9-2.14,8.35-2.15,12.71,0,29.57,0,59.15-.15,88.72,0,2.94,2.18,6.89-2.19,8.88,0-31.57-.39-63.15.25-94.72.2-10.23-2-15.24-12.86-13.61-3,.46-6.57,1-9-2.11C1480.51,206,1489.21,205.76,1497.9,209.47Z"/><path class="cls-119" d="M1497.9,209.47l-26.12-.13c.69-5.36,4.77-4.32,8.15-4.39,6-.14,12-.14,18-.2l5.93-.09h22.73l.06,3c-7.18,3.72-15.24.67-22.74,2Z"/><path class="cls-91" d="M2069.46,520.51a4.83,4.83,0,0,1,.07-1.08c1-3.28-2.42-8.72,4-9.25,2.37-.19,3.8,1.88,3.92,4.29.31,6-4.1,5.73-8,6.06Z"/><path class="cls-91" d="M1592.82,513.45c0,3-1,4.56-3.06,4.47-2.86-.11-3.23-2.48-3-4.77.21-2,1.3-3.38,3.55-3S1592.65,512.51,1592.82,513.45Z"/><path class="cls-91" d="M1837.09,510.19l-.06,9.73c-4,.61-8,1.32-8-4.89S1833.11,509.55,1837.09,510.19Z"/><path class="cls-49" d="M1126,1305c-85-108-189-401,55-481s972-128,972-128v576Z"/></g></svg>