<svg id="圖層_1" data-name="圖層 1" xmlns="http://www.w3.org/2000/svg" xmlns:xlink="http://www.w3.org/1999/xlink" viewBox="0 0 2017 1222"><defs><style>.cls-1{fill:none;}.cls-2{clip-path:url(#clip-path);}.cls-3,.cls-7{fill:#4d9cde;}.cls-3{stroke:#a8d3ff;stroke-miterlimit:10;}.cls-4{fill:#7a9ec3;}.cls-5{opacity:0.63;}.cls-6{fill:#b6dbf8;}.cls-8{fill:#c995b7;}.cls-9{fill:#c3e5ff;}.cls-10{fill:#96bde9;}.cls-11{fill:#b8bbd6;}.cls-12{fill:#a1d6ff;}.cls-13{fill:#9ea5d8;}.cls-14{fill:#8288b8;}.cls-15{fill:#b1b5dc;}.cls-16{fill:#c9c6e5;}.cls-17{fill:#7cb9ea;}.cls-18{fill:#b2dafb;}.cls-19{fill:#dfcf7d;}.cls-20{fill:#3d9ae6;}.cls-21{fill:#d5ecfa;}.cls-22{fill:#a0dcff;}.cls-23{fill:#51a5d6;}.cls-24{fill:#97ade6;}.cls-25{fill:#5996c6;}.cls-26{fill:#549bdd;}.cls-27{fill:#aad7fa;}.cls-28{fill:#7eb3eb;}.cls-29{fill:#aedafe;}.cls-30{fill:#d3f1fe;}.cls-31{fill:#d5f2fe;}.cls-32{fill:#d6f3ff;}.cls-33{fill:#917d90;}.cls-34{fill:#5086c5;}.cls-35{fill:#71b5f4;}.cls-36{fill:#1275b5;}.cls-37{fill:#b6d7fa;}.cls-38{fill:#7cbaeb;}.cls-39{fill:#fff;}.cls-40{fill:#0066a7;}.cls-41{fill:#98d4fa;}.cls-42{fill:#a36464;}.cls-43{fill:#b2a0b2;}.cls-44{fill:#558bcb;}.cls-45{fill:#fffbee;}.cls-46{fill:#83abdb;}.cls-47{fill:#cbab55;}.cls-48{fill:#4e77ff;opacity:0.49;}.cls-49{fill:#557f89;}.cls-50{fill:#cfa3b1;}</style><clipPath id="clip-path"><rect class="cls-1" x="-37.35" y="13.31" width="2082.56" height="1237.53"/></clipPath></defs><title>0122</title><g class="cls-2"><path class="cls-3" d="M227.59,477.26V663.41H622.38v-.56h.67v.56H839.76v-.14l87.21-.49,0,.63h141.69v-.71h20v.71h127.15v0h8.48l.61,0v0h73.87v0h783.53v-.71h.61l-.69-16.47-1.13-238.6h-33.91s1.21-150.63,0-150.63h-55.71V390.57H1953.9l1.21-81h-47.23v17.05h-13.32L1893.35,392l-29.06,1.43-2.43,77.23-40.56-33.89-12.11,1.42,3.63-234.47-48.44-51.16-8.48,162-38.15.71-1.17,56.13h-28.5V503.54l-14.53-2.84V459.49h-15.74V429.65l-31.36,13.63-.13-60.52-79.93-4.27-1.21,163.42H1521v-7.1h-7.26V519.17h-2.43v15.64h-3.63V522h-2.42v12.79H1492.5V465.89h-44.2v-33.4l-29.06-28.42v99.47l-13.93-.19V316l-47.84-1.42,1.21-105.16-50.25-14.92-2.8,135.32-9.92-8.15V291.8l-80.53-3.55-3,309.79h-17V159h-5.45V148.29h2.42v-1.42h-63v1.42h2.43V159H1125v54h-36.33V431.07h-55.11V316l-47.83-1.42,1.21-105.16-50.26-14.92-4.15,201.08H833.1l-17.56,32.68v46.18H781.63V582.8l-31.49-72.86-56.28-2.45,2.39-301.65-46-51.16L643.57,316h-40v81.71H584.84V330.89h-10.9V312.42H526.71l-1.82,80.28H489.77V256.29l-56.31.71L431,411.89H390.65l.42-63.95H320.23V505.68H306.3l1.21-63.95-43.59,1.42Zm911.29-329V159H1134V148.29Zm12.11,0V159h-9.69V148.29Zm10.9,0V159h-8.47V148.29Zm13.32,0V159h-10.9V148.29ZM1187.32,159h-9.68V148.29h9.68Z"/><path class="cls-4" d="M1609.79,483l1.12,50.13H1598V398.9h-65.68l.48,60.71h-37.53L1493,338.19l-52.21-.56V444.57h-32.55l-1.69-62.94H1362.8v14.48h-10.11v52.36h-17.4V372.16h-37l-6.17-126.43-42.66,40.1,2.22,237-52.18,1.92-29.19,57.12v-85h-31.44V460.72l-16.28-25.62H1030.4l-3.85-157.62L980,289.17l1.12,82.44-44.34,1.11v90.79H885.66v-171H852V250.18H845.8v-8.35h2.25v-1.11H789.67v1.11h2.24v8.35h-5V594.4H770l-2.75-240.06-74.66,2.79v23.39l-7.43,5.16-1.6-71.8L635.25,331.7l1.17,39.91-44.35,1.11V481.91l-34.24.57V372.29l-26.94,31.48v37h-41v76.35H478.12V502.94h-2.25v14.17h-3.36V499.79h-2.25v17.32h-6.73V525H441.07L440,344l-74.1,4.73-.56,310.89H604.42l.07-11.14H770.58l0-2.79H885.66v-.55h149.87v-.49l80.85.38v.11h89.75v1.17h111.15v-2.17h.55l.07,12.69h366V510.85l-33.69-26.73ZM843.55,241.83v8.35h-4.49v-8.35Zm-6.73,0v8.35h-9v-8.35Zm-11.23,0v8.35h-7.86v-8.35Zm-10.1,0v8.35H805.38v-8.35Zm-21.33,0h9v8.35h-9Z"/><path class="cls-4" d="M332.17,486.35v23.39H317.58V542l-13.48,2.23V440.67H277.68l-1.08-44-35.37-.56-7.86-127-44.9,40.1L191.84,493l-11.23-1.11-38,26.82L140.75,468l-26.94-1.12-1.12-51.24H100.34V402.24H56.55l1.12,63.5H22.87V361H-28.77c-1.13,0,0,118.08,0,118.08H-60.21l-1,187.06-.63,12.9h.56v.55H148.61l-.37-10H363l-.56-172.1Z"/><path class="cls-4" d="M2088.05,504.17,2057.74,493v23.39h-14.6v32.31L2029.67,551V447.36h-6.21l-1.08-44L1987,402.8l-7.86-127-44.91,40.1,3.37,183.8-11.22-1.11L1903,515.09l-1.91-51.58-27-1.11-1.12-51.25h-12.35V397.78h-43.79l1.13,63.5h-34.81V356.57H1731.6c-1.12,0,0,118.08,0,118.08h-31.44l-1,187.05-.64,12.91h.56v.55h152.69v1.12h236.88Z"/><g class="cls-5"><path class="cls-6" d="M-58,674.05H152L144.1,462.4l-26.94-1.12L116,410H103.69V396.67H59.9L61,460.17H26.22V355.45H-25.42c-1.13,0,0,118.09,0,118.09H-56.86Z"/><polygon class="cls-7" points="66.64 461.28 102.56 461.28 101.44 413.38 65.51 413.38 66.64 461.28"/><polygon class="cls-7" points="66.64 410.04 100.32 411.15 100.32 403.36 65.51 400.01 66.64 410.04"/><polygon class="cls-8" points="40.76 492.9 39.72 511.41 69.78 511.41 40.76 492.9"/><path class="cls-8" d="M24.54,470.75v50.13l70.72-2.23Zm15.21,20.18L73.6,512.52H38.54Z"/><polygon class="cls-7" points="33.33 674.05 94.7 674.05 94.14 622.25 32.39 597.74 33.33 674.05"/><polygon class="cls-9" points="-20.37 544.27 -20.37 672.38 23.6 674.05 23.41 584.38 3.21 545.39 -20.37 544.27"/><polygon class="cls-10" points="-57.23 646.94 -28.23 646.76 -28.23 593.29 18.92 592.17 17.99 674.05 -58.54 673.49 -57.23 646.94"/><polygon class="cls-6" points="1411.62 439 1444.17 439 1444.17 332.06 1496.38 332.62 1498.62 454.04 1560.37 454.04 1574.97 527.56 1614.26 527.56 1613.14 477.43 1653.55 478.55 1687.23 505.28 1687.23 651.21 1321.24 651.21 1320.12 442.9 1356.04 442.9 1356.04 390.54 1366.15 390.54 1366.15 376.06 1409.93 376.06 1411.62 439"/><polygon class="cls-7" points="1687.23 531.46 1682.18 531.46 1682.18 520.32 1670.95 520.32 1670.95 509.14 1658 508.07 1658.09 506.96 1672.08 508.11 1672.08 519.21 1683.31 519.21 1683.31 530.35 1687.23 530.35 1687.23 531.46"/><polygon class="cls-7" points="1621 506.4 1643.45 481.89 1622.12 481.89 1621 506.4"/><polygon class="cls-7" points="1626.61 553.18 1643.45 553.18 1642.33 497.49 1626.61 513.08 1626.61 553.18"/><polygon class="cls-8" points="1376.25 497.49 1445.86 500.83 1445.86 450.7 1376.25 497.49"/><path class="cls-6" d="M1398.86,492.55l35.27-21.73-1.21,20.52Zm34-19.65L1403,491.28l28.81-1Z"/><rect class="cls-7" x="1371.76" y="381.63" width="33.68" height="8.91"/><rect class="cls-7" x="1370.64" y="393.89" width="34.8" height="49.01"/><rect class="cls-7" x="1617.63" y="577.69" width="11.23" height="17.82"/><rect class="cls-7" x="1626.61" y="598.86" width="13.47" height="17.82"/><rect class="cls-7" x="1650.19" y="480.78" width="2.25" height="85.78"/><rect class="cls-7" x="1681.62" y="553.18" width="2.25" height="95.8"/><rect class="cls-7" x="1673.76" y="548.73" width="2.25" height="95.8"/><rect class="cls-7" x="1665.9" y="545.39" width="2.25" height="95.8"/><polygon class="cls-11" points="1338.64 638.4 1338.64 366.59 1301.59 366.59 1295.42 240.16 1252.76 280.26 1256.12 638.96 1338.64 638.4"/><polygon class="cls-12" points="1258.37 301.43 1293.17 276.92 1293.17 251.3 1257.24 284.72 1258.37 301.43"/><polygon class="cls-12" points="1257.24 310.34 1260.61 402.8 1297.66 367.15 1293.17 286.94 1257.24 310.34"/><path class="cls-13" d="M1272.36,491.87l1.19-29.49,41.61,1.18Zm2.26-28.35-1,26.21,38-25.16Z"/><polygon class="cls-13" points="1272.96 500.83 1272.96 517.54 1316.75 514.2 1315.63 469.64 1272.96 500.83"/><polygon class="cls-11" points="1263.98 310.34 1266.23 310.34 1269.6 382.75 1267.35 384.97 1263.98 310.34"/><polygon class="cls-11" points="1271.84 305.88 1274.09 305.88 1276.33 374.95 1274.09 376.06 1271.84 305.88"/><path class="cls-11" d="M1283.07,302.54s1.12-1.11,1.12,0,1.12,62.38,1.12,62.38h-2.24Z"/><path class="cls-11" d="M1276.61,508.14,1306,488.73l2.44,18.2Zm28.47-17.49-24.54,16.23,26.59-1Z"/><rect class="cls-14" x="1299.91" y="382.75" width="12.35" height="36.76"/><rect class="cls-14" x="1315.63" y="379.4" width="13.47" height="38.99"/><rect class="cls-9" x="1119.72" y="491.36" width="53.89" height="148.16"/><polygon class="cls-15" points="1142.17 639.52 1142.17 455.15 1125.89 429.53 1030.46 429.53 1024.85 442.9 1024.85 638.96 1142.17 639.52"/><rect class="cls-16" x="1040.57" y="446.24" width="13.47" height="17.82"/><rect class="cls-16" x="1054.6" y="467.97" width="12.35" height="16.71"/><polygon class="cls-17" points="771.12 638.96 770 588.83 790.21 588.83 790.21 244.61 855.32 244.61 855.32 286.94 889 286.94 889 640.07 771.12 640.07 771.12 638.96"/><rect class="cls-18" x="795.82" y="253.53" width="55.01" height="28.96"/><rect class="cls-18" x="795.82" y="296.97" width="88.69" height="2.23"/><rect class="cls-18" x="795.82" y="303.65" width="88.69" height="2.23"/><rect class="cls-18" x="794.7" y="360.47" width="88.69" height="2.23"/><rect class="cls-18" x="794.7" y="413.94" width="88.69" height="2.23"/><rect class="cls-18" x="795.82" y="466.29" width="88.69" height="2.23"/><rect class="cls-18" x="795.82" y="559.87" width="88.69" height="2.23"/><rect class="cls-18" x="795.82" y="567.67" width="88.69" height="2.23"/><rect class="cls-18" x="795.82" y="588.83" width="88.69" height="2.23"/><polygon class="cls-18" points="793.01 235.15 793.01 236.26 795.26 236.26 795.26 245.17 797.5 245.17 797.5 236.26 806.49 236.26 806.49 245.17 808.73 245.17 808.73 236.26 818.84 236.26 818.84 245.17 821.08 245.17 821.08 236.26 828.94 236.26 828.94 245.17 831.19 245.17 831.19 236.26 840.17 236.26 840.17 245.17 842.41 245.17 842.41 236.26 846.9 236.26 846.9 245.17 849.15 245.17 849.15 236.26 851.39 236.26 851.39 235.15 793.01 235.15"/><rect class="cls-19" x="807.05" y="423.96" width="19.09" height="22.28"/><rect class="cls-19" x="845.22" y="423.96" width="19.09" height="22.28"/><rect class="cls-19" x="805.93" y="317.02" width="19.09" height="22.28"/><rect class="cls-19" x="844.1" y="317.02" width="19.09" height="22.28"/><rect class="cls-18" x="801.43" y="479.66" width="78.59" height="70.18"/><polygon class="cls-9" points="1029.9 271.91 1038.88 639.52 940.09 639.52 940.09 367.15 984.43 366.04 983.31 283.6 1029.9 271.91"/><rect class="cls-20" x="990.05" y="284.72" width="12.35" height="7.8"/><rect class="cls-20" x="1004.64" y="284.72" width="12.35" height="7.8"/><rect class="cls-20" x="990.05" y="294.74" width="12.35" height="10.03"/><rect class="cls-20" x="1004.64" y="294.74" width="12.35" height="10.03"/><rect class="cls-21" x="984.43" y="398.34" width="13.47" height="17.82"/><rect class="cls-21" x="972.08" y="376.06" width="13.47" height="17.82"/><polygon class="cls-9" points="686.87 308.31 694.22 639.52 595.42 639.52 595.42 367.15 639.77 366.04 638.6 326.13 686.87 308.31"/><rect class="cls-20" x="649.82" y="327.24" width="12.35" height="7.8"/><rect class="cls-20" x="664.42" y="327.24" width="12.35" height="7.8"/><rect class="cls-20" x="649.82" y="337.27" width="12.35" height="10.03"/><rect class="cls-20" x="664.42" y="337.27" width="12.35" height="10.03"/><rect class="cls-21" x="639.77" y="398.34" width="13.47" height="17.82"/><rect class="cls-21" x="627.42" y="376.06" width="13.47" height="17.82"/><rect class="cls-22" x="854.76" y="457.94" width="94.31" height="181.58"/><rect class="cls-23" x="864.31" y="469.64" width="84.2" height="33.42"/><rect class="cls-24" x="877.78" y="478.55" width="70.73" height="13.37"/><rect class="cls-25" x="857.57" y="513.08" width="88.69" height="3.34"/><path class="cls-25" d="M947.38,567.67v-3.35h-5.61V523.11h4.49v-3.35H857.57v3.35h4.49v117h2.25V634.5h82v-3.34h-82v-7.8h83.07V620H864.31V577.69h19.08v41.22h2.25V577.69h15.71v41.22h2.25V577.69h16.84v41.22h2.24V577.69h16.85v41.22h2.24V577.69h5.61v-3.34H864.31v-6.68Zm-7.85-44.56v41.21H922.68V523.11Zm-19.09,0v41.21H903.6V523.11Zm-19.09,0v41.21H885.64V523.11Zm-18,0v41.21H864.31V523.11Z"/><rect class="cls-26" x="907.53" y="518.09" width="103.29" height="121.42"/><rect class="cls-27" x="909.21" y="534.25" width="97.67" height="2.23"/><rect class="cls-27" x="919.32" y="542.04" width="2.25" height="24.51"/><rect class="cls-27" x="935.03" y="542.04" width="2.25" height="24.51"/><rect class="cls-27" x="948.51" y="542.04" width="2.25" height="24.51"/><rect class="cls-27" x="963.1" y="542.04" width="2.25" height="24.51"/><rect class="cls-27" x="976.57" y="542.04" width="2.25" height="24.51"/><rect class="cls-27" x="990.05" y="542.04" width="2.25" height="24.51"/><rect class="cls-27" x="909.21" y="572.12" width="97.67" height="2.23"/><rect class="cls-27" x="919.32" y="579.92" width="2.25" height="24.51"/><rect class="cls-27" x="935.03" y="579.92" width="2.25" height="24.51"/><rect class="cls-27" x="948.51" y="579.92" width="2.25" height="24.51"/><rect class="cls-27" x="963.1" y="579.92" width="2.25" height="24.51"/><rect class="cls-27" x="976.57" y="579.92" width="2.25" height="24.51"/><rect class="cls-27" x="990.05" y="579.92" width="2.25" height="24.51"/><rect class="cls-27" x="909.21" y="606.65" width="97.67" height="2.23"/><rect class="cls-27" x="919.32" y="614.45" width="2.25" height="24.51"/><rect class="cls-27" x="935.03" y="614.45" width="2.25" height="24.51"/><rect class="cls-27" x="948.51" y="614.45" width="2.25" height="24.51"/><rect class="cls-27" x="963.1" y="614.45" width="2.25" height="24.51"/><rect class="cls-27" x="976.57" y="614.45" width="2.25" height="24.51"/><rect class="cls-27" x="990.05" y="614.45" width="2.25" height="24.51"/><polygon class="cls-28" points="1161.26 639.52 1264.54 639.52 1263.42 516.98 1202.8 519.21 1162.38 598.3 1161.26 639.52"/><path class="cls-29" d="M1209.47,640.69c0-13.37,0-27.85,0-27.85L1222,612l-.14-12.5h40.42V605h14.59s.05-9.66,0-12.25h43.79v47.9Z"/><rect class="cls-30" x="1282.45" y="603.93" width="13.47" height="10.03"/><rect class="cls-30" x="1298.16" y="603.93" width="13.47" height="10.03"/><path class="cls-30" d="M1222.94,609.5v17.82h32.56V609.5ZM1252.13,624h-25.82V612.84h25.82Z"/><rect class="cls-31" x="1272.34" y="586.1" width="51.64" height="11.14"/><polygon class="cls-10" points="1417.23 640.63 1601.35 640.63 1601.35 393.33 1535.67 393.33 1536.79 535.36 1521.08 532.02 1522.2 486.35 1506.48 486.35 1506.48 456.27 1482.9 466.29 1484.03 537.59 1416.67 576.58 1417.23 640.63"/><path class="cls-32" d="M1581.45,601.68l-30-1.19,18-26.17Zm-27.9-2.23,26.16,1-10.47-23.88Z"/><polygon class="cls-33" points="1540.16 539.82 1594.05 557.64 1594.05 514.2 1540.16 539.82"/><rect class="cls-32" x="1540.16" y="401.68" width="57.26" height="3.34"/><rect class="cls-32" x="1541.28" y="420.62" width="56.13" height="13.37"/><rect class="cls-32" x="1541.28" y="457.38" width="56.13" height="13.37"/><rect class="cls-34" x="1521.08" y="536.47" width="2.25" height="63.5"/><rect class="cls-34" x="1487.4" y="547.61" width="14.59" height="2.23"/><rect class="cls-34" x="1487.4" y="553.18" width="15.72" height="2.23"/><rect class="cls-34" x="1487.4" y="559.87" width="28.07" height="2.23"/><rect class="cls-34" x="1487.4" y="565.44" width="31.44" height="2.23"/><rect class="cls-34" x="1487.4" y="572.12" width="31.44" height="2.23"/><path class="cls-32" d="M1497.5,479.1a3.9,3.9,0,1,1,3.93-3.89A3.91,3.91,0,0,1,1497.5,479.1Zm0-6.68a2.79,2.79,0,1,0,2.81,2.79A2.8,2.8,0,0,0,1497.5,472.42Z"/><path class="cls-32" d="M1435.75,579.92c1.13-1.11,46-27.85,46-27.85l-3.37-3.34-44.9,27.85Z"/><path class="cls-32" d="M1448.66,615h-18V590.5h18Zm-16.84-1.11h15.72V591.62h-15.72Z"/><rect class="cls-34" x="1486.27" y="579.92" width="29.19" height="5.57"/><rect class="cls-34" x="1487.4" y="593.29" width="29.19" height="5.57"/><polygon class="cls-7" points="601.03 642.86 773.93 642.86 770.56 348.77 695.9 351.56 695.9 374.95 684.67 382.75 682.43 571.01 602.72 572.12 601.03 642.86"/><rect class="cls-32" x="703.76" y="374.95" width="63.99" height="3.34"/><rect class="cls-32" x="714.99" y="393.89" width="29.19" height="2.23"/><rect class="cls-32" x="714.99" y="447.36" width="26.94" height="2.23"/><rect class="cls-32" x="714.99" y="554.3" width="29.19" height="3.34"/><polygon class="cls-32" points="711.06 560.42 682.43 560.42 682.43 559.31 709.94 559.31 709.94 396.67 684.6 396.46 684.61 395.35 711.06 395.56 711.06 560.42"/><polygon class="cls-9" points="684.49 400.94 706.01 400.57 704.88 553.18 682.43 553.37 684.49 400.94"/><rect class="cls-35" x="685.8" y="402.8" width="17.96" height="13.37"/><rect class="cls-35" x="685.8" y="418.39" width="17.96" height="15.6"/><rect class="cls-35" x="685.8" y="436.22" width="17.96" height="18.94"/><rect class="cls-35" x="685.8" y="457.38" width="17.96" height="17.82"/><rect class="cls-35" x="685.8" y="477.43" width="17.96" height="13.37"/><rect class="cls-35" x="684.68" y="493.03" width="19.09" height="13.37"/><rect class="cls-35" x="684.68" y="508.63" width="19.09" height="12.25"/><rect class="cls-35" x="683.55" y="523.11" width="20.21" height="14.48"/><rect class="cls-35" x="683.55" y="539.82" width="20.21" height="12.25"/><polygon class="cls-32" points="748.11 559.31 772.81 559.31 772.81 558.2 749.08 558.2 749.08 395.55 770.93 395.35 770.93 394.23 748.11 394.45 748.11 559.31"/><polygon class="cls-9" points="771.03 399.83 752.47 399.46 753.43 552.07 772.81 552.26 771.03 399.83"/><rect class="cls-35" x="754.4" y="401.68" width="15.5" height="13.37" transform="translate(1524.3 816.74) rotate(-180)"/><rect class="cls-35" x="754.4" y="417.28" width="15.5" height="15.6" transform="translate(1524.3 850.15) rotate(-180)"/><rect class="cls-35" x="754.4" y="435.1" width="15.5" height="18.94" transform="translate(1524.3 889.14) rotate(-180)"/><rect class="cls-35" x="754.4" y="456.27" width="15.5" height="17.82" transform="translate(1524.3 930.36) rotate(-180)"/><rect class="cls-35" x="754.4" y="476.32" width="15.5" height="13.37" transform="translate(1524.3 966.01) rotate(-180)"/><rect class="cls-35" x="754.4" y="491.92" width="16.47" height="13.37" transform="translate(1525.27 997.2) rotate(-180)"/><rect class="cls-35" x="754.4" y="507.51" width="16.47" height="12.25" transform="translate(1525.27 1027.28) rotate(-180)"/><rect class="cls-35" x="754.4" y="521.99" width="17.43" height="14.48" transform="translate(1526.24 1058.47) rotate(-180)"/><rect class="cls-35" x="754.4" y="538.7" width="17.43" height="12.25" transform="translate(1526.24 1089.66) rotate(-180)"/><polygon class="cls-32" points="761.58 642.87 760.47 584.93 697.58 584.93 697.3 642.86 696.18 642.86 696.47 583.82 761.57 583.82 762.7 642.85 761.58 642.87"/><polygon class="cls-32" points="754 642.86 753.72 594.97 706.55 596.06 705.45 641.2 704.32 641.17 705.46 594.97 754.84 593.83 755.12 642.86 754 642.86"/><rect class="cls-36" x="650.99" y="591.06" width="2.25" height="50.13"/><rect class="cls-36" x="657.73" y="591.06" width="2.25" height="50.13"/><rect class="cls-36" x="663.34" y="591.06" width="2.25" height="50.13"/><rect class="cls-36" x="670.08" y="591.06" width="2.25" height="50.13"/><rect class="cls-36" x="674.57" y="591.06" width="2.25" height="50.13"/><rect class="cls-37" x="493.26" y="435.19" width="42.66" height="130.65"/><polygon class="cls-38" points="368.64 654 607.77 654 608.89 476.12 561.18 476.91 561.18 366.72 534.24 398.2 534.24 555.62 503.92 557.19 503.92 511.54 466.87 511.54 466.87 519.41 444.42 519.41 443.3 338.38 369.2 343.11 368.64 654"/><rect class="cls-39" x="375.94" y="350.98" width="63.99" height="78.71"/><path class="cls-40" d="M420.28,547h-6.73v-11h6.73Zm-5.61-1.58h4.49v-7.87h-4.49Z"/><path class="cls-40" d="M436,540.66h-5.61v-11H436Zm-4.49-1.57h3.37v-7.87h-3.37Z"/><rect class="cls-40" x="496.06" y="495.8" width="2.25" height="15.74"/><rect class="cls-40" x="479.22" y="497.37" width="2.25" height="14.17"/><rect class="cls-40" x="473.61" y="494.22" width="2.25" height="17.32"/><rect class="cls-41" x="537.6" y="435.98" width="20.21" height="1.57"/><rect class="cls-41" x="537.6" y="440.7" width="21.33" height="1.57"/><rect class="cls-41" x="537.6" y="475.33" width="20.21" height="3.15"/><rect class="cls-41" x="540.97" y="484.78" width="62.87" height="3.15"/><path class="cls-41" d="M579.7,524.92H544.9V496.58h34.8ZM546,523.34h32.56V498.16H546Z"/><rect class="cls-41" x="583.63" y="495.8" width="17.96" height="3.15"/><rect class="cls-41" x="583.63" y="505.24" width="17.96" height="1.57"/><rect class="cls-41" x="583.63" y="514.69" width="17.96" height="3.15"/><rect class="cls-41" x="583.63" y="522.56" width="17.96" height="1.57"/><rect class="cls-41" x="538.73" y="530.43" width="65.12" height="1.57"/><rect class="cls-41" x="538.73" y="539.87" width="67.36" height="3.15"/><rect class="cls-40" x="450.03" y="539.87" width="13.47" height="1.57"/><rect class="cls-40" x="466.87" y="536.72" width="35.93" height="1.57"/><rect class="cls-40" x="466.87" y="520.98" width="1.12" height="73.98"/><rect class="cls-40" x="479.22" y="541.45" width="2.25" height="20.46"/><rect class="cls-40" x="492.7" y="541.45" width="1.12" height="20.46"/><rect class="cls-40" x="471.36" y="550.89" width="5.61" height="9.44"/><rect class="cls-40" x="444.42" y="524.13" width="3.37" height="73.98"/><path class="cls-40" d="M398.39,648.49c1.12,0,66.24-45.65,66.24-45.65l-2.25-4.72-73,50.37Z"/><rect class="cls-40" x="451.16" y="557.19" width="12.35" height="3.15"/><rect class="cls-40" x="451.16" y="579.23" width="12.35" height="3.15"/><polygon class="cls-11" points="109.3 664.02 286.68 664.02 279.95 391.1 244.58 390.54 236.72 263.55 191.82 303.65 195.18 487.46 183.96 486.35 109.86 538.7 109.3 664.02"/><polygon class="cls-12" points="199.68 322.59 233.35 300.31 233.35 276.92 199.68 308.11 199.68 322.59"/><path class="cls-12" d="M233.36,311.45l-34.81,22.28L203,425.08l34.81-33.42Zm-25.83,94.69-2.24-71.29,2.24-1.12,2.25,71.3Zm7.86-7.8-2.24-69.06s2.24-1.12,2.24,0,2.25,68,2.25,68Zm11.23-12.25-2.25,2.23V325.93h2.25Z"/><path class="cls-42" d="M213.68,490.24H190.35l24.56,21.93Zm-20.4,1.12h19.34l1,18.18Z"/><path class="cls-42" d="M194.62,533.13h0l0,.56V546l14.58-1.2,1.14-29.46v-.27l-15.73-13.21Zm13.92-.45-12.79.42V522.93l13.16.26Zm-12.79,12.1V534.21l12.75-.41-.39,10Zm13.46-29.22-.25,6.51-13.21-.25V504.26Z"/><polygon class="cls-42" points="137.93 655.11 136.8 655.11 136.8 533.13 148.03 533.13 148.03 527.56 158.05 527.56 156.93 519.76 165.99 519.76 165.99 510.89 181.11 509.74 181.19 510.85 167.12 511.93 167.12 520.88 158.22 520.88 159.34 528.68 149.15 528.68 149.15 534.25 137.93 534.25 137.93 655.11"/><rect class="cls-43" x="207.53" y="562.1" width="10.1" height="13.37"/><rect class="cls-43" x="197.43" y="577.69" width="10.1" height="12.25"/><rect class="cls-14" x="240.09" y="405.03" width="13.47" height="31.19"/><rect class="cls-14" x="256.93" y="402.8" width="12.35" height="40.1"/><rect class="cls-42" x="185.08" y="489.69" width="2.25" height="64.61"/><rect class="cls-42" x="170.48" y="530.9" width="2.25" height="75.75"/><rect class="cls-42" x="162.63" y="537.59" width="2.25" height="62.38"/><rect class="cls-42" x="154.77" y="544.27" width="2.25" height="55.7"/><path class="cls-43" d="M185.08,615.57s35.93,21.16,35.93,20-4.49-43.45-4.49-43.45Z"/><polyline class="cls-14" points="244.58 510.85 243.46 503.06 218.76 520.88 218.76 525.34 231.11 525.34 244.58 511.97"/><polygon class="cls-14" points="218.76 510.85 222.13 510.85 241.21 498.6 241.21 495.26 218.76 510.85"/><path class="cls-14" d="M215.39,488.57h2.25v-1.11h22.45v-2.23s-24.7-1.11-24.7,0Z"/><polygon class="cls-14" points="234.48 525.34 244.58 525.34 246.83 516.42 234.48 525.34"/><polygon class="cls-10" points="249.63 664.02 366.39 664.02 365.83 491.92 335.52 480.78 335.52 504.17 320.93 504.17 320.93 536.47 307.45 538.7 307.45 435.1 249.07 435.1 249.63 664.02"/><rect class="cls-44" x="251.32" y="438.45" width="52.77" height="3.34"/><rect class="cls-45" x="252.44" y="452.93" width="52.77" height="8.91"/><rect class="cls-45" x="252.44" y="481.89" width="52.77" height="8.91"/><rect class="cls-44" x="341.13" y="547.61" width="21.33" height="2.23"/><rect class="cls-44" x="340.01" y="552.07" width="22.45" height="2.23"/><rect class="cls-44" x="327.66" y="557.64" width="34.8" height="1.11"/><rect class="cls-44" x="324.29" y="562.1" width="38.17" height="1.11"/><rect class="cls-44" x="326.54" y="567.67" width="37.05" height="1.11"/><rect class="cls-44" x="319.8" y="539.82" width="2.25" height="122.54"/><path class="cls-44" d="M361.9,601.64H328.22v-29H361.9Zm-32.55-1.11h31.43V573.79H329.35Z"/><path class="cls-44" d="M345.06,498c-2.47,0-4.49-1.75-4.49-3.9s2-3.9,4.49-3.9,4.49,1.75,4.49,3.9S347.54,498,345.06,498Zm0-6.68c-1.85,0-3.37,1.25-3.37,2.78a3.43,3.43,0,1,0,3.37-2.78Z"/><path class="cls-46" d="M294,588.27H268.37l9.78-19.4Zm-23.85-1.11h21.49l-13.3-16.24Z"/><path class="cls-44" d="M351.22,592.73H333.45l7.62-13.85Zm-15.88-1.11H349L341.2,581Z"/><polygon class="cls-47" points="256.93 556.53 304.08 542.04 256.93 524.22 256.93 556.53"/><path class="cls-6" d="M1702.39,669.59h209.94l-7.86-211.65-26.94-1.11-1.12-51.25h-12.35V392.22h-43.79l1.13,63.49h-34.81V351H1735c-1.12,0,0,118.08,0,118.08h-31.44Z"/><polygon class="cls-7" points="1827.01 456.83 1862.93 456.83 1861.81 408.93 1825.89 408.93 1827.01 456.83"/><polygon class="cls-7" points="1827.01 405.58 1860.69 406.7 1860.69 398.9 1825.89 395.56 1827.01 405.58"/><polygon class="cls-8" points="1801.13 488.44 1800.1 506.95 1830.15 506.95 1801.13 488.44"/><path class="cls-8" d="M1784.91,466.29v50.13l70.73-2.22Zm15.21,20.18,33.85,21.6h-35.06Z"/><polygon class="cls-7" points="1793.7 669.59 1855.08 669.59 1854.51 617.79 1792.77 593.29 1793.7 669.59"/><polygon class="cls-9" points="1740 539.82 1740 667.92 1783.97 669.59 1783.79 579.92 1763.58 540.93 1740 539.82"/><polygon class="cls-10" points="1703.14 642.49 1732.14 642.3 1732.14 588.83 1779.3 587.72 1778.36 669.59 1701.83 669.04 1703.14 642.49"/><polygon class="cls-11" points="1855.08 670.71 2032.46 670.71 2025.72 397.79 1990.36 397.23 1982.5 270.24 1937.59 310.34 1940.96 494.14 1929.73 493.03 1855.64 545.39 1855.08 670.71"/><polygon class="cls-12" points="1945.45 329.28 1979.13 307 1979.13 283.6 1945.45 314.79 1945.45 329.28"/><path class="cls-12" d="M1979.13,318.14l-34.8,22.28,4.49,91.34,34.8-33.42Zm-25.82,94.68-2.24-71.29,2.24-1.11,2.25,71.29Zm7.86-7.79L1958.92,336s2.25-1.11,2.25,0,2.25,68,2.25,68Zm11.23-12.26-2.25,2.23V332.62h2.25Z"/><path class="cls-42" d="M1959.45,496.93h-23.32l24.55,21.92ZM1939.06,498h19.33l1,18.18Z"/><path class="cls-42" d="M1940.4,539.82h0l0,.55v12.3l14.58-1.2,1.14-29.46v-.27l-15.73-13.2Zm13.92-.45-12.8.41V529.62l13.17.25Zm-12.8,12.1V540.89l12.76-.41-.39,10ZM1955,522.24l-.26,6.52-13.21-.26V510.94Z"/><polygon class="cls-42" points="1883.7 661.8 1882.58 661.8 1882.58 539.82 1893.81 539.82 1893.81 534.25 1903.83 534.25 1902.7 526.45 1911.77 526.45 1911.77 517.58 1926.88 516.42 1926.97 517.53 1912.89 518.61 1912.89 527.56 1904 527.56 1905.12 535.36 1894.93 535.36 1894.93 540.93 1883.7 540.93 1883.7 661.8"/><rect class="cls-43" x="1953.31" y="568.78" width="10.1" height="13.37"/><rect class="cls-43" x="1943.21" y="584.38" width="10.1" height="12.25"/><rect class="cls-14" x="1985.87" y="411.71" width="13.47" height="31.19"/><rect class="cls-14" x="2002.71" y="409.48" width="12.35" height="40.1"/><rect class="cls-42" x="1930.86" y="496.37" width="2.25" height="64.61"/><rect class="cls-42" x="1916.26" y="537.59" width="2.25" height="75.75"/><rect class="cls-42" x="1908.4" y="544.27" width="2.25" height="62.38"/><rect class="cls-42" x="1900.54" y="550.96" width="2.25" height="55.7"/><path class="cls-43" d="M1930.86,622.25s35.92,21.17,35.92,20-4.49-43.44-4.49-43.44Z"/><polyline class="cls-14" points="1990.36 517.54 1989.24 509.74 1964.54 527.56 1964.54 532.02 1976.89 532.02 1990.36 518.65"/><polygon class="cls-14" points="1964.54 517.54 1967.91 517.54 1986.99 505.28 1986.99 501.94 1964.54 517.54"/><path class="cls-14" d="M1961.17,495.26h2.25v-1.12h22.45v-2.22s-24.7-1.12-24.7,0Z"/><polygon class="cls-14" points="1980.26 532.02 1990.36 532.02 1992.61 523.11 1980.26 532.02"/><polygon class="cls-10" points="1975.2 670.71 2091.96 670.71 2091.4 498.6 2061.09 487.46 2061.09 510.85 2046.49 510.85 2046.49 543.16 2033.02 545.39 2033.02 441.79 1974.64 441.79 1975.2 670.71"/><rect class="cls-44" x="1976.89" y="445.13" width="52.77" height="3.34"/><rect class="cls-45" x="1978.01" y="459.61" width="52.77" height="8.91"/><rect class="cls-45" x="1978.01" y="488.57" width="52.77" height="8.91"/><path class="cls-46" d="M2019.61,595h-25.67l9.78-19.4Zm-23.85-1.12h21.49l-13.31-16.24Z"/><polygon class="cls-47" points="1982.5 563.21 2029.65 548.73 1982.5 530.9 1982.5 563.21"/></g><rect class="cls-48" x="-60.97" y="685.86" width="2170.65" height="436.76"/><path class="cls-49" d="M2273.36,926c-90-5.29-1200.1-67.58-2491.58,0h-2l-9.34.57v307.59H2276V926Z"/><path class="cls-50" d="M2128.68,1173.36c-34.32-.6-380.52-20.92-688.33-23.19-12.3-.09-189.85-310.34-639.43-183-98.38,27.87-212,196.59-212,196.59h0c-405.57-2.2-102.33.4-691.5,9.59h-1.78l-8.36.15v82.08H2131v-82.23Z"/><rect class="cls-49" x="-83.01" y="657.66" width="2174.97" height="47.51"/></g><rect class="cls-1" x="-52" y="6" width="2115" height="1292" rx="12" ry="12"/><rect class="cls-1" x="-47.81" y="18.53" width="2103.49" height="1246.93"/></svg>