<svg id="圖層_1" data-name="圖層 1" xmlns="http://www.w3.org/2000/svg" xmlns:xlink="http://www.w3.org/1999/xlink" viewBox="0 0 2017 1222"><defs><style>.cls-1{fill:none;}.cls-2{clip-path:url(#clip-path);}.cls-3{opacity:0.8;fill:url(#未命名漸層_81);}.cls-4,.cls-8{fill:#4d9cde;}.cls-4{stroke:#a8d3ff;stroke-miterlimit:10;}.cls-5{fill:#7a9ec3;}.cls-6{opacity:0.63;}.cls-7{fill:#b6dbf8;}.cls-9{fill:#c995b7;}.cls-10{fill:#c3e5ff;}.cls-11{fill:#96bde9;}.cls-12{fill:#b8bbd6;}.cls-13{fill:#a1d6ff;}.cls-14{fill:#9ea5d8;}.cls-15{fill:#8288b8;}.cls-16{fill:#b1b5dc;}.cls-17{fill:#c9c6e5;}.cls-18{fill:#7cb9ea;}.cls-19{fill:#b2dafb;}.cls-20{fill:#dfcf7d;}.cls-21{fill:#3d9ae6;}.cls-22{fill:#d5ecfa;}.cls-23{fill:#a0dcff;}.cls-24{fill:#51a5d6;}.cls-25{fill:#97ade6;}.cls-26{fill:#5996c6;}.cls-27{fill:#549bdd;}.cls-28{fill:#aad7fa;}.cls-29{fill:#7eb3eb;}.cls-30{fill:#aedafe;}.cls-31{fill:#d3f1fe;}.cls-32{fill:#d5f2fe;}.cls-33{fill:#d6f3ff;}.cls-34{fill:#917d90;}.cls-35{fill:#5086c5;}.cls-36{fill:#71b5f4;}.cls-37{fill:#1275b5;}.cls-38{fill:#b6d7fa;}.cls-39{fill:#7cbaeb;}.cls-40{fill:#fff;}.cls-41{fill:#0066a7;}.cls-42{fill:#98d4fa;}.cls-43{fill:#a36464;}.cls-44{fill:#b2a0b2;}.cls-45{fill:#558bcb;}.cls-46{fill:#fffbee;}.cls-47{fill:#83abdb;}.cls-48{fill:#cbab55;}.cls-49{fill:#4e77ff;opacity:0.49;}.cls-50{fill:#557f89;}.cls-51{fill:#cfa3b1;}</style><clipPath id="clip-path"><rect class="cls-1" x="-4" y="-12" width="2021" height="1237.16" rx="12" ry="12"/></clipPath><linearGradient id="未命名漸層_81" x1="2171.41" y1="329.54" x2="-3.6" y2="174.71" gradientUnits="userSpaceOnUse"><stop offset="0" stop-color="#cce0f4"/><stop offset="0.06" stop-color="#cee0eb"/><stop offset="0.17" stop-color="#d5e0d1"/><stop offset="0.31" stop-color="#dfe1a8"/><stop offset="0.47" stop-color="#eee16e"/><stop offset="0.64" stop-color="#ffe22a"/><stop offset="1" stop-color="#fff915"/></linearGradient></defs><title>0122</title><g class="cls-2"><rect class="cls-3" x="-28.56" y="-49.86" width="2178.59" height="600.67"/><path class="cls-4" d="M265.16,448.25V626.5H642.41V626h.64v.53H850.13v-.13l83.33-.47,0,.6h135.4v-.68h19.09v.68h949.49v-.67h.58l-.65-15.76-1.08-228.48h-32.4s1.15-144.24,0-144.24h-53.23V365.25h-35.88l1.16-77.56h-45.13V304h-12.73l-1.16,62.59L1829.12,368l-2.32,74L1788,409.47l-11.57,1.36,3.47-224.51-46.29-49-8.1,155.12-36.45.68L1688,346.88h-27.23V473.42l-13.89-2.72V431.24h-15V402.67l-30,13.05-.12-58-76.38-4.09-1.15,156.48h-23.15v-6.8h-6.94v-15h-2.32v15h-3.47V491.11H1486v12.25h-12.15v-66h-42.24v-32l-27.77-27.21v95.24l-13.31-.18V293.81l-45.71-1.36L1346,191.76l-48-14.29L1295.29,307l-9.48-7.8V270.67l-77-3.4L1206,563.91h-16.23V143.46h-5.2V133.25h2.31v-1.36H1126.7v1.36H1129v10.21h-6.36v51.7h-34.72V404h-52.65V293.81l-45.71-1.36,1.16-100.69-48-14.29-4,192.54h-95L827,401.31v44.22h-32.4V549.32l-30.09-69.77-53.78-2.34L713,188.36l-44-49-6.36,154.44H624.47v78.24H606.53V308.1H596.12V290.41H551l-1.74,76.88H515.69V236.66l-53.81.68-2.31,148.32H421l.41-61.23H353.69v151H340.38l1.16-61.24-41.66,1.37Zm870.79-315v10.21h-4.62V133.25Zm11.58,0v10.21h-9.26V133.25Zm10.41,0v10.21h-8.1V133.25Zm12.73,0v10.21h-10.41V133.25Zm11.57,10.21H1173V133.25h9.25Z"/><path class="cls-5" d="M1585.93,453.76l1.07,48h-12.33V373.22h-62.76l.46,58.14h-35.86l-2.15-116.27-49.88-.54V417h-31.11l-1.61-60.27h-41.84v13.86h-9.66v50.14h-16.63V347.62h-35.4l-5.9-121.07L1241.57,265l2.12,227-49.86,1.84-27.9,54.69V467.09h-30V432.42l-15.56-24.53h-88L1028.62,257l-44.52,11.2,1.07,78.94-42.38,1.06v86.94H894V271.35H861.8V230.82h-5.9v-8H858v-1.07H802.26v1.07h2.14v8h-4.82V560.43H783.43L780.8,330.55l-71.34,2.67v22.4l-7.1,4.95-1.53-68.76L654.7,308.87l1.12,38.22-42.37,1.06V452.71l-32.72.54V347.74L555,377.89v35.42H515.82v73.1H504.56V472.85h-2.15v13.56H499.2V469.83h-2.15v16.58h-6.44V494H469.16l-1.08-173.34-70.8,4.52-.54,297.7H625.25l.07-10.67H784l0-2.67H894V609H1037.2v-.47l77.25.37v.1h85.77v1.12h106.2V608h.53l.07,12.15h349.72V480.42l-32.18-25.6ZM853.75,222.82v8h-4.29v-8Zm-6.43,0v8h-8.59v-8Zm-10.73,0v8h-7.51v-8Zm-9.66,0v8h-9.65v-8Zm-20.38,0h8.58v8h-8.58Z"/><path class="cls-5" d="M365.1,457v22.4h-14v30.93l-12.87,2.13v-99.2H313l-1-42.13-33.79-.54L270.69,249l-42.91,38.4,3.22,176-10.73-1.07L184,488l-1.8-48.62-25.75-1.07-1.07-49.07h-11.8v-12.8H101.73l1.07,60.8H69.54V337H20.19c-1.07,0,0,113.07,0,113.07h-30l-1,179.12-.61,12.35h.54V642H189.7l-.36-9.6H394.6l-.54-164.81Z"/><path class="cls-5" d="M2042.94,474l-29-10.66v22.4H2000v30.93l-12.88,2.13v-99.2h-5.93l-1-42.13-33.79-.53-7.51-121.61L1896,293.75l3.22,176-10.73-1.07-22.31,15.8-1.83-49.4L1838.57,434,1837.5,385h-11.8v-12.8h-41.84l1.07,60.8h-33.25V332.69h-49.35c-1.07,0,0,113.07,0,113.07h-30l-1,179.11-.61,12.36h.54v.53h145.9v1.07h226.36Z"/><g class="cls-6"><path class="cls-7" d="M-7.72,636.69H192.9L185.39,434,159.64,433l-1.07-49.07h-11.8v-12.8H104.93l1.07,60.8H72.74V331.62H23.39c-1.07,0,0,113.07,0,113.07h-30Z"/><polygon class="cls-8" points="111.36 432.96 145.69 432.96 144.62 387.09 110.29 387.09 111.36 432.96"/><polygon class="cls-8" points="111.36 383.89 143.55 384.95 143.55 377.49 110.29 374.29 111.36 383.89"/><polygon class="cls-9" points="86.64 463.23 85.65 480.96 114.36 480.96 86.64 463.23"/><path class="cls-9" d="M71.13,442v48l67.59-2.13Zm14.54,19.33L118,482H84.51Z"/><polygon class="cls-8" points="79.54 636.69 138.18 636.69 137.65 587.09 78.64 563.63 79.54 636.69"/><polygon class="cls-10" points="28.22 512.42 28.22 635.09 70.24 636.69 70.06 550.83 50.75 513.49 28.22 512.42"/><polygon class="cls-11" points="-7 610.74 20.71 610.56 20.71 559.36 65.77 558.29 64.88 636.69 -8.25 636.16 -7 610.74"/><polygon class="cls-7" points="1396.57 411.62 1427.68 411.62 1427.68 309.22 1477.56 309.75 1479.71 426.02 1538.71 426.02 1552.66 496.42 1590.2 496.42 1589.13 448.42 1627.75 449.49 1659.93 475.09 1659.93 614.83 1310.21 614.83 1309.13 415.36 1343.46 415.36 1343.46 365.22 1353.12 365.22 1353.12 351.36 1394.96 351.36 1396.57 411.62"/><polygon class="cls-8" points="1659.93 500.16 1655.11 500.16 1655.11 489.49 1644.38 489.49 1644.38 478.78 1632 477.75 1632.09 476.69 1645.45 477.8 1645.45 488.42 1656.18 488.42 1656.18 499.09 1659.93 499.09 1659.93 500.16"/><polygon class="cls-8" points="1596.64 476.16 1618.1 452.69 1597.71 452.69 1596.64 476.16"/><polygon class="cls-8" points="1602 520.96 1618.1 520.96 1617.02 467.62 1602 482.56 1602 520.96"/><polygon class="cls-9" points="1362.77 467.62 1429.29 470.82 1429.29 422.82 1362.77 467.62"/><path class="cls-7" d="M1384.38,462.89l33.7-20.8-1.16,19.65Zm32.51-18.8-28.52,17.6,27.53-1Z"/><rect class="cls-8" x="1358.48" y="356.69" width="32.18" height="8.53"/><rect class="cls-8" x="1357.41" y="368.42" width="33.26" height="46.93"/><rect class="cls-8" x="1593.42" y="544.43" width="10.73" height="17.07"/><rect class="cls-8" x="1602" y="564.69" width="12.87" height="17.07"/><rect class="cls-8" x="1624.53" y="451.62" width="2.15" height="82.13"/><rect class="cls-8" x="1654.57" y="520.96" width="2.15" height="91.74"/><rect class="cls-8" x="1647.06" y="516.69" width="2.15" height="91.74"/><rect class="cls-8" x="1639.55" y="513.49" width="2.15" height="91.74"/><polygon class="cls-12" points="1326.83 602.56 1326.83 342.29 1291.43 342.29 1285.53 221.22 1244.77 259.62 1247.98 603.09 1326.83 602.56"/><polygon class="cls-13" points="1250.13 279.89 1283.39 256.42 1283.39 231.89 1249.06 263.89 1250.13 279.89"/><polygon class="cls-13" points="1249.06 288.42 1252.28 376.95 1287.68 342.82 1283.39 266.02 1249.06 288.42"/><path class="cls-14" d="M1263.5,462.25l1.13-28.24,39.77,1.13Zm2.16-27.15-1,25.1L1301,436.11Z"/><polygon class="cls-14" points="1264.08 470.82 1264.08 486.82 1305.91 483.62 1304.84 440.96 1264.08 470.82"/><polygon class="cls-12" points="1255.49 288.42 1257.64 288.42 1260.86 357.75 1258.71 359.89 1255.49 288.42"/><polygon class="cls-12" points="1263 284.15 1265.15 284.15 1267.29 350.29 1265.15 351.36 1263 284.15"/><path class="cls-12" d="M1273.73,281s1.07-1.06,1.07,0,1.08,59.74,1.08,59.74h-2.15Z"/><path class="cls-12" d="M1267.56,477.83l28-18.59,2.34,17.43Zm27.21-16.76-23.45,15.55,25.4-1Z"/><rect class="cls-15" x="1289.82" y="357.75" width="11.8" height="35.2"/><rect class="cls-15" x="1304.84" y="354.55" width="12.87" height="37.33"/><rect class="cls-10" x="1117.64" y="461.76" width="51.49" height="141.87"/><polygon class="cls-16" points="1139.1 603.63 1139.1 427.09 1123.54 402.56 1032.35 402.56 1026.99 415.36 1026.99 603.09 1139.1 603.63"/><rect class="cls-17" x="1042.01" y="418.56" width="12.87" height="17.07"/><rect class="cls-17" x="1055.42" y="439.36" width="11.8" height="16"/><polygon class="cls-18" points="784.54 603.09 783.47 555.09 802.78 555.09 802.78 225.49 865 225.49 865 266.02 897.18 266.02 897.18 604.16 784.54 604.16 784.54 603.09"/><rect class="cls-19" x="808.14" y="234.02" width="52.57" height="27.73"/><rect class="cls-19" x="808.14" y="275.62" width="84.75" height="2.13"/><rect class="cls-19" x="808.14" y="282.02" width="84.75" height="2.13"/><rect class="cls-19" x="807.07" y="336.42" width="84.75" height="2.13"/><rect class="cls-19" x="807.07" y="387.62" width="84.75" height="2.13"/><rect class="cls-19" x="808.14" y="437.76" width="84.75" height="2.13"/><rect class="cls-19" x="808.14" y="527.36" width="84.75" height="2.13"/><rect class="cls-19" x="808.14" y="534.82" width="84.75" height="2.13"/><rect class="cls-19" x="808.14" y="555.09" width="84.75" height="2.13"/><polygon class="cls-19" points="805.46 216.42 805.46 217.49 807.6 217.49 807.6 226.02 809.75 226.02 809.75 217.49 818.33 217.49 818.33 226.02 820.48 226.02 820.48 217.49 830.13 217.49 830.13 226.02 832.28 226.02 832.28 217.49 839.79 217.49 839.79 226.02 841.93 226.02 841.93 217.49 850.51 217.49 850.51 226.02 852.66 226.02 852.66 217.49 856.95 217.49 856.95 226.02 859.1 226.02 859.1 217.49 861.24 217.49 861.24 216.42 805.46 216.42"/><rect class="cls-20" x="818.87" y="397.22" width="18.24" height="21.33"/><rect class="cls-20" x="855.34" y="397.22" width="18.24" height="21.33"/><rect class="cls-20" x="817.8" y="294.82" width="18.24" height="21.33"/><rect class="cls-20" x="854.27" y="294.82" width="18.24" height="21.33"/><rect class="cls-19" x="813.5" y="450.56" width="75.1" height="67.2"/><polygon class="cls-10" points="1031.82 251.62 1040.4 603.63 945.99 603.63 945.99 342.82 988.37 341.75 987.3 262.82 1031.82 251.62"/><rect class="cls-21" x="993.73" y="263.89" width="11.8" height="7.47"/><rect class="cls-21" x="1007.68" y="263.89" width="11.8" height="7.47"/><rect class="cls-21" x="993.73" y="273.49" width="11.8" height="9.6"/><rect class="cls-21" x="1007.68" y="273.49" width="11.8" height="9.6"/><rect class="cls-22" x="988.37" y="372.69" width="12.87" height="17.07"/><rect class="cls-22" x="976.57" y="351.35" width="12.87" height="17.07"/><polygon class="cls-10" points="704.03 286.47 711.05 603.63 616.65 603.63 616.65 342.82 659.02 341.75 657.9 303.54 704.03 286.47"/><rect class="cls-21" x="668.63" y="304.61" width="11.8" height="7.47"/><rect class="cls-21" x="682.58" y="304.61" width="11.8" height="7.47"/><rect class="cls-21" x="668.63" y="314.21" width="11.8" height="9.6"/><rect class="cls-21" x="682.58" y="314.21" width="11.8" height="9.6"/><rect class="cls-22" x="659.02" y="372.69" width="12.87" height="17.07"/><rect class="cls-22" x="647.22" y="351.35" width="12.87" height="17.07"/><rect class="cls-23" x="864.46" y="429.76" width="90.11" height="173.87"/><rect class="cls-24" x="873.58" y="440.96" width="80.46" height="32"/><rect class="cls-25" x="886.45" y="449.49" width="67.59" height="12.8"/><rect class="cls-26" x="867.14" y="482.56" width="84.75" height="3.2"/><path class="cls-26" d="M953,534.82v-3.2H947.6V492.16h4.29V489H867.14v3.2h4.29v112h2.15v-5.33h78.31v-3.2H873.58v-7.47H953V585H873.58V544.43h18.24v39.46H894V544.43h15v39.46h2.15V544.43h16.09v39.46h2.15V544.43h16.09v39.46h2.14V544.43H953v-3.21H873.58v-6.4Zm-7.51-42.66v39.46H929.37V492.16Zm-18.24,0v39.46H911.13V492.16Zm-18.24,0v39.46H894V492.16Zm-17.16,0v39.46H873.58V492.16Z"/><rect class="cls-27" x="914.88" y="487.36" width="98.7" height="116.27"/><rect class="cls-28" x="916.49" y="502.82" width="93.33" height="2.13"/><rect class="cls-28" x="926.15" y="510.29" width="2.15" height="23.47"/><rect class="cls-28" x="941.17" y="510.29" width="2.15" height="23.47"/><rect class="cls-28" x="954.04" y="510.29" width="2.15" height="23.47"/><rect class="cls-28" x="967.99" y="510.29" width="2.15" height="23.47"/><rect class="cls-28" x="980.86" y="510.29" width="2.15" height="23.47"/><rect class="cls-28" x="993.73" y="510.29" width="2.15" height="23.47"/><rect class="cls-28" x="916.49" y="539.09" width="93.33" height="2.13"/><rect class="cls-28" x="926.15" y="546.56" width="2.15" height="23.47"/><rect class="cls-28" x="941.17" y="546.56" width="2.15" height="23.47"/><rect class="cls-28" x="954.04" y="546.56" width="2.15" height="23.47"/><rect class="cls-28" x="967.99" y="546.56" width="2.15" height="23.47"/><rect class="cls-28" x="980.86" y="546.56" width="2.15" height="23.47"/><rect class="cls-28" x="993.73" y="546.56" width="2.15" height="23.47"/><rect class="cls-28" x="916.49" y="572.16" width="93.33" height="2.13"/><rect class="cls-28" x="926.15" y="579.63" width="2.15" height="23.47"/><rect class="cls-28" x="941.17" y="579.63" width="2.15" height="23.47"/><rect class="cls-28" x="954.04" y="579.63" width="2.15" height="23.47"/><rect class="cls-28" x="967.99" y="579.63" width="2.15" height="23.47"/><rect class="cls-28" x="980.86" y="579.63" width="2.15" height="23.47"/><rect class="cls-28" x="993.73" y="579.63" width="2.15" height="23.47"/><polygon class="cls-29" points="1157.33 603.63 1256.03 603.63 1254.96 486.29 1197.03 488.42 1158.41 564.16 1157.33 603.63"/><path class="cls-30" d="M1203.41,604.75c0-12.8,0-26.67,0-26.67l11.95-.83-.13-12h38.62v5.33h13.94s0-9.25,0-11.73h41.84v45.87Z"/><rect class="cls-31" x="1273.14" y="569.55" width="12.87" height="9.6"/><rect class="cls-31" x="1288.16" y="569.55" width="12.87" height="9.6"/><path class="cls-31" d="M1216.28,574.88V592h31.11V574.88Zm27.89,13.87H1219.5V578.08h24.67Z"/><rect class="cls-32" x="1263.48" y="552.48" width="49.35" height="10.67"/><polygon class="cls-11" points="1401.93 604.69 1577.87 604.69 1577.87 367.89 1515.11 367.89 1516.18 503.89 1501.16 500.69 1502.23 456.96 1487.22 456.96 1487.22 428.16 1464.69 437.76 1465.76 506.02 1401.39 543.36 1401.93 604.69"/><path class="cls-33" d="M1558.85,567.39l-28.64-1.14,17.19-25.06Zm-26.66-2.13,25,1-10-22.87Z"/><polygon class="cls-34" points="1519.4 508.16 1570.89 525.23 1570.89 483.62 1519.4 508.16"/><rect class="cls-33" x="1519.4" y="375.89" width="54.71" height="3.2"/><rect class="cls-33" x="1520.47" y="394.02" width="53.64" height="12.8"/><rect class="cls-33" x="1520.47" y="429.22" width="53.64" height="12.8"/><rect class="cls-35" x="1501.16" y="504.96" width="2.15" height="60.8"/><rect class="cls-35" x="1468.98" y="515.62" width="13.95" height="2.13"/><rect class="cls-35" x="1468.98" y="520.96" width="15.02" height="2.13"/><rect class="cls-35" x="1468.98" y="527.36" width="26.82" height="2.13"/><rect class="cls-35" x="1468.98" y="532.69" width="30.04" height="2.13"/><rect class="cls-35" x="1468.98" y="539.09" width="30.04" height="2.13"/><path class="cls-33" d="M1478.63,450a3.73,3.73,0,1,1,3.76-3.73A3.74,3.74,0,0,1,1478.63,450Zm0-6.4a2.67,2.67,0,1,0,2.69,2.67A2.68,2.68,0,0,0,1478.63,443.62Z"/><path class="cls-33" d="M1419.63,546.56c1.07-1.07,44-26.67,44-26.67l-3.21-3.2-42.92,26.67Z"/><path class="cls-33" d="M1432,580.16H1414.8V556.69H1432Zm-16.09-1.07h15V557.76h-15Z"/><rect class="cls-35" x="1467.91" y="546.56" width="27.89" height="5.33"/><rect class="cls-35" x="1468.98" y="559.36" width="27.89" height="5.33"/><polygon class="cls-8" points="622.01 606.83 787.22 606.83 784 325.22 712.66 327.89 712.66 350.29 701.93 357.75 699.79 538.02 623.62 539.09 622.01 606.83"/><rect class="cls-33" x="720.17" y="350.29" width="61.15" height="3.2"/><rect class="cls-33" x="730.9" y="368.42" width="27.89" height="2.13"/><rect class="cls-33" x="730.9" y="419.62" width="25.75" height="2.13"/><rect class="cls-33" x="730.9" y="522.02" width="27.89" height="3.2"/><polygon class="cls-33" points="727.14 527.89 699.79 527.89 699.79 526.83 726.07 526.83 726.07 371.08 701.86 370.89 701.87 369.82 727.14 370.03 727.14 527.89"/><polygon class="cls-10" points="701.75 375.18 722.32 374.82 721.24 520.96 699.79 521.14 701.75 375.18"/><rect class="cls-36" x="703.01" y="376.96" width="17.16" height="12.8"/><rect class="cls-36" x="703.01" y="391.89" width="17.16" height="14.93"/><rect class="cls-36" x="703.01" y="408.96" width="17.16" height="18.13"/><rect class="cls-36" x="703.01" y="429.22" width="17.16" height="17.07"/><rect class="cls-36" x="703.01" y="448.42" width="17.16" height="12.8"/><rect class="cls-36" x="701.93" y="463.36" width="18.24" height="12.8"/><rect class="cls-36" x="701.93" y="478.29" width="18.24" height="11.73"/><rect class="cls-36" x="700.86" y="492.16" width="19.31" height="13.87"/><rect class="cls-36" x="700.86" y="508.16" width="19.31" height="11.73"/><polygon class="cls-33" points="762.55 526.83 786.15 526.83 786.15 525.76 763.47 525.76 763.47 370.02 784.36 369.82 784.35 368.75 762.55 368.96 762.55 526.83"/><polygon class="cls-10" points="784.45 374.11 766.71 373.75 767.64 519.89 786.15 520.07 784.45 374.11"/><rect class="cls-36" x="768.56" y="375.89" width="14.81" height="12.8" transform="translate(1551.93 764.58) rotate(-180)"/><rect class="cls-36" x="768.56" y="390.82" width="14.81" height="14.93" transform="translate(1551.93 796.58) rotate(-180)"/><rect class="cls-36" x="768.56" y="407.89" width="14.81" height="18.13" transform="translate(1551.93 833.91) rotate(-180)"/><rect class="cls-36" x="768.56" y="428.16" width="14.81" height="17.07" transform="translate(1551.93 873.38) rotate(-180)"/><rect class="cls-36" x="768.56" y="447.36" width="14.81" height="12.8" transform="translate(1551.93 907.51) rotate(-180)"/><rect class="cls-36" x="768.56" y="462.29" width="15.73" height="12.8" transform="translate(1552.86 937.38) rotate(-180)"/><rect class="cls-36" x="768.56" y="477.22" width="15.73" height="11.73" transform="translate(1552.86 966.18) rotate(-180)"/><rect class="cls-36" x="768.56" y="491.09" width="16.66" height="13.87" transform="translate(1553.78 996.05) rotate(-180)"/><rect class="cls-36" x="768.56" y="507.09" width="16.66" height="11.73" transform="translate(1553.78 1025.92) rotate(-180)"/><polygon class="cls-33" points="775.42 606.84 774.36 551.36 714.27 551.36 714 606.83 712.93 606.82 713.2 550.29 775.41 550.29 776.49 606.82 775.42 606.84"/><polygon class="cls-33" points="768.18 606.83 767.91 560.97 722.84 562.01 721.78 605.24 720.71 605.21 721.79 560.97 768.98 559.88 769.25 606.82 768.18 606.83"/><rect class="cls-37" x="669.75" y="557.23" width="2.15" height="48"/><rect class="cls-37" x="676.19" y="557.23" width="2.15" height="48"/><rect class="cls-37" x="681.55" y="557.23" width="2.15" height="48"/><rect class="cls-37" x="687.99" y="557.23" width="2.15" height="48"/><rect class="cls-37" x="692.28" y="557.23" width="2.15" height="48"/><rect class="cls-38" x="519.02" y="407.97" width="40.77" height="125.11"/><polygon class="cls-39" points="399.94 617.49 628.45 617.49 629.52 447.17 583.93 447.92 583.93 342.41 558.18 372.55 558.18 523.28 529.22 524.79 529.22 481.08 493.81 481.08 493.81 488.62 472.36 488.62 471.28 315.27 400.48 319.8 399.94 617.49"/><rect class="cls-40" x="406.92" y="327.33" width="61.15" height="75.37"/><path class="cls-41" d="M449.29,515h-6.43V504.44h6.43Zm-5.36-1.5h4.29V506h-4.29Z"/><path class="cls-41" d="M464.31,509H459V498.41h5.36ZM460,507.46h3.22v-7.54H460Z"/><rect class="cls-41" x="521.71" y="466.01" width="2.15" height="15.07"/><rect class="cls-41" x="505.61" y="467.51" width="2.15" height="13.57"/><rect class="cls-41" x="500.25" y="464.5" width="2.15" height="16.58"/><rect class="cls-42" x="561.4" y="408.73" width="19.31" height="1.51"/><rect class="cls-42" x="561.4" y="413.25" width="20.38" height="1.51"/><rect class="cls-42" x="561.4" y="446.41" width="19.31" height="3.01"/><rect class="cls-42" x="564.62" y="455.46" width="60.08" height="3.01"/><path class="cls-42" d="M601.63,493.89H568.37V466.76h33.26Zm-32.19-1.5h31.12V468.27H569.44Z"/><rect class="cls-42" x="605.38" y="466.01" width="17.16" height="3.01"/><rect class="cls-42" x="605.38" y="475.05" width="17.16" height="1.51"/><rect class="cls-42" x="605.38" y="484.09" width="17.16" height="3.01"/><rect class="cls-42" x="605.38" y="491.63" width="17.16" height="1.51"/><rect class="cls-42" x="562.47" y="499.17" width="62.22" height="1.51"/><rect class="cls-42" x="562.47" y="508.21" width="64.37" height="3.01"/><rect class="cls-41" x="477.72" y="508.21" width="12.87" height="1.51"/><rect class="cls-41" x="493.81" y="505.2" width="34.33" height="1.51"/><rect class="cls-41" x="493.81" y="490.12" width="1.07" height="70.84"/><rect class="cls-41" x="505.61" y="509.72" width="2.15" height="19.6"/><rect class="cls-41" x="518.49" y="509.72" width="1.07" height="19.6"/><rect class="cls-41" x="498.1" y="518.76" width="5.36" height="9.04"/><rect class="cls-41" x="472.36" y="493.14" width="3.22" height="70.84"/><path class="cls-41" d="M428.37,612.22c1.08,0,63.3-43.71,63.3-43.71L489.52,564l-69.73,48.24Z"/><rect class="cls-41" x="478.79" y="524.79" width="11.8" height="3.01"/><rect class="cls-41" x="478.79" y="545.9" width="11.8" height="3.01"/><polygon class="cls-12" points="152.13 627.09 321.63 627.09 315.19 365.75 281.4 365.22 273.89 243.62 230.98 282.02 234.2 458.02 223.47 456.96 152.67 507.09 152.13 627.09"/><polygon class="cls-13" points="238.49 300.15 270.67 278.82 270.67 256.42 238.49 286.29 238.49 300.15"/><path class="cls-13" d="M270.67,289.49l-33.25,21.33,4.29,87.47,33.25-32ZM246,380.16l-2.15-68.27,2.15-1.07,2.14,68.27Zm7.51-7.47-2.15-66.14s2.15-1.06,2.15,0,2.14,65.07,2.14,65.07ZM264.24,361l-2.15,2.14V303.35h2.15Z"/><path class="cls-43" d="M251.87,460.69H229.58l23.46,21Zm-19.49,1.07h18.48l1,17.4Z"/><path class="cls-43" d="M233.66,501.76h0l0,.53v11.78l13.93-1.15,1.09-28.21v-.26l-15-12.64Zm13.3-.43-12.23.39V492l12.59.25Zm-12.23,11.58V502.79l12.19-.39-.37,9.53Zm12.87-28-.24,6.24-12.63-.25V474.11Z"/><polygon class="cls-43" points="179.49 618.56 178.41 618.56 178.41 501.76 189.14 501.76 189.14 496.42 198.71 496.42 197.64 488.96 206.31 488.96 206.31 480.46 220.75 479.36 220.83 480.42 207.38 481.45 207.38 490.02 198.88 490.02 199.95 497.49 190.21 497.49 190.21 502.82 179.49 502.82 179.49 618.56"/><rect class="cls-44" x="246" y="529.49" width="9.66" height="12.8"/><rect class="cls-44" x="236.34" y="544.43" width="9.66" height="11.73"/><rect class="cls-15" x="277.11" y="379.09" width="12.87" height="29.87"/><rect class="cls-15" x="293.2" y="376.96" width="11.8" height="38.4"/><rect class="cls-43" x="224.54" y="460.16" width="2.15" height="61.87"/><rect class="cls-43" x="210.6" y="499.62" width="2.15" height="72.53"/><rect class="cls-43" x="203.09" y="506.02" width="2.15" height="59.73"/><rect class="cls-43" x="195.58" y="512.42" width="2.15" height="53.33"/><path class="cls-44" d="M224.54,580.69s34.33,20.27,34.33,19.2-4.29-41.6-4.29-41.6Z"/><polyline class="cls-15" points="281.4 480.42 280.33 472.96 256.73 490.02 256.73 494.29 268.53 494.29 281.4 481.49"/><polygon class="cls-15" points="256.73 480.42 259.94 480.42 278.18 468.69 278.18 465.49 256.73 480.42"/><path class="cls-15" d="M253.51,459.09h2.14V458h21.46v-2.13s-23.6-1.07-23.6,0Z"/><polygon class="cls-15" points="271.75 494.29 281.4 494.29 283.55 485.76 271.75 494.29"/><polygon class="cls-11" points="286.23 627.09 397.8 627.09 397.26 462.29 368.3 451.62 368.3 474.02 354.35 474.02 354.35 504.96 341.48 507.09 341.48 407.89 285.69 407.89 286.23 627.09"/><rect class="cls-45" x="287.84" y="411.09" width="50.42" height="3.2"/><rect class="cls-46" x="288.91" y="424.96" width="50.42" height="8.53"/><rect class="cls-46" x="288.91" y="452.69" width="50.42" height="8.53"/><rect class="cls-45" x="373.66" y="515.62" width="20.38" height="2.13"/><rect class="cls-45" x="372.59" y="519.89" width="21.46" height="2.13"/><rect class="cls-45" x="360.79" y="525.22" width="33.26" height="1.07"/><rect class="cls-45" x="357.57" y="529.49" width="36.47" height="1.07"/><rect class="cls-45" x="359.71" y="534.82" width="35.4" height="1.07"/><rect class="cls-45" x="353.28" y="508.16" width="2.15" height="117.34"/><path class="cls-45" d="M393.51,567.36H361.32V539.62h32.19Zm-31.11-1.07h30v-25.6h-30Z"/><path class="cls-45" d="M377.42,468.16a3.77,3.77,0,1,1,4.29-3.74A4.06,4.06,0,0,1,377.42,468.16Zm0-6.4a2.71,2.71,0,1,0,3.21,2.66A3,3,0,0,0,377.42,461.76Z"/><path class="cls-47" d="M328.66,554.56H304.13L313.48,536Zm-22.79-1.07H326.4l-12.71-15.55Z"/><path class="cls-45" d="M383.3,558.83h-17l7.28-13.27Zm-15.17-1.07h13.06l-7.46-10.21Z"/><polygon class="cls-48" points="293.2 524.16 338.26 510.29 293.2 493.22 293.2 524.16"/><path class="cls-7" d="M1674.42,632.43H1875l-7.51-202.67-25.75-1.07-1.07-49.07h-11.8v-12.8h-41.84l1.07,60.8h-33.25V327.35h-49.35c-1.07,0,0,113.07,0,113.07h-30Z"/><polygon class="cls-8" points="1793.5 428.69 1827.83 428.69 1826.75 382.82 1792.42 382.82 1793.5 428.69"/><polygon class="cls-8" points="1793.5 379.62 1825.68 380.69 1825.68 373.22 1792.42 370.02 1793.5 379.62"/><polygon class="cls-9" points="1768.77 458.97 1767.78 476.69 1796.5 476.69 1768.77 458.97"/><path class="cls-9" d="M1753.27,437.76v48l67.58-2.14Zm14.53,19.32,32.35,20.68h-33.5Z"/><polygon class="cls-8" points="1761.67 632.43 1820.32 632.43 1819.78 582.83 1760.78 559.36 1761.67 632.43"/><polygon class="cls-10" points="1710.36 508.16 1710.36 630.83 1752.37 632.43 1752.19 546.56 1732.88 509.22 1710.36 508.16"/><polygon class="cls-11" points="1675.13 606.47 1702.85 606.29 1702.85 555.09 1747.9 554.02 1747.01 632.43 1673.88 631.89 1675.13 606.47"/><polygon class="cls-12" points="1820.32 633.49 1989.82 633.49 1983.38 372.15 1949.59 371.62 1942.08 250.02 1899.17 288.42 1902.38 464.42 1891.66 463.36 1820.85 513.49 1820.32 633.49"/><polygon class="cls-13" points="1906.68 306.55 1938.86 285.22 1938.86 262.82 1906.68 292.69 1906.68 306.55"/><path class="cls-13" d="M1938.86,295.89l-33.26,21.33,4.29,87.47,33.26-32Zm-24.67,90.67L1912,318.29l2.15-1.07,2.14,68.27Zm7.51-7.47L1919.55,313s2.15-1.06,2.15,0,2.14,65.07,2.14,65.07Zm10.72-11.73-2.14,2.13V309.75h2.14Z"/><path class="cls-43" d="M1920.06,467.09h-22.29l23.46,21Zm-19.5,1.07H1919l1,17.4Z"/><path class="cls-43" d="M1901.85,508.16h0l0,.53v11.78l13.93-1.15,1.09-28.21v-.26l-15-12.64Zm13.3-.43-12.23.39v-9.73l12.58.25Zm-12.23,11.58V509.19l12.19-.39-.37,9.53Zm12.87-28-.25,6.24-12.62-.25V480.51Z"/><polygon class="cls-43" points="1847.67 624.96 1846.6 624.96 1846.6 508.16 1857.33 508.16 1857.33 502.82 1866.9 502.82 1865.83 495.36 1874.49 495.36 1874.49 486.86 1888.93 485.76 1889.02 486.82 1875.57 487.85 1875.57 496.42 1867.07 496.42 1868.14 503.89 1858.4 503.89 1858.4 509.22 1847.67 509.22 1847.67 624.96"/><rect class="cls-44" x="1914.19" y="535.89" width="9.66" height="12.8"/><rect class="cls-44" x="1904.53" y="550.83" width="9.66" height="11.73"/><rect class="cls-15" x="1945.3" y="385.49" width="12.87" height="29.87"/><rect class="cls-15" x="1961.39" y="383.36" width="11.8" height="38.4"/><rect class="cls-43" x="1892.73" y="466.56" width="2.15" height="61.87"/><rect class="cls-43" x="1878.78" y="506.02" width="2.15" height="72.53"/><rect class="cls-43" x="1871.27" y="512.42" width="2.15" height="59.73"/><rect class="cls-43" x="1863.76" y="518.82" width="2.15" height="53.33"/><path class="cls-44" d="M1892.73,587.09s34.33,20.27,34.33,19.2-4.29-41.6-4.29-41.6Z"/><polyline class="cls-15" points="1949.59 486.82 1948.52 479.36 1924.91 496.42 1924.91 500.69 1936.71 500.69 1949.59 487.89"/><polygon class="cls-15" points="1924.91 486.82 1928.13 486.82 1946.37 475.09 1946.37 471.89 1924.91 486.82"/><path class="cls-15" d="M1921.7,465.49h2.14v-1.07h21.46v-2.13s-23.6-1.07-23.6,0Z"/><polygon class="cls-15" points="1939.93 500.69 1949.59 500.69 1951.73 492.16 1939.93 500.69"/><polygon class="cls-11" points="1935.11 633.49 2046.67 633.49 2046.14 468.69 2017.17 458.02 2017.17 480.42 2003.23 480.42 2003.23 511.36 1990.35 513.49 1990.35 414.29 1934.57 414.29 1935.11 633.49"/><rect class="cls-45" x="1936.71" y="417.49" width="50.42" height="3.2"/><rect class="cls-46" x="1937.79" y="431.36" width="50.42" height="8.53"/><rect class="cls-46" x="1937.79" y="459.09" width="50.42" height="8.53"/><rect class="cls-45" x="2009.66" y="531.62" width="33.26" height="1.07"/><rect class="cls-45" x="2006.45" y="535.89" width="36.47" height="1.07"/><rect class="cls-45" x="2008.59" y="541.22" width="35.4" height="1.07"/><rect class="cls-45" x="2002.15" y="514.56" width="2.15" height="117.34"/><path class="cls-45" d="M2042.38,573.76H2010.2V546h32.18Zm-31.11-1.07h30v-25.6h-30Z"/><path class="cls-47" d="M1977.54,561H1953l9.34-18.58Zm-22.79-1.07h20.53l-12.71-15.55Z"/><path class="cls-45" d="M2032.17,565.23h-17l7.27-13.27ZM2017,564.16h13.07L2022.6,554Z"/><polygon class="cls-48" points="1942.08 530.56 1987.14 516.69 1942.08 499.62 1942.08 530.56"/></g><rect class="cls-49" x="-10.57" y="674.04" width="2074.18" height="392.18"/><path class="cls-50" d="M2069.05,945.08c-75.1-4.94-1001.84-63.15-2080,0h-1.66l-7.79.54v287.49h2091.6v-288Z"/><path class="cls-51" d="M2069.06,1153.1c-31.9-.53-353.7-18.43-639.8-20.43-11.43-.08-176.47-273.43-594.35-161.23-91.44,24.56-197,173.21-197,173.21h0c-377-1.94-95.12.36-642.74,8.45H-6.51l-7.77.13v72.32H2071.23V1153.1Z"/><rect class="cls-50" x="-31.63" y="627.56" width="2078.3" height="40.93"/></g></svg>