<svg id="圖層_1" data-name="圖層 1" xmlns="http://www.w3.org/2000/svg" xmlns:xlink="http://www.w3.org/1999/xlink" viewBox="0 0 2017 1222"><defs><style>.cls-1{fill:none;}.cls-2{clip-path:url(#clip-path);}.cls-3{opacity:0.8;fill:url(#未命名漸層_81);}.cls-4,.cls-8{fill:#4d9cde;}.cls-4{stroke:#a8d3ff;stroke-miterlimit:10;}.cls-5{fill:#7a9ec3;}.cls-6{opacity:0.63;}.cls-7{fill:#b6dbf8;}.cls-9{fill:#c995b7;}.cls-10{fill:#c3e5ff;}.cls-11{fill:#96bde9;}.cls-12{fill:#b8bbd6;}.cls-13{fill:#a1d6ff;}.cls-14{fill:#9ea5d8;}.cls-15{fill:#8288b8;}.cls-16{fill:#b1b5dc;}.cls-17{fill:#c9c6e5;}.cls-18{fill:#7cb9ea;}.cls-19{fill:#b2dafb;}.cls-20{fill:#dfcf7d;}.cls-21{fill:#3d9ae6;}.cls-22{fill:#d5ecfa;}.cls-23{fill:#a0dcff;}.cls-24{fill:#51a5d6;}.cls-25{fill:#97ade6;}.cls-26{fill:#5996c6;}.cls-27{fill:#549bdd;}.cls-28{fill:#aad7fa;}.cls-29{fill:#7eb3eb;}.cls-30{fill:#aedafe;}.cls-31{fill:#d3f1fe;}.cls-32{fill:#d5f2fe;}.cls-33{fill:#d6f3ff;}.cls-34{fill:#917d90;}.cls-35{fill:#5086c5;}.cls-36{fill:#71b5f4;}.cls-37{fill:#1275b5;}.cls-38{fill:#b6d7fa;}.cls-39{fill:#7cbaeb;}.cls-40{fill:#fff;}.cls-41{fill:#0066a7;}.cls-42{fill:#98d4fa;}.cls-43{fill:#a36464;}.cls-44{fill:#b2a0b2;}.cls-45{fill:#558bcb;}.cls-46{fill:#fffbee;}.cls-47{fill:#83abdb;}.cls-48{fill:#cbab55;}.cls-49{fill:#4e77ff;opacity:0.49;}.cls-50{fill:#557f89;}.cls-51{fill:#cfa3b1;}</style><clipPath id="clip-path"><rect class="cls-1" x="2" y="16" width="2010" height="1194"/></clipPath><linearGradient id="未命名漸層_81" x1="2173.41" y1="396.74" x2="-1410.04" y2="141.64" gradientUnits="userSpaceOnUse"><stop offset="0" stop-color="#cce0f4"/><stop offset="0.06" stop-color="#cee0eb"/><stop offset="0.17" stop-color="#d5e0d1"/><stop offset="0.31" stop-color="#dfe1a8"/><stop offset="0.47" stop-color="#eee16e"/><stop offset="0.64" stop-color="#ffe22a"/><stop offset="1" stop-color="#fff915"/></linearGradient></defs><title>0122</title><g class="cls-2"><rect class="cls-3" x="-1465" y="-33.86" width="3617.03" height="600.67"/><path class="cls-4" d="M267.16,464.25V642.5H644.41V642h.64v.53H852.13v-.13l83.33-.47,0,.6h135.4v-.68h19.09v.68h949.49v-.67h.58l-.65-15.76-1.08-228.48h-32.4s1.15-144.24,0-144.24h-53.23V381.25h-35.88l1.16-77.56h-45.13V320h-12.73l-1.16,62.59L1831.12,384l-2.32,74L1790,425.47l-11.57,1.36,3.47-224.51-46.29-49-8.1,155.12-36.45.68L1690,362.88h-27.23V489.42l-13.89-2.72V447.24h-15V418.67l-30,13.05-.12-58-76.38-4.09-1.15,156.48h-23.15v-6.8h-6.94v-15h-2.32v15h-3.47V507.11H1488v12.25h-12.15v-66h-42.24v-32l-27.77-27.21v95.24l-13.31-.18V309.81l-45.71-1.36L1348,207.76l-48-14.29L1297.29,323l-9.48-7.8V286.67l-77-3.4L1208,579.91h-16.23V159.46h-5.2V149.25h2.31v-1.36H1128.7v1.36H1131v10.21h-6.36v51.7h-34.72V420h-52.65V309.81l-45.71-1.36,1.16-100.69-48-14.29-4,192.54h-95L829,417.31v44.22h-32.4V565.32l-30.09-69.77-53.78-2.34L715,204.36l-44-49-6.36,154.44H626.47v78.24H608.53V324.1H598.12V306.41H553l-1.74,76.88H517.69V252.66l-53.81.68-2.31,148.32H423l.41-61.23H355.69v151H342.38l1.16-61.24-41.66,1.37Zm870.79-315v10.21h-4.62V149.25Zm11.58,0v10.21h-9.26V149.25Zm10.41,0v10.21h-8.1V149.25Zm12.73,0v10.21h-10.41V149.25Zm11.57,10.21H1175V149.25h9.25Z"/><path class="cls-5" d="M1587.93,469.76l1.07,48h-12.33V389.22h-62.76l.46,58.14h-35.86l-2.15-116.27-49.88-.54V433h-31.11l-1.61-60.27h-41.84v13.86h-9.66v50.14h-16.63V363.62h-35.4l-5.9-121.07L1243.57,281l2.12,227-49.86,1.84-27.9,54.69V483.09h-30V448.42l-15.56-24.53h-88L1030.62,273l-44.52,11.2,1.07,78.94-42.38,1.06v86.94H896V287.35H863.8V246.82h-5.9v-8H860v-1.07H804.26v1.07h2.14v8h-4.82V576.43H785.43L782.8,346.55l-71.34,2.67v22.4l-7.1,4.95-1.53-68.76L656.7,324.87l1.12,38.22-42.37,1.06V468.71l-32.72.54V363.74L557,393.89v35.42H517.82v73.1H506.56V488.85h-2.15v13.56H501.2V485.83h-2.15v16.58h-6.44V510H471.16l-1.08-173.34-70.8,4.52-.54,297.7H627.25l.07-10.67H786l0-2.67H896V625H1039.2v-.47l77.25.37v.1h85.77v1.12h106.2V624h.53l.07,12.15h349.72V496.42l-32.18-25.6ZM855.75,238.82v8h-4.29v-8Zm-6.43,0v8h-8.59v-8Zm-10.73,0v8h-7.51v-8Zm-9.66,0v8h-9.65v-8Zm-20.38,0h8.58v8h-8.58Z"/><path class="cls-5" d="M367.1,473v22.4h-14v30.93l-12.87,2.13v-99.2H315l-1-42.13-33.79-.54L272.69,265l-42.91,38.4,3.22,176-10.73-1.07L186,504l-1.8-48.62-25.75-1.07-1.07-49.07h-11.8v-12.8H103.73l1.07,60.8H71.54V353H22.19c-1.07,0,0,113.07,0,113.07h-30l-1,179.12-.61,12.35h.54V658H191.7l-.36-9.6H396.6l-.54-164.81Z"/><path class="cls-5" d="M2044.94,490l-29-10.66v22.4H2002v30.93l-12.88,2.13v-99.2h-5.93l-1-42.13-33.79-.53-7.51-121.61L1898,309.75l3.22,176-10.73-1.07-22.31,15.8-1.83-49.4L1840.57,450,1839.5,401h-11.8v-12.8h-41.84l1.07,60.8h-33.25V348.69h-49.35c-1.07,0,0,113.07,0,113.07h-30l-1,179.11-.61,12.36h.54v.53h145.9v1.07h226.36Z"/><g class="cls-6"><path class="cls-7" d="M-5.72,652.69H194.9L187.39,450,161.64,449l-1.07-49.07h-11.8v-12.8H106.93l1.07,60.8H74.74V347.62H25.39c-1.07,0,0,113.07,0,113.07h-30Z"/><polygon class="cls-8" points="113.36 448.96 147.69 448.96 146.62 403.09 112.29 403.09 113.36 448.96"/><polygon class="cls-8" points="113.36 399.89 145.55 400.95 145.55 393.49 112.29 390.29 113.36 399.89"/><polygon class="cls-9" points="88.64 479.23 87.65 496.96 116.36 496.96 88.64 479.23"/><path class="cls-9" d="M73.13,458v48l67.59-2.13Zm14.54,19.33L120,498H86.51Z"/><polygon class="cls-8" points="81.54 652.69 140.18 652.69 139.65 603.09 80.64 579.63 81.54 652.69"/><polygon class="cls-10" points="30.22 528.42 30.22 651.09 72.24 652.69 72.06 566.83 52.75 529.49 30.22 528.42"/><polygon class="cls-11" points="-5 626.74 22.71 626.56 22.71 575.36 67.77 574.29 66.88 652.69 -6.25 652.16 -5 626.74"/><polygon class="cls-7" points="1398.57 427.62 1429.68 427.62 1429.68 325.22 1479.56 325.75 1481.71 442.02 1540.71 442.02 1554.66 512.42 1592.2 512.42 1591.13 464.42 1629.75 465.49 1661.93 491.09 1661.93 630.83 1312.21 630.83 1311.13 431.36 1345.46 431.36 1345.46 381.22 1355.12 381.22 1355.12 367.36 1396.96 367.36 1398.57 427.62"/><polygon class="cls-8" points="1661.93 516.16 1657.11 516.16 1657.11 505.49 1646.38 505.49 1646.38 494.78 1634 493.75 1634.09 492.69 1647.45 493.8 1647.45 504.42 1658.18 504.42 1658.18 515.09 1661.93 515.09 1661.93 516.16"/><polygon class="cls-8" points="1598.64 492.16 1620.1 468.69 1599.71 468.69 1598.64 492.16"/><polygon class="cls-8" points="1604 536.96 1620.1 536.96 1619.02 483.62 1604 498.56 1604 536.96"/><polygon class="cls-9" points="1364.77 483.62 1431.29 486.82 1431.29 438.82 1364.77 483.62"/><path class="cls-7" d="M1386.38,478.89l33.7-20.8-1.16,19.65Zm32.51-18.8-28.52,17.6,27.53-1Z"/><rect class="cls-8" x="1360.48" y="372.69" width="32.18" height="8.53"/><rect class="cls-8" x="1359.41" y="384.42" width="33.26" height="46.93"/><rect class="cls-8" x="1595.42" y="560.43" width="10.73" height="17.07"/><rect class="cls-8" x="1604" y="580.69" width="12.87" height="17.07"/><rect class="cls-8" x="1626.53" y="467.62" width="2.15" height="82.13"/><rect class="cls-8" x="1656.57" y="536.96" width="2.15" height="91.74"/><rect class="cls-8" x="1649.06" y="532.69" width="2.15" height="91.74"/><rect class="cls-8" x="1641.55" y="529.49" width="2.15" height="91.74"/><polygon class="cls-12" points="1328.83 618.56 1328.83 358.29 1293.43 358.29 1287.53 237.22 1246.77 275.62 1249.98 619.09 1328.83 618.56"/><polygon class="cls-13" points="1252.13 295.89 1285.39 272.42 1285.39 247.89 1251.06 279.89 1252.13 295.89"/><polygon class="cls-13" points="1251.06 304.42 1254.28 392.95 1289.68 358.82 1285.39 282.02 1251.06 304.42"/><path class="cls-14" d="M1265.5,478.25l1.13-28.24,39.77,1.13Zm2.16-27.15-1,25.1L1303,452.11Z"/><polygon class="cls-14" points="1266.08 486.82 1266.08 502.82 1307.91 499.62 1306.84 456.96 1266.08 486.82"/><polygon class="cls-12" points="1257.49 304.42 1259.64 304.42 1262.86 373.75 1260.71 375.89 1257.49 304.42"/><polygon class="cls-12" points="1265 300.15 1267.15 300.15 1269.29 366.29 1267.15 367.36 1265 300.15"/><path class="cls-12" d="M1275.73,297s1.07-1.06,1.07,0,1.08,59.74,1.08,59.74h-2.15Z"/><path class="cls-12" d="M1269.56,493.83l28-18.59,2.34,17.43Zm27.21-16.76-23.45,15.55,25.4-1Z"/><rect class="cls-15" x="1291.82" y="373.75" width="11.8" height="35.2"/><rect class="cls-15" x="1306.84" y="370.55" width="12.87" height="37.33"/><rect class="cls-10" x="1119.64" y="477.76" width="51.49" height="141.87"/><polygon class="cls-16" points="1141.1 619.63 1141.1 443.09 1125.54 418.56 1034.35 418.56 1028.99 431.36 1028.99 619.09 1141.1 619.63"/><rect class="cls-17" x="1044.01" y="434.56" width="12.87" height="17.07"/><rect class="cls-17" x="1057.42" y="455.36" width="11.8" height="16"/><polygon class="cls-18" points="786.54 619.09 785.47 571.09 804.78 571.09 804.78 241.49 867 241.49 867 282.02 899.18 282.02 899.18 620.16 786.54 620.16 786.54 619.09"/><rect class="cls-19" x="810.14" y="250.02" width="52.57" height="27.73"/><rect class="cls-19" x="810.14" y="291.62" width="84.75" height="2.13"/><rect class="cls-19" x="810.14" y="298.02" width="84.75" height="2.13"/><rect class="cls-19" x="809.07" y="352.42" width="84.75" height="2.13"/><rect class="cls-19" x="809.07" y="403.62" width="84.75" height="2.13"/><rect class="cls-19" x="810.14" y="453.76" width="84.75" height="2.13"/><rect class="cls-19" x="810.14" y="543.36" width="84.75" height="2.13"/><rect class="cls-19" x="810.14" y="550.82" width="84.75" height="2.13"/><rect class="cls-19" x="810.14" y="571.09" width="84.75" height="2.13"/><polygon class="cls-19" points="807.46 232.42 807.46 233.49 809.6 233.49 809.6 242.02 811.75 242.02 811.75 233.49 820.33 233.49 820.33 242.02 822.48 242.02 822.48 233.49 832.13 233.49 832.13 242.02 834.28 242.02 834.28 233.49 841.79 233.49 841.79 242.02 843.93 242.02 843.93 233.49 852.51 233.49 852.51 242.02 854.66 242.02 854.66 233.49 858.95 233.49 858.95 242.02 861.1 242.02 861.1 233.49 863.24 233.49 863.24 232.42 807.46 232.42"/><rect class="cls-20" x="820.87" y="413.22" width="18.24" height="21.33"/><rect class="cls-20" x="857.34" y="413.22" width="18.24" height="21.33"/><rect class="cls-20" x="819.8" y="310.82" width="18.24" height="21.33"/><rect class="cls-20" x="856.27" y="310.82" width="18.24" height="21.33"/><rect class="cls-19" x="815.5" y="466.56" width="75.1" height="67.2"/><polygon class="cls-10" points="1033.82 267.62 1042.4 619.63 947.99 619.63 947.99 358.82 990.37 357.75 989.3 278.82 1033.82 267.62"/><rect class="cls-21" x="995.73" y="279.89" width="11.8" height="7.47"/><rect class="cls-21" x="1009.68" y="279.89" width="11.8" height="7.47"/><rect class="cls-21" x="995.73" y="289.49" width="11.8" height="9.6"/><rect class="cls-21" x="1009.68" y="289.49" width="11.8" height="9.6"/><rect class="cls-22" x="990.37" y="388.69" width="12.87" height="17.07"/><rect class="cls-22" x="978.57" y="367.35" width="12.87" height="17.07"/><polygon class="cls-10" points="706.03 302.47 713.05 619.63 618.65 619.63 618.65 358.82 661.02 357.75 659.9 319.54 706.03 302.47"/><rect class="cls-21" x="670.63" y="320.61" width="11.8" height="7.47"/><rect class="cls-21" x="684.58" y="320.61" width="11.8" height="7.47"/><rect class="cls-21" x="670.63" y="330.21" width="11.8" height="9.6"/><rect class="cls-21" x="684.58" y="330.21" width="11.8" height="9.6"/><rect class="cls-22" x="661.02" y="388.69" width="12.87" height="17.07"/><rect class="cls-22" x="649.22" y="367.35" width="12.87" height="17.07"/><rect class="cls-23" x="866.46" y="445.76" width="90.11" height="173.87"/><rect class="cls-24" x="875.58" y="456.96" width="80.46" height="32"/><rect class="cls-25" x="888.45" y="465.49" width="67.59" height="12.8"/><rect class="cls-26" x="869.14" y="498.56" width="84.75" height="3.2"/><path class="cls-26" d="M955,550.82v-3.2H949.6V508.16h4.29V505H869.14v3.2h4.29v112h2.15v-5.33h78.31v-3.2H875.58v-7.47H955V601H875.58V560.43h18.24v39.46H896V560.43h15v39.46h2.15V560.43h16.09v39.46h2.15V560.43h16.09v39.46h2.14V560.43H955v-3.21H875.58v-6.4Zm-7.51-42.66v39.46H931.37V508.16Zm-18.24,0v39.46H913.13V508.16Zm-18.24,0v39.46H896V508.16Zm-17.16,0v39.46H875.58V508.16Z"/><rect class="cls-27" x="916.88" y="503.36" width="98.7" height="116.27"/><rect class="cls-28" x="918.49" y="518.82" width="93.33" height="2.13"/><rect class="cls-28" x="928.15" y="526.29" width="2.15" height="23.47"/><rect class="cls-28" x="943.17" y="526.29" width="2.15" height="23.47"/><rect class="cls-28" x="956.04" y="526.29" width="2.15" height="23.47"/><rect class="cls-28" x="969.99" y="526.29" width="2.15" height="23.47"/><rect class="cls-28" x="982.86" y="526.29" width="2.15" height="23.47"/><rect class="cls-28" x="995.73" y="526.29" width="2.15" height="23.47"/><rect class="cls-28" x="918.49" y="555.09" width="93.33" height="2.13"/><rect class="cls-28" x="928.15" y="562.56" width="2.15" height="23.47"/><rect class="cls-28" x="943.17" y="562.56" width="2.15" height="23.47"/><rect class="cls-28" x="956.04" y="562.56" width="2.15" height="23.47"/><rect class="cls-28" x="969.99" y="562.56" width="2.15" height="23.47"/><rect class="cls-28" x="982.86" y="562.56" width="2.15" height="23.47"/><rect class="cls-28" x="995.73" y="562.56" width="2.15" height="23.47"/><rect class="cls-28" x="918.49" y="588.16" width="93.33" height="2.13"/><rect class="cls-28" x="928.15" y="595.63" width="2.15" height="23.47"/><rect class="cls-28" x="943.17" y="595.63" width="2.15" height="23.47"/><rect class="cls-28" x="956.04" y="595.63" width="2.15" height="23.47"/><rect class="cls-28" x="969.99" y="595.63" width="2.15" height="23.47"/><rect class="cls-28" x="982.86" y="595.63" width="2.15" height="23.47"/><rect class="cls-28" x="995.73" y="595.63" width="2.15" height="23.47"/><polygon class="cls-29" points="1159.33 619.63 1258.03 619.63 1256.96 502.29 1199.03 504.42 1160.41 580.16 1159.33 619.63"/><path class="cls-30" d="M1205.41,620.75c0-12.8,0-26.67,0-26.67l11.95-.83-.13-12h38.62v5.33h13.94s0-9.25,0-11.73h41.84v45.87Z"/><rect class="cls-31" x="1275.14" y="585.55" width="12.87" height="9.6"/><rect class="cls-31" x="1290.16" y="585.55" width="12.87" height="9.6"/><path class="cls-31" d="M1218.28,590.88V608h31.11V590.88Zm27.89,13.87H1221.5V594.08h24.67Z"/><rect class="cls-32" x="1265.48" y="568.48" width="49.35" height="10.67"/><polygon class="cls-11" points="1403.93 620.69 1579.87 620.69 1579.87 383.89 1517.11 383.89 1518.18 519.89 1503.16 516.69 1504.23 472.96 1489.22 472.96 1489.22 444.16 1466.69 453.76 1467.76 522.02 1403.39 559.36 1403.93 620.69"/><path class="cls-33" d="M1560.85,583.39l-28.64-1.14,17.19-25.06Zm-26.66-2.13,25,1-10-22.87Z"/><polygon class="cls-34" points="1521.4 524.16 1572.89 541.23 1572.89 499.62 1521.4 524.16"/><rect class="cls-33" x="1521.4" y="391.89" width="54.71" height="3.2"/><rect class="cls-33" x="1522.47" y="410.02" width="53.64" height="12.8"/><rect class="cls-33" x="1522.47" y="445.22" width="53.64" height="12.8"/><rect class="cls-35" x="1503.16" y="520.96" width="2.15" height="60.8"/><rect class="cls-35" x="1470.98" y="531.62" width="13.95" height="2.13"/><rect class="cls-35" x="1470.98" y="536.96" width="15.02" height="2.13"/><rect class="cls-35" x="1470.98" y="543.36" width="26.82" height="2.13"/><rect class="cls-35" x="1470.98" y="548.69" width="30.04" height="2.13"/><rect class="cls-35" x="1470.98" y="555.09" width="30.04" height="2.13"/><path class="cls-33" d="M1480.63,466a3.73,3.73,0,1,1,3.76-3.73A3.74,3.74,0,0,1,1480.63,466Zm0-6.4a2.67,2.67,0,1,0,2.69,2.67A2.68,2.68,0,0,0,1480.63,459.62Z"/><path class="cls-33" d="M1421.63,562.56c1.07-1.07,44-26.67,44-26.67l-3.21-3.2-42.92,26.67Z"/><path class="cls-33" d="M1434,596.16H1416.8V572.69H1434Zm-16.09-1.07h15V573.76h-15Z"/><rect class="cls-35" x="1469.91" y="562.56" width="27.89" height="5.33"/><rect class="cls-35" x="1470.98" y="575.36" width="27.89" height="5.33"/><polygon class="cls-8" points="624.01 622.83 789.22 622.83 786 341.22 714.66 343.89 714.66 366.29 703.93 373.75 701.79 554.02 625.62 555.09 624.01 622.83"/><rect class="cls-33" x="722.17" y="366.29" width="61.15" height="3.2"/><rect class="cls-33" x="732.9" y="384.42" width="27.89" height="2.13"/><rect class="cls-33" x="732.9" y="435.62" width="25.75" height="2.13"/><rect class="cls-33" x="732.9" y="538.02" width="27.89" height="3.2"/><polygon class="cls-33" points="729.14 543.89 701.79 543.89 701.79 542.83 728.07 542.83 728.07 387.08 703.86 386.89 703.87 385.82 729.14 386.03 729.14 543.89"/><polygon class="cls-10" points="703.75 391.18 724.32 390.82 723.24 536.96 701.79 537.14 703.75 391.18"/><rect class="cls-36" x="705.01" y="392.96" width="17.16" height="12.8"/><rect class="cls-36" x="705.01" y="407.89" width="17.16" height="14.93"/><rect class="cls-36" x="705.01" y="424.96" width="17.16" height="18.13"/><rect class="cls-36" x="705.01" y="445.22" width="17.16" height="17.07"/><rect class="cls-36" x="705.01" y="464.42" width="17.16" height="12.8"/><rect class="cls-36" x="703.93" y="479.36" width="18.24" height="12.8"/><rect class="cls-36" x="703.93" y="494.29" width="18.24" height="11.73"/><rect class="cls-36" x="702.86" y="508.16" width="19.31" height="13.87"/><rect class="cls-36" x="702.86" y="524.16" width="19.31" height="11.73"/><polygon class="cls-33" points="764.55 542.83 788.15 542.83 788.15 541.76 765.47 541.76 765.47 386.02 786.36 385.82 786.35 384.75 764.55 384.96 764.55 542.83"/><polygon class="cls-10" points="786.45 390.11 768.71 389.75 769.64 535.89 788.15 536.07 786.45 390.11"/><rect class="cls-36" x="770.56" y="391.89" width="14.81" height="12.8" transform="translate(1555.93 796.58) rotate(-180)"/><rect class="cls-36" x="770.56" y="406.82" width="14.81" height="14.93" transform="translate(1555.93 828.58) rotate(-180)"/><rect class="cls-36" x="770.56" y="423.89" width="14.81" height="18.13" transform="translate(1555.93 865.91) rotate(-180)"/><rect class="cls-36" x="770.56" y="444.16" width="14.81" height="17.07" transform="translate(1555.93 905.38) rotate(-180)"/><rect class="cls-36" x="770.56" y="463.36" width="14.81" height="12.8" transform="translate(1555.93 939.51) rotate(-180)"/><rect class="cls-36" x="770.56" y="478.29" width="15.73" height="12.8" transform="translate(1556.86 969.38) rotate(-180)"/><rect class="cls-36" x="770.56" y="493.22" width="15.73" height="11.73" transform="translate(1556.86 998.18) rotate(-180)"/><rect class="cls-36" x="770.56" y="507.09" width="16.66" height="13.87" transform="translate(1557.78 1028.05) rotate(-180)"/><rect class="cls-36" x="770.56" y="523.09" width="16.66" height="11.73" transform="translate(1557.78 1057.92) rotate(-180)"/><polygon class="cls-33" points="777.42 622.84 776.36 567.36 716.27 567.36 716 622.83 714.93 622.82 715.2 566.29 777.41 566.29 778.49 622.82 777.42 622.84"/><polygon class="cls-33" points="770.18 622.83 769.91 576.97 724.84 578.01 723.78 621.24 722.71 621.21 723.79 576.97 770.98 575.88 771.25 622.82 770.18 622.83"/><rect class="cls-37" x="671.75" y="573.23" width="2.15" height="48"/><rect class="cls-37" x="678.19" y="573.23" width="2.15" height="48"/><rect class="cls-37" x="683.55" y="573.23" width="2.15" height="48"/><rect class="cls-37" x="689.99" y="573.23" width="2.15" height="48"/><rect class="cls-37" x="694.28" y="573.23" width="2.15" height="48"/><rect class="cls-38" x="521.02" y="423.97" width="40.77" height="125.11"/><polygon class="cls-39" points="401.94 633.49 630.45 633.49 631.52 463.17 585.93 463.92 585.93 358.41 560.18 388.55 560.18 539.28 531.22 540.79 531.22 497.08 495.81 497.08 495.81 504.62 474.36 504.62 473.28 331.27 402.48 335.8 401.94 633.49"/><rect class="cls-40" x="408.92" y="343.33" width="61.15" height="75.37"/><path class="cls-41" d="M451.29,531h-6.43V520.44h6.43Zm-5.36-1.5h4.29V522h-4.29Z"/><path class="cls-41" d="M466.31,525H461V514.41h5.36ZM462,523.46h3.22v-7.54H462Z"/><rect class="cls-41" x="523.71" y="482.01" width="2.15" height="15.07"/><rect class="cls-41" x="507.61" y="483.51" width="2.15" height="13.57"/><rect class="cls-41" x="502.25" y="480.5" width="2.15" height="16.58"/><rect class="cls-42" x="563.4" y="424.73" width="19.31" height="1.51"/><rect class="cls-42" x="563.4" y="429.25" width="20.38" height="1.51"/><rect class="cls-42" x="563.4" y="462.41" width="19.31" height="3.01"/><rect class="cls-42" x="566.62" y="471.46" width="60.08" height="3.01"/><path class="cls-42" d="M603.63,509.89H570.37V482.76h33.26Zm-32.19-1.5h31.12V484.27H571.44Z"/><rect class="cls-42" x="607.38" y="482.01" width="17.16" height="3.01"/><rect class="cls-42" x="607.38" y="491.05" width="17.16" height="1.51"/><rect class="cls-42" x="607.38" y="500.09" width="17.16" height="3.01"/><rect class="cls-42" x="607.38" y="507.63" width="17.16" height="1.51"/><rect class="cls-42" x="564.47" y="515.17" width="62.22" height="1.51"/><rect class="cls-42" x="564.47" y="524.21" width="64.37" height="3.01"/><rect class="cls-41" x="479.72" y="524.21" width="12.87" height="1.51"/><rect class="cls-41" x="495.81" y="521.2" width="34.33" height="1.51"/><rect class="cls-41" x="495.81" y="506.12" width="1.07" height="70.84"/><rect class="cls-41" x="507.61" y="525.72" width="2.15" height="19.6"/><rect class="cls-41" x="520.49" y="525.72" width="1.07" height="19.6"/><rect class="cls-41" x="500.1" y="534.76" width="5.36" height="9.04"/><rect class="cls-41" x="474.36" y="509.14" width="3.22" height="70.84"/><path class="cls-41" d="M430.37,628.22c1.08,0,63.3-43.71,63.3-43.71L491.52,580l-69.73,48.24Z"/><rect class="cls-41" x="480.79" y="540.79" width="11.8" height="3.01"/><rect class="cls-41" x="480.79" y="561.9" width="11.8" height="3.01"/><polygon class="cls-12" points="154.13 643.09 323.63 643.09 317.19 381.75 283.4 381.22 275.89 259.62 232.98 298.02 236.2 474.02 225.47 472.96 154.67 523.09 154.13 643.09"/><polygon class="cls-13" points="240.49 316.15 272.67 294.82 272.67 272.42 240.49 302.29 240.49 316.15"/><path class="cls-13" d="M272.67,305.49l-33.25,21.33,4.29,87.47,33.25-32ZM248,396.16l-2.15-68.27,2.15-1.07,2.14,68.27Zm7.51-7.47-2.15-66.14s2.15-1.06,2.15,0,2.14,65.07,2.14,65.07ZM266.24,377l-2.15,2.14V319.35h2.15Z"/><path class="cls-43" d="M253.87,476.69H231.58l23.46,21Zm-19.49,1.07h18.48l1,17.4Z"/><path class="cls-43" d="M235.66,517.76h0l0,.53v11.78l13.93-1.15,1.09-28.21v-.26l-15-12.64Zm13.3-.43-12.23.39V508l12.59.25Zm-12.23,11.58V518.79l12.19-.39-.37,9.53Zm12.87-28-.24,6.24-12.63-.25V490.11Z"/><polygon class="cls-43" points="181.49 634.56 180.41 634.56 180.41 517.76 191.14 517.76 191.14 512.42 200.71 512.42 199.64 504.96 208.31 504.96 208.31 496.46 222.75 495.36 222.83 496.42 209.38 497.45 209.38 506.02 200.88 506.02 201.95 513.49 192.21 513.49 192.21 518.82 181.49 518.82 181.49 634.56"/><rect class="cls-44" x="248" y="545.49" width="9.66" height="12.8"/><rect class="cls-44" x="238.34" y="560.43" width="9.66" height="11.73"/><rect class="cls-15" x="279.11" y="395.09" width="12.87" height="29.87"/><rect class="cls-15" x="295.2" y="392.96" width="11.8" height="38.4"/><rect class="cls-43" x="226.54" y="476.16" width="2.15" height="61.87"/><rect class="cls-43" x="212.6" y="515.62" width="2.15" height="72.53"/><rect class="cls-43" x="205.09" y="522.02" width="2.15" height="59.73"/><rect class="cls-43" x="197.58" y="528.42" width="2.15" height="53.33"/><path class="cls-44" d="M226.54,596.69s34.33,20.27,34.33,19.2-4.29-41.6-4.29-41.6Z"/><polyline class="cls-15" points="283.4 496.42 282.33 488.96 258.73 506.02 258.73 510.29 270.53 510.29 283.4 497.49"/><polygon class="cls-15" points="258.73 496.42 261.94 496.42 280.18 484.69 280.18 481.49 258.73 496.42"/><path class="cls-15" d="M255.51,475.09h2.14V474h21.46v-2.13s-23.6-1.07-23.6,0Z"/><polygon class="cls-15" points="273.75 510.29 283.4 510.29 285.55 501.76 273.75 510.29"/><polygon class="cls-11" points="288.23 643.09 399.8 643.09 399.26 478.29 370.3 467.62 370.3 490.02 356.35 490.02 356.35 520.96 343.48 523.09 343.48 423.89 287.69 423.89 288.23 643.09"/><rect class="cls-45" x="289.84" y="427.09" width="50.42" height="3.2"/><rect class="cls-46" x="290.91" y="440.96" width="50.42" height="8.53"/><rect class="cls-46" x="290.91" y="468.69" width="50.42" height="8.53"/><rect class="cls-45" x="375.66" y="531.62" width="20.38" height="2.13"/><rect class="cls-45" x="374.59" y="535.89" width="21.46" height="2.13"/><rect class="cls-45" x="362.79" y="541.22" width="33.26" height="1.07"/><rect class="cls-45" x="359.57" y="545.49" width="36.47" height="1.07"/><rect class="cls-45" x="361.71" y="550.82" width="35.4" height="1.07"/><rect class="cls-45" x="355.28" y="524.16" width="2.15" height="117.34"/><path class="cls-45" d="M395.51,583.36H363.32V555.62h32.19Zm-31.11-1.07h30v-25.6h-30Z"/><path class="cls-45" d="M379.42,484.16a3.77,3.77,0,1,1,4.29-3.74A4.06,4.06,0,0,1,379.42,484.16Zm0-6.4a2.71,2.71,0,1,0,3.21,2.66A3,3,0,0,0,379.42,477.76Z"/><path class="cls-47" d="M330.66,570.56H306.13L315.48,552Zm-22.79-1.07H328.4l-12.71-15.55Z"/><path class="cls-45" d="M385.3,574.83h-17l7.28-13.27Zm-15.17-1.07h13.06l-7.46-10.21Z"/><polygon class="cls-48" points="295.2 540.16 340.26 526.29 295.2 509.22 295.2 540.16"/><path class="cls-7" d="M1676.42,648.43H1877l-7.51-202.67-25.75-1.07-1.07-49.07h-11.8v-12.8h-41.84l1.07,60.8h-33.25V343.35h-49.35c-1.07,0,0,113.07,0,113.07h-30Z"/><polygon class="cls-8" points="1795.5 444.69 1829.83 444.69 1828.75 398.82 1794.42 398.82 1795.5 444.69"/><polygon class="cls-8" points="1795.5 395.62 1827.68 396.69 1827.68 389.22 1794.42 386.02 1795.5 395.62"/><polygon class="cls-9" points="1770.77 474.97 1769.78 492.69 1798.5 492.69 1770.77 474.97"/><path class="cls-9" d="M1755.27,453.76v48l67.58-2.14Zm14.53,19.32,32.35,20.68h-33.5Z"/><polygon class="cls-8" points="1763.67 648.43 1822.32 648.43 1821.78 598.83 1762.78 575.36 1763.67 648.43"/><polygon class="cls-10" points="1712.36 524.16 1712.36 646.83 1754.37 648.43 1754.19 562.56 1734.88 525.22 1712.36 524.16"/><polygon class="cls-11" points="1677.13 622.47 1704.85 622.29 1704.85 571.09 1749.9 570.02 1749.01 648.43 1675.88 647.89 1677.13 622.47"/><polygon class="cls-12" points="1822.32 649.49 1991.82 649.49 1985.38 388.15 1951.59 387.62 1944.08 266.02 1901.17 304.42 1904.38 480.42 1893.66 479.36 1822.85 529.49 1822.32 649.49"/><polygon class="cls-13" points="1908.68 322.55 1940.86 301.22 1940.86 278.82 1908.68 308.69 1908.68 322.55"/><path class="cls-13" d="M1940.86,311.89l-33.26,21.33,4.29,87.47,33.26-32Zm-24.67,90.67L1914,334.29l2.15-1.07,2.14,68.27Zm7.51-7.47L1921.55,329s2.15-1.06,2.15,0,2.14,65.07,2.14,65.07Zm10.72-11.73-2.14,2.13V325.75h2.14Z"/><path class="cls-43" d="M1922.06,483.09h-22.29l23.46,21Zm-19.5,1.07H1921l1,17.4Z"/><path class="cls-43" d="M1903.85,524.16h0l0,.53v11.78l13.93-1.15,1.09-28.21v-.26l-15-12.64Zm13.3-.43-12.23.39v-9.73l12.58.25Zm-12.23,11.58V525.19l12.19-.39-.37,9.53Zm12.87-28-.25,6.24-12.62-.25V496.51Z"/><polygon class="cls-43" points="1849.67 640.96 1848.6 640.96 1848.6 524.16 1859.33 524.16 1859.33 518.82 1868.9 518.82 1867.83 511.36 1876.49 511.36 1876.49 502.86 1890.93 501.76 1891.02 502.82 1877.57 503.85 1877.57 512.42 1869.07 512.42 1870.14 519.89 1860.4 519.89 1860.4 525.22 1849.67 525.22 1849.67 640.96"/><rect class="cls-44" x="1916.19" y="551.89" width="9.66" height="12.8"/><rect class="cls-44" x="1906.53" y="566.83" width="9.66" height="11.73"/><rect class="cls-15" x="1947.3" y="401.49" width="12.87" height="29.87"/><rect class="cls-15" x="1963.39" y="399.36" width="11.8" height="38.4"/><rect class="cls-43" x="1894.73" y="482.56" width="2.15" height="61.87"/><rect class="cls-43" x="1880.78" y="522.02" width="2.15" height="72.53"/><rect class="cls-43" x="1873.27" y="528.42" width="2.15" height="59.73"/><rect class="cls-43" x="1865.76" y="534.82" width="2.15" height="53.33"/><path class="cls-44" d="M1894.73,603.09s34.33,20.27,34.33,19.2-4.29-41.6-4.29-41.6Z"/><polyline class="cls-15" points="1951.59 502.82 1950.52 495.36 1926.91 512.42 1926.91 516.69 1938.71 516.69 1951.59 503.89"/><polygon class="cls-15" points="1926.91 502.82 1930.13 502.82 1948.37 491.09 1948.37 487.89 1926.91 502.82"/><path class="cls-15" d="M1923.7,481.49h2.14v-1.07h21.46v-2.13s-23.6-1.07-23.6,0Z"/><polygon class="cls-15" points="1941.93 516.69 1951.59 516.69 1953.73 508.16 1941.93 516.69"/><polygon class="cls-11" points="1937.11 649.49 2048.68 649.49 2048.14 484.69 2019.17 474.02 2019.17 496.42 2005.23 496.42 2005.23 527.36 1992.35 529.49 1992.35 430.29 1936.57 430.29 1937.11 649.49"/><rect class="cls-45" x="1938.71" y="433.49" width="50.42" height="3.2"/><rect class="cls-46" x="1939.79" y="447.36" width="50.42" height="8.53"/><rect class="cls-46" x="1939.79" y="475.09" width="50.42" height="8.53"/><rect class="cls-45" x="2011.66" y="547.62" width="33.26" height="1.07"/><rect class="cls-45" x="2008.45" y="551.89" width="36.47" height="1.07"/><rect class="cls-45" x="2010.59" y="557.22" width="35.4" height="1.07"/><rect class="cls-45" x="2004.15" y="530.56" width="2.15" height="117.34"/><path class="cls-45" d="M2044.38,589.76H2012.2V562h32.18Zm-31.11-1.07h30v-25.6h-30Z"/><path class="cls-47" d="M1979.54,577H1955l9.34-18.58Zm-22.79-1.07h20.53l-12.71-15.55Z"/><polygon class="cls-48" points="1944.08 546.56 1989.14 532.69 1944.08 515.62 1944.08 546.56"/></g><rect class="cls-49" x="-8.57" y="664" width="2074.18" height="418.22"/><path class="cls-50" d="M2222,893.92c-86-5.07-1146.76-64.71-2380.84,0h-1.89l-8.93.55V1189H2224.51V893.92Z"/><path class="cls-51" d="M2083.76,1130.81c-32.79-.58-363.61-20-657.74-22.2-11.75-.09-181.41-297.18-611-175.23-94,26.69-202.56,188.25-202.56,188.25h0c-387.54-2.11-97.78.38-660.77,9.18H-50l-8,.14v78.6H2086v-78.74Z"/><rect class="cls-50" x="-29.63" y="639" width="2078.3" height="45.49"/><rect class="cls-1" x="-2" y="4" width="2021" height="1237.16" rx="12" ry="12"/></g></svg>