<svg id="圖層_1" data-name="圖層 1" xmlns="http://www.w3.org/2000/svg" xmlns:xlink="http://www.w3.org/1999/xlink" viewBox="0 0 2017 1222"><defs><style>.cls-1{fill:none;}.cls-2{clip-path:url(#clip-path);}.cls-3,.cls-7{fill:#4d9cde;}.cls-3{stroke:#a8d3ff;stroke-miterlimit:10;}.cls-4{fill:#7a9ec3;}.cls-5{opacity:0.63;}.cls-6{fill:#b6dbf8;}.cls-8{fill:#c995b7;}.cls-9{fill:#c3e5ff;}.cls-10{fill:#96bde9;}.cls-11{fill:#b8bbd6;}.cls-12{fill:#a1d6ff;}.cls-13{fill:#9ea5d8;}.cls-14{fill:#8288b8;}.cls-15{fill:#b1b5dc;}.cls-16{fill:#c9c6e5;}.cls-17{fill:#7cb9ea;}.cls-18{fill:#b2dafb;}.cls-19{fill:#dfcf7d;}.cls-20{fill:#3d9ae6;}.cls-21{fill:#d5ecfa;}.cls-22{fill:#a0dcff;}.cls-23{fill:#51a5d6;}.cls-24{fill:#97ade6;}.cls-25{fill:#5996c6;}.cls-26{fill:#549bdd;}.cls-27{fill:#aad7fa;}.cls-28{fill:#7eb3eb;}.cls-29{fill:#aedafe;}.cls-30{fill:#d3f1fe;}.cls-31{fill:#d5f2fe;}.cls-32{fill:#d6f3ff;}.cls-33{fill:#917d90;}.cls-34{fill:#5086c5;}.cls-35{fill:#71b5f4;}.cls-36{fill:#1275b5;}.cls-37{fill:#b6d7fa;}.cls-38{fill:#7cbaeb;}.cls-39{fill:#fff;}.cls-40{fill:#0066a7;}.cls-41{fill:#98d4fa;}.cls-42{fill:#a36464;}.cls-43{fill:#b2a0b2;}.cls-44{fill:#558bcb;}.cls-45{fill:#fffbee;}.cls-46{fill:#83abdb;}.cls-47{fill:#cbab55;}.cls-48{fill:#4e77ff;opacity:0.49;}.cls-49{fill:#557f89;}.cls-50{fill:#cfa3b1;}</style><clipPath id="clip-path"><rect class="cls-1" x="-33.35" y="11.31" width="2082.56" height="1237.53"/></clipPath></defs><title>0122</title><g class="cls-2"><path class="cls-3" d="M337,504.13v146H646.69v-.44h.52v.43h170V650l68.4-.38v.49H996.71v-.56h15.67v.56h779.36v-.55h.48l-.54-12.91-.88-187.15h-26.6s1-118.14,0-118.14H1720.5V436.15h-29.45l1-63.53h-37V386h-10.45l-1,51.27-22.8,1.12-1.9,60.58L1587,472.37l-9.5,1.11,2.85-183.9-38-40.12-6.65,127.06-29.92.55-.92,44h-22.35V524.75l-11.4-2.23V490.2h-12.35V466.8l-24.59,10.68-.1-47.46-62.69-3.35-1,128.18h-19v-5.58h-5.7V537h-1.9v12.26H1341v-10h-1.9v10h-10v-54h-34.67V469l-22.8-22.3v78l-10.92-.15v-147l-37.52-1.11,1-82.48-39.42-11.7-2.19,106.13-7.78-6.39V358.67l-63.17-2.78-2.35,243H1096V254.47h-4.28v-8.36h1.9V245H1044.2v1.11h1.9v8.36h-5.22v42.36h-28.5V467.91H969.16V377.63l-37.52-1.11,1-82.48-39.42-11.7-3.25,157.71H812l-13.77,25.63V501.9h-26.6v85L746.9,529.77l-44.15-1.92,1.88-236.6-36.1-40.12-5.22,126.5H632v64.09H617.24V389.33h-8.55V374.85h-37l-1.43,63H542.68v-107l-44.17.56-1.9,121.48H464.93l.33-50.15H409.7V526.43H398.78l1-50.16-34.2,1.11Z"/><path class="cls-4" d="M1613.79,497l1.12,50.13H1602V412.9h-65.68l.48,60.71h-37.53L1497,352.19l-52.21-.56V458.57h-32.55l-1.69-62.94H1366.8v14.48h-10.11v52.36h-17.4V386.16h-37l-6.17-126.43-42.66,40.1,2.22,237-52.18,1.92-29.19,57.12v-85h-31.44V474.72l-16.28-25.62H1034.4l-3.85-157.62L984,303.17l1.12,82.44-44.34,1.11v90.79H889.66v-171H856V264.18H849.8v-8.35h2.25v-1.11H793.67v1.11h2.24v8.35h-5V608.4H774l-2.75-240.06-74.66,2.79v23.39l-7.43,5.16-1.6-71.8L639.25,345.7l1.17,39.91-44.35,1.11V495.91l-34.24.57V386.29l-26.94,31.48v37h-41v76.35H482.12V516.94h-2.25v14.17h-3.36V513.79h-2.25v17.32h-6.73V539H445.07L444,358l-74.1,4.73-.56,310.89H608.42l.07-11.14H774.58l0-2.79H889.66v-.55h149.87v-.49l80.85.38v.11h89.75v1.17h111.15v-2.17h.55l.07,12.69h366V524.85l-33.69-26.73ZM847.55,255.83v8.35h-4.49v-8.35Zm-6.73,0v8.35h-9v-8.35Zm-11.23,0v8.35h-7.86v-8.35Zm-10.1,0v8.35H809.38v-8.35Zm-21.33,0h9v8.35h-9Z"/><path class="cls-4" d="M336.17,500.35v23.39H321.58V556l-13.48,2.23V454.67H281.68l-1.08-44-35.37-.56-7.86-127-44.9,40.1L195.84,507l-11.23-1.11-38,26.82L144.75,482l-26.94-1.12-1.12-51.24H104.34V416.24H60.55l1.12,63.5H26.87V375H-24.77c-1.13,0,0,118.08,0,118.08H-56.21l-1,187.06-.63,12.9h.56v.55H152.61l-.37-10H367l-.56-172.1Z"/><path class="cls-4" d="M2092.05,518.17,2061.74,507v23.39h-14.6v32.31L2033.67,565V461.36h-6.21l-1.08-44L1991,416.8l-7.86-127-44.91,40.1,3.37,183.8-11.22-1.11L1907,529.09l-1.91-51.58-27-1.11-1.12-51.25h-12.35V411.78h-43.79l1.13,63.5h-34.81V370.57H1735.6c-1.12,0,0,118.08,0,118.08h-31.44l-1,187.05-.64,12.91h.56v.55h152.69v1.12h236.88Z"/><g class="cls-5"><path class="cls-6" d="M-54,688.05H156L148.1,476.4l-26.94-1.12L120,424H107.69V410.67H63.9L65,474.17H30.22V369.45H-21.42c-1.13,0,0,118.09,0,118.09H-52.86Z"/><polygon class="cls-7" points="70.64 475.28 106.56 475.28 105.44 427.38 69.51 427.38 70.64 475.28"/><polygon class="cls-7" points="70.64 424.04 104.32 425.15 104.32 417.36 69.51 414.01 70.64 424.04"/><polygon class="cls-8" points="44.76 506.9 43.72 525.41 73.78 525.41 44.76 506.9"/><path class="cls-8" d="M28.54,484.75v50.13l70.72-2.23Zm15.21,20.18L77.6,526.52H42.54Z"/><polygon class="cls-7" points="37.33 688.05 98.7 688.05 98.14 636.25 36.39 611.74 37.33 688.05"/><polygon class="cls-9" points="-16.37 558.27 -16.37 686.38 27.6 688.05 27.41 598.38 7.21 559.39 -16.37 558.27"/><polygon class="cls-10" points="-53.23 660.94 -24.23 660.76 -24.23 607.29 22.92 606.17 21.99 688.05 -54.54 687.49 -53.23 660.94"/><polygon class="cls-6" points="1415.62 453 1448.17 453 1448.17 346.06 1500.38 346.62 1502.62 468.04 1564.37 468.04 1578.97 541.56 1618.26 541.56 1617.14 491.43 1657.55 492.55 1691.23 519.28 1691.23 665.21 1325.24 665.21 1324.12 456.9 1360.04 456.9 1360.04 404.54 1370.15 404.54 1370.15 390.06 1413.93 390.06 1415.62 453"/><polygon class="cls-7" points="1691.23 545.46 1686.18 545.46 1686.18 534.32 1674.95 534.32 1674.95 523.14 1662 522.07 1662.09 520.96 1676.08 522.11 1676.08 533.21 1687.31 533.21 1687.31 544.35 1691.23 544.35 1691.23 545.46"/><polygon class="cls-7" points="1625 520.4 1647.45 495.89 1626.12 495.89 1625 520.4"/><polygon class="cls-7" points="1630.61 567.18 1647.45 567.18 1646.33 511.49 1630.61 527.08 1630.61 567.18"/><polygon class="cls-8" points="1380.25 511.49 1449.86 514.83 1449.86 464.7 1380.25 511.49"/><path class="cls-6" d="M1402.86,506.55l35.27-21.73-1.21,20.52Zm34-19.65L1407,505.28l28.81-1Z"/><rect class="cls-7" x="1375.76" y="395.63" width="33.68" height="8.91"/><rect class="cls-7" x="1374.64" y="407.89" width="34.8" height="49.01"/><rect class="cls-7" x="1621.63" y="591.69" width="11.23" height="17.82"/><rect class="cls-7" x="1630.61" y="612.86" width="13.47" height="17.82"/><rect class="cls-7" x="1654.19" y="494.78" width="2.25" height="85.78"/><rect class="cls-7" x="1685.62" y="567.18" width="2.25" height="95.8"/><rect class="cls-7" x="1677.76" y="562.73" width="2.25" height="95.8"/><rect class="cls-7" x="1669.9" y="559.39" width="2.25" height="95.8"/><polygon class="cls-11" points="1342.64 652.4 1342.64 380.59 1305.59 380.59 1299.42 254.16 1256.76 294.26 1260.12 652.96 1342.64 652.4"/><polygon class="cls-12" points="1262.37 315.43 1297.17 290.92 1297.17 265.3 1261.24 298.72 1262.37 315.43"/><polygon class="cls-12" points="1261.24 324.34 1264.61 416.8 1301.66 381.15 1297.17 300.94 1261.24 324.34"/><path class="cls-13" d="M1276.36,505.87l1.19-29.49,41.61,1.18Zm2.26-28.35-1,26.21,38-25.16Z"/><polygon class="cls-13" points="1276.96 514.83 1276.96 531.54 1320.75 528.2 1319.63 483.64 1276.96 514.83"/><polygon class="cls-11" points="1267.98 324.34 1270.23 324.34 1273.6 396.75 1271.35 398.97 1267.98 324.34"/><polygon class="cls-11" points="1275.84 319.88 1278.09 319.88 1280.33 388.95 1278.09 390.06 1275.84 319.88"/><path class="cls-11" d="M1287.07,316.54s1.12-1.11,1.12,0,1.12,62.38,1.12,62.38h-2.24Z"/><path class="cls-11" d="M1280.61,522.14,1310,502.73l2.44,18.2Zm28.47-17.49-24.54,16.23,26.59-1Z"/><rect class="cls-14" x="1303.91" y="396.75" width="12.35" height="36.76"/><rect class="cls-14" x="1319.63" y="393.4" width="13.47" height="38.99"/><rect class="cls-9" x="1123.72" y="505.36" width="53.89" height="148.16"/><polygon class="cls-15" points="1146.17 653.52 1146.17 469.15 1129.89 443.53 1034.46 443.53 1028.85 456.9 1028.85 652.96 1146.17 653.52"/><rect class="cls-16" x="1044.57" y="460.24" width="13.47" height="17.82"/><rect class="cls-16" x="1058.6" y="481.97" width="12.35" height="16.71"/><polygon class="cls-17" points="775.12 652.96 774 602.83 794.21 602.83 794.21 258.61 859.32 258.61 859.32 300.94 893 300.94 893 654.07 775.12 654.07 775.12 652.96"/><rect class="cls-18" x="799.82" y="267.53" width="55.01" height="28.96"/><rect class="cls-18" x="799.82" y="310.97" width="88.69" height="2.23"/><rect class="cls-18" x="799.82" y="317.65" width="88.69" height="2.23"/><rect class="cls-18" x="798.7" y="374.47" width="88.69" height="2.23"/><rect class="cls-18" x="798.7" y="427.94" width="88.69" height="2.23"/><rect class="cls-18" x="799.82" y="480.29" width="88.69" height="2.23"/><rect class="cls-18" x="799.82" y="573.87" width="88.69" height="2.23"/><rect class="cls-18" x="799.82" y="581.67" width="88.69" height="2.23"/><rect class="cls-18" x="799.82" y="602.83" width="88.69" height="2.23"/><polygon class="cls-18" points="797.01 249.15 797.01 250.26 799.26 250.26 799.26 259.17 801.5 259.17 801.5 250.26 810.49 250.26 810.49 259.17 812.73 259.17 812.73 250.26 822.84 250.26 822.84 259.17 825.08 259.17 825.08 250.26 832.94 250.26 832.94 259.17 835.19 259.17 835.19 250.26 844.17 250.26 844.17 259.17 846.41 259.17 846.41 250.26 850.9 250.26 850.9 259.17 853.15 259.17 853.15 250.26 855.39 250.26 855.39 249.15 797.01 249.15"/><rect class="cls-19" x="811.05" y="437.96" width="19.09" height="22.28"/><rect class="cls-19" x="849.22" y="437.96" width="19.09" height="22.28"/><rect class="cls-19" x="809.93" y="331.02" width="19.09" height="22.28"/><rect class="cls-19" x="848.1" y="331.02" width="19.09" height="22.28"/><rect class="cls-18" x="805.43" y="493.66" width="78.59" height="70.18"/><polygon class="cls-9" points="1033.9 285.91 1042.88 653.52 944.09 653.52 944.09 381.15 988.43 380.04 987.31 297.6 1033.9 285.91"/><rect class="cls-20" x="994.05" y="298.72" width="12.35" height="7.8"/><rect class="cls-20" x="1008.64" y="298.72" width="12.35" height="7.8"/><rect class="cls-20" x="994.05" y="308.74" width="12.35" height="10.03"/><rect class="cls-20" x="1008.64" y="308.74" width="12.35" height="10.03"/><rect class="cls-21" x="988.43" y="412.34" width="13.47" height="17.82"/><rect class="cls-21" x="976.08" y="390.06" width="13.47" height="17.82"/><polygon class="cls-9" points="690.87 322.31 698.22 653.52 599.42 653.52 599.42 381.15 643.77 380.04 642.6 340.13 690.87 322.31"/><rect class="cls-20" x="653.82" y="341.24" width="12.35" height="7.8"/><rect class="cls-20" x="668.42" y="341.24" width="12.35" height="7.8"/><rect class="cls-20" x="653.82" y="351.27" width="12.35" height="10.03"/><rect class="cls-20" x="668.42" y="351.27" width="12.35" height="10.03"/><rect class="cls-21" x="643.77" y="412.34" width="13.47" height="17.82"/><rect class="cls-21" x="631.42" y="390.06" width="13.47" height="17.82"/><rect class="cls-22" x="858.76" y="471.94" width="94.31" height="181.58"/><rect class="cls-23" x="868.31" y="483.64" width="84.2" height="33.42"/><rect class="cls-24" x="881.78" y="492.55" width="70.73" height="13.37"/><rect class="cls-25" x="861.57" y="527.08" width="88.69" height="3.34"/><path class="cls-25" d="M951.38,581.67v-3.35h-5.61V537.11h4.49v-3.35H861.57v3.35h4.49v117h2.25V648.5h82v-3.34h-82v-7.8h83.07V634H868.31V591.69h19.08v41.22h2.25V591.69h15.71v41.22h2.25V591.69h16.84v41.22h2.24V591.69h16.85v41.22h2.24V591.69h5.61v-3.34H868.31v-6.68Zm-7.85-44.56v41.21H926.68V537.11Zm-19.09,0v41.21H907.6V537.11Zm-19.09,0v41.21H889.64V537.11Zm-18,0v41.21H868.31V537.11Z"/><rect class="cls-26" x="911.53" y="532.09" width="103.29" height="121.42"/><rect class="cls-27" x="913.21" y="548.25" width="97.67" height="2.23"/><rect class="cls-27" x="923.32" y="556.04" width="2.25" height="24.51"/><rect class="cls-27" x="939.03" y="556.04" width="2.25" height="24.51"/><rect class="cls-27" x="952.51" y="556.04" width="2.25" height="24.51"/><rect class="cls-27" x="967.1" y="556.04" width="2.25" height="24.51"/><rect class="cls-27" x="980.57" y="556.04" width="2.25" height="24.51"/><rect class="cls-27" x="994.05" y="556.04" width="2.25" height="24.51"/><rect class="cls-27" x="913.21" y="586.12" width="97.67" height="2.23"/><rect class="cls-27" x="923.32" y="593.92" width="2.25" height="24.51"/><rect class="cls-27" x="939.03" y="593.92" width="2.25" height="24.51"/><rect class="cls-27" x="952.51" y="593.92" width="2.25" height="24.51"/><rect class="cls-27" x="967.1" y="593.92" width="2.25" height="24.51"/><rect class="cls-27" x="980.57" y="593.92" width="2.25" height="24.51"/><rect class="cls-27" x="994.05" y="593.92" width="2.25" height="24.51"/><rect class="cls-27" x="913.21" y="620.65" width="97.67" height="2.23"/><rect class="cls-27" x="923.32" y="628.45" width="2.25" height="24.51"/><rect class="cls-27" x="939.03" y="628.45" width="2.25" height="24.51"/><rect class="cls-27" x="952.51" y="628.45" width="2.25" height="24.51"/><rect class="cls-27" x="967.1" y="628.45" width="2.25" height="24.51"/><rect class="cls-27" x="980.57" y="628.45" width="2.25" height="24.51"/><rect class="cls-27" x="994.05" y="628.45" width="2.25" height="24.51"/><polygon class="cls-28" points="1165.26 653.52 1268.54 653.52 1267.42 530.98 1206.8 533.21 1166.38 612.3 1165.26 653.52"/><path class="cls-29" d="M1213.47,654.69c0-13.37,0-27.85,0-27.85L1226,626l-.14-12.5h40.42V619h14.59s.05-9.66,0-12.25h43.79v47.9Z"/><rect class="cls-30" x="1286.45" y="617.93" width="13.47" height="10.03"/><rect class="cls-30" x="1302.16" y="617.93" width="13.47" height="10.03"/><path class="cls-30" d="M1226.94,623.5v17.82h32.56V623.5ZM1256.13,638h-25.82V626.84h25.82Z"/><rect class="cls-31" x="1276.34" y="600.1" width="51.64" height="11.14"/><polygon class="cls-10" points="1421.23 654.63 1605.35 654.63 1605.35 407.33 1539.67 407.33 1540.79 549.36 1525.08 546.02 1526.2 500.35 1510.48 500.35 1510.48 470.27 1486.9 480.29 1488.03 551.59 1420.67 590.58 1421.23 654.63"/><path class="cls-32" d="M1585.45,615.68l-30-1.19,18-26.17Zm-27.9-2.23,26.16,1-10.47-23.88Z"/><polygon class="cls-33" points="1544.16 553.82 1598.05 571.64 1598.05 528.2 1544.16 553.82"/><rect class="cls-32" x="1544.16" y="415.68" width="57.26" height="3.34"/><rect class="cls-32" x="1545.28" y="434.62" width="56.13" height="13.37"/><rect class="cls-32" x="1545.28" y="471.38" width="56.13" height="13.37"/><rect class="cls-34" x="1525.08" y="550.47" width="2.25" height="63.5"/><rect class="cls-34" x="1491.4" y="561.61" width="14.59" height="2.23"/><rect class="cls-34" x="1491.4" y="567.18" width="15.72" height="2.23"/><rect class="cls-34" x="1491.4" y="573.87" width="28.07" height="2.23"/><rect class="cls-34" x="1491.4" y="579.44" width="31.44" height="2.23"/><rect class="cls-34" x="1491.4" y="586.12" width="31.44" height="2.23"/><path class="cls-32" d="M1501.5,493.1a3.9,3.9,0,1,1,3.93-3.89A3.91,3.91,0,0,1,1501.5,493.1Zm0-6.68a2.79,2.79,0,1,0,2.81,2.79A2.8,2.8,0,0,0,1501.5,486.42Z"/><path class="cls-32" d="M1439.75,593.92c1.13-1.11,46-27.85,46-27.85l-3.37-3.34-44.9,27.85Z"/><path class="cls-32" d="M1452.66,629h-18V604.5h18Zm-16.84-1.11h15.72V605.62h-15.72Z"/><rect class="cls-34" x="1490.27" y="593.92" width="29.19" height="5.57"/><rect class="cls-34" x="1491.4" y="607.29" width="29.19" height="5.57"/><polygon class="cls-7" points="605.03 656.86 777.93 656.86 774.56 362.77 699.9 365.56 699.9 388.95 688.67 396.75 686.43 585.01 606.72 586.12 605.03 656.86"/><rect class="cls-32" x="707.76" y="388.95" width="63.99" height="3.34"/><rect class="cls-32" x="718.99" y="407.89" width="29.19" height="2.23"/><rect class="cls-32" x="718.99" y="461.36" width="26.94" height="2.23"/><rect class="cls-32" x="718.99" y="568.3" width="29.19" height="3.34"/><polygon class="cls-32" points="715.06 574.42 686.43 574.42 686.43 573.31 713.94 573.31 713.94 410.67 688.6 410.46 688.61 409.35 715.06 409.56 715.06 574.42"/><polygon class="cls-9" points="688.49 414.94 710.01 414.57 708.88 567.18 686.43 567.37 688.49 414.94"/><rect class="cls-35" x="689.8" y="416.8" width="17.96" height="13.37"/><rect class="cls-35" x="689.8" y="432.39" width="17.96" height="15.6"/><rect class="cls-35" x="689.8" y="450.22" width="17.96" height="18.94"/><rect class="cls-35" x="689.8" y="471.38" width="17.96" height="17.82"/><rect class="cls-35" x="689.8" y="491.43" width="17.96" height="13.37"/><rect class="cls-35" x="688.68" y="507.03" width="19.09" height="13.37"/><rect class="cls-35" x="688.68" y="522.63" width="19.09" height="12.25"/><rect class="cls-35" x="687.55" y="537.11" width="20.21" height="14.48"/><rect class="cls-35" x="687.55" y="553.82" width="20.21" height="12.25"/><polygon class="cls-32" points="752.11 573.31 776.81 573.31 776.81 572.2 753.08 572.2 753.08 409.55 774.93 409.35 774.93 408.23 752.11 408.45 752.11 573.31"/><polygon class="cls-9" points="775.03 413.83 756.47 413.46 757.43 566.07 776.81 566.26 775.03 413.83"/><rect class="cls-35" x="758.4" y="415.68" width="15.5" height="13.37" transform="translate(1532.3 844.74) rotate(-180)"/><rect class="cls-35" x="758.4" y="431.28" width="15.5" height="15.6" transform="translate(1532.3 878.15) rotate(-180)"/><rect class="cls-35" x="758.4" y="449.1" width="15.5" height="18.94" transform="translate(1532.3 917.14) rotate(-180)"/><rect class="cls-35" x="758.4" y="470.27" width="15.5" height="17.82" transform="translate(1532.3 958.36) rotate(-180)"/><rect class="cls-35" x="758.4" y="490.32" width="15.5" height="13.37" transform="translate(1532.3 994.01) rotate(-180)"/><rect class="cls-35" x="758.4" y="505.92" width="16.47" height="13.37" transform="translate(1533.27 1025.2) rotate(-180)"/><rect class="cls-35" x="758.4" y="521.51" width="16.47" height="12.25" transform="translate(1533.27 1055.28) rotate(-180)"/><rect class="cls-35" x="758.4" y="535.99" width="17.43" height="14.48" transform="translate(1534.24 1086.47) rotate(-180)"/><rect class="cls-35" x="758.4" y="552.7" width="17.43" height="12.25" transform="translate(1534.24 1117.66) rotate(-180)"/><polygon class="cls-32" points="765.58 656.87 764.47 598.93 701.58 598.93 701.3 656.86 700.18 656.86 700.47 597.82 765.57 597.82 766.7 656.85 765.58 656.87"/><polygon class="cls-32" points="758 656.86 757.72 608.97 710.55 610.06 709.45 655.2 708.32 655.17 709.46 608.97 758.84 607.83 759.12 656.86 758 656.86"/><rect class="cls-36" x="654.99" y="605.06" width="2.25" height="50.13"/><rect class="cls-36" x="661.73" y="605.06" width="2.25" height="50.13"/><rect class="cls-36" x="667.34" y="605.06" width="2.25" height="50.13"/><rect class="cls-36" x="674.08" y="605.06" width="2.25" height="50.13"/><rect class="cls-36" x="678.57" y="605.06" width="2.25" height="50.13"/><rect class="cls-37" x="497.26" y="449.19" width="42.66" height="130.65"/><polygon class="cls-38" points="372.64 668 611.77 668 612.89 490.12 565.18 490.91 565.18 380.72 538.24 412.2 538.24 569.62 507.92 571.19 507.92 525.54 470.87 525.54 470.87 533.41 448.42 533.41 447.3 352.38 373.2 357.11 372.64 668"/><rect class="cls-39" x="379.94" y="364.98" width="63.99" height="78.71"/><path class="cls-40" d="M424.28,561h-6.73v-11h6.73Zm-5.61-1.58h4.49v-7.87h-4.49Z"/><path class="cls-40" d="M440,554.66h-5.61v-11H440Zm-4.49-1.57h3.37v-7.87h-3.37Z"/><rect class="cls-40" x="500.06" y="509.8" width="2.25" height="15.74"/><rect class="cls-40" x="483.22" y="511.37" width="2.25" height="14.17"/><rect class="cls-40" x="477.61" y="508.22" width="2.25" height="17.32"/><rect class="cls-41" x="541.6" y="449.98" width="20.21" height="1.57"/><rect class="cls-41" x="541.6" y="454.7" width="21.33" height="1.57"/><rect class="cls-41" x="541.6" y="489.33" width="20.21" height="3.15"/><rect class="cls-41" x="544.97" y="498.78" width="62.87" height="3.15"/><path class="cls-41" d="M583.7,538.92H548.9V510.58h34.8ZM550,537.34h32.56V512.16H550Z"/><rect class="cls-41" x="587.63" y="509.8" width="17.96" height="3.15"/><rect class="cls-41" x="587.63" y="519.24" width="17.96" height="1.57"/><rect class="cls-41" x="587.63" y="528.69" width="17.96" height="3.15"/><rect class="cls-41" x="587.63" y="536.56" width="17.96" height="1.57"/><rect class="cls-41" x="542.73" y="544.43" width="65.12" height="1.57"/><rect class="cls-41" x="542.73" y="553.87" width="67.36" height="3.15"/><rect class="cls-40" x="454.03" y="553.87" width="13.47" height="1.57"/><rect class="cls-40" x="470.87" y="550.72" width="35.93" height="1.57"/><rect class="cls-40" x="470.87" y="534.98" width="1.12" height="73.98"/><rect class="cls-40" x="483.22" y="555.45" width="2.25" height="20.46"/><rect class="cls-40" x="496.7" y="555.45" width="1.12" height="20.46"/><rect class="cls-40" x="475.36" y="564.89" width="5.61" height="9.44"/><rect class="cls-40" x="448.42" y="538.13" width="3.37" height="73.98"/><path class="cls-40" d="M402.39,662.49c1.12,0,66.24-45.65,66.24-45.65l-2.25-4.72-73,50.37Z"/><rect class="cls-40" x="455.16" y="571.19" width="12.35" height="3.15"/><rect class="cls-40" x="455.16" y="593.23" width="12.35" height="3.15"/><polygon class="cls-38" points="1125.64 660 1364.77 660 1365.89 482.12 1318.18 482.91 1318.18 372.72 1291.23 404.2 1291.23 561.62 1260.92 563.19 1260.92 517.54 1223.87 517.54 1223.87 525.41 1201.42 525.41 1200.3 344.38 1126.2 349.11 1125.64 660"/><rect class="cls-39" x="1132.94" y="356.98" width="63.99" height="78.71"/><path class="cls-40" d="M1177.28,553h-6.73v-11h6.73Zm-5.61-1.58h4.49v-7.87h-4.49Z"/><path class="cls-40" d="M1193,546.66h-5.61v-11H1193Zm-4.49-1.57h3.37v-7.87h-3.37Z"/><rect class="cls-40" x="1253.06" y="501.8" width="2.25" height="15.74"/><rect class="cls-40" x="1236.22" y="503.37" width="2.25" height="14.17"/><rect class="cls-40" x="1230.61" y="500.22" width="2.25" height="17.32"/><rect class="cls-41" x="1294.6" y="441.98" width="20.21" height="1.57"/><rect class="cls-41" x="1294.6" y="446.7" width="21.33" height="1.57"/><rect class="cls-41" x="1294.6" y="481.33" width="20.21" height="3.15"/><rect class="cls-41" x="1297.97" y="490.78" width="62.87" height="3.15"/><path class="cls-41" d="M1336.7,530.92h-34.8V502.58h34.8ZM1303,529.34h32.56V504.16H1303Z"/><rect class="cls-41" x="1340.63" y="501.8" width="17.96" height="3.15"/><rect class="cls-41" x="1340.63" y="511.24" width="17.96" height="1.57"/><rect class="cls-41" x="1340.63" y="520.69" width="17.96" height="3.15"/><rect class="cls-41" x="1340.63" y="528.56" width="17.96" height="1.57"/><rect class="cls-41" x="1295.73" y="536.43" width="65.12" height="1.57"/><rect class="cls-41" x="1295.73" y="545.87" width="67.36" height="3.15"/><rect class="cls-40" x="1207.03" y="545.87" width="13.47" height="1.57"/><rect class="cls-40" x="1223.87" y="542.72" width="35.93" height="1.57"/><rect class="cls-40" x="1223.87" y="526.98" width="1.12" height="73.98"/><rect class="cls-40" x="1236.22" y="547.45" width="2.25" height="20.46"/><rect class="cls-40" x="1249.7" y="547.45" width="1.12" height="20.46"/><rect class="cls-40" x="1228.36" y="556.89" width="5.61" height="9.44"/><rect class="cls-40" x="1201.42" y="530.13" width="3.37" height="73.98"/><path class="cls-40" d="M1155.39,654.49c1.12,0,66.24-45.65,66.24-45.65l-2.25-4.72-73,50.37Z"/><rect class="cls-40" x="1208.16" y="563.19" width="12.35" height="3.15"/><rect class="cls-40" x="1208.16" y="585.23" width="12.35" height="3.15"/><polygon class="cls-11" points="113.3 678.02 290.68 678.02 283.95 405.1 248.58 404.54 240.72 277.55 195.82 317.65 199.18 501.46 187.96 500.35 113.86 552.7 113.3 678.02"/><polygon class="cls-12" points="203.68 336.59 237.35 314.31 237.35 290.92 203.68 322.11 203.68 336.59"/><path class="cls-12" d="M237.36,325.45l-34.81,22.28L207,439.08l34.81-33.42Zm-25.83,94.69-2.24-71.29,2.24-1.12,2.25,71.3Zm7.86-7.8-2.24-69.06s2.24-1.12,2.24,0,2.25,68,2.25,68Zm11.23-12.25-2.25,2.23V339.93h2.25Z"/><path class="cls-42" d="M217.68,504.24H194.35l24.56,21.93Zm-20.4,1.12h19.34l1,18.18Z"/><path class="cls-42" d="M198.62,547.13h0l0,.56V560l14.58-1.2,1.14-29.46v-.27l-15.73-13.21Zm13.92-.45-12.79.42V536.93l13.16.26Zm-12.79,12.1V548.21l12.75-.41-.39,10Zm13.46-29.22-.25,6.51-13.21-.25V518.26Z"/><polygon class="cls-42" points="141.93 669.11 140.8 669.11 140.8 547.13 152.03 547.13 152.03 541.56 162.05 541.56 160.93 533.76 169.99 533.76 169.99 524.89 185.11 523.74 185.19 524.85 171.12 525.93 171.12 534.88 162.22 534.88 163.34 542.68 153.15 542.68 153.15 548.25 141.93 548.25 141.93 669.11"/><rect class="cls-43" x="211.53" y="576.1" width="10.1" height="13.37"/><rect class="cls-43" x="201.43" y="591.69" width="10.1" height="12.25"/><rect class="cls-14" x="244.09" y="419.03" width="13.47" height="31.19"/><rect class="cls-14" x="260.93" y="416.8" width="12.35" height="40.1"/><rect class="cls-42" x="189.08" y="503.69" width="2.25" height="64.61"/><rect class="cls-42" x="174.48" y="544.9" width="2.25" height="75.75"/><rect class="cls-42" x="166.63" y="551.59" width="2.25" height="62.38"/><rect class="cls-42" x="158.77" y="558.27" width="2.25" height="55.7"/><path class="cls-43" d="M189.08,629.57s35.93,21.16,35.93,20-4.49-43.45-4.49-43.45Z"/><polyline class="cls-14" points="248.58 524.85 247.46 517.05 222.76 534.88 222.76 539.34 235.11 539.34 248.58 525.97"/><polygon class="cls-14" points="222.76 524.85 226.13 524.85 245.21 512.6 245.21 509.26 222.76 524.85"/><path class="cls-14" d="M219.39,502.57h2.25v-1.11h22.45v-2.23s-24.7-1.11-24.7,0Z"/><polygon class="cls-14" points="238.48 539.34 248.58 539.34 250.83 530.42 238.48 539.34"/><polygon class="cls-10" points="253.63 678.02 370.39 678.02 369.83 505.92 339.52 494.78 339.52 518.17 324.93 518.17 324.93 550.47 311.45 552.7 311.45 449.1 253.07 449.1 253.63 678.02"/><rect class="cls-44" x="255.32" y="452.45" width="52.77" height="3.34"/><rect class="cls-45" x="256.44" y="466.93" width="52.77" height="8.91"/><rect class="cls-45" x="256.44" y="495.89" width="52.77" height="8.91"/><rect class="cls-44" x="345.13" y="561.61" width="21.33" height="2.23"/><rect class="cls-44" x="344.01" y="566.07" width="22.45" height="2.23"/><rect class="cls-44" x="331.66" y="571.64" width="34.8" height="1.11"/><rect class="cls-44" x="328.29" y="576.1" width="38.17" height="1.11"/><rect class="cls-44" x="330.54" y="581.67" width="37.05" height="1.11"/><rect class="cls-44" x="323.8" y="553.82" width="2.25" height="122.54"/><path class="cls-44" d="M365.9,615.64H332.22v-29H365.9Zm-32.55-1.11h31.43V587.79H333.35Z"/><path class="cls-44" d="M349.06,512c-2.47,0-4.49-1.75-4.49-3.9s2-3.9,4.49-3.9,4.49,1.75,4.49,3.9S351.54,512,349.06,512Zm0-6.68c-1.85,0-3.37,1.25-3.37,2.78a3.43,3.43,0,1,0,3.37-2.78Z"/><path class="cls-46" d="M298,602.27H272.37l9.78-19.4Zm-23.85-1.11h21.49l-13.3-16.24Z"/><path class="cls-44" d="M355.22,606.73H337.45l7.62-13.85Zm-15.88-1.11H353L345.2,595Z"/><polygon class="cls-47" points="260.93 570.53 308.08 556.04 260.93 538.22 260.93 570.53"/><path class="cls-6" d="M1706.39,683.59h209.94l-7.86-211.65-26.94-1.11-1.12-51.25h-12.35V406.22h-43.79l1.13,63.49h-34.81V365H1739c-1.12,0,0,118.08,0,118.08h-31.44Z"/><polygon class="cls-7" points="1831.01 470.83 1866.93 470.83 1865.81 422.93 1829.89 422.93 1831.01 470.83"/><polygon class="cls-7" points="1831.01 419.58 1864.69 420.7 1864.69 412.9 1829.89 409.56 1831.01 419.58"/><polygon class="cls-8" points="1805.13 502.44 1804.1 520.95 1834.15 520.95 1805.13 502.44"/><path class="cls-8" d="M1788.91,480.29v50.13l70.73-2.22Zm15.21,20.18,33.85,21.6h-35.06Z"/><polygon class="cls-7" points="1797.7 683.59 1859.08 683.59 1858.51 631.79 1796.77 607.29 1797.7 683.59"/><polygon class="cls-9" points="1744 553.82 1744 681.92 1787.97 683.59 1787.79 593.92 1767.58 554.93 1744 553.82"/><polygon class="cls-10" points="1707.14 656.49 1736.14 656.3 1736.14 602.83 1783.3 601.72 1782.36 683.59 1705.83 683.04 1707.14 656.49"/><polygon class="cls-11" points="1859.08 684.71 2036.46 684.71 2029.72 411.79 1994.36 411.23 1986.5 284.24 1941.59 324.34 1944.96 508.14 1933.73 507.03 1859.64 559.39 1859.08 684.71"/><polygon class="cls-12" points="1949.45 343.28 1983.13 321 1983.13 297.6 1949.45 328.79 1949.45 343.28"/><path class="cls-12" d="M1983.13,332.14l-34.8,22.28,4.49,91.34,34.8-33.42Zm-25.82,94.68-2.24-71.29,2.24-1.11,2.25,71.29Zm7.86-7.79L1962.92,350s2.25-1.11,2.25,0,2.25,68,2.25,68Zm11.23-12.26-2.25,2.23V346.62h2.25Z"/><path class="cls-42" d="M1963.45,510.93h-23.32l24.55,21.92ZM1943.06,512h19.33l1,18.18Z"/><path class="cls-42" d="M1944.4,553.82h0l0,.55v12.3l14.58-1.2,1.14-29.46v-.27l-15.73-13.2Zm13.92-.45-12.8.41V543.62l13.17.25Zm-12.8,12.1V554.89l12.76-.41-.39,10ZM1959,536.24l-.26,6.52-13.21-.26V524.94Z"/><polygon class="cls-42" points="1887.7 675.8 1886.58 675.8 1886.58 553.82 1897.81 553.82 1897.81 548.25 1907.83 548.25 1906.7 540.45 1915.77 540.45 1915.77 531.58 1930.88 530.42 1930.97 531.53 1916.89 532.61 1916.89 541.56 1908 541.56 1909.12 549.36 1898.93 549.36 1898.93 554.93 1887.7 554.93 1887.7 675.8"/><rect class="cls-43" x="1957.31" y="582.78" width="10.1" height="13.37"/><rect class="cls-43" x="1947.21" y="598.38" width="10.1" height="12.25"/><rect class="cls-14" x="1989.87" y="425.71" width="13.47" height="31.19"/><rect class="cls-14" x="2006.71" y="423.48" width="12.35" height="40.1"/><rect class="cls-42" x="1934.86" y="510.37" width="2.25" height="64.61"/><rect class="cls-42" x="1920.26" y="551.59" width="2.25" height="75.75"/><rect class="cls-42" x="1912.4" y="558.27" width="2.25" height="62.38"/><rect class="cls-42" x="1904.54" y="564.96" width="2.25" height="55.7"/><path class="cls-43" d="M1934.86,636.25s35.92,21.17,35.92,20-4.49-43.44-4.49-43.44Z"/><polyline class="cls-14" points="1994.36 531.54 1993.24 523.74 1968.54 541.56 1968.54 546.02 1980.89 546.02 1994.36 532.65"/><polygon class="cls-14" points="1968.54 531.54 1971.91 531.54 1990.99 519.28 1990.99 515.94 1968.54 531.54"/><path class="cls-14" d="M1965.17,509.26h2.25v-1.12h22.45v-2.22s-24.7-1.12-24.7,0Z"/><polygon class="cls-14" points="1984.26 546.02 1994.36 546.02 1996.61 537.11 1984.26 546.02"/><polygon class="cls-10" points="1979.2 684.71 2095.96 684.71 2095.4 512.6 2065.09 501.46 2065.09 524.85 2050.49 524.85 2050.49 557.16 2037.02 559.39 2037.02 455.79 1978.64 455.79 1979.2 684.71"/><rect class="cls-44" x="1980.89" y="459.13" width="52.77" height="3.34"/><rect class="cls-45" x="1982.01" y="473.61" width="52.77" height="8.91"/><rect class="cls-45" x="1982.01" y="502.57" width="52.77" height="8.91"/><path class="cls-46" d="M2023.61,609h-25.67l9.78-19.4Zm-23.85-1.12h21.49l-13.31-16.24Z"/><polygon class="cls-47" points="1986.5 577.21 2033.65 562.73 1986.5 544.9 1986.5 577.21"/></g><rect class="cls-48" x="-56.97" y="683.86" width="2170.65" height="436.76"/><path class="cls-49" d="M2277.36,924c-90-5.29-1200.1-67.58-2491.58,0h-2l-9.34.57v307.59H2280V924Z"/><path class="cls-50" d="M2132.68,1171.36c-34.32-.6-380.52-20.92-688.33-23.19-12.3-.09-189.85-310.34-639.43-183-98.38,27.87-212,196.59-212,196.59h0c-405.57-2.2-102.33.4-691.5,9.59h-1.78l-8.36.15v82.08H2135v-82.23Z"/><rect class="cls-49" x="-79.01" y="655.66" width="2174.97" height="47.51"/></g><rect class="cls-1" x="-48" y="4" width="2115" height="1292" rx="12" ry="12"/><rect class="cls-1" x="-43.81" y="16.53" width="2103.49" height="1246.93"/></svg>