<svg xmlns="http://www.w3.org/2000/svg" xmlns:xlink="http://www.w3.org/1999/xlink" viewBox="0 0 1920 883.3"><defs><style>.cls-1{fill:none;}.cls-2{clip-path:url(#clip-path);}.cls-3{fill:#4e77ff;opacity:0.49;}.cls-4{fill:#557f89;}.cls-5,.cls-9{fill:#4d9cde;}.cls-5{stroke:#a8d3ff;stroke-miterlimit:10;}.cls-6{fill:#7a9ec3;}.cls-7{opacity:0.63;}.cls-8{fill:#b6dbf8;}.cls-10{fill:#c995b7;}.cls-11{fill:#c3e5ff;}.cls-12{fill:#96bde9;}.cls-13{fill:#b8bbd6;}.cls-14{fill:#a1d6ff;}.cls-15{fill:#9ea5d8;}.cls-16{fill:#8288b8;}.cls-17{fill:#b1b5dc;}.cls-18{fill:#c9c6e5;}.cls-19{fill:#7cb9ea;}.cls-20{fill:#b2dafb;}.cls-21{fill:#dfcf7d;}.cls-22{fill:#3d9ae6;}.cls-23{fill:#d5ecfa;}.cls-24{fill:#a0dcff;}.cls-25{fill:#51a5d6;}.cls-26{fill:#97ade6;}.cls-27{fill:#5996c6;}.cls-28{fill:#549bdd;}.cls-29{fill:#aad7fa;}.cls-30{fill:#7eb3eb;}.cls-31{fill:#aedafe;}.cls-32{fill:#d3f1fe;}.cls-33{fill:#d5f2fe;}.cls-34{fill:#d6f3ff;}.cls-35{fill:#917d90;}.cls-36{fill:#5086c5;}.cls-37{fill:#71b5f4;}.cls-38{fill:#1275b5;}.cls-39{fill:#b6d7fa;}.cls-40{fill:#7cbaeb;}.cls-41{fill:#fff;}.cls-42{fill:#0066a7;}.cls-43{fill:#98d4fa;}.cls-44{fill:#a36464;}.cls-45{fill:#b2a0b2;}.cls-46{fill:#558bcb;}.cls-47{fill:#fffbee;}.cls-48{fill:#83abdb;}.cls-49{fill:#cbab55;}.cls-50{fill:#cfa3b1;}</style><clipPath id="clip-path" transform="translate(0 -163.89)"><rect class="cls-1" x="88" width="1784" height="1040" rx="12" ry="12"/></clipPath></defs><title>資產 8</title><g id="圖層_2" data-name="圖層 2"><g id="圖層_1-2" data-name="圖層 1"><g class="cls-2"><rect class="cls-3" x="9" y="370.11" width="1904" height="360"/><path class="cls-4" d="M1918,782.8c-68.93-4.53-919.64-58-1909.32,0H7.15L0,783.3v263.89H1920V782.8Z" transform="translate(0 -163.89)"/><path class="cls-5" d="M262.06,457.57V622.75H611.65v-.49h.59v.49h191.9v-.12l77.22-.43v.55h125.47v-.63h17.69v.63h879.9v-.62h.53l-.6-14.61-1-211.73h-30s1.07-133.66,0-133.66H1824V380.65h-33.24l1.07-71.88H1750v15.14H1738.2l-1.07,58-25.74,1.26-2.15,68.54-35.92-30.08-10.72,1.26,3.21-208.06-42.89-45.39-7.51,143.75-33.78.63-1,49.81h-25.23V480.9l-12.87-2.53V441.81h-13.94V415.33l-27.77,12.09-.12-53.71-70.77-3.78-1.08,145h-21.44v-6.3h-6.44V494.77h-2.14v13.87h-3.22V497.29h-2.14v11.35h-11.26V447.48H1343V417.85l-25.73-25.22V480.9l-12.34-.17V314.45l-42.36-1.26,1.08-93.31-44.51-13.24-2.47,120.07-8.79-7.23V293l-71.31-3.15-2.66,274.9h-15V175.11h-4.82v-9.46h2.14v-1.26h-55.76v1.26h2.14v9.46h-5.89V223h-32.18V416.59H975.73V314.45l-42.36-1.26,1.07-93.31-44.5-13.24-3.68,178.42h-88l-15.55,29v41h-30v96.18l-27.88-64.66L675,484.4l2.12-267.68-40.75-45.39-5.9,143.12H595V387H578.41V327.69h-9.65V311.3H526.94l-1.61,71.24h-31.1v-121l-49.87.63-2.14,137.44H406.45l.38-56.74H344.09v140H331.76L332.83,426l-38.6,1.26Zm807-291.92v9.46h-4.29v-9.46Zm10.72,0v9.46h-8.58v-9.46Zm9.65,0v9.46h-7.5v-9.46Zm11.8,0v9.46h-9.65v-9.46Zm10.72,9.46h-8.58v-9.46h8.58Z" transform="translate(0 -163.89)"/><path class="cls-6" d="M1486,462.67l1,44.48h-11.43V388h-58.16l.42,53.87h-33.23l-2-107.75-46.23-.49v94.9h-28.83l-1.49-55.86h-38.77v12.86h-9V432H1243V364.31h-32.81l-5.46-112.19L1166.9,287.7l2,210.34-46.21,1.7-25.85,50.69V475H1069V442.9l-14.41-22.74H973l-3.41-139.87L928.3,290.67l1,73.15-39.27,1v80.56H844.79V293.63H815V256.07H809.5v-7.41h2v-1h-51.7v1h2v7.41H757.3V561.52h-15l-2.43-213L673.79,351v20.76l-6.58,4.58-1.41-63.72-42.75,15.82,1,35.41-39.27,1V461.7l-30.33.5V364.42l-23.86,27.94v32.83H494.35v67.74H483.91V480.36h-2v12.57h-3V477.57h-2v15.36h-6v7H451.1l-1-160.64-65.62,4.19L384,619.35H595.75l.06-9.89H742.89l0-2.47H844.79v-.49H977.51v-.44l71.59.34v.1h79.48v1H1227v-1.92h.49l.06,11.27h324.1V487.38l-29.83-23.72Zm-678.51-214v7.41h-4v-7.41Zm-6,0v7.41h-7.95v-7.41Zm-9.94,0v7.41h-7v-7.41Zm-9,0v7.41h-8.94v-7.41Zm-18.88,0h8v7.41h-8Z" transform="translate(0 -163.89)"/><path class="cls-6" d="M354.67,465.63v20.76H341.74v28.67l-11.93,2V425.11H306.42l-1-39.05-31.32-.49-7-112.69-39.76,35.58,3,163.11-9.94-1-33.63,23.8-1.67-45.06-23.86-1-1-45.48H149.37V391H110.6l1,56.35H80.78V354.43H35.05c-1,0,0,104.78,0,104.78H7.21l-.93,166-.56,11.46h.5v.49H192.12l-.33-8.9H382l-.5-152.72Z" transform="translate(0 -163.89)"/><path class="cls-6" d="M1909.54,481.45l-26.84-9.88v20.75h-12.93V521l-11.93,2V431h-5.5l-1-39.05-31.32-.49-7-112.69-39.76,35.58,3,163.11-9.94-1-20.67,14.64-1.7-45.78-23.86-1-1-45.47h-10.94V387.05h-38.77l1,56.34h-30.82V350.47h-45.73c-1,0,0,104.79,0,104.79h-27.84l-.92,166-.57,11.45h.5v.49h135.21v1H1910Z" transform="translate(0 -163.89)"/><g class="cls-7"><path class="cls-8" d="M9.18,632.2H195.09l-7-187.82-23.86-1-1-45.47H152.34V386.06H113.57l1,56.34H83.74V349.49H38c-1,0,0,104.78,0,104.78H10.17Z" transform="translate(0 -163.89)"/><polygon class="cls-9" points="119.53 279.5 151.34 279.5 150.35 237 118.54 237 119.53 279.5"/><polygon class="cls-9" points="119.53 234.03 149.36 235.02 149.36 228.1 118.54 225.13 119.53 234.03"/><polygon class="cls-10" points="96.62 307.56 95.7 323.98 122.31 323.98 96.62 307.56"/><path class="cls-10" d="M82.25,451.8v44.48l62.63-2Zm13.47,17.9,30,19.16h-31Z" transform="translate(0 -163.89)"/><polygon class="cls-9" points="90.04 468.31 144.39 468.31 143.89 422.34 89.21 400.59 90.04 468.31"/><polygon class="cls-11" points="42.48 353.14 42.48 466.82 81.42 468.31 81.26 388.73 63.36 354.13 42.48 353.14"/><polygon class="cls-12" points="9.84 444.25 35.52 444.09 35.52 396.64 77.28 395.65 76.45 468.31 8.68 467.81 9.84 444.25"/><polygon class="cls-8" points="1310.54 259.73 1339.37 259.73 1339.37 164.83 1385.6 165.33 1387.59 273.07 1442.26 273.07 1455.19 338.32 1489.98 338.32 1488.99 293.83 1524.78 294.82 1554.61 318.55 1554.61 448.04 1230.51 448.04 1229.51 263.19 1261.33 263.19 1261.33 216.73 1270.27 216.73 1270.27 203.88 1309.05 203.88 1310.54 259.73"/><polygon class="cls-9" points="1554.61 341.78 1550.13 341.78 1550.13 331.89 1540.19 331.89 1540.19 321.97 1528.71 321.02 1528.8 320.03 1541.18 321.06 1541.18 330.9 1551.13 330.9 1551.13 340.79 1554.61 340.79 1554.61 341.78"/><polygon class="cls-9" points="1495.95 319.54 1515.83 297.79 1496.94 297.79 1495.95 319.54"/><polygon class="cls-9" points="1500.92 361.05 1515.83 361.05 1514.84 311.63 1500.92 325.47 1500.92 361.05"/><polygon class="cls-10" points="1279.22 311.63 1340.86 314.59 1340.86 270.11 1279.22 311.63"/><path class="cls-8" d="M1299.24,471.14l31.24-19.28-1.08,18.21Zm30.13-17.43L1302.94,470l25.52-.91Z" transform="translate(0 -163.89)"/><rect class="cls-9" x="1275.25" y="208.82" width="29.82" height="7.91"/><rect class="cls-9" x="1274.25" y="219.7" width="30.82" height="43.49"/><rect class="cls-9" x="1492.97" y="382.8" width="9.94" height="15.82"/><rect class="cls-9" x="1500.92" y="401.58" width="11.93" height="15.82"/><rect class="cls-9" x="1521.8" y="296.8" width="1.99" height="76.12"/><rect class="cls-9" x="1549.63" y="361.05" width="1.99" height="85.01"/><rect class="cls-9" x="1542.67" y="357.1" width="1.99" height="85.01"/><rect class="cls-9" x="1535.72" y="354.13" width="1.99" height="85.01"/><polygon class="cls-13" points="1245.92 436.67 1245.92 195.48 1213.11 195.48 1207.64 83.28 1169.86 118.87 1172.85 437.17 1245.92 436.67"/><polygon class="cls-14" points="1174.84 137.65 1205.65 115.9 1205.65 93.17 1173.84 122.82 1174.84 137.65"/><polygon class="cls-14" points="1173.84 145.56 1176.82 227.6 1209.63 195.97 1205.65 124.8 1173.84 145.56"/><path class="cls-15" d="M1187.22,470.54l1.06-26.17,36.84,1Zm2-25.16-.94,23.26L1222,446.31Z" transform="translate(0 -163.89)"/><polygon class="cls-15" points="1187.76 314.59 1187.76 329.42 1226.53 326.45 1225.54 286.91 1187.76 314.59"/><polygon class="cls-13" points="1179.81 145.56 1181.79 145.56 1184.78 209.81 1182.79 211.79 1179.81 145.56"/><polygon class="cls-13" points="1186.77 141.6 1188.75 141.6 1190.74 202.89 1188.75 203.88 1186.77 141.6"/><path class="cls-13" d="M1196.71,302.53s1-1,1,0,1,55.36,1,55.36h-2Z" transform="translate(0 -163.89)"/><path class="cls-13" d="M1191,485l26-17.23,2.16,16.15Zm25.21-15.53-21.73,14.41L1218,483Z" transform="translate(0 -163.89)"/><rect class="cls-16" x="1211.62" y="209.81" width="10.94" height="32.62"/><rect class="cls-16" x="1225.54" y="206.85" width="11.93" height="34.6"/><rect class="cls-11" x="1052.06" y="306.19" width="47.72" height="131.47"/><polygon class="cls-17" points="1071.94 437.66 1071.94 274.06 1057.52 251.33 973.02 251.33 968.05 263.19 968.05 437.17 1071.94 437.66"/><rect class="cls-18" x="981.97" y="266.16" width="11.93" height="15.82"/><rect class="cls-18" x="994.39" y="285.43" width="10.94" height="14.83"/><polygon class="cls-19" points="743.37 437.17 742.37 392.69 760.27 392.69 760.27 87.24 817.93 87.24 817.93 124.8 847.75 124.8 847.75 438.16 743.37 438.16 743.37 437.17"/><rect class="cls-20" x="765.24" y="95.14" width="48.71" height="25.7"/><rect class="cls-20" x="765.24" y="133.7" width="78.54" height="1.98"/><rect class="cls-20" x="765.24" y="139.63" width="78.54" height="1.98"/><rect class="cls-20" x="764.25" y="190.04" width="78.54" height="1.98"/><rect class="cls-20" x="764.25" y="237.49" width="78.54" height="1.98"/><rect class="cls-20" x="765.24" y="283.95" width="78.54" height="1.98"/><rect class="cls-20" x="765.24" y="366.98" width="78.54" height="1.98"/><rect class="cls-20" x="765.24" y="373.9" width="78.54" height="1.98"/><rect class="cls-20" x="765.24" y="392.68" width="78.54" height="1.98"/><polygon class="cls-20" points="762.75 78.83 762.75 79.82 764.74 79.82 764.74 87.73 766.73 87.73 766.73 79.82 774.68 79.82 774.68 87.73 776.67 87.73 776.67 79.82 785.62 79.82 785.62 87.73 787.61 87.73 787.61 79.82 794.57 79.82 794.57 87.73 796.56 87.73 796.56 79.82 804.51 79.82 804.51 87.73 806.5 87.73 806.5 79.82 810.47 79.82 810.47 87.73 812.46 87.73 812.46 79.82 814.45 79.82 814.45 78.83 762.75 78.83"/><rect class="cls-21" x="775.18" y="246.39" width="16.9" height="19.77"/><rect class="cls-21" x="808.98" y="246.39" width="16.9" height="19.77"/><rect class="cls-21" x="774.19" y="151.49" width="16.9" height="19.77"/><rect class="cls-21" x="807.99" y="151.49" width="16.9" height="19.77"/><rect class="cls-20" x="770.21" y="295.81" width="69.59" height="62.28"/><polygon class="cls-11" points="972.52 111.45 980.48 437.66 892.99 437.66 892.99 195.97 932.26 194.98 931.26 121.83 972.52 111.45"/><rect class="cls-22" x="937.23" y="122.82" width="10.94" height="6.92"/><rect class="cls-22" x="950.15" y="122.82" width="10.94" height="6.92"/><rect class="cls-22" x="937.23" y="131.72" width="10.94" height="8.9"/><rect class="cls-22" x="950.15" y="131.72" width="10.94" height="8.9"/><rect class="cls-23" x="932.26" y="223.65" width="11.93" height="15.82"/><rect class="cls-23" x="921.32" y="203.88" width="11.93" height="15.82"/><polygon class="cls-11" points="668.76 143.75 675.27 437.66 587.78 437.66 587.78 195.97 627.05 194.98 626.01 159.57 668.76 143.75"/><rect class="cls-22" x="635.96" y="160.56" width="10.94" height="6.92"/><rect class="cls-22" x="648.88" y="160.56" width="10.94" height="6.92"/><rect class="cls-22" x="635.96" y="169.46" width="10.94" height="8.9"/><rect class="cls-22" x="648.88" y="169.46" width="10.94" height="8.9"/><rect class="cls-23" x="627.05" y="223.65" width="11.93" height="15.82"/><rect class="cls-23" x="616.12" y="203.88" width="11.93" height="15.82"/><rect class="cls-24" x="817.43" y="276.53" width="83.51" height="161.13"/><rect class="cls-25" x="825.88" y="286.91" width="74.56" height="29.66"/><rect class="cls-26" x="837.81" y="294.82" width="62.63" height="11.86"/><rect class="cls-27" x="819.92" y="325.47" width="78.54" height="2.97"/><path class="cls-27" d="M899.45,537.8v-3h-5V498.26h4v-3H819.92v3h4V602.05h2v-4.94h72.58v-3H825.88v-6.92h73.57v-3H825.88V546.69h16.9v36.58h2V546.69h13.92v36.58h2V546.69h14.91v36.58h2V546.69h14.91v36.58h2V546.69h5v-3H825.88V537.8Zm-7-39.54v36.57H877.58V498.26Zm-16.9,0v36.57H860.68V498.26Zm-16.9,0v36.57H844.77V498.26Zm-15.91,0v36.57h-16.9V498.26Z" transform="translate(0 -163.89)"/><rect class="cls-28" x="864.16" y="329.91" width="91.46" height="107.75"/><rect class="cls-29" x="865.65" y="344.25" width="86.49" height="1.98"/><rect class="cls-29" x="874.6" y="351.17" width="1.99" height="21.75"/><rect class="cls-29" x="888.52" y="351.17" width="1.99" height="21.75"/><rect class="cls-29" x="900.45" y="351.17" width="1.99" height="21.75"/><rect class="cls-29" x="913.37" y="351.17" width="1.99" height="21.75"/><rect class="cls-29" x="925.3" y="351.17" width="1.99" height="21.75"/><rect class="cls-29" x="937.23" y="351.17" width="1.99" height="21.75"/><rect class="cls-29" x="865.65" y="377.86" width="86.49" height="1.98"/><rect class="cls-29" x="874.6" y="384.78" width="1.99" height="21.75"/><rect class="cls-29" x="888.52" y="384.78" width="1.99" height="21.75"/><rect class="cls-29" x="900.45" y="384.78" width="1.99" height="21.75"/><rect class="cls-29" x="913.37" y="384.78" width="1.99" height="21.75"/><rect class="cls-29" x="925.3" y="384.78" width="1.99" height="21.75"/><rect class="cls-29" x="937.23" y="384.78" width="1.99" height="21.75"/><rect class="cls-29" x="865.65" y="408.5" width="86.49" height="1.98"/><rect class="cls-29" x="874.6" y="415.42" width="1.99" height="21.75"/><rect class="cls-29" x="888.52" y="415.42" width="1.99" height="21.75"/><rect class="cls-29" x="900.45" y="415.42" width="1.99" height="21.75"/><rect class="cls-29" x="913.37" y="415.42" width="1.99" height="21.75"/><rect class="cls-29" x="925.3" y="415.42" width="1.99" height="21.75"/><rect class="cls-29" x="937.23" y="415.42" width="1.99" height="21.75"/><polygon class="cls-30" points="1088.84 437.66 1180.3 437.66 1179.31 328.93 1125.62 330.9 1089.83 401.09 1088.84 437.66"/><path class="cls-31" d="M1131.54,602.59c0-11.86,0-24.71,0-24.71l11.08-.77-.13-11.09h35.79V571h12.93s0-8.57,0-10.87H1230v42.5Z" transform="translate(0 -163.89)"/><rect class="cls-32" x="1196.16" y="406.08" width="11.93" height="8.9"/><rect class="cls-32" x="1210.07" y="406.08" width="11.93" height="8.9"/><path class="cls-32" d="M1143.47,574.92v15.81h28.83V574.92Zm25.84,12.85h-22.86v-9.89h22.86Z" transform="translate(0 -163.89)"/><rect class="cls-33" x="1187.21" y="390.26" width="45.73" height="9.89"/><polygon class="cls-12" points="1315.51 438.65 1478.55 438.65 1478.55 219.2 1420.39 219.2 1421.39 345.24 1407.47 342.27 1408.46 301.74 1394.55 301.74 1394.55 275.05 1373.67 283.95 1374.66 347.21 1315.01 381.81 1315.51 438.65"/><path class="cls-34" d="M1460.93,568l-26.54-1.06,15.92-23.22Zm-24.71-2,23.17.93-9.27-21.2Z" transform="translate(0 -163.89)"/><polygon class="cls-35" points="1424.37 349.19 1472.09 365.01 1472.09 326.45 1424.37 349.19"/><rect class="cls-34" x="1424.37" y="226.62" width="50.7" height="2.97"/><rect class="cls-34" x="1425.36" y="243.42" width="49.71" height="11.86"/><rect class="cls-34" x="1425.36" y="276.04" width="49.71" height="11.86"/><rect class="cls-36" x="1407.47" y="346.22" width="1.99" height="56.34"/><rect class="cls-36" x="1377.64" y="356.11" width="12.92" height="1.98"/><rect class="cls-36" x="1377.64" y="361.05" width="13.92" height="1.98"/><rect class="cls-36" x="1377.64" y="366.98" width="24.85" height="1.98"/><rect class="cls-36" x="1377.64" y="371.93" width="27.84" height="1.98"/><rect class="cls-36" x="1377.64" y="377.86" width="27.84" height="1.98"/><path class="cls-34" d="M1386.59,459.21a3.46,3.46,0,1,1,3.48-3.46A3.47,3.47,0,0,1,1386.59,459.21Zm0-5.93a2.47,2.47,0,1,0,2.49,2.47A2.48,2.48,0,0,0,1386.59,453.28Z" transform="translate(0 -163.89)"/><path class="cls-34" d="M1331.91,548.67c1-1,40.76-24.71,40.76-24.71l-3-3-39.77,24.71Z" transform="translate(0 -163.89)"/><path class="cls-34" d="M1343.35,579.81h-15.91V558.06h15.91Zm-14.92-1h13.92V559.05h-13.92Z" transform="translate(0 -163.89)"/><rect class="cls-36" x="1376.65" y="384.78" width="25.85" height="4.94"/><rect class="cls-36" x="1377.64" y="396.64" width="25.85" height="4.94"/><polygon class="cls-9" points="592.75 440.63 745.85 440.63 742.87 179.66 676.76 182.13 676.76 202.89 666.82 209.81 664.83 376.87 594.24 377.86 592.75 440.63"/><rect class="cls-34" x="683.72" y="202.89" width="56.67" height="2.97"/><rect class="cls-34" x="693.66" y="219.7" width="25.85" height="1.98"/><rect class="cls-34" x="693.66" y="267.14" width="23.86" height="1.98"/><rect class="cls-34" x="693.66" y="362.04" width="25.85" height="2.97"/><polygon class="cls-34" points="690.18 367.48 664.83 367.48 664.83 366.49 689.19 366.49 689.19 222.16 666.75 221.98 666.76 220.99 690.18 221.18 690.18 367.48"/><polygon class="cls-11" points="666.65 225.96 685.71 225.63 684.71 361.05 664.83 361.22 666.65 225.96"/><rect class="cls-37" x="667.81" y="227.6" width="15.91" height="11.86"/><rect class="cls-37" x="667.81" y="241.44" width="15.91" height="13.84"/><rect class="cls-37" x="667.81" y="257.26" width="15.91" height="16.8"/><rect class="cls-37" x="667.81" y="276.04" width="15.91" height="15.82"/><rect class="cls-37" x="667.81" y="293.83" width="15.91" height="11.86"/><rect class="cls-37" x="666.82" y="307.67" width="16.9" height="11.86"/><rect class="cls-37" x="666.82" y="321.51" width="16.9" height="10.87"/><rect class="cls-37" x="665.82" y="334.36" width="17.89" height="12.85"/><rect class="cls-37" x="665.82" y="349.19" width="17.89" height="10.87"/><polygon class="cls-34" points="722.99 366.49 744.86 366.49 744.86 365.5 723.85 365.5 723.85 221.18 743.2 220.99 743.19 220 722.99 220.19 722.99 366.49"/><polygon class="cls-11" points="743.29 224.97 726.85 224.64 727.71 360.06 744.86 360.23 743.29 224.97"/><rect class="cls-37" x="728.56" y="390.51" width="13.72" height="11.86" transform="translate(1470.85 628.99) rotate(-180)"/><rect class="cls-37" x="728.56" y="404.35" width="13.72" height="13.84" transform="translate(1470.85 658.64) rotate(-180)"/><rect class="cls-37" x="728.56" y="420.16" width="13.72" height="16.8" transform="translate(1470.85 693.24) rotate(-180)"/><rect class="cls-37" x="728.56" y="438.94" width="13.72" height="15.82" transform="translate(1470.85 729.81) rotate(-180)"/><rect class="cls-37" x="728.56" y="456.74" width="13.72" height="11.86" transform="translate(1470.85 761.45) rotate(-180)"/><rect class="cls-37" x="728.56" y="470.58" width="14.58" height="11.86" transform="translate(1471.71 789.12) rotate(-180)"/><rect class="cls-37" x="728.56" y="484.42" width="14.58" height="10.87" transform="translate(1471.71 815.81) rotate(-180)"/><rect class="cls-37" x="728.56" y="497.27" width="15.44" height="12.85" transform="translate(1472.56 843.49) rotate(-180)"/><rect class="cls-37" x="728.56" y="512.09" width="15.44" height="10.87" transform="translate(1472.56 871.17) rotate(-180)"/><polygon class="cls-34" points="734.92 440.64 733.93 389.23 678.25 389.23 678 440.63 677.01 440.63 677.26 388.24 734.91 388.24 735.91 440.62 734.92 440.64"/><polygon class="cls-34" points="728.21 440.63 727.96 398.13 686.19 399.1 685.21 439.16 684.22 439.13 685.22 398.13 728.95 397.12 729.2 440.62 728.21 440.63"/><rect class="cls-38" x="636.99" y="394.66" width="1.99" height="44.48"/><rect class="cls-38" x="642.96" y="394.66" width="1.99" height="44.48"/><rect class="cls-38" x="647.93" y="394.66" width="1.99" height="44.48"/><rect class="cls-38" x="653.89" y="394.66" width="1.99" height="44.48"/><rect class="cls-38" x="657.87" y="394.66" width="1.99" height="44.48"/><rect class="cls-39" x="497.31" y="256.35" width="37.78" height="115.94"/><polygon class="cls-40" points="386.96 450.51 598.72 450.51 599.71 292.67 557.46 293.37 557.46 195.59 533.6 223.52 533.6 363.21 506.76 364.61 506.76 324.1 473.95 324.1 473.95 331.08 454.07 331.08 453.07 170.44 387.46 174.63 386.96 450.51"/><rect class="cls-41" x="393.42" y="181.62" width="56.67" height="69.84"/><path class="cls-42" d="M432.69,519.42h-6v-9.78h6Zm-5-1.4h4v-7h-4Z" transform="translate(0 -163.89)"/><path class="cls-42" d="M446.61,513.83h-5v-9.78h5Zm-4-1.4h3v-7h-3Z" transform="translate(0 -163.89)"/><rect class="cls-42" x="499.8" y="310.13" width="1.99" height="13.97"/><rect class="cls-42" x="484.89" y="311.53" width="1.99" height="12.57"/><rect class="cls-42" x="479.92" y="308.73" width="1.99" height="15.37"/><rect class="cls-43" x="536.58" y="257.05" width="17.89" height="1.4"/><rect class="cls-43" x="536.58" y="261.24" width="18.89" height="1.4"/><rect class="cls-43" x="536.58" y="291.97" width="17.89" height="2.79"/><rect class="cls-43" x="539.57" y="300.35" width="55.67" height="2.79"/><path class="cls-43" d="M573.86,499.86H543V474.72h30.82ZM544,498.47h28.83V476.12H544Z" transform="translate(0 -163.89)"/><rect class="cls-43" x="577.34" y="310.13" width="15.91" height="2.79"/><rect class="cls-43" x="577.34" y="318.51" width="15.91" height="1.4"/><rect class="cls-43" x="577.34" y="326.89" width="15.91" height="2.79"/><rect class="cls-43" x="577.34" y="333.88" width="15.91" height="1.4"/><rect class="cls-43" x="537.58" y="340.86" width="57.66" height="1.4"/><rect class="cls-43" x="537.58" y="349.24" width="59.65" height="2.79"/><rect class="cls-42" x="459.04" y="349.24" width="11.93" height="1.4"/><rect class="cls-42" x="473.95" y="346.45" width="31.81" height="1.4"/><rect class="cls-42" x="473.95" y="332.48" width="0.99" height="65.65"/><rect class="cls-42" x="484.89" y="350.64" width="1.99" height="18.16"/><rect class="cls-42" x="496.82" y="350.64" width="0.99" height="18.16"/><rect class="cls-42" x="477.93" y="359.02" width="4.97" height="8.38"/><rect class="cls-42" x="454.07" y="335.27" width="2.98" height="65.65"/><path class="cls-42" d="M413.31,609.52c1,0,58.65-40.51,58.65-40.51l-2-4.19-64.62,44.7Z" transform="translate(0 -163.89)"/><rect class="cls-42" x="460.03" y="364.61" width="10.94" height="2.79"/><rect class="cls-42" x="460.03" y="384.16" width="10.94" height="2.79"/><polygon class="cls-13" points="157.31 459.41 314.39 459.41 308.42 217.22 277.11 216.73 270.15 104.04 230.38 139.63 233.36 302.73 223.42 301.74 157.81 348.2 157.31 459.41"/><polygon class="cls-14" points="237.34 156.43 267.17 136.66 267.17 115.9 237.34 143.58 237.34 156.43"/><path class="cls-14" d="M267.16,310.44l-30.81,19.77,4,81.06,30.82-29.66Zm-22.86,84-2-63.26,2-1,2,63.26Zm7-6.92-2-61.28s2-1,2,0,2,60.29,2,60.29Zm9.94-10.87-2,2V323.29h2Z" transform="translate(0 -163.89)"/><path class="cls-44" d="M249.74,469.09H229.09l21.74,19.46Zm-18.06,1H248.8l.9,16.13Z" transform="translate(0 -163.89)"/><path class="cls-44" d="M232.87,507.15h0l0,.5v10.91l12.9-1.07,1-26.13v-.25L232.87,479.4Zm12.32-.4-11.33.37v-9l11.66.23Zm-11.33,10.74v-9.38l11.3-.37-.35,8.84Zm11.92-25.93-.22,5.78-11.7-.23V481.53Z" transform="translate(0 -163.89)"/><polygon class="cls-44" points="182.66 451.5 181.67 451.5 181.67 343.26 191.61 343.26 191.61 338.32 200.48 338.32 199.49 331.4 207.51 331.4 207.51 323.53 220.9 322.5 220.97 323.49 208.51 324.44 208.51 332.39 200.63 332.39 201.63 339.31 192.6 339.31 192.6 344.25 182.66 344.25 182.66 451.5"/><rect class="cls-45" x="244.3" y="368.96" width="8.95" height="11.86"/><rect class="cls-45" x="235.35" y="382.8" width="8.95" height="10.87"/><rect class="cls-16" x="273.13" y="229.58" width="11.93" height="27.68"/><rect class="cls-16" x="288.04" y="227.6" width="10.94" height="35.59"/><rect class="cls-44" x="224.42" y="304.71" width="1.99" height="57.33"/><rect class="cls-44" x="211.49" y="341.28" width="1.99" height="67.22"/><rect class="cls-44" x="204.53" y="347.21" width="1.99" height="55.36"/><rect class="cls-44" x="197.57" y="353.14" width="1.99" height="49.43"/><path class="cls-45" d="M224.42,580.3s31.81,18.78,31.81,17.79-4-38.55-4-38.55Z" transform="translate(0 -163.89)"/><polyline class="cls-16" points="277.11 323.49 276.11 316.57 254.24 332.39 254.24 336.34 265.18 336.34 277.11 324.48"/><polygon class="cls-16" points="254.24 323.49 257.22 323.49 274.12 312.62 274.12 309.65 254.24 323.49"/><path class="cls-16" d="M251.26,467.61h2v-1h19.88v-2s-21.87-1-21.87,0Z" transform="translate(0 -163.89)"/><polygon class="cls-16" points="268.16 336.34 277.11 336.34 279.1 328.43 268.16 336.34"/><polygon class="cls-12" points="281.58 459.41 384.97 459.41 384.48 306.68 357.63 296.8 357.63 317.56 344.71 317.56 344.71 346.23 332.78 348.2 332.78 256.27 281.08 256.27 281.58 459.41"/><rect class="cls-46" x="283.07" y="259.24" width="46.73" height="2.97"/><rect class="cls-47" x="284.07" y="272.09" width="46.73" height="7.91"/><rect class="cls-47" x="284.07" y="297.79" width="46.73" height="7.91"/><rect class="cls-46" x="362.6" y="356.11" width="18.89" height="1.98"/><rect class="cls-46" x="361.61" y="360.06" width="19.88" height="1.98"/><rect class="cls-46" x="350.67" y="365.01" width="30.82" height="0.99"/><rect class="cls-46" x="347.69" y="368.96" width="33.8" height="0.99"/><rect class="cls-46" x="349.68" y="373.9" width="32.81" height="0.99"/><rect class="cls-46" x="343.72" y="349.19" width="1.99" height="108.74"/><path class="cls-46" d="M381,568H351.17V542.24H381Zm-28.83-1H380V543.23H352.17Z" transform="translate(0 -163.89)"/><path class="cls-46" d="M366.08,476a3.49,3.49,0,1,1,4-3.46A3.74,3.74,0,0,1,366.08,476Zm0-5.93a2.52,2.52,0,1,0,3,2.47A2.77,2.77,0,0,0,366.08,470.08Z" transform="translate(0 -163.89)"/><path class="cls-48" d="M320.9,556.08H298.17l8.66-17.21Zm-21.12-1h19L307,540.68Z" transform="translate(0 -163.89)"/><path class="cls-46" d="M371.53,560H355.8l6.74-12.29Zm-14-1h12.1l-6.92-9.46Z" transform="translate(0 -163.89)"/><polygon class="cls-49" points="288.04 364.02 329.8 351.17 288.04 335.35 288.04 364.02"/><path class="cls-8" d="M1568,628.24h185.9l-7-187.81-23.85-1-1-45.47h-10.93V382.11h-38.78l1,56.34h-30.82V345.53h-45.73c-1,0,0,104.78,0,104.78H1569Z" transform="translate(0 -163.89)"/><polygon class="cls-9" points="1678.38 275.55 1710.19 275.55 1709.2 233.04 1677.38 233.04 1678.38 275.55"/><polygon class="cls-9" points="1678.38 230.07 1708.2 231.06 1708.2 224.14 1677.38 221.18 1678.38 230.07"/><polygon class="cls-10" points="1655.46 303.61 1654.55 320.03 1681.16 320.03 1655.46 303.61"/><path class="cls-10" d="M1641.1,447.84v44.48l62.63-2Zm13.47,17.91,30,19.16h-31Z" transform="translate(0 -163.89)"/><polygon class="cls-9" points="1648.88 464.35 1703.23 464.35 1702.73 418.39 1648.06 396.64 1648.88 464.35"/><polygon class="cls-11" points="1601.33 349.19 1601.33 462.87 1640.27 464.35 1640.1 384.78 1622.21 350.18 1601.33 349.19"/><polygon class="cls-12" points="1568.69 440.3 1594.37 440.13 1594.37 392.69 1636.13 391.7 1635.3 464.35 1567.53 463.86 1568.69 440.3"/><polygon class="cls-13" points="1703.23 465.34 1860.31 465.34 1854.34 223.16 1823.03 222.66 1816.07 109.97 1776.3 145.56 1779.29 308.66 1769.34 307.67 1703.73 354.13 1703.23 465.34"/><polygon class="cls-14" points="1783.26 162.36 1813.09 142.59 1813.09 121.83 1783.26 149.51 1783.26 162.36"/><path class="cls-14" d="M1813.09,316.37l-30.82,19.77,4,81.06,30.82-29.66Zm-22.87,84-2-63.26,2-1,2,63.26Zm7-6.92-2-61.28s2-1,2,0,2,60.3,2,60.3Zm9.94-10.87-2,2V329.22h2Z" transform="translate(0 -163.89)"/><path class="cls-44" d="M1795.66,475H1775l21.74,19.45Zm-18.06,1h17.12l.9,16.13Z" transform="translate(0 -163.89)"/><path class="cls-44" d="M1778.79,513.08h0l0,.5v10.91l12.9-1.07,1-26.13V497l-13.93-11.71Zm12.33-.4-11.34.37v-9l11.66.23Zm-11.34,10.74V514l11.3-.37-.34,8.84Zm11.92-25.93-.22,5.78-11.7-.23V487.46Z" transform="translate(0 -163.89)"/><polygon class="cls-44" points="1728.58 457.43 1727.59 457.43 1727.59 349.19 1737.53 349.19 1737.53 344.25 1746.4 344.25 1745.41 337.33 1753.44 337.33 1753.44 329.46 1766.82 328.43 1766.9 329.42 1754.43 330.37 1754.43 338.32 1746.55 338.32 1747.55 345.24 1738.53 345.24 1738.53 350.18 1728.58 350.18 1728.58 457.43"/><rect class="cls-45" x="1790.22" y="374.89" width="8.95" height="11.86"/><rect class="cls-45" x="1781.27" y="388.73" width="8.95" height="10.87"/><rect class="cls-16" x="1819.05" y="235.51" width="11.93" height="27.68"/><rect class="cls-16" x="1833.96" y="233.53" width="10.94" height="35.59"/><rect class="cls-44" x="1770.34" y="310.64" width="1.99" height="57.33"/><rect class="cls-44" x="1757.41" y="347.21" width="1.99" height="67.22"/><rect class="cls-44" x="1750.45" y="353.14" width="1.99" height="55.36"/><rect class="cls-44" x="1743.5" y="359.08" width="1.99" height="49.43"/><path class="cls-45" d="M1770.34,586.23s31.81,18.78,31.81,17.8-4-38.56-4-38.56Z" transform="translate(0 -163.89)"/><polyline class="cls-16" points="1823.03 329.42 1822.03 322.5 1800.16 338.32 1800.16 342.27 1811.1 342.27 1823.03 330.41"/><polygon class="cls-16" points="1800.16 329.42 1803.14 329.42 1820.05 318.55 1820.05 315.58 1800.16 329.42"/><path class="cls-16" d="M1797.18,473.54h2v-1h19.88v-2s-21.87-1-21.87,0Z" transform="translate(0 -163.89)"/><polygon class="cls-16" points="1814.08 342.27 1823.03 342.27 1825.02 334.36 1814.08 342.27"/><polygon class="cls-12" points="1809.61 465.34 1913 465.34 1912.5 312.62 1885.66 302.73 1885.66 323.49 1872.74 323.49 1872.74 352.16 1860.81 354.13 1860.81 262.2 1809.11 262.2 1809.61 465.34"/><rect class="cls-46" x="1811.1" y="265.17" width="46.73" height="2.97"/><rect class="cls-47" x="1812.09" y="278.02" width="46.73" height="7.91"/><rect class="cls-47" x="1812.09" y="303.72" width="46.73" height="7.91"/><rect class="cls-46" x="1890.63" y="362.04" width="18.89" height="1.98"/><rect class="cls-46" x="1889.64" y="365.99" width="19.88" height="1.98"/><rect class="cls-46" x="1878.7" y="370.94" width="30.82" height="0.99"/><rect class="cls-46" x="1875.72" y="374.89" width="33.8" height="0.99"/><rect class="cls-46" x="1877.71" y="379.83" width="32.81" height="0.99"/><rect class="cls-46" x="1871.74" y="355.12" width="1.99" height="108.74"/><path class="cls-46" d="M1909,573.88H1879.2V548.17H1909Zm-28.83-1H1908V549.16h-27.84Z" transform="translate(0 -163.89)"/><path class="cls-46" d="M1894.11,482a3.49,3.49,0,1,1,4-3.46A3.76,3.76,0,0,1,1894.11,482Zm0-5.94a2.52,2.52,0,1,0,3,2.48A2.77,2.77,0,0,0,1894.11,476Z" transform="translate(0 -163.89)"/><path class="cls-48" d="M1848.93,562H1826.2l8.66-17.21Zm-21.12-1h19l-11.78-14.42Z" transform="translate(0 -163.89)"/><path class="cls-46" d="M1899.56,566h-15.73l6.74-12.29Zm-14.06-1h12.11l-6.92-9.46Z" transform="translate(0 -163.89)"/><polygon class="cls-49" points="1816.07 369.95 1857.82 357.1 1816.07 341.28 1816.07 369.95"/></g><path class="cls-50" d="M1918,973.75c-29.28-.49-324.67-16.92-587.31-18.75-10.49-.07-162-251-545.58-148-83.93,22.54-180.86,159-180.86,159h0c-346-1.79-87.32.32-590,7.75H12.72l-7.13.13v66.38H1920V973.75Z" transform="translate(0 -163.89)"/></g></g></g></svg>