<svg id="圖層_1" data-name="圖層 1" xmlns="http://www.w3.org/2000/svg" xmlns:xlink="http://www.w3.org/1999/xlink" viewBox="0 0 2017 1222"><defs><style>.cls-1{fill:none;}.cls-2{clip-path:url(#clip-path);}.cls-3,.cls-7{fill:#4d9cde;}.cls-3{stroke:#a8d3ff;stroke-miterlimit:10;}.cls-4{fill:#7a9ec3;}.cls-5{opacity:0.63;}.cls-6{fill:#b6dbf8;}.cls-8{fill:#c995b7;}.cls-9{fill:#c3e5ff;}.cls-10{fill:#96bde9;}.cls-11{fill:#b8bbd6;}.cls-12{fill:#a1d6ff;}.cls-13{fill:#9ea5d8;}.cls-14{fill:#8288b8;}.cls-15{fill:#b1b5dc;}.cls-16{fill:#c9c6e5;}.cls-17{fill:#7cb9ea;}.cls-18{fill:#b2dafb;}.cls-19{fill:#dfcf7d;}.cls-20{fill:#3d9ae6;}.cls-21{fill:#d5ecfa;}.cls-22{fill:#a0dcff;}.cls-23{fill:#51a5d6;}.cls-24{fill:#97ade6;}.cls-25{fill:#5996c6;}.cls-26{fill:#549bdd;}.cls-27{fill:#aad7fa;}.cls-28{fill:#7eb3eb;}.cls-29{fill:#aedafe;}.cls-30{fill:#d3f1fe;}.cls-31{fill:#d5f2fe;}.cls-32{fill:#d6f3ff;}.cls-33{fill:#917d90;}.cls-34{fill:#5086c5;}.cls-35{fill:#71b5f4;}.cls-36{fill:#1275b5;}.cls-37{fill:#b6d7fa;}.cls-38{fill:#7cbaeb;}.cls-39{fill:#fff;}.cls-40{fill:#0066a7;}.cls-41{fill:#98d4fa;}.cls-42{fill:#a36464;}.cls-43{fill:#b2a0b2;}.cls-44{fill:#558bcb;}.cls-45{fill:#fffbee;}.cls-46{fill:#83abdb;}.cls-47{fill:#cbab55;}.cls-48{fill:#4e77ff;opacity:0.49;}.cls-49{fill:#557f89;}.cls-50{fill:#cfa3b1;}</style><clipPath id="clip-path"><rect class="cls-1" x="12" y="11" width="1990" height="1185"/></clipPath></defs><title>0122</title><g class="cls-2"><path class="cls-3" d="M265.16,455.25V633.5H642.41V633h.64v.53H850.13v-.13l83.33-.47,0,.6h135.4v-.68h19.09v.68h949.49v-.67h.58l-.65-15.76-1.08-228.48h-32.4s1.15-144.24,0-144.24h-53.23V372.25h-35.88l1.16-77.56h-45.13V311h-12.73l-1.16,62.59L1829.12,375l-2.32,74L1788,416.47l-11.57,1.36,3.47-224.51-46.29-49-8.1,155.12-36.45.68L1688,353.88h-27.23V480.42l-13.89-2.72V438.24h-15V409.67l-30,13.05-.12-58-76.38-4.09-1.15,156.48h-23.15v-6.8h-6.94v-15h-2.32v15h-3.47V498.11H1486v12.25h-12.15v-66h-42.24v-32l-27.77-27.21v95.24l-13.31-.18V300.81l-45.71-1.36L1346,198.76l-48-14.29L1295.29,314l-9.48-7.8V277.67l-77-3.4L1206,570.91h-16.23V150.46h-5.2V140.25h2.31v-1.36H1126.7v1.36H1129v10.21h-6.36v51.7h-34.72V411h-52.65V300.81l-45.71-1.36,1.16-100.69-48-14.29-4,192.54h-95L827,408.31v44.22h-32.4V556.32l-30.09-69.77-53.78-2.34L713,195.36l-44-49-6.36,154.44H624.47v78.24H606.53V315.1H596.12V297.41H551l-1.74,76.88H515.69V243.66l-53.81.68-2.31,148.32H421l.41-61.23H353.69v151H340.38l1.16-61.24-41.66,1.37Zm870.79-315v10.21h-4.62V140.25Zm11.58,0v10.21h-9.26V140.25Zm10.41,0v10.21h-8.1V140.25Zm12.73,0v10.21h-10.41V140.25Zm11.57,10.21H1173V140.25h9.25Z"/><path class="cls-4" d="M1585.93,460.76l1.07,48h-12.33V380.22h-62.76l.46,58.14h-35.86l-2.15-116.27-49.88-.54V424h-31.11l-1.61-60.27h-41.84v13.86h-9.66v50.14h-16.63V354.62h-35.4l-5.9-121.07L1241.57,272l2.12,227-49.86,1.84-27.9,54.69V474.09h-30V439.42l-15.56-24.53h-88L1028.62,264l-44.52,11.2,1.07,78.94-42.38,1.06v86.94H894V278.35H861.8V237.82h-5.9v-8H858v-1.07H802.26v1.07h2.14v8h-4.82V567.43H783.43L780.8,337.55l-71.34,2.67v22.4l-7.1,4.95-1.53-68.76L654.7,315.87l1.12,38.22-42.37,1.06V459.71l-32.72.54V354.74L555,384.89v35.42H515.82v73.1H504.56V479.85h-2.15v13.56H499.2V476.83h-2.15v16.58h-6.44V501H469.16l-1.08-173.34-70.8,4.52-.54,297.7H625.25l.07-10.67H784l0-2.67H894V616H1037.2v-.47l77.25.37v.1h85.77v1.12h106.2V615h.53l.07,12.15h349.72V487.42l-32.18-25.6ZM853.75,229.82v8h-4.29v-8Zm-6.43,0v8h-8.59v-8Zm-10.73,0v8h-7.51v-8Zm-9.66,0v8h-9.65v-8Zm-20.38,0h8.58v8h-8.58Z"/><path class="cls-4" d="M365.1,464v22.4h-14v30.93l-12.87,2.13v-99.2H313l-1-42.13-33.79-.54L270.69,256l-42.91,38.4,3.22,176-10.73-1.07L184,495l-1.8-48.62-25.75-1.07-1.07-49.07h-11.8v-12.8H101.73l1.07,60.8H69.54V344H20.19c-1.07,0,0,113.07,0,113.07h-30l-1,179.12-.61,12.35h.54V649H189.7l-.36-9.6H394.6l-.54-164.81Z"/><path class="cls-4" d="M2042.94,481l-29-10.66v22.4H2000v30.93l-12.88,2.13v-99.2h-5.93l-1-42.13-33.79-.53-7.51-121.61L1896,300.75l3.22,176-10.73-1.07-22.31,15.8-1.83-49.4L1838.57,441,1837.5,392h-11.8v-12.8h-41.84l1.07,60.8h-33.25V339.69h-49.35c-1.07,0,0,113.07,0,113.07h-30l-1,179.11-.61,12.36h.54v.53h145.9v1.07h226.36Z"/><g class="cls-5"><path class="cls-6" d="M-7.72,643.69H192.9L185.39,441,159.64,440l-1.07-49.07h-11.8v-12.8H104.93l1.07,60.8H72.74V338.62H23.39c-1.07,0,0,113.07,0,113.07h-30Z"/><polygon class="cls-7" points="111.36 439.96 145.69 439.96 144.62 394.09 110.29 394.09 111.36 439.96"/><polygon class="cls-7" points="111.36 390.89 143.55 391.95 143.55 384.49 110.29 381.29 111.36 390.89"/><polygon class="cls-8" points="86.64 470.23 85.65 487.96 114.36 487.96 86.64 470.23"/><path class="cls-8" d="M71.13,449v48l67.59-2.13Zm14.54,19.33L118,489H84.51Z"/><polygon class="cls-7" points="79.54 643.69 138.18 643.69 137.65 594.09 78.64 570.63 79.54 643.69"/><polygon class="cls-9" points="28.22 519.42 28.22 642.09 70.24 643.69 70.06 557.83 50.75 520.49 28.22 519.42"/><polygon class="cls-10" points="-7 617.74 20.71 617.56 20.71 566.36 65.77 565.29 64.88 643.69 -8.25 643.16 -7 617.74"/><polygon class="cls-6" points="1396.57 418.62 1427.68 418.62 1427.68 316.22 1477.56 316.75 1479.71 433.02 1538.71 433.02 1552.66 503.42 1590.2 503.42 1589.13 455.42 1627.75 456.49 1659.93 482.09 1659.93 621.83 1310.21 621.83 1309.13 422.36 1343.46 422.36 1343.46 372.22 1353.12 372.22 1353.12 358.36 1394.96 358.36 1396.57 418.62"/><polygon class="cls-7" points="1659.93 507.16 1655.11 507.16 1655.11 496.49 1644.38 496.49 1644.38 485.78 1632 484.75 1632.09 483.69 1645.45 484.8 1645.45 495.42 1656.18 495.42 1656.18 506.09 1659.93 506.09 1659.93 507.16"/><polygon class="cls-7" points="1596.64 483.16 1618.1 459.69 1597.71 459.69 1596.64 483.16"/><polygon class="cls-7" points="1602 527.96 1618.1 527.96 1617.02 474.62 1602 489.56 1602 527.96"/><polygon class="cls-8" points="1362.77 474.62 1429.29 477.82 1429.29 429.82 1362.77 474.62"/><path class="cls-6" d="M1384.38,469.89l33.7-20.8-1.16,19.65Zm32.51-18.8-28.52,17.6,27.53-1Z"/><rect class="cls-7" x="1358.48" y="363.69" width="32.18" height="8.53"/><rect class="cls-7" x="1357.41" y="375.42" width="33.26" height="46.93"/><rect class="cls-7" x="1593.42" y="551.43" width="10.73" height="17.07"/><rect class="cls-7" x="1602" y="571.69" width="12.87" height="17.07"/><rect class="cls-7" x="1624.53" y="458.62" width="2.15" height="82.13"/><rect class="cls-7" x="1654.57" y="527.96" width="2.15" height="91.74"/><rect class="cls-7" x="1647.06" y="523.69" width="2.15" height="91.74"/><rect class="cls-7" x="1639.55" y="520.49" width="2.15" height="91.74"/><polygon class="cls-11" points="1326.83 609.56 1326.83 349.29 1291.43 349.29 1285.53 228.22 1244.77 266.62 1247.98 610.09 1326.83 609.56"/><polygon class="cls-12" points="1250.13 286.89 1283.39 263.42 1283.39 238.89 1249.06 270.89 1250.13 286.89"/><polygon class="cls-12" points="1249.06 295.42 1252.28 383.95 1287.68 349.82 1283.39 273.02 1249.06 295.42"/><path class="cls-13" d="M1263.5,469.25l1.13-28.24,39.77,1.13Zm2.16-27.15-1,25.1L1301,443.11Z"/><polygon class="cls-13" points="1264.08 477.82 1264.08 493.82 1305.91 490.62 1304.84 447.96 1264.08 477.82"/><polygon class="cls-11" points="1255.49 295.42 1257.64 295.42 1260.86 364.75 1258.71 366.89 1255.49 295.42"/><polygon class="cls-11" points="1263 291.15 1265.15 291.15 1267.29 357.29 1265.15 358.36 1263 291.15"/><path class="cls-11" d="M1273.73,288s1.07-1.06,1.07,0,1.08,59.74,1.08,59.74h-2.15Z"/><path class="cls-11" d="M1267.56,484.83l28-18.59,2.34,17.43Zm27.21-16.76-23.45,15.55,25.4-1Z"/><rect class="cls-14" x="1289.82" y="364.75" width="11.8" height="35.2"/><rect class="cls-14" x="1304.84" y="361.55" width="12.87" height="37.33"/><rect class="cls-9" x="1117.64" y="468.76" width="51.49" height="141.87"/><polygon class="cls-15" points="1139.1 610.63 1139.1 434.09 1123.54 409.56 1032.35 409.56 1026.99 422.36 1026.99 610.09 1139.1 610.63"/><rect class="cls-16" x="1042.01" y="425.56" width="12.87" height="17.07"/><rect class="cls-16" x="1055.42" y="446.36" width="11.8" height="16"/><polygon class="cls-17" points="784.54 610.09 783.47 562.09 802.78 562.09 802.78 232.49 865 232.49 865 273.02 897.18 273.02 897.18 611.16 784.54 611.16 784.54 610.09"/><rect class="cls-18" x="808.14" y="241.02" width="52.57" height="27.73"/><rect class="cls-18" x="808.14" y="282.62" width="84.75" height="2.13"/><rect class="cls-18" x="808.14" y="289.02" width="84.75" height="2.13"/><rect class="cls-18" x="807.07" y="343.42" width="84.75" height="2.13"/><rect class="cls-18" x="807.07" y="394.62" width="84.75" height="2.13"/><rect class="cls-18" x="808.14" y="444.76" width="84.75" height="2.13"/><rect class="cls-18" x="808.14" y="534.36" width="84.75" height="2.13"/><rect class="cls-18" x="808.14" y="541.82" width="84.75" height="2.13"/><rect class="cls-18" x="808.14" y="562.09" width="84.75" height="2.13"/><polygon class="cls-18" points="805.46 223.42 805.46 224.49 807.6 224.49 807.6 233.02 809.75 233.02 809.75 224.49 818.33 224.49 818.33 233.02 820.48 233.02 820.48 224.49 830.13 224.49 830.13 233.02 832.28 233.02 832.28 224.49 839.79 224.49 839.79 233.02 841.93 233.02 841.93 224.49 850.51 224.49 850.51 233.02 852.66 233.02 852.66 224.49 856.95 224.49 856.95 233.02 859.1 233.02 859.1 224.49 861.24 224.49 861.24 223.42 805.46 223.42"/><rect class="cls-19" x="818.87" y="404.22" width="18.24" height="21.33"/><rect class="cls-19" x="855.34" y="404.22" width="18.24" height="21.33"/><rect class="cls-19" x="817.8" y="301.82" width="18.24" height="21.33"/><rect class="cls-19" x="854.27" y="301.82" width="18.24" height="21.33"/><rect class="cls-18" x="813.5" y="457.56" width="75.1" height="67.2"/><polygon class="cls-9" points="1031.82 258.62 1040.4 610.63 945.99 610.63 945.99 349.82 988.37 348.75 987.3 269.82 1031.82 258.62"/><rect class="cls-20" x="993.73" y="270.89" width="11.8" height="7.47"/><rect class="cls-20" x="1007.68" y="270.89" width="11.8" height="7.47"/><rect class="cls-20" x="993.73" y="280.49" width="11.8" height="9.6"/><rect class="cls-20" x="1007.68" y="280.49" width="11.8" height="9.6"/><rect class="cls-21" x="988.37" y="379.69" width="12.87" height="17.07"/><rect class="cls-21" x="976.57" y="358.35" width="12.87" height="17.07"/><polygon class="cls-9" points="704.03 293.47 711.05 610.63 616.65 610.63 616.65 349.82 659.02 348.75 657.9 310.54 704.03 293.47"/><rect class="cls-20" x="668.63" y="311.61" width="11.8" height="7.47"/><rect class="cls-20" x="682.58" y="311.61" width="11.8" height="7.47"/><rect class="cls-20" x="668.63" y="321.21" width="11.8" height="9.6"/><rect class="cls-20" x="682.58" y="321.21" width="11.8" height="9.6"/><rect class="cls-21" x="659.02" y="379.69" width="12.87" height="17.07"/><rect class="cls-21" x="647.22" y="358.35" width="12.87" height="17.07"/><rect class="cls-22" x="864.46" y="436.76" width="90.11" height="173.87"/><rect class="cls-23" x="873.58" y="447.96" width="80.46" height="32"/><rect class="cls-24" x="886.45" y="456.49" width="67.59" height="12.8"/><rect class="cls-25" x="867.14" y="489.56" width="84.75" height="3.2"/><path class="cls-25" d="M953,541.82v-3.2H947.6V499.16h4.29V496H867.14v3.2h4.29v112h2.15v-5.33h78.31v-3.2H873.58v-7.47H953V592H873.58V551.43h18.24v39.46H894V551.43h15v39.46h2.15V551.43h16.09v39.46h2.15V551.43h16.09v39.46h2.14V551.43H953v-3.21H873.58v-6.4Zm-7.51-42.66v39.46H929.37V499.16Zm-18.24,0v39.46H911.13V499.16Zm-18.24,0v39.46H894V499.16Zm-17.16,0v39.46H873.58V499.16Z"/><rect class="cls-26" x="914.88" y="494.36" width="98.7" height="116.27"/><rect class="cls-27" x="916.49" y="509.82" width="93.33" height="2.13"/><rect class="cls-27" x="926.15" y="517.29" width="2.15" height="23.47"/><rect class="cls-27" x="941.17" y="517.29" width="2.15" height="23.47"/><rect class="cls-27" x="954.04" y="517.29" width="2.15" height="23.47"/><rect class="cls-27" x="967.99" y="517.29" width="2.15" height="23.47"/><rect class="cls-27" x="980.86" y="517.29" width="2.15" height="23.47"/><rect class="cls-27" x="993.73" y="517.29" width="2.15" height="23.47"/><rect class="cls-27" x="916.49" y="546.09" width="93.33" height="2.13"/><rect class="cls-27" x="926.15" y="553.56" width="2.15" height="23.47"/><rect class="cls-27" x="941.17" y="553.56" width="2.15" height="23.47"/><rect class="cls-27" x="954.04" y="553.56" width="2.15" height="23.47"/><rect class="cls-27" x="967.99" y="553.56" width="2.15" height="23.47"/><rect class="cls-27" x="980.86" y="553.56" width="2.15" height="23.47"/><rect class="cls-27" x="993.73" y="553.56" width="2.15" height="23.47"/><rect class="cls-27" x="916.49" y="579.16" width="93.33" height="2.13"/><rect class="cls-27" x="926.15" y="586.63" width="2.15" height="23.47"/><rect class="cls-27" x="941.17" y="586.63" width="2.15" height="23.47"/><rect class="cls-27" x="954.04" y="586.63" width="2.15" height="23.47"/><rect class="cls-27" x="967.99" y="586.63" width="2.15" height="23.47"/><rect class="cls-27" x="980.86" y="586.63" width="2.15" height="23.47"/><rect class="cls-27" x="993.73" y="586.63" width="2.15" height="23.47"/><polygon class="cls-28" points="1157.33 610.63 1256.03 610.63 1254.96 493.29 1197.03 495.42 1158.41 571.16 1157.33 610.63"/><path class="cls-29" d="M1203.41,611.75c0-12.8,0-26.67,0-26.67l11.95-.83-.13-12h38.62v5.33h13.94s0-9.25,0-11.73h41.84v45.87Z"/><rect class="cls-30" x="1273.14" y="576.55" width="12.87" height="9.6"/><rect class="cls-30" x="1288.16" y="576.55" width="12.87" height="9.6"/><path class="cls-30" d="M1216.28,581.88V599h31.11V581.88Zm27.89,13.87H1219.5V585.08h24.67Z"/><rect class="cls-31" x="1263.48" y="559.48" width="49.35" height="10.67"/><polygon class="cls-10" points="1401.93 611.69 1577.87 611.69 1577.87 374.89 1515.11 374.89 1516.18 510.89 1501.16 507.69 1502.23 463.96 1487.22 463.96 1487.22 435.16 1464.69 444.76 1465.76 513.02 1401.39 550.36 1401.93 611.69"/><path class="cls-32" d="M1558.85,574.39l-28.64-1.14,17.19-25.06Zm-26.66-2.13,25,1-10-22.87Z"/><polygon class="cls-33" points="1519.4 515.16 1570.89 532.23 1570.89 490.62 1519.4 515.16"/><rect class="cls-32" x="1519.4" y="382.89" width="54.71" height="3.2"/><rect class="cls-32" x="1520.47" y="401.02" width="53.64" height="12.8"/><rect class="cls-32" x="1520.47" y="436.22" width="53.64" height="12.8"/><rect class="cls-34" x="1501.16" y="511.96" width="2.15" height="60.8"/><rect class="cls-34" x="1468.98" y="522.62" width="13.95" height="2.13"/><rect class="cls-34" x="1468.98" y="527.96" width="15.02" height="2.13"/><rect class="cls-34" x="1468.98" y="534.36" width="26.82" height="2.13"/><rect class="cls-34" x="1468.98" y="539.69" width="30.04" height="2.13"/><rect class="cls-34" x="1468.98" y="546.09" width="30.04" height="2.13"/><path class="cls-32" d="M1478.63,457a3.73,3.73,0,1,1,3.76-3.73A3.74,3.74,0,0,1,1478.63,457Zm0-6.4a2.67,2.67,0,1,0,2.69,2.67A2.68,2.68,0,0,0,1478.63,450.62Z"/><path class="cls-32" d="M1419.63,553.56c1.07-1.07,44-26.67,44-26.67l-3.21-3.2-42.92,26.67Z"/><path class="cls-32" d="M1432,587.16H1414.8V563.69H1432Zm-16.09-1.07h15V564.76h-15Z"/><rect class="cls-34" x="1467.91" y="553.56" width="27.89" height="5.33"/><rect class="cls-34" x="1468.98" y="566.36" width="27.89" height="5.33"/><polygon class="cls-7" points="622.01 613.83 787.22 613.83 784 332.22 712.66 334.89 712.66 357.29 701.93 364.75 699.79 545.02 623.62 546.09 622.01 613.83"/><rect class="cls-32" x="720.17" y="357.29" width="61.15" height="3.2"/><rect class="cls-32" x="730.9" y="375.42" width="27.89" height="2.13"/><rect class="cls-32" x="730.9" y="426.62" width="25.75" height="2.13"/><rect class="cls-32" x="730.9" y="529.02" width="27.89" height="3.2"/><polygon class="cls-32" points="727.14 534.89 699.79 534.89 699.79 533.83 726.07 533.83 726.07 378.08 701.86 377.89 701.87 376.82 727.14 377.03 727.14 534.89"/><polygon class="cls-9" points="701.75 382.18 722.32 381.82 721.24 527.96 699.79 528.14 701.75 382.18"/><rect class="cls-35" x="703.01" y="383.96" width="17.16" height="12.8"/><rect class="cls-35" x="703.01" y="398.89" width="17.16" height="14.93"/><rect class="cls-35" x="703.01" y="415.96" width="17.16" height="18.13"/><rect class="cls-35" x="703.01" y="436.22" width="17.16" height="17.07"/><rect class="cls-35" x="703.01" y="455.42" width="17.16" height="12.8"/><rect class="cls-35" x="701.93" y="470.36" width="18.24" height="12.8"/><rect class="cls-35" x="701.93" y="485.29" width="18.24" height="11.73"/><rect class="cls-35" x="700.86" y="499.16" width="19.31" height="13.87"/><rect class="cls-35" x="700.86" y="515.16" width="19.31" height="11.73"/><polygon class="cls-32" points="762.55 533.83 786.15 533.83 786.15 532.76 763.47 532.76 763.47 377.02 784.36 376.82 784.35 375.75 762.55 375.96 762.55 533.83"/><polygon class="cls-9" points="784.45 381.11 766.71 380.75 767.64 526.89 786.15 527.07 784.45 381.11"/><rect class="cls-35" x="768.56" y="382.89" width="14.81" height="12.8" transform="translate(1551.93 778.58) rotate(-180)"/><rect class="cls-35" x="768.56" y="397.82" width="14.81" height="14.93" transform="translate(1551.93 810.58) rotate(-180)"/><rect class="cls-35" x="768.56" y="414.89" width="14.81" height="18.13" transform="translate(1551.93 847.91) rotate(-180)"/><rect class="cls-35" x="768.56" y="435.16" width="14.81" height="17.07" transform="translate(1551.93 887.38) rotate(-180)"/><rect class="cls-35" x="768.56" y="454.36" width="14.81" height="12.8" transform="translate(1551.93 921.51) rotate(-180)"/><rect class="cls-35" x="768.56" y="469.29" width="15.73" height="12.8" transform="translate(1552.86 951.38) rotate(-180)"/><rect class="cls-35" x="768.56" y="484.22" width="15.73" height="11.73" transform="translate(1552.86 980.18) rotate(-180)"/><rect class="cls-35" x="768.56" y="498.09" width="16.66" height="13.87" transform="translate(1553.78 1010.05) rotate(-180)"/><rect class="cls-35" x="768.56" y="514.09" width="16.66" height="11.73" transform="translate(1553.78 1039.92) rotate(-180)"/><polygon class="cls-32" points="775.42 613.84 774.36 558.36 714.27 558.36 714 613.83 712.93 613.82 713.2 557.29 775.41 557.29 776.49 613.82 775.42 613.84"/><polygon class="cls-32" points="768.18 613.83 767.91 567.97 722.84 569.01 721.78 612.24 720.71 612.21 721.79 567.97 768.98 566.88 769.25 613.82 768.18 613.83"/><rect class="cls-36" x="669.75" y="564.23" width="2.15" height="48"/><rect class="cls-36" x="676.19" y="564.23" width="2.15" height="48"/><rect class="cls-36" x="681.55" y="564.23" width="2.15" height="48"/><rect class="cls-36" x="687.99" y="564.23" width="2.15" height="48"/><rect class="cls-36" x="692.28" y="564.23" width="2.15" height="48"/><rect class="cls-37" x="519.02" y="414.97" width="40.77" height="125.11"/><polygon class="cls-38" points="399.94 624.49 628.45 624.49 629.52 454.17 583.93 454.92 583.93 349.41 558.18 379.55 558.18 530.28 529.22 531.79 529.22 488.08 493.81 488.08 493.81 495.62 472.36 495.62 471.28 322.27 400.48 326.8 399.94 624.49"/><rect class="cls-39" x="406.92" y="334.33" width="61.15" height="75.37"/><path class="cls-40" d="M449.29,522h-6.43V511.44h6.43Zm-5.36-1.5h4.29V513h-4.29Z"/><path class="cls-40" d="M464.31,516H459V505.41h5.36ZM460,514.46h3.22v-7.54H460Z"/><rect class="cls-40" x="521.71" y="473.01" width="2.15" height="15.07"/><rect class="cls-40" x="505.61" y="474.51" width="2.15" height="13.57"/><rect class="cls-40" x="500.25" y="471.5" width="2.15" height="16.58"/><rect class="cls-41" x="561.4" y="415.73" width="19.31" height="1.51"/><rect class="cls-41" x="561.4" y="420.25" width="20.38" height="1.51"/><rect class="cls-41" x="561.4" y="453.41" width="19.31" height="3.01"/><rect class="cls-41" x="564.62" y="462.46" width="60.08" height="3.01"/><path class="cls-41" d="M601.63,500.89H568.37V473.76h33.26Zm-32.19-1.5h31.12V475.27H569.44Z"/><rect class="cls-41" x="605.38" y="473.01" width="17.16" height="3.01"/><rect class="cls-41" x="605.38" y="482.05" width="17.16" height="1.51"/><rect class="cls-41" x="605.38" y="491.09" width="17.16" height="3.01"/><rect class="cls-41" x="605.38" y="498.63" width="17.16" height="1.51"/><rect class="cls-41" x="562.47" y="506.17" width="62.22" height="1.51"/><rect class="cls-41" x="562.47" y="515.21" width="64.37" height="3.01"/><rect class="cls-40" x="477.72" y="515.21" width="12.87" height="1.51"/><rect class="cls-40" x="493.81" y="512.2" width="34.33" height="1.51"/><rect class="cls-40" x="493.81" y="497.12" width="1.07" height="70.84"/><rect class="cls-40" x="505.61" y="516.72" width="2.15" height="19.6"/><rect class="cls-40" x="518.49" y="516.72" width="1.07" height="19.6"/><rect class="cls-40" x="498.1" y="525.76" width="5.36" height="9.04"/><rect class="cls-40" x="472.36" y="500.14" width="3.22" height="70.84"/><path class="cls-40" d="M428.37,619.22c1.08,0,63.3-43.71,63.3-43.71L489.52,571l-69.73,48.24Z"/><rect class="cls-40" x="478.79" y="531.79" width="11.8" height="3.01"/><rect class="cls-40" x="478.79" y="552.9" width="11.8" height="3.01"/><polygon class="cls-11" points="152.13 634.09 321.63 634.09 315.19 372.75 281.4 372.22 273.89 250.62 230.98 289.02 234.2 465.02 223.47 463.96 152.67 514.09 152.13 634.09"/><polygon class="cls-12" points="238.49 307.15 270.67 285.82 270.67 263.42 238.49 293.29 238.49 307.15"/><path class="cls-12" d="M270.67,296.49l-33.25,21.33,4.29,87.47,33.25-32ZM246,387.16l-2.15-68.27,2.15-1.07,2.14,68.27Zm7.51-7.47-2.15-66.14s2.15-1.06,2.15,0,2.14,65.07,2.14,65.07ZM264.24,368l-2.15,2.14V310.35h2.15Z"/><path class="cls-42" d="M251.87,467.69H229.58l23.46,21Zm-19.49,1.07h18.48l1,17.4Z"/><path class="cls-42" d="M233.66,508.76h0l0,.53v11.78l13.93-1.15,1.09-28.21v-.26l-15-12.64Zm13.3-.43-12.23.39V499l12.59.25Zm-12.23,11.58V509.79l12.19-.39-.37,9.53Zm12.87-28-.24,6.24-12.63-.25V481.11Z"/><polygon class="cls-42" points="179.49 625.56 178.41 625.56 178.41 508.76 189.14 508.76 189.14 503.42 198.71 503.42 197.64 495.96 206.31 495.96 206.31 487.46 220.75 486.36 220.83 487.42 207.38 488.45 207.38 497.02 198.88 497.02 199.95 504.49 190.21 504.49 190.21 509.82 179.49 509.82 179.49 625.56"/><rect class="cls-43" x="246" y="536.49" width="9.66" height="12.8"/><rect class="cls-43" x="236.34" y="551.43" width="9.66" height="11.73"/><rect class="cls-14" x="277.11" y="386.09" width="12.87" height="29.87"/><rect class="cls-14" x="293.2" y="383.96" width="11.8" height="38.4"/><rect class="cls-42" x="224.54" y="467.16" width="2.15" height="61.87"/><rect class="cls-42" x="210.6" y="506.62" width="2.15" height="72.53"/><rect class="cls-42" x="203.09" y="513.02" width="2.15" height="59.73"/><rect class="cls-42" x="195.58" y="519.42" width="2.15" height="53.33"/><path class="cls-43" d="M224.54,587.69s34.33,20.27,34.33,19.2-4.29-41.6-4.29-41.6Z"/><polyline class="cls-14" points="281.4 487.42 280.33 479.96 256.73 497.02 256.73 501.29 268.53 501.29 281.4 488.49"/><polygon class="cls-14" points="256.73 487.42 259.94 487.42 278.18 475.69 278.18 472.49 256.73 487.42"/><path class="cls-14" d="M253.51,466.09h2.14V465h21.46v-2.13s-23.6-1.07-23.6,0Z"/><polygon class="cls-14" points="271.75 501.29 281.4 501.29 283.55 492.76 271.75 501.29"/><polygon class="cls-10" points="286.23 634.09 397.8 634.09 397.26 469.29 368.3 458.62 368.3 481.02 354.35 481.02 354.35 511.96 341.48 514.09 341.48 414.89 285.69 414.89 286.23 634.09"/><rect class="cls-44" x="287.84" y="418.09" width="50.42" height="3.2"/><rect class="cls-45" x="288.91" y="431.96" width="50.42" height="8.53"/><rect class="cls-45" x="288.91" y="459.69" width="50.42" height="8.53"/><rect class="cls-44" x="373.66" y="522.62" width="20.38" height="2.13"/><rect class="cls-44" x="372.59" y="526.89" width="21.46" height="2.13"/><rect class="cls-44" x="360.79" y="532.22" width="33.26" height="1.07"/><rect class="cls-44" x="357.57" y="536.49" width="36.47" height="1.07"/><rect class="cls-44" x="359.71" y="541.82" width="35.4" height="1.07"/><rect class="cls-44" x="353.28" y="515.16" width="2.15" height="117.34"/><path class="cls-44" d="M393.51,574.36H361.32V546.62h32.19Zm-31.11-1.07h30v-25.6h-30Z"/><path class="cls-44" d="M377.42,475.16a3.77,3.77,0,1,1,4.29-3.74A4.06,4.06,0,0,1,377.42,475.16Zm0-6.4a2.71,2.71,0,1,0,3.21,2.66A3,3,0,0,0,377.42,468.76Z"/><path class="cls-46" d="M328.66,561.56H304.13L313.48,543Zm-22.79-1.07H326.4l-12.71-15.55Z"/><path class="cls-44" d="M383.3,565.83h-17l7.28-13.27Zm-15.17-1.07h13.06l-7.46-10.21Z"/><polygon class="cls-47" points="293.2 531.16 338.26 517.29 293.2 500.22 293.2 531.16"/><path class="cls-6" d="M1674.42,639.43H1875l-7.51-202.67-25.75-1.07-1.07-49.07h-11.8v-12.8h-41.84l1.07,60.8h-33.25V334.35h-49.35c-1.07,0,0,113.07,0,113.07h-30Z"/><polygon class="cls-7" points="1793.5 435.69 1827.83 435.69 1826.75 389.82 1792.42 389.82 1793.5 435.69"/><polygon class="cls-7" points="1793.5 386.62 1825.68 387.69 1825.68 380.22 1792.42 377.02 1793.5 386.62"/><polygon class="cls-8" points="1768.77 465.97 1767.78 483.69 1796.5 483.69 1768.77 465.97"/><path class="cls-8" d="M1753.27,444.76v48l67.58-2.14Zm14.53,19.32,32.35,20.68h-33.5Z"/><polygon class="cls-7" points="1761.67 639.43 1820.32 639.43 1819.78 589.83 1760.78 566.36 1761.67 639.43"/><polygon class="cls-9" points="1710.36 515.16 1710.36 637.83 1752.37 639.43 1752.19 553.56 1732.88 516.22 1710.36 515.16"/><polygon class="cls-10" points="1675.13 613.47 1702.85 613.29 1702.85 562.09 1747.9 561.02 1747.01 639.43 1673.88 638.89 1675.13 613.47"/><polygon class="cls-11" points="1820.32 640.49 1989.82 640.49 1983.38 379.15 1949.59 378.62 1942.08 257.02 1899.17 295.42 1902.38 471.42 1891.66 470.36 1820.85 520.49 1820.32 640.49"/><polygon class="cls-12" points="1906.68 313.55 1938.86 292.22 1938.86 269.82 1906.68 299.69 1906.68 313.55"/><path class="cls-12" d="M1938.86,302.89l-33.26,21.33,4.29,87.47,33.26-32Zm-24.67,90.67L1912,325.29l2.15-1.07,2.14,68.27Zm7.51-7.47L1919.55,320s2.15-1.06,2.15,0,2.14,65.07,2.14,65.07Zm10.72-11.73-2.14,2.13V316.75h2.14Z"/><path class="cls-42" d="M1920.06,474.09h-22.29l23.46,21Zm-19.5,1.07H1919l1,17.4Z"/><path class="cls-42" d="M1901.85,515.16h0l0,.53v11.78l13.93-1.15,1.09-28.21v-.26l-15-12.64Zm13.3-.43-12.23.39v-9.73l12.58.25Zm-12.23,11.58V516.19l12.19-.39-.37,9.53Zm12.87-28-.25,6.24-12.62-.25V487.51Z"/><polygon class="cls-42" points="1847.67 631.96 1846.6 631.96 1846.6 515.16 1857.33 515.16 1857.33 509.82 1866.9 509.82 1865.83 502.36 1874.49 502.36 1874.49 493.86 1888.93 492.76 1889.02 493.82 1875.57 494.85 1875.57 503.42 1867.07 503.42 1868.14 510.89 1858.4 510.89 1858.4 516.22 1847.67 516.22 1847.67 631.96"/><rect class="cls-43" x="1914.19" y="542.89" width="9.66" height="12.8"/><rect class="cls-43" x="1904.53" y="557.83" width="9.66" height="11.73"/><rect class="cls-14" x="1945.3" y="392.49" width="12.87" height="29.87"/><rect class="cls-14" x="1961.39" y="390.36" width="11.8" height="38.4"/><rect class="cls-42" x="1892.73" y="473.56" width="2.15" height="61.87"/><rect class="cls-42" x="1878.78" y="513.02" width="2.15" height="72.53"/><rect class="cls-42" x="1871.27" y="519.42" width="2.15" height="59.73"/><rect class="cls-42" x="1863.76" y="525.82" width="2.15" height="53.33"/><path class="cls-43" d="M1892.73,594.09s34.33,20.27,34.33,19.2-4.29-41.6-4.29-41.6Z"/><polyline class="cls-14" points="1949.59 493.82 1948.52 486.36 1924.91 503.42 1924.91 507.69 1936.71 507.69 1949.59 494.89"/><polygon class="cls-14" points="1924.91 493.82 1928.13 493.82 1946.37 482.09 1946.37 478.89 1924.91 493.82"/><path class="cls-14" d="M1921.7,472.49h2.14v-1.07h21.46v-2.13s-23.6-1.07-23.6,0Z"/><polygon class="cls-14" points="1939.93 507.69 1949.59 507.69 1951.73 499.16 1939.93 507.69"/><polygon class="cls-10" points="1935.11 640.49 2046.67 640.49 2046.14 475.69 2017.17 465.02 2017.17 487.42 2003.23 487.42 2003.23 518.36 1990.35 520.49 1990.35 421.29 1934.57 421.29 1935.11 640.49"/><rect class="cls-44" x="1936.71" y="424.49" width="50.42" height="3.2"/><rect class="cls-45" x="1937.79" y="438.36" width="50.42" height="8.53"/><rect class="cls-45" x="1937.79" y="466.09" width="50.42" height="8.53"/><rect class="cls-44" x="2009.66" y="538.62" width="33.26" height="1.07"/><rect class="cls-44" x="2006.45" y="542.89" width="36.47" height="1.07"/><rect class="cls-44" x="2008.59" y="548.22" width="35.4" height="1.07"/><rect class="cls-44" x="2002.15" y="521.56" width="2.15" height="117.34"/><path class="cls-44" d="M2042.38,580.76H2010.2V553h32.18Zm-31.11-1.07h30v-25.6h-30Z"/><path class="cls-46" d="M1977.54,568H1953l9.34-18.58Zm-22.79-1.07h20.53l-12.71-15.55Z"/><path class="cls-44" d="M2032.17,572.23h-17l7.27-13.27ZM2017,571.16h13.07L2022.6,561Z"/><polygon class="cls-47" points="1942.08 537.56 1987.14 523.69 1942.08 506.62 1942.08 537.56"/></g><rect class="cls-48" x="-10.57" y="655" width="2074.18" height="418.22"/><path class="cls-49" d="M2220,884.92c-86-5.07-1146.76-64.71-2380.84,0h-1.89l-8.93.55V1180H2222.51V884.92Z"/><path class="cls-50" d="M2081.76,1121.81c-32.79-.58-363.61-20-657.74-22.2-11.75-.09-181.41-297.18-611-175.23-94,26.69-202.56,188.25-202.56,188.25h0c-387.54-2.11-97.78.38-660.77,9.18H-52l-8,.14v78.6H2084v-78.74Z"/><rect class="cls-49" x="-31.63" y="628" width="2078.3" height="45.49"/></g><rect class="cls-1" x="-2" y="4" width="2021" height="1237.16" rx="12" ry="12"/><rect class="cls-1" x="2" y="16" width="2010" height="1194"/></svg>