<svg xmlns="http://www.w3.org/2000/svg" xmlns:xlink="http://www.w3.org/1999/xlink" viewBox="0 0 1899 1091.19"><defs><style>.cls-1{fill:none;}.cls-2{clip-path:url(#clip-path);}.cls-3,.cls-7{fill:#4d9cde;}.cls-3{stroke:#a8d3ff;stroke-miterlimit:10;}.cls-4{fill:#7a9ec3;}.cls-5{opacity:0.63;}.cls-6{fill:#b6dbf8;}.cls-8{fill:#c995b7;}.cls-9{fill:#c3e5ff;}.cls-10{fill:#96bde9;}.cls-11{fill:#b8bbd6;}.cls-12{fill:#a1d6ff;}.cls-13{fill:#9ea5d8;}.cls-14{fill:#8288b8;}.cls-15{fill:#b1b5dc;}.cls-16{fill:#c9c6e5;}.cls-17{fill:#7cb9ea;}.cls-18{fill:#b2dafb;}.cls-19{fill:#dfcf7d;}.cls-20{fill:#3d9ae6;}.cls-21{fill:#d5ecfa;}.cls-22{fill:#a0dcff;}.cls-23{fill:#51a5d6;}.cls-24{fill:#97ade6;}.cls-25{fill:#5996c6;}.cls-26{fill:#549bdd;}.cls-27{fill:#aad7fa;}.cls-28{fill:#7eb3eb;}.cls-29{fill:#aedafe;}.cls-30{fill:#d3f1fe;}.cls-31{fill:#d5f2fe;}.cls-32{fill:#d6f3ff;}.cls-33{fill:#917d90;}.cls-34{fill:#5086c5;}.cls-35{fill:#71b5f4;}.cls-36{fill:#1275b5;}.cls-37{fill:#b6d7fa;}.cls-38{fill:#7cbaeb;}.cls-39{fill:#fff;}.cls-40{fill:#0066a7;}.cls-41{fill:#98d4fa;}.cls-42{fill:#a36464;}.cls-43{fill:#b2a0b2;}.cls-44{fill:#558bcb;}.cls-45{fill:#fffbee;}.cls-46{fill:#83abdb;}.cls-47{fill:#cbab55;}.cls-48{fill:#4e77ff;opacity:0.39;}.cls-49{fill:#557f89;}.cls-50{fill:#233569;}.cls-51{fill:#99cae1;}.cls-52{fill:#6786a4;}.cls-53{fill:#fee1f1;}.cls-54{fill:#a4cee3;}.cls-55{fill:#032e58;}.cls-56{fill:#9acbe1;}.cls-57{fill:#a1cee3;}.cls-58{fill:#fce3f1;}.cls-59{fill:#9ecce2;}.cls-60{fill:#f1e0f0;}.cls-61{fill:#aed2e6;}.cls-62{fill:#b2d1e6;}.cls-63{fill:#b1d1e5;}.cls-64{fill:#b5d2e6;}.cls-65{fill:#b7d3e7;}.cls-66{fill:#b5d3e7;}.cls-67{fill:#afd3e6;}.cls-68{fill:#aed0e5;}.cls-69{fill:#f5e1f1;}.cls-70{fill:#c1d8ea;}.cls-71{fill:#c4d9ea;}.cls-72{fill:#b1d2e6;}.cls-73{fill:#aed1e5;}.cls-74{fill:#e4deee;}.cls-75{fill:#bfd6e9;}.cls-76{fill:#2259cd;}.cls-77{fill:#0325a5;}.cls-78{fill:#082ba7;}.cls-79{fill:#0426a5;}.cls-80{fill:#0427a5;}.cls-81{fill:#0528a5;}.cls-82{fill:#2045b0;}.cls-83{fill:#173bad;}.cls-84{fill:#1a3fae;}.cls-85{fill:#1c41af;}.cls-86{fill:#183dae;}.cls-87{fill:#193eae;}.cls-88{fill:#1a3eae;}.cls-89{fill:#183dad;}.cls-90{fill:#183cad;}.cls-91{fill:#0022a3;}.cls-92{fill:#1d42af;}.cls-93{fill:#0325a4;}.cls-94{fill:#0f33a9;}.cls-95{fill:#0f32a9;}.cls-96{fill:#0c30a8;}.cls-97{fill:#0c2fa8;}.cls-98{fill:#0e31a9;}.cls-99{fill:#1337ab;}.cls-100{fill:#1236ab;}.cls-101{fill:#1438ac;}.cls-102{fill:#0d31a9;}.cls-103{fill:#0e32a9;}.cls-104{fill:#1438ab;}.cls-105{fill:#3158b7;}.cls-106{fill:#1b40ae;}.cls-107{fill:#274db3;}.cls-108{fill:#274eb4;}.cls-109{fill:#3057b7;}.cls-110{fill:#9bcae0;}.cls-111{fill:#fdfcfb;}.cls-112{fill:#9bc9e0;}.cls-113{fill:#99c8de;}.cls-114{fill:#fdfcfc;}.cls-115{fill:#f96e0b;}.cls-116{fill:#fa6e0a;}.cls-117{fill:#fb6d08;}.cls-118{fill:#fee9f4;}.cls-119{fill:#fefdfe;}</style><clipPath id="clip-path"><rect class="cls-1" x="98" y="26" width="1784" height="1040" rx="12" ry="12"/></clipPath></defs><title>資產 21</title><g id="圖層_2" data-name="圖層 2"><g id="圖層_1-2" data-name="圖層 1"><g class="cls-2"><path class="cls-3" d="M255.23,318.42V483.74H603.31v-.5h.59v.49H795v-.12l76.89-.43v.55H996.76v-.63h17.62v.63h876.08v-.62h.54l-.61-14.62-1-211.91h-29.9s1.07-133.77,0-133.77h-49.11V241.44h-33.1l1.06-71.94H1736.7v15.14H1725l-1.07,58.06L1698.26,244l-2.13,68.6-35.77-30.11-10.68,1.26,3.21-208.23-42.71-45.43-7.48,143.87-33.63.63-1,49.85h-25.13V341.77l-12.81-2.53v-36.6h-13.88v-26.5l-27.65,12.1-.11-53.75L1418,230.71l-1.06,145.13h-21.36v-6.31h-6.4V355.65H1387v13.88h-3.2V358.17h-2.14v11.36h-11.21V308.32h-39V278.67l-25.63-25.25v88.35l-12.28-.17V175.18l-42.17-1.26,1.07-93.39-44.31-13.25-2.47,120.17-8.75-7.23V153.71l-71-3.15-2.64,275.13h-15v-390h-4.8V26.26h2.13V25h-55.52v1.26h2.14v9.47h-5.88v48h-32V277.4H965.8V175.18l-42.17-1.26,1.06-93.39L880.38,67.28l-3.66,178.57H789.09l-15.48,29v41h-29.9v96.27L716,347.44l-49.62-2.17,2.11-267.9L627.86,31.94,622,175.18H586.76v72.57H570.21V188.43H560.6V172H519l-1.61,71.31h-31V122.18l-49.65.63L434.6,260.37H399l.38-56.79H336.91V343.66H324.63l1.07-56.79-38.44,1.26ZM1058.69,26.26v9.47h-4.27V26.26Zm10.68,0v9.47h-8.54V26.26Zm9.61,0v9.47h-7.47V26.26Zm11.75,0v9.47h-9.61V26.26Zm10.67,9.47h-8.54V26.26h8.54Z"/><path class="cls-4" d="M1473.88,323.52l1,44.52h-11.38V248.83h-57.91l.42,53.92h-33.09l-2-107.84-46-.49v95H1296.2l-1.48-55.89h-38.61v12.86h-8.91v46.49h-15.34V225.09H1199.2l-5.45-112.29-37.61,35.61,2,210.51-46,1.7-25.74,50.73V335.89h-27.71V303.74L1044.29,281H963.05l-3.4-140-41.07,10.39,1,73.21-39.1,1v80.63h-45V154.35h-29.7v-37.6h-5.44v-7.42h2v-1H750.8v1h2v7.42h-4.46V422.46h-14.9L731,209.26l-65.82,2.47v20.78l-6.56,4.58-1.4-63.77-42.57,15.83,1,35.44-39.1,1v97l-30.19.51V225.2l-23.75,28V286H486.51v67.8H476.12V341.23h-2v12.58h-3V338.43h-2v15.38h-5.94v7h-19.8l-1-160.77-65.33,4.2-.49,276.1H587.47l.06-9.89H734l0-2.47H835.43v-.5H967.57V467l71.28.34v.09H1118v1h98v-1.92h.49l.06,11.27h322.69V348.26l-29.7-23.75ZM798.31,109.33v7.42h-4v-7.42Zm-5.94,0v7.42h-7.92v-7.42Zm-9.9,0v7.42h-6.93v-7.42Zm-8.91,0v7.42h-8.91v-7.42Zm-18.8,0h7.92v7.42h-7.92Z"/><path class="cls-4" d="M347.44,326.49v20.78H334.57V376l-11.88,2v-92H299.4l-1-39.08-31.18-.49-6.93-112.79-39.59,35.62,3,163.24-9.89-1-33.48,23.83-1.66-45.1-23.76-1-1-45.51H143V251.8h-38.6l1,56.39H74.73v-93H29.2c-1,0,0,104.87,0,104.87H1.48L.56,486.18,0,497.65H.5v.49H185.6l-.33-8.9H374.66l-.5-152.85Z"/><path class="cls-4" d="M1895.55,342.32l-26.72-9.89V353.2H1856v28.69l-11.88,2v-92h-5.48l-.95-39.08-31.18-.5-6.93-112.78-39.6,35.61,3,163.24-9.9-1L1732.43,352l-1.69-45.81-23.75-1-1-45.51h-10.89V247.84H1656.5l1,56.39h-30.68v-93h-45.53c-1,0,0,104.86,0,104.86h-27.72l-.92,166.13-.56,11.46h.49v.49h134.62v1h208.86Z"/><g class="cls-5"><path class="cls-6" d="M3.45,493.19h185.1l-6.93-188-23.76-1-1-45.51H146V246.85H107.38l1,56.39H77.69v-93H32.15c-1,0,0,104.86,0,104.86H4.44Z"/><polygon class="cls-7" points="113.32 304.23 145 304.23 144 261.69 112.33 261.69 113.32 304.23"/><polygon class="cls-7" points="113.32 258.72 143.02 259.71 143.02 252.79 112.33 249.82 113.32 258.72"/><polygon class="cls-8" points="90.51 332.31 89.59 348.75 116.09 348.75 90.51 332.31"/><path class="cls-8" d="M76.2,312.64v44.52l62.36-2Zm13.41,17.92,29.85,19.18H88.55Z"/><polygon class="cls-7" points="83.95 493.19 138.07 493.19 137.57 447.19 83.13 425.43 83.95 493.19"/><polygon class="cls-9" points="36.61 377.94 36.61 491.71 75.38 493.19 75.21 413.55 57.39 378.93 36.61 377.94"/><polygon class="cls-10" points="4.11 469.12 29.68 468.95 29.68 421.47 71.25 420.48 70.43 493.19 2.95 492.7 4.11 469.12"/><polygon class="cls-6" points="1299.15 284.45 1327.86 284.45 1327.86 189.47 1373.89 189.97 1375.87 297.8 1430.31 297.8 1443.18 363.1 1477.82 363.1 1476.83 318.58 1512.47 319.57 1542.16 343.31 1542.16 472.91 1219.47 472.91 1218.48 287.91 1250.16 287.91 1250.16 241.41 1259.07 241.41 1259.07 228.55 1297.67 228.55 1299.15 284.45"/><polygon class="cls-7" points="1542.16 366.56 1537.71 366.56 1537.71 356.67 1527.81 356.67 1527.81 346.73 1516.38 345.78 1516.47 344.8 1528.8 345.82 1528.8 355.68 1538.7 355.68 1538.7 365.57 1542.16 365.57 1542.16 366.56"/><polygon class="cls-7" points="1483.76 344.3 1503.56 322.54 1484.75 322.54 1483.76 344.3"/><polygon class="cls-7" points="1488.71 385.85 1503.56 385.85 1502.57 336.38 1488.71 350.24 1488.71 385.85"/><polygon class="cls-8" points="1267.97 336.38 1329.34 339.35 1329.34 294.83 1267.97 336.38"/><path class="cls-6" d="M1287.91,332l31.1-19.29-1.08,18.22Zm30-17.45-26.32,16.33L1317,330Z"/><rect class="cls-7" x="1264.01" y="233.5" width="29.7" height="7.91"/><rect class="cls-7" x="1263.02" y="244.38" width="30.69" height="43.53"/><rect class="cls-7" x="1480.79" y="407.62" width="9.9" height="15.83"/><rect class="cls-7" x="1488.71" y="426.41" width="11.88" height="15.83"/><rect class="cls-7" x="1509.5" y="321.55" width="1.98" height="76.18"/><rect class="cls-7" x="1537.21" y="385.85" width="1.98" height="85.08"/><rect class="cls-7" x="1530.28" y="381.89" width="1.98" height="85.08"/><rect class="cls-7" x="1523.35" y="378.93" width="1.98" height="85.08"/><polygon class="cls-11" points="1234.81 461.54 1234.81 220.14 1202.15 220.14 1196.7 107.85 1159.09 143.47 1162.06 462.03 1234.81 461.54"/><polygon class="cls-12" points="1164.04 162.26 1194.73 140.5 1194.73 117.74 1163.05 147.42 1164.04 162.26"/><polygon class="cls-12" points="1163.05 170.18 1166.02 252.29 1198.68 220.63 1194.73 149.4 1163.05 170.18"/><path class="cls-13" d="M1176.38,331.4l1-26.19,36.69,1.05Zm2-25.18-.93,23.28L1211,307.16Z"/><polygon class="cls-13" points="1176.91 339.35 1176.91 354.19 1215.51 351.23 1214.52 311.65 1176.91 339.35"/><polygon class="cls-11" points="1168.99 170.18 1170.97 170.18 1173.94 234.49 1171.96 236.46 1168.99 170.18"/><polygon class="cls-11" points="1175.92 166.22 1177.9 166.22 1179.88 227.56 1177.9 228.55 1175.92 166.22"/><path class="cls-11" d="M1185.82,163.25s1-1,1,0,1,55.41,1,55.41h-2Z"/><path class="cls-11" d="M1180.12,345.85,1206,328.61l2.16,16.16Zm25.11-15.54-21.64,14.42,23.44-.9Z"/><rect class="cls-14" x="1200.66" y="234.48" width="10.89" height="32.65"/><rect class="cls-14" x="1214.52" y="231.52" width="11.88" height="34.63"/><rect class="cls-9" x="1041.79" y="330.94" width="47.51" height="131.58"/><polygon class="cls-15" points="1061.59 462.52 1061.59 298.79 1047.24 276.04 963.1 276.04 958.15 287.91 958.15 462.03 1061.59 462.52"/><rect class="cls-16" x="972.01" y="290.88" width="11.88" height="15.83"/><rect class="cls-16" x="984.38" y="310.17" width="10.89" height="14.84"/><polygon class="cls-17" points="734.45 462.03 733.46 417.51 751.27 417.51 751.27 111.81 808.69 111.81 808.69 149.4 838.38 149.4 838.38 463.02 734.45 463.02 734.45 462.03"/><rect class="cls-18" x="756.22" y="119.72" width="48.5" height="25.72"/><rect class="cls-18" x="756.22" y="158.31" width="78.2" height="1.98"/><rect class="cls-18" x="756.22" y="164.24" width="78.2" height="1.98"/><rect class="cls-18" x="755.23" y="214.7" width="78.2" height="1.98"/><rect class="cls-18" x="755.23" y="262.19" width="78.2" height="1.98"/><rect class="cls-18" x="756.22" y="308.68" width="78.2" height="1.98"/><rect class="cls-18" x="756.22" y="391.79" width="78.2" height="1.98"/><rect class="cls-18" x="756.22" y="398.71" width="78.2" height="1.98"/><rect class="cls-18" x="756.22" y="417.51" width="78.2" height="1.98"/><polygon class="cls-18" points="753.75 103.4 753.75 104.39 755.73 104.39 755.73 112.3 757.71 112.3 757.71 104.39 765.63 104.39 765.63 112.3 767.61 112.3 767.61 104.39 776.52 104.39 776.52 112.3 778.5 112.3 778.5 104.39 785.42 104.39 785.42 112.3 787.4 112.3 787.4 104.39 795.32 104.39 795.32 112.3 797.3 112.3 797.3 104.39 801.26 104.39 801.26 112.3 803.24 112.3 803.24 104.39 805.22 104.39 805.22 103.4 753.75 103.4"/><rect class="cls-19" x="766.12" y="271.09" width="16.83" height="19.79"/><rect class="cls-19" x="799.78" y="271.09" width="16.83" height="19.79"/><rect class="cls-19" x="765.13" y="176.11" width="16.83" height="19.79"/><rect class="cls-19" x="798.79" y="176.11" width="16.83" height="19.79"/><rect class="cls-18" x="761.17" y="320.56" width="69.29" height="62.33"/><polygon class="cls-9" points="962.61 136.05 970.53 462.52 883.42 462.52 883.42 220.63 922.52 219.65 921.53 146.43 962.61 136.05"/><rect class="cls-20" x="927.47" y="147.42" width="10.89" height="6.93"/><rect class="cls-20" x="940.34" y="147.42" width="10.89" height="6.93"/><rect class="cls-20" x="927.47" y="156.33" width="10.89" height="8.9"/><rect class="cls-20" x="940.34" y="156.33" width="10.89" height="8.9"/><rect class="cls-21" x="922.52" y="248.34" width="11.88" height="15.83"/><rect class="cls-21" x="911.63" y="228.55" width="11.88" height="15.83"/><polygon class="cls-9" points="660.17 168.37 666.64 462.52 579.54 462.52 579.54 220.63 618.64 219.65 617.6 184.2 660.17 168.37"/><rect class="cls-20" x="627.5" y="185.19" width="10.89" height="6.93"/><rect class="cls-20" x="640.37" y="185.19" width="10.89" height="6.93"/><rect class="cls-20" x="627.5" y="194.1" width="10.89" height="8.9"/><rect class="cls-20" x="640.37" y="194.1" width="10.89" height="8.9"/><rect class="cls-21" x="618.64" y="248.34" width="11.88" height="15.83"/><rect class="cls-21" x="607.75" y="228.55" width="11.88" height="15.83"/><rect class="cls-22" x="808.19" y="301.26" width="83.15" height="161.26"/><rect class="cls-23" x="816.6" y="311.65" width="74.24" height="29.68"/><rect class="cls-24" x="828.48" y="319.57" width="62.36" height="11.87"/><rect class="cls-25" x="810.67" y="350.24" width="78.2" height="2.97"/><path class="cls-25" d="M889.85,398.71v-3h-5V359.14h4v-3H810.67v3h4V463h2v-4.95h72.26v-3H816.6v-6.92h73.25v-3H816.6V407.62h16.83v36.6h2v-36.6h13.86v36.6h2v-36.6H866.1v36.6h2v-36.6h14.84v36.6h2v-36.6h5v-3H816.6v-5.94Zm-6.93-39.57v36.61H868.08V359.14Zm-16.82,0v36.61H851.25V359.14Zm-16.83,0v36.61H835.41V359.14Zm-15.84,0v36.61H816.6V359.14Z"/><rect class="cls-26" x="854.71" y="354.69" width="91.07" height="107.84"/><rect class="cls-27" x="856.2" y="369.03" width="86.12" height="1.98"/><rect class="cls-27" x="865.11" y="375.96" width="1.98" height="21.77"/><rect class="cls-27" x="878.97" y="375.96" width="1.98" height="21.77"/><rect class="cls-27" x="890.84" y="375.96" width="1.98" height="21.77"/><rect class="cls-27" x="903.71" y="375.96" width="1.98" height="21.77"/><rect class="cls-27" x="915.59" y="375.96" width="1.98" height="21.77"/><rect class="cls-27" x="927.47" y="375.96" width="1.98" height="21.77"/><rect class="cls-27" x="856.2" y="402.67" width="86.12" height="1.98"/><rect class="cls-27" x="865.11" y="409.6" width="1.98" height="21.77"/><rect class="cls-27" x="878.97" y="409.6" width="1.98" height="21.77"/><rect class="cls-27" x="890.84" y="409.6" width="1.98" height="21.77"/><rect class="cls-27" x="903.71" y="409.6" width="1.98" height="21.77"/><rect class="cls-27" x="915.59" y="409.6" width="1.98" height="21.77"/><rect class="cls-27" x="927.47" y="409.6" width="1.98" height="21.77"/><rect class="cls-27" x="856.2" y="433.34" width="86.12" height="1.98"/><rect class="cls-27" x="865.11" y="440.26" width="1.98" height="21.77"/><rect class="cls-27" x="878.97" y="440.26" width="1.98" height="21.77"/><rect class="cls-27" x="890.84" y="440.26" width="1.98" height="21.77"/><rect class="cls-27" x="903.71" y="440.26" width="1.98" height="21.77"/><rect class="cls-27" x="915.59" y="440.26" width="1.98" height="21.77"/><rect class="cls-27" x="927.47" y="440.26" width="1.98" height="21.77"/><polygon class="cls-28" points="1078.42 462.52 1169.48 462.52 1168.49 353.7 1115.04 355.68 1079.41 425.92 1078.42 462.52"/><path class="cls-29" d="M1120.93,463.56c0-11.87,0-24.73,0-24.73l11-.77-.12-11.1h35.63v5h12.87s0-8.58,0-10.89h38.6v42.54Z"/><rect class="cls-30" x="1185.27" y="430.92" width="11.88" height="8.9"/><rect class="cls-30" x="1199.13" y="430.92" width="11.88" height="8.9"/><path class="cls-30" d="M1132.81,435.86v15.83h28.7V435.86Zm25.73,12.86h-22.76v-9.89h22.76Z"/><rect class="cls-31" x="1176.36" y="415.09" width="45.53" height="9.89"/><polygon class="cls-10" points="1304.1 463.51 1466.44 463.51 1466.44 243.88 1408.53 243.88 1409.52 370.02 1395.66 367.06 1396.65 326.49 1382.8 326.49 1382.8 299.78 1362.01 308.68 1363 372 1303.61 406.63 1304.1 463.51"/><path class="cls-32" d="M1448.89,428.92l-26.42-1.06,15.85-23.24Zm-24.6-2,23.07.93-9.23-21.21Z"/><polygon class="cls-33" points="1412.49 373.98 1460 389.81 1460 351.23 1412.49 373.98"/><rect class="cls-32" x="1412.49" y="251.3" width="50.48" height="2.97"/><rect class="cls-32" x="1413.48" y="268.12" width="49.49" height="11.87"/><rect class="cls-32" x="1413.48" y="300.77" width="49.49" height="11.87"/><rect class="cls-34" x="1395.66" y="371.01" width="1.98" height="56.39"/><rect class="cls-34" x="1365.97" y="380.91" width="12.87" height="1.98"/><rect class="cls-34" x="1365.97" y="385.85" width="13.86" height="1.98"/><rect class="cls-34" x="1365.97" y="391.79" width="24.75" height="1.98"/><rect class="cls-34" x="1365.97" y="396.73" width="27.72" height="1.98"/><rect class="cls-34" x="1365.97" y="402.67" width="27.72" height="1.98"/><path class="cls-32" d="M1374.88,320.06a3.46,3.46,0,1,1,3.46-3.46A3.47,3.47,0,0,1,1374.88,320.06Zm0-5.93a2.47,2.47,0,1,0,2.47,2.47A2.47,2.47,0,0,0,1374.88,314.13Z"/><path class="cls-32" d="M1320.44,409.6c1-1,40.58-24.74,40.58-24.74l-3-3-39.59,24.74Z"/><path class="cls-32" d="M1331.82,440.76H1316V419h15.84Zm-14.85-1h13.86V420H1317Z"/><rect class="cls-34" x="1364.98" y="409.6" width="25.74" height="4.95"/><rect class="cls-34" x="1365.97" y="421.47" width="25.74" height="4.95"/><polygon class="cls-7" points="584.49 465.49 736.92 465.49 733.95 204.31 668.13 206.78 668.13 227.56 658.23 234.49 656.25 401.68 585.97 402.67 584.49 465.49"/><rect class="cls-32" x="675.06" y="227.56" width="56.42" height="2.97"/><rect class="cls-32" x="684.96" y="244.38" width="25.74" height="1.98"/><rect class="cls-32" x="684.96" y="291.87" width="23.76" height="1.98"/><rect class="cls-32" x="684.96" y="386.84" width="25.74" height="2.97"/><polygon class="cls-32" points="681.49 392.28 656.25 392.28 656.25 391.29 680.5 391.29 680.5 246.85 658.16 246.67 658.17 245.68 681.49 245.87 681.49 392.28"/><polygon class="cls-9" points="658.07 250.64 677.04 250.31 676.05 385.85 656.25 386.02 658.07 250.64"/><rect class="cls-35" x="659.22" y="252.29" width="15.84" height="11.87"/><rect class="cls-35" x="659.22" y="266.14" width="15.84" height="13.85"/><rect class="cls-35" x="659.22" y="281.97" width="15.84" height="16.82"/><rect class="cls-35" x="659.22" y="300.77" width="15.84" height="15.83"/><rect class="cls-35" x="659.22" y="318.58" width="15.84" height="11.87"/><rect class="cls-35" x="658.23" y="332.43" width="16.83" height="11.87"/><rect class="cls-35" x="658.23" y="346.28" width="16.83" height="10.88"/><rect class="cls-35" x="657.24" y="359.14" width="17.82" height="12.86"/><rect class="cls-35" x="657.24" y="373.98" width="17.82" height="10.88"/><polygon class="cls-32" points="714.16 391.29 735.93 391.29 735.93 390.3 715.01 390.3 715.01 245.86 734.28 245.68 734.27 244.69 714.16 244.88 714.16 391.29"/><polygon class="cls-9" points="734.37 249.65 718 249.32 718.85 384.86 735.93 385.03 734.37 249.65"/><rect class="cls-35" x="719.71" y="251.3" width="13.66" height="11.87" transform="translate(1453.08 514.48) rotate(-180)"/><rect class="cls-35" x="719.71" y="265.15" width="13.66" height="13.85" transform="translate(1453.08 544.16) rotate(-180)"/><rect class="cls-35" x="719.71" y="280.98" width="13.66" height="16.82" transform="translate(1453.08 578.78) rotate(-180)"/><rect class="cls-35" x="719.71" y="299.78" width="13.66" height="15.83" transform="translate(1453.08 615.39) rotate(-180)"/><rect class="cls-35" x="719.71" y="317.59" width="13.66" height="11.87" transform="translate(1453.08 647.05) rotate(-180)"/><rect class="cls-35" x="719.71" y="331.44" width="14.52" height="11.87" transform="translate(1453.93 674.75) rotate(-180)"/><rect class="cls-35" x="719.71" y="345.29" width="14.52" height="10.88" transform="translate(1453.93 701.46) rotate(-180)"/><rect class="cls-35" x="719.71" y="358.15" width="15.37" height="12.86" transform="translate(1454.79 729.16) rotate(-180)"/><rect class="cls-35" x="719.71" y="372.99" width="15.37" height="10.88" transform="translate(1454.79 756.86) rotate(-180)"/><polygon class="cls-32" points="726.03 465.5 725.05 414.05 669.61 414.05 669.37 465.5 668.38 465.49 668.63 413.06 726.02 413.06 727.02 465.48 726.03 465.5"/><polygon class="cls-32" points="719.35 465.5 719.11 422.96 677.52 423.93 676.54 464.02 675.55 464 676.55 422.96 720.09 421.95 720.34 465.49 719.35 465.5"/><rect class="cls-36" x="628.53" y="419.49" width="1.98" height="44.52"/><rect class="cls-36" x="634.47" y="419.49" width="1.98" height="44.52"/><rect class="cls-36" x="639.42" y="419.49" width="1.98" height="44.52"/><rect class="cls-36" x="645.36" y="419.49" width="1.98" height="44.52"/><rect class="cls-36" x="649.32" y="419.49" width="1.98" height="44.52"/><rect class="cls-37" x="489.46" y="281.06" width="37.61" height="116.03"/><polygon class="cls-38" points="379.59 475.39 590.42 475.39 591.41 317.41 549.35 318.11 549.35 220.25 525.59 248.21 525.59 388.01 498.87 389.41 498.87 348.87 466.2 348.87 466.2 355.86 446.4 355.86 445.41 195.09 380.08 199.28 379.59 475.39"/><rect class="cls-39" x="386.02" y="206.27" width="56.42" height="69.9"/><path class="cls-40" d="M425.12,380.32h-5.94v-9.78h5.94Zm-4.95-1.4h4v-7h-4Z"/><path class="cls-40" d="M439,374.73h-5v-9.79h5Zm-4-1.4h3v-7h-3Z"/><rect class="cls-40" x="491.94" y="334.89" width="1.98" height="13.98"/><rect class="cls-40" x="477.09" y="336.28" width="1.98" height="12.58"/><rect class="cls-40" x="472.14" y="333.49" width="1.98" height="15.38"/><rect class="cls-41" x="528.56" y="281.76" width="17.82" height="1.4"/><rect class="cls-41" x="528.56" y="285.96" width="18.81" height="1.4"/><rect class="cls-41" x="528.56" y="316.71" width="17.82" height="2.8"/><rect class="cls-41" x="531.53" y="325.1" width="55.43" height="2.8"/><path class="cls-41" d="M565.68,360.75H535V335.58h30.69Zm-29.7-1.4h28.71V337H536Z"/><rect class="cls-41" x="569.14" y="334.89" width="15.84" height="2.8"/><rect class="cls-41" x="569.14" y="343.27" width="15.84" height="1.4"/><rect class="cls-41" x="569.14" y="351.66" width="15.84" height="2.8"/><rect class="cls-41" x="569.14" y="358.65" width="15.84" height="1.4"/><rect class="cls-41" x="529.55" y="365.64" width="57.41" height="1.4"/><rect class="cls-41" x="529.55" y="374.03" width="59.39" height="2.8"/><rect class="cls-40" x="451.35" y="374.03" width="11.88" height="1.4"/><rect class="cls-40" x="466.2" y="371.23" width="31.68" height="1.4"/><rect class="cls-40" x="466.2" y="357.25" width="0.99" height="65.71"/><rect class="cls-40" x="477.09" y="375.43" width="1.98" height="18.17"/><rect class="cls-40" x="488.97" y="375.43" width="0.99" height="18.17"/><rect class="cls-40" x="470.16" y="383.82" width="4.95" height="8.39"/><rect class="cls-40" x="446.4" y="360.05" width="2.97" height="65.71"/><path class="cls-40" d="M405.82,470.49c1,0,58.4-40.54,58.4-40.54l-2-4.19L397.9,470.49Z"/><rect class="cls-40" x="452.34" y="389.41" width="10.89" height="2.8"/><rect class="cls-40" x="452.34" y="408.98" width="10.89" height="2.8"/><polygon class="cls-11" points="150.93 484.29 307.33 484.29 301.39 241.91 270.21 241.41 263.28 128.63 223.69 164.24 226.66 327.48 216.76 326.49 151.43 372.99 150.93 484.29"/><polygon class="cls-12" points="230.62 181.06 260.31 161.27 260.31 140.5 230.62 168.2 230.62 181.06"/><path class="cls-12" d="M260.31,171.17,229.63,191l4,81.13,30.68-29.68Zm-22.76,84.09-2-63.32,2-1,2,63.32Zm6.92-6.92-2-61.34s2-1,2,0,2,60.35,2,60.35Zm9.9-10.89-2,2V184h2Z"/><path class="cls-42" d="M243,330H222.4l21.65,19.48Zm-18,1H242l.89,16.15Z"/><path class="cls-42" d="M226.16,368h0v11.42L239,378.39l1-26.16V352l-13.87-11.72Zm12.28-.4-11.29.37v-9l11.61.22Zm-11.29,10.75V369l11.25-.36-.34,8.84ZM239,352.44l-.22,5.78L227.15,358V342.4Z"/><polygon class="cls-42" points="176.18 476.38 175.19 476.38 175.19 368.04 185.08 368.04 185.08 363.1 193.92 363.1 192.93 356.17 200.92 356.17 200.92 348.29 214.25 347.27 214.32 348.25 201.91 349.21 201.91 357.16 194.07 357.16 195.06 364.09 186.07 364.09 186.07 369.03 176.18 369.03 176.18 476.38"/><rect class="cls-43" x="237.55" y="393.77" width="8.91" height="11.87"/><rect class="cls-43" x="228.64" y="407.62" width="8.91" height="10.88"/><rect class="cls-14" x="266.25" y="254.27" width="11.88" height="27.7"/><rect class="cls-14" x="281.1" y="252.29" width="10.89" height="35.62"/><rect class="cls-42" x="217.75" y="329.46" width="1.98" height="57.38"/><rect class="cls-42" x="204.88" y="366.07" width="1.98" height="67.27"/><rect class="cls-42" x="197.95" y="372" width="1.98" height="55.4"/><rect class="cls-42" x="191.02" y="377.94" width="1.98" height="49.47"/><path class="cls-43" d="M217.75,441.25s31.67,18.8,31.67,17.81-4-38.58-4-38.58Z"/><polyline class="cls-14" points="270.21 348.26 269.22 341.33 247.44 357.16 247.44 361.12 258.33 361.12 270.21 349.25"/><polygon class="cls-14" points="247.44 348.26 250.41 348.26 267.24 337.38 267.24 334.41 247.44 348.26"/><path class="cls-14" d="M244.47,328.47h2v-1h19.8v-2s-21.78-1-21.78,0Z"/><polygon class="cls-14" points="261.3 361.12 270.21 361.12 272.19 353.2 261.3 361.12"/><polygon class="cls-10" points="274.67 484.29 377.61 484.29 377.11 331.44 350.39 321.55 350.39 342.32 337.52 342.32 337.52 371.01 325.64 372.99 325.64 280.98 274.17 280.98 274.67 484.29"/><rect class="cls-44" x="276.15" y="283.95" width="46.52" height="2.97"/><rect class="cls-45" x="277.14" y="296.81" width="46.52" height="7.91"/><rect class="cls-45" x="277.14" y="322.53" width="46.52" height="7.91"/><rect class="cls-44" x="355.34" y="380.91" width="18.81" height="1.98"/><rect class="cls-44" x="354.35" y="384.86" width="19.8" height="1.98"/><rect class="cls-44" x="343.46" y="389.81" width="30.69" height="0.99"/><rect class="cls-44" x="340.49" y="393.77" width="33.65" height="0.99"/><rect class="cls-44" x="342.47" y="398.71" width="32.66" height="0.99"/><rect class="cls-44" x="336.53" y="373.98" width="1.98" height="108.83"/><path class="cls-44" d="M373.65,428.89H344V403.17h29.7Zm-28.71-1h27.72V404.15H344.94Z"/><path class="cls-44" d="M358.8,336.88a3.5,3.5,0,1,1,4-3.46A3.74,3.74,0,0,1,358.8,336.88Zm0-5.94a2.52,2.52,0,1,0,3,2.48A2.76,2.76,0,0,0,358.8,330.94Z"/><path class="cls-46" d="M313.81,417H291.19l8.62-17.24Zm-21-1h18.94L300,401.6Z"/><path class="cls-44" d="M364.23,421H348.57l6.71-12.3Zm-14-1h12l-6.88-9.46Z"/><polygon class="cls-47" points="281.1 388.82 322.67 375.96 281.1 360.13 281.1 388.82"/><path class="cls-6" d="M1555.52,489.24h185.1l-6.92-188-23.76-1-1-45.5h-10.89V242.89h-38.6l1,56.4h-30.69v-93h-45.53c-1,0,0,104.87,0,104.87h-27.72Z"/><polygon class="cls-7" points="1665.4 300.27 1697.07 300.27 1696.08 257.73 1664.41 257.73 1665.4 300.27"/><polygon class="cls-7" points="1665.4 254.77 1695.09 255.75 1695.09 248.83 1664.41 245.86 1665.4 254.77"/><polygon class="cls-8" points="1642.58 328.36 1641.67 344.8 1668.17 344.8 1642.58 328.36"/><path class="cls-8" d="M1628.28,308.68V353.2l62.36-2Zm13.41,17.93,29.85,19.17h-30.92Z"/><polygon class="cls-7" points="1636.03 489.24 1690.14 489.24 1689.65 443.23 1635.21 421.47 1636.03 489.24"/><polygon class="cls-9" points="1588.68 373.98 1588.68 487.75 1627.45 489.24 1627.29 409.6 1609.47 374.97 1588.68 373.98"/><polygon class="cls-10" points="1556.18 465.16 1581.76 465 1581.76 417.51 1623.33 416.52 1622.5 489.24 1555.03 488.74 1556.18 465.16"/><polygon class="cls-11" points="1690.14 490.23 1846.54 490.23 1840.6 247.84 1809.42 247.35 1802.49 134.56 1762.9 170.18 1765.87 333.42 1755.97 332.43 1690.64 378.93 1690.14 490.23"/><polygon class="cls-12" points="1769.83 187 1799.52 167.21 1799.52 146.43 1769.83 174.14 1769.83 187"/><path class="cls-12" d="M1799.52,177.1l-30.68,19.79,4,81.13,30.69-29.68Zm-22.77,84.1-2-63.32,2-1,2,63.32Zm6.93-6.93-2-61.34s2-1,2,0,2,60.35,2,60.35Zm9.9-10.88-2,2V190h2Z"/><path class="cls-42" d="M1782.17,335.89h-20.56l21.64,19.47Zm-18,1h17l.89,16.14Z"/><path class="cls-42" d="M1765.37,374h0l0,.49V385.4l12.85-1.07,1-26.16v-.24l-13.87-11.73Zm12.27-.4-11.28.37v-9l11.61.23Zm-11.28,10.75v-9.39l11.25-.37-.34,8.85Zm11.87-26-.22,5.79-11.65-.23v-15.6Z"/><polygon class="cls-42" points="1715.38 482.31 1714.39 482.31 1714.39 373.98 1724.29 373.98 1724.29 369.03 1733.13 369.03 1732.14 362.11 1740.13 362.11 1740.13 354.23 1753.45 353.21 1753.53 354.19 1741.12 355.15 1741.12 363.1 1733.28 363.1 1734.27 370.02 1725.28 370.02 1725.28 374.97 1715.38 374.97 1715.38 482.31"/><rect class="cls-43" x="1776.75" y="399.7" width="8.91" height="11.87"/><rect class="cls-43" x="1767.85" y="413.55" width="8.91" height="10.88"/><rect class="cls-14" x="1805.46" y="260.21" width="11.88" height="27.7"/><rect class="cls-14" x="1820.31" y="258.23" width="10.89" height="35.62"/><rect class="cls-42" x="1756.96" y="335.4" width="1.98" height="57.38"/><rect class="cls-42" x="1744.09" y="372" width="1.98" height="67.27"/><rect class="cls-42" x="1737.16" y="377.94" width="1.98" height="55.4"/><rect class="cls-42" x="1730.23" y="383.87" width="1.98" height="49.47"/><path class="cls-43" d="M1757,447.19s31.67,18.8,31.67,17.81-4-38.59-4-38.59Z"/><polyline class="cls-14" points="1809.42 354.19 1808.43 347.27 1786.65 363.1 1786.65 367.06 1797.54 367.06 1809.42 355.18"/><polygon class="cls-14" points="1786.65 354.19 1789.62 354.19 1806.45 343.31 1806.45 340.34 1786.65 354.19"/><path class="cls-14" d="M1783.68,334.41h2v-1h19.8v-2s-21.78-1-21.78,0Z"/><polygon class="cls-14" points="1800.51 367.06 1809.42 367.06 1811.4 359.14 1800.51 367.06"/><polygon class="cls-10" points="1796.06 490.23 1899 490.23 1898.51 337.38 1871.78 327.48 1871.78 348.26 1858.91 348.26 1858.91 376.95 1847.03 378.93 1847.03 286.92 1795.56 286.92 1796.06 490.23"/><rect class="cls-44" x="1797.54" y="289.89" width="46.52" height="2.97"/><rect class="cls-45" x="1798.53" y="302.75" width="46.52" height="7.91"/><rect class="cls-45" x="1798.53" y="328.47" width="46.52" height="7.91"/><rect class="cls-44" x="1876.73" y="386.84" width="18.81" height="1.98"/><rect class="cls-44" x="1875.74" y="390.8" width="19.8" height="1.98"/><rect class="cls-44" x="1864.85" y="395.75" width="30.69" height="0.99"/><rect class="cls-44" x="1861.88" y="399.7" width="33.65" height="0.99"/><rect class="cls-44" x="1863.86" y="404.65" width="32.66" height="0.99"/><rect class="cls-44" x="1857.92" y="379.92" width="1.98" height="108.83"/><path class="cls-44" d="M1895,434.82h-29.69V409.1H1895Zm-28.7-1h27.71V410.09h-27.71Z"/><path class="cls-44" d="M1880.19,342.82a3.5,3.5,0,1,1,4-3.47A3.75,3.75,0,0,1,1880.19,342.82Zm0-5.94a2.52,2.52,0,1,0,3,2.47A2.76,2.76,0,0,0,1880.19,336.88Z"/><path class="cls-46" d="M1835.21,423h-22.63l8.62-17.23Zm-21-1h19l-11.73-14.43Z"/><path class="cls-44" d="M1885.62,426.91H1870l6.71-12.3Zm-14-1h12.06l-6.89-9.46Z"/><polygon class="cls-47" points="1802.49 394.76 1844.06 381.89 1802.49 366.06 1802.49 394.76"/></g><rect class="cls-48" x="3" width="1896" height="759"/><path class="cls-49" d="M1896,751.44c-68-5.83-907.67-74.49-1884.46,0h-1.5L3,752.08v339.11H1898V751.44Z"/><path class="cls-50" d="M1880,520.26c-25.61,57.27-51.33,114.49-76.66,171.88-3,6.86-6.45,9.29-14,9.29q-354.36-.39-708.73-.18c-36.08,0-71.16-8.41-106.75-12.53-14.18-1.65-28.31-3.76-42.47-5.54-6.14-.78-12.06,0-17.33,3.68C885.76,706.42,855,703.29,824.07,697c-10-2-19.21-6.34-28.57-10.43-23.06-10.08-45.83-12-67.78,4-11.36,8.26-24.07,11.11-38,6.59A29.1,29.1,0,0,1,677.14,689q-88.62-94.31-177.4-188.47c-1.75-1.87-3.62-3.62-5.44-5.42-1.16-7.51,4.86-6.73,8.39-6.3,14.25,1.77,28.63.34,42.8,1.94,20.88,2.35,41.85,1.84,62.76,3,51,2.86,102.06,4.48,153,7.78,15.51,1,31.1,1.4,46.61,1.8,39.34,1,78.67,2.83,118,4.65,53.56,2.49,107.18,3.29,160.69,7.1,19.6,1.4,39.32,1.28,59,2.06,87.93,3.5,175.93,2.17,263.9,2.14,61.93,0,123.85-1.39,185.75-2.5,40.64-.74,81.31.16,121.91-1.59,48.84-2.11,97.71-2,146.56-3.6a43.92,43.92,0,0,1,11.39.63C1879.25,513.15,1882.35,515,1880,520.26Z"/><path class="cls-51" d="M1880,520.26c1-7.13-3.89-5.76-7.89-5.67-53.64,1.14-107.27,2.52-160.92,3.37-73.34,1.16-146.7,1.28-220,3-95.57,2.21-191.15,3.24-286.71.83-71.71-1.81-143.37-5.69-215.07-8.22-35.85-1.26-71.67-3.09-107.51-4.45q-145.61-5.52-291.1-13.37-44.21-2.34-88.43-4c-2.71-.11-7.49-3-8,3.34L469,471.91c.68-.88,1.36-1.75,2.05-2.62,25.56.68,50.94,3.9,76.41,6,20.8,1.68,41.63,3,62.46,4.34,29.36,1.88,58.67,4.32,88,7.13,16.67,1.6,33.39,2.78,50.09,4.19,39.4,3.34,78.87,5.92,118.35,8.28,28.75,1.71,57.44,4,86,7.37,16.19,1.92,18,.61,18.15-16.35.15-14.24.11-28.49.43-42.73.31-13.81,2.44-15.88,16.18-16.08,12.7-.18,25.42-.42,38.1,0,6.85.25,8.88-2.36,8.51-9-.47-8.39.18-16.84-.27-25.23-.36-6.56,1.51-9.58,8.45-9,6.31.53,12.74-.36,19,.24,7.43.7,9.3-2.48,9-9.49-.48-9.36,0-18.77,0-28.16,0-1.94,0-3.92,1.74-5.27,3.13,3,2.87,7,3,10.87.2,6.47.2,13,.06,19.43s2.61,9.58,9.06,9.38c3.48-.1,7,0,10.48,0,108.93,0,217.87.17,326.81-.21,13,0,22.74,3.71,32,13.24,28,28.78,16.09,23.71,55.81,23.82,92.42.26,184.85.07,277.27.1a239.54,239.54,0,0,0,25.69-1c7.73,22.71,15.51,45.42,23.17,68.16,1.22,3.63,2.81,5.53,7,6.33,8.19,1.56,16.37,1.42,24.57,1.63C1880.06,497.65,1885.46,506.86,1880,520.26Z"/><path class="cls-52" d="M1811.85,421.18c-1.58,6.13-6.54,4-10.24,4q-86.64.18-173.29.08c-48.24,0-96.48-.1-144.72.13-6.2,0-10.7-1.71-15-6.31-9.63-10.28-18.23-23.5-30.16-29.08-12.65-5.91-28.7-1.63-43.26-1.64q-156.15-.18-312.29.15c-9.35,0-12.09-2.73-11.39-12,.79-10.29.17-20.69.16-31h0c4.92-4.13,10.84-3.1,16.46-3.1q102.86-.1,205.72-.05,220,0,440-.08c14.63,0,29.07,2.81,43.71,2.19,3.28-.13,6.16,1.37,9,2.8,9.54,21.18,14.85,43.89,22.83,65.64C1810.39,415.62,1811,418.43,1811.85,421.18Z"/><path class="cls-51" d="M1786.57,347.3c-238.3-3.58-476.62-.38-714.93-1.76.23-3.85-1.34-7.74.18-11.58a5.94,5.94,0,0,1,2.64-.94c39.61-.34,79.22.5,118.83-.15,5-.08,9.76,3.52,14.86.75a11.46,11.46,0,0,1,3.41-.85c13.25.84,26.53.22,39.79.35,33.36.81,66.71.19,100.06-.52a7.89,7.89,0,0,1,4.49,1.16h-.13c2.84,2.2,6.13,1.09,9.2,1.1,27.62.1,55.37-1.65,82.83.55,26.38,2.12,52.56-1.58,74.11.44-8.18,0-21.05,0-33.91,0-5,0-8.23-1.76-7.34-7.36,2.41-15,1-30.26,2.69-45.31-.39-24.87,1.28-49.66,3.73-74.36.68-6.87-2.42-9-7.42-10.68,2.52-3.12,6.11-3.23,9.58-3.29q23.77-.36,47.57,0c3.47,0,7,.17,9.6,3.24q5.17,36.77,10.35,73.55c2.39,17.18,4.86,34.36,7,51.59,1,7.95,3.89,11,12.57,11,62.81-.39,125.63.12,188.44-.26C1775.47,333.9,1784,334.71,1786.57,347.3Z"/><path class="cls-53" d="M1260.27,209.7c6.58.25,13.35-1.56,19.61,2,3.5,5.89,2.37,12.35,2.24,18.67-3.61,4.51-8.71,2.6-13.25,3.12a3.59,3.59,0,0,0-1.76.44,3.43,3.43,0,0,0,.67.2c7.56-.38,12.36,2.18,12.4,10.76.09,26.7.13,53.41,0,80.11,0,2.6-.34,5.15-2,7.3-4.34,2.83-9.18,1.54-13.79,1.59q-22.15.24-44.31,0c-4.36,0-9.7.37-7.34-7.11,4.83-11.74,9.56-23.54,13.89-35.5,5.45-10.69,8.41-22.43,13.42-33.31,4.84-10.81,8.25-22.21,13.21-33C1255.51,219.84,1256.94,214.31,1260.27,209.7Z"/><path class="cls-53" d="M1285,209.72l19.34,0c3.48,4.55,4.24,10.39,6.94,15.31,4.21,9.55,6.83,19.74,11.45,29.13,5.78,14.28,10.68,28.93,17.21,42.92,3.1,9.3,6.55,18.46,10.45,27.45,1.18,2.72,3.47,5.63.17,8.55-19.33,1.87-38.69.45-58,.79-7.1.12-8.17-5-8.37-10.46-.44-11.65-.37-23.32-.13-35,.35-17.13-1.32-34.3,1.05-51.35,2.77-6.4,8.51-3.37,12.58-4.21-3.53-.63-8,1.39-11.53-2.08C1283.64,223.87,1283.62,216.84,1285,209.72Z"/><path class="cls-54" d="M1286.82,235c.09,28.73.59,57.46,0,86.17-.17,9.29,2.87,11.42,11.29,11.07,14.86-.62,29.76-.1,44.64-.19,3,0,6.41,1.05,8.94-1.83-.82-2.08.17-2.44,1.91-2.08l2.25,5.6c-5.11,1.82-10.37,2.18-15.77,2.16-29.75-.12-59.5-.06-89.25-.06-9.59-2.16-19.31-.4-28.94-1-3.7-.24-7.52.94-11.09-.92-.77-.52-1.8-.78-1.93-1.95l3.9-9.66c1.74-.43,2.69-.07,1.94,2-1.84,5.13-1.75,8.06,5.28,7.89,19.16-.46,38.34-.17,57.51-.18,2.14-5.93.87-12.08.92-18.11.19-23,0-46,.12-69,0-3.46-1-7.2,1.73-10.22C1282.57,233.11,1284.74,233,1286.82,235Z"/><path class="cls-55" d="M1546.41,198.1l-66.75.05c-5.07-1.53-8.8-4.31-7.51-10.37s6.17-6.88,11.12-6.85c19,.14,38,.47,57,.64,4.74,0,9,.9,10.9,5.94S1549.42,195.22,1546.41,198.1Z"/><path class="cls-56" d="M1208.92,332l1.93,1.95c-3.73,2.38-7.9,1.93-12,1.95-42.35.19-84.66-3.37-127-1.91,2.85-3.15,6.58-1.71,9.89-1.72,25.7-.14,51.41-.21,77.11,0,6.69,0,9.7-1.67,7-9-1.11-3-1.36-6.28-1.89-9.46-1.46-8.61.52-10.51,9.34-9.4a31.61,31.61,0,0,0,7.59.12c12.41-1.44,12.39-1.5,15,11.6.5,2.53,1.51,5,1.54,7.55C1197.5,332,1201.18,334.79,1208.92,332Z"/><path class="cls-57" d="M1483.35,283.19c-.53,14.16,1.63,28.4-1.61,42.5-1.22,5.28.49,8.51,6.87,8.33,12.69-.36,25.4-.2,38.1,0,2.93,0,6.26-1.29,9.34,2-2.71,2.75-6,1.74-8.81,1.76-20.64.09-41.39,1.39-61.9-.24-34.24-2.72-68.45-.87-102.66-1.67-2.48-.05-5.17.54-6.91-2.09,29.75,0,59.51-.09,89.26.19,8.78.08,17.56,1.1,26.31,2,6.83.73,8.14-2.39,8.67-8.84C1481.23,312.51,1480.17,297.67,1483.35,283.19Z"/><path class="cls-58" d="M1268.13,188.15l13.22.06c1.48,5.92,1.63,11.72-1.55,17.21l-17.51.18c-.77-3.82.67-7.1,2.48-10.27C1266.48,193.22,1266.22,190.16,1268.13,188.15Z"/><path class="cls-59" d="M1279.39,155c2.88-2.6,5.74-3,7.35,1.1,3,7.67,5.57,15.5,8.32,23.27.74,2.11-.35,2.85-2.21,3-3.06-1.67-4.4-4.37-4.13-6.08a5.81,5.81,0,0,1-1.72,6l-3.72.1C1279,173.68,1280.88,164.08,1279.39,155Z"/><path class="cls-60" d="M1287,188.31l9.68-.11c2.63,5.56,5.57,11,5.72,17.41l-15.42-.1Q1281.48,196.9,1287,188.31Z"/><path class="cls-61" d="M1279.39,155c5.19,8.56,3.74,18.09,3.89,27.38l-3.57-.18c-5-5-.8-10.28-1-14.46-1.64,4.39-.76,11.18-6.78,14.66-2.56-.1-3.22-1.31-2.2-3.7C1273.09,170.85,1274.87,162.34,1279.39,155Z"/><path class="cls-62" d="M1338.43,297.23c-7-13.77-12.1-28.36-16.93-43a3.07,3.07,0,0,1,1.75-1.78c7.16,13.62,11.91,28.24,17.26,42.62A2.56,2.56,0,0,1,1338.43,297.23Z"/><path class="cls-59" d="M1285,209.72c3.82,6.71,1.62,13.93,1.73,21-1.71,1.82-3.45,1.79-5.21.07-3.38-6.1-1.47-12.7-1.69-19.09Z"/><path class="cls-63" d="M1338.43,297.23l2.08-2.19q6.57,16.56,13.15,33.12l-1.92,2.08C1345.15,320.14,1342.13,308.54,1338.43,297.23Z"/><path class="cls-64" d="M1254.73,225.15c-4.61,10.91-7.51,22.55-13.41,32.92a3,3,0,0,1-1.69-1.81c2.83-12.3,8.35-23.55,13.1-35.1C1256.29,221,1255.84,222.89,1254.73,225.15Z"/><path class="cls-65" d="M1214.76,324.31l-1.94-2c4.5-11,7.21-22.74,13.43-33,1.65-.4,2.62-.16,1.76,1.88C1224.56,302.62,1220.72,313.91,1214.76,324.31Z"/><path class="cls-66" d="M1228,291.18c-.59-.63-1.18-1.25-1.76-1.88,4-11.22,6.92-22.87,13.38-33.05l1.69,1.82C1237.23,269.25,1234,280.81,1228,291.18Z"/><path class="cls-67" d="M1287,188.31q0,8.59,0,17.2l-7.15-.09c0-5.79-1.35-11.7,1.56-17.21Z"/><path class="cls-68" d="M1323.25,252.42c-.58.6-1.17,1.19-1.75,1.78-5.46-9-8-19.3-11.57-29.11a3.27,3.27,0,0,1,1.91-1.81C1317.27,232.33,1319.92,242.52,1323.25,252.42Z"/><path class="cls-69" d="M1271.92,182.38l6.16-15.56,1.63.11v15.25Z"/><path class="cls-70" d="M1311.84,223.28l-1.91,1.81c-3.91-4.36-5.25-9.69-5.55-15.4C1310.47,212.16,1311.34,217.62,1311.84,223.28Z"/><path class="cls-71" d="M1254.73,225.15c-.09-1.63-.39-3.15-2-4,1.55-4.48,1.62-10,7.54-11.46C1260.42,215.59,1257.28,220.26,1254.73,225.15Z"/><path class="cls-72" d="M1302.35,205.61c-2.71-5.53-5.63-11-5.72-17.41C1301.54,193,1305.36,198.13,1302.35,205.61Z"/><path class="cls-73" d="M1266.18,196q-2,4.8-3.89,9.59c-4.63-5.3.67-9.12,1.94-13.54C1267.73,191.92,1267.29,193.79,1266.18,196Z"/><path class="cls-74" d="M1287,182.26v-10.4c4.37,2.9,3.76,7.48,5.85,10.45Z"/><path class="cls-75" d="M1266.18,196c-.1-1.6-.37-3.11-2-3.95a6,6,0,0,1,3.9-3.91C1267.94,190.89,1268.79,193.89,1266.18,196Z"/><path class="cls-76" d="M1405.07,568.92c-41.81,0-72.31.47-102.79-.11-46.29-.88-92.59-1.72-138.82-4.06-29.68-1.5-59.4-1.77-89.07-3.59-45.83-2.81-91.62-6.19-137.52-8-31.94-1.23-63.85-3.5-95.74-5.71-41.35-2.87-82.67-6.28-124-9.17-12.31-.86-24.66-.95-37-2-29.64-2.53-59.36-4.1-89.06-6.06-2.81-.19-6.44,0-6.42-4s3.61-4,6.45-3.83c24,1.5,48.06,2.6,72,4.87,12.94,1.23,25.91,1.5,38.84,2.47q67.25,5,134.6,8.68c30,1.59,60,3.75,90,5.58,46.78,2.86,93.55,5.8,140.37,8,26.58,1.23,53.16,2.35,79.74,3.57,43.08,2,86.19,2.88,129.29,4.28,76.84,2.5,153.66,1.16,230.48.74,20.23-.11,40.56-.61,60.84-1.26,43.1-1.37,86.21-2.35,129.29-4.11,35.75-1.47,71.47-3.68,107.19-5.84,14.84-.9,29.62-2.59,44.45-3.72,2.89-.22,7.39-1.12,7.24,3.5-.11,3.76-4.2,4.15-7.48,4.29-29.74,1.34-59.33,4.67-89.07,6.23-49.37,2.57-98.76,4.29-148.15,6.11-35.56,1.32-71.13-.37-106.58,1.83C1467.34,569.93,1430.55,567.9,1405.07,568.92Z"/><path class="cls-77" d="M1113.66,411.46h-49.47c-4.66,0-9.82-.29-9.49-6.54.3-5.76,5.53-5.18,9.62-5.19q48.51,0,97,0c4.29,0,9.84-.93,9.76,5.93s-5.57,5.74-9.89,5.76C1145.38,411.49,1129.52,411.46,1113.66,411.46Z"/><path class="cls-78" d="M1675.27,459.64c-10.77,0-21.55.17-32.32-.09-3.93-.1-9.15.13-9.07-5.93.07-5.55,4.51-6.32,8.91-6.32q32.32,0,64.64,0c4.27,0,8.87.45,9,6.17.14,6-4.71,6.08-8.85,6.14-10.77.13-21.54,0-32.32,0Z"/><path class="cls-79" d="M1057.7,446.93c10.79,0,21.58,0,32.36,0,4,0,8.28.35,8.44,5.52.17,5.79-4.43,6.28-8.75,6.27-21.89-.07-43.78-.21-65.66-.29-4.06,0-8.41-.61-8.54-5.52-.15-5.51,4.48-6.32,8.86-6.34,11.09,0,22.19,0,33.29,0Z"/><path class="cls-79" d="M1368.43,458.73H1335.1c-4,0-8.16-.28-8.22-5.66s4.09-6.05,8-6.06q32.86-.13,65.71,0c4.28,0,8.9.69,8.71,6.48-.19,5.41-4.66,5.24-8.54,5.24Q1384.61,458.75,1368.43,458.73Z"/><path class="cls-79" d="M1482.12,509h-30.35c-4.1,0-8-.81-8.12-5.91s3.79-5.83,8-5.82q30.84.1,61.66,0c4.15,0,8.06.6,8.14,5.75s-3.91,6-8,6Q1497.77,509.05,1482.12,509Z"/><path class="cls-79" d="M1285.54,411.44c-9.82,0-19.63,0-29.45,0-3.83,0-7.13-.74-7.26-5.54s2.9-6.12,6.83-6.12q30.39-.06,60.79,0c3.48,0,6.54,1.45,6.48,5.47-.07,4.23-2.89,6.15-7,6.14Z"/><path class="cls-79" d="M1061.76,508.7c-9.16,0-18.33,0-27.49,0-4,0-8.07-.27-8.34-5.52s3.59-6.17,7.71-6.18q28.44,0,56.89,0c4.09,0,8,.9,7.89,6.1s-4.14,5.63-8.21,5.61C1080.73,508.66,1071.25,508.7,1061.76,508.7Z"/><path class="cls-80" d="M1407,411.77c-8.57,0-17.14,0-25.72,0-3.85,0-7.35-1.27-7.51-5.66-.19-5.15,3.63-6.08,7.86-6.07q25.24.06,50.49,0c3.9,0,7.26.91,7.42,5.5.17,5.21-3.59,6.24-7.77,6.25Q1419.39,411.8,1407,411.77Z"/><path class="cls-81" d="M1221.28,458.71c-7.3,0-14.6,0-21.9,0-3.63,0-6.56-1.54-6.84-5.28-.32-4.35,2.73-6.38,6.72-6.41q21.9-.16,43.8,0c3.86,0,7.22,1.61,7.34,5.93.13,4.55-3.4,5.75-7.22,5.78C1235.88,458.75,1228.58,458.71,1221.28,458.71Z"/><path class="cls-81" d="M1222.47,508.9c-6.66,0-13.33.07-20,0-3.64-.06-6.29-1.92-6.23-5.8s2.51-5.73,6.29-5.72q20.48,0,41,0c3.64,0,6.5,1.71,6.72,5.41.26,4.34-2.68,6.23-6.78,6.23h-21Z"/><path class="cls-82" d="M1750.1,504.32c.21,3.54-1,6-5.24,6.1-4.8.09-5.79-2.75-5.79-6.89,0-4.59,2.11-6.3,6.48-6.2C1750.39,497.45,1750.11,500.76,1750.1,504.32Z"/><path class="cls-83" d="M1389.54,503.65c.37,4-1.47,5.57-5.49,5.58-5.09,0-5.3-3.14-5.33-7,0-4.5,2.53-5.08,6.12-5.1C1389.51,497.11,1389.72,500.09,1389.54,503.65Z"/><path class="cls-84" d="M1138.6,508.78c-4.09.45-5.6-1.51-5.56-5.6,0-3.8.89-6.06,5.23-6.06,4.07,0,5.62,1.65,5.56,5.73C1143.77,506.6,1143,509.26,1138.6,508.78Z"/><path class="cls-83" d="M1300.77,497.25c4.28-.49,5.26,1.94,5.34,5.76.08,4.44-1.56,6.34-6,6.24s-4.87-2.86-4.85-6.36C1295.23,499,1296.61,496.77,1300.77,497.25Z"/><path class="cls-85" d="M1771.59,503.65c.11,3.61-.15,6.81-4.79,6.68-4.22-.12-5.19-2.84-5.2-6.53s.48-6.41,5-6.41S1771.76,500.19,1771.59,503.65Z"/><path class="cls-86" d="M1665.06,502.94c0,4.25,0,7.46-4.69,7.38s-5.56-3-5.55-7,1.27-5.92,5.46-5.88C1664.9,497.45,1665.19,500.36,1665.06,502.94Z"/><path class="cls-87" d="M1633.5,503.85c0-3.38.13-6.38,4.76-6.45,4.21-.06,5.4,2,5.4,5.86s-.65,7-5.45,7.06C1633.59,510.38,1633.45,507.23,1633.5,503.85Z"/><path class="cls-83" d="M1593.77,505c0-4.32-.26-7.59,4.58-7.61,4,0,5.62,1.72,5.65,5.72s-.77,7-5.46,7.15S1593.54,507.5,1593.77,505Z"/><path class="cls-87" d="M1600.35,448.11c4.25-.39,5,2.32,5,6s-.46,6.27-4.92,6.25-6.11-2.22-6-6.51C1594.61,450,1596.29,447.91,1600.35,448.11Z"/><path class="cls-88" d="M1622.32,448.1c4.19-.26,5.31,2.3,5.42,5.95.14,4.32-1.59,6.46-6,6.29s-4.79-3-4.8-6.47C1616.87,450,1618.24,447.78,1622.32,448.1Z"/><path class="cls-84" d="M1731.83,503.82c0,3.37,0,6.6-4.71,6.51-4.28-.08-5.15-2.81-5.11-6.42s.63-6.35,5-6.48C1731.73,497.3,1731.89,500.41,1731.83,503.82Z"/><path class="cls-89" d="M1301.88,454c-.06-3.54-.21-6.84,4.59-6.81,4,0,5.58,2,5.54,6,0,3.61-.64,6.39-4.94,6.65S1301.58,457.59,1301.88,454Z"/><path class="cls-83" d="M1458.17,453.94c0-3.52-.26-6.81,4.49-6.78,4.14,0,5.32,2.32,5.3,6.07,0,3.52-.62,6.34-4.86,6.57C1458.68,460,1457.92,457.3,1458.17,453.94Z"/><path class="cls-90" d="M1489.69,453.12c.26,3.95-.32,6.85-4.87,6.7-4.16-.14-5.26-2.57-5.26-6.37s1.06-6.2,5.27-6.31C1489.39,447,1490,449.83,1489.69,453.12Z"/><path class="cls-84" d="M1502.16,453.15c-.31-3.7.65-6.21,5-6s4.65,3.16,4.72,6.61c.07,3.84-1.19,6.11-5.3,6.08C1501.93,459.79,1502.07,456.48,1502.16,453.15Z"/><path class="cls-87" d="M1549.4,505.8c.16-4.92-.16-8.24,4.58-8.35s5.76,2.64,5.75,6.67c0,3.74-1.26,6.11-5.32,6.21C1550,510.44,1549.23,507.71,1549.4,505.8Z"/><path class="cls-91" d="M1709.75,504.12c.17,3.51-.74,5.91-4.64,5.86-4.6-.05-4.73-3.24-4.7-6.69,0-3.23.53-5.71,4.62-5.63C1709.69,497.75,1709.85,500.85,1709.75,504.12Z"/><path class="cls-88" d="M1527.48,447.17c5.86.31,5.93,3.52,5.94,6.95,0,4.14-2,6-5.87,5.54-4.48-.52-4.08-4.11-4.08-7.35C1523.47,448.64,1525.38,447.09,1527.48,447.17Z"/><path class="cls-92" d="M1174.22,447.22c4.25.21,4.72,3.13,4.74,6.61,0,3.89-1.57,6-5.49,5.92-4.37-.13-4.54-3.27-4.6-6.67C1168.81,449.24,1170.1,447,1174.22,447.22Z"/><path class="cls-93" d="M1429.32,497.38c5.28-.2,4.17,3.65,4.37,6.69.24,3.74-1.51,5.08-5.08,5-4.89-.16-4.18-3.67-4.32-6.81C1424.13,498.46,1426,497,1429.32,497.38Z"/><path class="cls-94" d="M1411.35,503.93c.27,3.55-1.14,5.25-4.81,5.22-4.47,0-4.77-2.86-4.87-6.34-.11-4,1.45-5.71,5.5-5.59C1412.17,497.37,1411.17,500.94,1411.35,503.93Z"/><path class="cls-95" d="M1339.6,497.33c4.52-.58,5.49,2,5.34,5.79-.12,3-.07,5.81-4.22,6-3.94.18-5.92-1.26-5.78-5.46C1335.05,500.28,1334.88,496.88,1339.6,497.33Z"/><path class="cls-96" d="M1327.26,502.72c.19,3.81-.38,6.24-4.43,6.4-4.57.19-5.17-2.43-5.1-6.13.06-3.19.29-5.7,4.45-5.76C1326.58,497.16,1327.79,499.35,1327.26,502.72Z"/><path class="cls-97" d="M1273.48,502.61c-.53-4.15,1.46-5.55,5.5-5.37s4.45,2.61,4.52,5.82c.09,3.83-1,6.05-5.31,6.08C1273.45,509.18,1273.29,506.21,1273.48,502.61Z"/><path class="cls-98" d="M1187.88,503.28c.33,4-1.25,5.9-5.42,5.86-4.84-.05-4.52-3.3-4.63-6.6-.11-3.53,1.11-5.29,4.89-5.33C1187.08,497.16,1188.21,499.44,1187.88,503.28Z"/><path class="cls-98" d="M1235.58,405.36c.33,4.12-.4,6.68-4.86,6.53s-4.64-3.09-4.69-6.48.85-5.38,4.66-5.46C1235,399.85,1236.25,401.92,1235.58,405.36Z"/><path class="cls-99" d="M1727.35,453.63c-.18-3.15.56-5.46,4.47-5.52,4.27-.07,5.21,2.34,5.23,6.05s-.88,6.14-5.16,6.1C1727.21,460.21,1727.25,457.06,1727.35,453.63Z"/><path class="cls-100" d="M1776.62,448.18c5,0,4.53,3.55,4.64,6.76.13,3.57-1.41,5.3-5,5.31-4.42,0-5-2.73-5-6.36C1771.21,449.91,1772.68,447.78,1776.62,448.18Z"/><path class="cls-101" d="M1793.78,454c-.25-3.72.89-6.08,5.16-5.91,4.63.18,4.42,3.4,4.49,6.68s-1,5.45-4.72,5.48C1794.37,460.31,1793.52,457.68,1793.78,454Z"/><path class="cls-98" d="M1010.61,508.67c-4.36.57-5.66-1.67-5.62-5.65,0-3.74.87-6.18,5.25-6.13,3.77,0,5,1.89,4.87,5.38C1015,505.51,1015.53,509.17,1010.61,508.67Z"/><path class="cls-102" d="M1218.37,405.17c.3,4.23-.62,6.71-5,6.73-4.61,0-4.91-2.82-4.89-6.34,0-3.23.46-5.64,4.54-5.6S1219.08,401.35,1218.37,405.17Z"/><path class="cls-103" d="M1111.14,502.79c-.36-3.92,1-6,5.27-5.9,4.61.15,4.73,3.13,4.78,6.58s-1.28,5.24-5,5.34C1111.81,508.94,1110.77,506.59,1111.14,502.79Z"/><path class="cls-104" d="M1165.47,503c.27,3.78-.86,6.15-5.12,6.12-4.57,0-4.73-3-4.76-6.43s.74-5.47,4.62-5.54C1164.4,497.12,1165.8,499.18,1165.47,503Z"/><path class="cls-99" d="M1754.75,460.23c-5.59-.23-4.87-3.88-5-7-.1-3.55,1.42-5.36,5.09-5,4.47.38,4.57,3.67,4.51,7C1759.31,458.65,1757.5,460.43,1754.75,460.23Z"/><path class="cls-105" d="M1784.69,508.74a7.69,7.69,0,0,1-.49-10.25c1.75-2.39,5.41-1.85,7.77-.27,2.68,1.8,2.45,5.23,1.74,7.91-1.45,5.47-4.82,5.91-9,2.63a17.16,17.16,0,0,0,3.81-4.67C1786.28,505.46,1786.13,507.61,1784.69,508.74Z"/><path class="cls-91" d="M1620.66,501.06c0,1.94,0,3.88,0,5.82-2.08,3-5.07,4.42-7.59,1.47a7.22,7.22,0,0,1,0-8.77C1615.59,496.64,1618.58,498,1620.66,501.06Z"/><path class="cls-91" d="M1687.14,501.1v5.74c-2.08,3.33-5,4.57-7.54,1.23a7.26,7.26,0,0,1,0-8.21C1682.13,496.62,1685.07,497.74,1687.14,501.1Z"/><path class="cls-106" d="M1362.88,509.11c-4.33.48-5.6-1.78-5.55-5.66,0-3.45.23-6.25,4.78-6.33,4.13-.06,5.54,1.77,5.38,5.71C1367.36,506.18,1367.42,509.47,1362.88,509.11Z"/><path class="cls-107" d="M1620.66,501.06c-2.25-.77-4.65-3.2-6.78-.3a5.45,5.45,0,0,0,0,6.39c2.13,2.82,4.55.51,6.82-.27-1.43,6-6,4.41-8.36,2.19-2.84-2.67-2.2-7.86.23-10.34C1614.62,496.62,1619.51,494.69,1620.66,501.06Z"/><path class="cls-108" d="M1687.14,501.1c-2.18-1-4.52-3.19-6.61-.31a5.52,5.52,0,0,0,0,6.31c2.06,2.85,4.42.72,6.62-.26-1.29,6.33-5.94,4.35-8.16,2.14-2.63-2.63-2.67-7.77.12-10.31C1681.17,496.77,1686.19,494.43,1687.14,501.1Z"/><path class="cls-109" d="M1580.86,509c-3.18,2.29-6.84,3-9.07-.51a9.2,9.2,0,0,1,.07-9.28c2.32-3.41,6-2.54,9.15-.42-.22.36-.44.73-.65,1.1-4.85,2.55-5.54,5.22-.21,8.06C1580.39,508.29,1580.62,508.65,1580.86,509Z"/><path class="cls-109" d="M1581,498.79c2,3.43,2.31,6.84-.16,10.21l-.79-.78a7.16,7.16,0,0,1,.06-8.57Z"/><path class="cls-110" d="M1779.14,368.83c3,10-.07,15.32-9.65,15.43q-36.43.42-72.87,0c-11-.14-15-7.53-11.38-19.34,3.67,2.53,7.24,5,12.07,4.89C1724.59,369.34,1751.88,370.86,1779.14,368.83Z"/><path class="cls-111" d="M1462.72,372.59c1-14.73,1-14.73,14.71-14.17a191,191,0,0,1,34,1.33c11,1.44,22,.27,32.94-1,12.61.53,12.61.53,13.48,14.09-3.36,3-7.52,3.05-11.62,3.07q-36,.14-72,0C1470.14,375.86,1465.94,375.92,1462.72,372.59Z"/><path class="cls-112" d="M1666.36,367.15c3.23,9.7-.23,16.84-9.53,17q-36.64.64-73.29-.29c-6-.15-13.3-1.81-12-11.36,4-3.53,9-2.68,13.61-2.71q32.23-.17,64.49,0A45.54,45.54,0,0,0,1666.36,367.15Z"/><path class="cls-113" d="M1462.72,372.59l95.09.22c1.59,8.86-4.62,11-10.72,11.13-24.07.44-48.16.52-72.23-.07C1468.87,383.73,1461.59,382.1,1462.72,372.59Z"/><path class="cls-114" d="M1666.36,367.15c.25,4.74-2.24,5.81-6.48,5.78-29.46-.25-58.91-.31-88.36-.42,1.33-13.33,1.33-13.33,14.63-13.65a369.54,369.54,0,0,0,67,0C1659.08,359.12,1666.33,357.2,1666.36,367.15Z"/><path class="cls-114" d="M1779.14,368.83c-.74,4.51-4.13,4-7.27,4-26.46,0-52.93-.24-79.38.16-6.51.1-7.31-3.11-7.25-8.1,1-10.13,8.9-4.2,13.44-6.09a372.17,372.17,0,0,0,67,0C1772.64,358.72,1780.12,357.85,1779.14,368.83Z"/><path class="cls-115" d="M1765.69,358.86c-2.42,3.85-6.23,4-10.11,4-15.55,0-31.11-.1-46.66.05-4.07,0-7.48-.94-10.23-4,0-6.45,3.23-8.94,9.52-8.85,16,.25,32,.22,48.06,0C1762.49,349.92,1765.84,352.26,1765.69,358.86Z"/><path class="cls-116" d="M1653.17,358.82c-2.65,3.29-6.13,4.07-10.17,4-15.53-.13-31.07-.07-46.61,0-3.93,0-7.6-.54-10.24-4,0-7.12,3.89-9.31,10.33-9.24q23.13.28,46.27,0C1649.19,349.54,1653.1,351.75,1653.17,358.82Z"/><path class="cls-117" d="M1544.33,358.73c-2.64,3.33-6.2,4.14-10.18,4.06q-24.69-.53-49.37-.94c-3-.05-5.7-.49-7.35-3.42-.22-6.73,3.42-8.83,9.47-8.77,16,.14,32,.21,48.06,0C1541.4,349.53,1544.19,352.5,1544.33,358.73Z"/><path class="cls-56" d="M1210.85,333.92c10.39,0,20.78-.06,31.17.06,3,0,6.39-1.06,8.86,1.88-10.39,0-20.79.07-31.18,0C1216.68,335.78,1213.31,336.88,1210.85,333.92Z"/><path class="cls-118" d="M1281.5,234.91c-2.32,3.43-1.88,7.35-1.89,11.19,0,26,0,52.07-.13,78.11,0,2.58,1.92,6.06-1.93,7.81,0-27.79-.34-55.6.22-83.38.18-9-1.77-13.42-11.32-12-2.66.4-5.79.89-7.94-1.87C1266.19,231.85,1273.86,231.64,1281.5,234.91Z"/><path class="cls-119" d="M1281.5,234.91l-23-.12c.61-4.72,4.2-3.8,7.17-3.87,5.29-.11,10.58-.11,15.88-.17l5.21-.07h20l0,2.6c-6.32,3.27-13.42.59-20,1.74Z"/><path class="cls-91" d="M1784.69,508.74a4.26,4.26,0,0,1,.07-.95c.86-2.89-2.14-7.67,3.55-8.14,2.09-.17,3.35,1.65,3.46,3.78.27,5.28-3.62,5-7.06,5.33Z"/><path class="cls-91" d="M1365.07,502.52c0,2.61-.87,4-2.7,4-2.51-.11-2.84-2.19-2.63-4.21.19-1.76,1.15-3,3.13-2.64S1364.92,501.7,1365.07,502.52Z"/><path class="cls-91" d="M1580.12,499.65c0,2.86,0,5.72,0,8.57-3.51.54-7,1.16-7-4.3S1576.62,499.09,1580.12,499.65Z"/></g></g></g></svg>