<svg xmlns="http://www.w3.org/2000/svg" viewBox="0 0 227.68 305.38"><defs><style>.cls-1{fill:#fbf8e5;}.cls-2{fill:#eaae1f;}.cls-3{fill:#444;}.cls-4{fill:none;stroke:#444;stroke-miterlimit:10;stroke-width:4px;}</style></defs><title>資產 12</title><g id="圖層_2" data-name="圖層 2"><g id="圖層_1-2" data-name="圖層 1"><rect class="cls-1" x="90.89" y="22.77" width="20.98" height="17.26" transform="translate(-4.19 20.48) rotate(-11.3)"/><rect class="cls-2" x="129.46" y="145.76" width="21.24" height="159.09" transform="translate(-41.44 31.83) rotate(-11.3)"/><rect class="cls-2" x="87.03" y="1.87" width="21.16" height="21.23" transform="translate(-0.55 19.37) rotate(-11.3)"/><polygon class="cls-1" points="115.84 49.85 134.9 145.22 227.68 126.67 206.21 19.25 113.36 37.8 115.76 49.83 95.19 53.94 92.79 41.92 0 60.46 21.47 167.89 114.08 149.38 95.02 54.01 115.84 49.85"/><rect class="cls-1" x="93.79" y="39.74" width="20.98" height="12.26" transform="translate(-6.97 21.33) rotate(-11.3)"/><rect class="cls-1" x="104.34" y="50.99" width="21.24" height="97.25" transform="translate(-17.29 24.46) rotate(-11.3)"/><rect class="cls-3" x="89.08" y="66.67" width="13.79" height="26.35" transform="translate(-28.39 90.71) rotate(-44.75)"/><rect class="cls-3" x="117.3" y="95.18" width="13.79" height="26.26" transform="translate(-40.26 118.84) rotate(-44.75)"/><rect class="cls-3" x="84.33" y="100.65" width="24.42" height="13.79" transform="translate(-47.73 99.14) rotate(-44.75)"/><rect class="cls-3" x="110.91" y="72.42" width="28.19" height="13.79" transform="translate(-19.61 111) rotate(-44.75)"/><rect class="cls-3" x="103.21" y="87.2" width="13.79" height="13.79" transform="translate(-34.33 104.79) rotate(-44.75)"/><circle class="cls-4" cx="110.85" cy="93.48" r="45.22"/></g></g></svg>