<svg xmlns="http://www.w3.org/2000/svg" viewBox="0 0 68.55 59.9"><defs><style>.cls-1{fill:#f05c79;}</style></defs><title>資產 25</title><g id="圖層_2" data-name="圖層 2"><g id="圖層_1-2" data-name="圖層 1"><path class="cls-1" d="M17.14,0h19a2.84,2.84,0,0,0,.47.15A17.67,17.67,0,0,1,49,7.3,21.32,21.32,0,0,1,50.42,31a17.7,17.7,0,0,1-13.29,9.08c-2.17.29-4.4.12-6.6.23a2.2,2.2,0,0,0-1.31.54c-3,3.08-5.95,6.2-8.92,9.3a2.87,2.87,0,0,1-3.23.82,2.71,2.71,0,0,1-1.65-2.79c0-2.49,0-5,0-7.46,0-.47,0-.74-.62-.88C7.73,38.05,3.27,33.49,1,26.66a43.77,43.77,0,0,1-1-4.6V18.33c.11-.64.2-1.28.33-1.91C1.85,8.91,6,3.53,13.29.89A32.63,32.63,0,0,1,17.14,0ZM16.3,19.76a2.72,2.72,0,1,0-2.74,2.64A2.71,2.71,0,0,0,16.3,19.76Zm14.14,0a2.72,2.72,0,1,0-2.73,2.65A2.71,2.71,0,0,0,30.44,19.75Zm11.4,2.65a2.71,2.71,0,0,0,2.75-2.72A2.74,2.74,0,0,0,41.89,17a2.72,2.72,0,0,0,0,5.43Z"/><path class="cls-1" d="M54.47,59.9a18.74,18.74,0,0,1-2-1.56c-2-2-3.83-4-5.77-6a2.11,2.11,0,0,0-1.23-.53,45,45,0,0,1-6.06-.47,13.23,13.23,0,0,1-8.57-6.56c-.35-.57,0-1.14.75-1.17.93,0,1.86,0,2.8,0,9.53.24,18-6.14,21.12-15.68a28.6,28.6,0,0,0,.77-3c.2-1,.32-2.06.48-3.15a13.53,13.53,0,0,1,8.19,4.77,15.17,15.17,0,0,1,3.51,8,1.46,1.46,0,0,0,.14.38v3.39c0,.21-.12.42-.16.64a14.76,14.76,0,0,1-7.77,11.35,31.24,31.24,0,0,1-3.42,1.37c0,1.72-.05,3.5,0,5.27a2.64,2.64,0,0,1-1.9,2.92Z"/></g></g></svg>