<svg xmlns="http://www.w3.org/2000/svg" viewBox="0 0 2481.63 322.13"><defs><style>.cls-1{fill:#292521;}.cls-2{fill:#353936;}</style></defs><title>資產 13</title><g id="圖層_2" data-name="圖層 2"><g id="圖層_1-2" data-name="圖層 1"><path class="cls-1" d="M207.32,237.92,187,65.08S117.57,50.74,88.09,67.2L65.66,241.94S139.21,296.7,207.32,237.92Z"/><path class="cls-2" d="M2387,119.39s-142.49,18.22-432.72,79.28-1109.41,74-1415,1.72S63.08,104.32,51.19,96.2s1040.46,20.28,1040.46,20.28L2413.44,73Z"/><path class="cls-1" d="M912.53,251.49,833.1,73.81s-72.7,6.63-95.76,33.46l38.42,193.15S866.39,335.55,912.53,251.49Z"/><path class="cls-1" d="M2480.82,45.3s9-47.95-33.3-45.19S1926,32,1832.22,36.27,959.25,54.06,755,56.18,90.73,31.68,38.29,31.9,2.48,47.58,2.59,74.77s753.72,68.15,839.27,67.81,723.06-6.82,993.42-31.22S2453.34,75.19,2480.82,45.3Z"/><path class="cls-1" d="M1713.84,291.7,1692.75,98.2s-72.07-16.08-102.64,2.35l-23.2,195.6S1643.22,357.47,1713.84,291.7Z"/><path class="cls-1" d="M2315.92,217.49,2295.64,44.65s-69.47-14.35-98.95,2.12L2174.26,221.5S2247.81,276.27,2315.92,217.49Z"/></g></g></svg>