<svg xmlns="http://www.w3.org/2000/svg" viewBox="0 0 374.47 188.09"><defs><style>.cls-1{fill:#fff;stroke:#ff1b6a;stroke-miterlimit:10;stroke-width:3px;}.cls-2,.cls-3{fill:#ff1b6a;}.cls-3{font-size:41.85px;font-family:jf-jinxuan-fresh-Medium-B5pc-H, jf-jinxuan-fresh;}</style></defs><title>資產 48</title><g id="圖層_2" data-name="圖層 2"><g id="圖層_1-2" data-name="圖層 1"><path class="cls-1" d="M2.34,186.25h0c.4-.31,15.11-51.51,15-52C15,123.1-11.5,39.56,106.09,14.34c122.52-26.27,179.19-4.1,179.25-4.09,120,21,111,124,8,151-97.7,25.61-246.92,3-247,3l-44,22C1.09,186.25,1.36,187,2.34,186.25Z"/><path class="cls-2" d="M281.69,77.32c-2.17-15.42-27.06-6.37-26.81,4.15.37,14.86,27,38.09,27,38.09v-.5c2.79-2.48,26.36-23.87,26.7-37.86C308.8,70.62,283.61,61.53,281.69,77.32Z"/><text class="cls-3" transform="translate(82.04 105.76)">成為朋友</text></g></g></svg>