<svg id="圖層_1" data-name="圖層 1" xmlns="http://www.w3.org/2000/svg" xmlns:xlink="http://www.w3.org/1999/xlink" viewBox="0 0 602 285"><defs><style>.cls-1,.cls-6{fill:none;}.cls-2{clip-path:url(#clip-path);}.cls-3{fill:#929292;}.cls-4{opacity:0.8;}.cls-5{fill:#dbe4ea;}.cls-6{stroke:#dbe4ea;stroke-miterlimit:10;stroke-width:0.25px;}.cls-7{fill:#264458;}.cls-8{fill:#1d2c38;}.cls-9{font-size:29.66px;fill:#fcebb9;}.cls-10,.cls-9{font-family:AdobeFanHeitiStd-Bold, AdobeFanHeitiStd Bold-B5pc-H;font-weight:700;}.cls-10{font-size:15.53px;fill:#f2f4ba;}</style><clipPath id="clip-path"><path class="cls-1" d="M496.09,50.34,491,251.44c0,.29-3.8,28.21-23.08,28.54-21.12.36-313.87-3.06-316.64-3.09-.37,0-36.7-3.74-37.11-27.2-.43-25.36.58-212.15.59-214.08,0-.15-.14-14.27,9-22.59,4.28-3.91,10-5.94,17-6.06a44,44,0,0,1,5.41.26L463.18,6h.26l.24-.06c.12,0,12.22-2.83,21.53,5C493.57,18,497.23,31.18,496.09,50.34Z"/></clipPath></defs><title>act_v1</title><g class="cls-2"><path class="cls-3" d="M496.09,50.34,491,251.44c0,.29-3.8,28.21-23.08,28.54-21.12.36-313.87-3.06-316.64-3.09-.37,0-36.7-3.74-37.11-27.2-.43-25.36.58-212.15.59-214.08,0-.15-.14-14.27,9-22.59,4.28-3.91,10-5.94,17-6.06a44,44,0,0,1,5.41.26L463.18,6h.26l.24-.06c.12,0,12.22-2.83,21.53,5C493.57,18,497.23,31.18,496.09,50.34Z"/><g class="cls-4"><circle class="cls-5" cx="130.02" cy="21.75" r="3.01"/><circle class="cls-5" cx="144.93" cy="30.84" r="3.01"/><circle class="cls-5" cx="130.47" cy="30.48" r="3.01"/><circle class="cls-5" cx="144.47" cy="38.68" r="3.01"/><circle class="cls-5" cx="148.23" cy="47.05" r="3.01"/><circle class="cls-5" cx="238.43" cy="69.54" r="3.01"/><circle class="cls-5" cx="212.56" cy="43.66" r="3.01"/><circle class="cls-5" cx="253.4" cy="88.77" r="3.01"/><circle class="cls-5" cx="241.87" cy="102.32" r="3.01"/><circle class="cls-5" cx="167.41" cy="13.08" r="3.01"/><circle class="cls-5" cx="197.59" cy="16.01" r="3.01"/><circle class="cls-5" cx="189.92" cy="91.79" r="3.01"/><circle class="cls-5" cx="237.94" cy="28.1" r="3.01"/><circle class="cls-5" cx="248.17" cy="27.32" r="3.01"/><circle class="cls-5" cx="253.4" cy="16.38" r="3.01"/><circle class="cls-5" cx="233.47" cy="13.71" r="3.01"/><circle class="cls-5" cx="314.58" cy="0.26" r="3.01"/><circle class="cls-5" cx="304.53" cy="11.28" r="3.01"/><circle class="cls-5" cx="285.01" cy="32.71" r="3.01"/><circle class="cls-5" cx="276.34" cy="53.94" r="3.01"/><circle class="cls-5" cx="271.73" cy="66.07" r="3.01"/><circle class="cls-5" cx="280.41" cy="80.38" r="3.01"/><circle class="cls-5" cx="317.35" cy="91.19" r="3.01"/><circle class="cls-5" cx="352.23" cy="87.58" r="3.01"/><circle class="cls-5" cx="371.56" cy="90.26" r="3.01"/><circle class="cls-5" cx="385.89" cy="47.84" r="3.01"/><circle class="cls-5" cx="400.69" cy="32.52" r="3.01"/><circle class="cls-5" cx="428.03" cy="10.96" r="3.01"/><circle class="cls-5" cx="448.14" cy="23.87" r="3.01"/><circle class="cls-5" cx="440.83" cy="54.12" r="3.01"/><circle class="cls-5" cx="484.59" cy="41.31" r="3.01"/><circle class="cls-5" cx="480.07" cy="58.86" r="3.01"/><circle class="cls-5" cx="472.22" cy="22.85" r="3.01"/><circle class="cls-5" cx="369.74" cy="19.8" r="3.01"/><circle class="cls-5" cx="355.34" cy="23.06" r="3.01"/><circle class="cls-5" cx="340.96" cy="27.52" r="3.01"/><circle class="cls-5" cx="333.39" cy="42.72" r="3.01"/><circle class="cls-5" cx="321.91" cy="41.11" r="3.01"/><circle class="cls-5" cx="314.97" cy="58.1" r="3.01"/><circle class="cls-5" cx="328.88" cy="60.87" r="3.01"/><circle class="cls-5" cx="207.06" cy="105.23" r="3.01"/><circle class="cls-5" cx="311.29" cy="123.83" r="3.01"/><circle class="cls-5" cx="322.38" cy="173.04" r="3.01"/><circle class="cls-5" cx="300.67" cy="171.61" r="3.01"/><circle class="cls-5" cx="332.82" cy="114.42" r="3.01"/><circle class="cls-5" cx="347.9" cy="115.97" r="3.01"/><circle class="cls-5" cx="366.63" cy="118.66" r="3.01"/><circle class="cls-5" cx="375.25" cy="129.36" r="3.01"/><circle class="cls-5" cx="400.98" cy="119.27" r="3.01"/><circle class="cls-5" cx="397.06" cy="101.26" r="3.01"/><circle class="cls-5" cx="431.13" cy="85.61" r="3.01"/><circle class="cls-5" cx="454.43" cy="74.37" r="3.01"/><circle class="cls-5" cx="428.98" cy="100.71" r="3.01"/><circle class="cls-5" cx="448.51" cy="115.44" r="3.01"/><circle class="cls-5" cx="472.62" cy="116.23" r="3.01"/><circle class="cls-5" cx="479.72" cy="143.22" r="3.01"/><circle class="cls-5" cx="479.45" cy="162.5" r="3.01"/><circle class="cls-5" cx="482.02" cy="172.1" r="3.01"/><circle class="cls-5" cx="377.99" cy="148.59" r="3.01"/><circle class="cls-5" cx="401.59" cy="154.81" r="3.01"/><circle class="cls-5" cx="436.54" cy="154.81" r="3.01"/><circle class="cls-5" cx="398.6" cy="191.01" r="3.01"/><circle class="cls-5" cx="190.35" cy="114.55" r="3.01"/><circle class="cls-5" cx="164.58" cy="122.23" r="3.01"/><circle class="cls-5" cx="158.78" cy="98.72" r="3.05"/><circle class="cls-5" cx="132.59" cy="103.45" r="3.05"/><circle class="cls-5" cx="116.55" cy="94.56" r="3.05"/><circle class="cls-5" cx="129.64" cy="122.83" r="3.01"/><circle class="cls-5" cx="143.73" cy="136.44" r="3.01"/><circle class="cls-5" cx="166.48" cy="181.16" r="3.01"/><line class="cls-6" x1="130.91" y1="21.44" x2="144.93" y2="30.84"/><line class="cls-6" x1="129.86" y1="29.89" x2="143.87" y2="39.29"/><path class="cls-6" d="M211.84,44.12S238,68.83,238.43,69.54L221,89.43"/><path class="cls-6" d="M252.23,88.52c-2.11-1.69-13.46-17.68-13.46-17.68"/><polyline class="cls-6" points="253.03 90.54 241.88 102.32 221.85 89.4 206.62 88.6 189.92 91.79"/><polyline class="cls-6" points="248.17 27.32 238.53 27.48 236.72 26.91 234.07 13.1 253.99 15.77 265.01 -9.12 296.33 -9.66 309.51 -14.11 314.58 0.27 304.53 11.28 286.21 32.08 277.54 53.32 271.73 66.07 281.64 81.57 317.35 91.19 350.44 88.21 372.18 91.45"/><path class="cls-6" d="M368.53,19.22c-.6.61-12,3.82-12,3.82L342.16,27.5,334,40.9l-5.67,20.58L315,58.1l7.52-18.21,9.09,2.86"/><polyline class="cls-6" points="460.09 -16.71 428.65 12.15 448.14 23.87 472.84 24.04 492.01 17.69"/><line class="cls-6" x1="440.83" y1="54.12" x2="448.14" y2="23.87"/><polyline class="cls-6" points="484.59 41.31 480.07 58.86 491.73 71.31"/><polyline class="cls-6" points="311.29 123.83 332.82 114.42 347.9 115.97 366.63 118.66 456.23 73.73"/><path class="cls-6" d="M367.86,120.45s6.81,10.12,8,10.1S401,119.27,401,119.27l-3.87-15"/><polyline class="cls-6" points="430.85 86.82 429.56 99.5 449.13 116.63 472.63 116.23"/><polyline class="cls-6" points="399.19 189.79 378.57 147.37 401.59 154.81 436.54 154.81"/><path class="cls-6" d="M482,172.1c-.62-1.2-2.57-9.6-2.57-9.6l6.5-7.34L480.3,142l13-12.88"/><line class="cls-6" x1="301.27" y1="171.6" x2="322.38" y2="173.04"/><polyline class="cls-6" points="118.37 93.92 131.95 102.24 158.79 99.33 165.9 121.82 192.04 114.03 208.38 105.2"/><line class="cls-6" x1="129.63" y1="122.23" x2="132.33" y2="104.11"/><path class="cls-6" d="M143.72,135.84c.61,0,20.86-13.61,20.86-13.61"/></g><path class="cls-7" d="M494.81,189.8l1.62,93.52L113,289.94l-1.85-80.85S277.53,208.21,494.81,189.8Z"/><path class="cls-8" d="M111.08,204l1.47,84.87L496,282.28,495.07,231S328.85,213.57,111.08,204Z"/><path class="cls-8" d="M313,159.89c1.95-7.89,2.88-19.45-2.39-28.87a30.53,30.53,0,0,0-19.78-14.82c1.32-5.25,2.93-12.09,3.22-15.2.49-5.39,1.43-9.48-1.37-11.47s-5-1.08-5.63.1-3.49,21.21-3.44,23.22a20.85,20.85,0,0,1-.2,2.62c-1.61,0-3.28.09-5,.25a21.59,21.59,0,0,1-.31-2.78c0-2-3.6-21.93-4.24-23.09s-2.91-2-5.64.1-1.64,6.14-1,11.51c.39,3.17,2.32,10.19,3.84,15.43a52.15,52.15,0,0,0-8.45,2.64c-7.79,3.24-15,15.1-15.14,20.83s-3.42,21.3,10.06,32.42a22.06,22.06,0,0,0,7.07,4.57c-2.05,3.75-6,10.92-7.18,13.37-1.69,3.38-5,9.47-5.71,14.72s-.47,6.34.12,7.06,2.37,2.21,3.46,2.12,2-1.42,2.36-2.29.69-1.91.69-1.91a5.11,5.11,0,0,0,1.37.58c.34,0,1.31.08,1.59-.8a1.37,1.37,0,0,0-.52-1.74,3.49,3.49,0,0,1-1-.72c-.17-.21.08-.71.34-1.21s1.86-3.07,1.86-3.07.29,0,.37.51a28.75,28.75,0,0,0,2.08,4.48c.43.55.74.57.75,1.08s-.56,13.71-.4,15-.25.93-.82,1.21a8.64,8.64,0,0,0-3.86,4.36c-1.14,2.76,2.72,3,3,3.1s8.54.19,9.65-.17,3.73-1.3,4.06-3.44,1.1-13.64,1.1-13.64-.05-.62.55-.61,7.36-.2,7.36-.2a.53.53,0,0,1,.41.45c0,.36,1.26,13.21,1.37,13.64a4.91,4.91,0,0,0,3.37,3.15c2.47.73,10.68.15,10.68.15s2.55-.75,2.56-2.1a3.61,3.61,0,0,0-1-2.89,24,24,0,0,0-3.65-2.76,2.84,2.84,0,0,1-.13-1.16c0-.86-.79-15.23-.79-15.23s.78-1.29,1.22-2.22a17.43,17.43,0,0,0,1.32-3.56c0-.53.37-.46.47-.22s2.31,3.47,2.52,3.68.53.43.3.67-1.56,1.21-1.61,1.74c0,0-.23,1.48,1.21,1.49s1.48-.63,1.48-.63.27,0,.37.52,1.61,3.52,2.58,3.69,3.56-.94,4.05-2.45a13.32,13.32,0,0,0,.06-5.72c-.35-1.35-4.21-13.13-8.31-19a57.31,57.31,0,0,1-5.72-10,7.18,7.18,0,0,0,.87-.47C306.49,171.74,311.05,167.78,313,159.89Z"/><path class="cls-8" d="M382.88,130.36c-2.8-2.39-11.48-10.58-13.66-9.11a29.4,29.4,0,0,0-9-2.81c-7.52-1-17.62.45-25.35,3.55-1.93-2-10.73,6.88-13.52,9.43-3.93,3.59-13.81,26.18-8.74,33.41,1.61,2.29,4.23-.25,7.07-4.78a27.67,27.67,0,0,0,9.62,15.39,22,22,0,0,0,7.58,4.76c-1.53,2.79-6.59,12.06-8,14.91-1.69,3.38-5,9.47-5.71,14.72s-.48,6.34.12,7.06,2.37,2.22,3.46,2.12,2-1.41,2.36-2.29.69-1.91.69-1.91a5.41,5.41,0,0,0,1.37.59c.34,0,1.31.07,1.59-.81a1.36,1.36,0,0,0-.52-1.73,3.52,3.52,0,0,1-1-.73c-.17-.21.08-.71.34-1.2s1.86-3.07,1.86-3.07.29,0,.37.5a28.75,28.75,0,0,0,2.08,4.48c.43.55.74.57.75,1.08s-.56,13.71-.4,15-.25.93-.82,1.21a8.69,8.69,0,0,0-3.86,4.36c-1.14,2.76,2.72,3,3,3.1s8.54.19,9.65-.17,3.74-1.3,4.07-3.44,1.1-13.64,1.1-13.64-.05-.62.55-.61,7.36-.2,7.36-.2a.53.53,0,0,1,.41.45c0,.36,1.26,13.21,1.36,13.64a5,5,0,0,0,3.38,3.15c2.46.73,10.68.15,10.68.15s2.55-.75,2.55-2.1a3.6,3.6,0,0,0-1-2.89,24,24,0,0,0-3.65-2.76,2.79,2.79,0,0,1-.13-1.16c0-.85-.79-15.23-.79-15.23s.78-1.29,1.22-2.22a17,17,0,0,0,1.32-3.56c0-.53.37-.45.47-.22s2.31,3.47,2.51,3.69.54.42.31.66-1.56,1.21-1.61,1.74c0,0-.23,1.48,1.21,1.49s1.48-.63,1.48-.63.27,0,.37.53,1.61,3.52,2.58,3.68,3.56-.93,4-2.45a13.32,13.32,0,0,0,.06-5.72c-.35-1.35-4.21-13.13-8.31-18.95a64.4,64.4,0,0,1-6.23-11.06l-.13-.27a12.12,12.12,0,0,0,1.84-.89c6.93-4.19,11.49-8.15,13.43-16,.29-1.17.56-2.42.78-3.73,3,4.49,5.75,7,7.29,4.63C397.58,156.05,386.93,133.81,382.88,130.36Z"/><path class="cls-8" d="M242.33,157.29c2-7.89,3-19.46-2.44-28.87a30.82,30.82,0,0,0-3-4.31l.14-.06a5.45,5.45,0,0,0,4.13-4.46c.47-3-.69-7-4-7.55-1.92-1.2-4.59-.55-6.46.48a7.15,7.15,0,0,0-1.15.8,4.07,4.07,0,0,0-1.79,2.62,4.69,4.69,0,0,0-.18.61,31.11,31.11,0,0,0-10.33-3.36c-7.88-1-18.52.52-26.52,3.76l-.59.26a4,4,0,0,0-.2-.61A4.08,4.08,0,0,0,188,114a6.31,6.31,0,0,0-1.18-.77c-1.91-1-4.59-1.52-6.47-.25-3.31.67-4.34,4.74-3.76,7.68A5.42,5.42,0,0,0,180.9,125l.11,0c-3.42,4.45-5.75,9.54-5.86,12.72-.19,5.73-3.51,21.31,10.31,32.42a22.24,22.24,0,0,0,8.67,5c-1.88,3.43-6.29,11.52-7.61,14.16-1.68,3.37-5,9.47-5.71,14.72s-.47,6.34.12,7.06,2.37,2.21,3.46,2.12,2-1.42,2.36-2.3.7-1.9.7-1.9a5.16,5.16,0,0,0,1.36.58c.34,0,1.32.08,1.59-.8a1.36,1.36,0,0,0-.51-1.74,3.57,3.57,0,0,1-1-.72c-.17-.22.08-.71.34-1.21s1.86-3.07,1.86-3.07.29,0,.37.51a29.79,29.79,0,0,0,2.09,4.48c.42.55.74.57.74,1.08s-.56,13.71-.39,15-.25.93-.83,1.2a8.74,8.74,0,0,0-3.85,4.36c-1.14,2.76,2.72,3,3,3.1s8.54.2,9.65-.16,3.74-1.3,4.06-3.44,1.1-13.64,1.1-13.64,0-.62.55-.61,7.37-.2,7.37-.2a.53.53,0,0,1,.41.45c0,.36,1.26,13.21,1.36,13.64a4.88,4.88,0,0,0,3.38,3.14c2.46.74,10.67.16,10.67.16s2.56-.75,2.56-2.11a3.59,3.59,0,0,0-1-2.88,24,24,0,0,0-3.65-2.76,2.84,2.84,0,0,1-.13-1.16c0-.86-.79-15.23-.79-15.23s.78-1.29,1.23-2.22a18.71,18.71,0,0,0,1.32-3.56c0-.54.37-.46.46-.22s2.32,3.47,2.52,3.68.53.43.3.67-1.56,1.21-1.61,1.74c0,0-.22,1.48,1.21,1.49s1.48-.63,1.48-.63.28,0,.38.52,1.6,3.52,2.57,3.69,3.57-.94,4-2.46a13.28,13.28,0,0,0,.07-5.71c-.36-1.36-4.21-13.13-8.32-19A64.72,64.72,0,0,1,227.22,174v0a10.3,10.3,0,0,0,1.33-.66C235.65,169.14,240.33,165.18,242.33,157.29Z"/><path class="cls-8" d="M459.77,173.3c1.83-7.42,2.71-18.29-2.24-27.15a29.21,29.21,0,0,0-1.69-2.65c0-.28,0-.56,0-.8a12.35,12.35,0,0,0-.12-1.62,1.36,1.36,0,0,0,.08-.47,65.44,65.44,0,0,0-1.31-14.24c0-.05,0-.1,0-.15a1.58,1.58,0,0,0-1.12-1.57,3.14,3.14,0,0,0-2.88,1.07l-.15.15a13.48,13.48,0,0,0-1.42.83,8.82,8.82,0,0,0-1.85,1.86c-1.76,1.23-4.52,3.23-5.92,4.25a26.87,26.87,0,0,0-4.36-1A49.29,49.29,0,0,0,419,133.21c-1.88-1.28-6.21-4.21-7.42-4.89a8.35,8.35,0,0,0-.88-.69,13.49,13.49,0,0,0-1.45-.78l-.15-.14a3.12,3.12,0,0,0-2.92-1,1.57,1.57,0,0,0-1.06,1.6l0,.16a65.63,65.63,0,0,0-.83,14.28,1.26,1.26,0,0,0,.05.28c-3.52,4.38-6,9.65-6.08,12.87-.17,5.39-3.21,20,9.46,30.49a20.79,20.79,0,0,0,7.22,4.51c-1.93,3.53-5.59,10.26-6.74,12.56-1.59,3.17-4.71,8.9-5.37,13.84s-.45,6,.11,6.64,2.23,2.08,3.25,2,1.89-1.33,2.22-2.16S409,221,409,221a4.68,4.68,0,0,0,1.28.55c.32,0,1.23.07,1.49-.75a1.29,1.29,0,0,0-.48-1.64,3.24,3.24,0,0,1-.94-.68c-.15-.2.08-.67.33-1.13s1.74-2.89,1.74-2.89.28,0,.35.47a27.77,27.77,0,0,0,2,4.22c.4.52.7.53.71,1s-.53,12.9-.38,14.1-.23.88-.78,1.14a8.2,8.2,0,0,0-3.62,4.09c-1.07,2.6,2.56,2.83,2.83,2.92s8,.18,9.08-.16,3.51-1.22,3.82-3.23,1-12.83,1-12.83,0-.58.52-.57,6.93-.19,6.93-.19a.49.49,0,0,1,.38.42c0,.35,1.18,12.42,1.28,12.83a4.63,4.63,0,0,0,3.18,3c2.31.69,10,.15,10,.15s2.4-.71,2.4-2a3.4,3.4,0,0,0-.92-2.72,22.57,22.57,0,0,0-3.43-2.59,2.7,2.7,0,0,1-.12-1.1c0-.8-.74-14.32-.74-14.32s.73-1.21,1.15-2.08a17.11,17.11,0,0,0,1.24-3.35c0-.5.35-.43.43-.21s2.18,3.26,2.37,3.47.51.4.29.62-1.47,1.14-1.51,1.64c0,0-.22,1.39,1.13,1.4s1.4-.59,1.4-.59.25,0,.35.49,1.51,3.31,2.42,3.47,3.35-.88,3.81-2.31a12.49,12.49,0,0,0,.06-5.37c-.33-1.28-4-12.35-7.82-17.83a55.6,55.6,0,0,1-5.57-9.81l.44-.24C453.66,184.44,458,180.72,459.77,173.3Z"/><text class="cls-9" transform="translate(152.14 53.39) rotate(-0.99)">星空下的相遇</text><text class="cls-10" transform="translate(153.19 70.24) rotate(-0.99)"><tspan xml:space="preserve">2019.05.07  14:00PM</tspan></text></g></svg>