<svg id="圖層_1" data-name="圖層 1" xmlns="http://www.w3.org/2000/svg" xmlns:xlink="http://www.w3.org/1999/xlink" viewBox="0 0 726 546"><defs><style>.cls-1{fill:none;}.cls-2{clip-path:url(#clip-path);}.cls-3{fill:#f0e3d8;}.cls-27,.cls-4{opacity:0.8;}.cls-5{fill:#ef7696;}.cls-6{fill:#7389a1;stroke:#f0e3d8;stroke-miterlimit:10;stroke-width:5px;}.cls-7{fill:#faa9a8;}.cls-8{fill:#e4b5bd;}.cls-9{fill:#ddab58;}.cls-10{fill:#f7bd5f;}.cls-11{fill:#2b102e;}.cls-12{fill:#fff;}.cls-13{fill:#e19a9a;}.cls-14{fill:#e69dc2;}.cls-15{fill:#da4d55;}.cls-16{fill:#ece5da;}.cls-17{fill:#cdbdb4;}.cls-18{fill:#c7a77b;}.cls-19{fill:#7f665b;}.cls-20{fill:#d3bf94;}.cls-21{fill:#f5e563;}.cls-22{fill:#9c8f77;}.cls-23{fill:#d3b26d;}.cls-24{fill:#cea45b;}.cls-25{fill:#b73d3a;}.cls-26{fill:#f9de96;}.cls-27{fill:#a3815a;}.cls-28{fill:#c69c6d;}.cls-29{fill:#666;}.cls-30{fill:#999;}.cls-31{fill:#b05b57;}.cls-32{fill:#634f54;}.cls-33{fill:#9a3a36;}.cls-34{fill:#170700;}.cls-35{fill:#1d0307;}.cls-36{font-size:53.19px;fill:#6a554c;}.cls-36,.cls-37{font-family:AdobeFanHeitiStd-Bold, AdobeFanHeitiStd Bold-B5pc-H;font-weight:700;}.cls-37{font-size:27.84px;fill:#705a50;}.cls-38{fill:#d6b65e;}.cls-39{fill:#c89a42;}.cls-40{fill:#b88035;}.cls-41{fill:#ddb25a;}.cls-42{fill:#586242;}.cls-43{fill:#bba97c;}.cls-44{fill:#525740;}.cls-45{fill:#cba75c;}</style><clipPath id="clip-path"><path class="cls-1" d="M712.44,118.49,697.13,478.84c-.07.51-7.68,50.44-42.25,50.44C617,529.28,92.32,514.08,87.34,514c-.66-.07-65.67-7.85-65.67-49.91,0-45.48,7.6-380.3,7.68-383.76,0-.26.19-25.59,16.75-40.21,7.79-6.88,18.07-10.34,30.63-10.34a78.33,78.33,0,0,1,9.7.63l568.4,7.7h.45l.43-.1c.23-.06,22-4.69,38.45,9.58C708.93,60.36,715.08,84.18,712.44,118.49Z"/></clipPath></defs><title>act_v1</title><g class="cls-2"><path class="cls-3" d="M712.44,116.94,697.13,477.3c-.07.5-7.68,50.43-42.25,50.43-37.88,0-562.56-15.19-567.54-15.32-.66-.08-65.67-7.85-65.67-49.92,0-45.48,7.6-380.3,7.68-383.76,0-.25.19-25.58,16.75-40.21,7.79-6.87,18.07-10.34,30.63-10.34a78.33,78.33,0,0,1,9.7.63l568.4,7.71h.45l.43-.1c.23-.07,22-4.7,38.45,9.57C708.93,58.81,715.08,82.64,712.44,116.94Z"/><g class="cls-4"><rect class="cls-5" x="2.45" y="32.66" width="55.56" height="18.52" transform="translate(0.11 -0.08) rotate(0.15)"/><rect class="cls-5" x="64.18" y="31.29" width="66.36" height="20.06" transform="translate(0.11 -0.26) rotate(0.15)"/><rect class="cls-5" x="135.18" y="28.42" width="83.34" height="24.69" transform="translate(0.11 -0.47) rotate(0.15)"/><rect class="cls-5" x="224.69" y="30.19" width="78.71" height="24.69" transform="translate(0.11 -0.7) rotate(0.15)"/><rect class="cls-5" x="308.03" y="30.42" width="84.88" height="24.69" transform="translate(0.12 -0.93) rotate(0.15)"/><rect class="cls-5" x="397.54" y="30.66" width="87.97" height="24.69" transform="translate(0.12 -1.17) rotate(0.15)"/><rect class="cls-5" x="490.14" y="32.44" width="75.62" height="24.69" transform="translate(0.12 -1.4) rotate(0.15)"/><rect class="cls-5" x="571.94" y="32.73" width="132.73" height="24.69" transform="translate(0.12 -1.7) rotate(0.15)"/><rect class="cls-5" x="604.27" y="62.1" width="104.95" height="26.24" transform="translate(0.2 -1.75) rotate(0.15)"/><rect class="cls-5" x="443.77" y="60.2" width="155.88" height="21.61" transform="translate(0.19 -1.39) rotate(0.15)"/><rect class="cls-5" x="354.26" y="58.32" width="84.88" height="21.61" transform="translate(0.19 -1.06) rotate(0.15)"/><rect class="cls-5" x="258.57" y="58.08" width="91.06" height="21.61" transform="translate(0.18 -0.81) rotate(0.15)"/><rect class="cls-5" x="173.69" y="56.3" width="81.8" height="23.15" transform="translate(0.18 -0.57) rotate(0.15)"/><rect class="cls-5" x="13.18" y="54.43" width="157.42" height="26.24" transform="translate(0.18 -0.24) rotate(0.15)"/><rect class="cls-5" x="16.19" y="85.14" width="38.58" height="26.24" transform="translate(0.26 -0.09) rotate(0.15)"/><rect class="cls-5" x="59.41" y="83.75" width="67.91" height="26.24" transform="translate(0.26 -0.25) rotate(0.15)"/><rect class="cls-5" x="133.49" y="83.98" width="86.43" height="24.69" transform="translate(0.26 -0.47) rotate(0.15)"/><rect class="cls-5" x="224.55" y="85.99" width="260.83" height="20.06" transform="translate(0.26 -0.94) rotate(0.15)"/><rect class="cls-5" x="488.44" y="87.99" width="74.08" height="27.78" transform="translate(0.27 -1.4) rotate(0.15)"/><rect class="cls-5" x="567.15" y="89.74" width="72.54" height="27.78" transform="translate(0.28 -1.61) rotate(0.15)"/><rect class="cls-5" x="645.86" y="93.02" width="61.73" height="24.69" transform="translate(0.28 -1.8) rotate(0.15)"/><rect class="cls-5" x="605.65" y="120.76" width="106.49" height="26.24" transform="translate(0.36 -1.75) rotate(0.15)"/><rect class="cls-5" x="503.8" y="118.93" width="95.69" height="26.24" transform="translate(0.35 -1.47) rotate(0.15)"/><rect class="cls-5" x="571.62" y="148.49" width="138.9" height="32.41" transform="translate(0.44 -1.71) rotate(0.15)"/><rect class="cls-5" x="622.45" y="185.61" width="97.23" height="30.87" transform="translate(0.54 -1.79) rotate(0.15)"/><rect class="cls-5" x="583.88" y="183.88" width="35.5" height="21.61" transform="translate(0.52 -1.6) rotate(0.15)"/><rect class="cls-5" x="531.41" y="151.47" width="35.5" height="21.61" transform="translate(0.43 -1.46) rotate(0.15)"/><rect class="cls-5" x="-0.87" y="114.6" width="169.77" height="24.69" transform="translate(0.34 -0.22) rotate(0.15)"/><rect class="cls-5" x="173.55" y="111.78" width="27.78" height="15.43" transform="translate(0.32 -0.5) rotate(0.15)"/><rect class="cls-5" x="17.58" y="142.25" width="35.5" height="27.78" transform="translate(0.42 -0.09) rotate(0.15)"/><rect class="cls-5" x="56.16" y="142.39" width="66.36" height="27.78" transform="translate(0.42 -0.24) rotate(0.15)"/><rect class="cls-5" x="125.63" y="142.52" width="23.15" height="16.98" transform="translate(0.4 -0.36) rotate(0.15)"/><rect class="cls-5" x="119.47" y="173.39" width="23.15" height="22.2" transform="translate(0.49 -0.35) rotate(0.15)"/><rect class="cls-5" x="19.04" y="173.2" width="95.69" height="27.78" transform="translate(0.5 -0.18) rotate(0.15)"/><rect class="cls-5" x="62.26" y="205.59" width="57.11" height="25.48" transform="translate(0.58 -0.24) rotate(0.15)"/><rect class="cls-5" x="68.43" y="236.44" width="30.88" height="25.48" transform="translate(0.66 -0.22) rotate(0.15)"/><rect class="cls-5" x="69.98" y="267.31" width="26.25" height="25.48" transform="translate(0.75 -0.22) rotate(0.15)"/><rect class="cls-5" x="59.17" y="296.63" width="26.25" height="25.48" transform="translate(0.82 -0.19) rotate(0.15)"/><rect class="cls-5" x="15.87" y="203.98" width="40.13" height="26.24" transform="translate(0.58 -0.09) rotate(0.15)"/><rect class="cls-5" x="42.19" y="330.6" width="38.58" height="25.48" transform="translate(0.91 -0.16) rotate(0.15)"/><rect class="cls-5" x="-4.19" y="328.99" width="40.13" height="26.24" transform="translate(0.91 -0.04) rotate(0.15)"/><rect class="cls-5" x="63.8" y="364.55" width="15.44" height="25.48" transform="translate(1 -0.19) rotate(0.15)"/><rect class="cls-5" x="17.41" y="362.95" width="40.13" height="26.24" transform="translate(1 -0.1) rotate(0.15)"/><rect class="cls-5" x="11.17" y="234.85" width="52.47" height="20.06" transform="translate(0.65 -0.1) rotate(0.15)"/><rect class="cls-5" x="38.87" y="261.13" width="26.24" height="29.32" transform="translate(0.73 -0.14) rotate(0.15)"/><rect class="cls-5" x="11.09" y="262.59" width="23.15" height="26.24" transform="translate(0.73 -0.06) rotate(0.15)"/><rect class="cls-5" x="15.63" y="295.04" width="40.13" height="29.32" transform="translate(0.82 -0.09) rotate(0.15)"/><rect class="cls-5" x="630.09" y="219.56" width="78.71" height="24.69" transform="translate(0.62 -1.78) rotate(0.15)"/><rect class="cls-5" x="648.53" y="248.88" width="40.13" height="23.15" transform="translate(0.7 -1.78) rotate(0.15)"/><rect class="cls-5" x="696.37" y="248.98" width="18.52" height="24.69" transform="translate(0.7 -1.88) rotate(0.15)"/><rect class="cls-5" x="636.18" y="279.85" width="18.52" height="24.69" transform="translate(0.78 -1.72) rotate(0.15)"/><rect class="cls-5" x="640.81" y="312.26" width="18.52" height="24.69" transform="translate(0.87 -1.73) rotate(0.15)"/><rect class="cls-5" x="660.79" y="276.72" width="57.1" height="29.32" transform="translate(0.78 -1.83) rotate(0.15)"/><rect class="cls-5" x="666.88" y="312.23" width="57.1" height="24.69" transform="translate(0.87 -1.85) rotate(0.15)"/><rect class="cls-5" x="649.9" y="344.64" width="57.1" height="24.69" transform="translate(0.95 -1.8) rotate(0.15)"/><rect class="cls-5" x="648.36" y="377.05" width="57.1" height="24.69" transform="translate(1.04 -1.8) rotate(0.15)"/></g><path class="cls-6" d="M68.47,406.25S65.53,193.37,179,129.5s255-65.63,344.85,3.55S659.44,314,658,420.44Z"/><path class="cls-7" d="M267.19,393.26c2.23-.36,3.44.73,3.84,2.2a10.13,10.13,0,0,0,1.17,3.06c.42.56,1.81.55,3.12.05.86-.33,12.6-2.16,13.79-5.49,1.39-6.84-31.43-13.28-2.8-33.91,1.18-.86,19.57,7.29,27.72,23.16,2.91,5.69-1.12,25.24-9.16,32.26-16.69,14.55-19.31,12.28-32,9.89s-14.92-4.31-16.3-6.27-4-7.51-3.16-10.46,4.45-4.88,6.73-5.44,4.89-1,4.89-1-.84-3.09-.64-4S265,393.62,267.19,393.26Z"/><path class="cls-8" d="M480.28,493.26a6.84,6.84,0,0,1-.2-2.81c.13-2.06-.48-36.8-.48-36.8a4.68,4.68,0,0,0-3.23-3.69c-6.45-1.77-7.65-1.61-12.32,0-7.58,2.59-14.49,8-15.54,16.35,0,0,.45,3.52.45,3.56,0,.88,1.8,32,2,33a11.89,11.89,0,0,0,7.85,7.89c5.87,2,25.73,1.37,25.73,1.37s6.24-1.56,6.36-4.83-.2-4.65-2.08-7.06S480.28,493.26,480.28,493.26Z"/><path class="cls-8" d="M427.53,458.08c-4.76-6-11.06-8.71-15.33-8.8-9.17-.2-11,2.37-13.53,3.54a2.07,2.07,0,0,1,0,.46c0,1.23-2.64,33-2.36,36.13s-.69,2.21-2.11,2.82a21.09,21.09,0,0,0-9.7,10.15c-3,6.55,6.28,7.51,7,7.76s20.58,1.27,23.28.5,9.14-2.79,10.13-7.91,3.92-32.79,3.92-32.79S431,462.38,427.53,458.08Z"/><path class="cls-9" d="M479.57,455.06c7.72-10.21,9.11-19.65,11.86-49.22.49-5.22.34-5.3-.51-9.18-.75-3.47-5-10.36-6.07-12.83-3.18-7-4.57-10.68-4.57-10.68l-76.71-1.65-3.94,6.27c-3,4.71-3.69,6.05-5.12,8.35-.68,1.09-2.59,3.6-2.94,5.58-1.61,9.14-.91,17.67-1.24,24.66-1.29,27.49,7.66,37.49,8.35,38.27,0,.05,11,9.71,16.71,12.39,4.37,2.05,13.37,2.84,14.82,2.91s17.78.21,17.78.21,13.45-1.16,18.91-4A36.53,36.53,0,0,0,479.57,455.06Z"/><path class="cls-10" d="M515.14,266.28C504,245,484.44,232.7,466.57,228.08c3.84-12.72,8.59-29.32,9.6-36.9,1.75-13.16,4.54-23.09-2.34-28.23s-12.63-3.12-14.25-.3-10.87,51.59-10.93,56.52a51.58,51.58,0,0,1-.75,6.41c-4.08-.16-8.3-.11-12.58.13a58.1,58.1,0,0,1-.53-6.83c.15-4.94-7-54.06-8.48-56.95s-7.16-5.15-14.25-.31-4.74,14.88-3.55,28.1c.7,7.79,4.9,25.18,8.23,38.16a134.41,134.41,0,0,0-21.61,5.63c-20,7.18-39.25,35.53-40.26,49.54s-10.68,51.83,22.29,80.36c0,0,9.46,10.19,23,13.81s64.85,7.58,82.75-2,29.8-18.86,35.47-38S527.54,289.85,515.14,266.28Z"/><ellipse class="cls-11" cx="397.74" cy="305.26" rx="9.59" ry="9.89" transform="translate(84 696.35) rotate(-88.77)"/><ellipse class="cls-11" cx="480.44" cy="307.04" rx="9.59" ry="9.89" transform="translate(163.14 780.76) rotate(-88.77)"/><path class="cls-12" d="M405.65,324.86s-5.44,5.25-2.56,9.88,8.49,7.54,16.22,8.7,34.23,2.92,42.65-.47,13.36-11.25,9.9-16.69-20.91-12.38-32.54-12S411.75,318.63,405.65,324.86Z"/><path class="cls-11" d="M432.42,312.77s-.1,4.59,2.88,7.05,7.79,2.37,9.92.22,3.69-7.93,2.45-9.74S431.91,306.57,432.42,312.77Z"/><path class="cls-8" d="M279.3,478.42a6.84,6.84,0,0,1-.2-2.81c.13-2.07-.48-36.8-.48-36.8a4.7,4.7,0,0,0-3.23-3.7c-6.45-1.76-7.65-1.61-12.33,0-7.57,2.59-14.48,8-15.53,16.34,0,0,.45,3.53.45,3.56,0,.88,1.8,32,2,33a11.88,11.88,0,0,0,7.85,7.9c5.87,2,25.72,1.37,25.72,1.37s6.24-1.56,6.37-4.84-.21-4.64-2.09-7S279.3,478.42,279.3,478.42Z"/><path class="cls-8" d="M198.85,438.89c5.62-9.93,16.36-7.89,20.63-7.67,9.15.46,8.73,12.18,9.18,18.62a2.79,2.79,0,0,0-.07.46c-.06,1.23.26,33.12-.25,36.2s.53,2.26,1.9,3a21.13,21.13,0,0,1,8.95,10.83c2.53,6.74-6.8,7-7.52,7.23s-20.61-.22-23.26-1.17-8.91-3.44-9.52-8.63-1.56-33-1.56-33S196.14,443.68,198.85,438.89Z"/><path class="cls-13" d="M278.78,447.63c7.72-10.21,9.11-19.65,11.86-49.22.49-5.22.34-5.3-.51-9.18-.75-3.47-5-10.36-6.07-12.83-3.18-7-4.57-10.68-4.57-10.68l-76.71-1.65s-1.76,2.81-3.94,6.26c-3,4.72-3.69,6.06-5.12,8.36-.68,1.09-2.59,3.59-2.94,5.58-1.61,9.13-.91,17.67-1.24,24.66-1.29,27.48,7.66,37.49,8.35,38.27,0,.05,11,9.71,16.71,12.39,4.37,2.05,13.37,2.84,14.82,2.91s17.78.21,17.78.21,13.45-1.16,18.91-4A36.39,36.39,0,0,0,278.78,447.63Z"/><path class="cls-14" d="M236.78,427.48s5.91,7.76,15,9.38,19.7-1.47,23.1-8.56,6.48-28.12-5.91-36.7-24.67-3-27-.58-8.09,8.75-8.09,17.87S234.84,423.25,236.78,427.48Z"/><path class="cls-7" d="M164.79,254.48a76.2,76.2,0,0,1,49.68-35.85c-3.26-12.8-7.24-29.49-7.92-37-1.18-13.14-3.51-23.11,3.51-27.93s12.63-2.56,14.12.31,8.55,51.68,8.39,56.59a51.86,51.86,0,0,0,.48,6.39c4,0,8.21.24,12.44.66a54.67,54.67,0,0,0,.81-6.76c.06-4.9,9.21-53.37,10.82-56.17s7.3-4.81,14.12.3,4.05,15,2.31,28.05c-1,7.7-5.92,24.78-9.76,37.53a132.4,132.4,0,0,1,21.13,6.51c19.48,8,37.32,36.95,37.73,50.9s8.35,51.92-25.49,78.84c0,0-9.79,9.71-23.35,12.73S209.32,374.28,192,364s-28.69-20-33.48-39.23S151.51,277.35,164.79,254.48Z"/><ellipse class="cls-15" cx="280.01" cy="322.58" rx="4.3" ry="8.6" transform="matrix(0.02, -1, 1, 0.02, -48.52, 595.58)"/><ellipse class="cls-15" cx="207.51" cy="321.02" rx="4.3" ry="8.6" transform="translate(-117.9 521.57) rotate(-88.77)"/><path class="cls-12" d="M272.51,326s4.53,4.9,1.85,9-7.65,6.43-14.4,7.17-29.83,1.32-37-2-11.17-10.58-8-15.32,18.62-10.29,28.71-9.54S267.46,320.14,272.51,326Z"/><path class="cls-11" d="M249.74,314.12s-.09,4.11-2.77,6.2-6.85,1.82-8.62-.18-2.9-7.25-1.75-8.82S250.42,308.58,249.74,314.12Z"/><path class="cls-11" d="M224.36,329.18a1,1,0,0,1,1.21-.2c1.27.42,9,1.61,10.8.33,2.17-1.54,4.7-5.88,4.85-9.39,0,0,0-.06,0-.09s0-.06,0-.1l0-.1a.36.36,0,0,1,0-.09.41.41,0,0,1,.05-.09l0-.08.07-.08.06-.07.08-.06a.24.24,0,0,1,.08-.06l.08-.05.09-.05.1,0,.09,0h.34l.1,0,.09,0,.1,0,.09.05.08.05.08.07.07.06.06.08.06.08a.2.2,0,0,1,0,.08.41.41,0,0,1,.05.09l0,.1a.3.3,0,0,1,0,.1.31.31,0,0,1,0,.1.22.22,0,0,1,0,.08c0,3.52,2.34,8,4.44,9.6,1.74,1.35,9.52.49,10.8.13a1,1,0,0,1,1.12,1.71c-.45.41-4.35,1-7.9,1-2.2-.05-4.27-.37-5.29-1.16a15.43,15.43,0,0,1-4.3-6.48,15.36,15.36,0,0,1-4.58,6.29c-1,.75-3.13,1-5.34.93-3.54-.08-7.41-.86-7.85-1.29A1,1,0,0,1,224.36,329.18Z"/><path class="cls-16" d="M197,234.71s17.21,6.38,46.27-.51c0,0,31.87-3.07,33.86-6s-5.49-13.64-5.32-21.15,13.8-14.72,20-32.62,4.7-39-12.45-48.34-48.33,6.47-54.2,10.85-33.27,23.32-50.87,35-29.12,9.89-35.07,17.28S133,204,144.41,213.3s32.52,11.21,38.34,9.83,9.69-2.79,11.52,1.76S192.18,232.35,197,234.71Z"/><path class="cls-17" d="M150.45,201.41s42.09,14.42,46,13,21.45-11.56,35-12.77,30.86-.84,32.79-.8,5.88-4.38,9.79-7.3-13.64,7.22-13.52,1.21,9.9-11.81,10.12-22.32l.36-16.51s-12.08,23.77-16,25.19.71-33-3.05-37.62-12.21,29.78-14.1,28.24-5.49-13.64-5.59-9.14-2.18,12-2.18,12-5.59-9.14-5.68-4.63-.55,25.52-4.37,23.94-7.16-25.69-14.83-27.36-7.71-.17-6.14,16.39,7.35,16.69-.39,18-36.57-2.29-42.35-2.41S146.66,198.32,150.45,201.41Z"/><circle class="cls-12" cx="210.1" cy="297.11" r="17.75"/><circle class="cls-11" cx="210.1" cy="297.11" r="11.17"/><path class="cls-11" d="M183.73,278.86s1.29,5.67,4.13,5,27-9.3,29.16-11.37-3.32-9.24-3.32-9.24-29.2,12.78-29.92,13.47S183.73,278.86,183.73,278.86Z"/><circle class="cls-12" cx="276.23" cy="298.53" r="17.75"/><circle class="cls-11" cx="276.23" cy="298.53" r="11.17"/><path class="cls-11" d="M303.35,281.43s-1.53,5.61-4.33,4.85-26.58-10.45-28.65-12.61,3.72-9.09,3.72-9.09,28.62,14,29.31,14.74S303.35,281.43,303.35,281.43Z"/><rect class="cls-18" x="15.67" y="407.3" width="687.19" height="114.95" transform="translate(10.08 -7.62) rotate(1.23)"/><path class="cls-19" d="M188.81,394.47s4.09,42.12,31.08,57.24,85.14,10,78.69-53.62l-1.08-19.92S295,358.83,245.86,361.6,191.71,381.62,188.81,394.47Z"/><path class="cls-20" d="M190.54,395s19.32,13.73,50.21,8.66,50.72-13.25,54.79-19.26-.88-14.24-17.43-19.23-50-3-65.43,3.46S193.18,381,190.54,395Z"/><path class="cls-21" d="M193.53,393.11s40.74-20.49,66.09-19,32.13,4.94,32.71,6.41.27,5-6.36,7.94-45.41,17.25-71.79,11.39S194,396,193.53,393.11Z"/><path class="cls-22" d="M227.14,381.2a10.54,10.54,0,0,0-4.19,7.42c-.43,4.91,3.93,11.67,3.93,11.67s29.76-.22,33.76-5.53c0,0-5.85-14-14.09-16.82s-13.29-1.87-13.29-1.87.45,2.87-1.78,4.09A8.44,8.44,0,0,1,227.14,381.2Z"/><path class="cls-23" d="M240.1,378.79s10.68,7.31,13.25,10.37a38,38,0,0,1,4.36,6.75s2.17-.51,1.53-1.28S252.5,382.71,240.1,378.79Z"/><path class="cls-23" d="M237.1,380.65s13.07,12.48,13.65,14a5.27,5.27,0,0,1,.51,2.16l3.58-.39S244,382.68,237.1,380.65Z"/><path class="cls-23" d="M234.93,381.17c-.11-.69,15,14.77,14.93,15.47s-2.93,1.16-2.93,1.16S235.39,384,234.93,381.17Z"/><path class="cls-23" d="M233.53,381.05s9.82,17.14,10.52,17.21-4.27.33-4.27.33S232.64,383.09,233.53,381.05Z"/><path class="cls-23" d="M232.06,381.63l5.61,16.77-2.87.46S229.65,385,232.06,381.63Z"/><path class="cls-23" d="M229.89,382.15s2.1,16.46,2.8,16.52-2.87.46-2.87.46S226.84,384.71,229.89,382.15Z"/><path class="cls-23" d="M227.79,382l.62,17.05-1.4-.13S222.31,387.85,227.79,382Z"/><path class="cls-24" d="M252.93,377.8c-.7.05,33.27.09,32.9,4.3s-5.54,6.59-5.54,6.59,11-4.69,9.81-6.92S278.59,375.8,252.93,377.8Z"/><path class="cls-24" d="M252.81,379.2s28.8,2.53,27.15,5.22,4.21.37,3.63-1.1S262.89,377.25,252.81,379.2Z"/><path class="cls-24" d="M256.07,382.32c.7.06,21.2.45,20.89,4s-4.06,6-5.47,5.89,4.59-3.85,1.9-5.5S256.07,382.32,256.07,382.32Z"/><path class="cls-24" d="M260.68,386.26s7,.62,5.37,3.31-5.22,3.08-4.58,3.84,9.44-2.71,8.22-4.94S263,384.34,260.68,386.26Z"/><path class="cls-24" d="M221.18,392.71s-2.29,1.92-.31,3.51a22.05,22.05,0,0,1,2.63,2.35s-3.7,1.8-6.39.15S218.24,393.87,221.18,392.71Z"/><path class="cls-24" d="M221.36,390.6s-7.45,4.3-7.58,5.71a3.08,3.08,0,0,0,.52,2.16L208,397.22S213.57,390.62,221.36,390.6Z"/><path class="cls-24" d="M221.49,389.19s-16.14,6.38-16.2,7.08-5.56-1.2-5.56-1.2,12.7-8.09,17.67-7.65C218.8,387.54,221.49,389.19,221.49,389.19Z"/><path class="cls-25" d="M180.53,339.58l46.61,41.62s6.33.55,6.12-5.13l-44.77-46.41s-4.74-2.54-8.56.67S180.53,339.58,180.53,339.58Z"/><path class="cls-7" d="M206.12,354c-2.08.88-2.51,2.45-2.07,3.91a9.89,9.89,0,0,1,.64,3.21c-.05.7-1.09,7-1.84,8.2-2.71,4.31-5.38,2.39-3.54.63,4.32-4.14-2.05-6.78-6.85-9.32a10.66,10.66,0,0,0-5.61-1.53c-1.46-.09-11.56,19.4-10,37.17.57,6.37.41,13.42,11,15.05,21.88,3.4,23.57-13.6,30.88-25.43,6.74-10.92,9.55-14.06,9.67-16.45s-.66-8.46-2.92-10.53-6.37-1.75-8.58-1-4.69,1.73-4.69,1.73-.95-3.07-1.61-3.75S208.2,353.15,206.12,354Z"/><path class="cls-7" d="M314,382.33c-8.15-15.88-26.54-24-27.72-23.16-.18.12-.34.25-.52.38l.07,0a9.64,9.64,0,0,1,3.27,2.17,7,7,0,0,1,1,.45c9.58,5.42,13.18,24.9,1.8,30.3a7,7,0,0,1-4.05,2.06c-3.36,2.4-11.8,3.74-12.52,4-1.31.5-2.7.51-3.12-.05a10.13,10.13,0,0,1-1.17-3.06c-.4-1.47-1.61-2.56-3.84-2.2s-2.56,3.06-2.76,4,.64,4,.64,4-2.62.48-4.89,1-5.92,2.49-6.73,5.44,1.78,8.5,3.16,10.46,3.69,3.89,16.3,6.27,15.27,4.66,32-9.89C312.91,407.57,316.94,388,314,382.33Z"/><path class="cls-26" d="M380.7,430.66s-8.9-.19-21.52,13.64-1.13,20.43,7.56,30.5,43.7,6.58,49.65,16.58,56.84.52,65.13-2.83,28.41-14.91,26.54-23.41-41.13-30.51-43.77-35.51,1-15.49-8.56-15.7-61.67.79-70,4.14,3.3,5.71,1.86,9.21S380.7,430.66,380.7,430.66Z"/><rect class="cls-27" x="345.98" y="423.61" width="181.95" height="16.93" rx="8.46" ry="8.46" transform="translate(9.39 -9.29) rotate(1.23)"/><rect class="cls-28" x="346.19" y="420.96" width="181.95" height="16.93" rx="8.46" ry="8.46" transform="translate(9.33 -9.3) rotate(1.23)"/><path class="cls-9" d="M385,425.15c1.19-1.27.16-2.25-1.63-2.83a18.89,18.89,0,0,1-3.62-1.41c-.59-.38-.12-1.22,1-1.9.7-.45,3.33-2.28,5.32-3.37a152.85,152.85,0,0,0,14.72-13.35c6.27-6.51,10-20.08,2.06-25.36a54.55,54.55,0,0,0-5.61-2.56s-5.3,3.83-18,13.19c-15.44,11.36-26.91,19.66-30.5,27.56s-1.81,9.52.3,10.8,8.52,4.11,12.63,4.29a14.65,14.65,0,0,0,9.29-2.85c1.46-1.25,2.94-2.73,2.94-2.73a37.84,37.84,0,0,0,5.05,1.3C380.13,426,383.77,426.43,385,425.15Z"/><path class="cls-10" d="M385,423.74c1.19-1.27.16-2.25-1.63-2.83a18.89,18.89,0,0,1-3.62-1.41c-.59-.38-.12-1.22,1-1.9.7-.45,3.33-2.28,5.32-3.37a152.85,152.85,0,0,0,14.72-13.35c6.27-6.51,10-20.08,2.06-25.36a54.55,54.55,0,0,0-5.61-2.56s-5.3,3.83-18,13.19c-15.43,11.36-26.91,19.66-30.49,27.56s-1.82,9.52.29,10.8,8.52,4.11,12.63,4.29a14.71,14.71,0,0,0,9.29-2.85c1.46-1.25,2.94-2.73,2.94-2.73a37.84,37.84,0,0,0,5.05,1.3C380.16,424.61,383.8,425,385,423.74Z"/><path class="cls-9" d="M491,428.28c-1-1.35-.06-2.3,1.62-2.8a16.46,16.46,0,0,0,3.39-1.27c.56-.36.16-1.23-.81-2-.63-.49-3-2.47-4.8-3.67a150.77,150.77,0,0,1-13.09-14.26c-5.55-6.9-8.48-20.88-1-25.88a47.11,47.11,0,0,1,5.28-2.34s4.76,4.14,16.16,14.24c13.83,12.27,24.12,21.24,27.14,29.44s1.32,9.76-.68,11-8,3.79-11.82,3.78a12.93,12.93,0,0,1-8.47-3.33c-1.31-1.34-3.61-3.43-3.61-3.43,0,.46-2.54,1.57-3.72,1.6S492.09,429.63,491,428.28Z"/><path class="cls-10" d="M490.36,426.86c-1.05-1.36-.06-2.3,1.61-2.81a16.77,16.77,0,0,0,3.4-1.26c.56-.36.16-1.24-.82-2-.63-.49-3-2.47-4.79-3.68a150.83,150.83,0,0,1-13.1-14.25c-5.55-6.91-8.48-20.88-1-25.88a45.29,45.29,0,0,1,5.28-2.34s4.75,4.13,16.15,14.24c13.84,12.26,24.12,21.24,27.14,29.43s1.33,9.77-.67,11-8,3.79-11.83,3.78a12.93,12.93,0,0,1-8.47-3.33c-1.3-1.34-3.61-3.43-3.61-3.43,0,.47-2.53,1.57-3.72,1.61S491.41,428.21,490.36,426.86Z"/><path class="cls-29" d="M511.31,466.92s42.72,47,49.12,49.48,83.73-26,114.75-34.84-23-63.22-29.47-63.36S534.07,442,523.2,447.33,505.71,460.45,511.31,466.92Z"/><path class="cls-30" d="M513.44,464.74s42.13,41.82,48.44,44.07,82.31-22.92,112.81-30.73-22.77-56.22-29.12-56.35-109.78,20.92-120.46,25.62S507.93,459,513.44,464.74Z"/><path class="cls-26" d="M628.56,436.93s4.47-9.51,6.59-8.4,4.08,8.63,4.08,8.63,8.58-2,9.57,1.27-6.52,5.73-6.52,5.73a15,15,0,0,1,3.08,5.4c1,3.22-7.43-1.76-7.43-1.76s-7,4.65-7.57,4.64-1-4.82.67-6.39-10.65-.76-10.62-2.36S628.56,436.93,628.56,436.93Z"/><path class="cls-26" d="M650.68,457.86s4.48-9.51,6.59-8.4,4.08,8.63,4.08,8.63,8.58-1.95,9.58,1.27-6.53,5.73-6.53,5.73a15.05,15.05,0,0,1,3.09,5.4c1,3.22-7.44-1.76-7.44-1.76s-7,4.65-7.56,4.64-1-4.82.67-6.39-10.66-.76-10.62-2.36S650.68,457.86,650.68,457.86Z"/><path class="cls-26" d="M600.93,442.68s4.47-9.51,6.58-8.39,4.08,8.62,4.08,8.62,8.58-2,9.58,1.27-6.53,5.73-6.53,5.73a15.05,15.05,0,0,1,3.09,5.4c1,3.23-7.43-1.76-7.43-1.76s-7,4.65-7.57,4.64-1-4.82.67-6.39-10.66-.76-10.62-2.36S600.93,442.68,600.93,442.68Z"/><path class="cls-26" d="M618.67,470.57s4.47-9.51,6.58-8.39,4.08,8.62,4.08,8.62,8.58-1.95,9.58,1.28-6.52,5.72-6.52,5.72a15.1,15.1,0,0,1,3.08,5.41c1,3.22-7.43-1.76-7.43-1.76s-7,4.65-7.57,4.63-1-4.82.67-6.38-10.66-.77-10.62-2.37S618.67,470.57,618.67,470.57Z"/><path class="cls-26" d="M570.49,447.67s4.47-9.51,6.58-8.4,4.08,8.63,4.08,8.63,8.58-1.95,9.58,1.27-6.52,5.73-6.52,5.73a15.12,15.12,0,0,1,3.08,5.4c1,3.23-7.43-1.76-7.43-1.76s-7,4.65-7.57,4.64-1-4.82.67-6.39-10.66-.76-10.62-2.36S570.49,447.67,570.49,447.67Z"/><path class="cls-26" d="M584.69,476.19s4.47-9.51,6.58-8.39,4.08,8.62,4.08,8.62,8.58-1.95,9.58,1.27-6.52,5.73-6.52,5.73a15.12,15.12,0,0,1,3.08,5.4c1,3.23-7.43-1.76-7.43-1.76s-7,4.65-7.57,4.64-1-4.82.67-6.39-10.66-.76-10.62-2.36S584.69,476.19,584.69,476.19Z"/><path class="cls-26" d="M540.65,457.61s4.47-9.51,6.58-8.4,4.08,8.63,4.08,8.63,8.58-1.95,9.58,1.27-6.53,5.73-6.53,5.73a15.05,15.05,0,0,1,3.09,5.4c1,3.22-7.43-1.76-7.43-1.76s-7,4.65-7.57,4.64-1-4.82.67-6.39-10.66-.76-10.62-2.36S540.65,457.61,540.65,457.61Z"/><path class="cls-16" d="M407.52,229.68s57.45,21.87,73.34,4.58l2.49-7s64.55-1.68,67.3-34.39-13.4-43.3-33.83-45.78-37.15,13.53-53.49,11.13-63.37-5.45-75.69-3.67-22.74,9.75-21,24.12,23.86,33.29,32,35.51a65.52,65.52,0,0,0,14.29,2.35Z"/><path class="cls-17" d="M382.88,185.12l22.21,14.81s-6.18,1.92-4.18,4,14.2,6.45,14.24,4.4,10.59-16.16,20.87-18,34.67,6.89,38.63,13.12,8,8.36,10.1,6.36l8.37-8c2.09-2,2.26-10.19-6-8.32S475,189.15,473,187.05s-6-8.32-8.05-6.31,4,6.23-8.28,3.92-22.47-2.54-26.66,1.47-8.36,8-16.55,7.84S383,181,382.88,185.12Z"/><path class="cls-31" d="M565.4,177.07a39.17,39.17,0,0,0-13.89,21.61c-3.09,13.89,3.08,38.58,10.8,46.3s26.24,20.06,47.84,17,44.76-26.23,44.76-44.75-3.09-40.13-37-54C617.87,163.18,585.46,155.46,565.4,177.07Z"/><path class="cls-32" d="M579.29,183.24s-18.52,15.44-18.52,30.87,10,30.09,19.67,34.34,45.15,8.87,55.95-14.28,0-41.67-7.72-50.93S594.72,172.44,579.29,183.24Z"/><path class="cls-33" d="M588.55,163.18s7.71-66.36,3.08-83.34-9.26-41.67-6.17-46.3,12.35-7.72,13.89,3.08-3.09,88,3.09,105,6.94,20.84,6.94,20.84Z"/><path class="cls-34" d="M594.72,44.34s-4.63,0-4.63-3.09,3.09-3.08,4.63-1.54S594.72,44.34,594.72,44.34Z"/><path class="cls-35" d="M675,153.92v-54l1.55-3.08c1.54-3.09,1.54-54,0-61.74s-6.18-4.63-7.72-1.54-3.09,17-3.09,35.49,3.09,29.33,3.09,29.33l-1.54,55.56h-24.7v49.39c0,4.63,4.63,6.17,4.63,6.17S688.86,211,692,211s4.63-6.17,4.63-6.17V153.92Zm-6.75,5.85c2.9,0,2.9,4.5,0,4.5S665.32,159.77,668.22,159.77Zm.19,22.83c-2.9,0-2.89-4.5,0-4.5S671.31,182.6,668.41,182.6Zm-9.06-23.79c2.9,0,2.89,4.5,0,4.5S656.45,158.81,659.35,158.81Zm0,33.82c-2.91,0-2.9-4.5,0-4.5S662.24,192.63,659.35,192.63Zm-9.26-33.82c2.9,0,2.89,4.5,0,4.5S647.19,158.81,650.09,158.81Zm.38,24.18c-2.9,0-2.9-4.51,0-4.51S653.37,183,650.47,183Zm-.77-15.5c2.9,0,2.9,4.5,0,4.5S646.8,167.49,649.7,167.49Zm-.19,19.29c2.9,0,2.9,4.5,0,4.5S646.61,186.78,649.51,186.78Zm.58,8.1c2.9,0,2.89,4.5,0,4.5S647.19,194.88,650.09,194.88Zm1,12c-2.9,0-2.9-4.51,0-4.51S654,206.91,651.05,206.91Zm6.56-38.65c2.9,0,2.9,4.5,0,4.5S654.71,168.26,657.61,168.26Zm.77,10.22c2.9,0,2.9,4.51,0,4.51S655.48,178.48,658.38,178.48Zm.77,17.17c2.91,0,2.9,4.51,0,4.51S656.26,195.65,659.15,195.65Zm.58,11.07c-2.9,0-2.9-4.51,0-4.51S662.63,206.72,659.73,206.72Zm8.11-37.88c2.9,0,2.89,4.5,0,4.5S664.94,168.84,667.84,168.84Zm.57,18.52c2.91,0,2.9,4.5,0,4.5S665.52,187.36,668.41,187.36Zm.2,7.33c2.9,0,2.9,4.5,0,4.5S665.71,194.69,668.61,194.69Zm.19,11.45c-2.9,0-2.9-4.51,0-4.51S671.7,206.14,668.8,206.14ZM688.09,160c2.9,0,2.9,4.51,0,4.51S685.19,160,688.09,160Zm-10,22.64c-2.9,0-2.9-4.5,0-4.5S681,182.6,678.06,182.6Zm-.19,9.26c-2.91,0-2.9-4.5,0-4.5S680.77,191.86,677.87,191.86Zm-.39-31.7c2.9,0,2.9,4.5,0,4.5S674.58,160.16,677.48,160.16Zm-.19,8.87c2.9,0,2.9,4.5,0,4.5S674.39,169,677.29,169Zm.58,26.24c2.9,0,2.9,4.5,0,4.5S675,195.27,677.87,195.27Zm.38,11.06c-2.9,0-2.9-4.5,0-4.5S681.15,206.33,678.25,206.33Zm9.46-37.3c2.9,0,2.89,4.5,0,4.5S684.81,169,687.71,169Zm.38,26c2.9,0,2.9,4.51,0,4.51S685.19,195.07,688.09,195.07Zm.19,11.65c-2.9,0-2.89-4.51,0-4.51S691.18,206.72,688.28,206.72Zm0-15.25c-2.9,0-2.89-4.5,0-4.5S691.18,191.47,688.28,191.47Zm0-8.48c-2.9,0-2.89-4.51,0-4.51S691.18,183,688.28,183Z"/><text class="cls-36" transform="translate(69.54 90.16)">一起做甜點</text><text class="cls-37" transform="translate(70.89 120.41)"><tspan xml:space="preserve">2019.04.07  10:19PM</tspan></text><polygon class="cls-38" points="59.72 347.94 102.66 347.07 101.78 335.67 60.6 338.3 59.72 347.94"/><polygon class="cls-39" points="58.41 451.78 100.47 451.78 102.22 346.63 59.28 347.5 58.41 451.78"/><polygon class="cls-40" points="110.11 428.12 100.47 451.78 102.22 346.63 107.48 353.64 110.11 428.12"/><path class="cls-41" d="M72.22,419.89a2.22,2.22,0,0,0-.53,4,72.16,72.16,0,0,0,13.17,7.92C79.1,434.16,72.2,435.38,72,443a2.23,2.23,0,0,0,2.2,2.19h9.46c1.47,0,7.32-.84,8.24.23,1.85,2.13,4.93-1,3.1-3.1s-4.61-1.51-7-1.51H77c2.29-4.1,10.58-4.77,14.07-7.27a2.22,2.22,0,0,0-.52-4,68.06,68.06,0,0,1-12.82-6.73,87,87,0,0,1,11.46-2.38c2.78-.37,1.6-4.6-1.16-4.22A84.44,84.44,0,0,0,72.22,419.89Z"/><path class="cls-41" d="M71,405.23c-2.81-.2-2.8,4.18,0,4.38a69.42,69.42,0,0,0,18.14-1.13c2.77-.54,1.6-4.76-1.16-4.23A64.88,64.88,0,0,1,71,405.23Z"/><path class="cls-41" d="M88.49,384.47c.24.72,2.44,5.76,2.07,6.18s-6.22.36-6.86.41a133.43,133.43,0,0,1-14,.19c-2.82-.1-2.82,4.28,0,4.39,7,.24,15.12.7,22-1,5.81-1.45,2.33-7.48,1-11.32C91.82,380.65,87.59,381.79,88.49,384.47Z"/><path class="cls-41" d="M73.56,363.35,69,359.11c-2.06-1.93-5.16,1.16-3.1,3.09l7.94,7.43c.42.39.86.87,1.34,1.33a70.54,70.54,0,0,1-9-.58c-2.79-.36-2.76,4,0,4.38a72.46,72.46,0,0,0,26-1.41c2.74-.65,1.58-4.88-1.17-4.23a68.08,68.08,0,0,1-7.67,1.35,40.6,40.6,0,0,0,5.76-7.41c1.54-2.38-2.25-4.58-3.78-2.22s-4.73,7.71-7.83,6.22C76.13,366.39,74.69,364.41,73.56,363.35Z"/><path class="cls-42" d="M110.88,451.08s2.41,21.72,8.85,28.16,31.38,16.9,49.89,3.22c0,0,12.67-6.84,9.85-35Z"/><path class="cls-43" d="M111.69,451.88s7.24,5.64,36.2,2.42,30.58-4,31.38-6.44-2.41-5.63-8.85-8.05-33-8-53.91,5.64C116.51,445.45,109.27,451.08,111.69,451.88Z"/><path class="cls-44" d="M117.32,447.86s-3.22.8-3.22,2.41,5.63,1.61,8.05,2.42,53.1-3.22,53.9-4.83.81-4-2.41-4.83-24.94-5.63-33.79-3.22S117.32,447.86,117.32,447.86Z"/><path class="cls-16" d="M123.75,433.38s-5.63,4.82-6.43,7.24.8,8.85.8,9.65a3.75,3.75,0,0,0,1,1.86s22.38.56,23.18-.25,4-12.87-4-16.89S123.75,433.38,123.75,433.38Z"/><path class="cls-45" d="M123.75,435s2.42-2.42,4-1.61a8.06,8.06,0,0,0,3.22.8l.8,1.61-3.22,2.41s-2.41,1.61-1.61,2.42a11.68,11.68,0,0,0,3.22,1.61l.81,2.41-2.42,1.61h-4l2.41,1.61s0,2.41-.8,3.22-4.83,0-4.83,0-1.61,0-2.41-4.83A11.62,11.62,0,0,1,123.75,435Z"/><path class="cls-16" d="M144.67,443.84s4-7.24,10.46-8,10.46,0,13.68,2.41,4,9.66,4,9.66l-29,3.22Z"/><path class="cls-45" d="M147.89,441.42l-2.41,2.42-.81,6.43,17.71-2.41v-4c0-.81-4.83,0-4.83-.81s0-.8-.81-2.41-1.61-1.61-2.41-1.61S147.89,441.42,147.89,441.42Z"/><path class="cls-16" d="M130.19,467.17a23.46,23.46,0,0,0-5.63,20.12C127,499.36,135,505,143.07,504.18s16.09-7.24,12.87-20.92-15.29-18.5-19.31-18.5A9.67,9.67,0,0,0,130.19,467.17Z"/></g></svg>