<svg xmlns="http://www.w3.org/2000/svg" viewBox="0 0 78.8 72.3"><defs><style>.cls-1{fill:#ee7395;}</style></defs><title>bear1</title><g id="圖層_2" data-name="圖層 2"><g id="圖層_1-2" data-name="圖層 1"><path class="cls-1" d="M74.54,18.23a34.46,34.46,0,0,0-5.88-7.81c1.34-.81,2.89-2.6,1.66-4.66C68.5,2.7,65.69,2.37,63.45,3.7A2.68,2.68,0,0,0,62.1,5.28a35.26,35.26,0,0,0-13-4.81C40.12-.85,28,.69,18.82,4.22a16.9,16.9,0,0,0-1.56.7A2.93,2.93,0,0,0,16,3.7c-2.23-1.32-5-1-6.87,2.07-1.09,1.84,0,3.47,1.23,4.37C5,15.64,1,23.2.73,27.61.4,34.12-3.69,51.77,11.82,64.68a25,25,0,0,0,10.76,6.18c6.29,1.54,30,2.87,38.18-1.77s13.57-9,16-18S80.5,29,74.54,18.23Z"/></g></g></svg>