<svg xmlns="http://www.w3.org/2000/svg" viewBox="0 0 255 451.35"><defs><style>.cls-1{fill:#80685d;}.cls-2{fill:#ded3be;}.cls-3{fill:#dbb592;}.cls-4{fill:#e2b4aa;}.cls-5{fill:#2c112f;}.cls-6{fill:none;}</style></defs><title>body1_1</title><g id="圖層_2" data-name="圖層 2"><g id="圖層_1-2" data-name="圖層 1"><path class="cls-1" d="M225.2,114.49a103.88,103.88,0,0,0-10.05-15l.49-.2a18.64,18.64,0,0,0,14.44-15.09c1.8-10.14-2-24.06-13.39-26.18-6.51-4.23-15.71-2.17-22.22,1.27a22.09,22.09,0,0,0-4,2.69,13.94,13.94,0,0,0-6.32,8.91,13.62,13.62,0,0,0-.64,2.08A105.8,105.8,0,0,0,148.2,60.82c-27-4-63.67.67-91.33,11.33-.68.26-1.37.56-2,.86a13.61,13.61,0,0,0-.65-2.11A13.94,13.94,0,0,0,47.85,62a22.07,22.07,0,0,0-4-2.69c-6.5-3.44-15.71-5.5-22.22-1.27-11.44,2.12-15.19,16-13.39,26.18A18.64,18.64,0,0,0,22.7,99.3l.39.16c-12,15.07-20.34,32.41-20.89,43.36-1,19.67-13.33,73,33.5,112,0,0,13.5,14,32.5,18.67s90.67,8.67,115.33-5.33,41-27.33,48.33-54.33S243.2,147.16,225.2,114.49Z"/><path class="cls-1" d="M62.22,251s-24,42-30,53.5-17.75,32.25-20.5,50.25-2,21.75,0,24.25,8,7.75,11.75,7.5,7-4.75,8.25-7.75,2.5-6.5,2.5-6.5,3.5,2.08,4.67,2.08,4.5.33,5.5-2.67,0-5-1.67-6a12.47,12.47,0,0,1-3.37-2.54c-.56-.75.31-2.44,1.25-4.12s6.56-10.44,6.56-10.44,1,.06,1.25,1.75,5.48,13.6,6.9,15.52,2.5,2,2.5,3.75-2.75,47.08-2.25,51.5-.92,3.17-2.92,4.08a30,30,0,0,0-13.5,14.75c-4.08,9.42,9.17,10.5,10.17,10.83s29.33,1.17,33.17,0,12.92-4.25,14.17-11.58,4.58-46.79,4.58-46.79a1.86,1.86,0,0,1,1.94-2.06c2.06.06,25.31-.25,25.31-.25a1.81,1.81,0,0,1,1.38,1.56c.06,1.25,3.54,45.46,3.88,47a16.92,16.92,0,0,0,11.42,11c8.42,2.67,36.67,1.17,36.67,1.17s8.83-2.42,8.92-7.08-.44-6.6-3.19-10S175.16,424,175.16,424a9.64,9.64,0,0,1-.37-4c.13-2.94-1.81-52.37-1.81-52.37s2.75-4.37,4.33-7.54,4.67-10.33,4.75-12.17,1.29-1.54,1.6-.73,7.75,12.06,8.44,12.81,1.81,1.5,1,2.31-5.44,4.06-5.62,5.88c0,0-.87,5.06,4.06,5.19s5.13-2.06,5.13-2.06.94-.12,1.25,1.81,5.31,12.19,8.63,12.81,12.31-3,14.06-8.19,1.69-14.94.56-19.62-13.69-45.37-27.44-65.62-18-33-20.75-38.37l-1.5-3.12Z"/><path class="cls-2" d="M89.12,357.64s8.63,10.83,21.56,12.84,27.89-2.68,32.49-12.84,8.34-40.06-9.49-51.85-35.08-3.45-38.24,0-11.21,12.65-10.93,25.59S86.25,351.69,89.12,357.64Z"/><ellipse class="cls-3" cx="63.28" cy="199.52" rx="13.45" ry="6.72"/><ellipse class="cls-3" cx="176.71" cy="199.52" rx="13.45" ry="6.72"/><path class="cls-4" d="M74.88,205.05s-7.24,7.53-3.19,13.94S83.44,229.3,94,230.7s46.6,3.07,57.94-2,17.83-16.17,13-23.69-28.77-16.72-44.57-15.89S83,196.14,74.88,205.05Z"/><path class="cls-5" d="M110.89,187.31s0,6.44,4.13,9.8,10.65,3.08,13.48,0,4.79-11.23,3-13.73S110,178.63,110.89,187.31Z"/><path class="cls-5" d="M150.08,212.64a1.61,1.61,0,0,0-1.89-.35c-2,.62-14.14,2.22-16.91.16-3.33-2.48-7.14-9.36-7.26-14.86,0,0,0-.09,0-.13s0-.1,0-.16,0-.1,0-.16,0-.1,0-.14l-.07-.14-.07-.13-.1-.12-.1-.12-.12-.1-.12-.1-.13-.08-.14-.07-.15,0-.15,0-.16,0-.14,0h-.07l-.14,0-.16,0-.15,0-.15.05-.14.07-.13.08-.12.1-.12.1-.1.12-.1.12-.07.13-.07.14s0,.1,0,.14a1.53,1.53,0,0,0,0,.16c0,.05,0,.1,0,.16s0,.09,0,.13c-.12,5.5-3.93,12.38-7.26,14.86-2.77,2.06-14.9.46-16.91-.16a1.62,1.62,0,0,0-1.81,2.64c.7.65,6.78,1.75,12.33,1.75,3.45,0,6.69-.42,8.32-1.63,2.56-1.91,5.27-5.73,6.94-10,1.67,4.25,4.38,8.07,6.94,10,1.63,1.21,4.87,1.63,8.32,1.63,5.55,0,11.63-1.09,12.33-1.75A1.62,1.62,0,0,0,150.08,212.64Z"/><rect class="cls-6" x="114" width="141" height="141"/></g></g></svg>