<svg xmlns="http://www.w3.org/2000/svg" viewBox="0 0 234 415.88"><defs><style>.cls-1{fill:#daa164;}.cls-2{fill:#b57e59;}.cls-3{fill:#e2b4aa;}.cls-4{fill:#2c112f;}.cls-5{fill:#ded3be;}</style></defs><title>body2_1</title><g id="圖層_2" data-name="圖層 2"><g id="圖層_1-2" data-name="圖層 1"><path class="cls-1" d="M62.23,215.53s-24,42-30,53.5-17.75,32.25-20.5,50.25-2,21.75,0,24.25,8,7.75,11.75,7.5,7-4.75,8.25-7.75,2.5-6.5,2.5-6.5,3.5,2.08,4.67,2.08,4.5.33,5.5-2.67,0-5-1.67-6a12.47,12.47,0,0,1-3.37-2.54c-.56-.75.31-2.44,1.25-4.12s6.56-10.44,6.56-10.44,1,.06,1.25,1.75,5.48,13.6,6.9,15.52,2.5,2,2.5,3.75-2.75,47.08-2.25,51.5-.92,3.17-2.92,4.08a30,30,0,0,0-13.5,14.75c-4.08,9.42,9.17,10.5,10.17,10.83s29.33,1.17,33.17,0S95.4,411,96.65,403.7s4.58-46.79,4.58-46.79a1.86,1.86,0,0,1,1.94-2.06c2.06.06,25.31-.25,25.31-.25a1.81,1.81,0,0,1,1.38,1.56c.06,1.25,3.54,45.46,3.88,47a16.92,16.92,0,0,0,11.42,11c8.42,2.67,36.67,1.17,36.67,1.17s8.83-2.42,8.92-7.08-.44-6.6-3.19-10-12.37-9.69-12.37-9.69a9.64,9.64,0,0,1-.37-4c.13-2.94-1.81-52.37-1.81-52.37s2.75-4.37,4.33-7.54,4.67-10.33,4.75-12.17,1.29-1.54,1.6-.73,7.75,12.06,8.44,12.81,1.81,1.5,1,2.31-5.44,4.06-5.62,5.88c0,0-.87,5.06,4.06,5.19s5.13-2.06,5.13-2.06.94-.12,1.25,1.81,5.31,12.19,8.63,12.81,12.31-3,14.06-8.19,1.69-14.94.56-19.62S207.48,277.28,193.73,257s-18-33-20.75-38.37l-1.5-3.12Z"/><path class="cls-2" d="M89.13,322.17S97.76,333,110.7,335s27.89-2.68,32.49-12.84,8.34-40.06-9.49-51.85-35.08-3.45-38.24,0S84.25,283,84.53,295.91,86.26,316.23,89.13,322.17Z"/><path class="cls-3" d="M74.89,169.59s-7.24,7.53-3.19,13.94S83.45,193.84,94,195.23s46.6,3.07,57.94-2,17.83-16.17,13-23.69-28.77-16.72-44.57-15.89S83,160.67,74.89,169.59Z"/><path class="cls-4" d="M110.9,151.84s0,6.44,4.13,9.8,10.65,3.08,13.48,0,4.79-11.23,3-13.73S110,143.16,110.9,151.84Z"/><path class="cls-4" d="M150.09,177.17a1.61,1.61,0,0,0-1.89-.35c-2,.62-14.14,2.22-16.91.16-3.33-2.48-7.14-9.36-7.26-14.86,0,0,0-.09,0-.13s0-.1,0-.16,0-.1,0-.16,0-.1,0-.14l-.07-.14-.07-.13-.1-.12-.1-.12-.12-.1-.12-.1-.13-.08-.14-.07-.15,0-.15,0-.16,0-.14,0h-.07l-.14,0-.16,0-.15,0-.15.05-.14.07-.13.08-.12.1-.12.1-.1.12-.1.12-.07.13-.07.14s0,.1,0,.14a1.53,1.53,0,0,0,0,.16c0,.05,0,.1,0,.16s0,.09,0,.13c-.12,5.5-3.93,12.38-7.26,14.86-2.77,2.06-14.9.46-16.91-.16a1.62,1.62,0,0,0-1.81,2.64c.7.65,6.78,1.75,12.33,1.75,3.45,0,6.69-.42,8.32-1.63,2.56-1.91,5.27-5.73,6.94-10,1.67,4.25,4.38,8.07,6.94,10,1.63,1.21,4.87,1.63,8.32,1.63,5.55,0,11.63-1.09,12.33-1.75A1.62,1.62,0,0,0,150.09,177.17Z"/><path class="cls-3" d="M75.89,169.59s-7.24,7.53-3.19,13.94S84.45,193.84,95,195.23s46.6,3.07,57.94-2,17.83-16.17,13-23.69-28.77-16.72-44.57-15.89S84,160.67,75.89,169.59Z"/><path class="cls-4" d="M110.9,151.84s0,6.44,4.13,9.8,10.65,3.08,13.48,0,4.79-11.23,3-13.73S110,143.16,110.9,151.84Z"/><path class="cls-4" d="M150.09,177.17a1.61,1.61,0,0,0-1.89-.35c-2,.62-14.14,2.22-16.91.16-3.33-2.48-7.14-9.36-7.26-14.86,0,0,0-.09,0-.13s0-.1,0-.16,0-.1,0-.16,0-.1,0-.14l-.07-.14-.07-.13-.1-.12-.1-.12-.12-.1-.12-.1-.13-.08-.14-.07-.15,0-.15,0-.16,0-.14,0h-.07l-.14,0-.16,0-.15,0-.15.05-.14.07-.13.08-.12.1-.12.1-.1.12-.1.12-.07.13-.07.14s0,.1,0,.14a1.53,1.53,0,0,0,0,.16c0,.05,0,.1,0,.16s0,.09,0,.13c-.12,5.5-3.93,12.38-7.26,14.86-2.77,2.06-14.9.46-16.91-.16a1.62,1.62,0,0,0-1.81,2.64c.7.65,6.78,1.75,12.33,1.75,3.45,0,6.69-.42,8.32-1.63,2.56-1.91,5.27-5.73,6.94-10,1.67,4.25,4.38,8.07,6.94,10,1.63,1.21,4.87,1.63,8.32,1.63,5.55,0,11.63-1.09,12.33-1.75A1.62,1.62,0,0,0,150.09,177.17Z"/><path class="cls-1" d="M221.36,79.88A105,105,0,0,0,215.3,70c.11-1,.06-2.06.07-2.94a48.55,48.55,0,0,0-.34-6,5.14,5.14,0,0,0,.34-1.7,240.48,240.48,0,0,0-4-52.58,5.42,5.42,0,0,0-.14-.57c-.12-2.69-1.16-4.87-4-5.85-3.78-1.3-8.07,1.25-10.71,3.75l-.55.54a46.54,46.54,0,0,0-5.27,3,31.64,31.64,0,0,0-6.94,6.74c-6.59,4.4-16.88,11.62-22.1,15.3a96.44,96.44,0,0,0-16-3.92c-19.2-2.92-43.37-1.24-65.57,4C73.25,24.88,57.45,13.81,53,11.22a27.71,27.71,0,0,0-3.2-2.6,46.58,46.58,0,0,0-5.27-3L44,5.11c-2.64-2.5-6.93-5-10.71-3.75-2.84,1-3.89,3.16-4,5.85a5.18,5.18,0,0,0-.14.57,240.48,240.48,0,0,0-4,52.58,5.49,5.49,0,0,0,.15,1C12.12,77.31,2.75,96.6,2.16,108.46c-1,19.84-13.11,73.64,32.93,113,0,0,13.27,14.12,31.95,18.83s89.12,8.74,113.37-5.38,40.3-27.57,47.51-54.81S239.05,112.83,221.36,79.88Z"/><path class="cls-5" d="M75.89,169.59s-7.24,7.53-3.19,13.94S84.45,193.84,95,195.23s46.6,3.07,57.94-2,17.83-16.17,13-23.69-28.77-16.72-44.57-15.89S84,160.67,75.89,169.59Z"/><path class="cls-4" d="M110.9,151.84s0,6.44,4.13,9.8,10.65,3.08,13.48,0,4.79-11.23,3-13.73S110,143.16,110.9,151.84Z"/><path class="cls-4" d="M150.09,177.17a1.61,1.61,0,0,0-1.89-.35c-2,.62-14.14,2.22-16.91.16-3.33-2.48-7.14-9.36-7.26-14.86,0,0,0-.09,0-.13s0-.1,0-.16,0-.1,0-.16,0-.1,0-.14l-.07-.14-.07-.13-.1-.12-.1-.12-.12-.1-.12-.1-.13-.08-.14-.07-.15,0-.15,0-.16,0-.14,0h-.07l-.14,0-.16,0-.15,0-.15.05-.14.07-.13.08-.12.1-.12.1-.1.12-.1.12-.07.13-.07.14s0,.1,0,.14a1.53,1.53,0,0,0,0,.16c0,.05,0,.1,0,.16s0,.09,0,.13c-.12,5.5-3.93,12.38-7.26,14.86-2.77,2.06-14.9.46-16.91-.16a1.62,1.62,0,0,0-1.81,2.64c.7.65,6.78,1.75,12.33,1.75,3.45,0,6.69-.42,8.32-1.63,2.56-1.91,5.27-5.73,6.94-10,1.67,4.25,4.38,8.07,6.94,10,1.63,1.21,4.87,1.63,8.32,1.63,5.55,0,11.63-1.09,12.33-1.75A1.62,1.62,0,0,0,150.09,177.17Z"/></g></g></svg>