<svg xmlns="http://www.w3.org/2000/svg" viewBox="0 0 238.06 393.69"><defs><style>.cls-1{fill:#80685d;}.cls-2{fill:#ded3be;}.cls-3{fill:#2c112f;}</style></defs><title>body1_2</title><g id="圖層_2" data-name="圖層 2"><g id="圖層_1-2" data-name="圖層 1"><path class="cls-1" d="M225.2,58.83a103.88,103.88,0,0,0-10.05-15l.49-.2a18.64,18.64,0,0,0,14.44-15.09c1.8-10.14-2-24.06-13.39-26.18C210.16-1.86,201,.2,194.46,3.64a22.09,22.09,0,0,0-4,2.69,13.94,13.94,0,0,0-6.32,8.91,13.62,13.62,0,0,0-.64,2.08A105.8,105.8,0,0,0,148.2,5.16c-27-4-63.67.67-91.33,11.33-.68.26-1.37.56-2,.86a13.61,13.61,0,0,0-.65-2.11,13.94,13.94,0,0,0-6.32-8.91,22.07,22.07,0,0,0-4-2.69C37.36.2,28.16-1.86,21.65,2.37,10.21,4.49,6.45,18.41,8.26,28.55A18.64,18.64,0,0,0,22.7,43.64l.39.16C11.06,58.87,2.75,76.21,2.2,87.16c-1,19.67-13.33,73,33.5,112,0,0,13.5,14,32.5,18.67s90.67,8.67,115.33-5.33,41-27.33,48.33-54.33S243.2,91.49,225.2,58.83Z"/><path class="cls-1" d="M65.22,193.34s-24,42-30,53.5-17.75,32.25-20.5,50.25-2,21.75,0,24.25,8,7.75,11.75,7.5,7-4.75,8.25-7.75,2.5-6.5,2.5-6.5,3.5,2.08,4.67,2.08,4.5.33,5.5-2.67,0-5-1.67-6a12.47,12.47,0,0,1-3.37-2.54c-.56-.75.31-2.44,1.25-4.12s6.56-10.44,6.56-10.44,1,.06,1.25,1.75,5.48,13.6,6.9,15.52,2.5,2,2.5,3.75-2.75,47.08-2.25,51.5-.92,3.17-2.92,4.08a30,30,0,0,0-13.5,14.75c-4.08,9.42,9.17,10.5,10.17,10.83s29.33,1.17,33.17,0,12.92-4.25,14.17-11.58,4.58-46.79,4.58-46.79a1.86,1.86,0,0,1,1.94-2.06c2.06.06,25.31-.25,25.31-.25a1.81,1.81,0,0,1,1.38,1.56c.06,1.25,3.54,45.46,3.88,47a16.92,16.92,0,0,0,11.42,11c8.42,2.67,36.67,1.17,36.67,1.17s8.83-2.42,8.92-7.08-.44-6.6-3.19-10-12.37-9.69-12.37-9.69a9.64,9.64,0,0,1-.37-4C177.91,359.4,176,310,176,310s2.75-4.37,4.33-7.54,4.67-10.33,4.75-12.17,1.29-1.54,1.6-.73,7.75,12.06,8.44,12.81,1.81,1.5,1,2.31-5.44,4.06-5.62,5.88c0,0-.87,5.06,4.06,5.19s5.13-2.06,5.13-2.06.94-.12,1.25,1.81,5.31,12.19,8.63,12.81,12.31-3,14.06-8.19,1.69-14.94.56-19.62-13.69-45.37-27.44-65.62-18-33-20.75-38.37l-1.5-3.12Z"/><path class="cls-2" d="M92.12,300s8.63,10.83,21.56,12.84,27.89-2.68,32.49-12.84,8.34-40.06-9.49-51.85-35.08-3.45-38.24,0-11.21,12.65-10.93,25.59S89.25,294,92.12,300Z"/><path class="cls-2" d="M78.88,147.39s-7.24,7.53-3.19,13.94S87.44,171.64,98,173s46.6,3.07,57.94-2,17.83-16.17,13-23.69-28.77-16.72-44.57-15.89S87,138.47,78.88,147.39Z"/><path class="cls-3" d="M113.89,129.64s0,6.44,4.13,9.8,10.65,3.08,13.48,0,4.79-11.23,3-13.73S113,121,113.89,129.64Z"/><path class="cls-3" d="M153.08,155a1.61,1.61,0,0,0-1.89-.35c-2,.62-14.14,2.22-16.91.16-3.33-2.48-7.14-9.36-7.26-14.86,0,0,0-.09,0-.13s0-.1,0-.16,0-.1,0-.16,0-.1,0-.14l-.07-.14-.07-.13-.1-.12-.1-.12-.12-.1-.12-.1-.13-.08-.14-.07-.15,0-.15,0-.16,0-.14,0h-.07l-.14,0-.16,0-.15,0-.15.05-.14.07-.13.08-.12.1-.12.1-.1.12-.1.12-.07.13-.07.14s0,.1,0,.14a1.53,1.53,0,0,0,0,.16c0,.05,0,.1,0,.16s0,.09,0,.13c-.12,5.5-3.93,12.38-7.26,14.86-2.77,2.06-14.9.46-16.91-.16a1.62,1.62,0,0,0-1.81,2.64c.7.65,6.78,1.75,12.33,1.75,3.45,0,6.69-.42,8.32-1.63,2.56-1.91,5.27-5.73,6.94-10,1.67,4.25,4.38,8.07,6.94,10,1.63,1.21,4.87,1.63,8.32,1.63,5.55,0,11.63-1.09,12.33-1.75A1.62,1.62,0,0,0,153.08,155Z"/></g></g></svg>