<svg xmlns="http://www.w3.org/2000/svg" viewBox="0 0 147.47 65.06"><defs><style>.cls-1{fill:#534741;}.cls-2{fill:#a7d6df;}.cls-3{fill:#c995b7;}.cls-4{fill:#dfe26a;}.cls-5{fill:#5f5d5d;}</style></defs><title>car2_1</title><g id="圖層_2" data-name="圖層 2"><g id="圖層_1-2" data-name="圖層 1"><path class="cls-1" d="M42.7,52.87s-3.38,2.86-2.34,6.5,4.68,4.16,6.76,1a6,6,0,0,0,0-6.76C46.6,52.87,42.7,52.87,42.7,52.87Z"/><path class="cls-1" d="M126,57c.78,4,1.3,7.49,4.16,6.79s4.16-5.57,3.9-6.27S126,57,126,57Z"/><path class="cls-2" d="M54.88,43c.2.92,45.37,6.37,59.36,6.25C117,49.19,117,45.9,119,44c9.85-9,27-5.87,26.85-6C104.88-23,59,9,54.88,17,51.19,24.1,50.72,24,54.88,43Z"/><path class="cls-2" d="M25.46,13.93l.62.19c2.21.7,9.7,3.3,12.13,6.83,2.86,4.16,3.35,16.44-1.33,18S7.77,37.6,7.77,37.6A185.12,185.12,0,0,1,25.46,13.93Z"/><path class="cls-3" d="M68.88,37c.69.69,61.34.36,75.24.31,1,0,3.59.3,3.34,5.71-.33,7.07-1.3,15.35-6.5,15.61S4.39,57.55,2.05,56s-3-13.91-.17-17,23.84-1.44,23.84-1.44S28.7,33,26.88,26s-4-7.17-3.5-10S35.61,7.09,45.49,4.49,76.89,1.28,101,0a5.46,5.46,0,0,1,1.77.2c3.1.87,10.52,5.42,4.12,5.76-28.57,1.51-28,2-36,12C63.87,26.72,64.88,33,68.88,37Z"/><path class="cls-1" d="M17.7,52.87s-3.38,2.86-2.34,6.5,4.68,4.16,6.76,1a6,6,0,0,0,0-6.76C21.6,52.87,17.7,52.87,17.7,52.87Z"/><path class="cls-1" d="M82.57,55.19S78.24,59.75,80,62.91s7.54,3.12,9.16-2.1S87.32,51.62,82.57,55.19Z"/><path class="cls-4" d="M96,47.15s4.16,6.24,9.88,4.94,8.06-5.46,6.5-6.76S97.51,42.21,96,47.15Z"/><path class="cls-4" d="M121.18,46.37c0,.58,2.86,3.9,7.8,4.94s7.8-.52,9.36-2.6.52-4.94-4.42-5.72S121.18,44.29,121.18,46.37Z"/><path class="cls-5" d="M37.11,41.32c-.15.71,10.4,2.16,10.66,1.44s.78-2.65-.52-2.41S37.64,38.92,37.11,41.32Z"/></g></g></svg>