<svg xmlns="http://www.w3.org/2000/svg" xmlns:xlink="http://www.w3.org/1999/xlink" viewBox="0 0 498.06 528.95"><defs><style>.cls-1{fill:none;}.cls-12,.cls-13,.cls-2,.cls-4,.cls-6{fill:#ef5c79;}.cls-3{fill:#fbc5cf;}.cls-4{font-size:40.76px;}.cls-12,.cls-13,.cls-4,.cls-6{font-family:AdobeFanHeitiStd-Bold, AdobeFanHeitiStd Bold-B5pc-H;font-weight:700;}.cls-5{fill:#e4e4e4;}.cls-6{font-size:10.31px;}.cls-7{fill:#fff;}.cls-8{clip-path:url(#clip-path);}.cls-9{fill:#bf4670;}.cls-10{fill:#dcafa5;}.cls-11{fill:#2b102e;}.cls-12{font-size:20.69px;}.cls-13{font-size:24px;}</style><clipPath id="clip-path"><circle class="cls-1" cx="105.19" cy="145.56" r="37.18"/></clipPath></defs><title>chat</title><g id="圖層_2" data-name="圖層 2"><g id="圖層_1-2" data-name="圖層 1"><path class="cls-2" d="M455.71,491.7c9.7-6,20.84-19.35,12-34.67-13.13-22.78-33.43-25.25-49.55-15.4-6,3.7-8.73,7.94-9.73,11.81-30.88-19.47-63.83-31.19-94.14-35.82-64.47-9.85-152,1.64-218.09,27.92a120.09,120.09,0,0,0-11.27,5.22c-1.43-3.08-4.09-6.27-8.76-9.12-16.12-9.85-36.41-7.39-49.55,15.4-7.88,13.68.15,25.79,8.86,32.5A306.48,306.48,0,0,0,5.33,526.8h479A255.36,255.36,0,0,0,455.71,491.7Z"/><path class="cls-3" d="M461,493.89c9.62-5.77,20.67-18.61,11.91-33.35-13-21.91-33.17-24.28-49.16-14.81-6,3.56-8.66,7.64-9.65,11.35-30.63-18.73-63.33-30-93.4-34.45-64-9.48-150.83,1.58-216.37,26.85a121,121,0,0,0-11.18,5c-1.42-3-4.05-6-8.69-8.77-16-9.48-36.13-7.11-49.16,14.81-7.82,13.15.15,24.81,8.79,31.26a296.7,296.7,0,0,0-29.94,35.85H489.33A247.28,247.28,0,0,0,461,493.89Z"/><text class="cls-4" transform="translate(102.23 511.8)">麻吉聊天室</text><path class="cls-2" d="M377.2,458.81l-25.59-15.66c-10-6.1-24.23-1.24-31.69,10.81h0c-7.46,12-5.41,26.89,4.57,33l-.61-.39c-.78,2.54-2.2,4.47-3,7-.66,2.14.44,3.91,2.56,3.12,3.06-1.14,5.34-3.81,8.11-5.65l18.51,11.57c10,6.1,24.23,1.24,31.69-10.81h0C389.23,479.75,387.18,464.91,377.2,458.81Z"/><circle class="cls-3" cx="337.8" cy="462.51" r="5.94" transform="translate(-234.7 479.13) rotate(-55.52)"/><circle class="cls-3" cx="351.35" cy="471.82" r="5.94" transform="translate(-236.49 494.33) rotate(-55.52)"/><circle class="cls-3" cx="364.9" cy="481.12" r="5.94" transform="translate(-238.28 509.54) rotate(-55.52)"/><path class="cls-2" d="M485.69,90.71h.12l-.12-.14V90h-.54a223.86,223.86,0,0,0-28.27-27.5C466.7,57.63,478,46.88,469,34.54c-13.3-18.34-33.84-20.33-50.16-12.39-6.12,3-8.84,6.4-9.85,9.5A295.1,295.1,0,0,0,313.72,2.81C248.45-5.12,159.81,4.14,92.93,25.29c-3.82,1.21-7.62,2.63-11.4,4.2-1.45-2.48-4.14-5-8.87-7.34C56.34,14.22,35.8,16.2,22.5,34.54c-8,11,.15,20.76,9,26.16C20.35,70,0,90.8,0,90.8L1.13,529l485.69-.85Z"/><path class="cls-3" d="M496.93,96.42h.12l-.12-.13v-.61h-.54a222.11,222.11,0,0,0-28.21-27.09c9.8-4.75,21.05-15.35,12.13-27.5C467,23,446.54,21.06,430.25,28.88c-6.11,2.93-8.82,6.3-9.83,9.36A297.36,297.36,0,0,0,325.31,9.83C260.17,2,171.71,11.14,105,32c-3.81,1.19-7.61,2.59-11.38,4.14-1.44-2.44-4.13-5-8.85-7.23C68.45,21.06,47.94,23,34.68,41.09c-8,10.85.15,20.45,9,25.77C32.53,76,12.22,96.51,12.22,96.51l1.13,431.62,484.71-.83Z"/><rect class="cls-5" x="41.81" y="193.77" width="417.52" height="314.98" rx="34.02" ry="34.02"/><text class="cls-6" transform="translate(409.5 184.46)">查看檔案</text><text class="cls-6" transform="translate(354.44 184.53)">送禮物</text><circle class="cls-7" cx="105.19" cy="145.56" r="37.18"/><g class="cls-8"><path class="cls-9" d="M129.14,137.7a24.31,24.31,0,0,0-15.54-12.06,110.41,110.41,0,0,0,2.77-12c.46-4.28,1.27-7.53-.93-9.15s-4-.93-4.49,0-3.07,16.83-3.05,18.43a17.37,17.37,0,0,1-.19,2.08c-1.28,0-2.61,0-4,.13a18.86,18.86,0,0,1-.21-2.21c0-1.6-2.56-17.5-3.05-18.43s-2.29-1.62-4.49,0-1.39,4.86-.93,9.15a113.38,113.38,0,0,0,2.85,12.33,41.32,41.32,0,0,0-6.76,2c-6.24,2.47-12.11,11.81-12.34,16.37s-3,16.91,7.56,25.94a17,17,0,0,0,7.33,4.32c4.29,1.08,20.46,2,26-1.24S129,167,130.65,160.7,133.2,145.26,129.14,137.7Z"/><path class="cls-10" d="M95.09,157.48s-1.68,1.74-.74,3.23,2.72,2.39,5.16,2.71,10.79.71,13.42-.45,4.13-3.74,3-5.49-6.66-3.87-10.32-3.68S97,155.41,95.09,157.48Z"/><path class="cls-11" d="M103.43,153.37a3.24,3.24,0,0,0,1,2.27,2.45,2.45,0,0,0,3.12,0c.65-.71,1.11-2.6.71-3.18S103.23,151.36,103.43,153.37Z"/><circle class="cls-7" cx="115.68" cy="149.64" r="5.83"/><circle class="cls-11" cx="115.68" cy="149.64" r="3.67"/><circle class="cls-7" cx="94.84" cy="149.64" r="5.83"/><circle class="cls-11" cx="94.84" cy="149.64" r="3.67"/></g><text class="cls-12" transform="translate(159.24 152.86)">吐2</text><circle class="cls-2" cx="371.05" cy="145.72" r="23.72"/><circle class="cls-7" cx="371.05" cy="142.37" r="23.72"/><path class="cls-2" d="M381.69,145.39H370c-1.06,0-1.44.38-1.44,1.42q0,4.71,0,9.42c0,1.12.37,1.47,1.5,1.47h11.7c1.12,0,1.5-.38,1.5-1.48q0-4.66,0-9.32C383.24,145.74,382.88,145.39,381.69,145.39Z"/><path class="cls-2" d="M385.64,137.58a1.19,1.19,0,0,0-1.36-1.33c-4.79,0-9.58,0-14.38,0-1,0-1.35.41-1.36,1.41,0,1.39,0,2.78,0,4.16,0,1.23.35,1.58,1.6,1.58H377c2.41,0,4.83,0,7.24,0,1,0,1.4-.4,1.41-1.37C385.65,140.55,385.64,139.06,385.64,137.58Z"/><path class="cls-2" d="M363.22,133.24a22.47,22.47,0,0,0,10.47.89,20,20,0,0,0,5.15-1.32,8,8,0,0,0,3-2.2,3,3,0,0,0-1.35-4.86,6.56,6.56,0,0,0-3-.3c-2.41.33-4.06,1.93-5.5,3.76-.38.48-.73,1-1,1.41-1.13-1.22-2.14-2.49-3.34-3.55a6.12,6.12,0,0,0-5.5-1.59c-2.94.63-4,3.65-1.92,5.83A8.29,8.29,0,0,0,363.22,133.24Zm14.18-5.48a2.94,2.94,0,0,1,1-.14c.73,0,1.67,0,1.79.84a2.25,2.25,0,0,1-1,1.63c-1.8,1.3-3.94,1.52-6.27,1.73C374.14,130,375.39,128.44,377.4,127.76Zm-15.88.72c.16-.91,1.18-.9,2-.85a5.15,5.15,0,0,1,3.42,1.81c.65.68,1.2,1.45,2,2.38-2.41-.19-4.51-.43-6.3-1.66C362.06,129.8,361.43,129,361.52,128.48Z"/><path class="cls-2" d="M365.77,151.62c0-1.62,0-3.24,0-4.86,0-1-.4-1.36-1.39-1.38q-2,0-4,0c-1,0-1.38.38-1.39,1.38,0,3.21,0,6.41,0,9.62a1.18,1.18,0,0,0,1.35,1.33c1.32,0,2.64,0,4,0,1.05,0,1.43-.38,1.44-1.43,0-1.55,0-3.11,0-4.66Z"/><path class="cls-2" d="M364.5,143.4a1.15,1.15,0,0,0,1.26-1.31c0-1.52,0-3,0-4.56a1.15,1.15,0,0,0-1.3-1.28h-6.54a1.15,1.15,0,0,0-1.3,1.27c0,1.55,0,3.1,0,4.66a1.12,1.12,0,0,0,1.24,1.23Q361.19,143.42,364.5,143.4Z"/><circle class="cls-2" cx="428.54" cy="145.72" r="23.72"/><circle class="cls-7" cx="428.54" cy="142.37" r="23.72"/><path class="cls-2" d="M445.21,135.33a4.82,4.82,0,0,0-5.09-5.06h-6.89c0-1.15,0-2.23,0-3.31s-.46-1.48-1.49-1.49h-6.62c-1,0-1.48.47-1.48,1.5s0,2.13,0,3.3h-.7c-2.12,0-4.23,0-6.35,0a4.78,4.78,0,0,0-4.91,4.95q0,8.28,0,16.55a4.78,4.78,0,0,0,4.77,4.82c1.37,0,2.75,0,4.12,0,6.59,0,13.17,0,19.76,0a5.08,5.08,0,0,0,2-.4,4.73,4.73,0,0,0,2.89-4.73Q445.2,143.39,445.21,135.33Zm-19.13-7.48c1.5,0,3,0,4.42,0a.49.49,0,0,1,.34.33c0,2,0,3.91,0,5.86a2.36,2.36,0,0,1-2.27,2.21,2.28,2.28,0,0,1-2.43-2C426,132.2,426.08,130.06,426.08,127.85Zm16.75,23.9a2.4,2.4,0,0,1-2.47,2.47H416.54a2.37,2.37,0,0,1-2.49-2.44q0-8.33,0-16.66a2.33,2.33,0,0,1,2.27-2.43c2.77-.05,5.53,0,8.3,0a1.28,1.28,0,0,1,.25.08c0,.46,0,.94,0,1.42a3.57,3.57,0,0,0,7,.54,14.9,14.9,0,0,0,.19-2.06h3c1.74,0,3.47,0,5.21,0a2.4,2.4,0,0,1,2.56,2.59Q442.83,143.5,442.83,151.75Z"/><path class="cls-2" d="M419.27,146.56a2.18,2.18,0,0,0,2.72,0,5.28,5.28,0,0,0,2.22-4.53,3.49,3.49,0,0,0-3.66-3.37c-2,.06-3.47,1.57-3.48,4A5.4,5.4,0,0,0,419.27,146.56Z"/><path class="cls-2" d="M422.9,147.44a3.54,3.54,0,0,1-4.46,0,1.12,1.12,0,0,0-1.86.75c-.1.77-.11,1.54-.17,2.38h8.47a21.18,21.18,0,0,0-.19-2.56A1.09,1.09,0,0,0,422.9,147.44Z"/><path class="cls-2" d="M427.91,142.25h11.56a.93.93,0,0,0,.52-.08c.18-.14.42-.4.39-.56s-.3-.41-.51-.52a1.36,1.36,0,0,0-.59,0H427.94c-.37,0-.65.14-.68.54S427.53,142.21,427.91,142.25Z"/><path class="cls-2" d="M439.76,149.44H428.15c-.13,0-.29,0-.37,0s-.49.36-.48.53.27.44.47.6.31,0,.48,0h11.5a.59.59,0,1,0,0-1.18Z"/><path class="cls-2" d="M427.84,144.64a1.4,1.4,0,0,0,.27,0h9.06c.54,0,.89-.26.84-.63s-.42-.56-.84-.56h-9.28a.56.56,0,0,0-.64.53C427.22,144.4,427.49,144.57,427.84,144.64Z"/><path class="cls-2" d="M439.61,147h-8c-.41,0-.74.12-.73.59s.35.59.74.59h8c.49,0,.83-.28.78-.63S440,147,439.61,147Z"/><path class="cls-2" d="M428.42,147.05h0c-.2,0-.43-.07-.59,0s-.53.34-.54.52a.76.76,0,0,0,.45.59,3.34,3.34,0,0,0,1.34,0,.84.84,0,0,0,.5-.58c.06-.35-.22-.54-.57-.56C428.82,147,428.62,147.05,428.42,147.05Z"/><path class="cls-2" d="M428.48,135a1.17,1.17,0,0,0,1.13-1.2,1.18,1.18,0,0,0-2.36,0A1.18,1.18,0,0,0,428.48,135Z"/><text class="cls-13" transform="translate(167.53 68.16)">麻吉聊天室</text><path class="cls-2" d="M328.3,51l-13.87-8.49c-5.41-3.31-13.14-.67-17.18,5.86h0c-4,6.53-2.93,14.58,2.48,17.88l-.33-.21c-.42,1.37-1.2,2.42-1.62,3.8-.36,1.16.24,2.12,1.39,1.69,1.66-.62,2.9-2.06,4.4-3.06l10,6.27c5.41,3.31,13.14.67,17.18-5.86h0C334.82,62.4,333.71,54.35,328.3,51Z"/><circle class="cls-3" cx="306.94" cy="53.06" r="3.22" transform="translate(89.44 276.03) rotate(-55.52)"/><circle class="cls-3" cx="314.28" cy="58.1" r="3.22" transform="translate(88.47 284.28) rotate(-55.52)"/><circle class="cls-3" cx="321.63" cy="63.14" r="3.22" transform="translate(87.49 292.52) rotate(-55.52)"/></g></g></svg>