<svg xmlns="http://www.w3.org/2000/svg" viewBox="0 0 117.39 121.39"><defs><style>.cls-1{fill:#eef2ef;}.cls-2{fill:#fff;stroke:#ef5c79;stroke-miterlimit:10;}.cls-3{fill:#ef5c79;}</style></defs><title>cir3</title><g id="圖層_2" data-name="圖層 2"><g id="圖層_1-2" data-name="圖層 1"><path class="cls-1" d="M6.3,89.28s10.32,20.64,33.55,28.39,51.61,2.58,61.93-7.74,20.64-31,12.9-72.25S54-4.91,38.56,5.41,5,31.22,2.43,41.54-2.73,75.09,6.3,89.28Z"/><circle class="cls-2" cx="40.98" cy="62.79" r="13.92"/><circle class="cls-2" cx="83.38" cy="62.24" r="13.92"/><circle class="cls-3" cx="44.92" cy="62.66" r="7.42"/><circle class="cls-3" cx="79.94" cy="63.21" r="7.42"/><path class="cls-3" d="M86.14,39.05S67.92,46.78,67.36,51.2s36.44-6.07,35.34-9.39S86.14,39.05,86.14,39.05Z"/><path class="cls-3" d="M37,39.05S55.23,46.78,55.79,51.2s-36.44-6.07-35.34-9.39S37,39.05,37,39.05Z"/></g></g></svg>