<svg xmlns="http://www.w3.org/2000/svg" viewBox="0 0 143 153.67"><defs><style>.cls-1{fill:#777764;opacity:0.5;}.cls-2{fill:#ff9500;}.cls-3{fill:#f7d708;}.cls-4{fill:#fef71f;}.cls-5{fill:#fdc403;}.cls-6{fill:#fff528;}</style></defs><title>g1</title><g id="圖層_2" data-name="圖層 2"><g id="圖層_1-2" data-name="圖層 1"><ellipse class="cls-1" cx="71.5" cy="99.03" rx="71.5" ry="54.64"/><path class="cls-2" d="M136.58,103.41v8.65s-2.88,12.11-14.42,18.45S94.49,135.13,91,134c0,0-13.26,11-28.25,10.38S42.59,138,40.29,132.24s-.58-15.57-.58-15.57l-4-9.8s-8.07.58-16.15-9.8c0,0-8.65-5.19-9.23-9.23V81.5l4-1.73V75.16h1.73V67.08h2.31v-9.8S6.84,54.4,4,47.48L3.38,40l2.31-1.73V33.64L8,31.33V23.26L14.34,21s1.73-7.5,5.19-9.23S34.52,5.38,42,5.38,60.47,6.54,61,6.54s1.73-2.88,7.5-4S92.76.19,102,6.54a41.86,41.86,0,0,1,13.26,15l.58,11,4.61,1.15V40l3.46,3.46v5.77s-.58,4.61-7.5,8.65V78Z"/><path class="cls-3" d="M41.44,97.07S14.91,96.49,10.3,81.5c0,0-1.15-8.65,3.46-11,0,0,.58-4,1.73-4.61,0,0,0-8.07,2.88-8.65v9.8s5.77,9.23,16.72,11.53,24.22,2.88,28.83,2.31L61,82.65s-23.64.58-32.29-3.46S16.64,70,16.07,67.08v8.07s4.61,7.5,16.72,10.38,17.88,2.31,17.88,2.31l-2.31,2.31s-29.41-1.73-34-15v4.61s.58,5.19,11,11a56.1,56.1,0,0,0,17.3,4.61Z"/><path class="cls-3" d="M92.18,58.43v2.31a13.12,13.12,0,0,1-6.34,7.5c-5.19,2.88-18.45,9.23-40.94,6.92S17.22,61.89,18.37,57.28c0,0-1.15,3.46,9.23,11s37.48,6.92,50.74,2.31S92.18,58.43,92.18,58.43Z"/><path class="cls-3" d="M21.83,59c.26.77,11.53,10.38,30,9.8s34.6-3.46,40.36-15V50.94s-2.31,9.8-17.3,13.26S42,68.81,25.29,59.59C25.29,59.59,21.26,57.28,21.83,59Z"/><path class="cls-3" d="M8,23.26s-2.88,0-2.88,6.92c0,0-2.88,1.15-1.73,9.8,0,0,2.31,12.11,30,14.42s37.48-6.92,37.48-6.92-15,5.77-28.25,5.19S13.76,51.51,5.69,38.25V33.64S14.34,46.33,34.52,46.9s32.29-2.31,35.17-4.61c0,0-15,3.46-27.1,2.88S13.76,41.14,8,31.33Z"/><path class="cls-3" d="M90.45,71.7c.72,1.07,23.64-5.19,24.22-12.11,0,0,.58-1.73-1.73.58s-6.92,5.77-11,6.92S91.61,70,91.61,70,89.3,70,90.45,71.7Z"/><path class="cls-3" d="M105.44,74.58s8.65-5.19,9.8-7.5V64.2s-5.19,5.77-8.07,7.5A26.29,26.29,0,0,1,102.56,74Z"/><path class="cls-3" d="M111.79,75.73a39.31,39.31,0,0,0,2.88-4,4.46,4.46,0,0,0,.58-1.73v4l-1.73,2.31Z"/><path class="cls-3" d="M92.18,56.13v1.73A39,39,0,0,0,106,56.13c6.92-2.31,17.3-6.34,17.88-12.69s0-8.65-3.46-11.53c0,0-.29-7.06-5-8.14l.43,8.72s-1.15,6.92-9.23,11-14.42,4-14.42,4v2.88s11-1.15,16.72-4,11-5.19,11.53-12.69V40s0,6.34-6.92,9.8A57,57,0,0,1,92.18,56.13Z"/><path class="cls-3" d="M92.76,42.29s12.69-1.73,17.3-6.34,5.55-6.85,5.55-6.85l-.07-2a25.8,25.8,0,0,1-6.63,7.71c-4,2.88-13.84,5.77-16.72,5.77Z"/><path class="cls-4" d="M45.48,60.74s27.1,1.15,36.33-4.61,15-8.65,8.65-20.18c0,0,24.8-4,24.8-14.42s0-11-14.42-17.88S59.89,1.35,57,3.65C57,3.65,6.26-1,8,23.26c0,0,4.61,21.34,51.9,15,0,0,16.72-1.73,22.49-12.69v5.19a42.82,42.82,0,0,1-4.61,8.65l-.58,5.19S79.5,55.55,45.48,60.74Z"/><path class="cls-4" d="M95.64,129.36s39.21,4,40.94-25.95c0,0,2.31-16.72-20.18-25.37s-35.32-.5-35.32-.5Z"/><path class="cls-5" d="M101.41,122.44s21.34-1.73,25.37-13.26-2.31-21.91-16.72-27.1c0,0-12.88-2.69-18-.77L106,98.22S110.06,116.1,101.41,122.44Z"/><path class="cls-4" d="M34.52,120.71s.58,12.69,15,17.3S91.61,135.7,102,111.48s-13.84-34.6-24.22-34S35.1,83.23,34.52,120.71Z"/><path class="cls-5" d="M66.23,5.38s11.53-2.31,22.49,0S109.48,12.3,106.6,19.8s-22.49,9.8-22.49,9.8V24.41s.58-6.92-4-10.38-4-4-13.26-7.5C66.81,6.54,63.93,6,66.23,5.38Z"/><path class="cls-6" d="M95.19,16.4,95,18.8l-3.45-.27a10.55,10.55,0,0,1-1.8,4.9l-2.58-1a9.23,9.23,0,0,0,1.78-4.6c.18-2.37-1.13-3.74-2.9-3.88s-3,.89-4.41,3.52c-1.58,2.87-3.31,4.88-6.28,4.65A5.73,5.73,0,0,1,70,16.65l-3.45-.27.19-2.4,3.27.25a9.11,9.11,0,0,1,1.47-4.17l2.49,1a8.56,8.56,0,0,0-1.43,4c-.17,2.22,1.21,3.45,2.56,3.55,1.68.13,2.69-1.15,4.11-3.58,1.8-3.3,3.58-4.89,6.7-4.64a6,6,0,0,1,5.6,5.69Z"/><path class="cls-6" d="M117.1,100.59l-.19,2.4-3.45-.27a10.55,10.55,0,0,1-1.8,4.9l-2.58-1a9.23,9.23,0,0,0,1.78-4.6c.18-2.37-1.13-3.74-2.9-3.88s-3,.89-4.41,3.52c-1.58,2.87-3.31,4.88-6.28,4.65A5.73,5.73,0,0,1,92,100.84l-3.45-.27.19-2.4,3.27.25a9.11,9.11,0,0,1,1.47-4.17l2.49,1a8.56,8.56,0,0,0-1.43,4c-.17,2.22,1.21,3.45,2.56,3.55,1.68.13,2.69-1.15,4.11-3.58,1.8-3.3,3.58-4.89,6.7-4.64a6,6,0,0,1,5.6,5.69Z"/><path class="cls-5" d="M17.8,23.26s3.46,6.92,17.3,9.23,35.17-.58,38.06-9.23-9.8-14.42-19-15.57S15.49,6,17.8,23.26Z"/><path class="cls-6" d="M61.74,20.43l-.19,2.4-3.45-.27a10.55,10.55,0,0,1-1.8,4.9l-2.58-1a9.23,9.23,0,0,0,1.78-4.6c.18-2.37-1.13-3.74-2.9-3.88s-3,.89-4.41,3.52c-1.58,2.87-3.31,4.88-6.28,4.65a5.73,5.73,0,0,1-5.32-5.42l-3.45-.27.19-2.4,3.27.25a9.11,9.11,0,0,1,1.47-4.17l2.49,1a8.56,8.56,0,0,0-1.43,4c-.17,2.22,1.21,3.45,2.56,3.55,1.68.13,2.69-1.15,4.11-3.58,1.8-3.3,3.58-4.89,6.7-4.64a6,6,0,0,1,5.6,5.69Z"/><path class="cls-5" d="M43.75,107.45S38,122.44,53,129.94s36.9-8.65,39.79-18.45,3.46-20.18-6.92-24.8S53,86.11,43.75,107.45Z"/><path class="cls-6" d="M79.64,99.36l1.42,1.94-2.8,2a10.55,10.55,0,0,1,1.82,4.89l-2.64.88a9.23,9.23,0,0,0-1.64-4.65c-1.4-1.92-3.29-2.11-4.72-1.06S69.38,106,70,109c.66,3.21.66,5.85-1.75,7.61a5.73,5.73,0,0,1-7.57-.66l-2.8,2L56.5,116l2.65-1.94a9.11,9.11,0,0,1-1.6-4.13l2.56-.83a8.56,8.56,0,0,0,1.52,4c1.31,1.8,3.16,1.83,4.26,1,1.36-1,1.29-2.62.8-5.39-.78-3.68-.46-6,2.07-7.88a6,6,0,0,1,8,.68Z"/></g></g></svg>