<svg xmlns="http://www.w3.org/2000/svg" viewBox="0 0 98.57 59.97"><defs><style>.cls-1{fill:#777764;opacity:0.5;}.cls-2{fill:#ff9500;}.cls-3{fill:#f7d708;}.cls-4{fill:#fef71f;}.cls-5{fill:#fdc403;}.cls-6{fill:#fff528;}</style></defs><title>g2</title><g id="圖層_2" data-name="圖層 2"><g id="圖層_1-2" data-name="圖層 1"><ellipse class="cls-1" cx="49.29" cy="37.77" rx="49.29" ry="22.2"/><path class="cls-2" d="M7.61,37.94s3.81,5.08,19,6.35,54.92,1.59,62.54-5.4V31.27l-6.35-5.08s5.08-1.27,6.35-2.54V17.94s2.54-1.27,2.54-3.17V9.69H9.83V15.4l-1.9,1.27V23h-7v6.35s0,1.9,3.17,3.81,3.17,1.27,3.17,1.27Z"/><path class="cls-3" d="M82.85,26.19s8.25.63,6.35,5.08S77.13,37,77.13,37s-37.46,3.81-49.53.63c0,0,34.29,0,43.81-2.54,0,0,7-1.27,9.52-3.17s1.9-2.54,1.9-2.54Z"/><path class="cls-3" d="M7.93,23l-.11-4.87S.94,19.21.94,23s10.16,5.71,13.33,6.35,39.37,3.81,52.06.63C66.34,30,14.91,30.64,7.93,23Z"/><path class="cls-3" d="M9.83,15.4V12.23a3.35,3.35,0,0,0-1.9,4.44c1.27,3.17,18.41,8.25,41.27,7.62s34.29-3.17,40-6.35c0,0-34.29,6.35-56.51,3.17S9.83,15.4,9.83,15.4Z"/><path class="cls-4" d="M9.83,9.69S7.29,5.88,15.54,3.34,46.66-.47,68.88.16s25.4,7,22.86,9.52S74,14.77,61.9,15.4,17.45,16.67,9.83,9.69Z"/><ellipse class="cls-5" cx="51.1" cy="5.24" rx="31.75" ry="3.81"/><path class="cls-6" d="M65.41,4.71V5.6H61.6A2.7,2.7,0,0,1,60,7.46l-2.92-.31c.8-.42,1.56-1.07,1.56-1.75,0-.88-1.56-1.35-3.51-1.35a6.68,6.68,0,0,0-4.54,1.43,9.86,9.86,0,0,1-6.5,1.9c-3.22,0-5.63-.71-6.3-1.85H34V4.64h3.61A2.26,2.26,0,0,1,38.9,3.06l2.82.31c-.5.31-1.23.84-1.23,1.51s1.62,1.24,3.12,1.24a6.5,6.5,0,0,0,4.21-1.44c1.69-1.27,3.51-1.91,7-1.91,3.25,0,6,.7,6.63,1.94Z"/></g></g></svg>