<svg xmlns="http://www.w3.org/2000/svg" viewBox="0 0 146.42 96.75"><defs><style>.cls-1{fill:#ff0;opacity:0.4;}.cls-2{fill:#ff9500;}.cls-3{fill:#f7d708;}.cls-4{fill:#fef71f;}.cls-5{fill:#fdc403;}.cls-6{fill:#fff528;}</style></defs><title>資產 6</title><g id="圖層_2" data-name="圖層 2"><g id="圖層_1-2" data-name="圖層 1"><ellipse class="cls-1" cx="73.21" cy="70.84" rx="73.21" ry="25.91"/><path class="cls-2" d="M129.66,67.73S126.49,77.25,108.08,83c0,0-19,3.17-28.57-4.44,0,0-27.3,1.9-42.54,0s-19-6.35-19-6.35V69S11.57,69,9,65.83V57.57l2.54-1.27V50.59L14.11,50V43.6L16,41.7V36L17.6,34.4V30.9s-5.4,0-6.67-2.54a8.06,8.06,0,0,1-.63-5.08s-6.35-.63-7-3.17V11.86h73l27.3-7,28.57,19V55Z"/><path class="cls-3" d="M17.28,30.9S14.74,33.44,16,36s7.62,4.44,14.6,5.71S57.28,43,57.28,43v-1.9s-20.32,0-27.94-1.9-10.79-1.9-12.06-5.08Z"/><path class="cls-3" d="M16,41.7V39.16s-2.54.63-1.9,4.44,21,6.35,29.84,7a86.09,86.09,0,0,0,14.84-.08L58.47,49s-21.51.32-30.4-2.22S19.18,44.24,16,41.7Z"/><path class="cls-3" d="M14.11,50V46.54a4.15,4.15,0,0,0-2.54,4c0,3.17,12.7,6.35,19.68,7s30.08-.08,30.08-.08l-.87-1.83S39.5,56.94,30,55,15.37,51.86,14.11,50Z"/><path class="cls-3" d="M11.57,56.3V54.4A2.49,2.49,0,0,0,9,57.57c.63,3.17,9.52,6.35,23.49,7.62a192.34,192.34,0,0,0,32.7-.32l-1-1.59s-36.83.63-43.81-1.9S12.2,58.84,11.57,56.3Z"/><path class="cls-3" d="M38.87,71.54S69,73.92,73,72.41c0,0-1.59-1.35-2-1.75C71,70.67,42,72.18,38.87,71.54Z"/><path class="cls-3" d="M59.19,28.36S32.52,29,26.8,26.46c0,0,31.75,1,33,.16Z"/><path class="cls-3" d="M36.33,34.08S56,36,57.28,35.35l.56-1.27S38.23,34.71,36.33,34.08Z"/><path class="cls-4" d="M64.27,63.29s7,12.06,26,18.41c0,0,28.57,4.44,42.54-17.14s5.08-44.45-5.71-54S102.36-3.38,81.41,3L75.06,6.14s-61-7.62-71.75,5.71c0,0-1.27,3.17,6.35,5.08s17.78,3.17,27.94,3.81S63,20.11,63,20.11,49.66,38.52,64.27,63.29Z"/><path class="cls-5" d="M83.31,13.13S61.09,25.19,71.88,55c0,0,12.7,24.13,40,13.33,0,0,15.87-7.62,16.51-24.13s-7-27.94-23.49-33.65C104.9,10.59,92.84,8,83.31,13.13Z"/><path class="cls-5" d="M68.07,13.13s-40.85,3-51.85-1.38S28.71,6.14,28.71,6.14,56,4.24,73.79,8C73.79,8,69.34,11.22,68.07,13.13Z"/><path class="cls-6" d="M59.53,9.48V10.7H55.72a3.63,3.63,0,0,1-1.56,2.53l-2.92-.42a3.31,3.31,0,0,0,1.56-2.38c0-1.2-1.56-1.83-3.51-1.83a5.6,5.6,0,0,0-4.54,1.94,8.2,8.2,0,0,1-6.5,2.58c-3.22,0-5.63-1-6.3-2.52H28.14V9.39h3.61A3.08,3.08,0,0,1,33,7.23l2.82.42A2.93,2.93,0,0,0,34.6,9.72c0,1.12,1.62,1.68,3.12,1.68,1.86,0,2.85-.68,4.21-2,1.69-1.73,3.51-2.59,7-2.6,3.25,0,6,1,6.63,2.64Z"/><path class="cls-6" d="M98.82,61.89l-5.1-.4.39-5.09a30.16,30.16,0,0,1-10.49-2.9l2.09-3.76a26.17,26.17,0,0,0,9.85,2.86c5,.39,7.88-1.48,8.08-4.09s-2-4.48-7.69-6.7c-6.16-2.48-10.51-5.13-10.17-9.51S90.44,25.09,97,24.71l.39-5.09,5.1.4-.37,4.82a26.13,26.13,0,0,1,8.93,2.38L109,30.85a24.51,24.51,0,0,0-8.55-2.31c-4.72-.37-7.25,1.62-7.4,3.61-.19,2.48,2.57,4,7.79,6.26,7.1,2.82,10.54,5.54,10.19,10.14-.34,4.34-4.63,7.65-11.78,8Z"/></g></g></svg>