<svg xmlns="http://www.w3.org/2000/svg" viewBox="0 0 130.58 91.58"><defs><style>.cls-1{fill:#777764;}.cls-1,.cls-7{opacity:0.5;}.cls-2{fill:#ed8d01;}.cls-3{fill:#fdcd02;}.cls-4{fill:#cc5b02;}.cls-5{fill:#f3c702;}.cls-6{fill:#e69c03;}.cls-7{fill:#fcfea5;}</style></defs><title>g4</title><g id="圖層_2" data-name="圖層 2"><g id="圖層_1-2" data-name="圖層 1"><ellipse class="cls-1" cx="65.29" cy="53.81" rx="65.29" ry="37.76"/><path class="cls-2" d="M14.61,28.27s1.45,15.51,17.93,33.92,49.67,13.33,61.79,5.09S116.13,43,118.55,27.06s0-18.41-10.66-18.41a26.59,26.59,0,0,0-11.15,4.85H36.66S24.06,5.74,17.27,9.13,14.61,28.27,14.61,28.27Z"/><path class="cls-3" d="M100.14,25.12s9.21-4.85,11.63-8.72,1.94-5.82,1-6.3,4.85-1,3.39,2.42-4.36,9.69-9.69,13.57S95.29,34.33,94.32,37.23s-3.88,15-6.3,17.45-1.94,3.88-2.91,3.39.48-6.3,1.45-8.24,1.94-7.27,1.45-8.72-1.45-3.88-3.39,1.45-3.88,13.08-4.85,14.05S62.34,68.25,59.92,58.56s-1-22.78-1-22.78-.48-1,3.88-1S89.48,30.93,93.36,29A70.11,70.11,0,0,0,100.14,25.12Z"/><path class="cls-3" d="M54.1,32.39S33.75,28,25,20.27s-1.94-9.21-1.94-9.21,3.39-1.94-.48-1.94-6.3,0-7.75,4.36,0,11.63,0,11.63a15.84,15.84,0,0,0,1-3.88c.48-2.91,1-5.33,2.42-3.39s1.94,9.21,3.39,15,6.3,17,9.69,21.32S41.5,60.49,40,56.62s-5.82-17.93-6.78-26.17c0,0-1-3.39,1.45-2.42l1.94,1s1.45,12.6,2.91,19.38S41,57.59,42,58.56s9.69,6.3,7.75.48S44.41,46,43.93,35.78c0,0-1.45-3.88,2.42-3.39S55.56,34.81,54.1,32.39Z"/><path class="cls-4" d="M96.75,13.49A2.43,2.43,0,0,1,99.17,13c1.45.48,7.75,7.27,0,11.15S90,29.48,79.3,31.42s-31-.48-37.8-4.85-5.82-9.69-5.82-9.69.48,5.33,8.24,9.69S74.46,32.39,85.12,28s12.6-6.78,12.6-9.69S97.72,13.49,96.75,13.49Z"/><path class="cls-5" d="M36.42,13.73S42.23,4,55.8,1.13s29.08,0,35.38,6.3c0,0,5.57,4.6,6.54,6.06s1.94,8.24-3.39,10.66-10.66,6.78-24.71,6.78-24.23-1-32-9.21C37.63,21.73,34.23,17.85,36.42,13.73Z"/><path class="cls-6" d="M82.69,27.54s13.57-3.39,13.57-8.72S93.36,9.13,85.12,4.28c0,0-5.33-2.42-9.21-2.42s-5.82,0-3.39,1S82.69,8.16,83.66,12s1,11.15,0,12.11S79.3,28.51,82.69,27.54Z"/><path class="cls-6" d="M40,21.73s-2.42-6.78,1-10.18S51.68,4.28,51.2,3.8s-6.78,1.45-12.11,7.27S37.14,19.3,40,21.73Z"/><path class="cls-7" d="M56.77,29.72s-2.42-12.6,2.42-17.93,7.51-8.48,5.57-9.45S54.59,4.77,49.26,11.07,42,23.67,43,25.6C43,25.6,52.16,30.93,56.77,29.72Z"/></g></g></svg>