<svg xmlns="http://www.w3.org/2000/svg" viewBox="0 0 125.77 125.48"><defs><style>.cls-1{fill:#602d39;}</style></defs><title>heartdark_1</title><g id="圖層_2" data-name="圖層 2"><g id="圖層_1-2" data-name="圖層 1"><path class="cls-1" d="M83,52.11c-5.6-14.43-12.71-29.53-23.41-41C45.91-3.5,23-2.08,10.35,13.1c-11,13.27-13,31.68-7,47.68,5.66,15,14.58,28.68,22.47,42.55,3.86,6.79,8.12,13.9,15,18a28.14,28.14,0,0,0,30-.39c5.88-3.74,10.18-9.41,14.62-14.65q7.85-9.27,15.11-19A145.68,145.68,0,0,0,120.7,50.5C126.77,34,131.57,7.24,109.18,1.07,90-4.2,72.59,11,61.75,24.76c-10.58,13.43-19.08,28-27.33,42.91C29.35,76.82,31.89,89.91,41.59,95c9.4,5,22,2.6,27.36-7.18,6.25-11.31,12.53-22.65,20-33.21.85-1.2,1.73-2.36,2.59-3.55,1.33-1.83-1.73,2,.67-.8A92.3,92.3,0,0,1,98.84,43c.41-.39,3.84-3.18,1.6-1.53s1.4-.77,1.86-1.07q2.54-1.27.38-.29t.48,0c-3.37.3-1.64,0,.7.25L93.77,37.63l1.28.62-7.18-7.18c.33.5-2.31-9-1.92-5.53.26,2.32.24-1.11.22-1.27.17,1.39-.59,3.41-.88,4.78a82.52,82.52,0,0,1-3.17,10.82c-.57,1.56-2,4.33-.42,1.21-.71,1.46-1.36,2.95-2.09,4.4-1.71,3.41-3.61,6.74-5.63,10-1.75,2.81-3.6,5.56-5.51,8.26-1,1.36-2,2.69-2.94,4-.47.64-2.32,3,.09-.07q-1,1.31-2.07,2.62c-4.43,5.54-9,11.11-13.8,16.3-.48.52-1.07,1-1.52,1.54-1.34,1.62,1-.82,1.26-1,4.43-2.39,11-1.6,14.59,1.93-2.53-2.49,1.56,3-.34-.17-1-1.63-1.95-3.28-2.89-4.94L48,61.41c-1.94-3.41-3.8-6.84-5.6-10.32-.11-.21-1.37-2.9-.46-.86s-.24-.66-.33-.91c-.66-2-1-4-1.7-6-.85-2.55.44,1.21.1,1.29,0,0-.09-2-.09-2.13a9.74,9.74,0,0,0,0-2.14c.82.86-.91,4-.12,1.08a17.72,17.72,0,0,0,.55-2.06c.29-2.06-.37,1.33-.77,1.5a9,9,0,0,0,1-1.83c.73-2-2.29,2.09-.67.74,3.53-2.95-2.13,1.23,1-.68a8.35,8.35,0,0,1-3.12,1.19,4.94,4.94,0,0,1-4.12-.61q-5-1.77-1.7-.09c-.46-.28-2.27-2.36-1.25-.75.24.38,2.56,2.94.85.83s.1.2.34.56c.64,1,1.31,1.88,1.94,2.84q3.32,5,6.15,10.34c1.08,2,2.06,4.09,3.05,6.16.13.26,1.33,2.87.38.76-1.06-2.37.95,2.42.93,2.39,3.77,9.72,13.6,17.53,24.6,14,9.46-3.06,18-14.16,14-24.6Z"/></g></g></svg>