<svg xmlns="http://www.w3.org/2000/svg" viewBox="0 0 555.56 551.99"><defs><style>.cls-1{fill:#4d9cde;}</style></defs><title>heel_1</title><g id="圖層_2" data-name="圖層 2"><g id="圖層_1-2" data-name="圖層 1"><circle class="cls-1" cx="534.38" cy="217.66" r="21.18"/><circle class="cls-1" cx="34.43" cy="189.43" r="21.18"/><circle class="cls-1" cx="502.47" cy="412" r="21.18" transform="translate(-13.41 807.08) rotate(-76.8)"/><path class="cls-1" d="M536,317.08a21.18,21.18,0,0,0-22.31,8.65,239.2,239.2,0,0,0-29.83-171.68,21.18,21.18,0,1,0-14-20.48,239.83,239.83,0,0,0-46.65-46.38h.54a21.16,21.16,0,1,0-19.49-12.89,237.08,237.08,0,0,0-63.45-27.05,21.16,21.16,0,1,0-12.76-3,239.53,239.53,0,0,0-48-4.84q-12.13,0-24,1.19a21.18,21.18,0,1,0-11.73,1.47,236.73,236.73,0,0,0-69.43,21.72A21.18,21.18,0,1,0,158,72.25c.45,0,.9,0,1.35,0a239.52,239.52,0,0,0-55.77,45.3,21.19,21.19,0,1,0-8.36,9.72A237.36,237.36,0,0,0,41.83,267.59,21.19,21.19,0,1,0,41.59,278a238.46,238.46,0,0,0,9.86,68A21.18,21.18,0,1,0,62,374.44a238.38,238.38,0,0,0,31,51.32A21.2,21.2,0,1,0,113.9,448.9,239.32,239.32,0,0,0,161,484.55a21.18,21.18,0,1,0,24.68,12.38,236.71,236.71,0,0,0,56.34,16.37,21.18,21.18,0,1,0,27.13,2.77c3.6.16,7.22.26,10.85.26A239.36,239.36,0,0,0,330.12,511a21.18,21.18,0,1,0,27.69-7.7q6.23-2.15,12.3-4.63l.38.86,3.81-1.66-.35-.8a237.92,237.92,0,0,0,39.39-21.49c-.22.65-.42,1.32-.58,2a21.19,21.19,0,1,0,21.87-16.3l2.52-2.44-.85-.88A238.49,238.49,0,0,0,510.17,340.5,21.18,21.18,0,1,0,536,317.08ZM58.05,274.88c0-121.5,98.49-220,220-220s220,98.49,220,220a220.39,220.39,0,0,1-6.93,55l-10.32-1.49a210.82,210.82,0,0,0,6.87-53.5q0-7.35-.51-14.62L500.21,257l2-5-15.4,4.08a209.61,209.61,0,0,0-357-129.41A208.24,208.24,0,0,0,68.43,274.88a210.52,210.52,0,0,0,8.16,58.2L63.21,336l1,4,13.57-2.91a208.59,208.59,0,0,0,52,86A212.74,212.74,0,0,0,151.49,442l-6.91,7.75A219.62,219.62,0,0,1,58.05,274.88Zm427.11,0A206.7,206.7,0,0,1,478.24,328L308.8,303.56a44.66,44.66,0,0,0,4.67-5.23l171.2-37.53C485,265.46,485.16,270.15,485.16,274.88ZM316.74,293.36a44.11,44.11,0,0,0,5.1-14.23L486.21,178l-1-5L322.45,273.87c0-.79.07-1.59.07-2.4,0-7-18.44,6.4-21.3.53l132-158-4-3-127,154c-3-4.93-4.33,4.4-9,1l70-201-3-5-72,205c-5.82-3.43-.87,1.46-8,1l1-213-5,1V259c-6.24.17,1.34,6.51-4,9l-69-203-4,1,68,202c-5.76,3.38-3.28-5.52-7,0l-135-162h-5l133,161c-3.07,5.71,6.3,12.13,6,19l-186-115-3,3,190,118c.33,5-25-7.75-23.1-3.32L49.21,256l-1,4,191.17,33.3a44.57,44.57,0,0,0,5.84,8.09L79.12,332.61a206.54,206.54,0,0,1-8.2-57.73C70.92,160.68,163.84,67.76,278,67.76c108.05,0,197,83.17,206.3,188.86ZM278.08,315.9c1.48,0,2.95-.08,4.39-.22L277.33,482a206.4,206.4,0,0,1-60.22-9.14l60.64-157Zm-29.22-11a44.49,44.49,0,0,0,8.17,5.68L91.21,405l1,4,169.44-96.25q1.87.74,3.82,1.32l-112.25,126A207.89,207.89,0,0,1,80.32,336.61Zm21.2,10.24c1.1.2,2.21.37,3.33.49L213.16,471.58a206.67,206.67,0,0,1-56.58-29ZM212.22,474l-3.73,9.64a219.31,219.31,0,0,1-60.58-31.38l6.92-7.76A207.38,207.38,0,0,0,212.22,474Zm4,1.26a210.24,210.24,0,0,0,61.07,9.23l-.32,10.38a219.85,219.85,0,0,1-64.48-9.93Zm70.46-160.18c.84-.17,1.68-.35,2.51-.56l66.41,152.42a205.89,205.89,0,0,1-74.08,15Zm8.27,2.28L409.16,435.09a207.43,207.43,0,0,1-49.76,30.25Zm.83-5.11c1-.42,1.91-.87,2.84-1.36L451.25,388.3a208.77,208.77,0,0,1-38.9,44.11Zm7.07-3.86q.89-.6,1.75-1.24L477.13,332a206.13,206.13,0,0,1-23.62,52.75Zm176.86,24L490,333.91a218.78,218.78,0,0,1-24.9,56.77L455.86,386A207,207,0,0,0,479.69,332.42ZM281.09,494.83l.32-10.38a209.16,209.16,0,0,0,75.19-15.13l4.12,9.47A219.22,219.22,0,0,1,281.09,494.83Zm79.35-27.11A208.25,208.25,0,0,0,411,437l7.24,7.46a220,220,0,0,1-53.66,32.77Zm71.25-9.42c-.44,0-.87,0-1.3,0l.73-.61ZM421.4,441.74l-7.24-7.46q6.22-5.33,12.09-11.19a211.58,211.58,0,0,0,27.35-33.6l9.28,4.71A221.15,221.15,0,0,1,421.4,441.74Z"/><circle class="cls-1" cx="277.78" cy="276" r="54.5"/></g></g></svg>