<svg xmlns="http://www.w3.org/2000/svg" viewBox="0 0 516 371.81"><defs><style>.cls-1{fill:#f05c79;}.cls-2{fill:#fcc6d0;}</style></defs><title>indexProfile</title><g id="圖層_2" data-name="圖層 2"><g id="圖層_1-2" data-name="圖層 1"><path class="cls-1" d="M0,46.19V290.54c0,25.4,50.63,46.19,112.51,46.19h63.76a108.56,108.56,0,0,0,16.93,3.43,22.09,22.09,0,0,0,4.71,2.82c5.29,2.42,12.52,3.62,17.11,6.32,3.33,2,4.62,3.88,9.5,5.4,8.09,4.32,16.47,8.57,21.19,13.68,3.34,3.62,16,5,21.16,1.14a369.6,369.6,0,0,0,38.84-32.78h97.77c61.88,0,112.51-20.78,112.51-46.19V46.19C516,20.78,465.37,0,403.49,0h-291C50.63,0,0,20.78,0,46.19Z"/><path class="cls-2" d="M40.8,78c-9.41,11.45-22.65,55.33-3.2,82.67,17.22,24.21-41.62,101,7.11,101S199.65,273,226.12,270.45c28.77-2.82,122.72,3.48,145.66,9.6s60.33-24.17,89-24.17,35.08-75.08,24.66-108.93C464.57,79.12,460.27,83.79,440.38,69c-37-27.42-79.47-27.23-93.41-27.23-17.2,0-83.27,14.69-132.4,4.54C168.19,36.78,66.37,46.86,40.8,78Z"/></g></g></svg>