<svg xmlns="http://www.w3.org/2000/svg" xmlns:xlink="http://www.w3.org/1999/xlink" viewBox="0 0 39.5 55.72"><defs><style>.cls-1{fill:none;}.cls-2{fill:#ef5c79;}.cls-3{clip-path:url(#clip-path);}.cls-4{fill:#f6c2cb;}.cls-5{fill:#da4d55;}.cls-6{fill:#fff;}.cls-7{fill:#574438;}</style><clipPath id="clip-path"><circle class="cls-1" cx="19.75" cy="19.75" r="19.75"/></clipPath></defs><title>loginPhoto</title><g id="圖層_2" data-name="圖層 2"><g id="圖層_1-2" data-name="圖層 1"><circle class="cls-2" cx="19.75" cy="19.75" r="19.75"/><g class="cls-3"><path class="cls-4" d="M12.94,47.26a.5.5,0,0,0-.15-.65,1.34,1.34,0,0,1-.35-.29c-.06-.08,0-.29.1-.46s.34-.58.54-.86c.53-1,1.08-2.28,1.51-3.34.65-1.62,1.08-4.88.32-6a4.29,4.29,0,0,0-.54-.54s-.54,1-1.83,3.34c-1.57,2.88-2.74,5-3.13,6.9s-.22,2.28,0,2.56.82.87,1.22.87.78-.47.93-.79.3-.68.3-.68a1.93,1.93,0,0,0,.49.25C12.46,47.52,12.82,47.58,12.94,47.26Z"/><path class="cls-4" d="M28.39,47.37a.5.5,0,0,1,.15-.65,1.34,1.34,0,0,0,.35-.29c.06-.08,0-.29-.1-.46s-.34-.58-.54-.86c-.53-1-1.08-2.28-1.51-3.34-.65-1.62-1.08-4.88-.32-6a4.29,4.29,0,0,1,.54-.54s.54,1,1.83,3.34c1.57,2.88,2.74,5,3.13,6.9s.22,2.28,0,2.56-.82.87-1.22.87-.78-.47-.93-.79-.41-.8-.41-.8a.61.61,0,0,1-.38.37C28.86,47.63,28.51,47.68,28.39,47.37Z"/><path class="cls-4" d="M27,52.78a1,1,0,0,1,0-.43c0-.32-.19-5.62-.19-5.62a.72.72,0,0,0-.51-.55,2.38,2.38,0,0,0-1.88,0A3.22,3.22,0,0,0,22,48.76l.08.54c0,.13.38,4.88.42,5a1.82,1.82,0,0,0,1.23,1.18,19.53,19.53,0,0,0,3.94.13s.95-.26,1-.76a1.33,1.33,0,0,0-.34-1.07A8.83,8.83,0,0,0,27,52.78Z"/><path class="cls-4" d="M18.8,47.58a3.36,3.36,0,0,0-2.37-1.29,3.08,3.08,0,0,0-2.06.58.32.32,0,0,1,0,.07c0,.19-.3,5.06-.24,5.53s-.1.34-.31.44a3.22,3.22,0,0,0-1.45,1.58c-.44,1,1,1.13,1.09,1.16a26.17,26.17,0,0,0,3.56,0c.41-.13,1.39-.46,1.52-1.24s.49-5,.49-5A2.36,2.36,0,0,0,18.8,47.58Z"/><path class="cls-4" d="M26.75,46.95c1.15-1.59,1.33-3,1.65-7.56a3.08,3.08,0,0,0-.11-1.4,13.67,13.67,0,0,0-1-1.94c-.51-1.07-.73-1.62-.73-1.62H14.86l-.58,1c-.44.73-.54.94-.75,1.29a2.87,2.87,0,0,0-.43.86A26.51,26.51,0,0,0,13,41.32c-.11,4.21,1.29,5.71,1.4,5.82A16.75,16.75,0,0,0,17,49a8.26,8.26,0,0,0,2.28.4l2.72,0a10.86,10.86,0,0,0,2.88-.68A5.58,5.58,0,0,0,26.75,46.95Z"/><path class="cls-4" d="M31.56,18A11.77,11.77,0,0,0,24,12.29a50.62,50.62,0,0,0,1.35-5.67c.22-2,.62-3.54-.45-4.31s-1.94-.44-2.18,0A87.14,87.14,0,0,0,21.25,11a7.93,7.93,0,0,1-.09,1c-.62,0-1.27,0-1.92.06a8.61,8.61,0,0,1-.1-1,87.17,87.17,0,0,0-1.48-8.68c-.24-.44-1.11-.76-2.18,0S14.79,4.6,15,6.62a52,52,0,0,0,1.38,5.81,20.56,20.56,0,0,0-3.28.93c-3,1.16-5.88,5.56-6,7.7s-1.46,8,3.67,12.21a8.29,8.29,0,0,0,3.56,2c2.08.51,9.94.94,12.64-.58s4.49-3,5.3-5.92S33.54,21.54,31.56,18Z"/><ellipse class="cls-5" cx="13.72" cy="26.68" rx="1.51" ry="0.73"/><ellipse class="cls-5" cx="26.48" cy="26.68" rx="1.51" ry="0.73"/><path class="cls-6" d="M15,27.29s-.81.82-.36,1.52a3.34,3.34,0,0,0,2.51,1.28c1.19.15,5.24.33,6.52-.21s2-1.76,1.46-2.58-3.24-1.82-5-1.73S15.93,26.31,15,27.29Z"/><ellipse class="cls-7" cx="13.75" cy="24.32" rx="1.51" ry="1.47"/><ellipse class="cls-7" cx="26.39" cy="24.32" rx="1.51" ry="1.47"/><path class="cls-7" d="M23.27,28a4.17,4.17,0,0,1-1.9,0,2.44,2.44,0,0,1-.78-1.33.88.88,0,0,0,.47-.24,1.7,1.7,0,0,0,.34-1.5c-.2-.27-2.42-.52-2.32.43a1.5,1.5,0,0,0,.46,1.07,1.26,1.26,0,0,0,.61.25A2.44,2.44,0,0,1,19.37,28a4.17,4.17,0,0,1-1.9,0,.19.19,0,0,0-.21,0,.17.17,0,0,0,0,.25,4.18,4.18,0,0,0,1.39.19,1.8,1.8,0,0,0,.94-.18,2.62,2.62,0,0,0,.78-1.09,2.62,2.62,0,0,0,.78,1.09,1.8,1.8,0,0,0,.94.18,4.18,4.18,0,0,0,1.39-.19.17.17,0,0,0,0-.25A.19.19,0,0,0,23.27,28Z"/><path class="cls-7" d="M26.95,21a12.74,12.74,0,0,0-2.69.61,21.89,21.89,0,0,0,5.07-.47A12,12,0,0,0,26.95,21Z"/><path class="cls-7" d="M13.24,21.1a12.74,12.74,0,0,1,2.69.61,21.89,21.89,0,0,1-5.07-.47A12,12,0,0,1,13.24,21.1Z"/></g></g></g></svg>