<svg xmlns="http://www.w3.org/2000/svg" xmlns:xlink="http://www.w3.org/1999/xlink" viewBox="0 0 708.38 412.96"><defs><style>.cls-1,.cls-12{fill:none;}.cls-2,.cls-3,.cls-5{fill:#fff;}.cls-2,.cls-3{stroke:#fff;}.cls-11,.cls-12,.cls-2,.cls-3,.cls-4{stroke-miterlimit:10;}.cls-2{stroke-width:12px;}.cls-3{stroke-width:11px;}.cls-4{fill:#040000;stroke:#070001;stroke-width:3px;}.cls-6{clip-path:url(#clip-path);}.cls-7{fill:#7f675c;}.cls-8{fill:#f7c3cc;}.cls-9{fill:#2b102e;}.cls-10{fill:#db4e55;}.cls-11{fill:#e25a74;stroke:#040000;}.cls-12{stroke:#080103;stroke-width:2px;}</style><clipPath id="clip-path"><path class="cls-1" d="M569.72,31.45,415.92,7.12C356-2.36,297.22,49.26,285.33,121.83h0C273.44,194.4,312.74,261.54,372.68,271l-3.71-.67c1.29,13.71-1.7,25.82-.41,39.53,1.09,11.59,9.88,17.88,18.48,9.88,12.43-11.56,18.08-28.85,27.7-43.17l111.74,18.77c59.93,9.48,118.7-42.14,130.59-114.71h0C669,108.07,629.65,40.94,569.72,31.45Z"/></clipPath></defs><title>logo</title><g id="圖層_2" data-name="圖層 2"><g id="圖層_1-2" data-name="圖層 1"><path class="cls-2" d="M569.72,31.45,415.92,7.12C356-2.36,297.22,49.26,285.33,121.83h0C273.44,194.4,312.74,261.54,372.68,271l-3.71-.67c1.29,13.71-1.7,25.82-.41,39.53,1.09,11.59,9.88,17.88,18.48,9.88,12.43-11.56,18.08-28.85,27.7-43.17l111.74,18.77c59.93,9.48,118.7-42.14,130.59-114.71h0C669,108.07,629.65,40.94,569.72,31.45Z"/><path class="cls-3" d="M14.4,301s9.13-1.67,16.19-5.62,18-12.8,18.87-20-6.33-11.48-8.28-10.29-17,15.67-18.5,16.38-4.38-2.27-1.83-6.22,10.05-14.59,11.11-20-6.24-11.24-9-8.49S7.22,270.7,5.64,288.4C5.64,288.4,3.69,299.4,14.4,301Z"/><path class="cls-3" d="M41.3,363.62s-.12,4.54,2.31,6.22,5.84-2.15,6.57-11.36,3.41-37-11.68-44.49-22.88,6.1-23.13,8.25-1,27.75,7.42,38.51c0,0,5.6,6.82,6.82.72s-.12-13.63-.12-13.63,2.92-2,8.89-1.79S41.3,363.62,41.3,363.62Z"/><path class="cls-3" d="M80.62,287.92s15.7-8.73,16.92-10.76S98,270,91,270.94a19.64,19.64,0,0,0-8.89,4.78c-4.26,3.95-4.63-.24-4.63-.24s-2.92-5.26-11.08-3.47-6.94,4.31-6.94,4.78,3.16,26.79,7.18,30.62,15.94,3.23,20.57,0,13.27-12.68,14.24-17.46-1.95-6.58-6.45-4.78-11.56,7.06-12.54,7.3S77,292.34,80.62,287.92Z"/><path class="cls-3" d="M89.26,354.77c.37,0,16.8-3.18,25.32-13.79,0,0,6-6.42,3.41-8.93s-4.75-5.5-8.4-3.83-11,9.93-14.36,11.72S85,343.29,84.75,338.87s3.16-6.34,8.76-9.09,15.82-8.85,16.07-11.84-4.14-8.09-6.21-7.87-18.74,10.74-21.54,10.27-2.19-1.44-4.63-3.71-5.72-.6-6.21,1.2-.37,27.39,6,32.77S89.26,354.77,89.26,354.77Z"/><path class="cls-3" d="M20.55,390.65s5.84,11.3,11,14.89,9.49,2.51,13.88-6.28c0,0-5.66-16.15-11-20.45s-11.68-1.61-13.88.72S19,387.89,20.55,390.65Z"/><path class="cls-3" d="M53.78,390.29s3.1,10.76,6.76,11.84,9.68-5.92,8.58-18.12-2.61-15.61-7.6-15.61-12.12,4.77-12.66,8.12S53.78,390.29,53.78,390.29Z"/><path class="cls-3" d="M77.33,380.61s-.91,9.69,1.83,16,9.13,4.48,11.14,0,3.29-23.14,0-27.09-9.68-1.79-11.87,2.87A12.35,12.35,0,0,0,77.33,380.61Z"/><path class="cls-3" d="M99.6,364.1s-2.19-4.13,3.47-7.36,8.76-3.23,9.86,1.61-1.1,31.39-3.65,34.44-7.59,7.53-10.09,1.44S99.6,364.1,99.6,364.1Z"/><path class="cls-3" d="M159.12,291.87s68.65-23.68,71.57-27.27,5.6-10.52,1.95-12.2-13.88,4.78-21.67,7.65-19.23,6.94-23.37.24-4.38-11.07-15.09-8.17-2.92,12.71-2.19,15.1,3.65,3.83,0,6.22-21.67,7.41-24.59,10.52-6.82,3.11-6.33,17,4.87,99.26,7.79,102.61,16.07.72,16.55-4.07-5.36-56.93-5.6-62.43c0,0-5.36-28.22-3.65-34.92S156,293,159.12,291.87Z"/><path class="cls-3" d="M173.24,324.64s-7.79,2.87-10.71,0-2.68-8.61,0-9.57,11.93-3.35,11.93-3.35-3.41-12.44,0-14.83,7.06-2.87,7.79,0l1.58,9.21s.12,2.63,4.14,1.79,29.82-3.95,31.52-3.95,3.29-.36,3.41-3.35-1.58-11.84-.85-13.39,2.92-1.44,6.45,0,4.26,8.13,4.75,11,.85,5.26,2.92,5,9.49-.24,10.59,3.59.61,5.26-1.46,6.22-7.67.72-8.89,2,5.78,54.59,6,57.82,2,9.33-.37,12.38-8.22,3.41-9.31-2.51-8.4-64.4-8.4-64.4-1.46-1-5.93-.54-28.57,2.51-28.57,2.51-1.64-2-1.1,3.23,7.67,66.91,6.94,69.78-9.68,9.51-11.5,3-7.67-72.83-7.67-72.83S175.49,322.3,173.24,324.64Z"/><path class="cls-3" d="M166.24,340.6s0,29.78,1.46,33.9,4.38,5.38,6.57,3.95.91-33.37,0-35S167.7,335.58,166.24,340.6Z"/><path class="cls-3" d="M200.2,335.22s.73,18.48,2.56,21.53,5.66,1.71,8.58,2.11,5.84,6.14,3.29,8.65-10,3.23-12.23,2.33-4.56.18-6-8.07-2.56-23.32-2.37-25.11S196.55,330.73,200.2,335.22Z"/><path class="cls-3" d="M215.61,333.2s3.22,35.41,4.31,37,7.85,3.58,7.12-5.21-2.37-30.79-3.47-32.53S217.32,328.13,215.61,333.2Z"/><path class="cls-3" d="M240.19,330.24s2.92,29.56,4.75,33.68,12.42,1.44,19.17,0,9.13-3.77,7.67-6.46-2.74-3.54-6.21-2.58-12.78,5-14.06,0-3.83-23.89-5.11-24.65S239.81,326.55,240.19,330.24Z"/><path class="cls-3" d="M316.87,294.74s19.72-.24,23.37-4.31,1.7-10.29-1.7-11.48-29.7,1.44-29.7,1.44-1-15.07-4.38-17-14.85-1.67-14.36,4.78S292,282.54,292,282.54s1.43,1.91-2,2.39S271.83,288,269.88,289s-5.11,5.5-4.14,8.85,2.17,5.26,6.44,4.54,20.1-2.87,20.1-2.87,4.87-1.14,5.36,3S301.53,323,301.53,323s1,2.39-3.16,3.83-14.61,2.87-16.07,4.78-4.38,8.85,1.7,9.57,34.32-2.63,41.87-4.54,10.71-6,7.55-10.52-16.55-1.2-16.55-1.2S313.7,327,313,317.94s-2.19-19.85-2.19-19.85S311.53,295,316.87,294.74Z"/><path class="cls-3" d="M287.66,364.82s-1,10.52,1.7,18.66,8.76,17,15.58,18.66,25.8-2.63,29.46-17-1.7-30.62-6.09-32.29-24.59-3.35-34.08,3.35C294.23,356.21,288.87,359.56,287.66,364.82Z"/><path class="cls-4" d="M14.4,303.09s9.13-1.67,16.19-5.62,18-12.8,18.87-20S43.13,266,41.18,267.21s-17,15.67-18.5,16.38-4.38-2.27-1.83-6.22,10.05-14.59,11.11-20-6.24-11.24-9-8.49S7.22,272.84,5.64,290.54C5.64,290.54,3.69,301.54,14.4,303.09Z"/><path class="cls-4" d="M41.3,365.76s-.12,4.54,2.31,6.22,5.84-2.15,6.57-11.36,3.41-37-11.68-44.49-22.88,6.1-23.13,8.25-1,27.75,7.42,38.51c0,0,5.6,6.82,6.82.72S29.49,350,29.49,350s2.92-2,8.89-1.79S41.3,365.76,41.3,365.76Z"/><path class="cls-4" d="M80.62,290.06s15.7-8.73,16.92-10.76.49-7.18-6.57-6.22a19.64,19.64,0,0,0-8.89,4.78c-4.26,3.95-4.63-.24-4.63-.24s-2.92-5.26-11.08-3.47-6.94,4.31-6.94,4.78,3.16,26.79,7.18,30.62,15.94,3.23,20.57,0,13.27-12.68,14.24-17.46-1.95-6.58-6.45-4.78-11.56,7.06-12.54,7.3S77,294.48,80.62,290.06Z"/><path class="cls-4" d="M89.26,356.91c.37,0,16.8-3.18,25.32-13.79,0,0,6-6.42,3.41-8.93s-4.75-5.5-8.4-3.83-11,9.93-14.36,11.72S85,345.43,84.75,341s3.16-6.34,8.76-9.09,15.82-8.85,16.07-11.84-4.14-8.09-6.21-7.87-18.74,10.74-21.54,10.27-2.19-1.44-4.63-3.71-5.72-.6-6.21,1.2-.37,27.39,6,32.77S89.26,356.91,89.26,356.91Z"/><path class="cls-4" d="M20.55,392.79s5.84,11.3,11,14.89,9.49,2.51,13.88-6.28c0,0-5.66-16.15-11-20.45s-11.68-1.61-13.88.72S19,390,20.55,392.79Z"/><path class="cls-4" d="M53.78,392.43s3.1,10.76,6.76,11.84,9.68-5.92,8.58-18.12-2.61-15.61-7.6-15.61-12.12,4.77-12.66,8.12S53.78,392.43,53.78,392.43Z"/><path class="cls-4" d="M77.33,382.74s-.91,9.69,1.83,16,9.13,4.48,11.14,0,3.29-23.14,0-27.09-9.68-1.79-11.87,2.87A12.35,12.35,0,0,0,77.33,382.74Z"/><path class="cls-4" d="M99.6,366.24s-2.19-4.13,3.47-7.36,8.76-3.23,9.86,1.61-1.1,31.39-3.65,34.44-7.59,7.53-10.09,1.44S99.6,366.24,99.6,366.24Z"/><path class="cls-4" d="M159.12,294s68.65-23.68,71.57-27.27,5.6-10.52,1.95-12.2-13.88,4.78-21.67,7.65-19.23,6.94-23.37.24-4.38-11.07-15.09-8.17-2.92,12.71-2.19,15.1,3.65,3.83,0,6.22-21.67,7.41-24.59,10.52-6.82,3.11-6.33,17,4.87,99.26,7.79,102.61,16.07.72,16.55-4.07-5.36-56.93-5.6-62.43c0,0-5.36-28.22-3.65-34.92S156,295.09,159.12,294Z"/><path class="cls-4" d="M173.24,326.77s-7.79,2.87-10.71,0-2.68-8.61,0-9.57,11.93-3.35,11.93-3.35-3.41-12.44,0-14.83,7.06-2.87,7.79,0l1.58,9.21S184,310.87,188,310s29.82-3.95,31.52-3.95,3.29-.36,3.41-3.35-1.58-11.84-.85-13.39,2.92-1.44,6.45,0,4.26,8.13,4.75,11,.85,5.26,2.92,5,9.49-.24,10.59,3.59.61,5.26-1.46,6.22-7.67.72-8.89,2,5.78,54.59,6,57.82,2,9.33-.37,12.38-8.22,3.41-9.31-2.51-8.4-64.4-8.4-64.4-1.46-1-5.93-.54-28.57,2.51-28.57,2.51-1.64-2-1.1,3.23,7.67,66.91,6.94,69.78-9.68,9.51-11.5,3-7.67-72.83-7.67-72.83S175.49,324.44,173.24,326.77Z"/><path class="cls-4" d="M166.24,342.74s0,29.78,1.46,33.9,4.38,5.38,6.57,3.95.91-33.37,0-35S167.7,337.72,166.24,342.74Z"/><path class="cls-4" d="M200.2,337.36s.73,18.48,2.56,21.53,5.66,1.71,8.58,2.11,5.84,6.14,3.29,8.65-10,3.23-12.23,2.33-4.56.18-6-8.07-2.56-23.32-2.37-25.11S196.55,332.87,200.2,337.36Z"/><path class="cls-4" d="M215.61,335.34s3.22,35.41,4.31,37,7.85,3.58,7.12-5.21-2.37-30.79-3.47-32.53S217.32,330.27,215.61,335.34Z"/><path class="cls-4" d="M240.19,332.37s2.92,29.56,4.75,33.68,12.42,1.44,19.17,0,9.13-3.77,7.67-6.46-2.74-3.54-6.21-2.58-12.78,5-14.06,0-3.83-23.89-5.11-24.65S239.81,328.69,240.19,332.37Z"/><path class="cls-4" d="M316.87,296.87s19.72-.24,23.37-4.31,1.7-10.29-1.7-11.48-29.7,1.44-29.7,1.44-1-15.07-4.38-17-14.85-1.67-14.36,4.78S292,284.68,292,284.68s1.43,1.91-2,2.39-18.24,3.11-20.19,4.07-5.11,5.5-4.14,8.85,2.17,5.26,6.44,4.54,20.1-2.87,20.1-2.87,4.87-1.14,5.36,3,3.89,20.42,3.89,20.42,1,2.39-3.16,3.83-14.61,2.87-16.07,4.78-4.38,8.85,1.7,9.57,34.32-2.63,41.87-4.54,10.71-6,7.55-10.52-16.55-1.2-16.55-1.2-3.16,2.15-3.89-6.94-2.19-19.85-2.19-19.85S311.53,297.09,316.87,296.87Z"/><path class="cls-4" d="M287.66,367s-1,10.52,1.7,18.66,8.76,17,15.58,18.66,25.8-2.63,29.46-17-1.7-30.62-6.09-32.29-24.59-3.35-34.08,3.35C294.23,358.35,288.87,361.69,287.66,367Z"/><path class="cls-5" d="M569.72,31.45,415.92,7.12C356-2.36,297.22,49.26,285.33,121.83h0C273.44,194.4,312.74,261.54,372.68,271l-3.71-.67c1.29,13.71-1.7,25.82-.41,39.53,1.09,11.59,9.88,17.88,18.48,9.88,12.43-11.56,18.08-28.85,27.7-43.17l111.74,18.77c59.93,9.48,118.7-42.14,130.59-114.71h0C669,108.07,629.65,40.94,569.72,31.45Z"/><g class="cls-6"><path class="cls-7" d="M683.58,126.21a104.57,104.57,0,0,0-12.68-13l.45-.28a18.63,18.63,0,0,0,11.83-17.32c0-10.28-6.15-23.33-18-23.46-7.26-3-16.11.56-22,5.06a22.28,22.28,0,0,0-3.52,3.33,13.82,13.82,0,0,0-4.77,9.85,13.38,13.38,0,0,0-.28,2.16,109.28,109.28,0,0,0-37.49-5.91c-27.73.69-63.64,11.57-89.48,26.8-.64.38-1.27.78-1.9,1.19a13.51,13.51,0,0,0-1-2,14,14,0,0,0-7.88-7.68,22.63,22.63,0,0,0-4.46-2c-7.11-2.27-16.69-2.72-22.47,2.56-11.08,4-12.42,18.38-8.84,28A18.92,18.92,0,0,0,478.16,146l.42.09c-9.41,16.89-14.71,35.38-13.36,46.24,2.43,19.52-.62,74.11,53.08,104.46,0,0,16,11.46,35.8,12.8s92.3-7,114.56-25,36.29-33.92,38.92-61.74S707.3,155.27,683.58,126.21Z"/><path class="cls-8" d="M470.06,191.95c-8.07-32.42-30.28-55.29-52.8-67.14,9.34-16.15,21.16-37.31,25-47.32,6.67-17.39,13.68-30.05,6.11-39.19s-16-8.18-19.07-4.84-31.51,67-33.21,73.66A74.07,74.07,0,0,1,393,115.6c-5.43-1.48-11.12-2.72-17-3.73a80,80,0,0,1,1.53-9.47c1.82-6.68,8.33-75.85,7.25-80.25s-7.94-9.24-19.07-4.84-11.24,18.81-14,37.2c-1.61,10.83-1.67,35.83-1.44,54.56a184.55,184.55,0,0,0-30.9,1c-29.24,3.58-64.43,36.25-70.38,55s-31.34,67.34,3.65,116.45c0,0,9.39,16.82,26.42,26S363.83,337.93,391,330.39s46.26-16.45,60.16-40.77S479,227.91,470.06,191.95Z"/><path class="cls-5" d="M554.54,229.81s-5.24,9.34.55,14.59,14.57,7.06,25.52,5.65,47.6-9.3,57.64-17.25,13.54-20.66,6.64-26.8-33.38-8.89-49-3.88S560.27,218.87,554.54,229.81Z"/><path class="cls-9" d="M585.91,202.78s1.73,6.35,6.78,8.57,11.52.22,13.53-3.56,1.78-12.34-.64-14.35S582.7,194.46,585.91,202.78Z"/><path class="cls-5" d="M576.35,185a25.66,25.66,0,0,1-18.49,31.48,26.21,26.21,0,0,1-32-18.17,25.66,25.66,0,0,1,18.49-31.48A26.21,26.21,0,0,1,576.35,185Z"/><path class="cls-5" d="M653,163.77a25.66,25.66,0,0,1-18.49,31.48,26.21,26.21,0,0,1-32-18.17A25.66,25.66,0,0,1,621,145.61,26.21,26.21,0,0,1,653,163.77Z"/><path class="cls-9" d="M571.65,186a13.68,13.68,0,0,1-9.86,16.79,14,14,0,0,1-17.09-9.69,13.68,13.68,0,0,1,9.86-16.79A14,14,0,0,1,571.65,186Z"/><path class="cls-9" d="M635.46,170.26a13.68,13.68,0,0,1-9.86,16.79,14,14,0,0,1-17.09-9.69,13.68,13.68,0,0,1,9.86-16.79A14,14,0,0,1,635.46,170.26Z"/><path class="cls-9" d="M621.48,127.77s-29.3,22.49-28.16,30.63,63.17-28.25,59.56-33.63S621.48,127.77,621.48,127.77Z"/><path class="cls-9" d="M532.34,151.26s36.83,5.07,40,12.68-69.08,6.6-68.69.16S532.34,151.26,532.34,151.26Z"/><path class="cls-9" d="M329.75,180.11a13.17,13.17,0,0,1-17.06,7,12.78,12.78,0,0,1-7.17-16.76,13.17,13.17,0,0,1,17.06-7A12.78,12.78,0,0,1,329.75,180.11Z"/><path class="cls-9" d="M431,220.72a13.17,13.17,0,0,1-17.06,7A12.78,12.78,0,0,1,406.81,211a13.17,13.17,0,0,1,17.06-7A12.78,12.78,0,0,1,431,220.72Z"/><path class="cls-10" d="M321.52,199.22c-1.37,3.29-7.9,3.78-14.59,1.09s-11-7.52-9.64-10.81,7.9-3.78,14.59-1.09S322.89,195.93,321.52,199.22Z"/><path class="cls-10" d="M423.73,240.19c-1.37,3.29-7.9,3.78-14.59,1.09s-11-7.52-9.64-10.81,7.9-3.78,14.59-1.09S425.09,236.9,423.73,240.19Z"/><path class="cls-5" d="M317.83,203.45s-9.29,4-8,11.19,6.8,13.37,15.78,18.41,40.86,19.55,52.92,19.2,22-7.87,20.39-16.29-19.77-25.2-34.32-30.16S328.41,198.48,317.83,203.45Z"/><path class="cls-9" d="M356.8,200.75s-2.37,5.7.12,10.16,8.47,6.57,12.14,4.87,8.44-8.21,7.79-11.06S359.21,192.75,356.8,200.75Z"/><path class="cls-9" d="M383.14,236.52a1.57,1.57,0,0,0-1.57-1c-2-.18-13.55-3.14-15.29-6-2.09-3.4-3-10.87-1.08-15.77,0,0,0-.08,0-.12s0-.1,0-.14,0-.1,0-.15,0-.1,0-.15a1.53,1.53,0,0,0,0-.15s0-.1,0-.14a1.32,1.32,0,0,0,0-.14,1.42,1.42,0,0,0,0-.14l-.07-.13-.07-.13-.09-.11-.1-.12-.12-.1-.12-.09-.14-.08-.12-.07h-.06l-.14,0-.15,0h-.3l-.15,0-.15,0-.14,0-.14,0-.13.07-.13.07-.11.09-.12.1-.1.11-.1.12-.07.13-.06.11c-2.12,4.83-8.09,9.54-12,10.53-3.25.83-13.6-5-15.17-6.25a1.59,1.59,0,0,0-1.83-.37,1.53,1.53,0,0,0-.77,2.05c.39.83,5.46,4,10.47,6,3.11,1.25,6.18,2,8.09,1.56,3-.76,6.86-3.17,9.93-6.33-.06,4.37,1,8.73,2.59,11.34,1,1.66,3.79,3.2,6.89,4.45,5,2,10.88,3.23,11.75,2.91A1.54,1.54,0,0,0,383.14,236.52Z"/></g><path class="cls-11" d="M18.75,294.54s9.13-1.67,16.19-5.62,18-12.8,18.87-20-6.33-11.48-8.28-10.29S28.49,274.33,27,275s-4.38-2.27-1.83-6.22,10.05-14.59,11.11-20-6.24-11.24-9-8.49S11.57,264.29,10,282C10,282,8,293,18.75,294.54Z"/><path class="cls-11" d="M45.65,357.21s-.12,4.54,2.31,6.22,5.84-2.15,6.57-11.36,3.41-37-11.68-44.49-22.88,6.1-23.13,8.25-1,27.75,7.42,38.51c0,0,5.6,6.82,6.82.72s-.12-13.63-.12-13.63,2.92-2,8.89-1.79S45.65,357.21,45.65,357.21Z"/><path class="cls-11" d="M85,281.51s15.7-8.73,16.92-10.76.49-7.18-6.57-6.22a19.64,19.64,0,0,0-8.89,4.78c-4.26,3.95-4.63-.24-4.63-.24s-2.92-5.26-11.08-3.47-6.94,4.31-6.94,4.78S67,297.17,71,301s15.94,3.23,20.57,0,13.27-12.68,14.24-17.46-1.95-6.58-6.45-4.78-11.56,7.06-12.54,7.3S81.31,285.93,85,281.51Z"/><path class="cls-11" d="M93.61,348.36c.37,0,16.8-3.18,25.32-13.79,0,0,6-6.42,3.41-8.93s-4.75-5.5-8.4-3.83-11,9.93-14.36,11.72-10.22,3.35-10.47-1.08,3.16-6.34,8.76-9.09,15.82-8.85,16.07-11.84-4.14-8.09-6.21-7.87S89,314.4,86.18,313.92s-2.19-1.44-4.63-3.71-5.72-.6-6.21,1.2-.37,27.39,6,32.77S93.61,348.36,93.61,348.36Z"/><path class="cls-11" d="M24.9,384.24s5.84,11.3,11,14.89,9.49,2.51,13.88-6.28c0,0-5.66-16.15-11-20.45s-11.68-1.61-13.88.72S23.37,381.48,24.9,384.24Z"/><path class="cls-11" d="M58.13,383.88s3.1,10.76,6.76,11.84,9.68-5.92,8.58-18.12S70.86,362,65.86,362s-12.12,4.77-12.66,8.12S58.13,383.88,58.13,383.88Z"/><path class="cls-11" d="M81.68,374.19s-.91,9.69,1.83,16,9.13,4.48,11.14,0,3.29-23.14,0-27.09-9.68-1.79-11.87,2.87A12.35,12.35,0,0,0,81.68,374.19Z"/><path class="cls-11" d="M104,357.69s-2.19-4.13,3.47-7.36,8.76-3.23,9.86,1.61-1.1,31.39-3.65,34.44-7.59,7.53-10.09,1.44S104,357.69,104,357.69Z"/><path class="cls-11" d="M163.47,285.45s68.65-23.68,71.57-27.27,5.6-10.52,1.95-12.2-13.88,4.78-21.67,7.65-19.23,6.94-23.37.24-4.38-11.07-15.09-8.17-2.92,12.71-2.19,15.1,3.65,3.83,0,6.22-21.67,7.41-24.59,10.52-6.82,3.11-6.33,17,4.87,99.26,7.79,102.61,16.07.72,16.55-4.07-5.36-56.93-5.6-62.43c0,0-5.36-28.22-3.65-34.92S160.34,286.54,163.47,285.45Z"/><path class="cls-11" d="M177.59,318.22s-7.79,2.87-10.71,0-2.68-8.61,0-9.57,11.93-3.35,11.93-3.35-3.41-12.44,0-14.83,7.06-2.87,7.79,0l1.58,9.21s.12,2.63,4.14,1.79,29.82-3.95,31.52-3.95,3.29-.36,3.41-3.35-1.58-11.84-.85-13.39,2.92-1.44,6.45,0,4.26,8.13,4.75,11,.85,5.26,2.92,5,9.49-.24,10.59,3.59.61,5.26-1.46,6.22-7.67.72-8.89,2,5.78,54.59,6,57.82,2,9.33-.37,12.38-8.22,3.41-9.31-2.51-8.4-64.4-8.4-64.4-1.46-1-5.93-.54-28.57,2.51-28.57,2.51-1.64-2-1.1,3.23,7.67,66.91,6.94,69.78-9.68,9.51-11.5,3-7.67-72.83-7.67-72.83S179.84,315.89,177.59,318.22Z"/><path class="cls-11" d="M170.59,334.19s0,29.78,1.46,33.9,4.38,5.38,6.57,3.95.91-33.37,0-35S172.05,329.17,170.59,334.19Z"/><path class="cls-11" d="M204.55,328.81s.73,18.48,2.56,21.53,5.66,1.71,8.58,2.11,5.84,6.14,3.29,8.65-10,3.23-12.23,2.33-4.56.18-6-8.07-2.56-23.32-2.37-25.11S200.9,324.32,204.55,328.81Z"/><path class="cls-11" d="M220,326.79s3.22,35.41,4.31,37,7.85,3.58,7.12-5.21-2.37-30.79-3.47-32.53S221.67,321.72,220,326.79Z"/><path class="cls-11" d="M244.54,323.83s2.92,29.56,4.75,33.68,12.42,1.44,19.17,0,9.13-3.77,7.67-6.46-2.74-3.54-6.21-2.58-12.78,5-14.06,0-3.83-23.89-5.11-24.65S244.16,320.14,244.54,323.83Z"/><path class="cls-11" d="M321.22,288.32s19.72-.24,23.37-4.31,1.7-10.29-1.7-11.48-29.7,1.44-29.7,1.44-1-15.07-4.38-17-14.85-1.67-14.36,4.78,1.95,14.35,1.95,14.35,1.43,1.91-2,2.39-18.24,3.11-20.19,4.07-5.11,5.5-4.14,8.85,2.17,5.26,6.44,4.54,20.1-2.87,20.1-2.87,4.87-1.14,5.36,3,3.89,20.42,3.89,20.42,1,2.39-3.16,3.83-14.61,2.87-16.07,4.78-4.38,8.85,1.7,9.57,34.32-2.63,41.87-4.54,10.71-6,7.55-10.52-16.55-1.2-16.55-1.2-3.16,2.15-3.89-6.94-2.19-19.85-2.19-19.85S315.88,288.54,321.22,288.32Z"/><path class="cls-11" d="M292,358.41s-1,10.52,1.7,18.66,8.76,17,15.58,18.66,25.8-2.63,29.46-17-1.7-30.62-6.09-32.29-24.59-3.35-34.08,3.35C298.58,349.8,293.22,353.14,292,358.41Z"/><path class="cls-12" d="M569.72,31.45,415.92,7.12C356-2.36,297.22,49.26,285.33,121.83h0C273.44,194.4,312.74,261.54,372.68,271l-3.71-.67c1.29,13.71-1.7,25.82-.41,39.53,1.09,11.59,9.88,17.88,18.48,9.88,12.43-11.56,18.08-28.85,27.7-43.17l111.74,18.77c59.93,9.48,118.7-42.14,130.59-114.71h0C669,108.07,629.65,40.94,569.72,31.45Z"/></g></g></svg>