<svg xmlns="http://www.w3.org/2000/svg" viewBox="0 0 258.83 94.18"><defs><style>.cls-1,.cls-2,.cls-4{fill:#fff;}.cls-1,.cls-2{stroke:#fff;}.cls-1,.cls-11,.cls-2,.cls-3,.cls-5{stroke-miterlimit:10;}.cls-1{stroke-width:12px;}.cls-2{stroke-width:11px;}.cls-3{stroke:#040000;stroke-width:3px;}.cls-5{fill:#ef5c79;stroke:#000;}.cls-11,.cls-6{fill:none;}.cls-7{fill:#80685d;}.cls-8{fill:#fbc5cf;}.cls-9{fill:#2c112f;}.cls-10{fill:#e84e58;}.cls-11{stroke:#060001;stroke-width:2px;}</style></defs><title>logo</title><g id="圖層_2" data-name="圖層 2"><g id="圖層_1-2" data-name="圖層 1"><path class="cls-1" d="M6.27,29.49,6,63.47C5.89,76.71,26.53,87.81,51.85,88.14h0C77.18,88.46,98,77.9,98.09,64.66l0,.82c4.6-.7,8.88-.43,13.48-1.13,3.89-.59,5.57-2.69,2.4-4.3-4.58-2.33-10.76-3-16.14-4.65l.57-24.72C98.47,17.44,77.84,6.33,52.51,6h0C27.19,5.68,6.38,16.25,6.27,29.49Z"/><path class="cls-2" d="M128.75,48.2a23.26,23.26,0,0,0,6.15-2.14c2.68-1.5,6.85-4.86,7.17-7.59s-2.41-4.36-3.15-3.91-6.48,6-7,6.23-1.67-.86-.69-2.36,3.82-5.55,4.22-7.59S133,26.56,132,27.61s-6,9.09-6.57,15.82C125.42,43.42,124.68,47.61,128.75,48.2Z"/><path class="cls-2" d="M139,72s0,1.73.88,2.36,2.22-.82,2.5-4.32,1.3-14-4.44-16.91a6,6,0,0,0-8.79,3.14c-.09.82-.37,10.55,2.82,14.64,0,0,2.13,2.59,2.59.27a16.56,16.56,0,0,0,0-5.18,5.82,5.82,0,0,1,3.38-.68C140.13,65.42,139,72,139,72Z"/><path class="cls-2" d="M153.91,43.24s6-3.32,6.43-4.09.19-2.73-2.5-2.36a7.46,7.46,0,0,0-3.38,1.82c-1.62,1.5-1.76-.09-1.76-.09s-1.11-2-4.21-1.32-2.64,1.64-2.64,1.82,1.2,10.18,2.73,11.64,6.06,1.23,7.82,0,5-4.82,5.41-6.64-.74-2.5-2.45-1.82S155,44.88,154.61,45,152.53,44.92,153.91,43.24Z"/><path class="cls-2" d="M157.2,68.65c.14,0,6.38-1.21,9.62-5.24,0,0,2.27-2.44,1.3-3.4s-1.8-2.09-3.19-1.45-4.16,3.77-5.46,4.45-3.89,1.27-4-.41,1.2-2.41,3.33-3.45,6-3.36,6.11-4.5-1.57-3.08-2.36-3-7.12,4.08-8.19,3.9-.83-.55-1.76-1.41a1.46,1.46,0,0,0-2.36.45c-.19.68-.14,10.41,2.27,12.45A5.92,5.92,0,0,0,157.2,68.65Z"/><path class="cls-2" d="M131.08,82.29s2.22,4.3,4.16,5.66,3.61,1,5.27-2.39c0,0-2.15-6.14-4.16-7.77a4,4,0,0,0-5.27.27C130.25,78.95,130.5,81.24,131.08,82.29Z"/><path class="cls-2" d="M143.71,82.15s1.18,4.09,2.57,4.5,3.68-2.25,3.26-6.89-1-5.93-2.89-5.93-4.6,1.81-4.81,3.09S143.71,82.15,143.71,82.15Z"/><path class="cls-2" d="M152.66,78.47a15,15,0,0,0,.69,6.07c1,2.39,3.47,1.7,4.23,0s1.25-8.8,0-10.3-3.68-.68-4.51,1.09A4.69,4.69,0,0,0,152.66,78.47Z"/><path class="cls-2" d="M161.13,72.2s-.83-1.57,1.32-2.8,3.33-1.23,3.75.61-.42,11.93-1.39,13.09-2.88,2.86-3.84.55S161.13,72.2,161.13,72.2Z"/><path class="cls-2" d="M183.75,44.74s26.09-9,27.2-10.36,2.13-4,.74-4.64-5.27,1.82-8.23,2.91-7.31,2.64-8.88.09-1.67-4.21-5.74-3.1-1.11,4.83-.83,5.74,1.39,1.45,0,2.36-8.23,2.82-9.34,4-2.59,1.18-2.41,6.45,1.85,37.73,3,39,6.11.27,6.29-1.55-2-21.64-2.13-23.73c0,0-2-10.73-1.39-13.27S182.56,45.16,183.75,44.74Z"/><path class="cls-2" d="M189.12,57.2s-3,1.09-4.07,0-1-3.27,0-3.64,4.53-1.27,4.53-1.27-1.3-4.73,0-5.64,2.68-1.09,3,0l.6,3.5s0,1,1.57.68,11.33-1.5,12-1.5,1.25-.14,1.3-1.27-.6-4.5-.32-5.09,1.11-.55,2.45,0,1.62,3.09,1.8,4.18.32,2,1.11,1.91,3.61-.09,4,1.36.23,2-.56,2.36-2.91.27-3.38.77,2.2,20.75,2.27,22,.76,3.55-.14,4.7a2,2,0,0,1-3.54-1c-.42-2.25-3.19-24.48-3.19-24.48a3.77,3.77,0,0,0-2.26-.2c-1.7.17-10.86,1-10.86,1s-.62-.75-.42,1.23,2.91,25.43,2.64,26.52-3.68,3.61-4.37,1.16-2.91-27.68-2.91-27.68S190,56.31,189.12,57.2Z"/><path class="cls-2" d="M186.46,63.27s0,11.32.56,12.89,1.67,2,2.5,1.5.35-12.68,0-13.3S187,61.36,186.46,63.27Z"/><path class="cls-2" d="M199.36,61.22s.28,7,1,8.18,2.15.65,3.26.8,2.22,2.33,1.25,3.29-3.82,1.23-4.65.89-1.73.07-2.29-3.07a75.48,75.48,0,0,1-.9-9.55C197.07,61.08,198,59.52,199.36,61.22Z"/><path class="cls-2" d="M205.22,60.45s1.22,13.46,1.64,14.07,3,1.36,2.71-2-.9-11.7-1.32-12.36S205.87,58.53,205.22,60.45Z"/><path class="cls-2" d="M214.56,59.33s1.11,11.23,1.8,12.8,4.72.55,7.29,0,3.47-1.43,2.91-2.45-1-1.35-2.36-1-4.86,1.88-5.34,0-1.46-9.08-1.94-9.37S214.42,57.92,214.56,59.33Z"/><path class="cls-2" d="M243.7,45.83s7.49-.09,8.88-1.64.65-3.91-.65-4.36-11.29.55-11.29.55-.37-5.73-1.67-6.45-5.64-.64-5.46,1.82.74,5.45.74,5.45.54.73-.75.91a71.12,71.12,0,0,0-7.67,1.55A3.55,3.55,0,0,0,224.28,47c.37,1.27.82,2,2.45,1.73s7.64-1.09,7.64-1.09,1.85-.43,2,1.15,1.48,7.76,1.48,7.76.37.91-1.2,1.45-5.55,1.09-6.11,1.82-1.67,3.36.65,3.64,13-1,15.91-1.73,4.07-2.27,2.87-4-6.29-.45-6.29-.45-1.2.82-1.48-2.64-.83-7.55-.83-7.55S241.67,45.92,243.7,45.83Z"/><path class="cls-2" d="M232.6,72.47a20.67,20.67,0,0,0,.65,7.09c1,3.09,3.33,6.45,5.92,7.09s9.81-1,11.2-6.45-.65-11.64-2.31-12.27-9.34-1.27-13,1.27A6.1,6.1,0,0,0,232.6,72.47Z"/><path class="cls-3" d="M131.47,48.62a23.26,23.26,0,0,0,6.15-2.14c2.68-1.5,6.85-4.86,7.17-7.59s-2.41-4.36-3.15-3.91-6.48,6-7,6.23-1.67-.86-.69-2.36,3.82-5.55,4.22-7.59S135.77,27,134.7,28s-6,9.09-6.57,15.82C128.13,43.85,127.39,48,131.47,48.62Z"/><path class="cls-3" d="M141.69,72.44s0,1.73.88,2.36,2.22-.82,2.5-4.32,1.3-14-4.44-16.91a6,6,0,0,0-8.79,3.14c-.09.82-.37,10.55,2.82,14.64,0,0,2.13,2.59,2.59.27a16.56,16.56,0,0,0,0-5.18,5.82,5.82,0,0,1,3.38-.68C142.85,65.85,141.69,72.44,141.69,72.44Z"/><path class="cls-3" d="M156.63,43.67s6-3.32,6.43-4.09.19-2.73-2.5-2.36A7.46,7.46,0,0,0,157.19,39c-1.62,1.5-1.76-.09-1.76-.09s-1.11-2-4.21-1.32-2.64,1.64-2.64,1.82,1.2,10.18,2.73,11.64,6.06,1.23,7.82,0,5-4.82,5.41-6.64-.74-2.5-2.45-1.82-4.39,2.68-4.76,2.77S155.24,45.35,156.63,43.67Z"/><path class="cls-3" d="M159.92,69.08c.14,0,6.38-1.21,9.62-5.24,0,0,2.27-2.44,1.3-3.4S169,58.35,167.64,59s-4.16,3.77-5.46,4.45-3.89,1.27-4-.41,1.2-2.41,3.33-3.45,6-3.36,6.11-4.5-1.57-3.08-2.36-3-7.12,4.08-8.19,3.9-.83-.55-1.76-1.41A1.46,1.46,0,0,0,153,55c-.19.68-.14,10.41,2.27,12.45A5.92,5.92,0,0,0,159.92,69.08Z"/><path class="cls-3" d="M133.8,82.71S136,87,138,88.37s3.61,1,5.27-2.39c0,0-2.15-6.14-4.16-7.77a4,4,0,0,0-5.27.27C133,79.37,133.22,81.66,133.8,82.71Z"/><path class="cls-3" d="M146.43,82.58s1.18,4.09,2.57,4.5,3.68-2.25,3.26-6.89-1-5.93-2.89-5.93-4.6,1.81-4.81,3.09S146.43,82.58,146.43,82.58Z"/><path class="cls-3" d="M155.38,78.89a15,15,0,0,0,.69,6.07c1,2.39,3.47,1.7,4.23,0s1.25-8.8,0-10.3-3.68-.68-4.51,1.09A4.69,4.69,0,0,0,155.38,78.89Z"/><path class="cls-3" d="M163.85,72.62s-.83-1.57,1.32-2.8,3.33-1.23,3.75.61-.42,11.93-1.39,13.09-2.88,2.86-3.84.55S163.85,72.62,163.85,72.62Z"/><path class="cls-3" d="M186.47,45.17s26.09-9,27.2-10.36,2.13-4,.74-4.64-5.27,1.82-8.23,2.91-7.31,2.64-8.88.09-1.67-4.21-5.74-3.1-1.11,4.83-.83,5.74,1.39,1.45,0,2.36-8.23,2.82-9.34,4-2.59,1.18-2.41,6.45,1.85,37.73,3,39,6.11.27,6.29-1.55-2-21.64-2.13-23.73c0,0-2-10.73-1.39-13.27S185.28,45.58,186.47,45.17Z"/><path class="cls-3" d="M191.83,57.62s-3,1.09-4.07,0-1-3.27,0-3.64,4.53-1.27,4.53-1.27-1.3-4.73,0-5.64,2.68-1.09,3,0l.6,3.5s0,1,1.57.68,11.33-1.5,12-1.5,1.25-.14,1.3-1.27-.6-4.5-.32-5.09,1.11-.55,2.45,0,1.62,3.09,1.8,4.18.32,2,1.11,1.91,3.61-.09,4,1.36.23,2-.56,2.36-2.91.27-3.38.77,2.2,20.75,2.27,22,.76,3.55-.14,4.7a2,2,0,0,1-3.54-1c-.42-2.25-3.19-24.48-3.19-24.48A3.77,3.77,0,0,0,209,55c-1.7.17-10.86,1-10.86,1s-.62-.75-.42,1.23,2.91,25.43,2.64,26.52-3.68,3.61-4.37,1.16-2.91-27.68-2.91-27.68S192.69,56.74,191.83,57.62Z"/><path class="cls-3" d="M189.17,63.69s0,11.32.56,12.89,1.67,2,2.5,1.5.35-12.68,0-13.3S189.73,61.78,189.17,63.69Z"/><path class="cls-3" d="M202.08,61.64s.28,7,1,8.18,2.15.65,3.26.8,2.22,2.33,1.25,3.29-3.82,1.23-4.65.89-1.73.07-2.29-3.07a75.48,75.48,0,0,1-.9-9.55C199.79,61.51,200.69,59.94,202.08,61.64Z"/><path class="cls-3" d="M207.94,60.88s1.22,13.46,1.64,14.07,3,1.36,2.71-2-.9-11.7-1.32-12.36S208.59,58.95,207.94,60.88Z"/><path class="cls-3" d="M217.28,59.75s1.11,11.23,1.8,12.8,4.72.55,7.29,0,3.47-1.43,2.91-2.45-1-1.35-2.36-1-4.86,1.88-5.34,0-1.46-9.08-1.94-9.37S217.13,58.35,217.28,59.75Z"/><path class="cls-3" d="M246.42,46.26s7.49-.09,8.88-1.64.65-3.91-.65-4.36-11.29.55-11.29.55-.37-5.73-1.67-6.45-5.64-.64-5.46,1.82.74,5.45.74,5.45.54.73-.75.91a71.12,71.12,0,0,0-7.67,1.55A3.55,3.55,0,0,0,227,47.44c.37,1.27.82,2,2.45,1.73s7.64-1.09,7.64-1.09,1.85-.43,2,1.15S240.59,57,240.59,57s.37.91-1.2,1.45-5.55,1.09-6.11,1.82-1.67,3.36.65,3.64,13-1,15.91-1.73,4.07-2.27,2.87-4-6.29-.45-6.29-.45-1.2.82-1.48-2.64-.83-7.55-.83-7.55S244.39,46.34,246.42,46.26Z"/><path class="cls-3" d="M235.32,72.89A20.67,20.67,0,0,0,236,80c1,3.09,3.33,6.45,5.92,7.09s9.81-1,11.2-6.45-.65-11.64-2.31-12.27-9.34-1.27-13,1.27A6.1,6.1,0,0,0,235.32,72.89Z"/><path class="cls-4" d="M6.27,29.49,6,63.47C5.89,76.71,26.53,87.81,51.85,88.14h0C77.18,88.46,98,77.9,98.09,64.66l0,.82c4.6-.7,8.88-.43,13.48-1.13,3.89-.59,5.57-2.69,2.4-4.3-4.58-2.33-10.76-3-16.14-4.65l.57-24.72C98.47,17.44,77.84,6.33,52.51,6h0C27.19,5.68,6.38,16.25,6.27,29.49Z"/><path class="cls-5" d="M128.75,48.2a23.26,23.26,0,0,0,6.15-2.14c2.68-1.5,6.85-4.86,7.17-7.59s-2.41-4.36-3.15-3.91-6.48,6-7,6.23-1.67-.86-.69-2.36,3.82-5.55,4.22-7.59S133,26.56,132,27.61s-6,9.09-6.57,15.82C125.42,43.42,124.68,47.61,128.75,48.2Z"/><path class="cls-5" d="M139,72s0,1.73.88,2.36,2.22-.82,2.5-4.32,1.3-14-4.44-16.91a6,6,0,0,0-8.79,3.14c-.09.82-.37,10.55,2.82,14.64,0,0,2.13,2.59,2.59.27a16.56,16.56,0,0,0,0-5.18,5.82,5.82,0,0,1,3.38-.68C140.13,65.42,139,72,139,72Z"/><path class="cls-5" d="M153.91,43.24s6-3.32,6.43-4.09.19-2.73-2.5-2.36a7.46,7.46,0,0,0-3.38,1.82c-1.62,1.5-1.76-.09-1.76-.09s-1.11-2-4.21-1.32-2.64,1.64-2.64,1.82,1.2,10.18,2.73,11.64,6.06,1.23,7.82,0,5-4.82,5.41-6.64-.74-2.5-2.45-1.82S155,44.88,154.61,45,152.53,44.92,153.91,43.24Z"/><path class="cls-5" d="M157.2,68.65c.14,0,6.38-1.21,9.62-5.24,0,0,2.27-2.44,1.3-3.4s-1.8-2.09-3.19-1.45-4.16,3.77-5.46,4.45-3.89,1.27-4-.41,1.2-2.41,3.33-3.45,6-3.36,6.11-4.5-1.57-3.08-2.36-3-7.12,4.08-8.19,3.9-.83-.55-1.76-1.41a1.46,1.46,0,0,0-2.36.45c-.19.68-.14,10.41,2.27,12.45A5.92,5.92,0,0,0,157.2,68.65Z"/><path class="cls-5" d="M131.08,82.29s2.22,4.3,4.16,5.66,3.61,1,5.27-2.39c0,0-2.15-6.14-4.16-7.77a4,4,0,0,0-5.27.27C130.25,78.95,130.5,81.24,131.08,82.29Z"/><path class="cls-5" d="M143.71,82.15s1.18,4.09,2.57,4.5,3.68-2.25,3.26-6.89-1-5.93-2.89-5.93-4.6,1.81-4.81,3.09S143.71,82.15,143.71,82.15Z"/><path class="cls-5" d="M152.66,78.47a15,15,0,0,0,.69,6.07c1,2.39,3.47,1.7,4.23,0s1.25-8.8,0-10.3-3.68-.68-4.51,1.09A4.69,4.69,0,0,0,152.66,78.47Z"/><path class="cls-5" d="M161.13,72.2s-.83-1.57,1.32-2.8,3.33-1.23,3.75.61-.42,11.93-1.39,13.09-2.88,2.86-3.84.55S161.13,72.2,161.13,72.2Z"/><path class="cls-5" d="M183.75,44.74s26.09-9,27.2-10.36,2.13-4,.74-4.64-5.27,1.82-8.23,2.91-7.31,2.64-8.88.09-1.67-4.21-5.74-3.1-1.11,4.83-.83,5.74,1.39,1.45,0,2.36-8.23,2.82-9.34,4-2.59,1.18-2.41,6.45,1.85,37.73,3,39,6.11.27,6.29-1.55-2-21.64-2.13-23.73c0,0-2-10.73-1.39-13.27S182.56,45.16,183.75,44.74Z"/><path class="cls-5" d="M189.12,57.2s-3,1.09-4.07,0-1-3.27,0-3.64,4.53-1.27,4.53-1.27-1.3-4.73,0-5.64,2.68-1.09,3,0l.6,3.5s0,1,1.57.68,11.33-1.5,12-1.5,1.25-.14,1.3-1.27-.6-4.5-.32-5.09,1.11-.55,2.45,0,1.62,3.09,1.8,4.18.32,2,1.11,1.91,3.61-.09,4,1.36.23,2-.56,2.36-2.91.27-3.38.77,2.2,20.75,2.27,22,.76,3.55-.14,4.7a2,2,0,0,1-3.54-1c-.42-2.25-3.19-24.48-3.19-24.48a3.77,3.77,0,0,0-2.26-.2c-1.7.17-10.86,1-10.86,1s-.62-.75-.42,1.23,2.91,25.43,2.64,26.52-3.68,3.61-4.37,1.16-2.91-27.68-2.91-27.68S190,56.31,189.12,57.2Z"/><path class="cls-5" d="M186.46,63.27s0,11.32.56,12.89,1.67,2,2.5,1.5.35-12.68,0-13.3S187,61.36,186.46,63.27Z"/><path class="cls-5" d="M199.36,61.22s.28,7,1,8.18,2.15.65,3.26.8,2.22,2.33,1.25,3.29-3.82,1.23-4.65.89-1.73.07-2.29-3.07a75.48,75.48,0,0,1-.9-9.55C197.07,61.08,198,59.52,199.36,61.22Z"/><path class="cls-5" d="M205.22,60.45s1.22,13.46,1.64,14.07,3,1.36,2.71-2-.9-11.7-1.32-12.36S205.87,58.53,205.22,60.45Z"/><path class="cls-5" d="M214.56,59.33s1.11,11.23,1.8,12.8,4.72.55,7.29,0,3.47-1.43,2.91-2.45-1-1.35-2.36-1-4.86,1.88-5.34,0-1.46-9.08-1.94-9.37S214.42,57.92,214.56,59.33Z"/><path class="cls-5" d="M243.7,45.83s7.49-.09,8.88-1.64.65-3.91-.65-4.36-11.29.55-11.29.55-.37-5.73-1.67-6.45-5.64-.64-5.46,1.82.74,5.45.74,5.45.54.73-.75.91a71.12,71.12,0,0,0-7.67,1.55A3.55,3.55,0,0,0,224.28,47c.37,1.27.82,2,2.45,1.73s7.64-1.09,7.64-1.09,1.85-.43,2,1.15,1.48,7.76,1.48,7.76.37.91-1.2,1.45-5.55,1.09-6.11,1.82-1.67,3.36.65,3.64,13-1,15.91-1.73,4.07-2.27,2.87-4-6.29-.45-6.29-.45-1.2.82-1.48-2.64-.83-7.55-.83-7.55S241.67,45.92,243.7,45.83Z"/><path class="cls-5" d="M232.6,72.47a20.67,20.67,0,0,0,.65,7.09c1,3.09,3.33,6.45,5.92,7.09s9.81-1,11.2-6.45-.65-11.64-2.31-12.27-9.34-1.27-13,1.27A6.1,6.1,0,0,0,232.6,72.47Z"/><path class="cls-6" d="M28.64,29.31a20.09,20.09,0,0,0-.39,2.38c1.47.25,2.9.57,4.27.94a18.65,18.65,0,0,0,.78-2.14c.43-1.69,7.57-17.69,8.35-18.53s2.89-1.08,4.8,1.22.14,5.49-1.54,9.86A119,119,0,0,1,38.63,35,26.59,26.59,0,0,1,50.9,48.67a28.74,28.74,0,0,1,3.16-8.37l-.11,0a4.76,4.76,0,0,1-4.3-3.11c-.9-2.43-.56-6,2.22-7.06,1.46-1.33,3.86-1.21,5.65-.64a5.7,5.7,0,0,1,1.12.49,3.53,3.53,0,0,1,2,1.93,3.45,3.45,0,0,1,.26.49l.48-.3c6.5-3.83,15.53-6.57,22.51-6.74a27.49,27.49,0,0,1,9.43,1.49,3.35,3.35,0,0,1,.07-.54,3.48,3.48,0,0,1,1.2-2.48,5.61,5.61,0,0,1,.89-.84l.37-.26C89.6,13.26,72.52,6.27,52.51,6h0A80.21,80.21,0,0,0,30.3,8.72a1.62,1.62,0,0,1,.16.4C30.74,10.23,29.1,27.63,28.64,29.31Z"/><path class="cls-6" d="M21.79,31a120.85,120.85,0,0,1,.36-13.72,55.67,55.67,0,0,1,1-6.09C12.91,15.47,6.33,22.06,6.27,29.49V30l0,4.35A19.57,19.57,0,0,1,14,31.24,46.42,46.42,0,0,1,21.79,31Z"/><path class="cls-6" d="M113.93,60a22,22,0,0,0-2.23-1c0,.17,0,.34,0,.51a19.31,19.31,0,0,1-1.07,4.87l.94-.12C115.42,63.75,117.1,61.66,113.93,60Z"/><path class="cls-6" d="M73.05,81.42a19.51,19.51,0,0,1-9-3.22A24.12,24.12,0,0,1,52.18,62.82a42.35,42.35,0,0,1-5,13.59c-3.12,5.47-7.29,7.84-13,9.63a83.06,83.06,0,0,0,17.7,2.09h0c13.91.18,26.44-2.93,34.94-8A71.92,71.92,0,0,1,73.05,81.42Z"/><path class="cls-7" d="M111.7,59.09c-4.25-1.59-9.36-2.31-13.91-3.69L98,48a6.52,6.52,0,0,1-4.68,4.68,6.59,6.59,0,0,1-8.06-4.57,6.35,6.35,0,0,1,.85-5.2c-1.79.77-3.08,1.08-3.16.5-.29-2,7.08-7.71,7.08-7.71s7-2.11,7.9-.75c.42.63-2.71,2.94-6.22,5a6.56,6.56,0,0,1,6.26,4.79c0,.14.06.28.09.42l.33-14.49a14.18,14.18,0,0,0-2.53-8l-.37.26a5.61,5.61,0,0,0-.89.84,3.48,3.48,0,0,0-1.2,2.48,3.35,3.35,0,0,0-.07.54,27.49,27.49,0,0,0-9.43-1.49c-7,.17-16,2.91-22.51,6.74l-.48.3a3.45,3.45,0,0,0-.26-.49,3.53,3.53,0,0,0-2-1.93,5.7,5.7,0,0,0-1.12-.49c-1.79-.57-4.2-.68-5.65.64-2.79,1-3.12,4.62-2.22,7.06A4.76,4.76,0,0,0,54,40.27l.11,0a28.74,28.74,0,0,0-3.16,8.37,26,26,0,0,1,1,3.17,26.82,26.82,0,0,1,.27,11A24.12,24.12,0,0,0,64,78.2a19.51,19.51,0,0,0,9,3.22A71.92,71.92,0,0,0,86.8,80.18C93.78,76,98,70.63,98.09,64.66l0,.82c4.28-.65,8.29-.47,12.54-1a19.31,19.31,0,0,0,1.07-4.87C111.68,59.43,111.69,59.26,111.7,59.09ZM65.94,53.45a6.42,6.42,0,0,1,3.15-7.31c-4.38,0-8.78-.5-8.73-1.3.1-1.62,7.22-3.23,7.22-3.23s9.26,1.28,10.06,3.19c.21.51-.91.86-2.66,1.08A6.43,6.43,0,0,1,74,58,6.59,6.59,0,0,1,65.94,53.45Zm28.28,8.67c-2.52,2-11.74,4-14.5,4.34s-5-.1-6.42-1.42-.14-3.67-.14-3.67c1.18-2.25,4.75-4.64,8.17-6.12a4.41,4.41,0,0,1-.28-.68c-.81-2.09,4.34-2.86,4.95-2.35a2.44,2.44,0,0,1,.5,1.63c3.71-.35,8,.33,9.39,1.53C97.63,56.92,96.74,60.12,94.22,62.12Z"/><path class="cls-8" d="M47.17,76.41a42.35,42.35,0,0,0,5-13.59,26.82,26.82,0,0,0-.27-11,26,26,0,0,0-1-3.17A26.59,26.59,0,0,0,38.63,35,119,119,0,0,0,44.92,23c1.68-4.37,3.44-7.56,1.54-9.86s-4-2.06-4.8-1.22S33.73,28.81,33.31,30.5a18.65,18.65,0,0,1-.78,2.14c-1.37-.37-2.8-.68-4.27-.94a20.09,20.09,0,0,1,.39-2.38c.46-1.68,2.09-19.08,1.82-20.19a1.62,1.62,0,0,0-.16-.4,59.44,59.44,0,0,0-7.15,2.45,55.67,55.67,0,0,0-1,6.09A120.85,120.85,0,0,0,21.79,31a46.42,46.42,0,0,0-7.77.24,19.57,19.57,0,0,0-7.78,3.12L6,63.47C5.92,73.43,17.58,82.18,34.15,86,39.88,84.25,44,81.87,47.17,76.41Zm-36.65-30a3.31,3.31,0,0,1,4.29-1.77,3.22,3.22,0,0,1,1.8,4.22,3.31,3.31,0,0,1-4.29,1.77A3.22,3.22,0,0,1,10.52,46.42Zm.36,7.53c-1.68-.67-2.77-1.89-2.43-2.72s2-1,3.67-.28,2.77,1.89,2.43,2.72S12.56,54.62,10.88,53.94ZM28.89,67c-3,.09-11.05-3.56-13.31-4.83s-3.64-2.84-4-4.63,2-2.81,2-2.81c2.18-1,6.22-.81,9.62,0a4.12,4.12,0,0,1,.18-.66c.61-2,4.88.28,5,1a2.29,2.29,0,0,1-.57,1.49c3,1.8,5.8,4.72,6.12,6.37C34.42,65,31.92,66.92,28.89,67Zm11.37-3c-.34.83-2,1-3.67.28s-2.77-1.89-2.43-2.72,2-1,3.67-.28S40.6,63.15,40.26,64Zm1.84-4.9a3.31,3.31,0,0,1-4.29,1.77A3.22,3.22,0,0,1,36,56.63a3.31,3.31,0,0,1,4.29-1.77A3.22,3.22,0,0,1,42.1,59.08Z"/><path class="cls-4" d="M86.5,53.84a4.25,4.25,0,0,1-.34,2,2.79,2.79,0,0,1-3.4.9,3.08,3.08,0,0,1-1.43-1.48c-3.42,1.48-7,3.87-8.17,6.12,0,0-1.32,2.35.14,3.67s3.67,1.78,6.42,1.42,12-2.34,14.5-4.34,3.41-5.2,1.67-6.74C94.54,54.17,90.21,53.49,86.5,53.84Z"/><path class="cls-9" d="M82.76,56.72a2.79,2.79,0,0,0,3.4-.9,4.25,4.25,0,0,0,.34-2,2.44,2.44,0,0,0-.5-1.63c-.61-.51-5.76.26-4.95,2.35a4.41,4.41,0,0,0,.28.68A3.08,3.08,0,0,0,82.76,56.72Z"/><path class="cls-4" d="M78.65,50.1A6.48,6.48,0,0,0,75,45.87a47.59,47.59,0,0,1-5.89.27,6.42,6.42,0,0,0-3.15,7.31A6.59,6.59,0,0,0,74,58,6.45,6.45,0,0,0,78.65,50.1Zm-8,2a3.44,3.44,0,0,1,2.48-4.22,3.52,3.52,0,0,1,4.3,2.44A3.44,3.44,0,0,1,75,54.57,3.52,3.52,0,0,1,70.69,52.13Z"/><path class="cls-4" d="M91.68,40a51.6,51.6,0,0,1-5.6,2.93,6.35,6.35,0,0,0-.85,5.2,6.59,6.59,0,0,0,8.06,4.57A6.52,6.52,0,0,0,98,48L98,45.17c0-.14-.05-.28-.09-.42A6.56,6.56,0,0,0,91.68,40ZM91,50.61a3.52,3.52,0,0,1-4.3-2.44,3.44,3.44,0,0,1,2.48-4.22,3.52,3.52,0,0,1,4.3,2.44A3.44,3.44,0,0,1,91,50.61Z"/><path class="cls-9" d="M75,54.57a3.44,3.44,0,0,0,2.48-4.22,3.52,3.52,0,0,0-4.3-2.44,3.44,3.44,0,0,0-2.48,4.22A3.52,3.52,0,0,0,75,54.57Z"/><path class="cls-9" d="M89.22,43.95a3.44,3.44,0,0,0-2.48,4.22A3.52,3.52,0,0,0,91,50.61a3.44,3.44,0,0,0,2.48-4.22A3.52,3.52,0,0,0,89.22,43.95Z"/><path class="cls-9" d="M97.9,34.94c-.91-1.35-7.9.75-7.9.75s-7.37,5.66-7.08,7.71c.08.57,1.37.27,3.16-.5A51.6,51.6,0,0,0,91.68,40C95.19,37.88,98.32,35.57,97.9,34.94Z"/><path class="cls-9" d="M75,45.87c1.75-.22,2.87-.57,2.66-1.08-.79-1.91-10.06-3.19-10.06-3.19s-7.12,1.61-7.22,3.23c0,.8,4.35,1.27,8.73,1.3A47.59,47.59,0,0,0,75,45.87Z"/><path class="cls-9" d="M12.33,50.63a3.31,3.31,0,0,0,4.29-1.77,3.22,3.22,0,0,0-1.8-4.22,3.31,3.31,0,0,0-4.29,1.77A3.22,3.22,0,0,0,12.33,50.63Z"/><path class="cls-9" d="M40.29,54.86A3.31,3.31,0,0,0,36,56.63a3.22,3.22,0,0,0,1.8,4.22,3.31,3.31,0,0,0,4.29-1.77A3.22,3.22,0,0,0,40.29,54.86Z"/><path class="cls-10" d="M14.55,53.67c.34-.83-.74-2-2.43-2.72s-3.33-.55-3.67.28.74,2,2.43,2.72S14.21,54.49,14.55,53.67Z"/><path class="cls-10" d="M37.83,61.26c-1.68-.67-3.33-.55-3.67.28s.74,2,2.43,2.72,3.33.55,3.67-.28S39.52,61.93,37.83,61.26Z"/><path class="cls-4" d="M27.9,56.54a4.1,4.1,0,0,1-1.39,1.29,1.92,1.92,0,0,1-1.14.11,5.34,5.34,0,0,0,.44,3.36c.44.71,3.34,1.46,3.85,1.5a.4.4,0,0,1,.4.25.39.39,0,0,1-.23.5,9,9,0,0,1-3-.73,3.81,3.81,0,0,1-1.73-1.12,5.69,5.69,0,0,1-.65-2.85A5.89,5.89,0,0,1,22,60.44a3.87,3.87,0,0,1-2-.39,8.86,8.86,0,0,1-2.63-1.51A.39.39,0,0,1,17.5,58a.4.4,0,0,1,.46.09c.4.32,3,1.78,3.82,1.57a5.5,5.5,0,0,0,2.69-2.07,2.68,2.68,0,0,1-1-1,2.82,2.82,0,0,1-.21-1.89c-3.4-.79-7.44-1-9.62,0,0,0-2.34,1-2,2.81s1.71,3.36,4,4.63S25.85,67.1,28.89,67s5.54-2,5.13-4.1C33.7,61.26,30.87,58.35,27.9,56.54Z"/><path class="cls-9" d="M23.45,56.61a2.68,2.68,0,0,0,1,1A3.67,3.67,0,0,0,24.8,57l0,0,0,0,0,0,0,0,0,0,0,0,0,0,0,0h.31l0,0,0,0,0,0,0,0,0,0,0,0,0,0,0,0v.11a.34.34,0,0,1,0,0s0,0,0,0a.26.26,0,0,1,0,0v.07a3.6,3.6,0,0,0-.17.61,1.92,1.92,0,0,0,1.14-.11,4.1,4.1,0,0,0,1.39-1.29,2.29,2.29,0,0,0,.57-1.49c-.16-.72-4.44-3-5-1a4.12,4.12,0,0,0-.18.66A2.82,2.82,0,0,0,23.45,56.61Z"/><path class="cls-9" d="M25.54,57.3v0a.26.26,0,0,0,0,0s0,0,0,0a.34.34,0,0,0,0,0V57l0,0,0,0,0,0,0,0,0,0,0,0,0,0,0,0H25l0,0,0,0,0,0,0,0,0,0,0,0,0,0,0,0a3.67,3.67,0,0,1-.33.58,5.5,5.5,0,0,1-2.69,2.07c-.82.21-3.42-1.25-3.82-1.57A.4.4,0,0,0,17.5,58a.39.39,0,0,0-.19.52A8.86,8.86,0,0,0,19.94,60a3.87,3.87,0,0,0,2,.39,5.89,5.89,0,0,0,2.5-1.59,5.69,5.69,0,0,0,.65,2.85,3.81,3.81,0,0,0,1.73,1.12,9,9,0,0,0,3,.73.39.39,0,0,0,.23-.5.4.4,0,0,0-.4-.25c-.51,0-3.41-.79-3.85-1.5a5.34,5.34,0,0,1-.44-3.36,3.6,3.6,0,0,1,.17-.61Z"/><path class="cls-11" d="M5.27,29.49V30L5,63.47C4.89,76.71,25.53,87.81,50.85,88.14h0C76.18,88.46,97,77.9,97.09,64.66l0,.82c4.6-.7,8.88-.43,13.48-1.13,3.89-.59,5.57-2.69,2.4-4.3-4.58-2.33-10.76-3-16.14-4.65l.57-24.72C97.47,17.44,76.84,6.33,51.51,6h0C26.19,5.68,5.38,16.25,5.27,29.49Z"/><path class="cls-11" d="M61.27,2"/></g></g></svg>