<svg xmlns="http://www.w3.org/2000/svg" xmlns:xlink="http://www.w3.org/1999/xlink" viewBox="0 0 305.98 131.01"><defs><style>.cls-1,.cls-6{fill:none;}.cls-2,.cls-5,.cls-8{fill:#fff;}.cls-2,.cls-5{stroke:#fff;}.cls-2,.cls-3,.cls-4,.cls-5,.cls-6{stroke-miterlimit:10;}.cls-2{stroke-width:11px;}.cls-3{stroke:#040000;stroke-width:3px;}.cls-4{fill:#ef5c79;stroke:#000;}.cls-5{stroke-width:12px;}.cls-6{stroke:#060001;stroke-width:2px;}.cls-7{clip-path:url(#clip-path);}.cls-9{fill:#80685d;}.cls-10{fill:#fbc5cf;}.cls-11{fill:#2c112f;}.cls-12{fill:#e84e58;}</style><clipPath id="clip-path"><path class="cls-1" d="M24.36,38.71,68.75,11.38C86,.73,110.85,9.11,123.87,30h0c13,20.89,9.53,46.7-7.77,57.35l1.06-.69c1.37,4.4,3.85,7.76,5.22,12.16,1.15,3.72-.75,6.8-4.44,5.43-5.33-2-9.3-6.58-14.12-9.77l-32.1,20.2C54.42,125.33,29.61,117,16.59,96.06h0C3.57,75.17,7.06,49.36,24.36,38.71Z"/></clipPath></defs><title>資產 5</title><g id="圖層_2" data-name="圖層 2"><g id="圖層_1-2" data-name="圖層 1"><path class="cls-2" d="M148.73,62.85a28.19,28.19,0,0,0,7.49-2.6c3.27-1.83,8.34-5.93,8.73-9.25s-2.93-5.31-3.83-4.76-7.89,7.25-8.56,7.59-2-1.06-.85-2.88,4.65-6.76,5.15-9.25-2.89-5.2-4.19-3.93-7.27,11.07-8,19.27C144.67,57,143.77,62.13,148.73,62.85Z"/><path class="cls-2" d="M161.18,91.86s-.06,2.11,1.07,2.88,2.7-1,3-5.26,1.58-17.11-5.41-20.59-10.59,2.82-10.7,3.82-.45,12.84,3.43,17.82c0,0,2.6,3.16,3.16.34a20.28,20.28,0,0,0-.06-6.32,7.11,7.11,0,0,1,4.12-.83C162.59,83.83,161.18,91.86,161.18,91.86Z"/><path class="cls-2" d="M179.38,56.82s7.27-4,7.83-5,.23-3.32-3-2.88a9.09,9.09,0,0,0-4.11,2.22c-2,1.83-2.15-.11-2.15-.11s-1.35-2.44-5.12-1.61-3.22,2-3.22,2.22,1.47,12.4,3.33,14.17,7.38,1.5,9.52,0S188.56,60,189,57.76s-.9-3-3-2.22-5.36,3.27-5.81,3.38S177.69,58.86,179.38,56.82Z"/><path class="cls-2" d="M183.38,87.77c.17,0,7.78-1.48,11.72-6.39,0,0,2.76-3,1.58-4.13s-2.2-2.55-3.89-1.78-5.07,4.6-6.65,5.43-4.73,1.55-4.85-.5,1.47-2.93,4.06-4.21,7.33-4.09,7.44-5.48-1.92-3.74-2.87-3.64-8.68,5-10,4.75-1-.66-2.14-1.72a1.77,1.77,0,0,0-2.87.56c-.23.83-.17,12.68,2.76,15.17A7.23,7.23,0,0,0,183.38,87.77Z"/><path class="cls-2" d="M151.57,104.38s2.71,5.23,5.07,6.89,4.4,1.16,6.43-2.91c0,0-2.62-7.47-5.08-9.47a4.9,4.9,0,0,0-6.42.34C150.56,100.31,150.86,103.1,151.57,104.38Z"/><path class="cls-2" d="M167,104.21s1.44,5,3.13,5.48,4.48-2.74,4-8.39-1.2-7.22-3.52-7.22-5.6,2.2-5.86,3.76S167,104.21,167,104.21Z"/><path class="cls-2" d="M177.86,99.72s-.43,4.49.84,7.4,4.23,2.07,5.16,0,1.52-10.72,0-12.54-4.48-.84-5.5,1.32A5.72,5.72,0,0,0,177.86,99.72Z"/><path class="cls-2" d="M188.17,92.08s-1-1.91,1.61-3.4,4.05-1.5,4.56.75-.51,14.53-1.69,15.94-3.51,3.49-4.67.67S188.17,92.08,188.17,92.08Z"/><path class="cls-2" d="M215.72,58.64s31.78-11,33.14-12.62,2.59-4.87.9-5.65-6.43,2.22-10,3.55-8.9,3.21-10.82.11-2-5.13-7-3.78-1.35,5.88-1,7,1.69,1.77,0,2.88-10,3.43-11.38,4.87-3.16,1.44-2.93,7.86,2.25,45.95,3.6,47.5,7.44.34,7.67-1.88-2.48-26.35-2.6-28.9c0,0-2.48-13.07-1.69-16.17S214.27,59.15,215.72,58.64Z"/><path class="cls-2" d="M222.26,73.81s-3.61,1.33-5,0-1.24-4,0-4.43,5.52-1.55,5.52-1.55-1.57-5.75,0-6.86,3.27-1.33,3.61,0l.73,4.26s.06,1.22,1.92.83,13.8-1.83,14.59-1.83,1.52-.16,1.58-1.55-.73-5.48-.39-6.2,1.35-.66,3,0,2,3.77,2.2,5.1.39,2.43,1.35,2.32,4.4-.11,4.91,1.66.28,2.44-.68,2.88-3.55.33-4.11.94,2.67,25.28,2.76,26.77.93,4.32-.17,5.73a2.37,2.37,0,0,1-4.31-1.16c-.51-2.74-3.89-29.81-3.89-29.81s-.68-.46-2.75-.25-13.23,1.16-13.23,1.16-.76-.91-.5,1.49,3.55,31,3.21,32.31-4.48,4.4-5.33,1.41-3.55-33.72-3.55-33.72S223.3,72.73,222.26,73.81Z"/><path class="cls-2" d="M219,81.2s0,13.79.68,15.7,2,2.49,3,1.83.42-15.45,0-16.2S219.7,78.88,219,81.2Z"/><path class="cls-2" d="M234.74,78.71s.34,8.56,1.19,10,2.62.79,4,1,2.7,2.84,1.52,4-4.65,1.5-5.66,1.08-2.12.08-2.79-3.74a90.18,90.18,0,0,1-1.1-11.62C232,78.55,233.05,76.64,234.74,78.71Z"/><path class="cls-2" d="M241.87,77.78s1.49,16.39,2,17.13,3.63,1.66,3.3-2.41-1.1-14.25-1.61-15.06S242.66,75.43,241.87,77.78Z"/><path class="cls-2" d="M253.25,76.41s1.35,13.68,2.2,15.59,5.75.67,8.87,0,4.23-1.74,3.55-3-1.26-1.64-2.87-1.19-5.92,2.29-6.51,0-1.77-11.06-2.36-11.41S253.08,74.7,253.25,76.41Z"/><path class="cls-2" d="M288.75,60s9.13-.11,10.82-2,.79-4.76-.79-5.32-13.75.67-13.75.67-.45-7-2-7.86-6.87-.78-6.64,2.21.9,6.64.9,6.64.66.89-.91,1.11A87,87,0,0,0,267,57.31c-.9.45-2.37,2.55-1.91,4.1s1,2.44,3,2.1,9.3-1.32,9.3-1.32,2.25-.53,2.48,1.39,1.8,9.46,1.8,9.46.45,1.11-1.46,1.77-6.76,1.33-7.44,2.21-2,4.1.79,4.43,15.89-1.21,19.38-2.1,5-2.77,3.5-4.87-7.67-.56-7.67-.56-1.46,1-1.8-3.21-1-9.19-1-9.19S286.28,60.07,288.75,60Z"/><path class="cls-2" d="M275.23,92.42a25.14,25.14,0,0,0,.79,8.63c1.24,3.77,4.05,7.87,7.21,8.64s11.95-1.22,13.64-7.86-.79-14.18-2.82-15-11.38-1.55-15.78,1.55A7.42,7.42,0,0,0,275.23,92.42Z"/><path class="cls-3" d="M148.73,63.84a28.6,28.6,0,0,0,7.49-2.6c3.27-1.83,8.34-5.93,8.73-9.25s-2.93-5.31-3.83-4.76-7.89,7.25-8.56,7.59-2-1.06-.85-2.88,4.65-6.76,5.15-9.25-2.89-5.2-4.19-3.93-7.27,11.07-8,19.27C144.67,58,143.77,63.12,148.73,63.84Z"/><path class="cls-3" d="M161.18,92.85s-.06,2.11,1.07,2.88,2.7-1,3-5.26,1.58-17.11-5.41-20.6-10.59,2.83-10.7,3.83-.45,12.84,3.43,17.82c0,0,2.6,3.16,3.16.34a20.28,20.28,0,0,0-.06-6.32,7.11,7.11,0,0,1,4.12-.83C162.59,84.82,161.18,92.85,161.18,92.85Z"/><path class="cls-3" d="M179.38,57.8s7.27-4,7.83-5,.23-3.32-3-2.88a9.09,9.09,0,0,0-4.11,2.22c-2,1.82-2.15-.11-2.15-.11s-1.35-2.44-5.12-1.61-3.22,2-3.22,2.22,1.47,12.4,3.33,14.17,7.38,1.49,9.52,0S188.56,61,189,58.75s-.9-3-3-2.22-5.36,3.27-5.81,3.38S177.69,59.85,179.38,57.8Z"/><path class="cls-3" d="M183.38,88.75c.17,0,7.78-1.47,11.72-6.38,0,0,2.76-3,1.58-4.13s-2.2-2.55-3.89-1.78-5.07,4.6-6.65,5.43-4.73,1.55-4.85-.5,1.47-2.93,4.06-4.21,7.33-4.09,7.44-5.48-1.92-3.74-2.87-3.64-8.68,5-10,4.75-1-.67-2.14-1.72a1.77,1.77,0,0,0-2.87.56c-.23.83-.17,12.68,2.76,15.17A7.19,7.19,0,0,0,183.38,88.75Z"/><path class="cls-3" d="M151.57,105.36s2.71,5.24,5.07,6.9,4.4,1.16,6.43-2.91c0,0-2.62-7.47-5.08-9.47a4.9,4.9,0,0,0-6.42.34C150.56,101.3,150.86,104.09,151.57,105.36Z"/><path class="cls-3" d="M167,105.2s1.44,5,3.13,5.48,4.48-2.74,4-8.39-1.2-7.22-3.52-7.22-5.6,2.2-5.86,3.76S167,105.2,167,105.2Z"/><path class="cls-3" d="M177.86,100.71s-.43,4.49.84,7.4,4.23,2.07,5.16,0,1.52-10.72,0-12.55-4.48-.83-5.5,1.33A5.72,5.72,0,0,0,177.86,100.71Z"/><path class="cls-3" d="M188.17,93.07s-1-1.91,1.61-3.4,4.05-1.5,4.56.75-.51,14.53-1.69,15.94-3.51,3.49-4.67.67S188.17,93.07,188.17,93.07Z"/><path class="cls-3" d="M215.72,59.63s31.78-11,33.14-12.62,2.59-4.87.9-5.65-6.43,2.22-10,3.54-8.9,3.22-10.82.12-2-5.13-7-3.79-1.35,5.89-1,7,1.69,1.77,0,2.88-10,3.43-11.38,4.87-3.16,1.44-2.93,7.86,2.25,46,3.6,47.5,7.44.34,7.67-1.88-2.48-26.35-2.6-28.9c0,0-2.48-13.07-1.69-16.17S214.27,60.13,215.72,59.63Z"/><path class="cls-3" d="M222.26,74.8s-3.61,1.33-5,0-1.24-4,0-4.43,5.52-1.55,5.52-1.55-1.57-5.76,0-6.86,3.27-1.33,3.61,0l.73,4.26s.06,1.22,1.92.83,13.8-1.83,14.59-1.83,1.52-.16,1.58-1.55-.73-5.48-.39-6.2,1.35-.66,3,0,2,3.77,2.2,5.1.39,2.43,1.35,2.32,4.4-.11,4.91,1.66.28,2.44-.68,2.88-3.55.33-4.11.94,2.67,25.28,2.76,26.77.93,4.32-.17,5.73a2.37,2.37,0,0,1-4.31-1.16C249.28,99,245.9,71.9,245.9,71.9s-.68-.46-2.75-.25-13.23,1.16-13.23,1.16-.76-.91-.5,1.49,3.55,31,3.21,32.31-4.48,4.4-5.33,1.41-3.55-33.72-3.55-33.72S223.3,73.72,222.26,74.8Z"/><path class="cls-3" d="M219,82.19s0,13.79.68,15.7,2,2.49,3,1.83.42-15.45,0-16.2S219.7,79.87,219,82.19Z"/><path class="cls-3" d="M234.74,79.7s.34,8.56,1.19,10,2.62.79,4,1,2.7,2.84,1.52,4-4.65,1.5-5.66,1.08-2.12.08-2.79-3.74a90.18,90.18,0,0,1-1.1-11.62C232,79.54,233.05,77.63,234.74,79.7Z"/><path class="cls-3" d="M241.87,78.77s1.49,16.39,2,17.13,3.63,1.66,3.3-2.41-1.1-14.26-1.61-15.06S242.66,76.42,241.87,78.77Z"/><path class="cls-3" d="M253.25,77.4s1.35,13.68,2.2,15.59,5.75.66,8.87,0,4.23-1.74,3.55-3-1.26-1.64-2.87-1.19-5.92,2.29-6.51,0-1.77-11.06-2.36-11.41S253.08,75.69,253.25,77.4Z"/><path class="cls-3" d="M288.75,61s9.13-.11,10.82-2,.79-4.76-.79-5.32-13.75.67-13.75.67-.45-7-2-7.87-6.87-.77-6.64,2.22.9,6.64.9,6.64.66.89-.91,1.11A87,87,0,0,0,267,58.3c-.9.45-2.37,2.55-1.91,4.1s1,2.44,3,2.1,9.3-1.32,9.3-1.32,2.25-.53,2.48,1.39,1.8,9.46,1.8,9.46.45,1.1-1.46,1.77-6.76,1.33-7.44,2.21-2,4.1.79,4.43,15.89-1.22,19.38-2.1,5-2.77,3.5-4.87-7.67-.56-7.67-.56-1.46,1-1.8-3.21-1-9.19-1-9.19S286.28,61.06,288.75,61Z"/><path class="cls-3" d="M275.23,93.41A25.14,25.14,0,0,0,276,102c1.24,3.77,4.05,7.86,7.21,8.64s11.95-1.22,13.64-7.86-.79-14.18-2.82-14.95-11.38-1.55-15.78,1.55A7.42,7.42,0,0,0,275.23,93.41Z"/><path class="cls-4" d="M150.74,59.88a28.07,28.07,0,0,0,7.49-2.6c3.27-1.83,8.34-5.92,8.74-9.25s-2.93-5.31-3.83-4.76-7.89,7.26-8.57,7.59-2-1-.84-2.88,4.65-6.76,5.14-9.25-2.89-5.2-4.19-3.93-7.27,11.07-8,19.27C146.68,54.07,145.78,59.16,150.74,59.88Z"/><path class="cls-4" d="M163.19,88.89s-.05,2.11,1.07,2.88,2.71-1,3.05-5.26,1.57-17.1-5.41-20.59-10.6,2.82-10.71,3.82-.45,12.84,3.44,17.83c0,0,2.59,3.15,3.15.33a20,20,0,0,0-.05-6.31,7,7,0,0,1,4.11-.83C164.6,80.87,163.19,88.89,163.19,88.89Z"/><path class="cls-4" d="M181.39,53.85s7.27-4,7.84-5,.22-3.32-3-2.87a9,9,0,0,0-4.11,2.21c-2,1.83-2.14-.11-2.14-.11s-1.35-2.44-5.13-1.61-3.21,2-3.21,2.22,1.46,12.4,3.32,14.17,7.38,1.5,9.53,0S190.58,57,191,54.79s-.9-3-3-2.22-5.35,3.27-5.8,3.38S179.7,55.9,181.39,53.85Z"/><path class="cls-4" d="M185.39,84.8c.17,0,7.78-1.48,11.72-6.39,0,0,2.77-3,1.58-4.13s-2.2-2.55-3.89-1.77-5.07,4.59-6.65,5.42-4.73,1.55-4.84-.5,1.46-2.93,4.06-4.2,7.32-4.1,7.43-5.49-1.91-3.74-2.87-3.64-8.68,5-10,4.75-1-.66-2.14-1.71a1.78,1.78,0,0,0-2.88.55c-.22.83-.17,12.68,2.76,15.17A7.23,7.23,0,0,0,185.39,84.8Z"/><path class="cls-4" d="M153.58,101.41s2.71,5.23,5.08,6.89,4.39,1.16,6.42-2.91c0,0-2.62-7.47-5.07-9.46a4.91,4.91,0,0,0-6.43.33C152.57,97.34,152.88,100.13,153.58,101.41Z"/><path class="cls-4" d="M169,101.24s1.43,5,3.13,5.48,4.48-2.74,4-8.39-1.21-7.22-3.52-7.22-5.61,2.2-5.86,3.76S169,101.24,169,101.24Z"/><path class="cls-4" d="M179.87,96.76s-.42,4.48.85,7.39,4.22,2.07,5.15,0,1.52-10.72,0-12.54-4.48-.83-5.49,1.33A5.69,5.69,0,0,0,179.87,96.76Z"/><path class="cls-4" d="M190.18,89.12s-1-1.91,1.61-3.41,4.06-1.49,4.56.75-.5,14.53-1.69,15.94-3.51,3.49-4.67.67S190.18,89.12,190.18,89.12Z"/><path class="cls-4" d="M217.74,55.67s31.78-11,33.13-12.62,2.59-4.87.9-5.65-6.42,2.22-10,3.55-8.9,3.21-10.82.11-2-5.13-7-3.78-1.36,5.88-1,7,1.69,1.77,0,2.88-10,3.43-11.38,4.87-3.16,1.44-2.93,7.86,2.25,46,3.61,47.51,7.43.33,7.66-1.89-2.48-26.35-2.59-28.9c0,0-2.48-13.06-1.69-16.16S216.29,56.18,217.74,55.67Z"/><path class="cls-4" d="M224.27,70.84s-3.6,1.33-5,0-1.24-4,0-4.42,5.52-1.55,5.52-1.55-1.58-5.76,0-6.87,3.27-1.33,3.6,0l.74,4.26s0,1.22,1.91.83,13.81-1.82,14.6-1.82,1.52-.17,1.57-1.55-.73-5.49-.39-6.21,1.35-.66,3,0,2,3.77,2.19,5.1.4,2.43,1.36,2.32,4.39-.11,4.9,1.67.28,2.43-.68,2.87-3.55.34-4.11,1,2.68,25.27,2.76,26.76.93,4.32-.17,5.74a2.37,2.37,0,0,1-4.31-1.17c-.51-2.74-3.89-29.81-3.89-29.81s-.67-.46-2.74-.25-13.23,1.16-13.23,1.16-.76-.91-.51,1.5,3.55,31,3.21,32.3-4.48,4.4-5.32,1.41-3.55-33.71-3.55-33.71S225.32,69.76,224.27,70.84Z"/><path class="cls-4" d="M221,78.24s0,13.78.68,15.69,2,2.49,3,1.83.43-15.45,0-16.2S221.71,75.91,221,78.24Z"/><path class="cls-4" d="M236.76,75.74s.33,8.56,1.18,10,2.62.79,4,1,2.71,2.84,1.52,4-4.65,1.5-5.66,1.08-2.11.09-2.79-3.73a92.18,92.18,0,0,1-1.1-11.63C234,75.58,235.07,73.67,236.76,75.74Z"/><path class="cls-4" d="M243.89,74.81s1.49,16.39,2,17.13,3.64,1.66,3.3-2.41-1.1-14.25-1.61-15.06S244.68,72.46,243.89,74.81Z"/><path class="cls-4" d="M255.27,73.44s1.35,13.68,2.19,15.59,5.75.67,8.88,0,4.23-1.74,3.55-3-1.27-1.64-2.87-1.19-5.92,2.29-6.51,0-1.78-11.06-2.37-11.41S255.09,71.73,255.27,73.44Z"/><path class="cls-4" d="M290.77,57s9.12-.11,10.82-2,.78-4.76-.79-5.32-13.75.67-13.75.67-.45-7-2-7.86-6.88-.78-6.65,2.21.9,6.65.9,6.65.66.88-.91,1.1-8.44,1.44-9.34,1.89-2.37,2.54-1.92,4.09,1,2.44,3,2.11,9.3-1.33,9.3-1.33,2.26-.53,2.48,1.4,1.81,9.45,1.81,9.45.45,1.11-1.47,1.77-6.76,1.33-7.44,2.22-2,4.09.79,4.43,15.89-1.22,19.39-2.11,4.95-2.77,3.49-4.87-7.66-.55-7.66-.55-1.47,1-1.81-3.22-1-9.19-1-9.19S288.29,57.1,290.77,57Z"/><path class="cls-4" d="M277.24,89.45a25.14,25.14,0,0,0,.79,8.63c1.24,3.77,4.06,7.87,7.21,8.64s11.95-1.22,13.64-7.86-.79-14.17-2.82-15-11.38-1.55-15.77,1.55A7.46,7.46,0,0,0,277.24,89.45Z"/><path class="cls-5" d="M23.94,37.92,69.21,10.56C86.85-.11,112,8.6,125,29.91h0c13,21.3,9.28,47.46-8.36,58.13l1.09-.69c1.34,4.48,3.84,7.9,5.19,12.38,1.14,3.79-.82,6.89-4.55,5.48-5.39-2-9.38-6.76-14.25-10L71.37,115.4c-17.64,10.67-42.75,2-55.79-19.35h0C2.54,74.74,6.3,48.59,23.94,37.92Z"/><path class="cls-6" d="M23.94,37.92,69.21,10.56C86.85-.11,112,8.6,125,29.91h0c13,21.3,9.28,47.46-8.36,58.13l1.09-.69c1.34,4.48,3.84,7.9,5.19,12.38,1.14,3.79-.82,6.89-4.55,5.48-5.39-2-9.38-6.76-14.25-10L71.37,115.4c-17.64,10.67-42.75,2-55.79-19.35h0C2.54,74.74,6.3,48.59,23.94,37.92Z"/><g class="cls-7"><path class="cls-8" d="M24.36,38.71,68.75,11.38C86,.73,110.85,9.11,123.87,30h0c13,20.89,9.53,46.7-7.77,57.35l1.06-.69c1.37,4.4,3.85,7.76,5.22,12.16,1.15,3.72-.75,6.8-4.44,5.43-5.33-2-9.3-6.58-14.12-9.77l-32.1,20.2C54.42,125.33,29.61,117,16.59,96.06h0C3.57,75.17,7.06,49.36,24.36,38.71Z"/><path class="cls-9" d="M138.73,35.59a35.72,35.72,0,0,0-5.31-3.14l.12-.13a6.34,6.34,0,0,0,2.34-6.73c-.91-3.37-4.1-7.1-8-6.09-2.65-.35-5.23,1.62-6.77,3.62a7.53,7.53,0,0,0-.86,1.4,4.68,4.68,0,0,0-.68,3.65,3.76,3.76,0,0,0,.1.74,37.12,37.12,0,0,0-12.81,1.39c-9,2.7-19.83,9.46-26.94,16.75-.18.18-.35.37-.52.56a3.85,3.85,0,0,0-.51-.56,4.73,4.73,0,0,0-3.26-1.81A7.47,7.47,0,0,0,74,45c-2.53-.11-5.71.59-7.13,2.84-3.27,2.31-2.44,7.13-.4,10a6.41,6.41,0,0,0,6.7,2.54h.14c-1.58,6.37-1.67,12.9-.26,16.34,2.53,6.18,6.39,24.34,26.68,29.51a26.43,26.43,0,0,0,12.87,1c6.62-1.33,29.63-10.51,35.32-18.39s8.87-14.34,7.26-23.69S149.09,43,138.73,35.59Z"/><path class="cls-10" d="M74.41,75.76A35.23,35.23,0,0,0,51.46,58.7c1.6-6,3.56-13.91,3.93-17.48C56,35,57.17,30.31,53.92,28s-5.87-1.24-6.58.11S43,52.53,43.07,54.84a26.6,26.6,0,0,1-.26,3q-2.84,0-5.81.28A24.69,24.69,0,0,1,36.67,55c0-2.32-4-25.24-4.7-26.56s-3.37-2.29-6.58.11-2,7.06-1.26,13.24c.43,3.64,2.61,11.72,4.32,17.75a61.75,61.75,0,0,0-9.89,3C9.42,66.23.92,79.88.64,86.46S-3.58,111,12,123.77a24.59,24.59,0,0,0,10.81,6.06c6.3,1.46,30,2.41,38.17-2.41s13.5-9.37,15.86-18.45S80.45,86.6,74.41,75.76Z"/><path class="cls-8" d="M105,80.59s-.88,3.47,1.46,4.66,5.32,1,8.74-.41,14.56-7.18,17.1-10.63,2.57-7.86-.2-9.24-11.57.06-16.18,3S105.91,76.55,105,80.59Z"/><path class="cls-11" d="M112.78,69.1a4.82,4.82,0,0,0,3,2.18c1.82.27,3.74-.94,4-2.34s-.5-4.15-1.46-4.58S111,66.69,112.78,69.1Z"/><ellipse class="cls-8" cx="100.56" cy="68.57" rx="8.76" ry="8.6" transform="translate(-14.45 28.74) rotate(-15.19)"/><ellipse class="cls-8" cx="123.46" cy="54.98" rx="8.76" ry="8.6" transform="translate(-10.09 34.27) rotate(-15.19)"/><ellipse class="cls-11" cx="102.66" cy="67.27" rx="4.67" ry="4.59" transform="matrix(0.97, -0.26, 0.26, 0.97, -14.04, 29.25)"/><ellipse class="cls-11" cx="121.9" cy="56.58" rx="4.67" ry="4.59" transform="translate(-10.57 33.91) rotate(-15.19)"/><path class="cls-11" d="M117.69,41.75s-7.49,9.84-6.4,12.36S129.22,39.45,127.58,38,117.69,41.75,117.69,41.75Z"/><path class="cls-11" d="M91,57.15s12.34-1.59,14,.6-21.74,8.18-22.17,6.07S91,57.15,91,57.15Z"/><ellipse class="cls-11" cx="23.7" cy="83.74" rx="4.38" ry="4.3" transform="translate(-21.11 9.13) rotate(-15.19)"/><ellipse class="cls-11" cx="59.98" cy="87.97" rx="4.38" ry="4.3" transform="translate(-20.95 18.79) rotate(-15.19)"/><ellipse class="cls-12" cx="22.72" cy="90.63" rx="2.16" ry="4.37" transform="translate(-69.89 103.06) rotate(-83.57)"/><ellipse class="cls-12" cx="59.33" cy="94.9" rx="2.16" ry="4.37" transform="translate(-41.62 143.23) rotate(-83.57)"/><path class="cls-8" d="M26.24,92.83S23.59,95,24.63,97.15s3.37,3.72,6.71,4.56,14.92,2.73,18.79,1.56,6.41-4.47,5.15-7-8.59-6.4-13.73-6.73S29.22,90.3,26.24,92.83Z"/><path class="cls-11" d="M38.59,88.54a4.37,4.37,0,0,0,.93,3.27,3.47,3.47,0,0,0,4.35.51c1-.87,2-3.39,1.55-4.26S38.66,85.74,38.59,88.54Z"/><path class="cls-11" d="M50.23,97.78a.53.53,0,0,0-.59-.18c-.67.12-4.66.17-5.46-.59a7,7,0,0,1-1.74-5s0,0,0,0,0,0,0,0v0a.11.11,0,0,1,0-.05l0,0s0,0,0,0l0,0s0,0,0,0l0,0,0,0,0,0,0,0,0,0,0,0H42s0,0,0,0,0,0,0,0h-.15l0,0,0,0,0,0,0,0,0,0,0,0s0,0,0,0l0,0s0,0,0,0,0,0,0,0,0,0,0,0a7.27,7.27,0,0,1-2.95,4.46c-1,.55-4.83-.42-5.45-.69a.54.54,0,0,0-.63,0,.51.51,0,0,0-.06.73,11.81,11.81,0,0,0,3.9,1A5.08,5.08,0,0,0,39,97.24a7.75,7.75,0,0,0,2.65-2.91,7.7,7.7,0,0,0,1.84,3.44,5.1,5.1,0,0,0,2.61.83,12,12,0,0,0,4-.09A.52.52,0,0,0,50.23,97.78Z"/></g></g></g></svg>