<svg xmlns="http://www.w3.org/2000/svg" viewBox="0 0 250.77 295.44"><defs><style>.cls-1{fill:#ef5c79;}.cls-2{fill:#efbdc6;}.cls-3{fill:#f0a1c8;}.cls-4{fill:#db81a1;}</style></defs><title>matchItem01</title><g id="圖層_2" data-name="圖層 2"><g id="圖層_1-2" data-name="圖層 1"><path class="cls-1" d="M237.22,123.73c-18.92-34.26-52.51-52.13-80.91-56.38,8.1-20.56,3.58-40.28,1.6-47.5-2.16-7.88-13-20-17.49-18.92-4.07.95-11.62,54.38-13.09,65-4.22.15-8.5.43-12.81.85-1.12-8.18-9-64.9-13.2-65.87C96.8-.13,86,12,83.82,19.85c-2.1,7.67-7.08,29.43,3.25,51.33A192.88,192.88,0,0,0,59.9,79.22C30.76,90.44,3.37,132.84,2.31,153.51s-14,76.74,35.29,117.74c0,0,14.22,14.72,34.24,19.62s95.51,9.11,121.49-5.61,43.19-28.73,50.92-57.12S256.19,158.07,237.22,123.73Z"/><path class="cls-2" d="M231.84,121.08c-18.13-33.76-50.32-51.37-77.53-55.57,7.76-20.26,3.43-39.69,1.53-46.81C153.77,10.94,143.41-1,139.08.06c-3.9.93-11.14,53.59-12.54,64.08-4,.15-8.15.43-12.28.84-1.07-8.06-8.63-64-12.65-64.91C97.28-1,86.92,10.94,84.85,18.71c-2,7.56-6.78,29,3.11,50.58a181,181,0,0,0-26,7.93C34,88.28,7.76,130.06,6.75,150.43s-13.46,75.63,33.81,116c0,0,13.63,14.5,32.81,19.34s91.52,9,116.42-5.52S231.17,252,238.57,224,250,154.92,231.84,121.08Z"/><circle class="cls-3" cx="126.02" cy="177.51" r="91.61"/><path class="cls-4" d="M156.21,192.57c-4.86-8.91-6.88-12.55-6.88-12.55l-.07.06c-.48-1.06-.82-1.83-1-2.31l.05,0c10-5.67,16.6-11.07,19.57-22s4.59-27-2.7-40.23A42.16,42.16,0,0,0,158,106c1.65-1,3.53-3.18,2-5.7-2.23-3.75-5.67-4.15-8.4-2.53a3.28,3.28,0,0,0-1.65,1.94,43.14,43.14,0,0,0-16-5.89C123,92.15,108.19,94,97,98.36a20.67,20.67,0,0,0-1.91.86,3.58,3.58,0,0,0-1.49-1.5c-2.73-1.62-6.18-1.21-8.4,2.53-1.34,2.25,0,4.24,1.5,5.34-6.64,6.74-11.57,16-11.84,21.39-.4,8-5.4,29.56,13.57,45.36a30.6,30.6,0,0,0,13.16,7.56l.36.08c-.62,1.13-2.7,4.89-6.68,12.18C89.36,203,85,210.89,83.51,218.08s-.84,8.56-.09,9.61S86.49,231,88,230.95s2.91-1.77,3.48-3,1.14-2.57,1.14-2.57a7.24,7.24,0,0,0,1.84.93c.47,0,1.81.22,2.27-1a1.89,1.89,0,0,0-.55-2.45,5,5,0,0,1-1.31-1.09c-.21-.31,0-1.08.39-1.74.27-.43,1.27-2.18,2-3.24l.66-1.31c1.43,6.3,3.78,9,4.17,9.38-.18,3.55-1.06,18.43-.87,20,.2,1.78-.37,1.28-1.18,1.65a12.1,12.1,0,0,0-5.44,5.95c-1.65,3.8,3.7,4.23,4.1,4.37s11.83.47,13.38,0,5.21-1.71,5.71-4.67,1.85-18.87,1.85-18.87l0-.06.77,0c.83,0,10.21-.1,10.21-.1l.56-.07c.11,1.59,1.43,18.24,1.56,18.82a6.82,6.82,0,0,0,4.6,4.44c3.39,1.08,14.79.47,14.79.47s3.56-1,3.6-2.86a5,5,0,0,0-1.29-4,33.16,33.16,0,0,0-5-3.91,3.89,3.89,0,0,1-.15-1.61c0-1-.56-16.69-.7-20.35a23.78,23.78,0,0,0,4.17-9.73c.47,1,.94,1.93,1.4,2.83.75,1.06,1.76,2.81,2,3.24.41.66.6,1.43.39,1.74a5,5,0,0,1-1.31,1.09,1.89,1.89,0,0,0-.55,2.45c.46,1.19,1.8,1,2.27,1a2.31,2.31,0,0,0,1.43-1.39s1,1.84,1.55,3,2,2.93,3.48,3,3.83-2.21,4.58-3.25,1.38-2.41-.09-9.61S162.11,203.38,156.21,192.57Z"/></g></g></svg>