<svg xmlns="http://www.w3.org/2000/svg" viewBox="0 0 979 919.51"><defs><style>.cls-1{fill:#c5798a;opacity:0.5;}.cls-2{fill:#ef5c79;}.cls-3{fill:#f3abb1;}.cls-4{fill:#d45a65;}.cls-5{fill:#f0a1c8;}.cls-6{fill:#eb616d;}.cls-7{fill:#f8c188;}.cls-8{fill:#fbc5cf;stroke:#eb616d;stroke-miterlimit:10;stroke-width:3px;}.cls-9{fill:#e2dcd0;}</style></defs><title>matchHorse_4</title><g id="圖層_2" data-name="圖層 2"><g id="圖層_1-2" data-name="圖層 1"><ellipse class="cls-1" cx="489.5" cy="832.17" rx="489.5" ry="87.33" transform="translate(-1.59 0.94) rotate(-0.11)"/><path class="cls-2" d="M40,822s165.52,59.53,209.9,61.46,285.77,3.49,342.92-.65S814,869.58,834.18,860.12s85.35-23.7,98.09-39.86,6-37.67,6-39.68-2.72-16.13-4.07-16.13-12.11-4-12.11-4,2.67-12.11-3.39-13.44-16.14-3.33-16.14-3.33-.7-16.81-6.76-16.8-37,2.76-37,2.76-.71-17.48-8.11-21.5-38.33-2.62-38.33-2.62a11.71,11.71,0,0,0-9.44-12.76c-10.76-2.67-57.83-1.91-57.83-1.91s2.65-22.19-4.76-26.89-71.29-8.6-71.29-8.6l-389.82.74-88.2,25L174.92,696s-26.9.05-34.29,3.43-6,14.8-6,14.8-24.87,4.08-30.24,6.78-6,17.49-6,17.49-20.84,1.38-26.89,4.09S52.65,749.33,53.33,756c0,0-12.11-2.67-13.44,3.39s0,18.15,0,18.15-3.36,2-5.36,11.44S34,820,40,822Z"/><path class="cls-3" d="M273.28,443.64c0,2.69,6.36,219.19,6.39,232.63s115,13.9,134.79,11.85,191.87-7.49,233.81-20.62c19.45-6.09,20.46-12.14,20.46-12.14l-5.06-227.93-390.4,8.14Z"/><path class="cls-4" d="M276.66,452.37S334.5,462.35,354,463s148.61,3.75,183.56-.35S629,451.7,635,447.66s19.32-20,19.32-20l9.55-.19L664,452s-4,7.07-10.74,10.44-12.1,4.06-21.51,2.06-14.81-6.7-17.49-4.67-9.4,9.43-15.44,13.48-14.11,6.08-19.49,3.4-7.42-10.07-12.79-7.37-2.67,10.09-13.42,13.47-28.23,4.76-37,.07S498.62,493,486.52,491s-22.88-10.71-26.24-11.38-8.72,8.76-14.77,11.46-28.9,6.11-33.62.06S400.42,476.34,396.4,479s-4,8.75-12.76,10.11-17.49-3.33-20.86-7.36-5.39-5.37-10.76-1.32-17.46,10.12-26.21,5.43-6.74-8.06-10.11-10.74-5.37,2.7-12.1,3.39-16.15-6-21.54-11.39S274,451.71,276.66,452.37Z"/><path class="cls-4" d="M278,488.77c-.22-1.06-1.84-.61-1.62.45l2.35,11.18c.22,1.06,1.84.61,1.62-.45Z"/><path class="cls-4" d="M655.59,490.92c1-.34.58-2-.45-1.62q-13.25,4.38-26.7,8.07a.83.83,0,0,0,.1-.25,16,16,0,0,0-1.58-11,.76.76,0,0,0-.42-.37q6.74-1.47,13.44-3.13v0l2.9,9.49c.32,1,1.94.59,1.62-.45l-2.89-9.46q6.76-1.71,13.48-3.62a.84.84,0,0,0-.45-1.62c-46.85,13.39-95.45,18.56-143.89,22.13-24.44,1.8-49,3.85-73.47,4.29-25.19.45-50.18-2.14-75.11-5.46-28.13-3.75-56.24-7.71-84.36-11.57-1.06-.15-1.51,1.47-.44,1.62l18.74,2.58a.94.94,0,0,0,0,.19,50.37,50.37,0,0,0,.54,13.71.9.9,0,0,0,0,.14q-7.13-1.57-14.14-3.68c-1-.31-1.48,1.31-.44,1.62a187.28,187.28,0,0,0,35.47,7.1c12.76,1.28,25.54.88,38.33.62a293.17,293.17,0,0,1,38.48,1.58c12.52,1.39,25,3.21,37.53,4.4a549.45,549.45,0,0,0,143.81-5.44A548.78,548.78,0,0,0,655.59,490.92Zm-357.71,14a.85.85,0,0,0,.34-.86,48.74,48.74,0,0,1-.48-13.23l27.38,3.76a.86.86,0,0,0-.38.63l-1.48,12.54a.66.66,0,0,0,.45.75A181.07,181.07,0,0,1,297.88,504.91ZM441.27,515.4c-24.71-1.9-49.22-6.79-74-6.9-14.22-.07-28.44.93-42.65.07l-.4,0a.9.9,0,0,0,.77-.79l1.48-12.54a.73.73,0,0,0-.08-.46l8.87,1.22a.84.84,0,0,0-.27.56l-1,10.75c-.1,1.08,1.58,1.07,1.68,0l1-10.75a.79.79,0,0,0,0-.37l9.16,1.26-.53,9.85c-.06,1.08,1.62,1.07,1.68,0l.52-9.62,5.77.79c7.22,1,14.45,2,21.69,2.84v5.49a.84.84,0,0,0,1.68,0v-5.28q6.36.76,12.73,1.42a.91.91,0,0,0-.07.25l-.49,4.48c-.12,1.07,1.56,1.06,1.68,0l.49-4.48a.86.86,0,0,0,0-.09c12.09,1.19,24.21,2,36.38,2.1,6.27,0,12.55-.05,18.82-.25a.88.88,0,0,0-.8,1,77.12,77.12,0,0,1,1.24,8.3c.1,1.07,1.78,1.08,1.68,0a81.3,81.3,0,0,0-1.3-8.75.71.71,0,0,0-.79-.6c18.77-.61,37.54-2.17,56.25-3.49q13.1-.92,26.18-2a.87.87,0,0,0-.75.79,44.23,44.23,0,0,0,.9,14.1c.24,1.05,1.86.6,1.62-.45a42.81,42.81,0,0,1-.84-13.65.7.7,0,0,0-.75-.8q15.62-1.31,31.21-3a.81.81,0,0,0-.3.62l-.52,12.55c0,1.08,1.64,1.08,1.68,0l.52-12.55a.72.72,0,0,0-.42-.72c4.88-.55,9.75-1.13,14.61-1.76l.66-.09a.78.78,0,0,0-.51.75,60.41,60.41,0,0,0,.85,11.45c.18,1.06,1.8.61,1.62-.45a58,58,0,0,1-.79-11,.76.76,0,0,0-.72-.8c16.46-2.17,32.85-4.89,49.07-8.41a.81.81,0,0,0-.2,1,14.11,14.11,0,0,1,1.41,9.67.84.84,0,0,0,.51,1q-7.46,2-15,3.87a.89.89,0,0,0,0-.14l-1.17-11.18c-.11-1.07-1.79-1.07-1.68,0l1.17,11.18a.86.86,0,0,0,.21.49,548.26,548.26,0,0,1-98,14.33A546.61,546.61,0,0,1,441.27,515.4Z"/><path class="cls-4" d="M589.57,493.35l0,11.21a.84.84,0,0,0,1.68,0l0-11.21A.84.84,0,0,0,589.57,493.35Z"/><path class="cls-4" d="M542.87,499.28l1.06,11.64c.1,1.07,1.78,1.08,1.68,0l-1.06-11.64C544.45,498.21,542.77,498.2,542.87,499.28Z"/><path class="cls-4" d="M511.14,502l0,12.55a.84.84,0,0,0,1.68,0l0-12.55A.84.84,0,0,0,511.14,502Z"/><path class="cls-4" d="M460.49,505.25l0,9a.84.84,0,0,0,1.68,0l0-9A.84.84,0,0,0,460.49,505.25Z"/><path class="cls-4" d="M431.81,507.1V512a.84.84,0,0,0,1.68,0V507.1A.84.84,0,0,0,431.81,507.1Z"/><path class="cls-4" d="M418.42,506.24l-.54,5.82c-.1,1.08,1.58,1.07,1.68,0l.54-5.82C420.2,505.16,418.51,505.17,418.42,506.24Z"/><path class="cls-4" d="M403.11,505.36v4.48a.84.84,0,0,0,1.68,0v-4.48A.84.84,0,0,0,403.11,505.36Z"/><path class="cls-4" d="M360.07,501.41v5.83a.84.84,0,0,0,1.68,0v-5.83A.84.84,0,0,0,360.07,501.41Z"/><path class="cls-4" d="M310.3,493.89l0,12.1a.84.84,0,0,0,1.68,0l0-12.1A.84.84,0,0,0,310.3,493.89Z"/><path class="cls-4" d="M287.15,500.47l-2.22-9.87c-.24-1.05-1.86-.61-1.62.45l2.22,9.87C285.77,502,287.39,501.52,287.15,500.47Z"/><path class="cls-4" d="M659.7,488.75a73.16,73.16,0,0,1-.31-11.66c.06-1.08-1.62-1.07-1.68,0a73.14,73.14,0,0,0,.31,11.66C658.14,489.82,659.82,489.83,659.7,488.75Z"/><path class="cls-4" d="M567.53,543.32a.74.74,0,0,0,.09-1.31c3.46-1.14,1.22-7.36,0-9.64-2.27-4.33-6.69-5.71-11.11-3.66-4.59,2.13-4.55,7.34-2,11.23C557.46,544.27,562.93,545.32,567.53,543.32Zm-11-12.76c3-1.83,6.74-1.5,8.86,1.43.61.84,4,8.27,1.34,8.49a.89.89,0,0,0-.52,1.54,8.67,8.67,0,0,1-9.32-1.83C554.53,537.79,553.06,532.69,556.58,530.56Z"/><path class="cls-4" d="M566.08,567.39a.7.7,0,0,0,.71.39c4.47-.28,8.41-4,7.83-8.71-.65-5.23-5.45-7.47-10.22-6.9-4.42.54-8.28,2.64-7.32,7.65C557.94,564.32,561.67,567.68,566.08,567.39Zm-.5-13.65c8.14-.34,9.78,10.34,2.73,12.12a.76.76,0,0,0-.93-.39c-3.91,1.11-7.37-1.41-8.45-5.16C557.58,555.59,561.73,553.9,565.58,553.74Z"/><path class="cls-4" d="M569.77,590.55a.72.72,0,0,0,1.14.38,6.87,6.87,0,0,0,1.14-9.77c-2.42-3.13-8-5.08-11.75-3.51-4.16,1.73-3.25,7.33-1.34,10.44C561.31,591.9,565.95,591.46,569.77,590.55ZM561,579.22c2.63-1.13,6.64.12,8.72,1.89,2.24,1.9,3.08,5.53,1,7.76a.78.78,0,0,0-.69-.12c-2.52.65-5.81,1.49-8.19,0C559.29,587.1,557.4,580.76,561,579.22Z"/><path class="cls-4" d="M599.66,537.56a.68.68,0,0,0,.55-.43c3.44-1.48,4.14-5.64,3.21-9.12-.46-1.72-1.17-4-2.7-5.11-2-1.4-4.48-.26-6.52.36-1.58.48-3.84.81-4.71,2.43s-.23,4.05.32,5.65C591.29,535.57,595.15,538.35,599.66,537.56Zm-8.23-6.67c-.36-1-.92-2.62-.64-3.65.46-1.7,2-1.79,3.38-2.22a15.22,15.22,0,0,1,3.23-1c3-.16,3.65,1.76,4.28,4,.86,3,.72,6.95-2.93,7.83a.82.82,0,0,0-.34.17C595.17,536.21,592.54,533.94,591.44,530.89Z"/><path class="cls-4" d="M604.58,563a.79.79,0,0,0,.57-.93c3-1.4,5.56-3.58,5-7.42-.65-4.67-5.25-7.07-9.61-7-1.58,0-3.53.26-4.49,1.69-1.14,1.69-.51,4.72-.19,6.59C596.63,560.12,599.89,564.31,604.58,563Zm-7-12.1c.52-1.22.69-1.23,2-1.44a9.47,9.47,0,0,1,2.31-.07c3.26.29,6.58,2.44,6.73,6s-3.41,5-6.23,6a.89.89,0,0,0-.24.13c-2.68-.47-4.22-3.63-4.62-6.31A8.18,8.18,0,0,1,597.57,550.86Z"/><path class="cls-4" d="M603.09,583.86c1.8,0,3.61,0,5.41-.07a.82.82,0,0,0,.8-1c2.81-1.94,4.82-5.21,3.47-8.69a7,7,0,0,0-8.69-4,8.32,8.32,0,0,0-5.5,9.17c.2,1.47.73,3.5,2.17,4.26A5,5,0,0,0,603.09,583.86Zm-2.72-4.08a6.83,6.83,0,0,1,3.35-7.72,5.38,5.38,0,0,1,7.44,2.64c1.35,3.22-1.29,6-4,7.42l-3.13,0C602.13,582.19,600.87,581.86,600.38,579.77Z"/><path class="cls-4" d="M608.58,604.08c4.2-.09,6.59-3.91,6.31-7.85a8,8,0,0,0-1.78-4.93c-1.31-1.35-3.36-1.32-5.11-1.18-3.74.31-6.87,3.06-6.79,7a6.78,6.78,0,0,0,6.59,6.4A.75.75,0,0,0,608.58,604.08Zm-.84-12.23a7.89,7.89,0,0,1,3.23,0c1.67.56,2.12,2.84,2.24,4.33.23,2.77-1.12,5.66-4,6.11a.73.73,0,0,0-.75-.49C601.78,602.11,601.11,592.73,607.74,591.85Z"/><path class="cls-4" d="M567.85,595.59c-10.3.5-6.2,17,1.5,13,1-.5.11-1.95-.85-1.45-4,2.09-5.84-3.89-5.08-6.77.87-3.3,4.94-3.63,7.62-2.62,2.85,1.07,4.74,3.82,3.31,6.82-1,2.19-3.3,3.65-5.26,4.93-.9.59-.06,2,.85,1.45,3.24-2.11,7.37-5.23,6.51-9.66C575.71,597.5,571.43,595.42,567.85,595.59Z"/><path class="cls-4" d="M522.53,546.46a.89.89,0,0,0,.93.48c3.8-.58,4.47-4.95,2.6-7.76-2.26-3.39-7.68-5.55-11.6-4.08C507.07,537.86,515.16,552.1,522.53,546.46Zm-6.12-10.05a9.45,9.45,0,0,1,6.22,1.72c2.19,1.51,5,6.49.39,7.19l-.16,0a.7.7,0,0,0-1.13-.37C515.54,549.77,509.67,537.37,516.41,536.41Z"/><path class="cls-4" d="M525.55,569.28c1.08-.06,1.08-1.74,0-1.68a10.69,10.69,0,0,1-7-1.95c-2.51-1.81-5.62-6.19-1.61-8.25,2.57-1.32,5.8-1.65,7.56,1,1.65,2.49,3.2,5.33,2.66,8.41-.19,1.06,1.43,1.51,1.62.44.67-3.8-1.21-8.47-3.91-11.2-2.38-2.41-7.07-1.37-9.61.32-3.07,2-2,5.89-.07,8.35A12.25,12.25,0,0,0,525.55,569.28Z"/><path class="cls-4" d="M526.66,592.72a.77.77,0,0,0,.35-.14c4-.86,5.62-4,4.15-8.34-1.33-3.94-4.91-8.27-9.6-6.85-4.43,1.34-4.57,6.87-4,10.64C518.26,593,522.42,593.41,526.66,592.72Zm-6.13-12.84c5.73-5.33,15.29,10.48,5,11.23a.85.85,0,0,0-.41.14c-3,.33-5.64-.23-6-4C518.91,584.92,518.66,581.61,520.52,579.88Z"/><path class="cls-4" d="M525.43,601.43c-4-.21-7.1,3.71-6.64,7.57.59,4.93,5.11,7.22,9.54,7.74,3.6,2.38,6.19-2.15,5.66-5.33C533.29,607.15,530.27,601.68,525.43,601.43Zm3.9,13.95a.83.83,0,0,0-.44-.25.68.68,0,0,0-.27,0c-2.91-.29-5.78-1.23-7.34-3.91a5.43,5.43,0,0,1,1.64-7.48c3-1.8,6.1.67,7.6,3.18a14.94,14.94,0,0,1,1.55,3.67C532.52,612.2,532.29,617.16,529.32,615.37Z"/><path class="cls-4" d="M629.39,531.09c1-.32.59-1.95-.45-1.62-5.78,1.82-8.9-5.93-4-9.11a5.6,5.6,0,0,1,6.91.92c1.9,1.83,3.43,7.59-1,7.33-1.08-.06-1.07,1.62,0,1.68,4.14.24,5.37-4.33,4-7.56-1.46-3.51-5.57-5.78-9.27-4.54-3.33,1.12-5.77,5-4.74,8.45A6.85,6.85,0,0,0,629.39,531.09Z"/><path class="cls-4" d="M636,556.46l.12-.1a6,6,0,0,0,3.87-7.91c-1.59-4.5-7-6.49-11.42-5.87C619.6,543.83,626.78,562.71,636,556.46Zm-6.45-12.27c2.65-.11,5.73.63,7.57,2.67,2.53,2.79,1.92,8.07-2.6,8a.79.79,0,0,0-.81.89C626.84,558.34,623.42,544.45,629.52,544.19Z"/><path class="cls-4" d="M637.08,578.29a.81.81,0,0,0,.75.2c3.57-.77,4.52-4.93,3.13-7.92s-4.82-7.05-8.51-5.39a7,7,0,0,0,4.63,13.11Zm-5-10.89c1.45-1.22,2.85-1.1,4.32.09a12.13,12.13,0,0,1,2.43,2.73c1.29,2,1.69,5.37-.77,6.43a.74.74,0,0,0-.74-.15C631.78,578.2,627.48,571.27,632.08,567.39Z"/><path class="cls-4" d="M636.7,602.67c3.92-1.06,7.23-4.72,6.6-9-.56-3.75-4.46-7-8.29-6a6.51,6.51,0,0,0-4.54,8c.85,2.55,3.92,4.69,6.83,5a8.5,8.5,0,0,1-1,.36A.84.84,0,0,0,636.7,602.67Zm-4.84-8.77a4.66,4.66,0,0,1,5-4.66,5.62,5.62,0,0,1,4.73,6.42,6.2,6.2,0,0,1-1.49,3,.82.82,0,0,0-.6.07C636.67,600.22,631.9,596.86,631.86,593.9Z"/><path class="cls-4" d="M640.61,626.6a.77.77,0,0,0,.45-1.24c2.38-1.49,2.46-5.95,1.51-8.32a7.22,7.22,0,0,0-9.23-4.19,6.62,6.62,0,0,0-3.68,8.88C631.39,626.13,636.33,627.49,640.61,626.6ZM633,614.87a5.5,5.5,0,0,1,7,1.06,6.43,6.43,0,0,1,1.48,3.41c.2,1.54,0,4.92-2.37,4.84a.79.79,0,0,0-.79,1,7.55,7.55,0,0,1-6-2.33C630.23,620.56,630.18,616.59,633,614.87Z"/><path class="cls-4" d="M638.17,637.8c-3.68.18-6,3.14-4.93,6.69,1,3.3,3.43,7.26,7.22,7.33a.75.75,0,0,0,.64-.3.91.91,0,0,0,.28-.07C648.51,648.24,646.11,637.4,638.17,637.8ZM640.54,650a.85.85,0,0,0-.2.13c-2.55-.13-4-2.73-5-4.84-.68-1.54-1.12-3,.07-4.39a4.18,4.18,0,0,1,4.35-1.29C645.15,640.88,645.35,647.83,640.54,650Z"/><path class="cls-4" d="M613.93,610.33c-4-.39-8.53,1.25-9.66,5.45a7,7,0,0,0,5,8.39.77.77,0,0,0,1-.59c3.6,1.22,7.36.68,8.21-3.73C619.06,616.63,617.83,610.71,613.93,610.33Zm1.18,11.93c-1.59.94-3.45.09-5-.5a.71.71,0,0,0-1,.59,5.21,5.21,0,0,1-3.36-5.79c.64-3.25,3.62-4.36,6.57-4.55,3.3-.22,4.57,3.73,4.51,6.47A4.31,4.31,0,0,1,615.11,622.26Z"/><path class="cls-4" d="M653.71,524.17c3.43-.2,3.55-4,2.13-6.35s-4.47-5.51-7.66-4.71c-2.69.68-3.63,3.77-2.73,6.19,1.13,3,4.51,4,7.45,4A.75.75,0,0,0,653.71,524.17Zm-5.51-3.91c-1.33-1.1-2-3.28-.8-4.74,1.55-1.91,4.11-.19,5.4,1.11a10.89,10.89,0,0,1,1.59,2c.58,1,1.42,3.41-.36,3.78a.77.77,0,0,0-.81-.84A7.38,7.38,0,0,1,648.19,520.26Z"/><path class="cls-4" d="M655.91,553.14a.86.86,0,0,0,1.65.06c1.08-3.41.2-17-6.49-12.73-2.55,1.63-2.75,4.75-1.65,7.33S652.77,553.91,655.91,553.14Zm-5-10.06c.84-1.47,2.52-2.21,3.91-.64.88,1,1,2.77,1.25,4a14.7,14.7,0,0,1,.13,5,.76.76,0,0,0-.57,0c-2.43.74-4.49-3.38-5-5.1A4,4,0,0,1,650.95,543.09Z"/><path class="cls-4" d="M654.88,579.26a.8.8,0,0,0,.71,0c3.4-1.83,4-5.48,3.47-9-.41-2.79-1.12-7.71-4.74-8.19s-4.48,3.48-4.22,6.2c.36,3.94,1.32,7.82,3.93,10.88A.69.69,0,0,0,654.88,579.26Zm-3.06-13.78,4.64.75.26.9a13.5,13.5,0,0,1,.65,3.16c.42,2.79.25,5.73-2.36,7.31a13.36,13.36,0,0,1-2.51-5.26C652.18,571.11,650.9,566.31,651.82,565.48Z"/><path class="cls-4" d="M656.83,602.71a.87.87,0,0,0,1.14,0c2.6-2.19,3.27-5.42,2.91-8.68-.27-2.44-.52-7-3.78-7.13-7.52-.35-3.37,13.3-1.75,16.56C655.82,604.4,657.18,603.63,656.83,602.71Zm-1.72-13,3.3.45q.2.8.37,1.6a18.33,18.33,0,0,1,.52,3.55,7.46,7.46,0,0,1-2.53,6.19.73.73,0,0,0-.27.46,21.08,21.08,0,0,1-1.75-5.58C654.55,595.1,653.81,590.65,655.12,589.74Z"/><path class="cls-4" d="M659.85,611.25c-2.11-1.74-4.8-.32-5.57,2.07-1.17,3.65.44,8.18,2.24,11.35a.8.8,0,0,0,1.24.2C664.86,626,663.64,614.37,659.85,611.25Zm-2.13,11.91h-.11a16.76,16.76,0,0,1-1.51-3.9,14.36,14.36,0,0,1-.44-3.19q0-.43,0-.85-.34-2.86,2.13-1.93c1.86.1,1.61-.07,2.23,1.29a17.14,17.14,0,0,1,1.09,2.93C661.67,619.68,661.15,623.93,657.71,623.16Z"/><path class="cls-4" d="M657,636.48c-3.5-.44-3.66,3.35-3.39,5.85s.76,7.38,3.7,8a.9.9,0,0,0,1.46.6,9.54,9.54,0,0,0,3.2-8.39C661.64,639.9,660,636.86,657,636.48Zm1.43,12.44a.81.81,0,0,0-.49-.16c-2,0-2.56-5.55-2.69-6.89-.11-1.18-.59-4,2-3.63a3.9,3.9,0,0,1,2.29,2A7.74,7.74,0,0,1,658.42,648.93Z"/><path class="cls-4" d="M466.68,541.73c-.91,4.71,2.42,8.73,6.85,9.81a.85.85,0,0,0,1.37.29c3.72-3.59,10.45-14.71,2.15-17.32-.82-.26-1.26.71-.9,1.28A7.61,7.61,0,0,0,466.68,541.73Zm9.78-4.07c.78.29,1.22-.61.92-1.2,5,2.43-.26,10.47-3.07,13.57l-.19-.06c-3.42-.78-6.15-3.52-5.89-7.21A6,6,0,0,1,476.46,537.66Z"/><path class="cls-4" d="M477.41,566.77c-1-.51-1.8.94-.85,1.45a6.52,6.52,0,0,1,3.59,5.67c0,4.09-3.84,4.27-6.71,2.88a6.65,6.65,0,0,1-4-5.32c-.18-3.09,2.56-6.22,5.77-4.51,1,.51,1.8-.94.85-1.45a5.58,5.58,0,0,0-8,3.59c-1.1,3.82,1.18,7.47,4.58,9.15,2.92,1.44,7.41,1.9,8.81-1.79S480.78,568.55,477.41,566.77Z"/><path class="cls-4" d="M476.6,604c2.81-1.3,3.48-5,3.2-7.79-.24-2.36-2.31-4.66-4.76-3.24a.84.84,0,0,0,.85,1.45c2.35-1.37,2.31,2.78,2.22,3.84-.16,1.82-.88,4.33-3.12,4.36-3.83.05-3.77-7.09-1-8.43,1-.47.12-1.92-.85-1.45-2.47,1.18-3.27,5.55-2.61,7.94C471.27,603.26,474,605.23,476.6,604Z"/><path class="cls-4" d="M474.14,615.57c-1.57,2.5-2.68,5.88-1.74,8.82.71,2.21,2.86,3.67,5,2.32,2.53-1.57,2.47-5.47,2.68-8.07.2-2.43-.74-5.07-3.62-4.6-1.06.17-.61,1.79.45,1.62,2.28-.37,1.36,4.2,1.26,5a18.88,18.88,0,0,1-.32,2.28c-.26,1-1.31,4.21-3.47,1.81-1.89-2.1,0-6.47,1.17-8.38C476.17,615.49,474.71,614.65,474.14,615.57Z"/><path class="cls-4" d="M474.09,636.74c-1,.51-.1,2,.85,1.45,1.93-1,3.7,1,3.83,2.78a8.58,8.58,0,0,1-1.53,4.94c-1.65,2.5-4.29,1.2-4.56-1.39a6,6,0,0,1,1.85-4.8c.78-.75-.41-1.94-1.19-1.19-2,2-3.13,5.39-1.84,8.05a3.93,3.93,0,0,0,6.37,1.26c2-2.06,3.38-6.18,2.11-8.9A4.33,4.33,0,0,0,474.09,636.74Z"/><path class="cls-4" d="M435.5,551.06c6-.83,6.69-7.67,5-12.55a9.52,9.52,0,0,0-10.42-6,.77.77,0,0,0-.86-.3c-5.05,1.38-7.36,7.25-6.35,12.11C424.08,550.25,430.15,551.8,435.5,551.06Zm-10.91-6.73c-.93-3.6.43-8.21,3.8-10a.74.74,0,0,0,.69.1,8,8,0,0,1,9.37,3.54,11.44,11.44,0,0,1,1,5.81c-.11,3.41-1.52,5.5-5.15,5.67C430.2,549.67,425.74,548.79,424.58,544.33Z"/><path class="cls-4" d="M434.07,576.25c6-2,6-16.25-1.74-14.92-1.06.18-.61,1.8.45,1.62,5.23-.91,5.31,13.49-1.45,11.73-6.29-1.64-2.72-9.52-.16-12.62.68-.83-.5-2-1.19-1.19-2.57,3.1-4.76,7-3.43,11.13C427.54,575.08,430.81,577.32,434.07,576.25Z"/><path class="cls-4" d="M430.5,587.48c-1.45,3.07-2.44,7.52.69,9.95a6,6,0,0,0,8.59-2c1.73-3.09,1-7.69-2.35-9.36-2.46-1.23-8-1.69-9.6,1a.84.84,0,0,0,1.45.85c1-1.63,5.19-1.15,6.69-.66,2.94,1,3.78,4.73,2.36,7.28-1.23,2.19-4.55,3.12-6.46,1.19s-.95-5.3.08-7.47C432.42,587.36,431,586.51,430.5,587.48Z"/><path class="cls-4" d="M438.92,619.3a9,9,0,0,0,1.78-4.7c.16-1.57.35-4.3-.55-5.74-1.52-2.42-5.41-.46-7.69,1.08a.76.76,0,0,0-1.23.2c-1.43,2.83-3.14,7.7-.37,10.28C433.31,622.7,437,621.74,438.92,619.3Zm-6.79-7.14a.88.88,0,0,0,.35-.18,11.17,11.17,0,0,1,3.81-2.11c1.62-.5,2.45-.64,2.67,1.27.25,2.21.24,4.63-1,6.58s-4.29,3.39-6.16,1.3C430.32,617.36,431.21,614.3,432.13,612.16Z"/><path class="cls-4" d="M432,642.2a5.08,5.08,0,0,0,6.89,1.06,5.55,5.55,0,0,0,1.46-7.11,5.93,5.93,0,0,0-7.16-2.41.91.91,0,0,0-.48,1.24C431.19,637,430.43,640,432,642.2Zm2.49-6.73a.84.84,0,0,0,.21-.37c3.41-.38,6.57,3.64,3.58,6.5a3.35,3.35,0,0,1-5.06-.62C432.19,639.15,433.22,636.86,434.52,635.47Z"/><path class="cls-4" d="M434.55,651.81a.72.72,0,0,0-.58.94,6.2,6.2,0,0,0-2.27,6.92c.9,2.62,4,4.86,6.84,4a3.86,3.86,0,0,0,2.46-2.8,13.84,13.84,0,0,0,.92-6.12C441.32,651.17,437.32,651.26,434.55,651.81Zm2.48,10.3c-4.7-.18-4.93-6.42-1.46-8.41a.78.78,0,0,0,.36-.43c2.09-.3,4.35-.13,4.37,2.71C440.32,658,439.62,662.21,437,662.11Z"/><path class="cls-4" d="M390.27,543.51a5.42,5.42,0,0,0,2.76-7.33c-1.55-2.92-5.92-3.36-9.11-3.37a.81.81,0,0,0-1.39-.43,7.09,7.09,0,0,0-.63,8.94A7,7,0,0,0,390.27,543.51Zm-7.78-7.44c.59.39,1.59,0,1.29-.88l-.05-.7a17.45,17.45,0,0,1,5.81.92c3.2,1.17,3,5.11.06,6.53C385.37,544,381.77,539.87,382.49,536.06Z"/><path class="cls-4" d="M381.55,568.79c2.61,3.08,7.6,4.5,11.15,2.22a6.32,6.32,0,0,0,2-8.91c-2.37-3.42-6.54-3.83-10.4-3.67a.79.79,0,0,0-1.18,0l-.09.1-.54,0a.9.9,0,0,0-.66,1.39C379.91,562.61,379.12,565.93,381.55,568.79Zm2.3-8.67c2.42-.17,5-.22,7.15.93,2.85,1.52,4.33,4.88,1.89,7.6-2.19,2.45-5.86,2.16-8.41.49C380.77,566.71,381.35,563,383.85,560.12Z"/><path class="cls-4" d="M393.14,584.51a11,11,0,0,0-11.82,3.5c-.6.75.29,1.79,1,1.38a6.09,6.09,0,0,0,2,8c4.31,2.73,9.57,0,11.86-4,.84-1.45,2.15-3.89,1.53-5.61S394.69,585,393.14,584.51Zm2.72,5.44c-.38,3-3.46,6.08-6.31,6.71-4.34,1-8.84-4.05-4.92-7.53.65-.57,0-1.44-.68-1.4a9,9,0,0,1,5.3-2C391.94,585.56,396.29,586.6,395.87,589.95Z"/><path class="cls-4" d="M394.94,610.86c-1.14-1.36-3.26-1.51-4.9-1.72a9.93,9.93,0,0,0-5.67.69c-.85.39-.32,1.53.47,1.53-1.26,3.12-1.37,7,1.34,9.38a5.62,5.62,0,0,0,8.29-.47C396.18,618,396.92,613.2,394.94,610.86Zm-1.34,7.56a3.92,3.92,0,0,1-6.45.94c-2.1-2-1.74-5.31-.61-7.73a.84.84,0,0,0,0-.77,11.09,11.09,0,0,1,5.86.4C395.08,612.25,394.65,616.31,393.6,618.43Z"/><path class="cls-4" d="M386.72,643.85c1.78,2.7,6.1,4,8,.67,1.75-3.12,1.84-8.63-1.17-11-2.59-2-6.55-.69-6.7,2.77a.84.84,0,0,0,0,.33A6.36,6.36,0,0,0,386.72,643.85Zm3.06-7.8a.88.88,0,0,0-.21-1.55,2.74,2.74,0,0,1,2.46,0,4.42,4.42,0,0,1,1.9,2.67c.45,1.64.41,5.06-.71,6.48-2.09,2.66-5.29,0-5.82-2.45A5,5,0,0,1,389.78,636Z"/><path class="cls-4" d="M394,661c-3.85-1.79-7.63.66-10.66,2.9-.86.64,0,2.1.85,1.45,2.66-2,8.7-5.86,10.93-1.09a5.41,5.41,0,0,1-.33,4.14,3.6,3.6,0,0,1-2.74,2,6.7,6.7,0,0,1-3.2,0c-1.67-.48-3.26-2.5-1.68-4.12.76-.78-.43-2-1.19-1.19-2,2.1-1,5.44,1.55,6.61s7.35.61,8.64-2.3C397.58,666.26,397.44,662.57,394,661Z"/><path class="cls-4" d="M342.69,533.7a.79.79,0,0,0-1.35-.31c-2.24,2.52-3.22,6.35-1.65,9.48a6.69,6.69,0,0,0,8.84,2.86,6.78,6.78,0,0,0,3-8.78C350,533.56,346,532.43,342.69,533.7Zm4.14,10.87a4.91,4.91,0,0,1-6-3.53,7.13,7.13,0,0,1,1.37-6,.89.89,0,0,0,1,.24c2.62-1.15,6.09,0,7,2.85A5,5,0,0,1,346.83,544.57Z"/><path class="cls-4" d="M311.88,524.89a.76.76,0,0,0-.93.41.79.79,0,0,0-.66.07c-3.05,1.69-3.39,6.27-3,9.38.46,4,3.13,5.52,7,5s6.78-3.12,6.14-7.26C319.72,528.19,315.7,526,311.88,524.89ZM314.58,538c-1.76.35-4,.43-5-1.29a6.78,6.78,0,0,1-.67-3.48c0-2.16.17-5.26,2.28-6.42a.8.8,0,0,0,.31-.3c2.53.72,5.29,1.87,6.62,4.31C319.87,534.1,318.12,537.31,314.58,538Z"/><path class="cls-4" d="M311.13,551.11a.71.71,0,0,0-.59.84.69.69,0,0,0-.68.27c-2.4,2.87-3.82,7.22-1.46,10.56,1.9,2.71,6,3.84,8.68,1.58s2.76-7,2-10.19C318.28,550.42,314.18,550.51,311.13,551.11Zm5.54,11.17c-1.74,2.44-5.25,1.88-6.86-.45-1.86-2.68-.67-6.14,1.24-8.42a.84.84,0,0,0,.2-.67.9.9,0,0,0,.33,0c2.55-.5,5.64-.65,6,2.62C317.85,557.54,318,560.4,316.67,562.28Z"/><path class="cls-4" d="M287.45,537.5c3,1.08,4.82-2,5.57-4.43s1.45-6.24-.78-8.22c-2.85-2.52-6.46.21-8.56,2.3a.85.85,0,0,0,.66,1.43C284.54,531.58,283.81,536.19,287.45,537.5Zm4.17-10.77c.89,1.45.36,3.81,0,5.32-.53,1.95-2.4,6.05-4.78,2.82-1.24-1.69-.63-4.45-.78-6.41a.83.83,0,0,0-.52-.72C287.19,526.22,290.09,524.24,291.62,526.73Z"/><path class="cls-4" d="M287,549.4c-1.08,0-1.08,1.64,0,1.68,2.48.1,5.14,1,6.62,3.13s1.62,5.43-.44,7.23a4.08,4.08,0,0,1-6.33-1.14c-1.06-2.29.1-5.14,1-7.31.4-1-1.23-1.44-1.62-.44-1.22,3.07-2.52,7.26.12,10A6,6,0,0,0,294,563c2.61-1.89,3.07-5.67,1.78-8.48C294.2,551.11,290.57,549.53,287,549.4Z"/><path class="cls-4" d="M291.4,573.85c-3.66-.43-4.54,3.8-4.68,6.54a.74.74,0,0,0,.75.8c-.92,2.48-1.25,5.55,1.69,6.63,3.68,1.36,5.46-3.66,6.06-6.3C295.89,578.52,295.15,574.29,291.4,573.85Zm2.19,7.23c-.25,1.16-.79,3.92-1.94,4.56l-2.84-.24a3.28,3.28,0,0,1-.21-2.7,12.06,12.06,0,0,1,1.17-2.55.85.85,0,0,0-1.28-1.06c.13-1.34.48-3,1.59-3.36a2.82,2.82,0,0,1,3.37,1.64A5.66,5.66,0,0,1,293.59,581.08Z"/><path class="cls-3" d="M39.31,766.5c-.07,1.68,87.41,41.18,116.34,49.2s162.78,30.62,200.43,30.55,264.93,3.53,281.73-.54S772.94,834,802.5,823.87s86.67-33.79,97.42-42.55a274.71,274.71,0,0,0,22.15-20.89l12.11,4S915.41,794.75,900,802.17,815.3,833.94,779,841.4s-158,16.44-209.08,19.23-218.52,5.12-283.08.54-140.57-22.59-191-43.34S44.67,797.75,42,792.38s-2.2-14.32-2.13-15.57S39.31,766.5,39.31,766.5Z"/><path class="cls-3" d="M53.33,756s80.77,42.21,113.72,44.83S272.66,823.54,309,826.16s237.36,3.58,258.88,3.54,153.3-3,184.89-7.08,76.61-20.32,101.47-31.12,67.36-42.2,67.36-42.2-1.52-2.11-2.55-2.21-16.5-3.43-16.5-3.43-18.81,10.12-34.93,20.24-61.13,30.37-108.18,37.19-201,10.47-229.26,11.2-180.23-13.1-218.56-18.41-164.14-38-185.67-44.7-27.59-10.71-27.59-10.71S78.51,740.19,74,741.72s-14.94,5.61-17.8,8.63S54,752.69,53.33,756Z"/><path class="cls-3" d="M103.28,721.76s14.57,14.67,41.48,22.68,142.62,40.07,170.19,39.35,150.64,14.5,166.11,15.15,111.62,2.48,127.76,1.77,159.33-15.77,183.52-19.85S872.28,744.4,881,739.68a75.23,75.23,0,0,0,16.13-12.49l-38.34,2.45s-24.18,14.84-41,25S727.11,780.31,707.62,783s-101.51,9.61-134.46,8.33-89.43-1.85-110.95-2.48-91.47-12.6-113.66-15.25S259.09,757,233.52,747s-98.9-32.76-98.9-32.76S106.88,718.49,103.28,721.76Z"/><path class="cls-3" d="M174.92,696s11.47,22.17,60.59,38.21,144.63,33.34,177.58,36.64S573.81,782,604.74,781.22,748.59,760.77,772.11,754s59.12-24.32,67.18-30.39,10.19-16,10.19-16-1.48-2.82-37.12-2.08c0,0-49.67,46.49-118.24,53.34s-224.55,14.55-294.5,2.58-115-15.92-148.67-38.71S191,681.15,191,681.15Z"/><path class="cls-3" d="M802.93,692.76S727.7,736.61,669.22,742.1s-129.07,15.71-172.1,15.12-178.89-18.49-206.48-27.85-73.14-55.74-73.14-55.74l22.44-6.37s28.48,46.69,59.43,55.37S428.5,744.57,446,744.54s145.21-13.05,185.54-19.85S745.1,690.85,745.1,690.85,791.49,690.76,802.93,692.76Z"/><path class="cls-5" d="M745.06,674.27s-45.67,26.08-104.14,37.62-277,14.65-305.26,5.29-83.52-35-83.52-53.39l9.12-2.59s7.76,17.11,17.86,23.14,60.55,20.73,84.09,23.37,240.7-9.2,260.19-11.93,66.24-18.75,83.83-37.38c0,0,25.95,2.12,31.55,4.84S745.06,674.27,745.06,674.27Z"/><path class="cls-6" d="M45.08,307.58s-.68-2.69,26.19-18.88S434,91.67,452.12,80.88,472.92,59.32,483,64,693.69,177.92,728,191.3s181,89.75,193.16,95.78,16.22,41.66,12.19,44.35-871.42-2.37-871.42-2.37S40.43,339.86,45.08,307.58Z"/><path class="cls-7" d="M206.47,318.7c.67-2,76.52-67.39,98.68-83.56s57.75-41.13,81.9-66.72,79.19-79.49,83.21-84.88l12.39-19.68s1.72,15.62-.29,20.33-86.44,158.18-95.83,167.61-71.68,78.63-71.68,78.63Z"/><path class="cls-7" d="M476.91,155.1s-.17-86.74,2.53-86.07,30.36,53.73,33.07,66.5,38.46,71.2,44.54,84,43.87,85.31,41.19,90-82.67,19-94.77,17-26.24-7.35-26.24-7.35Z"/><path class="cls-7" d="M485.48,69S602.72,193.85,634.37,218s114.46,82.49,126.58,89.86,108.27,6.52,122.39,5.82,38.6-22.27,38.6-22.27-1.28-4.84-7.87-8.46S491.42,67.86,489.12,66.76,483.46,66.33,485.48,69Z"/><path class="cls-6" d="M472.09,74.41s-33-19.77-38.6-41.34c0,0-12-21.06,7.33-28.94s35.09,15.62,35.09,15.62,3.21-8.83,14.27-15.23,31.36-6.92,32.76,4.35S529.92,43.14,472.09,74.41Z"/><path class="cls-4" d="M24.84,419.29s-2,9.42-1.32,12.78,4,8.06,6.74,9.4a6.59,6.59,0,0,0,4.71.66V443l.32,0c.89,0,1.78,0,2.66.06,3.72-.13,7.43-.5,11.14-.85v-.18s.26.06.71.12l1.11-.1a3.94,3.94,0,0,1,1.82.24,15.73,15.73,0,0,0,7.78-2.29c5.37-3.37,8.72-12.12,8.72-12.12l8.74,0s3.38,10.75,6.75,14.78,17.49,5.35,25.56,3.31,18.14-6.76,18.81-9.45,5.36-8.75,5.36-8.75h5.38s4.06,12.77,9.44,15.45A115.39,115.39,0,0,0,161.2,446a41.39,41.39,0,0,1,8.1-1.4c1.62-.58,3.22-1.22,4.81-1.91,2.41-1.57,4.69-3.33,7.48-4.17l-.05-1.32,1.47-.08a4.21,4.21,0,0,1,3.6-.19c3.73-.19,8.47-.42,10.39-.43,3.36,0,12.12,6.7,20.86,10,4.39,1.68,10.64,2.5,16.21,2.57,1.54-.73,3.1-1.43,4.7-2a3.83,3.83,0,0,1,.78-.21c8-4.75,17.67-6.42,28.43-4,.68.15,1.36.34,2,.55,8.71-2.08,20-5.08,22.46-7.1,4-3.37,6.71-5.39,6.71-5.39s6.07,8.73,9.44,11.41,33,5.32,40.34.6,17.45-15.5,17.45-15.5,12.12,10.74,18.18,15.43,27.56-4.09,32.26-8.13,22.18-6.09,22.18-6.09,4.73,12.77,15.5,16.78c0,0,13.45,2,16.14,2,0,0,0,0,.06.07a12.17,12.17,0,0,1,1.77.26l1.14.25.65-.12a30.4,30.4,0,0,1,4.92-.35c4.12-.56,8.05-1.22,12-.76,4.56,0,13.32-.4,20.43-2.78,10.08-3.38,20.15-11.47,21.49-12.82s3.37,6,10.77,8.72,24.88,3.31,31.6.61S589,431,589,431s3.36,0,12.78,4,23.54,2.64,29.58-.73,9.7-2.84,9.7-2.84,17.2,4.81,31.33,8.82c0,0,28.92,4,38.33,2.62s6.72-.69,6.72-.69v.12l.19-.05a10.89,10.89,0,0,1,1.06-.42,3.93,3.93,0,0,1,2.31-.13h0a22.88,22.88,0,0,1,3-.83c1.67-.32,3.48-.17,5.15-.53a16.61,16.61,0,0,1,2.7-1c.12,0,.23,0,.34-.06l0-.46s20.17-2.06,26.88-6.1,9.4-7.41,9.4-7.41,8.76,11.41,18.18,14.09a61.48,61.48,0,0,0,18.83,2v.35a87.37,87.37,0,0,0,11.4-1.06c.9-.13,1.79-.23,2.69-.32,2.85-1.52,14.48-8.1,16.82-15.17,0,0,2,3.36,11.44,6s28.24-1.4,30.92-6.11,15.47.64,20.19,7.36,18.18,10.72,27.58,6,10.72-17.5,10.72-20.86S24.84,419.29,24.84,419.29Z"/><path class="cls-8" d="M47.34,435.33s-29.58,2.93-29.65-35.16-2.87-96.31-.19-100.62,26.88-5.8,37,2.09S70.62,303,80,295.83s25.51-21.61,43.66-23.8,53.78-3.7,67.92,2,39.72,25.8,43.09,31.54,6.08,15.08,13.47,12.91,5.34-18,13.42-14.4,3.38,10.06,13.47,11.47,30.23-13,43-22.36,50.39-18.06,75.29-10.92,53.17,25.77,59.23,31.51S463,327.1,470.57,324s6.86-15.3,19-17.47,24.2-1.48,26.23,4.26,8.76,8.61,15.46,0,36.91-38.16,69.86-38.23,70.63,15,83.42,22.12,22.21,12.89,25.57,8.58,2-10.07,14.1-8.65,12.12,7.16,18.83,3.56,14.77-14.4,27.53-20.9,30.24-11.56,37.63-11.57,37.65-4.38,56.49,4.92,36.35,22.93,42.41,25.08,11.42-4.33,12.09-6.49,4.7-5,15.46-3.62S948.08,299.2,949.45,310s4.9,99.9.2,107.09-115,5.25-126.4,5.27-258.87.49-283.07,1.26S307.56,437,261.83,432,47.34,435.33,47.34,435.33Z"/><path class="cls-6" d="M25,379.93s-7.34,28.93.07,35.64,21.54,10,34.31,8.68S185.16,422,191.88,422s176.16-1,190.28-2.38,149.94-2.3,164.73-2.33l160-.31,197.68-.38c1.34,0,39-.75,41-5.46s3.93-52.45,1.92-53.12-36.91,36.38-47,39.09S810.46,411.38,775.46,394,743.11,355,722.95,358.43s-47.67,37.07-61.78,43.15S578.49,417.2,561,406.48s-45.13-40.26-63.27-34.84-57.82,4.14-67.88,16.27-73.23,29.73-96.11,23S294,380.76,281.22,375.41s-38.34-7.32-53.79,2.79-34.9,31.67-53.73,32.38c0,0-80,4.19-105.59-13.92S27.71,364.46,25,379.93Z"/><path class="cls-6" d="M255,365a20.79,20.79,0,0,0,9.39-12.12c2.67-8.75,2.66-13.45,0-15.46s-8.74,0-9.41,4.05-3.36-1.34-6.06-3.35-8.07-1.33-8.06,4,4.06,12.77,6.75,16.12S250.94,364.34,255,365Z"/><path class="cls-6" d="M489.64,364.56A20.79,20.79,0,0,0,499,352.44c2.67-8.75,2.66-13.45,0-15.46s-8.74,0-9.41,4.05-3.36-1.34-6.06-3.35-8.07-1.33-8.06,4,4.06,12.77,6.75,16.12S485.6,363.89,489.64,364.56Z"/><path class="cls-6" d="M720.91,350a20.79,20.79,0,0,0,9.39-12.12c2.67-8.75,2.66-13.45,0-15.46s-8.74,0-9.41,4.05-3.36-1.34-6.06-3.35-8.07-1.33-8.06,4,4.06,12.77,6.75,16.12S716.88,349.33,720.91,350Z"/><path class="cls-6" d="M932.7,340.85c.66-.13,6.71-8.08,7.37-14.13s.64-16.81-2.05-18.15-8.06,4-8.06,6.74-6.73-.66-9.41,1.36,2.72,14.79,5.41,18.14S929.34,341.53,932.7,340.85Z"/><path class="cls-6" d="M165.42,330.12a36.27,36.27,0,0,0-6.21-8.21c1.41-.85,3-2.74,1.74-4.91-1.92-3.22-4.88-3.56-7.23-2.16a2.82,2.82,0,0,0-1.42,1.67,37.11,37.11,0,0,0-13.74-5c-9.41-1.38-22.18.27-31.81,4a17.78,17.78,0,0,0-1.64.74,3.08,3.08,0,0,0-1.28-1.29c-2.35-1.39-5.31-1-7.22,2.19-1.15,1.94,0,3.65,1.3,4.59-5.7,5.81-9.92,13.77-10.15,18.41-.34,6.85-4.6,25.44,11.74,39a26.32,26.32,0,0,0,11.33,6.48c6.62,1.61,31.59,3,40.17-1.93s14.26-9.55,16.8-19S171.72,341.49,165.42,330.12Z"/><path class="cls-6" d="M395.86,343.72a35.82,35.82,0,0,0-5.46-7.57c.57-4,1.8-13.18,1.16-14.65-.82-1.89-5-2.3-6.85-1.24-1.41.82-6.88,4.67-9.27,6.35a33,33,0,0,0-5.47-1.33c-6.56-1-14.81-.4-22.39,1.4-2.38-1.67-7.89-5.52-9.32-6.34-1.83-1-6-.62-6.84,1.27-.53,1.23.26,7.85.88,12.31-6.24,5.8-11.06,14.7-11.3,19.71-.32,6.78-4.43,25.16,11.32,38.57a25.28,25.28,0,0,0,10.92,6.41c6.38,1.6,30.45,2.93,38.72-1.91s13.75-9.44,16.19-18.75S401.92,355,395.86,343.72Z"/><path class="cls-6" d="M874.18,326.88c-3-2.63-12.27-11.67-14.67-10.11a31.72,31.72,0,0,0-9.73-3.2c-8.14-1.22-19.13.19-27.57,3.43-2.06-2.24-11.75,7.28-14.82,10-4.33,3.84-15.42,28.18-10,36.11,1.71,2.51,4.6-.2,7.75-5.08a30,30,0,0,0,10.18,16.86,23.16,23.16,0,0,0,10,5.88c5.85,1.46,27.9,2.68,35.48-1.75s12.6-8.66,14.84-17.19c.33-1.26.64-2.61.91-4,3.2,4.92,6.12,7.68,7.83,5.14C889.71,355,878.52,330.71,874.18,326.88Z"/><path class="cls-6" d="M648,341.16a35.92,35.92,0,0,0-25.74-18.37,25.67,25.67,0,0,0,.48-15.52c-.69-2.57-4.13-6.52-5.57-6.17s-3.66,17.77-4.12,21.25c-1.34.05-2.7.15-4.07.29-.36-2.67-2.9-21.19-4.23-21.51s-4.86,3.61-5.54,6.19-2.23,9.62,1.06,16.76a60,60,0,0,0-8.62,2.65c-9.25,3.68-17.92,17.55-18.24,24.3s-4.41,25.08,11.28,38.44a25.18,25.18,0,0,0,10.89,6.39c6.36,1.59,30.34,2.92,38.59-1.91s13.7-9.41,16.14-18.69S654,352.37,648,341.16Z"/><path class="cls-6" d="M42.41,357.39s3.83-18,2.53-21.9-3.44-3.86-5.16-2.57a5.31,5.31,0,0,0-1.71,3.87s-2.15-2.14-3.87-.85-.42,4.29,0,5.58,3.89,13.3,4.75,14.59S42.41,357.39,42.41,357.39Z"/><path class="cls-9" d="M436.95,781.88a8.86,8.86,0,0,0,1.82,1.37.5.5,0,0,0,.5-.86,7.81,7.81,0,0,1-1.62-1.22c-.46-.45-1.17.26-.71.71Z"/><rect class="cls-4" x="112.42" y="433.81" width="17.55" height="346.68" rx="5.77" ry="5.77"/><rect class="cls-4" x="237.96" y="430.39" width="19.33" height="376.47" rx="6" ry="6"/><rect class="cls-4" x="851.42" y="423.81" width="17.55" height="346.68" rx="5.77" ry="5.77"/><rect class="cls-4" x="731.51" y="436.76" width="19.33" height="376.47" rx="6" ry="6"/></g></g></svg>