<svg id="圖層_1" data-name="圖層 1" xmlns="http://www.w3.org/2000/svg" viewBox="0 0 1963 1899"><defs><style>.cls-1{fill:#ecded9;}.cls-2{fill:#f3b9b4;}.cls-3{opacity:0.3;}.cls-4{fill:#f99b96;}</style></defs><title>matchBg</title><path class="cls-1" d="M1967.79,157.9V-152.47h-2.06c-70.83-5.34-944.93-68.2-1961.82,0H2.35l-7.35.58V158.58h.69V5230.33H1969V157.9Z"/><path class="cls-2" d="M1366.34-237.61S227-71,27,165,171,489,271,489c83.1,0,1262.83,52.48,1739.53,244.68,96.94,39.08,141.41,251.56-.3,293.12C1495.48,1177.76,130.55,1209.18-20,1406c-143.39,187.45,1225.23,315.22,2029.92,490.37,272.81,59.38,378.09,387.15,1.2,473.14C1290.7,2533.88-78.9,2614.65-104,2929c-69,864,1285.21,599.54,2083,772,12,2.59,33.17,8.44,33.17,8.44L2010,3994s-279.25,140.27-363,180C1247.58,4363.47,93,4627,93,4627l-3.28,529.85L2010,5152s412.22-1509.1,2-1644c-665.34-218.79-954-223-919-503,30.23-241.82,916.68-500,916.68-500l1.22-915.62S1795.28,1516.1,1821,1465c20.37-40.47,92.69-89.6,189.08-143.85C2282.86,1167.64,2010,253,2010,253S927,229,846,142C641.13-78,1366.34-237.61,1366.34-237.61Z"/><g class="cls-3"><path class="cls-4" d="M1298.27,855.74s28.25,1,35.07,1.46,18,3.9,20.46,2.44,7.06-13.39,5.11-19.73,1-7.79-6.82-8.77-40.43-2.92-44.32-1.95-7.79,1-9.74,4.38-2.92,3.9-4.87,6.82-2.92,3.9-1.95,7.79S1295.59,855.49,1298.27,855.74Z"/><path class="cls-4" d="M1210.27,842.79s28.25,1,35.07,1.46,18,3.9,20.46,2.44,7.06-13.39,5.11-19.73,1-7.79-6.82-8.77-40.43-2.92-44.32-1.95-7.79,1-9.74,4.38-2.92,3.9-4.87,6.82-2.92,3.9-1.95,7.79S1207.59,842.55,1210.27,842.79Z"/><path class="cls-4" d="M1256.23,691.81s29.71,4.38,37,2.92,12.66-.49,13.64-4.87,2.44-17.53-2.44-17.53-29.22-4.87-33.61-3.41-12.18.49-13.64,2.44-4.38,8.28-2.92,12.18S1255.25,692.3,1256.23,691.81Z"/><path class="cls-4" d="M1520.23,692.86s29.71,4.38,37,2.92,12.66-.49,13.64-4.87,2.44-17.53-2.44-17.53-29.22-4.87-33.61-3.41-12.18.49-13.64,2.44-4.38,8.28-2.92,12.18S1519.25,693.35,1520.23,692.86Z"/><path class="cls-4" d="M1307.3,632.06s-1.46,17.53.49,20,8.77,4.38,13.64,4.38,24.35,0,25.82-1.95,3.41-4.87,2.92-11.2,1.46-14.13-1.95-16.56-13.64-3.9-18-2.44-20.46,1.46-21.92,3.9S1307.3,632.06,1307.3,632.06Z"/><path class="cls-4" d="M1592.3,657.11s-1.46,17.53.49,20,8.77,4.38,13.64,4.38,24.35,0,25.82-1.95,3.41-4.87,2.92-11.2,1.46-14.13-1.95-16.56-13.64-3.9-18-2.44-20.46,1.46-21.92,3.9S1592.3,657.11,1592.3,657.11Z"/><path class="cls-4" d="M1359.29,609.74s-.49,10.23,1,11.2,13.15.49,14.61-1,2.44-7.79,2.44-10.23-3.9-5.36-8.28-4.38S1358.81,605.35,1359.29,609.74Z"/><path class="cls-4" d="M1147.29,639.79s-.49,10.23,1,11.2,13.15.49,14.61-1,2.44-7.79,2.44-10.23-3.9-5.36-8.28-4.38S1146.81,635.4,1147.29,639.79Z"/><path class="cls-4" d="M1063.72,600.84s-1.95,10.23,1,13.15,12.66,2.92,20,3.41,7.31.49,9.74,0,5.84-4.38,6.33-7.31-.49-11.69-5.84-11.2-17-1.95-20.94-1.46S1064.7,597.92,1063.72,600.84Z"/><path class="cls-4" d="M1161.72,576.89s-1.95,10.23,1,13.15,12.66,2.92,20,3.41,7.31.49,9.74,0,5.84-4.38,6.33-7.31-.49-11.69-5.84-11.2-17-1.95-20.94-1.46S1162.7,574,1161.72,576.89Z"/><path class="cls-4" d="M1266.06,590.63a111.07,111.07,0,0,0,0,13.15c.49,4.38,0,9.25,3.41,10.72s14.61,0,19,1,22.89,1.95,27.28,1.95,12.18-16.56,6.82-20.46-6.82-8.77-14.61-8.28-16.56-2.92-21.92-2.44-14.13-1.46-16.56,0A9,9,0,0,0,1266.06,590.63Z"/><path class="cls-4" d="M1648.06,645.68a111.07,111.07,0,0,0,0,13.15c.49,4.38,0,9.25,3.41,10.72s14.61,0,19,1,22.89,1.95,27.28,1.95,12.18-16.56,6.82-20.46-6.82-8.77-14.61-8.28-16.56-2.92-21.92-2.44-14.13-1.46-16.56,0A9,9,0,0,0,1648.06,645.68Z"/><path class="cls-4" d="M1211,597.06s-1,10.72,2.92,13.15,11.69,7.31,18,5.36,10.23-1,10.23-6.33,3.9-11.69,0-15.59-9.25-5.36-15.59-4.87-12.66.49-13.64,2.92S1211,597.06,1211,597.06Z"/><path class="cls-4" d="M1163,610.11s-1,10.72,2.92,13.15,11.69,7.31,18,5.36,10.23-1,10.23-6.33,3.9-11.69,0-15.59-9.25-5.36-15.59-4.87-12.66.49-13.64,2.92S1163,610.11,1163,610.11Z"/><path class="cls-4" d="M897.14,1019.08s-2.44,17,1,18.51,37.5,1,38.48-1,2.44-22.89,0-24.84-13.15-3.41-19-2.92-16.56.49-18,1.95S897.14,1019.08,897.14,1019.08Z"/><path class="cls-4" d="M897.14,1017.13s-2.44,17,1,18.51,37.5,1,38.48-1,2.44-22.89,0-24.84-13.15-3.41-19-2.92-16.56.49-18,1.95S897.14,1017.13,897.14,1017.13Z"/><path class="cls-4" d="M1205,679.75s-1.95,10.23.49,12.66,16.56,9.25,18.51,10.72a10.37,10.37,0,0,0,7.79,1.46q4.38-.73,4.38-11.69c0-7.31,2.44-12.18-4.38-14.13s-19.48-3.41-21.92-2.44A17.78,17.78,0,0,0,1205,679.75Z"/><path class="cls-4" d="M1418,673.8s-1.95,10.23.49,12.66,16.56,9.25,18.51,10.72a10.37,10.37,0,0,0,7.79,1.46q4.38-.73,4.38-11.69c0-7.31,2.44-12.18-4.38-14.13s-19.48-3.41-21.92-2.44A17.78,17.78,0,0,0,1418,673.8Z"/><path class="cls-4" d="M1327.53,671.16s-1.95,10.72,0,16.07,10.72,4.38,16.56,4.38,42.38-.49,44.81-1,8.28-2.92,8.77-8.77,1-17.53-2.92-18-54.55-.49-59.91,1A11.61,11.61,0,0,0,1327.53,671.16Z"/><path class="cls-4" d="M1699.53,686.21s-1.95,10.72,0,16.07,10.72,4.38,16.56,4.38,42.38-.49,44.81-1,8.28-2.92,8.77-8.77,1-17.53-2.92-18-54.55-.49-59.91,1A11.61,11.61,0,0,0,1699.53,686.21Z"/><path class="cls-4" d="M927.14,646s.49,12.18,1.95,16.07,14.61,2.92,20,3.41,7.31,0,8.77-1.46,2.44-12.66,1.95-14.13-6.33-10.23-11.2-11.2-12.66,0-16.56,1.95A9.56,9.56,0,0,0,927.14,646Z"/><path class="cls-4" d="M1110.14,596.06s.49,12.18,1.95,16.07,14.61,2.92,20,3.41,7.31,0,8.77-1.46,2.44-12.66,1.95-14.13-6.33-10.23-11.2-11.2-12.66,0-16.56,1.95A9.56,9.56,0,0,0,1110.14,596.06Z"/><path class="cls-4" d="M1464.47,673.76s-3.41,10.72-2.92,14.13,3.9,7.31,8.77,7.79,30.69-3.9,32.15-5.36,4.38-7.31,3.41-13.64-6.33-7.31-19-7.31S1467.88,668.4,1464.47,673.76Z"/><path class="cls-4" d="M1379.47,631.81s-3.41,10.72-2.92,14.13,3.9,7.31,8.77,7.79,30.69-3.9,32.15-5.36,4.38-7.31,3.41-13.64-6.33-7.31-19-7.31S1382.88,626.45,1379.47,631.81Z"/><path class="cls-4" d="M1610.66,731.25s-2.44,14.61.49,15.59,23.38,7.31,41.89,3.9,17-9.74,14.61-17-34.1-8.28-41.4-8.28S1614.07,723.45,1610.66,731.25Z"/><path class="cls-4" d="M1487.66,761.3s-2.44,14.61.49,15.59,23.38,7.31,41.89,3.9,17-9.74,14.61-17-34.1-8.28-41.4-8.28S1491.07,753.51,1487.66,761.3Z"/><path class="cls-4" d="M1079.15,631.58s-1,10.72-1,15.59,1.46,7.79,9.74,8.77,30.69,4.87,37,2.92,10.23-3.41,10.23-9.74,1-15.59-7.79-17.53-38-8.28-42.86-6.33A8.33,8.33,0,0,0,1079.15,631.58Z"/><path class="cls-4" d="M1233.15,626.63s-1,10.72-1,15.59,1.46,7.79,9.74,8.77,30.69,4.87,37,2.92,10.23-3.41,10.23-9.74,1-15.59-7.79-17.53-38-8.28-42.86-6.33A8.33,8.33,0,0,0,1233.15,626.63Z"/><path class="cls-4" d="M1085,555.85s27.28,1.46,34.1,2.44,14.13-1.46,15.59,1.95,3.41,11.69,2.92,16.07-6.33,4.87-10.72,5.84-26.3,1.95-37,1.95-8.77,1-11.69-2.92S1073.31,554.88,1085,555.85Z"/><path class="cls-4" d="M946,592.9s27.28,1.46,34.1,2.44,14.13-1.46,15.59,1.95,3.41,11.69,2.92,16.07-6.33,4.87-10.72,5.84-26.3,1.95-37,1.95-8.77,1-11.69-2.92S934.31,591.93,946,592.9Z"/><path class="cls-4" d="M907.54,1047.92s-1,11.69,1,14.13S923.61,1065,928,1065s11.69,1,13.15-3.41,3.41-14.13-3.9-17-23.38-2.44-26.3-1A6.5,6.5,0,0,0,907.54,1047.92Z"/><path class="cls-4" d="M907.54,1046s-1,11.69,1,14.13S923.61,1063,928,1063s11.69,1,13.15-3.41,3.41-14.13-3.9-17-23.38-2.44-26.3-1A6.5,6.5,0,0,0,907.54,1046Z"/><path class="cls-4" d="M839.45,1018.41s0,15.59,1.46,18.51,14.13,7.79,31.66,3.9,16.07-11.69,15.59-18-1.46-9.25-9.25-9.25h-34.1C842.37,1013.54,839.45,1018.41,839.45,1018.41Z"/><path class="cls-4" d="M839.45,1016.46s0,15.59,1.46,18.51,14.13,7.79,31.66,3.9,16.07-11.69,15.59-18-1.46-9.25-9.25-9.25h-34.1C842.37,1011.59,839.45,1016.46,839.45,1016.46Z"/><path class="cls-4" d="M970.48,1030.86s0,9.74,3.9,11.69,38,.49,40.91-.49,3.41-3.41,2.92-9.74,1-11.2-7.31-11.2-32.15,1.95-34.1,2.44S970.48,1023.55,970.48,1030.86Z"/><path class="cls-4" d="M970.48,1028.91s0,9.74,3.9,11.69,38,.49,40.91-.49,3.41-3.41,2.92-9.74,1-11.2-7.31-11.2-32.15,1.95-34.1,2.44S970.48,1021.61,970.48,1028.91Z"/><path class="cls-4" d="M1494.73,612.41s-1.46,10.23,0,13.15,12.66,3.9,16.56,2.44,5.36-3.9,3.9-6.33-7.31-5.84-7.31-8.77-8.28-3.9-10.72-3.41A3,3,0,0,0,1494.73,612.41Z"/><path class="cls-4" d="M1414.73,605.46s-1.46,10.23,0,13.15,12.66,3.9,16.56,2.44,5.36-3.9,3.9-6.33-7.31-5.84-7.31-8.77-8.28-3.9-10.72-3.41A3,3,0,0,0,1414.73,605.46Z"/><path class="cls-4" d="M1038.33,1017.53s-1,6.33,3.41,8.77,4.87,4.38,11.2,4.38,25.33,1.46,27.28.49,5.36-11.69,0-13.15-5.84-2.44-12.18-2.44-23.38,0-25.33.49S1039.3,1015.58,1038.33,1017.53Z"/><path class="cls-4" d="M1038.33,1015.58s-1,6.33,3.41,8.77,4.87,4.38,11.2,4.38,25.33,1.46,27.28.49,5.36-11.69,0-13.15-5.84-2.44-12.18-2.44-23.38,0-25.33.49S1039.3,1013.63,1038.33,1015.58Z"/><path class="cls-4" d="M1006.63,1050.76s-1.46,10.23-1,14.61,2.44,9.25,8.77,8.28,44.81-1,47.25-2.92,2.44-14.61,1.46-18.51-4.38-7.31-13.15-6.33-35.07,1.95-38,2.44A13.26,13.26,0,0,0,1006.63,1050.76Z"/><path class="cls-4" d="M1006.63,1048.81s-1.46,10.23-1,14.61,2.44,9.25,8.77,8.28,44.81-1,47.25-2.92,2.44-14.61,1.46-18.51-4.38-7.31-13.15-6.33-35.07,1.95-38,2.44A13.26,13.26,0,0,0,1006.63,1048.81Z"/><path class="cls-4" d="M1071.57,1059.43s-.49,10.72,1,17,1.46,8.28,6.82,9.25,31.17.49,34.1-1,4.87-16.07,1-20.94-5.36-7.31-11.2-7.79S1073,1051.15,1071.57,1059.43Z"/><path class="cls-4" d="M1071.57,1057.48s-.49,10.72,1,17,1.46,8.28,6.82,9.25,31.17.49,34.1-1,4.87-16.07,1-20.94-5.36-7.31-11.2-7.79S1073,1049.2,1071.57,1057.48Z"/><path class="cls-4" d="M1094.59,1001.92s-1,9.74,0,14.13,6.82,4.87,10.72,4.87,43.35.49,46.27-1,4.38-9.25,3.41-17.53-2.44-8.77-8.77-8.77-35.07-1.46-39.94-.49S1098.49,994.13,1094.59,1001.92Z"/><path class="cls-4" d="M1094.59,1000s-1,9.74,0,14.13,6.82,4.87,10.72,4.87,43.35.49,46.27-1,4.38-9.25,3.41-17.53-2.44-8.77-8.77-8.77-35.07-1.46-39.94-.49S1098.49,992.18,1094.59,1000Z"/><path class="cls-4" d="M836.45,1064.53s0,13.15,1.95,14.61,13.64,2.44,28.25,1.95,26.79,0,26.79-7.79-1.95-14.13-5.84-14.61-38.48,0-42.86.49S837.91,1059.17,836.45,1064.53Z"/><path class="cls-4" d="M810.45,1203.58s0,13.15,1.95,14.61,13.64,2.44,28.25,1.95,26.79,0,26.79-7.79-1.95-14.13-5.84-14.61-38.48,0-42.86.49S811.91,1198.22,810.45,1203.58Z"/><path class="cls-4" d="M811.94,1079.48s-1.95,4.87,0,7.79,12.66,2.44,14.61,1,2.92-9.25-.49-10.72S817.79,1076.07,811.94,1079.48Z"/><path class="cls-4" d="M811.94,1077.53s-1.95,4.87,0,7.79,12.66,2.44,14.61,1,2.92-9.25-.49-10.72S817.79,1074.12,811.94,1077.53Z"/><path class="cls-4" d="M783.56,1033.51s-1.95,8.28,0,11.69,5.84,3.9,11.69,4.38,21.92.49,24.84-1.95,3.41-12.18.49-14.61-30.2-1.95-32.63-1.46S784.54,1031.56,783.56,1033.51Z"/><path class="cls-4" d="M783.56,1031.56s-1.95,8.28,0,11.69,5.84,3.9,11.69,4.38,21.92.49,24.84-1.95,3.41-12.18.49-14.61-30.2-1.95-32.63-1.46S784.54,1029.62,783.56,1031.56Z"/><path class="cls-4" d="M753.51,1053.56s22.89,1,27.76,1.46,8.77.49,8.77,8.28,1,14.13-1,16.07-6.82,4.38-10.23,4.38-16.56,1-21.92,1-17.53.49-19.48-4.38-5.36-20-1.46-21.43S739.39,1054.53,753.51,1053.56Z"/><path class="cls-4" d="M646.51,1025.61s22.89,1,27.76,1.46,8.77.49,8.77,8.28,1,14.13-1,16.07-6.82,4.38-10.23,4.38-16.56,1-21.92,1-17.53.49-19.48-4.38-5.36-20-1.46-21.43S632.39,1026.59,646.51,1025.61Z"/><path class="cls-4" d="M752.16,1028s6.82-1.95,10.72-1.95,6.82,1,7.31,3.41,1.95,10.23-.49,11.69-11.69,2.44-14.61,1.95S744.36,1032.38,752.16,1028Z"/><path class="cls-4" d="M752.16,1026.05s6.82-1.95,10.72-1.95,6.82,1,7.31,3.41,1.95,10.23-.49,11.69-11.69,2.44-14.61,1.95S744.36,1030.43,752.16,1026.05Z"/><path class="cls-4" d="M1192.34,634.76s11.2-1,15.59-.49,6.33,1,5.84,7.31,1.95,15.59.49,19-2.44,4.38-9.74,3.9-19,0-20.46-4.38S1186.49,635.73,1192.34,634.76Z"/><path class="cls-4" d="M1160.34,672.81s11.2-1,15.59-.49,6.33,1,5.84,7.31,1.95,15.59.49,19-2.44,4.38-9.74,3.9-19,0-20.46-4.38S1154.49,673.78,1160.34,672.81Z"/><path class="cls-4" d="M1352.75,750.84c1-.16,26.3-2.92,31.66-1s5.36,3.9,4.87,8.77,0,8.28-4.87,8.77-26.79,2.92-31.17,2.44S1337.65,753.27,1352.75,750.84Z"/><path class="cls-4" d="M1244.75,712.89c1-.16,26.3-2.92,31.66-1s5.36,3.9,4.87,8.77,0,8.28-4.87,8.77-26.79,2.92-31.17,2.44S1229.65,715.33,1244.75,712.89Z"/><path class="cls-4" d="M1427.77,779s19.48.49,22.41,0,6.33-5.36,4.87-16.56c0,0,0-8.77-6.82-9.25s-21.92-1-26.79,1.46S1415.11,778,1427.77,779Z"/><path class="cls-4" d="M1309.77,728s19.48.49,22.41,0,6.33-5.36,4.87-16.56c0,0,0-8.77-6.82-9.25s-21.92-1-26.79,1.46S1297.11,727.07,1309.77,728Z"/><path class="cls-4" d="M1504,806.08s-1.95,15.1,1.46,19,15.59,3.41,23.38,2.44,8.77-5.84,8.28-15.1-3.41-9.25-12.18-9.25S1504.94,799.74,1504,806.08Z"/><path class="cls-4" d="M1456,807.13s-1.95,15.1,1.46,19,15.59,3.41,23.38,2.44,8.77-5.84,8.28-15.1-3.41-9.25-12.18-9.25S1456.94,800.79,1456,807.13Z"/><path class="cls-4" d="M1521.48,635.1s-1.95,10.23-.49,16.56,10.72,8.28,20,8.77,32.63,2.44,33.61-3.9,3.9-19-6.33-22.41-20.94-3.9-25.33-2.92S1522.94,630.72,1521.48,635.1Z"/><path class="cls-4" d="M1443.48,630.15s-1.95,10.23-.49,16.56,10.72,8.28,20,8.77,32.63,2.44,33.61-3.9,3.9-19-6.33-22.41-20.94-3.9-25.33-2.92S1444.94,625.77,1443.48,630.15Z"/><path class="cls-4" d="M1354.46,711.48s-1.95,10.23-.49,14.13,16.56,4.87,22.41,3.9,8.77-1.95,9.25-7.79,1.46-11.69-5.84-12.18S1355.92,704.67,1354.46,711.48Z"/><path class="cls-4" d="M1571.46,757.54s-1.95,10.23-.49,14.13,16.56,4.87,22.41,3.9,8.77-1.95,9.25-7.79,1.46-11.69-5.84-12.18S1572.92,750.72,1571.46,757.54Z"/><path class="cls-4" d="M1540.56,715s-1.46,16.56,0,18.51,9.25,3.41,13.15-.49,3.41-15.1,1.46-17.53S1542.51,711.59,1540.56,715Z"/><path class="cls-4" d="M1422.56,798s-1.46,16.56,0,18.51,9.25,3.41,13.15-.49,3.41-15.1,1.46-17.53S1424.51,794.64,1422.56,798Z"/><path class="cls-4" d="M1631,693s-2.92,6.33-1.46,16.56,28.74,6.33,38,5.36,17.53-1.95,15.1-12.66-1.46-12.18-14.13-11.2-28.25.49-32.63.49S1631,693,1631,693Z"/><path class="cls-4" d="M1751,721.08s-2.92,6.33-1.46,16.56,28.74,6.33,38,5.36,17.53-1.95,15.1-12.66-1.46-12.18-14.13-11.2-28.25.49-32.63.49S1751,721.08,1751,721.08Z"/><path class="cls-4" d="M1688.11,722.08s-1,15.1,1.46,18,9.25,3.9,17,4.38,20.46,1.46,24.84-1.46,5.84-22.41-1-24.35S1694.44,715.26,1688.11,722.08Z"/><path class="cls-4" d="M1409.11,709.13s-1,15.1,1.46,18,9.25,3.9,17,4.38,20.46,1.46,24.84-1.46,5.84-22.41-1-24.35S1415.44,702.31,1409.11,709.13Z"/><path class="cls-4" d="M1571,703.67v9.74c0,1.95,2.92,6.82,6.82,7.79s23.87-1,26.79-1.46,6.33-2.92,5.36-10.23.49-9.25-1.46-11.2-27.76-1.95-30.69-1.46S1571.49,698.8,1571,703.67Z"/><path class="cls-4" d="M1478,706.72v9.74c0,1.95,2.92,6.82,6.82,7.79s23.87-1,26.79-1.46,6.33-2.92,5.36-10.23.49-9.25-1.46-11.2-27.76-1.95-30.69-1.46S1478.49,701.85,1478,706.72Z"/><path class="cls-4" d="M1144.48,800.05s-1.46,10.72,2.92,13.64,18.51,1,27.28,1.46,20.46.49,21.92-4.87.49-11.2,1-15.1-2.92-5.36-5.84-5.36-20,0-23.87.49-13.64,1-17,1S1145.46,795.18,1144.48,800.05Z"/><path class="cls-4" d="M1129.48,837.11s-1.46,10.72,2.92,13.64,18.51,1,27.28,1.46,20.46.49,21.92-4.87.49-11.2,1-15.1-2.92-5.36-5.84-5.36-20,0-23.87.49-13.64,1-17,1S1130.46,832.23,1129.48,837.11Z"/><path class="cls-4" d="M1247,751.34s-2.44,10.23-3.41,12.66-1.46,5.36,2.44,6.82,22.41,5.84,27.76,6.33,16.56,1,20,1.95,6.82-2.92,6.82-7.31,3.41-11.2-4.38-14.13-26.3-6.33-30.2-7.31-11.2-2.44-13.64-1.95S1249.93,747.44,1247,751.34Z"/><path class="cls-4" d="M1214,782.39s-2.44,10.23-3.41,12.66-1.46,5.36,2.44,6.82,22.41,5.84,27.76,6.33,16.56,1,20,1.95,6.82-2.92,6.82-7.31,3.41-11.2-4.38-14.13-26.3-6.33-30.2-7.31-11.2-2.44-13.64-1.95S1216.93,778.49,1214,782.39Z"/><path class="cls-4" d="M1171,725.75s-1.95,12.18-.49,15.1,5.84,3.9,11.2,3.41,16.07-1.46,21.43-.49,14.61.49,15.59-1.46,2.44-15.59,1-18.51-3.9-2.44-9.74-3.41-22.89-1.95-28.74-1.46S1173.4,719.9,1171,725.75Z"/><path class="cls-4" d="M1357,799.8s-1.95,12.18-.49,15.1,5.84,3.9,11.2,3.41,16.07-1.46,21.43-.49,14.61.49,15.59-1.46,2.44-15.59,1-18.51-3.9-2.44-9.74-3.41S1373,792.49,1367.2,793,1359.4,794,1357,799.8Z"/><path class="cls-4" d="M1177.46,754.77a57,57,0,0,0-.49,11.69c.49,5.36,6.33,8.28,11.69,8.28s16.07,1,19.48-1.46,3.41-13.15,2.44-14.61-11.69-7.79-16.56-7.31S1179.41,748.93,1177.46,754.77Z"/><path class="cls-4" d="M1291.46,794.82a57,57,0,0,0-.49,11.69c.49,5.36,6.33,8.28,11.69,8.28s16.07,1,19.48-1.46,3.41-13.15,2.44-14.61-11.69-7.79-16.56-7.31S1293.41,789,1291.46,794.82Z"/><path class="cls-4" d="M1084.43,1109a11.6,11.6,0,0,0-1.95,7.31c.49,3.9-2.92,8.28-.49,10.23s38,7.31,45.3,6.33,10.72-3.41,11.2-11.2,1-12.66-6.82-13.15-34.58-2.92-37.5-2.92S1086.87,1106.12,1084.43,1109Z"/><path class="cls-4" d="M1084.43,1107.09a11.6,11.6,0,0,0-1.95,7.31c.49,3.9-2.92,8.28-.49,10.23s38,7.31,45.3,6.33,10.72-3.41,11.2-11.2,1-12.66-6.82-13.15-34.58-2.92-37.5-2.92S1086.87,1104.17,1084.43,1107.09Z"/><path class="cls-4" d="M823.61,1110.07s-.49,9.74,1.95,12.18,10.23,3.9,14.61,2.92,20,2.92,24.35,1.46,11.69-3.41,11.69-7.31.49-17-1.95-18.51-11.2-2.44-20-1.95-20,1.95-22.89,2.92S824.59,1104.22,823.61,1110.07Z"/><path class="cls-4" d="M735.61,1200.12s-.49,9.74,1.95,12.18,10.23,3.9,14.61,2.92,20,2.92,24.35,1.46,11.69-3.41,11.69-7.31.49-17-1.95-18.51-11.2-2.44-20-1.95-20,1.95-22.89,2.92S736.59,1194.27,735.61,1200.12Z"/><path class="cls-4" d="M712.74,1099.91s-1,7.79-.49,11.69,0,5.84,7.31,6.82,32.15,0,34.1-.49,5.84-6.33,5.36-11.69,3.41-10.23-8.28-10.72-27.76,0-31.66.49S713.23,1097.47,712.74,1099.91Z"/><path class="cls-4" d="M712.74,1098s-1,7.79-.49,11.69,0,5.84,7.31,6.82,32.15,0,34.1-.49,5.84-6.33,5.36-11.69,3.41-10.23-8.28-10.72-27.76,0-31.66.49S713.23,1095.53,712.74,1098Z"/><path class="cls-4" d="M682,1083.5s16.07,2.44,20.94,1,5.36-6.33,6.33-11.2,4.87-16.07-6.33-15.59-24.84,0-26.79.49-9.74.49-9.25,6.33S672.77,1082,682,1083.5Z"/><path class="cls-4" d="M670,1118.55s16.07,2.44,20.94,1,5.36-6.33,6.33-11.2,4.87-16.07-6.33-15.59-24.84,0-26.79.49-9.74.49-9.25,6.33S660.77,1117.09,670,1118.55Z"/><path class="cls-4" d="M946.42,1089.45s-2.44,13.64,1.46,16.56,19.48,1.95,22.89-6.82,2.92-14.61.49-16.07-19-1.95-21.43-.49S946.42,1089.45,946.42,1089.45Z"/><path class="cls-4" d="M946.42,1087.5s-2.44,13.64,1.46,16.56,19.48,1.95,22.89-6.82,2.92-14.61.49-16.07-19-1.95-21.43-.49S946.42,1087.5,946.42,1087.5Z"/><path class="cls-4" d="M986.62,1089s-3.41,10.23-1.95,14.61,5.36,5.36,14.61,5.84,21.92,2.92,27.28,0,6.33-18.51,3.9-20.94-21.92-3.9-30.69-3.9S990.52,1084.66,986.62,1089Z"/><path class="cls-4" d="M986.62,1087.09s-3.41,10.23-1.95,14.61,5.36,5.36,14.61,5.84,21.92,2.92,27.28,0,6.33-18.51,3.9-20.94-21.92-3.9-30.69-3.9S990.52,1082.71,986.62,1087.09Z"/><path class="cls-4" d="M947.43,1166.19s1.46,12.66,2.92,14.61,52.6.49,55-4.87-1-16.56-2.92-17.53-34.1-.49-40.43.49S948.4,1160.83,947.43,1166.19Z"/><path class="cls-4" d="M947.43,1164.24s1.46,12.66,2.92,14.61,52.6.49,55-4.87-1-16.56-2.92-17.53-34.1-.49-40.43.49S948.4,1158.88,947.43,1164.24Z"/><path class="cls-4" d="M1027.8,1134.34s-1,13.15.49,16.07,17.53,4.87,21.92,3.41,6.82-18,4.38-19.48-17.53-2.92-21.92-2.92S1028.77,1132.39,1027.8,1134.34Z"/><path class="cls-4" d="M1027.8,1132.39s-1,13.15.49,16.07,17.53,4.87,21.92,3.41,6.82-18,4.38-19.48-17.53-2.92-21.92-2.92S1028.77,1130.44,1027.8,1132.39Z"/><path class="cls-4" d="M911.85,1133.11s-1.46,12.18,0,13.15,44.32,2.92,47.73-1,2.92-15.59,1.46-18-20-5.36-28.74-4.87-15.1.49-18,4.38S911.85,1133.11,911.85,1133.11Z"/><path class="cls-4" d="M884.85,1093.16s-1.46,12.18,0,13.15,44.32,2.92,47.73-1,2.92-15.59,1.46-18-20-5.36-28.74-4.87-15.1.49-18,4.38S884.85,1093.16,884.85,1093.16Z"/><path class="cls-4" d="M838.07,1151.75a21.18,21.18,0,0,0,0,10.23c1.46,4.87,25.82,6.33,33.61,6.33s24.35-2.44,25.33-5.84,1.46-8.28,0-10.72-49.68-3.9-52.6-3.9S839.53,1148.34,838.07,1151.75Z"/><path class="cls-4" d="M773.07,1168.8a21.18,21.18,0,0,0,0,10.23c1.46,4.87,25.82,6.33,33.61,6.33s24.35-2.44,25.33-5.84,1.46-8.28,0-10.72-49.68-3.9-52.6-3.9S774.53,1165.39,773.07,1168.8Z"/><path class="cls-4" d="M771.13,1135.75s-1.95,14.61,0,15.59,28.74,1.95,32.63.49,5.84-6.33,5.36-14.13S770.15,1130.39,771.13,1135.75Z"/><path class="cls-4" d="M771.13,1133.8s-1.95,14.61,0,15.59,28.74,1.95,32.63.49,5.84-6.33,5.36-14.13S770.15,1128.44,771.13,1133.8Z"/><path class="cls-4" d="M749.69,1129.42s10.72-1,14.13,1.46,5.84,6.33,4.87,13.15-20.46,7.31-23.87,4.87S743.85,1129.91,749.69,1129.42Z"/><path class="cls-4" d="M710.69,1133.47s10.72-1,14.13,1.46,5.84,6.33,4.87,13.15-20.46,7.31-23.87,4.87S704.85,1134,710.69,1133.47Z"/></g><g class="cls-3"><path class="cls-4" d="M1478.27,209.74s28.25,1,35.07,1.46,18,3.9,20.46,2.44,7.06-13.39,5.11-19.73,1-7.79-6.82-8.77-40.43-2.92-44.32-1.95-7.79,1-9.74,4.38-2.92,3.9-4.87,6.82-2.92,3.9-1.95,7.79S1475.59,209.49,1478.27,209.74Z"/><path class="cls-4" d="M1390.27,196.79s28.25,1,35.07,1.46,18,3.9,20.46,2.44,7.06-13.39,5.11-19.73,1-7.79-6.82-8.77-40.43-2.92-44.32-1.95-7.79,1-9.74,4.38-2.92,3.9-4.87,6.82-2.92,3.9-1.95,7.79S1387.59,196.55,1390.27,196.79Z"/><path class="cls-4" d="M1436.23,45.81s29.71,4.38,37,2.92,12.66-.49,13.64-4.87,2.44-17.53-2.44-17.53-29.22-4.87-33.61-3.41-12.18.49-13.64,2.44-4.38,8.28-2.92,12.18S1435.25,46.3,1436.23,45.81Z"/><path class="cls-4" d="M1700.23,46.86s29.71,4.38,37,2.92,12.66-.49,13.64-4.87,2.44-17.53-2.44-17.53-29.22-4.87-33.61-3.41-12.18.49-13.64,2.44-4.38,8.28-2.92,12.18S1699.25,47.35,1700.23,46.86Z"/><path class="cls-4" d="M1487.3-13.94s-1.46,17.53.49,20,8.77,4.38,13.64,4.38,24.35,0,25.82-1.95,3.41-4.87,2.92-11.2,1.46-14.13-1.95-16.56-13.64-3.9-18-2.44-20.46,1.46-21.92,3.9S1487.3-13.94,1487.3-13.94Z"/><path class="cls-4" d="M1772.3,11.11s-1.46,17.53.49,20,8.77,4.38,13.64,4.38,24.35,0,25.82-1.95,3.41-4.87,2.92-11.2,1.46-14.13-1.95-16.56-13.64-3.9-18-2.44-20.46,1.46-21.92,3.9S1772.3,11.11,1772.3,11.11Z"/><path class="cls-4" d="M1327.29-6.21s-.49,10.23,1,11.2,13.15.49,14.61-1,2.44-7.79,2.44-10.23-3.9-5.36-8.28-4.38S1326.81-10.6,1327.29-6.21Z"/><path class="cls-4" d="M1828.06-.32a111.07,111.07,0,0,0,0,13.15c.49,4.38,0,9.25,3.41,10.72s14.61,0,19,1,22.89,1.95,27.28,1.95S1889.91,9.91,1884.56,6s-6.82-8.77-14.61-8.28S1853.38-5.19,1848-4.7s-14.13-1.46-16.56,0A9,9,0,0,0,1828.06-.32Z"/><path class="cls-4" d="M301.29,1707.67s-2.44,17,1,18.51,37.5,1,38.48-1,2.44-22.89,0-24.84-13.15-3.41-19-2.92-16.56.49-18,1.95S301.29,1707.67,301.29,1707.67Z"/><path class="cls-4" d="M301.29,1705.72s-2.44,17,1,18.51,37.5,1,38.48-1,2.44-22.89,0-24.84-13.15-3.41-19-2.92-16.56.49-18,1.95S301.29,1705.72,301.29,1705.72Z"/><path class="cls-4" d="M1385,33.75s-1.95,10.23.49,12.66,16.56,9.25,18.51,10.72a10.37,10.37,0,0,0,7.79,1.46q4.38-.73,4.38-11.69c0-7.31,2.44-12.18-4.38-14.13s-19.48-3.41-21.92-2.44A17.78,17.78,0,0,0,1385,33.75Z"/><path class="cls-4" d="M1598,27.8s-1.95,10.23.49,12.66,16.56,9.25,18.51,10.72a10.37,10.37,0,0,0,7.79,1.46q4.38-.73,4.38-11.69c0-7.31,2.44-12.18-4.38-14.13s-19.48-3.41-21.92-2.44A17.78,17.78,0,0,0,1598,27.8Z"/><path class="cls-4" d="M1507.53,25.16s-1.95,10.72,0,16.07,10.72,4.38,16.56,4.38,42.38-.49,44.81-1,8.28-2.92,8.77-8.77,1-17.53-2.92-18-54.55-.49-59.91,1A11.61,11.61,0,0,0,1507.53,25.16Z"/><path class="cls-4" d="M1879.53,40.21s-1.95,10.72,0,16.07,10.72,4.38,16.56,4.38,42.38-.49,44.81-1,8.28-2.92,8.77-8.77,1-17.53-2.92-18-54.55-.49-59.91,1A11.61,11.61,0,0,0,1879.53,40.21Z"/><path class="cls-4" d="M1107.14,0s.49,12.18,1.95,16.07,14.61,2.92,20,3.41,7.31,0,8.77-1.46,2.44-12.66,1.95-14.13-6.33-10.23-11.2-11.2-12.66,0-16.56,1.95A9.56,9.56,0,0,0,1107.14,0Z"/><path class="cls-4" d="M1644.47,27.76s-3.41,10.72-2.92,14.13,3.9,7.31,8.77,7.79,30.69-3.9,32.15-5.36,4.38-7.31,3.41-13.64-6.33-7.31-19-7.31S1647.88,22.4,1644.47,27.76Z"/><path class="cls-4" d="M1559.47-14.19s-3.41,10.72-2.92,14.13,3.9,7.31,8.77,7.79,30.69-3.9,32.15-5.36,4.38-7.31,3.41-13.64-6.33-7.31-19-7.31S1562.88-19.55,1559.47-14.19Z"/><path class="cls-4" d="M1790.66,85.25s-2.44,14.61.49,15.59,23.38,7.31,41.89,3.9,17-9.74,14.61-17-34.1-8.28-41.4-8.28S1794.07,77.45,1790.66,85.25Z"/><path class="cls-4" d="M1667.66,115.3s-2.44,14.61.49,15.59,23.38,7.31,41.89,3.9,17-9.74,14.61-17-34.1-8.28-41.4-8.28S1671.07,107.51,1667.66,115.3Z"/><path class="cls-4" d="M1259.15-14.42s-1,10.72-1,15.59,1.46,7.79,9.74,8.77,30.69,4.87,37,2.92,10.23-3.41,10.23-9.74,1-15.59-7.79-17.53-38-8.28-42.86-6.33A8.33,8.33,0,0,0,1259.15-14.42Z"/><path class="cls-4" d="M1413.15-19.37s-1,10.72-1,15.59S1413.64,4,1421.92,5s30.69,4.87,37,2.92,10.23-3.41,10.23-9.74,1-15.59-7.79-17.53-38-8.28-42.86-6.33A8.33,8.33,0,0,0,1413.15-19.37Z"/><path class="cls-4" d="M311.69,1736.51s-1,11.69,1,14.13,15.1,2.92,19.48,2.92,11.69,1,13.15-3.41,3.41-14.13-3.9-17-23.38-2.44-26.3-1A6.5,6.5,0,0,0,311.69,1736.51Z"/><path class="cls-4" d="M311.69,1734.56s-1,11.69,1,14.13,15.1,2.92,19.48,2.92,11.69,1,13.15-3.41,3.41-14.13-3.9-17-23.38-2.44-26.3-1A6.5,6.5,0,0,0,311.69,1734.56Z"/><path class="cls-4" d="M243.6,1707s0,15.59,1.46,18.51,14.13,7.79,31.66,3.9,16.07-11.69,15.59-18-1.46-9.25-9.25-9.25H249C246.52,1702.13,243.6,1707,243.6,1707Z"/><path class="cls-4" d="M243.6,1705.05s0,15.59,1.46,18.51,14.13,7.79,31.66,3.9,16.07-11.69,15.59-18-1.46-9.25-9.25-9.25H249C246.52,1700.18,243.6,1705.05,243.6,1705.05Z"/><path class="cls-4" d="M374.63,1719.45s0,9.74,3.9,11.69,38,.49,40.91-.49,3.41-3.41,2.92-9.74,1-11.2-7.31-11.2-32.15,1.95-34.1,2.44S374.63,1712.14,374.63,1719.45Z"/><path class="cls-4" d="M374.63,1717.5s0,9.74,3.9,11.69,38,.49,40.91-.49,3.41-3.41,2.92-9.74,1-11.2-7.31-11.2-32.15,1.95-34.1,2.44S374.63,1710.2,374.63,1717.5Z"/><path class="cls-4" d="M442.48,1706.12s-1,6.33,3.41,8.77,4.87,4.38,11.2,4.38,25.33,1.46,27.28.49,5.36-11.69,0-13.15-5.84-2.44-12.18-2.44-23.38,0-25.33.49S443.45,1704.17,442.48,1706.12Z"/><path class="cls-4" d="M442.48,1704.17s-1,6.33,3.41,8.77,4.87,4.38,11.2,4.38,25.33,1.46,27.28.49,5.36-11.69,0-13.15-5.84-2.44-12.18-2.44-23.38,0-25.33.49S443.45,1702.22,442.48,1704.17Z"/><path class="cls-4" d="M410.78,1739.35s-1.46,10.23-1,14.61,2.44,9.25,8.77,8.28,44.81-1,47.25-2.92,2.44-14.61,1.46-18.51-4.38-7.31-13.15-6.33-35.07,1.95-38,2.44A13.26,13.26,0,0,0,410.78,1739.35Z"/><path class="cls-4" d="M410.78,1737.4s-1.46,10.23-1,14.61,2.44,9.25,8.77,8.28,44.81-1,47.25-2.92,2.44-14.61,1.46-18.51-4.38-7.31-13.15-6.33-35.07,1.95-38,2.44A13.26,13.26,0,0,0,410.78,1737.4Z"/><path class="cls-4" d="M475.72,1748s-.49,10.72,1,17,1.46,8.28,6.82,9.25,31.17.49,34.1-1,4.87-16.07,1-20.94-5.36-7.31-11.2-7.79S477.18,1739.74,475.72,1748Z"/><path class="cls-4" d="M475.72,1746.07s-.49,10.72,1,17,1.46,8.28,6.82,9.25,31.17.49,34.1-1,4.87-16.07,1-20.94-5.36-7.31-11.2-7.79S477.18,1737.79,475.72,1746.07Z"/><path class="cls-4" d="M498.75,1690.51s-1,9.74,0,14.13,6.82,4.87,10.72,4.87,43.35.49,46.27-1,4.38-9.25,3.41-17.53-2.44-8.77-8.77-8.77-35.07-1.46-39.94-.49S502.64,1682.72,498.75,1690.51Z"/><path class="cls-4" d="M498.75,1688.57s-1,9.74,0,14.13,6.82,4.87,10.72,4.87,43.35.49,46.27-1,4.38-9.25,3.41-17.53-2.44-8.77-8.77-8.77-35.07-1.46-39.94-.49S502.64,1680.77,498.75,1688.57Z"/><path class="cls-4" d="M240.6,1753.12s0,13.15,1.95,14.61,13.64,2.44,28.25,1.95,26.79,0,26.79-7.79-1.95-14.13-5.84-14.61-38.48,0-42.86.49S242.07,1747.76,240.6,1753.12Z"/><path class="cls-4" d="M113.56,1658.88s0,13.15,1.95,14.61,13.64,2.44,28.25,1.95,26.79,0,26.79-7.79-1.95-14.13-5.84-14.61-38.48,0-42.86.49S115,1653.52,113.56,1658.88Z"/><path class="cls-4" d="M216.09,1768.07s-1.95,4.87,0,7.79,12.66,2.44,14.61,1,2.92-9.25-.49-10.72S221.94,1764.66,216.09,1768.07Z"/><path class="cls-4" d="M216.09,1766.12s-1.95,4.87,0,7.79,12.66,2.44,14.61,1,2.92-9.25-.49-10.72S221.94,1762.72,216.09,1766.12Z"/><path class="cls-4" d="M187.71,1722.1s-1.95,8.28,0,11.69,5.84,3.9,11.69,4.38,21.92.49,24.84-1.95,3.41-12.18.49-14.61-30.2-1.95-32.63-1.46S188.69,1720.15,187.71,1722.1Z"/><path class="cls-4" d="M187.71,1720.15s-1.95,8.28,0,11.69,5.84,3.9,11.69,4.38,21.92.49,24.84-1.95,3.41-12.18.49-14.61-30.2-1.95-32.63-1.46S188.69,1718.21,187.71,1720.15Z"/><path class="cls-4" d="M157.66,1742.15s22.89,1,27.76,1.46,8.77.49,8.77,8.28,1,14.13-1,16.07-6.82,4.38-10.23,4.38-16.56,1-21.92,1-17.53.49-19.48-4.38-5.36-20-1.46-21.43S143.54,1743.12,157.66,1742.15Z"/><path class="cls-4" d="M50.66,1714.2s22.89,1,27.76,1.46,8.77.49,8.77,8.28,1,14.13-1,16.07S79.4,1744.4,76,1744.4s-16.56,1-21.92,1-17.53.49-19.48-4.38-5.36-20-1.46-21.43S36.54,1715.18,50.66,1714.2Z"/><path class="cls-4" d="M156.31,1716.59s6.82-1.95,10.72-1.95,6.82,1,7.31,3.41,1.95,10.23-.49,11.69-11.69,2.44-14.61,1.95S148.51,1721,156.31,1716.59Z"/><path class="cls-4" d="M156.31,1714.64s6.82-1.95,10.72-1.95,6.82,1,7.31,3.41,1.95,10.23-.49,11.69-11.69,2.44-14.61,1.95S148.51,1719,156.31,1714.64Z"/><path class="cls-4" d="M1372.34-11.24s11.2-1,15.59-.49,6.33,1,5.84,7.31,1.95,15.59.49,19-2.44,4.38-9.74,3.9-19,0-20.46-4.38S1366.49-10.27,1372.34-11.24Z"/><path class="cls-4" d="M1340.34,26.81s11.2-1,15.59-.49,6.33,1,5.84,7.31,1.95,15.59.49,19-2.44,4.38-9.74,3.9-19,0-20.46-4.38S1334.49,27.78,1340.34,26.81Z"/><path class="cls-4" d="M1532.75,104.84c1-.16,26.3-2.92,31.66-1s5.36,3.9,4.87,8.77,0,8.28-4.87,8.77-26.79,2.92-31.17,2.44S1517.65,107.27,1532.75,104.84Z"/><path class="cls-4" d="M1424.75,66.89c1-.16,26.3-2.92,31.66-1s5.36,3.9,4.87,8.77,0,8.28-4.87,8.77-26.79,2.92-31.17,2.44S1409.65,69.33,1424.75,66.89Z"/><path class="cls-4" d="M1607.77,133s19.48.49,22.41,0,6.33-5.36,4.87-16.56c0,0,0-8.77-6.82-9.25s-21.92-1-26.79,1.46S1595.11,132,1607.77,133Z"/><path class="cls-4" d="M1489.77,82s19.48.49,22.41,0,6.33-5.36,4.87-16.56c0,0,0-8.77-6.82-9.25s-21.92-1-26.79,1.46S1477.11,81.07,1489.77,82Z"/><path class="cls-4" d="M1684,160.08s-1.95,15.1,1.46,19,15.59,3.41,23.38,2.44,8.77-5.84,8.28-15.1-3.41-9.25-12.18-9.25S1684.94,153.74,1684,160.08Z"/><path class="cls-4" d="M1636,161.13s-1.95,15.1,1.46,19,15.59,3.41,23.38,2.44,8.77-5.84,8.28-15.1-3.41-9.25-12.18-9.25S1636.94,154.79,1636,161.13Z"/><path class="cls-4" d="M1701.48-10.9S1699.53-.67,1701,5.66s10.72,8.28,20,8.77,32.63,2.44,33.61-3.9,3.9-19-6.33-22.41-20.94-3.9-25.33-2.92S1702.94-15.28,1701.48-10.9Z"/><path class="cls-4" d="M1623.48-15.85S1621.53-5.62,1623,.71,1633.7,9,1643,9.48s32.63,2.44,33.61-3.9,3.9-19-6.33-22.41-20.94-3.9-25.33-2.92S1624.94-20.23,1623.48-15.85Z"/><path class="cls-4" d="M1534.46,65.48s-1.95,10.23-.49,14.13,16.56,4.87,22.41,3.9,8.77-1.95,9.25-7.79,1.46-11.69-5.84-12.18S1535.92,58.67,1534.46,65.48Z"/><path class="cls-4" d="M1751.46,111.54s-1.95,10.23-.49,14.13,16.56,4.87,22.41,3.9,8.77-1.95,9.25-7.79,1.46-11.69-5.84-12.18S1752.92,104.72,1751.46,111.54Z"/><path class="cls-4" d="M1720.56,69s-1.46,16.56,0,18.51,9.25,3.41,13.15-.49,3.41-15.1,1.46-17.53S1722.51,65.59,1720.56,69Z"/><path class="cls-4" d="M1602.56,152s-1.46,16.56,0,18.51,9.25,3.41,13.15-.49,3.41-15.1,1.46-17.53S1604.51,148.64,1602.56,152Z"/><path class="cls-4" d="M1811,47s-2.92,6.33-1.46,16.56,28.74,6.33,38,5.36,17.53-1.95,15.1-12.66-1.46-12.18-14.13-11.2-28.25.49-32.63.49S1811,47,1811,47Z"/><path class="cls-4" d="M1931,75.08s-2.92,6.33-1.46,16.56,28.74,6.33,38,5.36,17.53-1.95,15.1-12.66-1.46-12.18-14.13-11.2-28.25.49-32.63.49S1931,75.08,1931,75.08Z"/><path class="cls-4" d="M1868.11,76.08s-1,15.1,1.46,18,9.25,3.9,17,4.38,20.46,1.46,24.84-1.46,5.84-22.41-1-24.35S1874.44,69.26,1868.11,76.08Z"/><path class="cls-4" d="M1589.11,63.13s-1,15.1,1.46,18,9.25,3.9,17,4.38,20.46,1.46,24.84-1.46,5.84-22.41-1-24.35S1595.44,56.31,1589.11,63.13Z"/><path class="cls-4" d="M1751,57.67v9.74c0,1.95,2.92,6.82,6.82,7.79s23.87-1,26.79-1.46,6.33-2.92,5.36-10.23.49-9.25-1.46-11.2-27.76-1.95-30.69-1.46S1751.49,52.8,1751,57.67Z"/><path class="cls-4" d="M1658,60.72v9.74c0,1.95,2.92,6.82,6.82,7.79s23.87-1,26.79-1.46,6.33-2.92,5.36-10.23.49-9.25-1.46-11.2-27.76-1.95-30.69-1.46S1658.49,55.85,1658,60.72Z"/><path class="cls-4" d="M1324.48,154.05s-1.46,10.72,2.92,13.64,18.51,1,27.28,1.46,20.46.49,21.92-4.87.49-11.2,1-15.1-2.92-5.36-5.84-5.36-20,0-23.87.49-13.64,1-17,1S1325.46,149.18,1324.48,154.05Z"/><path class="cls-4" d="M1309.48,191.11s-1.46,10.72,2.92,13.64,18.51,1,27.28,1.46,20.46.49,21.92-4.87.49-11.2,1-15.1-2.92-5.36-5.84-5.36-20,0-23.87.49-13.64,1-17,1S1310.46,186.23,1309.48,191.11Z"/><path class="cls-4" d="M1427,105.34s-2.44,10.23-3.41,12.66-1.46,5.36,2.44,6.82,22.41,5.84,27.76,6.33,16.56,1,20,1.95,6.82-2.92,6.82-7.31,3.41-11.2-4.38-14.13-26.3-6.33-30.2-7.31-11.2-2.44-13.64-1.95S1429.93,101.44,1427,105.34Z"/><path class="cls-4" d="M1394,136.39s-2.44,10.23-3.41,12.66-1.46,5.36,2.44,6.82,22.41,5.84,27.76,6.33,16.56,1,20,1.95,6.82-2.92,6.82-7.31,3.41-11.2-4.38-14.13-26.3-6.33-30.2-7.31-11.2-2.44-13.64-1.95S1396.93,132.49,1394,136.39Z"/><path class="cls-4" d="M1351,79.75s-1.95,12.18-.49,15.1,5.84,3.9,11.2,3.41,16.07-1.46,21.43-.49,14.61.49,15.59-1.46,2.44-15.59,1-18.51-3.9-2.44-9.74-3.41-22.89-1.95-28.74-1.46S1353.4,73.9,1351,79.75Z"/><path class="cls-4" d="M1537,153.8s-1.95,12.18-.49,15.1,5.84,3.9,11.2,3.41,16.07-1.46,21.43-.49,14.61.49,15.59-1.46,2.44-15.59,1-18.51-3.9-2.44-9.74-3.41S1553,146.49,1547.2,147,1539.4,148,1537,153.8Z"/><path class="cls-4" d="M1357.46,108.77a57,57,0,0,0-.49,11.69c.49,5.36,6.33,8.28,11.69,8.28s16.07,1,19.48-1.46,3.41-13.15,2.44-14.61-11.69-7.79-16.56-7.31S1359.41,102.93,1357.46,108.77Z"/><path class="cls-4" d="M1471.46,148.82a57,57,0,0,0-.49,11.69c.49,5.36,6.33,8.28,11.69,8.28s16.07,1,19.48-1.46,3.41-13.15,2.44-14.61-11.69-7.79-16.56-7.31S1473.41,143,1471.46,148.82Z"/><path class="cls-4" d="M488.58,1797.63a11.6,11.6,0,0,0-1.95,7.31c.49,3.9-2.92,8.28-.49,10.23s38,7.31,45.3,6.33,10.72-3.41,11.2-11.2,1-12.66-6.82-13.15-34.58-2.92-37.5-2.92S491,1794.71,488.58,1797.63Z"/><path class="cls-4" d="M488.58,1795.68a11.6,11.6,0,0,0-1.95,7.31c.49,3.9-2.92,8.28-.49,10.23s38,7.31,45.3,6.33,10.72-3.41,11.2-11.2,1-12.66-6.82-13.15-34.58-2.92-37.5-2.92S491,1792.76,488.58,1795.68Z"/><path class="cls-4" d="M227.77,1798.66s-.49,9.74,1.95,12.18,10.23,3.9,14.61,2.92,20,2.92,24.35,1.46,11.69-3.41,11.69-7.31.49-17-1.95-18.51-11.2-2.44-20-1.95-20,1.95-22.89,2.92S228.74,1792.81,227.77,1798.66Z"/><path class="cls-4" d="M38.72,1655.41s-.49,9.74,1.95,12.18,10.23,3.9,14.61,2.92,20,2.92,24.35,1.46,11.69-3.41,11.69-7.31.49-17-1.95-18.51-11.2-2.44-20-1.95-20,1.95-22.89,2.92S39.7,1649.57,38.72,1655.41Z"/><path class="cls-4" d="M116.89,1788.5s-1,7.79-.49,11.69,0,5.84,7.31,6.82,32.15,0,34.1-.49,5.84-6.33,5.36-11.69,3.41-10.23-8.28-10.72-27.76,0-31.66.49S117.38,1786.06,116.89,1788.5Z"/><path class="cls-4" d="M116.89,1786.55s-1,7.79-.49,11.69,0,5.84,7.31,6.82,32.15,0,34.1-.49,5.84-6.33,5.36-11.69,3.41-10.23-8.28-10.72-27.76,0-31.66.49S117.38,1784.12,116.89,1786.55Z"/><path class="cls-4" d="M86.18,1772.09s16.07,2.44,20.94,1,5.36-6.33,6.33-11.2,4.87-16.07-6.33-15.59-24.84,0-26.79.49-9.74.49-9.25,6.33S76.92,1770.63,86.18,1772.09Z"/><path class="cls-4" d="M74.18,1807.14s16.07,2.44,20.94,1,5.36-6.33,6.33-11.2,4.87-16.07-6.33-15.59-24.84,0-26.79.49-9.74.49-9.25,6.33S64.92,1805.68,74.18,1807.14Z"/><path class="cls-4" d="M350.57,1778s-2.44,13.64,1.46,16.56,19.48,1.95,22.89-6.82,2.92-14.61.49-16.07-19-1.95-21.43-.49S350.57,1778,350.57,1778Z"/><path class="cls-4" d="M350.57,1776.09s-2.44,13.64,1.46,16.56,19.48,1.95,22.89-6.82,2.92-14.61.49-16.07-19-1.95-21.43-.49S350.57,1776.09,350.57,1776.09Z"/><path class="cls-4" d="M390.77,1777.63s-3.41,10.23-1.95,14.61,5.36,5.36,14.61,5.84,21.92,2.92,27.28,0,6.33-18.51,3.9-20.94-21.92-3.9-30.69-3.9S394.67,1773.25,390.77,1777.63Z"/><path class="cls-4" d="M390.77,1775.68s-3.41,10.23-1.95,14.61,5.36,5.36,14.61,5.84,21.92,2.92,27.28,0,6.33-18.51,3.9-20.94-21.92-3.9-30.69-3.9S394.67,1771.3,390.77,1775.68Z"/><path class="cls-4" d="M250.53,1621.48s1.46,12.66,2.92,14.61,52.6.49,55-4.87-1-16.56-2.92-17.53-34.1-.49-40.43.49S251.51,1616.12,250.53,1621.48Z"/><path class="cls-4" d="M250.53,1619.53s1.46,12.66,2.92,14.61,52.6.49,55-4.87-1-16.56-2.92-17.53-34.1-.49-40.43.49S251.51,1614.18,250.53,1619.53Z"/><path class="cls-4" d="M431.95,1822.93s-1,13.15.49,16.07,17.53,4.87,21.92,3.41,6.82-18,4.38-19.48S441.2,1820,436.82,1820,432.92,1821,431.95,1822.93Z"/><path class="cls-4" d="M431.95,1821s-1,13.15.49,16.07,17.53,4.87,21.92,3.41,6.82-18,4.38-19.48-17.53-2.92-21.92-2.92S432.92,1819,431.95,1821Z"/><path class="cls-4" d="M316,1821.7s-1.46,12.18,0,13.15,44.32,2.92,47.73-1,2.92-15.59,1.46-18-20-5.36-28.74-4.87-15.1.49-18,4.38S316,1821.7,316,1821.7Z"/><path class="cls-4" d="M289,1781.75s-1.46,12.18,0,13.15,44.32,2.92,47.73-1,2.92-15.59,1.46-18-20-5.36-28.74-4.87-15.1.49-18,4.38S289,1781.75,289,1781.75Z"/><path class="cls-4" d="M141.17,1607a21.18,21.18,0,0,0,0,10.23c1.46,4.87,25.82,6.33,33.61,6.33s24.35-2.44,25.33-5.84,1.46-8.28,0-10.72-49.68-3.9-52.6-3.9S142.63,1603.64,141.17,1607Z"/><path class="cls-4" d="M76.17,1624.1a21.18,21.18,0,0,0,0,10.23c1.46,4.87,25.82,6.33,33.61,6.33s24.35-2.44,25.33-5.84,1.46-8.28,0-10.72-49.68-3.9-52.6-3.9S77.63,1620.69,76.17,1624.1Z"/><path class="cls-4" d="M175.28,1824.34s-1.95,14.61,0,15.59,28.74,1.95,32.63.49,5.84-6.33,5.36-14.13S174.3,1819,175.28,1824.34Z"/><path class="cls-4" d="M175.28,1822.39s-1.95,14.61,0,15.59,28.74,1.95,32.63.49,5.84-6.33,5.36-14.13S174.3,1817,175.28,1822.39Z"/><path class="cls-4" d="M153.85,1818s10.72-1,14.13,1.46,5.84,6.33,4.87,13.15-20.46,7.31-23.87,4.87S148,1818.5,153.85,1818Z"/><path class="cls-4" d="M114.85,1822.06s10.72-1,14.13,1.46,5.84,6.33,4.87,13.15-20.46,7.31-23.87,4.87S109,1822.55,114.85,1822.06Z"/></g><g class="cls-3"><path class="cls-4" d="M96.68,767.36s28.25,1,35.07,1.46,18,3.9,20.46,2.44,7.06-13.39,5.11-19.73,1-7.79-6.82-8.77-40.43-2.92-44.32-1.95-7.79,1-9.74,4.38-2.92,3.9-4.87,6.82-2.92,3.9-1.95,7.79S94,767.11,96.68,767.36Z"/><path class="cls-4" d="M73.68,811.41s28.25,1,35.07,1.46,18,3.9,20.46,2.44,7.06-13.39,5.11-19.73,1-7.79-6.82-8.77-40.43-2.92-44.32-1.95-7.79,1-9.74,4.38-2.92,3.9-4.87,6.82-2.92,3.9-1.95,7.79S71,811.16,73.68,811.41Z"/><path class="cls-4" d="M173.63,1018.43s29.71,4.38,37,2.92,12.66-.49,13.64-4.87,2.44-17.53-2.44-17.53-29.22-4.87-33.61-3.41-12.18.49-13.64,2.44-4.38,8.28-2.92,12.18S172.66,1018.91,173.63,1018.43Z"/><path class="cls-4" d="M173.63,1016.48s29.71,4.38,37,2.92,12.66-.49,13.64-4.87S226.72,997,221.85,997s-29.22-4.87-33.61-3.41-12.18.49-13.64,2.44-4.38,8.28-2.92,12.18S172.66,1017,173.63,1016.48Z"/><path class="cls-4" d="M77.7,638.68s-1.46,17.53.49,20S87,663,91.83,663s24.35,0,25.82-1.95,3.41-4.87,2.92-11.2,1.46-14.13-1.95-16.56-13.64-3.9-18-2.44-20.46,1.46-21.92,3.9S77.7,638.68,77.7,638.68Z"/><path class="cls-4" d="M22.7,678.73s-1.46,17.53.49,20,8.77,4.38,13.64,4.38,24.35,0,25.82-1.95,3.41-4.87,2.92-11.2,1.46-14.13-1.95-16.56-13.64-3.9-18-2.44-20.46,1.46-21.92,3.9S22.7,678.73,22.7,678.73Z"/><path class="cls-4" d="M307.7,1022.35s-.49,10.23,1,11.2,13.15.49,14.61-1,2.44-7.79,2.44-10.23-3.9-5.36-8.28-4.38S307.21,1018,307.7,1022.35Z"/><path class="cls-4" d="M307.7,1020.4s-.49,10.23,1,11.2,13.15.49,14.61-1,2.44-7.79,2.44-10.23-3.9-5.36-8.28-4.38S307.21,1016,307.7,1020.4Z"/><path class="cls-4" d="M86.13,519.46s-1.95,10.23,1,13.15,12.66,2.92,20,3.41,7.31.49,9.74,0,5.84-4.38,6.33-7.31-.49-11.69-5.84-11.2-17-1.95-20.94-1.46S87.1,516.53,86.13,519.46Z"/><path class="cls-4" d="M320.13,595.51s-1.95,10.23,1,13.15,12.66,2.92,20,3.41,7.31.49,9.74,0,5.84-4.38,6.33-7.31-.49-11.69-5.84-11.2-17-1.95-20.94-1.46S321.1,592.58,320.13,595.51Z"/><path class="cls-4" d="M378.46,1013.24a111.07,111.07,0,0,0,0,13.15c.49,4.38,0,9.25,3.41,10.72s14.61,0,19,1,22.89,1.95,27.28,1.95,12.18-16.56,6.82-20.46-6.82-8.77-14.61-8.28-16.56-2.92-21.92-2.44-14.13-1.46-16.56,0A9,9,0,0,0,378.46,1013.24Z"/><path class="cls-4" d="M378.46,1011.3a111.07,111.07,0,0,0,0,13.15c.49,4.38,0,9.25,3.41,10.72s14.61,0,19,1,22.89,1.95,27.28,1.95,12.18-16.56,6.82-20.46-6.82-8.77-14.61-8.28-16.56-2.92-21.92-2.44-14.13-1.46-16.56,0A9,9,0,0,0,378.46,1011.3Z"/><path class="cls-4" d="M208.38,1047.67s-1,10.72,2.92,13.15,11.69,7.31,18,5.36,10.23-1,10.23-6.33,3.9-11.69,0-15.59-9.25-5.36-15.59-4.87-12.66.49-13.64,2.92S208.38,1047.67,208.38,1047.67Z"/><path class="cls-4" d="M208.38,1045.72s-1,10.72,2.92,13.15,11.69,7.31,18,5.36,10.23-1,10.23-6.33,3.9-11.69,0-15.59-9.25-5.36-15.59-4.87-12.66.49-13.64,2.92S208.38,1045.72,208.38,1045.72Z"/><path class="cls-4" d="M23.54,1295.7s-2.44,17,1,18.51,37.5,1,38.48-1,2.44-22.89,0-24.84-13.15-3.41-19-2.92-16.56.49-18,1.95S23.54,1295.7,23.54,1295.7Z"/><path class="cls-4" d="M117.54,871.75s-2.44,17,1,18.51,37.5,1,38.48-1,2.44-22.89,0-24.84-13.15-3.41-19-2.92-16.56.49-18,1.95S117.54,871.75,117.54,871.75Z"/><path class="cls-4" d="M251.45,1006.37s-1.95,10.23.49,12.66,16.56,9.25,18.51,10.72a10.37,10.37,0,0,0,7.79,1.46q4.38-.73,4.38-11.69c0-7.31,2.44-12.18-4.38-14.13s-19.48-3.41-21.92-2.44A17.78,17.78,0,0,0,251.45,1006.37Z"/><path class="cls-4" d="M251.45,1004.42s-1.95,10.23.49,12.66,16.56,9.25,18.51,10.72a10.37,10.37,0,0,0,7.79,1.46q4.38-.73,4.38-11.69c0-7.31,2.44-12.18-4.38-14.13s-19.48-3.41-21.92-2.44A17.78,17.78,0,0,0,251.45,1004.42Z"/><path class="cls-4" d="M96.93,1009.78s-1.95,10.72,0,16.07,10.72,4.38,16.56,4.38,42.38-.49,44.81-1,8.28-2.92,8.77-8.77,1-17.53-2.92-18-54.55-.49-59.91,1A11.61,11.61,0,0,0,96.93,1009.78Z"/><path class="cls-4" d="M96.93,1007.83s-1.95,10.72,0,16.07,10.72,4.38,16.56,4.38,42.38-.49,44.81-1,8.28-2.92,8.77-8.77,1-17.53-2.92-18-54.55-.49-59.91,1A11.61,11.61,0,0,0,96.93,1007.83Z"/><path class="cls-4" d="M339.54,1047.63s.49,12.18,1.95,16.07,14.61,2.92,20,3.41,7.31,0,8.77-1.46,2.44-12.66,1.95-14.13-6.33-10.23-11.2-11.2-12.66,0-16.56,1.95A9.56,9.56,0,0,0,339.54,1047.63Z"/><path class="cls-4" d="M339.54,1045.68s.49,12.18,1.95,16.07,14.61,2.92,20,3.41,7.31,0,8.77-1.46,2.44-12.66,1.95-14.13-6.33-10.23-11.2-11.2-12.66,0-16.56,1.95A9.56,9.56,0,0,0,339.54,1045.68Z"/><path class="cls-4" d="M161.87,563.38s-3.41,10.72-2.92,14.13,3.9,7.31,8.77,7.79,30.69-3.9,32.15-5.36,4.38-7.31,3.41-13.64-6.33-7.31-19-7.31S165.28,558,161.87,563.38Z"/><path class="cls-4" d="M366.87,586.43s-3.41,10.72-2.92,14.13,3.9,7.31,8.77,7.79,30.69-3.9,32.15-5.36,4.38-7.31,3.41-13.64-6.33-7.31-19-7.31S370.28,581.07,366.87,586.43Z"/><path class="cls-4" d="M59.07,973.87s-2.44,14.61.49,15.59,23.38,7.31,41.89,3.9,17-9.74,14.61-17S82,968,74.65,968,62.47,966.07,59.07,973.87Z"/><path class="cls-4" d="M55.07,979.92s-2.44,14.61.49,15.59,23.38,7.31,41.89,3.9,17-9.74,14.61-17-34.1-8.28-41.4-8.28S58.47,972.12,55.07,979.92Z"/><path class="cls-4" d="M134.56,1045.19s-1,10.72-1,15.59,1.46,7.79,9.74,8.77,30.69,4.87,37,2.92,10.23-3.41,10.23-9.74,1-15.59-7.79-17.53-38-8.28-42.86-6.33A8.33,8.33,0,0,0,134.56,1045.19Z"/><path class="cls-4" d="M134.56,1043.24s-1,10.72-1,15.59,1.46,7.79,9.74,8.77,30.69,4.87,37,2.92,10.23-3.41,10.23-9.74,1-15.59-7.79-17.53-38-8.28-42.86-6.33A8.33,8.33,0,0,0,134.56,1043.24Z"/><path class="cls-4" d="M29.41,1056.52S56.68,1058,63.5,1059s14.13-1.46,15.59,1.95S82.5,1072.59,82,1077s-6.33,4.87-10.72,5.84-26.3,1.95-37,1.95-8.77,1-11.69-2.92S17.72,1055.55,29.41,1056.52Z"/><path class="cls-4" d="M250.95,1107.54s-1,11.69,1,14.13,15.1,2.92,19.48,2.92,11.69,1,13.15-3.41,3.41-14.13-3.9-17-23.38-2.44-26.3-1A6.5,6.5,0,0,0,250.95,1107.54Z"/><path class="cls-4" d="M250.95,1105.59s-1,11.69,1,14.13,15.1,2.92,19.48,2.92,11.69,1,13.15-3.41,3.41-14.13-3.9-17-23.38-2.44-26.3-1A6.5,6.5,0,0,0,250.95,1105.59Z"/><path class="cls-4" d="M182.85,1078s0,15.59,1.46,18.51,14.13,7.79,31.66,3.9,16.07-11.69,15.59-18-1.46-9.25-9.25-9.25h-34.1C185.78,1073.16,182.85,1078,182.85,1078Z"/><path class="cls-4" d="M255.85,557.87s0,15.59,1.46,18.51,14.13,7.79,31.66,3.9,16.07-11.69,15.59-18S303.1,553,295.31,553h-34.1C258.78,553,255.85,557.87,255.85,557.87Z"/><path class="cls-4" d="M313.89,1090.48s0,9.74,3.9,11.69,38,.49,40.91-.49,3.41-3.41,2.92-9.74,1-11.2-7.31-11.2-32.15,1.95-34.1,2.44S313.89,1083.17,313.89,1090.48Z"/><path class="cls-4" d="M399.89,1170.53s0,9.74,3.9,11.69,38,.49,40.91-.49,3.41-3.41,2.92-9.74,1-11.2-7.31-11.2-32.15,1.95-34.1,2.44S399.89,1163.22,399.89,1170.53Z"/><path class="cls-4" d="M296.13,1054s-1.46,10.23,0,13.15,12.66,3.9,16.56,2.44,5.36-3.9,3.9-6.33-7.31-5.84-7.31-8.77-8.28-3.9-10.72-3.41A3,3,0,0,0,296.13,1054Z"/><path class="cls-4" d="M296.13,1052.08s-1.46,10.23,0,13.15,12.66,3.9,16.56,2.44,5.36-3.9,3.9-6.33-7.31-5.84-7.31-8.77-8.28-3.9-10.72-3.41A3,3,0,0,0,296.13,1052.08Z"/><path class="cls-4" d="M381.73,1077.14s-1,6.33,3.41,8.77,4.87,4.38,11.2,4.38,25.33,1.46,27.28.49,5.36-11.69,0-13.15-5.84-2.44-12.18-2.44-23.38,0-25.33.49S382.71,1075.2,381.73,1077.14Z"/><path class="cls-4" d="M381.73,1075.2s-1,6.33,3.41,8.77,4.87,4.38,11.2,4.38,25.33,1.46,27.28.49,5.36-11.69,0-13.15-5.84-2.44-12.18-2.44-23.38,0-25.33.49S382.71,1073.25,381.73,1075.2Z"/><path class="cls-4" d="M350,1110.38s-1.46,10.23-1,14.61,2.44,9.25,8.77,8.28,44.81-1,47.25-2.92,2.44-14.61,1.46-18.51-4.38-7.31-13.15-6.33-35.07,1.95-38,2.44A13.26,13.26,0,0,0,350,1110.38Z"/><path class="cls-4" d="M417,1216.43s-1.46,10.23-1,14.61,2.44,9.25,8.77,8.28,44.81-1,47.25-2.92,2.44-14.61,1.46-18.51-4.38-7.31-13.15-6.33-35.07,1.95-38,2.44A13.26,13.26,0,0,0,417,1216.43Z"/><path class="cls-4" d="M415,1119s-.49,10.72,1,17,1.46,8.28,6.82,9.25,31.17.49,34.1-1,4.87-16.07,1-20.94-5.36-7.31-11.2-7.79S416.43,1110.77,415,1119Z"/><path class="cls-4" d="M475,1099.1s-.49,10.72,1,17,1.46,8.28,6.82,9.25,31.17.49,34.1-1,4.87-16.07,1-20.94-5.36-7.31-11.2-7.79S476.43,1090.82,475,1099.1Z"/><path class="cls-4" d="M438,1061.54s-1,9.74,0,14.13,6.82,4.87,10.72,4.87,43.35.49,46.27-1,4.38-9.25,3.41-17.53-2.44-8.77-8.77-8.77-35.07-1.46-39.94-.49S441.9,1053.75,438,1061.54Z"/><path class="cls-4" d="M438,1059.59s-1,9.74,0,14.13,6.82,4.87,10.72,4.87,43.35.49,46.27-1,4.38-9.25,3.41-17.53-2.44-8.77-8.77-8.77-35.07-1.46-39.94-.49S441.9,1051.8,438,1059.59Z"/><path class="cls-4" d="M179.86,1124.15s0,13.15,1.95,14.61,13.64,2.44,28.25,1.95,26.79,0,26.79-7.79-1.95-14.13-5.84-14.61-38.48,0-42.86.49S181.32,1118.79,179.86,1124.15Z"/><path class="cls-4" d="M179.86,1122.2s0,13.15,1.95,14.61,13.64,2.44,28.25,1.95,26.79,0,26.79-7.79-1.95-14.13-5.84-14.61-38.48,0-42.86.49S181.32,1116.84,179.86,1122.2Z"/><path class="cls-4" d="M155.35,1139.1s-1.95,4.87,0,7.79,12.66,2.44,14.61,1,2.92-9.25-.49-10.72S161.19,1135.69,155.35,1139.1Z"/><path class="cls-4" d="M155.35,1137.15s-1.95,4.87,0,7.79,12.66,2.44,14.61,1,2.92-9.25-.49-10.72S161.19,1133.74,155.35,1137.15Z"/><path class="cls-4" d="M127,1093.13s-1.95,8.28,0,11.69,5.84,3.9,11.69,4.38,21.92.49,24.84-1.95,3.41-12.18.49-14.61-30.2-1.95-32.63-1.46S127.94,1091.18,127,1093.13Z"/><path class="cls-4" d="M127,1091.18s-1.95,8.28,0,11.69,5.84,3.9,11.69,4.38,21.92.49,24.84-1.95,3.41-12.18.49-14.61-30.2-1.95-32.63-1.46S127.94,1089.23,127,1091.18Z"/><path class="cls-4" d="M96.92,1113.18s22.89,1,27.76,1.46,8.77.49,8.77,8.28,1,14.13-1,16.07-6.82,4.38-10.23,4.38-16.56,1-21.92,1-17.53.49-19.48-4.38-5.36-20-1.46-21.43S82.79,1114.15,96.92,1113.18Z"/><path class="cls-4" d="M50.92,1219.23s22.89,1,27.76,1.46,8.77.49,8.77,8.28,1,14.13-1,16.07-6.82,4.38-10.23,4.38-16.56,1-21.92,1-17.53.49-19.48-4.38-5.36-20-1.46-21.43S36.79,1220.2,50.92,1219.23Z"/><path class="cls-4" d="M95.56,1087.62s6.82-1.95,10.72-1.95,6.82,1,7.31,3.41,1.95,10.23-.49,11.69-11.69,2.44-14.61,1.95S87.77,1092,95.56,1087.62Z"/><path class="cls-4" d="M95.56,1085.67s6.82-1.95,10.72-1.95,6.82,1,7.31,3.41,1.95,10.23-.49,11.69-11.69,2.44-14.61,1.95S87.77,1090.05,95.56,1085.67Z"/><path class="cls-4" d="M52.74,1010.37s11.2-1,15.59-.49,6.33,1,5.84,7.31,1.95,15.59.49,19-2.44,4.38-9.74,3.9-19,0-20.46-4.38S46.9,1011.35,52.74,1010.37Z"/><path class="cls-4" d="M52.74,1008.43s11.2-1,15.59-.49,6.33,1,5.84,7.31,1.95,15.59.49,19-2.44,4.38-9.74,3.9-19,0-20.46-4.38S46.9,1009.4,52.74,1008.43Z"/><path class="cls-4" d="M29.15,950.46c1-.16,26.3-2.92,31.66-1s5.36,3.9,4.87,8.77,0,8.28-4.87,8.77S34,969.94,29.64,969.45,14.05,952.89,29.15,950.46Z"/><path class="cls-4" d="M86.18,917.61s19.48.49,22.41,0,6.33-5.36,4.87-16.56c0,0,0-8.77-6.82-9.25s-21.92-1-26.79,1.46S73.51,916.64,86.18,917.61Z"/><path class="cls-4" d="M62.18,857.66s19.48.49,22.41,0,6.33-5.36,4.87-16.56c0,0,0-8.77-6.82-9.25s-21.92-1-26.79,1.46S49.51,856.69,62.18,857.66Z"/><path class="cls-4" d="M60.38,928.69s-1.95,15.1,1.46,19,15.59,3.41,23.38,2.44S94,944.28,93.5,935s-3.41-9.25-12.18-9.25S61.35,922.36,60.38,928.69Z"/><path class="cls-4" d="M60.38,926.74s-1.95,15.1,1.46,19,15.59,3.41,23.38,2.44,8.77-5.84,8.28-15.1-3.41-9.25-12.18-9.25S61.35,920.41,60.38,926.74Z"/><path class="cls-4" d="M312.88,632.72s-1.95,10.23-.49,16.56,10.72,8.28,20,8.77,32.63,2.44,33.61-3.9,3.9-19-6.33-22.41-20.94-3.9-25.33-2.92S314.34,628.33,312.88,632.72Z"/><path class="cls-4" d="M87.88,558.77s-1.95,10.23-.49,16.56,10.72,8.28,20,8.77S140,586.53,141,580.2s3.9-19-6.33-22.41-20.94-3.9-25.33-2.92S89.34,554.39,87.88,558.77Z"/><path class="cls-4" d="M175.87,958.1s-1.95,10.23-.49,14.13,16.56,4.87,22.41,3.9,8.77-1.95,9.25-7.79,1.46-11.69-5.84-12.18S177.33,951.28,175.87,958.1Z"/><path class="cls-4" d="M175.87,956.15s-1.95,10.23-.49,14.13,16.56,4.87,22.41,3.9,8.77-1.95,9.25-7.79,1.46-11.69-5.84-12.18S177.33,949.33,175.87,956.15Z"/><path class="cls-4" d="M133,945.61s-1.46,16.56,0,18.51,9.25,3.41,13.15-.49,3.41-15.1,1.46-17.53S134.91,942.21,133,945.61Z"/><path class="cls-4" d="M133,943.67s-1.46,16.56,0,18.51,9.25,3.41,13.15-.49,3.41-15.1,1.46-17.53S134.91,940.26,133,943.67Z"/><path class="cls-4" d="M27.45,588.64S24.52,595,26,605.2s28.74,6.33,38,5.36,17.53-1.95,15.1-12.66S77.62,585.72,65,586.69s-28.25.49-32.63.49S27.45,588.64,27.45,588.64Z"/><path class="cls-4" d="M99.45,600.69S96.52,607,98,617.25s28.74,6.33,38,5.36,17.53-1.95,15.1-12.66-1.46-12.18-14.13-11.2-28.25.49-32.63.49S99.45,600.69,99.45,600.69Z"/><path class="cls-4" d="M21.51,629.69s-1,15.1,1.46,18,9.25,3.9,17,4.38,20.46,1.46,24.84-1.46,5.84-22.41-1-24.35S27.84,622.87,21.51,629.69Z"/><path class="cls-4" d="M164.51,599.74s-1,15.1,1.46,18,9.25,3.9,17,4.38,20.46,1.46,24.84-1.46,5.84-22.41-1-24.35S170.84,592.92,164.51,599.74Z"/><path class="cls-4" d="M140,647.29V657c0,1.95,2.92,6.82,6.82,7.79s23.87-1,26.79-1.46,6.33-2.92,5.36-10.23.49-9.25-1.46-11.2-27.76-1.95-30.69-1.46S140.49,642.42,140,647.29Z"/><path class="cls-4" d="M101,678.34v9.74c0,1.95,2.92,6.82,6.82,7.79s23.87-1,26.79-1.46,6.33-2.92,5.36-10.23.49-9.25-1.46-11.2-27.76-1.95-30.69-1.46S101.49,673.47,101,678.34Z"/><path class="cls-4" d="M54.89,713.67s-1.46,10.72,2.92,13.64,18.51,1,27.28,1.46,20.46.49,21.92-4.87.49-11.2,1-15.1-2.92-5.36-5.84-5.36-20,0-23.87.49-13.64,1-17,1S55.86,708.8,54.89,713.67Z"/><path class="cls-4" d="M559.89,1196.72s-1.46,10.72,2.92,13.64,18.51,1,27.28,1.46,20.46.49,21.92-4.87.49-11.2,1-15.1-2.92-5.36-5.84-5.36-20,0-23.87.49-13.64,1-17,1S560.86,1191.85,559.89,1196.72Z"/><path class="cls-4" d="M25.83,751.05s.74,10.49.54,13.1.21,5.55,4.37,5.78,23.13-1.14,28.38-2.28,16.09-4,19.64-4.13,5.63-4.83,4.32-9S83,742.8,74.67,742.35s-27,1.84-31,2.08-11.42,1-13.6,2.23S27.45,746.46,25.83,751.05Z"/><path class="cls-4" d="M25.41,870S23,880.24,22,882.67s-1.46,5.36,2.44,6.82,22.41,5.84,27.76,6.33,16.56,1,20,1.95S79,894.85,79,890.46s3.41-11.2-4.38-14.13S48.3,870,44.41,869s-11.2-2.44-13.64-1.95S28.33,866.11,25.41,870Z"/><path class="cls-4" d="M39.37,483.36s-1.95,12.18-.49,15.1,5.84,3.9,11.2,3.41,16.07-1.46,21.43-.49,14.61.49,15.59-1.46,2.44-15.59,1-18.51S84.18,479,78.34,478s-22.89-1.95-28.74-1.46S41.81,477.52,39.37,483.36Z"/><path class="cls-4" d="M27.37,536.42s-1.95,12.18-.49,15.1,5.84,3.9,11.2,3.41,16.07-1.46,21.43-.49,14.61.49,15.59-1.46,2.44-15.59,1-18.51-3.9-2.44-9.74-3.41-22.89-1.95-28.74-1.46S29.81,530.57,27.37,536.42Z"/><path class="cls-4" d="M22.87,793.39a57,57,0,0,0-.49,11.69c.49,5.36,6.33,8.28,11.69,8.28s16.07,1,19.48-1.46S57,798.75,56,797.29,44.3,789.49,39.43,790,24.81,787.55,22.87,793.39Z"/><path class="cls-4" d="M117.87,827.44a57,57,0,0,0-.49,11.69c.49,5.36,6.33,8.28,11.69,8.28s16.07,1,19.48-1.46S152,832.8,151,831.34s-11.69-7.79-16.56-7.31S119.81,821.6,117.87,827.44Z"/><path class="cls-4" d="M475.84,1140.66a11.6,11.6,0,0,0-1.95,7.31c.49,3.9-2.92,8.28-.49,10.23s38,7.31,45.3,6.33,10.72-3.41,11.2-11.2,1-12.66-6.82-13.15-34.58-2.92-37.5-2.92S478.27,1137.73,475.84,1140.66Z"/><path class="cls-4" d="M493.84,1211.71a11.6,11.6,0,0,0-1.95,7.31c.49,3.9-2.92,8.28-.49,10.23s38,7.31,45.3,6.33,10.72-3.41,11.2-11.2,1-12.66-6.82-13.15-34.58-2.92-37.5-2.92S496.27,1208.79,493.84,1211.71Z"/><path class="cls-4" d="M167,1169.68s-.49,9.74,1.95,12.18,10.23,3.9,14.61,2.92,20,2.92,24.35,1.46,11.69-3.41,11.69-7.31.49-17-1.95-18.51-11.2-2.44-20-1.95-20,1.95-22.89,2.92S168,1163.84,167,1169.68Z"/><path class="cls-4" d="M82,1267.73s-.49,9.74,1.95,12.18,10.23,3.9,14.61,2.92,20,2.92,24.35,1.46,11.69-3.41,11.69-7.31.49-17-1.95-18.51-11.2-2.44-20-1.95-20,1.95-22.89,2.92S83,1261.89,82,1267.73Z"/><path class="cls-4" d="M56.14,1159.53s-1,7.79-.49,11.69,0,5.84,7.31,6.82,32.15,0,34.1-.49,5.84-6.33,5.36-11.69,3.41-10.23-8.28-10.72-27.76,0-31.66.49S56.63,1157.09,56.14,1159.53Z"/><path class="cls-4" d="M32.14,1187.58s-1,7.79-.49,11.69,0,5.84,7.31,6.82,32.15,0,34.1-.49,5.84-6.33,5.36-11.69,3.41-10.23-8.28-10.72-27.76,0-31.66.49S32.63,1185.14,32.14,1187.58Z"/><path class="cls-4" d="M37.43,1160.11s16.07,2.44,20.94,1,5.36-6.33,6.33-11.2,4.87-16.07-6.33-15.59-24.84,0-26.79.49-9.74.49-9.25,6.33S28.18,1158.65,37.43,1160.11Z"/><path class="cls-4" d="M42.43,1124.16s16.07,2.44,20.94,1,5.36-6.33,6.33-11.2,4.87-16.07-6.33-15.59-24.84,0-26.79.49-9.74.49-9.25,6.33S33.18,1122.7,42.43,1124.16Z"/><path class="cls-4" d="M289.83,1149.07s-2.44,13.64,1.46,16.56,19.48,1.95,22.89-6.82,2.92-14.61.49-16.07-19-1.95-21.43-.49S289.83,1149.07,289.83,1149.07Z"/><path class="cls-4" d="M289.83,1147.12s-2.44,13.64,1.46,16.56,19.48,1.95,22.89-6.82,2.92-14.61.49-16.07-19-1.95-21.43-.49S289.83,1147.12,289.83,1147.12Z"/><path class="cls-4" d="M330,1148.66s-3.41,10.23-1.95,14.61,5.36,5.36,14.61,5.84,21.92,2.92,27.28,0,6.33-18.51,3.9-20.94-21.92-3.9-30.69-3.9S333.92,1144.27,330,1148.66Z"/><path class="cls-4" d="M330,1146.71s-3.41,10.23-1.95,14.61,5.36,5.36,14.61,5.84,21.92,2.92,27.28,0,6.33-18.51,3.9-20.94-21.92-3.9-30.69-3.9S333.92,1142.32,330,1146.71Z"/><path class="cls-4" d="M290.83,1225.8s1.46,12.66,2.92,14.61,52.6.49,55-4.87-1-16.56-2.92-17.53-34.1-.49-40.43.49S291.8,1220.45,290.83,1225.8Z"/><path class="cls-4" d="M290.83,1223.85s1.46,12.66,2.92,14.61,52.6.49,55-4.87-1-16.56-2.92-17.53-34.1-.49-40.43.49S291.8,1218.5,290.83,1223.85Z"/><path class="cls-4" d="M371.2,1194s-1,13.15.49,16.07,17.53,4.87,21.92,3.41,6.82-18,4.38-19.48-17.53-2.92-21.92-2.92S372.18,1192,371.2,1194Z"/><path class="cls-4" d="M371.2,1192s-1,13.15.49,16.07,17.53,4.87,21.92,3.41,6.82-18,4.38-19.48-17.53-2.92-21.92-2.92S372.18,1190.06,371.2,1192Z"/><path class="cls-4" d="M229.25,1184.73s-1.46,12.18,0,13.15,44.32,2.92,47.73-1,2.92-15.59,1.46-18-20-5.36-28.74-4.87-15.1.49-18,4.38S229.25,1184.73,229.25,1184.73Z"/><path class="cls-4" d="M229.25,1182.78s-1.46,12.18,0,13.15,44.32,2.92,47.73-1,2.92-15.59,1.46-18-20-5.36-28.74-4.87-15.1.49-18,4.38S229.25,1182.78,229.25,1182.78Z"/><path class="cls-4" d="M181.47,1211.37a21.18,21.18,0,0,0,0,10.23c1.46,4.87,25.82,6.33,33.61,6.33s24.35-2.44,25.33-5.84,1.46-8.28,0-10.72-49.68-3.9-52.6-3.9S182.93,1208,181.47,1211.37Z"/><path class="cls-4" d="M181.47,1209.42a21.18,21.18,0,0,0,0,10.23c1.46,4.87,25.82,6.33,33.61,6.33s24.35-2.44,25.33-5.84,1.46-8.28,0-10.72-49.68-3.9-52.6-3.9S182.93,1206,181.47,1209.42Z"/><path class="cls-4" d="M114.53,1195.37s-1.95,14.61,0,15.59,28.74,1.95,32.63.49,5.84-6.33,5.36-14.13S113.56,1190,114.53,1195.37Z"/><path class="cls-4" d="M123.53,1220.42s-1.95,14.61,0,15.59,28.74,1.95,32.63.49,5.84-6.33,5.36-14.13S122.56,1215.06,123.53,1220.42Z"/><path class="cls-4" d="M93.1,1189s10.72-1,14.13,1.46,5.84,6.33,4.87,13.15-20.46,7.31-23.87,4.87S87.25,1189.52,93.1,1189Z"/><path class="cls-4" d="M93.1,1187.09s10.72-1,14.13,1.46,5.84,6.33,4.87,13.15-20.46,7.31-23.87,4.87S87.25,1187.57,93.1,1187.09Z"/></g></svg>