<svg xmlns="http://www.w3.org/2000/svg" viewBox="0 0 131.71 159.12"><defs><style>.cls-1{fill:#fbc5cf;}.cls-2{fill:#f0a1c8;}</style></defs><title>matcBtn</title><g id="圖層_2" data-name="圖層 2"><g id="圖層_1-2" data-name="圖層 1"><path class="cls-1" d="M124.6,66.37A59.4,59.4,0,0,0,82.1,35.91c4.25-11.1,1.88-21.76.84-25.66C81.8,6,76.12-.53,73.75,0c-2.14.51-6.1,29.38-6.87,35.12-2.22.08-4.47.23-6.73.46C59.56,31.2,55.41.56,53.21,0,50.84-.53,45.16,6,44,10.26S40.31,26.15,45.73,38a99.2,99.2,0,0,0-14.27,4.35c-15.31,6.06-29.69,29-30.25,40.13s-7.38,41.45,18.53,63.6c0,0,7.47,7.95,18,10.6s50.16,4.92,63.81-3,22.68-15.52,26.74-30.85S134.55,84.92,124.6,66.37Z"/><circle class="cls-2" cx="65.86" cy="98.56" r="50.21"/></g></g></svg>