<svg xmlns="http://www.w3.org/2000/svg" viewBox="0 0 377.65 475.45"><defs><style>.cls-1{fill:#eb616d;}.cls-2{fill:#ef5c79;}.cls-3{fill:#fbc5cf;}.cls-4{fill:#fff;}.cls-5{fill:#2c112f;}.cls-6{fill:#2b102e;}.cls-7{fill:#d94d55;}.cls-8{fill:#19191a;}</style></defs><title>matchBack</title><g id="圖層_2" data-name="圖層 2"><g id="圖層_1-2" data-name="圖層 1"><rect class="cls-1" x="172.78" width="24.07" height="475.45" rx="6" ry="6"/><path class="cls-2" d="M357.25,201c-28.49-51.6-79.08-78.5-121.85-84.91,12.2-31,5.39-60.65,2.4-71.53-3.26-11.87-19.54-30.08-26.34-28.5C205.33,17.51,194,98,191.75,114c-6.35.23-12.8.65-19.3,1.28-1.68-12.32-13.57-97.73-19.88-99.2-6.8-1.58-23.08,16.62-26.34,28.5-3.17,11.55-10.66,44.32,4.89,77.29A290.47,290.47,0,0,0,90.21,134C46.32,150.89,5.07,214.74,3.49,245.88S-17.67,361.44,56.63,423.19c0,0,21.42,22.16,51.56,29.55s143.83,13.72,183-8.44,65-43.27,76.68-86S385.8,252.74,357.25,201Z"/><path class="cls-3" d="M349.14,197c-27.3-50.85-75.78-77.36-116.76-83.68,11.69-30.51,5.16-59.77,2.3-70.49-3.12-11.7-18.72-29.64-25.24-28.08-5.87,1.4-16.77,80.71-18.88,96.5-6.09.22-12.27.64-18.49,1.26-1.61-12.14-13-96.31-19.05-97.76-6.52-1.56-22.12,16.38-25.24,28.08-3,11.38-10.22,43.68,4.69,76.17A272.55,272.55,0,0,0,93.26,131c-42.06,16.64-81.58,79.57-83.1,110.25S-10.1,355.13,61.09,416c0,0,20.52,21.84,49.4,29.12s137.82,13.52,175.32-8.32,62.32-42.64,73.47-84.77S376.51,248,349.14,197Z"/><circle class="cls-4" cx="130.21" cy="265.52" r="29.14"/><circle class="cls-5" cx="130.21" cy="265.52" r="18.34"/><circle class="cls-4" cx="238.79" cy="265.52" r="29.14"/><circle class="cls-5" cx="238.79" cy="265.52" r="18.34"/><path class="cls-4" d="M120.42,311.35s-10.34,10.74-4.55,19.89S132.64,346,147.68,348s66.52,4.38,82.71-2.79,25.45-23.08,18.51-33.82-41.07-23.87-63.63-22.68S132,298.62,120.42,311.35Z"/><path class="cls-6" d="M169.39,292s0,10.12,6.49,15.39,16.74,4.84,21.18,0,7.52-17.64,4.79-21.58S168,278.38,169.39,292Z"/><ellipse class="cls-7" cx="243.51" cy="298.32" rx="18.72" ry="9.36"/><ellipse class="cls-7" cx="123.51" cy="301.32" rx="18.72" ry="9.36"/><path class="cls-8" d="M212.81,323.07a1.59,1.59,0,0,0-1.86-.35c-2,.61-14,2.19-16.68.16-3.29-2.45-7-9.24-7.16-14.66,0,0,0-.09,0-.13s0-.1,0-.15,0-.1,0-.15,0-.1,0-.14l-.07-.14-.07-.13-.1-.12-.1-.11-.11-.1-.12-.1-.13-.07-.14-.07-.15,0-.15,0-.16,0-.14,0h-.07l-.14,0-.16,0-.15,0-.15,0-.14.07-.13.07-.12.1-.11.1-.1.11-.1.12-.07.13-.07.14s0,.09,0,.14a1.51,1.51,0,0,0,0,.16c0,.05,0,.1,0,.15s0,.09,0,.13c-.11,5.43-3.88,12.21-7.16,14.66-2.73,2-14.71.45-16.68-.16a1.6,1.6,0,0,0-1.78,2.6C159,326,165,327,170.45,327c3.4,0,6.6-.42,8.21-1.61,2.53-1.88,5.2-5.65,6.85-9.85,1.65,4.2,4.32,8,6.85,9.85,1.6,1.19,4.81,1.61,8.21,1.61,5.48,0,11.47-1.08,12.17-1.72A1.59,1.59,0,0,0,212.81,323.07Z"/></g></g></svg>