<svg xmlns="http://www.w3.org/2000/svg" viewBox="0 0 377.65 475.45"><defs><style>.cls-1{fill:#eb616d;}.cls-2{fill:#ef5c79;}.cls-3{fill:#fbc5cf;}.cls-4{fill:#eef2ef;}</style></defs><title>match01_1</title><g id="圖層_2" data-name="圖層 2"><g id="圖層_1-2" data-name="圖層 1"><rect class="cls-1" x="172.78" width="24.07" height="475.45" rx="6" ry="6"/><path class="cls-2" d="M357.25,201c-28.49-51.6-79.08-78.5-121.85-84.91,12.2-31,5.39-60.65,2.4-71.53-3.26-11.87-19.54-30.08-26.34-28.5C205.33,17.51,194,98,191.75,114c-6.35.23-12.8.65-19.3,1.28-1.68-12.32-13.57-97.73-19.88-99.2-6.8-1.58-23.08,16.62-26.34,28.5-3.17,11.55-10.66,44.32,4.89,77.29A290.47,290.47,0,0,0,90.21,134C46.32,150.89,5.07,214.74,3.49,245.88S-17.67,361.44,56.63,423.19c0,0,21.42,22.16,51.56,29.55s143.83,13.72,183-8.44,65-43.27,76.68-86S385.8,252.74,357.25,201Z"/><path class="cls-3" d="M348.2,197c-27.3-50.85-75.78-77.36-116.76-83.68,11.69-30.51,5.16-59.77,2.3-70.49-3.12-11.7-18.72-29.64-25.24-28.08-5.87,1.4-16.77,80.71-18.88,96.5-6.09.22-12.27.64-18.49,1.26-1.61-12.14-13-96.31-19.05-97.76-6.52-1.56-22.12,16.38-25.24,28.08-3,11.38-10.22,43.68,4.69,76.17A272.55,272.55,0,0,0,92.32,131c-42.06,16.64-81.58,79.57-83.1,110.25S-11,355.13,60.15,416c0,0,20.52,21.84,49.4,29.12s137.82,13.52,175.32-8.32,62.32-42.64,73.47-84.77S375.57,248,348.2,197Z"/><circle class="cls-4" cx="186.82" cy="291.93" r="127.28"/></g></g></svg>