<svg xmlns="http://www.w3.org/2000/svg" viewBox="0 0 267.43 310.66"><defs><style>.cls-1{fill:#ef5c79;}.cls-2{fill:#fbc5cf;}.cls-3{fill:#f0a1c8;}.cls-4{fill:#eb616d;}</style></defs><title>matchItem01</title><g id="圖層_2" data-name="圖層 2"><g id="圖層_1-2" data-name="圖層 1"><path class="cls-1" d="M253,130.1c-20.17-36-56-54.81-86.29-59.29,8.64-21.62,3.81-42.35,1.7-49.94-2.31-8.29-13.84-21-18.65-19.9-4.34,1-12.39,57.19-14,68.37-4.5.16-9.07.46-13.67.89C120.93,61.63,112.51,2,108,1c-4.82-1.11-16.35,11.61-18.65,19.9-2.24,8.06-7.55,30.95,3.46,54a207.89,207.89,0,0,0-29,8.47C32.8,95.1,3.59,139.68,2.47,161.42s-15,80.69,37.63,123.81c0,0,15.17,15.48,36.51,20.63s101.85,9.58,129.56-5.9,46.06-30.21,54.3-60.06S273.2,166.21,253,130.1Z"/><path class="cls-2" d="M247.24,127.32a115.54,115.54,0,0,0-82.68-58.43c8.28-21.3,3.65-41.73,1.63-49.22C164,11.5,152.93-1,148.32.07c-4.16,1-11.88,56.36-13.37,67.38-4.31.16-8.69.45-13.09.88-1.14-8.48-9.21-67.25-13.49-68.26C103.74-1,92.7,11.5,90.49,19.67c-2.15,7.95-7.23,30.5,3.32,53.19A195,195,0,0,0,66,81.2c-29.78,11.62-57.77,55.56-58.84,77s-14.35,79.52,36.06,122c0,0,14.53,15.25,35,20.33s97.6,9.44,124.15-5.81,44.13-29.78,52-59.19S266.62,162.9,247.24,127.32Z"/><ellipse class="cls-3" cx="134.39" cy="186.65" rx="97.69" ry="96.32"/><path class="cls-4" d="M112.78,187.27s-10.42,18.23-13,23.23-7.71,14-8.9,21.81-.87,9.44,0,10.53,3.47,3.36,5.1,3.26,3-2.06,3.58-3.36,1.09-2.82,1.09-2.82a7.79,7.79,0,0,0,2,.9c.51,0,2,.14,2.39-1.16a2,2,0,0,0-.72-2.6,5.41,5.41,0,0,1-1.47-1.1c-.24-.33.14-1.06.54-1.79s2.85-4.53,2.85-4.53.43,0,.54.76a42.93,42.93,0,0,0,3,6.74c.62.83,1.09.87,1.09,1.63s-1.19,20.44-1,22.36-.4,1.37-1.27,1.77a13,13,0,0,0-5.86,6.4c-1.77,4.09,4,4.56,4.41,4.7s12.73.51,14.4,0,5.61-1.85,6.15-5,2-20.31,2-20.31a.81.81,0,0,1,.84-.9c.9,0,11-.11,11-.11a.78.78,0,0,1,.6.68c0,.54,1.54,19.73,1.68,20.39a7.34,7.34,0,0,0,5,4.78c3.65,1.16,15.92.51,15.92.51s3.83-1,3.87-3.08a5.38,5.38,0,0,0-1.38-4.33c-1.19-1.47-5.37-4.21-5.37-4.21a4.19,4.19,0,0,1-.16-1.74c.05-1.28-.79-22.74-.79-22.74s1.19-1.9,1.88-3.27a26.85,26.85,0,0,0,2.06-5.28c0-.8.56-.67.7-.32s3.36,5.24,3.66,5.56.79.65.43,1-2.36,1.76-2.44,2.55c0,0-.38,2.2,1.76,2.25s2.22-.9,2.22-.9.41-.05.54.79,2.31,5.29,3.74,5.56,5.35-1.3,6.1-3.55a19.73,19.73,0,0,0,.24-8.52c-.49-2-5.94-19.7-11.91-28.49a95.65,95.65,0,0,1-9-16.66l-.65-1.36Z"/><path class="cls-4" d="M179.14,120.64a45.39,45.39,0,0,0-7.75-10.28c1.77-1.06,3.8-3.43,2.19-6.14-2.4-4-6.1-4.47-9-2.72a3.53,3.53,0,0,0-1.78,2.09,46.44,46.44,0,0,0-17.19-6.34c-11.77-1.74-27.76.29-39.82,4.94a22.26,22.26,0,0,0-2.06.92,3.86,3.86,0,0,0-1.6-1.61c-2.94-1.74-6.65-1.31-9,2.72-1.44,2.42,0,4.56,1.62,5.75-7.15,7.26-12.45,17.21-12.75,23-.44,8.57-5.81,31.82,14.6,48.83A32.94,32.94,0,0,0,110.69,190c8.28,2,39.53,3.78,50.28-2.33s17.87-11.92,21.07-23.69S187,134.88,179.14,120.64Z"/></g></g></svg>