<svg xmlns="http://www.w3.org/2000/svg" xmlns:xlink="http://www.w3.org/1999/xlink" viewBox="0 0 506.63 500.58"><defs><style>.cls-1{fill:none;}.cls-18,.cls-2{fill:#c5798a;opacity:0.5;}.cls-3{fill:#5d9099;}.cls-4{fill:#95bbcc;}.cls-5{fill:#c6e4d5;}.cls-6{clip-path:url(#clip-path);}.cls-7{fill:#f3d4d1;}.cls-8{fill:#ecded9;}.cls-9{fill:#cfbfa7;}.cls-10{fill:#b97f76;}.cls-11{fill:#e69d93;}.cls-12{fill:#90b4d4;}.cls-13{fill:#e7bdd4;}.cls-14{fill:#4fa28a;}.cls-15{fill:#f8da8d;}.cls-16{fill:#d5ac43;}.cls-17{fill:#373a2f;}.cls-18{isolation:isolate;}.cls-19{fill:#ef889d;}.cls-20{fill:#f3c2c6;}.cls-21{fill:#d48189;}.cls-22{fill:#f0c2d9;}.cls-23{fill:#eb99a0;}.cls-24{fill:#f8d8b8;}.cls-25{fill:#fbdde2;stroke:#eb99a0;stroke-miterlimit:10;stroke-width:3px;}.cls-26{fill:#e2dcd0;}</style><clipPath id="clip-path"><path class="cls-1" d="M471.13,67.39,465.4,301c0,.33-4.39,32.76-26.78,33.17-24.54.44-364.63-3.3-367.85-3.32-.43,0-42.63-4.32-43.12-31.57-.53-29.46.5-246.46.51-248.71,0-.17-.17-16.58,10.38-26.24q7.5-6.83,19.73-7.06a50.85,50.85,0,0,1,6.29.3L432.86,16h.29l.28-.07c.14,0,14.2-3.3,25,5.76C468.17,29.78,472.44,45.14,471.13,67.39Z"/></clipPath></defs><title>matchBoard</title><g id="圖層_2" data-name="圖層 2"><g id="圖層_1-2" data-name="圖層 1"><g id="圖層_2-2" data-name="圖層 2"><g id="圖層_1-2-2" data-name="圖層 1-2"><ellipse class="cls-2" cx="169.12" cy="482.21" rx="44.1" ry="17.97"/><ellipse class="cls-2" cx="356.7" cy="482.61" rx="44.1" ry="17.97"/><path class="cls-3" d="M360,360.35s114.45,2.92,119.42,2.83,9.68-15.1,13.49-79.83,3.48-221.4,3-251.24S450.63,8.05,425.77,8.5s-373,1.73-373,1.73-35-9.32-34,45.38-.24,263.62-.24,263.62S14.08,349.15,44,353.59s109.48,3,109.48,3l2.32,129.28s25.13,14.47,24.68-10.39l-2.14-119.34,159.2,2.11s-2.83,119.42,2.23,124.31,20.16,14.56,20,4.61S360,360.35,360,360.35Z"/><path class="cls-4" d="M356.9,352.58s114.45,2.92,119.42,2.83,9.68-15.1,13.49-79.83,3.48-221.4,3-251.24S447.56.29,422.7.74s-373,1.73-373,1.73-35-9.32-34,45.38-.24,263.62-.24,263.62S11,341.39,40.94,345.82s109.48,3,109.48,3l2.32,129.28s25.13,14.47,24.68-10.39l-2.14-119.34,159.2,2.11s-2.83,119.42,2.23,124.31,20.16,14.56,20,4.61S356.9,352.58,356.9,352.58Z"/><path class="cls-5" d="M439.72,340.14c-24.61.44-364.77-3.29-368.2-3.33-2.12-.19-47.26-4.75-47.83-36.44-.53-29.52.5-246.57.5-248.76,0-.71-.2-18.78,12-30C43.46,15,53.46,12.3,66,13.61L433.59,12c2.36-.51,17.15-3.13,29.07,6.84,11,9.19,15.85,25.94,14.45,49.77L471.37,302.4C471.16,304.13,466.43,339.66,439.72,340.14ZM59.27,18.27c-8.14.15-14.76,2.51-19.73,7.06C29,35,29.16,51.41,29.16,51.57c0,2.24-1,219.24-.51,248.71.49,27.25,42.69,31.53,43.12,31.57,3.23,0,343.31,3.77,367.85,3.32,22.4-.4,26.74-32.84,26.78-33.17l5.73-233.63c1.31-22.26-3-37.62-12.67-45.74-10.82-9.05-24.88-5.8-25-5.76l-.28.07h-.29L65.56,18.57A50.85,50.85,0,0,0,59.27,18.27Z"/><g class="cls-6"><rect class="cls-7" x="2.75" y="11.81" width="501.12" height="340.48" rx="15" ry="15" transform="translate(-3.23 4.58) rotate(-1.03)"/><path class="cls-8" d="M13.83,107.18s62-9.14,93.24-.67,138.59,12.55,147.51,6.37,108.77-29,120.8-29.24S474.93,99.9,474.93,99.9l-.81-45.11s-86.33-5.47-112.5-11-195-24.57-204-26.41S16.4,26.92,16.4,26.92Z"/><path class="cls-8" d="M475.87,152s-47.58,31-57.62,30.13S231.31,213.56,219.3,214.78,87.73,202.11,78.69,201.27,29.18,180.1,29.18,180.1l.54,30.07s134.5,7.61,143.7,17.47,205.58.36,217.7,7.12,88.31,4.43,88.31,4.43Z"/><path class="cls-9" d="M26.66,263.37,148.92,274.2s39.61,9.32,61.7,18.94,113.77-10.07,113.77-10.07,150.21,21.37,150.28,25.37S424,311.37,424,311.37L29.66,318.46Z"/><path class="cls-10" d="M252,160.69s4.75-.09,6.3-1.72,10.19-5.82,8.81,5.48-12.29,21.17-15.46,21.22S232.33,169.9,233.83,165s4.61-8.14,9.38-6.61S248,161.57,252,160.69Z"/><path class="cls-11" d="M251.93,158.68s4.75-.09,6.3-1.72,10.19-5.82,8.81,5.48-12.29,21.17-15.46,21.22S232.3,167.9,233.79,163s4.61-8.14,9.38-6.61S248,159.56,251.93,158.68Z"/><path class="cls-12" d="M273.36,143.27s10.07-8.13,10-10.4-.12-6.81-5.82-7.84-7.78,9.22-7.74,11.49S268.82,143.35,273.36,143.27Z"/><path class="cls-13" d="M303,151.82s-2.13,8,3.57,9,7.86-4.68,11.27-4.74,4.46-4.62,1-8S307.42,143.79,303,151.82Z"/><path class="cls-14" d="M308.12,182.37s.06,3.4,2.35,4.5,12.5.91,13.58-2.51-1.26-6.79-4.68-7.86S308,176.7,308.12,182.37Z"/><path class="cls-15" d="M342.12,179.49s1.22,4.52,4.64,5.59,4.62,4.46,5.82,7.84,13.68,3.16,14.73-1.4-2.43-9-8.17-12.34S343.11,171.53,342.12,179.49Z"/><path class="cls-10" d="M376.29,148.31s.14,7.94,3.59,10.15,4.64,5.59,8,3.26,2.11-9.12-1.36-12.46S378.46,142.59,376.29,148.31Z"/><path class="cls-11" d="M376.27,147.31s.14,7.94,3.59,10.15,4.64,5.59,8,3.26,2.11-9.12-1.36-12.46S378.44,141.59,376.27,147.31Z"/><path class="cls-12" d="M345.25,101.12c1,.49,19.35,3.06,20.34-4.91s-1.38-13.6-4.8-14.67-8-1-9,4.7-5.59,4.64-6.69,6.93S340.67,98.93,345.25,101.12Z"/><path class="cls-13" d="M356.94,56.64c.82.79,9.1,1,11.31-2.47s2.15-6.85-2.41-7.9-9,3.57-10.11,5.86S355.78,55.53,356.94,56.64Z"/><path class="cls-15" d="M288.07,77.17a8.06,8.06,0,0,0,4.66,6.73c4.58,2.19,12.54,3.18,15.89-.29s2.15-6.85-.14-7.94-9.06,1.3-11.37-.93S288,71.5,288.07,77.17Z"/><path class="cls-15" d="M419.29,261.63s-5.78,2.88-6.65,8.39,1.23,13.33,7.09,14.22,9.69-2.29,10.12-5-5.5-7.41-3.62-10.88S426.52,258,419.29,261.63Z"/><path class="cls-14" d="M455.7,285.56a23.19,23.19,0,0,0,5.78,5.57c3.44,2.21,10.27,3.22,11.29-3.61s-1.28-7.92-5.84-9S454.46,279.9,455.7,285.56Z"/><path class="cls-14" d="M406.3,103a23.19,23.19,0,0,0,5.78,5.57c3.44,2.21,10.27,3.22,11.29-3.61s-1.28-7.92-5.84-9S405.06,97.3,406.3,103Z"/><path class="cls-15" d="M462.23,206.63s.1,5.67,4.64,5.59,12.34-8.17,11.12-12.69-8.07-6.67-11.41-3.2S459.9,203.26,462.23,206.63Z"/><path class="cls-13" d="M243.09,100.68s2.35,4.5,5.76,4.44,3.44,2.21,6.87,3.28,7.9-2.41,5.51-9.18S249.76,92.62,246.4,95A7.33,7.33,0,0,0,243.09,100.68Z"/><path class="cls-12" d="M284.39,49.49s-2.15,6.85,3.53,6.75,11.18-9.28,10-12.67S294.4,38,291,39.15,288.87,46,284.39,49.49Z"/><path class="cls-12" d="M72.48,141.53s-2.15,6.85,3.53,6.75S87.19,139,86,135.61s-3.51-5.61-6.89-4.42S77,138,72.48,141.53Z"/><path class="cls-11" d="M397.82,234.59s-2.13,8,4.68,7.86,10.21-.18,13.6-1.38,6.71-5.8,4.38-9.16-11.45-5.47-16-3.12A18.9,18.9,0,0,0,397.82,234.59Z"/><path class="cls-10" d="M103.84,167.68s-2.13,8,4.68,7.86,10.21-.18,13.6-1.38,6.71-5.8,4.38-9.16-11.45-5.47-15.95-3.12A18.9,18.9,0,0,0,103.84,167.68Z"/><path class="cls-11" d="M103.82,166.68s-2.13,8,4.68,7.86,10.21-.18,13.6-1.38,6.71-5.8,4.38-9.16-11.45-5.47-15.95-3.12A18.9,18.9,0,0,0,103.82,166.68Z"/><path class="cls-15" d="M161.31,97.61s-2.23,2.31.14,7.94,4.66,6.73,10.21-.18,8.89-10.38,6.56-13.74S166.86,90.7,161.31,97.61Z"/><path class="cls-14" d="M179,137s-1.05,4.56,3.51,5.61S195,140.14,196,134.45s-3.53-6.75-6.91-5.55a55.33,55.33,0,0,0-7.88,3.55C179,133.62,179,137,179,137Z"/><path class="cls-15" d="M216.63,144.29s1.24,5.65,4.62,4.46,10.11-5.86,8.87-11.51-8-2.13-9.08.16S215.43,140.91,216.63,144.29Z"/><path class="cls-13" d="M453.53,135.12s-1,4.56,1.26,6.79,5.69,1,10.11-5.86,9-7,8.85-12.64-1.28-7.92-5.82-7.84-10.11,5.86-11.18,9.28S454.63,132.83,453.53,135.12Z"/><path class="cls-13" d="M404.68,206.18s-1,4.56,1.26,6.79,5.69,1,10.11-5.86,9-7,8.85-12.64-1.28-7.92-5.82-7.84-10.11,5.86-11.18,9.28S405.77,203.89,404.68,206.18Z"/><path class="cls-14" d="M66.79,181.25a23.19,23.19,0,0,0,5.78,5.57C76,189,82.84,190,83.85,183.21s-1.28-7.92-5.84-9S65.56,175.59,66.79,181.25Z"/><path class="cls-13" d="M63.7,258.43s-1,4.57,1.3,6.79,5.69,1,10.11-5.86,9-7,8.85-12.64-1.28-7.92-5.82-7.84S68,244.74,66.92,248.16,64.8,256.14,63.7,258.43Z"/><path class="cls-11" d="M120.58,105.15s.1,5.67,4.62,4.46,5.57-5.78,4.4-8S120.5,100.62,120.58,105.15Z"/><path class="cls-11" d="M127,149.31s-2.15,6.85-1,9.1,6.91,5.55,10.21-.18,2.17-5.71,4.4-8,1-8-4.68-7.86S127,149.31,127,149.31Z"/><path class="cls-13" d="M168.32,172.4s-3.32,4.6.12,6.81,11.33-1.34,13.51-5.92,2.13-8-2.43-9S168.32,172.4,168.32,172.4Z"/><path class="cls-15" d="M148.2,271.39s-3.42-1.07-5.61,3.51-2.11,9.12,3.57,9,8,5.53,11.41,3.2S153.89,272.42,148.2,271.39Z"/><path class="cls-13" d="M215.18,253.28S210.74,259,212,263.56s7,7.82,9.2,6.65,6.62-10.33,4.29-13.7S217.41,251,215.18,253.28Z"/><path class="cls-14" d="M241.1,242.6s-1,8,3.53,6.75,12.38-5.9,11.14-11.55-4.64-5.59-9.12-2.11S241.1,242.6,241.1,242.6Z"/><path class="cls-14" d="M134.43,244.52s-5.53,8-7.74,11.49-3.28,6.87,2.41,7.9,14.69-3.67,15.7-10.5S145.68,238.64,134.43,244.52Z"/><path class="cls-14" d="M60.94,60.34s-5.53,8-7.74,11.49-3.28,6.87,2.41,7.9,14.69-3.67,15.7-10.5S72.18,54.47,60.94,60.34Z"/><path class="cls-16" d="M123.55,207.26s.12,6.81,7,7.82a22.23,22.23,0,0,0,15.82-3.69c3.36-2.33-.18-10.21-3.61-11.29s-11.33,1.34-15.82,3.69S123.55,207.26,123.55,207.26Z"/><path class="cls-15" d="M123.53,206.25s.12,6.81,7,7.82a22.23,22.23,0,0,0,15.82-3.69c3.36-2.33-.18-10.21-3.61-11.29s-11.33,1.34-15.82,3.69S123.53,206.25,123.53,206.25Z"/><path class="cls-14" d="M319.58,125.42s6.85,2.15,7.9-2.41-3.53-6.75-8.07-6.67-5.61,3.51-4.44,5.76S313.91,125.52,319.58,125.42Z"/><path class="cls-12" d="M341.72,220.36s-3.32,4.6.14,7.94.08,4.54,2.39,6.77,14.69-3.67,14.61-8.21-5.8-6.71-9.22-7.78S341.72,220.36,341.72,220.36Z"/><path class="cls-13" d="M285,288.35s0,2.27,3.47,3.34,11.31-2.47,11.27-4.74-1.24-5.65-4.64-5.59S285,285,285,288.35Z"/><path class="cls-14" d="M347,272.65s2,6.32,7.45,3,8.77-7.2,7.11-9.94-5.8-4.93-8.28-4.37-1.35,5.51-3,7.45S346.69,269.07,347,272.65Z"/><path class="cls-12" d="M235.14,290.38s5.8,6.71,9.2,6.65,11.27-4.74,10-10.4-6.85-2.15-8-2.13-3.47-3.34-6.87-3.28S231.68,287,235.14,290.38Z"/><path class="cls-12" d="M276.47,246.52s5.8,6.71,9.2,6.65,11.27-4.74,10-10.4-6.85-2.15-8-2.13-3.47-3.34-6.87-3.28S273,243.18,276.47,246.52Z"/><path class="cls-11" d="M173.93,294.89a26.25,26.25,0,0,0,8.07,6.67c4.58,2.19,11.37.93,10.15-3.59s-10.38-8.89-12.64-8.85S171.56,289.25,173.93,294.89Z"/><path class="cls-17" d="M290.92,238.56s-5.37-1.07-7.19-.46-2.81,1.64-2.78,3.64,9.27,13.87,14.27,12.78,5.94-4.12,5.94-4.12Z"/><path class="cls-17" d="M347.84,260.35a11.3,11.3,0,0,0-1.44,6.86c.27,4.44,1.4,4.55,3.84,4.44s15.24-6.1,14.18-13.23a9.42,9.42,0,0,0-2.16-4.91Z"/></g><ellipse class="cls-18" cx="243.1" cy="302.82" rx="28.87" ry="161.83" transform="translate(-62.84 541.99) rotate(-89.26)"/><path class="cls-19" d="M94.55,297.24s54.43,20.49,69.09,21.34S258.09,321.13,277,320s73.19-3.28,79.89-6.31,28.33-7.42,32.62-12.7,2.16-12.42,2.17-13.09-.82-5.35-1.26-5.35a42,42,0,0,1-4-1.39s.94-4-1-4.46-5.32-1.18-5.32-1.18S379.9,270,377.9,270s-12.24.73-12.24.73-.15-5.78-2.58-7.15-12.66-1-12.66-1a3.87,3.87,0,0,0-3.06-4.26c-3.55-.94-19.11-.91-19.11-.91s1-7.32-1.44-8.91-23.52-3.19-23.52-3.19l-128.87-1.66-29.28,7.85-5.4,4.82s-8.89-.11-11.35,1-2.06,4.86-2.06,4.86-8.24,1.23-10,2.09-2.08,5.75-2.08,5.75-6.9.36-8.91,1.22-6.25,2.14-6.06,4.37c0,0-4-.94-4.46,1a25.42,25.42,0,0,0-.08,6s-1.12.65-1.83,3.76S92.56,296.55,94.55,297.24Z"/><path class="cls-20" d="M173.51,173.32c0,.89,1,72.49,1,76.93s37.94,5.16,44.5,4.58,63.47-1.54,77.39-5.67c6.46-1.92,6.82-3.91,6.82-3.91l-.56-75.37-129.1.78Z"/><path class="cls-21" d="M174.59,176.22s19.07,3.58,25.52,3.89,49.11,2,60.68.78,30.28-3.17,32.29-4.47,6.48-6.53,6.48-6.53h3.16l-.1,8.11a9.7,9.7,0,0,1-3.6,3.4c-2.24,1.08-4,1.28-7.12.58s-4.86-2.29-5.76-1.63a66.38,66.38,0,0,1-5.17,4.38c-2,1.31-4.69,1.94-6.46,1s-2.4-3.37-4.19-2.5-.93,3.32-4.5,4.39-9.36,1.44-12.23-.16-5.82,3.26-9.81,2.54-7.51-3.65-8.62-3.89-2.93,2.85-4.94,3.72-9.58,1.88-11.11-.14-3.72-4.94-5.06-4.07-1.37,2.87-4.27,3.28a8.19,8.19,0,0,1-6.86-2.53c-1.09-1.35-1.76-1.8-3.55-.49s-5.82,3.26-8.69,1.67-2.19-2.7-3.29-3.6-1.79.87-4,1.06-5.31-2.07-7.06-3.87S173.7,176,174.59,176.22Z"/><path class="cls-21" d="M174.85,188.26c-.07-.35-.61-.21-.54.14l.72,3.71c.07.35.61.21.54-.14Z"/><path class="cls-21" d="M299.66,190.82c.34-.11.2-.65-.14-.54q-4.4,1.38-8.87,2.54a.28.28,0,0,0,0-.08,5.28,5.28,0,0,0-.47-3.63A.25.25,0,0,0,290,189q2.23-.45,4.46-1h0l.91,3.15c.1.34.64.2.54-.14l-.91-3.14q2.24-.53,4.47-1.13a.28.28,0,0,0-.14-.54c-15.55,4.2-31.64,5.67-47.68,6.61-8.09.48-16.2,1-24.31,1.06a165.63,165.63,0,0,1-24.8-2.17c-9.28-1.38-18.55-2.82-27.83-4.24-.35-.05-.51.48-.15.53l6.18.94a.31.31,0,0,0,0,.06,16.65,16.65,0,0,0,.11,4.54h0q-2.35-.55-4.66-1.29a.28.28,0,0,0-.15.53,61.92,61.92,0,0,0,11.69,2.52,105.33,105.33,0,0,0,12.67.39,96.93,96.93,0,0,1,12.71.71c4.13.52,8.24,1.18,12.39,1.64a181.66,181.66,0,0,0,47.61-1A181.43,181.43,0,0,0,299.66,190.82Zm-118.32,2.87a.28.28,0,0,0,.12-.28,16.11,16.11,0,0,1-.09-4.38l9,1.38a.29.29,0,0,0-.13.21l-.55,4.14a.22.22,0,0,0,.14.25A59.86,59.86,0,0,1,181.34,193.69Zm47.35,4.17c-8.16-.75-16.24-2.48-24.45-2.65-4.7-.09-9.41.17-14.1-.19H190a.3.3,0,0,0,.26-.26l.55-4.14a.24.24,0,0,0,0-.15l2.93.45a.28.28,0,0,0-.09.18l-.38,3.55a.28.28,0,0,0,.56,0l.38-3.55a.26.26,0,0,0,0-.12l3,.46L197,194.7a.28.28,0,0,0,.56,0l.22-3.18,1.9.29c2.38.36,4.77.72,7.16,1v1.81a.28.28,0,0,0,.56,0v-1.75l4.2.53a.3.3,0,0,0,0,.08l-.18,1.48a.28.28,0,0,0,.56,0l.18-1.48h0c4,.45,8,.78,12,.87h6.22a.29.29,0,0,0-.27.31v0a25.5,25.5,0,0,1,.37,2.75c0,.35.58.36.56,0a26.88,26.88,0,0,0-.39-2.9.23.23,0,0,0-.26-.2h0c6.21-.11,12.42-.53,18.61-.88q4.33-.24,8.67-.53a.29.29,0,0,0-.25.26,14.62,14.62,0,0,0,.23,4.67c.07.35.61.21.54-.14a14.15,14.15,0,0,1-.21-4.52.23.23,0,0,0-.19-.27h-.05q5.17-.36,10.33-.84a.27.27,0,0,0-.1.2l-.23,4.15a.28.28,0,0,0,.56,0l.23-4.15a.24.24,0,0,0-.13-.24c1.61-.16,3.23-.32,4.84-.51h.22a.26.26,0,0,0-.17.24,20,20,0,0,0,.23,3.79c0,.35.59.21.54-.14a19.19,19.19,0,0,1-.21-3.64.25.25,0,0,0-.23-.27h0c5.45-.64,10.88-1.46,16.26-2.54a.27.27,0,0,0-.07.34,4.66,4.66,0,0,1,.42,3.2.28.28,0,0,0,.16.32q-2.48.64-5,1.2h0l-.33-3.7c0-.35-.59-.36-.56,0l.33,3.7a.29.29,0,0,0,.07.16,181.26,181.26,0,0,1-32.47,4.26A180.72,180.72,0,0,1,228.69,197.86Z"/><path class="cls-21" d="M277.83,191.3V195a.28.28,0,0,0,.56,0v-3.7a.28.28,0,0,0-.56,0Z"/><path class="cls-21" d="M262.36,193l.29,3.85c0,.35.58.36.56,0l-.29-3.85C262.89,192.69,262.33,192.68,262.36,193Z"/><path class="cls-21" d="M251.86,193.78l-.05,4.15a.28.28,0,0,0,.56,0l.05-4.15a.28.28,0,0,0-.56,0Z"/><path class="cls-21" d="M235.1,194.6v3a.28.28,0,0,0,.56,0v-3a.28.28,0,0,0-.56,0Z"/><path class="cls-21" d="M225.61,195.08v1.63a.28.28,0,0,0,.56,0v-1.63a.28.28,0,0,0-.56,0Z"/><path class="cls-21" d="M221.18,194.72l-.21,1.92a.28.28,0,0,0,.56,0l.21-1.92C221.78,194.38,221.22,194.37,221.18,194.72Z"/><path class="cls-21" d="M216.13,194.36v1.48a.28.28,0,0,0,.56,0v-1.48a.28.28,0,0,0-.56,0Z"/><path class="cls-21" d="M201.92,192.84v1.93a.28.28,0,0,0,.56,0v-1.93a.28.28,0,0,0-.56,0Z"/><path class="cls-21" d="M185.51,190.11l-.05,4a.28.28,0,0,0,.56,0l.05-4a.28.28,0,0,0-.56,0Z"/><path class="cls-21" d="M177.82,192.17l-.69-3.27c-.07-.35-.61-.21-.54.14l.69,3.27C177.36,192.66,177.9,192.52,177.82,192.17Z"/><path class="cls-21" d="M301,190.12a24.19,24.19,0,0,1,0-3.86.28.28,0,0,0-.56,0,24.18,24.18,0,0,0,0,3.86C300.51,190.47,301.07,190.48,301,190.12Z"/><path class="cls-21" d="M270.3,207.71a.25.25,0,0,0,0-.43c1.15-.36.44-2.43.06-3.19a2.66,2.66,0,0,0-3.52-1.33l-.14.07c-1.53.68-1.54,2.4-.7,3.7A3.42,3.42,0,0,0,270.3,207.71Zm-3.56-4.27a2.13,2.13,0,0,1,2.92.52c.2.28,1.3,2.75.4,2.81a.3.3,0,0,0-.18.51,2.87,2.87,0,0,1-3.07-.65C266,205.82,265.57,204.13,266.74,203.44Z"/><path class="cls-21" d="M269.7,215.66a.23.23,0,0,0,.23.13,2.67,2.67,0,0,0,2.64-2.7s0-.09,0-.14a2.79,2.79,0,0,0-3.16-2.36l-.18,0c-1.46.16-2.75.83-2.46,2.49A2.92,2.92,0,0,0,269.7,215.66Zm-.1-4.51c2.69-.07,3.18,3.47.84,4a.25.25,0,0,0-.3-.13,2.27,2.27,0,0,1-2.75-1.66l0-.09c-.42-1.55,1-2.09,2.23-2.12Z"/><path class="cls-21" d="M270.81,223.34a.24.24,0,0,0,.29.17l.09,0a2.27,2.27,0,0,0,.47-3.18l0-.05a3.69,3.69,0,0,0-3.87-1.22c-1.38.55-1.11,2.41-.49,3.44C268,223.74,269.54,223.62,270.81,223.34ZM268,219.55a3.16,3.16,0,0,1,2.87.67,1.83,1.83,0,0,1,.3,2.57.26.26,0,0,0-.23,0,3.56,3.56,0,0,1-2.71,0C267.36,222.14,266.76,220,268,219.55Z"/><path class="cls-21" d="M281,206a.22.22,0,0,0,.19-.14,2.45,2.45,0,0,0,1.11-3,3,3,0,0,0-.87-1.7c-.65-.47-1.48-.11-2.16.09s-1.27.25-1.57.78a2.59,2.59,0,0,0,.08,1.87A2.91,2.91,0,0,0,281,206Zm-2.69-2.24a2.41,2.41,0,0,1-.19-1.21c.16-.56.66-.58,1.13-.72a5,5,0,0,1,1.07-.3c1,0,1.2.6,1.4,1.33.27,1,.2,2.3-1,2.57a.27.27,0,0,0-.11.05,2.38,2.38,0,0,1-2.3-1.76Z"/><path class="cls-21" d="M282.45,214.39a.26.26,0,0,0,.19-.31,2.32,2.32,0,0,0,1.7-2.43,2.94,2.94,0,0,0-3.14-2.35,1.77,1.77,0,0,0-1.49.54,3.35,3.35,0,0,0-.09,2.18C279.83,213.41,280.89,214.81,282.45,214.39Zm-2.26-4c.18-.4.23-.4.66-.47a3.13,3.13,0,0,1,.77,0,2.26,2.26,0,0,1,2.2,2c0,1.19-1.15,1.64-2.09,1.95h-.08c-.88-.17-1.38-1.22-1.5-2.11a2.7,2.7,0,0,1,0-1.41Z"/><path class="cls-21" d="M281.86,221.29h1.79a.27.27,0,0,0,.27-.32,2.45,2.45,0,0,0,1.19-2.85,2.32,2.32,0,0,0-2.85-1.37,2.75,2.75,0,0,0-1.86,3,1.86,1.86,0,0,0,.7,1.42A1.64,1.64,0,0,0,281.86,221.29Zm-.88-1.36a2.26,2.26,0,0,1,1.15-2.53,1.78,1.78,0,0,1,2.39.78l.06.13c.43,1.07-.46,2-1.35,2.43h-1c-.69,0-1.1-.12-1.23-.82Z"/><path class="cls-21" d="M283.57,228a2.26,2.26,0,0,0,2.14-2.38q0-.1,0-.19a2.66,2.66,0,0,0-.56-1.64,2,2,0,0,0-1.68-.41,2.32,2.32,0,0,0-2.28,2.28,2.24,2.24,0,0,0,2.15,2.15A.25.25,0,0,0,283.57,228Zm-.22-4a2.61,2.61,0,0,1,1.07,0c.55.19.69,1,.72,1.44a1.76,1.76,0,0,1-1.34,2,.24.24,0,0,0-.25-.16,1.66,1.66,0,0,1-.2-3.28Z"/><path class="cls-21" d="M270.15,225c-3.41.12-2.13,5.59.43,4.31.32-.16,0-.64-.27-.48-1.34.67-1.91-1.31-1.65-2.26s1.65-1.17,2.53-.83a1.64,1.64,0,0,1,1.06,2.27,4.53,4.53,0,0,1-1.76,1.6c-.3.19,0,.67.27.48,1.08-.68,2.46-1.69,2.2-3.16A2.71,2.71,0,0,0,270.15,225Z"/><path class="cls-21" d="M255.41,208.53a.29.29,0,0,0,.31.16,1.59,1.59,0,0,0,.9-2.55,3.57,3.57,0,0,0-3.82-1.41C250.34,205.61,252.94,210.36,255.41,208.53Zm-2-3.35a3.12,3.12,0,0,1,2,.6c.72.51,1.61,2.17.09,2.38h-.05a.23.23,0,0,0-.27-.18l-.1,0c-2,1.56-3.88-2.57-1.65-2.85Z"/><path class="cls-21" d="M256.29,216.09a.28.28,0,0,0,0-.56,3.53,3.53,0,0,1-2.3-.68c-.82-.61-1.83-2.07-.49-2.73a1.83,1.83,0,0,1,2.49.37,3.93,3.93,0,0,1,.84,2.79c-.07.35.47.51.53.15a4.61,4.61,0,0,0-1.24-3.72c-.77-.81-2.33-.49-3.18.06-1,.66-.69,1.94-.06,2.76A4,4,0,0,0,256.29,216.09Z"/><path class="cls-21" d="M256.54,223.84h.12c1.33-.27,1.88-1.3,1.41-2.74s-1.58-2.76-3.14-2.31-1.54,2.25-1.38,3.5C253.77,223.88,255.14,224,256.54,223.84Zm-2-4.28c1.92-1.73,5,3.54,1.61,3.74a.28.28,0,0,0-.14,0c-1,.09-1.86-.1-2-1.36a3.37,3.37,0,0,1,.57-2.37Z"/><path class="cls-21" d="M256.09,226.72a2.22,2.22,0,0,0-2.23,2.47c.17,1.63,1.65,2.41,3.12,2.6,1.18.8,2.06-.68,1.9-1.73C258.66,228.65,257.69,226.82,256.09,226.72Zm1.22,4.63a.27.27,0,0,0-.15-.08h-.09a3,3,0,0,1-2.41-1.33,1.8,1.8,0,0,1,.58-2.46c1-.58,2,.25,2.5,1.09a4.94,4.94,0,0,1,.5,1.22c.15.52,0,2.16-.93,1.55Z"/><path class="cls-21" d="M290.81,204c.34-.1.2-.64-.14-.54a1.65,1.65,0,0,1-1.27-3,1.85,1.85,0,0,1,2.28.34c.62.61,1.1,2.53-.38,2.42a.28.28,0,0,0,0,.56c1.37.1,1.8-1.4,1.37-2.48a2.56,2.56,0,0,0-3-1.55,2.39,2.39,0,0,0-1.61,2.77A2.26,2.26,0,0,0,290.81,204Z"/><path class="cls-21" d="M292.86,212.39h0a2,2,0,0,0,1.36-2.48l0-.12a3.46,3.46,0,0,0-3.75-2C287.51,208.14,289.79,214.41,292.86,212.39Zm-2.07-4.09a3.24,3.24,0,0,1,2.49.92c.82.93.6,2.68-.9,2.64a.26.26,0,0,0-.27.29c-2.28.85-3.34-3.79-1.33-3.84Z"/><path class="cls-21" d="M293.12,219.61a.27.27,0,0,0,.25.07,1.81,1.81,0,0,0,1.07-2.6c-.46-1-1.56-2.36-2.79-1.82a2.31,2.31,0,0,0,1.47,4.36Zm-1.6-3.63a1,1,0,0,1,1.41,0l0,0a4,4,0,0,1,.79.91c.42.66.53,1.78-.29,2.12a.24.24,0,0,0-.25-.05,1.77,1.77,0,0,1-1.68-3Z"/><path class="cls-21" d="M292.87,227.67a2.8,2.8,0,0,0,2.22-2.94,2.38,2.38,0,0,0-2.71-2h0a2.15,2.15,0,0,0-1.54,2.62h0a2.82,2.82,0,0,0,2.23,1.69l-.35.11a.28.28,0,0,0,.15.51Zm-1.56-2.92a1.54,1.54,0,0,1,1.55-1.53H293a1.86,1.86,0,0,1,1.53,2.14h0a2,2,0,0,1-.51,1,.27.27,0,0,0-.2,0,2.06,2.06,0,0,1-2.49-1.52Z"/><path class="cls-21" d="M294,235.6a.26.26,0,0,0,.15-.41c.8-.48.84-2,.54-2.74a2.39,2.39,0,0,0-3-1.43,2.19,2.19,0,0,0-1.3,2.81l0,.11A3.06,3.06,0,0,0,294,235.6Zm-2.46-3.92a1.82,1.82,0,0,1,2.3.38,2.13,2.13,0,0,1,.47,1.13c.06.51,0,1.63-.81,1.59a.26.26,0,0,0-.26.33,2.5,2.5,0,0,1-2-.8,1.76,1.76,0,0,1,.16-2.48l.18-.14Z"/><path class="cls-21" d="M293.19,239.29a1.67,1.67,0,0,0-1.66,2.19c.3,1.1,1.1,2.42,2.35,2.46a.25.25,0,0,0,.21-.09h.09a2.36,2.36,0,0,0-1-4.56Zm.72,4h-.07c-.84-.06-1.32-.92-1.62-1.62a1.25,1.25,0,0,1,0-1.45,1.38,1.38,0,0,1,1.44-.4,1.8,1.8,0,0,1,.25,3.52Z"/><path class="cls-21" d="M285.31,230.09a2.84,2.84,0,0,0-3.22,1.76,2.3,2.3,0,0,0,1.61,2.8.25.25,0,0,0,.32-.15v0c1.18.42,2.43.26,2.73-1.19C287,232.2,286.59,230.23,285.31,230.09Zm.33,3.95c-.53.3-1.14,0-1.64-.19a.23.23,0,0,0-.33.19,1.72,1.72,0,0,1-1.08-1.93,2.08,2.08,0,0,1,2.19-1.47c1-.05,1.49,1.26,1.46,2.16a1.43,1.43,0,0,1-.6,1.2Z"/><path class="cls-21" d="M298.88,201.8c1.14,0,1.19-1.31.74-2.09s-1.45-1.84-2.51-1.59a1.51,1.51,0,0,0-1,1.91l0,.09a2.46,2.46,0,0,0,2.44,1.35.25.25,0,0,0,.16.32Zm-1.8-1.32a1.16,1.16,0,0,1-.24-1.57c.52-.62,1.36,0,1.78.39a3.6,3.6,0,0,1,.52.68c.19.32.45,1.13-.14,1.25a.26.26,0,0,0-.24-.28h0a2.44,2.44,0,0,1-1.67-.47Z"/><path class="cls-21" d="M299.46,211.39a.29.29,0,0,0,.55,0c.37-1.12.15-5.62-2.08-4.24a1.89,1.89,0,0,0-.58,2.42C297.68,210.42,298.42,211.63,299.46,211.39ZM297.87,208a.75.75,0,0,1,1.3-.19,2.77,2.77,0,0,1,.39,1.34,4.86,4.86,0,0,1,0,1.66.25.25,0,0,0-.19,0c-.81.23-1.47-1.14-1.62-1.71A1.32,1.32,0,0,1,297.87,208Z"/><path class="cls-21" d="M299,220a.26.26,0,0,0,.23,0,2.68,2.68,0,0,0,1.19-3c-.12-.92-.33-2.55-1.53-2.73s-1.5,1.13-1.43,2a6.26,6.26,0,0,0,1.25,3.61A.23.23,0,0,0,299,220Zm-.94-4.57,1.53.27.08.3a4.46,4.46,0,0,1,.2,1,2.21,2.21,0,0,1-.81,2.41,4.42,4.42,0,0,1-.8-1.75c-.12-.35-.51-1.94-.21-2.21Z"/><path class="cls-21" d="M299.53,227.78a.29.29,0,0,0,.38,0,3.13,3.13,0,0,0,1-2.86c-.08-.81-.14-2.31-1.22-2.37-2.49-.15-1.18,4.38-.66,5.47C299.18,228.34,299.64,228.09,299.53,227.78Zm-.5-4.29,1.09.17.12.53a6.06,6.06,0,0,1,.15,1.17,2.46,2.46,0,0,1-.87,2,.24.24,0,0,0-.09.15,7,7,0,0,1-.55-1.85c-.07-.4-.29-1.88.12-2.17Z"/><path class="cls-21" d="M300.48,230.62a1.17,1.17,0,0,0-1.85.66,5.09,5.09,0,0,0,.68,3.76.26.26,0,0,0,.35.11l.06,0C302.07,235.51,301.72,231.67,300.48,230.62Zm-.76,3.93h0a5.54,5.54,0,0,1-.48-1.3,4.75,4.75,0,0,1-.13-1.06v-.28q-.1-.95.71-.63c.62,0,.53,0,.73.44a5.67,5.67,0,0,1,.35,1c.1.7,0,2.1-1.18,1.83Z"/><path class="cls-21" d="M299.41,239c-1.15-.16-1.22,1.09-1.15,1.92s.21,2.44,1.18,2.68a.3.3,0,0,0,.48.21A3.15,3.15,0,0,0,301,241,2.17,2.17,0,0,0,299.41,239Zm.41,4.12a.27.27,0,0,0-.16-.06c-.67,0-.82-1.85-.85-2.29s-.18-1.33.68-1.19a1.29,1.29,0,0,1,.75.68,2.56,2.56,0,0,1-.41,2.86Z"/><path class="cls-21" d="M237,206.69a2.85,2.85,0,0,0,2.22,3.28.28.28,0,0,0,.36.15l.09-.05c1.25-1.17,3.53-4.81.8-5.71-.27-.09-.42.23-.3.42A2.52,2.52,0,0,0,237,206.5Q237,206.59,237,206.69Zm3.25-1.3c.26.1.41-.19.31-.39,1.64.83-.14,3.46-1.08,4.47h-.06a2.33,2.33,0,0,1-1.91-2.41,2,2,0,0,1,2.71-1.66Z"/><path class="cls-21" d="M240.39,215c-.31-.17-.6.3-.29.48a2.16,2.16,0,0,1,1.16,1.89c0,1.35-1.29,1.39-2.23.92a2.2,2.2,0,0,1-1.3-1.78c0-1,.88-2,1.93-1.46.31.17.6-.3.29-.48a1.84,1.84,0,0,0-2.67,1.15,2.63,2.63,0,0,0,1.47,3c1,.49,2.44.67,2.92-.55A2.66,2.66,0,0,0,240.39,215Z"/><path class="cls-21" d="M239.94,227.34a2.49,2.49,0,0,0,1.09-2.56c-.07-.78-.74-1.55-1.56-1.09a.28.28,0,0,0,.27.48c.78-.44.75.93.71,1.28-.06.6-.31,1.43-1.05,1.43-1.27,0-1.21-2.36-.28-2.79.32-.15,0-.63-.27-.48a2.5,2.5,0,0,0-.9,2.61,1.51,1.51,0,0,0,1.78,1.18Z"/><path class="cls-21" d="M239.07,231.14a3.65,3.65,0,0,0-.62,2.91,1.12,1.12,0,0,0,1.66.79c.84-.51.84-1.8.93-2.66s-.22-1.68-1.17-1.54c-.35.05-.21.59.14.54.75-.11.43,1.4.39,1.67a6.24,6.24,0,0,1-.12.75c-.09.34-.45,1.39-1.16.58s0-2.14.43-2.77C239.74,231.12,239.26,230.84,239.07,231.14Z"/><path class="cls-21" d="M239,238.14c-.32.16,0,.65.27.48.64-.33,1.22.34,1.25.94a2.84,2.84,0,0,1-.53,1.62c-.56.82-1.42.38-1.5-.48a2,2,0,0,1,.63-1.58c.26-.25-.13-.64-.39-.4a2.43,2.43,0,0,0-.65,2.65,1.3,1.3,0,0,0,2.1.45,3,3,0,0,0,.74-2.93,1.43,1.43,0,0,0-1.87-.77Z"/><path class="cls-21" d="M226.61,209.62c2-.24,2.25-2.5,1.71-4.12a3.15,3.15,0,0,0-3.42-2,.25.25,0,0,0-.28-.1,3.38,3.38,0,0,0-2.16,4C222.84,209.3,224.84,209.84,226.61,209.62ZM223,207.35a3,3,0,0,1,1.3-3.28.24.24,0,0,0,.23,0,2.65,2.65,0,0,1,3.08,1.22,3.78,3.78,0,0,1,.3,1.93c-.05,1.13-.53,1.81-1.73,1.85S223.4,208.83,223,207.35Z"/><path class="cls-21" d="M226,217.94c2-.62,2-5.34-.5-4.94-.35.06-.21.59.14.54,1.73-.27,1.69,4.49-.54,3.87-2.07-.57-.85-3.16,0-4.17.23-.27-.16-.67-.39-.4a4,4,0,0,0-1.19,3.66,2,2,0,0,0,2.43,1.45Z"/><path class="cls-21" d="M224.78,221.64c-.49,1-.84,2.47.18,3.29a2,2,0,0,0,2.78-.51l.07-.1a2.28,2.28,0,0,0-.73-3.1c-.81-.42-2.63-.6-3.18.3a.28.28,0,0,0,.48.29c.33-.53,1.72-.35,2.21-.19a1.68,1.68,0,0,1,.74,2.42,1.39,1.39,0,0,1-2.14.36c-.63-.67-.29-1.76.06-2.47C225.42,221.61,224.94,221.32,224.78,221.64Z"/><path class="cls-21" d="M227.41,232.2a3,3,0,0,0,.61-1.54,3.5,3.5,0,0,0-.15-1.9c-.49-.81-1.79-.18-2.55.32a.25.25,0,0,0-.41.06c-.49.93-1.08,2.53-.17,3.4a1.83,1.83,0,0,0,2.58-.22Zm-2.21-2.39a.29.29,0,0,0,.12-.06,3.69,3.69,0,0,1,1.27-.68c.54-.16.81-.2.88.43a3.35,3.35,0,0,1-.36,2.17c-.42.65-1.43,1.1-2,.4A2.08,2.08,0,0,1,225.2,229.81Z"/><path class="cls-21" d="M225,239.74a1.68,1.68,0,0,0,2.27.38,1.83,1.83,0,0,0,.52-2.34,2,2,0,0,0-2.36-.83.3.3,0,0,0-.17.39v0A2,2,0,0,0,225,239.74Zm.85-2.21a.28.28,0,0,0,.07-.12c1.13-.11,2.15,1.23,1.15,2.17a1.11,1.11,0,0,1-1.57-.09l-.1-.14a1.62,1.62,0,0,1,.48-1.83Z"/><path class="cls-21" d="M225.81,242.93a.24.24,0,0,0-.2.28v0a2.05,2.05,0,0,0-.78,2.28,2,2,0,0,0,2.24,1.36,1.27,1.27,0,0,0,.83-.91,4.57,4.57,0,0,0,.33-2C228,242.75,226.73,242.76,225.81,242.93Zm.77,3.42c-1.55-.08-1.6-2.15-.44-2.79a.26.26,0,0,0,.12-.14c.69-.09,1.44,0,1.43.92,0,.66-.26,2.05-1.12,2Z"/><path class="cls-21" d="M211.7,206.91a1.79,1.79,0,0,0,1-2.33l0-.08c-.5-1-1.94-1.14-3-1.16a.27.27,0,0,0-.46-.15,2.34,2.34,0,0,0-.25,3A2.3,2.3,0,0,0,211.7,206.91Zm-2.54-2.5c.19.13.53,0,.43-.28v-.23a5.77,5.77,0,0,1,1.92.33,1.15,1.15,0,0,1,0,2.16,1.7,1.7,0,0,1-2.35-2Z"/><path class="cls-21" d="M208.69,215.22a3,3,0,0,0,3.67.79,2.09,2.09,0,0,0,.76-2.86l-.05-.08c-.77-1.14-2.14-1.3-3.42-1.26a.26.26,0,0,0-.37,0l0,0h-.18a.3.3,0,0,0-.22.46A2.25,2.25,0,0,0,208.69,215.22Zm.8-2.86a4.33,4.33,0,0,1,2.36.34,1.58,1.58,0,0,1,.59,2.52,2.15,2.15,0,0,1-2.78.12c-1.22-.81-1-2-.17-3Z"/><path class="cls-21" d="M212.45,220.47a3.63,3.63,0,0,0-3.93,1.1c-.2.25.09.59.31.46a2,2,0,0,0,.63,2.67c1.41.92,3.16,0,3.94-1.27.28-.48.73-1.28.53-1.85A2.25,2.25,0,0,0,212.45,220.47Zm.87,1.81a2.94,2.94,0,0,1-2.12,2.19c-1.44.3-2.9-1.38-1.59-2.51.22-.19,0-.48-.22-.47a3,3,0,0,1,1.76-.64c.85,0,2.33.33,2.17,1.44Z"/><path class="cls-21" d="M212.91,229.2a2.47,2.47,0,0,0-1.61-.59,3.28,3.28,0,0,0-1.88.2c-.28.13-.11.5.15.51a2.71,2.71,0,0,0,.4,3.11,1.86,1.86,0,0,0,2.63,0l.11-.12A2.88,2.88,0,0,0,212.91,229.2Zm-.48,2.49a1.3,1.3,0,0,1-2.14.28,2.24,2.24,0,0,1-.17-2.56.28.28,0,0,0,0-.25,3.67,3.67,0,0,1,1.93.16c.95.33.74,1.68.38,2.37Z"/><path class="cls-21" d="M210,240.06c.58.9,2,1.35,2.63.26a3.05,3.05,0,0,0-.33-3.65,1.33,1.33,0,0,0-2.23.88.28.28,0,0,0,0,.11A2.1,2.1,0,0,0,210,240.06Zm1.05-2.56a.29.29,0,0,0-.05-.5.91.91,0,0,1,.81,0,1.46,1.46,0,0,1,.62.89,3.06,3.06,0,0,1-.27,2.14c-.7.87-1.75,0-1.91-.84a1.64,1.64,0,0,1,.83-1.7Z"/><path class="cls-21" d="M212.35,245.75c-1.26-.61-2.53.18-3.54.91-.29.21,0,.69.27.48.89-.64,2.91-1.9,3.62-.31a1.79,1.79,0,0,1-.13,1.37,1.19,1.19,0,0,1-.91.66,2.21,2.21,0,0,1-1.06,0c-.55-.17-1.07-.84-.54-1.37a.28.28,0,0,0-.39-.4,1.38,1.38,0,0,0,.48,2.19c.88.42,2.43.24,2.87-.72A2,2,0,0,0,212.35,245.75Z"/><path class="cls-21" d="M196,203.43a.26.26,0,0,0-.44-.11,2.88,2.88,0,0,0-.59,3.13,2.21,2.21,0,0,0,2.91,1,2.24,2.24,0,0,0,1-2.89A2.28,2.28,0,0,0,196,203.43Zm1.32,3.61a1.62,1.62,0,0,1-2-1.14v-.06a2.36,2.36,0,0,1,.48-2,.29.29,0,0,0,.34.08,1.71,1.71,0,0,1,2.25.88l0,.12a1.66,1.66,0,0,1-1.1,2.08h0Z"/><path class="cls-21" d="M185.88,200.37a.25.25,0,0,0-.31.13.26.26,0,0,0-.22,0c-1,.54-1.15,2.06-1,3.09a1.79,1.79,0,0,0,2.28,1.69,2.09,2.09,0,0,0,2.07-2.37A3.62,3.62,0,0,0,185.88,200.37Zm.83,4.35a1.51,1.51,0,0,1-1.66-.45,2.24,2.24,0,0,1-.2-1.15c0-.71.08-1.74.78-2.11a.26.26,0,0,0,.1-.1,3.41,3.41,0,0,1,2.17,1.46,1.56,1.56,0,0,1-1.2,2.35Z"/><path class="cls-21" d="M185.5,209a.23.23,0,0,0-.2.25v0a.23.23,0,0,0-.23.08,2.92,2.92,0,0,0-.53,3.49,2,2,0,0,0,2.76.63l.1-.07c.9-.74.95-2.3.73-3.36C187.86,208.84,186.51,208.85,185.5,209Zm1.78,3.72a1.39,1.39,0,0,1-2.27-.18,2.34,2.34,0,0,1,.45-2.78.28.28,0,0,0,.07-.22h.11c.85-.15,1.87-.19,2,.9a3.42,3.42,0,0,1-.36,2.31Z"/><path class="cls-21" d="M177.74,204.42c1,.37,1.6-.65,1.86-1.44s.51-2.06-.22-2.72c-.93-.85-2.14,0-2.84.72a.28.28,0,0,0,.21.48C176.81,202.45,176.54,204,177.74,204.42Zm1.43-3.54a2.47,2.47,0,0,1,0,1.76c-.18.64-.82,2-1.59.91-.4-.57-.19-1.47-.23-2.12a.27.27,0,0,0-.17-.24C177.71,200.69,178.67,200,179.17,200.88Z"/><path class="cls-21" d="M177.54,208.35a.28.28,0,0,0,0,.56,2.75,2.75,0,0,1,2.17,1.07,1.85,1.85,0,0,1-.18,2.39,1.35,1.35,0,0,1-2.09-.41,3.24,3.24,0,0,1,.35-2.41c.14-.33-.4-.48-.53-.15-.42,1-.87,2.39,0,3.31a2,2,0,0,0,2.51.18,2.32,2.32,0,0,0,.63-2.79A3.19,3.19,0,0,0,177.54,208.35Z"/><path class="cls-21" d="M178.87,216.45c-1.21-.16-1.52,1.23-1.58,2.14a.24.24,0,0,0,.21.27h0c-.32.81-.44,1.83.53,2.2,1.21.47,1.82-1.18,2-2.05S180.1,216.62,178.87,216.45Zm.69,2.4c-.09.38-.28,1.29-.66,1.5l-.94-.09a1.09,1.09,0,0,1-.06-.89,4,4,0,0,1,.4-.84.28.28,0,0,0-.42-.36c.05-.44.17-1,.54-1.1a.93.93,0,0,1,1.11.56,1.87,1.87,0,0,1,0,1.22Z"/><path class="cls-20" d="M94.59,278.9c0,.56,28.7,14,38.22,16.83s53.66,10.92,66.11,11.08,87.56,2.46,93.14,1.2,44.73-3.2,54.55-6.41S375.42,290.86,379,288a90.82,90.82,0,0,0,7.42-6.8l4,1.39s-6.35,9.92-11.5,12.3-28.14,10.11-40.17,12.4-52.3,4.66-69.21,5.33-72.26.62-93.58-1.21-46.36-8.16-63-15.26-16.81-6.89-17.67-8.68a12,12,0,0,1-.63-5.16C94.75,281.91,94.59,278.9,94.59,278.9Z"/><path class="cls-20" d="M99.27,275.52s26.49,14.35,37.37,15.38,34.8,8,46.79,9,78.45,2.35,85.56,2.44,50.69-.24,61.16-1.43,25.43-6.34,33.7-9.79,22.48-13.62,22.48-13.62-.49-.71-.83-.74-5.44-1.21-5.44-1.21-6.27,3.25-11.64,6.52-20.36,9.74-35.94,11.76-66.51,2.48-75.84,2.58-59.51-5.21-72.16-7.16-54.07-13.37-61.16-15.68-9.07-3.67-9.07-3.67a71.21,71.21,0,0,0-8.07,1c-1.51.48-5,1.78-5.93,2.76S99.51,274.41,99.27,275.52Z"/><path class="cls-20" d="M116,264.43a34.49,34.49,0,0,0,13.6,7.7c8.86,2.78,47,13.94,56.07,13.84s49.73,5.53,54.84,5.82,36.89,1.37,42.22,1.21,52.75-4.43,60.77-5.66,26.61-11.66,29.52-13.18a24.87,24.87,0,0,0,5.39-4l-12.69.62s-8.07,4.79-13.67,8-30.12,8.06-36.57,8.87-33.6,2.68-44.49,2.09-29.55-1-36.66-1.36-30.18-4.61-37.5-5.6-29.49-5.94-37.9-9.38S126.4,262,126.4,262,117.16,263.36,116,264.43Z"/><path class="cls-20" d="M139.76,256.25s3.68,7.38,19.84,12.93,47.65,11.73,58.52,13,53.08,4.46,63.3,4.37,47.65-6,55.46-8.18,19.66-7.75,22.36-9.72a9.94,9.94,0,0,0,3.45-5.25s-.48-.94-12.26-.87c0,0-16.65,15.13-39.35,17.06s-74.3,3.71-97.37-.59-37.94-5.83-49-13.53-19.61-14-19.61-14Z"/><path class="cls-20" d="M347.38,258.27s-25.08,14.13-44.44,15.66-42.74,4.56-57,4.16-59-7-68.12-10.22-23.91-18.78-23.91-18.78l7.45-2s9.19,15.57,19.37,18.6,42.58,7.89,48.36,8S277.2,270,290.57,268s37.71-10.63,37.71-10.63S343.61,257.55,347.38,258.27Z"/><path class="cls-22" d="M328.34,251.87a126.81,126.81,0,0,1-34.61,11.93c-19.39,3.53-91.64,3.49-100.94.25s-27.44-12-27.35-18.06l3-.81s2.48,5.69,5.79,7.74,19.92,7.15,27.68,8.14,79.61-1.86,86.07-2.67,22-5.87,27.9-11.95c0,0,8.57.83,10.4,1.75S328.34,251.87,328.34,251.87Z"/><path class="cls-23" d="M98.74,127.22s-.21-.89,8.75-6.11S228.36,57.76,234.41,54.28s7-7,10.3-5.43,69.09,38.69,80.37,43.28,59.41,30.56,63.38,32.61,5.16,13.85,3.81,14.72-288.06-5.05-288.06-5.05S97,137.87,98.74,127.22Z"/><path class="cls-24" d="M152,131.69c.23-.66,25.63-21.9,33-27.14s19.29-13.31,27.4-21.66S239,57,240.4,55.24l4.19-6.44s.49,5.17-.19,6.72-29.4,51.86-32.5,54.93-24.08,25.64-24.08,25.64Z"/><path class="cls-24" d="M242.24,78.93s.37-28.67,1.26-28.44,9.77,17.91,10.61,22.15,12.37,23.73,14.31,28,14.08,28.42,13.17,30-27.42,5.87-31.41,5.15a54.11,54.11,0,0,1-8.64-2.56Z"/><path class="cls-24" d="M245.5,50.52s38.14,41.84,48.49,50,37.44,27.83,41.4,30.32,35.76,2.68,40.43,2.52,12.87-7.17,12.87-7.17a5.11,5.11,0,0,0-2.56-2.83C384,122.11,247.47,50.17,246.71,49.79S244.84,49.62,245.5,50.52Z"/><path class="cls-23" d="M241,52.24s-10.82-6.7-12.56-13.85c0,0-3.88-7,2.56-9.53s11.52,5.34,11.52,5.34a10.81,10.81,0,0,1,4.79-5c3.69-2.06,10.4-2.14,10.81,1.6S260.31,42.18,241,52.24Z"/><path class="cls-21" d="M94.26,164.74a17.24,17.24,0,0,0-.5,4.22,5.41,5.41,0,0,0,2.18,3.14,2.18,2.18,0,0,0,1.55.24v.3h1c1.23,0,2.46-.13,3.69-.23v-.06h.6a1.3,1.3,0,0,1,.6.09,5.2,5.2,0,0,0,2.58-.72c1.79-1.09,2.94-4,2.94-4h2.89a19.87,19.87,0,0,0,2.16,4.92c1.09,1.35,5.76,1.85,8.43,1.22s6-2.15,6.26-3a13.41,13.41,0,0,1,1.82-2.87h1.78s1.28,4.24,3,5.15a38.15,38.15,0,0,0,3.93.95,13.68,13.68,0,0,1,2.68-.42c.54-.18,1.07-.39,1.6-.61a9.82,9.82,0,0,1,2.49-1.34v-.44h.49a1.39,1.39,0,0,1,1.19,0c1.24,0,2.8-.1,3.44-.09,1.11,0,4,2.27,6.85,3.42a16.78,16.78,0,0,0,5.35.93c.51-.23,1-.46,1.56-.65l.26-.07a12.56,12.56,0,0,1,9.42-1.18c.23.05.45.12.67.19,2.89-.65,6.65-1.58,7.46-2.24,1.35-1.09,2.25-1.75,2.25-1.75a26.11,26.11,0,0,0,3.06,3.82c1.1.9,10.87,1.92,13.33.39a40.38,40.38,0,0,0,5.85-5s4,3.61,5.94,5.19,9.13-1.22,10.7-2.53,7.36-1.91,7.36-1.91,1.5,4.24,5,5.62c0,0,4.44.72,5.33.74h0a4,4,0,0,1,.58.09l.37.09h.21a10,10,0,0,1,1.63-.09,16,16,0,0,1,4-.19,23.29,23.29,0,0,0,6.77-.82,23.83,23.83,0,0,0,7.17-4.13c.45-.44,1.09,2,3.52,2.94s8.21,1.22,10.44.36a16.23,16.23,0,0,0,4.49-3.05,13.3,13.3,0,0,1,4.21,1.39c3.09,1.37,7.77,1,9.78-.1a5.65,5.65,0,0,1,3.22-.89s5.66,1.67,10.31,3.07c0,0,9.54,1.46,12.66,1.05s2.23-.19,2.23-.19h.06l.35-.13a1.3,1.3,0,0,1,.76,0h0a7.56,7.56,0,0,1,1-.26c.55-.1,1.15,0,1.7-.15a5.49,5.49,0,0,1,.9-.32h.11v-.15s6.68-.58,8.92-1.89a12.36,12.36,0,0,0,3.14-2.4s2.84,3.82,5.94,4.75a20.33,20.33,0,0,0,6.22.75V176a28.88,28.88,0,0,0,3.77-.29l.89-.09c1-.49,4.83-2.61,5.63-4.93,0,0,.65,1.12,3.75,2s9.34-.32,10.25-1.87,5.11.29,6.64,2.53,6,3.63,9.09,2.12,3.63-5.73,3.65-6.84S94.26,164.74,94.26,164.74Z"/><path class="cls-25" d="M98.86,169.47s-9.79.82-9.63-11.77-.48-31.85.43-33.26,8.92-1.79,12.22.87,5.33.54,8.47-1.79,8.54-7,14.55-7.65,17.8-1,22.44,1,13,8.72,14.09,10.64,1.94,5,4.39,4.33,1.85-5.92,4.51-4.69,1.07,3.34,4.4,3.86,10.06-4.15,14.32-7.18,16.75-5.73,24.94-3.24,17.45,8.78,19.43,10.71,3.39,4.45,5.9,3.47,2.34-5,6.35-5.68,8-.37,8.65,1.54,2.85,2.89,5.11.07,12.39-12.44,23.28-12.29,23.28,5.29,27.47,7.72,7.28,4.37,8.41,3,.71-3.32,4.7-2.79,4,2.43,6.21,1.27,5-4.69,9.2-6.77,10-3.67,12.5-3.64,12.47-1.27,18.65,1.9,11.91,7.76,13.9,8.5,3.8-1.38,4-2.09,1.58-1.64,5.13-1.12,4.39,4.57,4.79,8.14,1.13,33-.46,35.4-38,1.17-41.81,1.12-85.58-1.1-93.58-1-77,3.28-92.06,1.43S98.86,169.47,98.86,169.47Z"/><path class="cls-23" d="M91.77,151s-2.57,9.53-.15,11.78,7.07,3.43,11.3,3,41.58-.13,43.8-.1,58.24.53,62.91.14,49.58,0,54.47,0l52.9.68,65.35.84c.44,0,12.9-.06,13.58-1.6s1.56-17.32.89-17.55-12.38,12-15.73,12.81-29.85,4.28-41.33-1.64-10.5-13-17.19-12-15.94,12-20.63,14-27.41,4.76-33.14,1.13S254.08,149,248.05,150.66s-19.13,1.09-22.52,5-24.35,9.47-31.88,7.15-13-10.17-17.19-12-12.64-2.61-17.79.66S147,161.76,140.76,161.9c0,0-26.47,1-34.84-5.12S92.72,145.94,91.77,151Z"/><path class="cls-23" d="M167.85,147.24a6.87,6.87,0,0,0,3.16-4c.93-2.88.95-4.43.07-5.11a2.21,2.21,0,0,0-3.13,1.29c-.24,1.33-1.11-.46-2-1.14a1.63,1.63,0,0,0-2.68,1.3,10.53,10.53,0,0,0,2.15,5.36C166.31,146.1,166.52,147,167.85,147.24Z"/><path class="cls-23" d="M245.42,148.24a6.87,6.87,0,0,0,3.16-4c.93-2.88.95-4.43.07-5.11a2.21,2.21,0,0,0-3.13,1.29c-.24,1.33-1.11-.46-2-1.14a1.63,1.63,0,0,0-2.68,1.3A10.53,10.53,0,0,0,243,146C243.88,147.11,244.09,148,245.42,148.24Z"/><path class="cls-23" d="M322,144.56a6.87,6.87,0,0,0,3.16-4c.93-2.88,1-4.43.07-5.11a2.21,2.21,0,0,0-3.13,1.29c-.24,1.33-1.11-.46-2-1.14a1.63,1.63,0,0,0-2.68,1.3,10.53,10.53,0,0,0,2.15,5.36C320.41,143.42,320.62,144.32,322,144.56Z"/><path class="cls-23" d="M392,142.57a9.8,9.8,0,0,0,2.51-4.64c.25-2,.29-5.55-.59-6s-2.68,1.3-2.7,2.19-2.22-.25-3.12.4.83,4.9,1.7,6S390.89,142.78,392,142.57Z"/><path class="cls-23" d="M138.41,135.27a12,12,0,0,0-2-2.74A1.18,1.18,0,0,0,137,131l0-.06a1.66,1.66,0,0,0-2.19-.85l-.19.1a.93.93,0,0,0-.48.55,12.27,12.27,0,0,0-4.52-1.73,22.77,22.77,0,0,0-10.53,1.17,5.88,5.88,0,0,0-.55.24,1,1,0,0,0-.42-.43,1.66,1.66,0,0,0-2.29.5l-.11.19a1.13,1.13,0,0,0,.41,1.52c-1.91,1.89-3.35,4.5-3.45,6-.14,2.26-1.64,8.39,3.69,12.95a8.7,8.7,0,0,0,3.72,2.2c2.18.57,10.43,1.13,13.29-.44s4.76-3.09,5.65-6.19S140.44,139.05,138.41,135.27Z"/><path class="cls-23" d="M214.52,140.89a11.84,11.84,0,0,0-1.77-2.53c.21-1.31.66-4.35.46-4.84s-1.65-.78-2.26-.45-2.3,1.51-3.09,2.05a10.89,10.89,0,0,0-1.8-.47,20.6,20.6,0,0,0-7.41.35c-.78-.56-2.58-1.86-3-2.14s-2-.23-2.27.39a17.59,17.59,0,0,0,.23,4.07c-2.09,1.89-3.73,4.8-3.83,6.46-.14,2.24-1.59,8.3,3.55,12.81a8.36,8.36,0,0,0,3.58,2.17c2.1.56,10.05,1.12,12.81-.44s4.59-3.05,5.44-6.12S216.47,144.64,214.52,140.89Z"/><path class="cls-23" d="M372.73,137.67c-1-.89-4-3.92-4.8-3.41a10.49,10.49,0,0,0-3.2-1.1,19.63,19.63,0,0,0-9.13,1c-.67-.75-3.92,2.35-5,3.23-1.45,1.25-5.24,9.24-3.49,11.89.55.84,1.52,0,2.59-1.64a9.91,9.91,0,0,0,3.28,5.62,7.66,7.66,0,0,0,3.28,2c1.93.51,9.21,1,11.74-.41s4.21-2.8,5-5.61c.12-.42.22-.86.32-1.33,1,1.64,2,2.57,2.56,1.74C377.72,147,374.14,139,372.73,137.67Z"/><path class="cls-23" d="M297.87,141.28a11.88,11.88,0,0,0-8.42-6.2,8.49,8.49,0,0,0,.23-5.13c-.22-.85-1.33-2.17-1.81-2.07s-1.3,5.86-1.46,7a8.86,8.86,0,0,0-1.35.07c-.11-.89-.86-7-1.29-7.13s-1.62,1.17-1.86,2a8.35,8.35,0,0,0,.27,5.55,19.83,19.83,0,0,0-2.86.83c-3.08,1.17-6,5.71-6.15,7.94s-1.58,8.27,3.54,12.76a8.33,8.33,0,0,0,3.57,2.17c2.09.56,10,1.11,12.76-.44s4.57-3,5.43-6.1S299.82,145,297.87,141.28Z"/><path class="cls-23" d="M97.62,143.68s1.35-5.95.95-7.23-1.12-1.29-1.69-.87a1.76,1.76,0,0,0-.58,1.27s-.7-.72-1.27-.3-.16,1.42,0,1.85,1.22,4.42,1.5,4.85S97.62,143.68,97.62,143.68Z"/><path class="cls-26" d="M225.73,286.17a3.75,3.75,0,0,0,.66.52c.55.34,1.05-.53.5-.86a2.55,2.55,0,0,1-.46-.36c-.46-.45-1.17.26-.71.71Z"/></g></g></g></g></svg>