<svg xmlns="http://www.w3.org/2000/svg" viewBox="0 0 377.65 475.45"><defs><style>.cls-1{fill:#eb616d;}.cls-2{fill:#ef5c79;}.cls-3{fill:#fbc5cf;}.cls-4{fill:#eef2ef;}.cls-5{fill:#d2c09d;}.cls-6{fill:#ae675c;}.cls-7{fill:#fff;}.cls-8{fill:#2b102e;}.cls-9{fill:#2c112f;}.cls-10{fill:#cacaca;}.cls-11{fill:#474548;}.cls-12{fill:#040000;}.cls-13{fill:#b5282c;}</style></defs><title>match01</title><g id="圖層_2" data-name="圖層 2"><g id="圖層_1-2" data-name="圖層 1"><rect class="cls-1" x="172.78" width="24.07" height="475.45" rx="6" ry="6"/><path class="cls-2" d="M357.25,201c-28.49-51.6-79.08-78.5-121.85-84.91,12.2-31,5.39-60.65,2.4-71.53-3.26-11.87-19.54-30.08-26.34-28.5C205.33,17.51,194,98,191.75,114c-6.35.23-12.8.65-19.3,1.28-1.68-12.32-13.57-97.73-19.88-99.2-6.8-1.58-23.08,16.62-26.34,28.5-3.17,11.55-10.66,44.32,4.89,77.29A290.47,290.47,0,0,0,90.21,134C46.32,150.89,5.07,214.74,3.49,245.88S-17.67,361.44,56.63,423.19c0,0,21.42,22.16,51.56,29.55s143.83,13.72,183-8.44,65-43.27,76.68-86S385.8,252.74,357.25,201Z"/><path class="cls-3" d="M349.14,197c-27.3-50.85-75.78-77.36-116.76-83.68,11.69-30.51,5.16-59.77,2.3-70.49-3.12-11.7-18.72-29.64-25.24-28.08-5.87,1.4-16.77,80.71-18.88,96.5-6.09.22-12.27.64-18.49,1.26-1.61-12.14-13-96.31-19.05-97.76-6.52-1.56-22.12,16.38-25.24,28.08-3,11.38-10.22,43.68,4.69,76.17A272.55,272.55,0,0,0,93.26,131c-42.06,16.64-81.58,79.57-83.1,110.25S-10.1,355.13,61.09,416c0,0,20.52,21.84,49.4,29.12s137.82,13.52,175.32-8.32,62.32-42.64,73.47-84.77S376.51,248,349.14,197Z"/><circle class="cls-4" cx="189.78" cy="282.01" r="137.95"/><ellipse class="cls-5" cx="193.93" cy="384.89" rx="52.52" ry="25.06"/><path class="cls-6" d="M164.67,280.21s-12.41,21.71-15.51,27.66-9.18,16.67-10.6,26-1,11.24,0,12.54,4.14,4,6.07,3.88,3.62-2.46,4.27-4,1.29-3.36,1.29-3.36a9.28,9.28,0,0,0,2.41,1.08c.6,0,2.33.17,2.84-1.38a2.42,2.42,0,0,0-.86-3.1,6.45,6.45,0,0,1-1.74-1.31c-.29-.39.16-1.26.65-2.13s3.39-5.4,3.39-5.4.52,0,.65.9a51.13,51.13,0,0,0,3.57,8c.73,1,1.29,1,1.29,1.94s-1.42,24.34-1.16,26.63-.47,1.64-1.51,2.11a15.52,15.52,0,0,0-7,7.63c-2.11,4.87,4.74,5.43,5.26,5.6s15.17.6,17.15,0,6.68-2.2,7.32-6,2.37-24.19,2.37-24.19a1,1,0,0,1,1-1.07c1.07,0,13.09-.13,13.09-.13a.93.93,0,0,1,.71.81c0,.65,1.83,23.5,2,24.28a8.75,8.75,0,0,0,5.9,5.69c4.35,1.38,19,.6,19,.6s4.57-1.25,4.61-3.66-.23-3.41-1.65-5.16-6.4-5-6.4-5a5,5,0,0,1-.19-2.07c.06-1.52-.94-27.08-.94-27.08s1.42-2.26,2.24-3.9,2.41-5.34,2.46-6.29.67-.8.83-.38,4,6.24,4.36,6.62.94.78.52,1.2-2.81,2.1-2.91,3c0,0-.45,2.62,2.1,2.68s2.65-1.07,2.65-1.07.48-.06.65.94,2.75,6.3,4.46,6.62,6.37-1.55,7.27-4.23a23.5,23.5,0,0,0,.29-10.15c-.58-2.42-7.08-23.46-14.19-33.93s-9.31-17.06-10.73-19.84l-.78-1.62Z"/><path class="cls-6" d="M243.69,200.85a54.06,54.06,0,0,0-9.23-12.25c2.11-1.26,4.53-4.08,2.61-7.31-2.86-4.8-7.27-5.32-10.77-3.24a4.2,4.2,0,0,0-2.12,2.49A55.31,55.31,0,0,0,203.71,173c-14-2.08-33.05.35-47.42,5.88a26.51,26.51,0,0,0-2.45,1.1,4.59,4.59,0,0,0-1.9-1.92c-3.5-2.08-7.92-1.56-10.77,3.24-1.71,2.88,0,5.44,1.93,6.85-8.51,8.64-14.83,20.49-15.18,27.42-.52,10.21-6.92,37.9,17.39,58.15,0,0,7,7.27,16.87,9.69s47.07,4.5,59.88-2.77,21.29-14.19,25.09-28.21S253,217.81,243.69,200.85Z"/><path class="cls-7" d="M165.2,237.85s-3.76,3.91-1.66,7.24,6.1,5.35,11.57,6.08,24.19,1.59,30.08-1,9.26-8.39,6.73-12.3-14.94-8.68-23.14-8.25S169.41,233.22,165.2,237.85Z"/><path class="cls-8" d="M183.9,228.63s0,3.34,2.14,5.09,5.53,1.6,7,0,2.49-5.83,1.58-7.13S183.45,224.13,183.9,228.63Z"/><circle class="cls-7" cx="165.76" cy="221.34" r="12.29"/><circle class="cls-9" cx="165.76" cy="221.34" r="7.73"/><path class="cls-9" d="M147.25,209.1s1,3.91,2.93,3.42,18.55-6.83,20-8.3-2.44-6.35-2.44-6.35-20,9.27-20.5,9.76S147.25,209.1,147.25,209.1Z"/><circle class="cls-7" cx="211.54" cy="221.34" r="12.29"/><circle class="cls-9" cx="211.54" cy="221.34" r="7.73"/><path class="cls-9" d="M230.06,209.1s-1,3.91-2.93,3.42-18.55-6.83-20-8.3,2.44-6.35,2.44-6.35,20,9.27,20.5,9.76S230.06,209.1,230.06,209.1Z"/><polygon class="cls-10" points="157.72 279.81 191.75 282.6 223.64 279.81 225.03 285.08 230.82 294.03 242.41 322.47 221.5 323.04 222.92 335.64 161.3 335.11 161.83 323 139.18 317.21 157.62 285.08 157.72 279.81"/><path class="cls-11" d="M179.86,286.81h0l-22-1.73a.26.26,0,1,1,0-.52l22,1.73a.26.26,0,0,1,0,.53Z"/><path class="cls-11" d="M203.09,287.21a.26.26,0,0,1,0-.53l21.93-1.6a.26.26,0,0,1,0,.53l-21.93,1.6Z"/><polygon class="cls-12" points="157.03 282.18 173.65 285.61 192.79 301.58 180.62 312.06 181.38 348.81 180.9 312.47 210.71 285.61 224.99 282.71 229.74 289.92 236.36 300.38 251.18 333.61 228.27 334.59 228.91 348.99 181.4 349.72 181.4 348.61 158.49 348.37 159.09 334.22 133.21 327.45 155.86 286.76 157.03 282.18"/><circle class="cls-10" cx="185.62" cy="321.95" r="1.84"/><circle class="cls-10" cx="185.62" cy="333.53" r="1.84"/><path class="cls-10" d="M188.45,288.66a.12.12,0,0,0-.12-.07c0,.07.05.15.08.22A.13.13,0,0,0,188.45,288.66Z"/><path class="cls-10" d="M194.52,288.12a.13.13,0,0,0,.06.26h0c0-.09,0-.18,0-.28Z"/><path class="cls-10" d="M194.39,286.58a.13.13,0,1,0,.16.21h0c0-.09-.06-.17-.09-.25Z"/><path class="cls-13" d="M188.4,288.81l0,0a5.19,5.19,0,0,1-2.13.56c-.56,0-1-.16-1.14-.5a.13.13,0,1,1,.24-.11c.23.47,1.45.51,2.92-.19h.06a3.24,3.24,0,0,1,1.9-3.89,42.3,42.3,0,0,0-6.69-2.78,3.33,3.33,0,0,0-4.06,2.82v5.93a3.32,3.32,0,0,0,4.06,2.82,38.24,38.24,0,0,0,6.46-2.89A3.26,3.26,0,0,1,188.4,288.81Zm-3.58-3.08a.13.13,0,1,1,.26,0c0,.52,1.09,1.09,2.71,1.09a.13.13,0,0,1,0,.26C186.13,287.08,184.82,286.49,184.82,285.73Z"/><path class="cls-13" d="M199.37,281.92a42.3,42.3,0,0,0-6.69,2.78,3.25,3.25,0,0,1,1.79,1.82c1.13-.84,2.53-.88,3.18-.06a.13.13,0,0,1-.21.16c-.57-.72-1.86-.65-2.88.15a3,3,0,0,1,.11,1.31,9.17,9.17,0,0,1,2.66-.26c.85.07,1.34.31,1.44.71a.13.13,0,0,1-.1.16h0a.13.13,0,0,1-.13-.1c-.07-.27-.52-.46-1.21-.51a9.09,9.09,0,0,0-2.68.28,3.25,3.25,0,0,1-1.72,2.24,38.24,38.24,0,0,0,6.46,2.89,3.32,3.32,0,0,0,4.06-2.82v-5.93A3.33,3.33,0,0,0,199.37,281.92Z"/><circle class="cls-13" cx="191.42" cy="287.68" r="3.05"/></g></g></svg>