<svg xmlns="http://www.w3.org/2000/svg" viewBox="0 0 1197 942.23"><defs><style>.cls-1{opacity:0.4;}.cls-2{fill:#f7f084;}.cls-3{fill:#f5b238;}.cls-4{fill:#e29521;}.cls-5{fill:#c3dd97;}.cls-6{fill:none;}.cls-7{fill:#c6dc74;}.cls-8{fill:#d68d58;}.cls-9{fill:#938278;}.cls-10{fill:#baa597;}.cls-11{fill:#dbd0bb;}.cls-12{fill:#ffa665;}.cls-13{fill:#f7ddc3;}.cls-14{fill:#000c1a;}.cls-15{fill:#fff;}.cls-16{fill:#00477d;}.cls-17{fill:#ed0019;}</style></defs><title>money</title><g id="圖層_2" data-name="圖層 2"><g id="圖層_1-2" data-name="圖層 1"><g class="cls-1"><rect class="cls-2" x="2.5" y="1.93" width="1193" height="939"/><path class="cls-3" d="M1132,360.43l-25-11s68-44,66-63-12-41-43-27-28,23-40,26-13-3-20-4-18,7-23,10,4-10-3-14-17-9-37,3-30,19-35,15-18-11-27,1,15,44,25,53a224.8,224.8,0,0,1,17,17s-32,10-44,25-165,129-196,133-142,19-142,19,15-15,19-35-19-7-28-5-21-6-30-12-19,0-18,9-7,13-15,9-23-2-15,6-8,30-8,30-15,1-37,13c0,0-20-10-27-11s20-33,10-46-19-5-19-5,9-22-25-15c0,0-6,1-10,11,0,0-29-5-37,6s-3,23,8,30c5,3.2,7.12,4.31,7.93,4.57-.33,2.25-2,10.43-8.93,10.43-8,0-33,5-57,25s-36,35-36,35-39,0-49,4-24,7-24,7,7-38-19-37-21,26-21,26-14-4-23,8c0,0-2,2-4,9,0,0-12-3-18,7s4,25,11,28,15,2,15,2l-14,27s1-26-22-30c0,0-5-1-12,4,0,0-19-10-35,6,0,0-4,4-3,12,0,0-14,4-13,20a10.6,10.6,0,0,0,7,11s-37,8-39,58c0,0-4,31,13,53l-29-1,3,124H1195l2-520S1184,389.43,1132,360.43Zm-75.89,77"/><path class="cls-4" d="M1005.5,358.93s52-12,83-10c0,0,2.5,2.5,16.5-8.5s60-46,61-57-9-16-21-17-26,2-39,11-20,16-28,17-11-3-10-6-4-3-15,4-21,9-23,5,7-8,8-13-3-12-20-6-22,19-34,23-17-3-22-6-14,0-14,7,12,26,26,41S995,362.43,1005.5,358.93Z"/><path class="cls-4" d="M956,387.43s47-22,58-25,69-15,97-3,59,35,67,46,18,30,18,30l-1,138s-12,45-15,46-31-34-38-37-11-5-11-5,50-38,50-44-23-3-23-3,13-22,24-32,15-17,7-29-20-25-28-27-17,2-17,2,16-26,16-30-20-9-29-11-48-10-48-10-7-3-8,5a135.82,135.82,0,0,0-1,15s-6-1-19,7-41,19-46,18-10,8-5,11,10,15,11,36-1,30-1,30a44.84,44.84,0,0,0-7-10c-4-4-8,2-9,7s0,33,0,33-8,3-9,6-24-26-27-32-5-6-1-12,16-25,15-46-14-51-21-55S945,392.43,956,387.43Z"/><path class="cls-5" d="M1173,466.43c-5-7-14-23-34-11-13.63,8.18-37.95,40.51-52.37,61.54a2.25,2.25,0,0,1,1.53-.32,14,14,0,0,1,2.37.48,51.84,51.84,0,0,1,7.09-6.34c-.64-.57-1.3-1.13-2-1.68-2.62-2.11,1.1-5.78,3.69-3.69.85.68,1.66,1.4,2.46,2.12a41.77,41.77,0,0,0,6.75-6.4,31.29,31.29,0,0,0-2.9-2.7,2.63,2.63,0,0,1,0-3.69,2.69,2.69,0,0,1,3.69,0c3.08,2.47,5.42,5.69,8.33,8.33,2.49,2.27-1.21,5.95-3.69,3.69-.65-.59-1.27-1.21-1.88-1.84a56.38,56.38,0,0,1-6.68,6.17,95.64,95.64,0,0,1,7.12,8.66c4.17-2.86,8.74-5.7,13.38-5.58,9.69.26,18.17,10.11,11.08,18.59-2.16,2.58-5.83-1.13-3.69-3.69,4.7-5.63-4.94-11-9.85-9.35-2.7.88-5.3,2.83-7.74,4.46,1.8,2.58,3.56,5.18,5.36,7.75,1.93,2.76-2.6,5.37-4.51,2.64-1.76-2.51-3.48-5.05-5.24-7.56-2.25,1.47-4.63,3-7.08,4.35,1.33,1.86,2.84,3.4,4.6,3.71,3.31.58,1.9,5.61-1.39,5-3.63-.64-5.89-3.38-7.87-6.55a22.11,22.11,0,0,1-6.08,1.5c-7,.6-9.43-6.19-6.92-12,.22-.5.47-1,.73-1.46a2.93,2.93,0,0,1-1.56-3.43c-6.27,9.2-10.48,16-10.79,17.22-1,4-7,14,3,13,0,0,62-13,66-18s21-30,34-38S1178,473.43,1173,466.43Zm-.85,11.75a41.56,41.56,0,0,0-6.23,4.72,34.84,34.84,0,0,0-3.48,3.61c-1.26,1.5-1.37,1.53.42,1.9a2.64,2.64,0,0,1,1.56,3.84c-3.27,6.55-7.81,12.21-12.41,17.86-2.12,2.61-5.79-1.11-3.69-3.69a106.55,106.55,0,0,0,10.1-14c-6.16-3.51,2.19-12,7.88-16.43-2.78-1.93-5.56-3.85-8.38-5.72-4.23,5.26-10.81,4.89-15.68.57-6,6.3-14.32,9.85-20.23,16.32-2.27,2.49-6-1.22-3.69-3.69,6.52-7.13,16-10.72,22-18.33,1.15-1.45,3.22-.66,4.1.53,3.22,4.34,7.85,4.67,10.49-.33a2.63,2.63,0,0,1,3.57-.94c4.63,3,9.13,6.19,13.67,9.33A2.65,2.65,0,0,1,1172.15,478.18Z"/><path class="cls-5" d="M1100.06,524.63a24.53,24.53,0,0,1,1.33,2.07c2.59-1.36,4.85-2.76,5.64-3.24.4-.24.8-.5,1.21-.76a90.6,90.6,0,0,0-6.88-8.29,70.76,70.76,0,0,0-6.06,5.17A25.2,25.2,0,0,1,1100.06,524.63Z"/><path class="cls-5" d="M1092.21,523.42a10.94,10.94,0,0,0-1.14,2.57c-1.26,4.39,1.88,4.27,5.73,2.83A17.69,17.69,0,0,0,1092.21,523.42Z"/><path class="cls-6" d="M1133.83,425c-1.58,0-6.52.77-7-1.5-.21-1,1.89-4.41,2.17-5.52a2.65,2.65,0,0,0-2.52-3.31c-8.82-.81-17.47-2.86-26.33-3.33a2.64,2.64,0,0,0-2.52,1.92c-.94,3.45-4,4.53-7.16,3.11a2.65,2.65,0,0,0-3.93,2.25,120.11,120.11,0,0,1-3.24,22.31c-.79,3.27,4.24,4.66,5,1.39a127.36,127.36,0,0,0,3.21-20.36,9.54,9.54,0,0,0,10.34-5.27c7.05.53,14,1.94,21,2.81-1.08,2.56-2.18,5-.34,7.72s5.09,3,8.21,3.06c-.81,4.06-2.31,8-3.47,12-1,3.23,4.09,4.61,5,1.39,1.56-5.3,3.47-10.5,4.09-16A2.63,2.63,0,0,0,1133.83,425Z"/><path class="cls-4" d="M955,714.43a102.67,102.67,0,0,0-10-7s-4-4-8,5-22,49-22,52-3,8,2,11c0,0,12,3,16,2s7-4,10-12,15-42,15-42S960,718.43,955,714.43Z"/><path class="cls-4" d="M956,659.43c5-3,13-16,13-18s-11-1-16,3c0,0-8,5-6,10S951,662.43,956,659.43Z"/><path class="cls-4" d="M1187.5,654.93c-6-12-25-41-46-62,0,0-12-15-18-11s-16.5,10.5-17.5,10.5-4-4,6-10,42-28,46-33,17-14,8-14-52,11-58,15-36,9-38,10-9,0-8,9,13,38,13,41-1,6-7-1-17-28-16-35-1-14-3-19-4-20-4-22,4-9-7-7-23,0-27-3-5-2-6,2,0,41,4,47,11,11,7,14a7.94,7.94,0,0,1-8,1,35.48,35.48,0,0,0-1,7c0,3-2,6-5,3s-1-9-1-9-37,4-54,9-64,35-70,40-22,30-28,43-18,50-10.5,74.5c0,0,5,40,42,64s73,48,104,46,80-2,123-27,79-54,81-69S1193.5,666.93,1187.5,654.93ZM882,809.43c-4-2-12-16-12-16-3-6,1-5,2-5s13,4,15,11S886,811.43,882,809.43Zm65-19s-3,27-10,35-6,3-7,0,4-37,4-37a86.7,86.7,0,0,1-13-3,35,35,0,0,0-10-2s-7,31-10,34-4,0-5-4,4-23,3-29-8-8-14-12-8-19-7-29,7-14,15-13,11,3,13,13,5,5,5,5,14-41,18-47,4-10,4-10-23-21-25-34,5-18,19-29,57-8,57-8,14-14,20-16,8,2,3,7-10,12-8,13,19,10,19,10,7-10,12-13,20-11,22-7-6,8-14,15-11,9-8,14,12,19,16,22,31-13,40-10,9,6,2,9-56,17-56,17c-6-1-3-7-3-8s5-3,5-5-4-14-9-20-8-1-8-1-17,25-23,32,4,14,4,14c23,16,26,38,26,38,2,36-20,46-31,54S947,790.43,947,790.43Zm79,53c-10,9-19,9-30,10s-22-9-22-9c-6-11,5-12,10-5s25,5,30,3,21-16,22-14S1036,834.43,1026,843.43Zm29-48c-2-1-5-3-3-8s10-3,21-4,22-5,27-9,14-5,14,0-17,16-24,19S1055,795.43,1055,795.43Zm65,25c-8,5-47,20-47,20-7-2-4-9-2-13s11-3,19-4,36-21,39-16S1128,815.43,1120,820.43Zm58-54c-4,10-25,30-25,30-10,2-6-5-5-8s18-21,22-26,10-18,12-14S1182,756.43,1178,766.43Z"/><path class="cls-4" d="M974,726.43s-6-4-10,6-13,40-13,40-3,5,2,7c0,0,16,1,26-8s11-21,8-29S974,726.43,974,726.43Z"/><path class="cls-4" d="M963,668.43s14,12,17,11,25-32,27-34,4-6-2-9-21-3-27,5S960,664.43,963,668.43Z"/><path class="cls-4" d="M991,574.43s7,5,9,2-1-18-1-19-5-3-9,3S987,570.43,991,574.43Z"/><path class="cls-6" d="M1133.83,425c-1.58,0-6.52.77-7-1.5-.21-1,1.89-4.41,2.17-5.52a2.65,2.65,0,0,0-2.52-3.31c-8.82-.81-17.47-2.86-26.33-3.33a2.64,2.64,0,0,0-2.52,1.92c-.94,3.45-4,4.53-7.16,3.11a2.65,2.65,0,0,0-3.93,2.25,120.11,120.11,0,0,1-3.24,22.31c-.79,3.27,4.24,4.66,5,1.39a127.36,127.36,0,0,0,3.21-20.36,9.54,9.54,0,0,0,10.34-5.27c7.05.53,14,1.94,21,2.81-1.08,2.56-2.18,5-.34,7.72s5.09,3,8.21,3.06c-.81,4.06-2.31,8-3.47,12-1,3.23,4.09,4.61,5,1.39,1.56-5.3,3.47-10.5,4.09-16A2.63,2.63,0,0,0,1133.83,425Z"/><path class="cls-5" d="M1144,415.43c-2-5-56-13-56-13-4,0-6,0-7,6-.53,3.16-2.16,26.56-5.2,51.51.74-1.52,3-2.28,4.28-.8a14.39,14.39,0,0,1,11.42-4.82c3.35.15,3.36,5.37,0,5.22a9.82,9.82,0,0,0-8.44,4.07,83.46,83.46,0,0,0,9.68,10.28c4.47-4.67,9.95-9,15.42-4.88,2.65,2,0,6.53-2.64,4.51-2.93-2.21-6,.3-9.19,3.81,1,1,2,2,3,3.09,2.28,2.47-1.41,6.17-3.69,3.69-.91-1-1.85-1.94-2.79-2.88-3.73,4.18-7.7,8-12,6.29-6.32-2.49-6.9-12.73-5.81-18.22a22.59,22.59,0,0,1,1.83-5.43q-.5-.79-1-1.61a2.72,2.72,0,0,1-.3-.81c-2.72,22-6.52,44.88-11.62,56-11,24-7,27-3,28s10-18,16-31,54-63,57-64S1146,420.43,1144,415.43Zm-11.65,28.19c-.95,3.22-6,1.84-5-1.39,1.16-3.95,2.66-7.91,3.47-12-3.11,0-6.38-.4-8.21-3.06s-.74-5.16.34-7.72c-7-.88-14-2.28-21-2.81a9.54,9.54,0,0,1-10.34,5.27,127.36,127.36,0,0,1-3.21,20.36c-.79,3.27-5.83,1.88-5-1.39a120.11,120.11,0,0,0,3.24-22.31,2.65,2.65,0,0,1,3.93-2.25c3.15,1.42,6.22.34,7.16-3.11a2.64,2.64,0,0,1,2.52-1.92c8.86.47,17.51,2.52,26.33,3.33A2.65,2.65,0,0,1,1129,418c-.28,1.12-2.38,4.53-2.17,5.52.47,2.28,5.41,1.53,7,1.5a2.63,2.63,0,0,1,2.61,2.61C1135.82,433.12,1133.91,438.32,1132.35,443.62Z"/><path class="cls-5" d="M1083,482.74c1.33.22,3.44-2.21,4.23-3,.6-.59,1.26-1.29,2-2.05a114.66,114.66,0,0,1-8.72-8.94,17.79,17.79,0,0,0-.3,8.94C1080.53,479,1081.36,482.45,1083,482.74Z"/><path class="cls-4" d="M67.5,702.93s22-10,36-12,21,2,22-7-3.5-24.5-12.5-23.5-10,6-13,5-15-8-21-5-11,10-11,16-1,4-4,5-9,3-10,10S59,705.43,67.5,702.93Z"/><path class="cls-4" d="M123,695.43s-26,2-34,5-38,14-44,19a65.09,65.09,0,0,0-21,36c-4,19,2,53,12,61s32,26,40,25,20-15,26-20,20-20,20-23,5-3,12-1,16,0,16,0,2-2-3-6-19-22-20-38-4-27-2-40S132,693.43,123,695.43Z"/><path class="cls-4" d="M187,618.43s-2,9,1,8,15-7,15-14,4-28-12-29-18,20-18,20,0,6-4,6-9-7-17,0-6,11-6,14,0,7-3,5-12-7-17-2,1,21,8,24,20,2,23-2,1-6-2-8-11-3-10-5,10,0,14,1,9,4,13-2,8-24,9-28,4-5,6-2S187,618.43,187,618.43Z"/><path class="cls-4" d="M205.5,778.93s12,9,12,13,2,10-3,9-18.5-7.5-27.5-8.5-20,1-26,1-11-8-15-13-21-49-14-70,17-44,27-54,44-35,61-41,41-6,46-6,9-1,7,5-8,30-5,55,14,62,31,74,38,24,43,24,9,3,5,7-8,10-12,8-68-37-73-42-13-9-21-5-34,30-36,31S200,774.43,205.5,778.93Z"/><path class="cls-4" d="M393,535.43s6,6,12,7,31,2,36-3,13-31,9-35-14-3-17-1-7,4-7,0,7-7,8-9-3-8-12-5-14,12-19,14-6-1-16-2-16,3-17,11,5,11,10,11,16-3,17,0-3,5-5,7S391,534.43,393,535.43Z"/><path class="cls-4" d="M461,570.43s7-4,1-8-21-13-40-15-58,1-70,5-40,22-55,40-27,41-22,78,11,56,34,70,23,8,30,11c0,0,35,17,47,17s8,6,20-4,18-10,18-14-14-20-16-56-4-61,8-77S461,570.43,461,570.43Z"/><path class="cls-4" d="M527,523.43s-10,13-6,16,52,4,61,2,27-15,32-25-6-9-16-6-21-4-27-8-14-1-17,5S527,523.43,527,523.43Z"/><path class="cls-4" d="M579,551.43s-62,1-72,2-31,10-41,22-43,47-46,74,7,73,13,84,5,14,16,22,22,20,27,18,9-20,20-21,53,10,70,12,38-4,39-12,10-56,2-63S638,560.43,579,551.43Z"/><path class="cls-3" d="M524,658.43c-7-6-11-4-10-12a104.54,104.54,0,0,1,4-17s5-5,6,0,2,9,5,9,10-16,9-21-6-11-8-6-4,7-5,3,1-12-2-14-8,0-9,4-7,5-9,5-3-3-3-11-7-9-9-4-1,15-3,15-20-2-31,9-9,22-5,30,18,15,21,16-6,40-8,39-3,1-1-9,3-25-10-21-12,22-9,27,9,12,13,13,3,11,1,16-3,13,0,17,7,0,8-5,5-18,5-18,1-3,4-3,5,2,3,6c0,0-1,11,4,14s9-1,10-9,2-11,9-14,28-10,30-26S531,664.43,524,658.43Zm-47-19c-3-2,1-9,1-9s3-7,7-6,2,6,0,10S480,641.43,477,639.43Zm12,64c-2,6-7,7-9,4s0-15,0-15,4-17,5-22,9-2,10,1S491,697.43,489,703.43Zm6-58c-3-1-.24-10,0-11,4-16,5-16,10-15s2,6-1,17S498,646.43,495,645.43Zm8,61c-4,1-3-4-3-4l4-24c1-6,6-3,6-3s8,4,9,12S507,705.43,503,706.43Z"/><path class="cls-3" d="M405,580.43c-6,0-13,10-13,10s-8-3-6-6,8-11,8-16-4-7-8-3-9,15-9,15-13-1-10-6,9-15,5-18-11,5-14,10-5,10-10,11-29,1-39,14-4,22,4,27,17,6,14,13-12,35-12,35-9-29-13-29-12,12-14,25,8,21,13,23,6,4,6,10-3,15,1,17,11,2,12-6,0-11,0-11,10-6,11,4c0,0-4,14,0,17s9,1,10-7,0-11,4-11,22,2,31-12,12-37,2-49l-11-10s-3-5,0-9,12-22,12-22,3-1,7,3,10,4,18-4S411,580.43,405,580.43Zm-81,24c0-14,20-14,21-12s-8,17-12,18S324,604.43,324,604.43Zm14,64c-3,7-4,13-10,10s-2-13-2-13l8-22s4-13,6-13,9,5,10,8S341,661.43,338,668.43Zm15,6c-8,0,0-21,3-26s8,4,9,11S354,674.43,353,674.43Zm3-54c-2,2-9,0-12-2s3-14,3-14,5-8,8-13,16-4,18-1S358,618.43,356,620.43Z"/><path class="cls-3" d="M278,725.43c-1-6-15-16-15-16s10-17,1-32-38-7-40-8-17-16-17-16-6-1,2-7c0,0,10,6,15,2s-1-14-5-19-11-1-10,3,0,8-6,9-7,1-12-2-10,4-9,7-3,15-6,15-7-1-10-1-7,5-4,8,5,3,3,9-5,21,4,25,25,0,32-7,21,15,21,15,0,5-8,4-16,0-12,7,9,14,17,12,17-7,21-5,18,5,15,1-6-8-2-11,12,13,16,14S279,731.43,278,725.43Zm-97-43c-2-1-1-6,1-5s7,2,7,6S181,682.43,181,682.43Zm21-3c-5,2-15-9-15-9-3-2-1-8,3-11s12,3,17,9S207,677.43,202,679.43Zm39,31c-6,2-23-19-24-20,0,0-4-4,1-6s16,10,21,16S247,708.43,241,710.43Zm10-15c-4,2-10-9-10-9,0-4,2-4,5-1S255,693.43,251,695.43Z"/><path class="cls-3" d="M93,764.43c-4-2-6-2-6-8v-12s2,8,6,8,8-14,8-18,1-7-2-7-5,7-7,7-2-14-4-16-6,2-6,6-3,8-4,6,2-13-3-13-6,11-6,11-15,2-17,11,9,13,11,16,3,21,0,23-5-1-6-8-3-12-8-7-11,17-8,21,17,8,17,11-2,18,2,19,8-1,8-7v-10s3-1,3,1v16s-2,12,2,12,6-2,7-18,0-9,6-11,15-9,16-15S97,766.43,93,764.43Zm-26-18c-1,2-2,4-5-3s5-3,5-3S68,744.43,67,746.43Zm6,42c-3,2-3-6-3-6,2-17,6-16,8-14S76,786.43,73,788.43Zm2-36c-3-1,1-13,1-13s4-3,5-1S78,753.43,75,752.43Zm10,36c-4,1-3-7-2-14s6-4,7,1S86.37,788.09,85,788.43Z"/><path class="cls-5" d="M1040,498.1l.14-.29c.46-1,1-2.43,1.72-4.16-3.59,1.08-7.17,2.17-10.73,3.36a26.91,26.91,0,0,0-1,3.8C1033.45,500,1036.73,499,1040,498.1Z"/><path class="cls-5" d="M1029.66,504.12a4.18,4.18,0,0,0,.18,2c1.52,3.53,4.19,1.5,5.85-.49a22,22,0,0,0,2.49-3.82C1035.35,502.62,1032.52,503.42,1029.66,504.12Z"/><path class="cls-5" d="M1067.5,442.93c-2-17,.5-20.5-20.5-12.5s-27,12-28,13-5,2-1,12,7,38,6,48-3,14,2.5,16.5c0,0,29,1,33-4S1069.5,459.93,1067.5,442.93Zm-41.3,12.84c1.51-1.71,2.86-3.13,2.22-5.61-.33-1.26-1.27-2.32-1.41-3.66a4.38,4.38,0,0,1,.84-3.33c2.95-3.55,10.7-3.56,14.77-4.37,3.28-.65,7.56-2.49,10,.81.46.62.49,1.55.93,2.13,2.48,3.22,2.28,1.1,4.73,1a3.15,3.15,0,0,1,2.73,1.14c2.1,2.32,1.42,7.32,1.2,10.08a61.16,61.16,0,0,1-1.58,10.49c-.5,1.92-3.47,1.1-3-.82.75-2.89,3.68-16.43.61-17.7-.85-.36-2.75,1-4,.82a4.1,4.1,0,0,1-2.59-1.7c-1.36-1.77-.5-2.26-3-3.34s-3.76-.28-6.17.15c-4.63.84-12.87.67-11.29,7,.68,2.75,1.39,4.77-.65,7.18-1.84,2.17-3.78,1.95-4.18,5.65-.29,2.66.92,5.67,1.37,8.27.52,3-.2,7.38,1,10.1.8,1.8-1.86,3.37-2.66,1.56-1.67-3.75-1-9.17-1.79-13.19C1023.36,463.24,1022.59,459.85,1026.2,455.77Zm37.37,32.14c-.59.19-1.19.33-1.79.46a43.07,43.07,0,0,1,0,5c1.64.14,1.54,2.83-.25,3.07-.07.57-.14,1.1-.21,1.55-1.33,8.23-6.07,16-14.85,17.13-2,.26-1.94-2.82,0-3.08,7.27-1,11-7.86,12-15.2a125.26,125.26,0,0,0-16.09,3.73,36.5,36.5,0,0,1-4.28,6.93c-2,2.44-5.52,5.57-8.87,3.55-2.22-1.33-2.72-4.11-2.66-6.64a1.52,1.52,0,0,1,.27-2.8,32.21,32.21,0,0,1,.67-3.37c-1.86.67-2.65-2.3-.81-3,.68-.25,1.37-.47,2.06-.71,1.81-4.2,4.88-7.62,9.85-7.18,2,.18,2,3.26,0,3.08a6,6,0,0,0-5.57,2.66c3.41-1.09,6.83-2.11,10.25-3.15,2.81-6.58,6.93-14.14,12.56-12.78,3.24.78,4.82,4.17,5.51,8.1.45-.1.9-.22,1.34-.35C1064.66,484.35,1065.46,487.33,1063.58,487.92Z"/><path class="cls-5" d="M1058.69,488.94a41.73,41.73,0,0,0-4.25.83c-2.8.75-5.54,1.71-8.31,2.58-.66,1.5-1.32,3-2,4.6a117.17,117.17,0,0,1,14.7-3.23A32,32,0,0,0,1058.69,488.94Z"/><path class="cls-5" d="M1047.89,488.55c2.2-.72,4.4-1.45,6.65-2,1.2-.3,2.42-.48,3.65-.67a21.5,21.5,0,0,0-.61-2.2C1055,476,1050.32,483.67,1047.89,488.55Z"/><path class="cls-7" d="M258.36,772.21c5.3.53,9.82,1.07,13.6,1.64,1.37-2.22,2.78-4.41,4.31-6.53C269.43,765.28,262.67,766,258.36,772.21Z"/><path class="cls-7" d="M331,793.43c-2-1-61-37-73-45s-15-4-15-4-15,15-24,21-9,10-4,12,5,0,5,0c0-6,7-8,30-6l3.58.32a2.13,2.13,0,0,1,.36-1.52c7-10.79,19.22-10.12,29.79-5.09,4.8,2.29,10.12,5.18,11.89,10.53A32.38,32.38,0,0,1,297,783c0,.45-.13,3.79.28,3.91s2.62-3.64,2.94-4.14c1.63-2.59,5.76-.2,4.12,2.41-1.84,2.91-5.24,8.95-9.57,6.34-3.81-2.3-2.37-9.38-3.32-13-1.21-4.61-5.86-7.58-10.47-9.5-1.38,1.86-2.67,3.79-3.9,5.74,5.48,1.08,8.48,2.29,9,3.72.83,2.5-1.11,27.25-2.94,38.88a7.18,7.18,0,0,1,6.09.16c1,.46,1.54,1.3,2.67,1,.66-.17,2-2.68,2.52-3.32,3-3.62,6.23-3.31,9.85-1.51a57.55,57.55,0,0,1,8.91-8.73c-3.56-2.68-5.7-7.08-3.39-10.84a10,10,0,0,0-3.09-1.36c-3-.71-1.72-5.31,1.27-4.6a18,18,0,0,1,6.57,3.49c1.12.82,1.78,2.67.48,3.75-3.45,2.86.53,6.15,3.45,7a2.41,2.41,0,0,1,.57,4.36c-5,2.89-8.85,7.23-12.52,11.63a2.41,2.41,0,0,1-2.89.37c-3.86-2.26-4.38-2-6.83,1.19-1,1.3-2,2.83-3.59,3.44-3.54,1.34-5.56-2.82-9-1.39a1.86,1.86,0,0,1-1.95-.18c-.06.24-.12.45-.19.63-2,6,8,9,10,9s35-23,40-29S333,794.43,331,793.43Zm-73.69-33.81c-1.13-1.29-2.13-3.28-3.45-4.64-1.36,3.09-2.7,4.52-7.43,4.61-4.52.08-4.68,2-7.63,4.35a14.5,14.5,0,0,1-5.74,2.5,4.59,4.59,0,0,0,.23.6c1.13,2.86-3.48,4.09-4.6,1.27a9.87,9.87,0,0,1-.58-3.63,2.44,2.44,0,0,1,1.75-2.3c2.59-.78,4.94-1.08,7-3.06,1.17-1.14,2-2.51,3.43-3.44s2.73-1,4.42-1.32.71.54,3.15-.67c2.12-1.05,1.85-1.16,2.63-3.1.44-1.09,1.64-2.17,2.93-1.67,3.63,1.43,4.85,4.31,7.3,7.11C262.7,758.55,259.34,761.93,257.31,759.62Z"/><path class="cls-7" d="M273,779.43c-10,1-43,1-43,1s-8-2-6,11c.91,5.94-3,17.93-7.95,29.78,2.76,0,5.52,0,8.28-.08,3.37-3.15,7-5.86,8.82-7.56,2.27-2.06,5.65,1.3,3.37,3.37-1.46,1.33-2.94,2.62-4.42,3.93,3-.12,6-.25,9-.35a18.88,18.88,0,0,1,6.41-6c5.65-2.93,10.9,1.25,14.22,6.09a104,104,0,0,1,12.6,1.54C278.25,793.63,282.74,778.46,273,779.43Zm1.79,17.19c-.34,2.1-1.4,3.93-1.95,6-.81,3-.4,6.29-.62,9.36s-5,3.06-4.77,0c.26-3.53-.2-7.19.79-10.62,1.29-4.45,3.39-7.94-1.55-11.31-4.76-3.24-12.79-2.18-18.27-1.66-3.26.31-5.5.55-7.86,2.77-1.58,1.49-2.72,2.6-5,3.06-1.38.28-2.25-.33-3,1-.44.74.29,3.35.42,4.13a37.26,37.26,0,0,1,.93,7c-.08,3.07-4.86,3.07-4.77,0,.12-4.44-4.44-14.41,2-16.49,2.55-.82,3.9-.29,6.13-2.31a11.71,11.71,0,0,1,2.58-2.14c2.87-1.52,6.73-1.63,9.91-1.87,7.37-.55,16.17-1.27,21.84,4.38C274.05,790.3,275.35,793.12,274.79,796.62Z"/><path class="cls-7" d="M234,831.55a68.28,68.28,0,0,0,4-6.19c-3.78.16-7.55.34-11.33.47-.31.3-.64.59-.95.89a21.41,21.41,0,0,0-3.35,4c3.79.3,7.57.72,11.33,1.23Z"/><path class="cls-7" d="M266.29,838.38l4.49,1.09a94.12,94.12,0,0,0,2.86-12.61c-3.08-.6-6.18-1-9.28-1.31A27.52,27.52,0,0,1,266.29,838.38Z"/><path class="cls-7" d="M261.12,831.07a27.19,27.19,0,0,0-2.11-5.9c-5.16-.25-10.33-.19-15.51,0-1.85,2.87-3.39,5.92-4.53,7.59,7.6,1.22,15.15,2.8,22.67,4.54A22.54,22.54,0,0,0,261.12,831.07Z"/><path class="cls-7" d="M254.13,866.23a2.42,2.42,0,0,1-2.93,1.67c-9.25-2.21-18.34-4.2-27.87-3.05-3,.37-6.82.94-9.7-.52-3.14-1.6-4.87-5.27-7.67-7.33-.94-.7-1.68-2.15-.86-3.26,2.57-3.49,4.12-7.44,5.76-11.43,1.15-2.81,5.77-1.57,4.6,1.27a68.22,68.22,0,0,1-5.21,11.07c2,2.16,3.94,4.91,6.4,5.68,3.28,1,7.53-.58,10.84-.77,7.49-.43,15.26,1.41,22.57,3.17.65-2.57,1.51-5.18,3.32-7.1a12.72,12.72,0,0,1,3.69-2.59,2.46,2.46,0,0,1-1.46-4.49,12.65,12.65,0,0,0,5.09-6.57c-8.38-1.95-16.79-3.69-25.27-5-4,4-9.23,6.62-15,2.9a8.22,8.22,0,0,1-3.86-4.77c-1.93-.09-3.86-.15-5.79-.16a2.44,2.44,0,0,1-.94-.19c-4.16,8.55-8.08,15.46-9.89,17.64-5,6-21,14-7,15,1.41.1,54,5,58,3,2.23-1.11,7.88-6,13.13-15.24a2.55,2.55,0,0,1-.66.38C257.26,857.91,255.66,859.8,254.13,866.23Z"/><path class="cls-7" d="M219.79,826c-1.32,0-2.64,0-4,0a2.23,2.23,0,0,1-1.57-.61c-.73,1.65-1.46,3.27-2.21,4.87q2.54,0,5.06.16A18.47,18.47,0,0,1,219.79,826Z"/><path class="cls-7" d="M193,801.43a36.5,36.5,0,0,0,11,5c7,2,9,1,8,8s-7,18-8,19-11-17-13-21S184,800.43,193,801.43Z"/><path class="cls-7" d="M151,802.43s24-8,28-5,15,40,16,42,3,7-7,11-11,3-15,1-2-3-6-5-1-7,4-10,11-9,8-15-23-15-23-15S144,804.43,151,802.43Z"/><path class="cls-7" d="M102.77,840.74c-3.54,3.41-7.38,8-3.81,10.16,1.68,1,4.32.13,6.66-1A40.24,40.24,0,0,0,102.77,840.74Z"/><path class="cls-7" d="M160,819.43c-13-6-26-13-29-15s-6,1-10,6-46,48-49,50-5,7,3,10,19,13,26,14l58-51S173,825.43,160,819.43Zm-27,29.5c-.19-7.88-10-3.14-14.8-.29,1.48,3.14,3.13,6.17,4.64,9.41s-3.24,5.94-4.72,2.76-3.25-6-4.74-9.07c-.69.44-1.39.87-2.11,1.29a45.34,45.34,0,0,0,4.07,12.77,2.58,2.58,0,0,1-.24,2.94,5.91,5.91,0,0,1-4.63,6.33c-5,1.42-8.29-2.25-12.71-3.5-3.38-1-1.94-6.23,1.45-5.27a35.49,35.49,0,0,1,6,2.81c.57.28,5.37,1.71,4.4-.3a2.69,2.69,0,0,1,0-2.42,53.55,53.55,0,0,1-3-11.06,15,15,0,0,1-7.57,1.15c-7.17-1-9.32-8.31-5.31-13.82A49,49,0,0,1,99.83,836c-1.59-2.64,1.89-6,4-3.59l.28-.25,1.35-1.13a2.93,2.93,0,0,1,2.22-1.69c.44-.3.88-.58,1.34-.84,1.43-.81,4.66-1.26,3.36-3.44-1.81-3,2.92-5.77,4.72-2.76,3.56,6-.6,8.66-5.13,11.33a46.76,46.76,0,0,1,3.77,8.92c.11.35.24.68.36,1A26.66,26.66,0,0,1,127,839.4c6.66-.76,11.32,2.68,11.49,9.53C138.57,852.45,133.11,852.44,133,848.93Z"/><path class="cls-7" d="M55,879.43s25,12,26,14,11-1,12-4-18-14-24-17-13-3-17,1S51,877.43,55,879.43Z"/><path class="cls-7" d="M44,837.43c-10-7-20-15-27-14s-15.5,2.5-15.5,2.5l.92,16A14.89,14.89,0,0,1,4,835.9c-.24-1.92-.51-3.84-.86-5.75-.64-3.44,4.63-4.9,5.27-1.45.15.84.29,1.67.42,2.51a8,8,0,0,1,7.33.42c2.2,1.43,3,4.13,5,5.69,2.75,2.11,0,6.86-2.76,4.72-1.78-1.36-2.6-3.24-4.18-4.67-1.93-1.75-3.51-1.29-4.59,0,.37,3.2.73,6.39,1.3,9.56a23.59,23.59,0,0,0,3.67,1.44c4.87,1.6,14.29,2.84,13.91,9.78-.19,3.5-5.66,3.51-5.46,0,.13-2.46-7.22-3.92-10.48-4.77a44.11,44.11,0,0,1,2.2,10c.21,3.52-5.26,3.49-5.46,0-.26-4.43-2-8.7-3.13-13a8.58,8.58,0,0,1-3.43-5c-.05-.23-.09-.46-.13-.7L4,869.43s51-13,60-17S54,844.43,44,837.43Zm9.63,15.73c-1.23,3.26-6.51,1.84-5.27-1.45.69-1.82-10.67-3.69-12.24-4.51-5.07-2.67-5.43-8.82-11.1-10.88-3.28-1.19-1.86-6.47,1.45-5.27s6.14,2.83,8.17,5.91c2.61,4,3.57,5.78,8.53,6.74S56.23,846.29,53.63,853.16Z"/><path class="cls-7" d="M4,896.43s12,1,15-4,10-20,8-21-9,4-14,5-10.75,2-10.75,2S1,896.43,4,896.43Z"/><path class="cls-7" d="M62.77,923.26l-.13,0a39.37,39.37,0,0,0,2.63,9.54,3,3,0,0,1,.88,1.35,33.2,33.2,0,0,1,1.12,4.55c1.75-.39,3.1-1,3.34-2.05a3,3,0,0,1,.41-1,3.41,3.41,0,0,1,1.85-1.74C73.76,928.74,67.31,924.39,62.77,923.26Z"/><path class="cls-7" d="M60.78,937.2c-2.41-4.3-3.25-9.42-4.09-14.35-1.66.09-3.33.26-5,.38-.14,4.4-.4,8.8-.45,13.2a3,3,0,0,1-.25,1.19v1.63a53.76,53.76,0,0,0,6.53.09c.72,0,2.12,0,3.73-.06Q61.06,938.24,60.78,937.2Z"/><path class="cls-7" d="M126,875.43c-14,11-21,19-29,22s-17,2-21,0-9-7-19-6-20,5-27,7-21,8-23,9-5,3-5,3,2,31,1,31H36.66c-.39-.21-.79-.42-1.18-.66-3.32-2-.3-7.17,3-5.19A25.07,25.07,0,0,0,45,938.25v-4.07a3,3,0,0,1,.33-1.39c.1-3.22.26-6.44.35-9.66-5.54-.76-12.43-3.51-11.33-9.86.76-4.41,5.05-7.73,9.44-10a5,5,0,0,0-1.8-1.76c-3.4-1.86-.36-7,3-5.19A10.14,10.14,0,0,1,49.25,901l.3-.11c.51-.17,1-.33,1.56-.48-.3-.57-.61-1.13-1-1.67-2.06-3.29,3.14-6.3,5.19-3a29.62,29.62,0,0,1,1.88,3.52,23.47,23.47,0,0,1,8.62.67c-.1-3.51,5.3-4.9,5.81-1.22.28,2,.52,4,.61,6a3,3,0,0,1-4.52,2.59A14.81,14.81,0,0,0,59.29,905c.87,3.16,1.44,6.41,2,9.68.14.81.28,1.66.41,2.53a22.57,22.57,0,0,1,12.16,5.55c5,4.31,6.41,9.66,3.71,15.67a2.58,2.58,0,0,1-1.78,1.34,6.58,6.58,0,0,1-1.19,1.64H83v-3s8-14,17-21,60-49,61-52S140,864.43,126,875.43Z"/><path class="cls-7" d="M45.73,916.16c0-1.73,0-4.31-.24-6.85a19.15,19.15,0,0,0-2.92,2.12c-1.89,1.7-3.19,2.66-.77,4.45a8.48,8.48,0,0,0,3.94,1.45C45.74,916.93,45.74,916.55,45.73,916.16Z"/><path class="cls-7" d="M339.53,816.56c-3-.5-1.74-5.1,1.27-4.6,1.93.32,3.63,1.52,5.29,2.46,2.94,1.66,6,3.34,4.76-1.95-.56-2.46-1.38-4.88-2-7.33l-.35.2c-3.28,1.79-8.83,4-11.2-.39a4.78,4.78,0,0,1-.5-3.12c-4.18,5.8-7.68,10.49-8.77,11.59-3,3-15,7-8,11,0,0,11,7,14,6a119.38,119.38,0,0,0,16-8c.3-.2.89-.68,1.68-1.35C347.93,821.42,342.89,817.12,339.53,816.56Z"/><path class="cls-7" d="M383,775.43c-15-2-23-7-27-1-1.82,2.73-7.14,10.41-12.7,18.26.56-.53,1.07-1,1.5-1.43a28.34,28.34,0,0,1,3.3-2.79,2.94,2.94,0,0,1,.32-.22,15,15,0,0,1,7.78-2.91,19.91,19.91,0,0,0-1.76-3.37c-1.74-2.54,2.39-4.92,4.12-2.41,1.59,2.31,2,5.38,3.79,7.52s-.42,5.1-2.89,3.75a6.68,6.68,0,0,0-5.94-.11,19.3,19.3,0,0,1,2.26,4.26,19.44,19.44,0,0,1,11.37-2.08c4.42.62,7.92,3.61,6.27,7.92,6.18-6,11.66-11.7,13.58-14.39C392,779.43,398,777.43,383,775.43Z"/><path class="cls-7" d="M291.58,841.13c1.53.83,3.09,1.61,4.6,2.4-.07-.22-.16-.44-.21-.66a11.78,11.78,0,0,1,.77-7.55,12,12,0,0,1-4.74,1.11,18.47,18.47,0,0,1-3-.28A7.07,7.07,0,0,1,291.58,841.13Z"/><path class="cls-7" d="M299.93,857.41c2.92-.8,2.57-2.3,1.48-4.63a26.1,26.1,0,0,0-1.91-3.25,2.07,2.07,0,0,1-1.8.19,41.33,41.33,0,0,1-5.91-2.75c-2.65-1.35-4.33-1.57-5.9.84-.93,1.42-2.32,2.41-3.28,3.75q-.45.41-.88.84-2.56,2.16,4.54,2.09A12,12,0,0,0,289,852.7c2.23-1.54,4.21,1.38,3.16,3.34C294.66,857.11,297.27,858.14,299.93,857.41Z"/><path class="cls-7" d="M277.59,849.87c1.62-2,3.39-3.69,4.94-5.79a14.17,14.17,0,0,1,1.6-2,24.86,24.86,0,0,1-6.33-6.09c-1.32,3.59-5.75,13.56-4.81,15.45,0,0,1.22,1.22,3.16,3.07A5.72,5.72,0,0,1,277.59,849.87Z"/><path class="cls-7" d="M324,832.43c-5-4-12-8-16-5-1.1.83-2.36,1.88-3.72,3,2.81.19,5.57,1.85,7.92,3.47,2.52,1.73.13,5.86-2.41,4.12-1-.7-2.35-1.92-3.59-2.23-4.58-1.15-6.4,2.44-5.64,5.84.43,1.94,1.92,3.69,2.94,5.34,1.58,2.53,3.6,5.55,3.58,8.67s-2,5.06-4.77,6.05c-5.4,2-9.56-.64-14.62-2.27a2.34,2.34,0,0,1-.41-.19A8.54,8.54,0,0,1,282,860c5.9,5.33,13.2,11.39,17,12.47,7,2,14,5,17,2s0-15-1-20,3-11,8-15S329,836.43,324,832.43Z"/><path class="cls-7" d="M255.25,875.82a30.89,30.89,0,0,1-8,1.47c-.91,4.63-1,12,5.6,9.06a18.46,18.46,0,0,0,6.35-5.08C257.81,879.46,256.5,877.63,255.25,875.82Z"/><path class="cls-7" d="M262.25,877.45c.72-.93,1.44-1.85,2.17-2.71a35.14,35.14,0,0,0-3.7-3.58c-.24.44-.48.87-.72,1.27a5.75,5.75,0,0,1-.68.9C260.24,874.68,261.22,876.07,262.25,877.45Z"/><path class="cls-7" d="M271,874.82c.38.38.78.75,1.18,1.11a63.64,63.64,0,0,0,7.23,5.26c.46-2.71.82-6.62-.75-8.61C276.66,870.09,273.22,872.71,271,874.82Z"/><path class="cls-7" d="M267.69,878.24c-.8.94-1.63,2-2.48,3A47.24,47.24,0,0,0,275.6,891a23.83,23.83,0,0,0,2.52-5c-2.79-2-5.73-3.69-8.36-5.86A28.22,28.22,0,0,1,267.69,878.24Z"/><path class="cls-7" d="M279.53,898.23c-.87-.32-1.72-.7-2.56-1.1a28.82,28.82,0,0,1-20.14,9.19c-3.08.09-3.06-4.68,0-4.77a23.27,23.27,0,0,0,15.8-6.92,52.76,52.76,0,0,1-10.51-9.7c-3.93,4.42-8.51,8.17-14.18,6.84-6.13-1.44-6.43-8.87-5.57-14.34H242c-4,0-12,1-12,1a51.8,51.8,0,0,1-9,12c-6,6-6,8-4,10s29,25,35,29,11,3,14,0c1.75-1.75,8.92-17.4,15-31.15A2.09,2.09,0,0,1,279.53,898.23Zm-12.37,21.09c-2.4-.12-8.45.22-8.61,3.61-.08,1.6-2,3.24-3.59,2.06-6.6-5.08-12.81-10.72-19.18-16.08a21.5,21.5,0,0,1-5.39-6.13c-1-1.94-1.17-4.54-2.77-6.15-.89-.89-2.21-1.42-3.15-2.34a2.44,2.44,0,0,1,0-3.37c2.14-2.59,4.79-4.68,6.63-7.52,1.66-2.57,5.79-.18,4.12,2.41a47.84,47.84,0,0,1-5.62,6.52c1.44,1,2.85,1.87,3.6,3.75,1.42,3.59,2,6,4.93,8.6,5.49,4.88,11.16,9.8,17,14.38,2.44-3.51,7.84-4.71,12.09-4.51C270.23,914.69,270.24,919.46,267.17,919.32Z"/><path class="cls-7" d="M269,859.43c-2-.68-4.08,3.26-6.11,7.42a40.85,40.85,0,0,1,4.81,4.56c4.36-3.79,11-7.44,14.87-1.5,2.54,3.91,2.34,9.47,1.12,14.38.39.31.78.63,1.16,1,2.1,1.84-.5,4.77-2.71,3.79-.14.35-.29.69-.44,1a26.43,26.43,0,0,1-1.76,3.23c.28.12.56.25.85.36a2.38,2.38,0,0,1,1.52,1.65c3.79-8.62,6.93-16,7.68-17.85C292,872.43,269,859.43,269,859.43Z"/><path class="cls-7" d="M131,897.19c-5.57,5.41-8.75,9.56-6,10.24l10-.19A10.58,10.58,0,0,1,131,897.19Z"/><path class="cls-7" d="M182,873.43c-2,0,6-9,3-12s-15,0-20,6c-2.08,2.49-10.7,9.46-19.51,16.91a54.61,54.61,0,0,1,7.38-2.14c3.78-.82,5.37,5,1.6,5.79a46.52,46.52,0,0,0-12.27,4.22c6,1.06,12.13,1.44,18,3.12l1.26.39c3.61-4.43,7.87-9.25,13.76-6.78,5.26,2.21,10.63,9.7,10.85,15.76,5.06-4.35,21.95-26.44,21.95-28.28C208,874.43,184,873.43,182,873.43Z"/><path class="cls-7" d="M137.2,897.33l-.12,0c0,.05-.05.1-.07.16-2,5.39,5.47,6.93,9.24,6.76,4.19-.19,7.69-1,10.74-3.51C150.52,899.07,143.7,898.85,137.2,897.33Z"/><path class="cls-7" d="M178.92,901.24c-1.45-3.29-4.14-6.5-6.82-6.55-1.79,0-3.5,1.38-5.08,3.2C170.83,899.51,174.61,901.09,178.92,901.24Z"/><path class="cls-7" d="M163.27,902.76a17.47,17.47,0,0,1-1.52,1.79,17.22,17.22,0,0,1-2.67,2.11c4.79-.13,9.44-.28,13.46-.43C169.38,905.34,166.4,904,163.27,902.76Z"/><path class="cls-7" d="M211,882.43s3-7,7-7,6,4,0,11-24,25-25,25,4-10,8-15S211,882.43,211,882.43Z"/><path class="cls-7" d="M206,906.43s-8,8-9,11-2,7,5,7,16,3,18,7,5,9,5,9,3,1,5-3,3-15-1-19S213,900.43,206,906.43Z"/><path class="cls-7" d="M238,928.43c-.63,1.26-2,8,1,9s9,3,8-1S239,926.43,238,928.43Z"/><path class="cls-7" d="M1140,846.43s42-8,50-10l5.38-.87V819.43H1174s-4,1-11,5-21,14-23,16S1130,847.43,1140,846.43Z"/><path class="cls-7" d="M1175,814.43h20.33V805.1s-14.33.33-17.33,2.33S1171,812.43,1175,814.43Z"/><path class="cls-7" d="M1195.33,801.26l-.33-14.83s-5,0-6,2-4,9-5,11S1195.33,801.26,1195.33,801.26Z"/><path class="cls-7" d="M1195.17,879.6l-.17-36.17s-14,0-24,2-25,5-20,11,22,23,25,25,0,3,8,1S1195.17,879.6,1195.17,879.6Z"/><path class="cls-7" d="M1195,887.43l.33,19.67s-10.33,6.33-13.33,5.33-5-6-4-11,2-8,5-11S1194,887.43,1195,887.43Z"/><path class="cls-7" d="M1067,876.43s26,28,28,29,45-9,47-11-14-19-18-23-9-12-23-9S1057,870.43,1067,876.43Z"/><path class="cls-7" d="M1127,865.43s25,27,28,28,15-2,15-6-26-25-29-26S1120,857.43,1127,865.43Z"/><path class="cls-7" d="M1159,940.43h14s2-46,1-48-13,5-15,7-3,2-3,6S1159,940.43,1159,940.43Z"/><path class="cls-7" d="M1188,926.43l7.17-4.5.17-5.17s-6.33-1.33-10.33,1.67-5,4-5,8v14h7s-1-3,1-3,3-2,3-4-4-1-5-2S1185,928.43,1188,926.43Z"/><path class="cls-7" d="M976.87,920.14a37.54,37.54,0,0,1-3.64-6.54c-1.58-3.53-2.78-8-2.38-11.84-5.75,4.69-11,9.94-16.48,15,5.67.54,10.63,3.59,14.94,7.25a33.23,33.23,0,0,1,3.46,3.47C974,925,975.39,922.54,976.87,920.14Z"/><path class="cls-7" d="M985.53,926.8c-1.85,2.56-3.73,5.64-6.25,7.47a1.38,1.38,0,0,1-.76.28,36.56,36.56,0,0,0,2.92,3.07c1.58,1.45,3.55,2.79,5.85,2.31,3.91-.82,4.69-5.31,3.53-8.42C989.88,929,987.76,927.81,985.53,926.8Z"/><path class="cls-7" d="M974.92,934.71a1.79,1.79,0,0,1-.21.66c.78,1.9.92,4.22-.72,5.28l6.32,0A31.54,31.54,0,0,1,974.92,934.71Z"/><path class="cls-7" d="M1151,912.43c-2-9-4-11-12-9s-39,8-39,8-3,1-8,3-7-2-9-5-27-20-35-26-3-8-8-9-55-4-55-4h-6c-6,0-43-8-50-13a22.15,22.15,0,0,0-2.46-1.46,2.65,2.65,0,0,1-.31,0c-1.08-.22-2.14-.51-3.19-.79l-1-.18a12.88,12.88,0,0,1-1.88.26,23.49,23.49,0,0,1-3.35.62c-.52.16-1,.3-1.59.43a2.22,2.22,0,0,1-1.52-.22h0l-.16.05a2.32,2.32,0,0,1-1.46,1.67l-2.37.82c-2,1-4,1.87-6,2.7-2.66,1.4-6,2.63-7.33-.86a3.66,3.66,0,0,1-.15-2l-.22-.08a11.5,11.5,0,0,0-5.12-.18,2.4,2.4,0,0,1-.62,1.69,22,22,0,0,1-3.62,3.35,1.75,1.75,0,0,1-1.51.34c-.33.22-.65.45-1,.66a2.16,2.16,0,0,1-.65.26c-.36.58-.71,1.16-1,1.76a2.4,2.4,0,0,1-.41.54c-.17.3-.32.6-.47.89l-.06.36a1.89,1.89,0,0,1-.18.54,11,11,0,0,0,1.82,4.56l23.85,5.3h4c4,0,26,13,27,17a11.43,11.43,0,0,0,7,8c3,1-1,10-6,13s5,7,5,10-13,14-13,14l30,.15a2.38,2.38,0,0,1-1-2.5c.54-2.56.33-5-1.42-7-1.85-2.21-3.52-4.62-5.16-7a1.55,1.55,0,0,1,.89-2.25,12.6,12.6,0,0,0-3.3-1.37,1.57,1.57,0,0,1-.44-.18c-.9.82-1.81,1.65-2.73,2.45-1.49,1.3-3.68-.87-2.18-2.18,11.62-10.13,21.74-21.92,35.31-29.57a1.54,1.54,0,0,1,1.65,2.6c6.24.61,13.06,4.5,13,11.07a1.46,1.46,0,0,1-1.5,1.48c.73.92,1.5,1.8,2.32,2.66,3.07-3,6.61-5.6,10.43-5.92a6.7,6.7,0,0,1,6.18,3,8.31,8.31,0,0,1,1.17,8c.63.24,1.3.52,2,.84a1.48,1.48,0,0,1,1.19-.66c7.51-.38,17.3-12.16,10.58-18.7-1.43-1.39.76-3.56,2.18-2.18,7.35,7.15.62,18.68-7.71,22.61a77,77,0,0,0,8.71,1.2c3.47.16,5.79-.78,7.11-3a16.45,16.45,0,0,1-5.87-6.32,1.56,1.56,0,0,1,.92-2.26c7.16-1.69,16.65,5.08,22.54,8.31,3.75,2.05,7.77,3.76,11.71,5.6a2.1,2.1,0,0,1,1.07-.18c9.48.7,15.53,9.55,24.75,10.25a2.29,2.29,0,0,1,1.26.47l.89-.17c4.88-1.08,9.65-2.62,14.41-4.14l3.82-1.22c-6.69.36-13.38.72-20,1.44-2,.21-2-2.87,0-3.08,12.08-1.3,24.25-1.45,36.35-2.52a61.66,61.66,0,0,1,7.65-.81c2-.08,1.9,2.84,0,3.08-2.42.31-4.85.56-7.28.78-9.32,1.56-18.23,5-27.32,7.69-2.49.73-5.16,1.55-7.86,2.14a13.65,13.65,0,0,1,.34,3.52,1.55,1.55,0,0,1-2.87.78,5,5,0,0,0-2.44-1.76,10.68,10.68,0,0,1-2.91-1.87,17,17,0,0,1-5.18-1.65,1.71,1.71,0,0,1-.54,0c-5.51-1-10.36-4.13-15.05-7.21-5.76-2.27-11.65-4.22-17.56-6.14-1.22-.4-2.47-.82-3.72-1.29-1.79,5.44-9.52,6.14-14.52,5.17a2.12,2.12,0,0,1-1.56-2.6c-1.9-.2-3.8-.57-5.68-.92,8.69,6.25,16.22,15.78,6.28,20.84-1.77.9-3.33-1.76-1.56-2.66,9.9-5-7.58-17.59-15.52-20.58l-.32.47c-2.48,3.5-5.44,6.4-9.21,3.05-2.23-2-4.67-4.24-7-6.65a130.9,130.9,0,0,0-9,10.82c2.4,1.16,4.67,2.42,6,5.14a9.7,9.7,0,0,1-1.75,11.21l141.43.7,7-4C1147,933.43,1153,921.43,1151,912.43ZM936.31,887.88c-2.62,1.22-4.91-2.67-2.28-3.9a49.74,49.74,0,0,0,9.71-6.12c-11.19-1.44-19-7.61-27.16-16-2-2.09,1.17-5.28,3.19-3.19,8.31,8.56,16,14.81,28.4,15a2.51,2.51,0,0,1,.46.05c2.33-2.09,4.61-4.26,6.95-6.39,2.14-2,5.34,1.23,3.19,3.19C951.71,877,945.08,883.79,936.31,887.88Zm40.53-6.07a1.23,1.23,0,0,1-1.13-.39c-5.22,4.69-10.8,9-16.42,13.18-1.59,1.19-3.12-1.49-1.56-2.66A203.94,203.94,0,0,0,975.94,877a135.24,135.24,0,0,0-17.32,8.26c-1.75.95-3.3-1.72-1.56-2.66,7.71-4.19,15.53-8.21,24-10.49a1.47,1.47,0,0,1,1.79.93,16.48,16.48,0,0,1,10.36-1.59c1.44.3,1.31,2.09.37,2.82C989,877.81,982.67,881.1,976.83,881.81Zm50.51,8.87a23.87,23.87,0,0,0-4.21-8.36c-.16-.21-.36-.45-.58-.7-2.3.36-4.58.8-6.84,1.34-.83.2-1.63.43-2.43.68.27.58.56,1.07.91,1.68.7,1.24,1.5,2.42,2.15,3.7,2.09,4.11,3.16,9.45-2.4,11.05-7.67,2.22-12.08-3-14.53-9.78-2.55,1.47-5.11,3-7.81,4.3-1.77.88-3.33-1.78-1.56-2.66,2.92-1.45,5.68-3.06,8.43-4.64a59,59,0,0,1-1.86-14,1.54,1.54,0,0,1,3.08,0,54.36,54.36,0,0,0,1.36,12.56,69.24,69.24,0,0,1,8.48-4.14c-.65-4.07.72-8.15,6.09-7.72a13.11,13.11,0,0,1,8.27,4.34,103.19,103.19,0,0,1,16.59-.92c2,0,2,3.13,0,3.08a101.41,101.41,0,0,0-14.29.65,29.55,29.55,0,0,1,4.11,8.73A1.54,1.54,0,0,1,1027.35,890.67Zm51,25.59c-1.07-.7-2.14-1.41-3.2-2.14a1.36,1.36,0,0,1-1,.35c-11-.5-16.44-10.74-25.78-14.88-1.38-.61-.79-2.3.36-2.71-1.18-.57-2.38-1.11-3.6-1.61a1.5,1.5,0,0,1,0,1.43c-1.14,2.29-1.74,4.77-3,7a1.56,1.56,0,0,1-2.82-.37c-1.87-5.94-2.22-13.2-6.6-18-1.34-1.46.84-3.65,2.18-2.18a20.88,20.88,0,0,1,4.23,7.61,1.39,1.39,0,0,1,1.42-.34c14.91,4.22,26.62,14.89,39.37,23.16C1081.61,914.68,1080.06,917.34,1078.39,916.26Zm-56.48,23.49c-3.51.82-6.75-2.33-10-.16-1.65,1.12-3.19-1.56-1.56-2.66a7,7,0,0,1,5.4-1.2c.94.17,1.89.58,2.85.86-1.88-3-4.1-6-7.55-6.84-1.93-.49-1.1-3.46.82-3,5.3,1.34,8.2,6.41,10.92,10.71A1.55,1.55,0,0,1,1021.91,939.75Zm55.26.72a23.54,23.54,0,0,1-9.06-3,1.59,1.59,0,0,1-1.35.31,11.42,11.42,0,0,1-2.77-.88,1.59,1.59,0,0,1-1.56,2.55c-4.62-.91-7.21-4-11-6.49-1.67-1.07-.12-3.74,1.56-2.66.6.38,1.17.8,1.74,1.22a1.53,1.53,0,0,1,1.9-1.38,14.85,14.85,0,0,1,1.66.4c-.07-.17-.15-.33-.22-.5a1.56,1.56,0,0,1,2.27-1.74c4.21,3.14,8.46,6.81,13.51,8.4-1.62-2.6-3.16-5.25-5.73-7.07-1.61-1.14-.06-3.81,1.56-2.66,4.14,2.95,5.87,7.28,8.89,11.22A1.55,1.55,0,0,1,1077.17,940.47Z"/><path class="cls-7" d="M1011.1,913.11c.72-2.1.79-4.47-1-6.11-3.45-3.22-8.49,1.36-11.29,4.08,1.43,1.39,2.87,2.76,4.23,4.22.6.65,1.67,2.43,2.45,2.73,1.7.68,3.45-1.09,4.36-2.44A1.68,1.68,0,0,1,1011.1,913.11Z"/><path class="cls-7" d="M1004.85,894.07c2.18,2.77,10.64,6,10.14-.06-.24-2.87-2.65-5.59-4-8a12.89,12.89,0,0,1-.61-1.32,69.15,69.15,0,0,0-8.39,4.15A19.39,19.39,0,0,0,1004.85,894.07Z"/><path class="cls-7" d="M862,885.43c1.34.45,42,11,45,15s10-6,13-7,0,4-2,6-5,3-6,8,4,14,6,20,1,8,6,7,9-2,9-6-3-4-3-6,2-3,4-7-1-20-1-21,1-5-8-6-31-4-36-6-13-7-16-7-7,3-11,5S856,883.43,862,885.43Z"/><path class="cls-7" d="M471,780.43c-2-2-29-15-35-18s-13-7-19-1-24,27-25,28-9,5,1,7c1.39.28,42,6,47,9s4,2,11-4S473,782.43,471,780.43Zm-13,5.31c-5.47,2.37-9.79,5.16-13.52,9.88-1.9,2.41-5.26-1-3.37-3.37A33.25,33.25,0,0,1,453,782.83a8.49,8.49,0,0,1-.88-3.85c-7.49.27-14.3-1.45-20.19-6.1a6.42,6.42,0,0,1-9.32.42c-3.88,8-9.94,14.72-18.68,17.43-2.94.91-4.19-3.7-1.27-4.6,8.47-2.62,14-10.08,17.08-18.08.67-1.76,3.34-2.57,4.36-.57a2.25,2.25,0,0,0,2.43,1.93q2.26,1.74,2.95-1.18a2.41,2.41,0,0,1,3.75-.48c6.17,5.82,13.37,7.08,21.56,6.3,1.62-.15,2.62,1.64,2.3,3-.47,2-.29,3.6,1.39,4.93A2.39,2.39,0,0,1,458,785.74Z"/><path class="cls-7" d="M351,825.43s-14,12-20,15-8,5,0,7,39,4,43,5-3-4-10-5-12-1-12-3,4-4-3-3-11,1-9-2,7-4,12-9,11-7,11-5-6,6-7,8-1,0,0,4-1,7,4,7,20,2,23,6,7,1,8-1,7-7,11-7,13-7,13-10-38-5-41-6-5-7-12-6A20.68,20.68,0,0,0,351,825.43Z"/><path class="cls-7" d="M394,854.43s2,1,6-1,25-18,25-20,0-4-3-2-10,9-12,11-13,4-14,6S392,853.43,394,854.43Z"/><path class="cls-7" d="M369,817.43a35.32,35.32,0,0,0,12,4c7,1,45,5,49,5s10-7,12-10,5-6-5-8-40-4-43-5-9-2-14,0S364,816.43,369,817.43Z"/><path class="cls-7" d="M437,828.43l8-10s3-7,4-3,7,38,6,42-6,9-8,12-7,6-8-1S433,828.43,437,828.43Z"/><path class="cls-7" d="M476,827.43s-10,16-12,19-6,6-7-11-6-21,0-28,13-16,15-18,6-1,6,2-14,19-16,21-6,10-3,7,20-22,21-23,3-4,6-3,3,6,1,7-15,14-15,15,0,2,4-1,12-12,12-12,0-8,3-7,5,5,0,10l-19,19c-3,3-5,7-3,5S477,826.43,476,827.43Z"/><path class="cls-7" d="M330,869.43s1-2,6-3,40,1,45,2,13,1,12,3-55,0-58,1-12-1-14,1-5,4-1,4,7,0,6,1-3,2-3,3,3,1,2,3-3,2-1,2,9,2,19,2,41,1,41,1-11-2-13-3-4-6-3-5,26,3,26,3-3,3-3,4,3,1,7,2,15,4,17,2-3-9-6-12-11-10-10-14,1-6,0-7-66-9-68-9-8-1-10,1,3,4,5,5,1,3-1,4a7.69,7.69,0,0,0-3,2c-1,1,1,2,1,4s-1,2,0,3S328,871.43,330,869.43Z"/><path class="cls-7" d="M107,926.43c1-.1,48-2,53-1s8,1,10,6a26.79,26.79,0,0,1,2,9s10,1,12,0,9-12,8-15-4-7-5-7-8,6-9,7-4-3,0-6,8-7,6-8-54,0-60,1-13-1-16,3S97,927.43,107,926.43Z"/><path class="cls-7" d="M95,940.43s-1-5,7-6,51-2,53-1,4.5,6.5,3.75,8.25S95,940.43,95,940.43Z"/><path class="cls-7" d="M408,869.43s8,13,11,14,14-10,15-14,0-13-1-15-4-2-7,0-7,7-8,6,0-5,3-7,8-7,9-10,1-7-1-8-23,18-24,20A13.49,13.49,0,0,0,408,869.43Z"/><path class="cls-7" d="M524.82,839c.7-.1,1.4-.21,2.13-.38,1-.24,2-.54,3-.86a158.78,158.78,0,0,0-1.22-16.9c-1.21.18-2.41.38-3.58.62a30.12,30.12,0,0,0-3.21.87l.15.64A157,157,0,0,1,524.82,839Z"/><path class="cls-7" d="M545.28,828.21a4.06,4.06,0,0,1,.77-.65c.91-1.39,1.86-2.77,2.65-4.24.11-.2,1.31-2.21,1.09-2.56s-3.88-.52-4.12-.54a68.89,68.89,0,0,0-9.29-.14c.62,4.72,1,9.5,1.18,14.25A33.56,33.56,0,0,0,545.28,828.21Z"/><path class="cls-7" d="M513.85,845.89c-5.12-1.28-8.77-3.78-13.29-6.31-4.32-2.41-.44-9,3.88-6.63s8.29,4.63,12.63,5.65c-.65-4.62-1.36-9.16-2.4-13.75-5.31,1.65-10.74,2.41-15-1.81-6.77-6.63,2.49-16.19,8.29-19.5a40.88,40.88,0,0,1,14.64-4.64c-5.22-1.21-9.73-1.6-12.55-.47-10,4-6,2-14,10s-19,25-20,28-7,7-4,12,3,11,12,10c0,0,15.27-5.51,31.66-12.14C515.06,846.17,514.45,846,513.85,845.89Z"/><path class="cls-7" d="M510,811.32l-.31.22c-1.09.83-4.84,4-4.52,5.52.25,1.26,1.81,1.23,3.28,1.28a13.58,13.58,0,0,0,4.11-.57C511.7,815.6,510.79,813.48,510,811.32Z"/><path class="cls-7" d="M524.39,807.75a3.75,3.75,0,0,1-1.34-1.24,38.45,38.45,0,0,0-6.11,1.36c.89,2.08,1.95,4.08,2.74,6.21.1.28.19.57.29.86a20.76,20.76,0,0,1,2.33-.69c1.75-.39,3.54-.7,5.36-1C527.07,810.89,526.11,808.72,524.39,807.75Z"/><path class="cls-7" d="M560,812.43c-3.91-1.3-12-4.88-20.68-8.17a3.49,3.49,0,0,1-3,1.51l-3.56,0a24.83,24.83,0,0,1,2.39,6.77c1.72-.09,3.42-.15,5.1-.17,4.32-.06,10.33-.39,14.07,2.26,4,2.85,3.56,6.81,1.88,10.61C563.91,817.93,568.24,815.18,560,812.43Z"/><path class="cls-7" d="M458,863.43s10,0,11-2,1-7-1-8-6,3-8,6S456,862.43,458,863.43Z"/><path class="cls-7" d="M432,901.43c1,0,30-10,31-14s-10-12-13-13-9,2-15,6-16,11-11,16S428,901.43,432,901.43Z"/><path class="cls-7" d="M204,929.43s7,0,10,3,5,7,3,8-11,0-12-3S200,929.43,204,929.43Z"/><path class="cls-7" d="M194,932.43s-3,4-3,6,4.33,4.33,6.67,2.67S199,932.43,194,932.43Z"/><path class="cls-7" d="M31,886.43s17,0,19-1-5-3-9-9,2-7,6-9,17-6,18-8-6-2-14,0-20,4-20,7S28,886.43,31,886.43Z"/><path class="cls-7" d="M262,938.43s11,2,13,0,7-11,6-12-5-3-8-1S262,938.43,262,938.43Z"/><path class="cls-7" d="M289,912.43s-1,11,3,12,7-5,7-13a55,55,0,0,0-1-12s-6-1-7,1S289,912.43,289,912.43Z"/><path class="cls-7" d="M294,895.43s6,1,7,0,1-13,0-13-5,0-6,2S294,895.43,294,895.43Z"/><path class="cls-7" d="M522.59,863.73c-.32.38-.58,1-.7.89.32,1,2.45,1.59,3.25,1.76a15.51,15.51,0,0,0,6.51-.38c-.29-2.39-.55-4.79-1-7.16C527.64,860,524.43,861.51,522.59,863.73Z"/><path class="cls-7" d="M534.86,897.91c-6.82-.91-10.53-4.42-16.13-7.83-4.22-2.57-.35-9.22,3.88-6.63,3.34,2,6,5,9.8,6.2a19.67,19.67,0,0,0,2,.5,52.54,52.54,0,0,1-.85-8.67,69.25,69.25,0,0,0-.82-7.89c-.76.14-1.53.27-2.3.37-5.68.71-12.87-.39-15.54-6.25-2.13-4.69,1.06-8.79,4.75-11.45a43.48,43.48,0,0,1,9.06-4.77,23.67,23.67,0,0,0-1.23-2.58c-5.72,2.73-10.84,5.08-14.47,6.53-15,6-34,13-38,13s-17,2-8,8c0,0,34,39,38,38,1.55-.39,14.5-7.53,30.26-16.48Zm-18.63.21c-1.65-.45-3.21-1.1-4.9-.58-2,.62-4.2,2.93-3.47,5.29.56,1.83-1.69,3.68-3.33,2.56-6.34-4.31-14.58-9.11-18.65-15.81a2.32,2.32,0,0,1,.35-2.75c1.9-2,3.6-3,1.43-6.11a13,13,0,0,0-2.75-2.4c-1.63-1.26-3.29-2.42-4.84-3.77a2.29,2.29,0,0,1,.46-3.56c6.43-3.91,13.78-5.75,20.88-8.06,2.79-.91,4,3.47,1.21,4.37-5.66,1.85-11.49,3.36-16.83,6,2.75,2,5.75,4.05,7.13,7.11,1.49,3.3-.11,5.9-2.19,8.25,3.11,4.18,8.33,7.69,12.91,10.72a11,11,0,0,1,3.31-4.59c3.24-2.73,6.68-2.06,10.5-1C520.26,894.51,519.05,898.88,516.23,898.12Z"/><path class="cls-7" d="M544.54,870.35c-1.41.44-2.82.89-4.23,1.32.29,1.57.55,3.15.7,4.75.45,4.7,0,9.32,1.34,13.91a24.2,24.2,0,0,0,3.1-.67l1.36-.41C546.18,883,545.81,876.55,544.54,870.35Z"/><path class="cls-7" d="M555.66,867.6c-1.23.17-2.45.4-3.66.67a147.06,147.06,0,0,1,2.22,18c4.92-2.37,9.72-5.56,12.59-9.31C571.36,871,560.19,867,555.66,867.6Z"/><path class="cls-7" d="M538.72,843.42l-4.31,2.12a29.66,29.66,0,0,1,1.52,3.34,35.92,35.92,0,0,1,3.75-.81Q539.24,845.74,538.72,843.42Z"/><path class="cls-7" d="M541,855.73c-1,.16-2,.36-3.07.62.47,2.52.8,5.08,1.12,7.64l3.53-1.06C542,860.55,541.48,858.14,541,855.73Z"/><path class="cls-7" d="M615,830.43c-9-2-25-3-29-6s-8,0-13,2c-2.56,1-14.33,7-27.22,13.48.63,2.53,1.15,5.06,1.65,7.6,3.31,0,6.65.28,10.07.58,4.9.43,4.92,8.12,0,7.68-2.94-.26-5.79-.48-8.59-.53.37,1.88.77,3.76,1.22,5.64,1.76-.41,3.54-.75,5.35-1,8-1,19.12,4.56,20.14,13.36a10.14,10.14,0,0,1,.06,1.31c10.73-6.34,19-11.4,21.33-13.13,8-6,26-23,29-26S624,832.43,615,830.43Zm-3.69,10c-1.88.8-4.27,1.7-5.71,3.19-1.6,1.65-1.36,3.18-1.66,5.19a8.1,8.1,0,0,1-2.13,4.36c-3.4,3.84-8.6,6.15-13.16,8.27-2.63,1.22-4.93-2.69-2.29-3.92,4.62-2.15,12.56-4.94,13.1-10.61a10.3,10.3,0,0,1,5-8c-5.89-1.77-12-2.93-17.75-5-2.29,2.65-5.45,3.06-9.16,3.2s-5.21,1.16-8.13,3a9.57,9.57,0,0,1-4.89,1.82c-2.92.17-2.9-4.37,0-4.54,3.18-.18,5.77-4,9-4.66,3.53-.74,8.2,1.1,10.36-2.72a2.27,2.27,0,0,1,2.56-1c7.9,3.16,16.43,4.18,24.33,7.33C612.33,836.87,613.33,839.53,611.31,840.39Z"/><path class="cls-7" d="M421,937.43s20-14,19-17-6-4-11-7-12-15-14-15-7,2-8,3-5,6-10,2-6,0-4,4,2,13,0,15-12,7-11,11,5,7,6,7S417,941.43,421,937.43Z"/><path class="cls-7" d="M355,905.43l4-11s3-4-4-3-25-1-29-1-8-4-11-3-6,4-7,4-3,8-1,11-3,17-4,21,3,8,7,10,33,8,35,4S355,905.43,355,905.43Z"/><path class="cls-7" d="M354,938.43s19,3,20-1-13-17-16-16S349,933.43,354,938.43Z"/><path class="cls-7" d="M373,910.43s10-8,10-10-2-7-4-8-8-1-10,2-2,9-1,12S371,910.43,373,910.43Z"/><path class="cls-7" d="M375,917.43s5,5,8,5,7-5,7-9-2-8-4-8-9,6-10,7S373,916.43,375,917.43Z"/><path class="cls-7" d="M434,937.43s18,3,18,0-4-7-6-7S434,932.43,434,937.43Z"/><path class="cls-7" d="M447,923.43s19,14,21,15,9,0,6-2-19-12-22-15S444,919.43,447,923.43Z"/><path class="cls-7" d="M287,931.43s5,1,6,2,1,5,1,5-10,4-10-2S287,931.43,287,931.43Z"/><path class="cls-7" d="M504,938.43s42,1,44,0,8-5,14-5,7,0,8-6,18-12,23-15,37-19,46-20,13,0,18-9,7-22,7-22,0-4-6-7-9,1-6,5,3,16,0,17-7-3-9-3-6,3-6,7,1,5-3,7-5,2-6,4-7,7-13,6-16,2-27,7-63,26-68,28S499,936.43,504,938.43Z"/><path class="cls-7" d="M638,854.43s3,7,6,5,5-5,3-7S638,849.43,638,854.43Z"/><path class="cls-7" d="M625,850.43s6,1,8-1,0-4-3-4S622,846.43,625,850.43Z"/><path class="cls-7" d="M629,862.43c5.39,5.39,1,9,4,9s7-4,7-7-5-9-7-8S627,860.43,629,862.43Z"/><path class="cls-7" d="M616,878.43s7,9,8,7,6-9,5-13-4-8-7-5S615,873.43,616,878.43Z"/><path class="cls-7" d="M602,884.43c1-2,3-9,1-10s-4-3-1-3,5,5,5,5,18-17,17-20-4-1-10,3-17,13-21,15-4,4-2,5,9,3,8,6-2,5-6,3-9-4-11-5-23,15-28,18-25,14-32,17c-5.35,2.29-10.1,4-12.95,5.12-5.52-4.86-23.24-17.31-26.05-20.12-3-3-7-3-8-1s0,14,2,15,6,0,9-1,8-1,7,2a9,9,0,0,1-6,6c-3,1-10,2-14-1s0-5-1-8-3-4-7-4-7-5-4-7,11-6,12-9-3-5-7-4-15,9-15,9-8,3-4,7c0,0,31,27,34,28s13,0,19-3c3.87-1.94,8.57-3,10.35-4.65a7.82,7.82,0,0,0,4.65-.35c5-2,53-26,64-29s21-7,26-7,14,1,9-5S601,886.43,602,884.43Z"/><path class="cls-7" d="M639,838.43s15,5,18,8,8,6,11,4,1-8,4-9,8,1,19,5,57,8,61,8,7,1,4-3a74.2,74.2,0,0,1-8-15c-1-3,2-5-4-6s-74,5-82,4-24-2-24-2-4-1-4,3S639,838.43,639,838.43Z"/><path class="cls-7" d="M732.35,886q.26-2.16.52-4.32c-.7-.23-1.41-.43-2.14-.59a39,39,0,0,0-7.81-.7l-.21,1c-.75,3.74-1.3,7.48-1.75,11.23a34,34,0,0,0,10.38,1.89C731.68,891.73,732,888.88,732.35,886Z"/><path class="cls-7" d="M739.9,885.75a16.94,16.94,0,0,0-2.73-2.06q-.26,2.13-.51,4.26-.38,3.19-.75,6.39c.59-.08,1.17-.17,1.74-.29C742.48,893,743.87,889.48,739.9,885.75Z"/><path class="cls-7" d="M718.31,863.75c1-.23,1.93-.41,2.92-.55.16-1.64.27-3.28.31-4.94-13.25-1.36-29.61-3.36-32.54-4.83-4-2-15-7-15,1s-12,34-12,34-11,9,8,11c1.59.17,29.51,3.27,45.18,4a2.64,2.64,0,0,1,.22-.67c.21-2.45.42-4.89.66-7.33-5.72-2.44-10.66-6.34-13.35-12.35-1.18-2.65,2.73-5,3.92-2.29a21.76,21.76,0,0,0,9.94,10c.29-2.32.63-4.63,1.08-6.94q.35-1.8.71-3.59a23.46,23.46,0,0,1-4.94-.84c-3.59-1.07-6.68-4.54-5.39-8.48S714.56,864.67,718.31,863.75Zm-19.08.7c-1.68-.39-4.06-1.48-5.8-1.17-2.08.37-1.4-.18-1.79,1.88-.31,1.64-.11,3.37-1.12,4.81-2.15,3.07-6.9,1.48-10.41.81-.33,3.29-.31,6.62-1.06,9.85a46.61,46.61,0,0,1-2.62,7.38c6.65-1.22,13.07-2.27,18.33,3.48,2,2.15-1.23,5.37-3.21,3.21-5-5.47-11.84-2.52-18.13-1.58-1.52.23-3.46-1-2.79-2.79,1.34-3.6,3.17-7.14,4-10.9s.68-7.88,1.3-11.77a2.28,2.28,0,0,1,2.19-1.67,35.52,35.52,0,0,1,5.85.76c2.08.39,2.38,1.13,3-1,.52-1.67-.28-3.44.67-5.06,2.36-4,9.42-1.39,12.7-.63C703.28,860.73,702.07,865.11,699.23,864.45Z"/><path class="cls-7" d="M718.18,868.49c-3.3,1.09-8.35,4.42-2.4,6.8a10.15,10.15,0,0,0,3.46.55c.52-2.65,1-5.3,1.42-8A19.13,19.13,0,0,0,718.18,868.49Z"/><path class="cls-7" d="M734.28,859.45l-.28,0c-2.17-.18-4.9-.43-7.94-.72q-.07,2.08-.25,4.13a40.89,40.89,0,0,1,8.5.77Q734.34,861.54,734.28,859.45Z"/><path class="cls-7" d="M733.39,877.11c.32-3,.59-5.92.76-8.88a33,33,0,0,0-4.65-.65c-1.38-.1-2.8-.17-4.22-.15-.39,2.79-.89,5.56-1.43,8.34.45,0,.88,0,1.28,0A45.34,45.34,0,0,1,733.39,877.11Z"/><path class="cls-7" d="M809,860.43c-2-3-15-3-20-2-4.45.89-35,1.78-50.17,1.26,0,1.74.05,3.48,0,5.21a22.22,22.22,0,0,1,4.39,2.3c2.09,1.43,3.69,3.45,5.59,5.08.93-2.4,1.82-4.81,2.91-7.15,1.23-2.65,5.14-.34,3.92,2.29-1.36,2.93-2.36,6-3.6,9a2.31,2.31,0,0,1-3.33,1.36c-3.08-1.67-4.94-4.61-7.76-6.61a16.41,16.41,0,0,0-2.34-1.37c-.21,3-.5,6-.84,9,3.63,1.8,7.24,4.65,8.78,8.21,3.45,8-4.17,10.9-11.12,11.6l0,.18c-.15,1.21-.17,2.63-.41,3.93,19.92-1.09,57.64-2.68,60-4.26,3-2,4-1,8-10S811,863.43,809,860.43Zm-11.73,25.46c-4.15,1.93-8.26-1.4-10.14,4.62-.83,2.67-1.24,4.37-4.06,5.65s-6.16,1.3-9.17,1.51c-4.19.29-8.36.66-12.56.7-2.93,0-2.92-4.51,0-4.54,4,0,7.94-.4,11.92-.66,4.44-.29,7.63.28,9.54-4.45,1.09-2.7,1.55-4.82,4.52-6.11,2-.85,5.78.18,7.18-.78.55-.38.69-2.16.42-3.21-.43-1.68.46-.81-1-1.5-2.21-1-4.91-.27-7.12-1.81-3.08-2.16-2.31-4.65-.91-7.1-6,.71-11.77,3.12-17.87,3.49-2.92.18-2.9-4.36,0-4.54,7.51-.46,14.4-4,22-3.67a2.3,2.3,0,0,1,2,3.41c-.74,1.39-2.53,2.82-2,4.28s3,1.2,4.39,1.45c1.87.32,3.7.69,4.66,2.5C800.42,877.75,800.36,884.45,797.27,885.89Z"/><path class="cls-7" d="M730.54,902.12c-.33.7.06-1.33.11-1.7.07-.56.13-1.11.2-1.67-.81,0-1.57-.08-2.23-.15a49.6,49.6,0,0,1-8.13-1.6c-.22,2.18-.43,4.37-.63,6.56a37.14,37.14,0,0,0,4.13-.13c1.24-.14,3.44-.3,6.32-.47A2.41,2.41,0,0,1,730.54,902.12Z"/><path class="cls-7" d="M642.73,908.42c.49-.06,1-.11,1.46-.14a18.55,18.55,0,0,1,6.91.59,10.48,10.48,0,0,1,2.47,1.32,21.23,21.23,0,0,0-.89-3.9c-.94-2.78,3.44-4,4.38-1.21a38,38,0,0,1,1.46,9.1,2.28,2.28,0,0,1-2.87,2.19c-1.79-.55-2.93-1.58-4.55-2.43a13.07,13.07,0,0,0-7.48-1.08c.69,4.06,1.16,8.19,1.93,12.23a24.44,24.44,0,0,1,15.36,2.11c5.42,2.67,8.27,6.44,7.94,12,20.86-.15,36.87-.38,36.15-.73-2-1-12-28-13-31s-13-2-20-2-15-5-23-8c-3.47-1.3-7.12-.91-10.55.11a2.39,2.39,0,0,1,.39.49A36.62,36.62,0,0,1,642.73,908.42Z"/><path class="cls-7" d="M651.45,929.13a18.3,18.3,0,0,0-4.93.25,36.37,36.37,0,0,0,2.94,7.77,2.38,2.38,0,0,1,.13.34c.18.29.36.58.56.85l.14.18.31.35c.13.14.28.26.42.39l13.29-.07C664.82,932.64,657.3,929.66,651.45,929.13Z"/><path class="cls-7" d="M641.13,926.11c-.39-1.81-.73-3.62-1-5.36-.43-2.33-.74-4.68-1.1-7a51.14,51.14,0,0,0-9.28,3.59c1.26,3.75,2.19,7.64,3.18,11.52,1.93-.51,3.82-1.25,5.57-1.87Q639.81,926.5,641.13,926.11Z"/><path class="cls-7" d="M645.17,938.95a2.13,2.13,0,0,1-.29-.9,46.32,46.32,0,0,1-2.69-7.53c-2,.66-4,1.43-6.12,2.08-.64.2-1.32.38-2,.54q.53,1.88,1.15,3.72a10.23,10.23,0,0,1,1.35,2.46l8.83,0Z"/><path class="cls-7" d="M630.09,912.17a53.35,53.35,0,0,1,8.1-2.89,29.89,29.89,0,0,0-3.27-9,2.16,2.16,0,0,1-.31-1.38c-3,1.25-5.61,2.68-7.61,3.48-.82.33-2.3,1-4.25,1.92a34.3,34.3,0,0,1,5.33,8.72Z"/><path class="cls-7" d="M622,923.32c-.66,2.52.8,4.54,3.11,5.48a9.32,9.32,0,0,0,3.33.66c-.82-3.4-1.62-6.82-2.69-10.12C624.09,920.27,622.52,921.39,622,923.32Z"/><path class="cls-7" d="M631.48,939.34a2.49,2.49,0,0,0-.37-.33,2.33,2.33,0,0,1-.9-2.91q-.34-1.14-.65-2.3c-5,.26-10.05-1.18-11.84-6.51-1.95-5.8,1.88-9.56,6.44-12.22a29.92,29.92,0,0,0-4.63-7.55,2.28,2.28,0,0,1-.57-1.35c-11,5.37-29.27,14.79-36,19.25-9,6-5,14-5,14h17.85a2.32,2.32,0,0,1,.55-1.34c-.87,1-.84.07-1.77-1-.63-.69-1.32-1.32-2-2-1.06-1-2.21-1.86-3.22-2.88a2.29,2.29,0,0,1,0-3.21c2.51-2.13,5.5-3.44,8.15-5.36,2.81-2,5.34-4.26,8.44-5.87,2.59-1.34,4.88,2.57,2.29,3.92-2.95,1.53-5.36,3.62-8,5.57-1.79,1.31-3.81,2.3-5.67,3.5,2.77,2.34,6.5,5.47,5.93,8.57C609.43,939.4,620.24,939.38,631.48,939.34Z"/><path class="cls-7" d="M722.94,925a85.18,85.18,0,0,0,19.24,12.83c0-1.09.06-2.15.13-3,.21-2.38.33-4.77.39-7.15-.94-.17-1.88-.37-2.8-.62-2.63-.72-6.09-1.8-7.25-4.55-1.28-3,1-6,3.53-7.62a16.41,16.41,0,0,1,6.35-2.05q-.06-2.24-.09-4.48c-10.91-.25-28.42-.9-32.43-.9-5,0-12-1-9,2,0,0,14,29,16,29,.69,0,8.15.24,17.72.51a84.57,84.57,0,0,1-15-10.74C717.57,926.23,720.78,923,722.94,925Z"/><path class="cls-7" d="M736.77,920.66c.27,1.17,3.37,1.73,4.33,2,.54.15,1.09.28,1.64.4q0-2.73-.09-5.46C739.78,917.92,736.32,918.71,736.77,920.66Z"/><path class="cls-7" d="M753.08,929.72a24.92,24.92,0,0,0-3.06-.85c-.92-.19-1.85-.35-2.78-.5,0,.4,0,.79,0,1.19-.12,2.9-.06,6.4-.44,9.71l6.8.16C754.15,936.87,753.49,932.78,753.08,929.72Z"/><path class="cls-7" d="M759.46,933.35a19.9,19.9,0,0,0-1.91-1.44,38.1,38.1,0,0,1,.37,7.6l4.62.09C764.77,937.63,761.35,935,759.46,933.35Z"/><path class="cls-7" d="M752.88,917a47.92,47.92,0,0,0-5.7.24c.06,2.2.11,4.39.12,6.59,1.44.22,2.88.43,4.3.75.41.09.8.2,1.19.31C752.79,922.26,752.82,919.63,752.88,917Z"/><path class="cls-7" d="M752.54,912.48l.43,0c0-1.35,0-2.69.06-4-1.63,0-3,0-4,0l-2,0q0,2,.09,4C749,912.39,750.91,912.44,752.54,912.48Z"/><path class="cls-7" d="M836,868.43c-1-2-21,7-25,16s2,19-12,22c-10.69,2.29-29.55,2.25-41.42,2.1q0,2.43-.12,4.88c2.83,1.07,4.91,2.94,7.31,4.87a13.72,13.72,0,0,0-1.07-3.7c-1.24-2.63,2.67-4.93,3.92-2.29,1.57,3.32,1.6,6.65,2.23,10.21a2.3,2.3,0,0,1-3.33,2.56c-3-1.79-5.07-4.69-8-6.5a9.22,9.22,0,0,0-1.2-.62c-.08,2.87-.12,5.75-.05,8.61a27.16,27.16,0,0,1,8,6c1.86,2,3.5,4.6,3,7.11,6.55.07,11.2,0,11.74-.25,2-1,15-11,19-14s27-24,26-27-5-6-5-9,3-5,5-5,4,9,6,8S837,870.43,836,868.43Z"/><path class="cls-7" d="M826.89,849.83c-1.68-1.92-3.38-3.82-5.06-5.74-1.39-1.59-2.78-3.31-4.27-4.94-2.43,1.37-4.79,2.91-6.68,4.06,1.89,2.64,3.79,5.23,5.83,7.61.67.78,1.36,1.56,2,2.34a10.28,10.28,0,0,0,5.17-1.1A13.94,13.94,0,0,0,826.89,849.83Z"/><path class="cls-7" d="M808.3,839.62l.39-.2c1.81-.92,3.71-2.16,5.69-3.4a17.65,17.65,0,0,0-5.32-3.24,2.29,2.29,0,0,1-1.53-2.18,6.34,6.34,0,0,1-1.53-.18c-1.12-.37-4-1.16-7.46-2.16A67.62,67.62,0,0,1,808.3,839.62Z"/><path class="cls-7" d="M823.48,857.11c-.38.11-.76.19-1.14.26.25.32.52.63.76,1,1.51,2,2.22,4,4.82,4a12.9,12.9,0,0,0,2.48-.32,18,18,0,0,1,2.22-5.43q-1.39-1.7-2.81-3.36A15.19,15.19,0,0,1,823.48,857.11Z"/><path class="cls-7" d="M821.72,837.09l1.47,1.66c2.18,2.49,4.38,5,6.56,7.45,1.51-2.63,2.1-5.62.59-8.11C828.66,835.27,825.35,835.61,821.72,837.09Z"/><path class="cls-7" d="M847,824.43c-6.37,2.83-22.73,5.16-32.83,5.92a28.73,28.73,0,0,1,4.23,3.32c3.58-1.88,7.34-3.11,11.17-2,8.06,2.38,6.9,12.29,3.2,18,.89,1,1.77,2.09,2.64,3.15a2,2,0,0,1,.85-.53c.73-3.09,3-6.39,4.08-8.54,3.48-6.93,8.08-12.31,8.66-20.1C848.35,823.88,847.68,824.13,847,824.43Z"/><path class="cls-7" d="M794.67,838.82c.56,4.38,5.13,3.94,9.12,2.65a53.69,53.69,0,0,0-8.52-10A25.27,25.27,0,0,0,794.67,838.82Z"/><path class="cls-7" d="M809,848.56c-.84-1.05-1.64-2.14-2.44-3.25-4.8,1.75-11.44,2.91-14.79-1.51-3.47-4.58-.7-11.28-.49-16.38a2.31,2.31,0,0,1,.28-1,2.73,2.73,0,0,1,.12-.26c-3.71-1.23-7.07-2.55-8.63-3.71-4-3-15-1-20,1s-10,8-8,14,8,17,13,18l6.68-.72c-2.45-1.54-3.19-3.06-3-6.27.15-2.89-1.49-2.52-3.67-3.51a5.9,5.9,0,0,1-3.29-3,2.31,2.31,0,0,1,1.36-3.33c4.16-1.39,9.38-1.81,12.14-5.62,1.7-2.34,5.63-.08,3.92,2.29-2.75,3.79-6.53,5.17-10.6,6.4,1.59.56,3.34,1.06,4.14,2.73a8.88,8.88,0,0,1,.49,4.4c-.08,1.89,0,1.65,2,2.7a2,2,0,0,1,.89,2.78c11.08-1.18,26.68-2.82,28-2.82a1.88,1.88,0,0,1,1.11.59l.22,0a22.71,22.71,0,0,1,3.71.31C811,851.07,810,849.83,809,848.56Z"/><path class="cls-7" d="M818.74,860.14c-.76-.92-1.54-1.83-2.32-2.74-1.68-.21-3.36-.51-5-.7a40.59,40.59,0,0,1,2.62,5.73c1,3,1,8,5,7a65.51,65.51,0,0,0,6.25-2.42,4.24,4.24,0,0,1-.63-.18C822,865.77,820.45,862.2,818.74,860.14Z"/><path class="cls-7" d="M872,828.43c-7.38-3.69-12.58-6.28-18.41-5.78-.21,9.74-5.88,16.32-10,24.82-.44.9-3.3,5.42-3,6.39.4,1.17,3.46,2.14,4.72,1.89,3.79-.78,4.56-8,5.34-11.08a2.3,2.3,0,0,1,3.79-1c3.63,3.06,2.37,9.61.13,13.19a8.34,8.34,0,0,1-5.21,3.8c-.77.2-4.13.16-4.42.64s.3,1.95.32,2.63c.06,2.39-1.41,4.92-3.48,5.13,2.9,3.73,5.06,8.38,7.22,8.38,3,0,27-21,30-32S882,833.43,872,828.43Z"/><path class="cls-7" d="M893,937.43s20,2,21,0-2-12-3-13-6,4-10,7Z"/><path class="cls-7" d="M800,937.43s32,3,34,1-2-9-7-7-10,2-13,1S800,937.43,800,937.43Z"/><path class="cls-7" d="M830,922.43s18,19,25,16,27-15,25-18-11,2-14-2-1-4,3-6-6-8-12-7-13,0-12-5,5-7,6-8,6-2,6-2-7-4-13,1-5,16-8,19S826,919.43,830,922.43Z"/><path class="cls-3" d="M42.5,360.93s29,26,56,30,42.5,1.5,48.5,1.5,8,0,8-9,4-50,3-54-31-6-42-11-35-18-37-20-8-5-12,1-23,40-26,43S29,350.43,42.5,360.93Z"/><path class="cls-5" d="M87.17,332.89c-.6,1.94,1.72,5.34,2.76,7A15.25,15.25,0,0,0,95,344.58q1.82-3.86,3.74-7.65a42.13,42.13,0,0,1,2.93-4.86,47.94,47.94,0,0,0-7.76-.94C92,331.06,87.85,330.71,87.17,332.89Z"/><path class="cls-5" d="M109.79,357.41c-1.41,3.17-2.71,6.35-3.88,9.68A15.23,15.23,0,0,1,105,369c.72.1,1.44.17,2.15.2,6.47.31,10.51-4.71,5.23-9.66A23.2,23.2,0,0,0,109.79,357.41Z"/><path class="cls-5" d="M101.53,365.88c1.33-3.72,2.69-7.3,4.3-10.85-1.74-.93-3.51-1.79-5.22-2.66-1.11-.56-2.25-1.15-3.4-1.75l-.24.52c-2.08,4.44-3.77,9.1-6.15,13.39l.11,0a82,82,0,0,0,9.64,3.47A20.06,20.06,0,0,0,101.53,365.88Z"/><path class="cls-5" d="M106.36,333.21a43.07,43.07,0,0,0-2.81,4.34c-1.64,2.95-3.09,6-4.51,9.13,1.67.78,3.35,1.52,4.9,2.31,1.14.59,2.46,1.24,3.84,2,2.26-4.76,3.93-9.8,6.23-14.49a20,20,0,0,0-4.3-2.16C108.62,333.9,107.5,333.54,106.36,333.21Z"/><path class="cls-5" d="M144,332.43c-6-1-45-13-50-15s-17-11-18-11-4-4-9,5-20,33-20,33-5,3,0,8c0,0,26,21,33,25s35,7,46,8,21,4,22-6,1-42,1-42S150,333.43,144,332.43ZM63,348a9.4,9.4,0,0,1-3,3.7l-.7.55a7.55,7.55,0,0,0,1,.32c2.85.65,1.64,5-1.21,4.37-2-.47-5.16-1.73-5.33-4.19a4.45,4.45,0,0,1,1.52-3.09c.51-.55,1.36-.88,1.82-1.46,1.46-1.84,2.07-5.2.64-7.14a2.3,2.3,0,0,1,.35-2.75c6.09-6.27,16.39-10.62,14.25-21-.32-1.55,1-3.43,2.79-2.79,3.21,1.18,6.29,2.86,9.73,3.25,2.87.33,2.9,4.87,0,4.54a30.72,30.72,0,0,1-7.73-2.18c-.06,9.27-7.93,13.76-14.55,20.08A8.12,8.12,0,0,1,63,348Zm56.69,17.38c-1.23,8.37-9.65,8.93-16.71,7.69a7.3,7.3,0,0,0-.67,2.69c0,2.92-4.57,2.92-4.54,0a10,10,0,0,1,.87-3.7l-1-.29a74.82,74.82,0,0,1-9.48-3.48,7,7,0,0,0-1.55,3.15c-.14,2.91-4.68,2.92-4.54,0,.09-1.87,1.24-3.62,2.36-5.24-.35-.23-.71-.46-1-.71-5-3.74-8.45-9-12.32-13.77-1.82-2.25,1.38-5.48,3.21-3.21,3.92,4.86,7.46,10.27,12.57,13.82,1.77-3.22,3.17-6.64,4.66-10,.58-1.31,1.19-2.61,1.79-3.92-5.59-3.43-10.46-7.94-10.82-15.2-.42-8.54,13.08-6.72,18.11-5.89,1.34.22,2.69.48,4,.78,1-1.26,2-2.52,2.92-3.81,1.74-2.31,5.67,0,3.92,2.29-.7.93-1.42,1.85-2.15,2.77a42.53,42.53,0,0,1,4.41,1.65,14,14,0,0,1,2.49,1.47,31.11,31.11,0,0,1,3.35-4.48c2-2.17,5.17,1.05,3.21,3.21a27.85,27.85,0,0,0-3.11,4.2c2.67,2.51,5.26,5.12,8.61,5.84,2.86.61,1.64,5-1.21,4.37s-5.2-2.34-7.36-4.38c-.73-.69-1.43-1.34-2.13-2-2.16,4.54-3.71,9.43-5.85,13.94C116.35,356.15,120.43,360.06,119.65,365.39Zm25.9-12.06c-1.45,3.55-3.46,6.7-4.44,10.47-1.35,5.17,2.16,10.13-2.89,13.71a22.82,22.82,0,0,1-11.56,3.69c-2.92.15-2.9-4.38,0-4.54a19.66,19.66,0,0,0,7.32-2c3.11-1.52,2-3.16,1.88-6-.36-6.28,3.53-10.78,5.19-16.4,1-3.35-2-3.77-4.15-5.57a7,7,0,0,1-2.75-4c-.7-3.64,2.58-6.19,4.92-8.37,2.13-2,5.34,1.21,3.21,3.21-1.64,1.54-2.49,1.7-2.27,4.13s.79,2.1,2.57,3.38c1.42,1,2.94,2.18,3.5,3.92A6,6,0,0,1,145.55,353.32Z"/><path class="cls-3" d="M466,221.43s37,2,46,23,14,40,19,39,54-52,52-59-29-30-43-40-40-22-45-22-8,6-11,12-19,35-22,38S459,219.43,466,221.43Z"/><path class="cls-5" d="M501,175.43a14.07,14.07,0,0,0-13,7c-5,8-16,25-16,25s-8,8,4,8c0,0,15,1.76,23.42,6.93a2.22,2.22,0,0,1,.48-.53,24.16,24.16,0,0,0,2.21-2c-3.65-3.93-5.62-8.72-9.21-13.11-1.83-2.24,1.36-5.47,3.21-3.21,2.26,2.77,3.81,5.85,5.67,8.88a22,22,0,0,0,3.21,4.08c2.6-3.4,4.82-7.19,7.5-10.48-4.6-3.18-8.24-7.16-6.05-12.73,2.7-6.89,10.12-6,17.76-2.53a38.62,38.62,0,0,1,2.88-3,2.16,2.16,0,0,1,1.6-.62C518,180.24,507.51,175,501,175.43Zm1.06,11.19c-6.74-1-8.68,5.7-11.46,10.39a52.55,52.55,0,0,1-4.17,5.63c-2.68,3.4-.72,5.89.42,9.36.91,2.79-3.47,4-4.37,1.21-1.27-3.88-3.83-6.56-1.58-10.59,2-3.57,5-6.44,7-10.08,3.6-6.58,7.17-11.55,15.37-10.29C506.15,182.69,504.92,187.06,502.06,186.62Z"/><path class="cls-5" d="M512.9,221.92c2.4-3.77,4.65-7.63,7.22-11.3-1.17-.71-2.46-1.44-3.78-2.22-2.9,3.37-5.19,7.33-7.87,10.92.65.45,1.33.88,2.05,1.31S512.08,221.5,512.9,221.92Z"/><path class="cls-5" d="M523.79,213.21c-2.4,3.37-4.47,6.93-6.65,10.43a16.48,16.48,0,0,0,5.85.82c4.23-.26,6.78-3.33,4.27-7.3A18.45,18.45,0,0,0,523.79,213.21Z"/><path class="cls-5" d="M535.4,193a2.22,2.22,0,0,1,1.25-.61c-2-1.37-3.95-2.71-5.93-4a2,2,0,0,1-.44,2.5c-.68.63-1.33,1.29-2,2,1.52.86,3,1.8,4.44,2.76C533.62,194.72,534.49,193.84,535.4,193Z"/><path class="cls-5" d="M522.81,207q3.23-4.18,6.77-8.07c-1.43-.87-2.88-1.67-4.33-2.4-2.11,2.74-4.07,5.64-6.15,8.4,1.29.7,2.45,1.31,3.26,1.8Z"/><path class="cls-5" d="M565,214.43c-3.66-3.21-14-11.87-25.76-20.22a2,2,0,0,1-.64,2c-.72.68-1.4,1.38-2.1,2.08a48.92,48.92,0,0,1,7.77,7c1.81,2.26-1.38,5.48-3.21,3.21a39.8,39.8,0,0,0-7.66-7.06q-3.63,3.91-6.9,8.13c3.15,2.55,5.93,5.83,6.54,9.7.78,4.92-3.46,8.63-7.94,9.48a20.24,20.24,0,0,1-10.54-1.18c-.57.84-1.16,1.66-1.77,2.47-1.74,2.3-5.68,0-3.92-2.29.51-.67,1-1.35,1.48-2a43.87,43.87,0,0,1-4.79-2.91l0,0A24.8,24.8,0,0,1,503.1,225l-.08.05c7.59,6.62,16.31,18.84,20,24.34,4,6,10,17,10,17s1,5,7-1,28-33,30-38S573,221.43,565,214.43Zm-4.46,9.52c-1.66,2.26-3.94,3.29-3.08,6.25.72,2.49,1.72,3.31.78,6.07-1.44,4.23-5.71,10-9.28,12.71-4.62,3.56-10.69,3.63-16.06,2.14-2.81-.78-1.61-5.16,1.21-4.37,5.29,1.47,10.55.89,14.15-3.52,1.3-1.59,2.43-3.36,3.59-5,1.67-2.42,1.84-3.82,1.06-6.59-.7-2.47-.81-4,.65-6.27s6-5.2,3-7.79c-2.22-1.91,1-5.1,3.21-3.21C563.16,217.24,563.07,220.51,560.54,223.95Z"/><path class="cls-5" d="M519.78,194.13c-2.71-1-7.95-2.83-9.23,1-1,2.85,1.59,5.41,4.68,7.5,2-2.6,3.87-5.34,5.83-8Z"/><path class="cls-3" d="M333.27,428.43s27,7,38,9,25,3,30,7,12,1,15-9,6-34,3-38-51-32-74-29-15,5-16,13,0,43,0,43S327.27,427.43,333.27,428.43Z"/><path class="cls-5" d="M376.28,410.52c-1.36-.53-2.76-1-4.17-1.38-.07,1.1-.14,2.19-.19,3.29-.15,3.25,0,6.49.08,9.73a31.65,31.65,0,0,0,4,.82C376.1,418.83,376.23,414.68,376.28,410.52Z"/><path class="cls-5" d="M384,415.44a17.25,17.25,0,0,0-3.19-2.65c-.06,3.38-.17,6.76-.26,10.14.17,0,.35-.06.52-.1C385.12,421.77,386.92,418.59,384,415.44Z"/><path class="cls-5" d="M361.18,393.92c-2.36,2,2.5,6.35,4.29,7.69a12.82,12.82,0,0,0,2.42,1.4c.06-3-.21-6-.22-9,0-.43,0-.86,0-1.3C365.19,392.52,362.57,392.74,361.18,393.92Z"/><path class="cls-5" d="M372.52,393.7c0,2.19-.09,4.35-.05,6.37,0,1.47,0,2.93-.09,4.4,1.08.28,2.17.55,3.26.88l.7.24c.08-3.21.28-6.45.39-9.67a18.74,18.74,0,0,0-4.2-2.21Z"/><path class="cls-5" d="M397.27,392.43c-15-8-42-21-50-19s-9-2-10,5,0,20,0,20-3,24,0,25,60,13,64,14,6,3,7-8,2-26,2-26S412.27,400.43,397.27,392.43Zm-52.85,26.35a10,10,0,0,1-2.5-9.47c.76-4.06,2.15-6.73.9-10.87a20.91,20.91,0,0,1-1-4.26c-.31-3.34-.3-8.36,2.29-10.92,2.78-2.74,7.16-2,10.66-1.86,2.92.09,2.92,4.63,0,4.54-3.19-.1-6.8-1.19-8.18,2.38-1.18,3.06,0,6.91,1.09,9.67,2.31,5.79-4.29,12.68-.06,17.58C349.52,417.78,346.33,421,344.41,418.78Zm42-7.33c6.9,6.33,3.21,15-5.93,16.08,0,.63,0,1.27,0,1.9,0,2.92-4.55,2.92-4.54,0,0-.63,0-1.25,0-1.88a31.16,31.16,0,0,1-4.14-.66c-1,1.77-4.28,1.41-4.26-1.08v-.18a34.22,34.22,0,0,1-3.64-1.56c-5.31-2.67-7.81-7.71-12.2-11.4-2.24-1.88,1-5.08,3.21-3.21s3.83,4.28,5.81,6.45a18.78,18.78,0,0,0,6.85,4.81c0-4.31.11-8.61.22-12.92a20.2,20.2,0,0,1-9.47-7.12c-5-6.77-1.33-11.37,6.31-12.18a28.66,28.66,0,0,1,3.1-.16,10.45,10.45,0,0,0-.89-3.76c-1.24-2.63,2.67-4.93,3.92-2.29a19.58,19.58,0,0,1,1.63,6.58,15.53,15.53,0,0,1,1.65.49,22,22,0,0,1,2.79,1.26c0-1.32-.06-2.63-.16-3.93-.23-2.92,4.31-2.89,4.54,0,.18,2.25.2,4.52.16,6.8l.34.24c2.41,1.74,4.51,4.24,7.33,5.27s1.54,5.38-1.21,4.37a24.33,24.33,0,0,1-6.66-4.09c-.13,2.77-.26,5.53-.28,8.27A27.76,27.76,0,0,1,386.37,411.45Zm8.29,20.69c-2.52,1.5-4.8-2.43-2.29-3.92a14.35,14.35,0,0,0,6.88-8.43c1.2-4.23-.78-4.13-2.46-7a5.28,5.28,0,0,1-.6-4.48c.39-1.24,3.1-3.59,2.1-4.68-2-2.14,1.22-5.35,3.21-3.21s2.3,4.16.82,6.67c-1.19,2-2,2.39-.52,4.46.79,1.13,1.8,1.74,2.3,3.1C406.47,421.28,399.76,429.11,394.66,432.14Z"/><path class="cls-3" d="M1043.5,198.43s17,12,33,16,44,8,46,6,8-40,7-51c0,0-2-5-11-5s-55-1-59-2-17,0-16,8-1,22-1,22S1040.5,196.43,1043.5,198.43Z"/><path class="cls-5" d="M1079.59,183.45c.06-2,.06-4,0-6.06a8.89,8.89,0,0,0-2.55.88C1073.55,180.17,1076.73,182.19,1079.59,183.45Z"/><path class="cls-5" d="M1088.9,191.09c-1.66-.62-3.38-1.1-5.11-1.57,0,.31-.06.63-.1.94-.36,3-1,6-1.37,9a37.33,37.33,0,0,0,4.09.61c.77.07,1.72.13,2.72.12Q1089,195.67,1088.9,191.09Z"/><path class="cls-5" d="M1093.5,193.45q.08,3,.15,5.92a4.19,4.19,0,0,0,1-.69C1096.83,196.57,1095.36,194.76,1093.5,193.45Z"/><path class="cls-5" d="M1088.56,173.8c0-.74,0-1.48,0-2.23l-4.45-.19c0,.49,0,1,0,1.47A29,29,0,0,1,1088.56,173.8Z"/><path class="cls-5" d="M1088.77,186.42q-.11-4-.17-7.94a23.64,23.64,0,0,0-4.41-1.13c0,2.58,0,5.16-.07,7.73C1085.65,185.54,1087.22,186,1088.77,186.42Z"/><path class="cls-5" d="M1089.23,207.26c0-.85,0-1.7,0-2.55-.46,0-.91,0-1.34,0a37,37,0,0,1-5.65-.58c0,.25,0,.51.05.76a2,2,0,0,1-.27,1.33l3.5,1.17c1.24.46,2.74,1,4.4,1.43A2.09,2.09,0,0,1,1089.23,207.26Z"/><path class="cls-5" d="M1123.5,176.43c-1.07-2.66-16-3.91-30.4-4.64,0,1.22,0,2.44,0,3.66a33.66,33.66,0,0,1,3.88,2c2.49,1.53.21,5.45-2.29,3.92-.47-.29-1-.58-1.53-.87q.07,3.79.19,7.58a15,15,0,0,1,5.7,4.36c4.29,5.5-.12,9.56-5.31,11.32,0,1.16,0,2.32,0,3.48a2.09,2.09,0,0,1-1.83,2.16c9,2.36,21.21,4.15,23.56,1C1118.5,206.43,1125.5,181.43,1123.5,176.43Zm-7.87,26c-1.62,2.93-5,4.42-7.65,6.15-2.47,1.59-4.74-2.34-2.29-3.92,1.71-1.1,4.25-2.11,5.42-3.82,1.45-2.12.91-4.66.89-7.12,0-1.11.53-3.54,0-4.09s-2.92-.51-3.84-.89c-1.88-.79-3.21-2.23-2.92-4.4a4.38,4.38,0,0,1,1.35-2.53c-1.54-.92-1.1-4,1.26-4.29a12.08,12.08,0,0,1,4.44.25,2.28,2.28,0,0,1,1.36,3.33c-.39.55-3.27,3-3.23,3.25.09.68,2.89.88,3.59,1.23a4.75,4.75,0,0,1,2.84,5C1116.72,194.15,1117.46,199.09,1115.63,202.4Z"/><path class="cls-5" d="M1077.62,203c-5.21-1.79-9.76-5-11.81-10.29-1.06-2.73,3.33-3.9,4.38-1.21,1.29,3.32,4.32,5.44,7.77,6.76.3-2.22.74-4.44,1-6.59.15-1.15.27-2.31.36-3.46a21.45,21.45,0,0,1-3.88-1.78c-4-2.4-6.85-7.59-2.31-11.2a12.18,12.18,0,0,1,6.44-2.44q0-.79,0-1.58c-6.76-.27-11.91-.48-13.07-.77-4-1-15-2-15,4v15s-1,5,2,7c.64.43,14,5,24.22,8.4C1077.66,204.22,1077.63,203.6,1077.62,203Zm-14-22.28a11.74,11.74,0,0,1,.69,3.23c-.12,3-2.25,4.3.17,7.06,1.92,2.19-1.28,5.41-3.21,3.21a9.85,9.85,0,0,1-2.74-5.2c-.25-2,.89-3,1.17-4.83.34-2.2-1.28-4-.68-6.35a13,13,0,0,1,4.08-6c2.13-2,5.34,1.2,3.21,3.21C1064.53,176.68,1063,178.15,1063.58,180.7Z"/><path class="cls-3" d="M947.67,69.91s28,9.83,34,18.15S989.26,101.67,993,99.4s28-29.5,37.06-33.28,38.57-18.91,38.57-18.91,6.05-3.78.76-9.83-28.74-34.79-28.74-34.79-4.54-5.29-18.15-.76-50.67,21.93-71.85,45.38S947.67,69.91,947.67,69.91Z"/><path class="cls-5" d="M993.17,21.64a30.37,30.37,0,0,1,11.77-.83c-.48-1.23-.94-2.47-1.32-3.75a2.9,2.9,0,0,1-.12-.77C1000.19,17.9,996.71,19.69,993.17,21.64Z"/><path class="cls-5" d="M978.6,41.14c.76.11,1.16.21,2,.28a83,83,0,0,0,11.56,0,45.59,45.59,0,0,0-7-9.5q-1.38,1-2.72,2.24A18.24,18.24,0,0,0,978.92,38a6.65,6.65,0,0,0-.93,2.45,1.33,1.33,0,0,0,.2.59A1.81,1.81,0,0,0,978.6,41.14Z"/><path class="cls-5" d="M1006.14,40.56c-2.52-5.11-5.46-10.06-9.72-13.87a26.37,26.37,0,0,0-6.64,2.3,63,63,0,0,1,8.39,12C1000.84,40.82,1003.5,40.64,1006.14,40.56Z"/><path class="cls-5" d="M1062.63,39.65c-3-4.54-25.71-31-25.71-31s-.76-5.29-13.61-.76c-3.64,1.28-9,3.42-15.31,6.29a2.68,2.68,0,0,1,1,1.42c.83,2.76,2,5.38,3,8.07.78,2.07-1.52,3.86-3.4,3.4a30.67,30.67,0,0,0-4.86-.79,64.36,64.36,0,0,1,8.49,14.17c6.57,0,14.71.56,18.15,5.74,4.15,6.25-1.31,13.35-7.16,17.84.09.48.17,1,.23,1.47a2.89,2.89,0,0,1,0,.37c9-6.56,17.65-12.51,21.81-14.11C1055.06,48,1065.65,44.19,1062.63,39.65Zm-17.06,8.65c-1.72,1.34-4.16-1.07-2.43-2.43,2.24-1.75,1.72-2.11.83-4.34a8,8,0,0,1-.52-4.49c.5-2.68,2.18-4.49-.69-6.38a14.22,14.22,0,0,0-6.79-2.42c-3.92-.43-6.17-1.52-7.35-5.36-.72-2.35-.39-3.63-3.06-3.27-2.3.32-4.55,1.61-6.72,2.39s-3-2.57-.91-3.31c3-1.09,10-4.92,12.55-1,1.89,2.88.48,6.07,4.62,7,2.72.6,5,.6,7.5,1.92,1.86,1,4.28,2.25,5.25,4.22,1.34,2.73-.59,4.35-1,6.91-.36,2.29,1.42,3.59,1.66,5.7S1047.13,47.08,1045.56,48.3Z"/><path class="cls-5" d="M1018.52,67c-.51.27-1,.5-1.47.7a33.9,33.9,0,0,1-6.06,1.91c-.41,2.54-4.34,3.39-5.24.74-9.52.64-19.44-2.42-25.37-10-2.17-2.77,1.71-6.7,3.91-3.91,4.51,5.75,12.22,8.61,19.87,8.53-2.11-5.73-5.46-11.26-8.22-16.54l-1-1.9c-2.74.16-5.48.31-8.21.4-6.29.2-17.39,0-13.57-9.81a17.06,17.06,0,0,1,3.39-5.22,103.92,103.92,0,0,0-19,16.78s-6.81,8.32-8.32,12.1-.76,5.29,6.05,6.81c0,0,22.69,8.32,27.23,12.86s7.56,9.08,12.86,6.05c2.8-1.6,13.84-10.17,25.08-18.46A3.08,3.08,0,0,1,1018.52,67ZM998,78.81c-3.48.37-7,.78-10.37-.59-3.6-1.48-5.68-4.76-8.56-7.2s-7.15-3.77-9.66-6.91c-1.37-1.71-1.81-3.58-4-4.59-1.22-.58-2.63-.78-3.88-1.37a1.71,1.71,0,0,1-.79-1.94c1.18-3,3.34-5,5.74-7.06,1.66-1.44,4.1,1,2.43,2.43a21.51,21.51,0,0,0-4.13,4.18c2.05.65,4.29,1,5.66,2.82s1.5,3.51,3.23,4.84c1.44,1.1,3.07,1.91,4.6,2.87,3.24,2,5.44,5,8.36,7.35C990,76.33,994,75.8,998,75.38,1000.16,75.14,1000.14,78.58,998,78.81Z"/><path class="cls-5" d="M1012.65,54.36c-1.48-2.7-2.68-5.55-3.95-8.35-2.56,0-5.12.1-7.68.23,3.13,5.77,6.71,11.87,8.8,18.16a25.76,25.76,0,0,0,7.05-2.56C1015.75,59.22,1014,56.76,1012.65,54.36Z"/><path class="cls-5" d="M1025.11,48.58c-2.42-2-6.59-2.16-9.53-2.37l-.74,0c1.33,2.84,2.7,5.63,4.29,8.37.79,1.36,1.54,2.71,2.2,4.09a19,19,0,0,0,3-3.6C1025.72,52.81,1027,50.13,1025.11,48.58Z"/><path class="cls-8" d="M629,426.26c2.84,5.25,1.63,9.29-1.14,11.69s-4.64,4.25-5.44,5.82.52,5,2.81,7.85c1.49,1.84,7.16,9.37,11.28,13.86,11.43,16.74,23.85,37.31,33.62,55,14.81,26.78,29.44,82.75,18.83,104.56-1.62,3.33-8.22,10.58-8.22,10.58s-11.52-15.74-39.26-54.27c-33.66-46.76-58.6-80.93-69.59-113.47s-8.88-39.26-6-44.56,12.33-17,19.38-17.77,14.56,6.54,17.86,11.71,8.94,13.13,8.94,13.13c-.24-1.88,3.65-6.88,5.82-7.26S626.15,421,629,426.26Z"/><path class="cls-9" d="M541.73,804.81c3-4.91,61.89-82,61.89-82s5.35-6.23,11.44-4.57c14,3.82,15.85,5.64,21.44,15,9.08,15.23,12.6,36.06,1.18,56.66,0,.08-6.34,7.58-6.4,7.66-1.43,2-53.63,71.53-55.67,73.71s-12.76,11.18-26.11,8.62-46.88-28.25-46.88-28.25S538.7,809.72,541.73,804.81Z"/><path class="cls-10" d="M594.43,735.38c-1.13-27.16-4.09-48.53,35.36-97.73,14.25-17.77,34.45-30.76,39.38-33.72a226.16,226.16,0,0,1,23.08-12.4l142.31,72.66S850,677.66,850,696.93c0,11.83-11.38,56.74-19.26,69.35-31,49.55-92.38,65.65-94.53,66.17-.12,0-30.95,3.64-44.15,1.42-10.11-1.7-26.78-11.22-29.4-12.84s-31.28-21.13-31.28-21.13S609.25,781.61,603.19,770C598.09,760.21,595,749.9,594.43,735.38Z"/><path class="cls-11" d="M692.12,751s-19.72,6.4-37.55-1.77-32.62-26.39-30-42.88,22.68-56.93,54.69-56.94S726,674.07,727.05,681s3.56,25.07-7.49,41S700.62,745.94,692.12,751Z"/><path class="cls-12" d="M888.68,821.07c-2.48-2.09-4.16-3.7-4.91-5.13s.29-4.71,2.18-7.48c1.23-1.8,5.91-9.14,9.34-13.56,6.17-10.7,12.66-23,18.63-35-17-5-33.06-14-46.8-25.3-13.08,22.93-22.79,42.75-28,61.69-8.48,31-6.44,37.12-3.75,41.9s11.25,15.18,17.39,15.49,12.42-6.92,15.12-11.92,5.51-10.88,5.51-10.88,5.21,4.35,7.11,4.58,7.23,1.49,9.52-3.57S891.17,823.15,888.68,821.07Z"/><path class="cls-12" d="M898.14,764.12c3.78-2.27,11-1.12,14.91-3.22,7.94-9.93,4.55-19.38,2-25.82-11-27.42-57.12-70.48-79.89-75.87-3.47-.82-12.92-.32-12.92-.32s4.74,18.21,16.64,62.46c6.58,24.49,12.32,46,18.28,64.84C870.59,776.72,884,770.34,898.14,764.12Z"/><path class="cls-10" d="M742.4,833.62c33.69-11.22,28.48-34.15,28.38-43.23-.21-19.47-39.09-19.4-60.36-20.83a10.63,10.63,0,0,1-1.55.13c-4.07,0-109.68-2.91-120-2.06s-54.13-10.56-54.89-9.06-16.53,44.26-13.75,49.95,10.1,19.16,27.2,20.84,109,5.65,109,5.65S726.13,839,742.4,833.62Z"/><path class="cls-13" d="M625.53,451.3s-58.66-2.43-55.87,11.56c9.63,48.16,90.54,144.48,90.54,144.48s-52,44.31-62.61,80.91-2.89,46.24-2.89,46.24,17.18,18.53,25,19.26,24.4-12.37,30.82-7.71,1.67,24.14,5.78,30.82c12.23,19.9,74.17,56.83,74.17,56.83s79.95-20.23,99.21-68.39c0,0,7.71-7.71,11.56-27.93,0,0,10.44,19.86,9.63,27-1.06,9.31-16.25,25.34-11.56,35.64,7.18,15.78,38.93,20.1,44.31,13.49,50.09-61.65,42.38-77.06,17.34-103.07C867.47,675.58,862.48,669,862.48,669Z"/><path class="cls-14" d="M793.13,676.7s13.23-12.51,40.46-13.49c53.94-1.93,86.69,61.65,88.62,69.35s2.46,70-28.9,69.35c-6.28-.14-3.85-3.85-25-1.93s-25-9.63-27-13.49c-2.44-4.87,1.93-25,1.93-34.68S824,792.29,824,805.77s-3.85,50.09-21.19,36.6-50.09-21.19-52-69.35S781.57,682.48,793.13,676.7Z"/><path class="cls-14" d="M590.85,711.38S671.76,696,710.29,620.83s-3.85-96.32-15.41-111.73-38.53-32.75-53.94-46.24c-17.46-15.28-61.62,12-67.43,21.19-7.69,12.21,84.18,120.48,79,125.22-17.38,15.84-44.78,43.57-48.16,46.24C575.07,678.54,564.53,718.83,590.85,711.38Z"/><path class="cls-8" d="M994.67,457.27a161.55,161.55,0,0,0-5.1-17.13c.56-1.45.9-3,1.26-4.35a74.69,74.69,0,0,0,1.85-9,7.91,7.91,0,0,0,1.17-2.39,369.92,369.92,0,0,0,14.87-79.74,8.33,8.33,0,0,0,0-.9c.89-4,.2-7.7-3.65-10.27-5.1-3.42-12.49-1.33-17.4,1.35l-1,.58a71.59,71.59,0,0,0-9,2.35,48.68,48.68,0,0,0-13,7.29c-11.53,3.94-29.67,10.61-38.9,14a148.36,148.36,0,0,0-22.27-12.15c-27.4-11.92-64-19-99.06-20-8.28-9.89-27.4-32.59-32.94-38.17a42.63,42.63,0,0,0-3.74-5.12,71.66,71.66,0,0,0-6.66-6.51c-.2-.34-.4-.68-.61-1-2.93-4.76-8.32-10.23-14.44-9.8-4.61.33-7,3.16-8.26,7.11a8,8,0,0,0-.43.79,369.92,369.92,0,0,0-26.62,76.62,8.44,8.44,0,0,0-.2,1.61c-26,18.43-47.52,43.42-53.07,60.81-9.29,29.11-48.54,104.32,4.38,181,0,0,14.16,26.23,40.07,40.6S831,683,872.62,671.59s70.8-25.09,92.26-62.75S1008,513.25,994.67,457.27Z"/><path class="cls-12" d="M994.78,449.85a161.55,161.55,0,0,0-5.1-17.13c.56-1.45.9-3,1.26-4.35a74.69,74.69,0,0,0,1.85-9A7.91,7.91,0,0,0,994,417a369.92,369.92,0,0,0,14.87-79.74,8.33,8.33,0,0,0,0-.9c.89-4,.2-7.7-3.65-10.27-5.1-3.42-12.49-1.33-17.4,1.35l-1,.58a71.59,71.59,0,0,0-9,2.35,48.68,48.68,0,0,0-13,7.29c-11.53,3.94-29.67,10.61-38.9,14A148.36,148.36,0,0,0,903.6,339.5c-27.4-11.92-64-19-99.06-20-8.28-9.89-27.4-32.59-32.94-38.17a42.63,42.63,0,0,0-3.74-5.12,71.66,71.66,0,0,0-6.66-6.51c-.2-.34-.4-.68-.61-1-2.93-4.76-8.32-10.23-14.44-9.8-4.61.33-7,3.16-8.26,7.11a8,8,0,0,0-.43.79,369.92,369.92,0,0,0-26.62,76.62,8.44,8.44,0,0,0-.2,1.61c-26,18.43-47.52,43.42-53.07,60.81-9.29,29.11-48.54,104.32,4.38,181,0,0,14.16,26.23,40.07,40.6S831.1,675.6,872.73,664.17s70.8-25.09,92.26-62.75S1008.08,505.83,994.78,449.85Z"/><path class="cls-15" d="M827.77,542.21s7.59,13.68-.74,21.4-21,10.42-36.76,8.39-68.63-13.46-83.13-25.08-19.6-30.25-9.67-39.28,48.07-13.16,70.63-5.88S819.47,526.19,827.77,542.21Z"/><path d="M782.46,502.68s-2.47,9.32-9.74,12.6-16.6.37-19.51-5.18-2.62-18.09.87-21S787,490.45,782.46,502.68Z"/><circle class="cls-15" cx="716.67" cy="456.49" r="33.5" transform="translate(91.64 1032.11) rotate(-75.14)"/><circle cx="716.67" cy="456.49" r="21.09" transform="translate(91.64 1032.11) rotate(-75.14)"/><path d="M676.42,411.29s-.16,11,5.33,11.06,53.67-5,58.56-7.87-2-18.43-2-18.43-59.24,10.45-60.87,11.39S676.42,411.29,676.42,411.29Z"/><circle class="cls-15" cx="837.35" cy="488.52" r="33.5" transform="translate(150.41 1172.56) rotate(-75.14)"/><circle cx="837.35" cy="488.52" r="21.09" transform="translate(150.41 1172.56) rotate(-75.14)"/><path d="M894.72,469.21s-5.3,9.61-10.11,7-44.11-31-46.95-35.87,10.87-15,10.87-15,46.27,38.45,47.21,40.07S894.72,469.21,894.72,469.21Z"/><path class="cls-14" d="M736.24,369.84C713.18,363.65,692,354,689.06,332.11c-4.75-35.47,60.58-13.37,60.58-13.37l5-74.66s.67-13.59,31-20.27,96-14.36,154.36,18.47c0,0,21.07,14.65,20.54,25.52s-14.24,74.66-14.24,74.66,30.82,9.63,42.19,22c18.46,20.17,2.17,30.44-26.77,35.75C903.89,410.85,775,380.26,736.24,369.84Z"/><path class="cls-16" d="M904.79,237.82l-10.15,40.36,45.66,13.14s6.77-26.91-1-35.46S904.79,237.82,904.79,237.82Z"/><polygon class="cls-16" points="894.37 283.62 890.19 313.38 936.12 321.08 937.32 296.62 894.37 283.62"/><path class="cls-16" d="M763.67,282.66l52.43-13.77,1.87-38s-2.58-2.85-13.59-.67-41.29,8.87-41.69,17S763.67,282.66,763.67,282.66Z"/><path class="cls-16" d="M763.4,288.09s49.71-13.91,52.3-11.06l-5,46.06-51.63-2.53Z"/><path class="cls-14" d="M738.48,638.9s-17.09-21.46-30.72-20.5-23.83,20.33-20.54,26.71-6.47-4.74-15.95,8.21-3.68,28.11,6.75,28.8,40.78-10.9,40.78-10.9,4.92,9.57,16.91,5.42c0,0,16.32,23.87,26,27s32.85-2.79,33.53-13.22-.09-8-.09-8,16.72-10.62,14.21-19.41-19.41-14.21-30.62-12.48S738.48,638.9,738.48,638.9Z"/><path class="cls-17" d="M712.92,648s10.43.68,14.4-3.38.68-10.43-8.21-15.95-13.72-7.06-21.64,1.05-6.28,11.3-4.64,14.49-1.55,4.83-7.93,8.11-10.34,7.34-10.25,15.36,12.08,3.87,26.47.49,19.23-1.83,19.13-9.85A11.09,11.09,0,0,0,712.92,648Z"/><path class="cls-17" d="M736.11,642.14s-11.89,12.17-11,17.77,1.73,11.21,11.3,6.28,13.44-17,11-17.77S739.3,640.5,736.11,642.14Z"/><path class="cls-17" d="M754.66,650.75s-7.15,5.7-3.1,9.66a25.27,25.27,0,0,0,8.89,5.51s-9.66-3.1-12.85-1.45-6.28,11.3,1.83,19.23,21.92,23,32.17,7.65,3.87-12.08,3.87-12.08,15.17-5.79,12.66-14.58-16.91-5.42-21.74-7Z"/><path class="cls-14" d="M699.7,691.15s-5.78,7.71,0,9.63,13.49-3.85,11.56-7.71S701.62,687.3,699.7,691.15Z"/><path class="cls-14" d="M686.21,706.56s-5.78,7.71,0,9.63,13.49-3.85,11.56-7.71S688.14,702.71,686.21,706.56Z"/><path class="cls-14" d="M668.87,723.9s-5.78,7.71,0,9.63,13.49-3.85,11.56-7.71S670.8,720,668.87,723.9Z"/><path class="cls-14" d="M575.11,871.6s-42.32-34.78-81.28-42c0,0-11.63-6.52-12,3.11s18.37,41,26,42.9,16.71,6.57,19.76,2.46,6.33-.86,5.76,1.43-2.83,11.45,2.92,12.87,21.11,5.23,25.52,3.89S575.11,871.6,575.11,871.6Z"/><path class="cls-14" d="M507.33,818.55s7.88,20.35,12.83,22,35.16-7.2,35.56-10.61,4-34.11-9.9-61.21S510.67,718,506,728.29s-9.5,51.2-3.84,61.36,8.69,13.53,12.12,13.49,4.95,1.65,3,3.37S507.73,815.14,507.33,818.55Z"/></g></g></g></svg>