<svg xmlns="http://www.w3.org/2000/svg" viewBox="0 0 597 883.18"><defs><style>.cls-1{fill:#da4d55;}.cls-2{fill:#c3352b;}.cls-3{fill:#d9a064;}.cls-4{fill:#e69dc2;}.cls-5{fill:none;stroke:#da4d55;stroke-miterlimit:10;stroke-width:5px;}</style></defs><title>資產 2</title><g id="圖層_2" data-name="圖層 2"><g id="圖層_1-2" data-name="圖層 1"><path class="cls-1" d="M12.35,488.33s3.86-18,2.57-21.88-3.43-3.86-5.15-2.58a5.32,5.32,0,0,0-1.71,3.86s-2.15-2.14-3.86-.85-.43,4.29,0,5.57S8.06,485.76,8.92,487,12.35,488.33,12.35,488.33Z"/><polygon class="cls-2" points="117.33 77.52 117.33 439.06 169.49 464.41 143.41 4.35 117.33 77.52"/><polygon class="cls-2" points="436.11 73.18 436.11 434.71 488.28 460.07 462.2 0 436.11 73.18"/><path class="cls-2" d="M95.12,468.11a22.94,22.94,0,0,0-4-5.25c.9-.54,1.94-1.75,1.12-3.13-1.23-2.05-3.11-2.28-4.62-1.39a1.81,1.81,0,0,0-.9,1.07A23.5,23.5,0,0,0,78,456.18a43.94,43.94,0,0,0-20.3,2.51q-.53.21-1.05.48a2,2,0,0,0-.81-.83c-1.5-.89-3.39-.66-4.62,1.39a2.17,2.17,0,0,0,.83,2.93c-3.64,3.71-6.35,8.78-6.5,11.74-.22,4.38-3,16.23,7.45,24.9a16.82,16.82,0,0,0,7.22,4.15c4.22,1,20.16,1.93,25.64-1.19S95,496.19,96.6,490.19,99.12,475.37,95.12,468.11Z"/><path class="cls-2" d="M547.4,466.9c-1.9-1.68-7.81-7.46-9.35-6.46a20.27,20.27,0,0,0-6.2-2.06,37.86,37.86,0,0,0-17.6,2.16c-1.31-1.43-7.51,4.63-9.47,6.36-2.76,2.45-9.87,18-6.45,23,1.09,1.61,2.94-.12,5-3.23a19.15,19.15,0,0,0,6.47,10.78,14.78,14.78,0,0,0,6.38,3.76c3.73.94,17.8,1.75,22.65-1.08s8.05-5.5,9.49-10.94c.21-.81.41-1.67.58-2.58,2,3.15,3.9,4.91,5,3.29C557.28,484.87,550.17,469.35,547.4,466.9Z"/><path class="cls-1" d="M18.35,453.58s-.42-1.72,16.74-12,231.7-125.29,243.28-132.15,13.3-13.73,19.74-10.73,134.3,72.94,156.18,81.52,115.42,57.5,123.14,61.36,10.3,26.6,7.73,28.32-556.08-2.57-556.08-2.57S15.35,474.17,18.35,453.58Z"/><path class="cls-3" d="M121.33,460.87c.43-1.29,48.92-42.91,63.07-53.2s36.9-26.18,52.35-42.48,50.63-50.63,53.21-54.07l7.93-12.54s1.08,10-.21,13-55.35,100.84-61.36,106.84-45.84,50.09-45.84,50.09Z"/><path class="cls-3" d="M298.11,359.18s0-55.35,1.71-54.92,19.31,34.33,21,42.48,24.46,45.48,28.32,53.63,27.89,54.49,26.17,57.5-52.78,12-60.5,10.72a103.62,103.62,0,0,1-16.73-4.72Z"/><path class="cls-3" d="M303.69,304.26s74.65,79.81,94.82,95.25,72.94,52.78,80.67,57.5,69.08,4.29,78.09,3.86,24.66-14.16,24.66-14.16-.81-3.09-5-5.41S307.48,303.53,306,302.82,302.4,302.54,303.69,304.26Z"/><path class="cls-4" d="M19.64,535.1S.76,536.82.76,514.07-.95,456.58.76,454s17.17-3.43,23.6,1.29,10.3.86,16.31-3.43S57,439,68.56,437.7s34.32-2.15,43.33,1.29,25.32,15.44,27.46,18.88,3.86,9,8.58,7.72,3.44-10.73,8.59-8.58,2.14,6,8.58,6.86,19.3-7.72,27.46-13.3,32.18-10.72,48.05-6.43,33.9,15.44,37.76,18.88,6.66,7.94,11.48,6.11,4.4-9.12,12.12-10.41,15.45-.85,16.73,2.58,5.58,5.15,9.87,0,23.6-22.74,44.63-22.74,45.05,9,53.2,13.3,14.16,7.72,16.3,5.15,1.29-6,9-5.15,7.73,4.29,12,2.14,9.44-8.58,17.59-12.44,19.31-6.86,24-6.86,24-2.58,36,3,23.17,13.73,27,15,7.3-2.58,7.73-3.86,3-3,9.86-2.15,8.59,8.15,9.44,14.59,3,59.64,0,63.93-73.37,3-80.66,3-165.19,0-180.64.43-148.46,7.73-177.63,4.72S19.64,535.1,19.64,535.1Z"/><path class="cls-1" d="M5.48,502.49s-4.72,18.45,0,22.74,13.73,6.44,21.89,5.58,80.23-1.29,84.52-1.29,112.42-.43,121.43-1.29S329,527,338.44,527H566.71c.85,0,24.88-.43,26.17-3.44s2.57-33.46,1.29-33.89-23.6,23.17-30,24.88-57.49,9-79.81-2.14-20.59-24.89-33.46-22.74-30.47,23.6-39.48,27.46-52.77,9.87-63.93,3-28.75-25.74-40.33-22.31-36.9,2.57-43.34,10.3S217,527,202.43,522.66,177.11,503.35,169,499.92s-24.46-4.72-34.33,1.71-22.31,20.17-34.32,20.6c0,0-51.06,2.57-67.37-9S7.2,492.62,5.48,502.49Z"/><path class="cls-1" d="M152.22,490.48a13.26,13.26,0,0,0,6-7.73c1.72-5.58,1.72-8.58,0-9.87s-5.58,0-6,2.58-2.14-.86-3.86-2.15-5.15-.86-5.15,2.58,2.58,8.15,4.29,10.29S149.65,490.05,152.22,490.48Z"/><path class="cls-1" d="M302,490.48a13.3,13.3,0,0,0,6-7.73c1.71-5.58,1.71-8.58,0-9.87s-5.58,0-6,2.58-2.15-.86-3.86-2.15-5.15-.86-5.15,2.58,2.57,8.15,4.29,10.29S299.4,490.05,302,490.48Z"/><path class="cls-1" d="M449.57,481.47a13.3,13.3,0,0,0,6-7.73c1.71-5.58,1.71-8.58,0-9.87s-5.58,0-6,2.58-2.15-.86-3.86-2.15-5.15-.86-5.15,2.58,2.57,8.15,4.29,10.29S447,481,449.57,481.47Z"/><path class="cls-2" d="M296.94,300.5s-30.68-17.36-35.82-36.24c0,0-11.16-18.45,6.86-25.31s32.61,13.73,32.61,13.73,3-7.72,13.3-13.3,29.18-6,30.46,3.86S350.79,273.23,296.94,300.5Z"/><path class="cls-2" d="M242.15,477.07a23,23,0,0,0-3.47-4.84c.36-2.53,1.16-8.41.75-9.35-.52-1.2-3.2-1.47-4.36-.8-.91.52-4.4,3-5.92,4a21.44,21.44,0,0,0-3.5-.85,39.81,39.81,0,0,0-14.29.86c-1.51-1.06-5-3.53-5.94-4.05-1.16-.67-3.84-.4-4.36.8-.34.79.16,5,.54,7.86-4,3.69-7.07,9.36-7.23,12.56-.21,4.32-2.85,16.05,7.18,24.62a16.14,16.14,0,0,0,7,4.11c4.07,1,19.43,1.9,24.71-1.18s8.79-6,10.36-11.94S246,484.25,242.15,477.07Z"/><path class="cls-2" d="M103.77,477.07a23,23,0,0,0-3.48-4.84c.37-2.53,1.17-8.41.76-9.35-.52-1.2-3.2-1.47-4.37-.8-.9.52-4.39,3-5.92,4a21.33,21.33,0,0,0-3.49-.85,39.81,39.81,0,0,0-14.29.86c-1.51-1.06-5-3.53-5.94-4.05-1.16-.67-3.84-.4-4.36.8-.35.79.15,5,.54,7.86-4,3.69-7.07,9.36-7.23,12.56-.21,4.32-2.86,16.05,7.18,24.62a16.14,16.14,0,0,0,7,4.11c4.07,1,19.43,1.9,24.71-1.18s8.79-6,10.36-11.94S107.63,484.25,103.77,477.07Z"/><path class="cls-2" d="M545,473.44a22.94,22.94,0,0,0-3.48-4.83c.37-2.53,1.17-8.41.76-9.35-.52-1.2-3.2-1.47-4.37-.8-.9.52-4.4,3-5.92,4a21.39,21.39,0,0,0-3.49-.86,39.83,39.83,0,0,0-14.29.87c-1.52-1.07-5-3.53-5.94-4.05-1.16-.67-3.84-.4-4.37.8-.34.78.16,5,.55,7.85-4,3.7-7.07,9.37-7.23,12.56-.21,4.33-2.86,16.06,7.18,24.63a16.06,16.06,0,0,0,7,4.1c4.07,1,19.43,1.91,24.71-1.17s8.79-6,10.36-11.94S548.85,480.63,545,473.44Z"/><path class="cls-2" d="M403,475.74A22.89,22.89,0,0,0,386.62,464a16.34,16.34,0,0,0,.33-9.9c-.44-1.65-2.63-4.17-3.55-3.95s-2.35,11.34-2.65,13.56c-.86,0-1.72.09-2.6.17-.22-1.7-1.82-13.52-2.67-13.73s-3.11,2.3-3.55,3.95a16.16,16.16,0,0,0,.66,10.69,40.32,40.32,0,0,0-5.51,1.68c-5.9,2.34-11.46,11.18-11.67,15.49s-2.85,16,7.15,24.54a16.1,16.1,0,0,0,6.94,4.09c4.06,1,19.36,1.9,24.63-1.17s8.75-6,10.32-11.9S406.87,482.9,403,475.74Z"/><rect class="cls-4" x="27.49" y="531.07" width="549.18" height="352.11"/><rect class="cls-5" x="41.62" y="542.3" width="520.93" height="318.79" rx="12" ry="12"/></g></g></svg>