<svg xmlns="http://www.w3.org/2000/svg" viewBox="0 0 128.94 266.16"><defs><style>.cls-1{fill:#fff;}</style></defs><title>rabi</title><g id="圖層_2" data-name="圖層 2"><g id="圖層_1-2" data-name="圖層 1"><path class="cls-1" d="M99.41,162.43c13.36-7.54,22.21-14.73,26.18-29.27s6.14-35.92-3.61-53.52A58.15,58.15,0,0,0,84.67,51.57c2.7-9.67,6-22.29,6.65-28C92.43,13.58,94.38,6,89.1,2.26s-9.59-2.16-10.77,0S71,41.41,71,45.14A39.2,39.2,0,0,1,70.53,50c-3.08-.05-6.27.05-9.5.3a42.57,42.57,0,0,1-.51-5.15c0-3.73-6.15-40.72-7.33-42.87s-5.49-3.77-10.77,0-3.34,11.31-2.22,21.28c.66,5.87,4.11,18.94,6.83,28.69a101.59,101.59,0,0,0-16.23,4.6C15.81,62.58,1.73,84.31,1.19,94.9S-6,134.23,19.33,155.25a41.17,41.17,0,0,0,17.15,9.94c-1.09,2-3.78,6.85-8.47,15.46-7.76,14.23-13.52,24.63-15.45,34.1s-1.11,11.27-.11,12.64,4,4.32,6,4.28,3.83-2.33,4.57-3.89,1.49-3.38,1.49-3.38A9.52,9.52,0,0,0,27,225.62c.62,0,2.38.29,3-1.27a2.48,2.48,0,0,0-.73-3.22,6.62,6.62,0,0,1-1.72-1.44c-.28-.41,0-1.42.51-2.29.35-.56,1.67-2.87,2.66-4.26.29-.56.58-1.14.87-1.73,1.88,8.28,5,11.79,5.48,12.34-.24,4.68-1.39,24.25-1.15,26.35.27,2.34-.49,1.68-1.55,2.17a15.92,15.92,0,0,0-7.16,7.83c-2.17,5,4.86,5.57,5.39,5.75s15.56.62,17.6,0,6.85-2.25,7.52-6.15,2.43-24.83,2.43-24.83l0-.08,1,.06c1.09,0,13.43-.13,13.43-.13l.74-.09c.15,2.1,1.88,24,2,24.77a9,9,0,0,0,6.06,5.84c4.47,1.41,19.45.62,19.45.62s4.69-1.28,4.73-3.76-.23-3.5-1.69-5.29-6.57-5.14-6.57-5.14a5.12,5.12,0,0,1-.2-2.12c.06-1.38-.73-22-.92-26.78A31.29,31.29,0,0,0,103.7,210c.62,1.28,1.23,2.54,1.84,3.72,1,1.4,2.31,3.7,2.66,4.26.54.87.79,1.88.51,2.29a6.62,6.62,0,0,1-1.72,1.44,2.48,2.48,0,0,0-.73,3.22c.61,1.56,2.37,1.3,3,1.27a3,3,0,0,0,1.88-1.82s1.29,2.42,2,4,2.58,3.86,4.57,3.89,5-2.9,6-4.28,1.82-3.18-.11-12.64-7.69-19.87-15.45-34.1c-6.39-11.72-9.06-16.52-9.06-16.52l-.09.08L98.28,163C98.67,162.82,99.05,162.63,99.41,162.43Z"/></g></g></svg>