<svg xmlns="http://www.w3.org/2000/svg" viewBox="0 0 76.77 92.75"><defs><style>.cls-1{fill:#ee7395;}</style></defs><title>資產 12</title><g id="圖層_2" data-name="圖層 2"><g id="圖層_1-2" data-name="圖層 1"><path class="cls-1" d="M72.63,38.69A34.62,34.62,0,0,0,47.85,20.93a24.75,24.75,0,0,0,.49-15c-.66-2.48-4-6.29-5.35-6s-3.56,17.12-4,20.47c-1.29,0-2.6.14-3.92.27C34.72,18.18,32.3.33,31,0S26.32,3.5,25.66,6s-2.17,9.27,1,16.16a57.82,57.82,0,0,0-8.32,2.54C9.42,28.2,1,41.55.71,48.06s-4.3,24.16,10.8,37.07A24.28,24.28,0,0,0,22,91.31c6.13,1.54,29.24,2.87,37.2-1.77s13.22-9,15.59-18S78.43,49.5,72.63,38.69Z"/></g></g></svg>