<svg xmlns="http://www.w3.org/2000/svg" viewBox="0 0 487 174.18"><defs><style>.cls-1{fill:#eb616d;}.cls-2{fill:#f3b9b4;}.cls-3{fill:#efcf9a;}.cls-4{fill:#5b3b24;}.cls-5{fill:#b27952;}.cls-6{fill:#8a654f;}.cls-7{fill:#725741;}</style></defs><title>rankTitle_3</title><g id="圖層_2" data-name="圖層 2"><g id="圖層_1-2" data-name="圖層 1"><polygon class="cls-1" points="66 163.18 0 163.18 23 132.18 0 98.18 66 98.18 66 163.18"/><polygon points="66 172.18 51 173.18 50 111.18 66 98.18 66 172.18"/><polygon class="cls-1" points="421 163.18 487 163.18 464 132.18 487 98.18 421 98.18 421 163.18"/><polygon points="421 172.18 436 173.18 437 111.18 421 98.18 421 172.18"/><rect class="cls-2" x="50" y="111.18" width="388" height="63"/><path class="cls-1" d="M293.23,68.88A50.3,50.3,0,0,0,261,44.6c2.33-8.36,5.2-19.28,5.75-24.24,1-8.62,2.64-15.14-1.92-18.41s-8.29-1.86-9.31,0S249.11,35.81,249.14,39a33.91,33.91,0,0,1-.4,4.19c-2.66,0-5.42,0-8.22.26a36.8,36.8,0,0,1-.44-4.45c0-3.22-5.32-35.22-6.34-37.08S229-1.31,224.43,2s-2.88,9.78-1.92,18.41c.57,5.08,3.55,16.38,5.91,24.81a87.87,87.87,0,0,0-14,4c-13,5-25.14,23.76-25.61,32.93s-6.25,34,15.69,52.19a35.43,35.43,0,0,0,15.22,8.7c8.9,2.17,42.47,4,54-2.48s19.21-12.74,22.64-25.32S301.67,84.1,293.23,68.88Z"/><path class="cls-3" d="M290.3,111.15s7.33-20.77,8.55-26.88,0-37.88-2.44-41.54-4.89,13.44-4.89,13.44,0-7.33-2.44-7.33-4.89,8.55-6.11,9.78-2.44-1.22-2.44-3.67a96.15,96.15,0,0,1-22-15.88c-9.78-9.78-12.22-13.44-13.44-14.66s-2.44-1.22-4.89,1.22-15.88,19.55-29.33,25.66c0,0-4.89,2.44-4.89,4.89v4.89s-3.67,0-4.89-6.11-2.44-6.11-3.67-4.89S195,56.17,195,56.17s-2.44-9.78-2.44-12.22-3.67,1.22-3.67,2.44-1.22,35.44-1.22,36.66,4.89,23.22,6.11,25.66c0,0,1.22,6.11,2.44,7.33s0-20.77,0-26.88,1.22-19.55,9.78-22,20.77-1.22,24.44,0,11,7.33,12.22,7.33,4.89-4.89,14.66-7.33,18.33-2.44,23.22,1.22c0,0,8.55,4.89,8.55,11v29.33c0,2.44-1.22,6.11,0,4.89A3.78,3.78,0,0,0,290.3,111.15Z"/><path class="cls-4" d="M242.65,62.28s-8.55-1.22-11-6.11c0,0-2.44-7.33-2.44-3.67s2.44,12.22,6.11,14.66,4.89,4.89,6.11,4.89h1.22Z"/><path class="cls-4" d="M230.43,45.17s1.22,8.55,3.67,11,7.33,3.67,8.55,3.67V28.07L237.76,33c-2.44,2.44-17.11,17.11-25.66,20.77,0,0-3.67,1.22-2.44,2.44s2.44,4.89,3.67,4.89h13.44s2.44,0,1.22-3.67-2.44-6.11-1.22-8.55S229.21,43.95,230.43,45.17Z"/><path class="cls-5" d="M195,70.83l2.44-2.44c2.44-2.44,6.11-3.67,4.89-6.11s-2.44-11-3.67-9.78A18.21,18.21,0,0,0,195,62.28Z"/><path class="cls-6" d="M208.44,65.94s11-1.22,13.44-1.22,9.78,1.22,11,2.44-2.44-6.11-2.44-6.11a27.72,27.72,0,0,1-4.89,1.22c-1.22,0-11-1.22-15.88,0s-9.78,4.89-12.22,7.33S195,74.5,195,83.05s0,0,1.22-3.67,2.44-8.55,6.11-11S208.44,65.94,208.44,65.94Z"/><path class="cls-5" d="M193.77,56.17s-1.22-7.33-2.44-8.55-2.44,31.77-2.44,35.44,4.89,25.66,6.11,26.88,0-18.33,0-20.77-2.44-2.44-2.44-8.55S193.77,61.06,193.77,56.17Z"/><path class="cls-7" d="M243.87,42.73s1.22-6.11,2.44-7.33,2.44,0,4.89,1.22,3.67,1.22,0-2.44-7.33-7.33-7.33-6.11Z"/><path class="cls-7" d="M290.3,106.27C289.76,107.36,294,94,294,90.38s-1.22-8.55,0-9.78,3.67,2.44,3.67-1.22-1.22-26.88-1.22-28.1V43.95s-1.22,1.22-2.44,6.11c0,0-2.44,7.33-2.44,8.55v11l-2.44-3.67c-2.44-3.67-3.67-3.67-3.67-3.67l2.44-9.78s-3.67,7.33-4.89,7.33-1.22,1.22-3.67,1.22-3.67-2.44-2.44-3.67a1.69,1.69,0,0,0,0-2.44s0,2.44-3.67,3.67S261,59.83,259.76,59.83s0,0,0-3.67,0-7.33-1.22-9.78l-1.22-1.22h0s1.22,8.55,0,11-6.11,11-7.33,12.22,3.67-6.11,8.55-6.11,12.22-1.22,18.33,0,8.55,2.44,11,4.89,3.67,7.33,3.67,7.33S291.53,103.82,290.3,106.27Z"/></g></g></svg>