<svg xmlns="http://www.w3.org/2000/svg" viewBox="0 0 487 144.99"><defs><style>.cls-1{fill:#b5a385;}.cls-2{fill:#efcf9a;}.cls-3{fill:#5b3b24;}.cls-4{fill:#b27952;}.cls-5{fill:#8a654f;}.cls-6{fill:#725741;}.cls-7{fill:#d2c09d;}</style></defs><title>rankTitle_2</title><g id="圖層_2" data-name="圖層 2"><g id="圖層_1-2" data-name="圖層 1"><path class="cls-1" d="M294,68.88A50.3,50.3,0,0,0,261.71,44.6c2.33-8.36,5.2-19.28,5.75-24.24,1-8.62,2.64-15.14-1.92-18.41s-8.29-1.86-9.31,0S249.85,35.81,249.88,39a33.91,33.91,0,0,1-.4,4.19c-2.66,0-5.42,0-8.22.26a36.8,36.8,0,0,1-.44-4.45c0-3.22-5.32-35.22-6.34-37.08s-4.75-3.26-9.31,0-2.88,9.78-1.92,18.41c.57,5.08,3.55,16.38,5.91,24.81a87.87,87.87,0,0,0-14,4c-13,5-25.14,23.76-25.61,32.93s-6.25,34,15.69,52.19a35.43,35.43,0,0,0,15.22,8.7c8.9,2.17,42.47,4,54-2.48s19.21-12.74,22.64-25.32S302.41,84.1,294,68.88Z"/><path class="cls-2" d="M288.69,101.71s7.33-20.77,8.55-26.88,0-37.88-2.44-41.54-4.89,13.44-4.89,13.44,0-7.33-2.44-7.33-4.89,8.55-6.11,9.78-2.44-1.22-2.44-3.67a96.15,96.15,0,0,1-22-15.88C247.14,19.84,244.7,16.18,243.48,15s-2.44-1.22-4.89,1.22-15.88,19.55-29.33,25.66c0,0-4.89,2.44-4.89,4.89v4.89s-3.67,0-4.89-6.11-2.44-6.11-3.67-4.89-2.44,6.11-2.44,6.11-2.44-9.78-2.44-12.22-3.67,1.22-3.67,2.44S186,72.38,186,73.61s4.89,23.22,6.11,25.66c0,0,1.22,6.11,2.44,7.33s0-20.77,0-26.88,1.22-19.55,9.78-22,20.77-1.22,24.44,0,11,7.33,12.22,7.33,4.89-4.89,14.66-7.33,18.33-2.44,23.22,1.22c0,0,8.55,4.89,8.55,11V99.27c0,2.44-1.22,6.11,0,4.89A3.78,3.78,0,0,0,288.69,101.71Z"/><path class="cls-3" d="M241,52.83s-8.55-1.22-11-6.11c0,0-2.44-7.33-2.44-3.67S230,55.28,233.7,57.72s4.89,4.89,6.11,4.89H241Z"/><path class="cls-3" d="M228.81,35.73s1.22,8.55,3.67,11,7.33,3.67,8.55,3.67V18.62l-4.89,4.89C233.7,26,219,40.62,210.49,44.28c0,0-3.67,1.22-2.44,2.44s2.44,4.89,3.67,4.89h13.44s2.44,0,1.22-3.67-2.44-6.11-1.22-8.55S227.59,34.51,228.81,35.73Z"/><path class="cls-4" d="M193.38,61.39l2.44-2.44c2.44-2.44,6.11-3.67,4.89-6.11s-2.44-11-3.67-9.78a18.21,18.21,0,0,0-3.67,9.78Z"/><path class="cls-5" d="M206.82,56.5s11-1.22,13.44-1.22,9.78,1.22,11,2.44-2.44-6.11-2.44-6.11a27.72,27.72,0,0,1-4.89,1.22c-1.22,0-11-1.22-15.88,0s-9.78,4.89-12.22,7.33-2.44,4.89-2.44,13.44,0,0,1.22-3.67,2.44-8.55,6.11-11S206.82,56.5,206.82,56.5Z"/><path class="cls-4" d="M192.16,46.72s-1.22-7.33-2.44-8.55-2.44,31.77-2.44,35.44,4.89,25.66,6.11,26.88,0-18.33,0-20.77-2.44-2.44-2.44-8.55S192.16,51.61,192.16,46.72Z"/><path class="cls-6" d="M242.26,33.28s1.22-6.11,2.44-7.33,2.44,0,4.89,1.22,3.67,1.22,0-2.44-7.33-7.33-7.33-6.11Z"/><path class="cls-6" d="M288.69,96.82c-.55,1.09,3.67-12.22,3.67-15.88s-1.22-8.55,0-9.78S296,73.61,296,69.94s-1.22-26.88-1.22-28.1V34.51s-1.22,1.22-2.44,6.11c0,0-2.44,7.33-2.44,8.55v11l-2.44-3.67c-2.44-3.67-3.67-3.67-3.67-3.67l2.44-9.78s-3.67,7.33-4.89,7.33-1.22,1.22-3.67,1.22-3.67-2.44-2.44-3.67a1.69,1.69,0,0,0,0-2.44s0,2.44-3.67,3.67-12.22,1.22-13.44,1.22,0,0,0-3.67,0-7.33-1.22-9.78l-1.22-1.22h0s1.22,8.55,0,11-6.11,11-7.33,12.22,3.67-6.11,8.55-6.11,12.22-1.22,18.33,0,8.55,2.44,11,4.89,3.67,7.33,3.67,7.33S289.91,94.38,288.69,96.82Z"/><polygon class="cls-1" points="66 111.74 0 111.74 23 80.74 0 46.74 66 46.74 66 111.74"/><polygon points="66 120.74 51 121.74 50 59.74 66 46.74 66 120.74"/><polygon class="cls-1" points="421 111.74 487 111.74 464 80.74 487 46.74 421 46.74 421 111.74"/><polygon points="421 120.74 436 121.74 437 59.74 421 46.74 421 120.74"/><rect class="cls-7" x="50" y="59.74" width="388" height="63"/></g></g></svg>