<svg xmlns="http://www.w3.org/2000/svg" xmlns:xlink="http://www.w3.org/1999/xlink" viewBox="0 0 223.84 276.7"><defs><style>.cls-1{fill:none;}.cls-2{fill:#f5c1ca;}.cls-3{fill:#207d98;}.cls-4{opacity:0.7;}.cls-5{clip-path:url(#clip-path);}.cls-6{fill:#0b1a27;}.cls-7{fill:#174a67;}.cls-8{fill:#004e3f;}.cls-9{fill:#0e283c;}.cls-10{fill:#340a0b;}.cls-11{fill:#38b9cc;stroke:#040000;stroke-miterlimit:10;}.cls-12{fill:#d94d55;}.cls-13{fill:#fff;}.cls-14{fill:#19191a;}.cls-15{fill:#872428;}.cls-16{fill:#eeedd9;}.cls-17{fill:#5b3b24;}.cls-18{fill:#b27952;}.cls-19{fill:#8a654f;}.cls-20{fill:#725741;}</style><clipPath id="clip-path"><path class="cls-1" d="M148.35,258.33a4.59,4.59,0,0,1-.18-1.9c.06-1.4-.86-24.92-.86-24.92s1.31-2.08,2.06-3.59a29.44,29.44,0,0,0,2.26-5.79c0-.87.61-.73.76-.35s3.69,5.74,4,6.1.69.6.59.92c4.3-1,8.61-2.09,12.94-2.88-1.38-4.73-6.84-21.43-12.76-30.15-6.54-9.63-8.56-15.7-9.87-18.26l-.71-1.49H136.37c.67,2.15,1.65,5.32,2,6.33.53,1.58-1.58,8.44-3.69,11.08s-9.5,7.92-12.14,8.44a15.93,15.93,0,0,1-7.12-.26c-2.11-.53-11.61-9.5-12.67-13.19-1-3.41,2.54-10.86,2.68-12.4H94.62S83.2,196,80.35,201.48s-8.27,15-9.68,23.51l1.5.23.19,0,.19,0c3.56.47,7.12.91,10.66,1.48a6.88,6.88,0,0,1,1.31.35c.74-1.23,2.94-4.66,2.94-4.66s.48,0,.59.83a47,47,0,0,0,3.28,7.38c.67.91,1.19,1,1.19,1.78s-1.31,22.4-1.07,24.5-.44,1.51-1.39,1.94a14.28,14.28,0,0,0-6.42,7c-1.94,4.48,4.36,5,4.84,5.15s14,.56,15.78,0,6.14-2,6.74-5.51,2.18-22.26,2.18-22.26a.89.89,0,0,1,.92-1c1,0,12-.12,12-.12a.86.86,0,0,1,.65.74c0,.59,1.68,21.63,1.84,22.34a8,8,0,0,0,5.43,5.23c4,1.27,17.44.56,17.44.56s4.2-1.15,4.24-3.37a5.9,5.9,0,0,0-1.52-4.75C152.93,261.34,148.35,258.33,148.35,258.33Z"/></clipPath></defs><title>rank2</title><g id="圖層_2" data-name="圖層 2"><g id="圖層_1-2" data-name="圖層 1"><path class="cls-2" d="M94.74,176s-11.42,20-14.27,25.45S72,216.82,70.72,225.39s-1,10.35,0,11.54,3.81,3.69,5.59,3.57,3.33-2.26,3.92-3.69,1.19-3.09,1.19-3.09a8.54,8.54,0,0,0,2.22,1c.56,0,2.14.16,2.62-1.27a2.23,2.23,0,0,0-.79-2.85,5.93,5.93,0,0,1-1.61-1.21c-.27-.36.15-1.16.59-2s3.12-5,3.12-5,.48,0,.59.83a47,47,0,0,0,3.28,7.38c.67.91,1.19,1,1.19,1.78s-1.31,22.4-1.07,24.5-.44,1.51-1.39,1.94a14.28,14.28,0,0,0-6.42,7c-1.94,4.48,4.36,5,4.84,5.15s14,.56,15.78,0,6.14-2,6.74-5.51,2.18-22.26,2.18-22.26a.89.89,0,0,1,.92-1c1,0,12-.12,12-.12a.86.86,0,0,1,.65.74c0,.59,1.68,21.63,1.84,22.34a8,8,0,0,0,5.43,5.23c4,1.27,17.44.56,17.44.56s4.2-1.15,4.24-3.37a5.9,5.9,0,0,0-1.52-4.75c-1.31-1.61-5.89-4.61-5.89-4.61a4.59,4.59,0,0,1-.18-1.9c.06-1.4-.86-24.92-.86-24.92s1.31-2.08,2.06-3.59a29.42,29.42,0,0,0,2.26-5.79c0-.87.61-.73.76-.35s3.69,5.74,4,6.1.86.71.48,1.1-2.59,1.93-2.68,2.79c0,0-.42,2.41,1.93,2.47s2.44-1,2.44-1,.45-.06.59.86,2.53,5.8,4.1,6.1,5.86-1.43,6.69-3.9a21.62,21.62,0,0,0,.27-9.34c-.54-2.23-6.51-21.59-13.05-31.22s-8.56-15.7-9.87-18.26l-.71-1.49Z"/><path class="cls-3" d="M169.94,225.92c-1.38-4.73-6.84-21.43-12.76-30.15A94.13,94.13,0,0,1,148,179a22.9,22.9,0,0,1-5.86,1.86,23.94,23.94,0,0,1-3.93,1l.16.48c.53,1.58-1.58,8.44-3.69,11.08s-9.5,7.92-12.14,8.44a15.93,15.93,0,0,1-7.12-.26c-2.11-.53-11.61-9.5-12.67-13.19-.45-1.59.07-4,.77-6.38-.48,0-.93-.1-.39-.07a4.61,4.61,0,0,1-1.69-.44h-.22a3.61,3.61,0,0,1-1.25.14,9.49,9.49,0,0,1-2.44-.42c-.48-.16-1.44-.29-1.16-.43H95.9a4.15,4.15,0,0,1-2.45-.89c-.3-.08-.61-.18-.9-.29-3.43,6-10.11,17.81-12.2,21.82-2.81,5.39-8.27,15-9.68,23.51l1.5.23.19,0,.19,0c3.56.47,7.12.91,10.66,1.48a6.88,6.88,0,0,1,1.31.35c.74-1.23,2.94-4.66,2.94-4.66s.48,0,.59.83a47,47,0,0,0,3.28,7.38c.67.91,1.19,1,1.19,1.78s-1.31,22.4-1.07,24.5-.44,1.51-1.39,1.94a14.28,14.28,0,0,0-6.42,7c-1.94,4.48,4.36,5,4.84,5.15s14,.56,15.78,0,6.14-2,6.74-5.51,2.18-22.26,2.18-22.26a.89.89,0,0,1,.92-1c1,0,12-.12,12-.12a.86.86,0,0,1,.65.74c0,.59,1.68,21.63,1.84,22.34a8,8,0,0,0,5.43,5.23c4,1.27,17.44.56,17.44.56s4.2-1.15,4.24-3.37a5.9,5.9,0,0,0-1.52-4.75c-1.31-1.61-5.89-4.61-5.89-4.61a4.59,4.59,0,0,1-.18-1.9c.06-1.4-.86-24.92-.86-24.92s1.31-2.08,2.06-3.59a29.44,29.44,0,0,0,2.26-5.79c0-.87.61-.73.76-.35s3.69,5.74,4,6.1.69.6.59.92C161.3,227.8,165.6,226.71,169.94,225.92Z"/><g class="cls-4"><g class="cls-5"><polygon class="cls-6" points="132.03 194.33 127.95 194.33 125.91 197.87 127.95 201.4 132.03 201.4 134.08 197.87 132.03 194.33"/><polygon class="cls-3" points="138.17 197.94 134.09 197.94 132.05 201.47 134.09 205.01 138.17 205.01 140.21 201.47 138.17 197.94"/><polygon class="cls-7" points="138.17 190.87 134.09 190.87 132.05 194.4 134.09 197.94 138.17 197.94 140.21 194.4 138.17 190.87"/><polygon class="cls-8" points="144.31 194.33 140.23 194.33 138.19 197.87 140.23 201.4 144.31 201.4 146.35 197.87 144.31 194.33"/><polygon class="cls-7" points="144.44 201.4 140.36 201.4 138.32 204.94 140.36 208.47 144.44 208.47 146.48 204.94 144.44 201.4"/><polygon class="cls-6" points="138.31 205.01 134.22 205.01 132.18 208.54 134.22 212.08 138.31 212.08 140.35 208.54 138.31 205.01"/><polygon class="cls-6" points="132.17 201.54 128.09 201.54 126.05 205.07 128.09 208.61 132.17 208.61 134.21 205.07 132.17 201.54"/><polygon class="cls-6" points="144.6 208.74 140.52 208.74 138.48 212.28 140.52 215.81 144.6 215.81 146.65 212.28 144.6 208.74"/><polygon class="cls-3" points="150.74 212.34 146.66 212.34 144.62 215.88 146.66 219.41 150.74 219.41 152.78 215.88 150.74 212.34"/><polygon class="cls-8" points="150.74 205.27 146.66 205.27 144.62 208.81 146.66 212.34 150.74 212.34 152.78 208.81 150.74 205.27"/><polygon class="cls-8" points="156.88 208.74 152.79 208.74 150.75 212.28 152.79 215.81 156.88 215.81 158.92 212.28 156.88 208.74"/><polygon class="cls-7" points="157.01 215.81 152.93 215.81 150.89 219.35 152.93 222.88 157.01 222.88 159.05 219.35 157.01 215.81"/><polygon class="cls-6" points="150.87 219.41 146.79 219.41 144.75 222.95 146.79 226.49 150.87 226.49 152.91 222.95 150.87 219.41"/><polygon class="cls-8" points="144.74 215.95 140.66 215.95 138.61 219.48 140.66 223.02 144.74 223.02 146.78 219.48 144.74 215.95"/><polygon class="cls-9" points="150.43 190.66 146.35 190.66 144.31 194.19 146.35 197.73 150.43 197.73 152.47 194.19 150.43 190.66"/><polygon class="cls-3" points="156.56 194.26 152.48 194.26 150.44 197.79 152.48 201.33 156.56 201.33 158.61 197.79 156.56 194.26"/><polygon class="cls-9" points="156.56 187.19 152.48 187.19 150.44 190.72 152.48 194.26 156.56 194.26 158.61 190.72 156.56 187.19"/><polygon class="cls-6" points="156.7 201.33 152.62 201.33 150.57 204.86 152.62 208.4 156.7 208.4 158.74 204.86 156.7 201.33"/><polygon class="cls-9" points="150.56 197.86 146.48 197.86 144.44 201.39 146.48 204.93 150.56 204.93 152.6 201.39 150.56 197.86"/><path class="cls-6" d="M139.18,181.31l-1,0a8.71,8.71,0,0,1-5.57-1.92l-.55,1,2,3.54h4.08l1.52-2.63Z"/><path class="cls-6" d="M95.22,179.92a9,9,0,0,1-1.66-.26l.94,1.63h4.08l.14-.25A27.2,27.2,0,0,1,95.22,179.92Z"/><path class="cls-7" d="M143,180.46a8.11,8.11,0,0,1-1.53.57,9.58,9.58,0,0,1-1.76.27l-1.56,2.7,2,3.54h4.08l2-3.54-2-3.54Z"/><path class="cls-7" d="M149.71,176.86l-.19.15a8.61,8.61,0,0,1-2.12,1.66A12,12,0,0,1,145,179.8l-.44.14-.26.46,2,3.54h4.08l2-3.54-2-3.54Z"/><polygon class="cls-9" points="150.57 183.93 146.49 183.93 144.45 187.47 146.49 191 150.57 191 152.61 187.47 150.57 183.93"/><polygon class="cls-3" points="144.44 187.53 140.35 187.53 138.31 191.07 140.35 194.6 144.44 194.6 146.48 191.07 144.44 187.53"/><polygon class="cls-8" points="138.3 184.06 134.22 184.06 132.18 187.6 134.22 191.13 138.3 191.13 140.34 187.6 138.3 184.06"/><polygon class="cls-9" points="125.6 212.42 121.52 212.42 119.47 215.96 121.52 219.49 125.6 219.49 127.64 215.96 125.6 212.42"/><polygon class="cls-3" points="131.73 216.02 127.65 216.02 125.61 219.56 127.65 223.09 131.73 223.09 133.77 219.56 131.73 216.02"/><polygon class="cls-7" points="131.73 208.95 127.65 208.95 125.61 212.49 127.65 216.02 131.73 216.02 133.77 212.49 131.73 208.95"/><polygon class="cls-9" points="137.87 212.42 133.79 212.42 131.75 215.96 133.79 219.49 137.87 219.49 139.91 215.96 137.87 212.42"/><polygon class="cls-6" points="138 219.49 133.92 219.49 131.88 223.03 133.92 226.56 138 226.56 140.04 223.03 138 219.49"/><polygon class="cls-7" points="125.73 219.63 121.65 219.63 119.61 223.16 121.65 226.69 125.73 226.69 127.77 223.16 125.73 219.63"/><polygon class="cls-8" points="113.03 197.71 108.95 197.71 106.91 201.24 108.95 204.78 113.03 204.78 115.07 201.24 113.03 197.71"/><polygon class="cls-8" points="106.69 193.48 102.61 193.48 100.57 197.02 102.61 200.55 106.69 200.55 108.74 197.02 106.69 193.48"/><polygon class="cls-3" points="119.16 201.31 115.08 201.31 113.04 204.84 115.08 208.38 119.16 208.38 121.2 204.84 119.16 201.31"/><polygon class="cls-6" points="125.3 197.71 121.22 197.71 119.18 201.24 121.22 204.78 125.3 204.78 127.34 201.24 125.3 197.71"/><polygon class="cls-8" points="125.43 204.78 121.35 204.78 119.31 208.31 121.35 211.85 125.43 211.85 127.47 208.31 125.43 204.78"/><polygon class="cls-6" points="119.3 208.38 115.22 208.38 113.17 211.91 115.22 215.45 119.3 215.45 121.34 211.91 119.3 208.38"/><polygon class="cls-7" points="113.16 204.91 109.08 204.91 107.04 208.44 109.08 211.98 113.16 211.98 115.2 208.44 113.16 204.91"/><polygon class="cls-6" points="157.37 223.36 153.28 223.36 151.24 226.9 153.28 230.43 157.37 230.43 159.41 226.9 157.37 223.36"/><polygon class="cls-7" points="163.5 219.89 159.42 219.89 157.38 223.43 159.42 226.96 163.5 226.96 165.54 223.43 163.5 219.89"/><polygon class="cls-8" points="169.64 223.36 165.56 223.36 163.52 226.9 165.56 230.43 169.64 230.43 171.68 226.9 169.64 223.36"/><polygon class="cls-6" points="163.5 205.89 159.42 205.89 157.38 209.42 159.42 212.96 163.5 212.96 165.54 209.42 163.5 205.89"/><polygon class="cls-7" points="169.63 209.49 165.55 209.49 163.51 213.02 165.55 216.56 169.63 216.56 171.68 213.02 169.63 209.49"/><polygon class="cls-3" points="169.77 216.56 165.69 216.56 163.65 220.09 165.69 223.63 169.77 223.63 171.81 220.09 169.77 216.56"/><polygon class="cls-8" points="163.63 213.09 159.55 213.09 157.51 216.63 159.55 220.16 163.63 220.16 165.67 216.63 163.63 213.09"/><polygon class="cls-9" points="150.93 241.45 146.85 241.45 144.81 244.98 146.85 248.52 150.93 248.52 152.97 244.98 150.93 241.45"/><polygon class="cls-7" points="151.06 248.65 146.98 248.65 144.94 252.19 146.98 255.72 151.06 255.72 153.1 252.19 151.06 248.65"/><polygon class="cls-8" points="138.36 226.73 134.28 226.73 132.24 230.27 134.28 233.8 138.36 233.8 140.4 230.27 138.36 226.73"/><polygon class="cls-3" points="144.5 230.34 140.41 230.34 138.37 233.87 140.41 237.41 144.5 237.41 146.54 233.87 144.5 230.34"/><polygon class="cls-9" points="144.5 223.26 140.41 223.26 138.37 226.8 140.41 230.34 144.5 230.34 146.54 226.8 144.5 223.26"/><polygon class="cls-6" points="150.63 226.73 146.55 226.73 144.51 230.27 146.55 233.8 150.63 233.8 152.67 230.27 150.63 226.73"/><polygon class="cls-8" points="150.77 233.8 146.68 233.8 144.64 237.34 146.68 240.87 150.77 240.87 152.81 237.34 150.77 233.8"/><polygon class="cls-6" points="144.63 237.41 140.55 237.41 138.51 240.94 140.55 244.47 144.63 244.47 146.67 240.94 144.63 237.41"/><polygon class="cls-7" points="138.49 233.94 134.41 233.94 132.37 237.47 134.41 241.01 138.49 241.01 140.53 237.47 138.49 233.94"/><polygon class="cls-6" points="100.9 233.39 96.81 233.39 94.77 236.92 96.81 240.46 100.9 240.46 102.94 236.92 100.9 233.39"/><polygon class="cls-3" points="107.03 236.99 102.95 236.99 100.91 240.53 102.95 244.06 107.03 244.06 109.07 240.53 107.03 236.99"/><polygon class="cls-7" points="107.03 229.92 102.95 229.92 100.91 233.46 102.95 236.99 107.03 236.99 109.07 233.46 107.03 229.92"/><polygon class="cls-8" points="113.17 233.39 109.09 233.39 107.05 236.92 109.09 240.46 113.17 240.46 115.21 236.92 113.17 233.39"/><polygon class="cls-7" points="113.3 240.46 109.22 240.46 107.18 243.99 109.22 247.53 113.3 247.53 115.34 243.99 113.3 240.46"/><polygon class="cls-6" points="107.17 244.06 103.08 244.06 101.04 247.59 103.08 251.13 107.17 251.13 109.21 247.59 107.17 244.06"/><polygon class="cls-6" points="101.03 240.59 96.95 240.59 94.91 244.13 96.95 247.66 101.03 247.66 103.07 244.13 101.03 240.59"/><polygon class="cls-6" points="113.47 247.8 109.38 247.8 107.34 251.33 109.38 254.87 113.47 254.87 115.51 251.33 113.47 247.8"/><polygon class="cls-3" points="151.27 262.48 147.19 262.48 145.15 266.02 147.19 269.55 151.27 269.55 153.31 266.02 151.27 262.48"/><polygon class="cls-3" points="132.27 223.43 128.19 223.43 126.15 226.96 128.19 230.5 132.27 230.5 134.31 226.96 132.27 223.43"/><polygon class="cls-8" points="151.27 255.41 147.19 255.41 145.15 258.95 147.19 262.48 151.27 262.48 153.31 258.95 151.27 255.41"/><polygon class="cls-8" points="157.4 258.88 153.32 258.88 151.28 262.41 153.32 265.95 157.4 265.95 159.44 262.41 157.4 258.88"/><polygon class="cls-8" points="132.6 252.55 128.52 252.55 126.48 256.08 128.52 259.62 132.6 259.62 134.64 256.08 132.6 252.55"/><polygon class="cls-7" points="157.54 265.95 153.46 265.95 151.41 269.49 153.46 273.02 157.54 273.02 159.58 269.49 157.54 265.95"/><polygon class="cls-7" points="131.68 230.59 127.6 230.59 125.56 234.13 127.6 237.66 131.68 237.66 133.72 234.13 131.68 230.59"/><polygon class="cls-7" points="131.68 237.98 127.6 237.98 125.56 241.51 127.6 245.05 131.68 245.05 133.72 241.51 131.68 237.98"/><polygon class="cls-7" points="138.54 240.62 134.46 240.62 132.42 244.15 134.46 247.69 138.54 247.69 140.58 244.15 138.54 240.62"/><polygon class="cls-7" points="132.73 245.37 128.65 245.37 126.61 248.9 128.65 252.44 132.73 252.44 134.77 248.9 132.73 245.37"/><polygon class="cls-7" points="143.82 244.84 139.73 244.84 137.69 248.37 139.73 251.91 143.82 251.91 145.86 248.37 143.82 244.84"/><polygon class="cls-6" points="151.4 269.55 147.32 269.55 145.28 273.09 147.32 276.62 151.4 276.62 153.44 273.09 151.4 269.55"/><polygon class="cls-3" points="138.6 256.15 134.52 256.15 132.48 259.68 134.52 263.22 138.6 263.22 140.64 259.68 138.6 256.15"/><polygon class="cls-8" points="138.6 249.08 134.52 249.08 132.48 252.61 134.52 256.15 138.6 256.15 140.64 252.61 138.6 249.08"/><polygon class="cls-8" points="144.74 252.55 140.66 252.55 138.62 256.08 140.66 259.62 144.74 259.62 146.78 256.08 144.74 252.55"/><polygon class="cls-7" points="144.87 259.62 140.79 259.62 138.75 263.15 140.79 266.69 144.87 266.69 146.91 263.15 144.87 259.62"/><polygon class="cls-6" points="138.74 263.22 134.65 263.22 132.61 266.75 134.65 270.29 138.74 270.29 140.78 266.75 138.74 263.22"/><polygon class="cls-6" points="144.54 266.91 140.46 266.91 138.42 270.45 140.46 273.98 144.54 273.98 146.58 270.45 144.54 266.91"/><polygon class="cls-6" points="132.4 259.52 128.32 259.52 126.28 263.06 128.32 266.59 132.4 266.59 134.44 263.06 132.4 259.52"/><polygon class="cls-8" points="113.6 255 109.52 255 107.48 258.54 109.52 262.07 113.6 262.07 115.64 258.54 113.6 255"/><polygon class="cls-8" points="88.27 262.39 84.19 262.39 82.14 265.92 84.19 269.46 88.27 269.46 90.31 265.92 88.27 262.39"/><polygon class="cls-9" points="119.29 229.71 115.21 229.71 113.17 233.24 115.21 236.78 119.29 236.78 121.33 233.24 119.29 229.71"/><polygon class="cls-3" points="125.43 233.31 121.34 233.31 119.3 236.85 121.34 240.38 125.43 240.38 127.47 236.85 125.43 233.31"/><polygon class="cls-9" points="125.43 226.24 121.34 226.24 119.3 229.78 121.34 233.31 125.43 233.31 127.47 229.78 125.43 226.24"/><polygon class="cls-6" points="125.56 240.38 121.48 240.38 119.44 243.92 121.48 247.45 125.56 247.45 127.6 243.92 125.56 240.38"/><polygon class="cls-9" points="119.42 236.91 115.34 236.91 113.3 240.45 115.34 243.98 119.42 243.98 121.47 240.45 119.42 236.91"/><polygon class="cls-6" points="107.03 215.91 102.95 215.91 100.91 219.45 102.95 222.98 107.03 222.98 109.07 219.45 107.03 215.91"/><polygon class="cls-7" points="113.17 219.52 109.08 219.52 107.04 223.05 109.08 226.59 113.17 226.59 115.21 223.05 113.17 219.52"/><polygon class="cls-3" points="113.17 212.45 109.08 212.45 107.04 215.98 109.08 219.52 113.17 219.52 115.21 215.98 113.17 212.45"/><polygon class="cls-7" points="119.3 215.91 115.22 215.91 113.18 219.45 115.22 222.98 119.3 222.98 121.34 219.45 119.3 215.91"/><polygon class="cls-9" points="119.44 222.98 115.35 222.98 113.31 226.52 115.35 230.05 119.44 230.05 121.48 226.52 119.44 222.98"/><polygon class="cls-3" points="113.3 226.59 109.22 226.59 107.17 230.12 109.22 233.66 113.3 233.66 115.34 230.12 113.3 226.59"/><polygon class="cls-8" points="107.16 223.12 103.08 223.12 101.04 226.65 103.08 230.19 107.16 230.19 109.2 226.65 107.16 223.12"/><polygon class="cls-9" points="94.46 251.47 90.38 251.47 88.34 255.01 90.38 258.55 94.46 258.55 96.5 255.01 94.46 251.47"/><polygon class="cls-3" points="100.6 255.08 96.51 255.08 94.47 258.61 96.51 262.15 100.6 262.15 102.64 258.61 100.6 255.08"/><polygon class="cls-7" points="100.6 248.01 96.51 248.01 94.47 251.54 96.51 255.08 100.6 255.08 102.64 251.54 100.6 248.01"/><polygon class="cls-9" points="106.73 251.47 102.65 251.47 100.61 255.01 102.65 258.55 106.73 258.55 108.77 255.01 106.73 251.47"/><polygon class="cls-6" points="106.87 258.55 102.78 258.55 100.74 262.08 102.78 265.62 106.87 265.62 108.91 262.08 106.87 258.55"/><polygon class="cls-6" points="112.67 262.24 108.59 262.24 106.55 265.77 108.59 269.31 112.67 269.31 114.71 265.77 112.67 262.24"/><polygon class="cls-6" points="100.53 262.24 96.45 262.24 94.41 265.77 96.45 269.31 100.53 269.31 102.57 265.77 100.53 262.24"/><polygon class="cls-6" points="100.53 269.63 96.45 269.63 94.41 273.16 96.45 276.7 100.53 276.7 102.57 273.16 100.53 269.63"/><polygon class="cls-6" points="106.87 265.93 102.78 265.93 100.74 269.47 102.78 273 106.87 273 108.91 269.47 106.87 265.93"/><polygon class="cls-7" points="94.59 258.68 90.51 258.68 88.47 262.21 90.51 265.75 94.59 265.75 96.63 262.21 94.59 258.68"/><polygon class="cls-7" points="94.06 266.6 89.98 266.6 87.94 270.13 89.98 273.67 94.06 273.67 96.11 270.13 94.06 266.6"/><polygon class="cls-6" points="94.16 236.76 90.08 236.76 88.04 240.29 90.08 243.83 94.16 243.83 96.2 240.29 94.16 236.76"/><polygon class="cls-8" points="94.3 243.83 90.21 243.83 88.17 247.37 90.21 250.9 94.3 250.9 96.34 247.37 94.3 243.83"/><polygon class="cls-3" points="81.17 207.44 77.09 207.44 75.05 210.97 77.09 214.51 81.17 214.51 83.21 210.97 81.17 207.44"/><polygon class="cls-7" points="81.17 200.37 77.09 200.37 75.05 203.9 77.09 207.44 81.17 207.44 83.21 203.9 81.17 200.37"/><polygon class="cls-8" points="87.31 203.83 83.23 203.83 81.19 207.37 83.23 210.9 87.31 210.9 89.35 207.37 87.31 203.83"/><polygon class="cls-7" points="87.44 210.9 83.36 210.9 81.32 214.44 83.36 217.97 87.44 217.97 89.48 214.44 87.44 210.9"/><polygon class="cls-6" points="81.31 214.51 77.22 214.51 75.18 218.04 77.22 221.58 81.31 221.58 83.35 218.04 81.31 214.51"/><polygon class="cls-6" points="75.17 211.04 71.09 211.04 69.05 214.57 71.09 218.11 75.17 218.11 77.21 214.57 75.17 211.04"/><polygon class="cls-6" points="87.61 218.24 83.52 218.24 81.48 221.78 83.52 225.31 87.61 225.31 89.65 221.78 87.61 218.24"/><polygon class="cls-3" points="93.74 221.84 89.66 221.84 87.62 225.38 89.66 228.91 93.74 228.91 95.78 225.38 93.74 221.84"/><polygon class="cls-8" points="93.74 214.77 89.66 214.77 87.62 218.31 89.66 221.84 93.74 221.84 95.78 218.31 93.74 214.77"/><polygon class="cls-8" points="99.88 218.24 95.8 218.24 93.76 221.78 95.8 225.31 99.88 225.31 101.92 221.78 99.88 218.24"/><polygon class="cls-8" points="106.74 208.22 102.66 208.22 100.62 211.75 102.66 215.28 106.74 215.28 108.78 211.75 106.74 208.22"/><polygon class="cls-7" points="100.01 225.31 95.93 225.31 93.89 228.85 95.93 232.38 100.01 232.38 102.05 228.85 100.01 225.31"/><polygon class="cls-6" points="93.88 228.91 89.79 228.91 87.75 232.45 89.79 235.98 93.88 235.98 95.92 232.45 93.88 228.91"/><polygon class="cls-9" points="93.43 200.16 89.35 200.16 87.31 203.69 89.35 207.22 93.43 207.22 95.47 203.69 93.43 200.16"/><polygon class="cls-3" points="99.57 203.76 95.48 203.76 93.44 207.29 95.48 210.83 99.57 210.83 101.61 207.29 99.57 203.76"/><polygon class="cls-9" points="99.57 196.69 95.48 196.69 93.44 200.22 95.48 203.76 99.57 203.76 101.61 200.22 99.57 196.69"/><polygon class="cls-9" points="105.9 185.6 101.82 185.6 99.78 189.14 101.82 192.67 105.9 192.67 107.94 189.14 105.9 185.6"/><polygon class="cls-9" points="105.9 200.38 101.82 200.38 99.78 203.92 101.82 207.45 105.9 207.45 107.94 203.92 105.9 200.38"/><polygon class="cls-6" points="99.7 210.83 95.62 210.83 93.58 214.36 95.62 217.9 99.7 217.9 101.74 214.36 99.7 210.83"/><polygon class="cls-9" points="93.56 207.36 89.48 207.36 87.44 210.89 89.48 214.43 93.56 214.43 95.61 210.89 93.56 207.36"/><path class="cls-6" d="M90.8,178.44H88.7l-2,3.54,2,3.54h4.08l2-3.54-1.35-2.34A8.83,8.83,0,0,1,90.8,178.44Z"/><polygon class="cls-6" points="99.11 182.14 95.03 182.14 92.99 185.67 95.03 189.21 99.11 189.21 101.15 185.67 99.11 182.14"/><polygon class="cls-6" points="100.17 189.53 96.09 189.53 94.05 193.06 96.09 196.6 100.17 196.6 102.21 193.06 100.17 189.53"/><polygon class="cls-7" points="87.31 189.96 83.22 189.96 81.18 193.5 83.22 197.03 87.31 197.03 89.35 193.5 87.31 189.96"/><polygon class="cls-7" points="93.44 186.36 89.36 186.36 87.32 189.9 89.36 193.43 93.44 193.43 95.48 189.9 93.44 186.36"/><polygon class="cls-9" points="93.57 193.43 89.49 193.43 87.45 196.97 89.49 200.5 93.57 200.5 95.61 196.97 93.57 193.43"/><path class="cls-9" d="M104.92,181.71a22,22,0,0,1-5.85-.59h0l2,3.54h4.08l1.91-3.31A9.82,9.82,0,0,1,104.92,181.71Z"/><polygon class="cls-3" points="87.44 197.03 83.36 197.03 81.31 200.57 83.36 204.1 87.44 204.1 89.48 200.57 87.44 197.03"/><polygon class="cls-8" points="81.3 193.56 77.22 193.56 75.18 197.1 77.22 200.63 81.3 200.63 83.34 197.1 81.3 193.56"/><polygon class="cls-7" points="74.74 218.45 70.65 218.45 68.61 221.99 70.65 225.52 74.74 225.52 76.78 221.99 74.74 218.45"/><polygon class="cls-9" points="80.87 221.92 76.79 221.92 74.75 225.46 76.79 228.99 80.87 228.99 82.91 225.46 80.87 221.92"/></g></g><path class="cls-10" d="M79.87,153.34A13.88,13.88,0,0,1,68.75,162c-8.65,1.24-19.15-1.85-27.81-14.21s-16.07-6.18-17.3-3.71h0s-2.47,2.47-2.47,4.94-4.94-2.47-1.24-7.41a31.69,31.69,0,0,1,13.59-9.89c3.71-1.24,4.94-2.47,3.71-4.94s-14.83-3.71-21-6.18S1.4,111.95.16,105.77,5.1,86,10,83.52,15,86,13.75,87.23s-4.94,1.24-7.41,4.94S2.63,100.82,5.1,103.3s9.89,4.94,14.83,2.47,11.12-9.89,12.36-13.59,1.24-9.89,1.24-9.89,14.83,9.89,16.07,11.12l11.12,11.12L97.79,89.7s66.73-1.24,68-1.24S192.94,72.4,192.94,72.4s-1.24,8.65,0,9.89,8.65,4.94,13.59,11.12,6.18,12.36,4.94,16.07-4.94,4.94-7.41,7.41-6.18,4.94-4.94,7.41a8.34,8.34,0,0,0,7.41,4.94c3.71,0,12.36,1.24,14.83,3.71s2.47,3.71,2.47,3.71-6.18-4.94-16.07-3.71-21,2.47-23.48,4.94-11.12,3.71-14.83,7.41-1.24-6.18,0-12.36-9.89-40.78-9.89-40.78l-53.14,1.24-26,6.18-9.89,9.89Z"/><path class="cls-2" d="M169.11,105.4a49.93,49.93,0,0,0-31.93-24.78c2.31-8.54,5.14-19.68,5.69-24.75,1-8.8,2.62-15.46-1.9-18.79s-8.21-1.9-9.22,0-6.3,34.57-6.27,37.86a35.69,35.69,0,0,1-.4,4.28c-2.64,0-5.36,0-8.13.27a38.74,38.74,0,0,1-.43-4.55c0-3.29-5.26-36-6.27-37.86s-4.7-3.33-9.22,0-2.85,10-1.9,18.79c.56,5.18,3.51,16.72,5.85,25.33a84.88,84.88,0,0,0-13.89,4.07c-12.82,5.07-24.88,24.26-25.34,33.62s-6.18,34.73,15.53,53.28c0,0,6.26,6.66,15.06,8.88s42,4.12,53.46-2.54,19-13,22.4-25.85S177.46,120.94,169.11,105.4Z"/><circle class="cls-11" cx="93.77" cy="133.08" r="6.4"/><circle class="cls-11" cx="147.25" cy="133.08" r="6.4"/><ellipse class="cls-12" cx="93.63" cy="143.4" rx="6.4" ry="3.2"/><ellipse class="cls-12" cx="147.6" cy="143.4" rx="6.4" ry="3.2"/><path class="cls-13" d="M99.15,146s-3.45,3.58-1.52,6.63,5.59,4.91,10.6,5.57,22.17,1.46,27.56-.93,8.48-7.69,6.17-11.27-13.69-8-21.2-7.56S103,141.79,99.15,146Z"/><path class="cls-14" d="M116.29,137.59s0,3.06,2,4.66,5.07,1.46,6.41,0,2.28-5.34,1.45-6.53S115.87,133.46,116.29,137.59Z"/><path class="cls-14" d="M134.93,149.21a.77.77,0,0,0-.9-.17c-1,.29-6.73,1.06-8,.08a10.63,10.63,0,0,1-3.45-7.07s0,0,0-.06,0,0,0-.07l0-.07,0-.07,0-.07,0-.06,0-.06,0-.05-.06,0-.06,0-.06,0-.07,0-.07,0-.07,0h-.32l-.07,0-.07,0-.07,0-.06,0-.06,0-.06,0,0,.05,0,.06,0,.06,0,.07,0,.07,0,.07s0,0,0,.07,0,0,0,.06a10.63,10.63,0,0,1-3.45,7.07c-1.32,1-7.09.22-8-.08a.77.77,0,0,0-.86,1.25c.33.31,3.22.83,5.86.83a7.41,7.41,0,0,0,4-.78,11.42,11.42,0,0,0,3.3-4.75,11.42,11.42,0,0,0,3.3,4.75,7.4,7.4,0,0,0,4,.78c2.64,0,5.53-.52,5.86-.83A.77.77,0,0,0,134.93,149.21Z"/><path class="cls-15" d="M147.1,118.77s-13.26,2-13.66,3.11,26.52-1.56,25.72-2.4S147.1,118.77,147.1,118.77Z"/><path class="cls-15" d="M93.4,118.77s13.26,2,13.66,3.11-26.52-1.56-25.72-2.4S93.4,118.77,93.4,118.77Z"/><path class="cls-15" d="M102.88,98.63a50.28,50.28,0,0,0,20.77,2.44c11-1.22,17.11-3.67,22-2.44s12.22,12.22,13.44,19.55,14.62,18.61,14.62,23.49,3.53-1.08,4.75-4.75.18-10.19,3.85-17.52-2.44-14.66,3.67-29.33,12.22-23.22,2.44-34.21-29.33-20.77-50.1-28.1S104.1,20.43,106.54,13.1,112.65,3.33,120,4.55s11,4.89,8.55,7.33,12.22,6.11,13.44,0-7.33-14.66-24.44-11S80.88,14.32,72.33,24.1c0,0-3.67,1.22-6.11,9.78s-4.89,7.33-8.55,7.33S43,38.76,38.12,42.43,29.56,46.09,30.78,51s3.67,4.89,3.67,4.89S32,49.76,35.67,48.54s11,0,9.78,2.44-6.11,7.33-7.33,6.11a3.78,3.78,0,0,0-2.44-1.22,4.31,4.31,0,0,1-1.22,4.89C32,63.2,25.9,66.87,25.9,74.2S30.78,84,35.67,86.42s11,3.67,11,8.55-3.67,7.33,0,13.44,6.11,4.89,11,7.33,6.79,21.72,6.79,21.72S80.88,106,84.55,103.52,89.44,97.41,102.88,98.63Z"/><path class="cls-10" d="M66,134.29s4.83-5.8,6.33-10.56a40.51,40.51,0,0,1,4.22-8.44c5.28-7.39,6.86-11.61,11.62-14.21C92.63,98.66,94.93,98,101,99.25s8.55,1.22,13.44,2.44a38.29,38.29,0,0,0,6.72.61c3.67,0,7.33,0,9.78-1.22s15.86-3.65,20.77,2.44,6.8,13.41,8.23,17.57c.88,2.59,13.19,18.47,13.19,18.47.18,0-5.59-11.38-6.33-13.72s-6.17-6-7.39-8.44-1.59-2.88.85-4.1,4.89-2.44,2.44-2.44-6.11,0-6.11-2.44,0-3.67,1.22-4.89-1.22,0-2.44,0-6.11-2.44-6.11-4.89-2.44,1.22-4.89-2.44c0,0-1.22,1.22-1.22-3.67a8.35,8.35,0,0,1-4.89,4.89c-3.67,1.22-6.11,3.67-7.33,1.22V96.19a17.26,17.26,0,0,1-4.78,4.32s-11.28,1.22-13.72,0-1.05-3.1-1.05-3.1l-1.22,2.44s-1.22,0-2.44-3.67a12.31,12.31,0,0,1-1.22-3.67c0-1.22-1.22,4.89-1.22,6.11s-3.67,0-4.89-2.44-1.22-7.33,2.44-9.78S100.43,84,98,84,85.77,81.53,82.1,84s-7.75,6.9-11,12.22C68.15,101,66,118.12,66,120.57Z"/><path class="cls-16" d="M166.42,129.18s7.33-20.77,8.55-26.88,0-37.88-2.44-41.54-4.89,13.44-4.89,13.44,0-7.33-2.44-7.33-4.89,8.55-6.11,9.78-2.44-1.22-2.44-3.67a96.15,96.15,0,0,1-22-15.88c-9.78-9.78-12.22-13.44-13.44-14.66s-2.44-1.22-4.89,1.22S100.43,63.2,87,69.31c0,0-4.89,2.44-4.89,4.89v4.89s-3.67,0-4.89-6.11-2.44-6.11-3.67-4.89-2.44,6.11-2.44,6.11S68.66,64.42,68.66,62,65,63.2,65,64.42s-1.22,35.44-1.22,36.66,4.89,23.22,6.11,25.66c0,0,1.22,6.11,2.44,7.33s0-20.77,0-26.88,1.22-19.55,9.78-22,20.77-1.22,24.44,0,11,7.33,12.22,7.33,4.89-4.89,14.66-7.33,18.33-2.44,23.22,1.22c0,0,8.55,4.89,8.55,11v29.33c0,2.44-1.22,6.11,0,4.89A3.78,3.78,0,0,0,166.42,129.18Z"/><path class="cls-17" d="M118.76,80.31s-8.55-1.22-11-6.11c0,0-2.44-7.33-2.44-3.67s2.44,12.22,6.11,14.66,4.89,4.89,6.11,4.89h1.22Z"/><path class="cls-17" d="M106.54,63.2s1.22,8.55,3.67,11,7.33,3.67,8.55,3.67V46.09L113.87,51c-2.44,2.44-17.11,17.11-25.66,20.77,0,0-3.67,1.22-2.44,2.44s2.44,4.89,3.67,4.89h13.44s2.44,0,1.22-3.67-2.44-6.11-1.22-8.55S105.32,62,106.54,63.2Z"/><path class="cls-18" d="M71.11,88.86l2.44-2.44C76,84,79.66,82.75,78.44,80.31s-2.44-11-3.67-9.78a18.21,18.21,0,0,0-3.67,9.78Z"/><path class="cls-19" d="M84.55,84s11-1.22,13.44-1.22,9.78,1.22,11,2.44-2.44-6.11-2.44-6.11a27.72,27.72,0,0,1-4.89,1.22c-1.22,0-11-1.22-15.88,0S76,85.19,73.55,87.64s-2.44,4.89-2.44,13.44,0,0,1.22-3.67,2.44-8.55,6.11-11S84.55,84,84.55,84Z"/><path class="cls-18" d="M69.88,74.2s-1.22-7.33-2.44-8.55S65,97.41,65,101.08s4.89,25.66,6.11,26.88,0-18.33,0-20.77-2.44-2.44-2.44-8.55S69.88,79.08,69.88,74.2Z"/><path class="cls-20" d="M120,60.76s1.22-6.11,2.44-7.33,2.44,0,4.89,1.22,3.67,1.22,0-2.44S120,44.87,120,46.09Z"/><path class="cls-20" d="M166.42,124.29c-.55,1.09,3.67-12.22,3.67-15.88s-1.22-8.55,0-9.78,3.67,2.44,3.67-1.22-1.22-26.88-1.22-28.1V62s-1.22,1.22-2.44,6.11c0,0-2.44,7.33-2.44,8.55v11L165.19,84c-2.44-3.67-3.67-3.67-3.67-3.67L164,70.53s-3.67,7.33-4.89,7.33-1.22,1.22-3.67,1.22-3.67-2.44-2.44-3.67A1.69,1.69,0,0,0,153,73s0,2.44-3.67,3.67-12.22,1.22-13.44,1.22,0,0,0-3.67,0-7.33-1.22-9.78l-1.22-1.22h0s1.22,8.55,0,11-6.11,11-7.33,12.22,3.67-6.11,8.55-6.11,12.22-1.22,18.33,0,8.55,2.44,11,4.89,3.67,7.33,3.67,7.33S167.64,121.85,166.42,124.29Z"/><path class="cls-6" d="M123.1,220.1c-2.79-3.51-3.77-4.15-3.77-4.15s-.46-.58-1.69.87-3.34,6-4.11,8-.14,5.83-.14,5.83l.75,2.74s.46.58.52.06a28.42,28.42,0,0,1,0-4.25,10.92,10.92,0,0,1,1.53-4.07,3.94,3.94,0,0,1,3.45-2.26c2.68-.22,5.17,5.9,5,7a22.88,22.88,0,0,1,.22,2.68l-.12,1s1.11-.4,1.41-3A14.86,14.86,0,0,0,123.1,220.1Z"/><path class="cls-16" d="M129.94,232.9s1.4-.39,1.72-3.12a14.08,14.08,0,0,0-4.17-11c-3.65-3.73-4.92-4.43-4.92-4.43s-.61-.62-2.14.86-4.1,6.15-5,8.26,0,6.07,0,6.07l1,2.88s.61.62.67.08a24.35,24.35,0,0,1-.17-4.44,9.77,9.77,0,0,1,1.84-4.21s.92-2.1,4.33-2.26,6.75,6.29,6.62,7.38a19.91,19.91,0,0,1,.36,2.8l-.13,1.09"/><path class="cls-18" d="M121.83,214.86l-.08,6.62a10.17,10.17,0,0,0-2.14.86c-.73.47-1.59,2-2.45,3.58,0,0-1.11,3.74-.56,4.9a8.75,8.75,0,0,1,.27-8.25C119.38,218.44,118.77,217.82,121.83,214.86Z"/><path class="cls-18" d="M122.5,214.93c-.06.54,7.42,6.37,8.32,10.34s-1.09-2.33-2.31-3.58S122.5,214.93,122.5,214.93Z"/></g></g></svg>