<svg xmlns="http://www.w3.org/2000/svg" xmlns:xlink="http://www.w3.org/1999/xlink" viewBox="0 0 279.66 347.17"><defs><style>.cls-1{fill:none;}.cls-2{fill:#eae3b9;}.cls-3{fill:#b57a50;}.cls-4{fill:#725741;}.cls-5{fill:#7e675c;}.cls-23,.cls-5{stroke:#040000;}.cls-23,.cls-25,.cls-29,.cls-5{stroke-miterlimit:10;}.cls-6{fill:#dacfba;}.cls-33,.cls-7{fill:#207d98;}.cls-32,.cls-33,.cls-34,.cls-8{opacity:0.7;}.cls-9{clip-path:url(#clip-path);}.cls-10{fill:#0e283c;}.cls-11,.cls-31,.cls-36{fill:#174a67;}.cls-12,.cls-34,.cls-35{fill:#004e3f;}.cls-13,.cls-32{fill:#0b1a27;}.cls-14{fill:#c27c53;}.cls-15{opacity:0.71;}.cls-16{clip-path:url(#clip-path-2);}.cls-17{fill:#684033;}.cls-18{fill:#d8a766;}.cls-19{fill:#854a2d;}.cls-20{fill:#d48e5d;}.cls-21{fill:#efcf9a;}.cls-22{fill:#af724c;}.cls-23{fill:#d29b63;}.cls-24{fill:#fff;}.cls-25{fill:#dee181;stroke:#85bb43;}.cls-26{fill:#1e0e06;}.cls-27{fill:#5b3b24;}.cls-28{fill:#040000;}.cls-29{fill:#ecebd8;stroke:#b27952;}.cls-30{fill:#b27952;}.cls-31{opacity:0.8;}.cls-35,.cls-36{opacity:0.5;}.cls-37{fill:#28210c;}</style><clipPath id="clip-path"><path class="cls-1" d="M131.65,289.13c0,1.13-1.77,30.32-1.45,33.17s-.59,2-1.88,2.63a19.33,19.33,0,0,0-8.69,9.5c-2.63,6.06,5.9,6.76,6.55,7s18.89.75,21.36,0,8.32-2.74,9.12-7.46,3-30.14,3-30.14a1.2,1.2,0,0,1,1.25-1.33c1.33,0,16.3-.16,16.3-.16a1.16,1.16,0,0,1,.89,1c0,.81,2.28,29.28,2.5,30.24a10.9,10.9,0,0,0,7.35,7.08c5.42,1.72,23.61.75,23.61.75s5.69-1.56,5.74-4.56-.28-4.25-2.05-6.43-8-6.24-8-6.24a6.21,6.21,0,0,1-.24-2.58c.07-1.7-.93-27.71-1.13-32.85H131.62A2,2,0,0,1,131.65,289.13Z"/></clipPath><clipPath id="clip-path-2"><path class="cls-1" d="M236.55,281.92c-.72-3-8.82-29.22-17.67-42.27s-11.59-21.25-13.36-24.72l-1-2H134.19s-15.46,27-19.32,34.46-11.43,20.77-13.2,32.36c-.62,4.07-1,7-1.09,9.18h22.37a2.67,2.67,0,0,0-1.31-2.14,8,8,0,0,1-2.17-1.64c-.36-.48.2-1.57.8-2.66s4.23-6.72,4.23-6.72.64,0,.8,1.13a63.7,63.7,0,0,0,4.44,10c.8,1.08,1.43,1.26,1.58,2h74.24l0-.88s1.77-2.82,2.79-4.86,3-6.66,3.06-7.84.83-1,1-.47,5,7.77,5.43,8.25,1.17,1,.64,1.49-3.5,2.62-3.62,3.78a3.58,3.58,0,0,0,0,.52H237A28.54,28.54,0,0,0,236.55,281.92Z"/></clipPath></defs><title>rank1</title><g id="圖層_2" data-name="圖層 2"><g id="圖層_1-2" data-name="圖層 1"><path class="cls-2" d="M42.88,89.53A13.52,13.52,0,0,0,35.06,86c-4.91-.51-17.19-1.77-22.38-9.26S6.32,66.16,6.18,62.67,8,54.91,6.8,51.81l-2.34-6.2c-.39-1-3.88-.9-4-4.39L0,30.76q-.21-5.23.76-7.37S1,20.93,1.44,22s11.33,39.4,14.71,45.21A24.17,24.17,0,0,0,29.87,78.51c5.3,1.54,5.3,1.54,7-.27s3.35-3.63-.94-15S28.62,37.67,26.8,36,24,34.71,23.43,30.19,18.84,2.41,18.84,2.41s-.53-4.52,3.1-1.17S36.35,30,36.74,31.06s-2.32,3.24-2.32,3.24,9.77,35.26,13,37.58S58,75,63.44,61.12c0,0-2.75-16.67-7.43-29.06L47,8.29s-1.31-6.59,3.88.9,9.2,11.87,9,14.33-1.29,2.85-.12,5.95-.25,2.46,3.76,6.84A25.33,25.33,0,0,1,70,50.37S68.62,68.6,65.66,73.26,53.4,81.43,52.89,86.34s-.37,8.4,2.48,9.69,7.23-2.73,10.08-1.44,3,4.78-.12,5.95-8.66,2.09-8.91,4.54,64.69,205.75,64.69,205.75,1.31,6.59,3,4.78,4-5,4.25-7.51,1.29-2.85,3.24,2.32-2.8,17.58-3.7,21.46-2.32,3.24-6.59,1.31S108,322.88,105.62,316.68s5.3,1.54,6.73,2.18,4.91.51,4.13-1.56S50.23,107.42,50.23,107.42s-.78-2.07-3.88-.9S35,110.81,33.17,109.14s-.14-3.49.9-3.88L45.43,101S49,94.88,42.88,89.53Z"/><path class="cls-3" d="M20.66,4.08s9.75,25.83,8.72,26.22-5.42,4.41-5.17,2S20,5.51,20.66,4.08Z"/><path class="cls-4" d="M25.24,31.86A2.42,2.42,0,0,0,28,29.66,14.78,14.78,0,0,0,27,24.1s.14,3.49-.51,4.91S24.21,32.25,25.24,31.86Z"/><path class="cls-3" d="M27.84,35.6s1.68-1.81,2.07-.78,13,37.58,12.76,40-.25,2.46-2.32,3.24-.27-7-1.83-11.11S27.84,35.6,27.84,35.6Z"/><path class="cls-4" d="M25,34.32s3.24,2.32,2.85,1.29,2.07-.78,3.1-1.17,3.49-.14,4.13-1.56.64-1.42-.78-2.07-5.95-.12-7.62,1.7Z"/><path class="cls-3" d="M2,26.49S3.41,36.56,4.58,39.66L10,54.13c.39,1,2.09,8.66,1.44,10.08s-5.56.92-4.91-.51,2.69-11.64.88-13.31-2.73-7.23-4.15-7.88-2-5.17-2.09-8.66A32.62,32.62,0,0,1,2,26.49Z"/><path class="cls-3" d="M11,69.12S21.86,79.18,24.31,79.43,32.07,81.22,30,82a13.09,13.09,0,0,1-11.25-1.66c-4.66-3-8-8.77-8.42-9.8A1.08,1.08,0,0,1,11,69.12Z"/><path class="cls-4" d="M9.95,69.51a3.42,3.42,0,0,1,2.46.25c1.42.64,1.17,3.1,1.81,1.68s-1.56-4.13-3-4.78-3.49.14-3.1,1.17,2.34,6.2,3.37,5.81S9.95,69.51,9.95,69.51Z"/><path class="cls-3" d="M34.92,82.51S42.68,84.3,44.49,86s6.36,10.58,6.1,13-13,6.1-13.68,7.53-3.49.14-3.49.14,13.43-5.07,14.07-6.49-1.05-9-2.87-10.72-10-4.5-10-4.5S33.5,81.86,34.92,82.51Z"/><path class="cls-4" d="M37.63,80.3s7.76,1.79,8.15,2.83l3.51,9.3s-4.8-6.45-7.64-7.74S35.17,80.05,37.63,80.3Z"/><path class="cls-3" d="M35.24,108.36s.39,1,2.46.25,10.33-3.9,11.75-3.26,3.12,8.27,3.12,8.27l64.95,203.3s.39,1,.64-1.42-66-212.34-66-212.34-.39-1-5.56.92Z"/><path class="cls-3" d="M107.44,318.36c-.39-1,8.68,7.35,12.56,8.24s6.59-1.31,8.52-5.58a34,34,0,0,0,2.44-9.18s-1.91,13.7-3.19,16.55-.76,7.37-2.57,5.69S109.39,323.52,107.44,318.36Z"/><path class="cls-3" d="M116.23,319.76s3.24,2.32,4.27,1.93,2.32-3.24,2.32-3.24-3.1,1.17-3.49.14S116.23,319.76,116.23,319.76Z"/><path class="cls-5" d="M134.19,213.06s-15.46,27-19.32,34.46-11.43,20.77-13.2,32.36-1.29,14,0,15.62,5.15,5,7.57,4.83,4.51-3.06,5.31-5,1.61-4.19,1.61-4.19a11.56,11.56,0,0,0,3,1.34c.75,0,2.9.21,3.54-1.72s0-3.22-1.07-3.86a8,8,0,0,1-2.17-1.64c-.36-.48.2-1.57.81-2.66s4.23-6.72,4.23-6.72.64,0,.81,1.13a63.69,63.69,0,0,0,4.44,10c.91,1.23,1.61,1.29,1.61,2.42s-1.77,30.32-1.45,33.17-.59,2-1.88,2.63a19.33,19.33,0,0,0-8.69,9.5c-2.63,6.06,5.9,6.76,6.55,7s18.89.75,21.36,0,8.32-2.74,9.12-7.46,3-30.14,3-30.14a1.2,1.2,0,0,1,1.25-1.33c1.33,0,16.3-.16,16.3-.16a1.16,1.16,0,0,1,.89,1c0,.81,2.28,29.28,2.5,30.24a10.9,10.9,0,0,0,7.35,7.08c5.42,1.72,23.61.75,23.61.75s5.69-1.56,5.74-4.56-.28-4.25-2.05-6.43-8-6.24-8-6.24a6.21,6.21,0,0,1-.24-2.58c.08-1.89-1.17-33.73-1.17-33.73s1.77-2.82,2.79-4.86,3-6.66,3.06-7.84.83-1,1-.47,5,7.77,5.43,8.25,1.17,1,.64,1.49-3.5,2.62-3.62,3.78c0,0-.56,3.26,2.62,3.34s3.3-1.33,3.3-1.33.6-.08.81,1.17,3.42,7.85,5.55,8.25,7.93-1.93,9.06-5.27,1.09-9.62.36-12.64-8.82-29.22-17.67-42.27-11.59-21.25-13.36-24.72l-1-2Z"/><path class="cls-6" d="M146.56,283.75s5.58,7,13.95,8.31,18-1.74,21-8.31,5.39-25.91-6.14-33.53-22.69-2.23-24.73,0-7.25,8.18-7.07,16.55S144.7,279.91,146.56,283.75Z"/><path class="cls-7" d="M131,288.8c0,1.13-1.77,30.32-1.45,33.17s-.59,2-1.88,2.63a19.33,19.33,0,0,0-8.69,9.5c-2.63,6.06,5.9,6.76,6.55,7s18.89.75,21.36,0,8.32-2.74,9.12-7.46,3-30.14,3-30.14a1.2,1.2,0,0,1,1.25-1.33c1.33,0,16.3-.16,16.3-.16a1.16,1.16,0,0,1,.89,1c0,.81,2.28,29.28,2.5,30.24a10.9,10.9,0,0,0,7.35,7.08c5.42,1.72,23.61.75,23.61.75s5.69-1.56,5.74-4.56-.28-4.25-2.05-6.43-8-6.24-8-6.24a6.21,6.21,0,0,1-.24-2.58c.07-1.7-.93-27.71-1.13-32.85H131A2,2,0,0,1,131,288.8Z"/><g class="cls-8"><g class="cls-9"><polygon class="cls-10" points="204.65 303.97 199.65 303.97 197.15 308.31 199.65 312.64 204.65 312.64 207.16 308.31 204.65 303.97"/><polygon class="cls-11" points="204.82 312.8 199.81 312.8 197.31 317.13 199.81 321.47 204.82 321.47 207.32 317.13 204.82 312.8"/><polygon class="cls-12" points="189.25 285.94 184.25 285.94 181.75 290.27 184.25 294.61 189.25 294.61 191.75 290.27 189.25 285.94"/><polygon class="cls-7" points="196.77 290.36 191.77 290.36 189.27 294.69 191.77 299.02 196.77 299.02 199.27 294.69 196.77 290.36"/><polygon class="cls-13" points="204.29 285.94 199.29 285.94 196.79 290.27 199.29 294.61 204.29 294.61 206.79 290.27 204.29 285.94"/><polygon class="cls-12" points="204.45 294.61 199.45 294.61 196.95 298.94 199.45 303.27 204.45 303.27 206.96 298.94 204.45 294.61"/><polygon class="cls-13" points="196.93 299.02 191.93 299.02 189.43 303.35 191.93 307.68 196.93 307.68 199.44 303.35 196.93 299.02"/><polygon class="cls-11" points="189.41 294.77 184.41 294.77 181.91 299.1 184.41 303.43 189.41 303.43 191.91 299.1 189.41 294.77"/><polygon class="cls-13" points="143.34 294.1 138.34 294.1 135.84 298.43 138.34 302.76 143.34 302.76 145.84 298.43 143.34 294.1"/><polygon class="cls-7" points="150.86 298.51 145.86 298.51 143.36 302.84 145.86 307.18 150.86 307.18 153.36 302.84 150.86 298.51"/><polygon class="cls-11" points="150.86 289.85 145.86 289.85 143.36 294.18 145.86 298.51 150.86 298.51 153.36 294.18 150.86 289.85"/><polygon class="cls-12" points="158.38 294.1 153.38 294.1 150.88 298.43 153.38 302.76 158.38 302.76 160.88 298.43 158.38 294.1"/><polygon class="cls-11" points="158.54 302.76 153.54 302.76 151.04 307.09 153.54 311.43 158.54 311.43 161.04 307.09 158.54 302.76"/><polygon class="cls-13" points="151.02 307.18 146.02 307.18 143.52 311.51 146.02 315.84 151.02 315.84 153.52 311.51 151.02 307.18"/><polygon class="cls-13" points="143.5 302.93 138.5 302.93 136 307.26 138.5 311.59 143.5 311.59 146 307.26 143.5 302.93"/><polygon class="cls-13" points="158.74 311.75 153.74 311.75 151.24 316.09 153.74 320.42 158.74 320.42 161.24 316.09 158.74 311.75"/><polygon class="cls-7" points="205.07 329.75 200.07 329.75 197.56 334.08 200.07 338.41 205.07 338.41 207.57 334.08 205.07 329.75"/><polygon class="cls-12" points="205.07 321.08 200.07 321.08 197.56 325.42 200.07 329.75 205.07 329.75 207.57 325.42 205.07 321.08"/><polygon class="cls-12" points="212.59 325.34 207.59 325.34 205.09 329.67 207.59 334 212.59 334 215.09 329.67 212.59 325.34"/><polygon class="cls-12" points="182.19 317.57 177.19 317.57 174.69 321.91 177.19 326.24 182.19 326.24 184.69 321.91 182.19 317.57"/><polygon class="cls-11" points="212.75 334 207.75 334 205.25 338.33 207.75 342.67 212.75 342.67 215.25 338.33 212.75 334"/><polygon class="cls-11" points="181.06 290.67 176.06 290.67 173.56 295 176.06 299.33 181.06 299.33 183.56 295 181.06 290.67"/><polygon class="cls-11" points="181.06 299.72 176.06 299.72 173.56 304.05 176.06 308.39 181.06 308.39 183.56 304.05 181.06 299.72"/><polygon class="cls-11" points="189.47 302.96 184.47 302.96 181.97 307.29 184.47 311.62 189.47 311.62 191.97 307.29 189.47 302.96"/><polygon class="cls-11" points="182.35 308.78 177.35 308.78 174.85 313.11 177.35 317.44 182.35 317.44 184.85 313.11 182.35 308.78"/><polygon class="cls-11" points="195.94 308.13 190.93 308.13 188.43 312.46 190.93 316.79 195.94 316.79 198.44 312.46 195.94 308.13"/><polygon class="cls-13" points="205.23 338.41 200.23 338.41 197.73 342.75 200.23 347.08 205.23 347.08 207.73 342.75 205.23 338.41"/><polygon class="cls-7" points="189.55 321.99 184.54 321.99 182.04 326.32 184.54 330.65 189.55 330.65 192.05 326.32 189.55 321.99"/><polygon class="cls-12" points="189.55 313.32 184.54 313.32 182.04 317.66 184.54 321.99 189.55 321.99 192.05 317.66 189.55 313.32"/><polygon class="cls-12" points="197.07 317.57 192.06 317.57 189.56 321.91 192.06 326.24 197.07 326.24 199.57 321.91 197.07 317.57"/><polygon class="cls-11" points="197.23 326.24 192.23 326.24 189.73 330.57 192.23 334.9 197.23 334.9 199.73 330.57 197.23 326.24"/><polygon class="cls-13" points="189.71 330.65 184.71 330.65 182.21 334.99 184.71 339.32 189.71 339.32 192.21 334.99 189.71 330.65"/><polygon class="cls-13" points="196.82 335.18 191.82 335.18 189.32 339.51 191.82 343.85 196.82 343.85 199.32 339.51 196.82 335.18"/><polygon class="cls-13" points="181.95 326.13 176.95 326.13 174.44 330.46 176.95 334.79 181.95 334.79 184.45 330.46 181.95 326.13"/><polygon class="cls-12" points="158.91 320.58 153.9 320.58 151.4 324.91 153.9 329.25 158.91 329.25 161.41 324.91 158.91 320.58"/><polygon class="cls-12" points="127.86 329.64 122.86 329.64 120.36 333.97 122.86 338.3 127.86 338.3 130.36 333.97 127.86 329.64"/><polygon class="cls-10" points="165.88 289.59 160.88 289.59 158.38 293.92 160.88 298.25 165.88 298.25 168.38 293.92 165.88 289.59"/><polygon class="cls-7" points="173.4 294 168.4 294 165.9 298.33 168.4 302.67 173.4 302.67 175.9 298.33 173.4 294"/><polygon class="cls-10" points="173.4 285.34 168.4 285.34 165.9 289.67 168.4 294 173.4 294 175.9 289.67 173.4 285.34"/><polygon class="cls-10" points="166.04 298.42 161.04 298.42 158.54 302.75 161.04 307.08 166.04 307.08 168.54 302.75 166.04 298.42"/><polygon class="cls-7" points="158.54 285.76 153.53 285.76 151.03 290.09 153.53 294.43 158.54 294.43 161.04 290.09 158.54 285.76"/><polygon class="cls-10" points="135.45 316.26 130.45 316.26 127.95 320.59 130.45 324.93 135.45 324.93 137.95 320.59 135.45 316.26"/><polygon class="cls-7" points="142.97 320.68 137.97 320.68 135.47 325.01 137.97 329.34 142.97 329.34 145.47 325.01 142.97 320.68"/><polygon class="cls-11" points="142.97 312.01 137.97 312.01 135.47 316.34 137.97 320.68 142.97 320.68 145.47 316.34 142.97 312.01"/><polygon class="cls-10" points="150.49 316.26 145.49 316.26 142.99 320.59 145.49 324.93 150.49 324.93 152.99 320.59 150.49 316.26"/><polygon class="cls-13" points="150.65 324.93 145.65 324.93 143.15 329.26 145.65 333.59 150.65 333.59 153.16 329.26 150.65 324.93"/><polygon class="cls-13" points="157.77 329.45 152.76 329.45 150.26 333.79 152.76 338.12 157.77 338.12 160.27 333.79 157.77 329.45"/><polygon class="cls-13" points="142.89 329.45 137.89 329.45 135.39 333.79 137.89 338.12 142.89 338.12 145.39 333.79 142.89 329.45"/><polygon class="cls-13" points="142.89 338.51 137.89 338.51 135.39 342.84 137.89 347.17 142.89 347.17 145.39 342.84 142.89 338.51"/><polygon class="cls-13" points="150.65 333.98 145.65 333.98 143.15 338.31 145.65 342.65 150.65 342.65 153.16 338.31 150.65 333.98"/><polygon class="cls-11" points="135.61 325.09 130.61 325.09 128.11 329.42 130.61 333.75 135.61 333.75 138.12 329.42 135.61 325.09"/><polygon class="cls-11" points="134.97 334.79 129.96 334.79 127.46 339.12 129.96 343.46 134.97 343.46 137.47 339.12 134.97 334.79"/><polygon class="cls-13" points="135.09 298.23 130.08 298.23 127.58 302.56 130.08 306.89 135.09 306.89 137.59 302.56 135.09 298.23"/><polygon class="cls-12" points="135.25 306.89 130.25 306.89 127.75 311.23 130.25 315.56 135.25 315.56 137.75 311.23 135.25 306.89"/><polygon class="cls-11" points="142.25 284.2 137.25 284.2 134.75 288.53 137.25 292.86 142.25 292.86 144.76 288.53 142.25 284.2"/><polygon class="cls-13" points="134.74 288.61 129.73 288.61 127.23 292.95 129.73 297.28 134.74 297.28 137.24 292.95 134.74 288.61"/></g></g><path class="cls-14" d="M236.55,281.92c-.72-3-8.82-29.22-17.67-42.27s-11.59-21.25-13.36-24.72l-1-2H134.19s-15.46,27-19.32,34.46-11.43,20.77-13.2,32.36c-.62,4.07-1,7-1.09,9.18h22.37a2.67,2.67,0,0,0-1.31-2.14,8,8,0,0,1-2.17-1.64c-.36-.48.2-1.57.8-2.66s4.23-6.72,4.23-6.72.64,0,.8,1.13a63.7,63.7,0,0,0,4.44,10c.8,1.08,1.43,1.26,1.58,2h74.24l0-.88s1.77-2.82,2.79-4.86,3-6.66,3.06-7.84.83-1,1-.47,5,7.77,5.43,8.25,1.17,1,.64,1.49-3.5,2.62-3.62,3.78a3.58,3.58,0,0,0,0,.52H237A28.54,28.54,0,0,0,236.55,281.92Z"/><g class="cls-15"><g class="cls-16"><polygon class="cls-17" points="183.13 231.21 178.13 231.21 175.63 235.54 178.13 239.88 183.13 239.88 185.63 235.54 183.13 231.21"/><polygon class="cls-18" points="190.65 235.63 185.65 235.63 183.15 239.96 185.65 244.29 190.65 244.29 193.15 239.96 190.65 235.63"/><polygon class="cls-18" points="175.77 226.57 170.77 226.57 168.27 230.9 170.77 235.24 175.77 235.24 178.27 230.9 175.77 226.57"/><polygon class="cls-18" points="182.24 222.04 177.24 222.04 174.74 226.38 177.24 230.71 182.24 230.71 184.74 226.38 182.24 222.04"/><polygon class="cls-18" points="183.53 212.99 178.53 212.99 176.03 217.32 178.53 221.65 183.53 221.65 186.03 217.32 183.53 212.99"/><polygon class="cls-19" points="190.65 226.96 185.65 226.96 183.15 231.29 185.65 235.63 190.65 235.63 193.15 231.29 190.65 226.96"/><polygon class="cls-19" points="159.6 224.38 154.6 224.38 152.1 228.71 154.6 233.04 159.6 233.04 162.1 228.71 159.6 224.38"/><polygon class="cls-19" points="151.84 212.09 146.84 212.09 144.34 216.42 146.84 220.75 151.84 220.75 154.34 216.42 151.84 212.09"/><polygon class="cls-20" points="198.17 231.21 193.17 231.21 190.66 235.54 193.17 239.88 198.17 239.88 200.67 235.54 198.17 231.21"/><polygon class="cls-18" points="198.33 239.88 193.33 239.88 190.83 244.21 193.33 248.54 198.33 248.54 200.83 244.21 198.33 239.88"/><polygon class="cls-21" points="190.81 244.29 185.81 244.29 183.31 248.62 185.81 252.96 190.81 252.96 193.31 248.62 190.81 244.29"/><polygon class="cls-21" points="183.29 240.04 178.29 240.04 175.79 244.37 178.29 248.71 183.29 248.71 185.79 244.37 183.29 240.04"/><polygon class="cls-21" points="198.53 248.87 193.53 248.87 191.03 253.2 193.53 257.53 198.53 257.53 201.03 253.2 198.53 248.87"/><polygon class="cls-19" points="206.05 253.28 201.05 253.28 198.55 257.62 201.05 261.95 206.05 261.95 208.55 257.62 206.05 253.28"/><polygon class="cls-20" points="206.05 244.62 201.05 244.62 198.55 248.95 201.05 253.28 206.05 253.28 208.55 248.95 206.05 244.62"/><polygon class="cls-20" points="213.57 248.87 208.57 248.87 206.07 253.2 208.57 257.53 213.57 257.53 216.07 253.2 213.57 248.87"/><polygon class="cls-18" points="213.74 257.53 208.73 257.53 206.23 261.87 208.73 266.2 213.74 266.2 216.24 261.87 213.74 257.53"/><polygon class="cls-17" points="206.22 261.95 201.21 261.95 198.71 266.28 201.21 270.61 206.22 270.61 208.72 266.28 206.22 261.95"/><polygon class="cls-18" points="198.69 257.7 193.69 257.7 191.19 262.03 193.69 266.36 198.69 266.36 201.2 262.03 198.69 257.7"/><polygon class="cls-20" points="205.67 226.7 200.67 226.7 198.17 231.04 200.67 235.37 205.67 235.37 208.17 231.04 205.67 226.7"/><polygon class="cls-18" points="213.19 231.12 208.19 231.12 205.69 235.45 208.19 239.78 213.19 239.78 215.69 235.45 213.19 231.12"/><polygon class="cls-18" points="222.25 236.29 217.24 236.29 214.74 240.63 217.24 244.96 222.25 244.96 224.75 240.63 222.25 236.29"/><polygon class="cls-20" points="213.19 222.45 208.19 222.45 205.69 226.79 208.19 231.12 213.19 231.12 215.69 226.79 213.19 222.45"/><polygon class="cls-21" points="213.35 239.78 208.35 239.78 205.85 244.12 208.35 248.45 213.35 248.45 215.85 244.12 213.35 239.78"/><polygon class="cls-20" points="205.83 235.53 200.83 235.53 198.33 239.87 200.83 244.2 205.83 244.2 208.33 239.87 205.83 235.53"/><polygon class="cls-20" points="205.85 218.46 200.84 218.46 198.34 222.79 200.84 227.13 205.85 227.13 208.35 222.79 205.85 218.46"/><polygon class="cls-19" points="198.33 222.88 193.32 222.88 190.82 227.21 193.32 231.54 198.33 231.54 200.83 227.21 198.33 222.88"/><polygon class="cls-20" points="190.81 218.63 185.8 218.63 183.3 222.96 185.8 227.29 190.81 227.29 193.31 222.96 190.81 218.63"/><polygon class="cls-22" points="175.24 253.38 170.24 253.38 167.74 257.71 170.24 262.04 175.24 262.04 177.74 257.71 175.24 253.38"/><polygon class="cls-19" points="182.76 257.79 177.76 257.79 175.25 262.12 177.76 266.46 182.76 266.46 185.26 262.12 182.76 257.79"/><polygon class="cls-17" points="182.76 249.13 177.76 249.13 175.25 253.46 177.76 257.79 182.76 257.79 185.26 253.46 182.76 249.13"/><polygon class="cls-22" points="190.28 253.38 185.28 253.38 182.78 257.71 185.28 262.04 190.28 262.04 192.78 257.71 190.28 253.38"/><polygon class="cls-22" points="198.04 212.63 193.04 212.63 190.54 216.97 193.04 221.3 198.04 221.3 200.54 216.97 198.04 212.63"/><polygon class="cls-22" points="190.93 208.75 185.92 208.75 183.42 213.08 185.92 217.42 190.93 217.42 193.43 213.08 190.93 208.75"/><polygon class="cls-22" points="207.09 209.4 202.09 209.4 199.59 213.73 202.09 218.06 207.09 218.06 209.6 213.73 207.09 209.4"/><polygon class="cls-21" points="190.44 262.04 185.44 262.04 182.94 266.38 185.44 270.71 190.44 270.71 192.94 266.38 190.44 262.04"/><polygon class="cls-17" points="175.4 262.21 170.4 262.21 167.9 266.54 170.4 270.87 175.4 270.87 177.9 266.54 175.4 262.21"/><polygon class="cls-20" points="159.84 235.34 154.83 235.34 152.33 239.68 154.83 244.01 159.84 244.01 162.34 239.68 159.84 235.34"/><polygon class="cls-20" points="152.07 230.17 147.07 230.17 144.57 234.5 147.07 238.84 152.07 238.84 154.58 234.5 152.07 230.17"/><polygon class="cls-19" points="167.36 239.76 162.35 239.76 159.85 244.09 162.35 248.42 167.36 248.42 169.86 244.09 167.36 239.76"/><polygon class="cls-21" points="174.88 235.34 169.87 235.34 167.37 239.68 169.87 244.01 174.88 244.01 177.38 239.68 174.88 235.34"/><polygon class="cls-20" points="175.04 244.01 170.04 244.01 167.54 248.34 170.04 252.67 175.04 252.67 177.54 248.34 175.04 244.01"/><polygon class="cls-18" points="167.32 247.72 161.92 247.72 159.22 252.39 161.92 257.07 167.32 257.07 170.02 252.39 167.32 247.72"/><polygon class="cls-19" points="160 244.17 155 244.17 152.5 248.5 155 252.84 160 252.84 162.5 248.5 160 244.17"/><polygon class="cls-18" points="214.17 266.78 209.17 266.78 206.67 271.12 209.17 275.45 214.17 275.45 216.67 271.12 214.17 266.78"/><polygon class="cls-18" points="221.69 262.53 216.69 262.53 214.19 266.87 216.69 271.2 221.69 271.2 224.19 266.87 221.69 262.53"/><polygon class="cls-18" points="229.21 266.78 224.21 266.78 221.71 271.12 224.21 275.45 229.21 275.45 231.71 271.12 229.21 266.78"/><polygon class="cls-18" points="167.12 229.92 162.12 229.92 159.62 234.25 162.12 238.58 167.12 238.58 169.63 234.25 167.12 229.92"/><polygon class="cls-17" points="221.69 245.37 216.68 245.37 214.18 249.7 216.68 254.03 221.69 254.03 224.19 249.7 221.69 245.37"/><polygon class="cls-19" points="229.21 249.78 224.2 249.78 221.7 254.12 224.2 258.45 229.21 258.45 231.71 254.12 229.21 249.78"/><polygon class="cls-18" points="229.37 258.45 224.37 258.45 221.87 262.78 224.37 267.11 229.37 267.11 231.87 262.78 229.37 258.45"/><polygon class="cls-20" points="221.85 254.2 216.85 254.2 214.35 258.53 216.85 262.86 221.85 262.86 224.35 258.53 221.85 254.2"/><polygon class="cls-18" points="190.88 270.92 185.88 270.92 183.38 275.25 185.88 279.58 190.88 279.58 193.38 275.25 190.88 270.92"/><polygon class="cls-21" points="198.4 275.33 193.4 275.33 190.9 279.66 193.4 284 198.4 284 200.9 279.66 198.4 275.33"/><polygon class="cls-17" points="198.4 266.67 193.4 266.67 190.9 271 193.4 275.33 198.4 275.33 200.9 271 198.4 266.67"/><polygon class="cls-17" points="205.92 270.92 200.92 270.92 198.42 275.25 200.92 279.58 205.92 279.58 208.42 275.25 205.92 270.92"/><polygon class="cls-17" points="214.97 276.09 209.97 276.09 207.47 280.42 209.97 284.76 214.97 284.76 217.48 280.42 214.97 276.09"/><polygon class="cls-17" points="206.08 279.58 201.08 279.58 198.58 283.91 201.08 288.25 206.08 288.25 208.59 283.91 206.08 279.58"/><polygon class="cls-22" points="198.56 284 193.56 284 191.06 288.33 193.56 292.66 198.56 292.66 201.06 288.33 198.56 284"/><polygon class="cls-19" points="191.04 279.75 186.04 279.75 183.54 284.08 186.04 288.41 191.04 288.41 193.54 284.08 191.04 279.75"/><polygon class="cls-17" points="144.97 279.07 139.97 279.07 137.47 283.4 139.97 287.74 144.97 287.74 147.47 283.4 144.97 279.07"/><polygon class="cls-21" points="152.49 283.49 147.49 283.49 144.99 287.82 147.49 292.15 152.49 292.15 154.99 287.82 152.49 283.49"/><polygon class="cls-19" points="152.49 274.82 147.49 274.82 144.99 279.15 147.49 283.49 152.49 283.49 154.99 279.15 152.49 274.82"/><polygon class="cls-19" points="160.01 279.07 155.01 279.07 152.51 283.4 155.01 287.74 160.01 287.74 162.51 283.4 160.01 279.07"/><polygon class="cls-22" points="183.41 266.87 178.41 266.87 175.91 271.2 178.41 275.53 183.41 275.53 185.92 271.2 183.41 266.87"/><polygon class="cls-19" points="182.69 275.64 177.69 275.64 175.19 279.98 177.69 284.31 182.69 284.31 185.19 279.98 182.69 275.64"/><polygon class="cls-17" points="182.69 284.7 177.69 284.7 175.19 289.03 177.69 293.36 182.69 293.36 185.19 289.03 182.69 284.7"/><polygon class="cls-22" points="167.51 274.56 162.51 274.56 160.01 278.9 162.51 283.23 167.51 283.23 170.01 278.9 167.51 274.56"/><polygon class="cls-21" points="175.03 278.98 170.03 278.98 167.53 283.31 170.03 287.64 175.03 287.64 177.53 283.31 175.03 278.98"/><polygon class="cls-22" points="175.03 270.31 170.03 270.31 167.53 274.65 170.03 278.98 175.03 278.98 177.53 274.65 175.03 270.31"/><polygon class="cls-19" points="167.67 283.39 162.67 283.39 160.17 287.73 162.67 292.06 167.67 292.06 170.18 287.73 167.67 283.39"/><polygon class="cls-17" points="151.09 257.68 145.69 257.68 143 262.36 145.69 267.03 151.09 267.03 153.79 262.36 151.09 257.68"/><polygon class="cls-22" points="160 262.07 155 262.07 152.5 266.4 155 270.74 160 270.74 162.5 266.4 160 262.07"/><polygon class="cls-18" points="160 253.41 155 253.41 152.5 257.74 155 262.07 160 262.07 162.5 257.74 160 253.41"/><polygon class="cls-17" points="167.52 257.66 162.52 257.66 160.02 261.99 162.52 266.32 167.52 266.32 170.03 261.99 167.52 257.66"/><polygon class="cls-22" points="167.69 266.32 162.69 266.32 160.18 270.65 162.69 274.99 167.69 274.99 170.19 270.65 167.69 266.32"/><polygon class="cls-21" points="160.17 270.74 155.16 270.74 152.66 275.07 155.16 279.4 160.17 279.4 162.67 275.07 160.17 270.74"/><polygon class="cls-22" points="152.65 266.49 147.64 266.49 145.14 270.82 147.64 275.15 152.65 275.15 155.15 270.82 152.65 266.49"/><polygon class="cls-19" points="136.71 283.24 131.7 283.24 129.19 287.58 131.7 291.92 136.71 291.92 139.21 287.58 136.71 283.24"/><polygon class="cls-17" points="120.8 247.27 115.8 247.27 113.3 251.6 115.8 255.93 120.8 255.93 123.3 251.6 120.8 247.27"/><polygon class="cls-22" points="120.8 238.6 115.8 238.6 113.3 242.94 115.8 247.27 120.8 247.27 123.3 242.94 120.8 238.6"/><polygon class="cls-20" points="128.32 242.85 123.32 242.85 120.81 247.19 123.32 251.52 128.32 251.52 130.82 247.19 128.32 242.85"/><polygon class="cls-17" points="128.48 251.52 123.48 251.52 120.98 255.85 123.48 260.18 128.48 260.18 130.98 255.85 128.48 251.52"/><polygon class="cls-22" points="120.96 255.93 115.96 255.93 113.46 260.26 115.96 264.6 120.96 264.6 123.46 260.26 120.96 255.93"/><polygon class="cls-22" points="113.44 251.68 108.44 251.68 105.94 256.01 108.44 260.35 113.44 260.35 115.94 256.01 113.44 251.68"/><polygon class="cls-19" points="128.66 260.51 123.65 260.51 121.14 264.85 123.65 269.19 128.66 269.19 131.17 264.85 128.66 260.51"/><polygon class="cls-17" points="136.2 264.93 131.2 264.93 128.7 269.26 131.2 273.59 136.2 273.59 138.7 269.26 136.2 264.93"/><polygon class="cls-20" points="136.2 256.26 131.2 256.26 128.7 260.59 131.2 264.93 136.2 264.93 138.7 260.59 136.2 256.26"/><polygon class="cls-20" points="143.72 260.51 138.72 260.51 136.22 264.84 138.72 269.18 143.72 269.18 146.22 264.84 143.72 260.51"/><polygon class="cls-20" points="152.13 248.22 147.13 248.22 144.63 252.56 147.13 256.89 152.13 256.89 154.63 252.56 152.13 248.22"/><polygon class="cls-22" points="143.88 269.18 138.88 269.18 136.38 273.51 138.88 277.84 143.88 277.84 146.39 273.51 143.88 269.18"/><polygon class="cls-19" points="136.36 273.61 131.35 273.61 128.84 277.95 131.35 282.29 136.36 282.29 138.86 277.95 136.36 273.61"/><polygon class="cls-22" points="135.82 238.35 130.82 238.35 128.32 242.68 130.82 247.01 135.82 247.01 138.32 242.68 135.82 238.35"/><polygon class="cls-19" points="143.34 242.76 138.34 242.76 135.84 247.09 138.34 251.42 143.34 251.42 145.84 247.09 143.34 242.76"/><polygon class="cls-22" points="143.34 234.1 138.34 234.1 135.84 238.43 138.34 242.76 143.34 242.76 145.84 238.43 143.34 234.1"/><polygon class="cls-22" points="151.1 220.51 146.1 220.51 143.6 224.85 146.1 229.18 151.1 229.18 153.6 224.85 151.1 220.51"/><polygon class="cls-22" points="159.51 215.34 154.51 215.34 152 219.67 154.51 224 159.51 224 162.01 219.67 159.51 215.34"/><polygon class="cls-22" points="167.27 220.51 162.27 220.51 159.77 224.85 162.27 229.18 167.27 229.18 169.77 224.85 167.27 220.51"/><polygon class="cls-22" points="175.03 216.63 170.03 216.63 167.53 220.97 170.03 225.3 175.03 225.3 177.53 220.97 175.03 216.63"/><polygon class="cls-22" points="167.92 210.16 162.91 210.16 160.41 214.5 162.91 218.83 167.92 218.83 170.42 214.5 167.92 210.16"/><polygon class="cls-22" points="135.58 211.46 130.58 211.46 128.07 215.79 130.58 220.12 135.58 220.12 138.08 215.79 135.58 211.46"/><polygon class="cls-22" points="151.1 238.62 146.1 238.62 143.6 242.96 146.1 247.29 151.1 247.29 153.6 242.96 151.1 238.62"/><polygon class="cls-22" points="143.5 251.42 138.5 251.42 136 255.76 138.5 260.09 143.5 260.09 146 255.76 143.5 251.42"/><polygon class="cls-22" points="135.98 247.17 130.98 247.17 128.48 251.51 130.98 255.84 135.98 255.84 138.48 251.51 135.98 247.17"/><polygon class="cls-17" points="142.78 216.27 137.78 216.27 135.28 220.6 137.78 224.93 142.78 224.93 145.28 220.6 142.78 216.27"/><polygon class="cls-17" points="144.72 207.21 139.72 207.21 137.22 211.54 139.72 215.88 144.72 215.88 147.22 211.54 144.72 207.21"/><polygon class="cls-17" points="144.07 225.32 139.07 225.32 136.57 229.65 139.07 233.99 144.07 233.99 146.58 229.65 144.07 225.32"/><polygon class="cls-17" points="128.31 225.85 123.31 225.85 120.81 230.19 123.31 234.52 128.31 234.52 130.81 230.19 128.31 225.85"/><polygon class="cls-17" points="135.83 221.44 130.83 221.44 128.33 225.77 130.83 230.1 135.83 230.1 138.33 225.77 135.83 221.44"/><polygon class="cls-22" points="136 230.1 130.99 230.1 128.49 234.44 130.99 238.77 136 238.77 138.5 234.44 136 230.1"/><polygon class="cls-19" points="128.48 234.52 123.47 234.52 120.97 238.85 123.47 243.18 128.48 243.18 130.98 238.85 128.48 234.52"/><polygon class="cls-20" points="120.95 230.27 115.95 230.27 113.45 234.6 115.95 238.93 120.95 238.93 123.46 234.6 120.95 230.27"/><polygon class="cls-22" points="112.91 260.77 107.91 260.77 105.41 265.1 107.91 269.43 112.91 269.43 115.41 265.1 112.91 260.77"/><polygon class="cls-17" points="120.43 265.02 115.43 265.02 112.92 269.35 115.43 273.68 120.43 273.68 122.93 269.35 120.43 265.02"/><polygon class="cls-17" points="128.19 269.55 123.19 269.55 120.69 273.88 123.19 278.21 128.19 278.21 130.69 273.88 128.19 269.55"/><polygon class="cls-17" points="128.19 277.95 123.19 277.95 120.69 282.29 123.19 286.62 128.19 286.62 130.69 282.29 128.19 277.95"/></g></g><path class="cls-23" d="M232.62,114.21a67.34,67.34,0,0,0-11.5-15.26c2.63-1.57,5.64-5.08,3.25-9.1-3.56-6-9.05-6.63-13.42-4a5.24,5.24,0,0,0-2.64,3.1,68.9,68.9,0,0,0-25.5-9.41c-17.46-2.59-41.18.43-59.07,7.33a33,33,0,0,0-3.05,1.37,5.72,5.72,0,0,0-2.37-2.4c-4.37-2.59-9.86-1.94-13.42,4-2.13,3.59,0,6.77,2.4,8.53-10.6,10.77-18.47,25.53-18.91,34.15-.65,12.72-8.62,47.21,21.67,72.44,0,0,8.73,9.05,21,12.07s58.64,5.61,74.59-3.45,26.52-17.68,31.26-35.14S244.26,135.33,232.62,114.21Z"/><path class="cls-24" d="M134.85,160.29s-4.68,4.87-2.06,9,7.6,6.67,14.41,7.57,30.14,2,37.47-1.26,11.53-10.46,8.39-15.32S174.45,149.48,164.23,150,140.09,154.52,134.85,160.29Z"/><circle class="cls-24" cx="139.03" cy="136.41" r="16.28"/><circle class="cls-24" cx="188.6" cy="135.77" r="16.28"/><circle class="cls-25" cx="143.63" cy="136.26" r="8.68"/><circle class="cls-25" cx="184.58" cy="136.91" r="8.68"/><path class="cls-26" d="M191.82,108.66s-21.3,9-21.95,14.2,42.61-7.1,41.32-11S191.82,108.66,191.82,108.66Z"/><path class="cls-26" d="M134.39,108.66s21.3,9,21.95,14.2-42.61-7.1-41.32-11S134.39,108.66,134.39,108.66Z"/><path class="cls-26" d="M231.6,145.34s-2.59,14.23-5.17,22-11,15.52-16.17,19.4c-4.46,3.35-12.47,1.29-17.46-1.2s-6.24-5-12.48-5-20-1.25-27.45,0-6.24-1.25-10,2.5-3.87,9-8.3,8.22c-14.88-2.59-25.19-8-27.81-12.94-10.35-19.4-14.23-46-14.23-48.51,0-1.28-5.22,10-5.82,22.64-.58,12.12,3.43,25.61,4.53,28.46,3.23,8.41,18.11,27.81,29.75,33.63,15.18,7.59,34.36,5.92,43.1,5.92s34.6-1.49,41.63-5.27c8.41-4.53,21-14.28,23.28-17.46C236.13,188,244.91,159.06,231.6,145.34Z"/><path class="cls-26" d="M199,165.54s-5.37-2.54-7.4.74-2.41,6.42-5.57,8.19c-3.75,2.09-3.65,1.47-8.74,1.47s-16.28-.82-22.39,0-5.59.39-9.27-.73c-4.88-1.49-3.48-.74-6.27-2.23a27,27,0,0,1-4.88-6c-1.83-3.91-4.91,1.06-7.45-5.21-1-2.47,1.88,10.69,1.88,14.8s5.43,15.1,9.5,20,18.53,5.6,25.66,5.6,20.29.28,26-2.2C198,196.64,200.06,181.3,199,165.54Z"/><path class="cls-27" d="M130.08,173.55s5.87,14.17,7.1,12.54c1.94-2.59-.65-9.7-.6-15.35,0-5.86-.06-10.4,3.19-11.81s30.91-2.27,35.79-.87,11.37,0,13,5.63-1.19,19.23,3.69,16.42,7.74-18.31,7.68-20.64-2.62-5.22-14.62-8.45c0,0-17.6-1.61-21.22-1.43-12.67.61-9.85,0-16.19,1.83-9.56,2.76-12,1.83-15.49,3.66-2,1-5.63,3.66-5.57,7.2C126.86,164.27,130.08,173.55,130.08,173.55Z"/><path class="cls-27" d="M139.76,193.85c1.36,4.63,2.69,12.44,11,14.88s26.21,0,29.53,0,8.3-2.44,10-12.19,1.66-12.19,0-14.63-2.83,8.63-7.81,6.19-5.48-1.31-8.8-3.75-16.89-1.79-19,1.75c-1.94,3.23-10.35,3.88-12.94,1.29C138.16,183.83,137.49,186.14,139.76,193.85Z"/><path class="cls-28" d="M158.14,148.81s0,4.16,2.67,6.34,6.89,2,8.72,0,3.1-7.26,2-8.88S157.57,143.2,158.14,148.81Z"/><path class="cls-28" d="M181.5,164.74a.94.94,0,0,0-1.1-.21c-1.17.36-8.24,1.29-9.86.09a13,13,0,0,1-4.23-8.66s0-.05,0-.08,0-.06,0-.09l0-.09,0-.08,0-.08,0-.08-.06-.07-.06-.07-.07-.06-.07-.06-.08,0-.08,0-.09,0-.09,0h-.4l-.09,0-.09,0-.08,0-.08,0-.07.06-.07.06-.06.07-.06.07,0,.08,0,.08,0,.08,0,.09s0,.06,0,.09,0,.05,0,.08a13,13,0,0,1-4.23,8.66c-1.61,1.2-8.69.27-9.86-.09a.94.94,0,0,0-1.05,1.54c.41.38,4,1,7.19,1,2,0,3.9-.25,4.85-1a14,14,0,0,0,4-5.82,14,14,0,0,0,4,5.82c.95.71,2.84,1,4.85,1,3.24,0,6.78-.64,7.19-1A.94.94,0,0,0,181.5,164.74Z"/><polygon class="cls-17" points="206.38 294.1 130.71 293.45 127.47 283.75 208.32 283.75 206.38 294.1"/><path class="cls-29" d="M174.84,297.41s1.36-.5,1.73-3.71a18.21,18.21,0,0,0-3.74-12.8c-3.41-4.3-4.62-5.09-4.62-5.09s-.57-.72-2.08,1.06-4.1,7.34-5,9.84-.17,7.14-.17,7.14l.92,3.36s.57.72.64.07a34.82,34.82,0,0,1-.05-5.21,13.38,13.38,0,0,1,1.87-5,4.82,4.82,0,0,1,4.22-2.77c3.29-.27,6.33,7.24,6.18,8.52a28,28,0,0,1,.27,3.29l-.15,1.29"/><path class="cls-30" d="M167.49,276.38l-.24,7.78a9.3,9.3,0,0,0-2.08,1.06c-.72.57-1.58,2.42-2.44,4.28,0,0-1.16,4.42-.66,5.78a12.31,12.31,0,0,1,.46-9.71C165,280.66,164.47,279.94,167.49,276.38Z"/><path class="cls-30" d="M168.13,276.45c-.07.64,7,7.31,7.74,12s-1-2.72-2.13-4.15S168.13,276.45,168.13,276.45Z"/><rect class="cls-30" x="131.03" y="284.63" width="3.42" height="3.9" rx="0.81" ry="0.81"/><rect class="cls-30" x="135.26" y="284.63" width="3.42" height="3.9" rx="0.81" ry="0.81"/><rect class="cls-30" x="139.48" y="284.63" width="3.42" height="3.9" rx="0.81" ry="0.81"/><rect class="cls-30" x="143.71" y="284.63" width="3.42" height="3.9" rx="0.81" ry="0.81"/><rect class="cls-30" x="147.94" y="284.63" width="3.42" height="3.9" rx="0.81" ry="0.81"/><rect class="cls-30" x="152.16" y="284.63" width="3.42" height="3.9" rx="0.81" ry="0.81"/><rect class="cls-30" x="156.39" y="284.63" width="3.42" height="3.9" rx="0.81" ry="0.81"/><rect class="cls-30" x="131.03" y="288.9" width="3.42" height="3.9" rx="0.81" ry="0.81"/><rect class="cls-30" x="135.26" y="288.9" width="3.42" height="3.9" rx="0.81" ry="0.81"/><rect class="cls-30" x="139.48" y="288.9" width="3.42" height="3.9" rx="0.81" ry="0.81"/><rect class="cls-30" x="143.71" y="288.9" width="3.42" height="3.9" rx="0.81" ry="0.81"/><rect class="cls-30" x="147.94" y="288.9" width="3.42" height="3.9" rx="0.81" ry="0.81"/><rect class="cls-30" x="152.16" y="288.9" width="3.42" height="3.9" rx="0.81" ry="0.81"/><rect class="cls-30" x="156.39" y="288.9" width="3.42" height="3.9" rx="0.81" ry="0.81"/><rect class="cls-30" x="177.6" y="284.63" width="3.42" height="3.9" rx="0.81" ry="0.81"/><rect class="cls-30" x="181.82" y="284.63" width="3.42" height="3.9" rx="0.81" ry="0.81"/><rect class="cls-30" x="186.05" y="284.63" width="3.42" height="3.9" rx="0.81" ry="0.81"/><rect class="cls-30" x="190.28" y="284.63" width="3.42" height="3.9" rx="0.81" ry="0.81"/><rect class="cls-30" x="194.5" y="284.63" width="3.42" height="3.9" rx="0.81" ry="0.81"/><rect class="cls-30" x="198.73" y="284.63" width="3.42" height="3.9" rx="0.81" ry="0.81"/><rect class="cls-30" x="202.96" y="284.63" width="3.42" height="3.9" rx="0.81" ry="0.81"/><rect class="cls-30" x="177.6" y="288.9" width="3.42" height="3.9" rx="0.81" ry="0.81"/><rect class="cls-30" x="181.82" y="288.9" width="3.42" height="3.9" rx="0.81" ry="0.81"/><rect class="cls-30" x="186.05" y="288.9" width="3.42" height="3.9" rx="0.81" ry="0.81"/><rect class="cls-30" x="190.28" y="288.9" width="3.42" height="3.9" rx="0.81" ry="0.81"/><rect class="cls-30" x="194.5" y="288.9" width="3.42" height="3.9" rx="0.81" ry="0.81"/><rect class="cls-30" x="198.73" y="288.9" width="3.42" height="3.9" rx="0.81" ry="0.81"/><rect class="cls-30" x="202.96" y="288.9" width="3.42" height="3.9" rx="0.81" ry="0.81"/><path class="cls-7" d="M212.79,298s1,3,3.45,3,4.31,1.9,6.78,1.92,5.31-2.57,9.75-4,8.58-5.71,9-8.32,1-4.47-.85-6.35-4.56-2.65-3.69-3.76,4-3,2.35-4.08-4.07-1.15-4.56-2.65-.11-4.1,1.13-7.82-1.09-7.09-.23-8.2,2.35-4.08,1.62-6.33-2.58-4.12-1.71-5.23,1.13-7.82-.47-9-1.11.36-2.84,2.59-8.41,11.86-12.12,15.56-8,9.26-7.3,11.5l2.69,8.23-9.49-2.69c-4.07-1.15-3.82-.4-1.73,2.22s7.76,4.91,8.25,6.41,1,3-.13,3.35a1.87,1.87,0,0,0-.13,3.35c1.6,1.13,3,1.52,1,3S212.79,298,212.79,298Z"/><path class="cls-31" d="M212.79,298s1,3,3.45,3,4.31,1.9,6.78,1.92,5.31-2.57,9.75-4,8.58-5.71,9-8.32,1-4.47-.85-6.35-4.56-2.65-3.69-3.76,4-3,2.35-4.08-4.07-1.15-4.56-2.65-.11-4.1,1.13-7.82-1.09-7.09-.23-8.2,2.35-4.08,1.62-6.33-2.58-4.12-1.71-5.23,1.13-7.82-.47-9-1.11.36-2.84,2.59-8.41,11.86-12.12,15.56-8,9.26-7.3,11.5l2.69,8.23-9.49-2.69c-4.07-1.15-3.82-.4-1.73,2.22s7.76,4.91,8.25,6.41,1,3-.13,3.35a1.87,1.87,0,0,0-.13,3.35c1.6,1.13,3,1.52,1,3S212.79,298,212.79,298Z"/><path class="cls-32" d="M213.88,296.83s.91,2.78,3.2,2.8,4,1.76,6.3,1.78,4.93-2.38,9.06-3.74,8-5.3,8.32-7.73.93-4.15-.79-5.9-4.23-2.46-3.43-3.49,3.67-2.74,2.19-3.79-3.78-1.07-4.23-2.46-.11-3.81,1-7.27-1-6.59-.21-7.62,2.19-3.79,1.5-5.88-2.4-3.83-1.59-4.86,1-7.27-.44-8.32-1,.34-2.64,2.4-7.82,11-11.26,14.46-7.47,8.6-6.78,10.68l2.5,7.64-8.82-2.5c-3.78-1.07-3.55-.38-1.61,2.07s7.21,4.56,7.66,6,.91,2.78-.12,3.12a1.74,1.74,0,0,0-.12,3.12c1.49,1.05,2.75,1.41.91,2.78S213.88,296.83,213.88,296.83Z"/><path class="cls-33" d="M227.25,290.53s-1.84,1.37-.35,2.42,4.35-.66,4.13-1.35S230.92,287.79,227.25,290.53Z"/><path class="cls-33" d="M233.21,287.81s-2.19,3.79.11,3.81a2.25,2.25,0,0,0,2.41-3.1C235.27,287.13,233.21,287.81,233.21,287.81Z"/><path class="cls-33" d="M237.56,287.15s-1.38,2.76-.12,3.12,2.64-2.4,2.41-3.1S239.4,285.78,237.56,287.15Z"/><path class="cls-34" d="M214.64,293.89a2.84,2.84,0,0,0,3.32-.32c1.84-1.37,3.22-4.13,2-4.49a6.77,6.77,0,0,0-6.09,2.06C212.12,293.18,214.64,293.89,214.64,293.89Z"/><path class="cls-33" d="M223.36,285.65s-.35,2.42,1.94,2.44,11.35-3.72,12.38-4.06.35-2.42-3-2.1S224.17,284.62,223.36,285.65Z"/><path class="cls-35" d="M219.95,275.23s.8-1,.12-3.12-3.08-5.91.37-9.35,8.5-8.94,10.11-11,2.64-2.4,3-4.83.58-1.73-3.67,2.74-13,12.71-13.32,15.13S219.72,274.54,219.95,275.23Z"/><path class="cls-36" d="M233.74,254.56a33.61,33.61,0,0,1-4.14,8.28c-2.41,3.1-3.57,6.55-2.88,8.64s1.14,3.47.33,4.51-1.71-1.75-2.62-4.52.82-8,2.2-10.72,6.09-5.84,6.66-7.57S233.74,254.56,233.74,254.56Z"/><path class="cls-33" d="M209.75,275.49s4.81.73,6.3,1.78,1.59,4.86,1.59,4.86a22.83,22.83,0,0,0-3.43-3.49Z"/><path class="cls-7" d="M124.38,298s-1,3-3.45,3-4.31,1.9-6.78,1.92-5.31-2.57-9.75-4-8.58-5.71-9-8.32-1-4.47.85-6.35,4.56-2.65,3.69-3.76-4-3-2.35-4.08,4.07-1.15,4.56-2.65.11-4.1-1.13-7.82,1.09-7.09.23-8.2-2.35-4.08-1.62-6.33,2.58-4.12,1.71-5.23-1.13-7.82.47-9,1.11.36,2.84,2.59,8.41,11.86,12.12,15.56,8,9.26,7.3,11.5l-2.69,8.23,9.49-2.69c4.07-1.15,3.82-.4,1.73,2.22s-7.76,4.91-8.25,6.41-1,3,.13,3.35a1.87,1.87,0,0,1,.13,3.35c-1.6,1.13-3,1.52-1,3S124.38,298,124.38,298Z"/><path class="cls-31" d="M124.38,298s-1,3-3.45,3-4.31,1.9-6.78,1.92-5.31-2.57-9.75-4-8.58-5.71-9-8.32-1-4.47.85-6.35,4.56-2.65,3.69-3.76-4-3-2.35-4.08,4.07-1.15,4.56-2.65.11-4.1-1.13-7.82,1.09-7.09.23-8.2-2.35-4.08-1.62-6.33,2.58-4.12,1.71-5.23-1.13-7.82.47-9,1.11.36,2.84,2.59,8.41,11.86,12.12,15.56,8,9.26,7.3,11.5l-2.69,8.23,9.49-2.69c4.07-1.15,3.82-.4,1.73,2.22s-7.76,4.91-8.25,6.41-1,3,.13,3.35a1.87,1.87,0,0,1,.13,3.35c-1.6,1.13-3,1.52-1,3S124.38,298,124.38,298Z"/><path class="cls-32" d="M123.29,296.83s-.91,2.78-3.2,2.8-4,1.76-6.3,1.78-4.93-2.38-9.06-3.74-8-5.3-8.32-7.73-.93-4.15.79-5.9,4.23-2.46,3.43-3.49-3.67-2.74-2.19-3.79,3.78-1.07,4.23-2.46.11-3.81-1-7.27,1-6.59.21-7.62-2.19-3.79-1.5-5.88,2.4-3.83,1.59-4.86-1-7.27.44-8.32,1,.34,2.64,2.4,7.82,11,11.26,14.46,7.47,8.6,6.78,10.68l-2.5,7.64,8.82-2.5c3.78-1.07,3.55-.38,1.61,2.07s-7.21,4.56-7.66,6-.91,2.78.12,3.12a1.74,1.74,0,0,1,.12,3.12c-1.49,1.05-2.75,1.41-.91,2.78S123.29,296.83,123.29,296.83Z"/><path class="cls-33" d="M109.92,290.53s1.84,1.37.35,2.42-4.35-.66-4.13-1.35S106.25,287.79,109.92,290.53Z"/><path class="cls-33" d="M104,287.81s2.19,3.79-.11,3.81a2.25,2.25,0,0,1-2.41-3.1C101.9,287.13,104,287.81,104,287.81Z"/><path class="cls-33" d="M99.61,287.15s1.38,2.76.12,3.12-2.64-2.4-2.41-3.1S97.77,285.78,99.61,287.15Z"/><path class="cls-34" d="M122.53,293.89a2.84,2.84,0,0,1-3.32-.32c-1.84-1.37-3.22-4.13-2-4.49a6.77,6.77,0,0,1,6.09,2.06C125.05,293.18,122.53,293.89,122.53,293.89Z"/><path class="cls-33" d="M113.81,285.65s.35,2.42-1.94,2.44-11.35-3.72-12.38-4.06-.35-2.42,3-2.1S113,284.62,113.81,285.65Z"/><path class="cls-35" d="M117.22,275.23s-.8-1-.12-3.12,3.08-5.91-.37-9.35-8.5-8.94-10.11-11-2.64-2.4-3-4.83-.58-1.73,3.67,2.74,13,12.71,13.32,15.13S117.45,274.54,117.22,275.23Z"/><path class="cls-36" d="M103.43,254.56a33.61,33.61,0,0,0,4.14,8.28c2.41,3.1,3.57,6.55,2.88,8.64s-1.14,3.47-.33,4.51,1.71-1.75,2.62-4.52-.82-8-2.2-10.72-6.09-5.84-6.66-7.57S103.43,254.56,103.43,254.56Z"/><path class="cls-33" d="M127.42,275.49s-4.81.73-6.3,1.78-1.59,4.86-1.59,4.86a22.83,22.83,0,0,1,3.43-3.49Z"/><path class="cls-26" d="M99.5,79.28S86.69,87,83,88.6s-5.49,4.66-5.49,9.33v9.33c0,1.55,3.66-4.66,3.66-6.22s0-3.11,1.83-4.66,3.66,4.66-7.32,14-12.81,15.54-11,21.76,5.49,14,3.66,17.1-9.15,12.43-11,18.65-1.83,18.65,1.83,23.31,9.15,12.43,7.32,15.54-5.49,4.66-5.49,10.88,3.66,7.77,3.66,7.77-1.83-7.77,0-9.33,7.32-3.11,5.49-9.33-7.32-17.1-5.49-20.2,11-12.43,12.81-14,1.83,7.77,0,12.43-3.66,9.33-3.66,12.43S83,208.28,86.69,209.83s14.65,3.11,14.65,7.77,0,7.77-5.49,7.77-9.15-3.11-9.15-6.22-1.83-3.11-7.32-1.55-12.81,4.66-11,7.77,9.15,7.77,18.31,6.22,22-7.77,25.63-10.88,6.75-9.4,6.75-9.4S99.73,198.23,95.78,188C88,168,88,151.16,93.84,124.64c2.79-12.7,13.58-26.52,13.58-26.52Z"/><path class="cls-27" d="M105,101s16.48,3.11,23.8,3.11,78.72,1.55,80.55,0h7.32s3.66,26.42,5.49,32.64,0,46.63,0,52.84,1.83,20.2,3.66,26.42,5.49,12.43,3.66,15.54-3.66,4.66-9.15,6.22-9.15,3.11-7.32,6.22,9.15,9.33,11,9.33-1.83-3.11-1.83-6.22,0-7.77,3.66-9.33,11,0,12.81-4.66,3.66-14,5.49-18.65,5.49-3.11,7.32-1.55,5.49,7.77,1.83,9.33-9.15,0-9.15,0-1.83,1.55,1.83,4.66,9.15,3.11,14.65,1.55,12.81-10.88,11-15.54-11-7.77-11-14,0-10.88-5.49-15.54-7.32-9.33-7.32-10.88,5.49,0,7.32,1.55,7.32,4.66,7.32,7.77-1.83,10.88,3.66,14,11,4.66,12.81-1.55,0-9.33-1.83-9.33c0,0,1.83,3.11-1.83,4.66s-12.81-1.55-9.15-6.22,9.15-6.22,3.66-12.43-14.65-21.76-14.65-38.86-1.83-32.64-12.81-42c0,0-7.32-3.11-11-9.33S224,68.4,205.68,60.63s-22-10.88-25.63-9.33-1.83,1.55-7.32,3.11-9.15-4.66-20.14-3.11-38.44,9.33-47.6,14-7.32,10.88-9.15,12.43C95.84,77.72,92.18,96.37,105,101Z"/><path class="cls-26" d="M99.5,71.51S97.67,80.83,101.33,87s5.49,1.55,7.32,0,9.15-1.55,12.81,1.55,5.49,4.66,11,3.11S147.1,87,150.76,90.16a16,16,0,0,0,14.65,3.11c5.49-1.55,36.61,1.55,40.27,0s5.49-4.66,7.32-1.55,7.32,3.11,5.49,7.77l-1.83,4.66s-62.85.78-80.85.39S98,105.44,96,90.81,99.5,71.51,99.5,71.51Z"/><path class="cls-27" d="M108.65,90.16S110.48,87,112.31,87s0,4.66,1.83,7.77,1.83,4.66,0,3.11S106.82,93.27,108.65,90.16Z"/><path class="cls-27" d="M116,88.6s0,6.22,3.66,9.33,5.49,3.11,3.66,0,0-4.66-1.83-6.22S116,87,116,88.6Z"/><path class="cls-27" d="M125.13,94.82a5.44,5.44,0,0,0,3.66,4.66c3.66,1.55,7.32,0,5.49-1.55s-9.15-4.66-9.15-4.66Z"/><path class="cls-27" d="M139.77,91.71s-3.66,1.55-3.66,3.11,1.83,6.22,3.66,6.22S143.43,90.16,139.77,91.71Z"/><path class="cls-27" d="M145.27,90.16c-1.83,1.55,0,4.66,1.83,7.77s1.83,4.66,3.66,1.55,1.83-1.55,0-4.66S147.1,88.6,145.27,90.16Z"/><path class="cls-37" d="M229.47,77.72c0,1.55,0,6.22,1.83,7.77s5.49,1.55,7.32,3.11-9.15,1.55-11,1.55S224,90.16,224,87s1.83-9.33,1.83-10.88S229.47,77.72,229.47,77.72Z"/><path class="cls-37" d="M159.91,101a4.26,4.26,0,0,0,5.49,1.55c3.66-1.55,5.49-7.77,12.81-7.77s25.63,6.22,25.63,10.88-1.83,21.76,0,26.42,7.32,14,14.65,21.76,14.65,20.2,14.65,28,1.83,17.1-1.83,20.2a13.11,13.11,0,0,1-9.15,3.11c-1.83,0,5.49,6.22,12.81,1.55s11-7.77,11-12.43-7.32-18.65-7.32-24.87-14.65-21.76-22-28-5.49-10.88-5.49-17.1,11-18.65,3.66-24.87S205.68,88.6,196.52,87s-22,0-29.29,7.77S159.91,101,159.91,101Z"/><path class="cls-27" d="M158.08,102.59a4.26,4.26,0,0,0,5.49,1.55c3.66-1.55,5.49-7.77,12.81-7.77S202,102.59,202,107.25s-1.83,21.76,0,26.42,7.32,14,14.65,21.76,14.65,20.2,14.65,28,1.83,17.1-1.83,20.2a13.11,13.11,0,0,1-9.15,3.11c-1.83,0,5.49,6.22,12.81,1.55s11-7.77,11-12.43S236.8,177.19,236.8,171s-14.65-21.76-22-28-5.49-10.88-5.49-17.1,11-18.65,3.66-24.87-9.15-10.88-18.31-12.43-22,0-29.29,7.77S158.08,102.59,158.08,102.59Z"/></g></g></svg>