<svg id="圖層_1" data-name="圖層 1" xmlns="http://www.w3.org/2000/svg" viewBox="0 0 97 124"><defs><style>.cls-1{fill:#535c58;}.cls-2{fill:#253841;}.cls-3{fill:#ba805b;}.cls-4{fill:#e1a565;}.cls-5{fill:#4e556f;}.cls-6{fill:#55778f;}.cls-7{fill:#e98cb7;}.cls-8{fill:#e8b8ae;}.cls-9{fill:#2d1230;}.cls-10{fill:#e1ba95;}.cls-11{fill:#fff;}.cls-12{fill:#f4c9e1;}.cls-13{font-size:15.39px;fill:#82695e;font-family:LiGothicMed, Apple LiGothic;}</style></defs><title>roleStep1</title><path class="cls-1" d="M23.57,92.29s-5.4,9-1.24,13.61,15.35,12.85,24.3,11.93,24.62,2.75,29.1-4.13S83.08,94,81.16,90.3,27,87.39,23.57,92.29Z"/><polygon class="cls-2" points="80.04 36.95 80.04 78.7 81.14 79.69 82.23 36.95 80.04 36.95"/><polygon class="cls-2" points="20.86 44.62 21.95 82.98 23.45 80.42 23.05 44.62 20.86 44.62"/><path class="cls-2" d="M22,98.32s6.58,6.58,11,7.67,26.3,3.29,31.78,1.1,15.34-7.67,16.44-11,1.1-14.25,0-16.44S64.7,72,51.55,73.11s-24.11,3.29-26.3,5.48S22,81.88,22,83Z"/><path class="cls-3" d="M62,16.67s-3.84,1.64-5.48-3.29c-1.25-3.75-3.84-6-.55-6s9.86,2.19,13.15,3.29,13.15,1.1,15.34,1.1,5.48,0,6.58,2.19v3.29S67.44,18.86,62,16.67Z"/><path class="cls-3" d="M34,35.85c-1.1,0-16.44,1.1-18.63,1.1S11,39.14,12.09,41.33s6.58,5.48,11,6.58,6.58,1.1,7.67,0-4.38-3.29-4.38-3.29a2.4,2.4,0,0,1,3.29-1.1c2.19,1.1,5.48,1.1,5.48,0S34,35.85,34,35.85Z"/><path class="cls-4" d="M9.9,41.33v-23s2.19-3.29,8.77-4.38S83.33,15,91,13.93V38a1.07,1.07,0,0,1-1.1,1.1c-1.1,0-66.28-3.55-73.43,0C14.92,39.91,12.09,42.43,9.9,41.33Z"/><path class="cls-5" d="M65.3,94.4s12.64-4.79,13.79-7.18l2.3-4.79s1.15,10.77,0,13.17-5.75,6-10.34,8.38l-6.89,3.59S64.15,95.6,65.3,94.4Z"/><path class="cls-6" d="M36.2,96.21v10.08A29.73,29.73,0,0,0,45,107.41c5.48,0,17.54,1.12,17.54,0V95.09s-23,1.12-26.3,0Z"/><path class="cls-5" d="M21.87,85.17s7.08,9.59,11.8,9.59v10.79s-11.8-4.79-11.8-7.19Z"/><path class="cls-7" d="M46.72,66.4S44.21,70.78,43.59,72a18.78,18.78,0,0,0-2.14,5.25c-.29,1.88-.21,2.27,0,2.53s.84.81,1.23.78.73-.5.86-.81.26-.68.26-.68a1.87,1.87,0,0,0,.49.22c.12,0,.47,0,.57-.28a.49.49,0,0,0-.17-.63,1.3,1.3,0,0,1-.35-.27c-.06-.08,0-.25.13-.43s.69-1.09.69-1.09.1,0,.13.18A10.32,10.32,0,0,0,46,78.39c.15.2.26.21.26.39S46,83.69,46,84.15s-.1.33-.3.43a3.13,3.13,0,0,0-1.41,1.54c-.43,1,1,1.1,1.06,1.13a25.44,25.44,0,0,0,3.46,0c.4-.12,1.35-.44,1.48-1.21s.48-4.88.48-4.88a.19.19,0,0,1,.2-.22l2.64,0a.19.19,0,0,1,.14.16c0,.13.37,4.75.4,4.9a1.77,1.77,0,0,0,1.19,1.15,19,19,0,0,0,3.83.12s.92-.25.93-.74a1.29,1.29,0,0,0-.33-1,8.58,8.58,0,0,0-1.29-1,1,1,0,0,1,0-.42c0-.31-.19-5.47-.19-5.47s.29-.46.45-.79a6.46,6.46,0,0,0,.5-1.27c0-.19.13-.16.17-.08s.81,1.26.88,1.34.19.16.1.24-.57.42-.59.61c0,0-.09.53.42.54s.53-.22.53-.22.1,0,.13.19.55,1.27.9,1.34a1.69,1.69,0,0,0,1.47-.85,4.74,4.74,0,0,0,.06-2,30,30,0,0,0-2.86-6.85,23,23,0,0,1-2.17-4l-.16-.33Z"/><path class="cls-8" d="M49.21,77.81a4,4,0,0,0,2.25,1.34c1.35.21,2.91-.28,3.39-1.34s.87-4.18-1-5.41a3.41,3.41,0,0,0-4,0,3.9,3.9,0,0,0-1.14,2.67A6.45,6.45,0,0,0,49.21,77.81Z"/><path class="cls-7" d="M62.88,52.57A10.92,10.92,0,0,0,55.07,47a7.8,7.8,0,0,0,.15-4.72c-.21-.78-1.25-2-1.69-1.88s-1.12,5.4-1.26,6.46c-.41,0-.82,0-1.24.08-.11-.81-.87-6.44-1.27-6.54s-1.48,1.1-1.69,1.88a7.68,7.68,0,0,0,.31,5.1,18.24,18.24,0,0,0-2.62.8c-2.81,1.11-5.46,5.32-5.56,7.38s-1.36,7.62,3.41,11.69a7.66,7.66,0,0,0,3.31,1.95c1.93.49,9.22.9,11.73-.56s4.17-2.85,4.92-5.67S64.71,56,62.88,52.57Z"/><circle class="cls-9" cx="46.51" cy="58.13" r="1.4"/><circle class="cls-9" cx="58.25" cy="58.13" r="1.4"/><ellipse class="cls-10" cx="46.49" cy="60.4" rx="1.4" ry="0.7"/><ellipse class="cls-10" cx="58.33" cy="60.4" rx="1.4" ry="0.7"/><path class="cls-11" d="M47.7,61s-.76.79-.33,1.45a3.08,3.08,0,0,0,2.33,1.22c1.1.15,4.86.32,6-.2S57.6,61.76,57.09,61s-3-1.75-4.65-1.66S48.54,60,47.7,61Z"/><path class="cls-9" d="M51.46,59.12a1.46,1.46,0,0,0,.43,1,1.1,1.1,0,0,0,1.41,0,1.66,1.66,0,0,0,.32-1.43C53.43,58.45,51.36,58.22,51.46,59.12Z"/><path class="cls-9" d="M55.55,61.67a.17.17,0,0,0-.2,0,3.76,3.76,0,0,1-1.76,0,2.33,2.33,0,0,1-.76-1.55h0v0H52.5v0h0a2.33,2.33,0,0,1-.76,1.55,3.75,3.75,0,0,1-1.76,0,.17.17,0,0,0-.19.28,3.77,3.77,0,0,0,1.29.18,1.63,1.63,0,0,0,.87-.17,2.51,2.51,0,0,0,.72-1,2.51,2.51,0,0,0,.72,1,1.62,1.62,0,0,0,.87.17,3.77,3.77,0,0,0,1.29-.18A.17.17,0,0,0,55.55,61.67Z"/><rect class="cls-12" x="11" y="12" width="17" height="28" rx="0.77" ry="0.77" transform="translate(-4.74 4.35) rotate(-11.37)"/><text class="cls-13" transform="matrix(1, 0, 0, 1, 10.32, 31.66)">１選擇眼睛</text></svg>