<svg xmlns="http://www.w3.org/2000/svg" viewBox="0 0 89.49 82.11"><defs><style>.cls-1{fill:#ae675c;}.cls-2{fill:#fff;}.cls-3{fill:#2b102e;}.cls-4{fill:#2c112f;}</style></defs><title>roll2</title><g id="圖層_2" data-name="圖層 2"><g id="圖層_1-2" data-name="圖層 1"><path class="cls-1" d="M84.66,20.71A39.14,39.14,0,0,0,78,11.84c1.53-.91,3.28-3,1.89-5.29C77.8,3.07,74.6,2.7,72.06,4.2A3,3,0,0,0,70.53,6,40,40,0,0,0,55.71.53C45.56-1,31.78.78,21.38,4.79a19.19,19.19,0,0,0-1.77.8A3.33,3.33,0,0,0,18.22,4.2c-2.54-1.5-5.73-1.13-7.8,2.35-1.24,2.09,0,3.94,1.4,5C5.66,17.77,1.08,26.35.83,31.36c-.38,7.39-5,27.44,12.59,42.1a28.4,28.4,0,0,0,12.22,7c7.14,1.75,34.08,3.26,43.36-2S84.41,68.2,87.16,58,91.42,33,84.66,20.71Z"/><path class="cls-2" d="M28.35,53.5s-2.72,2.83-1.2,5.24,4.42,3.88,8.38,4.4S53,64.29,57.31,62.4s6.7-6.08,4.87-8.91-10.81-6.29-16.75-6S31.4,50.14,28.35,53.5Z"/><path class="cls-3" d="M40.75,46.82a5.26,5.26,0,0,0,1.55,3.68c1.55,1.26,4,1.16,5.07,0s1.8-4.22,1.14-5.16S40.42,43.56,40.75,46.82Z"/><circle class="cls-2" cx="28.17" cy="41.54" r="8.9"/><circle class="cls-4" cx="28.17" cy="41.54" r="5.6"/><path class="cls-4" d="M14.76,32.68s.71,2.83,2.12,2.47,13.43-4.95,14.49-6-1.77-4.59-1.77-4.59-14.49,6.72-14.84,7.07S14.76,32.68,14.76,32.68Z"/><circle class="cls-2" cx="61.32" cy="41.54" r="8.9"/><circle class="cls-4" cx="61.32" cy="41.54" r="5.6"/><path class="cls-4" d="M74.73,32.68s-.71,2.83-2.12,2.47-13.43-4.95-14.49-6,1.77-4.59,1.77-4.59,14.49,6.72,14.84,7.07S74.73,32.68,74.73,32.68Z"/></g></g></svg>