<svg xmlns="http://www.w3.org/2000/svg" viewBox="0 0 269.66 325.78"><defs><style>.cls-1{fill:#fbc5cf;}.cls-2{fill:#fff;}.cls-3{fill:#2c112f;}</style></defs><title>roll_2</title><g id="圖層_2" data-name="圖層 2"><g id="圖層_1-2" data-name="圖層 1"><path class="cls-1" d="M255.1,135.88c-20.34-37.89-56.47-57.65-87-62.36C176.8,50.79,171.93,29,169.8,21c-2.33-8.72-14-22.09-18.81-20.93-4.37,1-12.5,60.15-14.07,71.91-4.54.17-9.14.48-13.78.94-1.2-9-9.69-71.77-14.2-72.85C104.09-1.09,92.46,12.28,90.14,21c-2.26,8.48-7.61,32.55,3.49,56.76a203.1,203.1,0,0,0-29.22,8.9C33.07,99.07,3.62,146,2.49,168.82S-12.61,253.69,40.44,299c0,0,15.29,16.28,36.81,21.7s102.7,10.08,130.65-6.2,46.44-31.78,54.75-63.17S275.49,173.86,255.1,135.88Z"/><path class="cls-2" d="M79.42,248.15s-8.94,9.29-3.94,17.21S90,278.09,103,279.81s57.53,3.79,71.53-2.41,22-20,16-29.25-35.52-20.65-55-19.61S89.43,237.14,79.42,248.15Z"/><path class="cls-3" d="M123.88,226.24s0,7.95,5.1,12.09,13.15,3.8,16.64,0,5.91-13.86,3.76-17S122.81,215.53,123.88,226.24Z"/><path class="cls-3" d="M172.45,255.53a2,2,0,0,0-2.34-.38c-2.45.82-17.38,3.17-20.86.71-4.19-3-9.1-11.33-9.41-18.11,0-.06,0-.11,0-.16s0-.13,0-.19,0-.13-.06-.19,0-.12-.06-.18-.06-.12-.09-.17l-.09-.16-.12-.15-.12-.14-.15-.12-.15-.12-.17-.09-.17-.09-.19-.06-.19-.05-.2,0-.18,0h-.08l-.18,0-.2,0-.18.06L137,236l-.17.1-.16.1-.15.12-.14.13-.12.15-.12.16c0,.05-.06.11-.09.16a1.94,1.94,0,0,0-.09.18c0,.06,0,.12-.05.18a1.89,1.89,0,0,0-.05.2c0,.06,0,.13,0,.19s0,.11,0,.17c0,6.79-4.47,15.4-8.5,18.56-3.35,2.63-18.38,1-20.87.32a2,2,0,0,0-2.15,3.31c.89.78,8.42,1.95,15.27,1.78,4.25-.11,8.24-.73,10.21-2.27,3.1-2.43,6.33-7.23,8.26-12.53,2.19,5.2,5.65,9.83,8.88,12.11,2,1.44,6.06,1.86,10.32,1.76,6.85-.17,14.32-1.71,15.16-2.53A2,2,0,0,0,172.45,255.53Z"/><circle class="cls-2" cx="189.15" cy="202.84" r="31.07"/><circle class="cls-3" cx="183.54" cy="201.04" r="21.47"/><ellipse class="cls-3" cx="200.52" cy="225.62" rx="2.19" ry="3.98" transform="translate(-100.39 249.46) rotate(-52.9)"/><ellipse class="cls-3" cx="205.45" cy="221.92" rx="2.19" ry="3.98" transform="translate(-95.47 251.93) rotate(-52.9)"/><circle class="cls-2" cx="80.51" cy="202.84" r="31.07"/><circle class="cls-3" cx="86.12" cy="201.04" r="21.47"/><ellipse class="cls-3" cx="69.15" cy="225.62" rx="3.98" ry="2.19" transform="translate(-122.09 87.37) rotate(-37.1)"/><ellipse class="cls-3" cx="64.21" cy="221.92" rx="3.98" ry="2.19" transform="translate(-120.86 83.65) rotate(-37.1)"/></g></g></svg>