<svg id="圖層_1" data-name="圖層 1" xmlns="http://www.w3.org/2000/svg" xmlns:xlink="http://www.w3.org/1999/xlink" viewBox="0 0 765 475.31"><defs><style>.cls-1,.cls-20{fill:none;}.cls-2{fill:#092132;}.cls-3,.cls-8{opacity:0.67;}.cls-4,.cls-8{fill:#343954;}.cls-5{fill:#878583;}.cls-6{opacity:0.5;}.cls-7{fill:#545454;}.cls-23,.cls-9{fill:#d0cdbc;}.cls-10{fill:#353936;}.cls-11{fill:#ceab9e;}.cls-12{fill:#323839;}.cls-13{fill:#887863;}.cls-14{fill:#2a2621;}.cls-15{fill:#274749;}.cls-16,.cls-22{fill:#2b4649;}.cls-17{fill:#e1dbd0;}.cls-18{clip-path:url(#clip-path);}.cls-19{fill:#f3fafb;}.cls-20{stroke:#2b4649;}.cls-20,.cls-22{stroke-miterlimit:10;}.cls-21{clip-path:url(#clip-path-2);}.cls-22{stroke:#cba99c;stroke-width:0.75px;}.cls-23{font-size:36.89px;font-family:LiGothicMed, Apple LiGothic;}</style><clipPath id="clip-path"><polygon class="cls-1" points="579.85 322.44 631.59 324.82 631.15 383.76 579.2 391.28 579.85 322.44"/></clipPath><clipPath id="clip-path-2"><polygon class="cls-1" points="127.97 326.66 127.97 375.86 184.69 388.25 184.45 324.03 127.97 326.66"/></clipPath></defs><title>shop</title><rect class="cls-2" x="-38.14" y="-22.7" width="826" height="365.62"/><g class="cls-3"><circle class="cls-4" cx="277.32" cy="194.3" r="6.13"/><circle class="cls-4" cx="132.62" cy="186.13" r="6.13"/><circle class="cls-4" cx="268.08" cy="250.55" r="6.13" transform="translate(-37.08 454.32) rotate(-76.8)"/><path class="cls-4" d="M277.79,223.08a6.13,6.13,0,0,0-6.46,2.5,69.23,69.23,0,0,0-8.63-49.69,6.13,6.13,0,1,0-4.05-5.93,69.41,69.41,0,0,0-13.5-13.43h.16a6.13,6.13,0,1,0-5.64-3.73A68.62,68.62,0,0,0,221.3,145a6.12,6.12,0,1,0-3.69-.87,69.33,69.33,0,0,0-13.9-1.4q-3.51,0-6.93.35a6.13,6.13,0,1,0-3.39.42,68.52,68.52,0,0,0-20.1,6.29,6.13,6.13,0,1,0-4.9,2.44h.39a69.33,69.33,0,0,0-16.14,13.11,6.13,6.13,0,1,0-2.42,2.81,68.7,68.7,0,0,0-15.45,40.63,6.13,6.13,0,1,0-.07,3,69,69,0,0,0,2.85,19.67,6.13,6.13,0,1,0,3,8.26,69,69,0,0,0,9,14.85,6.13,6.13,0,1,0,6.05,6.7,69.27,69.27,0,0,0,13.64,10.32,6.13,6.13,0,1,0,7.14,3.58,68.51,68.51,0,0,0,16.31,4.74,6.13,6.13,0,1,0,7.85.8c1,0,2.09.07,3.14.07a69.28,69.28,0,0,0,14.49-1.53,6.13,6.13,0,1,0,8-2.23q1.8-.62,3.56-1.34l.11.25,1.1-.48-.1-.23a68.86,68.86,0,0,0,11.4-6.22c-.06.19-.12.38-.17.58a6.13,6.13,0,1,0,6.33-4.72l.73-.71-.25-.25a69,69,0,0,0,21.38-34,6.13,6.13,0,1,0,7.48-6.78ZM139.46,210.87A63.67,63.67,0,1,1,264.8,226.78l-3-.43a61,61,0,0,0,2-15.48q0-2.13-.15-4.23l3.78-.94.58-1.45-4.46,1.18a60.67,60.67,0,0,0-121.09,5.44,60.93,60.93,0,0,0,2.36,16.85l-3.87.84.29,1.16,3.93-.84a60.37,60.37,0,0,0,15.06,24.89,61.58,61.58,0,0,0,6.27,5.47l-2,2.24A63.57,63.57,0,0,1,139.46,210.87Zm123.62,0a59.83,59.83,0,0,1-2,15.38l-49-7.08a12.93,12.93,0,0,0,1.35-1.51l49.55-10.86C263,208.14,263.08,209.5,263.08,210.87Zm-48.75,5.35a12.77,12.77,0,0,0,1.48-4.12l47.57-29.27-.29-1.45L216,210.57c0-.23,0-.46,0-.69,0-2-5.34,1.85-6.17.15L248,164.3l-1.16-.87L210.12,208c-.88-1.43-1.25,1.27-2.6.29l20.26-58.18-.87-1.45L206.07,208c-1.68-1-.25.42-2.32.29l.29-61.65-1.45.29v59.33c-1.81,0,.39,1.88-1.16,2.6l-20-58.76-1.16.29L200,208.87c-1.67,1-.95-1.6-2,0L158.89,162h-1.45l38.49,46.6c-.89,1.65,1.82,3.51,1.74,5.5L143.84,180.8l-.87.87,55,34.15c.1,1.46-7.23-2.24-6.69-1L136.9,205.4l-.29,1.16,55.33,9.64a12.9,12.9,0,0,0,1.69,2.34l-48.08,9a59.95,59.95,0,1,1,117.29-22Zm-11.19,6.52c.43,0,.85,0,1.27-.06l-1.49,48.13a59.74,59.74,0,0,1-17.43-2.65L203,222.74Zm-8.46-3.18a12.88,12.88,0,0,0,2.37,1.64l-48,27.32.29,1.16,49-27.86q.54.22,1.1.38L167,258.67a60.17,60.17,0,0,1-21.1-29.94Zm6.14,3c.32.06.64.11,1,.14L184.35,267.8A59.82,59.82,0,0,1,168,259.39Zm-16.74,46L183,271.29a63.48,63.48,0,0,1-17.53-9.08l2-2.25A60,60,0,0,0,184.08,268.5Zm1.15.36a60.85,60.85,0,0,0,17.68,2.67l-.09,3a63.63,63.63,0,0,1-18.66-2.87Zm20.39-46.36.73-.16,19.22,44.12a59.59,59.59,0,0,1-21.44,4.35Zm2.39.66,33.06,34.08a60,60,0,0,1-14.4,8.76Zm.24-1.48c.28-.12.55-.25.82-.39l44.19,22.41A60.43,60.43,0,0,1,242,256.46Zm2-1.12.51-.36,49.94,7.21a59.66,59.66,0,0,1-6.84,15.27Zm51.19,7,3,.43a63.32,63.32,0,0,1-7.21,16.43L254.6,243A59.92,59.92,0,0,0,261.49,227.52Zm-57.48,47,.09-3a60.54,60.54,0,0,0,21.76-4.38l1.19,2.74A63.45,63.45,0,0,1,204,274.53Zm23-7.85a60.27,60.27,0,0,0,14.63-8.9l2.1,2.16a63.67,63.67,0,0,1-15.53,9.48ZM247.6,264h-.38l.21-.18Zm-3-4.79L242.53,257q1.8-1.54,3.5-3.24a61.24,61.24,0,0,0,7.91-9.73l2.69,1.36A64,64,0,0,1,244.62,259.16Z"/><circle class="cls-4" cx="203.05" cy="211.19" r="15.77"/></g><rect class="cls-5" x="-47.64" y="343.31" width="908" height="140"/><g class="cls-6"><path class="cls-7" d="M106.8,385.4c-2.12,5.64.66,12.34,5,16.11s10,5.29,15.36,6.71l35,9.19,70.15,18.43c21.59,5.67,43.24,11.35,65.3,14,9.48,1.15,19,1.74,28.32,4.18,6.4,1.68,12.6,4.23,19,5.89,11.55,3,23.55,3,35.41,3q29.13,0,58.26-.11c7.16,0,15-.31,20.43-5.42,2.23-2.09,3.88-4.86,6.15-6.89,7-6.32,17.29-4,26.38-3.57,9.46.4,18.84-1.73,28.11-3.85L647,414c8.19-1.87,18-5.4,19.64-14.39,1.12-6-2.26-12.18-6.91-15.59s-10.32-4.6-15.85-5.49c-21.75-3.51-43.83-3.57-65.81-3.64-63.91-.2-128-.6-191.47-8.35-43.84-5.35-87.94-14.2-131.75-8.65-27.92,3.54-55.09,12.87-83.1,15.35-22.16,2-45.27-.25-65.86,9"/></g><path class="cls-8" d="M-138.36,240.66V343.43H79.14v-.31h.37v.31H198.9v-.08l48-.27v.35H325V343h11v.39H883.41V343h.34l-.38-9.09-.62-131.73H864.06s.67-83.16,0-83.16H833.37V192.8H812.69l.67-44.72h-26v9.41H780l-.67,36.09-16,.78L762,237,739.64,218.3l-6.67.78,2-129.44L708.28,61.4l-4.67,89.43-21,.39-.65,31h-15.7v73l-8-1.57V230.85h-8.67V214.38l-17.27,7.52-.07-33.41-44-2.35-.67,90.22H574.18v-3.92h-4V263.8h-1.33v8.63h-2v-7.06H565.5v7.06h-7v-38H534.15V215.95l-16-15.69v54.91l-7.67-.11V151.62l-26.35-.78.67-58.05-27.69-8.24-1.54,74.7-5.47-4.5V138.27l-44.37-2-1.65,171h-9.36V64.93h-3V59H393v-.78H358.35V59h1.33v5.88H356V94.74H336V215.16H305.64V151.62l-26.35-.78L280,92.78l-27.69-8.24-2.29,111H195.23l-9.67,18v25.5H166.87v59.84L149.53,258.7l-31-1.35,1.32-166.53L94.48,62.58l-3.67,89h-22v45.11H58.46V159.85h-6v-10.2h-26l-1,44.32H6.08V118.67l-31,.39-1.33,85.51H-48.53l.24-35.3h-39v87.08H-95l.67-35.3-24,.78ZM363.69,59v5.88H361V59Zm6.67,0v5.88H365V59Zm6,0v5.88h-4.67V59Zm7.34,0v5.88h-6V59Zm6.67,5.88H385V59h5.34Z"/><path class="cls-9" d="M122.34,389.43s126.2,31.38,143.3,34.71,34.22,12.47,61,3c27.06-9.6,92.61-9.58,104.34-8.12,15.79,2,32.69,12.55,62.78,4.43S630,400.51,636.24,395.34c0,0,3-1.11,3-9.23s-2.38-85.29-2.38-85.29-262.58-10.34-305.44-7-202,14.4-202,14.4-7.14-3-7.14,8.86-.65,60.55-.65,60.55S121.26,387.59,122.34,389.43Z"/><path class="cls-10" d="M110.11,287.16S191,195.22,259.37,170.85,451.17,153.12,523,183,656.91,297.12,659.7,300.45s-244.81-10-244.81-10L103.83,306Z"/><polygon class="cls-11" points="127.64 326.02 127.64 375.38 185.23 387.82 184.99 323.38 127.64 326.02"/><polygon class="cls-11" points="190.13 323.34 189.56 388.69 278.56 400.51 280.58 320.76 190.13 323.34"/><polygon class="cls-11" points="485.78 319.65 484.93 398.66 573.14 391.65 572 322.23 485.78 319.65"/><polygon class="cls-11" points="579.96 322.23 631.7 324.6 631.26 383.55 579.31 391.06 579.96 322.23"/><path class="cls-12" d="M355.91,435.22s6.49-10.34,7.36-12.92-2.81-60.92.43-70.52,22.95-19.2,37.23-5.54c0,0,2.38,3,2.16,19.94s-.87,52.8-.87,52.8l8.88,19.94.43-85.29s-6.93-22.52-25.11-21-21.43,1.11-31.6,19.94Z"/><path class="cls-13" d="M325,305.62s2.6,130.34,3,131.82,21,8.49,25.54,4.8c0,0,4.33-12.18,4.55-13.29s-3.25-73.85-.87-77.54,9.52-12.55,13.85-14.4,20.13-3.69,26.19,0,11.91,11.08,12.12,16.62,0,76.43,0,76.43-1.08,11.08,1.73,12.92,23.16-1.85,27.06-8.12,6.06-132.56,6.06-132.56S364.35,286,325,305.62Z"/><path class="cls-11" d="M375.61,372.45s3.25-6.65,4.76-7.38,2.16-13.29,1.3-15.14-8.88-3-11.47,2.58c0,0-1.08,1.48-1.08,5.91l.22,38.77s-.43,2.58,1.73,3,9.09.37,9.09.37,1.95-1.48,1.95-10a5.36,5.36,0,0,1-5.63-3C374.53,383.89,373.66,375,375.61,372.45Z"/><path class="cls-11" d="M391.63,372.08s-3.25-6.65-4.76-7.38-2.16-13.29-1.3-15.14,8.88-3,11.47,2.58c0,0,1.08,1.48,1.08,5.91l-.22,38.77s.43,2.58-1.73,3-9.09.37-9.09.37-1.95-1.48-1.95-10a5.36,5.36,0,0,0,5.63-3C392.71,383.53,393.58,374.66,391.63,372.08Z"/><path class="cls-14" d="M97.77,254.77l4.61,49.31s16.33,4.17,23.29-.49l5.44-49.8S113.85,238.09,97.77,254.77Z"/><path class="cls-14" d="M631.59,257l4.61,49.31s16.33,4.17,23.29-.49l5.44-49.8S647.67,240.3,631.59,257Z"/><path class="cls-15" d="M367.28,425.06s25.76-1.48,29-2.58,10,14,8.88,17-43.94,5.17-43.94,3S365.33,425.8,367.28,425.06Z"/><ellipse class="cls-11" cx="337.36" cy="280.83" rx="18.73" ry="18.83"/><path class="cls-14" d="M173.1,250.52l6.37,55.2s22.59,4.67,32.21-.55l7.53-55.75S195.35,231.84,173.1,250.52Z"/><path class="cls-14" d="M545,246.83l6.37,55.2s22.59,4.67,32.21-.55l7.53-55.75S567.24,228.15,545,246.83Z"/><path class="cls-16" d="M236.79,372.23c-.25-1.77-7.23-28.46-8.48-29s-9.11-3-9.11-3,.75-3.34-.75-2.94a23.53,23.53,0,0,1-4.31.1,8.66,8.66,0,0,0-.05-1.37s3-.59,3.24-2.36a3.18,3.18,0,0,0-3-3.53c-1.75,0-3.49.59-4,1.37s-.75,2.36,0,2.75,1.75-.59,1.75-.59-.75-1.57.75-1.77,2.49.59,2.25,1.37-1.5,1.37-2.25,1.57c-.55.15-.56,1.58-.53,2.48-2.07-.1-3.84-.22-3.84-.22-1.12.29-.87,3.63-.87,3.63s-9.23,3.14-10,3.73-7.48,29.24-7,30.22,6.24.39,6.74.2,4.74-21.59,4.74-21.59v19.23s22.7.39,23.45,0-.5-19.43-.5-19.43l6,21.59S237,374,236.79,372.23Z"/><path class="cls-17" d="M257.57,371.36c-.25-1.77-7.23-28.46-8.48-29s-9.11-3-9.11-3,.75-3.34-.75-2.94a23.53,23.53,0,0,1-4.31.1,8.66,8.66,0,0,0-.05-1.37s3-.59,3.24-2.36a3.18,3.18,0,0,0-3-3.53c-1.75,0-3.49.59-4,1.37s-.75,2.36,0,2.75,1.75-.59,1.75-.59-.75-1.57.75-1.77,2.49.59,2.25,1.37-1.5,1.37-2.25,1.57c-.55.15-.56,1.58-.53,2.48-2.07-.1-3.84-.22-3.84-.22-1.12.29-.87,3.63-.87,3.63s-9.23,3.14-10,3.73-7.48,29.24-7,30.22,6.24.39,6.74.2,4.74-21.59,4.74-21.59v19.23s22.7.39,23.45,0-.5-19.43-.5-19.43l6,21.59S257.82,373.13,257.57,371.36Z"/><path class="cls-14" d="M277.92,371.36c-.25-1.77-7.23-28.46-8.48-29s-9.11-3-9.11-3,.75-3.34-.75-2.94a23.53,23.53,0,0,1-4.31.1,8.66,8.66,0,0,0-.05-1.37s3-.59,3.24-2.36a3.18,3.18,0,0,0-3-3.53c-1.75,0-3.49.59-4,1.37s-.75,2.36,0,2.75,1.75-.59,1.75-.59-.75-1.57.75-1.77,2.49.59,2.25,1.37-1.5,1.37-2.25,1.57c-.55.15-.56,1.58-.53,2.48-2.07-.1-3.84-.22-3.84-.22-1.12.29-.87,3.63-.87,3.63s-9.23,3.14-10,3.73-7.48,29.24-7,30.22,6.24.39,6.74.2,4.74-21.59,4.74-21.59v19.23s22.7.39,23.45,0-.5-19.43-.5-19.43l6,21.59S278.16,373.13,277.92,371.36Z"/><path class="cls-14" d="M298.66,216.59l23.81,87s84.42,7.36,120.36-.87L471,214.86S381.78,187.15,298.66,216.59Z"/><path class="cls-14" d="M90.09,307.83s-2.16,13.66,7.79,12.92,122.74-8.49,144.82-9.6,205.43-4.06,253.49-4.43,156.29,7.75,168.63,7.75,8.44-4.43,8.44-12.18S496,282,475.84,282,305.69,283.09,242,289.74,96.58,299.34,90.09,307.83Z"/><g class="cls-18"><path class="cls-19" d="M604.41,329.25s-.25,1.61-.93,2-13.41-3-13.86-3.42a6.11,6.11,0,0,1-.47-3.81c.35-.62,14.21,2.89,14.66,3.35A2.08,2.08,0,0,1,604.41,329.25Z"/><path class="cls-19" d="M604.36,333.9s.16,1.09-1.32,1.26-13.13-3.06-13.52-3.42a4.88,4.88,0,0,1-.37-2.73c.12-.5,13.7,2.59,14.44,3.12A2,2,0,0,1,604.36,333.9Z"/><path class="cls-19" d="M603.7,336.46a3.61,3.61,0,0,1,.66,2.36c-.24,1.08-.64,1.25-1.61,1.27a93.17,93.17,0,0,1-12.5-3.17c-1.13-.63-1.05-2.55-.82-3.28s9.78,1.71,11.37,2S603.31,336,603.7,336.46Z"/><path class="cls-19" d="M604.75,324.5s.26,2-1.39,1.77-14.26-3.52-14.43-3.82-1.46-2.38-.19-3.48c0,0-.34-.43,1.25-.13a15.37,15.37,0,0,1,2.67.75s-.76-3.7-.24-3.75,7.06.42,7.5,2a6.74,6.74,0,0,1-.09,3.32l4.14,1.29A2.4,2.4,0,0,1,604.75,324.5Z"/><path class="cls-11" d="M599.41,317.73a36.27,36.27,0,0,0-5.68-1.31c-1.31-.06.16,1,1,2a3.63,3.63,0,0,0,3.64.63C598.83,318.64,599.86,318.1,599.41,317.73Z"/><path class="cls-11" d="M597.33,320.47s-.09,3.41-.15,3.57-.3,1.25-.51,0a16.93,16.93,0,0,1-.36-3.78C596.47,320.17,597.05,319.61,597.33,320.47Z"/><path class="cls-11" d="M597.2,326.51a4.66,4.66,0,0,1-.13,1.46c-.17.22-.35.44-.62-.68S596.7,325.77,597.2,326.51Z"/><path class="cls-11" d="M597.21,331.08a3,3,0,0,1,0,1.67c-.29.63-.35.44-.57-.4s-.27-1.47-.1-1.52S597.1,330.61,597.21,331.08Z"/><path class="cls-11" d="M597.55,336.35s.39,1.24,0,1.49-.78-1.69-.78-1.77S597.05,335.26,597.55,336.35Z"/><path class="cls-16" d="M604,355.88s-.25,1.61-.93,2-13.41-3-13.86-3.42a6.11,6.11,0,0,1-.47-3.81c.35-.62,14.21,2.89,14.66,3.35A2.08,2.08,0,0,1,604,355.88Z"/><path class="cls-16" d="M604,360.53s.16,1.09-1.32,1.26-13.13-3.06-13.52-3.42a4.88,4.88,0,0,1-.37-2.73c.12-.5,13.7,2.59,14.44,3.12A2,2,0,0,1,604,360.53Z"/><path class="cls-16" d="M603.3,363.09a3.61,3.61,0,0,1,.66,2.36c-.24,1.08-.64,1.25-1.61,1.27a93.17,93.17,0,0,1-12.5-3.17c-1.13-.63-1.05-2.55-.82-3.28s9.78,1.71,11.37,2S602.9,362.64,603.3,363.09Z"/><path class="cls-16" d="M604.34,351.13s.26,2-1.39,1.77-14.26-3.52-14.43-3.82-1.46-2.38-.19-3.48c0,0-.34-.43,1.25-.13a15.37,15.37,0,0,1,2.67.75s-.76-3.7-.24-3.75,7.06.42,7.5,2a6.74,6.74,0,0,1-.09,3.32l4.14,1.29A2.4,2.4,0,0,1,604.34,351.13Z"/><path class="cls-11" d="M599,344.36a36.27,36.27,0,0,0-5.68-1.31c-1.31-.06.16,1,1,2a3.63,3.63,0,0,0,3.64.63C598.42,345.27,599.45,344.73,599,344.36Z"/><path class="cls-11" d="M596.92,347.1s-.09,3.41-.15,3.57-.3,1.25-.51,0a16.93,16.93,0,0,1-.36-3.78C596.07,346.8,596.65,346.24,596.92,347.1Z"/><path class="cls-11" d="M596.8,353.13a4.66,4.66,0,0,1-.13,1.46c-.17.22-.35.44-.62-.68S596.29,352.39,596.8,353.13Z"/><path class="cls-11" d="M596.81,357.71a3,3,0,0,1,0,1.67c-.29.63-.35.44-.57-.4s-.27-1.47-.1-1.52S596.7,357.24,596.81,357.71Z"/><path class="cls-11" d="M597.15,363s.39,1.24,0,1.49-.78-1.69-.78-1.77S596.65,361.89,597.15,363Z"/><path class="cls-16" d="M625,333.55s-.25,1.61-.93,2-13.41-3-13.86-3.42a6.11,6.11,0,0,1-.47-3.81c.35-.62,14.21,2.89,14.66,3.35A2.08,2.08,0,0,1,625,333.55Z"/><path class="cls-16" d="M625,338.2s.16,1.09-1.32,1.26-13.13-3.06-13.52-3.42a4.88,4.88,0,0,1-.37-2.73c.12-.5,13.7,2.59,14.44,3.12A2,2,0,0,1,625,338.2Z"/><path class="cls-16" d="M624.34,340.76a3.61,3.61,0,0,1,.66,2.36c-.24,1.08-.64,1.25-1.61,1.27a93.17,93.17,0,0,1-12.5-3.17c-1.13-.63-1.05-2.55-.82-3.28s9.78,1.71,11.37,2S623.94,340.31,624.34,340.76Z"/><path class="cls-16" d="M625.38,328.8s.26,2-1.39,1.77-14.26-3.52-14.43-3.82-1.46-2.38-.19-3.48c0,0-.34-.43,1.25-.13a15.37,15.37,0,0,1,2.67.75s-.76-3.7-.24-3.75,7.06.42,7.5,2a6.74,6.74,0,0,1-.09,3.32l4.14,1.29A2.4,2.4,0,0,1,625.38,328.8Z"/><path class="cls-11" d="M620,322a36.27,36.27,0,0,0-5.68-1.31c-1.31-.06.16,1,1,2a3.63,3.63,0,0,0,3.64.63C619.46,322.94,620.49,322.4,620,322Z"/><path class="cls-11" d="M618,324.77s-.09,3.41-.15,3.57-.3,1.25-.51,0a16.93,16.93,0,0,1-.36-3.78C617.11,324.47,617.68,323.91,618,324.77Z"/><path class="cls-11" d="M617.84,330.8a4.66,4.66,0,0,1-.13,1.46c-.17.22-.35.44-.62-.68S617.33,330.06,617.84,330.8Z"/><path class="cls-11" d="M617.84,335.38a3,3,0,0,1,0,1.67c-.29.63-.35.44-.57-.4s-.27-1.47-.1-1.52S617.74,334.91,617.84,335.38Z"/><path class="cls-11" d="M618.19,340.65s.39,1.24,0,1.49-.78-1.69-.78-1.77S617.68,339.56,618.19,340.65Z"/><path class="cls-19" d="M625.26,360.33s-.25,1.61-.93,2-13.41-3-13.86-3.42a6.11,6.11,0,0,1-.47-3.81c.35-.62,14.21,2.89,14.66,3.35A2.08,2.08,0,0,1,625.26,360.33Z"/><path class="cls-19" d="M625.21,365s.16,1.09-1.32,1.26-13.13-3.06-13.52-3.42a4.88,4.88,0,0,1-.37-2.73c.12-.5,13.7,2.59,14.44,3.12A2,2,0,0,1,625.21,365Z"/><path class="cls-19" d="M624.56,367.54a3.61,3.61,0,0,1,.66,2.36c-.24,1.08-.64,1.25-1.61,1.27a93.17,93.17,0,0,1-12.5-3.17c-1.13-.63-1.05-2.55-.82-3.28s9.78,1.71,11.37,2S624.16,367.09,624.56,367.54Z"/><path class="cls-19" d="M625.6,355.58s.26,2-1.39,1.77-14.26-3.52-14.43-3.82-1.46-2.38-.19-3.48c0,0-.34-.43,1.25-.13a15.37,15.37,0,0,1,2.67.75s-.76-3.7-.24-3.75,7.06.42,7.5,2a6.74,6.74,0,0,1-.09,3.32l4.14,1.29A2.4,2.4,0,0,1,625.6,355.58Z"/><path class="cls-11" d="M620.26,348.81a36.27,36.27,0,0,0-5.68-1.31c-1.31-.06.16,1,1,2a3.63,3.63,0,0,0,3.64.63C619.68,349.72,620.71,349.19,620.26,348.81Z"/><path class="cls-11" d="M618.18,351.55s-.09,3.41-.15,3.57-.3,1.25-.51,0a16.93,16.93,0,0,1-.36-3.78C617.33,351.25,617.9,350.69,618.18,351.55Z"/><path class="cls-11" d="M618.06,357.59a4.66,4.66,0,0,1-.13,1.46c-.17.22-.35.44-.62-.68S617.55,356.85,618.06,357.59Z"/><path class="cls-11" d="M618.06,362.16a3,3,0,0,1,0,1.67c-.29.63-.35.44-.57-.4s-.27-1.47-.1-1.52S618,361.69,618.06,362.16Z"/><path class="cls-11" d="M618.41,367.43s.39,1.24,0,1.49-.78-1.69-.78-1.77S617.91,366.34,618.41,367.43Z"/><path class="cls-16" d="M624.95,389.35s-.25,1.61-.93,2-13.41-3-13.86-3.42a6.11,6.11,0,0,1-.47-3.81c.35-.62,14.21,2.89,14.66,3.35A2.08,2.08,0,0,1,624.95,389.35Z"/><path class="cls-16" d="M624.9,394s.16,1.09-1.32,1.26-13.13-3.06-13.52-3.42a4.88,4.88,0,0,1-.37-2.73c.12-.5,13.7,2.59,14.44,3.12A2,2,0,0,1,624.9,394Z"/><path class="cls-16" d="M624.24,396.57a3.61,3.61,0,0,1,.66,2.36c-.24,1.08-.64,1.25-1.61,1.27a93.17,93.17,0,0,1-12.5-3.17c-1.13-.63-1.05-2.55-.82-3.28s9.78,1.71,11.37,2S623.85,396.12,624.24,396.57Z"/><path class="cls-16" d="M625.28,384.6s.26,2-1.39,1.77-14.26-3.52-14.43-3.82-1.46-2.38-.19-3.48c0,0-.34-.43,1.25-.13a15.37,15.37,0,0,1,2.67.75s-.76-3.7-.24-3.75,7.06.42,7.5,2a6.74,6.74,0,0,1-.09,3.32l4.14,1.29A2.4,2.4,0,0,1,625.28,384.6Z"/><path class="cls-11" d="M619.94,377.83a36.27,36.27,0,0,0-5.68-1.31c-1.31-.06.16,1,1,2a3.63,3.63,0,0,0,3.64.63C619.37,378.75,620.4,378.21,619.94,377.83Z"/><path class="cls-11" d="M617.86,380.57s-.09,3.41-.15,3.57-.3,1.25-.51,0a16.93,16.93,0,0,1-.36-3.78C617,380.28,617.59,379.71,617.86,380.57Z"/><path class="cls-11" d="M617.74,386.61a4.66,4.66,0,0,1-.13,1.46c-.17.22-.35.44-.62-.68S617.24,385.87,617.74,386.61Z"/><path class="cls-11" d="M617.75,391.18a3,3,0,0,1,0,1.67c-.29.63-.35.44-.57-.4s-.27-1.47-.1-1.52S617.64,390.72,617.75,391.18Z"/><path class="cls-11" d="M618.09,396.46s.39,1.24,0,1.49-.78-1.69-.78-1.77S617.59,395.36,618.09,396.46Z"/><path class="cls-19" d="M603.68,380.07s-.25,1.61-.93,2-13.41-3-13.86-3.42a6.11,6.11,0,0,1-.47-3.81c.35-.62,14.21,2.89,14.66,3.35A2.08,2.08,0,0,1,603.68,380.07Z"/><path class="cls-19" d="M603.63,384.71s.16,1.09-1.32,1.26-13.13-3.06-13.52-3.42a4.88,4.88,0,0,1-.37-2.73c.12-.5,13.7,2.59,14.44,3.12A2,2,0,0,1,603.63,384.71Z"/><path class="cls-19" d="M603,387.28a3.61,3.61,0,0,1,.66,2.36c-.24,1.08-.64,1.25-1.61,1.27a93.17,93.17,0,0,1-12.5-3.17c-1.13-.63-1.05-2.55-.82-3.28s9.78,1.71,11.37,2S602.58,386.83,603,387.28Z"/><path class="cls-19" d="M604,375.31s.26,2-1.39,1.77-14.26-3.52-14.43-3.82-1.46-2.38-.19-3.48c0,0-.34-.43,1.25-.13a15.37,15.37,0,0,1,2.67.75s-.76-3.7-.24-3.75,7.06.42,7.5,2a6.74,6.74,0,0,1-.09,3.32l4.14,1.29A2.4,2.4,0,0,1,604,375.31Z"/><path class="cls-11" d="M598.68,368.55a36.27,36.27,0,0,0-5.68-1.31c-1.31-.06.16,1,1,2a3.63,3.63,0,0,0,3.64.63C598.1,369.46,599.13,368.92,598.68,368.55Z"/><path class="cls-11" d="M596.6,371.28s-.09,3.41-.15,3.57-.3,1.25-.51,0a16.93,16.93,0,0,1-.36-3.78C595.75,371,596.33,370.43,596.6,371.28Z"/><path class="cls-11" d="M596.48,377.32a4.66,4.66,0,0,1-.13,1.46c-.17.22-.35.44-.62-.68S596,376.58,596.48,377.32Z"/><path class="cls-11" d="M596.49,381.89a3,3,0,0,1,0,1.67c-.29.63-.35.44-.57-.4s-.27-1.47-.1-1.52S596.38,381.43,596.49,381.89Z"/><path class="cls-11" d="M596.83,387.17s.39,1.24,0,1.49S596,387,596,386.88,596.33,386.08,596.83,387.17Z"/><path class="cls-19" d="M602.63,392.55a3.48,3.48,0,0,1,.72,2.37c-.26,1.08-.69,1.24-1.75,1.24A110,110,0,0,1,588,392.73c-1.23-.66-1.15-2.57-.89-3.3s10.63,1.92,12.36,2.26S602.2,392.1,602.63,392.55Z"/><path class="cls-11" d="M595.94,392.31s.42,1.25,0,1.49-.85-1.7-.85-1.79S595.4,391.21,595.94,392.31Z"/><polygon class="cls-20" points="585.67 336.67 629.31 347.44 629.6 320.21 585.97 309.45 585.67 336.67"/><polygon class="cls-20" points="585.3 362.69 629.05 373.49 629.31 349.64 585.56 338.84 585.3 362.69"/><polygon class="cls-20" points="585.2 392.56 628.95 403.36 629.26 374.68 585.51 363.89 585.2 392.56"/></g><g class="cls-21"><path class="cls-19" d="M156.24,335.53s.25,1.61.93,2,13.41-3,13.86-3.42a6.11,6.11,0,0,0,.47-3.81c-.35-.62-14.21,2.89-14.66,3.35A2.08,2.08,0,0,0,156.24,335.53Z"/><path class="cls-19" d="M156.29,340.18s-.16,1.09,1.32,1.26,13.13-3.06,13.52-3.42a4.88,4.88,0,0,0,.37-2.73c-.12-.5-13.7,2.59-14.44,3.12A2,2,0,0,0,156.29,340.18Z"/><path class="cls-19" d="M156.95,342.74a3.61,3.61,0,0,0-.66,2.36c.24,1.08.64,1.25,1.61,1.27a93.17,93.17,0,0,0,12.5-3.17c1.13-.63,1.05-2.55.82-3.28s-9.78,1.71-11.37,2S157.34,342.29,156.95,342.74Z"/><path class="cls-19" d="M155.91,330.78s-.26,2,1.39,1.77,14.26-3.52,14.43-3.82,1.46-2.38.19-3.48c0,0,.34-.43-1.25-.13a15.37,15.37,0,0,0-2.67.75s.76-3.7.24-3.75-7.06.42-7.5,2a6.74,6.74,0,0,0,.09,3.32l-4.14,1.29A2.4,2.4,0,0,0,155.91,330.78Z"/><path class="cls-11" d="M161.25,324a36.27,36.27,0,0,1,5.68-1.31c1.31-.06-.16,1-1,2a3.63,3.63,0,0,1-3.64.63C161.82,324.92,160.79,324.38,161.25,324Z"/><path class="cls-11" d="M163.33,326.75s.09,3.41.15,3.57.3,1.25.51,0a16.93,16.93,0,0,0,.36-3.78C164.18,326.45,163.6,325.89,163.33,326.75Z"/><path class="cls-11" d="M163.45,332.78a4.66,4.66,0,0,0,.13,1.46c.17.22.35.44.62-.68S164,332,163.45,332.78Z"/><path class="cls-11" d="M163.44,337.36a3,3,0,0,0,0,1.67c.29.63.35.44.57-.4s.27-1.47.1-1.52S163.55,336.89,163.44,337.36Z"/><path class="cls-11" d="M163.1,342.63s-.39,1.24,0,1.49.78-1.69.78-1.77S163.6,341.54,163.1,342.63Z"/><path class="cls-16" d="M156.65,362.16s.25,1.61.93,2,13.41-3,13.86-3.42a6.11,6.11,0,0,0,.47-3.81c-.35-.62-14.21,2.89-14.66,3.35A2.08,2.08,0,0,0,156.65,362.16Z"/><path class="cls-16" d="M156.7,366.8s-.16,1.09,1.32,1.26,13.13-3.06,13.52-3.42a4.88,4.88,0,0,0,.37-2.73c-.12-.5-13.7,2.59-14.44,3.12A2,2,0,0,0,156.7,366.8Z"/><path class="cls-16" d="M157.35,369.37a3.61,3.61,0,0,0-.66,2.36c.24,1.08.64,1.25,1.61,1.27a93.17,93.17,0,0,0,12.5-3.17c1.13-.63,1.05-2.55.82-3.28s-9.78,1.71-11.37,2S157.75,368.92,157.35,369.37Z"/><path class="cls-16" d="M156.31,357.4s-.26,2,1.39,1.77,14.26-3.52,14.43-3.82,1.46-2.38.19-3.48c0,0,.34-.43-1.25-.13a15.37,15.37,0,0,0-2.67.75s.76-3.7.24-3.75-7.06.42-7.5,2a6.74,6.74,0,0,0,.09,3.32l-4.14,1.29A2.4,2.4,0,0,0,156.31,357.4Z"/><path class="cls-11" d="M161.65,350.64a36.27,36.27,0,0,1,5.68-1.31c1.31-.06-.16,1-1,2a3.63,3.63,0,0,1-3.64.63C162.23,351.55,161.2,351,161.65,350.64Z"/><path class="cls-11" d="M163.73,353.38s.09,3.41.15,3.57.3,1.25.51,0a16.93,16.93,0,0,0,.36-3.78C164.58,353.08,164,352.52,163.73,353.38Z"/><path class="cls-11" d="M163.85,359.41a4.66,4.66,0,0,0,.13,1.46c.17.22.35.44.62-.68S164.36,358.67,163.85,359.41Z"/><path class="cls-11" d="M163.85,364a3,3,0,0,0,0,1.67c.29.63.35.44.57-.4s.27-1.47.1-1.52S164,363.52,163.85,364Z"/><path class="cls-11" d="M163.5,369.26s-.39,1.24,0,1.49.78-1.69.78-1.77S164,368.17,163.5,369.26Z"/><path class="cls-16" d="M135.61,339.83s.25,1.61.93,2,13.41-3,13.86-3.42a6.11,6.11,0,0,0,.47-3.81c-.35-.62-14.21,2.89-14.66,3.35A2.08,2.08,0,0,0,135.61,339.83Z"/><path class="cls-16" d="M135.66,344.47s-.16,1.09,1.32,1.26,13.13-3.06,13.52-3.42a4.88,4.88,0,0,0,.37-2.73c-.12-.5-13.7,2.59-14.44,3.12A2,2,0,0,0,135.66,344.47Z"/><path class="cls-16" d="M136.31,347a3.61,3.61,0,0,0-.66,2.36c.24,1.08.64,1.25,1.61,1.27a93.17,93.17,0,0,0,12.5-3.17c1.13-.63,1.05-2.55.82-3.28s-9.78,1.71-11.37,2S136.71,346.59,136.31,347Z"/><path class="cls-16" d="M135.27,335.07s-.26,2,1.39,1.77,14.26-3.52,14.43-3.82,1.46-2.38.19-3.48c0,0,.34-.43-1.25-.13a15.37,15.37,0,0,0-2.67.75s.76-3.7.24-3.75-7.06.42-7.5,2a6.74,6.74,0,0,0,.09,3.32L136,333A2.4,2.4,0,0,0,135.27,335.07Z"/><path class="cls-11" d="M140.61,328.31a36.27,36.27,0,0,1,5.68-1.31c1.31-.06-.16,1-1,2a3.63,3.63,0,0,1-3.64.63C141.19,329.22,140.16,328.68,140.61,328.31Z"/><path class="cls-11" d="M142.69,331s.09,3.41.15,3.57.3,1.25.51,0a16.93,16.93,0,0,0,.36-3.78C143.54,330.75,143,330.19,142.69,331Z"/><path class="cls-11" d="M142.82,337.08a4.66,4.66,0,0,0,.13,1.46c.17.22.35.44.62-.68S143.32,336.34,142.82,337.08Z"/><path class="cls-11" d="M142.81,341.66a3,3,0,0,0,0,1.67c.29.63.35.44.57-.4s.27-1.47.1-1.52S142.92,341.19,142.81,341.66Z"/><path class="cls-11" d="M142.47,346.93s-.39,1.24,0,1.49.78-1.69.78-1.77S143,345.84,142.47,346.93Z"/><path class="cls-19" d="M135.39,366.61s.25,1.61.93,2,13.41-3,13.86-3.42a6.11,6.11,0,0,0,.47-3.81c-.35-.62-14.21,2.89-14.66,3.35A2.08,2.08,0,0,0,135.39,366.61Z"/><path class="cls-19" d="M135.44,371.26s-.16,1.09,1.32,1.26,13.13-3.06,13.52-3.42a4.88,4.88,0,0,0,.37-2.73c-.12-.5-13.7,2.59-14.44,3.12A2,2,0,0,0,135.44,371.26Z"/><path class="cls-19" d="M136.09,373.82a3.61,3.61,0,0,0-.66,2.36c.24,1.08.64,1.25,1.61,1.27a93.17,93.17,0,0,0,12.5-3.17c1.13-.63,1.05-2.55.82-3.28s-9.78,1.71-11.37,2S136.49,373.37,136.09,373.82Z"/><path class="cls-19" d="M135.05,361.86s-.26,2,1.39,1.77,14.26-3.52,14.43-3.82,1.46-2.38.19-3.48c0,0,.34-.43-1.25-.13a15.37,15.37,0,0,0-2.67.75s.76-3.7.24-3.75-7.06.42-7.5,2a6.74,6.74,0,0,0,.09,3.32l-4.14,1.29A2.4,2.4,0,0,0,135.05,361.86Z"/><path class="cls-11" d="M140.39,355.09a36.27,36.27,0,0,1,5.68-1.31c1.31-.06-.16,1-1,2a3.63,3.63,0,0,1-3.64.63C141,356,139.94,355.46,140.39,355.09Z"/><path class="cls-11" d="M142.47,357.83s.09,3.41.15,3.57.3,1.25.51,0a16.93,16.93,0,0,0,.36-3.78C143.32,357.53,142.75,357,142.47,357.83Z"/><path class="cls-11" d="M142.59,363.86a4.66,4.66,0,0,0,.13,1.46c.17.22.35.44.62-.68S143.1,363.12,142.59,363.86Z"/><path class="cls-11" d="M142.59,368.44a3,3,0,0,0,0,1.67c.29.63.35.44.57-.4s.27-1.47.1-1.52S142.7,368,142.59,368.44Z"/><path class="cls-11" d="M142.25,373.71s-.39,1.24,0,1.49.78-1.69.78-1.77S142.75,372.62,142.25,373.71Z"/><path class="cls-16" d="M135.71,395.63s.25,1.61.93,2,13.41-3,13.86-3.42a6.11,6.11,0,0,0,.47-3.81c-.35-.62-14.21,2.89-14.66,3.35A2.08,2.08,0,0,0,135.71,395.63Z"/><path class="cls-16" d="M135.76,400.28s-.16,1.09,1.32,1.26,13.13-3.06,13.52-3.42a4.88,4.88,0,0,0,.37-2.73c-.12-.5-13.7,2.59-14.44,3.12A2,2,0,0,0,135.76,400.28Z"/><path class="cls-16" d="M136.41,402.84a3.61,3.61,0,0,0-.66,2.36c.24,1.08.64,1.25,1.61,1.27a93.17,93.17,0,0,0,12.5-3.17c1.13-.63,1.05-2.55.82-3.28s-9.78,1.71-11.37,2S136.8,402.39,136.41,402.84Z"/><path class="cls-16" d="M135.37,390.88s-.26,2,1.39,1.77,14.26-3.52,14.43-3.82,1.46-2.38.19-3.48c0,0,.34-.43-1.25-.13a15.37,15.37,0,0,0-2.67.75s.76-3.7.24-3.75-7.06.42-7.5,2a6.74,6.74,0,0,0,.09,3.32l-4.14,1.29A2.4,2.4,0,0,0,135.37,390.88Z"/><path class="cls-11" d="M140.71,384.11a36.27,36.27,0,0,1,5.68-1.31c1.31-.06-.16,1-1,2a3.63,3.63,0,0,1-3.64.63C141.29,385,140.26,384.49,140.71,384.11Z"/><path class="cls-11" d="M142.79,386.85s.09,3.41.15,3.57.3,1.25.51,0a16.93,16.93,0,0,0,.36-3.78C143.64,386.55,143.06,386,142.79,386.85Z"/><path class="cls-11" d="M142.91,392.89a4.66,4.66,0,0,0,.13,1.46c.17.22.35.44.62-.68S143.42,392.15,142.91,392.89Z"/><path class="cls-11" d="M142.9,397.46a3,3,0,0,0,0,1.67c.29.63.35.44.57-.4s.27-1.47.1-1.52S143,397,142.9,397.46Z"/><path class="cls-11" d="M142.56,402.73s-.39,1.24,0,1.49.78-1.69.78-1.77S143.06,401.64,142.56,402.73Z"/><path class="cls-19" d="M157,386.34s.25,1.61.93,2,13.41-3,13.86-3.42a6.11,6.11,0,0,0,.47-3.81c-.35-.62-14.21,2.89-14.66,3.35A2.08,2.08,0,0,0,157,386.34Z"/><path class="cls-19" d="M157,391s-.16,1.09,1.32,1.26,13.13-3.06,13.52-3.42a4.88,4.88,0,0,0,.37-2.73c-.12-.5-13.7,2.59-14.44,3.12A2,2,0,0,0,157,391Z"/><path class="cls-19" d="M157.67,393.55a3.61,3.61,0,0,0-.66,2.36c.24,1.08.64,1.25,1.61,1.27a93.17,93.17,0,0,0,12.5-3.17c1.13-.63,1.05-2.55.82-3.28s-9.78,1.71-11.37,2S158.07,393.11,157.67,393.55Z"/><path class="cls-19" d="M156.63,381.59s-.26,2,1.39,1.77,14.26-3.52,14.43-3.82,1.46-2.38.19-3.48c0,0,.34-.43-1.25-.13a15.37,15.37,0,0,0-2.67.75s.76-3.7.24-3.75-7.06.42-7.5,2a6.74,6.74,0,0,0,.09,3.32l-4.14,1.29A2.4,2.4,0,0,0,156.63,381.59Z"/><path class="cls-11" d="M162,374.82a36.27,36.27,0,0,1,5.68-1.31c1.31-.06-.16,1-1,2a3.63,3.63,0,0,1-3.64.63C162.55,375.73,161.52,375.2,162,374.82Z"/><path class="cls-11" d="M164.05,377.56s.09,3.41.15,3.57.3,1.25.51,0a16.93,16.93,0,0,0,.36-3.78C164.9,377.26,164.33,376.7,164.05,377.56Z"/><path class="cls-11" d="M164.17,383.6a4.66,4.66,0,0,0,.13,1.46c.17.22.35.44.62-.68S164.68,382.86,164.17,383.6Z"/><path class="cls-11" d="M164.17,388.17a3,3,0,0,0,0,1.67c.29.63.35.44.57-.4s.27-1.47.1-1.52S164.28,387.71,164.17,388.17Z"/><path class="cls-11" d="M163.83,393.44s-.39,1.24,0,1.49.78-1.69.78-1.77S164.33,392.35,163.83,393.44Z"/><path class="cls-19" d="M158,398.83a3.48,3.48,0,0,0-.72,2.37c.26,1.08.69,1.24,1.75,1.24A110,110,0,0,0,172.64,399c1.23-.66,1.15-2.57.89-3.3s-10.63,1.92-12.36,2.26S158.45,398.37,158,398.83Z"/><path class="cls-11" d="M164.71,398.59s-.42,1.25,0,1.49.85-1.7.85-1.79S165.25,397.49,164.71,398.59Z"/><polygon class="cls-20" points="174.98 342.95 131.35 353.71 131.05 326.49 174.69 315.72 174.98 342.95"/><polygon class="cls-20" points="175.35 368.97 131.6 379.76 131.34 355.91 175.09 345.12 175.35 368.97"/><polygon class="cls-20" points="175.45 398.84 131.7 409.63 131.39 380.96 175.14 370.17 175.45 398.84"/></g><path class="cls-16" d="M188.91,333.36c6.33-.6,12.67-1.37,19-1.71s13,.45,19.46.68c12.88.47,25.77.22,38.65.09a158.57,158.57,0,0,1,21.76.86c.52.07.51-.75,0-.81a144.72,144.72,0,0,0-19.41-.88c-6.51,0-13,.15-19.53.19s-12.88,0-19.32-.19-12.87-.95-19.3-.84c-7.11.12-14.25,1.13-21.33,1.8-.52,0-.52.86,0,.81Z"/><path class="cls-17" d="M530.1,377.21c-.25-1.77-7.23-28.46-8.48-29s-9.11-3-9.11-3,.75-3.34-.75-2.94a23.53,23.53,0,0,1-4.31.1,8.66,8.66,0,0,0-.05-1.37s3-.59,3.24-2.36a3.18,3.18,0,0,0-3-3.53c-1.75,0-3.49.59-4,1.37s-.75,2.36,0,2.75,1.75-.59,1.75-.59-.75-1.57.75-1.77,2.49.59,2.25,1.37-1.5,1.37-2.25,1.57c-.55.15-.56,1.58-.53,2.48-2.07-.1-3.84-.22-3.84-.22-1.12.29-.87,3.63-.87,3.63s-9.23,3.14-10,3.73-7.48,29.24-7,30.22,6.24.39,6.74.2,4.74-21.59,4.74-21.59V377.4s22.7.39,23.45,0-.5-19.43-.5-19.43l6,21.59S530.35,379,530.1,377.21Z"/><path class="cls-22" d="M550.88,376.34c-.25-1.77-7.23-28.46-8.48-29s-9.11-3-9.11-3,.75-3.34-.75-2.94a23.53,23.53,0,0,1-4.31.1,8.66,8.66,0,0,0-.05-1.37s3-.59,3.24-2.36a3.18,3.18,0,0,0-3-3.53c-1.75,0-3.49.59-4,1.37s-.75,2.36,0,2.75,1.75-.59,1.75-.59-.75-1.57.75-1.77,2.49.59,2.25,1.37-1.5,1.37-2.25,1.57c-.55.15-.56,1.58-.53,2.48-2.07-.1-3.84-.22-3.84-.22-1.12.29-.87,3.63-.87,3.63s-9.23,3.14-10,3.73-7.48,29.24-7,30.22,6.24.39,6.74.2,4.74-21.59,4.74-21.59v19.23s22.7.39,23.45,0-.5-19.43-.5-19.43l6,21.59S551.13,378.11,550.88,376.34Z"/><path class="cls-13" d="M571.23,376.34c-.25-1.77-7.23-28.46-8.48-29s-9.11-3-9.11-3,.75-3.34-.75-2.94a23.53,23.53,0,0,1-4.31.1,8.66,8.66,0,0,0-.05-1.37s3-.59,3.24-2.36a3.18,3.18,0,0,0-3-3.53c-1.75,0-3.49.59-4,1.37s-.75,2.36,0,2.75,1.75-.59,1.75-.59-.75-1.57.75-1.77,2.49.59,2.25,1.37-1.5,1.37-2.25,1.57c-.55.15-.56,1.58-.53,2.48-2.07-.1-3.84-.22-3.84-.22-1.12.29-.87,3.63-.87,3.63s-9.23,3.14-10,3.73-7.48,29.24-7,30.22,6.24.39,6.74.2,4.74-21.59,4.74-21.59v19.23s22.7.39,23.45,0-.5-19.43-.5-19.43l6,21.59S571.48,378.11,571.23,376.34Z"/><path class="cls-16" d="M478.11,338.56c6.33-.6,12.67-1.37,19-1.71s13,.45,19.46.68c12.88.47,25.77.22,38.65.09a158.57,158.57,0,0,1,21.76.86c.52.07.51-.75,0-.81a144.72,144.72,0,0,0-19.41-.88c-6.51,0-13,.15-19.53.19s-12.88,0-19.32-.19-12.87-.95-19.3-.84c-7.11.12-14.25,1.13-21.33,1.8-.52,0-.52.86,0,.81Z"/><text class="cls-23" transform="translate(345 296.52)">SHOP</text></svg>