<svg xmlns="http://www.w3.org/2000/svg" xmlns:xlink="http://www.w3.org/1999/xlink" viewBox="0 0 686.63 187.67"><defs><style>.cls-1{fill:#d0cdbc;}.cls-2{fill:url(#未命名漸層_104);}.cls-3{fill:url(#未命名漸層_104-2);}.cls-4{fill:url(#未命名漸層_104-3);}.cls-5{fill:url(#未命名漸層_104-4);}.cls-6{fill:url(#未命名漸層_104-5);}.cls-7{fill:url(#未命名漸層_104-6);}.cls-8{fill:url(#未命名漸層_104-7);}.cls-9{fill:url(#未命名漸層_104-8);}.cls-10{fill:url(#未命名漸層_104-9);}.cls-11{fill:url(#未命名漸層_104-10);}.cls-12{fill:url(#未命名漸層_104-11);}.cls-13{fill:url(#未命名漸層_104-12);}.cls-14{fill:url(#未命名漸層_104-13);}.cls-15{fill:url(#未命名漸層_104-14);}.cls-16{fill:url(#未命名漸層_104-15);}.cls-17{fill:url(#未命名漸層_104-16);}.cls-18{fill:url(#未命名漸層_104-17);}.cls-19{fill:url(#未命名漸層_104-18);}.cls-20{fill:#092132;}.cls-21{fill:#efefef;}.cls-22{fill:url(#未命名漸層_104-19);}.cls-23{fill:url(#未命名漸層_104-20);}.cls-24{fill:url(#未命名漸層_104-21);}.cls-25{fill:url(#未命名漸層_104-22);}.cls-26{fill:url(#未命名漸層_104-23);}.cls-27{fill:url(#未命名漸層_104-24);}.cls-28{fill:url(#未命名漸層_104-25);}.cls-29{fill:url(#未命名漸層_104-26);}.cls-30{fill:url(#未命名漸層_104-28);}.cls-31{fill:url(#未命名漸層_104-29);}.cls-32{fill:url(#未命名漸層_104-31);}.cls-33{fill:url(#未命名漸層_104-32);}.cls-34{fill:url(#未命名漸層_104-33);}.cls-35{fill:url(#未命名漸層_104-34);}.cls-36{fill:url(#未命名漸層_104-35);}.cls-37{fill:url(#未命名漸層_104-36);}.cls-38{fill:url(#未命名漸層_104-37);}.cls-39{fill:url(#未命名漸層_104-38);}.cls-40{fill:url(#未命名漸層_104-39);}.cls-41{fill:url(#未命名漸層_104-40);}</style><linearGradient id="未命名漸層_104" x1="657.69" y1="8.69" x2="658.65" y2="8.69" gradientUnits="userSpaceOnUse"><stop offset="0" stop-color="#fff"/><stop offset="0.62" stop-color="#dddcdb"/></linearGradient><linearGradient id="未命名漸層_104-2" x1="0" y1="24.17" x2="0.97" y2="24.17" xlink:href="#未命名漸層_104"/><linearGradient id="未命名漸層_104-3" x1="685.15" y1="10.5" x2="686.15" y2="10.5" xlink:href="#未命名漸層_104"/><linearGradient id="未命名漸層_104-4" x1="393.67" y1="0.5" x2="394.63" y2="0.5" xlink:href="#未命名漸層_104"/><linearGradient id="未命名漸層_104-5" x1="83.77" y1="53.31" x2="84.74" y2="53.31" xlink:href="#未命名漸層_104"/><linearGradient id="未命名漸層_104-6" x1="152.77" y1="71.31" x2="153.73" y2="71.31" xlink:href="#未命名漸層_104"/><linearGradient id="未命名漸層_104-7" x1="89.77" y1="113.31" x2="90.74" y2="113.31" xlink:href="#未命名漸層_104"/><linearGradient id="未命名漸層_104-8" x1="458.75" y1="57.81" x2="459.72" y2="57.81" xlink:href="#未命名漸層_104"/><linearGradient id="未命名漸層_104-9" x1="569.75" y1="23.31" x2="570.71" y2="23.31" xlink:href="#未命名漸層_104"/><linearGradient id="未命名漸層_104-10" x1="623.74" y1="90.81" x2="624.71" y2="90.81" xlink:href="#未命名漸層_104"/><linearGradient id="未命名漸層_104-11" x1="679.24" y1="35.31" x2="680.21" y2="35.31" xlink:href="#未命名漸層_104"/><linearGradient id="未命名漸層_104-12" x1="17.05" y1="112.44" x2="18.02" y2="112.44" xlink:href="#未命名漸層_104"/><linearGradient id="未命名漸層_104-13" x1="16.35" y1="112.12" x2="18.83" y2="112.12" xlink:href="#未命名漸層_104"/><linearGradient id="未命名漸層_104-14" x1="45.25" y1="64.3" x2="47.16" y2="64.3" xlink:href="#未命名漸層_104"/><linearGradient id="未命名漸層_104-15" x1="47.09" y1="72.49" x2="48.06" y2="72.49" xlink:href="#未命名漸層_104"/><linearGradient id="未命名漸層_104-16" x1="277.72" y1="55.11" x2="278.69" y2="55.11" xlink:href="#未命名漸層_104"/><linearGradient id="未命名漸層_104-17" x1="337.72" y1="32.11" x2="338.69" y2="32.11" xlink:href="#未命名漸層_104"/><linearGradient id="未命名漸層_104-18" x1="239.86" y1="96.1" x2="241.27" y2="96.1" xlink:href="#未命名漸層_104"/><linearGradient id="未命名漸層_104-19" x1="49.2" y1="63.71" x2="50.17" y2="63.71" xlink:href="#未命名漸層_104"/><linearGradient id="未命名漸層_104-20" x1="85.1" y1="55.63" x2="86.91" y2="55.63" xlink:href="#未命名漸層_104"/><linearGradient id="未命名漸層_104-21" x1="86.96" y1="54.37" x2="87.93" y2="54.37" xlink:href="#未命名漸層_104"/><linearGradient id="未命名漸層_104-22" x1="89.63" y1="52.28" x2="90.6" y2="52.28" xlink:href="#未命名漸層_104"/><linearGradient id="未命名漸層_104-23" x1="88.92" y1="48.87" x2="90.34" y2="48.87" xlink:href="#未命名漸層_104"/><linearGradient id="未命名漸層_104-24" x1="111.05" y1="15.16" x2="112.01" y2="15.16" xlink:href="#未命名漸層_104"/><linearGradient id="未命名漸層_104-25" x1="110.71" y1="23.82" x2="111.68" y2="23.82" xlink:href="#未命名漸層_104"/><linearGradient id="未命名漸層_104-26" x1="121.38" y1="3.82" x2="122.35" y2="3.82" xlink:href="#未命名漸層_104"/><linearGradient id="未命名漸層_104-28" x1="234.38" y1="22.16" x2="235.35" y2="22.16" xlink:href="#未命名漸層_104"/><linearGradient id="未命名漸層_104-29" x1="235.38" y1="20.49" x2="236.35" y2="20.49" xlink:href="#未命名漸層_104"/><linearGradient id="未命名漸層_104-31" x1="245.38" y1="29.82" x2="246.35" y2="29.82" xlink:href="#未命名漸層_104"/><linearGradient id="未命名漸層_104-32" x1="204.71" y1="48.16" x2="205.68" y2="48.16" xlink:href="#未命名漸層_104"/><linearGradient id="未命名漸層_104-33" x1="183.38" y1="36.82" x2="184.35" y2="36.82" xlink:href="#未命名漸層_104"/><linearGradient id="未命名漸層_104-34" x1="186.05" y1="71.82" x2="187.01" y2="71.82" xlink:href="#未命名漸層_104"/><linearGradient id="未命名漸層_104-35" x1="300.38" y1="74.16" x2="301.35" y2="74.16" xlink:href="#未命名漸層_104"/><linearGradient id="未命名漸層_104-36" x1="316.05" y1="68.49" x2="317.01" y2="68.49" xlink:href="#未命名漸層_104"/><linearGradient id="未命名漸層_104-37" x1="236.71" y1="25.16" x2="237.68" y2="25.16" xlink:href="#未命名漸層_104"/><linearGradient id="未命名漸層_104-38" x1="231.38" y1="29.82" x2="232.35" y2="29.82" xlink:href="#未命名漸層_104"/><linearGradient id="未命名漸層_104-39" x1="239.05" y1="36.16" x2="240.01" y2="36.16" xlink:href="#未命名漸層_104"/><linearGradient id="未命名漸層_104-40" x1="568.38" y1="123.49" x2="569.35" y2="123.49" xlink:href="#未命名漸層_104"/></defs><title>star_1</title><g id="圖層_2" data-name="圖層 2"><g id="圖層_1-2" data-name="圖層 1"><path class="cls-1" d="M678.53,141.49"/><path class="cls-2" d="M658.17,9.19a.5.5,0,0,0,0-1,.5.5,0,0,0,0,1Z"/><path class="cls-3" d="M.48,24.67a.5.5,0,0,0,0-1,.5.5,0,0,0,0,1Z"/><path class="cls-4" d="M686.15,10h-1a.5.5,0,0,0,0,1h1a.5.5,0,0,0,0-1Z"/><path class="cls-5" d="M394.15,1a.5.5,0,0,0,0-1,.5.5,0,0,0,0,1Z"/><path class="cls-6" d="M84.25,53.81a.5.5,0,0,0,0-1,.5.5,0,0,0,0,1Z"/><path class="cls-7" d="M153.25,71.81a.5.5,0,0,0,0-1,.5.5,0,0,0,0,1Z"/><path class="cls-8" d="M90.25,113.81a.5.5,0,0,0,0-1,.5.5,0,0,0,0,1Z"/><path class="cls-9" d="M459.23,58.31a.5.5,0,0,0,0-1,.5.5,0,0,0,0,1Z"/><path class="cls-10" d="M570.23,23.81a.5.5,0,0,0,0-1,.5.5,0,0,0,0,1Z"/><path class="cls-11" d="M624.23,91.31a.5.5,0,0,0,0-1,.5.5,0,0,0,0,1Z"/><path class="cls-12" d="M679.72,35.81a.5.5,0,0,0,0-1,.5.5,0,0,0,0,1Z"/><path class="cls-13" d="M17.54,112.94a.5.5,0,0,0,0-1,.5.5,0,0,0,0,1Z"/><path class="cls-14" d="M17.33,113.22l.59.06c.41,0,.58-.45.43-.75a1.38,1.38,0,0,1-.09-1l-.62.35s0,0-.13.12a1.32,1.32,0,0,1-.52.17l.49.13a.1.1,0,0,1,.1-.17c.22,0,0,.39-.16.23s.6-.47.17.09.48,1,.86.5a1.17,1.17,0,1,0-1,.46,1.15,1.15,0,0,0,.47-2.21A1.11,1.11,0,0,0,16.78,113a.5.5,0,0,0,.49.13c.58-.14,1.22-.39,1.35-1a1,1,0,0,0-.7-1.18.51.51,0,0,0-.62.35,2.45,2.45,0,0,0,.19,1.8l.43-.75-.59-.06c-.64-.06-.64.94,0,1Z"/><path class="cls-15" d="M45.62,64a.38.38,0,0,1,.07.41l.91.12a.47.47,0,0,1,.06-.56l-.84-.22a.78.78,0,0,1-.36.72h.71l-.06-.07.15.35q-.51,0-.35.34a.51.51,0,0,0,.91.12A2.91,2.91,0,0,0,47.16,64a.51.51,0,0,0-.5-.5h-.83a.5.5,0,0,0,0,1h.83l-.5-.5a1.68,1.68,0,0,1-.2.72l.91.12c-.16-.48-.52-1-1.11-.81a.7.7,0,0,0-.3,1.15.51.51,0,0,0,.71,0,1.74,1.74,0,0,0,.62-1.7.5.5,0,0,0-.84-.22,1.44,1.44,0,0,0-.32,1.53c.14.35.71.55.91.12a1.39,1.39,0,0,0-.07-1.42c-.35-.53-1.22,0-.86.5Z"/><path class="cls-16" d="M47.58,73a.5.5,0,0,0,0-1,.5.5,0,0,0,0,1Z"/><path class="cls-17" d="M278.2,55.61a.5.5,0,0,0,0-1,.5.5,0,0,0,0,1Z"/><path class="cls-18" d="M338.2,32.61a.5.5,0,0,0,0-1,.5.5,0,0,0,0,1Z"/><path class="cls-19" d="M240.36,96.6s-.15-.1-.1,0-.15,0,.09-.06l.62.62c.12-.59.73-2.16-.21-2.4-.73-.19-1.11,1-.35,1.18a.5.5,0,0,0,.27-1l-.06,0,.35.35-.13.36-.39.05q-.23-.36-.22,0l-.08.39-.15.77a.51.51,0,0,0,.62.62c1.17-.25.59-2.25-.52-1.84-.6.22-.34,1.19.27,1Z"/><path class="cls-20" d="M526.67,133.7a2.54,2.54,0,0,1,3.19-.14c.42.3.92-.28.68-.68a.89.89,0,0,1,.09-1.08c.38-.52-.48-1-.86-.5a1.85,1.85,0,0,0-.09,2.09l.68-.68a3.54,3.54,0,0,0-4.4.29c-.48.43.23,1.13.71.71Z"/><path class="cls-20" d="M530.07,130.85a2.1,2.1,0,0,0-.07,3.85c.59.25.85-.72.27-1a1.12,1.12,0,0,1,.07-1.92c.6-.22.34-1.18-.27-1Z"/><path class="cls-21" d="M542.33,147.63l.33,1c.2.61,1.17.35,1-.27l-.33-1c-.2-.61-1.17-.35-1,.27Z"/><path class="cls-21" d="M514.15,158.67a.5.5,0,0,0,0-1,.5.5,0,0,0,0,1Z"/><path class="cls-21" d="M521.48,115.67a.5.5,0,0,0,0-1,.5.5,0,0,0,0,1Z"/><path class="cls-21" d="M594.15,187.67a.5.5,0,0,0,0-1,.5.5,0,0,0,0,1Z"/><path class="cls-21" d="M567.48,132a.5.5,0,0,0,0-1,.5.5,0,0,0,0,1Z"/><path class="cls-21" d="M572.48,135.67a.5.5,0,0,0,0-1,.5.5,0,0,0,0,1Z"/><path class="cls-21" d="M278.65,159a.5.5,0,0,0,0-1,.5.5,0,0,0,0,1Z"/><path class="cls-21" d="M265.65,146.5a.5.5,0,0,0,0-1,.5.5,0,0,0,0,1Z"/><path class="cls-21" d="M385.15,125.5a.5.5,0,0,0,0-1,.5.5,0,0,0,0,1Z"/><path class="cls-21" d="M367.15,137a.5.5,0,0,0,0-1,.5.5,0,0,0,0,1Z"/><path class="cls-22" d="M49.69,64.21a.5.5,0,0,0,0-1,.5.5,0,0,0,0,1Z"/><path class="cls-23" d="M86.46,55.81a1.17,1.17,0,0,0-.09-.25q-.1-.28-.15.07l-.35.15q-.1,0,0,0t.24-.3l-.25.43a.38.38,0,0,1,.27-.11c.63-.13.36-1.09-.27-1s-1,.8-.47,1.34A.92.92,0,0,0,86.86,56c.19-.51-.4-1.15-.91-1.18a.65.65,0,0,0-.64.44c-.13.35.09.56.18.87a.5.5,0,0,0,1-.27Z"/><path class="cls-24" d="M87.45,54.87a.5.5,0,0,0,0-1,.5.5,0,0,0,0,1Z"/><path class="cls-25" d="M90.11,52.78a.5.5,0,0,0,0-1,.5.5,0,0,0,0,1Z"/><path class="cls-26" d="M89.66,49.26h0l-.43-.75,0,0,.68.68.05-.11-.3.23.11,0c.61-.19.35-1.16-.27-1a.67.67,0,0,0-.47.37c-.2.4.25,1,.68.68a1.6,1.6,0,0,0,.39-.4.5.5,0,0,0-.43-.75.73.73,0,0,0-.5.14c-.53.36,0,1.23.5.86Z"/><path class="cls-27" d="M111.53,15.66a.5.5,0,0,0,0-1,.5.5,0,0,0,0,1Z"/><path class="cls-28" d="M111.2,24.32a.5.5,0,0,0,0-1,.5.5,0,0,0,0,1Z"/><path class="cls-29" d="M121.86,4.32a.5.5,0,0,0,0-1,.5.5,0,0,0,0,1Z"/><path class="cls-29" d="M121.86,4.32a.5.5,0,0,0,0-1,.5.5,0,0,0,0,1Z"/><path class="cls-30" d="M234.86,22.66a.5.5,0,0,0,0-1,.5.5,0,0,0,0,1Z"/><path class="cls-31" d="M235.86,21a.5.5,0,0,0,0-1,.5.5,0,0,0,0,1Z"/><path class="cls-31" d="M235.86,21a.5.5,0,0,0,0-1,.5.5,0,0,0,0,1Z"/><path class="cls-32" d="M245.86,30.32a.5.5,0,0,0,0-1,.5.5,0,0,0,0,1Z"/><path class="cls-33" d="M205.2,48.66a.5.5,0,0,0,0-1,.5.5,0,0,0,0,1Z"/><path class="cls-34" d="M183.86,37.32a.5.5,0,0,0,0-1,.5.5,0,0,0,0,1Z"/><path class="cls-35" d="M186.53,72.32a.5.5,0,0,0,0-1,.5.5,0,0,0,0,1Z"/><path class="cls-36" d="M300.86,74.66a.5.5,0,0,0,0-1,.5.5,0,0,0,0,1Z"/><path class="cls-37" d="M316.53,69a.5.5,0,0,0,0-1,.5.5,0,0,0,0,1Z"/><path class="cls-38" d="M237.2,25.66a.5.5,0,0,0,0-1,.5.5,0,0,0,0,1Z"/><path class="cls-39" d="M231.86,30.32a.5.5,0,0,0,0-1,.5.5,0,0,0,0,1Z"/><path class="cls-40" d="M239.53,36.66a.5.5,0,0,0,0-1,.5.5,0,0,0,0,1Z"/><path class="cls-41" d="M568.86,124a.5.5,0,0,0,0-1,.5.5,0,0,0,0,1Z"/><path class="cls-21" d="M571.86,128.66l0-.06h-.5l.08,0-.23-.3.08-.15.39.05-.42.27.05-.39h0l.39.05-.07,0,.23.3-.35.08c.07.63,1.07.64,1,0a1,1,0,0,0-1.17-.93.88.88,0,0,0-.48,1.43,1,1,0,0,0,1.5-.32.77.77,0,0,0-.74-1.16.94.94,0,0,0-.67,1.29c.33.54,1.2.25,1.32-.31a.73.73,0,0,0-1.1-.76.8.8,0,0,0,0,1.36c.64.31,1.29-.57,1-1.15a.6.6,0,0,0-.83-.18,1.12,1.12,0,0,0-.45.89c-.06.64.94.64,1,0Z"/><path class="cls-21" d="M570.7,132.62a.5.5,0,0,0,0-1,.5.5,0,0,0,0,1Z"/><path class="cls-21" d="M466.35,113a1.36,1.36,0,0,1,1-1.55l-.39-.05c.59.41.09,1.08-.5,1s-.63.92,0,1a1.56,1.56,0,0,0,1.21-2.71c-.55-.48-1.33,0-1.74.46a2.33,2.33,0,0,0-.63,1.85c.08.63,1.08.64,1,0Z"/><path class="cls-21" d="M466.25,111.87l0,.33a.5.5,0,0,0,1,.13l-.14.14c.61-.19.35-1.16-.27-1a.79.79,0,0,0-.56.56l1,.13,0-.33c-.08-.63-1.08-.64-1,0Z"/><path class="cls-21" d="M469.31,108.24a.5.5,0,0,0,0-1,.5.5,0,0,0,0,1Z"/><path class="cls-21" d="M470.38,110.1h-.06l-.3-.23.05.08c.23.6,1.19.34,1-.27-.15-.39-.47-.72-.92-.55s-.34,1.2.27,1Z"/><path class="cls-21" d="M477.59,113.08a.5.5,0,0,0,0-1,.5.5,0,0,0,0,1Z"/><path class="cls-21" d="M461.28,44.74a.5.5,0,0,0,0-1,.5.5,0,0,0,0,1Z"/><path class="cls-21" d="M424,63.24a.5.5,0,0,0,0-1,.5.5,0,0,0,0,1Z"/><path class="cls-21" d="M447,48.74a.5.5,0,0,0,0-1,.5.5,0,0,0,0,1Z"/><path class="cls-21" d="M438.53,47.49a.5.5,0,0,0,0-1,.5.5,0,0,0,0,1Z"/><path class="cls-21" d="M427,42.49a.5.5,0,0,0,0-1,.5.5,0,0,0,0,1Z"/><path class="cls-21" d="M433,24.24a.5.5,0,0,0,0-1,.5.5,0,0,0,0,1Z"/><path class="cls-21" d="M432,48.49a.5.5,0,0,0,0-1,.5.5,0,0,0,0,1Z"/><path class="cls-21" d="M436.28,57.24a.5.5,0,0,0,0-1,.5.5,0,0,0,0,1Z"/><path class="cls-21" d="M437.28,38.24a.5.5,0,0,0,0-1,.5.5,0,0,0,0,1Z"/><path class="cls-21" d="M407.78,37.49a.5.5,0,0,0,0-1,.5.5,0,0,0,0,1Z"/><path class="cls-21" d="M427.28,42a.8.8,0,0,1-.06-.33l-.15.35-.06-.33c-.64,0-.64,1,0,1a.85.85,0,0,0,.5-1.56.9.9,0,0,0-1,.09c-.33.27-.27.67-.14,1,.2.61,1.16.35,1-.27Z"/><path class="cls-21" d="M407.95,37.27c0-.07-.14-.73,0-.5s-.23.48-.41.54c-.6.21-.34,1.17.27,1a1.69,1.69,0,0,0,1.13-1,1.18,1.18,0,0,0-.48-1.34,1,1,0,0,0-1.34.13,1.61,1.61,0,0,0-.17,1.5.5.5,0,0,0,1-.27Z"/><path class="cls-21" d="M395.2,36.16a.5.5,0,0,0,0-1,.5.5,0,0,0,0,1Z"/></g></g></svg>