<svg xmlns="http://www.w3.org/2000/svg" viewBox="0 0 243.99 142.77"><defs><style>.cls-1{fill:#fff;stroke:#ff1b6a;stroke-miterlimit:10;stroke-width:3px;}.cls-2,.cls-3{fill:#ff1b6a;}.cls-3{font-size:31.31px;font-family:jf-jinxuan-fresh-Medium-B5pc-H, jf-jinxuan-fresh;}</style></defs><title>資產 19</title><g id="圖層_2" data-name="圖層 2"><g id="圖層_1-2" data-name="圖層 1"><path class="cls-1" d="M236.76,1.5H18A5.75,5.75,0,0,0,12.3,7.23v94.09L2.27,140l35.34-17.19H236.76a5.74,5.74,0,0,0,5.73-5.73V7.23A5.74,5.74,0,0,0,236.76,1.5Z"/><path class="cls-2" d="M200.11,50.71c-1.62-11.54-20.25-4.77-20.06,3.1.28,11.12,20.18,28.5,20.18,28.5v-.38c2.08-1.85,19.72-17.86,20-28.32C220.39,45.69,201.55,38.89,200.11,50.71Z"/><text class="cls-3" transform="translate(42.27 73.98)">成為朋友</text></g></g></svg>