<svg xmlns="http://www.w3.org/2000/svg" viewBox="0 0 417.77 412.03"><defs><style>.cls-1{fill:#c6c6c6;}.cls-2{fill:#7f675c;}.cls-3{fill:#dcd1bc;}.cls-4,.cls-6{fill:#fff;}.cls-5{fill:#2b102e;}.cls-6,.cls-7{stroke:#1f2020;stroke-miterlimit:10;}.cls-6{stroke-width:15px;}.cls-7{fill:none;stroke-width:2px;}.cls-8{fill:#1f2020;}</style></defs><title>資產 1</title><g id="圖層_2" data-name="圖層 2"><g id="圖層_1-2" data-name="圖層 1"><path class="cls-1" d="M269.66,224.87l38-24.39,52.38-40.9,31.66-25.09L407.42,133V146l-20.09,27.26L345,205.5,310.56,222l41.61-14.35,44.48-15.78,12.91-2.15s10,.72,7.89,5l-7.17,14.35s-61.7,38-101.88,35.87,73.9-6.46,78.2-1.43a18.11,18.11,0,0,1,4.3,10.76L376.57,260s-50.94,13.63-88.25,1.43l-18.65-3.59H227.33Z"/><path class="cls-1" d="M148.1,226.87l-38-24.39L57.7,161.58,26,136.5,10.35,135V148l20.09,27.26L72.77,207.5,107.21,224,65.59,209.65,21.11,193.87,8.19,191.72s-10,.72-7.89,5l7.17,14.35s61.7,38,101.88,35.87-73.9-6.46-78.2-1.43a18.11,18.11,0,0,0-4.3,10.76L41.2,262s50.94,13.63,88.25,1.43l18.65-3.59h42.33Z"/><path class="cls-2" d="M157.25,211.68s-24,42-30,53.5-17.75,32.25-20.5,50.25-2,21.75,0,24.25,8,7.75,11.75,7.5,7-4.75,8.25-7.75,2.5-6.5,2.5-6.5,3.5,2.08,4.67,2.08,4.5.33,5.5-2.67,0-5-1.67-6a12.47,12.47,0,0,1-3.37-2.54c-.56-.75.31-2.44,1.25-4.12s6.56-10.44,6.56-10.44,1,.06,1.25,1.75,5.48,13.6,6.9,15.52,2.5,2,2.5,3.75-2.75,47.08-2.25,51.5-.92,3.17-2.92,4.08a30,30,0,0,0-13.5,14.75c-4.08,9.42,9.17,10.5,10.17,10.83s29.33,1.17,33.17,0,12.92-4.25,14.17-11.58,4.58-46.79,4.58-46.79a1.86,1.86,0,0,1,1.94-2.06c2.06.06,25.31-.25,25.31-.25a1.81,1.81,0,0,1,1.38,1.56c.06,1.25,3.54,45.46,3.88,47a16.92,16.92,0,0,0,11.42,11c8.42,2.67,36.67,1.17,36.67,1.17s8.83-2.42,8.92-7.08-.44-6.6-3.19-10-12.37-9.69-12.37-9.69a9.64,9.64,0,0,1-.37-4c.13-2.94-1.81-52.37-1.81-52.37s2.75-4.37,4.33-7.54,4.67-10.33,4.75-12.17,1.29-1.54,1.6-.73,7.75,12.06,8.44,12.81,1.81,1.5,1,2.31-5.44,4.06-5.62,5.88c0,0-.87,5.06,4.06,5.19s5.13-2.06,5.13-2.06.94-.12,1.25,1.81,5.31,12.19,8.63,12.81,12.31-3,14.06-8.19,1.69-14.94.56-19.62-13.69-45.37-27.44-65.62-18-33-20.75-38.37l-1.5-3.12Z"/><path class="cls-3" d="M181.16,321s8.63,10.83,21.56,12.84,27.89-2.68,32.49-12.84,8.34-40.06-9.49-51.85-35.08-3.45-38.24,0-11.21,12.65-10.93,25.59S178.28,315,181.16,321Z"/><path class="cls-2" d="M314.23,58.83a103.88,103.88,0,0,0-10.05-15l.49-.2a18.64,18.64,0,0,0,14.44-15.09c1.8-10.14-2-24.06-13.39-26.18C299.2-1.86,290,.2,283.49,3.64a22.09,22.09,0,0,0-4,2.69,13.94,13.94,0,0,0-6.32,8.91,13.62,13.62,0,0,0-.64,2.08A105.8,105.8,0,0,0,237.23,5.16c-27-4-63.67.67-91.33,11.33-.68.26-1.37.56-2,.86a13.61,13.61,0,0,0-.65-2.11,13.94,13.94,0,0,0-6.32-8.91,22.07,22.07,0,0,0-4-2.69C126.4.2,117.2-1.86,110.68,2.37c-11.44,2.12-15.19,16-13.39,26.18a18.64,18.64,0,0,0,14.44,15.09l.39.16c-12,15.07-20.34,32.41-20.89,43.36-1,19.67-13.33,73,33.5,112,0,0,13.5,14,32.5,18.67s90.67,8.67,115.33-5.33,41-27.33,48.33-54.33S332.23,91.49,314.23,58.83Z"/><path class="cls-4" d="M163.05,130.09s-7.24,7.53-3.19,13.94,11.75,10.31,22.29,11.71,46.6,3.07,57.94-2,17.83-16.17,13-23.69-28.77-16.72-44.57-15.89S171.16,121.17,163.05,130.09Z"/><path class="cls-5" d="M199.07,112.34s0,6.44,4.13,9.8,10.65,3.08,13.48,0,4.79-11.23,3-13.73S198.2,103.66,199.07,112.34Z"/><ellipse class="cls-6" cx="163.86" cy="90.09" rx="19.34" ry="17.5"/><ellipse class="cls-6" cx="248.86" cy="90.09" rx="19.34" ry="17.5"/><path class="cls-7" d="M127.53,78.59c-1.79.3,27.5-65.5,63.5-2.5"/><path class="cls-7" d="M219,77.59c-1.79.3,27.5-65.5,63.5-2.5"/><path class="cls-8" d="M132.84,55.84c-1.47.28-4.88.12-5.88-1-1.41-1.65-1.26-6.95-.3-8.94.61-1.27,17.2-31.6,39.53-26.26,9.15,2.19,29.53,19.27,26.33,29.67-.88,2.85-1.55,4.78-4.19,5.81-12.47,4.86-17.89-17.82-23.81-19.47C150.37,31.63,144.53,53.59,132.84,55.84Z"/><path class="cls-8" d="M224.34,54.84c-1.47.28-4.88.12-5.88-1-1.41-1.65-1.26-6.95-.3-8.94.61-1.27,17.2-31.6,39.53-26.26,9.15,2.19,29.53,19.27,26.33,29.67-.88,2.85-1.55,4.78-4.19,5.81C267.36,58.92,261.95,36.24,256,34.59,241.87,30.63,236,52.59,224.34,54.84Z"/></g></g></svg>