<svg xmlns="http://www.w3.org/2000/svg" xmlns:xlink="http://www.w3.org/1999/xlink" viewBox="0 0 678.48491 378.32939"><defs><style>.cls-1{fill:url(#未命名漸層_35);}</style><linearGradient id="未命名漸層_35" y1="189.1647" x2="678.48491" y2="189.1647" gradientUnits="userSpaceOnUse"><stop offset="0" stop-color="#e8436f"/><stop offset="1" stop-color="#f3a6a8"/></linearGradient></defs><title>資產 2</title><g id="圖層_2" data-name="圖層 2"><g id="圖層_1-2" data-name="圖層 1"><path class="cls-1" d="M663.084,40.19094c17.50507,20.38623,18.91052,52.03149,10.113,76.44067-9.59949,26.63428-29.78906,46.803-56.75726,55.61133-16.42255,5.36377-33.96564,7.43652-50.92944,10.42578l-52.53607,9.25781c-5.60468.98755-11.29572-1.437-12.9162-7.33374-1.40088-5.09741,1.74506-11.9314,7.33356-12.91626l54.48187-9.60059c16.62109-2.92871,33.80493-4.96484,49.85248-10.36646,20.17273-6.78979,35.55328-23.05884,42.105-43.23853a68.29211,68.29211,0,0,0,3.10175-30.70532c-1.25085-9.08276-4.867-21.21411-13.11969-26.89722-9.45172-6.509-23.20935-1.967-32.59772,2.30737A104.71622,104.71622,0,0,0,582.868,72.67458a195.40983,195.40983,0,0,0-24.13464,28.14111,137.49906,137.49906,0,0,1-21.89008,33.019c-7.99982,9.03076-22.69043-2.74634-16.49109-12.72412,6.35846-10.23389,12.86255-20.49609,19.8775-30.36011,7.553-17.51245,9.16559-36.95483-2.8-53.41748-6.02551-8.29028-16.01276-15.47559-26.21027-16.07324-5.06189-.29663-10.82416.36377-14.97711,3.60425-4.53076,3.53516-5.33936,10.07764-5.77838,15.41357-2.49176,30.2854-5.97766,60.01978-13.58636,89.52344a448.52229,448.52229,0,0,1-80.42126,162.99c-2.56946,3.30542-7.95349,3.58545-11.47009,2.17114-4.2478-1.70874-5.9314-5.3501-6.45453-9.5957-5.95355-48.32007-7.84546-96.93335-8.49377-145.572q-3.00421,8.16907-6.12335,16.29639A1194.61052,1194.61052,0,0,1,304.847,286.0071q-4.3418,8.19763-8.81348,16.32568c-2.5816,4.69238-4.92426,9.738-8.42065,13.84058-7.99817,9.385-21.21521,8.501-28.67542-.91748-6.756-8.52954-7.67938-19.59546-9.581-29.93311q-1.4165-7.70068-2.83307-15.40112a491.78906,491.78906,0,0,1-50.0849,54.04395c-5.31757,4.92847-16.07642,3.56128-17.54956-4.6333q-3.51151-19.53333-5.42871-39.29395a1133.97974,1133.97974,0,0,0-80.05841,85.19531c-2.73,3.22461-7.82947,3.63525-11.47009,2.1709-4.20166-1.68994-5.99005-5.35742-6.45453-9.5957q-2.27481-20.755-4.54956-41.5105a585.01762,585.01762,0,0,0-53.128,58.97632c-3.51892,4.48706-11.21252,3.63672-14.84924,0-4.34875-4.34888-3.496-10.3916,0-14.84937a585.10527,585.10527,0,0,1,68.64447-73.52393c7.16675-6.46118,16.93665-1.59009,17.92462,7.42456q2.11139,19.26489,4.22284,38.52954a1134.01934,1134.01934,0,0,1,81.15118-83.03369,10.63356,10.63356,0,0,1,17.92462,7.42456q.89218,18.95874,3.3963,37.73438a465.99344,465.99344,0,0,0,47.25342-55.51465c2.56793-3.55469,6.01111-5.54248,10.4621-5.0127,3.76312.44751,7.99548,3.53174,8.72931,7.521l7.12518,38.73413c1.017,5.52856,1.70013,11.25415,3.24048,16.66357a9.972,9.972,0,0,0,.75482,1.79053c1.09473-1.9231,2.1557-3.86743,3.22528-5.804q3.58759-6.49658,7.09229-13.03833,7.66644-14.30969,14.93311-28.82886,14.3248-28.61938,27.0719-57.99243a1153.77737,1153.77737,0,0,0,43.9389-119.2478c3.47546-11.26489,20.60168-9.20239,20.62494,2.79126.1167,60.1582.3053,120.45337,5.86829,180.37915a421.7056,421.7056,0,0,0,40.26031-74.10645,431.85536,431.85536,0,0,0,27.1709-93.15063,459.8015,459.8015,0,0,0,5.32544-47.54907c.56433-8.28589,1.59528-16.51172,5.44324-23.99023,3.94281-7.66309,11.0141-12.83887,18.944-15.80249,30.06476-11.23657,60.61267,12.884,70.1817,40.385a63.56954,63.56954,0,0,1,3.29614,15.61792,153.89692,153.89692,0,0,1,13.79547-11.844C602.97953,30.28151,641.29734,14.81838,663.084,40.19094Z"/></g></g></svg>