<?xml version="1.0" encoding="utf-8"?>
<!-- Generator: Adobe Illustrator 16.0.0, SVG Export Plug-In . SVG Version: 6.00 Build 0)  -->
<!DOCTYPE svg PUBLIC "-//W3C//DTD SVG 1.1//EN" "http://www.w3.org/Graphics/SVG/1.1/DTD/svg11.dtd">
<svg version="1.1" id="圖層_1" xmlns="http://www.w3.org/2000/svg" xmlns:xlink="http://www.w3.org/1999/xlink" x="0px" y="0px"
	 width="312px" height="422px" viewBox="0 0 312 422" enable-background="new 0 0 312 422" xml:space="preserve">
<title>資產 19</title>
<g id="圖層_2">
	<g id="圖層_1-2">
		<path fill="#7793CB" d="M249.037,153.339c-8.346-7.336-34.127-32.559-40.824-28.227c-8.475-4.458-17.624-7.493-27.083-8.983
			c-22.671-3.455-53.289,0.426-76.811,9.409c-5.715-6.22-32.798,20.279-41.355,27.801C50.897,163.97,19.854,231.797,34.817,253.91
			c4.731,7.017,12.811-0.531,21.608-14.113c3.862,18.417,13.826,34.992,28.278,47.043c7.742,7.749,17.327,13.401,27.854,16.426
			c16.292,4.093,77.714,7.628,98.844-4.704c21.13-12.333,35.163-23.921,41.436-47.841c0.93-3.535,1.807-7.282,2.657-11.242
			c8.877,13.74,17.01,21.422,21.794,14.378C292.12,231.797,261.103,163.97,249.037,153.339z"/>
	</g>
</g>
<path fill="#5F75A1" d="M215.27,152.242c0,0,46.536,122.767,61.555,101.558c15.019-21.207-15.133-89.205-27.006-100.189
	C237.944,142.626,189.931,93.108,215.27,152.242"/>
<path fill="#5F75A1" d="M98.567,153.677c0,0-48.486,122.383-63.391,100.157C20.27,231.609,51.543,164.03,63.667,153.442
	C75.791,142.853,124.875,94.864,98.567,153.677"/>
</svg>
