<svg xmlns="http://www.w3.org/2000/svg" viewBox="0 0 364 548"><defs><style>.cls-1{fill:#ef9393;}.cls-2{fill:none;}</style></defs><title>資產 11</title><g id="圖層_2" data-name="圖層 2"><g id="圖層_1-2" data-name="圖層 1"><path class="cls-1" d="M295.01425,179.76457c-17.26886-30.96651-46.64279-48.54229-73.31639-54.79188,5.29823-18.88075,11.8106-43.51653,13.06847-54.72307,2.185-19.458,6.00879-34.183-4.37-41.54547s-18.84254-4.20714-21.16626,0c-2.32264,4.20714-14.47785,76.42433-14.4085,83.70208a76.04371,76.04371,0,0,1-.91967,9.46708c-6.0536-.09963-12.31418.10169-18.67077.58752a82.54044,82.54044,0,0,1-.99649-10.0546c.06828-7.27775-12.08693-79.49494-14.40957-83.70208-2.32371-4.20714-10.78744-7.36249-21.16626,0s-6.555,22.08746-4.37,41.54547c1.28775,11.46177,8.07,36.96908,13.428,56.00185a200.69479,200.69479,0,0,0-31.88968,8.98793c-29.45074,11.21886-57.12723,53.641-58.192,74.32589-1.0637,20.68491-14.193,76.78023,35.66011,117.7998,0,0,14.37116,14.725,34.59534,19.63313,20.22525,4.90867,96.513,9.1158,122.77047-5.60917s43.64373-28.74893,51.45025-57.1471C309.91673,255.84378,314.17473,214.12319,295.01425,179.76457Z"/><path class="cls-1" d="M125.50552,337.322s-25.23709,44.16491-31.54637,56.25769S75.29422,427.492,72.40247,446.41984s-2.10309,22.87112,0,25.5,8.41236,8.14948,12.35566,7.88659,7.36082-4.99484,8.67525-8.14948,2.62886-6.835,2.62886-6.835,3.68041,2.19072,4.90721,2.19072,4.732.35052,5.7835-2.80412,0-5.25773-1.75258-6.30927a13.1147,13.1147,0,0,1-3.549-2.67268c-.59149-.78866.32861-2.56314,1.31443-4.33763s6.90077-10.97551,6.90077-10.97551,1.05155.06572,1.31443,1.8402,5.76159,14.3054,7.25128,16.32086,2.62886,2.10309,2.62886,3.9433-2.89175,49.51027-2.366,54.15459-.96392,3.32989-3.067,4.29381a31.55944,31.55944,0,0,0-14.19586,15.5103c-4.29381,9.90205,9.63917,11.04123,10.69071,11.39174s30.84534,1.2268,34.87626,0,13.58246-4.46907,14.89689-12.1804,4.81958-49.20357,4.81958-49.20357a1.9578,1.9578,0,0,1,2.03737-2.16881c2.16881.06572,26.61725-.26289,26.61725-.26289a1.89985,1.89985,0,0,1,1.44588,1.643c.06572,1.31443,3.72422,47.80151,4.07474,49.37882a17.791,17.791,0,0,0,12.00514,11.567c8.85051,2.80412,38.55667,1.2268,38.55667,1.2268s9.28865-2.54124,9.37628-7.44845-.46005-6.94458-3.3518-10.49355-13.01288-10.18685-13.01288-10.18685a10.139,10.139,0,0,1-.39433-4.20618c.13144-3.08892-1.90593-55.0747-1.90593-55.0747s2.89175-4.60051,4.5567-7.93041,4.90721-10.866,4.99484-12.7938,1.35825-1.62113,1.68685-.76675,8.14948,12.68427,8.87242,13.47293,1.90593,1.57732,1.05155,2.4317-5.71778,4.2719-5.91494,6.17783c0,0-.9201,5.32345,4.2719,5.45489s5.38917-2.16881,5.38917-2.16881.98582-.13144,1.31443,1.90593,5.58634,12.81571,9.06958,13.47293,12.94715-3.15464,14.78736-8.60953,1.77448-15.70746.59149-20.63658-14.393-47.71388-28.85178-69.00767-18.92782-34.701-21.81957-40.35306l-1.57732-3.28608Z"/><rect class="cls-2" width="364" height="548"/></g></g></svg>