<svg xmlns="http://www.w3.org/2000/svg" viewBox="0 0 1058.76718 563.69059"><defs><style>.cls-1,.cls-4{opacity:0.7;}.cls-2,.cls-4{fill:#b2a3b2;}.cls-3{fill:#637965;}</style></defs><title>資產 8</title><g id="圖層_2" data-name="圖層 2"><g id="圖層_1-2" data-name="圖層 1"><g class="cls-1"><path class="cls-2" d="M57.42928,524.8144c-.02145.1665-.23994.29984-.51828.31667a.65193.65193,0,0,1-.61426-.24832c-.07961-.16616-1.94948-4.10243-1.94948-6.991,0-1.58117-1.6288-3.04315-3.51449-4.73578a27.75583,27.75583,0,0,1-4.14738-4.32365,6.81734,6.81734,0,0,0-3.03178-2.58153,15.96741,15.96741,0,0,1,1.22118,1.762c.99253,1.77747.99253,4.08459.99253,7.00552a26.38347,26.38347,0,0,1-.7921,4.77214,6.11625,6.11625,0,0,1-.179,2.18085,54.59722,54.59722,0,0,1-1.93706,5.77384.65876.65876,0,0,1-.68088.25354c-.30487-.03872-.503-.21431-.44884-.39715.01863-.06347,1.23473-4.18711,2.081-7.833a12.48715,12.48715,0,0,0-2.0432-5.18932.24357.24357,0,0,1-.02936-.05219c-.21115-.50367-.68991-1.66556-1.2065-3.04564-.14961-.10838-.30628-.22543-.46747-.349a16.48711,16.48711,0,0,0,.85533,2.05282c.97615,1.74549-.7379,11.149-.93663,12.21554-.03387.182-.2885.31751-.60692.30623-.306-.0101-.54595-.16128-.54595-.34428v-5.74707a19.10487,19.10487,0,0,0-1.163-5.585q-.07283.297-.15413.62493c-.12308.49395-.258,1.03537-.37036,1.528.31955.996.28342,1.65357-.2168,1.95189a1.00349,1.00349,0,0,1-.77855.09024c-.46013-.138-.54482-.38082-.17445-2.025a28.959,28.959,0,0,0-1.93085-3.94687c-.12025-.21448-.25462-.43738-.39746-.663-.0367.79362-.11348,1.74683-.21341,2.87581-.09767,1.10473-.19026,2.14819-.19026,2.85022,0,1.765-4.42007,9.51331-5.26637,9.73654a.90449.90449,0,0,1-.62555-.06044c-.29358-.15909-.19252-.33991-.05251-.59008A39.02869,39.02869,0,0,0,29.31,521.96014c.32124-.83065.64249-1.66131.9643-2.428.45223-1.07982.22978-2.8711-.00565-4.76743-.24785-1.99532-.50417-4.05832-.00056-5.561a17.99328,17.99328,0,0,0,.95244-5.10447.20761.20761,0,0,1,.0175-.0835,3.00447,3.00447,0,0,1,2.70093-1.833q.13211-.00859.26592-.00875c.114,0,.22837.00817.3427.0173-.20776-.43944-.354-.74551-.39916-.84021-2.28145-2.72968-1.60678-3.13171-1.38491-3.26437a1.14893,1.14893,0,0,1,.5945-.1431,2.21592,2.21592,0,0,1,.63007.10135c1.97828.59025,4.02374,1.20036,5.07328,2.4519.59732.71247,5.0428,2.6519,7.69913,3.81084,1.56952.68452,2.47284,1.08116,2.79239,1.27174.599.35725.4765.82729.35738,1.28218a1.88174,1.88174,0,0,0,.67806,2.21856,31.94793,31.94793,0,0,1,2.92846,3.19939,31.55022,31.55022,0,0,0,2.85337,3.12228C58.35123,517.17352,57.52921,524.03762,57.42928,524.8144Z"/><path class="cls-2" d="M27.30122,510.44343c-.26817,2.158-.67693,2.40173-.87566,2.51991a.9892.9892,0,0,1-.81017.08552c-.50868-.17509-.50586-.37778.53748-2.71217a50.72737,50.72737,0,0,0,.24954-5.66273c0-.32054-.52506-.56836-.83783-.68755a5.40049,5.40049,0,0,0-1.88512-.34041c-.14792.41045-.96938,1.34649-3.01653,3.565-.44037.47745-.91123.98756-1.27425,1.394a2.11121,2.11121,0,0,1-.67185.91012.94418.94418,0,0,1-.857.07071c-.3794-.1697-.47142-.21078.50078-1.299a22.77056,22.77056,0,0,0,1.29683-5.91189c0-1.09632,1.51928-2.59331,1.9269-2.97548V498.3523c0-.11953.10388-.23031.27438-.29327a.88455.88455,0,0,1,.30374-.05152.91553.91553,0,0,1,.25858.03636,37.41749,37.41749,0,0,1,4.96827,1.78859c1.18109.70439,2.09684,3.18087,2.09684,4.8415,0,.92931-1.00438,3.15326-1.8902,5.11558C27.49882,510.0047,27.39889,510.22524,27.30122,510.44343Z"/><path class="cls-2" d="M15.97808,511.0788a.63741.63741,0,0,1-.6312.25859c-.28963-.02121-.50755-.168-.50755-.34209v-4.02263a2.24771,2.24771,0,0,0-.75089-1.88758.59127.59127,0,0,0-.02032.1633c0,1.13739-2.308,3.98425-4.87907,7.05063l-2.89063,3.44821a.75588.75588,0,0,1-.64983.18148c-.26083-.0367-.44545-.17576-.44545-.3357,0-.2596.01129-6.38867.97446-9.2628a5.74419,5.74419,0,0,1,5.38493-3.72532.97918.97918,0,0,1,.11348.00673l4.81809.57476a.67909.67909,0,0,1,.36754.1468c.08525.0761,2.07256,1.88556,1.03092,3.74855C16.94745,508.773,15.98767,511.0559,15.97808,511.0788Z"/></g><path class="cls-3" d="M52.22614,469.7173a.57826.57826,0,0,0-1.13254-.11461c-.07961.27862-1.94948,6.8788-1.94948,11.7223,0,2.65125-1.6288,5.10264-3.51449,7.94077a44.72362,44.72362,0,0,0-4.14738,7.24973c-1.11871,2.61-2.19338,3.80136-3.03178,4.32861a31.74632,31.74632,0,0,0,1.22118-2.95443c.99253-2.9804.99253-6.84888.99253-11.74658a72.27281,72.27281,0,0,0-.7921-8.00174,16.9972,16.9972,0,0,0-.179-3.65676c-.95639-5.73807-1.9269-9.6424-1.93706-9.68136a.5779.5779,0,0,0-1.12972.24079c.01863.10642,1.23473,7.02079,2.081,13.134a29.82869,29.82869,0,0,1-2.0432,8.70125.53123.53123,0,0,0-.02936.08751c-.21115.84454-.68991,2.79275-1.2065,5.10681-.14961.18172-.30628.378-.46747.58511.32689-1.502.62132-2.739.85533-3.44208.97615-2.92676-.7379-18.69425-.93663-20.48255a.56941.56941,0,0,0-.60692-.51348.57826.57826,0,0,0-.54595.57728v9.63647a51.38587,51.38587,0,0,1-1.163,9.36463q-.07283-.498-.15413-1.04785c-.12308-.82823-.258-1.73607-.37036-2.562.31955-1.67.28342-2.77263-.2168-3.27285a.65764.65764,0,0,0-.77855-.15131c-.46013.23148-.54482.63854-.17445,3.39536a66.96542,66.96542,0,0,1-1.93085,6.618c-.12025.35964-.25462.73338-.39746,1.11165-.0367-1.33071-.11348-2.929-.21341-4.822-.09767-1.85238-.19026-3.602-.19026-4.77914,0-2.95951-4.42007-15.95154-5.26637-16.32586a.58314.58314,0,0,0-.62555.10134c-.29358.26676-.19252.56994-.05251.98942.634,1.9029,1.285,4.72268,1.91391,7.44959.32124,1.39281.64249,2.78562.9643,4.07116.45223,1.8106.22978,4.81414-.00565,7.99384-.24785,3.34568-.50417,6.80484-.00056,9.32454a49.11124,49.11124,0,0,1,.95244,8.559.55649.55649,0,0,0,.0175.14c.621,2.4847,1.95852,2.99226,2.70093,3.07355a2.45292,2.45292,0,0,0,.26592.01468,2.59065,2.59065,0,0,0,.3427-.029c-.20776.73684-.354,1.25-.39916,1.40883-2.28145,4.577-1.60678,5.25113-1.38491,5.47357a.82244.82244,0,0,0,.5945.23995,1.41891,1.41891,0,0,0,.63007-.16994c1.97828-.9897,4.02374-2.01271,5.07328-4.11125.59732-1.19464,5.0428-4.4466,7.69913-6.38988,1.56952-1.14778,2.47284-1.81285,2.79239-2.1324a2.29076,2.29076,0,0,0,.35738-2.14991,4.63171,4.63171,0,0,1,.67806-3.72,53.23474,53.23474,0,0,0,2.92846-5.3646A52.62031,52.62031,0,0,1,51.167,485.5C53.14809,482.52923,52.32607,471.01978,52.22614,469.7173Z"/><path class="cls-3" d="M22.09808,493.814c-.26817-3.61837-.67693-4.02712-.87566-4.22529a.64969.64969,0,0,0-.81017-.1434c-.50868.29358-.50586.63345.53748,4.54766.14735,2.10079.24954,5.19354.24954,9.495,0,.53748-.52506.953-.83783,1.15287a3.51,3.51,0,0,1-1.88512.57079c-.14792-.68822-.96938-2.25774-3.01653-5.97773-.44037-.80057-.91123-1.6559-1.27425-2.33735a3.9278,3.9278,0,0,0-.67185-1.526.6229.6229,0,0,0-.857-.11856c-.3794.28455-.47142.35342.50078,2.17814a61.09779,61.09779,0,0,1,1.29683,9.91283c0,1.83826,1.51928,4.34837,1.9269,4.98916v1.75583a.57825.57825,0,0,0,.8367.51715,29.54624,29.54624,0,0,0,4.96827-2.999c1.18109-1.18109,2.09684-5.33355,2.09684-8.118,0-1.55823-1.00438-5.28726-1.8902-8.57761C22.29569,494.54963,22.19576,494.17983,22.09808,493.814Z"/><path class="cls-3" d="M10.77494,492.74863a.578.578,0,0,0-1.13875.14v6.745a5.15067,5.15067,0,0,1-.75089,3.165,1.63062,1.63062,0,0,1-.02032-.27382c0-1.90714-2.308-6.68063-4.87907-11.82223l-2.89063-5.78183A.57812.57812,0,0,0,0,485.17935c0,.43529.01129,10.71227.97446,15.5315.988,4.94117,3.95429,6.24647,5.38493,6.24647a.59044.59044,0,0,0,.11348-.01129l4.81809-.96373a.57814.57814,0,0,0,.36754-.24616c.08525-.12759,2.07256-3.16163,1.03092-6.28543C11.74432,496.61485,10.78454,492.787,10.77494,492.74863Z"/><path class="cls-4" d="M268.6922,547.31027a6.115,6.115,0,0,0-.621,2.882,7.69866,7.69866,0,0,1-3.06,6.47015.82685.82685,0,0,1-.63007.08073c-.21567-.05764-.35681-.19346-.35681-.344a30.3836,30.3836,0,0,0-.95583-6.76616,7.49555,7.49555,0,0,0-.6933-1.899,2.044,2.044,0,0,0-.08525.59621,16.76885,16.76885,0,0,1-3.93115,11.35713c-1.534,1.72918-1.80043,1.92464-2.38308,1.74118-.63967-.202-.69217-.21856,1.96473-4.35368.46126-.71822.92252-1.43626,1.307-2.05538,1.07439-1.72936.89316-1.9001.13155-2.61941a9.28692,9.28692,0,0,1-2.07143-2.71178c-.33988-.65731-.61369-1.18624-.81468-1.54244a4.0124,4.0124,0,0,1-1.11786,1.06842c-1.84673,1.18952-7.55234,7.91622-7.60993,7.984a.73336.73336,0,0,1-.65039.18255c-.25632-.04218-.43529-.19074-.43529-.36093,0-.13764.08356-1.43407,2.97306-4.53641,2.15838-2.317.85251-3.43636.34609-3.75a31.7671,31.7671,0,0,0-8.1762,2.37739c-2.5739,1.24352-8.44155,7.25492-11.13683,10.37708A3.3853,3.3853,0,0,1,229.357,563.49a1.04971,1.04971,0,0,1-.7921.18183.53839.53839,0,0,1-.41722-.3142c-.0638-.2451.51038-1.06915,1.4583-2.19284.11461-.3762.22188-.79713.33875-1.25734a25.85692,25.85692,0,0,1,3.28471-7.9915c1.72083-2.77087,5.3488-6.02685,12.84073-5.825.09541.00273.1705.00491.22357.00491a27.947,27.947,0,0,0,4.39749-.86532,50.38186,50.38186,0,0,1,10.82858-1.76536,9.73438,9.73438,0,0,1,4.40765.85023C268.9,545.84692,269.25791,546.08966,268.6922,547.31027Z"/><path class="cls-3" d="M268.30039,533.62689c-.7125-.157-1.097.66-1.78011,2.1437-.15808.34326-.32068.69725-.48384,1.023a19.016,19.016,0,0,0-.874,2.40566c-.48271,1.51306-1.21327,3.7996-1.93706,4.105a.27851.27851,0,0,1-.26761-.02371,7.147,7.147,0,0,0-1.22908-.44037c-1.56105-.45166-3.03573-.87848-2.31081-6.68007.98744-7.89842.97333-10.797-1.01962-14.78456-1.0185-2.03586-1.03939-2.07821-1.5667-1.87947-.51546.19026-.40367.63741-.2343,1.3149a19.993,19.993,0,0,1,.70572,4.67808c0,10.58863-.42117,13.49-.77573,14.02013-.59393.16824-3.39423-.83444-5.73327-2.41243-1.5588-1.05124-1.97094-1.74906-1.97094-1.9715,0-1.87383.95018-10.44974.95978-10.53612a.57826.57826,0,0,0-1.01-.44432c-.2868.32745-6.98663,8.08417-3.91477,13.20488.79436,1.32393,1.65477,2.56713,2.41413,3.66467a16.5307,16.5307,0,0,1,2.00989,3.31576,3.16875,3.16875,0,0,1-.89711-.12929c-3.6274-.90727-4.50476-1.72873-6.40455-4.57815-.647-.97051-1.37587-1.46451-2.06917-1.4058a1.26413,1.26413,0,0,0-1.0456.81694c-.42964,1.01285-.1163,3.21526,2.18209,6.089,4.02825,5.03489,8.99088,5.03489,12.97848,5.03489a99.3463,99.3463,0,0,0,10.68179-.96938.58036.58036,0,0,0,.32689-.16373c2.07256-2.07256,4.02374-9.04451,4.02374-12.93614C269.05861,534.533,268.94513,533.768,268.30039,533.62689Z"/><path class="cls-4" d="M993.24452,460.89173a6.115,6.115,0,0,0-.621,2.882,7.69866,7.69866,0,0,1-3.06,6.47015.82685.82685,0,0,1-.63007.08073c-.21567-.05764-.35681-.19346-.35681-.344a30.3836,30.3836,0,0,0-.95583-6.76616,7.49555,7.49555,0,0,0-.6933-1.899,2.044,2.044,0,0,0-.08525.59621,16.76885,16.76885,0,0,1-3.93115,11.35713c-1.534,1.72918-1.80043,1.92464-2.38308,1.74118-.63967-.202-.69217-.21856,1.96473-4.35368.46126-.71822.92252-1.43626,1.307-2.05538,1.07439-1.72936.89316-1.9001.13155-2.61941a9.28693,9.28693,0,0,1-2.07143-2.71178c-.33988-.65731-.61369-1.18624-.81468-1.54244a4.0124,4.0124,0,0,1-1.11786,1.06842c-1.84673,1.18952-7.55234,7.91622-7.60993,7.984a.73336.73336,0,0,1-.65039.18255c-.25632-.04218-.43529-.19074-.43529-.36093,0-.13764.08356-1.43407,2.97306-4.53641,2.15838-2.317.85251-3.43636.34609-3.75a31.76711,31.76711,0,0,0-8.1762,2.37739c-2.5739,1.24352-8.44155,7.25492-11.13683,10.37708a3.3853,3.3853,0,0,1-1.32845,2.0021,1.04971,1.04971,0,0,1-.7921.18183.53839.53839,0,0,1-.41722-.3142c-.0638-.2451.51038-1.06915,1.4583-2.19284.11461-.3762.22188-.79713.33875-1.25734a25.85692,25.85692,0,0,1,3.28471-7.9915c1.72083-2.77087,5.3488-6.02685,12.84073-5.825.09541.00273.1705.00491.22357.00491a27.947,27.947,0,0,0,4.39749-.86532,50.38186,50.38186,0,0,1,10.82858-1.76536,9.73438,9.73438,0,0,1,4.40765.85023C993.45228,459.42838,993.81022,459.67112,993.24452,460.89173Z"/><path class="cls-3" d="M992.8527,447.20835c-.7125-.157-1.097.66-1.78011,2.1437-.15808.34326-.32068.69725-.48384,1.023a19.016,19.016,0,0,0-.874,2.40566c-.48271,1.51306-1.21327,3.7996-1.93706,4.105a.27851.27851,0,0,1-.26761-.02371,7.147,7.147,0,0,0-1.22908-.44037c-1.56105-.45166-3.03573-.87848-2.31081-6.68007.98744-7.89842.97333-10.797-1.01962-14.78456-1.0185-2.03586-1.03939-2.07821-1.5667-1.87947-.51546.19026-.40367.63741-.2343,1.3149a19.993,19.993,0,0,1,.70572,4.67808c0,10.58863-.42117,13.49-.77573,14.02013-.59393.16824-3.39423-.83444-5.73327-2.41243-1.5588-1.05124-1.97094-1.74906-1.97094-1.9715,0-1.87383.95018-10.44974.95978-10.53612a.57826.57826,0,0,0-1.01-.44432c-.2868.32745-6.98663,8.08417-3.91477,13.20488.79436,1.32393,1.65477,2.56713,2.41413,3.66467a16.5307,16.5307,0,0,1,2.00989,3.31576,3.16875,3.16875,0,0,1-.89711-.12929c-3.6274-.90727-4.50476-1.72873-6.40455-4.57815-.647-.97051-1.37587-1.46451-2.06917-1.4058a1.26413,1.26413,0,0,0-1.0456.81694c-.42964,1.01285-.1163,3.21526,2.18209,6.089,4.02825,5.03489,8.99088,5.03489,12.97848,5.03489a99.34633,99.34633,0,0,0,10.68179-.96938.58036.58036,0,0,0,.32689-.16373c2.07256-2.07256,4.02374-9.04451,4.02374-12.93614C993.61093,448.1145,993.49745,447.3495,992.8527,447.20835Z"/><path class="cls-4" d="M1024.24452,27.89173a6.115,6.115,0,0,0-.621,2.882,7.69866,7.69866,0,0,1-3.06,6.47015.82685.82685,0,0,1-.63007.08073c-.21567-.05764-.35681-.19346-.35681-.344a30.38359,30.38359,0,0,0-.95583-6.76616,7.49555,7.49555,0,0,0-.6933-1.899,2.044,2.044,0,0,0-.08525.59621,16.76885,16.76885,0,0,1-3.93115,11.35713c-1.534,1.72918-1.80043,1.92464-2.38308,1.74118-.63967-.202-.69217-.21856,1.96473-4.35368.46126-.71822.92252-1.43626,1.307-2.05538,1.07439-1.72936.89316-1.9001.13155-2.61941a9.28691,9.28691,0,0,1-2.07143-2.71178c-.33988-.65731-.6137-1.18624-.81468-1.54244a4.01239,4.01239,0,0,1-1.11786,1.06842c-1.84673,1.18952-7.55234,7.91622-7.60992,7.984a.73336.73336,0,0,1-.65039.18255c-.25632-.04218-.43529-.19074-.43529-.36093,0-.13764.08356-1.43407,2.97306-4.53641,2.15838-2.317.85251-3.43636.34609-3.75a31.76711,31.76711,0,0,0-8.1762,2.37739c-2.5739,1.24352-8.44155,7.25492-11.13683,10.37708a3.3853,3.3853,0,0,1-1.32845,2.0021,1.04971,1.04971,0,0,1-.7921.18183.53839.53839,0,0,1-.41722-.3142c-.0638-.2451.51038-1.06915,1.4583-2.19284.11461-.3762.22188-.79713.33875-1.25734a25.85692,25.85692,0,0,1,3.28471-7.9915c1.72083-2.77087,5.3488-6.02685,12.84073-5.825.09541.00273.1705.00491.22357.00491a27.94694,27.94694,0,0,0,4.39749-.86532,50.38186,50.38186,0,0,1,10.82858-1.76536,9.73438,9.73438,0,0,1,4.40765.85023C1024.45228,26.42838,1024.81022,26.67112,1024.24452,27.89173Z"/><path class="cls-3" d="M1023.8527,14.20835c-.71249-.157-1.097.66-1.78011,2.1437-.15808.34326-.32068.69725-.48384,1.023a19.0159,19.0159,0,0,0-.874,2.40566c-.48271,1.51306-1.21327,3.7996-1.93706,4.105a.27851.27851,0,0,1-.26761-.02371,7.14694,7.14694,0,0,0-1.22908-.44037c-1.56105-.45166-3.03573-.87848-2.31081-6.68007.98744-7.89842.97333-10.797-1.01963-14.78456-1.0185-2.03586-1.03939-2.07821-1.5667-1.87947-.51546.19026-.40367.63741-.2343,1.3149a19.993,19.993,0,0,1,.70572,4.67808c0,10.58863-.42117,13.49-.77573,14.02013-.59393.16824-3.39423-.83444-5.73327-2.41243-1.5588-1.05124-1.97094-1.74906-1.97094-1.9715,0-1.87383.95018-10.44974.95978-10.53612a.57826.57826,0,0,0-1.01-.44432c-.2868.32745-6.98663,8.08417-3.91477,13.20488.79436,1.32393,1.65477,2.56713,2.41413,3.66467a16.53068,16.53068,0,0,1,2.00989,3.31576,3.16875,3.16875,0,0,1-.89711-.12929c-3.6274-.90727-4.50475-1.72873-6.40455-4.57815-.647-.97051-1.37587-1.46451-2.06917-1.4058a1.26413,1.26413,0,0,0-1.0456.81694c-.42964,1.01285-.1163,3.21526,2.18209,6.089,4.02825,5.03489,8.99088,5.03489,12.97848,5.03489a99.34631,99.34631,0,0,0,10.68178-.96938.58036.58036,0,0,0,.32689-.16373c2.07256-2.07256,4.02374-9.04451,4.02374-12.93614C1024.61093,15.1145,1024.49745,14.3495,1023.8527,14.20835Z"/><path class="cls-4" d="M163.24452,73.89173a6.115,6.115,0,0,0-.621,2.882,7.69866,7.69866,0,0,1-3.06,6.47015.82685.82685,0,0,1-.63007.08073c-.21567-.05764-.35681-.19346-.35681-.344a30.3836,30.3836,0,0,0-.95583-6.76616,7.49554,7.49554,0,0,0-.6933-1.899,2.044,2.044,0,0,0-.08525.59621,16.76885,16.76885,0,0,1-3.93115,11.35713c-1.534,1.72918-1.80043,1.92464-2.38308,1.74118-.63966-.202-.69217-.21856,1.96473-4.35368.46126-.71822.92252-1.43626,1.307-2.05538,1.07439-1.72936.89316-1.9001.13155-2.61941a9.28692,9.28692,0,0,1-2.07143-2.71178c-.33988-.65731-.61369-1.18624-.81468-1.54244a4.0124,4.0124,0,0,1-1.11786,1.06842c-1.84673,1.18952-7.55234,7.91622-7.60993,7.984a.73336.73336,0,0,1-.65039.18255c-.25632-.04218-.43529-.19074-.43529-.36093,0-.13764.08356-1.43407,2.97306-4.53641,2.15838-2.317.85251-3.43636.34609-3.75a31.76711,31.76711,0,0,0-8.1762,2.37739c-2.5739,1.24352-8.44155,7.25492-11.13683,10.37708a3.3853,3.3853,0,0,1-1.32845,2.0021,1.04971,1.04971,0,0,1-.7921.18183.53839.53839,0,0,1-.41722-.3142c-.0638-.2451.51038-1.06915,1.4583-2.19284.11461-.3762.22188-.79713.33875-1.25734a25.85692,25.85692,0,0,1,3.28471-7.9915c1.72083-2.77087,5.3488-6.02685,12.84073-5.825.09541.00273.1705.00491.22357.00491a27.947,27.947,0,0,0,4.39749-.86532,50.38186,50.38186,0,0,1,10.82858-1.76536,9.73438,9.73438,0,0,1,4.40765.85023C163.45228,72.42838,163.81022,72.67112,163.24452,73.89173Z"/><path class="cls-3" d="M162.8527,60.20835c-.7125-.157-1.097.66-1.78011,2.1437-.15808.34326-.32068.69725-.48384,1.023a19.016,19.016,0,0,0-.874,2.40566c-.48271,1.51306-1.21327,3.7996-1.93706,4.105a.27851.27851,0,0,1-.26761-.02371,7.147,7.147,0,0,0-1.22908-.44037c-1.56105-.45166-3.03573-.87848-2.31081-6.68007.98744-7.89842.97333-10.797-1.01962-14.78456-1.0185-2.03586-1.03939-2.07821-1.5667-1.87947-.51546.19026-.40367.63741-.2343,1.3149a19.993,19.993,0,0,1,.70572,4.67808c0,10.58863-.42117,13.49-.77573,14.02013-.59393.16824-3.39423-.83444-5.73327-2.41243-1.5588-1.05124-1.97094-1.74906-1.97094-1.9715,0-1.87383.95018-10.44974.95978-10.53612a.57826.57826,0,0,0-1.01-.44432c-.2868.32745-6.98663,8.08417-3.91477,13.20488.79436,1.32393,1.65477,2.56713,2.41413,3.66467a16.5307,16.5307,0,0,1,2.00989,3.31576,3.16875,3.16875,0,0,1-.89711-.12929c-3.6274-.90727-4.50476-1.72873-6.40455-4.57815-.647-.97051-1.37587-1.46451-2.06917-1.4058a1.26413,1.26413,0,0,0-1.0456.81694c-.42964,1.01285-.1163,3.21526,2.18209,6.089,4.02825,5.03489,8.99088,5.03489,12.97848,5.03489a99.34631,99.34631,0,0,0,10.68179-.96938.58036.58036,0,0,0,.32689-.16373c2.07256-2.07256,4.02374-9.04451,4.02374-12.93614C163.61093,61.1145,163.49745,60.3495,162.8527,60.20835Z"/><path class="cls-4" d="M656.24452,539.89173a6.115,6.115,0,0,0-.621,2.882,7.69866,7.69866,0,0,1-3.06,6.47015.82685.82685,0,0,1-.63007.08073c-.21567-.05764-.35681-.19346-.35681-.344a30.3836,30.3836,0,0,0-.95583-6.76616,7.49555,7.49555,0,0,0-.6933-1.899,2.044,2.044,0,0,0-.08525.59621,16.76885,16.76885,0,0,1-3.93115,11.35713c-1.534,1.72918-1.80043,1.92464-2.38308,1.74118-.63967-.202-.69217-.21856,1.96473-4.35368.46126-.71822.92252-1.43626,1.307-2.05538,1.07439-1.72936.89316-1.9001.13155-2.61941a9.28693,9.28693,0,0,1-2.07143-2.71178c-.33988-.65731-.61369-1.18624-.81468-1.54244a4.0124,4.0124,0,0,1-1.11786,1.06842c-1.84673,1.18952-7.55234,7.91622-7.60993,7.984a.73336.73336,0,0,1-.65039.18255c-.25632-.04218-.43529-.19074-.43529-.36093,0-.13764.08356-1.43407,2.97306-4.53641,2.15838-2.317.85251-3.43636.34609-3.75a31.76711,31.76711,0,0,0-8.1762,2.37739c-2.5739,1.24352-8.44155,7.25492-11.13683,10.37708a3.3853,3.3853,0,0,1-1.32845,2.0021,1.04971,1.04971,0,0,1-.7921.18183.53839.53839,0,0,1-.41722-.3142c-.0638-.2451.51038-1.06915,1.4583-2.19284.11461-.3762.22188-.79713.33875-1.25734a25.85692,25.85692,0,0,1,3.28471-7.9915c1.72083-2.77087,5.3488-6.02685,12.84073-5.825.09541.00273.1705.00491.22357.00491a27.947,27.947,0,0,0,4.39749-.86532,50.38186,50.38186,0,0,1,10.82858-1.76536,9.73438,9.73438,0,0,1,4.40765.85023C656.45228,538.42838,656.81022,538.67112,656.24452,539.89173Z"/><path class="cls-3" d="M655.8527,526.20835c-.7125-.157-1.097.66-1.78011,2.1437-.15808.34326-.32068.69725-.48384,1.023a19.016,19.016,0,0,0-.874,2.40566c-.48271,1.51306-1.21327,3.7996-1.93706,4.105a.27851.27851,0,0,1-.26761-.02371,7.147,7.147,0,0,0-1.22908-.44037c-1.56105-.45166-3.03573-.87848-2.31081-6.68007.98744-7.89842.97333-10.797-1.01962-14.78456-1.0185-2.03586-1.03939-2.07821-1.5667-1.87947-.51546.19026-.40367.63741-.2343,1.3149a19.993,19.993,0,0,1,.70572,4.67808c0,10.58863-.42117,13.49-.77573,14.02013-.59393.16824-3.39423-.83444-5.73327-2.41243-1.5588-1.05124-1.97094-1.74906-1.97094-1.9715,0-1.87383.95018-10.44974.95978-10.53612a.57826.57826,0,0,0-1.01-.44432c-.2868.32745-6.98663,8.08417-3.91477,13.20488.79436,1.32393,1.65477,2.56713,2.41413,3.66467a16.5307,16.5307,0,0,1,2.00989,3.31576,3.16875,3.16875,0,0,1-.89711-.12929c-3.6274-.90727-4.50476-1.72873-6.40455-4.57815-.647-.97051-1.37587-1.46451-2.06917-1.4058a1.26413,1.26413,0,0,0-1.0456.81694c-.42964,1.01285-.1163,3.21526,2.18209,6.089,4.02825,5.03489,8.99088,5.03489,12.97848,5.03489a99.34633,99.34633,0,0,0,10.68179-.96938.58036.58036,0,0,0,.32689-.16373c2.07256-2.07256,4.02374-9.04451,4.02374-12.93614C656.61093,527.1145,656.49745,526.3495,655.8527,526.20835Z"/><path class="cls-4" d="M419.009,120.95293c-.7125.09293-1.097-.39078-1.78011-1.26928-.15808-.20324-.32068-.41284-.48384-.60572a8.97472,8.97472,0,0,1-.874-1.42439c-.48271-.89588-1.21327-2.24973-1.93706-2.43058a.45006.45006,0,0,0-.26761.014,10.74644,10.74644,0,0,1-1.22908.26074c-1.56105.26743-3.03573.52015-2.31081,3.95525.98744,4.67664.97333,6.39285-1.01963,8.7539-1.0185,1.20543-1.03939,1.2305-1.5667,1.11283-.51546-.11265-.40367-.37741-.2343-.77855a7.52094,7.52094,0,0,0,.70572-2.76988c0-6.2695-.42117-7.98739-.77573-8.30128a18.9208,18.9208,0,0,0-5.73327,1.4284c-1.5588.62244-1.97094,1.03561-1.97094,1.16732,0,1.10949.95018,6.18727.95978,6.23841.02766.14876-.11066.29083-.34157.351a.87026.87026,0,0,1-.66846-.08792c-.2868-.19388-6.98663-4.78662-3.91477-7.81857.79436-.7839,1.65477-1.52,2.41413-2.16984a10.49422,10.49422,0,0,0,2.00989-1.96325,5.24945,5.24945,0,0,0-.89711.07655c-3.6274.53719-4.50475,1.02358-6.40455,2.71071a2.94492,2.94492,0,0,1-2.06917.83237,1.35067,1.35067,0,0,1-1.0456-.48371c-.42964-.59971-.1163-1.90375,2.18209-3.60526,4.02825-2.98115,8.99088-2.98115,12.97848-2.98115,3.85154,0,10.40458.55057,10.68179.574a.78248.78248,0,0,1,.32689.09694c2.07256,1.22716,4.02374,5.35523,4.02374,7.65946C419.76718,120.4164,419.6537,120.86936,419.009,120.95293Z"/><path class="cls-3" d="M419.232,111.4364a13.94249,13.94249,0,0,1-.621-4.47427c0-6.90533-2.93523-9.91989-3.06-10.04494a.57808.57808,0,0,0-.98688.40875,72.09421,72.09421,0,0,1-.95583,10.50451,16.06755,16.06755,0,0,1-.6933,2.94822,4.81927,4.81927,0,0,1-.08525-.92562c0-7.0349-1.3595-13.132-3.93115-17.632-1.534-2.68456-1.80043-2.988-2.38308-2.70319-.63967.31362-.69217.33931,1.96473,6.75911.46126,1.115.92252,2.22979,1.307,3.191,1.07439,2.68484.89316,2.94991.13155,4.06664a15.28087,15.28087,0,0,0-2.07143,4.21c-.33988,1.02047-.61369,1.84165-.81468,2.39465a5.63392,5.63392,0,0,0-1.11786-1.65873c-1.84673-1.84673-7.55234-12.29-7.60993-12.39527a.57812.57812,0,0,0-1.08568.27692c0,.21369.08356,2.22641,2.97306,7.04281,2.15838,3.5972.85251,5.335.34609,5.82191a23.79161,23.79161,0,0,1-8.1762-3.69092c-2.5739-1.93057-8.44155-11.2633-11.13683-16.11047a5.93983,5.93983,0,0,0-1.32845-3.10828.79592.79592,0,0,0-.7921-.28229.65278.65278,0,0,0-.41722.48779,10.42633,10.42633,0,0,0,1.4583,3.4044c.11461.58405.22188,1.23755.33875,1.952a54.71823,54.71823,0,0,0,3.28471,12.40685c1.72083,4.30179,5.3488,9.35672,12.84073,9.04338.09541-.00423.1705-.00762.22357-.00762a19.39426,19.39426,0,0,1,4.39749,1.34341c3.28922,1.21948,7.39313,2.74074,10.82858,2.74074a6.87753,6.87753,0,0,0,4.40765-1.32C419.43973,113.70826,419.79767,113.33141,419.232,111.4364Z"/><path class="cls-4" d="M1058.009,426.95293c-.71249.09293-1.097-.39078-1.78011-1.26928-.15808-.20324-.32068-.41284-.48384-.60572a8.97469,8.97469,0,0,1-.874-1.42439c-.48271-.89588-1.21328-2.24973-1.93706-2.43058a.45006.45006,0,0,0-.26761.014,10.74643,10.74643,0,0,1-1.22908.26074c-1.56105.26743-3.03573.52015-2.31081,3.95525.98744,4.67664.97333,6.39285-1.01962,8.7539-1.0185,1.20543-1.03939,1.2305-1.5667,1.11283-.51546-.11265-.40367-.37741-.2343-.77855a7.52094,7.52094,0,0,0,.70572-2.76988c0-6.2695-.42117-7.98739-.77573-8.30128a18.9208,18.9208,0,0,0-5.73327,1.4284c-1.55879.62244-1.97094,1.03561-1.97094,1.16732,0,1.10949.95018,6.18727.95978,6.23841.02766.14876-.11066.29083-.34157.351a.87026.87026,0,0,1-.66846-.08792c-.2868-.19388-6.98663-4.78662-3.91477-7.81857.79436-.7839,1.65477-1.52,2.41413-2.16984a10.49424,10.49424,0,0,0,2.00989-1.96325,5.24945,5.24945,0,0,0-.89711.07655c-3.6274.53719-4.50475,1.02358-6.40455,2.71071a2.94491,2.94491,0,0,1-2.06917.83237,1.35068,1.35068,0,0,1-1.0456-.48371c-.42964-.59971-.1163-1.90375,2.18209-3.60526,4.02825-2.98115,8.99088-2.98115,12.97848-2.98115,3.85154,0,10.40458.55057,10.68179.574a.78248.78248,0,0,1,.32689.09694c2.07256,1.22716,4.02374,5.35523,4.02374,7.65946C1058.76718,426.4164,1058.6537,426.86936,1058.009,426.95293Z"/><path class="cls-3" d="M1058.232,417.4364a13.9425,13.9425,0,0,1-.621-4.47427c0-6.90533-2.93523-9.91989-3.06-10.04494a.57808.57808,0,0,0-.98688.40875,72.09426,72.09426,0,0,1-.95583,10.50451,16.06762,16.06762,0,0,1-.6933,2.94822,4.81927,4.81927,0,0,1-.08525-.92562c0-7.0349-1.3595-13.132-3.93115-17.632-1.534-2.68456-1.80043-2.988-2.38308-2.70319-.63966.31362-.69217.33931,1.96473,6.75911.46126,1.115.92252,2.22979,1.307,3.191,1.07439,2.68484.89316,2.94991.13155,4.06664a15.28088,15.28088,0,0,0-2.07143,4.21c-.33988,1.02047-.6137,1.84165-.81468,2.39465a5.63391,5.63391,0,0,0-1.11786-1.65873c-1.84673-1.84673-7.55234-12.29-7.60992-12.39527a.57812.57812,0,0,0-1.08568.27692c0,.21369.08356,2.22641,2.97306,7.04281,2.15837,3.5972.85251,5.335.34608,5.82191a23.7916,23.7916,0,0,1-8.17619-3.69092c-2.5739-1.93057-8.44155-11.2633-11.13683-16.11047a5.93984,5.93984,0,0,0-1.32845-3.10828.79592.79592,0,0,0-.7921-.28229.65278.65278,0,0,0-.41722.48779,10.42632,10.42632,0,0,0,1.4583,3.4044c.11461.58405.22188,1.23755.33875,1.952a54.71822,54.71822,0,0,0,3.28471,12.40685c1.72083,4.30179,5.3488,9.35672,12.84073,9.04338.09541-.00423.1705-.00762.22357-.00762a19.39426,19.39426,0,0,1,4.39748,1.34341c3.28922,1.21949,7.39313,2.74074,10.82858,2.74074a6.87753,6.87753,0,0,0,4.40765-1.32C1058.43973,419.70826,1058.79767,419.33141,1058.232,417.4364Z"/></g></g></svg>