<?xml version="1.0" encoding="utf-8"?>
<!-- Generator: Adobe Illustrator 16.0.0, SVG Export Plug-In . SVG Version: 6.00 Build 0)  -->
<!DOCTYPE svg PUBLIC "-//W3C//DTD SVG 1.0//EN" "http://www.w3.org/TR/2001/REC-SVG-20010904/DTD/svg10.dtd">
<svg version="1.0" id="圖層_1" xmlns="http://www.w3.org/2000/svg" xmlns:xlink="http://www.w3.org/1999/xlink" x="0px" y="0px"
	 width="312px" height="422px" viewBox="0 0 312 422" enable-background="new 0 0 312 422" xml:space="preserve">
<title>資產 17</title>
<g id="圖層_2">
	<g id="圖層_1-2">
		<path fill="#FFA665" d="M246.99,169.87c-3.761-7.042-8.435-13.557-13.9-19.375c1.488-10.1,4.678-33.622,3.03-37.396
			c-2.1-4.811-12.811-5.874-17.462-3.216c-3.615,2.1-17.595,11.88-23.682,16.186c-4.553-1.542-9.229-2.689-13.979-3.429
			c-19.11-2.299-38.479-1.119-57.17,3.482c-6.06-4.279-20.146-14.14-23.761-16.239c-4.651-2.658-15.362-1.595-17.462,3.216
			c-1.382,3.136,0.611,20.04,2.18,31.441c-15.946,14.751-28.306,37.449-28.943,50.232c-0.851,17.303-11.429,64.213,28.73,98.525
			c7.742,7.748,17.327,13.4,27.854,16.425c16.292,4.094,77.714,7.628,98.87-4.704s35.137-23.92,41.408-47.841
			C258.976,233.259,262.432,198.522,246.99,169.87z"/>
	</g>
</g>
</svg>
