<svg xmlns="http://www.w3.org/2000/svg" viewBox="0 0 122.64798 141.2992"><defs><style>.cls-1{fill:#4f5c78;}.cls-2{fill:#53617e;}.cls-3{fill:#ca4853;}.cls-4{fill:#e9525e;}.cls-5{fill:#b4cfd4;}.cls-6{fill:#39445b;}.cls-7{fill:#5d9099;}</style></defs><title>資產 10</title><g id="圖層_2" data-name="圖層 2"><g id="圖層_1-2" data-name="圖層 1"><polygon class="cls-1" points="0 10.341 14.004 70.466 67.985 61.323 60.916 7.753 0 10.341"/><polygon class="cls-2" points="5.567 2.329 0 10.341 60.916 7.753 54.072 0 5.567 2.329"/><path class="cls-3" d="M48.41133,41.75192,5.6077,83.08311s73.87129,55.04571,75.012,56.3379l21.267-51.40951Z"/><polygon class="cls-4" points="4.057 70.913 5.608 83.083 48.411 41.752 42.343 40.084 4.057 70.913"/><polygon class="cls-5" points="43.619 55.85 14.459 97.015 19.98 105.873 51.011 56.413 43.619 55.85"/><path class="cls-6" d="M63.73148,59.538A57.1491,57.1491,0,0,1,80.74161,47.87443c5.766-2.53869,16.02124-6.52675,21.87243-3.48985,5.75629,2.98764,5.37716,13.4056,4.16841,19.02722a28.86894,28.86894,0,0,1-9.51093,15.89256c-1.46352,1.26426.66625,3.37828,2.12132,2.12132a31.72388,31.72388,0,0,0,10.65479-19.29193c.92224-6.03952.61259-15.32234-4.02382-19.98772-4.68941-4.71871-16.60092-.634-21.90051,1.202A60.17928,60.17928,0,0,0,61.61016,57.41665c-1.37953,1.35513.74224,3.476,2.12132,2.12132Z"/><path class="cls-6" d="M57.70391,31.13925a195.87852,195.87852,0,0,1,26.53641,2.22828c8.35279,1.30419,19.90558,2.63,23.16777,11.87077.63834,1.80823,3.53786,1.02965,2.89284-.79752-3.01117-8.52973-11.61243-11.469-19.79544-13.0294a194.84885,194.84885,0,0,0-32.80158-3.27212c-1.93124-.03656-1.93128,2.96344,0,3Z"/><polygon class="cls-7" points="51.011 56.413 19.98 105.873 105.26 141.299 122.648 92.005 51.011 56.413"/><path class="cls-6" d="M74.99888,76.00451c6.18628-11.912,14.51191-35.4256,32.19537-30.85027,8.771,2.26937,11.05316,15.72324,9.20271,23.39126-1.88394,7.80679-8.24814,13.58868-15.04679,17.28881-1.69631.92321-.1838,3.51451,1.51416,2.59041C110.75507,84.13021,117.897,77.14745,119.578,67.987c1.38568-7.55079-.60993-19.82165-7.72668-24.1368-6.56574-3.98105-15.50824-2.112-21.32317,2.33388-8.82231,6.74527-13.16731,18.77018-18.11971,28.30624-.88866,1.71115,1.69932,3.23,2.59041,1.51416Z"/></g></g></svg>