<svg xmlns="http://www.w3.org/2000/svg" viewBox="0 0 357.74785 97.25214"><defs><style>.cls-1{font-size:37.80547px;}.cls-1,.cls-2{fill:#ef5c79;}.cls-1,.cls-5{font-family:AdobeFanHeitiStd-Bold-B5pc-H, Adobe Fan Heiti Std;}.cls-3{fill:#f3c7da;opacity:0.81;}.cls-4{fill:#fff;opacity:0.8;}.cls-5{font-size:14.39286px;fill:#f05c79;}</style></defs><title>資產 2</title><g id="圖層_2" data-name="圖層 2"><g id="圖層_1-2" data-name="圖層 1"><text class="cls-1" transform="translate(-0.00024 86.55315)">MJ</text><rect class="cls-2" x="62.71232" y="54.659" width="295.03553" height="31.60147" rx="6.34126" ry="6.34126"/><rect class="cls-3" x="65.46028" y="58.75969" width="171.28757" height="23.72145" rx="6.34126" ry="6.34126"/><path class="cls-4" d="M263.13945,64.76547,260.588,63.30041c-.36433.181-.73171.35714-1.07477.57253a72.97286,72.97286,0,0,1-6.55826,7.60031,2.74144,2.74144,0,0,1-2.19176.78318,2.32418,2.32418,0,0,1-2.834-1.84455q-1.04476-7.79-2.08943-15.58012l-23.79-13.66058c-9.16188-5.26089-11.95547-17.7547-6.208-27.764l1.39333-2.4265c5.7475-10.00931,17.94608-13.89438,27.108-8.63349l41.08966,23.59431c9.16188,5.26089,11.95548,17.7547,6.208,27.764l-1.39333,2.4265C284.49992,66.1413,272.30134,70.02637,263.13945,64.76547Z"/><text class="cls-5" transform="translate(227.19717 26.52391) rotate(28.98744)">MJ+300</text></g></g></svg>