<svg xmlns="http://www.w3.org/2000/svg" viewBox="-50 0 700.82226 473.6285"><defs><style>.cls-1{fill:#c5798a;opacity:0.5;}.cls-2{fill:#d45a65;}.cls-3{fill:#fbc5cf;}.cls-4{fill:#ef5c79;}.cls-5{fill:#755f55;}.cls-6{fill:#e4b5bd;}.cls-7{fill:#453830;}.cls-8{fill:#6d4430;}.cls-9{fill:#a5794e;}.cls-10{fill:#8d663c;}.cls-11{fill:#e3a564;}.cls-12{fill:#755437;}</style></defs><title>資產 5</title><g id="圖層_2" data-name="圖層 2"><g id="圖層_1-2" data-name="圖層 1"><ellipse class="cls-1" cx="263.75917" cy="394.20516" rx="209.26748" ry="79.42334"/><circle class="cls-2" cx="519.81198" cy="133.56286" r="68" transform="translate(137.83979 510.57849) rotate(-59.03595)"/><circle class="cls-3" cx="519.81198" cy="133.56286" r="57.5" transform="translate(137.83979 510.57849) rotate(-59.03595)"/><path class="cls-2" d="M487.913,188.185s-16.46418,62.4254-16.12122,69.62834,8.91786,12.34794,14.40586,5.145,19.03668-66.71285,19.03668-66.71285Z"/><path class="cls-4" d="M515.28287,169.13179s25.19964-2.8884,34.35663-11.789,16.99474-20.9382,13.91652-28.25794-10.82118-15.50677-20.86876-13.10609a50.132,50.132,0,0,0-17.028,7.71256s-6.457-18.27563-13.8994-22.82651-16.61048-.05885-22.71144,7.34439,7.392,42.4097,15.146,55.00528S515.28287,169.13179,515.28287,169.13179Z"/><path class="cls-5" d="M486.17415,211.98584c-2.46134.97973-3.20235,2.7001-2.94278,4.30756a10.44752,10.44752,0,0,1,.19474,3.53412c-.17653.76541-1.60661,1.56368-3.19365,1.87447-1.03.20162-5.10989,1.15145-7.792,1.50815-8.66027,2.44659-18.75457,5.91855-27.11251,9.15336-12.6751,4.9057-33.6022,19.80589-36.198,30.25879a33.44752,33.44752,0,0,0-.2118,5.945s8.4077-2.08147,28.83246-7.30632c24.78837-6.34111,43.01634-10.87856,56.02969-18.83768,13.01345-7.95893,14.21006-10.84461,14.73114-13.47567.52121-2.6309.64351-9.30882-1.54163-11.5755s-6.82228-1.91811-9.41876-1.09873-6.78492,1.92672-6.78492,1.92672c.61568-.57332.71606-3.38451.08612-4.13163C490.22217,213.32119,488.63558,211.0063,486.17415,211.98584Z"/><path class="cls-5" d="M382.98919,359.91459a8.07829,8.07829,0,0,0,.314-3.351c-.10454-2.46089,1.51846-43.87686,1.51846-43.87686a5.59182,5.59182,0,0,1,3.94227-4.31958c7.7428-1.9357,9.17194-1.72272,14.70127.30095,8.97045,3.283,17.07366,9.871,18.10871,19.88981.00424.04106-.62233,4.19116-.62459,4.2347-.05237,1.04719-2.96687,38.08242-3.2462,39.33905a14.17368,14.17368,0,0,1-9.56424,9.21518c-7.05107,2.234-30.71725.97735-30.71725.97735s-7.4-2.02454-7.46987-5.934.36642-5.53262,2.67029-8.36S382.98919,359.91459,382.98919,359.91459Z"/><path class="cls-5" d="M362.555,320.30835c-1.8081-13.483-14.5998-15.99471-19.42159-17.65288-10.3422-3.5566-15.07879,9.60341-18.4476,16.53267a2.48225,2.48225,0,0,1-.12294.54633c-.47675,1.38634-15.00574,36.55058-15.81277,40.18579-.80721,3.63509-1.58891,2.2589-3.42316,2.44021a25.14289,25.14289,0,0,0-14.71311,8.00721c-5.80027,6.34753,4.40139,10.81554,5.10284,11.352.70124.53648,22.92025,8.91567,26.27484,9.0357s11.3905.152,14.37871-5.3169c2.988-5.469,16.37852-35.82014,16.37852-35.82014S363.42828,326.82067,362.555,320.30835Z"/><path class="cls-5" d="M284.86664,324.5666c1.81873-1.92621,1.76524-3.79862.85208-5.14675a10.44752,10.44752,0,0,1-1.66676-3.12247c-.16267-.76847.79747-2.09531,2.10548-3.04631.84891-.6171,4.14791-3.19869,6.42955-4.65307,6.82114-5.8701,14.51024-13.27463,20.72489-19.732,9.42472-9.79279,22.11777-32.12764,20.064-42.7004a33.44752,33.44752,0,0,0-2.31468-5.48s-6.74608,5.43253-23.06328,18.78239c-19.80326,16.202-34.41836,28.00223-42.86231,40.70636-8.44411,12.704-8.31238,15.82516-7.67548,18.4306.63671,2.60535,3.3416,8.71217,6.27874,9.84612s6.99493-1.13739,9.00381-2.97518,4.19411-4.05554,4.19411-4.05554,1.92355,2.81844,2.80978,3.23028C280.633,325.06263,283.04775,326.49268,284.86664,324.5666Z"/><path class="cls-5" d="M457.92839,112.74044a87.58957,87.58957,0,0,0-14.95657-19.84611c3.41771-2.04734,7.3415-6.60989,4.23023-11.84243-4.627-7.78185-11.77794-8.62314-17.45659-5.258a6.81321,6.81321,0,0,0-3.42757,4.03224,89.61829,89.61829,0,0,0-33.16818-12.23473c-22.7146-3.36513-53.561.56113-76.83678,9.53466a42.94817,42.94817,0,0,0-3.969,1.7832,7.44483,7.44483,0,0,0-3.08579-3.11537c-5.67865-3.36513-12.82954-2.52384-17.45659,5.258-2.77689,4.671.05258,8.80881,3.12276,11.09974-13.78831,14.00479-24.03075,33.20762-24.60173,44.42484C269.48132,153.122,259.10579,197.99,298.50553,230.8c0,0,11.3573,11.77794,27.34165,15.7042,15.98435,3.92584,76.27647,7.291,97.02835-4.487,20.75106-11.77794,34.49254-22.99517,40.66167-45.70977S473.07145,140.22217,457.92839,112.74044Z"/><path class="cls-5" d="M327.0126,334.2028c-8.94591-12.37485-16.95055-21.46871-13.7145-56.74444,1.16886-12.74156,6.60889-25.08622,8-28a127.034,127.034,0,0,1,6.97108-12.95739h91.52346s2.03584,3.39024,4.54448,7.57153c3.41976,5.6996,4.245,7.32014,5.889,10.09538.78254,1.32108,2.99953,4.35429,3.36513,6.73025,1.68256,10.93666.62723,21.09561.84128,29.44485.84115,32.81-10.0923,44.5167-10.93666,45.4292-.04842.05232-13.37383,11.29173-20.24539,14.34343-5.26253,2.33709-16.025,3.04117-17.75277,3.0935-1.728.05237-21.20539-.2094-21.20539-.2094s-16.01167-1.73006-22.44883-5.29493A43.57378,43.57378,0,0,1,327.0126,334.2028Z"/><circle class="cls-2" cx="68" cy="108.25096" r="68"/><circle class="cls-3" cx="68" cy="108.25096" r="57.5"/><path class="cls-4" d="M104.32153,135.864c-9.65112-8.42493-19.04224-17.63416-29.37427-25.30322a287.45949,287.45949,0,0,1,17.55151-27.666c4.78931-6.67908-6.26465-13.052-11.00928-6.43506a284.99469,284.99469,0,0,0-17.20605,27.12915c-3.70776-2.13623-7.46924-4.18726-11.02051-6.583A97.342,97.342,0,0,1,37.60229,83.6278c-5.69849-5.92542-14.70728,3.09741-9.01562,9.0155,8.88892,9.24292,19.05933,15.58813,29.74683,22.17041A300.63156,300.63156,0,0,0,45.626,143.81493c-2.89722,7.68652,9.4231,11.00806,12.29443,3.3894A271.79151,271.79151,0,0,1,68.9751,121.88182c9.27515,6.96777,17.70752,15.47021,26.33081,22.9978C101.46313,150.2545,110.51709,141.27233,104.32153,135.864Z"/><path class="cls-2" d="M68.75,171.501s18,62,22,68,14,6,15-3-18-67-18-67Z"/><path class="cls-6" d="M95.87717,199.45194c2.0809,1.37349,2.43483,3.10057,1.88827,4.53229a9.83291,9.83291,0,0,0-.85521,3.21961c.01633.73911,1.18157,1.7482,2.58468,2.33806.9106.38273,4.48883,2.03816,6.89233,2.87972,7.513,3.91054,16.1515,9.04021,23.2352,13.61933,10.74266,6.94439,31.81648,14.267,32.20995,24.39609.06,1.54486-4,17-30.7525,3.683-21.5581-10.73128-37.56141-18.25009-48.032-28.073-10.47067-9.82277-11.02163-12.71085-10.99876-15.23512.02272-2.52415,1.18689-8.70154,3.634-10.37256s6.65379-.46315,8.88989.7884,5.8842,3.07288,5.8842,3.07288c-.45775-.64606-.01274-3.25589.71063-3.82395C91.89141,199.90852,93.79615,198.07861,95.87717,199.45194Z"/><path class="cls-6" d="M109.80366,321.81331a7.60306,7.60306,0,0,0,2.59844-1.81164c1.70449-1.57125,32.4468-25.58474,32.4468-25.58474a5.26287,5.26287,0,0,1,5.5002.20619c6.09809,4.386,6.81394,5.54229,8.72167,10.7452,3.09507,8.44082,3.28834,18.26793-3.28047,25.10267-.02692.028-3.38952,2.101-3.42218,2.12581-.7842.599-29.16433,21.02129-30.237,21.58459a13.33986,13.33986,0,0,1-12.43545-1.269c-5.89184-3.7077-19.37727-21.47482-19.37727-21.47482s-3.04443-6.54746-.27811-8.97445S94.238,319.36275,97.67,319.299,109.80366,321.81331,109.80366,321.81331Z"/><path class="cls-6" d="M223.25382,317.3174c-1.83372-12.6714-13.89686-14.90993-18.451-16.42324-9.7681-3.24587-14.09689,9.18568-17.19946,15.73995a2.33621,2.33621,0,0,1-.11035.51536c-.4351,1.30939-13.76415,34.54551-14.48806,37.97459-.72408,3.429-1.47323,2.14146-3.1977,2.33007a23.66378,23.66378,0,0,0-13.76838,7.67989c-5.39658,6.03061,4.24819,10.13561,4.91359,10.63365.6652.498,21.65806,8.16619,24.81631,8.24629s10.72132.03151,13.48-5.1447c2.75851-5.17627,15.06327-33.87152,15.06327-33.87152S224.13951,323.43773,223.25382,317.3174Z"/><path class="cls-6" d="M249.61848,324.35566c-.90386-2.32372-.19418-3.93754,1.0795-4.78977a9.83291,9.83291,0,0,0,2.55914-2.13262c.414-.61251.04657-2.10953-.75728-3.402-.52174-.83873-2.48434-4.25813-3.959-6.33432-3.86946-7.53426-7.95243-16.71392-11.08507-24.5455-4.75074-11.87686-7.91022-35.84793-2.37537-44.34026a31.47986,31.47986,0,0,1,3.959-3.959s3.959,7.12611,13.46044,24.5455c11.53141,21.14092,20.09736,36.6063,22.96192,50.67458,2.86475,14.06822,1.64463,16.74328.16663,18.78972-1.47781,2.04644-5.999,6.41384-8.96178,6.36258s-5.69691-3.46881-6.7979-5.78276-2.2212-5.02168-2.2212-5.02168-2.67541,1.77657-3.59405,1.82187C253.13462,326.28738,250.52254,326.67932,249.61848,324.35566Z"/><path class="cls-6" d="M282.18344,117.60907C269.25151,94.18474,247.2546,80.8897,227.27985,76.16226c3.96762-14.28217,8.84446-32.91768,9.78644-41.39475,1.63627-14.71882,4.49973-25.85739-3.27253-31.42668s-14.1104-3.18245-15.85053,0C216.2039,6.52328,207.10137,61.1513,207.1533,66.65648a58.08813,58.08813,0,0,1-.6887,7.16129c-4.53329-.07537-9.22157.07692-13.98176.44442a63.05018,63.05018,0,0,1-.74623-7.60571c.05113-5.50519-9.05139-60.13321-10.79073-63.31565-1.74013-3.18245-8.07826-5.56929-15.85053,0s-4.9088,16.70786-3.27253,31.42668c.96434,8.67015,6.04332,27.96491,10.05568,42.36207a149.12565,149.12565,0,0,0-23.88085,6.79883c-22.05443,8.4864-42.7802,40.57622-43.57756,56.22313-.79656,15.64691-10.62854,58.07969,26.70437,89.10856,0,0,10.762,11.13857,25.907,14.8513,15.14585,3.71312,72.27453,6.89556,91.93769-4.243s32.683-21.74686,38.52895-43.22839C293.34329,175.15848,296.53193,143.59933,282.18344,117.60907Z"/><path class="cls-7" d="M391.83237,355.66555s-1.5,58.83333-6.5,61.83333-18,4-22,6-5,5-1,6,24,2,26,0,5-14,10-9,15,18,22,19,17-1,15-7-12-1-19-13-12,5-8-65Z"/><path class="cls-8" d="M103.33237,331.49889s-2,10,2,13,17,5,20,3,4-10,4-10Z"/><polygon class="cls-9" points="166.332 328.499 103.332 331.499 129.332 337.499 169.999 335.666 166.332 328.499"/><path class="cls-10" d="M121.45737,348.49889s10.625,3.5,12.25,2.75,36.625-1.75,36.625-1.75v-14l-41,2S128.58237,349.49889,121.45737,348.49889Z"/><path class="cls-8" d="M131.33237,350.49889s19,7,25,6,10-11,10-11l-33-7S128.33237,341.49889,131.33237,350.49889Z"/><path class="cls-10" d="M444.33237,339.49889s12,11,6,14-294,3-294,3,7-4,10-11Z"/><polygon class="cls-9" points="133.332 338.499 175.332 337.499 226.499 343.999 166.332 345.499 133.332 338.499"/><path class="cls-7" d="M174.33237,355.49889s-7,69-14,74-24,7-27,7-14,0-3,5,30,0,37-5,9-11,11-7,2,15,9,20,22,8,26,7,12-4,8-6-20,1-25-15-12.66667-39.66667-5.83333-78.83333Z"/><path class="cls-6" d="M147.83237,327.437c-2.86711-3.01813-14.90759-18.67243-14-52,.25834-9.48629,5.69072-24.25763,7-27a69.58052,69.58052,0,0,1,9.04977-13.93607h86.13929s1.91607,3.19079,4.27714,7.12611c3.21858,5.3643,3.99529,6.8895,5.54253,9.50148.7365,1.24336,2.82307,4.09813,3.16716,6.33432,1.58358,10.29328.59033,19.85459.79179,27.71266.79167,30.87983-9.49858,41.89786-10.29327,42.75668-.04557.04924-12.58707,10.62746-19.05439,13.49963-4.95294,2.19961-15.08229,2.86227-16.7084,2.91151-1.6263.04929-19.95791-.19708-19.95791-.19708s-15.06973-1.62828-21.1282-4.98344A58.57355,58.57355,0,0,1,147.83237,327.437Z"/><path class="cls-8" d="M210.83237,273.99889s-17-5-18-7,0-16,4-16,14,8,14,8Z"/><path class="cls-10" d="M206.33237,263.49889s-4,9,6,10,285,2,285,2,7-3,7-9a8.613,8.613,0,0,0-5-8l-291.5-.5Z"/><path class="cls-11" d="M490.33237,253.49889l-294-3,11,7,292,1S494.33237,253.49889,490.33237,253.49889Z"/><path class="cls-8" d="M187.33237,288.49889s7,7,8,6,9-10,8-13-5-4-9-4S187.33237,288.49889,187.33237,288.49889Z"/><path class="cls-10" d="M200.33237,282.49889l286,2s5,3,3,8,0,6-6,6-288-4-288-4Z"/><polygon class="cls-11" points="194.332 277.499 482.332 281.499 486.332 284.499 200.332 282.499 194.332 277.499"/><path class="cls-8" d="M179.33237,311.49889s8,4,10,4,3-14,1-16-8-1-9,1S178.33237,310.49889,179.33237,311.49889Z"/><path class="cls-10" d="M189.33237,303.49889l291,3s4-1,2,6-1,7-7,8-282-2-286-5S189.33237,303.49889,189.33237,303.49889Z"/><path class="cls-11" d="M185.33237,298.49889l4,5,292,3s0-3-6-4S185.33237,298.49889,185.33237,298.49889Z"/><path class="cls-8" d="M166.33237,333.49889s4,4,9,4,10-11,11-13-7-5-11-3S163.33237,328.49889,166.33237,333.49889Z"/><path class="cls-10" d="M183.33237,326.49889l284,4s7,0,7,5-5,7-7,8-284,2-292-1-7-7-7-7S180.33237,334.49889,183.33237,326.49889Z"/><path class="cls-11" d="M178.33237,320.49889s269,4,283,5,13,10,13,10,4.66667-5-21.16667-5.5-269.83333-3.5-269.83333-3.5S186.33237,324.49889,178.33237,320.49889Z"/><path class="cls-7" d="M206.126,350.37362s29.06523-51.22223,28.063-80.49208c0,0,0-7.31746,7.01574-8.36281s10.02249-1.04535,8.018,8.36281-4.009,41.81407-19.04273,65.85716-14.03149,19.86168-16.036,20.907S201.11479,356.64573,206.126,350.37362Z"/><path class="cls-7" d="M400.33237,362.49889s25,0,43-28,26-70,24-72-17-4-18,3-13,73-30,84S392.33237,355.49889,400.33237,362.49889Z"/><circle class="cls-12" cx="244.83237" cy="267.99889" r="2.5"/><circle class="cls-12" cx="239.83237" cy="290.99889" r="2.5"/><circle class="cls-12" cx="234.33237" cy="313.49889" r="3"/><circle class="cls-12" cx="459.83237" cy="270.99889" r="3.5"/><circle class="cls-12" cx="453.83237" cy="292.99889" r="3.5"/><circle class="cls-12" cx="447.33237" cy="315.49889" r="3"/><circle class="cls-12" cx="220.33237" cy="336.49889" r="3"/><circle class="cls-12" cx="435.83237" cy="336.99889" r="2.5"/></g></g></svg>