<svg xmlns="http://www.w3.org/2000/svg" viewBox="0 0 500.16665 759.65096"><defs><style>.cls-1{fill:#c5798a;opacity:0.5;}.cls-2{fill:#b3b3b3;}.cls-3{fill:#e6e6e6;}.cls-4{fill:#ccc;}.cls-5{fill:#999;}.cls-6{fill:#f2f2f2;}.cls-7{fill:#fff;}.cls-8{fill:#666;}.cls-9{fill:gray;}.cls-10{fill:#fae8f0;}</style></defs><title>資產 14</title><g id="圖層_2" data-name="圖層 2"><g id="圖層_1-2" data-name="圖層 1"><ellipse class="cls-1" cx="269.16665" cy="729.15096" rx="231" ry="30.5"/><path class="cls-2" d="M257.18422,327.48783c-.83912-2.38661-3.24779-3.51116-6.58433-3.99158l.23676-.2529-89.15-87.11148-.15847.16928a11.89877,11.89877,0,0,0-5.34065-2.41751c-8.93888-1.80863-10.17977,8.83228-7.1233,12.802s7.411-.17649,7.82451-3.7233c.41349-3.547-4.94069.11747-4.94069.11747,1.41313-3.0655,4.35454-4.146,6.88242-1.67963s4.5272,3.42953,2.34418,16.11391,1.63188,28.25815,13.44387,47.68375,40.09964,24.31086,47.03961,25.1564c6.9396.84562,22.17513-3.054,27.64437-1.6683,5.46887,1.38576,4.64189,8.47977,3.6998,10.52343-.94213,2.04348-3.47-.42286-2.52788-2.46634.94209-2.04367-1.05719-3.00667-3.9986-1.9262-2.941,1.08039-1.88422,4.08714,4.11366,6.97634C256.587,344.68221,259.82716,335.00431,257.18422,327.48783Zm-34.699-4.22747c-13.87957-1.69116-37.9853-18.29771-48.21154-33.21349s-9.629-32.11016-8.802-39.204a23.05182,23.05182,0,0,0-.53437-9.21768l83.56686,81.6562C241.32228,322.79822,231.08147,324.3077,222.48519,323.26036Z"/><path class="cls-2" d="M237.90747,256.05275l-74.03109,72.239s.02959-7.98729-4.66461-6.408-6.00715,18.50752-6.00715,18.50752,14.37387,1.01413,16.88139-.89314,2.21628-7.65933-.90333-9.26888l-3.11961-1.60956,73.71025-70.0038Z"/><path class="cls-2" d="M385.80434,223.85633c-9.46483-7.752-20.63769-13.522-29.31367-17.68324-3.54543-1.6999-11.35115-.98181-13.66585,1.91435-2.11564,2.64594-.75373,8.34271.341,12.92036l.23572.9917a20.67736,20.67736,0,0,0,3.25422,6.37764c.09388.14158.18813.28759.28236.43059l-4.9364-4.52618-.13077.62331c-2.937,14.01649-11.83406,22.371-27.2,25.54148a38.62784,38.62784,0,0,1-5.46584.585,39.0386,39.0386,0,0,0-5.577.60051c-3.38735.70012-5.65366,2.37325-6.38043,4.71051-.70641,2.27239.15189,4.826,2.41708,7.19056l.18965.19781.2419-.1278a7.9381,7.9381,0,0,1,6.66127-.39166,7.48482,7.48482,0,0,1,4.33937,4.55329c1.0268,3.05,2.17758,6.11246,3.28985,9.07407,1.42689,3.7962,2.90158,7.7219,4.12483,11.649a10.6736,10.6736,0,0,1,.14372,3.90309,10.50155,10.50155,0,0,0,.23054,4.31509c.98781,2.77637,2.18163,5.51181,3.415,8.19047-1.5458-2.72067-3.08326-5.49591-4.48548-8.29311a37.96043,37.96043,0,0,1-2.24951-6.25534c-.28451-.96324-.579-1.959-.9018-2.925l-.79121-2.36679.08466,2.49407c.0315.90867.01492,1.849-.001,2.7585a24.04821,24.04821,0,0,0,.40533,6.08751c.19768.80871.38264,1.62736.569,2.44779,1.51332,6.68232,3.07825,13.59081,11.27824,16.17979l12.04673,19.83647,11.94038,1.47567,6.10314,6.94083.66592-8.334,5.42544,9.613.13379.09977-.41424-.088a20.827,20.827,0,0,0-2.34956-.30176c-1.638-.14927-3.33128-.3037-3.927-1.11062-3.26877-4.42586-7.8158-5.09849-12.21331-5.74921-1.22232-.18085-2.48644-.368-3.69837-.63384l-2.5096-.54994,2.25927,1.22315c1.48892.80627,2.9715,1.62567,4.45407,2.44506,4.08454,2.25765,8.30883,4.59249,12.60589,6.59954a2.03394,2.03394,0,0,0,.87523.17577,8.50777,8.50777,0,0,0,2.83251-.78964,15.99821,15.99821,0,0,1,1.6891-.60344l.901-.24043,1.75873,1.31127,2.40181-1.33174L351.44375,315.499l-7.44237,3.85562,7.43672-8.03639,9.99788,21.25119,4.72521-6.24624,9.7933,11.86987,3.86088-5.009,4.45225,4.91139,4.2916-3.41467,1.21969,9.942,4.679-4.47145,1.02368,7.13307,7.06233-5.57082-1.0517,19.15652L412.566,348.35277l-.63336,8.84953.784-1.32878c8.36218-14.16884,7.83906-52.13506,1.5591-71.285,5.86676,15.65258,6.93154,31.03678,6.99755,44.69683l.7212.05294C428.88965,283.95255,417.05185,249.449,385.80434,223.85633Zm-28.36566,66.971,4.90765,16.93863-6.40894-8.4409-.79471.527-.89082-.96159q-.6777-.72914-1.35257-1.4597Zm.08518-13.54341,4.20407-8.01489,4.36892,6.574,2.83346-11.42947,1.33714.20887-1.68693,10.82785c-1.47632.44527-2.76.87727-3.89865,1.26107a24.53079,24.53079,0,0,1-6.07167,1.5485c-1.57216.10235-4.24318-.94154-4.82443-2.15188a20.61337,20.61337,0,0,1-1.44721-6.07123c-.14445-1.02878-.29394-2.09225-.50379-3.20833l-.06324-.33734-.34057.04484a13.762,13.762,0,0,1-4.7277.09177l7.29347-6.53226,1.014,16.65982Zm-12.09729-11.29982c-1.44494-1.30787-1.60244-4.54087-1.39994-10.85066l.02222-.69-6.515,4.1846L336.4,253.196l.43316-.12088,1.88282,3.97842,6.14157-5.81836,1.39839,15.25173A2.66347,2.66347,0,0,1,345.42656,265.98413Zm.28419,24.66177,3.72777-6.82364,1.18741.108,1.17723,12.31179c-.86242-.93759-1.72555-1.87518-2.6-2.80175-.5974-.63373-1.23934-1.2376-1.86069-1.82133-.28121-.2645-.56241-.52865-.84008-.79634l-.23222-.2232-6.62146,5.42017-.03858-.12066Zm23.49571,1.21987a55.70381,55.70381,0,0,1-.35276-7.33675l6.45749,19.31647,2.8485-.3778L379.67188,289.84l5.73836,22.12118.01217.04636-4.5621-7.02964-2.68091,2.89219-5.54194-6.07609-7.84014,9.20052-.40518-.53332C370.38909,304.60182,369.81491,298.41277,369.20646,291.86576Zm27.71636,2.73308-.8213,2.21745c-1.34586,3.6369-2.73742,7.39753-4.18231,11.08109-.63311,1.61488-1.35758,3.22966-2.27427,5.27419-.42244.94036-.88853,1.98-1.41229,3.16677l-2.66656-4.10876,3.82009.069,5.46892-24.31256ZM334.3684,278.25678l4.34008-1.46625L338.753,293.232c-.49859-1.54843-1.0178-3.12655-1.5886-4.6638-.37959-1.02354-.87106-2.03757-1.34616-3.01835a16.92193,16.92193,0,0,1-1.93567-5.4466,94.46,94.46,0,0,1-.24819-11.35915c.02584-1.44572.05368-2.93679.05394-4.409l1.71845.03785ZM412.782,304.3504l-1.32924-3.57264-9.02294,21.79139-2.86768-.4282-1.37608-20.88,3.16706,16.83178,2.2807.76624,7.22924-24.50927,2.41509,9.85805ZM325.58946,288.659l5.97852-1.68212-.91326,19.01449-.00338.05951c-1.38216-1.66361-1.39148-4.84743-1.20045-7.80336.034-.5253.09275-1.06094.15221-1.59694C329.94114,293.57456,330.32343,290.09964,325.58946,288.659Zm13.34183,14.98106,2.28327,13.49734-4.91664-10.3131-.2902.07657c-2.2501.59328-3.86187.456-4.926-.42015-.03124-.02577-.06176-.05189-.09158-.07873Zm-14.94046-19.94693c1.67936-4.46121.44537-8.43183-.7486-12.27151-.88887-2.85774-1.7363-5.58455-1.50269-8.51226L323.327,270.014l3.45929-1.07607-1.801,19.45179a2.489,2.489,0,0,1-.3414-.52287A6.69853,6.69853,0,0,1,323.99083,283.69314Zm66.214-16.45323a60.71046,60.71046,0,0,1-5.47453-6.55261c-.80681-1.06346-1.64133-2.16333-2.49416-3.21782-.25229-.31168-.51466-.68389-.78343-1.06424-.84826-1.20112-1.725-2.44289-2.68117-2.4403l-.02691.00043c-7.02447.19077-10.467-4.31006-14.08515-9.0739-.57791-.76057-1.15653-1.52221-1.7514-2.26468a27.4209,27.4209,0,0,0-3.90547-3.87839c-.67016-.56041-1.35376-1.11387-2.03311-1.67053l-.02117-7.822c.64357,1.20521,1.26807,2.42819,1.8776,3.62145,4.051,7.92916,8.24017,16.12851,18.40316,20.39264l.58573.246-1.284-9.355,14.57661,23.55974A1.992,1.992,0,0,1,390.20487,267.2399Zm16.45662,6.47649-.28632-.06191-1.97427,4.3678-8.5141-11.34918-.27443.147a6.95833,6.95833,0,0,1-4.28483.94107l2.309-1.07278.95127-6.015,9.50511,15.30841,1.15543-9.35455a93.8026,93.8026,0,0,1,6.63184,12.15714C410.29444,275.82741,408.5442,274.12256,406.66149,273.7164Z"/><path class="cls-3" d="M387.98024,223.85044c-9.46554-7.7523-20.6384-13.52239-29.31438-17.68324-3.544-1.69885-11.34832-.98217-13.66514,1.91435-2.11564,2.64594-.75373,8.34271.341,12.92036l.23572.9917a20.67736,20.67736,0,0,0,3.25422,6.37764c.09388.14123.18741.28671.28165.42936l-4.46562-4.0945a.36278.36278,0,0,0-.60012.19287c-2.93838,14.01684-11.83618,22.37132-27.2007,25.54149a38.62785,38.62785,0,0,1-5.46584.585,39.03861,39.03861,0,0,0-5.577.60051c-3.38735.70012-5.65295,2.37325-6.37972,4.71086-.70712,2.272.15118,4.82564,2.41637,7.19021a.36288.36288,0,0,0,.43155.07,7.9381,7.9381,0,0,1,6.66127-.39166,7.48482,7.48482,0,0,1,4.33937,4.5533c1.0268,3.05144,2.1783,6.11565,3.292,9.07867,1.42617,3.79479,2.90015,7.71872,4.1234,11.64438a10.68763,10.68763,0,0,1,.143,3.90274,10.5053,10.5053,0,0,0,.23055,4.3158c.9871,2.77531,2.1802,5.50933,3.41282,8.18694-1.54509-2.71961-3.08183-5.49379-4.48335-8.28993a38.03947,38.03947,0,0,1-2.25022-6.25641c-.28451-.96253-.57832-1.958-.90109-2.92393a.35766.35766,0,0,0-.40793-.24185.3627.3627,0,0,0-.29861.36913c.0315.90867.01492,1.849-.001,2.7585a24.04926,24.04926,0,0,0,.40533,6.08751c.19768.80871.38264,1.62736.569,2.44779,1.51332,6.68232,3.07825,13.59081,11.27824,16.17979l11.95566,19.6862a.36173.36173,0,0,0,.26537.17175l11.76679,1.45419,5.53688,6.29745a.36223.36223,0,0,0,.63336-.21066l.59811-7.47992,5.42544,9.613a.36535.36535,0,0,0,.10231.11482l2.10783,1.53663a.36442.36442,0,0,0,.38963.02409l1.88764-1.04667a.36267.36267,0,0,0,.14388-.48806l-15.40946-28.88166a.36046.36046,0,0,0-.48631-.151l-7.12479,3.69079,7.43672-8.03639,9.74213,20.70826a.36251.36251,0,0,0,.291.20639.35322.35322,0,0,0,.32615-.14184l4.36385-5.76751,9.50407,11.519a.40535.40535,0,0,0,.2858.13168.36265.36265,0,0,0,.28152-.14136l3.58279-4.64875,4.2242,4.6595a.36409.36409,0,0,0,.49451.0401l4.02514-3.20288,1.132,9.22476a.36251.36251,0,0,0,.61044.21792l4.15622-3.97245.93417,6.51035a.36277.36277,0,0,0,.58357.23322l6.56828-5.181-.99432,18.11516a.36288.36288,0,0,0,.63393.26036l10.38248-11.73641-.52349,7.31043a.36273.36273,0,0,0,.67417.21031c8.36218-14.16911,7.83906-52.13418,1.55946-71.28406,5.86641,15.65214,6.93119,31.036,6.99719,44.69585a.36286.36286,0,0,0,.336.36q.01381.001.02763.001a.36267.36267,0,0,0,.35757-.308C431.06555,283.94666,419.22775,249.44307,387.98024,223.85044ZM399.098,294.593l-.82059,2.21745c-1.34586,3.6369-2.73742,7.39753-4.18231,11.08109-.63452,1.617-1.3597,3.23427-2.2785,5.28234-.421.93823-.88641,1.97539-1.40877,3.159l-2.74338-4.2279-.00071-.00177a.36041.36041,0,0,0,.266.12394l3.33629.06039a.38665.38665,0,0,0,.36047-.28324l5.40454-24.02375Zm-66.26509,11.45875c-1.38782-1.66147-1.39716-4.85025-1.20613-7.81042.034-.5253.09275-1.06059.15222-1.59658.338-3.076.721-6.551-4.01364-7.99159l5.97852-1.68212-.91326,19.01484A.33983.33983,0,0,0,332.83292,306.05171Zm37.9235-30.60727c-1.47632.44527-2.76.87727-3.89865,1.26107a24.53078,24.53078,0,0,1-6.07167,1.5485c-1.57075.10235-4.24247-.94155-4.82443-2.15188a20.59193,20.59193,0,0,1-1.4465-6.07088c-.14515-1.02878-.29465-2.0926-.5045-3.20868a.362.362,0,0,0-.35637-.29546.43691.43691,0,0,0-.04745.003,13.172,13.172,0,0,1-4.83757.06267.4039.4039,0,0,0,.24695-.09239l7.15638-6.41042.99772,16.38362a.36209.36209,0,0,0,.28706.33248l1.97305.4154a.35884.35884,0,0,0,.39615-.18629l4.07723-7.7723,3.913,5.88819a.3628.3628,0,0,0,.65417-.11333l2.63518-10.63,1.33643.20888Zm-23.154-9.4662C346.15752,264.67,346,261.437,346.20253,255.12758a.363.363,0,0,0-.559-.31687l-5.9338,3.81152-1.13382-5.43212.43316-.12052,1.6691,3.52568a.361.361,0,0,0,.26049.20152.36557.36557,0,0,0,.31636-.09329l5.77843-5.4742,1.37938,15.034a.36154.36154,0,0,0,.1608.26872A2.71979,2.71979,0,0,1,347.60247,265.97824ZM336.58532,277.705a.36247.36247,0,0,0,.47769.37057l3.82136-1.291.04449,16.4411c-.49859-1.54843-1.01709-3.12619-1.5886-4.66344-.37959-1.02354-.87106-2.03757-1.34616-3.0187a16.951,16.951,0,0,1-1.93567-5.44625,94.46,94.46,0,0,1-.24819-11.35915c.02584-1.44572.05368-2.93679.05394-4.409l1.71775.03785Zm5.23931,18.30866-.03857-.12031,6.1006-5.25337a.35561.35561,0,0,0,.08189-.10186l3.64588-6.72178,1.18741.108,1.17723,12.31179c-.86242-.93794-1.72555-1.87518-2.6-2.80211-.59456-.63055-1.23366-1.23159-1.85217-1.81286-.284-.267-.56809-.53394-.8486-.80411a.36213.36213,0,0,0-.481-.01959Zm17.78995-5.19222,4.90766,16.939-6.20279-8.17053a.3632.3632,0,0,0-.48966-.083l-.51119.33925-.93273-1.00646q-.65532-.70636-1.30995-1.41449Zm11.76779,1.03841a55.7064,55.7064,0,0,1-.35276-7.3371l6.36323,19.033a.36752.36752,0,0,0,.39165.24472l2.27-.30151a.36251.36251,0,0,0,.31292-.31923l1.48037-13.34567,5.73765,22.12119a.41163.41163,0,0,0,.02141.06086l-4.31743-6.65313a.36164.36164,0,0,0-.27314-.16394c-.01063-.001-.02125-.00136-.03188-.00133a.36167.36167,0,0,0-.26459.11617l-2.36451,2.55028-5.26488-5.77227a.43723.43723,0,0,0-.27373-.11825.36389.36389,0,0,0-.27023.12752l-7.57325,8.88743-.40518-.53332C372.565,304.59593,371.99081,298.40688,371.38237,291.85988Zm-27.9919,25.27128-4.787-10.04182a.36314.36314,0,0,0-.32851-.20664.36741.36741,0,0,0-.09134.01193c-2.25364.59293-3.86329.45562-4.926-.42015-.04543-.03706-.08874-.07519-.13206-.11474a.36663.36663,0,0,0,.18625-.014l7.79537-2.7116Zm-16.22008-28.73709a2.45611,2.45611,0,0,1-.35064-.53276,6.69434,6.69434,0,0,1-.653-4.17406c1.67936-4.46121.44537-8.43183-.7486-12.27151-.88887-2.85809-1.7363-5.58455-1.50269-8.513l1.50209,6.72131a.36268.36268,0,0,0,.46183.2672l3.08208-.95924-1.79341,19.3774A.338.338,0,0,0,327.17039,288.39406Zm73.19085,12.85923,3.129,16.6247a.36129.36129,0,0,0,.24086.27665l1.722.57863a.36274.36274,0,0,0,.46329-.24137l7.12255-24.1481,2.41509,9.85805-.49614.14265-1.00746-2.70726a.36247.36247,0,0,0-.33283-.236.37689.37689,0,0,0-.34221.224l-8.66968,20.938-2.86838-.4282Zm8.47544-27.54278a.36482.36482,0,0,0-.40672.20509l-1.85317,4.1008-8.32714-11.1a.36438.36438,0,0,0-.46138-.10216c-2.19045,1.175-4.46576,1.35114-5.40749.41978a60.71045,60.71045,0,0,1-5.47453-6.55261c-.80681-1.06346-1.64133-2.16333-2.49416-3.21782-.25229-.31133-.51466-.68354-.78272-1.06353-.849-1.20147-1.72567-2.44359-2.68188-2.441l-.02691.00043c-7.04784.19084-10.46769-4.31041-14.08586-9.07425-.5772-.76058-1.15583-1.52221-1.75069-2.26468a27.42021,27.42021,0,0,0-3.90547-3.878c-.67016-.56041-1.35375-1.11378-2.03311-1.67053l-.02117-7.822c.64357,1.20521,1.26807,2.42819,1.8776,3.62145,4.051,7.92916,8.24017,16.12851,18.40316,20.39264a.36206.36206,0,0,0,.499-.38384l-1.19727-8.72522,14.47594,23.39658a.36257.36257,0,0,0,.46077.13829l1.9935-.92584a.362.362,0,0,0,.20538-.27219l.92133-5.82478,8.963,14.43583a.36274.36274,0,0,0,.66824-.147l1.02928-8.3346a93.816,93.816,0,0,1,6.634,12.16121C412.47105,275.82312,410.72011,274.11685,408.83668,273.71051Z"/><path class="cls-3" d="M364.28679,344.56152a20.81849,20.81849,0,0,0-2.35027-.30175c-1.638-.14927-3.33128-.3037-3.927-1.11062-3.26877-4.42586-7.8158-5.09849-12.21331-5.74921-1.22232-.18085-2.48644-.368-3.69837-.63384a.36273.36273,0,0,0-.25034.67321c1.48892.80627,2.9715,1.62567,4.45407,2.44506,4.08454,2.25765,8.30883,4.59249,12.60589,6.59954a2.03394,2.03394,0,0,0,.87523.17577,8.50661,8.50661,0,0,0,2.83251-.78928,15.95716,15.95716,0,0,1,1.6898-.6038.36265.36265,0,0,0-.0182-.70507Z"/><path class="cls-2" d="M177.03253,293.87261c1.08752-2.06441,2.66336-2.55306,4.047-2.17587a9.202,9.202,0,0,0,3.07717.5c.68683-.08326,1.51929-1.26137,1.93944-2.6224.27259-.88328,1.48481-4.36812,2.04723-6.684,2.95009-7.35695,6.93191-15.8743,10.54417-22.893,5.47812-10.64407,20.479-27.58393,29.87605-28.88306a29.46011,29.46011,0,0,1,5.2266.36866s-2.60676,7.16978-9.08679,24.57156c-7.86445,21.11956-13.53765,36.66138-21.72161,47.31708-8.1838,10.65581-10.82274,11.43485-13.17569,11.646s-8.213-.30412-9.99458-2.42923-1.044-6.154-.08434-8.35174,2.32-5.7629,2.32-5.7629c-.55953.48579-3.031.31167-3.62667-.3097S175.94516,295.93712,177.03253,293.87261Z"/><path class="cls-2" d="M212.08831,352.80958a7.11525,7.11525,0,0,0,.2766-2.95147c-.09208-2.16752,1.33743-38.64614,1.33743-38.64614a4.9252,4.9252,0,0,1,3.4723-3.80463c6.81975-1.70494,8.07852-1.51735,12.94868.26507,7.90105,2.89159,15.03824,8.69424,15.9499,17.51867.00374.03616-.54814,3.69151-.55013,3.72987-.04613.92235-2.61318,33.54247-2.85921,34.6493a12.484,12.484,0,0,1-8.424,8.1166c-6.21049,1.96766-27.05534.86084-27.05534.86084s-6.51785-1.78319-6.57936-5.22659.32274-4.87305,2.352-7.36335S212.08831,352.80958,212.08831,352.80958Z"/><path class="cls-2" d="M295.05445,313.1c-5.676-10.55223-16.9995-8.65149-21.48869-8.52138-9.62882.27907-9.44761,12.59682-10.07328,19.35417a2.18632,2.18632,0,0,1,.06827.48848c.03741,1.29072-1.02189,34.78572-.55858,38.03263.46312,3.24687-.60843,2.35519-2.064,3.07407a22.14552,22.14552,0,0,0-9.64172,11.16761c-2.81042,7.03268,6.98549,7.54848,7.73022,7.77294.74455.22451,21.66012.23348,24.46246-.709s9.436-3.41075,10.20127-8.84627c.76511-5.43551,2.38019-34.60981,2.38019-34.60981S297.796,318.19673,295.05445,313.1Z"/><path class="cls-4" d="M211.11375,320.67855c-9.21811-12.79579-13-15.79916-13-47,0-12,4.77473-23.43358,6-26,3.49492-7.3208,10.32489-13.25865,10.32489-13.25865h80.61262s1.79314,2.98607,4.00272,6.6689c3.01208,5.02013,3.739,6.44748,5.18693,8.89187.68925,1.16358,2.64195,3.8352,2.964,5.92791,1.482,9.63286.55246,18.58072.741,25.93462.74088,28.89859-8.88916,39.2097-9.63286,40.01342-.04264.04608-11.77949,9.9456-17.83186,12.6335-4.63516,2.05848-14.11462,2.67862-15.63639,2.72471-1.522.04613-18.67742-.18443-18.67742-.18443s-14.10286-1.52381-19.77262-4.6637C221.61914,329.72209,215.31742,326.51372,211.11375,320.67855Z"/><path class="cls-2" d="M304.96839,325.06042c-.84587-2.17463-.18172-3.68491,1.01024-4.48246a9.202,9.202,0,0,0,2.395-1.99579c.38741-.57321.04358-1.97419-.70869-3.18373-.48826-.78492-2.32495-3.98493-3.70495-5.92791-3.62119-7.05086-7.44221-15.64156-10.37385-22.97067-4.44594-11.11484-7.40271-33.54793-2.223-41.4954a29.46011,29.46011,0,0,1,3.70495-3.70495s3.70495,6.6689,12.59682,22.97067c10.79156,19.78453,18.80792,34.25765,21.48869,47.42331,2.68095,13.16561,1.53911,15.669.15594,17.58418-1.383,1.91514-5.61412,6.00233-8.3868,5.95436s-5.3314-3.24625-6.36175-5.41174-2.07869-4.69949-2.07869-4.69949-2.50376,1.66259-3.36346,1.705C308.25893,326.8682,305.81444,327.235,304.96839,325.06042Z"/><path class="cls-2" d="M338.25151,125.02776c-12.10222-21.92143-32.68782-34.36346-51.381-38.78759,3.71306-13.36583,8.277-30.80568,9.15854-38.73887,1.53128-13.77447,4.211-24.19839-3.06257-29.41035s-13.20508-2.97826-14.83356,0c-1.62774,2.97826-10.14625,54.10136-10.09765,59.25334a54.36118,54.36118,0,0,1-.64451,6.70182c-4.24243-.07053-8.62992.072-13.0847.41591a59.00491,59.00491,0,0,1-.69835-7.11773c.04785-5.152-8.47066-56.27507-10.0984-59.25334-1.62848-2.97826-7.56-5.212-14.83356,0s-4.59385,15.63588-3.06257,29.41035c.90247,8.11388,5.65558,26.17069,9.41051,39.64413a139.55777,139.55777,0,0,0-22.34866,6.36262c-20.63943,7.94191-40.03543,37.97286-40.78164,52.61587-.74545,14.643-9.94661,54.35331,24.991,83.39137,0,0,10.07148,10.42392,24.24482,13.89844,14.17409,3.47488,67.63741,6.45315,86.039-3.97078s30.586-20.35159,36.05694-40.45487C348.69534,178.88481,351.6794,149.35049,338.25151,125.02776Z"/><path class="cls-4" d="M337.44028,120.1604c-12.10222-21.92143-32.68782-34.36346-51.381-38.78759,3.71306-13.36583,8.277-30.80568,9.15854-38.73887,1.53128-13.77447,4.211-24.19839-3.06257-29.41035s-13.20508-2.97826-14.83356,0c-1.62774,2.97826-10.14625,54.10136-10.09765,59.25334a54.3612,54.3612,0,0,1-.64451,6.70182c-4.24243-.07053-8.62992.072-13.0847.41591a59.00489,59.00489,0,0,1-.69835-7.11773c.04785-5.152-8.47066-56.27507-10.0984-59.25334-1.62848-2.97826-7.56-5.212-14.83356,0s-4.59385,15.63588-3.06257,29.41035c.90247,8.11388,5.65558,26.17069,9.41051,39.64413a139.55777,139.55777,0,0,0-22.34866,6.36262c-20.63943,7.94191-40.03543,37.97286-40.78164,52.61587-.74545,14.643-9.94661,54.35331,24.991,83.39137,0,0,10.07148,10.42392,24.24482,13.89844,14.17409,3.47488,67.63741,6.45315,86.039-3.97078s30.586-20.35159,36.05694-40.45487C347.88411,174.01745,350.86817,144.48313,337.44028,120.1604Z"/><ellipse class="cls-2" cx="200.54993" cy="166.01049" rx="9.03233" ry="4.51616"/><ellipse class="cls-2" cx="276.74156" cy="166.01049" rx="9.03233" ry="4.51616"/><path class="cls-2" d="M208.34288,169.72993s-4.86418,5.05488-2.1426,9.36089,7.8926,6.92706,14.96872,7.86314,31.29823,2.05939,38.91867-1.31052,11.975-10.85863,8.70907-15.91351-19.32326-11.23306-29.93744-10.67141S213.78605,163.739,208.34288,169.72993Z"/><circle class="cls-5" cx="200.73702" cy="151.43708" r="9.03233"/><circle class="cls-5" cx="276.24728" cy="151.43708" r="9.03233"/><ellipse class="cls-3" cx="198.85857" cy="165.16481" rx="9.03233" ry="4.51616"/><ellipse class="cls-3" cx="275.0502" cy="165.16481" rx="9.03233" ry="4.51616"/><path class="cls-3" d="M206.65152,168.88425s-4.86418,5.05488-2.1426,9.36089,7.8926,6.92706,14.96872,7.86314,31.29823,2.05939,38.91867-1.31052,11.975-10.85863,8.70907-15.91351-19.32326-11.23306-29.93744-10.67141S212.09469,162.89328,206.65152,168.88425Z"/><circle class="cls-3" cx="199.04565" cy="150.5914" r="9.03233"/><circle class="cls-3" cx="274.55592" cy="150.5914" r="9.03233"/><path class="cls-4" d="M308.2133,322.62674c-.84587-2.17463-.18172-3.68491,1.01024-4.48246a9.202,9.202,0,0,0,2.395-1.99579c.38741-.57321.04358-1.97419-.70869-3.18373-.48826-.78492-2.32495-3.98493-3.70495-5.92791-3.62119-7.05086-7.44221-15.64156-10.37385-22.97067-4.44594-11.11484-7.40271-33.54793-2.223-41.4954a29.46011,29.46011,0,0,1,3.70495-3.70495s3.70495,6.6689,12.59682,22.97067c10.79156,19.78453,18.80792,34.25765,21.48869,47.42331,2.68095,13.16561,1.53912,15.669.15594,17.58418-1.383,1.91514-5.61412,6.00233-8.3868,5.95436s-5.3314-3.24625-6.36175-5.41174-2.07869-4.69949-2.07869-4.69949-2.50376,1.66259-3.36346,1.705C311.50384,324.43452,309.05935,324.80131,308.2133,322.62674Z"/><path class="cls-4" d="M297.48814,313.1c-5.676-10.55223-16.9995-8.65149-21.48869-8.52138-9.62882.27907-9.44761,12.59682-10.07328,19.35417a2.18632,2.18632,0,0,1,.06827.48848c.03741,1.29072-1.02189,34.78572-.55858,38.03263.46312,3.24687-.60843,2.35519-2.064,3.07407a22.14552,22.14552,0,0,0-9.64172,11.16761c-2.81042,7.03268,6.98549,7.54848,7.73022,7.77294.74455.22451,21.66012.23348,24.46246-.709s9.436-3.41075,10.20127-8.84627c.76511-5.43551,2.38019-34.60981,2.38019-34.60981S300.22967,318.19673,297.48814,313.1Z"/><path class="cls-5" d="M257.587,173.9675c-1.345.41354-9.49686,1.49035-11.35619.10606-1.8924-1.40885-4.01038-4.93262-4.66634-8.2209a5.19556,5.19556,0,0,0,2.79434-1.46441c1.89814-2.06807,3.2152-7.54168,2.04569-9.223-1.1697-1.68138-14.45632-3.18539-13.87226,2.64273,0,0,0,4.3241,2.77414,6.58023a7.40253,7.40253,0,0,0,3.65428,1.54422c-.67437,3.26521-2.77314,6.74362-4.6503,8.14109-1.85992,1.38637-10.01121.30748-11.3552-.10606a1.08594,1.08594,0,0,0-1.21407,1.77179c.47077.43849,4.55266,1.17287,8.28022,1.17287,2.31525,0,4.49364-.28371,5.5859-1.09642a16.12323,16.12323,0,0,0,4.66337-6.70461,16.12143,16.12143,0,0,0,4.66337,6.70461c1.09226.81321,3.27066,1.09642,5.58649,1.09642,3.727,0,7.80925-.73438,8.28022-1.17287a1.08586,1.08586,0,0,0-1.21367-1.77179Z"/><path class="cls-6" d="M255.89567,173.12181c-1.345.41354-9.49686,1.49035-11.35619.10606-1.8924-1.40885-4.01038-4.93262-4.66634-8.2209a5.19556,5.19556,0,0,0,2.79434-1.46441c1.89814-2.06807,3.2152-7.54168,2.04569-9.223-1.1697-1.68138-14.45632-3.18539-13.87226,2.64273,0,0,0,4.3241,2.77414,6.58023a7.40253,7.40253,0,0,0,3.65428,1.54422c-.67437,3.26521-2.77314,6.74362-4.6503,8.14109-1.85992,1.38637-10.01121.30748-11.3552-.10606a1.08594,1.08594,0,0,0-1.21407,1.77179c.47077.43849,4.55266,1.17287,8.28022,1.17287,2.31525,0,4.49364-.28371,5.5859-1.09642a16.12323,16.12323,0,0,0,4.66337-6.70461,16.12143,16.12143,0,0,0,4.66337,6.70461c1.09226.81321,3.27066,1.09642,5.58649,1.09642,3.727,0,7.80925-.73438,8.28022-1.17287a1.08586,1.08586,0,0,0-1.21367-1.77179Z"/><path class="cls-2" d="M212.99927,304.16676s7.29421,9.15828,18.23552,10.86026,23.5846-2.26931,27.47485-10.86026,7.05107-33.87754-8.02363-43.84629-29.66311-2.91768-32.33765,0S208.86589,271.01864,209.109,281.96,210.56787,299.14186,212.99927,304.16676Z"/><path class="cls-3" d="M210.46223,304.16676s7.29421,9.15828,18.23552,10.86026,23.5846-2.26931,27.47485-10.86026,7.05107-33.87754-8.02363-43.84629-29.66311-2.91768-32.33765,0S206.32884,271.01864,206.572,281.96,208.03083,299.14186,210.46223,304.16676Z"/><path class="cls-4" d="M191.12418,389.1915s-12.68523-13.43024-5.91978-17.5177,45.244-4.37943,73.99719-4.37943,63.42616,5.25531,71.0373,11.09455-1.69136,8.17493-1.69136,8.17493,1.69136,5.25531-2.537,7.591-10.14819,2.33569-10.14819,2.33569,7.61114,161.74679,8.45682,164.08248,4.22841,2.91962,4.22841,2.91962L180.55315,562.3248s9.3025-5.25531,10.14819-12.84632S191.12418,389.1915,191.12418,389.1915Z"/><path class="cls-2" d="M186.47292,378.97284s60.04344-4.67139,83.72254-3.50354,48.20389,2.91962,53.278,6.42316,2.537,3.50354,2.537,3.50354-7.61114-8.75885-65.96321-8.17493-72.72867,2.91962-72.72867,2.91962Z"/><path class="cls-2" d="M191.547,384.22816s0,.58392,1.69136.58392,93.025-2.33569,105.71027,0,23.6791,2.91962,21.98774,5.83923,1.69136,2.91962,2.537,1.16785,5.91978-1.16785.84568-3.50354-40.59275-9.9267-109.93869-6.42316C214.38044,381.89246,183.0902,381.89246,191.547,384.22816Z"/><path class="cls-2" d="M244.825,392.987s49.89525,1.75177,55.815,4.67139,10.14819,4.08746,10.14819,6.42316.84568,29.78009.84568,29.78009,4.22841-36.20325,0-37.955-39.74706-5.83923-67.65458-3.50354S244.825,392.987,244.825,392.987Z"/><path class="cls-2" d="M195.77543,542.4714c.80228,1.66188,30.44456,0,37.21,2.91962s5.91978,12.26239,3.38273,12.84632-42.28411,1.75177-44.82116,2.33569,122.62392.58392,126.00665.58392,3.38273.58392,2.537-4.67139.84568-14.59809-.84568-16.93378-93.87072-2.91962-104.86459-2.33569-15.22228-1.16785-18.605,0,21.14206,1.75177,27.90751,2.33569,12.68523,0,8.45682,1.16785S194.92975,540.71963,195.77543,542.4714Z"/><path class="cls-2" d="M73.26923,617.00313a1.6831,1.6831,0,0,0-.49249-2.18521,4.486,4.486,0,0,1-1.16754-.973c-.18887-.27944-.02125-.96242.34549-1.55208.238-.38265,1.13342-1.94267,1.80617-2.88987,1.76534-3.43731,3.62809-7.6253,5.05728-11.19826,2.16741-5.41851,3.60884-16.3547,1.0837-20.22911a14.36188,14.36188,0,0,0-1.80617-1.80617s-1.80617,3.25111-6.141,11.19826c-5.26091,9.645-9.16891,16.70069-10.47579,23.119s-.75032,7.63869-.076,8.57233,2.7369,2.92615,4.08859,2.90277,2.59907-1.58256,3.10137-2.63823,1.37994-2.69588,1.37994-2.69588a2.05634,2.05634,0,0,0,1.27312,1.23605C71.66508,617.88443,72.85677,618.06324,73.26923,617.00313Z"/><path class="cls-2" d="M77.37658,630.53522s.95281.43871.90783-.618.652-18.84009.652-18.84009a2.401,2.401,0,0,1,1.69276-1.85476c3.32465-.83116,3.9383-.73971,6.31251.12922,3.85178,1.40966,7.33118,4.23846,7.77562,8.5404.00182.01763-.26722,1.79962-.26819,1.81832-.02249.44965-1.27393,16.352-1.39387,16.89162a6.086,6.086,0,0,1-4.10675,3.95686c-3.02763.95924-13.01685-1.71522-13.01685-1.71522S73.433,637.6324,73.403,635.95373a7.756,7.756,0,0,1,1.80617-4.696A1.906,1.906,0,0,1,77.37658,630.53522Z"/><path class="cls-2" d="M119.7822,604.05042c-2.76707-5.14424-8.2873-4.21762-10.47579-4.15419-4.69407.136-4.60574,6.141-4.91075,9.43521a1.06584,1.06584,0,0,1,.03328.23814c.01824.62923-.49817,16.95813-.27231,18.541s-1.92974-.64258-3.29983,2.78588,1.80435,6.39279,2.16741,6.50222,9.75371,1.55792,11.11985,1.09846,4.60006-1.66275,4.97314-4.31258,1.16035-16.87237,1.16035-16.87237S121.11871,606.5351,119.7822,604.05042Z"/><path class="cls-2" d="M78.7558,615.59259c-3.84124-5.31358-4.44823-10.16315-5.53193-25.335a10.30363,10.30363,0,0,1,.36123-4.696c.42606-1.769,2.65378-5.25108,3.25111-6.50222,1.70378-3.56891,2.45914-5.41851,2.45914-5.41851h39.29886s.87416,1.45572,1.95133,3.25111c1.4684,2.44733,1.82275,3.14316,2.52864,4.33481a9.60824,9.60824,0,0,1,1.44494,2.88987c.72247,4.696.26932,9.05815.36123,12.6432.36118,14.08814-4.33349,19.11483-4.696,19.50665-.02079.02247-5.74253,4.84851-8.69308,6.15886-2.25965,1.00351-6.88091,1.30584-7.62278,1.3283s-9.10529-.08991-9.10529-.08991-6.87518-.74286-9.6392-2.27357A18.71,18.71,0,0,1,78.7558,615.59259Z"/><path class="cls-2" d="M125.01075,616.6419a1.6831,1.6831,0,0,1,.49249-2.18521,4.486,4.486,0,0,0,1.16754-.973c.18887-.27944.02125-.96242-.34549-1.55208-.238-.38265-1.13342-1.94267-1.80617-2.88987-1.76534-3.43731-3.62809-7.6253-5.05728-11.19826-2.16741-5.41851-3.60884-16.3547-1.0837-20.22911a14.36188,14.36188,0,0,1,1.80617-1.80617s1.80617,3.25111,6.141,11.19826c5.26091,9.645,9.16891,16.70069,10.47579,23.119s.75032,7.63869.076,8.57233-2.7369,2.92615-4.08859,2.90277-2.59907-1.58256-3.10137-2.63823-1.01337-2.291-1.01337-2.291a6.45808,6.45808,0,0,1-1.6397.83118C126.61489,617.52319,125.4232,617.702,125.01075,616.6419Z"/><path class="cls-2" d="M70.35544,569.18687a27.54489,27.54489,0,0,0,11.89262,7.01049c6.95261,1.75262,33.17736,3.25487,42.20356-2.003s15.003-10.26535,17.68646-20.40552,4.14717-25.03745-2.43951-37.3058a39.2821,39.2821,0,0,0-28.17636-20.15515c-9.88-1.50225-23.29734.25037-33.42131,4.25637s-19.63807,19.15365-20.004,26.5397S53.21787,554.54,70.35544,569.18687Z"/><path class="cls-5" d="M75.9607,512.20858s-20.5144,52.36164-26.89895,42.92065,6.86234-38.36759,12.018-42.92065S87.10174,487.03686,75.9607,512.20858Z"/><path class="cls-5" d="M125.629,512.20858s20.5144,52.36164,26.89895,42.92065-6.86234-38.36759-12.018-42.92065S114.48795,487.03686,125.629,512.20858Z"/><path class="cls-2" d="M59.37141,640.01367s-8.11534-4.66006-3.78716-6.07834,28.94472-1.51959,47.3395-1.51959,40.57671,1.8235,45.44592,3.84962-1.082,2.83656-1.082,2.83656,1.082,1.8235-1.62307,2.63395a27.42473,27.42473,0,0,1-6.49227.81045s4.86921,56.12335,5.41023,56.93379,2.70511,1.01306,2.70511,1.01306l-94.679-.40522s5.95125-1.8235,6.49227-4.45745S59.37141,640.01367,59.37141,640.01367Z"/><path class="cls-5" d="M56.39579,636.468s38.41262-1.62089,53.56126-1.21567,30.8383,1.01306,34.08444,2.22873,1.62307,1.21567,1.62307,1.21567-4.86921-3.03917-42.19978-2.83656-46.528,1.01306-46.528,1.01306Z"/><path class="cls-5" d="M59.64192,638.29148s0,.20261,1.082.20261,59.51251-.81045,67.62785,0,15.14864,1.01306,14.06659,2.02611,1.082,1.01306,1.62307.40522,3.78716-.40522.541-1.21567-25.9691-3.44439-70.333-2.22872C74.24954,637.481,54.23169,637.481,59.64192,638.29148Z"/><path class="cls-5" d="M93.72636,641.33065s31.92035.60783,35.70751,1.62089,6.49227,1.41828,6.49227,2.22872.541,10.33318.541,10.33318,2.70511-12.5619,0-13.16974-25.42807-2.02611-43.28183-1.21567S93.72636,641.33065,93.72636,641.33065Z"/><path class="cls-5" d="M62.347,693.19915c.51326.57664,19.47682,0,23.805,1.01306s3.78716,4.25484,2.16409,4.45745-27.05114.60783-28.67421.81045,78.44831.20261,80.6124.20261,2.16409.20261,1.62307-1.62089.541-5.06528-.541-5.87573-60.05353-1.01306-67.08683-.81045-9.73841-.40522-11.9025,0,13.52557.60783,17.85375.81045,8.11534,0,5.41023.40522S61.806,692.59132,62.347,693.19915Z"/><path class="cls-5" d="M62.58048,643.83246v43.12979c0,2.537,32.98161,1.69136,36.36433,1.69136s-10.99387-.84568-13.53092-3.38273-6.76546-39.74706-5.91978-40.59275,4.22841-1.69136,4.22841-1.69136S68.50026,639.604,62.58048,643.83246Z"/><path class="cls-4" d="M110.36153,547.84753s100.63618-.84568,155.60552-1.69136,115.85846,3.38273,123.4696,6.76546,10.14819,11.83955,6.76546,17.75933-7.1883,19.87353-11.41671,22.41058-10.99387,22.83342-4.22841,24.52478,21.14205,22.83342,22.83342,27.06183.84568,33.82729.84568,33.82729,16.068,3.38273,18.605,5.91978.84568,15.22228.84568,15.22228h10.99387s2.537,1.69136,2.537,4.22841V708.95s16.068.84568,18.605,2.537,1.69136,3.38273,1.69136,3.38273,16.91364,2.537,17.75933,3.38273,0,5.07409,0,5.07409,10.14819,0,11.83955,3.38273,0,5.07409,0,5.07409l-324.742,1.69136L0,725.86363s0-8.45682,2.537-9.3025,12.68523,0,12.68523,0v-4.22841s0-1.69136,2.537-1.69136h7.61114v-4.22841s0-.84568,1.69136-.84568H37.21v-5.07409s.84568-2.537,2.537-1.69136,24.52478-.84568,24.52478-.84568,1.69136-6.76546,2.537-6.76546,8.45682-.84568,8.45682-.84568l.84568-5.91978,34.673-1.69136.84568-98.94482s-5.91978.84568-7.61114-.84568.84568-3.38273,3.38273-3.38273a18.43466,18.43466,0,0,0,5.07409-.84568l-.84568-10.14819s-4.22841.84568-4.22841-2.537-2.537-5.91978-3.38273-7.61114,0-5.91978,2.537-5.07409S107.40164,547.42468,110.36153,547.84753Z"/><path class="cls-5" d="M109.093,558.41855s9.3025,1.69136,19.45069,2.537,55.815-2.537,57.50639-2.537,3.38273-1.69136,4.22841.84568-71.883,5.91978-73.57435,6.76546-6.76546,1.69136-.84568,3.38273,72.72867-5.91978,75.26572-4.22841,3.38273,6.76546.84568,10.14819-69.34594,7.61114-72.72867,7.61114-8.45682-1.69136-5.07409.84568,71.883,0,75.26572,0,4.22841,91.33368,2.537,93.87072,205.50077,6.76546,207.19214,2.537,3.38273-32.13592-4.22841-38.90138-19.45069-21.14205-21.14205-24.52478,2.537-25.37047,5.91978-27.90751,5.91978-10.99387,8.45682-15.22228,6.76546-10.99387,1.69136-14.3766-141.22893-7.61114-154.75984-8.45682-45.66684-2.537-46.51252-.84568-1.69136,5.07409-10.14819,5.91978S109.093,555.88151,109.093,558.41855Z"/><path class="cls-5" d="M155.60552,690.345s.84568,10.14819,1.69136,10.14819,21.98774,0,22.83342,2.537-.84568,9.3025-.84568,9.3025-10.99387-.84568-10.14819,0,.84568,8.45682.84568,8.45682h-9.3025V731.7834l321.35924-2.537a14.40832,14.40832,0,0,0-5.91978-3.38273c-3.38273-.84568-3.38273-5.91978-3.38273-5.91978s-15.22228-4.22841-16.91364-4.22841.84568-2.537-3.38273-3.38273-16.91364-1.69136-16.91364-1.69136.84568-7.61114-1.69136-8.45682-14.3766-.84568-14.3766-.84568,4.22841-8.45682,1.69136-11.83955-16.068-8.45682-17.75933-8.45682-173.36485,2.537-188.58713,1.69136-26.21615-1.69136-26.21615-1.69136l-71.0373-1.69136-3.38273,3.38273-4.22841,1.69136s-34.673,1.69136-31.29024,1.69136S155.60552,690.345,155.60552,690.345Z"/><path class="cls-2" d="M410.49292,629.59612a1.77887,1.77887,0,0,1,.52052-2.30955,4.74126,4.74126,0,0,0,1.234-1.02831c.19961-.29534.02246-1.01718-.36515-1.64039-.25157-.40442-1.19791-2.0532-1.90894-3.0543-1.86579-3.63289-3.83453-8.05917-5.345-11.83543-2.29073-5.72682-3.81418-17.28527-1.14536-21.38013a15.17905,15.17905,0,0,1,1.90894-1.90894s1.90894,3.43609,6.4904,11.83543c5.56025,10.1938,9.69061,17.65094,11.07185,24.43443s.793,8.07333.08035,9.06009-2.89262,3.09264-4.32122,3.06793-2.747-1.6726-3.27783-2.78835-1.45846-2.84927-1.45846-2.84927a2.17335,2.17335,0,0,1-1.34556,1.30638C412.18835,630.52756,410.92884,630.71655,410.49292,629.59612Z"/><path class="cls-2" d="M405.3349,645.52934a3.66607,3.66607,0,0,1-.14252-1.52072c.04744-1.1168-.6891-19.91207-.6891-19.91207a2.53767,2.53767,0,0,0-1.78907-1.9603c-3.51382-.87845-4.16238-.7818-6.67169.13658-4.07094,1.48987-7.74832,4.47963-8.218,9.02634-.00192.01863.28243,1.902.28345,1.92178.02377.47523,1.34642,17.28245,1.47318,17.85274a6.43226,6.43226,0,0,0,4.34042,4.182c3.1999,1.01382,13.94.44354,13.94.44354s3.35826-.91877,3.39-2.693a4.71531,4.71531,0,0,0-1.21182-3.7939A31.26328,31.26328,0,0,0,405.3349,645.52934Z"/><path class="cls-2" d="M361.33341,625.06932c2.92452-5.43694,8.75884-4.4576,11.07185-4.39056,4.96116.14379,4.8678,6.4904,5.19016,9.97206a1.12648,1.12648,0,0,0-.03518.25169c-.01927.665.52652,17.923.2878,19.596s.31349,1.21349,1.06348,1.58389a11.41028,11.41028,0,0,1,4.96781,5.754c1.448,3.62353-3.59921,3.88929-3.98293,4.00494s-11.16018.1203-12.60406-.3653-4.8618-1.75736-5.25611-4.558-1.22637-17.83239-1.22637-17.83239S359.92086,627.69538,361.33341,625.06932Z"/><path class="cls-2" d="M404.69417,628.8689c4.05981-5.61592,4.70132-10.74142,5.84669-26.77652a10.8899,10.8899,0,0,0-.38179-4.96324c-.4503-1.86965-2.80478-5.54986-3.43609-6.87218-1.80072-3.772-2.59907-5.72682-2.59907-5.72682H362.589s-.9239,1.53855-2.06236,3.43609c-1.55195,2.58658-1.92646,3.322-2.67252,4.58146a10.15493,10.15493,0,0,0-1.52715,3.0543c-.76358,4.96324-.28465,9.57355-.38179,13.36258-.38173,14.88973,4.58006,20.20244,4.96324,20.61655.022.02374,6.06927,5.12438,9.18771,6.50929,2.38823,1.06061,7.27243,1.38014,8.05651,1.40388s9.62337-.095,9.62337-.095,7.26637-.78513,10.18766-2.40293A19.77453,19.77453,0,0,0,404.69417,628.8689Z"/><path class="cls-2" d="M355.71727,630.01718a1.663,1.663,0,0,0-.61525-2.31422,5.43156,5.43156,0,0,1-1.42582-1.03777c-.2316-.29692-.0333-1.01772.40759-1.63829.28616-.40272,1.36167-2.04512,2.17151-3.04136,2.11765-3.62047,4.34779-8.03386,6.05605-11.80036,2.59063-5.712,4.25646-17.26346,1.159-21.37946a16.892,16.892,0,0,0-2.20806-1.92369s-2.1687,3.42328-7.37245,11.79193c-6.3155,10.15655-11.00773,17.586-12.54528,24.36177s-.852,8.07042-.02562,9.06279,3.34736,3.11507,4.98911,3.10087,3.14484-1.653,3.74678-2.76522,1.21313-2.41436,1.21313-2.41436a8.4541,8.4541,0,0,0,1.99825.89156C353.77553,630.93648,355.22451,631.13481,355.71727,630.01718Z"/><path class="cls-4" d="M355.42558,629.21433a1.77887,1.77887,0,0,0-.52052-2.30955,4.74126,4.74126,0,0,1-1.234-1.02831c-.19961-.29534-.02246-1.01718.36515-1.64039.25157-.40442,1.19791-2.0532,1.90894-3.0543,1.86579-3.63289,3.83453-8.05917,5.345-11.83543,2.29073-5.72682,3.81418-17.28527,1.14536-21.38013a15.17906,15.17906,0,0,0-1.90894-1.90894s-1.90894,3.43609-6.4904,11.83543c-5.56025,10.1938-9.69061,17.65094-11.07185,24.43443s-.793,8.07333-.08035,9.06009,2.89262,3.09264,4.32122,3.06793,2.747-1.6726,3.27783-2.78835,1.071-2.42137,1.071-2.42137a6.82553,6.82553,0,0,0,1.733.87848C353.73016,630.14577,354.98966,630.33476,355.42558,629.21433Z"/><path class="cls-2" d="M422.54967,524.221a41.86917,41.86917,0,0,0-2.41819-3.951c.043-.40047.02279-.82255.02594-1.17264a19.3506,19.3506,0,0,0-.13754-2.38663,2.05064,2.05064,0,0,0,.13558-.676,95.843,95.843,0,0,0-1.57623-20.9653,2.15952,2.15952,0,0,0-.0558-.22587,2.31412,2.31412,0,0,0-1.59667-2.33075c-1.50628-.51679-3.22006.49681-4.27167,1.49426-.07506.0712-.14776.14279-.21967.21448a18.56638,18.56638,0,0,0-2.10086,1.18787,12.62023,12.62023,0,0,0-2.7701,2.6891c-2.62784,1.7544-6.73151,4.632-8.81587,6.10038a38.4837,38.4837,0,0,0-6.39-1.56251c-7.65914-1.1639-17.29869-.49543-26.15405,1.58372-2.73375-1.92626-9.03476-6.34245-10.79451-7.37378a11.05228,11.05228,0,0,0-1.27718-1.03467,18.58352,18.58352,0,0,0-2.10086-1.18787c-.07211-.07169-.14481-.14328-.21967-.21448-1.05181-.99745-2.76539-2.01105-4.27187-1.49426a2.31419,2.31419,0,0,0-1.59647,2.33075,2.06546,2.06546,0,0,0-.0558.22587,95.843,95.843,0,0,0-1.57623,20.9653,2.18781,2.18781,0,0,0,.05836.41736c-5.28418,6.34265-9.0214,14.0354-9.25581,18.7628-.392,7.91-5.228,29.36059,13.1345,45.04639a29.51955,29.51955,0,0,0,12.74309,7.50773c7.44948,1.877,35.549,3.48572,45.22035-2.14505s16.07574-10.99345,18.95077-21.85286C428.03878,553.31385,429.607,537.36,422.54967,524.221Z"/><path class="cls-4" d="M424.13035,523.13248a41.4452,41.4452,0,0,0-2.39251-3.9107c.04257-.39639.02255-.81416.02566-1.16068a19.16114,19.16114,0,0,0-.13608-2.36228,2.03046,2.03046,0,0,0,.13414-.66913,94.90418,94.90418,0,0,0-1.5595-20.75142,2.13825,2.13825,0,0,0-.05521-.22356,2.29049,2.29049,0,0,0-1.57972-2.307c-1.49029-.51152-3.18587.49174-4.22631,1.479-.07426.07047-.14619.14133-.21734.21229a18.36716,18.36716,0,0,0-2.07855,1.17575,12.48863,12.48863,0,0,0-2.74069,2.66166c-2.59994,1.7365-6.66,4.58479-8.72227,6.03815a38.06184,38.06184,0,0,0-6.32217-1.54657c-7.57782-1.152-17.115-.49038-25.87636,1.56757-2.70472-1.9066-8.93883-6.27775-10.6799-7.29856a10.93581,10.93581,0,0,0-1.26362-1.02411,18.3841,18.3841,0,0,0-2.07855-1.17575c-.07135-.071-.14327-.14182-.21734-.21229-1.04064-.98727-2.736-1.99054-4.22651-1.479a2.29055,2.29055,0,0,0-1.57952,2.307,2.04507,2.04507,0,0,0-.05521.22356,94.90418,94.90418,0,0,0-1.5595,20.75142,2.16634,2.16634,0,0,0,.05774.41311c-5.22807,6.27794-8.92561,13.89221-9.15753,18.57139-.38783,7.82928-5.17247,29.06106,12.995,44.58684a29.20453,29.20453,0,0,0,12.60779,7.43114c7.37039,1.85781,35.17153,3.45016,44.74022-2.12317s15.90506-10.8813,18.74956-21.62992C429.56119,551.92857,431.11271,536.13744,424.13035,523.13248Z"/><path class="cls-7" d="M407.2647,551.19921s2.50623,2.60448,1.104,4.82311-4.06659,3.5691-7.7125,4.05141-16.12613,1.06108-20.05249-.67524-6.17-5.59481-4.48727-8.19929,9.95613-5.78773,15.425-5.49835S404.46015,548.11242,407.2647,551.19921Z"/><path class="cls-8" d="M396.71028,544.99643a4.84153,4.84153,0,0,1-1.42935,3.39036,3.65934,3.65934,0,0,1-4.6642,0c-.978-1.06554-1.65659-3.88571-1.054-4.752S397.01119,541.99353,396.71028,544.99643Z"/><path class="cls-8" d="M383.14735,553.44483a.5588.5588,0,0,1,.65369-.12238c.693.21307,4.89322.76787,5.85121.05463a7.7347,7.7347,0,0,0,2.51149-5.1418c.00027-.01584.0041-.03059.00546-.04616.00191-.018.003-.03633.00656-.054.00382-.01871.01011-.03619.01557-.05422.00546-.0168.00983-.03387.01666-.05.0071-.01721.01666-.03305.0254-.04944.00819-.01516.01584-.03073.0254-.04507a.48459.48459,0,0,1,.03387-.04275.5188.5188,0,0,1,.0336-.03988c.01257-.01257.02677-.02322.04016-.03469.01393-.01147.027-.02349.04179-.03374.01448-.00983.03032-.01748.04589-.02609a.53852.53852,0,0,1,.04808-.02568c.01639-.0071.03415-.01161.05163-.01721.01721-.00546.03387-.012.0519-.01584a.5444.5444,0,0,1,.05573-.00683c.01666-.00191.03278-.00574.05-.00615h.02349c.01721.00041.03333.00423.05.00615a.54441.54441,0,0,1,.05573.00683.52876.52876,0,0,1,.0519.01584.52029.52029,0,0,1,.05163.01735.4752.4752,0,0,1,.04808.02554c.0153.00847.03141.01625.04589.02609.01475.01024.02786.02226.04179.03374.01339.01147.02759.02213.04016.03469a.51875.51875,0,0,1,.0336.03988.48461.48461,0,0,1,.03387.04275c.00956.0142.01694.02978.0254.04507a.544.544,0,0,1,.0254.04944c.00683.01612.0112.03305.01639.04972a.53011.53011,0,0,1,.01584.0545c.00355.01762.00464.03592.00656.054.00137.01557.00519.03032.00546.04616a7.7347,7.7347,0,0,0,2.51149,5.1418c.95827.71433,5.15819.15844,5.85066-.05463a.55954.55954,0,0,1,.62555.91292,12.4994,12.4994,0,0,1-4.2663.60424,5.38868,5.38868,0,0,1-2.87807-.56491,8.30674,8.30674,0,0,1-2.40277-3.45445,8.30674,8.30674,0,0,1-2.40277,3.45445,5.38655,5.38655,0,0,1-2.87835.56491,12.50078,12.50078,0,0,1-4.2663-.60424A.55919.55919,0,0,1,383.14735,553.44483Z"/><path class="cls-9" d="M397.09206,544.23285a4.84153,4.84153,0,0,1-1.42935,3.39036,3.65934,3.65934,0,0,1-4.6642,0c-.978-1.06554-1.65659-3.88571-1.054-4.752S397.393,541.23,397.09206,544.23285Z"/><path class="cls-9" d="M383.52913,552.68126a.5588.5588,0,0,1,.65369-.12238c.693.21307,4.89322.76787,5.85121.05463a7.7347,7.7347,0,0,0,2.51149-5.1418c.00027-.01584.0041-.03059.00546-.04616.00191-.018.003-.03633.00656-.054.00382-.01871.01011-.03619.01557-.05422.00546-.0168.00983-.03387.01666-.05.0071-.01721.01666-.03305.0254-.04944.00819-.01516.01584-.03073.0254-.04507a.48459.48459,0,0,1,.03387-.04275.5188.5188,0,0,1,.0336-.03988c.01257-.01257.02677-.02322.04016-.03469.01393-.01147.027-.02349.04179-.03374.01448-.00983.03032-.01748.04589-.02609a.53852.53852,0,0,1,.04808-.02568c.01639-.0071.03415-.01161.05163-.01721.01721-.00546.03387-.012.0519-.01584a.5444.5444,0,0,1,.05573-.00683c.01666-.00191.03278-.00574.05-.00615h.02349c.01721.00041.03333.00423.05.00615a.54441.54441,0,0,1,.05573.00683.52878.52878,0,0,1,.0519.01584.52029.52029,0,0,1,.05163.01735.4752.4752,0,0,1,.04808.02554c.0153.00847.03141.01625.04589.02609.01475.01024.02786.02226.04179.03374.01339.01147.02759.02213.04016.03469a.51875.51875,0,0,1,.0336.03988.48461.48461,0,0,1,.03387.04275c.00956.0142.01694.02977.0254.04507a.544.544,0,0,1,.0254.04944c.00683.01612.0112.03305.01639.04972a.53011.53011,0,0,1,.01584.0545c.00355.01762.00464.03592.00656.054.00137.01557.00519.03032.00546.04616a7.7347,7.7347,0,0,0,2.51149,5.1418c.95827.71433,5.15819.15844,5.85066-.05463a.55954.55954,0,0,1,.62555.91292,12.4994,12.4994,0,0,1-4.2663.60424,5.38868,5.38868,0,0,1-2.87807-.56491,8.30674,8.30674,0,0,1-2.40277-3.45445,8.30674,8.30674,0,0,1-2.40277,3.45445,5.38655,5.38655,0,0,1-2.87835.56491,12.50078,12.50078,0,0,1-4.2663-.60424A.55919.55919,0,0,1,383.52913,552.68126Z"/><circle class="cls-2" cx="371.87823" cy="538.27762" r="9.60886"/><circle class="cls-8" cx="371.87823" cy="538.27762" r="6.04782"/><path class="cls-8" d="M357.39592,528.70691s.76358,3.0543,2.29073,2.67252,14.50794-5.345,15.65331-6.4904-1.90894-4.96324-1.90894-4.96324-15.65331,7.254-16.0351,7.63576S357.39592,528.70691,357.39592,528.70691Z"/><circle class="cls-2" cx="407.68641" cy="538.27762" r="9.60886"/><circle class="cls-3" cx="372.26002" cy="537.89583" r="9.60886"/><circle class="cls-3" cx="408.0682" cy="537.89583" r="9.60886"/><circle class="cls-8" cx="407.68641" cy="538.27762" r="6.04782"/><circle class="cls-9" cx="372.26002" cy="537.89583" r="6.04782"/><circle class="cls-9" cx="408.0682" cy="537.89583" r="6.04782"/><path class="cls-8" d="M422.16873,528.70691s-.76358,3.0543-2.29073,2.67252-14.50794-5.345-15.65331-6.4904,1.90894-4.96324,1.90894-4.96324,15.65331,7.254,16.0351,7.63576S422.16873,528.70691,422.16873,528.70691Z"/><path class="cls-9" d="M357.39592,527.94333s.76358,3.0543,2.29073,2.67252,14.50794-5.345,15.65331-6.4904-1.90894-4.96324-1.90894-4.96324-15.65331,7.254-16.0351,7.63576S357.39592,527.94333,357.39592,527.94333Z"/><path class="cls-9" d="M422.16873,527.94333s-.76358,3.0543-2.29073,2.67252-14.50794-5.345-15.65331-6.4904,1.90894-4.96324,1.90894-4.96324,15.65331,7.254,16.0351,7.63576S422.16873,527.94333,422.16873,527.94333Z"/><path class="cls-5" d="M383.25345,621.50746s3.293,4.13456,8.23253,4.90293,10.6474-1.02449,12.40367-4.90293,3.18324-15.29421-3.62231-19.79465-13.39158-1.3172-14.599,0-4.28091,4.82975-4.17115,9.76927S382.15578,619.23894,383.25345,621.50746Z"/><path class="cls-4" d="M384.017,620.74388s3.293,4.13456,8.23253,4.90293,10.6474-1.02449,12.40367-4.90293,3.18324-15.29421-3.62231-19.79465-13.39158-1.3172-14.599,0-4.28091,4.82975-4.17115,9.76927S382.91935,618.47536,384.017,620.74388Z"/><path class="cls-2" d="M331.10415,655.41779s-9.45266-5.428-4.41124-7.08,33.71449-1.77,55.14052-1.77,47.2633,2.124,52.9349,4.484-1.26035,3.304-1.26035,3.304,1.26035,2.124-1.89053,3.068a31.944,31.944,0,0,1-7.56213.944s5.6716,65.37185,6.30177,66.31585,3.15089,1.18,3.15089,1.18l-110.281-.472s6.932-2.124,7.56213-5.192S331.10415,655.41779,331.10415,655.41779Z"/><path class="cls-5" d="M327.63817,651.2878s44.74259-1.888,62.38756-1.416,35.92011,1.18,39.70117,2.596,1.89053,1.416,1.89053,1.416-5.6716-3.54-49.15383-3.304-54.19525,1.18-54.19525,1.18Z"/><path class="cls-5" d="M331.41924,653.4118s0,.236,1.26035.236,69.31951-.944,78.77217,0,17.645,1.18,16.38461,2.36,1.26035,1.18,1.89053.472,4.41124-.472.63018-1.416-30.24851-4.012-81.92306-2.596C348.434,652.4678,325.11746,652.4678,331.41924,653.4118Z"/><path class="cls-5" d="M371.12041,656.95179s37.18046.708,41.59171,1.888,7.56213,1.652,7.56213,2.596.63018,12.036.63018,12.036,3.15089-14.632,0-15.34-29.61834-2.36-50.41419-1.416S371.12041,656.95179,371.12041,656.95179Z"/><path class="cls-5" d="M334.57012,717.36765c.59784.67167,22.68638,0,27.7278,1.18s4.41124,4.956,2.52071,5.192-31.50887.708-33.3994.944,91.37572.236,93.89643.236,2.52071.236,1.89053-1.888.63018-5.9-.63018-6.844-69.94969-1.18-78.142-.944-11.34319-.472-13.8639,0,15.75443.708,20.79585.944,9.45266,0,6.30177.472S333.93994,716.65965,334.57012,717.36765Z"/><path class="cls-5" d="M357.498,657.89579l-23.641.985s-.985,51.22214,0,52.20718,80.77338,3.94016,86.68363,2.95512-35.46148-3.94016-46.29694-20.68587S357.498,657.89579,357.498,657.89579Z"/><path class="cls-10" d="M257.43861,0c-45.28711,0-82,16.56543-82,37s36.71289,37,82,37,82-16.56543,82-37S302.72572,0,257.43861,0Zm0,67.75c-40.08545,0-72.58105-14.66272-72.58105-32.75S217.35316,2.25,257.43861,2.25,330.01966,16.9126,330.01966,35,297.52406,67.75,257.43861,67.75Z"/></g></g></svg>