<svg xmlns="http://www.w3.org/2000/svg" xmlns:xlink="http://www.w3.org/1999/xlink" viewBox="0 0 937.12044 776.64955"><defs><style>.cls-1{fill:none;}.cls-2{fill:#c5798a;opacity:0.5;}.cls-3{fill:#524740;}.cls-4{fill:#ef5c79;}.cls-5{fill:#ef898c;}.cls-6{fill:url(#未命名漸層_23);}.cls-7{fill:url(#未命名漸層_23-2);}.cls-8{fill:#e9ec8e;}.cls-9{fill:#717787;}.cls-10{fill:url(#未命名漸層_23-3);}.cls-11{fill:url(#未命名漸層_23-4);}.cls-12{clip-path:url(#clip-path);}.cls-13{fill:#fbc5cf;}.cls-14{fill:#e69dc2;}.cls-15{fill:#2c112f;}.cls-16{fill:#e84e58;}.cls-17{fill:#fff;}.cls-18{fill:#80685d;}.cls-19{fill:#ded3be;}</style><linearGradient id="未命名漸層_23" x1="-4154.64081" y1="433.7694" x2="-4016.90153" y2="433.7694" gradientTransform="matrix(-1, 0, 0, 1, -3981.48883, 0)" gradientUnits="userSpaceOnUse"><stop offset="0.01458" stop-color="#e091a1"/><stop offset="1" stop-color="#f8cf7e"/></linearGradient><linearGradient id="未命名漸層_23-2" x1="-4210.43423" y1="433.7694" x2="-4123.88074" y2="433.7694" xlink:href="#未命名漸層_23"/><linearGradient id="未命名漸層_23-3" x1="-4121.93433" y1="197.12836" x2="-3966.88644" y2="197.12836" xlink:href="#未命名漸層_23"/><linearGradient id="未命名漸層_23-4" x1="-4210.97292" y1="190.27442" x2="-4038.18397" y2="190.27442" xlink:href="#未命名漸層_23"/><clipPath id="clip-path"><path class="cls-1" d="M282.42484,450.207c-4.4764-42.10247-8.97408-84.19418-12.73344-126.36909-6.68348-74.97173-11.42385-150.12553-12.35443-225.38937,150.15061-8.97029,349.0413,3.62018,419.5748,37.77219,70.56265,34.16552,101.32069,116.88195,110.36648,185.21279,9.04657,68.331,19.90231,282.3148,19.90231,282.3148s5.42826,12.58734-7.23663,16.18364c-12.66568,3.5963-53.52913,9.55141-53.52913,9.55141s-5.08528,2.3078-6.89522-10.27934c-1.80916-12.58734-17.67922-53.19475-44.81894-51.3967,0,0-50.35606-.02277-59.40263,23.35366-9.04579,23.37643-7.23663,28.771-7.23663,28.771s1.80916,5.39455-1.80916,5.39455H557.4987l-186.3566,3.5963s-7.23742,3.59649-9.04657-5.39455c-1.80916-8.99084-19.90231-55.7437-50.66035-59.34-11.271-1.3178-22.05218-2.61077-30.4479.19262C284.314,525.613,286.54666,488.97009,282.42484,450.207Z"/></clipPath></defs><title>資產 13</title><g id="圖層_2" data-name="圖層 2"><g id="圖層_1-2" data-name="圖層 1"><ellipse class="cls-2" cx="410.67421" cy="664.14955" rx="409.5" ry="112.5"/><path class="cls-3" d="M572.78307,625.30068s9.19857,30.68042-17.89658,40.3-49.2639-3.84782-54.19029-17.3152,0-21.89149,0-21.89149Z"/><path class="cls-3" d="M333.47668,594.83183s32.71269,26.93475,23.791,57.71733-29.73881,32.70649-47.58209,36.55431-59.47761-13.46738-68.39926-40.40213-2.97388-63.48906,32.71269-69.26079S333.47668,594.83183,333.47668,594.83183Z"/><path class="cls-3" d="M701.5199,584.37407s35.58466,10.20234,42.0546,32.64748-3.235,57.13309-29.11472,67.33543-51.7595,6.1214-71.16932-16.32374-12.93988-59.17356,12.93988-73.45683S701.5199,584.37407,701.5199,584.37407Z"/><path class="cls-4" d="M87.53795,364.5086c-1.92391,0-35.59235.962-37.51626-10.58151S53.86951,182.699,63.48906,165.38383,82.72817,92.27521,242.41277,82.65566s371.3148,3.84782,446.34733,40.40213S796.49911,248.112,806.11867,321.22061s21.163,302.054,21.163,302.054,5.77173,13.46738-7.69564,17.3152-69.26079,11.54347-69.26079,11.54347-9.61955,3.84782-11.54347-9.61955-21.163-59.64124-50.02168-57.71733c0,0-34.6304,0-44.25,25.01084s-7.69564,30.78257-7.69564,30.78257,1.92391,5.77173-1.92391,5.77173H561.782l-198.16282,3.84782s-7.69564,3.84782-9.61955-5.77173-10.15614-56.44333-42.86263-60.29115-61.77514,6.8639-70.64812,27.58467c-7.72334,18.036,5.59647,48.59458-11.71873,58.21413s-82.5529,9.12275-113.33548,9.12275S21.163,675.22021,3.84782,646.36155c0,0-3.84782,0-3.84782-11.54347V577.10076s0-3.84782,7.69564-7.69564,26.93475-7.69564,26.93475-7.69564-5.77173-26.93475,15.39129-40.40213a180.93915,180.93915,0,0,1,40.40213-19.23911Z"/><polygon class="cls-5" points="234.717 250.036 65.413 261.579 55.793 342.384 238.565 336.612 234.717 250.036"/><path class="cls-5" d="M238.565,344.30754,53.86951,352.00318s0,5.77173,9.61955,7.69564,26.93475,3.84782,26.93475,3.84782l3.84782,138.52158H240.48886Z"/><path class="cls-5" d="M121.20639,505.91606H90.42381s-38.47822,17.3152-44.25,30.78257a70.28376,70.28376,0,0,0-5.77173,25.01084V571.329s-26.93475,0-30.78257,5.77173S3.84782,615.579,3.84782,627.12244s3.84782,13.46738,3.84782,13.46738,48.09777,26.93475,80.80426,28.85866,92.34772-3.84782,126.97812-21.163c0,0,1.92391-1.92391,1.92391-7.69564V586.72031s1.92391-5.77173-7.69564-5.77173-65.413-1.92391-65.413-1.92391-1.92391-32.70649,1.92391-42.326c0,0,5.77173-9.61955,19.23911-15.39129S215.478,507.84,215.478,507.84l-73.10861-1.92391-40.40213,15.39129s-9.61955,3.84782-9.61955,17.3152a130.07248,130.07248,0,0,1-1.92391,23.08693H80.80426s-1.92391-28.85866,5.77173-36.55431S100.04337,513.6117,121.20639,505.91606Z"/><path class="cls-5" d="M240.48886,509.76388S182.77154,523.23125,173.152,529.003s-13.46738,3.84782-17.3152,17.3152A101.44142,101.44142,0,0,0,151.989,571.329h67.33688s-3.84782-23.08693,0-25.01084,19.23911-11.54347,21.163-17.3152S240.48886,509.76388,240.48886,509.76388Z"/><polygon class="cls-6" points="173.152 371.242 125.054 371.242 121.206 496.297 161.609 496.297 173.152 371.242"/><polygon class="cls-7" points="228.945 371.242 178.924 371.242 167.38 496.297 228.945 496.297 228.945 371.242"/><path class="cls-8" d="M182.77154,611.73115s1.92391,17.3152-5.77173,21.163-21.163,0-25.01084-11.54347,0-21.163,7.69564-26.93475S178.92371,598.26378,182.77154,611.73115Z"/><path class="cls-8" d="M38.47822,600.18769s5.77173,13.46738,0,21.163-13.46738,3.84782-19.23911,0-5.77173-17.3152-1.92391-23.08693S32.70649,592.492,38.47822,600.18769Z"/><path class="cls-9" d="M705.11335,622.31267s5.77173,13.46738,1.92391,25.01084-25.01084,13.46738-30.78257,5.77173-9.61955-23.08693-1.92391-28.85866S691.646,616.54093,705.11335,622.31267Z"/><path class="cls-9" d="M312.63552,620.38875s5.77173,13.46738,1.92391,25.01084-25.01084,13.46738-30.78257,5.77173-9.61955-23.08693-1.92391-28.85866S299.16815,614.617,312.63552,620.38875Z"/><path class="cls-5" d="M282.29254,451.94983c-4.45607-42.17012-8.93332-84.32945-12.67561-126.57213-6.65312-75.09218-11.372-150.36673-12.29832-225.75149,149.46862-8.9847,347.45594,3.626,417.66907,37.83288,70.24216,34.22041,100.86049,117.06974,109.86519,185.51036,9.00549,68.44082,19.81191,282.76838,19.81191,282.76838s5.4036,12.60756-7.20376,16.20964c-12.60815,3.60208-53.286,9.56675-53.286,9.56675s-5.06218,2.31151-6.8639-10.29586c-1.80094-12.60756-17.59892-53.28022-44.61538-51.47928,0,0-50.12734-.0228-59.13282,23.39118-9.0047,23.414-7.20376,28.8172-7.20376,28.8172s1.80094,5.40321-1.80094,5.40321H556.117l-185.51017,3.60208s-7.20454,3.60227-9.00548-5.40321c-1.80094-9.00529-19.81191-55.83326-50.43025-59.43534-11.21979-1.31992-21.952-2.615-30.3096.19293C284.17317,527.47692,286.39564,490.77515,282.29254,451.94983Z"/><path class="cls-5" d="M259.728,88.42739s-92.34772,7.69564-111.58683,17.3152-59.64124,17.3152-69.26079,57.71733S65.413,253.88373,65.413,253.88373L236.641,242.34026S230.86931,138.44907,259.728,119.21,300.1301,90.3513,300.1301,90.3513s-1.92391-3.84782-5.77173-3.84782S259.728,88.42739,259.728,88.42739Z"/><path class="cls-10" d="M138.52158,242.34026,80.80426,248.112s-5.77173-51.94559,7.69564-75.03253,51.94559-26.93475,51.94559-26.93475Z"/><path class="cls-11" d="M227.02149,234.64462l-80.80426,7.69564,3.84782-98.11946,50.02168-5.77173s26.93475-3.84782,28.85866,19.23911S227.02149,234.64462,227.02149,234.64462Z"/><g class="cls-12"><path class="cls-13" d="M443.16857,405.21344s39.16033,68.10988,48.95041,86.759,28.96233,52.29866,33.44945,81.48861,3.26336,35.27119,0,39.32535-13.05344,12.56789-19.17225,12.16248-11.42176-7.7029-13.46136-12.56789-4.0792-10.54081-4.0792-10.54081-5.71088,3.37847-7.61451,3.37847-7.34256.54055-8.97424-4.32444,0-8.10832,2.71947-9.73,4.5891-2.90548,5.50692-4.12173-.5099-3.95281-2.0396-6.68936-10.7079-16.92612-10.7079-16.92612-1.63168.10135-2.0396,2.83791-8.94025,22.06139-11.2518,25.16957-4.0792,3.24333-4.0792,6.08124,4.48712,76.35334,3.67128,83.51569,1.49571,5.13527,4.75907,6.62179,15.365,8.64887,22.02769,23.91954-14.95707,17.02747-16.58875,17.568-47.86263,1.89194-54.1174,0-21.07587-6.89207-23.11547-18.78427-7.47854-75.88035-7.47854-75.88035.204-3.446-3.16138-3.34468-41.30191-.40542-41.30191-.40542a2.939,2.939,0,0,0-2.24356,2.53385c-.102,2.02708-5.77887,73.71814-6.32276,76.15063s-4.895,13.51387-18.62835,17.8383-59.82828,1.89194-59.82828,1.89194-14.41318-3.919-14.54915-11.48679.71386-10.70974,5.201-16.18285,20.192-15.70987,20.192-15.70987.81584-1.723.61188-6.48666S262.46,594.34,262.46,594.34s-4.48712-7.09478-7.07062-12.23-7.61451-16.75719-7.75048-19.73024-2.10759-2.50007-2.61749-1.18246-12.64552,19.56132-13.7673,20.77757-2.95742,2.4325-1.63168,3.7501,8.87226,6.588,9.1782,9.52728c0,0,1.42772,8.20967-6.6287,8.41238s-8.36236-3.34468-8.36236-3.34468-1.5297-.20271-2.0396,2.93927-8.6683,19.764-14.07324,20.77757-20.09007-4.865-22.94551-13.27737-2.75346-24.2236-.91782-31.82515,22.33363-73.583,44.76923-106.42169,29.37025-53.51491,33.85737-62.23135l2.44752-5.0677Z"/><path class="cls-14" d="M404.16217,582.45222s-14.07363,17.56174-35.18406,20.82543-45.50472-4.35158-53.01066-20.82543-13.6045-64.96291,15.481-84.0788,57.23274-5.59489,62.39307,0,18.29571,20.5146,17.82659,41.49545S408.85338,572.81657,404.16217,582.45222Z"/><path class="cls-13" d="M190.54758,190.3329c28.54963-52.85135,79.25442-80.41093,122.1163-86.97914-12.22486-31.71271-5.397-62.1292-2.40768-73.26706C313.51956,17.92422,329.83636-.72491,336.65309.89675c6.13792,1.46013,17.539,83.89418,19.74907,100.30244,6.36738.232,12.832.6683,19.33956,1.31048,1.68745-12.62332,13.6-100.10844,19.92435-101.61292,6.81832-1.62166,23.13513,17.02747,26.39849,29.18995,3.17253,11.82833,10.684,45.39946-4.90141,79.17568A286.35961,286.35961,0,0,1,458.16707,121.683c43.98526,17.29748,85.32063,82.70486,86.90929,114.59731,1.59025,31.89246,21.1975,118.38146-53.25907,181.62635,0,0-21.462,22.70329-51.66882,30.27079-30.2068,7.56829-144.144,14.05495-183.35849-8.64835-39.2161-22.70329-65.18277-44.32574-76.842-88.11067S161.92943,243.30778,190.54758,190.3329Z"/><ellipse class="cls-15" cx="446.34056" cy="276.75872" rx="21.94142" ry="21.80672"/><ellipse class="cls-15" cx="262.91029" cy="276.75872" rx="21.94142" ry="21.80672"/><ellipse class="cls-16" cx="446.79495" cy="311.94331" rx="21.94142" ry="10.90336"/><ellipse class="cls-16" cx="261.70951" cy="311.94331" rx="21.94142" ry="10.90336"/><path class="cls-17" d="M427.86424,320.92316s11.81612,12.204,5.20482,22.6-19.17277,16.724-36.36216,18.984-76.03,4.972-94.54161-3.164-29.08973-26.216-21.15616-38.41993,46.94024-27.12,72.72431-25.764S414.64164,306.45919,427.86424,320.92316Z"/><path class="cls-15" d="M369.10316,292.14015s0,10.43966-6.739,15.88644-17.37947,4.99288-21.99035,0-7.81034-18.20753-4.96922-22.26682S370.5219,278.0693,369.10316,292.14015Z"/><path class="cls-15" d="M305.15793,331.72738a2.64627,2.64627,0,0,1,3.08194-.57344c3.26739.99839,23.07009,3.59805,27.58674.256,5.43363-4.02045,11.65289-15.17812,11.84092-24.09325.00129-.07424.01932-.14336.02576-.21632.009-.08448.01417-.17024.03091-.2528.018-.08768.04765-.1696.07341-.25408.02576-.07872.04636-.15872.07856-.23424.03349-.08064.07856-.15488.11977-.23168.03864-.071.0747-.144.11977-.2112a2.27291,2.27291,0,0,1,.1597-.20032,2.43453,2.43453,0,0,1,.15841-.18688c.05924-.05888.12621-.1088.18932-.16256.06568-.05376.1275-.11008.197-.15808.06826-.04608.143-.08192.21637-.12224a2.5442,2.5442,0,0,1,.22667-.12032c.07727-.03328.161-.0544.24341-.08064.08114-.0256.1597-.05632.2447-.07424a2.5819,2.5819,0,0,1,.26273-.032c.07856-.009.15455-.02688.23568-.0288h.11076c.08114.00192.15712.01984.23568.0288a2.58189,2.58189,0,0,1,.26273.032,2.50426,2.50426,0,0,1,.2447.07424,2.46355,2.46355,0,0,1,.24341.08128,2.24512,2.24512,0,0,1,.22667.11968c.07212.03968.14811.07616.21637.12224.06955.048.13137.10432.197.15808.06311.05376.13008.10368.18932.16256a2.43451,2.43451,0,0,1,.15841.18688,2.27289,2.27289,0,0,1,.1597.20032c.04508.06656.07985.13952.11977.2112a2.54307,2.54307,0,0,1,.11977.23168c.0322.07552.0528.15488.07727.233a2.47224,2.47224,0,0,1,.0747.25536c.01674.08256.02189.16832.03091.2528.00644.073.02447.14208.02576.21632.188,8.91513,6.40728,20.07281,11.84092,24.09325,4.51794,3.34717,24.31935.74239,27.58416-.256a2.65106,2.65106,0,0,1,3.08322.57344,2.60894,2.60894,0,0,1-.13394,3.70429c-1.14365,1.05855-11.05917,2.83134-20.11436,2.83134-5.62424,0-10.91621-.68479-13.56928-2.647-4.18051-3.09374-8.60444-9.29145-11.32834-16.18676-2.7239,6.89531-7.14782,13.093-11.32834,16.18676-2.65307,1.9635-7.945,2.647-13.57056,2.647-9.05391,0-18.97071-1.77279-20.11436-2.83134A2.60894,2.60894,0,0,1,305.15793,331.72738Z"/><path class="cls-18" d="M805.4516,372.75318s43.10678,74.97378,53.88348,95.50231,31.88106,57.56915,36.82038,89.70077,3.59223,38.82571,0,43.28843-14.36893,13.83445-21.10436,13.38817-12.57281-8.47918-14.818-13.83445-4.49029-11.60309-4.49029-11.60309-6.28641,3.71894-8.38187,3.71894-8.08252.595-9.87864-4.76024,0-8.92545,2.99353-10.71054,5.05158-3.19829,6.06189-4.5371-.56129-4.35116-2.24515-7.3635-11.787-18.63188-11.787-18.63188-1.79612.11157-2.24514,3.12391-9.84122,24.28466-12.38572,27.70608-4.49029,3.57018-4.49029,6.69409,4.93932,84.048,4.04126,91.93214,1.64644,5.65278,5.23867,7.28912,16.91343,9.52048,24.24757,26.33008-16.4644,18.74345-18.26051,19.33848-52.68607,2.08261-59.57118,0-23.19983-7.58663-25.445-20.67729-8.2322-83.52734-8.2322-83.52734.22451-3.79332-3.48-3.68175-45.46419-.44627-45.46419-.44627a3.23517,3.23517,0,0,0-2.46966,2.7892c-.11226,2.23136-6.36124,81.14722-6.95995,83.82485s-5.38835,14.87575-20.50566,19.636-65.85759,2.0826-65.85759,2.0826-15.86569-4.314-16.01537-12.64439.7858-11.789,5.72512-17.81371,22.22694-17.29306,22.22694-17.29306.89806-1.89666.67354-7.14036,3.25546-93.49409,3.25546-93.49409-4.93932-7.80977-7.78317-13.46255-8.38187-18.44593-8.53155-21.71859-2.32-2.752-2.88127-1.30163S573.41586,565.98917,572.181,567.328s-3.25546,2.67764-1.79612,4.128,9.76638,7.25193,10.10315,10.4874c0,0,1.5716,9.037-7.29672,9.26015s-9.20509-3.68175-9.20509-3.68175-1.68386-.22314-2.24514,3.23548-9.54187,21.75578-15.4915,22.87147-22.11468-5.35527-25.25788-14.61542-3.03095-26.66478-1.01032-35.03239,24.58434-80.99846,49.28093-117.14653,32.33009-58.908,37.26941-68.50283l2.69417-5.57841Z"/><path class="cls-19" d="M770.95481,568.67743s-15.55734,19.4132-38.89336,23.021-50.30208-4.81035-58.59933-23.021-15.03877-71.81166,17.11308-92.94284,63.26653-6.18474,68.97089,0,20.22455,22.67736,19.706,45.87012S776.14059,558.02594,770.95481,568.67743Z"/><path class="cls-18" d="M530.9322,98.74911A186.74948,186.74948,0,0,1,562.999,56.46041c-7.32754-4.36253-15.74011-14.08456-9.06959-25.23422,9.92036-16.58181,25.25181-18.37444,37.4268-11.20393,4.56738,2.69069,6.59654,5.7814,7.34867,8.592A192.89111,192.89111,0,0,1,669.81718,2.54414c48.69993-7.17051,114.83446,1.19567,164.73744,20.31675a92.36343,92.36343,0,0,1,8.50945,3.79971A15.90813,15.90813,0,0,1,849.68,20.02227c12.175-7.17051,27.50644-5.37789,37.4268,11.20393,5.95362,9.95311-.11273,18.77008-6.69518,23.65167,29.562,29.84184,51.52173,70.7598,52.74592,94.66181,1.8037,35.25561,24.04876,130.86187-60.424,200.77438,0,0-24.35,25.0968-58.62028,33.463-34.27032,8.36531-163.53614,15.53582-208.028-9.561-44.49012-25.0968-73.95174-48.9988-87.17829-97.39977S498.46559,157.308,530.9322,98.74911Z"/><path class="cls-17" d="M803.612,267.71905s13.06184,13.49059,5.75353,24.98257-21.19407,18.4871-40.19565,20.98536-84.04546,5.49617-104.5087-3.49756-32.15652-28.97978-23.38656-42.47037,51.88893-29.97908,80.3913-28.48013S788.99539,251.73021,803.612,267.71905Z"/><path class="cls-15" d="M738.656,235.90158s0,11.54027-7.44944,17.56128-19.21171,5.51926-24.30869,0-8.63375-20.12707-5.4931-24.61431S740.22431,220.34731,738.656,235.90158Z"/><ellipse class="cls-17" cx="791.95426" cy="201.52764" rx="45.39566" ry="45.11698"/><ellipse class="cls-17" cx="653.69996" cy="199.7383" rx="45.39566" ry="45.11698"/><ellipse class="cls-15" cx="779.09934" cy="201.1109" rx="24.21019" ry="24.06157"/><ellipse class="cls-15" cx="664.92166" cy="202.90025" rx="24.21019" ry="24.06157"/><path class="cls-15" d="M644.70729,124.60086s59.41315,25.05085,61.21355,39.36561-118.82629-19.68281-115.2255-30.41888S644.70729,124.60086,644.70729,124.60086Z"/><path class="cls-15" d="M804.88366,124.60086s-59.41315,25.05085-61.21355,39.36561,118.82629-19.68281,115.2255-30.41888S804.88366,124.60086,804.88366,124.60086Z"/></g></g></g></svg>