<?xml version="1.0" encoding="utf-8"?>
<!-- Generator: Adobe Illustrator 16.0.0, SVG Export Plug-In . SVG Version: 6.00 Build 0)  -->
<!DOCTYPE svg PUBLIC "-//W3C//DTD SVG 1.1//EN" "http://www.w3.org/Graphics/SVG/1.1/DTD/svg11.dtd">
<svg version="1.1" id="圖層_1" xmlns="http://www.w3.org/2000/svg" xmlns:xlink="http://www.w3.org/1999/xlink" x="0px" y="0px"
	 width="312px" height="422px" viewBox="0 0 312 422" enable-background="new 0 0 312 422" xml:space="preserve">
<title>資產 18</title>
<g id="圖層_2">
	<g id="圖層_1-2">
		<path fill="#767777" d="M246.99,190.548c-13.469-25.061-37.774-42.479-65.834-47.176c4.529-12.792,4.983-26.674,1.303-39.734
			c-1.755-6.592-10.632-16.718-14.246-15.947c-3.296,0.798-9.436,45.502-10.631,54.405c-3.429,0-6.911,0.372-10.419,0.718
			c-0.931-6.855-7.336-54.299-10.631-55.123c-3.296-0.822-12.466,9.249-14.22,15.947c-1.754,6.697-5.769,24.611,2.658,42.95
			c-7.575,1.688-15.013,3.942-22.246,6.751c-23.734,9.354-46.008,44.837-46.91,62.14c-0.904,17.302-11.43,64.239,28.729,98.551
			c7.739,7.746,17.326,13.391,27.854,16.399c16.293,4.119,77.715,7.628,98.871-4.678c21.155-12.307,35.136-24.055,41.408-47.841
			C258.949,254.123,262.432,219.306,246.99,190.548z"/>
	</g>
</g>
</svg>
