<svg xmlns="http://www.w3.org/2000/svg" viewBox="0 0 364 548"><defs><style>.cls-1{fill:#d9a064;}.cls-2{fill:none;}</style></defs><title>資產 13</title><g id="圖層_2" data-name="圖層 2"><g id="圖層_1-2" data-name="圖層 1"><path class="cls-1" d="M296.61719,180.22227a108.6064,108.6064,0,0,0-6.65827-10.32876,29.3544,29.3544,0,0,0,.07141-3.06554,48.06012,48.06012,0,0,0-.37871-6.23916,5.12655,5.12655,0,0,0,.3733-1.76729,238.1834,238.1834,0,0,0-4.34-54.80768,5.41123,5.41123,0,0,0-.15365-.59046c-.12876-2.80291-1.27463-5.07645-4.39629-6.09308-4.14742-1.351-8.86615,1.29877-11.76166,3.90631-.20667.18612-.40684.37328-.60485.56068a51.92331,51.92331,0,0,0-5.78453,3.10533,34.00316,34.00316,0,0,0-7.62723,7.02986c-7.23553,4.58637-18.53463,12.10914-24.27371,15.94768a110.66077,110.66077,0,0,0-17.59434-4.08473c-21.08876-3.04269-47.63041-1.29517-72.01286,4.14018-7.52714-5.03564-24.8764-16.5805-29.72173-19.27661a30.19072,30.19072,0,0,0-3.5166-2.70484,51.97124,51.97124,0,0,0-5.78453-3.10533c-.19855-.18741-.39873-.37456-.60485-.56068-2.89605-2.60754-7.61424-5.25732-11.7622-3.90631-3.12111,1.01663-4.267,3.29017-4.39575,6.09308a5.17547,5.17547,0,0,0-.15365.59046,238.1834,238.1834,0,0,0-4.34,54.80768,5.44887,5.44887,0,0,0,.16068,1.09108c-14.54951,16.581-24.83961,36.69146-25.485,49.04989-1.07932,20.67832-14.39478,76.75474,36.16468,117.7607,0,0,14.57548,14.72,35.087,19.62678s97.88095,9.11241,124.51024-5.60762,44.26313-28.73919,52.17926-57.128C311.731,256.27718,316.04882,214.57036,296.61719,180.22227Z"/><path class="cls-1" d="M125.50552,336.87641s-25.23709,44.16491-31.54637,56.25769-18.66493,33.91234-21.55668,52.84016-2.10309,22.87111,0,25.5,8.41236,8.14948,12.35566,7.88659,7.36082-4.99484,8.67525-8.14948,2.62886-6.835,2.62886-6.835,3.68041,2.19072,4.90721,2.19072,4.732.35052,5.7835-2.80412,0-5.25773-1.75258-6.30927a13.1147,13.1147,0,0,1-3.549-2.67268c-.59149-.78866.32861-2.56314,1.31443-4.33763s6.90077-10.97551,6.90077-10.97551,1.05155.06572,1.31443,1.8402,5.76159,14.3054,7.25128,16.32086,2.62886,2.10309,2.62886,3.9433-2.89175,49.51027-2.366,54.15459-.96392,3.32989-3.067,4.29381a31.55944,31.55944,0,0,0-14.19586,15.5103c-4.29381,9.90205,9.63917,11.04123,10.69071,11.39174s30.84534,1.2268,34.87626,0,13.58246-4.46907,14.89689-12.1804,4.81958-49.20357,4.81958-49.20357a1.9578,1.9578,0,0,1,2.03737-2.16881c2.16881.06572,26.61725-.26289,26.61725-.26289a1.89985,1.89985,0,0,1,1.44588,1.643c.06572,1.31443,3.72422,47.80151,4.07474,49.37882a17.791,17.791,0,0,0,12.00514,11.567c8.85051,2.80412,38.55667,1.2268,38.55667,1.2268s9.28865-2.54124,9.37628-7.44845-.46005-6.94458-3.3518-10.49355-13.01288-10.18685-13.01288-10.18685a10.139,10.139,0,0,1-.39433-4.20618c.13144-3.08892-1.90593-55.0747-1.90593-55.0747s2.89175-4.60051,4.5567-7.93041,4.90721-10.866,4.99484-12.7938,1.35825-1.62113,1.68685-.76675,8.14948,12.68427,8.87242,13.47293,1.90593,1.57732,1.05155,2.4317-5.71778,4.2719-5.91494,6.17783c0,0-.9201,5.32345,4.2719,5.45489s5.38917-2.16881,5.38917-2.16881.98582-.13144,1.31443,1.90593,5.58634,12.81571,9.06958,13.47293,12.94715-3.15464,14.78736-8.60953,1.77448-15.70746.59149-20.63658-14.393-47.71388-28.85178-69.00767-18.92782-34.701-21.81957-40.35306l-1.57732-3.28608Z"/><rect class="cls-2" width="364" height="548"/></g></g></svg>