<svg xmlns="http://www.w3.org/2000/svg" viewBox="0 0 264.6303 452.33142"><defs><style>.cls-1{fill:#c5798a;}.cls-1,.cls-13,.cls-14,.cls-15{opacity:0.5;}.cls-2{fill:#e4b5bd;}.cls-3{fill:#f6c2cb;}.cls-4{fill:#da4d55;}.cls-5{fill:#fff;}.cls-6{fill:#383231;}.cls-7{fill:#3e3a39;}.cls-8{fill:#e2dcd0;}.cls-9{fill:#c8c9ca;}.cls-10{fill:#071e2f;}.cls-11{fill:#baa37c;}.cls-12,.cls-14{fill:#796a56;}.cls-13,.cls-16{fill:#2a7e66;}.cls-17{opacity:0.6;}.cls-18{fill:#1a5f4c;}.cls-19{fill:#f29600;}.cls-20{fill:#b77200;}.cls-21{font-size:27.51536px;font-family:AdobeFanHeitiStd-Bold-B5pc-H, Adobe Fan Heiti Std;}.cls-21,.cls-22{fill:#ef5c79;}.cls-23{fill:#f3c7da;opacity:0.81;}</style></defs><title>資產 11</title><g id="圖層_2" data-name="圖層 2"><g id="圖層_1-2" data-name="圖層 1"><ellipse class="cls-1" cx="149.89649" cy="381.18348" rx="81.64775" ry="25.80519"/><path class="cls-2" d="M25.82443,275.77249c2.111-1.32674,3.82988-.93485,4.90747.15481a9.83291,9.83291,0,0,0,2.57784,2.11c.67971.29075,2.08032-.353,3.19757-1.38658.725-.67085,3.71187-3.24433,5.472-5.08475,6.66718-5.22364,14.90976-10.96792,22.00816-15.52421,10.765-6.90976,26.14617-23.06972,35.5315-19.2396,1.43141.58415,13.8246,10.67148-9.36266,29.52323-18.68511,15.19141-32.14835,26.6535-45.42172,32.12523-13.27328,5.47191-16.13072,4.77935-18.41961,3.71474-2.28885-1.06442-7.432-4.67873-7.94163-7.5978s2.32962-6.24983,4.39379-7.76829,5.231-4.087,5.231-4.087c-.77752.14964-2.96978-1.3347-3.18788-2.22823C24.592,279.59035,23.71351,277.09941,25.82443,275.77249Z"/><path class="cls-3" d="M22.82443,273.77249c2.111-1.32674,3.82988-.93485,4.90747.15481a9.83291,9.83291,0,0,0,2.57784,2.11c.67971.29075,2.08032-.353,3.19757-1.38658.725-.67085,3.71187-3.24433,5.472-5.08475,6.66718-5.22364,14.90976-10.96792,22.00816-15.52421,10.765-6.90976,26.14617-23.06972,35.5315-19.2396,1.43141.58415,13.8246,10.67148-9.36266,29.52323-18.68511,15.19141-32.14835,26.6535-45.42172,32.12523-13.27328,5.47191-16.13072,4.77935-18.41961,3.71474-2.28885-1.06442-7.432-4.67873-7.94163-7.5978s2.32962-6.24983,4.39379-7.76829,5.231-4.087,5.231-4.087c-.77752.14964-2.96978-1.3347-3.18788-2.22823C21.592,277.59035,20.71351,275.09941,22.82443,273.77249Z"/><path class="cls-2" d="M93.08256,366.20832a7.60306,7.60306,0,0,0,.29557-3.15382c-.09839-2.31612,1.42913-41.29566,1.42913-41.29566a5.26287,5.26287,0,0,1,3.71036-4.06546c7.28731-1.82183,8.63237-1.62137,13.83642.28324,8.44274,3.08984,16.06924,9.2903,17.0434,18.71972.004.03864-.58572,3.9446-.58785,3.98558-.04929.98558-2.79234,35.84209-3.05524,37.0248a13.33986,13.33986,0,0,1-9.00159,8.67306c-6.63627,2.10256-28.91021.91986-28.91021.91986s-6.9647-1.90544-7.03043-5.58492.34486-5.20714,2.5132-7.86818S93.08256,366.20832,93.08256,366.20832Z"/><path class="cls-2" d="M181.73674,323.77629c-6.06516-11.27567-18.165-9.24462-22.96192-9.10559-10.289.2982-10.09533,13.46044-10.76388,20.68106a2.33621,2.33621,0,0,1,.073.522c.04,1.37921-1.09195,37.17058-.59688,40.64009.49488,3.46947-.65014,2.51666-2.20555,3.28482a23.66378,23.66378,0,0,0-10.30274,11.93324c-3.0031,7.51483,7.46441,8.066,8.2602,8.30585.79559.2399,23.14511.24949,26.13956-.75759s10.0829-3.64459,10.90065-9.45276c.81756-5.80816,2.54337-36.98261,2.54337-36.98261S184.66623,329.22247,181.73674,323.77629Z"/><path class="cls-3" d="M93.54425,332.63809c-2.86711-3.01813-14.90759-18.67243-14-52,.25834-9.48629,5.69072-24.25763,7-27A69.58052,69.58052,0,0,1,95.594,239.702h86.13929s1.91607,3.19079,4.27714,7.12611c3.21858,5.3643,3.99529,6.8895,5.54253,9.50148.7365,1.24336,2.82307,4.09813,3.16716,6.33432,1.58358,10.29327.59033,19.85459.79179,27.71266.79167,30.87983-9.49858,41.89786-10.29327,42.75668-.04557.04924-12.58707,10.62746-19.05439,13.49963-4.95294,2.19961-15.08229,2.86227-16.7084,2.91151-1.6263.04929-19.95791-.19708-19.95791-.19708s-15.06973-1.62828-21.1282-4.98344A58.57354,58.57354,0,0,1,93.54425,332.63809Z"/><path class="cls-2" d="M258.26686,284.5516c-2.0516-1.49779-3.82643-1.24712-4.99892-.24712a9.86,9.86,0,0,1-2.76968,1.89615c-.71147.23473-2.08942-.52278-3.15173-1.64649-.68935-.72931-3.54279-3.54387-5.20129-5.52593-6.40627-5.76248-14.37687-12.17387-21.26873-17.30519-10.45174-7.78181-33.22893-17.2826-43.03968-14.22585a31.7082,31.7082,0,0,0-4.93437,2.75573s5.981,5.739,20.64711,19.5979c17.79948,16.81974,30.78637,29.24977,43.88959,35.8008,13.10311,6.5512,16.0565,6.09347,18.4584,5.21764,2.40184-.87564,7.88554-4.06413,8.61041-6.9376s-1.92483-6.43223-3.91522-8.11765-4.3635-3.49538-4.3635-3.49538,2.44951-2.10419,2.73453-2.97868C259.24884,288.46527,260.31835,286.04956,258.26686,284.5516Z"/><path class="cls-3" d="M258.48414,282.97058c-2.0047-1.4825-3.74827-1.22165-4.90513-.21655a9.83291,9.83291,0,0,1-2.72995,1.9091c-.69974.23855-2.04769-.50918-3.08362-1.6243-.67223-.72373-3.456-3.5156-5.072-5.48379-6.25329-5.71262-14.03813-12.06347-20.77185-17.14324-10.21191-7.70364-32.51133-17.04872-42.15931-13.93892a31.47985,31.47985,0,0,0-4.85984,2.78s5.836,5.69177,20.1479,19.4352c17.36958,16.67963,30.04185,29.00711,42.86369,35.46643,12.82173,6.45949,15.72334,5.98488,18.08616,5.09632,2.36276-.88838,7.76439-4.10362,8.49317-6.97582s-1.85058-6.408-3.79407-8.07817-4.26189-3.46226-4.26189-3.46226,2.41694-2.11481,2.702-2.98929C259.42444,286.87065,260.48873,284.45324,258.48414,282.97058Z"/><path class="cls-2" d="M227.89531,122.81013c-12.93193-23.42433-34.92884-36.71937-54.90359-41.44681,3.96762-14.28217,8.84446-32.91768,9.78644-41.39475,1.63627-14.71882,4.49973-25.85739-3.27253-31.42668s-14.1104-3.18245-15.85053,0c-1.73933,3.18245-10.84186,57.81047-10.78993,63.31565a58.08809,58.08809,0,0,1-.6887,7.16129c-4.53329-.07537-9.22157.07692-13.98176.44442a63.0502,63.0502,0,0,1-.74623-7.60571c.05113-5.50519-9.05139-60.13321-10.79073-63.31565-1.74013-3.18245-8.07826-5.56929-15.85053,0s-4.9088,16.70786-3.27253,31.42668c.96434,8.67015,6.04332,27.96491,10.05568,42.36207a149.12565,149.12565,0,0,0-23.88085,6.79883C71.6551,97.61588,50.92933,129.70569,50.132,145.3526c-.79656,15.64691-10.62854,58.07969,26.70437,89.10856,0,0,10.762,11.13857,25.907,14.8513,15.14585,3.71312,72.27453,6.89556,91.93769-4.243s32.683-21.74686,38.52895-43.22839C239.05516,180.35954,242.2438,148.80039,227.89531,122.81013Z"/><path class="cls-3" d="M227.02847,117.60907c-12.93193-23.42433-34.92884-36.71937-54.90359-41.44681,3.96763-14.28217,8.84446-32.91768,9.78644-41.39475,1.63627-14.71882,4.49973-25.85739-3.27253-31.42668s-14.1104-3.18245-15.85053,0c-1.73933,3.18245-10.84186,57.81047-10.78993,63.31565a58.08813,58.08813,0,0,1-.6887,7.16129c-4.53329-.07537-9.22157.07692-13.98176.44442a63.05018,63.05018,0,0,1-.74623-7.60571c.05113-5.50519-9.05139-60.13321-10.79073-63.31565-1.74013-3.18245-8.07826-5.56929-15.85053,0s-4.9088,16.70786-3.27253,31.42668c.96434,8.67015,6.04332,27.96491,10.05568,42.36207a149.12565,149.12565,0,0,0-23.88085,6.79883c-22.05443,8.4864-42.7802,40.57622-43.57756,56.22313-.79656,15.64691-10.62854,58.07969,26.70437,89.10856,0,0,10.762,11.13857,25.907,14.8513,15.14585,3.71312,72.27453,6.89556,91.93769-4.243s32.683-21.74686,38.52895-43.22839C238.18832,175.15848,241.377,143.59933,227.02847,117.60907Z"/><ellipse class="cls-4" cx="80.75313" cy="166.60257" rx="9.65157" ry="4.82579"/><ellipse class="cls-4" cx="162.16834" cy="166.60257" rx="9.65157" ry="4.82579"/><path class="cls-5" d="M89.08035,170.577s-5.19766,5.40143-2.28949,10.00265,8.4337,7.402,15.995,8.40223,33.444,2.20058,41.58688-1.40037,12.796-11.60308,9.30615-17.00451-20.648-12.00318-31.98991-11.403S94.8967,164.17531,89.08035,170.577Z"/><path class="cls-3" d="M184.33727,323.77629c-6.06516-11.27567-18.165-9.24462-22.96192-9.10559-10.289.2982-10.09533,13.46044-10.76388,20.68106a2.33621,2.33621,0,0,1,.073.522c.04,1.37921-1.09195,37.17058-.59688,40.64009.49488,3.46947-.65014,2.51666-2.20555,3.28482a23.66378,23.66378,0,0,0-10.30274,11.93324c-3.0031,7.51483,7.46441,8.066,8.2602,8.30585.79559.2399,23.14511.24949,26.13956-.75759s10.0829-3.64459,10.90065-9.45276c.81756-5.80816,2.54337-36.98261,2.54337-36.98261S187.26676,329.22247,184.33727,323.77629Z"/><path class="cls-5" d="M89.21933,311.43111s7.25625,9.11063,18.14063,10.80375,23.46188-2.2575,27.33188-10.80375,7.01438-33.70125-7.98188-43.61813-29.50875-2.9025-32.16938,0-9.43313,10.6425-9.19125,21.52688S86.80058,306.43236,89.21933,311.43111Z"/><path class="cls-4" d="M115.54425,176.63809s5.71429-5,6.85714-7l1.14286-2s4.57143,7,5.71429,8a3.79629,3.79629,0,0,0,2.28571,1s-2.85714,7.5-6,8.75S115.54425,176.63809,115.54425,176.63809Z"/><circle cx="80.95304" cy="151.03003" r="9.65157"/><circle cx="161.64018" cy="151.03003" r="9.65157"/><path d="M141.70061,175.1051c-1.43719.44189-10.148,1.59253-12.13475.11333-2.02214-1.50544-4.28533-5.27079-4.98625-8.78452a5.55176,5.55176,0,0,0,2.98591-1.5648c2.02828-2.20986,3.43563-8.05872,2.18594-9.85527-1.2499-1.79665-15.44742-3.40378-14.82332,2.82391,0,0,0,4.62056,2.96433,7.03136a7.91,7.91,0,0,0,3.90482,1.65009c-.72061,3.48907-2.96327,7.206-4.96911,8.69923-1.98743,1.48142-10.69756.32856-12.13369-.11333a1.16039,1.16039,0,0,0-1.2973,1.89326c.503.46855,4.86478,1.25328,8.8479,1.25328,2.474,0,4.80171-.30316,5.96886-1.17159a17.22861,17.22861,0,0,0,4.98308-7.16426,17.22669,17.22669,0,0,0,4.98308,7.16426c1.16715.869,3.49489,1.17159,5.9695,1.17159,3.98249,0,8.34464-.78473,8.8479-1.25328a1.16031,1.16031,0,0,0-1.29688-1.89326Z"/><path class="cls-6" d="M180.62983,43.83464s-8.11092,3.60485-6.7591,6.7591-3.15425,8.11092,4.50607,12.16638,12.617,6.7591,20.2773,6.30849,11.71577-9.46274,10.81456-13.06759-9.46274-13.5182-12.617-14.41941S184.23468,41.131,180.62983,43.83464Z"/><path class="cls-7" d="M95.46516,83.93864s15.33039,21.28635,25.93665,25.74188,38.68165,16.15131,58.02247,18.37907,48.48076,2.037,50.97635-.19077,8.05705-12.23751-8.7656-51.5905c-7.05772-16.51-23.05046-23.00621-29.28943-25.234s-56.95-1.195-64.43676,2.70364S93.59347,80.597,95.46516,83.93864Z"/><path class="cls-6" d="M113.12865,95.31616a18.93006,18.93006,0,0,1,9.3918-9.89422c1.56433-.76095.19522-3.09326-1.36458-2.33451a21.67044,21.67044,0,0,0-10.63429,11.51c-.65511,1.61095,1.95917,2.31193,2.60706.71873Z"/><path class="cls-6" d="M112.99125,75.68725l29.26619,18.66787c8.33225,5.31485,16.128,10.29113,26.00683,12.07622,19.02757,3.43823,39.03983-1.70542,57.41024,5.67245,1.61429.64833,2.31582-1.96564.71873-2.60706-17.95769-7.21212-37.34591-2.50863-55.96875-5.43047-10.21624-1.60288-18.2365-6.58172-26.80248-12.04565L114.35583,73.35274c-1.47123-.93845-2.82882,1.40053-1.36458,2.33451Z"/><path class="cls-6" d="M218.52807,114.68946a16.33222,16.33222,0,0,1,.02838,9.80318c-.50537,1.66889,2.10334,2.3822,2.60706.71873a18.96655,18.96655,0,0,0-.02838-11.24065c-.51167-1.65742-3.12233-.95035-2.60706.71873Z"/><path class="cls-6" d="M207.33055,110.08891c1.35668,5.06261,2.66962,10.50269-.7844,15.01227-1.0575,1.38067,1.2897,2.7287,2.33451,1.36458,3.88554-5.073,2.58533-11.39224,1.057-17.09558a1.353,1.353,0,0,0-2.60706.71873Z"/><path class="cls-6" d="M189.5842,126.846a19.09455,19.09455,0,0,0,6.48052-13.61522c.08162-1.73935-2.62221-1.73519-2.70364,0a16.38141,16.38141,0,0,1-5.68864,11.70345c-1.3088,1.15163.6095,3.05764,1.91176,1.91176Z"/><path class="cls-6" d="M103.23236,83.77635c3.276-3.16377,7.72578-7.27393,12.58988-4.80189,1.54778.78661,2.91775-1.54516,1.36458-2.33451-6.11545-3.108-11.5804,1.08567-15.86622,5.22464-1.25391,1.21094.65918,3.12143,1.91176,1.91176Z"/><path class="cls-6" d="M129.71049,106.053a20.58132,20.58132,0,0,1,6.9034-10.871c1.33871-1.11409-.58287-3.01768-1.91176-1.91176a22.98956,22.98956,0,0,0-7.5987,12.064,1.353,1.353,0,0,0,2.60706.71873Z"/><path class="cls-6" d="M140.065,113.9162a16.88544,16.88544,0,0,0,9.06589-12.63453c.24281-1.70181-2.36191-2.437-2.60706-.71873a14.41375,14.41375,0,0,1-7.82341,11.01875c-1.54985.79185-.18335,3.12538,1.36458,2.33451Z"/><path class="cls-6" d="M161.991,121.53792l8.64435-12.56952c.98836-1.43715-1.35373-2.79071-2.33451-1.36458l-8.64435,12.56952c-.98836,1.43715,1.35373,2.79071,2.33451,1.36458Z"/><path class="cls-6" d="M174.86054,123.43317c5.48536-2.68946,8.02825-9.06584,10.841-14.11328.8478-1.52136-1.48651-2.88632-2.33451-1.36458-2.559,4.59217-4.89246,10.70235-9.871,13.14334-1.56211.7659-.19341,3.09839,1.36458,2.33451Z"/><path class="cls-6" d="M218.20314,104.58824a54.51026,54.51026,0,0,0-15.92857-48.3105c-1.256-1.20456-3.17049.70454-1.91176,1.91176a51.70837,51.70837,0,0,1,15.23327,45.68c-.28516,1.70195,2.31974,2.43361,2.60706.71873Z"/><path class="cls-6" d="M186.49612,103.46686c6.995-4.59452,7.82435-12.77281,8.65593-20.4512q.85449-7.89,1.703-15.78063c.44839-4.19376.85826-8.03414-.92213-11.96734-.71642-1.58269-3.04717-.2098-2.33451,1.36458,1.64957,3.64419.87068,7.65907.45839,11.47946l-1.23,11.39712c-.806,7.46872-.66349,17.00482-7.69531,21.62349-1.44836.95131-.09538,3.29345,1.36458,2.33451Z"/><path class="cls-6" d="M166.61673,97.44242q5.77635-12.36885,11.55281-24.73793c3.87675-8.25048,8.24407-15.52812,17.00235-19.21575,1.5793-.665.88522-3.2824-.71873-2.60706-7.74511,3.261-12.86795,8.87759-16.62643,16.29971-4.79946,9.4778-9.04928,19.27087-13.5445,28.89646-.73177,1.56693,1.59812,2.94142,2.33451,1.36458Z"/><path class="cls-6" d="M148.7094,90.62521C160.233,73.9154,170.70777,54.79466,192.49526,51.0839c1.71165-.29152.98588-2.89739-.71873-2.60706-22.52586,3.83651-33.47421,23.48845-45.40164,40.7838-.99018,1.43581,1.352,2.78922,2.33451,1.36458Z"/><path class="cls-6" d="M133.14085,81.8266c5.23564-5.45046,10.27331-11.70285,16.53971-16.008,6.56506-4.51037,14.11367-7.86531,21.12932-11.609,1.53563-.81944.17147-3.15417-1.36458-2.33451-7.46394,3.98287-15.67734,7.51132-22.4887,12.57676-5.86457,4.36134-10.68727,10.21593-15.72751,15.463-1.2056,1.25507.70358,3.16952,1.91176,1.91176Z"/><path class="cls-6" d="M122.62246,76.27177a44.25678,44.25678,0,0,1,22.47814-18.18808c1.62167-.5912.92135-3.205-.71873-2.60706a47.26361,47.26361,0,0,0-24.09392,19.43057c-.92911,1.47707,1.40933,2.83541,2.33451,1.36458Z"/><path class="cls-6" d="M114.47389,71.55758a88.7931,88.7931,0,0,1,19.13326-13.21776c1.54815-.79527.18194-3.12895-1.36458-2.33451a91.46857,91.46857,0,0,0-19.68045,13.64051c-1.29223,1.17072.6244,3.07808,1.91176,1.91176Z"/><path class="cls-6" d="M229.528,110.81372c3.80137-12.53883-4.47458-25.96009-9.14285-37.2229-.65675-1.58449-3.27375-.88973-2.60706.71873,4.40451,10.62647,12.71539,24.00138,9.14285,35.78543-.50591,1.66874,2.10282,2.382,2.60706.71873Z"/><path class="cls-6" d="M224.54815,110.9297a9.54123,9.54123,0,0,1,2.46537,11.79372c-.78173,1.54965,1.54986,2.92,2.33451,1.36458a12.25648,12.25648,0,0,0-2.88812-15.07006c-1.34056-1.08533-3.265.8162-1.91176,1.91176Z"/><path class="cls-6" d="M98.39529,83.717c2.022-5.3119,7.34163-8.91495,11.738-12.148,1.38705-1.02.0399-3.36735-1.36458-2.33451-5.08024,3.73594-10.6569,7.6596-12.98046,13.76374-.61956,1.62764,1.99315,2.33153,2.60706.71873Z"/><path class="cls-8" d="M198.54425,247.63809s18.70355,9.0332,32,21c10,9,14,9,18,17,4.5684,9.1368-11.92435,21.94-18,19-1.98116-.95867-29.29545-26.11364-33-15-2,6-.88872,25.66065-6,32-17.27235,21.42233-94.35218,20.13861-114-5-5.25435-6.72273-5.64332-14.0968-5-30,.05514-1.36316-18.52845,13.74372-24,13-11.324-1.53922-15.21276-19.37853-15-22,1.06888-13.17022,42-36,42-36a46.72591,46.72591,0,0,1-9-7c-11-12-18.18178-23.48668-9-24,38.08987-2.12945,120.51745,5.34548,167,12,6.29784.90161-9.09,15.99322-15,19C204.68832,244.1086,198.54425,247.63809,198.54425,247.63809Z"/><path class="cls-9" d="M160.2509,241.98024c5.05415-3.78377,9.04582-6.40949,10.59775-12.37231,1.05273-4.04348.987-6.71374-3.27708-8.83467-.74963-.37277-1.49938.60021-.74513.97526,5.08053,2.52721,3.12637,8.22485,1.04061,11.76346-1.87655,3.18316-5.45911,5.28819-8.49633,7.56238C158.71758,241.56315,159.59821,242.46868,160.2509,241.98024Z"/><path class="cls-9" d="M184.08582,223.84927c4.03856,7.79541-2.1601,14.6532-8.63424,19.2163-.66889.47176.21355,1.37625.8806.90591,6.99722-4.93167,13.23919-12.34963,8.94492-20.63827C184.91478,222.63408,183.72314,223.149,184.08582,223.84927Z"/><path class="cls-9" d="M198.46863,224.81489c1.77087,1.79855,2.96454,3.8163,2.48915,6.32469-.29736,1.56957-2.30184,3.38419-3.4366,4.59718a63.36159,63.36159,0,0,1-7.04679,6.40228c-.63766.50349.24159,1.41007.88017.90588,3.61013-2.85177,8.0345-6.35068,10.22994-10.26469,1.94485-3.46727.602-5.97718-2.11518-8.736C198.89781,223.4639,197.89672,224.23416,198.46863,224.81489Z"/><path class="cls-9" d="M213.89366,227.4169c-.25643-.72526-1.56522-.51209-1.30515.22313,1.95433,5.52472-5.19671,9.06659-9.24449,11.831-.67737.46261.206,1.36639.88017.90588C208.68891,237.32785,216.04116,233.48737,213.89366,227.4169Z"/><path class="cls-9" d="M77.81571,233.05639c-2.79388-1.63156-6.19332-3.12743-8.54189-5.25652-2.48628-2.25382-4.70991-6.26631-4.5949-9.42209.02787-.763-1.302-.8621-1.33011-.09561-.11367,3.119,1.61972,6.34715,3.59677,8.89179,2.38573,3.07136,6.7025,4.85933,10.12544,6.85772C77.79444,234.45417,78.54,233.47894,77.81571,233.05639Z"/><path class="cls-9" d="M95.79665,239.29869c-6.26108-5.79319-11.88108-12.2766-12.3044-20.59732-.03872-.75694-1.36909-.86111-1.33011-.09561.43993,8.64663,6.083,15.4021,12.6338,21.464C95.395,240.62373,96.39856,239.85559,95.79665,239.29869Z"/><path class="cls-9" d="M184.78435,244.92432c-12.94878.2877-25.8637.11658-38.76624-.36013,2.28781-3.8065,2.976-7.87,3.40024-12.16774.38865-3.94147.63007-7.74184-1.30166-11.43774-.365-.69815-1.55708-.18331-1.1917.51564,3.24171,6.20266,1.383,16.96592-2.15128,22.6555a.529.529,0,0,0-.07.38717c-17.597-.67878-35.17255-1.92357-52.78-3.372a.59627.59627,0,1,0-.08523,1.18563c30.95536,2.54643,61.81147,4.46968,92.86067,3.77929C185.547,246.091,185.64179,244.90527,184.78435,244.92432Z"/><path class="cls-9" d="M110.94411,237.298c-2.54055-3.00024-12.52923-14.99959-5.78689-17.91134.7667-.33089.17187-1.404-.59754-1.07177-8.50661,3.67331,1.83542,15.56422,5.38374,19.75379C110.46574,238.68541,111.46365,237.911,110.94411,237.298Z"/><path class="cls-9" d="M128.9573,236.83744c-2.05929-4.38551-4.27633-12.47943-.22676-16.44947.56655-.55554-.30755-1.46719-.88014-.90626-4.56883,4.47932-2.45618,12.82062-.08482,17.87177C128.09926,238.06372,129.28976,237.54644,128.9573,236.83744Z"/><path class="cls-10" d="M83.54425,300.63809h114s-3.19492,19.37687-4,21c-1.09063,2.19882-7,11-7,11l-2,48s-36.10516-1.06086-38-2,1-29,1-29h-19l-2,22s-28.5787-3.82608-33-5c-2.75765-.7322-1.95636-34.28327-1.95636-34.28327Z"/><path class="cls-11" d="M111.07388,264.12029c-1.21218-4.37112-7.311-11.8027-13.66-17.22034-6.88709-5.87677-16.6121-12.48606-20.971-11.99619-8.85708.9954-12.6305.55246-16.76381,9.511s-27.90623,25.9095-26.13481,30.22289c.80907,1.97007,7.54422,17.15883,16,26.0004,3.6998,3.8686,22.40689-12.15179,23-8,1,7-1.99211,17.28956-3,23-1.72643,9.78149-3.88029,37.02473,2.02443,39.67912S92.18885,365.307,95.14121,358.671,117.14013,285.9951,111.07388,264.12029Z"/><path class="cls-12" d="M68.66785,236.89486s-1.27642,6.77833-.961,9.02577c.15745,1.12184.961,2.3752,3.12325,3.32528s15.45449-.99525,17.51307,2.87826c1.166,2.194-3.47415,6.5815-1.44054,9.80334,3.01048,4.76949,14.13473,13.482,15.32214,16.63988,3.92876,10.4483,2.259,26.669,2.35725,32.47356.06864,4.05634.884,11.99619,3.6341,3.28928,2.43665-7.71444,9.55512-39.05444.42562-53.30566S84.74181,233.25919,68.66785,236.89486Z"/><path class="cls-11" d="M70.22755,235.347s-1.27642,6.77833-.961,9.02577c.15745,1.12184.961,2.3752,3.12325,3.32528s15.45449-.99525,17.51307,2.87826c1.166,2.194-3.47415,6.5815-1.44054,9.80334,3.01048,4.76949,14.13473,13.482,15.32214,16.63988,3.92875,10.4483.98219,27.4429,1.08041,33.24751.06864,4.05634,1.08041,14.99524,3.83054,6.28833,2.43665-7.71444,10.63553-42.82744,1.506-57.07865S86.30151,231.7113,70.22755,235.347Z"/><path class="cls-13" d="M85.18849,240.80927c-11.28562.75029-18.25714,7.82409-25.91071,13.64824-8.51813,6.48206-17.657,12.59771-24.644,20.48494-.12926.14591.19867.3519.32675.20732,6.71379-7.57888,15.45625-13.47456,23.64129-19.70314,7.84623-5.97076,15.12167-13.54038,26.7032-14.31034.22516-.015.10806-.342-.11657-.327Z"/><path class="cls-13" d="M81.18577,245.40118a232.02244,232.02244,0,0,0-43.17481,33.147c-.13968.13653.13149.40512.272.26775a232.02245,232.02245,0,0,1,43.17481-33.147c.17394-.10406-.09985-.37077-.272-.26775Z"/><path class="cls-13" d="M84.69018,250.98634A182.35551,182.35551,0,0,0,41.99,282.15978c-.13889.13707.13224.40572.272.26775a182.06838,182.06838,0,0,1,42.62852-31.13339c.179-.0951-.02-.40366-.20043-.3078Z"/><path class="cls-13" d="M84.24895,257.09728C69.61,266.63762,54.27874,275.60841,42.82687,288.27237c-.13074.14458.1973.35048.32675.20732,11.431-12.64083,26.7555-21.592,41.36737-31.11467.169-.11014-.10427-.37709-.272-.26775Z"/><path class="cls-13" d="M87.81058,260.6951a369.94029,369.94029,0,0,0-41.7675,32.4014c-.14645.13156.1251.39975.272.26775a369.94029,369.94029,0,0,1,41.7675-32.4014c.16748-.11189-.10565-.37891-.272-.26775Z"/><path class="cls-13" d="M87.22057,268.54579a362.01043,362.01043,0,0,0-37.18635,30.5631c-.131.12326.0933.35377.22478.2301a362.01041,362.01041,0,0,1,37.18635-30.5631c.14845-.10639-.07729-.33579-.22478-.2301Z"/><path class="cls-14" d="M36.16507,272.9723c4.20535,7.66593,10.08914,13.21369,16.99354,18.43648.39743.30063.85187-.32585.45446-.62646-6.79005-5.13629-12.60515-10.58524-16.7394-18.12157-.23825-.4343-.94826-.12532-.70861.31156Z"/><path class="cls-14" d="M44.03187,263.57364c4.529,4.179,6.98083,9.84479,11.022,14.409a57.08761,57.08761,0,0,0,13.969,11.49372c.6024.35321,1.03666-.28788.429-.64416a57.11544,57.11544,0,0,1-15.9205-13.91673c-3.06275-3.87489-5.05388-8.30475-8.8437-11.80175-.51048-.471-1.16781-.01253-.65585.45987Z"/><path class="cls-14" d="M50.71,257.95386c6.732,7.9217,12.9405,18.42838,24.561,22.20645.61755.20078.90171-.51944.27928-.7218C64.12774,275.7248,58.03,265.28276,51.42941,257.51566c-.39308-.46254-1.10894-.02015-.71943.4382Z"/><path class="cls-14" d="M54.67712,254.78895c7.08016,5.89856,15.29728,15.559,25.689,16.5113.58186.05332.74069-.705.15148-.759-10.02267-.91848-18.32751-10.54673-25.25315-16.31655-.437-.36406-1.022.20212-.58737.56423Z"/><path class="cls-14" d="M59.22443,250.42083a81.14949,81.14949,0,0,0,11.93271,8.32293c3.509,1.98553,7.23266,4.16815,11.37544,4.08156a.38721.38721,0,0,0,0-.77395c-4.38107.09157-8.51083-2.50259-12.17813-4.66531a80.4486,80.4486,0,0,1-10.58276-7.5125c-.38024-.31645-.93065.2282-.54726.54726Z"/><path class="cls-14" d="M61.95438,241.709c7.00533,5.67306,11.62613,13.055,20.70152,15.79576a.38731.38731,0,0,0,.20575-.7463c-8.94857-2.70248-13.485-10.0292-20.36-15.59672-.38372-.31074-.9346.23359-.54726.54726Z"/><path class="cls-14" d="M80.16751,250.7874l7.09773,2.65776c.467.17487.66871-.57294.20575-.7463l-7.09773-2.65776c-.467-.17487-.66871.57294-.20575.7463Z"/><g class="cls-15"><path class="cls-16" d="M87.23509,262.10278c-5.6572,14.08265-8.26094,29.03279-9.932,44.052-1.788,16.06986-3.03285,32.20989-4.49473,48.312-.02251.24793.3646.2464.387,0,1.41918-15.63178,2.65651-31.29319,4.34021-46.89909,1.66839-15.464,4.24875-30.86427,10.07271-45.362.09281-.231-.28133-.33146-.37315-.10287Z"/><path class="cls-16" d="M89.97871,267.66249a365.43092,365.43092,0,0,0-12.38735,87.90686.1936.1936,0,0,0,.387,0,365.01129,365.01129,0,0,1,12.37353-87.804.19365.19365,0,0,0-.37315-.10287Z"/><path class="cls-16" d="M94.03971,272.07167c-3.34224,28.75768-13.64822,56.63006-12.57111,85.8595.00915.24827.39617.24947.387,0-1.07693-29.2245,9.2292-57.10465,12.57111-85.8595.0287-.24691-.35852-.24485-.387,0Z"/><path class="cls-16" d="M97.63457,275.59081c.16924,14.46377-5.00938,28.66652-7.2348,42.87228a259.45423,259.45423,0,0,0-3.0706,41.20282.1936.1936,0,0,0,.387,0,258.50764,258.50764,0,0,1,3.53034-44.01243c2.23935-13.28554,6.93392-26.48666,6.77506-40.06266a.1936.1936,0,0,0-.387,0Z"/><path class="cls-16" d="M102.57134,281.63967c-5.708,22.76-8.348,45.8611-8.96461,69.28965a.19361.19361,0,0,0,.387,0c.61547-23.38691,3.25274-46.4666,8.95079-69.18678a.19365.19365,0,0,0-.37315-.10287Z"/><path class="cls-16" d="M103.73,293.68276l-3.90944,39.67457c-.0244.24765.36274.246.387,0l3.90944-39.67457c.0244-.24765-.36274-.246-.387,0Z"/></g><path class="cls-14" d="M83.46872,265.11635l5.66943,2.08072c.46828.17186.67023-.57583.20575-.7463l-5.66943-2.08072c-.46828-.17186-.67023.57583-.20575.7463Z"/><path class="cls-14" d="M81.94447,271.21469a116.55124,116.55124,0,0,0,14.1302,2.894c.48714.06875.69767-.67688.20575-.7463a116.55124,116.55124,0,0,1-14.1302-2.894.3873.3873,0,0,0-.20575.7463Z"/><path class="cls-14" d="M78.79633,277.14229c7.5173,1.63157,14.8206,4.31254,22.61575,3.8865.49535-.02707.49851-.80119,0-.77395-7.72768.42235-14.965-2.243-22.41-3.85886-.48557-.10539-.693.64054-.20575.7463Z"/><path class="cls-14" d="M77.98158,284.82969c8.57175-1.82093,16.47913,4.295,25.04811,1.939a.3873.3873,0,0,0-.20575-.7463c-8.52144,2.343-16.46988-3.76132-25.04811-1.939-.48693.10344-.28087.84968.20575.7463Z"/><path class="cls-14" d="M76.08148,290.9566c4.58367-.12872,8.97232,2.079,13.49041,2.73886a76.8726,76.8726,0,0,0,13.85893.47143c.49661-.01767.499-.7917,0-.77395a70.77074,70.77074,0,0,1-15.12063-.67876c-4.12331-.74556-7.98894-2.65058-12.22871-2.53152a.38721.38721,0,0,0,0,.77395Z"/><path class="cls-14" d="M75.46487,296.473c3.48771-.68622,5.23869,1.8459,7.92382,3.10993a15.05666,15.05666,0,0,0,5.21579,1.2009c4.5746.39561,9.6716,1.05207,14.17891.01207.48512-.11194.27979-.85833-.20575-.7463-3.05746.70547-6.10959.38631-9.20792.22708-2.65446-.13642-5.58324-.03367-8.1358-.82945-3.60684-1.12446-5.9321-4.51594-9.9748-3.72052-.48825.09607-.28156.84218.20575.7463Z"/><path class="cls-14" d="M73.77441,303.39277c4.94627-.44892,9.84974,2.57629,14.75289,3.2557a38.01593,38.01593,0,0,0,14.03287-.78183c.48457-.11428.27943-.86073-.20575-.7463a36.9749,36.9749,0,0,1-16.487.271c-4.08261-.89131-7.82841-3.15956-12.093-2.7725-.492.04465-.49669.819,0,.77395Z"/><path class="cls-14" d="M71.33992,307.67352c5.2184.885,9.83241,3.6352,15.1215,4.40048a35.79962,35.79962,0,0,0,14.81137-1.06813.3873.3873,0,0,0-.20575-.7463,34.83425,34.83425,0,0,1-16.439.7064c-4.50784-.92427-8.548-3.26971-13.08241-4.03875-.48718-.08263-.69654.66306-.20575.7463Z"/><path class="cls-14" d="M71.68923,313.82053c5.6607.23545,10.63269,3.32941,16.27342,3.81471a27.69118,27.69118,0,0,0,13.73509-2.46469c.4543-.20175.061-.86885-.39063-.66828a26.54963,26.54963,0,0,1-17.15919,1.72848c-4.2199-1.02948-8.054-3.001-12.4587-3.18417-.498-.02071-.49707.75327,0,.77395Z"/><path class="cls-14" d="M72.94326,320.03832a118.49383,118.49383,0,0,0,17.89121,2.3667c4.77442.17552,10.33417.29022,14.70126-1.938.44378-.22643.05259-.89442-.39063-.66828-4.60842,2.35134-10.70594,2.05108-15.74064,1.76469A124.07532,124.07532,0,0,1,73.149,319.292c-.48669-.09319-.69517.65259-.20575.7463Z"/><path class="cls-14" d="M72.22,325.64195c9.96943.72492,20.8839,2.79073,30.55142-.60115.46691-.16382.266-.91181-.20575-.7463-9.56832,3.35708-20.46742,1.29179-30.34567.5735-.49693-.03613-.49464.738,0,.77395Z"/><path class="cls-14" d="M71.14242,331.43749c10.37273-.30669,21.03732,4.05719,30.94508-.65894.44949-.214.05724-.88147-.39063-.66828-9.73867,4.63564-20.36888.25211-30.55446.55327-.49693.01469-.499.7887,0,.77395Z"/><path class="cls-14" d="M71.202,335.49a42.19323,42.19323,0,0,1,14.857,1.09059,46.05826,46.05826,0,0,0,12.7211.65008c.49523-.02784.49846-.802,0-.77395A53.93711,53.93711,0,0,1,83.779,335.24987a36.65733,36.65733,0,0,0-12.577-.53379c-.48734.06215-.49354.83689,0,.77395Z"/><path class="cls-14" d="M70.36245,339.39433c10.06451.03382,19.82212,4.28355,29.90153,2.18558.48731-.10143.28108-.84763-.20575-.7463-9.97962,2.07719-19.71612-2.1797-29.69579-2.21323a.38721.38721,0,0,0,0,.77395Z"/><path class="cls-14" d="M69.89427,343.85951c4.97958-.13961,9.7156,2.34473,14.645,2.96119a82.99341,82.99341,0,0,0,13.22188.268c.49663-.01748.499-.79151,0-.77395-5.29394.1863-10.65555.3297-15.88275-.68919-4.05709-.79081-7.787-2.65762-11.98417-2.53995a.38721.38721,0,0,0,0,.77395Z"/><path class="cls-14" d="M70.56687,348.948A117.84271,117.84271,0,0,0,85.057,351.371c4.15041.41895,8.97949,1.26791,12.96508-.319a.389.389,0,0,0-.10287-.76012l-.68386-.00526a.38721.38721,0,0,0,0,.77395,123.11816,123.11816,0,0,1-26.46278-2.85884c-.48483-.11109-.69182.63493-.20575.7463Z"/><path class="cls-14" d="M70.92947,354.20272c4.87836-.41724,9.4813,1.85465,14.27306,2.45814a19.88531,19.88531,0,0,0,11.52263-1.68865c.44773-.218.05582-.88566-.39063-.66828-4.76521,2.32025-9.80932,2.04649-14.84248.88176-3.54573-.82052-6.87368-2.07243-10.56258-1.75693-.49256.04213-.497.81646,0,.77395Z"/><g class="cls-17"><path class="cls-16" d="M74.989,247.48518c-.20087-4.09905-.29709-8.33255,2.17209-11.83076.1439-.20387-.19149-.39741-.33414-.19531-2.5101,3.55619-2.42933,7.85483-2.22492,12.02607.01215.24788.39919.24934.387,0Z"/><path class="cls-16" d="M78.95817,247.47778a22.086,22.086,0,0,1,4.32714-10.7551c.14959-.19919-.18622-.39227-.33414-.19531a22.426,22.426,0,0,0-4.38,10.95041c-.02946.24676.35776.24464.387,0Z"/><path class="cls-16" d="M84.62146,247.476a16.9047,16.9047,0,0,1,.97807-4.01719c.42141-1.12176,1.37888-4.0859,2.95658-4.095a.1936.1936,0,0,0,0-.387c-1.54507.00894-2.09345,1.5664-2.656,2.7794a18.68308,18.68308,0,0,0-1.66558,5.7198c-.02888.24688.35834.2448.387,0Z"/><path class="cls-16" d="M90.335,248.94965c-.92551-2.3713,1.49916-5.53837,3.08974-7.16189.17442-.178-.099-.4519-.27363-.27363-1.73362,1.76954-4.21021,4.92258-3.18926,7.5384.08955.22945.4639.12963.37315-.10287Z"/><path class="cls-16" d="M90.40568,259.59778c.27238-5.40273,3.11615-10.02651,6.48133-14.091.15769-.19046-.11461-.4657-.27363-.27363-3.43641,4.15053-6.31684,8.85386-6.59467,14.36465-.01255.24891.37446.24824.387,0Z"/><path class="cls-16" d="M93.21,263.598a23.10163,23.10163,0,0,1,2.05287-7.92994c1.366-2.56569,3.47578-4.84771,5.23416-7.15039.15109-.19786-.18484-.39083-.33414-.19531-1.8804,2.46247-4.17528,4.9083-5.52258,7.71723a24.60071,24.60071,0,0,0-1.80345,7.45555c-.03272.24351.34009.34891.37315.10287Z"/><path class="cls-16" d="M95.88971,266.66025a30.47689,30.47689,0,0,1,2.93142-7.48942c1.27955-2.28679,2.83766-4.86205,5.21241-6.12172.22009-.11674.02479-.45089-.19531-.33414-2.25734,1.19739-3.765,3.5522-5.02792,5.69731a30.723,30.723,0,0,0-3.29374,8.1451.19365.19365,0,0,0,.37315.10287Z"/><path class="cls-16" d="M98.62757,269.14627a15.17832,15.17832,0,0,1,7.94056-12.28667c.219-.11874.02387-.453-.19531-.33414a15.56538,15.56538,0,0,0-8.13222,12.62081c-.018.24848.3691.24734.387,0Z"/><path class="cls-16" d="M102.47642,273.5063c.06707-2.47345,1.50964-4.93149,2.66982-7.0539,1.09078-1.99544,2.25832-4.04376,4.29882-5.19034a.19363.19363,0,0,0-.19531-.33414c-2.10556,1.18314-3.3095,3.26537-4.43765,5.32917-1.1843,2.16654-2.65415,4.72323-2.72265,7.24921a.19361.19361,0,0,0,.387,0Z"/><path class="cls-16" d="M105.14765,277.77254a14.38782,14.38782,0,0,1,7.005-10.41924c.2099-.13281.016-.46782-.19531-.33414a14.78618,14.78618,0,0,0-7.19667,10.75338c-.02739.24715.3598.24521.387,0Z"/><path class="cls-16" d="M106.17178,284.75083a24.88412,24.88412,0,0,1,6.71954-10.52167c.18231-.17044-.09176-.44365-.27363-.27363a25.29964,25.29964,0,0,0-6.81905,10.69243c-.07781.23718.29574.33882.37315.10287Z"/><path class="cls-16" d="M106.59355,291.73923c1.13211-3.88581,3.88028-6.8151,6.64389-9.64443.17414-.17828-.09925-.45217-.27363-.27363-2.8143,2.88123-5.59136,5.86093-6.74341,9.81519a.19365.19365,0,0,0,.37315.10287Z"/><path class="cls-16" d="M107.16018,299.17893a43.98437,43.98437,0,0,1,5.68348-9.15623c.16243-.18736-.11014-.46222-.27363-.27363a44.40378,44.40378,0,0,0-5.744,9.23455c-.11251.22157.22124.41766.33414.19531Z"/><path class="cls-16" d="M106.52976,306.39817l2.38548-4.41106c.77114-1.42594,1.43008-3.13866,2.875-4.01206a.19363.19363,0,0,0-.19531-.33414,7.16372,7.16372,0,0,0-2.41744,3.04812q-1.49355,2.75548-2.98185,5.51382c-.11848.21908.21551.41468.33414.19531Z"/><path class="cls-16" d="M106.646,315.63933a85.58591,85.58591,0,0,1,4.93018-12.42305c.10961-.22264-.224-.419-.33414-.19531a86.2269,86.2269,0,0,0-4.96919,12.51549c-.07409.23836.29934.34031.37315.10287Z"/></g><g class="cls-15"><path class="cls-12" d="M72.2741,245.51037c5.82245-1.51568,12.13017-1.64924,17.1166,2.17517.29626.22722.58566-.27673.293-.50121-5.10433-3.91484-11.60343-3.78529-17.56388-2.23368a.29048.29048,0,0,0,.15431.55973Z"/><path class="cls-12" d="M71.159,242.56542c7.02352-1.79288,13.73568-1.70856,20.14739,2.025a.29045.29045,0,0,0,.293-.50121c-6.53947-3.808-13.42843-3.91286-20.59467-2.08354a.29048.29048,0,0,0,.15431.55973Z"/><path class="cls-12" d="M72.2053,236.815c7.02628.13953,14.3047,1.05119,19.88952,5.70668.285.23759.6978-.17091.41045-.41045-5.70869-4.75874-13.10717-5.73386-20.3-5.87669a.29041.29041,0,0,0,0,.58046Z"/><path class="cls-12" d="M88.81964,257.94528a38.72359,38.72359,0,0,1,17.6517,21.77987,44.93293,44.93293,0,0,1,1.98643,14.60085c-.04167,5.27617-.28887,10.60465,1.59155,15.63119.12971.34672.691.1966.55973-.15431-2.11269-5.64744-1.50367-11.65677-1.5697-17.5591a41.608,41.608,0,0,0-2.5959-14.33781,39.16377,39.16377,0,0,0-17.33083-20.46189c-.32688-.1815-.62.31964-.293.50121Z"/><path class="cls-12" d="M90.07359,255.98412c3.95711,1.26976,8.65,3.06762,11.639,6.0806,2.69744,2.71913,3.96687,6.89892,5.48989,10.33194a41.78811,41.78811,0,0,1,3.66133,12.96479c.45326,4.341.67485,8.71334.98968,13.06615.02679.3704.60746.37333.58046,0-.34895-4.82446-.54533-9.69168-1.15274-14.492a43.857,43.857,0,0,0-3.85662-12.4608c-1.54415-3.47949-2.83023-7.63961-5.753-10.24746-3.1335-2.79591-7.49324-4.53532-11.4437-5.803-.35652-.1144-.50918.44586-.15431.55973Z"/><path class="cls-12" d="M91.61942,252.02719c2.89011.39553,5.18948,2.73647,7.38332,4.492a72.8539,72.8539,0,0,1,6.059,5.314c3.86674,3.86789,6.98839,8.46336,8.12654,13.87978.07677.36535.63643.21074.55973-.15431-1.15732-5.50766-4.34382-10.20275-8.27582-14.13591a80.27286,80.27286,0,0,0-7.15961-6.18655c-1.98158-1.56218-3.94716-3.414-6.53889-3.7687-.3653-.05-.52333.50922-.15431.55973Z"/><path class="cls-12" d="M92.09951,245.96716c4.0736,2.80646,8.50639,5.4184,11.90916,9.0523,3.32763,3.55366,5.59584,7.93187,7.828,12.214.17274.33137.67385.03822.50121-.293-2.2575-4.33071-4.56185-8.7322-7.91879-12.33152-3.42773-3.67522-7.91847-6.31279-12.02664-9.14306-.30837-.21245-.599.29041-.293.50121Z"/><path class="cls-12" d="M93.58132,243.26536a62.24951,62.24951,0,0,1,10.34357,9.45746c.24623.28185.65537-.13009.41045-.41045a62.91162,62.91162,0,0,0-10.461-9.54823c-.30275-.21969-.59275.28368-.293.50121Z"/></g><path class="cls-12" d="M86.01432,307.46144s-.77395,7.4815-1.28991,10.4483-2.45083,7.86847-4.3857,6.96553-8.9004-2.9668-8.9004-2.9668a28.92551,28.92551,0,0,1,3.48277,1.80588c2.19285,1.28991,6.70755,2.9668,7.73948,1.5479s3.732-10.12358,3.80087-13.18824A14.997,14.997,0,0,0,86.01432,307.46144Z"/><path class="cls-12" d="M73.82464,305.0751a4.6718,4.6718,0,0,0,1.67689,1.28991,74.3435,74.3435,0,0,0,8.25544,1.09643,54.42551,54.42551,0,0,1-5.48213-.90294C77.11392,306.107,74.08262,305.20409,73.82464,305.0751Z"/><path class="cls-11" d="M158.24915,268.12029c1.34553-4.37112,8.11521-11.8027,15.16263-17.22034,7.64468-5.87677,18.43945-12.48606,23.27785-11.99619,9.83138.9954,14.01988.55246,18.60785,9.511s30.976,25.9095,29.00968,30.22289c-.89806,1.97007-8.3741,17.15883-17.76,26.0004-4.10678,3.8686-24.87168-12.15179-25.53-8-1.11,7,2.21125,17.28956,3.33,23,1.91634,9.78149,4.30713,37.02473-2.24712,39.67912s-22.88842,9.98976-26.16555,3.35377S151.5156,289.9951,158.24915,268.12029Z"/><path class="cls-12" d="M205.3199,240.89486s1.41683,6.77833,1.06671,9.02577c-.17477,1.12184-1.06671,2.3752-3.46682,3.32528s-17.15451-.99525-19.43953,2.87826c-1.29424,2.194,3.85632,6.5815,1.599,9.80334-3.34164,4.76949-15.68957,13.482-17.00761,16.63988-4.36092,10.4483-2.50753,26.669-2.61655,32.47356-.07619,4.05634-.98121,11.99619-4.03386,3.28928-2.70468-7.71444-10.6062-39.05444-.47243-53.30566S187.47778,237.25919,205.3199,240.89486Z"/><path class="cls-11" d="M203.58864,239.347s1.41683,6.77833,1.06671,9.02577c-.17477,1.12184-1.06671,2.3752-3.46682,3.32528s-17.15451-.99525-19.43953,2.87826c-1.29424,2.194,3.85632,6.5815,1.599,9.80334-3.34164,4.76949-15.68957,13.482-17.00761,16.63988-4.36092,10.4483-1.09023,27.4429-1.19925,33.24751-.07619,4.05634-1.19925,14.99524-4.2519,6.28833-2.70468-7.71444-11.80546-42.82744-1.67169-57.07865S185.74652,235.7113,203.58864,239.347Z"/><path class="cls-13" d="M186.982,244.80927c12.52705.75029,20.26546,7.82409,28.76093,13.64824,9.45514,6.48206,19.59932,12.59771,27.35484,20.48494.14348.14591-.22053.3519-.36269.20732-7.45231-7.57888-17.15647-13.47456-26.24187-19.70314-8.70932-5.97076-16.78508-13.54038-29.64059-14.31034-.24993-.015-.12-.342.12939-.327Z"/><path class="cls-13" d="M191.425,249.40118a256.36277,256.36277,0,0,1,47.9241,33.147c.155.13653-.146.40512-.302.26775a256.36278,256.36278,0,0,0-47.9241-33.147c-.19307-.10406.11083-.37077.302-.26775Z"/><path class="cls-13" d="M187.53509,254.98634a202.859,202.859,0,0,1,47.39722,31.17344c.15417.13707-.14679.40572-.302.26775a202.52874,202.52874,0,0,0-47.31773-31.13339c-.19865-.0951.02225-.40366.22247-.3078Z"/><path class="cls-13" d="M188.02486,261.09728c16.24922,9.54034,33.267,18.51113,45.97858,31.17509.14512.14458-.219.35048-.36269.20732-12.68837-12.64083-29.69865-21.592-45.91785-31.11467-.18759-.11014.11574-.37709.302-.26775Z"/><path class="cls-13" d="M184.07145,264.6951a408.23257,408.23257,0,0,1,46.362,32.4014c.16255.13156-.13886.39975-.302.26775a408.23257,408.23257,0,0,0-46.362-32.4014c-.1859-.11189.11727-.37891.302-.26775Z"/><path class="cls-13" d="M184.72636,272.54579a396.16532,396.16532,0,0,1,41.27691,30.5631c.14545.12326-.10356.35377-.2495.2301a396.16531,396.16531,0,0,0-41.27691-30.5631c-.16478-.10639.08579-.33579.2495-.2301Z"/><path class="cls-14" d="M241.398,276.9723c-4.66794,7.66593-11.199,13.21369-18.86286,18.43648-.44115.30063-.94557-.32585-.50446-.62646,7.537-5.13629,13.99174-10.58524,18.58076-18.12157.26445-.4343,1.05258-.12532.78655.31156Z"/><path class="cls-14" d="M232.66588,267.57364c-5.02715,4.179-7.74873,9.84479-12.23442,14.409A62.43813,62.43813,0,0,1,204.9258,293.4764c-.66867.35321-1.15069-.28788-.47621-.64416a61.89884,61.89884,0,0,0,17.67178-13.91673c3.39966-3.87489,5.60982-8.30475,9.81652-11.80175.56664-.471,1.29627-.01253.728.45987Z"/><path class="cls-14" d="M225.25317,261.95386c-7.47253,7.9217-14.364,18.42838-27.26279,22.20645-.68548.20078-1.0009-.51944-.31-.7218,12.67906-3.7137,19.44752-14.15574,26.77423-21.92284.43632-.46254,1.23093-.02015.79857.4382Z"/><path class="cls-14" d="M220.84964,258.78895c-7.859,5.89856-16.98,15.559-28.51487,16.5113-.64587.05332-.82217-.705-.16814-.759,11.12518-.91848,20.34357-10.54673,28.031-16.31655.48505-.36406,1.13445.20212.652.56423Z"/><path class="cls-14" d="M215.80212,254.42083a90.86627,90.86627,0,0,1-13.24533,8.32293c-3.895,1.98553-8.02826,4.16815-12.62676,4.08156a.38791.38791,0,1,1,0-.77395c4.863.09157,9.447-2.50259,13.51774-4.66531a89.8734,89.8734,0,0,0,11.74688-7.5125c.42207-.31645,1.033.2282.60746.54726Z"/><path class="cls-14" d="M212.77188,245.709c-7.77592,5.67306-12.905,13.055-22.97872,15.79576a.39079.39079,0,1,1-.22838-.7463c9.93293-2.70248,14.96836-10.0292,22.59963-15.59672.42593-.31074,1.0374.23359.60746.54726Z"/><path class="cls-14" d="M192.55527,254.7874l-7.87849,2.65776a.39064.39064,0,1,1-.22838-.7463l7.87849-2.65776a.39064.39064,0,1,1,.22838.7463Z"/><g class="cls-15"><path class="cls-16" d="M184.71025,266.10278c6.27951,14.08265,9.16965,29.03279,11.02455,44.052,1.98465,16.06986,3.36647,32.20989,4.98916,48.312.025.24793-.40471.2464-.42954,0-1.57529-15.63178-2.94873-31.29319-4.81764-46.89909-1.85192-15.464-4.71612-30.86427-11.18072-45.362-.103-.231.31227-.33146.4142-.10287Z"/><path class="cls-16" d="M181.66482,271.66249a331.72075,331.72075,0,0,1,13.75,87.90686c.005.24911-.42449.24913-.42954,0a331.34006,331.34006,0,0,0-13.73464-87.804c-.07161-.24082.34263-.34357.4142-.10287Z"/><path class="cls-16" d="M177.1571,276.07167c3.70989,28.75768,15.14955,56.63006,13.954,85.8595-.01016.24827-.43975.24947-.42954,0,1.1954-29.2245-10.24442-57.10465-13.954-85.8595-.03185-.24691.398-.24485.42954,0Z"/><path class="cls-16" d="M173.1668,279.59081c-.18786,14.46377,5.56042,28.66652,8.03064,42.87228a234.27684,234.27684,0,0,1,3.40837,41.20282c-.0011.249-.43065.24945-.42954,0a233.50523,233.50523,0,0,0-3.91869-44.01243c-2.48569-13.28554-7.69666-26.48666-7.52033-40.06266.00323-.24884.43278-.2495.42954,0Z"/><path class="cls-16" d="M167.687,285.63967c6.33592,22.76,9.26635,45.8611,9.95073,69.28965.00728.24911-.42227.249-.42954,0-.68317-23.38691-3.61054-46.4666-9.93539-69.18678-.06726-.2416.34689-.34467.4142-.10287Z"/><path class="cls-16" d="M166.40085,297.68276l4.33949,39.67457c.02709.24765-.40264.246-.42954,0l-4.33949-39.67457c-.02709-.24765.40264-.246.42954,0Z"/></g><path class="cls-14" d="M188.89091,269.11635l-6.29308,2.08072a.39066.39066,0,1,1-.22838-.7463l6.29308-2.08072a.39066.39066,0,1,1,.22838.7463Z"/><path class="cls-14" d="M190.58284,275.21469a141.94858,141.94858,0,0,1-15.68454,2.894c-.54073.06875-.77442-.67688-.22838-.7463a141.94859,141.94859,0,0,0,15.68454-2.894.39083.39083,0,1,1,.22838.7463Z"/><path class="cls-14" d="M194.07727,281.14229c-8.34422,1.63157-16.45089,4.31254-25.10351,3.8865a.38787.38787,0,1,1,0-.77395c8.57774.42235,16.61121-2.243,24.87514-3.85886.539-.10539.76926.64054.22838.7463Z"/><path class="cls-14" d="M194.98166,288.82969c-9.51466-1.82093-18.29186,4.295-27.80345,1.939a.39082.39082,0,1,1,.22838-.7463c9.45882,2.343,18.28159-3.76132,27.80345-1.939.54049.10344.31177.84968-.22838.7463Z"/><path class="cls-14" d="M197.09076,294.9566c-5.08788-.12872-9.95928,2.079-14.97438,2.73886a94.64777,94.64777,0,0,1-15.38343.47143.3879.3879,0,1,1,0-.77395,87.10037,87.10037,0,0,0,16.78392-.67876c4.57688-.74556,8.86773-2.65058,13.57389-2.53152a.3879.3879,0,1,1,0,.77395Z"/><path class="cls-14" d="M197.77521,300.473c-3.87136-.68622-5.81495,1.8459-8.79546,3.10993a18.2626,18.2626,0,0,1-5.78953,1.2009c-5.07781.39561-10.73549,1.05207-15.73861.01207-.53849-.11194-.31056-.85833.22838-.7463,3.39379.70547,6.78165.38631,10.22081.22708,2.94645-.13642,6.19741-.03367,9.03075-.82945,4.0036-1.12446,6.58464-4.51594,11.072-3.72052.542.09607.31253.84218-.22838.7463Z"/><path class="cls-14" d="M199.65162,307.39277c-5.49037-.44892-10.93322,2.57629-16.37574,3.2557a46.723,46.723,0,0,1-15.5765-.78183c-.53787-.11428-.31017-.86073.22838-.7463a45.44545,45.44545,0,0,0,18.30059.271c4.5317-.89131,8.68955-3.15956,13.42327-2.7725.54612.04465.55132.819,0,.77395Z"/><path class="cls-14" d="M202.35391,311.67352c-5.79243.885-10.914,3.6352-16.78489,4.40048a43.95483,43.95483,0,0,1-16.44065-1.06813.39082.39082,0,1,1,.22838-.7463,42.78306,42.78306,0,0,0,18.24728.7064c5.00371-.92427,9.48826-3.26971,14.5215-4.03875.54077-.08263.77316.66306.22838.7463Z"/><path class="cls-14" d="M201.96618,317.82053c-6.28338.23545-11.8023,3.32941-18.06353,3.81471a33.72007,33.72007,0,0,1-15.246-2.46469c-.50428-.20175-.06773-.86885.4336-.66828a32.455,32.455,0,0,0,19.04673,1.72848c4.68409-1.02948,8.93994-3.001,13.82918-3.18417a.38789.38789,0,1,1,0,.77395Z"/><path class="cls-14" d="M200.57419,324.03832a145.24908,145.24908,0,0,1-19.85927,2.3667c-5.29961.17552-11.47094.29022-16.31843-1.938-.4926-.22643-.05837-.89442.4336-.66828,5.11536,2.35134,11.88361,2.05108,17.47213,1.76469a152.01664,152.01664,0,0,0,18.04358-2.27143c.54023-.09319.77164.65259.22838.7463Z"/><path class="cls-14" d="M201.37707,329.64195c-11.06608.72492-23.18116,2.79073-33.91212-.60115a.3907.3907,0,1,1,.22838-.7463c10.62085,3.35708,22.71887,1.29179,33.68374.5735a.38784.38784,0,1,1,0,.77395Z"/><path class="cls-14" d="M202.57314,335.43749c-11.51374-.30669-23.35146,4.05719-34.34909-.65894-.49894-.214-.06353-.88147.4336-.66828,10.80993,4.63564,22.60949.25211,33.9155.55327a.3879.3879,0,1,1,0,.77395Z"/><path class="cls-14" d="M202.507,339.49a51.83166,51.83166,0,0,0-16.49133,1.09059,56.65557,56.65557,0,0,1-14.12044.65008.38787.38787,0,1,1,0-.77395,66.27487,66.27487,0,0,0,16.65131-1.20688,45.07968,45.07968,0,0,1,13.96046-.53379c.54094.06215.54783.83689,0,.77395Z"/><path class="cls-14" d="M203.4389,343.39433c-11.17162.03382-22.00258,4.28355-33.19075,2.18558-.54092-.10143-.312-.84763.22838-.7463,11.07739,2.07719,21.88493-2.1797,32.96237-2.21323a.38792.38792,0,1,1,0,.77395Z"/><path class="cls-14" d="M203.95858,347.85951c-5.52734-.13961-10.78433,2.34473-16.256,2.96119a102.214,102.214,0,0,1-14.67631.268.3879.3879,0,1,1,0-.77395c5.87629.1863,11.82768.3297,17.62988-.68919,4.50338-.79081,8.64362-2.65762,13.30244-2.53995a.3879.3879,0,1,1,0,.77395Z"/><path class="cls-14" d="M203.212,352.948a144.05451,144.05451,0,0,1-16.08412,2.423c-4.607.41895-9.96725,1.26791-14.39126-.319a.38524.38524,0,0,1,.11419-.76012l.75908-.00526a.38791.38791,0,1,1,0,.77395,151.12025,151.12025,0,0,0,29.37373-2.85884c.53817-.11109.76792.63493.22838.7463Z"/><path class="cls-14" d="M202.80951,358.20272c-5.415-.41724-10.52426,1.85465-15.84312,2.45814a24.25747,24.25747,0,0,1-12.79013-1.68865c-.497-.218-.062-.88566.4336-.66828,5.28939,2.32025,10.88837,2.04649,16.47518.88176,3.93577-.82052,7.6298-2.07243,11.72448-1.75693.54674.04213.5517.81646,0,.77395Z"/><g class="cls-17"><path class="cls-16" d="M198.30342,251.48518c.223-4.09905.32977-8.33255-2.411-11.83076-.15973-.20387.21256-.39741.3709-.19531,2.78622,3.55619,2.69656,7.85483,2.46967,12.02607-.01348.24788-.4431.24934-.42954,0Z"/><path class="cls-16" d="M193.89763,251.47778a20.92507,20.92507,0,0,0-4.80314-10.7551c-.166-.19919.2067-.39227.3709-.19531a21.2378,21.2378,0,0,1,4.86178,10.95041c.0327.24676-.39712.24464-.42954,0Z"/><path class="cls-16" d="M187.61138,251.476a15.53865,15.53865,0,0,0-1.08566-4.01719c-.46776-1.12176-1.53056-4.0859-3.28181-4.095a.194.194,0,1,1,0-.387c1.715.00894,2.32374,1.5664,2.94821,2.7794a17.3121,17.3121,0,0,1,1.84879,5.7198c.03206.24688-.39775.2448-.42954,0Z"/><path class="cls-16" d="M181.2693,252.94965c1.02732-2.3713-1.66407-5.53837-3.42961-7.16189-.1936-.178.10988-.4519.30373-.27363,1.92432,1.76954,4.67334,4.92258,3.54008,7.5384-.0994.22945-.51492.12963-.4142-.10287Z"/><path class="cls-16" d="M181.19088,263.59778c-.30234-5.40273-3.45893-10.02651-7.19429-14.091-.175-.19046.12721-.4657.30373-.27363,3.81442,4.15053,7.01171,8.85386,7.3201,14.36465.01393.24891-.41565.24824-.42954,0Z"/><path class="cls-16" d="M178.0781,267.598c-.40482-2.71375-.83066-5.47975-2.27868-7.92994-1.51628-2.56569-3.85813-4.84771-5.80993-7.15039-.16771-.19786.20518-.39083.3709-.19531,2.08724,2.46247,4.63457,4.9083,6.13008,7.71723a22.61833,22.61833,0,0,1,2.00183,7.45555c.03632.24351-.3775.34891-.4142.10287Z"/><path class="cls-16" d="M175.1036,270.66025a28.75559,28.75559,0,0,0-3.25388-7.48942c-1.4203-2.28679-3.14981-4.86205-5.78578-6.12172-.2443-.11674-.02751-.45089.2168-.33414,2.50565,1.19739,4.17919,3.5522,5.581,5.69731a29.06592,29.06592,0,0,1,3.65605,8.1451c.06738.24158-.34676.34464-.4142.10287Z"/><path class="cls-16" d="M172.06457,273.14627a15.16672,15.16672,0,0,0-8.814-12.28667c-.24309-.11874-.0265-.453.2168-.33414a15.54794,15.54794,0,0,1,9.02678,12.62081c.01993.24848-.4097.24734-.42954,0Z"/><path class="cls-16" d="M167.79234,277.5063c-.07445-2.47345-1.6757-4.93149-2.9635-7.0539-1.21076-1.99544-2.50674-4.04376-4.7717-5.19034-.241-.122-.02472-.4564.2168-.33414,2.33718,1.18314,3.67355,3.26537,4.9258,5.32917,1.31458,2.16654,2.94611,4.72323,3.02215,7.24921.0075.24911-.422.24894-.42954,0Z"/><path class="cls-16" d="M164.82727,281.77254c-.54774-4.452-3.6552-8.07051-7.77557-10.41924-.233-.13281-.01772-.46782.2168-.33414,4.26456,2.43091,7.42259,6.15521,7.98832,10.75338.03041.24715-.39937.24521-.42954,0Z"/><path class="cls-16" d="M163.69048,288.75083a24.74537,24.74537,0,0,0-7.4587-10.52167c-.20236-.17044.10186-.44365.30373-.27363a25.15395,25.15395,0,0,1,7.56916,10.69243c.08637.23718-.32828.33882-.4142.10287Z"/><path class="cls-16" d="M163.22232,295.73923c-1.25664-3.88581-4.30711-6.8151-7.37473-9.64443-.19329-.17828.11016-.45217.30373-.27363,3.12388,2.88123,6.20642,5.86093,7.48519,9.81519.07747.23956-.33691.34187-.4142.10287Z"/><path class="cls-16" d="M162.59336,303.17893a43.537,43.537,0,0,0-6.30867-9.15623c-.1803-.18736.12226-.46222.30373-.27363a43.96409,43.96409,0,0,1,6.37583,9.23455c.12488.22157-.24558.41766-.3709.19531Z"/><path class="cls-16" d="M163.29312,310.39817l-2.64789-4.41106c-.856-1.42594-1.58739-3.13866-3.19123-4.01206-.23628-.12867-.02062-.46343.2168-.33414a7.34562,7.34562,0,0,1,2.68336,3.04812q1.65785,2.75548,3.30986,5.51382c.13151.21908-.23921.41468-.3709.19531Z"/><path class="cls-16" d="M163.16409,319.63933a80.80433,80.80433,0,0,0-5.47251-12.42305c-.12167-.22264.24867-.419.3709-.19531a81.41254,81.41254,0,0,1,5.51581,12.51549c.08224.23836-.33227.34031-.4142.10287Z"/></g><g class="cls-15"><path class="cls-12" d="M201.317,249.51037c-6.46293-1.51568-13.46451-1.64924-18.99946,2.17517-.32885.22722-.65009-.27673-.3252-.50121,5.66581-3.91484,12.87983-3.78529,19.49594-2.23368.401.094.231.65406-.17128.55973Z"/><path class="cls-12" d="M202.55471,246.56542c-7.79611-1.79288-15.24662-1.70856-22.36364,2.025-.359.18835-.68375-.31311-.3252-.50121,7.25882-3.808,14.90558-3.91286,22.86012-2.08354.40149.09233.23134.65232-.17128.55973Z"/><path class="cls-12" d="M201.39334,240.815c-7.79918.13953-15.87824,1.05119-22.0774,5.70668-.31638.23759-.77456-.17091-.4556-.41045,6.33665-4.75874,14.549-5.73386,22.533-5.87669a.29093.29093,0,1,1,0,.58046Z"/><path class="cls-12" d="M182.95139,261.94528A39.84277,39.84277,0,0,0,163.358,283.72515,40.79743,40.79743,0,0,0,161.153,298.326c.04626,5.27617.32064,10.60465-1.76662,15.63119-.144.34672-.767.1966-.6213-.15431,2.34509-5.64744,1.66907-11.65677,1.74237-17.5591a37.96184,37.96184,0,0,1,2.88145-14.33781,40.5541,40.5541,0,0,1,19.23725-20.46189c.36283-.1815.68817.31964.3252.50121Z"/><path class="cls-12" d="M181.5595,259.98412c-4.3924,1.26976-9.60153,3.06761-12.91928,6.0806-2.99417,2.71913-4.40323,6.89892-6.09379,10.33194a38.66637,38.66637,0,0,0-4.06408,12.96479c-.50312,4.341-.74909,8.71334-1.09855,13.06615-.02974.3704-.67429.37333-.64431,0,.38733-4.82446.60532-9.69168,1.27954-14.492a40.75984,40.75984,0,0,1,4.28085-12.4608c1.714-3.47949,3.14156-7.63961,6.38581-10.24746,3.47819-2.79591,8.31751-4.53532,12.70253-5.803a.29307.29307,0,1,1,.17128.55973Z"/><path class="cls-12" d="M179.84363,256.02719c-3.208.39553-5.76033,2.73647-8.1955,4.492a78.9619,78.9619,0,0,0-6.72555,5.314c-4.29208,3.86789-7.75713,8.46336-9.02048,13.87978-.08522.36535-.70644.21074-.6213-.15431,1.28463-5.50766,4.82165-10.20275,9.18617-14.13591a87.19759,87.19759,0,0,1,7.94718-6.18655c2.19955-1.56218,4.38136-3.414,7.25818-3.7687.40548-.05.5809.50922.17128.55973Z"/><path class="cls-12" d="M179.31073,249.96716c-4.5217,2.80646-9.44211,5.4184-13.21919,9.0523-3.69367,3.55366-6.21139,7.93187-8.68913,12.214-.19174.33137-.748.03822-.55634-.293,2.50583-4.33071,5.06366-8.7322,8.78987-12.33152,3.80479-3.67522,8.78951-6.31279,13.34959-9.14306a.29874.29874,0,1,1,.3252.50121Z"/><path class="cls-12" d="M177.66592,247.26536a67.03585,67.03585,0,0,0-11.48138,9.45746c-.27331.28185-.72746-.13009-.4556-.41045a67.7669,67.7669,0,0,1,11.61178-9.54823.29873.29873,0,1,1,.3252.50121Z"/></g><path class="cls-12" d="M186.0653,311.46144s.85908,7.4815,1.43181,10.4483,2.72043,7.86847,4.86814,6.96553,9.87946-2.9668,9.87946-2.9668a33.60926,33.60926,0,0,0-3.86587,1.80588c-2.43407,1.28991-7.44539,2.9668-8.59083,1.5479s-4.14253-10.12358-4.219-13.18824A13.6,13.6,0,0,1,186.0653,311.46144Z"/><path class="cls-12" d="M199.59587,309.0751a5.11735,5.11735,0,0,1-1.86135,1.28991,91.13868,91.13868,0,0,1-9.16356,1.09643c-1.00226.0645,4.79655-.45147,6.08517-.90294S199.3095,309.20409,199.59587,309.0751Z"/><ellipse class="cls-16" cx="96.97858" cy="292.94992" rx="6.19158" ry="6.38507"/><path class="cls-18" d="M100.10422,289.3432a4.8939,4.8939,0,0,0-7.36762,2.16917,5.39837,5.39837,0,0,0,.28154,4.58511c.89526,1.60571,2.30446,2.02292,4.0636,1.83435.49014-.05253.49543-.82685,0-.77395a3.10355,3.10355,0,0,1-3.57649-1.8899,4.43829,4.43829,0,0,1,.07029-3.70875,4.10536,4.10536,0,0,1,6.13792-1.54752C100.12576,290.29363,100.51311,289.62323,100.10422,289.3432Z"/><path class="cls-18" d="M101.57994,293.0032c-.16552-.466-.91377-.26491-.746.206A2.50573,2.50573,0,0,1,100.32,295.808c-.3386.36468.20747.913.54721.54721A3.2842,3.2842,0,0,0,101.57994,293.0032Z"/><ellipse class="cls-18" cx="95.86603" cy="291.96633" rx="0.6772" ry="0.70952"/><ellipse class="cls-18" cx="98.65534" cy="291.96633" rx="0.6772" ry="0.70952"/><ellipse class="cls-18" cx="96.02739" cy="294.38491" rx="0.6772" ry="0.70952"/><ellipse class="cls-18" cx="98.71996" cy="294.28817" rx="0.6772" ry="0.70952"/><ellipse class="cls-19" cx="97.36555" cy="311.91164" rx="6.19158" ry="6.38507"/><path class="cls-20" d="M94.55645,309.005c2.40428-1.88385,6.95808.52545,6.55026,3.54751a3.14332,3.14332,0,0,1-3.41949,2.64943c-1.21958.00213-4.10973-.50359-4.04615-2.21209.01854-.49811-.75544-.49733-.77395,0-.08028,2.15725,2.45666,2.70562,4.15616,2.92521,2.02167.26121,4.01695-.48762,4.70075-2.54349,1.376-4.137-4.57874-7.37109-7.71484-4.91384-.39171.30692.15941.85116.54726.54726Z"/><ellipse class="cls-20" cx="96.36392" cy="311.25862" rx="0.78813" ry="0.84651"/><ellipse class="cls-20" cx="98.847" cy="311.32312" rx="0.78813" ry="0.84651"/><ellipse class="cls-20" cx="96.39617" cy="313.7417" rx="0.78813" ry="0.84651"/><ellipse class="cls-20" cx="98.78251" cy="313.77395" rx="0.78813" ry="0.84651"/><ellipse class="cls-16" cx="174.84389" cy="295.17524" rx="6.56362" ry="6.23201"/><path class="cls-18" d="M171.53043,291.655a5.39314,5.39314,0,0,1,7.81032,2.11717,4.89712,4.89712,0,0,1-.29846,4.4752c-.949,1.56722-2.44293,1.97443-4.30777,1.79037-.51959-.05127-.5252-.807,0-.7554,1.7679.17446,3.07389-.32385,3.79139-1.8446a4.02155,4.02155,0,0,0-.07451-3.61985,4.54589,4.54589,0,0,0-6.50673-1.51042A.38644.38644,0,0,1,171.53043,291.655Z"/><path class="cls-18" d="M169.966,295.22725c.17547-.45479.96868-.25856.79081.201a2.30263,2.30263,0,0,0,.54483,2.53655c.35895.35594-.21994.89113-.58009.53409A3.02093,3.02093,0,0,1,169.966,295.22725Z"/><ellipse class="cls-18" cx="176.02329" cy="294.21523" rx="0.7179" ry="0.69251"/><ellipse class="cls-18" cx="173.06637" cy="294.21523" rx="0.7179" ry="0.69251"/><ellipse class="cls-18" cx="175.85222" cy="296.57584" rx="0.7179" ry="0.69251"/><ellipse class="cls-18" cx="172.99787" cy="296.48141" rx="0.7179" ry="0.69251"/><ellipse class="cls-16" cx="174.98063" cy="316.0745" rx="6.56362" ry="6.23201"/><path class="cls-18" d="M171.66717,312.55424a5.39314,5.39314,0,0,1,7.81032,2.11717,4.89712,4.89712,0,0,1-.29846,4.4752c-.949,1.56722-2.44293,1.97443-4.30777,1.79037-.51959-.05127-.5252-.807,0-.7554,1.7679.17446,3.07389-.32385,3.79139-1.8446a4.02155,4.02155,0,0,0-.07451-3.61985,4.54589,4.54589,0,0,0-6.50673-1.51042A.38644.38644,0,0,1,171.66717,312.55424Z"/><path class="cls-18" d="M170.10278,316.12651c.17547-.45479.96868-.25856.79081.201a2.30263,2.30263,0,0,0,.54483,2.53655c.35895.35594-.21994.89113-.58009.53409A3.02093,3.02093,0,0,1,170.10278,316.12651Z"/><ellipse class="cls-18" cx="176.16003" cy="315.11449" rx="0.7179" ry="0.69251"/><ellipse class="cls-18" cx="173.20311" cy="315.11449" rx="0.7179" ry="0.69251"/><ellipse class="cls-18" cx="175.98897" cy="317.4751" rx="0.7179" ry="0.69251"/><ellipse class="cls-18" cx="173.13461" cy="317.38068" rx="0.7179" ry="0.69251"/><text class="cls-21" transform="translate(0 444.54447)">MJ</text><rect class="cls-22" x="45.64301" y="421.33111" width="214.73105" height="23" rx="6.34126" ry="6.34126"/><rect class="cls-23" x="47.64301" y="424.31566" width="197.33798" height="17.26481" rx="6.34126" ry="6.34126"/></g></g></svg>