<svg xmlns="http://www.w3.org/2000/svg" viewBox="0 0 364 548"><defs><style>.cls-1{fill:#2a3e59;}.cls-2{fill:#15263d;}.cls-3{fill:none;}</style></defs><title>資產 10</title><g id="圖層_2" data-name="圖層 2"><g id="圖層_1-2" data-name="圖層 1"><path class="cls-1" d="M92.852,324.77876s14.46782,14.74168,34.82994,19.65557,97.16661,9.1258,123.60165-5.61588S295.223,310.03708,303.082,281.6067s12.14583-70.19847-7.1446-104.59573-53.58453-52.29786-82.52018-56.50977-68.231.702-97.88108,11.93374S58.0221,186.13677,56.95041,206.84532,42.6612,283.71265,92.852,324.77876Z"/><path class="cls-2" d="M109.26819,165.02651s-60.08056,146.80836-78.779,120.3383,20.09775-107.5727,35.19707-120.3383S141.897,94.45159,109.26819,165.02651Z"/><path class="cls-2" d="M254.73181,165.02651s60.08056,146.80836,78.779,120.3383-20.09775-107.5727-35.19707-120.3383S222.103,94.45159,254.73181,165.02651Z"/><path class="cls-1" d="M125.50552,337.322s-25.23709,44.16491-31.54637,56.25769S75.29422,427.492,72.40247,446.41984s-2.10309,22.87112,0,25.5,8.41236,8.14948,12.35566,7.88659,7.36082-4.99484,8.67525-8.14948,2.62886-6.835,2.62886-6.835,3.68041,2.19072,4.90721,2.19072,4.732.35052,5.7835-2.80412,0-5.25773-1.75258-6.30927a13.1147,13.1147,0,0,1-3.549-2.67268c-.59149-.78866.32861-2.56314,1.31443-4.33763s6.90077-10.97551,6.90077-10.97551,1.05155.06572,1.31443,1.8402,5.76159,14.3054,7.25128,16.32086,2.62886,2.10309,2.62886,3.9433-2.89175,49.51027-2.366,54.15459-.96392,3.32989-3.067,4.29381a31.55944,31.55944,0,0,0-14.19586,15.5103c-4.29381,9.90205,9.63917,11.04123,10.69071,11.39174s30.84534,1.2268,34.87626,0,13.58246-4.46907,14.89689-12.1804,4.81958-49.20357,4.81958-49.20357a1.9578,1.9578,0,0,1,2.03737-2.16881c2.16881.06572,26.61725-.26289,26.61725-.26289a1.89985,1.89985,0,0,1,1.44588,1.643c.06572,1.31443,3.72422,47.80151,4.07474,49.37882a17.791,17.791,0,0,0,12.00514,11.567c8.85051,2.80412,38.55667,1.2268,38.55667,1.2268s9.28865-2.54124,9.37628-7.44845-.46005-6.94458-3.3518-10.49355-13.01288-10.18685-13.01288-10.18685a10.139,10.139,0,0,1-.39433-4.20618c.13144-3.08892-1.90593-55.0747-1.90593-55.0747s2.89175-4.60051,4.5567-7.93041,4.90721-10.866,4.99484-12.7938,1.35825-1.62113,1.68685-.76675,8.14948,12.68427,8.87242,13.47293,1.90593,1.57732,1.05155,2.4317-5.71778,4.2719-5.91494,6.17783c0,0-.9201,5.32345,4.2719,5.45489s5.38917-2.16881,5.38917-2.16881.98582-.13144,1.31443,1.90593,5.58634,12.81571,9.06958,13.47293,12.94715-3.15464,14.78736-8.60953,1.77448-15.70746.59149-20.63658-14.393-47.71388-28.85178-69.00767-18.92782-34.701-21.81957-40.35306l-1.57732-3.28608Z"/><rect class="cls-3" width="364" height="548"/></g></g></svg>