<svg xmlns="http://www.w3.org/2000/svg" viewBox="0 0 357.79608 404.46429"><defs><style>.cls-1{fill:#c5798a;opacity:0.5;}.cls-2{fill:#e9525e;}.cls-3{fill:#ca4853;}.cls-4{fill:#53617e;}.cls-5{fill:#4f5c78;}.cls-6{fill:#39445b;}.cls-7{fill:#755f55;}.cls-8{fill:#7e675c;}.cls-18,.cls-9{fill:#fff;}.cls-10{fill:#261c19;}.cls-11{fill:#383231;}.cls-12{fill:#9e9e9f;}.cls-13{fill:#8c8c8d;}.cls-14{fill:#3d3a37;}.cls-15{fill:#4e4a46;}.cls-16{fill:#231815;}.cls-17{fill:#3e3a39;}.cls-18{opacity:0.8;}.cls-19{font-size:14.39286px;fill:#f05c79;font-family:AdobeFanHeitiStd-Bold-B5pc-H, Adobe Fan Heiti Std;}</style></defs><title>資產 7</title><g id="圖層_2" data-name="圖層 2"><g id="圖層_1-2" data-name="圖層 1"><ellipse class="cls-1" cx="201.14775" cy="378.65909" rx="82.14775" ry="25.80519"/><ellipse class="cls-1" cx="55.14775" cy="378.9838" rx="55.14775" ry="20.1299"/><polygon class="cls-2" points="34.212 284.53 76.087 292.905 87.254 378.051 34.212 387.822 34.212 284.53"/><polygon class="cls-3" points="13.275 288.718 6.296 382.239 34.212 387.822 34.212 284.53 13.275 288.718"/><polygon class="cls-4" points="62.129 309.655 94.233 316.635 106.796 383.635 60.733 390.614 62.129 309.655"/><polygon class="cls-5" points="46.775 312.447 40.144 387.124 60.733 390.614 62.129 309.655 46.775 312.447"/><path class="cls-6" d="M72.25534,317.55748c.515,8.59514,1.14545,18.08857,3.77582,26.3364,1.25719,3.94206,4.19675,8.38761,8.91767,7.98328,5.246-.4493,6.49063-6.20577,7.06447-10.46924,1.14649-8.51815.33892-14.70279-3.96422-22.11523a.75056.75056,0,0,0-1.29521.75708c2.91957,5.02916,4.656,9.77208,4.3467,15.69605-.09846,1.886-.33176,3.79175-.58727,5.6621-.57138,4.1825-2.789,13.34662-10.18348,7.20317-3.52629-2.92972-3.97845-9.74495-4.69737-14.0226a160.56992,160.56992,0,0,1-1.8771-17.031c-.05747-.95924-1.55787-.96581-1.5,0Z"/><path class="cls-6" d="M25.29737,284.36124a37.14976,37.14976,0,0,1-.66921-11.55575c.15122-1.831-.003-4.08439.6956-5.72989,1.9123-4.50452,5.79076-5.18275,8.71469-2.25691,4.94919,4.95243,5.55454,12.4061,5.4733,19.008a.75045.75045,0,0,0,1.5,0c.08846-7.18856-1.3871-21.84463-11.02222-23.07188-4.08721-.5206-5.573,2.403-6.11218,5.922-.926,6.04327-1.41241,12.07887-.02639,18.08316.217.9402,1.66364.54224,1.44642-.39876Z"/><path class="cls-6" d="M49.83174,292.90391a58.3703,58.3703,0,0,1,1.98952-16.70236,56.64011,56.64011,0,0,1,3.15849-8.6329c.7291-1.57922,2.1951-5.8563,3.69231-6.73656l6.78584.84354,1.15223,2.50168a16.28089,16.28089,0,0,1,.55578,4.904,54.99718,54.99718,0,0,1-1.23707,9.60645,107.01706,107.01706,0,0,1-4.42472,16.21884c-.32321.91154,1.12553,1.30376,1.44642.39876a94.41438,94.41438,0,0,0,5.60118-24.38106c.32541-4.47422-.65-13.35614-6.9895-13.53061-4.93827-.1359-7.5534,8.43763-8.983,11.94359a59.2613,59.2613,0,0,0-4.24753,23.56666.75045.75045,0,0,0,1.5,0Z"/><path class="cls-7" d="M249.35874,319.14315c-.96036-2.469-.20632-4.18366,1.147-5.08915a10.44752,10.44752,0,0,0,2.7191-2.26592c.43985-.6508.04948-2.24139-.80461-3.61464-.55435-.89116-2.63963-4.52429-4.20641-6.73025-4.11132-8.00519-8.4495-17.75863-11.77794-26.07973-5.04769-12.61922-8.40466-38.08862-2.52384-47.11177a33.44752,33.44752,0,0,1,4.20641-4.20641s4.20641,7.57153,14.30179,26.07973c12.25219,22.46235,21.35356,38.89439,24.39717,53.842,3.04381,14.94756,1.74743,17.78982.177,19.96418-1.57018,2.17435-6.374,6.81474-9.52194,6.76028s-6.053-3.68563-7.22281-6.14421-3.21376-6.27846-3.21376-6.27846c0,.84128-1.98891,2.83052-2.965,2.87866C253.09465,321.19561,250.3193,321.612,249.35874,319.14315Z"/><path class="cls-7" d="M237.99287,352.56993a8.07829,8.07829,0,0,1-.314-3.351c.10454-2.46089-1.51846-43.87686-1.51846-43.87686a5.59182,5.59182,0,0,0-3.94227-4.31958c-7.7428-1.9357-9.17194-1.72272-14.70127.30095-8.97045,3.283-17.07366,9.871-18.10871,19.88981-.00424.04106.62233,4.19116.62459,4.2347.05237,1.04719,2.96687,38.08242,3.2462,39.33905a14.17368,14.17368,0,0,0,9.56424,9.21518c7.05107,2.234,30.71725.97735,30.71725.97735s7.4-2.02454,7.46987-5.934-.36642-5.53262-2.67029-8.36S237.99287,352.56993,237.99287,352.56993Z"/><path class="cls-7" d="M269.39152,89.39578a87.58957,87.58957,0,0,0-14.95657-19.84611c3.41771-2.04734,7.3415-6.60989,4.23023-11.84243-4.627-7.78185-11.77794-8.62314-17.45659-5.258a6.81321,6.81321,0,0,0-3.42757,4.03224,89.61829,89.61829,0,0,0-33.16818-12.23473c-22.7146-3.36513-53.561.56113-76.83678,9.53466a42.94817,42.94817,0,0,0-3.969,1.7832,7.44483,7.44483,0,0,0-3.08579-3.11537c-5.67865-3.36513-12.82954-2.52384-17.45659,5.258-2.77689,4.671.05258,8.80881,3.12276,11.09974-13.78831,14.00479-24.03075,33.20762-24.60173,44.42484-.84128,16.54548-11.21681,61.41355,28.18293,94.22353,0,0,11.3573,11.77794,27.34165,15.7042,15.98435,3.92584,76.27647,7.291,97.02835-4.487,20.75106-11.77794,34.49254-22.99517,40.66167-45.70977S284.53459,116.87751,269.39152,89.39578Z"/><path class="cls-8" d="M273.52468,89.19472a87.58957,87.58957,0,0,0-14.95657-19.84611c3.41771-2.04734,7.3415-6.60989,4.23023-11.84243-4.627-7.78185-11.77794-8.62314-17.45659-5.258a6.81321,6.81321,0,0,0-3.42757,4.03224A89.61829,89.61829,0,0,0,208.746,44.04567c-22.7146-3.36513-53.561.56113-76.83678,9.53466a42.94818,42.94818,0,0,0-3.969,1.7832,7.44483,7.44483,0,0,0-3.08579-3.11537c-5.67865-3.36513-12.82954-2.52384-17.45659,5.258-2.77689,4.671.05258,8.80881,3.12276,11.09974-13.78831,14.00479-24.03075,33.20762-24.60173,44.42484-.84128,16.54548-11.21681,61.41355,28.18293,94.22353,0,0,11.3573,11.77794,27.34165,15.7042,15.98435,3.92584,76.27647,7.291,97.02835-4.487,20.75106-11.77794,34.49254-22.99517,40.66167-45.70977S288.66775,116.67645,273.52468,89.19472Z"/><path class="cls-9" d="M172.4212,159.23831s-6.0923,6.33114-2.68356,11.72433,9.88533,8.676,18.748,9.84844,39.20045,2.57935,48.74491-1.64141,14.99843-13.60023,10.908-19.93137-24.202-14.0692-37.49608-13.36574S179.23867,151.73474,172.4212,159.23831Z"/><path d="M202.71795,144.30636s0,5.41585,3.47456,8.24152,8.96072,2.59019,11.33805,0,4.027-9.44565,2.56209-11.55151S201.98646,137.00673,202.71795,144.30636Z"/><circle class="cls-9" cx="177.8586" cy="128.17465" r="21.17343"/><circle class="cls-9" cx="242.34312" cy="127.33491" r="21.17343"/><circle cx="183.85438" cy="127.97907" r="11.29211"/><circle cx="237.10909" cy="128.81881" r="11.29211"/><path d="M246.53747,92.07286s-27.71146,11.75638-28.5512,18.47431,55.42292-9.23715,53.74343-14.2756S246.53747,92.07286,246.53747,92.07286Z"/><path d="M171.82807,92.07286s27.71146,11.75638,28.5512,18.47431-55.42292-9.23715-53.74343-14.2756S171.82807,92.07286,171.82807,92.07286Z"/><path class="cls-8" d="M131.81149,318.44755c1.0446-2.46481.20632-4.18366-1.2874-5.09608a11.43981,11.43981,0,0,1-3.00347-2.27994c-.48726-.65314-.06556-2.24218.86753-3.61154.60562-.88863,2.88237-4.51232,4.59561-6.71106,4.48465-7.98678,9.2103-17.72111,12.83187-26.02775,5.49223-12.5973,9.06024-38.05629,2.544-47.11077a35.89186,35.89186,0,0,0-4.64979-4.22827s-4.59144,7.55255-15.60923,26.01525c-13.37167,22.40714-23.30589,38.79811-26.58119,53.73431-3.27552,14.93614-1.83484,17.78551-.09593,19.96818,1.73868,2.18266,7.048,6.848,10.51193,6.8091s6.64278-3.65654,7.91792-6.10993,2.57068-5.32517,2.57068-5.32517,3.13754,1.90216,4.21189,1.95514C127.71047,320.482,130.76667,320.91229,131.81149,318.44755Z"/><path class="cls-8" d="M137.86551,300.42281c7.2621-11.95676,21.85109-9.74853,27.63213-9.581,12.3997.35938,12.22074,14.3451,13.0562,22.02068a2.20219,2.20219,0,0,0-.08575.55436c-.04247,1.46541,1.46937,39.5029.88712,43.18765-.582,3.6847.79384,2.677,2.67132,3.49965a26.94767,26.94767,0,0,1,12.46438,12.72312c3.64986,7.99786-8.9615,8.5403-9.91945,8.79188-.95772.25164-27.88945.1695-31.502-.913s-12.16522-3.91448-13.17463-10.08976c-1.00918-6.17528-3.21759-39.30915-3.21759-39.30915S134.35789,306.198,137.86551,300.42281Z"/><path class="cls-8" d="M238.01775,316.60046c8.9459-12.37485,16.95055-21.46871,13.7145-56.74444-1.16886-12.74156-6.60889-25.08622-8-28a127.034,127.034,0,0,0-6.97108-12.95739H145.23771s-2.03584,3.39024-4.54448,7.57153c-3.41976,5.6996-4.245,7.32014-5.889,10.09538-.78254,1.32108-2.99953,4.35429-3.36513,6.73025-1.68256,10.93666-.62723,21.09561-.84128,29.44485-.84115,32.81,10.0923,44.5167,10.93666,45.4292.04842.05232,13.37383,11.29173,20.24539,14.34343,5.26253,2.33709,16.025,3.04117,17.75277,3.0935,1.728.05237,21.20539-.2094,21.20539-.2094s16.01167-1.73006,22.44883-5.29493A43.57378,43.57378,0,0,0,238.01775,316.60046Z"/><path class="cls-10" d="M147.23829,69.53133s16.499,14.45146,33.78365,21.91028,59.71063,10.72205,75.81679,5.12794,7.85666-32.16616,2.74983-35.42939S173.16528,49.48576,147.23829,69.53133Z"/><path class="cls-11" d="M199.04881,78.2248c26.39822.39725,57.46536-.65318,61.74469-7.83811s2.751-24.4941-14.36634-44.74255-84.364-14.04328-96.59071-1.30635c-12.72388,13.25489-29.61759,34.861-20.7693,38.16883S155.64413,77.57162,199.04881,78.2248Z"/><path class="cls-10" d="M193.24115,8.60526s-2.751,3.36233.30567,4.89067,6.419,3.668,10.087,2.44533,5.80767-4.585,3.05667-6.419S199.96581,3.71459,193.24115,8.60526Z"/><path class="cls-10" d="M194.765,54.92942c-.26859,3.25224.31264,10.29095,4.68955,12.0061s15.94445.343,23.44773-5.83154,16.88236-15.77945,16.88236-15.77945S214.44689,58.62194,211.0221,59.38883c-3.8298.85758-14.06864-3.43032-14.38127-7.88973S194.84727,53.9334,194.765,54.92942Z"/><path class="cls-12" d="M264.98882,214.81421c5.22939,8.94012,13.30669,73.75115,13.30669,84.29949s-22.94981,9.50556-29,7c-3.94709-1.63461-6-17-6-17l-102-4s-6.33048,17.46928-10,18c-8.45092,1.22224-31.77592,3.96871-33-3-1.65107-9.39954,20.71941-79.944,20.71941-79.944s3.12933-13.03128,8.01076-11.31959c53.10839,18.62256,82.33284,16.18824,116.00771,3.28633C248.39873,210.08083,257.855,202.61828,264.98882,214.81421Z"/><path class="cls-13" d="M216.10515,226.75343c1.29595,0,31.53468.66172,44.49414-3.088s16.00137-18.771,6.06578-21.63846-31.9847,7.96286-34.14461,10.1686-2.15991,3.088-10.79955,4.41148-12.09549,2.20574-15.55135,3.97033-9.5036,5.0732-5.61577,5.29378Z"/><path class="cls-13" d="M172.62088,227.305c-1.32263,0-32.18392.67141-45.41019-3.13326s-16.3308-19.0459-6.19067-21.95536,32.6432,8.07948,34.84758,10.31753,2.20438,3.13326,11.02189,4.47609,12.34452,2.238,15.87152,4.02848,9.69926,5.1475,5.73138,5.37131Z"/><path class="cls-12" d="M213.27594,224.1974c1.4801,0,36.01571.66172,50.81669-3.088s18.27514-18.771,6.92772-21.63846-36.52968,7.96286-38.99651,10.1686-2.46683,3.088-12.33415,4.41148-13.81425,2.20574-17.76117,3.97033-10.85405,5.0732-6.41376,5.29378Z"/><path class="cls-13" d="M273.47353,210.21587a86.82126,86.82126,0,0,1-44.11482,9.97525c7.04375-3.1166,15.337-3.26993,22.75279-5.74787,7.4462-2.48829,13.10963-7.28014,18.55444-11.96894.655-.56377-.02086-1.33222-.86575-1.22025-10.8692,1.43492-19.85567,6.6504-29.92128,9.91677-5.30661,1.722-10.96829,2.41554-16.31619,4.027-5.32052,1.60359-10.36592,3.73564-15.7738,5.15772-1.08653.28563-.62193,1.6963.47329,1.40817,5.41-1.42244,10.452-3.54914,15.7738-5.15736,5.34572-1.61535,11.00741-2.31,16.31619-4.02733,9.15814-2.96219,17.45227-7.55436,27.055-9.43573-5.67777,4.769-11.66063,9.08805-19.70747,10.99617-7.40839,1.75692-15.19967,2.26756-21.66843,6.00961-.73406.42506-.45287,1.30155.44939,1.3611a89.12487,89.12487,0,0,0,47.89116-10.033C275.32628,210.964,274.43533,209.69881,273.47353,210.21587Z"/><path class="cls-12" d="M174.20022,224.74695c-1.63474,0-39.77873.70491-56.12616-3.28958s-20.18457-19.99612-7.65155-23.05073,40.3464,8.48257,43.071,10.83228,2.72457,3.28958,13.62285,4.69941,15.2576,2.3497,19.61691,4.22947,11.98811,5.40432,7.08388,5.63929Z"/><path class="cls-13" d="M123.94307,213.57235a297.904,297.904,0,0,0,33.26269,7.656c5.06525.81107,10.192,1.43333,15.352,1.79315,2.93857.20491,5.902.35271,8.8547.35111,1.30187-.00071,2.86086.09187,3.898-.63667,1.35289-.95034.98985-2.43757-.22021-3.3526-2.55836-1.9346-8.70652-1.33926-11.96485-1.73622a91.653,91.653,0,0,1-30.9149-9.41673c-.93322-.48178-1.81438.65372-.88862,1.13164a90.66773,90.66773,0,0,0,20.59246,7.62153,97.73622,97.73622,0,0,0,12.20062,2.09375c1.48242.15929,3.19438.10276,4.62974.3921l1.47107.07889,2.00481,2.52055a31.18634,31.18634,0,0,1-4.036-.07181c-18.58349-.58849-36.49426-4.84888-53.77344-9.68842-1.06168-.29735-1.52039.969-.468,1.26376Z"/><path class="cls-13" d="M189.01168,225.99348c-3.194,5.20418-2.5863,11.519-2.59567,17.18327-.00292,1.76227,3.3349,1.765,3.33782,0,.00842-5.08673-.72648-11.13055,2.14-15.801.96365-1.57014-1.91479-2.95834-2.88211-1.38223Z"/><path class="cls-13" d="M201.564,225.513a61.57931,61.57931,0,0,1-.58846,17.89855c-.31407,1.72407,2.90165,2.46781,3.21859.728a63.97871,63.97871,0,0,0,.70769-18.62658c-.19182-1.74107-3.53146-1.75761-3.33782,0Z"/><path class="cls-14" d="M141.29551,285.1137l109.12129,1.05511s1.87871,8.94489-.12129,23.94489c-1.58176,11.86322-5,32-7.63158,46.54045-.83075,4.59021-39.60356,3.69189-41.2571,1.684-4.30406-5.22621,4.60977-23.69756-9.11132-23.22441-8.13916.28066-2.82547-.12264-9,1-7.79275,1.41686.94746,16.76912-5,22-7.74955,6.81584-41.01109,4.45706-42-1-6.58193-36.3207-4-36-5-48-.50515-6.06175,1-7,3-10C137.87589,293.74313,141.29551,285.1137,141.29551,285.1137Z"/><path class="cls-15" d="M200.31956,350.04094s-.63149,4.4204.421,5.68338,40.41512-.63149,40.62562-2.105a18.39472,18.39472,0,0,0-.47739-4.568s.68788-.69439-4.99549-.4839S200.53005,348.56747,200.31956,350.04094Z"/><path class="cls-15" d="M136.85569,350.11091s-.89677,4.37431.07767,5.69842,40.3797,1.8056,40.67863.34749a32.418,32.418,0,0,0,.25531-4.74737s.272-.49276-5.41375-.6252S137.15461,348.65281,136.85569,350.11091Z"/><path class="cls-15" d="M244.78721,291.80559a223.11747,223.11747,0,0,1-37.21606,2.22534.74338.74338,0,0,0-1.43188-.01392q-2.7345-.04541-5.49585-.12524c-14.19385-.407-28.46069,1.35938-42.34839-2.46655a.75056.75056,0,0,0-.39868,1.44629c12.60693,3.47314,25.53833,2.42041,38.44141,2.46191a.76882.76882,0,0,0-.23779.676c1.31982,9.345,2.25439,18.62793.37769,27.96655-.18945.94263,1.2561,1.34595,1.44629.39893a60.48749,60.48749,0,0,0,1.06934-13.22046.65126.65126,0,0,0,.32593.14185c8.05981,1.17773,8.48462-9.77173,8.334-15.772a226.84447,226.84447,0,0,0,37.53271-2.27246C246.13706,293.10613,245.733,291.66057,244.78721,291.80559ZM199.71787,309.85a.77771.77771,0,0,0-.748.31274,136.00009,136.00009,0,0,0-1.42358-14.552.69354.69354,0,0,0-.0979-.27222c1.06519.009,2.13037.02393,3.19507.05322q2.77222.07654,5.51587.11938C206.3209,300.53045,206.24693,310.80413,199.71787,309.85Z"/><path class="cls-10" d="M232.04535,239.06582c.96479-4.41132,5.81891-11.91126,10.87217-17.37872,5.48152-5.93082,13.22177-12.6009,16.69108-12.10652,7.04946,1.00455,10.05277.55754,13.34252,9.59852s14.92983,62.98349,13.51994,67.33656-22.983,4.29586-22.983,4.29586,4.69964,37.61118,0,40.29-16.41184,10.08164-18.76166,3.38462S227.21714,261.14182,232.04535,239.06582Z"/><path class="cls-16" d="M265.79682,211.59s1.01592,6.84067.76487,9.10878a4.37794,4.37794,0,0,1-2.48584,3.35587c-1.721.95882-12.30042-1.0044-13.93886,2.90473-.928,2.21414,2.76512,6.642,1.14655,9.8935-2.39608,4.81336-11.25,13.606-12.19508,16.79292-3.12694,10.54439-1.798,26.91423-1.87617,32.77223-.05463,4.09364-.70356,12.10652-2.89242,3.31953-1.93936-7.78539-7.605-39.41363-.33875-53.79592S253.00336,207.92089,265.79682,211.59Z"/><path class="cls-10" d="M264.55544,210.02786s1.01592,6.84067.76487,9.10878a4.37794,4.37794,0,0,1-2.48584,3.35587c-1.721.95882-12.30042-1.0044-13.93886,2.90473-.928,2.21414,2.76512,6.642,1.14655,9.8935-2.39608,4.81336-11.25,13.606-12.19508,16.79292-3.12694,10.54439-.78174,27.6953-.85991,33.55329-.05463,4.09364-.85991,15.13315-3.04877,6.34616-1.93936-7.78539-8.46495-43.22133-1.19866-57.60362S251.762,206.35876,264.55544,210.02786Z"/><path class="cls-16" d="M251.99056,282.80559s.616,7.5503,1.02666,10.54439,1.95065,7.94084,3.49064,7.02959,7.08394-2.99409,7.08394-2.99409a21.6244,21.6244,0,0,0-2.772,1.82249c-1.74532,1.30178-5.33862,2.99409-6.15994,1.56213s-2.97035-10.21669-3.02516-13.30954A18.98381,18.98381,0,0,1,251.99056,282.80559Z"/><path class="cls-16" d="M261.69247,280.39731a4.0567,4.0567,0,0,1-1.33465,1.30178,47.42413,47.42413,0,0,1-6.57061,1.10651,34.95352,34.95352,0,0,0,4.36329-.91124C259.07449,281.43873,261.48714,280.52748,261.69247,280.39731Z"/><ellipse class="cls-16" cx="243.26397" cy="268.16061" rx="4.92796" ry="6.44379"/><path class="cls-17" d="M240.77623,264.52072c2.07958-1.80393,4.89728-.81005,5.864,2.18912a6.7699,6.7699,0,0,1-.22408,4.62728,2.77174,2.77174,0,0,1-3.23427,1.85122c-.39011-.053-.39432-.83446,0-.78107A2.41321,2.41321,0,0,0,246.02842,270.5a5.58007,5.58007,0,0,0-.05594-3.74286c-.94264-2.389-3.15908-3.05943-4.88525-1.56175C240.75909,265.47989,240.45079,264.80332,240.77623,264.52072Z"/><path class="cls-17" d="M239.60169,268.21438c.13174-.47024.72728-.26735.59374.20785a3.05169,3.05169,0,0,0,.40906,2.62275c.2695.368-.16513.92141-.43553.55224A3.9908,3.9908,0,0,1,239.60169,268.21438Z"/><ellipse class="cls-17" cx="244.14946" cy="267.16797" rx="0.539" ry="0.71604"/><ellipse class="cls-17" cx="241.92941" cy="267.16797" rx="0.539" ry="0.71604"/><ellipse class="cls-17" cx="244.02103" cy="269.6088" rx="0.539" ry="0.71604"/><ellipse class="cls-17" cx="241.87798" cy="269.51117" rx="0.539" ry="0.71604"/><ellipse class="cls-16" cx="243.36663" cy="289.7701" rx="4.92796" ry="6.44379"/><path class="cls-17" d="M240.8789,286.13021c2.07958-1.80393,4.89728-.81005,5.864,2.18912a6.7699,6.7699,0,0,1-.22408,4.62728,2.77174,2.77174,0,0,1-3.23427,1.85122c-.39011-.053-.39432-.83446,0-.78107a2.41321,2.41321,0,0,0,2.84657-1.90728,5.58007,5.58007,0,0,0-.05594-3.74286c-.94264-2.389-3.15908-3.05943-4.88525-1.56175C240.86175,287.08938,240.55345,286.41281,240.8789,286.13021Z"/><path class="cls-17" d="M239.70435,289.82387c.13174-.47024.72728-.26735.59374.20785a3.05169,3.05169,0,0,0,.40906,2.62275c.2695.368-.16513.92141-.43553.55224A3.9908,3.9908,0,0,1,239.70435,289.82387Z"/><ellipse class="cls-17" cx="244.25213" cy="288.77746" rx="0.539" ry="0.71604"/><ellipse class="cls-17" cx="242.03208" cy="288.77746" rx="0.539" ry="0.71604"/><ellipse class="cls-17" cx="244.12369" cy="291.21829" rx="0.539" ry="0.71604"/><ellipse class="cls-17" cx="241.98065" cy="291.12066" rx="0.539" ry="0.71604"/><path class="cls-10" d="M167.1621,236.727c-1.36466-4.92094-8.23061-13.28732-15.37825-19.38641-7.75339-6.616-18.70166-14.05664-23.60886-13.50514-9.97118,1.12061-14.21924.622-18.87246,10.7074s-21.11765,70.25973-19.12342,75.11569,32.50859,4.79215,32.50859,4.79215-6.64745,41.95625,0,44.94453,23.21389,11.24633,26.53762,3.77563S173.99141,261.35336,167.1621,236.727Z"/><path class="cls-16" d="M119.422,206.077s-1.437,7.63094-1.08188,10.16109c.17725,1.263,1.08188,2.674,3.51611,3.74356s17.39845-1.12044,19.716,3.2403c1.31264,2.46993-3.91115,7.40936-1.62174,11.03646,3.38916,5.36943,15.91268,15.17786,17.24945,18.73294,4.42294,11.76254,2.54319,30.02353,2.65376,36.55828.07727,4.56657.99516,13.50514,4.09122,3.703,2.74315-8.6848,10.757-43.96694.47915-60.01076S137.51783,201.984,119.422,206.077Z"/><path class="cls-10" d="M121.17788,204.33441s-1.437,7.63094-1.08188,10.16108c.17725,1.263,1.08188,2.674,3.51611,3.74356s17.39845-1.12044,19.716,3.2403c1.31264,2.46993-3.91115,7.40936-1.62174,11.03646,3.38916,5.36943,15.91268,15.17786,17.24945,18.73294,4.42294,11.76254,1.10573,30.89483,1.21631,37.42958.07727,4.56657,1.21631,16.88143,4.31236,7.07931,2.74315-8.6848,11.97333-48.21452,1.69546-64.25834S139.27372,200.24143,121.17788,204.33441Z"/><path class="cls-16" d="M138.9504,285.51987s-.8713,8.42256-1.45217,11.76254-2.75912,8.85821-4.93736,7.8417-10.01994-3.34-10.01994-3.34a32.56393,32.56393,0,0,1,3.92085,2.033c2.46868,1.45217,7.55126,3.34,8.713,1.7426s4.20144-11.397,4.279-14.84714A16.88342,16.88342,0,0,0,138.9504,285.51987Z"/><path class="cls-16" d="M125.22743,282.83336a5.25945,5.25945,0,0,0,1.88782,1.45217c1.08912.43565,8.27735,1.16173,9.29386,1.23434s-4.86476-.50826-6.17171-1.01652S125.51787,282.97858,125.22743,282.83336Z"/><ellipse class="cls-16" cx="151.29381" cy="269.183" rx="6.9704" ry="7.18822"/><path class="cls-17" d="M154.81262,265.12261a5.50948,5.50948,0,0,0-8.29436,2.442,6.07741,6.07741,0,0,0,.317,5.16185c1.00787,1.80769,2.59433,2.27738,4.57475,2.06508.55179-.05914.55775-.93086,0-.8713-1.87746.20123-3.2644-.37354-4.02636-2.12762a4.99657,4.99657,0,0,1,.07913-4.17526,4.62176,4.62176,0,0,1,6.91-1.74217C154.83687,266.19259,155.27294,265.43786,154.81262,265.12261Z"/><path class="cls-17" d="M156.474,269.243c-.18634-.52457-1.02871-.29823-.83982.23186a2.82091,2.82091,0,0,1-.5786,2.92575c-.38119.41055.23357,1.02786.616.616A3.69731,3.69731,0,0,0,156.474,269.243Z"/><ellipse class="cls-17" cx="150.04132" cy="268.07569" rx="0.76239" ry="0.79876"/><ellipse class="cls-17" cx="153.18148" cy="268.07569" rx="0.76239" ry="0.79876"/><ellipse class="cls-17" cx="150.22298" cy="270.7985" rx="0.76239" ry="0.79876"/><ellipse class="cls-17" cx="153.25423" cy="270.68959" rx="0.76239" ry="0.79876"/><ellipse class="cls-16" cx="151.72946" cy="290.52984" rx="6.9704" ry="7.18822"/><path class="cls-17" d="M148.567,287.25753c2.70671-2.12081,7.8333.59154,7.37419,3.99374-.27022,2.00242-1.93264,2.97935-3.84961,2.9827-1.373.0024-4.62667-.56693-4.5551-2.49034.02087-.56076-.85046-.55989-.8713,0-.09038,2.4286,2.76567,3.046,4.67894,3.29316,2.276.29406,4.52222-.549,5.292-2.86342,1.54908-4.65737-5.15468-8.29827-8.68526-5.53193-.441.34553.17946.95823.6161.6161Z"/><ellipse class="cls-17" cx="150.60184" cy="289.79468" rx="0.88726" ry="0.95298"/><ellipse class="cls-17" cx="153.39726" cy="289.86729" rx="0.88726" ry="0.95298"/><ellipse class="cls-17" cx="150.63815" cy="292.5901" rx="0.88726" ry="0.95298"/><ellipse class="cls-17" cx="153.32465" cy="292.62641" rx="0.88726" ry="0.95298"/><path class="cls-18" d="M325.13031,189.529l-2.469-1.60007c-.37353.16118-.74985.3173-1.104.51394a72.97285,72.97285,0,0,1-6.95725,7.23687,2.74144,2.74144,0,0,1-2.23068.66425,2.32418,2.32418,0,0,1-2.73079-1.9942q-.62459-7.83488-1.24908-15.6699l-23.02146-14.91939c-8.86591-5.74568-10.984-18.37156-4.70688-28.05752l1.52173-2.34811c6.27712-9.686,18.66688-12.90982,27.53278-7.16414l39.76225,25.7685c8.86591,5.74568,10.984,18.37156,4.70688,28.05752l-1.52173,2.34811C346.386,192.0508,333.99622,195.27467,325.13031,189.529Z"/><text class="cls-19" transform="matrix(0.84741, 0.53093, -0.53093, 0.84741, 291.25113, 149.33044)">MJ+100</text><path class="cls-18" d="M95.08083,237.98978l2.57867-1.41657c.36084.18788.72483.37091,1.06375.59275a72.97287,72.97287,0,0,0,6.41341,7.72294,2.74144,2.74144,0,0,0,2.17656.82447,2.32418,2.32418,0,0,0,2.86838-1.79065q1.19184-7.76885,2.38359-15.53784l24.044-13.2084c9.2597-5.08675,12.289-17.52551,6.73174-27.64169l-1.34721-2.45241c-5.55725-10.11618-17.6802-14.23117-26.93991-9.14442l-41.52836,22.8133c-9.2597,5.08675-12.289,17.52551-6.73174,27.64169l1.34721,2.45241C73.69816,238.96154,85.82112,243.07653,95.08083,237.98978Z"/><text class="cls-19" transform="matrix(0.86735, -0.49768, 0.49768, 0.86735, 83.71478, 225.99342)">MJ+200</text><path class="cls-18" d="M284.63362,64.76547l-2.55143-1.46507c-.36433.181-.73171.35714-1.07477.57253a72.97286,72.97286,0,0,1-6.55826,7.60031,2.74144,2.74144,0,0,1-2.19176.78318,2.32418,2.32418,0,0,1-2.834-1.84455q-1.04476-7.79-2.08943-15.58012l-23.79-13.66058c-9.16188-5.26089-11.95547-17.7547-6.208-27.764l1.39333-2.4265c5.7475-10.00931,17.94608-13.89438,27.108-8.63349l41.08966,23.59431c9.16188,5.26089,11.95547,17.7547,6.208,27.764l-1.39333,2.4265C305.99409,66.1413,293.79551,70.02637,284.63362,64.76547Z"/><text class="cls-19" transform="translate(248.69134 26.52391) rotate(28.98744)">MJ+300</text></g></g></svg>