<svg xmlns="http://www.w3.org/2000/svg" viewBox="0 0 540.58664 406.98868"><defs><style>.cls-1{fill:#c5798a;opacity:0.5;}.cls-2{fill:#e4b5bd;}.cls-3{fill:#f6c2cb;}.cls-4{fill:#da4d55;}.cls-5{fill:#fff;}.cls-6{fill:#755f55;}.cls-7{fill:#7e675c;}.cls-8{fill:#dbd0bb;}</style></defs><title>資產 24</title><g id="圖層_2" data-name="圖層 2"><g id="圖層_1-2" data-name="圖層 1"><ellipse class="cls-1" cx="421.25806" cy="381.18348" rx="119.32858" ry="25.80519"/><ellipse class="cls-1" cx="153.25806" cy="379.18348" rx="119.32858" ry="25.80519"/><path class="cls-2" d="M285.26979,207.653c2.0809,1.37349,2.43483,3.10057,1.88827,4.53229a9.83291,9.83291,0,0,0-.85521,3.21961c.01633.73911,1.18157,1.7482,2.58468,2.33806.9106.38273,4.48883,2.03816,6.89233,2.87972,7.513,3.91054,16.1515,9.04021,23.2352,13.61932,10.74266,6.94439,27.1789,24.677,27.57236,34.80612a31.47986,31.47986,0,0,1-.94154,5.51907s-7.35008-3.52578-25.17338-12.24607c-21.63112-10.58332-37.56141-18.25009-48.032-28.073-10.47067-9.82277-11.02163-12.71085-10.99876-15.23512.02272-2.52415,1.18689-8.70154,3.634-10.37256s6.65379-.46315,8.88989.7884,5.8842,3.07288,5.8842,3.07288c-.45775-.64606-.01274-3.25589.71063-3.82395C281.284,208.10958,283.18877,206.27967,285.26979,207.653Z"/><path class="cls-2" d="M326.76331,366.20832a7.60306,7.60306,0,0,0,.29557-3.15382c-.09839-2.31612,1.42913-41.29566,1.42913-41.29566a5.26287,5.26287,0,0,1,3.71036-4.06546c7.28731-1.82183,8.63237-1.62137,13.83642.28324,8.44274,3.08984,16.06924,9.2903,17.0434,18.71972.004.03864-.58572,3.9446-.58785,3.98558-.04929.98558-2.79234,35.84209-3.05524,37.0248a13.33986,13.33986,0,0,1-9.00159,8.67306c-6.63627,2.10256-28.91021.91986-28.91021.91986s-6.9647-1.90544-7.03043-5.58492.34486-5.20714,2.5132-7.86818S326.76331,366.20832,326.76331,366.20832Z"/><path class="cls-2" d="M415.41749,323.77629c-6.06516-11.27567-18.165-9.24462-22.96192-9.10559-10.289.2982-10.09533,13.46044-10.76388,20.68106a2.33622,2.33622,0,0,1,.073.522c.04,1.37921-1.09195,37.17058-.59688,40.64009.49488,3.46947-.65014,2.51666-2.20555,3.28482a23.66378,23.66378,0,0,0-10.30274,11.93324c-3.0031,7.51483,7.46441,8.066,8.2602,8.30585.79559.2399,23.14511.24949,26.13956-.75759s10.0829-3.64459,10.90065-9.45276c.81756-5.80816,2.54337-36.98261,2.54337-36.98261S418.347,329.22247,415.41749,323.77629Z"/><path class="cls-3" d="M328.09211,331.65622c-8.41963-11.64686-9.75008-22.27664-12.12545-55.53184-.41916-5.86829-.25381-5.95244.79179-10.29327.93387-3.87747,5.81684-11.50986,7.12611-14.25223,3.73452-7.8227,5.39021-11.87686,5.39021-11.87686h86.13929s1.91607,3.19079,4.27714,7.12611c3.21858,5.3643,3.99529,6.8895,5.54253,9.50148.7365,1.24336,2.82307,4.09813,3.16716,6.33432,1.58358,10.29327.59033,19.85459.79179,27.71266.79167,30.87983-9.49858,41.89786-10.29327,42.75668-.04557.04924-12.58707,10.62746-19.05439,13.49963-4.95294,2.19961-15.08229,2.86227-16.7084,2.91151-1.6263.04929-19.95791-.19708-19.95791-.19708s-15.06973-1.62828-21.1282-4.98344A41.01041,41.01041,0,0,1,328.09211,331.65622Z"/><path class="cls-2" d="M426.01111,336.55672c-.90386-2.32372-.19418-3.93754,1.0795-4.78977a9.83291,9.83291,0,0,0,2.55914-2.13262c.414-.61251.04657-2.10953-.75728-3.402-.52174-.83873-2.48434-4.25813-3.959-6.33432-3.86946-7.53426-7.95243-16.71392-11.08507-24.5455-4.75074-11.87686-7.91022-35.84793-2.37537-44.34026a31.47986,31.47986,0,0,1,3.959-3.959s3.959,7.12611,13.46044,24.5455c11.53141,21.14092,20.09736,36.6063,22.96192,50.67458,2.86475,14.06822,1.64463,16.74328.16663,18.78972-1.47781,2.04644-5.999,6.41384-8.96178,6.36258s-5.69691-3.46881-6.7979-5.78276-2.2212-5.02168-2.2212-5.02168-2.67541,1.77657-3.59405,1.82187C429.52725,338.48844,426.91516,338.88038,426.01111,336.55672Z"/><path class="cls-2" d="M461.57607,122.81013c-12.93193-23.42433-34.92884-36.71937-54.90359-41.44681,3.96763-14.28217,8.84446-32.91768,9.78644-41.39475,1.63627-14.71882,4.49973-25.85739-3.27253-31.42668s-14.1104-3.18245-15.85053,0c-1.73933,3.18245-10.84186,57.81047-10.78993,63.31565a58.08809,58.08809,0,0,1-.6887,7.16129c-4.53329-.07537-9.22157.07692-13.98176.44442a63.0502,63.0502,0,0,1-.74623-7.60571c.05113-5.50519-9.05139-60.13321-10.79073-63.31565-1.74013-3.18245-8.07826-5.56929-15.85053,0s-4.9088,16.70786-3.27253,31.42668c.96434,8.67015,6.04332,27.96491,10.05568,42.36207a149.12564,149.12564,0,0,0-23.88085,6.79883c-22.05443,8.4864-42.7802,40.57622-43.57756,56.22313-.79656,15.64691-10.62854,58.07969,26.70437,89.10856,0,0,10.762,11.13857,25.907,14.8513,15.14585,3.71312,72.27453,6.89556,91.93769-4.243s32.683-21.74686,38.52895-43.22839C472.73591,180.35954,475.92455,148.80039,461.57607,122.81013Z"/><path class="cls-3" d="M460.70922,117.60907c-12.93193-23.42433-34.92884-36.71937-54.90359-41.44681,3.96762-14.28217,8.84446-32.91768,9.78644-41.39475,1.63627-14.71882,4.49973-25.85739-3.27253-31.42668s-14.1104-3.18245-15.85053,0c-1.73933,3.18245-10.84186,57.81047-10.78993,63.31565a58.08813,58.08813,0,0,1-.6887,7.16129c-4.53329-.07537-9.22157.07692-13.98176.44442a63.0502,63.0502,0,0,1-.74623-7.60571c.05113-5.50519-9.05139-60.13321-10.79073-63.31565-1.74013-3.18245-8.07826-5.56929-15.85053,0s-4.9088,16.70786-3.27253,31.42668c.96434,8.67015,6.04332,27.96491,10.05568,42.36207a149.12565,149.12565,0,0,0-23.88085,6.79883c-22.05443,8.4864-42.7802,40.57622-43.57756,56.22313-.79656,15.64691-10.62854,58.07969,26.70437,89.10856,0,0,10.762,11.13857,25.907,14.8513,15.14585,3.71312,72.27453,6.89556,91.93769-4.243s32.683-21.74686,38.52895-43.22839C471.86907,175.15848,475.05771,143.59933,460.70922,117.60907Z"/><ellipse class="cls-4" cx="314.43388" cy="166.60257" rx="9.65157" ry="4.82579"/><ellipse class="cls-4" cx="395.84909" cy="166.60257" rx="9.65157" ry="4.82579"/><path class="cls-5" d="M322.7611,170.577s-5.19766,5.40143-2.28949,10.00265,8.4337,7.402,15.995,8.40223,33.444,2.20058,41.58688-1.40037,12.796-11.60308,9.30615-17.00451-20.648-12.00318-31.98991-11.403S328.57745,164.17531,322.7611,170.577Z"/><circle cx="314.63379" cy="151.03003" r="9.65157"/><circle cx="395.32093" cy="151.03003" r="9.65157"/><path d="M375.38136,175.1051c-1.43719.44189-10.148,1.59253-12.13475.11333-2.02214-1.50544-4.28533-5.27079-4.98626-8.78452a5.55176,5.55176,0,0,0,2.98591-1.5648c2.02828-2.20986,3.43563-8.05872,2.18594-9.85527-1.2499-1.79665-15.44742-3.40378-14.82332,2.82391,0,0,0,4.62056,2.96433,7.03136a7.91,7.91,0,0,0,3.90482,1.65009c-.72061,3.48907-2.96327,7.206-4.96911,8.69923-1.98743,1.48142-10.69756.32856-12.13369-.11333a1.16039,1.16039,0,0,0-1.2973,1.89326c.503.46855,4.86478,1.25328,8.8479,1.25328,2.474,0,4.80171-.30316,5.96886-1.17159a17.22861,17.22861,0,0,0,4.98308-7.16426,17.22669,17.22669,0,0,0,4.98308,7.16426c1.16715.869,3.49489,1.17159,5.9695,1.17159,3.98249,0,8.34464-.78473,8.8479-1.25328a1.16031,1.16031,0,0,0-1.29688-1.89326Z"/><path class="cls-3" d="M429.47848,333.95619c-.90386-2.32372-.19418-3.93754,1.0795-4.78977a9.83291,9.83291,0,0,0,2.55914-2.13262c.414-.61251.04657-2.10953-.75728-3.402-.52174-.83873-2.48434-4.25813-3.959-6.33432-3.86946-7.53426-7.95243-16.71392-11.08507-24.5455-4.75074-11.87686-7.91022-35.84793-2.37537-44.34026a31.47986,31.47986,0,0,1,3.959-3.959s3.959,7.12611,13.46044,24.5455c11.53141,21.14092,20.09736,36.6063,22.96192,50.67458,2.86475,14.06822,1.64463,16.74328.16663,18.78972-1.47781,2.04644-5.999,6.41384-8.96178,6.36258s-5.69691-3.46881-6.7979-5.78276-2.2212-5.02168-2.2212-5.02168-2.67541,1.77657-3.59405,1.82187C432.99462,335.88791,430.38254,336.27985,429.47848,333.95619Z"/><path class="cls-3" d="M418.018,323.77629c-6.06516-11.27567-18.165-9.24462-22.96192-9.10559-10.289.2982-10.09533,13.46044-10.76388,20.68106a2.33622,2.33622,0,0,1,.073.522c.04,1.37921-1.09195,37.17058-.59688,40.64009.49488,3.46947-.65014,2.51666-2.20555,3.28482A23.66378,23.66378,0,0,0,371.26,391.73189c-3.0031,7.51483,7.46441,8.066,8.2602,8.30585.79559.2399,23.14511.24949,26.13956-.75759s10.0829-3.64459,10.90065-9.45276c.81756-5.80816,2.54337-36.98261,2.54337-36.98261S420.94751,329.22247,418.018,323.77629Z"/><path class="cls-6" d="M165.28823,316.66754c-.96036-2.469-.20632-4.18366,1.147-5.08915a10.44752,10.44752,0,0,0,2.7191-2.26592c.43985-.6508.04948-2.24139-.80461-3.61464-.55435-.89116-2.63963-4.52429-4.20641-6.73025-4.11132-8.00519-8.4495-17.75863-11.77794-26.07973-5.04769-12.61922-8.40466-38.08862-2.52384-47.11177a33.44752,33.44752,0,0,1,4.20641-4.20641s4.20641,7.57153,14.30179,26.07973c12.25219,22.46235,21.35356,38.89439,24.39717,53.842,3.04381,14.94756,1.74743,17.78982.177,19.96418-1.57018,2.17435-6.374,6.81474-9.52194,6.76028s-6.053-3.68563-7.22281-6.14421-3.21376-6.27846-3.21376-6.27846c0,.84128-1.98891,2.83052-2.965,2.87866C169.02414,318.72,166.24879,319.13644,165.28823,316.66754Z"/><path class="cls-6" d="M153.92236,350.09433a8.07829,8.07829,0,0,1-.314-3.351c.10454-2.46089-1.51846-43.87686-1.51846-43.87686a5.59182,5.59182,0,0,0-3.94227-4.31958c-7.7428-1.9357-9.17194-1.72272-14.70127.30095-8.97045,3.283-17.07366,9.871-18.10871,19.88981-.00424.04106.62233,4.19116.62459,4.2347.05237,1.04719,2.96687,38.08242,3.2462,39.33905a14.17368,14.17368,0,0,0,9.56424,9.21518c7.05107,2.234,30.71725.97735,30.71725.97735s7.4-2.02454,7.46987-5.934-.36642-5.53262-2.67029-8.36S153.92236,350.09433,153.92236,350.09433Z"/><path class="cls-6" d="M59.56427,305.01005c6.44426-11.98046,19.30037-9.82246,24.39717-9.67474,10.93207.31684,10.72634,14.30179,11.43668,21.97374a2.48224,2.48224,0,0,0-.07751.5546c-.04247,1.46541,1.1602,39.49394.63419,43.18032-.52581,3.68633.69078,2.674,2.34341,3.49014a25.14289,25.14289,0,0,1,10.94672,12.67914c3.19081,7.98455-7.931,8.57017-8.7765,8.825-.84532.2549-24.5918.26508-27.77343-.80495s-10.71313-3.87239-11.582-10.0436c-.86867-6.17121-2.70234-39.29422-2.70234-39.29422S56.45167,310.79666,59.56427,305.01005Z"/><path class="cls-7" d="M152.5105,313.38253c8.94591-12.37485,10.35951-23.66905,12.88336-59.00288.44536-6.23509.26968-6.3245-.84128-10.93666-.99224-4.11984-6.18042-12.22929-7.57153-15.14307-3.96795-8.31166-5.72712-12.61922-5.72712-12.61922H59.73045s-2.03584,3.39024-4.54448,7.57153c-3.41976,5.6996-4.245,7.32014-5.889,10.09538-.78254,1.32107-2.99953,4.35429-3.36513,6.73025-1.68256,10.93666-.62723,21.09561-.84128,29.44485-.84115,32.81,10.0923,44.5167,10.93666,45.4292.04842.05232,13.37383,11.29173,20.24539,14.34343,5.26253,2.33709,16.025,3.04117,17.75277,3.0935,1.728.05237,21.20539-.2094,21.20539-.2094s16.01167-1.73006,22.44883-5.29493A43.57378,43.57378,0,0,0,152.5105,313.38253Z"/><path class="cls-6" d="M47.38746,316.69311c.96036-2.469.20632-4.18366-1.147-5.08915a10.44752,10.44752,0,0,1-2.7191-2.26592c-.43985-.6508-.04948-2.24139.80461-3.61464.55435-.89116,2.63963-4.52429,4.20641-6.73025,4.11132-8.00519,8.4495-17.75863,11.77794-26.07973,5.04769-12.61922,8.40466-38.08862,2.52384-47.11177a33.44752,33.44752,0,0,0-4.20641-4.20641S54.42138,229.16677,44.326,247.675c-12.25219,22.46235-21.35356,38.89439-24.39717,53.842-3.04381,14.94756-1.74743,17.78982-.177,19.96418,1.57018,2.17435,6.374,6.81474,9.52194,6.76028s6.053-3.68563,7.22281-6.14421,2.36-5.33556,2.36-5.33556,2.84264,1.88762,3.8187,1.93575C43.65155,318.74557,46.4269,319.162,47.38746,316.69311Z"/><path class="cls-8" d="M101.90008,290.43111s7.25625,9.11063,18.14063,10.80375,23.46188-2.2575,27.33188-10.80375,7.01438-33.70125-7.98188-43.61813-29.50875-2.9025-32.16938,0-9.43313,10.6425-9.19125,21.52688S99.48133,285.43236,101.90008,290.43111Z"/><path class="cls-6" d="M190.321,91.92017a87.58957,87.58957,0,0,0-14.95657-19.84611c3.41771-2.04734,7.3415-6.60989,4.23023-11.84243-4.627-7.78185-11.77794-8.62314-17.45659-5.258a6.81321,6.81321,0,0,0-3.42757,4.03224,89.61829,89.61829,0,0,0-33.16818-12.23473c-22.7146-3.36513-53.561.56113-76.83678,9.53466a42.94817,42.94817,0,0,0-3.969,1.7832,7.44483,7.44483,0,0,0-3.08579-3.11537c-5.67865-3.36513-12.82954-2.52384-17.45659,5.258-2.77689,4.671.05258,8.80881,3.12276,11.09974C13.52865,85.33616,3.28621,104.539,2.71522,115.75621c-.84128,16.54548-11.21681,61.41355,28.18293,94.22353,0,0,11.3573,11.77794,27.34165,15.7042,15.98435,3.92584,76.27647,7.291,97.02835-4.487,20.75106-11.77794,34.49254-22.99517,40.66167-45.70977S205.46408,119.4019,190.321,91.92017Z"/><path class="cls-7" d="M189.45417,86.71911A87.58957,87.58957,0,0,0,174.49759,66.873c3.41771-2.04734,7.3415-6.60989,4.23023-11.84243-4.627-7.78185-11.77794-8.62314-17.45659-5.258a6.8132,6.8132,0,0,0-3.42757,4.03224,89.61829,89.61829,0,0,0-33.16818-12.23473c-22.7146-3.36513-53.561.56113-76.83678,9.53466a42.94817,42.94817,0,0,0-3.969,1.7832,7.44483,7.44483,0,0,0-3.08579-3.11537c-5.67865-3.36513-12.82954-2.52384-17.45659,5.258-2.77689,4.671.05258,8.80881,3.12276,11.09974C12.6618,80.1351,2.41937,99.33793,1.84838,110.55515,1.0071,127.10063-9.36843,171.9687,30.03131,204.77868c0,0,11.3573,11.77794,27.34165,15.7042,15.98435,3.92584,76.27647,7.291,97.02835-4.487,20.75106-11.77794,34.49254-22.99517,40.66167-45.70977S204.59724,114.20084,189.45417,86.71911Z"/><path class="cls-5" d="M88.35069,156.76271s-6.0923,6.33114-2.68356,11.72433,9.88533,8.676,18.748,9.84844,39.20045,2.57935,48.74491-1.64141,14.99843-13.60023,10.908-19.93137-24.202-14.0692-37.49608-13.36574S95.16816,149.25913,88.35069,156.76271Z"/><path d="M118.64744,141.83075s0,5.41585,3.47456,8.24152,8.96072,2.59019,11.33805,0,4.027-9.44565,2.56209-11.55151S117.916,134.53112,118.64744,141.83075Z"/><circle class="cls-5" cx="93.78808" cy="125.69904" r="21.17343"/><circle class="cls-5" cx="158.27261" cy="124.8593" r="21.17343"/><circle cx="99.78387" cy="125.50346" r="11.29211"/><circle cx="153.03858" cy="126.3432" r="11.29211"/><path d="M162.467,89.59726s-27.71146,11.75638-28.5512,18.47431,55.42292-9.23715,53.74343-14.2756S162.467,89.59726,162.467,89.59726Z"/><path d="M87.75756,89.59726s27.71146,11.75638,28.5512,18.47431S60.88584,98.83441,62.56533,93.796,87.75756,89.59726,87.75756,89.59726Z"/><path class="cls-7" d="M44.78693,315.82626c.96036-2.469.20632-4.18366-1.147-5.08915a10.44752,10.44752,0,0,1-2.7191-2.26592c-.43985-.6508-.04948-2.24139.80461-3.61464.55435-.89116,2.63963-4.52429,4.20641-6.73025,4.11132-8.00519,8.4495-17.75863,11.77794-26.07973,5.04769-12.61922,8.40466-38.08862,2.52384-47.11177a33.44752,33.44752,0,0,0-4.20641-4.20641s-4.20641,7.57153-14.30179,26.07973c-12.25219,22.46235-21.35356,38.89439-24.39717,53.842-3.04381,14.94756-1.74743,17.78982-.177,19.96418,1.57018,2.17435,6.374,6.81474,9.52194,6.76028s6.053-3.68563,7.22281-6.14421,2.36-5.33556,2.36-5.33556,2.84264,1.88762,3.8187,1.93575C41.051,317.87873,43.82637,318.29516,44.78693,315.82626Z"/><path class="cls-7" d="M56.96374,305.01005c6.44426-11.98046,19.30037-9.82246,24.39717-9.67474,10.93207.31684,10.72634,14.30179,11.43668,21.97374a2.48224,2.48224,0,0,0-.07751.5546c-.04247,1.46541,1.1602,39.49394.63419,43.18032-.52581,3.68633.69078,2.674,2.34341,3.49014a25.14289,25.14289,0,0,1,10.94672,12.67914c3.19081,7.98455-7.931,8.57017-8.7765,8.825-.84532.2549-24.5918.26508-27.77343-.80495s-10.71313-3.87239-11.582-10.0436c-.86867-6.17121-2.70234-39.29422-2.70234-39.29422S53.85114,310.79666,56.96374,305.01005Z"/></g></g></svg>