<svg xmlns="http://www.w3.org/2000/svg" viewBox="0 0 130.44976 147.83529"><defs><style>.cls-1{fill:#39445b;}.cls-2{fill:#53617e;}.cls-3{fill:#4f5c78;}.cls-4{fill:#b4cfd4;}.cls-5{fill:#5d9099;}.cls-6{fill:#ca4853;}.cls-7{fill:#e9525e;}</style></defs><title>資產 9</title><g id="圖層_2" data-name="圖層 2"><g id="圖層_1-2" data-name="圖層 1"><path class="cls-1" d="M71.53627,29.15191c-9.088-3.79334-18.99881-3.49928-28.29869-.56422a77.11884,77.11884,0,0,0-13.63828,5.97165c-3.49927,1.90818-7.76817,3.95557-10.2492,7.21794-5.1306,6.74635.814,13.80391,5.87939,18.27484C31.80524,65.85615,38.66881,71.337,47.57007,72.693c1.58525.2415,1.61367-2.2605.04409-2.49961-7.64473-1.16463-13.70733-5.92221-19.39591-10.83966-2.69134-2.32651-5.97646-4.83423-7.43377-8.1674-2.634-6.02451,1.63067-9.53572,6.302-12.31342C40.27241,31.0323,55.829,25.2894,70.82926,31.55051c1.48488.61979,2.17659-1.7852.707-2.3986Z"/><polygon class="cls-2" points="69.622 5.174 57.133 64.59 102.02 114.175 130.45 15.734 69.622 5.174"/><polygon class="cls-3" points="76.233 0 69.745 5.316 130.438 16.381 125.542 6.959 76.233 0"/><polygon class="cls-4" points="72.645 49.955 33.542 80.89 55.986 129.628 110.003 93.986 72.645 49.955"/><polygon class="cls-5" points="81.54 50.111 72.645 49.955 110.003 93.986 111.441 84.523 81.54 50.111"/><polygon class="cls-6" points="100.821 110.088 94.347 116.751 68.594 63.437 72.406 63.504 100.821 110.088"/><path class="cls-1" d="M60.35714,62.28953A50.12112,50.12112,0,0,0,41.969,42.64044c-6.72323-3.99374-16.88754-7.99769-24.65562-4.89265-7.2,2.878-9.80231,12.047-10.679,19.00028-.66191,5.24976.97055,9.71924,2.62446,14.63083l6.00374,17.82924c.50979,1.51391,2.9373.90818,2.422-.622C14.99,80.584,11.63979,72.53575,9.57819,64.34776c-1.94448-7.72285.91794-22.208,9.85569-24.68077,7.49984-2.07492,17.01728,2.22807,23.12162,6.2871a47.99437,47.99437,0,0,1,15.621,17.559,1.25094,1.25094,0,0,0,2.18059-1.22353Z"/><polygon class="cls-7" points="0 96.789 69.217 64.126 94.971 117.44 12.447 147.835 0 96.789"/><path class="cls-1" d="M14.43532,96.39106c-2.3257-3.22315-2.69108-7.29228-3.1903-11.13244a120.9367,120.9367,0,0,1-.98457-14.90221,124.83981,124.83981,0,0,1,.64141-13.36965c.34882-3.41819.25049-13.12919,4.36674-14.71419,4.5171-1.73934,10.39749,3.93188,13.05809,6.63179a61.78973,61.78973,0,0,1,7.52346,9.302,75.57009,75.57009,0,0,1,9.67278,21.76105,1.25107,1.25107,0,0,0,2.422-.622,75.9615,75.9615,0,0,0-12.816-26.42038C30.86487,47.398,22.37411,37.13909,14.13281,40.0242c-3.58906,1.25646-3.92445,4.72-4.50861,8.08794A125.04631,125.04631,0,0,0,8.573,83.82332c.53376,4.67277.84773,9.8637,3.68171,13.79127.93034,1.28935,3.12332.083,2.18059-1.22353Z"/></g></g></svg>