<svg xmlns="http://www.w3.org/2000/svg" viewBox="0 0 1089.69955 940.77747"><defs><style>.cls-1{fill:#b58c79;}.cls-2{fill:#c5798a;opacity:0.5;}.cls-3{fill:#fff;}.cls-4{fill:#fbc5cf;}.cls-5{fill:#ef5c79;}.cls-6{fill:#ffd8d0;}.cls-7{fill:#ffeeeb;}.cls-8{fill:#fbf9f9;}.cls-9{fill:#e4b5a4;}.cls-10{fill:#ecbbaa;}.cls-11{fill:#e7b6a5;}.cls-12{fill:#3a332e;}.cls-13{fill:#e7859b;}.cls-14{fill:#c09180;}.cls-15{fill:#e3b6a8;}.cls-16{fill:#c78d76;}.cls-17{fill:#e4b6a7;}.cls-18{fill:#e08797;}.cls-19{fill:#b66f83;}.cls-20{fill:#d4c6ab;}.cls-21{fill:#b9907a;}.cls-22{fill:#ffd9d5;}.cls-23{fill:#deb2a3;}.cls-24{fill:#c19989;}.cls-25{fill:#3d342e;}.cls-26{fill:#5d564d;}.cls-27{fill:#aba39d;}.cls-28{fill:#e9bdae;}.cls-29{fill:#c4907b;}.cls-30{fill:#b8836f;}.cls-31{fill:#493534;}.cls-32{fill:#e88299;}.cls-33{fill:#3d3b32;}.cls-34{fill:#5b585a;}.cls-35{fill:#bdbbba;}.cls-36{fill:#1e1a17;}.cls-37{fill:#3f3129;}.cls-38{fill:#dee7e1;}.cls-39{fill:#51605b;}.cls-40{fill:#c1bfc0;}.cls-41{fill:#2e2f2a;}.cls-42{fill:#311e1a;}.cls-43{fill:#374033;}</style></defs><title>資產 9</title><g id="圖層_2" data-name="圖層 2"><g id="圖層_1-2" data-name="圖層 1"><path class="cls-1" d="M1011.02413,739.01638v8.55229l14.25382,5.70153s2.85076-19.95534,2.85076-22.8061S1011.02413,739.01638,1011.02413,739.01638Z"/><ellipse class="cls-2" cx="762.69955" cy="765.52653" rx="327" ry="175.25094"/><rect class="cls-3" x="58.69377" y="194.35182" width="467.94503" height="426.06266" rx="15" ry="15" transform="translate(-132.5157 141.23494) rotate(-22.26128)"/><rect class="cls-4" x="66.58105" y="217.97997" width="424.43774" height="311.05661" transform="translate(-120.71636 133.4571) rotate(-22.26128)"/><rect class="cls-2" x="383.91013" y="35.98624" width="613.61354" height="563.73084" rx="15" ry="15" transform="translate(42.97518 -80.33194) rotate(6.86934)"/><rect class="cls-3" x="394.21139" y="33.00432" width="613.61354" height="558.69343" rx="15" ry="15" transform="translate(42.39122 -81.60351) rotate(6.86934)"/><rect class="cls-5" x="428.47756" y="60.75488" width="556.56269" height="407.88669" transform="translate(36.73288 -82.63221) rotate(6.86934)"/><path class="cls-6" d="M465.103,703.38184s85.52289,54.1645,99.77671,65.56755,108.329,74.11984,128.28434,85.52289,42.76145,19.95534,76.9706,11.40305,246.591-69.8437,260.84482-112.60514,11.40305-65.56755,11.40305-65.56755,8.55229-31.35839,2.85076-37.05992S982.5165,610.732,979.66574,605.03052s2.85076-51.31374,0-54.1645S976.815,536.6122,976.815,513.8061V459.6416s5.70153-2.85076,8.55229-19.95534,2.85076-19.95534,2.85076-19.95534,42.76145-11.40305,45.61221-19.95534,11.40305-79.82137,8.55229-99.77671c0,0,0-8.55229-19.95534-17.10458s-57.01526-19.95534-57.01526-19.95534a326.39269,326.39269,0,0,0-42.76145,2.85076c-19.95534,2.85076-287.92707,71.26908-287.92707,71.26908s-14.25382,2.85076-34.20916,54.1645c0,0-8.55229,8.55229-5.70153,71.26908v14.25382s-105.47823,85.52289-131.1351,108.329-25.65687,22.8061-22.8061,39.91068,17.10458,42.76145,17.10458,45.61221S465.103,703.38184,465.103,703.38184Z"/><path class="cls-7" d="M452.27457,624.98586l65.56755,31.35839s28.50763-5.70153,31.35839-17.10458,11.40305-119.732,11.40305-122.58281S460.82686,590.7767,455.12534,599.329,443.72228,616.43357,452.27457,624.98586Z"/><path class="cls-8" d="M526.39441,662.04578s59.866,25.65687,65.56755,28.50763,14.25382,2.85076,17.10458,0-42.76145-34.20916-48.463-37.05992S546.34975,644.9412,526.39441,662.04578Z"/><path class="cls-9" d="M540.64823,687.70264s0,14.25382,5.70153,19.95534,28.50763,45.61221,34.20916,57.01526,14.25382,25.65687,19.95534,19.95534,8.55229-76.9706,2.85076-79.82137S543.499,676.29959,540.64823,687.70264Z"/><path class="cls-10" d="M691.73867,781.77783s25.65687,8.55229,28.50763,14.25382,5.70153,57.01526,0,57.01526H703.14172s42.76145,14.25382,51.31374,11.40305,0-65.56755,0-65.56755,0-5.70153,8.55229-8.55229,267.97173-85.52289,267.97173-85.52289v25.65687s5.70153-17.10458,5.70153-25.65687V693.40417s-279.37478,96.92594-285.07631,96.92594S694.58943,784.62859,691.73867,781.77783Z"/><path class="cls-11" d="M691.73867,741.86714S720.2463,753.2702,723.09706,756.121s-8.55229,5.70153-5.70153,8.55229,14.25382,2.85076,11.40305,8.55229,5.70153,8.55229,14.25382,8.55229,293.6286-88.37365,293.6286-96.92594,2.85076-25.65687-2.85076-22.8061S754.45546,753.2702,748.75393,753.2702,697.4402,747.56867,691.73867,741.86714Z"/><path class="cls-12" d="M760.157,830.2408s239.4641-82.67213,242.31486-85.52289a8.82909,8.82909,0,0,0,2.85076-5.70153L760.157,815.987Z"/><path class="cls-13" d="M757.30622,796.03164c2.85076-2.85076,267.97173-85.52289,267.97173-85.52289s2.85076,8.55229,0,14.25382-11.40305,11.40305-19.95534,14.25382S760.157,815.987,760.157,815.987Z"/><path class="cls-14" d="M763.00775,833.09156s17.10458,5.70153,14.25382,8.55229-17.10458,8.55229-17.10458,8.55229V833.09156Z"/><path class="cls-15" d="M674.63409,707.658s37.05992,19.95534,57.01526,17.10458,25.65687-8.55229,31.35839-2.85076,74.11984-14.25382,82.67213-17.10458,173.89655-45.61221,173.89655-51.31374-25.65687-11.40305-28.50763-19.95534,2.85076-14.25382-5.70153-17.10458-14.25382-19.95534-14.25382-25.65687-2.85076-14.25382-2.85076-14.25382-2.85076,28.50763-8.55229,34.20916-19.95534,8.55229-28.50763,8.55229S828.5753,659.195,814.32148,662.04578s-131.1351,39.91068-136.83663,34.20916-17.10458-11.40305-17.10458-11.40305-8.55229,11.40305-5.70153,11.40305S674.63409,707.658,674.63409,707.658Z"/><path class="cls-16" d="M674.63409,701.95646s65.56755-2.85076,76.9706-5.70153,76.9706-25.65687,71.26908-17.10458S771.56,696.25493,782.96309,699.1057s79.82137-14.25382,76.9706-8.55229-19.95534,11.40305-14.25382,11.40305,96.92594-31.35839,99.77671-37.05992-2.85076,0-8.55229,0,5.70153-5.70153,11.40305-14.25382,2.85076-14.25382,0-14.25382,0,2.85076,0-2.85076-14.25382-2.85076-14.25382-2.85076-2.85076-5.70153,2.85076-5.70153,22.8061-8.55229,22.8061-2.85076-5.70153,37.05992-2.85076,34.20916,8.55229-39.91068,8.55229-42.76145-14.25382,8.55229-37.05992,11.40305-133.65163,59.866-182.44884,59.866C743.05241,684.85188,683.18638,701.95646,674.63409,701.95646Z"/><path class="cls-7" d="M648.97722,339.90955s68.41831,25.65687,71.26908,25.65687,285.07631-74.11984,293.6286-74.11984a34.58884,34.58884,0,0,0,14.25382-2.85076s-51.31374-22.8061-68.41831-22.8061-39.91068,5.70153-82.67213,14.25382S648.97722,339.90955,648.97722,339.90955Z"/><path class="cls-15" d="M626.17112,362.71566s-14.25382,22.8061-19.95534,34.20916-11.40305,42.76145-8.55229,48.463,48.463,22.8061,59.866,28.50763,28.50763,14.25382,31.35839,11.40305,8.55229-45.61221,8.55229-54.1645,5.70153-39.91068,8.55229-45.61221-2.85076-5.70153-11.40305-8.55229-25.65687-11.40305-34.20916-11.40305-8.55229,0-14.25382-2.85076S629.02188,357.01413,626.17112,362.71566Z"/><path class="cls-17" d="M609.06654,465.34313s-2.85076,11.40305,0,17.10458,5.70153,5.70153,2.85076,11.40305,5.70153,11.40305,2.85076,14.25382-2.85076,0-2.85076,11.40305,5.70153,28.50763,2.85076,37.05992-11.40305,11.40305-5.70153,17.10458,14.25382,8.55229,19.95534-2.85076,22.8061-48.463,22.8061-57.01526,8.55229-22.8061,5.70153-28.50763-8.55229-8.55229-17.10458-11.40305-17.10458-5.70153-22.8061-8.55229S609.06654,465.34313,609.06654,465.34313Z"/><path class="cls-18" d="M743.05241,388.37252s-5.70153,54.1645-2.85076,59.866,17.10458,2.85076,42.76145-2.85076,119.732-25.65687,122.58281-34.20916,5.70153-65.56755,5.70153-68.41831S745.90317,376.96947,743.05241,388.37252Z"/><path class="cls-19" d="M743.05241,445.38778c3.8247-7.6494,142.53815-28.50763,148.23968-34.20916S905.5459,394.074,905.5459,385.52176s5.70153,19.95534-2.85076,25.65687-145.38892,39.198-151.09044,39.55434S740.20164,451.08931,743.05241,445.38778Z"/><path class="cls-20" d="M919.79972,342.76031S916.949,399.77558,916.949,405.4771s85.52289-17.10458,88.37365-19.95534,17.10458-62.71679,17.10458-68.41831-11.40305-5.70153-42.76145,5.70153S919.79972,337.05879,919.79972,342.76031Z"/><path class="cls-21" d="M919.79972,402.62634s71.26908-17.10458,76.9706-22.8061,14.25382-57.01526,11.40305-59.866,8.55229-2.85076,8.55229-2.85076-11.40305,62.71679-14.25381,65.56755S922.65048,408.32786,919.79972,402.62634Z"/><path class="cls-22" d="M671.78333,488.14923s31.35839,11.40305,37.05992,8.55229,59.866-14.25382,62.71679-17.10458,14.25382,2.85076,11.40305,5.70153-25.65687,8.55229-37.05992,11.40305-51.31374,19.95534-62.71679,22.8061-22.8061,5.70153-19.95534-5.70153A106.79945,106.79945,0,0,0,666.0818,491S666.0818,485.29847,671.78333,488.14923Z"/><path class="cls-23" d="M663.231,528.05991c5.70153,0,39.91068-8.55229,51.31374-14.25382s54.1645-19.95534,59.866-19.95534,14.25382,2.85076,11.40305,8.55229-2.85076,8.55229-2.85076,8.55229-5.70153-8.55229-25.65687-2.85076-82.67213,22.8061-85.52289,25.65687-5.70153,8.55229-8.55229,17.10458,0,96.92594,0,96.92594-8.55229-11.40305-8.55229-25.65687-5.70153-45.61221-2.85076-57.01526S663.231,528.05991,663.231,528.05991Z"/><path class="cls-24" d="M594.81273,505.25381v79.82137c0,2.85076,11.40305,17.10458,17.10458,19.95534s37.05992,28.50763,39.91068,39.91068,2.85076,37.05992,0,42.76145-14.25382,5.70153-19.95534,8.55229-14.25382,5.70153-14.25382,17.10458V753.2702s-5.70153,0-5.70153-8.55229V704.80722s2.85076-8.55229,17.10458-14.25382,17.10458-14.25382,17.10458-25.65687,2.85076-19.95534-11.40305-31.35839-45.61221-31.35839-45.61221-37.05992a29.48685,29.48685,0,0,1-2.85076-11.40305v-59.866S589.1112,508.10457,594.81273,505.25381Z"/><path class="cls-25" d="M620.46959,758.97172s5.70153,11.40305,14.25382,11.40305,5.70153,0,14.25382,2.85076,31.35839,8.55229,34.20916,5.70153,2.85076-45.61221,2.85076-48.463-14.25382-19.95534-19.95534-22.8061-19.95534-5.70153-22.8061-8.55229-17.10458,2.85076-19.95534,5.70153S620.46959,758.97172,620.46959,758.97172Z"/><path class="cls-26" d="M640.42494,716.21028s-2.85076,17.10458,0,22.8061,2.85076,22.8061,2.85076,25.65687,19.95534,5.70153,19.95534,5.70153V724.76256S640.42494,719.061,640.42494,716.21028Z"/><path class="cls-26" d="M623.32036,713.35951l8.55229,2.85076s0,19.95534,2.85076,22.8061,5.70153,11.40305,2.85076,17.10458-2.85076,11.40305-5.70153,8.55229-8.55229-2.85076-8.55229-11.40305Z"/><path class="cls-27" d="M626.17112,710.50875s5.70153,2.85076,8.55229,2.85076,5.70153-2.85076,5.70153-2.85076L626.17112,707.658Z"/><path class="cls-27" d="M648.97722,713.35951s8.55229,5.70153,11.40305,5.70153,8.55229-2.85076,8.55229,0S648.97722,721.9118,648.97722,713.35951Z"/><path class="cls-25" d="M609.06654,773.22554s-2.85076,19.95534,0,22.8061,34.20916,25.65687,39.91068,17.10458,2.85076-22.8061-19.95534-34.20916S609.06654,773.22554,609.06654,773.22554Z"/><path class="cls-26" d="M611.9173,781.77783s22.8061,11.40305,25.65687,11.40305,5.70153,0,2.85076-2.85076S609.06654,767.524,611.9173,781.77783Z"/><polygon class="cls-27" points="611.917 790.33 611.917 798.882 614.768 801.733 614.768 790.33 611.917 790.33"/><polygon class="cls-27" points="617.619 793.181 617.619 801.733 620.47 804.584 620.47 793.181 617.619 793.181"/><polygon class="cls-27" points="623.32 796.032 623.32 804.584 626.171 807.435 626.171 796.032 623.32 796.032"/><path class="cls-28" d="M788.66461,479.59694l39.91068,17.10458s-8.55229,5.70153-14.25382,8.55229-25.65687,8.55229-25.65687,8.55229Z"/><polygon class="cls-29" points="817.172 468.194 854.232 488.149 854.232 471.045 831.426 462.492 817.172 468.194"/><path class="cls-30" d="M956.85964,428.28321l22.8061-8.55229L976.815,451.08931S965.41192,431.134,956.85964,428.28321Z"/><path class="cls-31" d="M666.0818,656.34425v19.95534s0,11.40305,14.25382,8.55229,267.97173-76.9706,276.524-85.52289,5.70153-31.35839,5.70153-31.35839-151.09044,54.1645-173.89655,59.866S674.63409,662.04578,666.0818,656.34425Z"/><path class="cls-32" d="M671.78333,539.463s-5.70153,8.55229-5.70153,28.50763v85.52289s5.70153,2.85076,17.10458,0,133.98586-37.05992,133.98586-37.05992l145.38892-51.31374,5.70153-108.329s2.85076-11.40305-14.25382-5.70153-74.11984,22.8061-74.11984,22.8061S865.63522,476.74618,859.93369,491c0,0-2.85076,8.55229-14.25382,8.55229s-42.76145,14.25382-51.31374,17.10458-11.40305,0-14.25382-2.85076-8.55229-5.70153-25.65687,0S674.63409,533.76144,671.78333,539.463Z"/><path class="cls-33" d="M800.06767,522.35839s-17.10458,11.40305-22.8061,42.76145,14.25382,42.76145,19.95534,45.61221,31.35839,2.85076,48.463-28.50763,14.25382-54.1645,5.70153-62.71679S822.87377,505.25381,800.06767,522.35839Z"/><path class="cls-34" d="M814.32148,522.35839s8.55229,5.70153,8.55229,14.25382-8.55229,34.20916-17.10458,39.91068-31.35839,8.55229-25.65687-8.55229S800.06767,513.8061,814.32148,522.35839Z"/><path class="cls-35" d="M797.2169,548.01525l5.70153-5.70153,2.85076,2.85076s5.70153-11.40305,5.70153-8.55229,0,11.40305,2.85076,11.40305,8.55229-11.40305,5.70153-14.25382-8.55229-11.40305-11.40305-8.55229S794.36614,542.31373,797.2169,548.01525Z"/><path class="cls-35" d="M785.81385,570.82136s2.85076,2.85076,5.70153,2.85076,14.25382-5.70153,14.25382-8.55229-5.70153,0-5.70153,0v-5.70153S788.66461,562.26907,785.81385,570.82136Z"/><path class="cls-36" d="M820.023,522.35839s11.40305,5.70153,8.55229,19.95534-14.25382,34.20916-17.10458,34.20916c0,0-22.8061,8.55229-25.65687,5.70153,0,0,2.85076,8.55229,11.40305,5.70153s37.05992-17.10458,37.05992-34.20916S837.12759,519.50762,820.023,522.35839Z"/><path class="cls-37" d="M825.72453,516.65686s14.25382,8.55229,14.25382,22.8061-14.25382,54.1645-22.8061,54.1645c0,0-25.65687,2.85076-31.35839-2.85076,0,0,39.91068,22.8061,51.31374-17.10458s8.55229-48.463,5.70153-51.31374S825.72453,516.65686,825.72453,516.65686Z"/><path class="cls-38" d="M894.14285,482.4477v65.56755s0,8.55229,14.25382,5.70153,37.05992-8.55229,39.91068-11.40305,5.70153,2.85076,5.70153-25.65687v-48.463s0-5.70153-11.40305-2.85076-42.76145,11.40305-42.76145,11.40305S894.14285,476.74618,894.14285,482.4477Z"/><path class="cls-39" d="M899.84437,479.59694l17.10458-2.85076s0,22.8061-2.85076,28.50763-11.40305,11.40305-14.25382,11.40305S894.14285,482.4477,899.84437,479.59694Z"/><path class="cls-40" d="M922.65048,482.4477v25.65687c0,5.70153-2.85076,11.40305-5.70153,11.40305h-8.55229a21.287,21.287,0,0,0,8.55229-8.55229C919.79972,505.25381,922.65048,482.4477,922.65048,482.4477Z"/><path class="cls-40" d="M928.352,482.4477l5.70153-2.85076s0,37.05992-2.85076,39.91068-19.95534,11.40305-19.95534,11.40305,8.55229,0,14.25382-2.85076,5.70153-5.70153,5.70153-5.70153,0,5.70153-2.85076,8.55229-25.65687,14.25382-28.50763,11.40305-2.85076-14.25382-2.85076-14.25382,25.65687-5.70153,28.50763-8.55229S928.352,482.4477,928.352,482.4477Z"/><path class="cls-40" d="M936.90429,473.89542l5.70153,5.70153s0,51.31374-2.85076,54.1645S928.352,539.463,928.352,539.463a35.28064,35.28064,0,0,0,5.70153-8.55229C936.90429,525.20915,939.75506,476.74618,936.90429,473.89542Z"/><path class="cls-41" d="M942.60582,468.19389s2.85076,0,2.85076,17.10458,2.85076,48.463,0,51.31374-19.95534,5.70153-25.65687,8.55229A134.22832,134.22832,0,0,1,905.5459,550.866s39.91068-5.70153,42.76145-11.40305,5.70153-68.41831,2.85076-71.26908S942.60582,468.19389,942.60582,468.19389Z"/><path class="cls-42" d="M885.59056,573.67212s-2.85076,31.35839,2.85076,34.20916S916.949,605.03052,916.949,599.329s2.85076-31.35839,0-34.20916S885.59056,567.9706,885.59056,573.67212Z"/><path class="cls-43" d="M888.44132,576.52289l2.85076,17.10458s11.40305-8.55229,11.40305-14.25382v-8.55229S888.44132,573.67212,888.44132,576.52289Z"/></g></g></svg>