<svg xmlns="http://www.w3.org/2000/svg" viewBox="0 0 1917.51826 198.97999"><defs><style>.cls-1,.cls-3{opacity:0.8;}.cls-2,.cls-3{fill:#4d9cde;}.cls-4{fill:#c3e5ff;}.cls-5{opacity:0.6;}.cls-6{fill:#b6dbf8;}.cls-7{fill:#c995b7;}.cls-8{fill:#96bde9;}.cls-9{fill:#b8bbd6;}.cls-10{fill:#a1d6ff;}.cls-11{fill:#9ea5d8;}.cls-12{fill:#8288b8;}.cls-13{fill:#b1b5dc;}.cls-14{fill:#c9c6e5;}.cls-15{fill:#7cb9ea;}.cls-16{fill:#b2dafb;}.cls-17{fill:#dfcf7d;}.cls-18{fill:#3d9ae6;}.cls-19{fill:#d5ecfa;}.cls-20{fill:#a0dcff;}.cls-21{fill:#51a5d6;}.cls-22{fill:#97ade6;}.cls-23{fill:#5996c6;}.cls-24{fill:#549bdd;}.cls-25{fill:#aad7fa;}.cls-26{fill:#7eb3eb;}.cls-27{fill:#d6f3ff;}.cls-28{fill:#917d90;}.cls-29{fill:#5086c5;}.cls-30{fill:#71b5f4;}.cls-31{fill:#1275b5;}.cls-32{fill:#b6d7fa;}.cls-33{fill:#7cbaeb;}.cls-34{fill:#fff;}.cls-35{fill:#0066a7;}.cls-36{fill:#98d4fa;}.cls-37{fill:#a36464;}.cls-38{fill:#b2a0b2;}.cls-39{fill:#558bcb;}.cls-40{fill:#fffbee;}.cls-41{fill:#83abdb;}.cls-42{fill:#cbab55;}.cls-43{fill:#aedafe;}.cls-44{fill:#d3f1fe;}.cls-45{fill:#d5f2fe;}</style></defs><title>資產 9</title><g id="圖層_2" data-name="圖層 2"><g id="圖層_1-2" data-name="圖層 1"><g class="cls-1"><g class="cls-1"><circle class="cls-2" cx="721.11097" cy="73.9055" r="7.1251"/><circle class="cls-2" cx="552.90261" cy="64.40536" r="7.1251"/><circle class="cls-2" cx="710.37358" cy="139.29137" r="7.12511" transform="translate(412.50786 799.07067) rotate(-76.79651)"/><path class="cls-2" d="M721.99124,106.68311a7.12606,7.12606,0,0,0-7.50562,2.9104A80.47823,80.47823,0,0,0,704.449,51.8313,7.12622,7.12622,0,1,0,699.74029,44.94,80.69015,80.69015,0,0,0,684.04484,29.334c.06112.00157.12184.00464.18323.00464a7.12043,7.12043,0,1,0-6.55822-4.33627A79.76689,79.76689,0,0,0,656.32332,15.9a7.11964,7.11964,0,1,0-4.29193-1.00592,80.59086,80.59086,0,0,0-16.15632-1.62758q-4.08134,0-8.06077.40159a7.12595,7.12595,0,1,0-3.94552.49321,79.64806,79.64806,0,0,0-23.36124,7.30758,7.125,7.125,0,1,0-5.69255,2.84027c.15267,0,.3037-.00641.45391-.01589a80.58834,80.58834,0,0,0-18.76534,15.24229,7.13,7.13,0,1,0-2.8119,3.26908,79.85846,79.85846,0,0,0-17.96475,47.2266,7.1286,7.1286,0,1,0-.07886,3.4871,80.23071,80.23071,0,0,0,3.31861,22.86462,7.12477,7.12477,0,1,0,3.537,9.59905,80.20376,80.20376,0,0,0,10.43539,17.26648,7.13147,7.13147,0,1,0,7.037,7.78531,80.51841,80.51841,0,0,0,15.8589,11.9951,7.12618,7.12618,0,1,0,8.30525,4.16573,79.6426,79.6426,0,0,0,18.95621,5.50919,7.12532,7.12532,0,1,0,9.12658.931c1.211.05416,2.4277.08623,3.65205.08623a80.53166,80.53166,0,0,0,16.84954-1.77814,7.12484,7.12484,0,1,0,9.31473-2.58964q2.096-.72282,4.13748-1.55834l.12675.29088,1.2807-.558-.11774-.27041a80.04823,80.04823,0,0,0,13.2522-7.22989c-.07463.21939-.13984.44409-.19387.67439a7.13094,7.13094,0,1,0,7.35691-5.48436l.84725-.82188-.28665-.29538a80.24035,80.24035,0,0,0,24.8586-39.53789,7.12525,7.12525,0,1,0,8.69027-7.87931ZM561.85906,93.49381a74.016,74.016,0,1,1,145.70105,18.50066l-3.4721-.50126a70.92972,70.92972,0,0,0,2.31023-17.9994q0-2.47443-.17122-4.9202l1.70815-.37437-.2992-1.36474-1.52082.33344a70.52391,70.52391,0,0,0-140.76352,6.32588,70.82892,70.82892,0,0,0,2.745,19.58285l-1.88619.35473.258,1.37293,2.02849-.38133a70.181,70.181,0,0,0,17.51043,28.93837,71.57763,71.57763,0,0,0,7.289,6.36108l-2.32455,2.60888A73.89178,73.89178,0,0,1,561.85906,93.49381Zm143.70094,0a69.546,69.546,0,0,1-2.3281,17.87593l-57.00766-8.22817a15.02541,15.02541,0,0,0,1.57171-1.75876L705.3956,88.75588C705.50133,90.32227,705.56,91.90122,705.56,93.49381Zm-56.66371,6.21755a14.8409,14.8409,0,0,0,1.71592-4.78909l46.82617-28.93878-.73442-1.1884L650.8155,93.15436c.01419-.26741.02238-.53646.02238-.80741A14.88522,14.88522,0,0,0,649.33506,85.81l32.61935-39.47513-1.077-.88989-32.268,39.05007a15.02317,15.02317,0,0,0-3.93952-4.24322l16.25292-47.27122-1.32122-.45426-16.13709,46.9347a14.8558,14.8558,0,0,0-6.59738-2.02754V25.98568H635.47V77.40884a14.87418,14.87418,0,0,0-5.89147,1.38644L613.73136,31.9176,612.408,32.365l15.91838,47.08881a15.023,15.023,0,0,0-4.84666,4.55647L591.87621,45.3372l-1.08178.88409L622.714,85.28119a14.86561,14.86561,0,0,0-1.757,6.40542L576.81027,64.747l-.72774,1.19257,44.894,27.39558a14.86729,14.86729,0,0,0,1.12721,4.80178l-54.67929-9.58923-.24135,1.37621,55.68644,9.76578a14.99673,14.99673,0,0,0,1.96587,2.72062l-55.888,10.50647A69.68568,69.68568,0,1,1,705.286,87.34966Zm-13.00716,7.58434c.4988,0,.9916-.02565,1.478-.0734l-1.73093,55.95358a69.44493,69.44493,0,0,1-20.2597-3.07521l20.40159-52.80783C635.81531,107.2931,635.85188,107.2957,635.88913,107.2957Zm-9.83195-3.69353a14.96869,14.96869,0,0,0,2.74955,1.9113l-48.94458,27.82808.69049,1.21439,49.8097-28.31978q.62869.25029,1.284.44491L593.881,149.06632a69.94381,69.94381,0,0,1-24.53034-34.80379Zm7.13329,3.4459c.3696.0674.74261.12456,1.12107.16427l-20.26747,52.46019a69.533,69.533,0,0,1-19.03589-9.77137Zm-19.461,53.43883-1.25341,3.24439a73.78676,73.78676,0,0,1-20.38262-10.55873l2.32728-2.612A69.77226,69.77226,0,0,0,613.72945,160.4869Zm1.33459.4224a70.7341,70.7341,0,0,0,20.54621,3.10455l-.10806,3.4912a73.9694,73.9694,0,0,1-21.69539-3.34167Zm23.70724-53.894c.28392-.05553.56593-.11665.84384-.188L661.95734,158.11a69.27106,69.27106,0,0,1-24.92313,5.05418Zm2.78338.76594,38.43578,39.6143a69.791,69.791,0,0,1-16.74271,10.17835Zm.28-1.7177c.32444-.1408.64219-.29374.95408-.45637l51.36354,26.04789a70.24265,70.24265,0,0,1-13.08861,14.84015Zm2.37981-1.29994q.299-.201.58789-.41571l58.05656,8.37947a69.35406,69.35406,0,0,1-7.94725,17.74646Zm59.504,8.08792,3.474.50139a73.60957,73.60957,0,0,1-8.37838,19.09988l-3.11123-1.57785A69.65449,69.65449,0,0,0,703.71842,112.85154Zm-66.81819,54.64531.10806-3.49352a70.37194,70.37194,0,0,0,25.29873-5.09088l1.3878,3.18559A73.756,73.756,0,0,1,636.90023,167.49686Zm26.6969-9.121a70.06478,70.06478,0,0,0,17.00589-10.349l2.43629,2.51092a74.00682,74.00682,0,0,1-18.05411,11.02438Zm23.97069-3.17072c-.14653-.00218-.29238.00055-.43754.00723.082-.06822.16249-.13807.24422-.20642Zm-3.45927-5.57154-2.43425-2.509q2.09419-1.79417,4.06818-3.76325a71.18516,71.18516,0,0,0,9.20053-11.30529l3.12187,1.58331A74.40479,74.40479,0,0,1,684.10856,149.63361Z"/></g><path class="cls-3" d="M50.77427,121.74507V177.9686h118.9905l.0008-.16933.20121.00157v.16776h65.31576v-.04107l26.284-.14785-.00392.18892h42.70518V177.754h6.02253v.21459h38.32516v-.00419h2.555l.1825.00419.00009-.00419h2.28117l.1825.00126v-.00126h18.43258v.00084l.1825-.00084h1.18634l-.00009.00419h236.156l-.001-.213.18348-.00157-.207-4.97243-.3405-72.06668h-10.22s.365-45.49385,0-45.49385H582.399v40.3436h-11.315l.365-24.46367H557.21389v5.15025h-4.015l-.365,19.74261-8.76.42919-.73089,23.32815-12.22666-10.23794-3.65.42919,1.095-70.81589L513.9612,23.67579l-2.555,48.92734-11.49755.21459-.35306,16.9529h-8.58948V129.685l-4.38-.85837V116.38023h-4.745V107.3673l-9.45065,4.11579-.03939-18.279-24.0901-1.28756-.365,49.35653h-7.3v-2.14594h-2.19V134.4061h-.73v4.72106h-1.095v-3.86269h-.73v3.86269h-3.83252V118.31158H418.69581v-10.0859l-8.76-8.58374V129.685l-4.19752-.058V73.03232l-14.41756-.42919.365-31.75986-15.14756-4.50647-.8426,40.86908-2.98992-2.461V65.73195L348.433,64.659l-.90422,93.567h-5.11831V25.60713H340.768v-3.2189h.73V21.959H322.5179v.42919h.73v3.2189H321.2404V41.91625h-10.95v65.88024H293.68278V73.03232l-14.41756-.42919.365-31.75986-15.14756-4.50647-1.25206,60.73H233.275l-5.29252,9.87131V120.8867h-10.22v32.73747l-9.49-22.00779-16.96446-.73882.72189-91.10725L178.1598,24.31957l-2.00751,48.71275H164.10724V97.71059h-5.65752V77.53879h-3.285V71.95936H140.92964l-.5475,24.24908h-10.585v-41.202l-16.97257.21459-.73,46.78141H99.92062l.12886-19.31343H78.69688v47.63978H74.49937l.365-19.31343-13.14005.42919ZM325.43792,22.38823v3.2189h-1.46v-3.2189Zm3.65,0v3.2189h-2.92v-3.2189Zm3.285,0v3.2189h-2.555v-3.2189Zm4.015,0v3.2189h-3.285v-3.2189Zm3.65,3.2189h-2.92v-3.2189h2.92Z"/><path class="cls-2" d="M0,161.21652v23.76967H85.68457l.00058-.07159.14489.00066v.07092h47.03361v-.01737l18.927-.06251-.00282.07987h30.75182v-.09072h4.3368v.09072h27.59779v-.00177h1.83985l.13142.00177.00006-.00177h1.64266l.13142.00053v-.00053H231.4929v.00035l.13142-.00035h.85428l-.00006.00177h170.055l-.00071-.09006.13212-.00066-.14906-2.1022-.24519-30.46769h-7.35941s.26284-19.23347,0-19.23347H382.82079v17.0561h-8.14792l.26284-10.34253H364.6851V141.983h-2.8912l-.26284,8.3466-6.30807.18145-.52631,9.86246-8.80437-4.3283-2.62836.18145.78851-29.93889L333.539,119.75569l-1.83985,20.68505-8.27934.09072-.25424,7.16719h-6.18525V164.5733l-3.154-.3629v-5.262h-3.41687V155.138l-6.80538,1.74-.02836-7.72781-17.34718-.54434-.26284,20.8665H280.709v-.90724h-1.577v-1.99593h-.52567v1.99593h-.78851v-1.633h-.52567v1.633h-2.75978v-8.80022H264.9388v-4.264l-6.30807-3.629V164.5733l-3.02262-.02454V140.62219l-10.382-.18145.26284-13.42714-10.9077-1.9052-.60675,17.27826-2.153-1.04045v-3.8104l-17.4786-.45362-.65112,39.5574h-3.68567V120.5722h-1.18276v-1.36086h.52567v-.18145H195.68148v.18145h.52567v1.36086h-1.4456v6.895h-7.88508v27.85224h-11.959V140.62219l-10.382-.18145.26284-13.42714-10.9077-1.9052-.90161,25.67487H131.41805l-3.81112,4.1733v5.89705h-7.35941v13.84045l-6.83374-9.30425-12.216-.31235.51983-38.51749-9.98777-6.53212-1.4456,20.59433H81.61061v10.43325h-4.074v-8.528H75.17113v-2.35882H64.92052l-.39425,10.2518H56.904v-17.419l-12.22188.09072-.52567,19.77781H35.39009l.09279-8.16515H20.107v20.14071H17.08435l.26284-8.16515-9.4621.18145Zm197.78417-42.00517v1.36086h-1.05134v-1.36086Zm2.62836,0v1.36086h-2.10269v-1.36086Zm2.36552,0v1.36086H200.9382v-1.36086Zm2.8912,0v1.36086h-2.36553v-1.36086Zm2.62836,1.36086h-2.10269v-1.36086h2.10269Z"/><path class="cls-3" d="M424.85334,161.69521v23.76967h85.68457l.00058-.07159.14489.00066v.07092H557.717v-.01737l18.927-.06251-.00282.07987H607.393v-.09072h4.3368v.09072H639.3276v-.00177h1.83985l.13142.00177.00006-.00177h1.64266l.13142.00053v-.00053h13.27322v.00035l.13142-.00035h.85428l-.00006.00177h170.055l-.00071-.09006.13212-.00066-.14906-2.1022-.24519-30.46769h-7.35941s.26284-19.23347,0-19.23347H807.67413v17.0561h-8.14792l.26284-10.34253H789.53844v2.17737h-2.8912l-.26284,8.3466-6.30807.18145-.52631,9.86246-8.80437-4.3283-2.62836.18145.78851-29.93889-10.51344-6.53212-1.83985,20.68505-8.27934.09072-.25424,7.16719h-6.18525V165.052l-3.154-.3629v-5.262h-3.41687v-3.8104l-6.80538,1.74-.02836-7.72781-17.34718-.54434-.26284,20.8665H705.5623v-.90724h-1.577v-1.99593h-.52567v1.99593h-.78851v-1.633h-.52567v1.633h-2.75978v-8.80022h-9.59352v-4.264l-6.30807-3.629V165.052l-3.02262-.02454V141.10088l-10.382-.18145.26284-13.42714-10.9077-1.9052-.60675,17.27826-2.153-1.04045v-3.8104l-17.4786-.45362-.65112,39.5574h-3.68567V121.05089h-1.18276V119.69h.52567v-.18145H620.53482V119.69h.52567v1.36086h-1.4456v6.895h-7.88508v27.85224h-11.959V141.10088l-10.382-.18145.26284-13.42714-10.9077-1.9052-.90161,25.67487H556.27139l-3.81112,4.1733v5.89705h-7.35941v13.84045l-6.83374-9.30425-12.216-.31235.51983-38.51749-9.98777-6.53212-1.4456,20.59433H506.464v10.43325H502.39v-8.528h-2.36552v-2.35882H489.77386l-.39425,10.2518h-7.62225v-17.419l-12.22188.09072-.52567,19.77781h-8.76638l.09279-8.16515H444.9603v20.14071h-3.02262l.26284-8.16515-9.4621.18145ZM622.63751,119.69v1.36086h-1.05134V119.69Zm2.62836,0v1.36086h-2.10269V119.69Zm2.36552,0v1.36086h-1.83985V119.69Zm2.8912,0v1.36086h-2.36553V119.69Zm2.62836,1.36086h-2.10269V119.69H633.151Z"/><path class="cls-4" d="M510.05782,146.49356l.33645,15.14032h-3.86919V124.28776H486.84266l.11878,15.14032H475.73977l-.6729-36.67321-15.645-.16823V134.886h-9.75709l-.50468-19.00951H436.03849v4.37387h-3.02806v15.81322h-5.215v-19.346h-11.1029L414.842,78.53036,402.05689,90.64261l.66541,71.42146-15.6375.57916-8.74774,17.25248V154.23194h-9.42064V143.29727l-4.87855-7.73838H336.42541L335.27128,87.951l-13.96274,3.53274.33645,24.89741-13.28983.33645v27.25257H293.04662V92.32487H282.95307V79.53972h-1.85048V77.01633h.6729v-.33645H264.28v.33645h.6729v2.52339h-1.514v103.9635H258.3845l-.83351-73.34971-22.374.84113v7.06548l-2.25055,1.57539-.45527-20.6909-14.46741,5.38322.35066,12.05332-13.28983.33645v28.60517l-10.26177.17059V112.2128l-8.07484,9.50872v11.17276H174.44748V155.953h-3.53274V151.674h-.6729V155.953h-1.00935v-5.2298h-.6729v5.2298h-2.01871v2.37717h-6.729l-.33645-54.67521-22.2058,1.4263L137.10136,198.98h97.57093l-.00008-.00329h.7571l.16823.00066v-.00066h16.9908v.001l.16823-.001h2.10276l.00006.00329.16823-.00329h2.69161V198.98h35.3274v-.16823h5.55145V198.98h39.36482l-.00359-.14812,24.2281.11592v.0322h52.46846v-.07884l7.92386-.05391.00072.13274H532.26361V154.90484L522.17007,146.83ZM280.42969,77.01633v2.52339h-1.34581V77.01633Zm-2.01871,0v2.52339h-2.69161V77.01633Zm-3.36451,0v2.52339H272.6913V77.01633Zm-3.02806,0v2.52339h-3.02806V77.01633Zm-6.39258,0h2.69161v2.52339h-2.69161Z"/><path class="cls-4" d="M127.176,143.63372v7.06548h-4.37387v9.75709l-4.03742.6729v-31.29h-7.9176l-.32546-13.28983-10.59822-.16823L97.56832,78.02568,84.11026,90.13794l1.00935,55.51449L81.7551,145.316l-11.27028,8.0258-.67374-18.28757-8.07484-.33645L61.39978,119.241h-3.701v-4.03742H44.57721l.33645,19.17773h-10.43V102.75487H19.0069c-.33645,0,0,35.66386,0,35.66386H9.58626l-.31386,56.495-.19081,3.898.16915.00123-.00092.167H136.42846l-.16823-51.98175Z"/><path class="cls-4" d="M653.38614,146.99823l-9.08419-3.36451v7.06548h-4.37387v9.75709l-4.03742.6729v-31.29h-1.86149l-.32544-13.28983-10.59822-.16823-2.35516-38.35547L607.29229,90.13794l1.00935,55.51449-3.36451-.33645-7.00823,4.99071-.56193-15.25248-8.07484-.33645-.33645-15.47677h-3.701v-4.03742H572.13311l.33645,19.17773h-10.43V102.75487H546.5628c-.33645,0,0,35.66386,0,35.66386h-9.42064l-.31386,56.49477-.19081,3.89827.16913.00123-.0009.167H653.55437Z"/><g class="cls-5"><path class="cls-6" d="M9.24981,198.98H72.16623l-2.35516-63.92578-8.07484-.33645L61.39978,119.241h-3.701v-4.03742H44.57721l.33645,19.17773h-10.43V102.75487H19.0069c-.33645,0,0,35.66386,0,35.66386H9.58626Z"/><polygon class="cls-2" points="46.596 134.718 57.362 134.718 57.026 120.25 46.259 120.25 46.596 134.718"/><polygon class="cls-2" points="46.596 119.241 56.689 119.577 56.689 117.222 46.259 116.213 46.596 119.241"/><polygon class="cls-7" points="38.841 144.268 38.531 149.858 47.537 149.858 38.841 144.268"/><path class="cls-7" d="M33.979,137.57759v15.14032l21.19644-.6729Zm4.55852,6.0949,10.14513,6.522H38.1751Z"/><polygon class="cls-2" points="36.615 198.98 55.007 198.98 54.839 183.335 36.334 175.933 36.615 198.98"/><polygon class="cls-4" points="20.521 159.783 20.521 198.475 33.699 198.98 33.643 171.896 27.586 160.12 20.521 159.783"/><polygon class="cls-8" points="9.474 190.793 18.166 190.737 18.166 174.587 32.297 174.251 32.016 198.98 9.082 198.812 9.474 190.793"/><polygon class="cls-6" points="449.665 134.886 459.422 134.886 459.422 102.587 475.067 102.755 475.74 139.428 494.245 139.428 498.618 161.634 510.394 161.634 510.058 146.494 522.17 146.83 532.264 154.905 532.264 198.98 422.58 198.98 422.244 136.064 433.01 136.064 433.01 120.25 436.038 120.25 436.038 115.876 449.16 115.876 449.665 134.886"/><polygon class="cls-2" points="532.264 162.811 530.75 162.811 530.75 159.447 527.385 159.447 527.385 156.069 523.502 155.745 523.53 155.41 527.722 155.759 527.722 159.11 531.086 159.11 531.086 162.475 532.264 162.475 532.264 162.811"/><polygon class="cls-2" points="512.413 155.241 519.142 147.839 512.749 147.839 512.413 155.241"/><polygon class="cls-2" points="514.095 169.372 519.142 169.372 518.806 152.55 514.095 157.26 514.095 169.372"/><polygon class="cls-7" points="439.067 152.55 459.927 153.559 459.927 138.419 439.067 152.55"/><path class="cls-6" d="M445.84224,151.058l10.57029-6.5608-.36438,6.19642Zm10.19639-5.93259-8.94389,5.55145,8.63537-.30852Z"/><rect class="cls-2" x="437.72075" y="117.55873" width="10.09354" height="2.69161"/><rect class="cls-2" x="437.3843" y="121.2597" width="10.43" height="14.80386"/><rect class="cls-2" x="511.40362" y="176.77419" width="3.36451" height="5.38322"/><rect class="cls-2" x="514.09523" y="183.16677" width="4.03742" height="5.38322"/><rect class="cls-2" x="521.16071" y="147.50291" width="0.6729" height="25.90676"/><rect class="cls-2" x="530.58135" y="169.37226" width="0.6729" height="28.93483"/><rect class="cls-2" x="528.22619" y="168.02645" width="0.6729" height="28.93483"/><rect class="cls-2" x="525.87103" y="167.0171" width="0.6729" height="28.93483"/><polygon class="cls-9" points="427.795 198.812 427.795 116.718 416.693 116.718 414.842 78.53 402.057 90.643 403.066 198.98 427.795 198.812"/><polygon class="cls-10" points="403.739 97.035 414.169 89.633 414.169 81.895 403.403 91.988 403.739 97.035"/><polygon class="cls-10" points="403.403 99.727 404.412 127.652 415.515 116.886 414.169 92.661 403.403 99.727"/><path class="cls-11" d="M407.93182,154.55492l.35617-8.90709,12.47023.35617Zm.67915-8.56144-.31674,7.91548,11.39811-7.59874Z"/><polygon class="cls-11" points="408.113 157.26 408.113 162.307 421.235 161.297 420.898 147.839 408.113 157.26"/><polygon class="cls-9" points="405.421 99.727 406.094 99.727 407.104 121.596 406.431 122.269 405.421 99.727"/><polygon class="cls-9" points="407.777 98.381 408.449 98.381 409.122 119.241 408.449 119.577 407.777 98.381"/><path class="cls-9" d="M411.14108,97.37164s.33645-.33645.33645,0,.33645,18.84128.33645,18.84128h-.6729Z"/><path class="cls-9" d="M409.2055,159.46961l8.79571-5.86359.733,5.49724ZM417.739,154.185l-7.354,4.90286,7.96674-.30655Z"/><rect class="cls-12" x="416.18786" y="121.59615" width="3.70097" height="11.1029"/><rect class="cls-12" x="420.89818" y="120.58679" width="4.03742" height="11.7758"/><rect class="cls-4" x="362.18739" y="154.23194" width="16.14967" height="44.74805"/><polygon class="cls-13" points="368.916 198.98 368.916 143.297 364.038 135.559 335.44 135.559 333.757 139.596 333.757 198.812 368.916 198.98"/><rect class="cls-14" x="338.46757" y="140.60566" width="4.03742" height="5.38322"/><rect class="cls-14" x="342.67321" y="147.16646" width="3.70097" height="5.04677"/><polygon class="cls-15" points="257.719 198.644 257.383 183.503 263.439 183.503 263.439 79.54 282.953 79.54 282.953 92.325 293.047 92.325 293.047 198.98 257.719 198.98 257.719 198.644"/><rect class="cls-16" x="265.12115" y="82.23133" width="16.48612" height="8.74774"/><rect class="cls-16" x="265.12115" y="95.35293" width="26.57967" height="0.6729"/><rect class="cls-16" x="265.12115" y="97.37164" width="26.57967" height="0.6729"/><rect class="cls-16" x="264.78469" y="114.53067" width="26.57967" height="0.6729"/><rect class="cls-16" x="264.78469" y="130.68034" width="26.57967" height="0.6729"/><rect class="cls-16" x="265.12115" y="146.49356" width="26.57967" height="0.6729"/><rect class="cls-16" x="265.12115" y="174.75548" width="26.57967" height="0.6729"/><rect class="cls-16" x="265.12115" y="177.11064" width="26.57967" height="0.6729"/><rect class="cls-16" x="265.12115" y="183.50322" width="26.57967" height="0.6729"/><polygon class="cls-16" points="264.28 76.68 264.28 77.016 264.953 77.016 264.953 79.708 265.626 79.708 265.626 77.016 268.317 77.016 268.317 79.708 268.99 79.708 268.99 77.016 272.018 77.016 272.018 79.708 272.691 79.708 272.691 77.016 275.046 77.016 275.046 79.708 275.719 79.708 275.719 77.016 278.411 77.016 278.411 79.708 279.084 79.708 279.084 77.016 280.43 77.016 280.43 79.708 281.103 79.708 281.103 77.016 281.775 77.016 281.775 76.68 264.28 76.68"/><rect class="cls-17" x="268.48566" y="133.7084" width="5.71967" height="6.72903"/><rect class="cls-17" x="279.92501" y="133.7084" width="5.71967" height="6.72903"/><rect class="cls-17" x="268.14921" y="101.40906" width="5.71967" height="6.72903"/><rect class="cls-17" x="279.58856" y="101.40906" width="5.71967" height="6.72903"/><rect class="cls-16" x="266.8034" y="150.53098" width="23.5516" height="21.19644"/><polygon class="cls-4" points="335.271 87.951 337.963 198.98 308.355 198.98 308.355 116.718 321.645 116.381 321.309 91.484 335.271 87.951"/><rect class="cls-18" x="323.32725" y="91.82019" width="3.70097" height="2.35516"/><rect class="cls-18" x="327.70112" y="91.82019" width="3.70097" height="2.35516"/><rect class="cls-18" x="323.32725" y="94.84826" width="3.70097" height="3.02806"/><rect class="cls-18" x="327.70112" y="94.84826" width="3.70097" height="3.02806"/><rect class="cls-19" x="321.64499" y="126.13824" width="4.03742" height="5.38322"/><rect class="cls-19" x="317.94403" y="119.40921" width="4.03742" height="5.38322"/><polygon class="cls-4" points="232.471 98.945 234.672 198.98 205.065 198.98 205.065 116.718 218.354 116.381 218.004 104.328 232.471 98.945"/><rect class="cls-18" x="221.36824" y="104.6643" width="3.70097" height="2.35516"/><rect class="cls-18" x="225.74211" y="104.6643" width="3.70097" height="2.35516"/><rect class="cls-18" x="221.36824" y="107.69236" width="3.70097" height="3.02806"/><rect class="cls-18" x="225.74211" y="107.69236" width="3.70097" height="3.02806"/><rect class="cls-19" x="218.35439" y="126.13824" width="4.03742" height="5.38322"/><rect class="cls-19" x="214.65343" y="119.40921" width="4.03742" height="5.38322"/><rect class="cls-20" x="282.78485" y="143.97017" width="28.26192" height="54.84159"/><rect class="cls-21" x="285.64469" y="147.50291" width="25.23386" height="10.09354"/><rect class="cls-22" x="289.6821" y="150.19452" width="21.19644" height="4.03742"/><rect class="cls-23" x="283.62598" y="160.62452" width="26.57967" height="1.00935"/><path class="cls-23" d="M310.54209,177.11064v-1.00935h-1.68226v-12.4487h1.34581v-1.00935H283.626v1.00935h1.34581V198.98h.6729v-1.68226h24.561v-1.00935h-24.561v-2.35516h24.89741v-1.00935H285.64469V180.1387h5.71967v12.4487h.6729V180.1387h4.71032v12.4487h.6729V180.1387h5.04677v12.4487h.6729V180.1387h5.04677v12.4487h.6729V180.1387h1.68226v-1.00935H285.64469v-2.01871Zm-2.35516-13.45806v12.4487h-5.04677v-12.4487Zm-5.71967,0v12.4487h-5.04677v-12.4487Zm-5.71967,0v12.4487h-4.71032v-12.4487Zm-5.38322,0v12.4487h-5.71967v-12.4487Z"/><rect class="cls-24" x="298.59807" y="162.30678" width="30.95354" height="36.67321"/><rect class="cls-25" x="299.10274" y="167.18532" width="29.27128" height="0.6729"/><rect class="cls-25" x="302.13081" y="169.54048" width="0.6729" height="7.40193"/><rect class="cls-25" x="306.84113" y="169.54048" width="0.6729" height="7.40193"/><rect class="cls-25" x="310.87855" y="169.54048" width="0.6729" height="7.40193"/><rect class="cls-25" x="315.25242" y="169.54048" width="0.6729" height="7.40193"/><rect class="cls-25" x="319.28983" y="169.54048" width="0.6729" height="7.40193"/><rect class="cls-25" x="323.32725" y="169.54048" width="0.6729" height="7.40193"/><rect class="cls-25" x="299.10274" y="178.62467" width="29.27128" height="0.6729"/><rect class="cls-25" x="302.13081" y="180.97983" width="0.6729" height="7.40193"/><rect class="cls-25" x="306.84113" y="180.97983" width="0.6729" height="7.40193"/><rect class="cls-25" x="310.87855" y="180.97983" width="0.6729" height="7.40193"/><rect class="cls-25" x="315.25242" y="180.97983" width="0.6729" height="7.40193"/><rect class="cls-25" x="319.28983" y="180.97983" width="0.6729" height="7.40193"/><rect class="cls-25" x="323.32725" y="180.97983" width="0.6729" height="7.40193"/><rect class="cls-25" x="299.10274" y="189.05467" width="29.27128" height="0.6729"/><rect class="cls-25" x="302.13081" y="191.40983" width="0.6729" height="7.40193"/><rect class="cls-25" x="306.84113" y="191.40983" width="0.6729" height="7.40193"/><rect class="cls-25" x="310.87855" y="191.40983" width="0.6729" height="7.40193"/><rect class="cls-25" x="315.25242" y="191.40983" width="0.6729" height="7.40193"/><rect class="cls-25" x="319.28983" y="191.40983" width="0.6729" height="7.40193"/><rect class="cls-25" x="323.32725" y="191.40983" width="0.6729" height="7.40193"/><polygon class="cls-26" points="374.636 198.98 405.59 198.98 405.253 161.97 387.085 162.643 374.973 186.531 374.636 198.98"/><polygon class="cls-8" points="451.347 198.98 506.525 198.98 506.525 124.288 486.843 124.288 487.179 167.185 482.469 166.176 482.805 152.381 478.095 152.381 478.095 143.297 471.029 146.325 471.366 167.858 451.179 179.634 451.347 198.98"/><path class="cls-27" d="M500.56193,187.2147l-8.98233-.35912,5.38947-7.90464Zm-8.36266-.67126,7.84024.31378-3.13616-7.213Z"/><polygon class="cls-28" points="488.188 168.531 504.338 173.914 504.338 160.793 488.188 168.531"/><rect class="cls-27" x="488.18847" y="126.81115" width="17.15902" height="1.00935"/><rect class="cls-27" x="488.52492" y="132.53082" width="16.82257" height="4.03742"/><rect class="cls-27" x="488.52492" y="143.63372" width="16.82257" height="4.03742"/><rect class="cls-29" x="482.46879" y="167.52177" width="0.6729" height="19.17773"/><rect class="cls-29" x="472.37525" y="170.88629" width="4.37387" height="0.6729"/><rect class="cls-29" x="472.37525" y="172.56855" width="4.71032" height="0.6729"/><rect class="cls-29" x="472.37525" y="174.58726" width="8.41129" height="0.6729"/><rect class="cls-29" x="472.37525" y="176.26951" width="9.42064" height="0.6729"/><rect class="cls-29" x="472.37525" y="178.28822" width="9.42064" height="0.6729"/><path class="cls-27" d="M475.40331,150.19452a1.17758,1.17758,0,1,1,1.17758-1.17758A1.179,1.179,0,0,1,475.40331,150.19452Zm0-2.01871a.84113.84113,0,1,0,.84113.84113A.842.842,0,0,0,475.40331,148.17581Z"/><path class="cls-27" d="M456.89848,180.64338c.33645-.33645,13.79451-8.41129,13.79451-8.41129l-1.00935-1.00935L456.22558,179.634Z"/><path class="cls-27" d="M460.76767,191.2416h-5.38322v-7.40193h5.38322Zm-5.04677-.33645h4.71032v-6.729H455.7209Z"/><rect class="cls-29" x="472.0388" y="180.64338" width="8.74774" height="1.68226"/><rect class="cls-29" x="472.37525" y="184.6808" width="8.74774" height="1.68226"/><polygon class="cls-2" points="206.747 198.977 258.56 198.977 257.551 110.154 235.177 110.995 235.177 118.06 231.812 120.415 231.14 177.276 207.251 177.612 206.747 198.977"/><rect class="cls-27" x="237.53213" y="118.06012" width="19.17773" height="1.00935"/><rect class="cls-27" x="240.89664" y="123.7798" width="8.74774" height="0.6729"/><rect class="cls-27" x="240.89664" y="139.92947" width="8.07484" height="0.6729"/><rect class="cls-27" x="240.89664" y="172.22881" width="8.74774" height="1.00935"/><polygon class="cls-27" points="239.719 174.079 231.14 174.079 231.14 173.743 239.383 173.743 239.383 124.62 231.79 124.558 231.793 124.221 239.719 124.286 239.719 174.079"/><polygon class="cls-4" points="231.756 125.911 238.205 125.799 237.869 171.892 231.14 171.948 231.756 125.911"/><rect class="cls-30" x="232.1489" y="126.47141" width="5.38322" height="4.03742"/><rect class="cls-30" x="232.1489" y="131.18173" width="5.38322" height="4.71032"/><rect class="cls-30" x="232.1489" y="136.56495" width="5.38322" height="5.71967"/><rect class="cls-30" x="232.1489" y="142.95753" width="5.38322" height="5.38322"/><rect class="cls-30" x="232.1489" y="149.01366" width="5.38322" height="4.03742"/><rect class="cls-30" x="231.81245" y="153.72398" width="5.71967" height="4.03742"/><rect class="cls-30" x="231.81245" y="158.4343" width="5.71967" height="3.70097"/><rect class="cls-30" x="231.476" y="162.80817" width="6.05613" height="4.37387"/><rect class="cls-30" x="231.476" y="167.85494" width="6.05613" height="3.70097"/><polygon class="cls-27" points="250.822 173.743 258.224 173.743 258.224 173.406 251.112 173.406 251.112 124.283 257.663 124.221 257.66 123.885 250.822 123.949 250.822 173.743"/><polygon class="cls-4" points="257.692 125.574 252.128 125.462 252.418 171.556 258.224 171.612 257.692 125.574"/><rect class="cls-30" x="252.70867" y="126.13492" width="4.64434" height="4.03742" transform="translate(510.06169 256.30726) rotate(-180)"/><rect class="cls-30" x="252.70867" y="130.84524" width="4.64434" height="4.71032" transform="translate(510.06169 266.40081) rotate(-180)"/><rect class="cls-30" x="252.70867" y="136.22847" width="4.64434" height="5.71967" transform="translate(510.06169 278.17661) rotate(-180)"/><rect class="cls-30" x="252.70867" y="142.62105" width="4.64434" height="5.38322" transform="translate(510.06169 290.62531) rotate(-180)"/><rect class="cls-30" x="252.70867" y="148.67717" width="4.64434" height="4.03742" transform="translate(510.06169 301.39176) rotate(-180)"/><rect class="cls-30" x="252.70867" y="153.38749" width="4.93462" height="4.03742" transform="translate(510.35196 310.8124) rotate(-180)"/><rect class="cls-30" x="252.70867" y="158.09781" width="4.93462" height="3.70097" transform="translate(510.35196 319.89659) rotate(-180)"/><rect class="cls-30" x="252.70867" y="162.47168" width="5.22489" height="4.37387" transform="translate(510.64223 329.31723) rotate(-180)"/><rect class="cls-30" x="252.70867" y="167.51845" width="5.22489" height="3.70097" transform="translate(510.64223 338.73787) rotate(-180)"/><polygon class="cls-27" points="254.859 198.98 254.526 181.481 235.681 181.481 235.598 198.977 235.261 198.976 235.346 181.145 254.856 181.145 255.196 198.973 254.859 198.98"/><polygon class="cls-27" points="252.588 198.978 252.505 184.513 238.369 184.842 238.037 198.476 237.7 198.468 238.041 184.513 252.84 184.169 252.925 198.976 252.588 198.978"/><rect class="cls-31" x="221.71891" y="183.33171" width="0.6729" height="15.14032"/><rect class="cls-31" x="223.73762" y="183.33171" width="0.6729" height="15.14032"/><rect class="cls-31" x="225.41987" y="183.33171" width="0.6729" height="15.14032"/><rect class="cls-31" x="227.43858" y="183.33171" width="0.6729" height="15.14032"/><rect class="cls-31" x="228.78439" y="183.33171" width="0.6729" height="15.14032"/><rect class="cls-32" x="174.44748" y="132.8943" width="12.78516" height="39.46124"/><polygon class="cls-33" points="137.101 198.98 208.766 198.98 209.102 145.256 194.803 145.493 194.803 112.213 186.728 121.722 186.728 169.265 177.644 169.741 177.644 155.953 166.541 155.953 166.541 158.33 159.812 158.33 159.475 103.655 137.27 105.081 137.101 198.98"/><rect class="cls-34" x="139.2883" y="107.45844" width="19.17773" height="23.77183"/><path class="cls-35" d="M152.57813,166.6503h-2.01871v-3.32806h2.01871Zm-1.68226-.47544h1.34581v-2.37718h-1.34581Z"/><path class="cls-35" d="M157.28845,164.74855h-1.68226v-3.32806h1.68226Zm-1.34581-.47544H156.952v-2.37718h-1.00935Z"/><rect class="cls-35" x="175.2886" y="151.19861" width="0.6729" height="4.75437"/><rect class="cls-35" x="170.24183" y="151.67404" width="0.6729" height="4.27893"/><rect class="cls-35" x="168.55958" y="150.72317" width="0.6729" height="5.2298"/><rect class="cls-36" x="187.73731" y="133.13201" width="6.05613" height="0.47544"/><rect class="cls-36" x="187.73731" y="134.55832" width="6.39258" height="0.47544"/><rect class="cls-36" x="187.73731" y="145.01793" width="6.05613" height="0.95087"/><rect class="cls-36" x="188.74666" y="147.87055" width="18.84128" height="0.95087"/><path class="cls-36" d="M200.35424,159.99418h-10.43v-8.55786h10.43Zm-10.09354-.47544h9.75709v-7.607h-9.75709Z"/><rect class="cls-36" x="201.53182" y="151.19861" width="5.38322" height="0.95087"/><rect class="cls-36" x="201.53182" y="154.05123" width="5.38322" height="0.47544"/><rect class="cls-36" x="201.53182" y="156.90385" width="5.38322" height="0.95087"/><rect class="cls-36" x="201.53182" y="159.28103" width="5.38322" height="0.47544"/><rect class="cls-36" x="188.07376" y="161.65821" width="19.51419" height="0.47544"/><rect class="cls-36" x="188.07376" y="164.51083" width="20.18709" height="0.95087"/><rect class="cls-35" x="161.49409" y="164.51083" width="4.03742" height="0.47544"/><rect class="cls-35" x="166.54087" y="163.55996" width="10.76645" height="0.47544"/><rect class="cls-35" x="166.54087" y="158.80559" width="0.33645" height="22.34552"/><rect class="cls-35" x="170.24183" y="164.98627" width="0.6729" height="6.18068"/><rect class="cls-35" x="174.27925" y="164.98627" width="0.33645" height="6.18068"/><rect class="cls-35" x="167.88667" y="167.83889" width="1.68226" height="2.85262"/><rect class="cls-35" x="159.81184" y="159.75647" width="1.00935" height="22.34552"/><path class="cls-35" d="M146.01733,197.316c.33645,0,19.85064-13.78766,19.85064-13.78766l-.6729-1.42631-21.86935,15.214Z"/><rect class="cls-35" x="161.83055" y="169.74063" width="3.70097" height="0.95087"/><rect class="cls-35" x="161.83055" y="176.39675" width="3.70097" height="0.95087"/><polygon class="cls-9" points="59.381 198.98 112.54 198.98 110.522 116.549 99.923 116.381 97.568 78.026 84.11 90.138 85.12 145.652 81.755 145.316 59.549 161.129 59.381 198.98"/><polygon class="cls-10" points="86.465 95.858 96.559 89.129 96.559 82.063 86.465 91.484 86.465 95.858"/><path class="cls-10" d="M96.559,92.4931l-10.43,6.729,1.34581,27.589,10.43-10.09354Zm-7.73838,28.59837-.6729-21.53289.6729-.33645.6729,21.53289Zm2.35516-2.35516-.6729-20.86s.6729-.33645.6729,0,.6729,20.52354.6729,20.52354Zm3.36451-3.701-.6729.6729V96.867h.6729Z"/><path class="cls-37" d="M90.66186,146.49356H83.672l7.3579,6.62225Zm-6.1133.33645h5.79525l.30491,5.49Z"/><path class="cls-37" d="M84.95139,159.44677l-.00559.00016.00559.16823v3.71542l4.368-.36372.34237-8.89658.003-.08214L84.95139,150Zm4.172-.13553-3.83551.12453v-3.06913l3.94583.07688Zm-3.83551,3.654v-3.19267l3.82254-.1242-.11566,3.00769Zm4.03446-8.82594-.07569,1.96778-3.95877-.077v-5.30453Z"/><polygon class="cls-37" points="67.961 196.288 67.624 196.288 67.624 159.447 70.989 159.447 70.989 157.765 73.991 157.765 73.655 155.41 76.372 155.41 76.372 152.73 80.901 152.382 80.927 152.717 76.708 153.042 76.708 155.746 74.042 155.746 74.379 158.101 71.325 158.101 71.325 159.783 67.961 159.783 67.961 196.288"/><rect class="cls-38" x="88.82058" y="168.19468" width="3.02806" height="4.03742"/><rect class="cls-38" x="85.79251" y="172.905" width="3.02806" height="3.70097"/><rect class="cls-12" x="98.57767" y="120.75502" width="4.03742" height="9.42064"/><rect class="cls-12" x="103.62444" y="120.08212" width="3.70097" height="12.11225"/><rect class="cls-37" x="82.09155" y="146.32533" width="0.6729" height="19.51419"/><rect class="cls-37" x="77.71768" y="158.77404" width="0.6729" height="22.8787"/><rect class="cls-37" x="75.36252" y="160.79274" width="0.6729" height="18.84128"/><rect class="cls-37" x="73.00736" y="162.81145" width="0.6729" height="16.82257"/><path class="cls-38" d="M82.09155,184.34435S92.858,190.73693,92.858,190.40047s-1.34581-13.12161-1.34581-13.12161Z"/><polyline class="cls-12" points="99.923 152.718 99.587 150.363 92.185 155.746 92.185 157.092 95.886 157.092 99.923 153.054"/><polygon class="cls-12" points="92.185 152.718 93.194 152.718 98.914 149.017 98.914 148.008 92.185 152.718"/><path class="cls-12" d="M91.17574,145.98888h.6729v-.33645h6.729v-.6729s-7.40193-.33645-7.40193,0Z"/><polygon class="cls-12" points="96.895 157.092 99.923 157.092 100.596 154.4 96.895 157.092"/><polygon class="cls-8" points="101.438 198.98 136.428 198.98 136.26 146.998 127.176 143.634 127.176 150.699 122.802 150.699 122.802 160.456 118.765 161.129 118.765 129.839 101.269 129.839 101.438 198.98"/><rect class="cls-39" x="101.94218" y="130.84856" width="15.81322" height="1.00935"/><rect class="cls-40" x="102.27864" y="135.22243" width="15.81322" height="2.69161"/><rect class="cls-40" x="102.27864" y="143.97017" width="15.81322" height="2.69161"/><rect class="cls-39" x="128.8583" y="163.82081" width="6.39258" height="0.6729"/><rect class="cls-39" x="128.52185" y="165.16661" width="6.72903" height="0.6729"/><rect class="cls-39" x="124.82088" y="166.84887" width="10.43" height="0.33645"/><rect class="cls-39" x="123.81153" y="168.19468" width="11.43935" height="0.33645"/><rect class="cls-39" x="124.48443" y="169.87693" width="11.1029" height="0.33645"/><rect class="cls-39" x="122.46572" y="161.46565" width="0.6729" height="37.00966"/><path class="cls-39" d="M135.08265,180.1387H124.98911V171.391h10.09354Zm-9.75709-.33645h9.42064v-8.07484h-9.42064Z"/><path class="cls-39" d="M130.03588,148.84872a1.18809,1.18809,0,1,1,1.34581-1.17758A1.27156,1.27156,0,0,1,130.03588,148.84872Zm0-2.01871a.85515.85515,0,1,0,1.00935.84113A.9378.9378,0,0,0,130.03588,146.83Z"/><path class="cls-41" d="M114.74443,176.10129h-7.69107l2.92982-5.86Zm-7.147-.33645h6.43989l-3.98649-4.90647Z"/><path class="cls-39" d="M131.88012,177.44709h-5.32375l2.28156-4.1833Zm-4.75731-.33645h4.09689l-2.341-3.21863Z"/><polygon class="cls-42" points="103.624 166.512 117.755 162.139 103.624 156.755 103.624 166.512"/><path class="cls-6" d="M536.80571,198.98h62.91642L597.367,135.05421l-8.07484-.33645-.33645-15.47677h-3.701v-4.03742H572.13311l.33645,19.17773h-10.43V102.75487H546.5628c-.33645,0,0,35.66386,0,35.66386h-9.42064Z"/><polygon class="cls-2" points="574.152 134.718 584.918 134.718 584.582 120.25 573.815 120.25 574.152 134.718"/><polygon class="cls-2" points="574.152 119.241 584.245 119.577 584.245 117.222 573.815 116.213 574.152 119.241"/><polygon class="cls-7" points="566.397 144.268 566.087 149.858 575.093 149.858 566.397 144.268"/><path class="cls-7" d="M561.53489,137.57759v15.14032l21.19644-.6729Zm4.55852,6.0949,10.14513,6.522H565.731Z"/><polygon class="cls-2" points="564.17 198.98 582.563 198.98 582.395 183.335 563.89 175.933 564.17 198.98"/><polygon class="cls-4" points="548.077 159.783 548.077 198.475 561.255 198.98 561.198 171.896 555.142 160.12 548.077 159.783"/><polygon class="cls-8" points="537.03 190.793 545.722 190.737 545.722 174.587 559.853 174.251 559.572 198.98 536.637 198.812 537.03 190.793"/><polygon class="cls-9" points="582.563 198.98 635.722 198.98 633.704 116.549 623.106 116.381 620.75 78.026 607.292 90.138 608.302 145.652 604.937 145.316 582.731 161.129 582.563 198.98"/><polygon class="cls-10" points="609.647 95.858 619.741 89.129 619.741 82.063 609.647 91.484 609.647 95.858"/><path class="cls-10" d="M619.741,92.4931l-10.43,6.729,1.34581,27.589,10.43-10.09354Zm-7.73838,28.59837-.6729-21.53289.6729-.33645.6729,21.53289Zm2.35516-2.35516-.6729-20.86s.6729-.33645.6729,0,.6729,20.52354.6729,20.52354Zm3.36451-3.701-.6729.6729V96.867h.6729Z"/><path class="cls-37" d="M613.84389,146.49356H606.854l7.3579,6.62225Zm-6.1133.33645h5.79525l.30491,5.49Z"/><path class="cls-37" d="M608.13342,159.44677l-.00559.00016.00559.16823v3.71542l4.368-.36372.34237-8.89658.003-.08214L608.13342,150Zm4.172-.13553-3.83551.12453v-3.06913l3.94583.07688Zm-3.83551,3.654v-3.19267l3.82254-.1242-.11566,3.00769Zm4.03446-8.82594-.07569,1.96778-3.95877-.077v-5.30453Z"/><polygon class="cls-37" points="591.143 196.288 590.806 196.288 590.806 159.447 594.171 159.447 594.171 157.765 597.173 157.765 596.837 155.41 599.554 155.41 599.554 152.73 604.083 152.382 604.109 152.717 599.89 153.042 599.89 155.746 597.224 155.746 597.561 158.101 594.507 158.101 594.507 159.783 591.143 159.783 591.143 196.288"/><rect class="cls-38" x="612.00261" y="168.19468" width="3.02806" height="4.03742"/><rect class="cls-38" x="608.97455" y="172.905" width="3.02806" height="3.70097"/><rect class="cls-12" x="621.7597" y="120.75502" width="4.03742" height="9.42064"/><rect class="cls-12" x="626.80647" y="120.08212" width="3.70097" height="12.11225"/><rect class="cls-37" x="605.27358" y="146.32533" width="0.6729" height="19.51419"/><rect class="cls-37" x="600.89971" y="158.77404" width="0.6729" height="22.8787"/><rect class="cls-37" x="598.54455" y="160.79274" width="0.6729" height="18.84128"/><rect class="cls-37" x="596.18939" y="162.81145" width="0.6729" height="16.82257"/><path class="cls-38" d="M605.27358,184.34435S616.04,190.73693,616.04,190.40047s-1.34581-13.12161-1.34581-13.12161Z"/><polyline class="cls-12" points="623.106 152.718 622.769 150.363 615.367 155.746 615.367 157.092 619.068 157.092 623.106 153.054"/><polygon class="cls-12" points="615.367 152.718 616.376 152.718 622.096 149.017 622.096 148.008 615.367 152.718"/><path class="cls-12" d="M614.35777,145.98888h.6729v-.33645h6.729v-.6729s-7.40193-.33645-7.40193,0Z"/><polygon class="cls-12" points="620.077 157.092 623.106 157.092 623.778 154.4 620.077 157.092"/><polygon class="cls-8" points="618.563 198.98 653.554 198.98 653.386 146.998 644.302 143.634 644.302 150.699 639.928 150.699 639.928 160.456 635.891 161.129 635.891 129.839 618.395 129.839 618.563 198.98"/><rect class="cls-39" x="619.06809" y="130.84856" width="15.81322" height="1.00935"/><rect class="cls-40" x="619.40454" y="135.22243" width="15.81322" height="2.69161"/><rect class="cls-40" x="619.40454" y="143.97017" width="15.81322" height="2.69161"/><rect class="cls-39" x="645.98421" y="163.82081" width="6.39258" height="0.6729"/><rect class="cls-39" x="645.64776" y="165.16661" width="6.72903" height="0.6729"/><rect class="cls-39" x="641.94679" y="166.84887" width="10.43" height="0.33645"/><rect class="cls-39" x="640.93744" y="168.19468" width="11.43935" height="0.33645"/><rect class="cls-39" x="641.61034" y="169.87693" width="11.1029" height="0.33645"/><rect class="cls-39" x="639.59163" y="161.46565" width="0.6729" height="37.00966"/><path class="cls-39" d="M652.20856,180.1387H642.115V171.391h10.09354Zm-9.75709-.33645h9.42064v-8.07484h-9.42064Z"/><path class="cls-39" d="M647.16179,148.84872a1.18809,1.18809,0,1,1,1.34581-1.17758A1.27156,1.27156,0,0,1,647.16179,148.84872Zm0-2.01871a.85515.85515,0,1,0,1.00935.84113A.9378.9378,0,0,0,647.16179,146.83Z"/><path class="cls-41" d="M631.87033,176.10129h-7.69107l2.92982-5.86Zm-7.147-.33645h6.43989l-3.98649-4.90647Z"/><path class="cls-39" d="M649.006,177.44709h-5.32375l2.28156-4.1833Zm-4.75731-.33645h4.09689l-2.341-3.21863Z"/><polygon class="cls-42" points="620.75 166.512 634.881 162.139 620.75 156.755 620.75 166.512"/><path class="cls-43" d="M381.34716,198.98c0-4.03742-.00476-8.41129-.00476-8.41129l3.74889-.26281-.04316-3.7746h12.11225l-.00008,1.68226h4.374s.01333-2.9175,0-3.701h13.12161V198.98Z"/><rect class="cls-44" x="403.21651" y="187.87709" width="4.03742" height="3.02806"/><rect class="cls-44" x="407.92683" y="187.87709" width="4.03742" height="3.02806"/><path class="cls-44" d="M385.38458,189.55935v5.38322h9.75709v-5.38322Zm8.74774,4.37387h-7.73838V190.5687h7.73838Z"/><rect class="cls-45" x="400.18844" y="182.49386" width="15.47677" height="3.36451"/></g></g><g class="cls-1"><path class="cls-3" d="M1140.77427,115.74507V171.9686h118.9905l.0008-.16933.20121.00157v.16776h65.31576v-.04107l26.284-.14785-.00392.18892h42.70518V171.754h6.02253v.21459h38.32516v-.00419h2.555l.1825.00419.00009-.00419h2.28117l.1825.00126v-.00126h18.43258v.00084l.1825-.00084h1.18634l-.00009.00419h236.156l-.001-.213.18348-.00157-.207-4.97243-.3405-72.06668h-10.22s.365-45.49385,0-45.49385H1672.399v40.3436h-11.315l.365-24.46367h-14.23506v5.15025h-4.015l-.365,19.74261-8.76.42919-.73089,23.32815-12.22666-10.23794-3.65.42919,1.095-70.81589-14.60006-15.45074-2.555,48.92734-11.49755.21459-.35306,16.9529h-8.58948V123.685l-4.38-.85837V110.38023h-4.745V101.3673l-9.45065,4.11579-.03939-18.279-24.0901-1.28756-.365,49.35653h-7.3v-2.14594h-2.19V128.4061h-.73v4.72106h-1.095v-3.86269h-.73v3.86269h-3.83252V112.31158h-13.32256v-10.0859l-8.76-8.58374V123.685l-4.19752-.058V67.03232l-14.41756-.42919.365-31.75986-15.14756-4.50647-.8426,40.86908-2.98992-2.461V59.73195l-24.2726-1.073-.90422,93.567h-5.11831V19.60713H1430.768v-3.2189h.73V15.959H1412.5179v.42919h.73v3.2189h-2.00751V35.91625h-10.95v65.88024h-16.60757V67.03232l-14.41756-.42919.365-31.75986-15.14756-4.50647-1.25206,60.73H1323.275l-5.29252,9.87131V114.8867h-10.22v32.73747l-9.49-22.00779-16.96446-.73882.72189-91.10725L1268.1598,18.31957l-2.00751,48.71275h-12.04505V91.71059h-5.65752V71.53879h-3.285V65.95936h-14.23506l-.5475,24.24908h-10.585v-41.202l-16.97257.21459-.73,46.78141h-12.17391l.12885-19.31343h-21.35259v47.63978h-4.19752l.365-19.31343-13.14006.42919Zm274.66365-99.35684v3.2189h-1.46v-3.2189Zm3.65,0v3.2189h-2.92v-3.2189Zm3.285,0v3.2189h-2.555v-3.2189Zm4.015,0v3.2189h-3.285v-3.2189Zm3.65,3.2189h-2.92v-3.2189h2.92Z"/><path class="cls-2" d="M1090,155.21652v23.76967h85.68457l.00058-.07159.14489.00066v.07092h47.03361v-.01737l18.927-.06251-.00282.07987h30.75183v-.09072h4.3368v.09072h27.59779v-.00177h1.83985l.13142.00177.00006-.00177h1.64266l.13142.00053v-.00053h13.27322v.00035l.13142-.00035h.85428l-.00006.00177h170.055l-.00071-.09006.13212-.00066-.14906-2.1022-.24519-30.46769h-7.35941s.26284-19.23347,0-19.23347h-12.09046v17.0561h-8.14792l.26284-10.34253H1454.6851V135.983h-2.8912l-.26284,8.3466-6.30807.18145-.52631,9.86246-8.80437-4.3283-2.62836.18145.78851-29.93889-10.51345-6.53212-1.83985,20.68505-8.27934.09072-.25424,7.16719h-6.18525V158.5733l-3.154-.3629v-5.262h-3.41687V149.138l-6.80538,1.74-.02836-7.72781-17.34718-.54434-.26284,20.8665H1370.709v-.90724h-1.577v-1.99593h-.52567v1.99593h-.78851v-1.633h-.52567v1.633h-2.75978v-8.80022h-9.59352v-4.264l-6.30807-3.629V158.5733l-3.02262-.02454V134.62219l-10.382-.18145.26284-13.42714-10.9077-1.9052-.60675,17.27826-2.153-1.04045v-3.8104l-17.4786-.45362-.65112,39.5574h-3.68567V114.5722h-1.18276v-1.36086h.52567v-.18145h-13.66748v.18145h.52567v1.36086h-1.4456v6.895h-7.88508v27.85224h-11.959V134.62219l-10.382-.18145.26284-13.42714-10.9077-1.9052-.90161,25.67487h-21.57088l-3.81112,4.1733v5.89705h-7.35941v13.84045l-6.83374-9.30425-12.216-.31235.51983-38.51749-9.98777-6.53212-1.4456,20.59433h-8.67359v10.43325h-4.074v-8.528h-2.36552v-2.35882h-10.25061l-.39425,10.2518H1146.904v-17.419l-12.22188.09072-.52567,19.77781h-8.76638l.09279-8.16515H1110.107v20.14071h-3.02262l.26284-8.16515-9.4621.18145Zm197.78417-42.00517v1.36086h-1.05134v-1.36086Zm2.62836,0v1.36086h-2.10269v-1.36086Zm2.36552,0v1.36086h-1.83985v-1.36086Zm2.8912,0v1.36086h-2.36552v-1.36086Zm2.62836,1.36086h-2.10269v-1.36086h2.10269Z"/><path class="cls-3" d="M1514.85334,155.69521v23.76967h85.68457l.00058-.07159.14489.00066v.07092H1647.717v-.01737l18.927-.06251-.00282.07987H1697.393v-.09072h4.3368v.09072h27.59779v-.00177h1.83985l.13142.00177.00006-.00177h1.64266l.13142.00053v-.00053h13.27322v.00035l.13142-.00035h.85428l-.00006.00177h170.055l-.00071-.09006.13212-.00066-.14907-2.1022-.24519-30.46769h-7.35941s.26284-19.23347,0-19.23347h-12.09046v17.0561h-8.14792l.26284-10.34253h-10.25061v2.17737h-2.8912l-.26284,8.3466-6.30807.18145-.52631,9.86246-8.80437-4.3283-2.62836.18145.78851-29.93889-10.51345-6.53212-1.83985,20.68505-8.27934.09072-.25424,7.16719h-6.18525V159.052l-3.154-.3629v-5.262h-3.41687v-3.8104l-6.80538,1.74-.02836-7.72781-17.34718-.54434-.26284,20.8665h-5.25672v-.90724h-1.577v-1.99593h-.52567v1.99593h-.78851v-1.633h-.52567v1.633h-2.75978v-8.80022h-9.59352v-4.264l-6.30807-3.629V159.052l-3.02262-.02454V135.10088l-10.382-.18145.26284-13.42714-10.9077-1.9052-.60675,17.27826-2.153-1.04045v-3.8104l-17.4786-.45362-.65112,39.5574h-3.68567V115.05089h-1.18276V113.69h.52567v-.18145h-13.66748V113.69h.52567v1.36086h-1.4456v6.895h-7.88508v27.85224h-11.959V135.10088l-10.382-.18145.26284-13.42714-10.9077-1.9052-.90161,25.67487h-21.57088l-3.81112,4.1733v5.89705h-7.35941v13.84045l-6.83374-9.30425-12.216-.31235.51983-38.51749-9.98777-6.53212-1.4456,20.59433H1596.464v10.43325h-4.074v-8.528h-2.36552v-2.35882h-10.25061l-.39425,10.2518h-7.62225v-17.419l-12.22188.09072-.52567,19.77781h-8.76638l.09279-8.16515H1534.9603v20.14071h-3.02261l.26284-8.16515-9.4621.18145ZM1712.63751,113.69v1.36086h-1.05134V113.69Zm2.62836,0v1.36086h-2.10269V113.69Zm2.36553,0v1.36086h-1.83985V113.69Zm2.8912,0v1.36086h-2.36552V113.69Zm2.62836,1.36086h-2.10269V113.69h2.10269Z"/><path class="cls-4" d="M1600.05782,140.49356l.33645,15.14032h-3.86919V118.28776h-19.68241l.11878,15.14032h-11.22168l-.6729-36.67321-15.645-.16823V128.886h-9.75709l-.50468-19.00951h-13.12161v4.37387h-3.02806v15.81322h-5.215v-19.346h-11.1029l-1.85048-38.18724-12.78516,12.11225.66541,71.42146-15.6375.57916-8.74774,17.25248V148.23194h-9.42064V137.29727l-4.87855-7.73838h-27.61247L1425.27128,81.951l-13.96274,3.53274.33645,24.89741-13.28983.33645v27.25257h-15.30854V86.32487h-10.09354V73.53972h-1.85048V71.01633h.6729v-.33645H1354.28v.33645h.6729v2.52339h-1.514v103.9635h-5.05439l-.83351-73.34971-22.374.84113v7.06548l-2.25055,1.57539-.45527-20.6909-14.46741,5.38322.35066,12.05332-13.28983.33645v28.60517l-10.26177.17059V106.2128l-8.07483,9.50872v11.17276h-12.28048V149.953h-3.53274V145.674h-.6729V149.953h-1.00935v-5.2298h-.6729v5.2298h-2.01871v2.37717h-6.729l-.33645-54.67521-22.2058,1.4263-.16823,93.89875h97.57093l-.00008-.00329h.7571l.16822.00066v-.00066h16.9908v.001l.16822-.001h2.10276l.00006.00329.16823-.00329h2.69161V192.98h35.32741v-.16823h5.55145V192.98h39.36482l-.00359-.14812,24.2281.11592v.0322h52.46846v-.07884l7.92386-.05391.00072.13274h109.68318V148.90484L1612.17007,140.83ZM1370.42969,71.01633v2.52339h-1.34581V71.01633Zm-2.01871,0v2.52339h-2.69161V71.01633Zm-3.36452,0v2.52339h-2.35516V71.01633Zm-3.02806,0v2.52339h-3.02806V71.01633Zm-6.39258,0h2.69161v2.52339h-2.69161Z"/><path class="cls-4" d="M1217.176,137.63372v7.06548h-4.37387v9.75709l-4.03742.6729v-31.29h-7.9176l-.32547-13.28983-10.59822-.16823-2.35516-38.35547-13.45806,12.11225,1.00935,55.51449-3.36451-.33645-11.27028,8.0258-.67375-18.28757-8.07483-.33645-.33645-15.47677h-3.701v-4.03742h-13.12161l.33645,19.17773h-10.43V96.75487H1109.0069c-.33645,0,0,35.66386,0,35.66386h-9.42064l-.31386,56.495-.19081,3.898.16915.00123-.00092.167h127.17865l-.16823-51.98175Z"/><path class="cls-4" d="M1743.38614,140.99823l-9.08419-3.36451v7.06548h-4.37387v9.75709l-4.03742.6729v-31.29h-1.86149l-.32544-13.28983-10.59822-.16823-2.35516-38.35547-13.45806,12.11225,1.00935,55.51449-3.36451-.33645-7.00823,4.99071-.56193-15.25248-8.07483-.33645-.33645-15.47677h-3.701v-4.03742h-13.12161l.33645,19.17773h-10.43V96.75487H1636.5628c-.33645,0,0,35.66386,0,35.66386h-9.42064l-.31386,56.49477-.19081,3.89827.16913.00123-.0009.167h116.74866Z"/><g class="cls-5"><path class="cls-6" d="M1099.2498,192.98h62.91643l-2.35516-63.92578-8.07484-.33645-.33645-15.47677h-3.701v-4.03742h-13.12161l.33645,19.17773h-10.43V96.75487H1109.0069c-.33645,0,0,35.66386,0,35.66386h-9.42064Z"/><polygon class="cls-2" points="1136.596 128.718 1147.362 128.718 1147.026 114.25 1136.259 114.25 1136.596 128.718"/><polygon class="cls-2" points="1136.596 113.241 1146.689 113.577 1146.689 111.222 1136.259 110.213 1136.596 113.241"/><polygon class="cls-7" points="1128.841 138.268 1128.531 143.858 1137.537 143.858 1128.841 138.268"/><path class="cls-7" d="M1123.979,131.57759v15.14032l21.19644-.6729Zm4.55852,6.0949,10.14513,6.522H1128.1751Z"/><polygon class="cls-2" points="1126.615 192.98 1145.007 192.98 1144.839 177.335 1126.334 169.933 1126.615 192.98"/><polygon class="cls-4" points="1110.521 153.783 1110.521 192.475 1123.699 192.98 1123.643 165.896 1117.586 154.12 1110.521 153.783"/><polygon class="cls-8" points="1099.474 184.793 1108.166 184.737 1108.166 168.587 1122.297 168.251 1122.016 192.98 1099.082 192.812 1099.474 184.793"/><polygon class="cls-6" points="1539.665 128.886 1549.422 128.886 1549.422 96.587 1565.067 96.755 1565.74 133.428 1584.245 133.428 1588.618 155.634 1600.394 155.634 1600.058 140.494 1612.17 140.83 1622.264 148.905 1622.264 192.98 1512.58 192.98 1512.244 130.064 1523.01 130.064 1523.01 114.25 1526.038 114.25 1526.038 109.876 1539.16 109.876 1539.665 128.886"/><polygon class="cls-2" points="1622.264 156.811 1620.75 156.811 1620.75 153.447 1617.385 153.447 1617.385 150.069 1613.502 149.745 1613.53 149.41 1617.722 149.759 1617.722 153.11 1621.086 153.11 1621.086 156.475 1622.264 156.475 1622.264 156.811"/><polygon class="cls-2" points="1602.413 149.241 1609.142 141.839 1602.749 141.839 1602.413 149.241"/><polygon class="cls-2" points="1604.095 163.372 1609.142 163.372 1608.806 146.55 1604.095 151.26 1604.095 163.372"/><polygon class="cls-7" points="1529.067 146.55 1549.927 147.559 1549.927 132.419 1529.067 146.55"/><path class="cls-6" d="M1535.84224,145.058l10.57029-6.5608-.36438,6.19642Zm10.19638-5.93259-8.94389,5.55145,8.63537-.30852Z"/><rect class="cls-2" x="1527.72075" y="111.55873" width="10.09354" height="2.69161"/><rect class="cls-2" x="1527.3843" y="115.2597" width="10.43" height="14.80386"/><rect class="cls-2" x="1601.40362" y="170.77419" width="3.36451" height="5.38322"/><rect class="cls-2" x="1604.09523" y="177.16677" width="4.03742" height="5.38322"/><rect class="cls-2" x="1611.16071" y="141.50291" width="0.6729" height="25.90676"/><rect class="cls-2" x="1620.58135" y="163.37226" width="0.6729" height="28.93483"/><rect class="cls-2" x="1618.22619" y="162.02645" width="0.6729" height="28.93483"/><rect class="cls-2" x="1615.87103" y="161.0171" width="0.6729" height="28.93483"/><polygon class="cls-9" points="1517.795 192.812 1517.795 110.718 1506.693 110.718 1504.842 72.53 1492.057 84.643 1493.066 192.98 1517.795 192.812"/><polygon class="cls-10" points="1493.739 91.035 1504.169 83.633 1504.169 75.895 1493.403 85.988 1493.739 91.035"/><polygon class="cls-10" points="1493.403 93.727 1494.412 121.652 1505.515 110.886 1504.169 86.661 1493.403 93.727"/><path class="cls-11" d="M1497.93182,148.55492l.35616-8.90709,12.47023.35617Zm.67915-8.56144-.31674,7.91548,11.39811-7.59874Z"/><polygon class="cls-11" points="1498.113 151.26 1498.113 156.307 1511.235 155.297 1510.898 141.839 1498.113 151.26"/><polygon class="cls-9" points="1495.421 93.727 1496.094 93.727 1497.104 115.596 1496.431 116.269 1495.421 93.727"/><polygon class="cls-9" points="1497.777 92.381 1498.449 92.381 1499.122 113.241 1498.449 113.577 1497.777 92.381"/><path class="cls-9" d="M1501.14108,91.37164s.33645-.33645.33645,0,.33645,18.84128.33645,18.84128h-.6729Z"/><path class="cls-9" d="M1499.2055,153.46961l8.79571-5.86359.733,5.49724Zm8.53351-5.28465-7.354,4.90286,7.96674-.30655Z"/><rect class="cls-12" x="1506.18786" y="115.59615" width="3.70097" height="11.1029"/><rect class="cls-12" x="1510.89818" y="114.58679" width="4.03742" height="11.7758"/><rect class="cls-4" x="1452.18739" y="148.23194" width="16.14967" height="44.74805"/><polygon class="cls-13" points="1458.916 192.98 1458.916 137.297 1454.038 129.559 1425.44 129.559 1423.757 133.596 1423.757 192.812 1458.916 192.98"/><rect class="cls-14" x="1428.46757" y="134.60566" width="4.03742" height="5.38322"/><rect class="cls-14" x="1432.67321" y="141.16646" width="3.70097" height="5.04677"/><polygon class="cls-15" points="1347.719 192.644 1347.383 177.503 1353.439 177.503 1353.439 73.54 1372.953 73.54 1372.953 86.325 1383.047 86.325 1383.047 192.98 1347.719 192.98 1347.719 192.644"/><rect class="cls-16" x="1355.12115" y="76.23133" width="16.48612" height="8.74774"/><rect class="cls-16" x="1355.12115" y="89.35293" width="26.57967" height="0.6729"/><rect class="cls-16" x="1355.12115" y="91.37164" width="26.57967" height="0.6729"/><rect class="cls-16" x="1354.78469" y="108.53067" width="26.57967" height="0.6729"/><rect class="cls-16" x="1354.78469" y="124.68034" width="26.57967" height="0.6729"/><rect class="cls-16" x="1355.12115" y="140.49356" width="26.57967" height="0.6729"/><rect class="cls-16" x="1355.12115" y="168.75548" width="26.57967" height="0.6729"/><rect class="cls-16" x="1355.12115" y="171.11064" width="26.57967" height="0.6729"/><rect class="cls-16" x="1355.12115" y="177.50322" width="26.57967" height="0.6729"/><polygon class="cls-16" points="1354.28 70.68 1354.28 71.016 1354.953 71.016 1354.953 73.708 1355.626 73.708 1355.626 71.016 1358.317 71.016 1358.317 73.708 1358.99 73.708 1358.99 71.016 1362.018 71.016 1362.018 73.708 1362.691 73.708 1362.691 71.016 1365.046 71.016 1365.046 73.708 1365.719 73.708 1365.719 71.016 1368.411 71.016 1368.411 73.708 1369.084 73.708 1369.084 71.016 1370.43 71.016 1370.43 73.708 1371.103 73.708 1371.103 71.016 1371.775 71.016 1371.775 70.68 1354.28 70.68"/><rect class="cls-17" x="1358.48566" y="127.7084" width="5.71967" height="6.72903"/><rect class="cls-17" x="1369.92501" y="127.7084" width="5.71967" height="6.72903"/><rect class="cls-17" x="1358.14921" y="95.40906" width="5.71967" height="6.72903"/><rect class="cls-17" x="1369.58856" y="95.40906" width="5.71967" height="6.72903"/><rect class="cls-16" x="1356.8034" y="144.53098" width="23.5516" height="21.19644"/><polygon class="cls-4" points="1425.271 81.951 1427.963 192.98 1398.355 192.98 1398.355 110.718 1411.645 110.381 1411.309 85.484 1425.271 81.951"/><rect class="cls-18" x="1413.32725" y="85.82019" width="3.70097" height="2.35516"/><rect class="cls-18" x="1417.70112" y="85.82019" width="3.70097" height="2.35516"/><rect class="cls-18" x="1413.32725" y="88.84826" width="3.70097" height="3.02806"/><rect class="cls-18" x="1417.70112" y="88.84826" width="3.70097" height="3.02806"/><rect class="cls-19" x="1411.64499" y="120.13824" width="4.03742" height="5.38322"/><rect class="cls-19" x="1407.94403" y="113.40921" width="4.03742" height="5.38322"/><polygon class="cls-4" points="1322.471 92.945 1324.672 192.98 1295.065 192.98 1295.065 110.718 1308.354 110.381 1308.004 98.328 1322.471 92.945"/><rect class="cls-18" x="1311.36824" y="98.6643" width="3.70097" height="2.35516"/><rect class="cls-18" x="1315.74211" y="98.6643" width="3.70097" height="2.35516"/><rect class="cls-18" x="1311.36824" y="101.69236" width="3.70097" height="3.02806"/><rect class="cls-18" x="1315.74211" y="101.69236" width="3.70097" height="3.02806"/><rect class="cls-19" x="1308.35439" y="120.13824" width="4.03742" height="5.38322"/><rect class="cls-19" x="1304.65343" y="113.40921" width="4.03742" height="5.38322"/><rect class="cls-20" x="1372.78485" y="137.97017" width="28.26192" height="54.84159"/><rect class="cls-21" x="1375.64469" y="141.50291" width="25.23386" height="10.09354"/><rect class="cls-22" x="1379.6821" y="144.19452" width="21.19644" height="4.03742"/><rect class="cls-23" x="1373.62598" y="154.62452" width="26.57967" height="1.00935"/><path class="cls-23" d="M1400.5421,171.11064v-1.00935h-1.68226v-12.4487h1.34581v-1.00935H1373.626v1.00935h1.34581V192.98h.6729v-1.68226h24.561v-1.00935h-24.561v-2.35516h24.89741v-1.00935h-24.89741V174.1387h5.71967v12.4487h.6729V174.1387h4.71032v12.4487h.6729V174.1387h5.04677v12.4487h.6729V174.1387h5.04677v12.4487h.6729V174.1387h1.68226v-1.00935h-24.89741v-2.01871Zm-2.35516-13.45806v12.4487h-5.04677v-12.4487Zm-5.71968,0v12.4487h-5.04677v-12.4487Zm-5.71968,0v12.4487h-4.71032v-12.4487Zm-5.38322,0v12.4487h-5.71967v-12.4487Z"/><rect class="cls-24" x="1388.59807" y="156.30678" width="30.95354" height="36.67321"/><rect class="cls-25" x="1389.10274" y="161.18532" width="29.27128" height="0.6729"/><rect class="cls-25" x="1392.13081" y="163.54048" width="0.6729" height="7.40193"/><rect class="cls-25" x="1396.84113" y="163.54048" width="0.6729" height="7.40193"/><rect class="cls-25" x="1400.87855" y="163.54048" width="0.6729" height="7.40193"/><rect class="cls-25" x="1405.25242" y="163.54048" width="0.6729" height="7.40193"/><rect class="cls-25" x="1409.28983" y="163.54048" width="0.6729" height="7.40193"/><rect class="cls-25" x="1413.32725" y="163.54048" width="0.6729" height="7.40193"/><rect class="cls-25" x="1389.10274" y="172.62467" width="29.27128" height="0.6729"/><rect class="cls-25" x="1392.13081" y="174.97983" width="0.6729" height="7.40193"/><rect class="cls-25" x="1396.84113" y="174.97983" width="0.6729" height="7.40193"/><rect class="cls-25" x="1400.87855" y="174.97983" width="0.6729" height="7.40193"/><rect class="cls-25" x="1405.25242" y="174.97983" width="0.6729" height="7.40193"/><rect class="cls-25" x="1409.28983" y="174.97983" width="0.6729" height="7.40193"/><rect class="cls-25" x="1413.32725" y="174.97983" width="0.6729" height="7.40193"/><rect class="cls-25" x="1389.10274" y="183.05467" width="29.27128" height="0.6729"/><rect class="cls-25" x="1392.13081" y="185.40983" width="0.6729" height="7.40193"/><rect class="cls-25" x="1396.84113" y="185.40983" width="0.6729" height="7.40193"/><rect class="cls-25" x="1400.87855" y="185.40983" width="0.6729" height="7.40193"/><rect class="cls-25" x="1405.25242" y="185.40983" width="0.6729" height="7.40193"/><rect class="cls-25" x="1409.28983" y="185.40983" width="0.6729" height="7.40193"/><rect class="cls-25" x="1413.32725" y="185.40983" width="0.6729" height="7.40193"/><polygon class="cls-26" points="1464.636 192.98 1495.59 192.98 1495.253 155.97 1477.085 156.643 1464.973 180.531 1464.636 192.98"/><polygon class="cls-8" points="1541.347 192.98 1596.525 192.98 1596.525 118.288 1576.843 118.288 1577.179 161.185 1572.469 160.176 1572.805 146.381 1568.095 146.381 1568.095 137.297 1561.029 140.325 1561.366 161.858 1541.179 173.634 1541.347 192.98"/><path class="cls-27" d="M1590.56193,181.2147l-8.98233-.35912,5.38947-7.90464Zm-8.36266-.67126,7.84024.31378-3.13616-7.213Z"/><polygon class="cls-28" points="1578.188 162.531 1594.338 167.914 1594.338 154.793 1578.188 162.531"/><rect class="cls-27" x="1578.18847" y="120.81115" width="17.15902" height="1.00935"/><rect class="cls-27" x="1578.52492" y="126.53082" width="16.82257" height="4.03742"/><rect class="cls-27" x="1578.52492" y="137.63372" width="16.82257" height="4.03742"/><rect class="cls-29" x="1572.46879" y="161.52177" width="0.6729" height="19.17773"/><rect class="cls-29" x="1562.37525" y="164.88629" width="4.37387" height="0.6729"/><rect class="cls-29" x="1562.37525" y="166.56855" width="4.71032" height="0.6729"/><rect class="cls-29" x="1562.37525" y="168.58726" width="8.41129" height="0.6729"/><rect class="cls-29" x="1562.37525" y="170.26951" width="9.42064" height="0.6729"/><rect class="cls-29" x="1562.37525" y="172.28822" width="9.42064" height="0.6729"/><path class="cls-27" d="M1565.40331,144.19452a1.17758,1.17758,0,1,1,1.17758-1.17758A1.179,1.179,0,0,1,1565.40331,144.19452Zm0-2.01871a.84113.84113,0,1,0,.84113.84113A.842.842,0,0,0,1565.40331,142.17581Z"/><path class="cls-27" d="M1546.89848,174.64338c.33645-.33645,13.79451-8.41129,13.79451-8.41129l-1.00935-1.00935-13.45806,8.41129Z"/><path class="cls-27" d="M1550.76768,185.2416h-5.38322v-7.40193h5.38322Zm-5.04677-.33645h4.71032v-6.729h-4.71032Z"/><rect class="cls-29" x="1562.0388" y="174.64338" width="8.74774" height="1.68226"/><rect class="cls-29" x="1562.37525" y="178.6808" width="8.74774" height="1.68226"/><polygon class="cls-2" points="1296.747 192.977 1348.56 192.977 1347.551 104.154 1325.177 104.995 1325.177 112.06 1321.812 114.415 1321.14 171.276 1297.251 171.612 1296.747 192.977"/><rect class="cls-27" x="1327.53213" y="112.06012" width="19.17773" height="1.00935"/><rect class="cls-27" x="1330.89664" y="117.7798" width="8.74774" height="0.6729"/><rect class="cls-27" x="1330.89664" y="133.92947" width="8.07484" height="0.6729"/><rect class="cls-27" x="1330.89664" y="166.22881" width="8.74774" height="1.00935"/><polygon class="cls-27" points="1329.719 168.079 1321.14 168.079 1321.14 167.743 1329.383 167.743 1329.383 118.62 1321.79 118.558 1321.793 118.221 1329.719 118.286 1329.719 168.079"/><polygon class="cls-4" points="1321.756 119.911 1328.205 119.799 1327.869 165.892 1321.14 165.948 1321.756 119.911"/><rect class="cls-30" x="1322.1489" y="120.47141" width="5.38322" height="4.03742"/><rect class="cls-30" x="1322.1489" y="125.18173" width="5.38322" height="4.71032"/><rect class="cls-30" x="1322.1489" y="130.56495" width="5.38322" height="5.71967"/><rect class="cls-30" x="1322.1489" y="136.95753" width="5.38322" height="5.38322"/><rect class="cls-30" x="1322.1489" y="143.01366" width="5.38322" height="4.03742"/><rect class="cls-30" x="1321.81245" y="147.72398" width="5.71967" height="4.03742"/><rect class="cls-30" x="1321.81245" y="152.4343" width="5.71967" height="3.70097"/><rect class="cls-30" x="1321.476" y="156.80817" width="6.05613" height="4.37387"/><rect class="cls-30" x="1321.476" y="161.85494" width="6.05613" height="3.70097"/><polygon class="cls-27" points="1340.822 167.743 1348.224 167.743 1348.224 167.406 1341.112 167.406 1341.112 118.283 1347.663 118.221 1347.66 117.885 1340.822 117.949 1340.822 167.743"/><polygon class="cls-4" points="1347.692 119.574 1342.128 119.462 1342.418 165.556 1348.224 165.612 1347.692 119.574"/><rect class="cls-30" x="1342.70867" y="120.13492" width="4.64434" height="4.03742" transform="translate(2690.06169 244.30726) rotate(-180)"/><rect class="cls-30" x="1342.70867" y="124.84524" width="4.64434" height="4.71032" transform="translate(2690.06169 254.40081) rotate(-180)"/><rect class="cls-30" x="1342.70867" y="130.22847" width="4.64434" height="5.71967" transform="translate(2690.06169 266.17661) rotate(-180)"/><rect class="cls-30" x="1342.70867" y="136.62105" width="4.64434" height="5.38322" transform="translate(2690.06169 278.62531) rotate(-180)"/><rect class="cls-30" x="1342.70867" y="142.67717" width="4.64434" height="4.03742" transform="translate(2690.06169 289.39176) rotate(-180)"/><rect class="cls-30" x="1342.70867" y="147.38749" width="4.93462" height="4.03742" transform="translate(2690.35196 298.8124) rotate(-180)"/><rect class="cls-30" x="1342.70867" y="152.09781" width="4.93462" height="3.70097" transform="translate(2690.35196 307.89659) rotate(-180)"/><rect class="cls-30" x="1342.70867" y="156.47168" width="5.22489" height="4.37387" transform="translate(2690.64223 317.31723) rotate(-180)"/><rect class="cls-30" x="1342.70867" y="161.51845" width="5.22489" height="3.70097" transform="translate(2690.64223 326.73787) rotate(-180)"/><polygon class="cls-27" points="1344.859 192.98 1344.526 175.481 1325.681 175.481 1325.598 192.977 1325.261 192.976 1325.346 175.145 1344.856 175.145 1345.196 192.973 1344.859 192.98"/><polygon class="cls-27" points="1342.588 192.978 1342.505 178.513 1328.369 178.842 1328.037 192.476 1327.7 192.468 1328.041 178.513 1342.84 178.169 1342.925 192.976 1342.588 192.978"/><rect class="cls-31" x="1311.71891" y="177.33171" width="0.6729" height="15.14032"/><rect class="cls-31" x="1313.73762" y="177.33171" width="0.6729" height="15.14032"/><rect class="cls-31" x="1315.41987" y="177.33171" width="0.6729" height="15.14032"/><rect class="cls-31" x="1317.43858" y="177.33171" width="0.6729" height="15.14032"/><rect class="cls-31" x="1318.78439" y="177.33171" width="0.6729" height="15.14032"/><rect class="cls-32" x="1264.44748" y="126.8943" width="12.78516" height="39.46124"/><polygon class="cls-33" points="1227.101 192.98 1298.766 192.98 1299.102 139.256 1284.803 139.493 1284.803 106.213 1276.728 115.722 1276.728 163.265 1267.644 163.741 1267.644 149.953 1256.541 149.953 1256.541 152.33 1249.812 152.33 1249.475 97.655 1227.27 99.081 1227.101 192.98"/><rect class="cls-34" x="1229.2883" y="101.45844" width="19.17773" height="23.77183"/><path class="cls-35" d="M1242.57813,160.6503h-2.01871v-3.32806h2.01871Zm-1.68226-.47544h1.34581v-2.37718h-1.34581Z"/><path class="cls-35" d="M1247.28845,158.74855h-1.68226v-3.32806h1.68226Zm-1.34581-.47544h1.00935v-2.37718h-1.00935Z"/><rect class="cls-35" x="1265.2886" y="145.19861" width="0.6729" height="4.75437"/><rect class="cls-35" x="1260.24183" y="145.67404" width="0.6729" height="4.27893"/><rect class="cls-35" x="1258.55958" y="144.72317" width="0.6729" height="5.2298"/><rect class="cls-36" x="1277.73731" y="127.13201" width="6.05613" height="0.47544"/><rect class="cls-36" x="1277.73731" y="128.55832" width="6.39258" height="0.47544"/><rect class="cls-36" x="1277.73731" y="139.01793" width="6.05613" height="0.95087"/><rect class="cls-36" x="1278.74666" y="141.87055" width="18.84128" height="0.95087"/><path class="cls-36" d="M1290.35424,153.99418h-10.43v-8.55786h10.43Zm-10.09354-.47544h9.75709v-7.607h-9.75709Z"/><rect class="cls-36" x="1291.53182" y="145.19861" width="5.38322" height="0.95087"/><rect class="cls-36" x="1291.53182" y="148.05123" width="5.38322" height="0.47544"/><rect class="cls-36" x="1291.53182" y="150.90385" width="5.38322" height="0.95087"/><rect class="cls-36" x="1291.53182" y="153.28103" width="5.38322" height="0.47544"/><rect class="cls-36" x="1278.07376" y="155.65821" width="19.51419" height="0.47544"/><rect class="cls-36" x="1278.07376" y="158.51083" width="20.18709" height="0.95087"/><rect class="cls-35" x="1251.49409" y="158.51083" width="4.03742" height="0.47544"/><rect class="cls-35" x="1256.54087" y="157.55996" width="10.76645" height="0.47544"/><rect class="cls-35" x="1256.54087" y="152.80559" width="0.33645" height="22.34552"/><rect class="cls-35" x="1260.24183" y="158.98627" width="0.6729" height="6.18068"/><rect class="cls-35" x="1264.27925" y="158.98627" width="0.33645" height="6.18068"/><rect class="cls-35" x="1257.88667" y="161.83889" width="1.68226" height="2.85262"/><rect class="cls-35" x="1249.81184" y="153.75647" width="1.00935" height="22.34552"/><path class="cls-35" d="M1236.01733,191.316c.33645,0,19.85064-13.78766,19.85064-13.78766l-.6729-1.42631-21.86935,15.214Z"/><rect class="cls-35" x="1251.83055" y="163.74063" width="3.70097" height="0.95087"/><rect class="cls-35" x="1251.83055" y="170.39675" width="3.70097" height="0.95087"/><polygon class="cls-9" points="1149.381 192.98 1202.54 192.98 1200.522 110.549 1189.923 110.381 1187.568 72.026 1174.11 84.138 1175.12 139.652 1171.755 139.316 1149.549 155.129 1149.381 192.98"/><polygon class="cls-10" points="1176.465 89.858 1186.559 83.129 1186.559 76.063 1176.465 85.484 1176.465 89.858"/><path class="cls-10" d="M1186.559,86.4931l-10.43,6.729,1.34581,27.589,10.43-10.09354Zm-7.73838,28.59837-.6729-21.53289.6729-.33645.6729,21.53289Zm2.35516-2.35516-.6729-20.86s.6729-.33645.6729,0,.6729,20.52354.6729,20.52354Zm3.36451-3.701-.6729.6729V90.867h.6729Z"/><path class="cls-37" d="M1180.66186,140.49356H1173.672l7.3579,6.62225Zm-6.1133.33645h5.79525l.30491,5.49Z"/><path class="cls-37" d="M1174.95139,153.44677l-.00559.00016.00559.16823v3.71542l4.368-.36372.34237-8.89658.003-.08214L1174.95139,144Zm4.172-.13553-3.83551.12453v-3.06913l3.94583.07688Zm-3.83551,3.654v-3.19267l3.82254-.1242-.11566,3.00769Zm4.03446-8.82594-.07569,1.96778-3.95877-.077v-5.30453Z"/><polygon class="cls-37" points="1157.961 190.288 1157.624 190.288 1157.624 153.447 1160.989 153.447 1160.989 151.765 1163.991 151.765 1163.655 149.41 1166.372 149.41 1166.372 146.73 1170.901 146.382 1170.927 146.717 1166.708 147.042 1166.708 149.746 1164.042 149.746 1164.379 152.101 1161.325 152.101 1161.325 153.783 1157.961 153.783 1157.961 190.288"/><rect class="cls-38" x="1178.82058" y="162.19468" width="3.02806" height="4.03742"/><rect class="cls-38" x="1175.79251" y="166.905" width="3.02806" height="3.70097"/><rect class="cls-12" x="1188.57767" y="114.75502" width="4.03742" height="9.42064"/><rect class="cls-12" x="1193.62444" y="114.08212" width="3.70097" height="12.11225"/><rect class="cls-37" x="1172.09155" y="140.32533" width="0.6729" height="19.51419"/><rect class="cls-37" x="1167.71768" y="152.77404" width="0.6729" height="22.8787"/><rect class="cls-37" x="1165.36252" y="154.79274" width="0.6729" height="18.84128"/><rect class="cls-37" x="1163.00736" y="156.81145" width="0.6729" height="16.82257"/><path class="cls-38" d="M1172.09155,178.34435s10.76645,6.39258,10.76645,6.05613-1.34581-13.12161-1.34581-13.12161Z"/><polyline class="cls-12" points="1189.923 146.718 1189.587 144.363 1182.185 149.746 1182.185 151.092 1185.886 151.092 1189.923 147.054"/><polygon class="cls-12" points="1182.185 146.718 1183.194 146.718 1188.914 143.017 1188.914 142.008 1182.185 146.718"/><path class="cls-12" d="M1181.17574,139.98888h.6729v-.33645h6.729v-.6729s-7.40193-.33645-7.40193,0Z"/><polygon class="cls-12" points="1186.895 151.092 1189.923 151.092 1190.596 148.4 1186.895 151.092"/><polygon class="cls-8" points="1191.438 192.98 1226.428 192.98 1226.26 140.998 1217.176 137.634 1217.176 144.699 1212.802 144.699 1212.802 154.456 1208.765 155.129 1208.765 123.839 1191.269 123.839 1191.438 192.98"/><rect class="cls-39" x="1191.94218" y="124.84856" width="15.81322" height="1.00935"/><rect class="cls-40" x="1192.27864" y="129.22243" width="15.81322" height="2.69161"/><rect class="cls-40" x="1192.27864" y="137.97017" width="15.81322" height="2.69161"/><rect class="cls-39" x="1218.8583" y="157.82081" width="6.39258" height="0.6729"/><rect class="cls-39" x="1218.52185" y="159.16661" width="6.72903" height="0.6729"/><rect class="cls-39" x="1214.82088" y="160.84887" width="10.43" height="0.33645"/><rect class="cls-39" x="1213.81153" y="162.19468" width="11.43935" height="0.33645"/><rect class="cls-39" x="1214.48443" y="163.87693" width="11.1029" height="0.33645"/><rect class="cls-39" x="1212.46572" y="155.46565" width="0.6729" height="37.00966"/><path class="cls-39" d="M1225.08265,174.1387h-10.09354V165.391h10.09354Zm-9.75709-.33645h9.42064v-8.07484h-9.42064Z"/><path class="cls-39" d="M1220.03588,142.84872a1.18809,1.18809,0,1,1,1.34581-1.17758A1.27156,1.27156,0,0,1,1220.03588,142.84872Zm0-2.01871a.85515.85515,0,1,0,1.00936.84113A.9378.9378,0,0,0,1220.03588,140.83Z"/><path class="cls-41" d="M1204.74443,170.10129h-7.69107l2.92982-5.86Zm-7.147-.33645h6.43989l-3.98649-4.90647Z"/><path class="cls-39" d="M1221.88012,171.44709h-5.32375l2.28156-4.1833Zm-4.75731-.33645h4.09689l-2.341-3.21863Z"/><polygon class="cls-42" points="1193.624 160.512 1207.755 156.139 1193.624 150.755 1193.624 160.512"/><path class="cls-6" d="M1626.80571,192.98h62.91642l-2.35516-63.92578-8.07484-.33645-.33645-15.47677h-3.701v-4.03742h-13.12161l.33645,19.17773h-10.43V96.75487H1636.5628c-.33645,0,0,35.66386,0,35.66386h-9.42064Z"/><polygon class="cls-2" points="1664.152 128.718 1674.918 128.718 1674.582 114.25 1663.815 114.25 1664.152 128.718"/><polygon class="cls-2" points="1664.152 113.241 1674.245 113.577 1674.245 111.222 1663.815 110.213 1664.152 113.241"/><polygon class="cls-7" points="1656.397 138.268 1656.087 143.858 1665.093 143.858 1656.397 138.268"/><path class="cls-7" d="M1651.53489,131.57759v15.14032l21.19644-.6729Zm4.55852,6.0949,10.14513,6.522H1655.731Z"/><polygon class="cls-2" points="1654.17 192.98 1672.563 192.98 1672.395 177.335 1653.89 169.933 1654.17 192.98"/><polygon class="cls-4" points="1638.077 153.783 1638.077 192.475 1651.255 192.98 1651.198 165.896 1645.142 154.12 1638.077 153.783"/><polygon class="cls-8" points="1627.03 184.793 1635.722 184.737 1635.722 168.587 1649.853 168.251 1649.572 192.98 1626.637 192.812 1627.03 184.793"/><polygon class="cls-9" points="1672.563 192.98 1725.722 192.98 1723.704 110.549 1713.106 110.381 1710.75 72.026 1697.292 84.138 1698.302 139.652 1694.937 139.316 1672.731 155.129 1672.563 192.98"/><polygon class="cls-10" points="1699.647 89.858 1709.741 83.129 1709.741 76.063 1699.647 85.484 1699.647 89.858"/><path class="cls-10" d="M1709.741,86.4931l-10.43,6.729,1.34581,27.589,10.43-10.09354Zm-7.73838,28.59837-.6729-21.53289.6729-.33645.6729,21.53289Zm2.35516-2.35516-.6729-20.86s.6729-.33645.6729,0,.6729,20.52354.6729,20.52354Zm3.36451-3.701-.6729.6729V90.867h.6729Z"/><path class="cls-37" d="M1703.84389,140.49356H1696.854l7.3579,6.62225Zm-6.1133.33645h5.79524l.30491,5.49Z"/><path class="cls-37" d="M1698.13342,153.44677l-.00559.00016.00559.16823v3.71542l4.368-.36372.34237-8.89658.003-.08214L1698.13342,144Zm4.172-.13553-3.83551.12453v-3.06913l3.94583.07688Zm-3.83551,3.654v-3.19267l3.82254-.1242-.11566,3.00769Zm4.03446-8.82594-.07569,1.96778-3.95877-.077v-5.30453Z"/><polygon class="cls-37" points="1681.143 190.288 1680.806 190.288 1680.806 153.447 1684.171 153.447 1684.171 151.765 1687.173 151.765 1686.837 149.41 1689.554 149.41 1689.554 146.73 1694.083 146.382 1694.109 146.717 1689.89 147.042 1689.89 149.746 1687.224 149.746 1687.561 152.101 1684.507 152.101 1684.507 153.783 1681.143 153.783 1681.143 190.288"/><rect class="cls-38" x="1702.00261" y="162.19468" width="3.02806" height="4.03742"/><rect class="cls-38" x="1698.97455" y="166.905" width="3.02806" height="3.70097"/><rect class="cls-12" x="1711.7597" y="114.75502" width="4.03742" height="9.42064"/><rect class="cls-12" x="1716.80647" y="114.08212" width="3.70097" height="12.11225"/><rect class="cls-37" x="1695.27358" y="140.32533" width="0.6729" height="19.51419"/><rect class="cls-37" x="1690.89971" y="152.77404" width="0.6729" height="22.8787"/><rect class="cls-37" x="1688.54455" y="154.79274" width="0.6729" height="18.84128"/><rect class="cls-37" x="1686.18939" y="156.81145" width="0.6729" height="16.82257"/><path class="cls-38" d="M1695.27358,178.34435s10.76645,6.39258,10.76645,6.05613-1.34581-13.12161-1.34581-13.12161Z"/><polyline class="cls-12" points="1713.106 146.718 1712.769 144.363 1705.367 149.746 1705.367 151.092 1709.068 151.092 1713.106 147.054"/><polygon class="cls-12" points="1705.367 146.718 1706.376 146.718 1712.096 143.017 1712.096 142.008 1705.367 146.718"/><path class="cls-12" d="M1704.35777,139.98888h.6729v-.33645h6.729v-.6729s-7.40193-.33645-7.40193,0Z"/><polygon class="cls-12" points="1710.077 151.092 1713.106 151.092 1713.778 148.4 1710.077 151.092"/><polygon class="cls-8" points="1708.563 192.98 1743.554 192.98 1743.386 140.998 1734.302 137.634 1734.302 144.699 1729.928 144.699 1729.928 154.456 1725.891 155.129 1725.891 123.839 1708.395 123.839 1708.563 192.98"/><rect class="cls-39" x="1709.06809" y="124.84856" width="15.81322" height="1.00935"/><rect class="cls-40" x="1709.40454" y="129.22243" width="15.81322" height="2.69161"/><rect class="cls-40" x="1709.40454" y="137.97017" width="15.81322" height="2.69161"/><rect class="cls-39" x="1735.98421" y="157.82081" width="6.39258" height="0.6729"/><rect class="cls-39" x="1735.64776" y="159.16661" width="6.72903" height="0.6729"/><rect class="cls-39" x="1731.94679" y="160.84887" width="10.43" height="0.33645"/><rect class="cls-39" x="1730.93744" y="162.19468" width="11.43935" height="0.33645"/><rect class="cls-39" x="1731.61034" y="163.87693" width="11.1029" height="0.33645"/><rect class="cls-39" x="1729.59163" y="155.46565" width="0.6729" height="37.00966"/><path class="cls-39" d="M1742.20856,174.1387H1732.115V165.391h10.09354Zm-9.75709-.33645h9.42064v-8.07484h-9.42064Z"/><path class="cls-39" d="M1737.16179,142.84872a1.18809,1.18809,0,1,1,1.34581-1.17758A1.27156,1.27156,0,0,1,1737.16179,142.84872Zm0-2.01871a.85515.85515,0,1,0,1.00935.84113A.9378.9378,0,0,0,1737.16179,140.83Z"/><path class="cls-41" d="M1721.87033,170.10129h-7.69107l2.92982-5.86Zm-7.147-.33645h6.43989l-3.98649-4.90647Z"/><path class="cls-39" d="M1739.006,171.44709h-5.32375l2.28156-4.1833Zm-4.75731-.33645h4.09689l-2.341-3.21863Z"/><polygon class="cls-42" points="1710.75 160.512 1724.881 156.139 1710.75 150.755 1710.75 160.512"/><path class="cls-43" d="M1471.34716,192.98c0-4.03742-.00476-8.41129-.00476-8.41129l3.74889-.26281-.04316-3.7746h12.11225l-.00008,1.68226h4.374s.01333-2.9175,0-3.701h13.12161V192.98Z"/><rect class="cls-44" x="1493.21651" y="181.87709" width="4.03742" height="3.02806"/><rect class="cls-44" x="1497.92683" y="181.87709" width="4.03742" height="3.02806"/><path class="cls-44" d="M1475.38458,183.55935v5.38322h9.75709v-5.38322Zm8.74774,4.37387h-7.73838V184.5687h7.73838Z"/><rect class="cls-45" x="1490.18844" y="176.49386" width="15.47677" height="3.36451"/></g></g></g></g></svg>