<svg xmlns="http://www.w3.org/2000/svg" viewBox="0 0 1900.74878 116.45041"><defs><style>.cls-1{opacity:0.3;}.cls-2{fill:#f99b96;}</style></defs><title>資產 5</title><g id="圖層_2" data-name="圖層 2"><g id="圖層_1-2" data-name="圖層 1"><g class="cls-1"><path class="cls-2" d="M12.62468,42.46946s16.319.29569,20.2581.44353S43.29319,44.09575,44.7,43.65222s4.07976-4.06574,2.95431-5.98772.56272-2.36552-3.93907-2.66121-23.35309-.88707-25.604-.59138-4.5018.29569-5.62725,1.3306a34.15958,34.15958,0,0,1-2.81362,2.06983c-1.12545.88707-1.68817,1.18276-1.12545,2.36552A5.297,5.297,0,0,0,12.62468,42.46946Z"/><path class="cls-2" d="M25.91078,65.55386s16.319.29569,20.2581.44353,10.41041,1.18276,11.81722.73922,4.07976-4.06574,2.95431-5.98772.56272-2.36552-3.93907-2.66121-23.35309-.88707-25.604-.59138-4.5018.29569-5.62725,1.3306a34.15958,34.15958,0,0,1-2.81362,2.06983c-1.12545.88707-1.68817,1.18276-1.12545,2.36552A5.297,5.297,0,0,0,25.91078,65.55386Z"/><path class="cls-2" d="M209.00193,56.75709s17.16311,1.3306,21.38355.88707,7.31542-.14784,7.87815-1.47845,1.40681-5.32242-1.40681-5.32242-16.88175-1.47845-19.414-1.03491-7.03406.14784-7.87815.73922-2.53226,2.51336-1.68817,3.69612S208.43921,56.90493,209.00193,56.75709Z"/><path class="cls-2" d="M209.00193,56.16571s17.16311,1.3306,21.38355.88707,7.31542-.14784,7.87815-1.47845,1.40681-5.32242-1.40681-5.32242-16.88175-1.47845-19.414-1.03491-7.03406.14784-7.87815.73922-2.53226,2.51336-1.68817,3.69612S208.43921,56.31355,209.00193,56.16571Z"/><path class="cls-2" d="M205.57612,92.95507s-.84409,5.32242.28136,6.06164,5.06452,1.3306,7.87815,1.3306,14.06812,0,14.91221-.59138a3.25743,3.25743,0,0,0,1.68817-3.40043c-.28136-1.922.84409-4.2875-1.12545-5.02673a29.9632,29.9632,0,0,0-10.41041-.73922c-2.53226.44353-11.81722.44353-12.66131,1.18276S205.57612,92.95507,205.57612,92.95507Z"/><path class="cls-2" d="M169.76143,88.72127s-.84409,5.32242.28136,6.06164,5.06452,1.3306,7.87815,1.3306,14.06812,0,14.91221-.59138a3.25743,3.25743,0,0,0,1.68817-3.40043c-.28136-1.922.84409-4.2875-1.12545-5.02673a29.9632,29.9632,0,0,0-10.41041-.73922c-2.53226.44353-11.81722.44353-12.66131,1.18276S169.76143,88.72127,169.76143,88.72127Z"/><path class="cls-2" d="M286.44568,57.94892s-.28136,3.10474.56273,3.40043,7.59679.14784,8.44087-.29569,1.40681-2.36552,1.40681-3.10474-2.2509-1.62629-4.78316-1.3306S286.16431,56.61832,286.44568,57.94892Z"/><path class="cls-2" d="M286.44568,57.35754s-.28136,3.10474.56273,3.40043,7.59679.14784,8.44087-.29569,1.40681-2.36552,1.40681-3.10474-2.2509-1.62629-4.78316-1.3306S286.16431,56.02694,286.44568,57.35754Z"/><path class="cls-2" d="M297.09266,48.5707s-1.12545,3.10474.56273,3.99181,7.31542.88707,11.53586,1.03491a30.75086,30.75086,0,0,0,5.62725,0c1.40681-.14784,3.37635-1.3306,3.65771-2.21767s-.28136-3.54828-3.37635-3.40043-9.84769-.59138-12.09859-.44353S297.65538,47.68363,297.09266,48.5707Z"/><path class="cls-2" d="M182.71671,100.491s-1.12545,3.10474.56273,3.99181,7.31542.88707,11.53586,1.03491a30.75087,30.75087,0,0,0,5.62725,0c1.40681-.14784,3.37635-1.3306,3.65771-2.21767s-.28136-3.54828-3.37635-3.40043-9.84769-.59138-12.09859-.44353S183.27943,99.60393,182.71671,100.491Z"/><path class="cls-2" d="M324.43428,60.64813a17.75777,17.75777,0,0,0,0,3.99181c.28136,1.3306,0,2.80905,1.96954,3.25259s8.44087,0,10.97314.29569,13.224.59138,15.7563.59138,7.03406-5.02673,3.93907-6.20949-3.93907-2.66121-8.44087-2.51336-9.56632-.88707-12.66131-.73922-8.15951-.44353-9.56632,0A3.70785,3.70785,0,0,0,324.43428,60.64813Z"/><path class="cls-2" d="M203.70411,108.31894a17.75777,17.75777,0,0,0,0,3.99181c.28136,1.3306,0,2.80905,1.96954,3.25259s8.44087,0,10.97314.29569,13.224.59138,15.7563.59138,7.03406-5.02673,3.93907-6.20949-3.93907-2.66121-8.44087-2.51336-9.56632-.88707-12.66131-.73922-8.15951-.44353-9.56632,0A3.70785,3.70785,0,0,0,203.70411,108.31894Z"/><path class="cls-2" d="M229.07293,65.63441s-.56273,3.25259,1.68817,3.99181,6.7527,2.21767,10.41041,1.62629,5.90861-.29569,5.90861-1.922,2.2509-3.54828,0-4.731-5.34589-1.62629-9.0036-1.47845-7.31542.14784-7.87815.88707S229.07293,65.63441,229.07293,65.63441Z"/><path class="cls-2" d="M229.07293,65.043s-.56273,3.25259,1.68817,3.99181,6.7527,2.21767,10.41041,1.62629,5.90861-.29569,5.90861-1.922,2.2509-3.54828,0-4.731-5.34589-1.62629-9.0036-1.47845-7.31542.14784-7.87815.88707S229.07293,65.043,229.07293,65.043Z"/><path class="cls-2" d="M82.44341,82.94379s-1.40681,5.17457.56272,5.61811,21.66491.29569,22.22764-.29569,1.40681-6.94871,0-7.54009S97.637,79.6912,94.26063,79.839s-9.56632.14784-10.41041.59138S82.44341,82.94379,82.44341,82.94379Z"/><path class="cls-2" d="M257.47327,78.40644s-1.40681,5.17457.56273,5.61811,21.66491.29569,22.22764-.29569,1.40681-6.94871,0-7.54009-7.59679-1.03491-10.97314-.88707-9.56632.14784-10.41041.59138S257.47327,78.40644,257.47327,78.40644Z"/><path class="cls-2" d="M253.95227,53.09652s-1.12545,3.10474.28136,3.844,9.56632,2.80905,10.69177,3.25259a10.64538,10.64538,0,0,0,4.5018.44353q2.53226-.22177,2.53226-3.54828c0-2.21767,1.40681-3.69612-2.53226-4.2875s-11.2545-1.03491-12.66131-.73922A12.62145,12.62145,0,0,0,253.95227,53.09652Z"/><path class="cls-2" d="M253.95227,52.50514s-1.12545,3.10474.28136,3.844,9.56632,2.80905,10.69177,3.25259a10.64538,10.64538,0,0,0,4.5018.44353q2.53226-.22177,2.53226-3.54828c0-2.21767,1.40681-3.69612-2.53226-4.2875s-11.2545-1.03491-12.66131-.73922A12.62145,12.62145,0,0,0,253.95227,52.50514Z"/><path class="cls-2" d="M164.696,54.13143s-1.12545,3.25259,0,4.87888,6.19,1.3306,9.56632,1.3306,24.47854-.14784,25.88535-.29569,4.78316-.88707,5.06452-2.66121.56272-5.32242-1.68817-5.47026-31.5126-.14784-34.60759.29569S164.696,54.13143,164.696,54.13143Z"/><path class="cls-2" d="M164.696,53.54005s-1.12545,3.25259,0,4.87888,6.19,1.3306,9.56632,1.3306,24.47854-.14784,25.88535-.29569,4.78316-.88707,5.06452-2.66121.56272-5.32242-1.68817-5.47026-31.5126-.14784-34.60759.29569S164.696,53.54005,164.696,53.54005Z"/><path class="cls-2" d="M147.14232,95.36767s.28136,3.69612,1.12545,4.87888,8.44087.88707,11.53586,1.03491,4.22044,0,5.06452-.44353,1.40681-3.844,1.12545-4.2875-3.65771-3.10474-6.47134-3.40043a33.40123,33.40123,0,0,0-9.56632.59138C147.705,94.33275,147.14232,95.36767,147.14232,95.36767Z"/><path class="cls-2" d="M25.83449,46.81764s.28136,3.69612,1.12545,4.87888,8.44087.88707,11.53586,1.03491,4.22044,0,5.06452-.44353,1.40681-3.844,1.12545-4.2875S41.02806,44.89566,38.21444,44.6a33.40123,33.40123,0,0,0-9.56632.59138C26.39721,45.78273,25.83449,46.81764,25.83449,46.81764Z"/><path class="cls-2" d="M235.13552,39.13755s-1.96954,3.25259-1.68817,4.2875,2.2509,2.21767,5.06452,2.36552,17.72584-1.18276,18.56992-1.62629,2.53226-2.21767,1.96954-4.13966-3.65771-2.21767-10.97314-2.21767S237.10505,37.51126,235.13552,39.13755Z"/><path class="cls-2" d="M235.13552,38.54617s-1.96954,3.25259-1.68817,4.2875,2.2509,2.21767,5.06452,2.36552,17.72584-1.18276,18.56992-1.62629,2.53226-2.21767,1.96954-4.13966-3.65771-2.21767-10.97314-2.21767S237.10505,36.91988,235.13552,38.54617Z"/><path class="cls-2" d="M142.822,43.23136s-1.40681,4.43535.28136,4.731,13.5054,2.21767,24.19717,1.18276,9.84769-2.9569,8.44087-5.17457-19.69537-2.51336-23.91581-2.51336S144.79156,40.86584,142.822,43.23136Z"/><path class="cls-2" d="M142.822,42.64s-1.40681,4.43535.28136,4.731,13.5054,2.21767,24.19717,1.18276,9.84769-2.9569,8.44087-5.17457-19.69537-2.51336-23.91581-2.51336S144.79156,40.27446,142.822,42.64Z"/><path class="cls-2" d="M186.42994,64.88194a41.053,41.053,0,0,0-.56273,4.731c0,1.47845.84409,2.36552,5.62725,2.66121s17.72584,1.47845,21.38355.88707,5.90861-1.03491,5.90861-2.9569.56273-4.731-4.5018-5.32242-21.94627-2.51336-24.7599-1.922S186.42994,64.88194,186.42994,64.88194Z"/><path class="cls-2" d="M186.42994,64.29056a41.053,41.053,0,0,0-.56273,4.731c0,1.47845.84409,2.36552,5.62725,2.66121s17.72584,1.47845,21.38355.88707,5.90861-1.03491,5.90861-2.9569.56273-4.731-4.5018-5.32242-21.94627-2.51336-24.7599-1.922S186.42994,64.29056,186.42994,64.29056Z"/><path class="cls-2" d="M111.24737,67.39408s15.7563.44353,19.69537.73922,8.15951-.44353,9.0036.59138,1.96954,3.54828,1.68817,4.87888-3.65771,1.47845-6.19,1.77414-15.19357.59138-21.38355.59138-5.06452.29569-6.7527-.88707S104.49467,67.09839,111.24737,67.39408Z"/><path class="cls-2" d="M111.24737,66.8027s15.7563.44353,19.69537.73922,8.15951-.44353,9.0036.59138,1.96954,3.54828,1.68817,4.87888-3.65771,1.47845-6.19,1.77414-15.19357.59138-21.38355.59138-5.06452.29569-6.7527-.88707S104.49467,66.507,111.24737,66.8027Z"/><path class="cls-2" d="M110.40421,59.82677s-.56273,3.54828.56273,4.2875,8.72224.88707,11.2545.88707,6.7527.29569,7.59679-1.03491,1.96954-4.2875-2.2509-5.17457-13.5054-.73922-15.19357-.29569S110.40421,59.82677,110.40421,59.82677Z"/><path class="cls-2" d="M123.69031,79.57229s-.56273,3.54828.56273,4.2875,8.72224.88707,11.2545.88707,6.7527.29569,7.59679-1.03491,1.96954-4.2875-2.2509-5.17457-13.5054-.73922-15.19357-.29569S123.69031,79.57229,123.69031,79.57229Z"/><path class="cls-2" d="M60.09539,15.74346s0,4.731.84409,5.61811S69.099,23.72708,79.228,22.54432s9.285-3.54828,9.0036-5.47026S87.38755,14.265,82.88575,14.265H63.19038A6.10115,6.10115,0,0,0,60.09539,15.74346Z"/><path class="cls-2" d="M445.96981,13.61871s0,4.731.84409,5.61811,8.15951,2.36552,18.28856,1.18276,9.285-3.54828,9.0036-5.47026-.84409-2.80905-5.34589-2.80905H449.0648A6.10115,6.10115,0,0,0,445.96981,13.61871Z"/><path class="cls-2" d="M262.8714,11.2422s0,2.9569,2.2509,3.54828,21.94627.14784,23.63445-.14784,1.96954-1.03491,1.68817-2.9569.56273-3.40043-4.22044-3.40043-18.56992.59138-19.69537.73922S262.8714,9.02453,262.8714,11.2422Z"/><path class="cls-2" d="M26.03231,19.14982s0,2.9569,2.2509,3.54828,21.94627.14784,23.63445-.14784,1.96954-1.03491,1.68817-2.9569.56272-3.40043-4.22044-3.40043-18.56992.59138-19.69537.73922S26.03231,16.93215,26.03231,19.14982Z"/><path class="cls-2" d="M340.41921,47.52965s-.84409,3.10474,0,3.99181,7.31542,1.18276,9.56632.73922,3.095-1.18276,2.2509-1.922S348.016,48.56457,348.016,47.6775s-4.78316-1.18276-6.19-1.03491S340.41921,47.52965,340.41921,47.52965Z"/><path class="cls-2" d="M274.56639,62.11506s-.84409,3.10474,0,3.99181,7.31542,1.18276,9.56632.73922,3.095-1.18276,2.2509-1.922-4.22044-1.77414-4.22044-2.66121-4.78316-1.18276-6.19-1.03491S274.56639,62.11506,274.56639,62.11506Z"/><path class="cls-2" d="M381.20134,55.15416s-.56272,1.922,1.96954,2.66121,2.81362,1.3306,6.47134,1.3306,14.63085.44353,15.7563.14784,3.095-3.54828,0-3.99181a33.35048,33.35048,0,0,0-7.03406-.73922c-3.65771,0-13.5054,0-14.63085.14784S381.76407,54.56278,381.20134,55.15416Z"/><path class="cls-2" d="M216.56929,83.39867s-.56272,1.922,1.96954,2.66121,2.81362,1.3306,6.47134,1.3306,14.63085.44353,15.7563.14784,3.095-3.54828,0-3.99181a33.35048,33.35048,0,0,0-7.03406-.73922c-3.65771,0-13.5054,0-14.63085.14784S217.132,82.80729,216.56929,83.39867Z"/><path class="cls-2" d="M440.06116,6.995a8.655,8.655,0,0,0-.34015,2.681c.17007.8043.85037,1.698,3.06133,1.51924s15.64678-.17873,16.49714-.5362.85037-2.681.51022-3.39595-1.53066-1.34051-4.592-1.16177-12.2453.35747-13.26574.44684A6.97,6.97,0,0,0,440.06116,6.995Z"/><path class="cls-2" d="M469.75917,27.0123s-.84409,3.10474-.56273,4.43535,1.40681,2.80905,5.06452,2.51336,25.88535-.29569,27.29216-.88707,1.40681-4.43535.84409-5.61811-2.53226-2.21767-7.59679-1.922-20.2581.59138-21.94627.73922A11.53089,11.53089,0,0,0,469.75917,27.0123Z"/><path class="cls-2" d="M348.41448,87.29945a13.25352,13.25352,0,0,0,.56273,5.17457c.84409,1.922.84409,2.51336,3.93907,2.80905s18.0072.14784,19.69537-.29569,2.81362-4.87888.56273-6.35733-3.095-2.21767-6.47134-2.36552S349.25857,84.78609,348.41448,87.29945Z"/><path class="cls-2" d="M117.9647,27.26913a9.70489,9.70489,0,0,0,.41206,3.78908c.61808,1.40737.61808,1.84041,2.88439,2.05693s13.18577.10826,14.42193-.21652,2.06028-3.57256.41206-4.65516-2.2663-1.62389-4.73864-1.73215S118.58278,25.42871,117.9647,27.26913Z"/><path class="cls-2" d="M400.41879,47.98957s-.56272,2.9569,0,4.2875,3.93907,1.47845,6.19,1.47845,25.04126.14784,26.72944-.29569,2.53226-2.80905,1.96954-5.32242-1.40681-2.66121-5.06452-2.66121-20.2581-.44353-23.07172-.14784S402.66969,45.624,400.41879,47.98957Z"/><path class="cls-2" d="M368.838,37.98858a12.75826,12.75826,0,0,0,0,4.2875c.45769,1.3306,3.20384,1.47845,5.0346,1.47845s20.36724.14784,21.74031-.29569,2.05961-2.80905,1.60192-5.32242-1.14423-2.66121-4.11922-2.66121-16.47687-.44353-18.76532-.14784S370.66876,35.62306,368.838,37.98858Z"/><path class="cls-2" d="M70.49553,37.85328s0,3.99181,1.12545,4.43535,7.87815.73922,16.319.59138,15.47494,0,15.47494-2.36552-1.12545-4.2875-3.37635-4.43535-22.22764,0-24.7599.14784S71.33962,36.227,70.49553,37.85328Z"/><path class="cls-2" d="M98.80069,16.62147s0,3.99181,1.12545,4.43535,7.87815.73922,16.319.59138,15.47494,0,15.47494-2.36552-1.12545-4.2875-3.37635-4.43535-22.22764,0-24.7599.14784S99.64478,14.99518,98.80069,16.62147Z"/><path class="cls-2" d="M305.883,56.658s-1.12545,1.47845,0,2.36552,7.31542.73922,8.44087.29569,1.68817-2.80905-.28136-3.25259A16.2057,16.2057,0,0,0,305.883,56.658Z"/><path class="cls-2" d="M367.11459,55.156s-1.12545,1.47845,0,2.36552,7.31542.73922,8.44087.29569,1.68817-2.80905-.28136-3.25259A16.2057,16.2057,0,0,0,367.11459,55.156Z"/><path class="cls-2" d="M443.72357,32.08071s-1.12545,2.51336,0,3.54828,3.37635,1.18276,6.7527,1.3306,12.66131.14784,14.34949-.59138,1.96954-3.69612.28136-4.43535-17.44447-.59138-18.85129-.44353S444.2863,31.48933,443.72357,32.08071Z"/><path class="cls-2" d="M183.77823,44.8449s-1.12545,2.51336,0,3.54828,3.37635,1.18276,6.7527,1.3306,12.66131.14784,14.34949-.59138,1.96954-3.69612.28136-4.43535-17.44447-.59138-18.85129-.44353S184.341,44.25352,183.77823,44.8449Z"/><path class="cls-2" d="M57.244,24.81032s13.224.29569,16.03766.44353,5.06452.14784,5.06452,2.51336.56272,4.2875-.56272,4.87888a16.06534,16.06534,0,0,1-5.90861,1.3306c-1.96954,0-9.56632.29569-12.66131.29569s-10.129.14784-11.2545-1.3306-3.095-6.06164-.84409-6.50518S49.08446,25.106,57.244,24.81032Z"/><path class="cls-2" d="M63.02053,44.55583s13.224.29569,16.03766.44353,5.06452.14784,5.06452,2.51336.56272,4.2875-.56272,4.87888a16.06534,16.06534,0,0,1-5.90861,1.3306c-1.96954,0-9.56632.29569-12.66131.29569s-10.129.14784-11.2545-1.3306-3.095-6.06164-.84409-6.50518S54.861,44.85152,63.02053,44.55583Z"/><path class="cls-2" d="M172.56853,62.88567a55.85523,55.85523,0,0,1,6.19-.59138c2.2509,0,3.93907.29569,4.22044,1.03491s1.12545,3.10474-.28136,3.54828a39.24721,39.24721,0,0,1-8.44087.59138C172.56853,67.321,168.06673,64.21627,172.56853,62.88567Z"/><path class="cls-2" d="M450.42122,23.74525a55.85523,55.85523,0,0,1,6.19-.59138c2.2509,0,3.93907.29569,4.22044,1.03491s1.12545,3.10474-.28136,3.54828a39.24721,39.24721,0,0,1-8.44087.59138C450.42122,28.1806,445.91942,25.07585,450.42122,23.74525Z"/><path class="cls-2" d="M139.169,54.31311s6.47134-.29569,9.0036-.14784,3.65771.29569,3.37635,2.21767,1.12545,4.731.28136,5.766-1.40681,1.3306-5.62725,1.18276-10.97314,0-11.81722-1.3306S135.79263,54.6088,139.169,54.31311Z"/><path class="cls-2" d="M139.169,53.72173s6.47134-.29569,9.0036-.14784,3.65771.29569,3.37635,2.21767,1.12545,4.731.28136,5.766-1.40681,1.3306-5.62725,1.18276-10.97314,0-11.81722-1.3306S135.79263,54.01742,139.169,53.72173Z"/><path class="cls-2" d="M113.98867,37.64341c.55555-.04708,15.19357-.88707,18.28856-.29569s3.095,1.18276,2.81362,2.66121,0,2.51336-2.81362,2.66121-15.47494.88707-18.0072.73922S105.26643,38.38263,113.98867,37.64341Z"/><path class="cls-2" d="M113.98867,37.052c.55555-.04708,15.19357-.88707,18.28856-.29569s3.095,1.18276,2.81362,2.66121,0,2.51336-2.81362,2.66121-15.47494.88707-18.0072.73922S105.26643,37.79125,113.98867,37.052Z"/><path class="cls-2" d="M146.35235,22.21016s11.2545.14784,12.94267,0,3.65771-1.62629,2.81362-5.02673c0,0,0-2.66121-3.93907-2.80905s-12.66131-.29569-15.47494.44353S139.03693,21.91447,146.35235,22.21016Z"/><path class="cls-2" d="M146.35235,21.61878s11.2545.14784,12.94267,0,3.65771-1.62629,2.81362-5.02673c0,0,0-2.66121-3.93907-2.80905s-12.66131-.29569-15.47494.44353S139.03693,21.32309,146.35235,21.61878Z"/><path class="cls-2" d="M143.57886,29.51978s-1.12545,4.58319.84409,5.766,9.0036,1.03491,13.5054.73922,5.06452-1.77414,4.78316-4.58319-1.96954-2.80905-7.03406-2.80905S144.14158,27.5978,143.57886,29.51978Z"/><path class="cls-2" d="M143.57886,28.9284s-1.12545,4.58319.84409,5.766,9.0036,1.03491,13.5054.73922,5.06452-1.77414,4.78316-4.58319-1.96954-2.80905-7.03406-2.80905S144.14158,27.00642,143.57886,28.9284Z"/><path class="cls-2" d="M263.44534,41.66906s-1.12545,3.10474-.28136,5.02673,6.19,2.51336,11.53586,2.66121,18.85129.73922,19.414-1.18276,2.2509-5.766-3.65771-6.80087a61.96262,61.96262,0,0,0-14.63085-.88707C273.293,40.782,264.28943,40.33845,263.44534,41.66906Z"/><path class="cls-2" d="M263.44534,41.07768s-1.12545,3.10474-.28136,5.02673,6.19,2.51336,11.53586,2.66121,18.85129.73922,19.414-1.18276,2.2509-5.766-3.65771-6.80087a61.96262,61.96262,0,0,0-14.63085-.88707C273.293,40.19061,264.28943,39.74707,263.44534,41.07768Z"/><path class="cls-2" d="M210.294,38.44663s-1.12545,3.10474-.28136,4.2875,9.56632,1.47845,12.94267,1.18276,5.06452-.59138,5.34589-2.36552.84409-3.54828-3.37635-3.69612S211.138,36.3768,210.294,38.44663Z"/><path class="cls-2" d="M210.294,37.85525s-1.12545,3.10474-.28136,4.2875,9.56632,1.47845,12.94267,1.18276,5.06452-.59138,5.34589-2.36552.84409-3.54828-3.37635-3.69612S211.138,35.78542,210.294,37.85525Z"/><path class="cls-2" d="M185.5098,34.65635s-.84409,5.02673,0,5.61811,5.34589,1.03491,7.59679-.14784,1.96954-4.58319.84409-5.32242S186.63525,33.62144,185.5098,34.65635Z"/><path class="cls-2" d="M185.5098,34.065s-.84409,5.02673,0,5.61811,5.34589,1.03491,7.59679-.14784,1.96954-4.58319.84409-5.32242S186.63525,33.03006,185.5098,34.065Z"/><path class="cls-2" d="M241.24384,30.11116a5.603,5.603,0,0,0-.84409,5.02673c.84409,3.10474,16.60039,1.922,21.94627,1.62629s10.129-.59138,8.72224-3.844-.84409-3.69612-8.15951-3.40043-16.319.14784-18.85129.14784S241.24384,30.11116,241.24384,30.11116Z"/><path class="cls-2" d="M241.24384,29.51978a5.603,5.603,0,0,0-.84409,5.02673c.84409,3.10474,16.60039,1.922,21.94627,1.62629s10.129-.59138,8.72224-3.844-.84409-3.69612-8.15951-3.40043-16.319.14784-18.85129.14784S241.24384,29.51978,241.24384,29.51978Z"/><path class="cls-2" d="M276.44669,30.83786s-.19835,3.0742.29752,3.66921,1.8843.79334,3.47107.89251,4.16528.2975,5.05784-.2975,1.19008-4.56172-.19835-4.95839S277.73594,29.44951,276.44669,30.83786Z"/><path class="cls-2" d="M159.25443,74.15523s-.56273,4.58319.84409,5.47026,5.34589,1.18276,9.84769,1.3306,11.81722.44353,14.34949-.44353,3.37635-6.80087-.56273-7.39225S162.91215,72.0854,159.25443,74.15523Z"/><path class="cls-2" d="M194.18237,77.65888v2.9569c0,.59138,1.68817,2.06983,3.93907,2.36552s13.78676-.29569,15.47494-.44353,3.65771-.88707,3.095-3.10474.28136-2.80905-.84409-3.40043-16.03766-.59138-17.72584-.44353S194.46373,76.18043,194.18237,77.65888Z"/><path class="cls-2" d="M228.84175,75.85336v2.9569c0,.59138,1.68817,2.06983,3.93907,2.36552s13.78676-.29569,15.47494-.44353,3.65771-.88707,3.095-3.10474.28136-2.80905-.84409-3.40043-16.03766-.59138-17.72584-.44353S229.12311,74.37491,228.84175,75.85336Z"/><path class="cls-2" d="M272.69111,20.10356s-.84409,3.25259,1.68817,4.13966,10.69177.29569,15.7563.44353,11.81722.14784,12.66131-1.47845.28136-3.40043.56273-4.58319-1.68817-1.62629-3.37635-1.62629-11.53586,0-13.78676.14784-7.87815.29569-9.84769.29569A3.74514,3.74514,0,0,0,272.69111,20.10356Z"/><path class="cls-2" d="M272.69111,19.51218s-.84409,3.25259,1.68817,4.13966,10.69177.29569,15.7563.44353,11.81722.14784,12.66131-1.47845.28136-3.40043.56273-4.58319-1.68817-1.62629-3.37635-1.62629-11.53586,0-13.78676.14784-7.87815.29569-9.84769.29569A3.74514,3.74514,0,0,0,272.69111,19.51218Z"/><path class="cls-2" d="M229.67018,14.11914a37.05464,37.05464,0,0,1-1.96954,3.844c-.56272.73922-.84409,1.62629,1.40681,2.06983s12.94267,1.77414,16.03766,1.922,9.56632.29569,11.53586.59138,3.93907-.88707,3.93907-2.21767,1.96954-3.40043-2.53226-4.2875-15.19357-1.922-17.44447-2.21767a54.57254,54.57254,0,0,0-7.87815-.59138C231.35835,13.37992,231.35835,12.93638,229.67018,14.11914Z"/><path class="cls-2" d="M229.67018,13.52776a37.05464,37.05464,0,0,1-1.96954,3.844c-.56272.73922-.84409,1.62629,1.40681,2.06983s12.94267,1.77414,16.03766,1.922,9.56632.29569,11.53586.59138,3.93907-.88707,3.93907-2.21767,1.96954-3.40043-2.53226-4.2875-15.19357-1.922-17.44447-2.21767a54.57254,54.57254,0,0,0-7.87815-.59138C231.35835,12.78854,231.35835,12.345,229.67018,13.52776Z"/><path class="cls-2" d="M181.70184,22.74245s-1.12545,3.69612-.28136,4.58319,3.37635,1.18276,6.47134,1.03491a115.29088,115.29088,0,0,1,12.37995-.14784c3.095.29569,8.44087.14784,9.0036-.44353s1.40681-4.731.56273-5.61811-2.2509-.73922-5.62725-1.03491-13.224-.59138-16.60039-.44353S183.10865,20.96831,181.70184,22.74245Z"/><path class="cls-2" d="M181.70184,22.15107s-1.12545,3.69612-.28136,4.58319,3.37635,1.18276,6.47134,1.03491a115.29088,115.29088,0,0,1,12.37995-.14784c3.095.29569,8.44087.14784,9.0036-.44353s1.40681-4.731.56273-5.61811-2.2509-.73922-5.62725-1.03491-13.224-.59138-16.60039-.44353S183.10865,20.37693,181.70184,22.15107Z"/><path class="cls-2" d="M86.67458,56.13923a9.24881,9.24881,0,0,0-.28136,3.54828c.28136,1.62629,3.65771,2.51336,6.7527,2.51336s9.285.29569,11.2545-.44353,1.96954-3.99181,1.40681-4.43535-6.7527-2.36552-9.56632-2.21767S87.8,54.36509,86.67458,56.13923Z"/><path class="cls-2" d="M205.09412,13.05285a9.24881,9.24881,0,0,0-.28136,3.54828c.28136,1.62629,3.65771,2.51336,6.7527,2.51336s9.285.29569,11.2545-.44353,1.96954-3.99181,1.40681-4.43535-6.7527-2.36552-9.56632-2.21767S206.21957,11.27871,205.09412,13.05285Z"/><path class="cls-2" d="M355.84609,102.35733s-1.40681,1.03491-1.12545,2.21767-1.68817,2.51336-.28136,3.10474,21.94627,2.21767,26.16671,1.922,6.19-1.03491,6.47134-3.40043.56273-3.844-3.93907-3.99181-19.97674-.88707-21.66491-.88707S357.2529,101.47026,355.84609,102.35733Z"/><path class="cls-2" d="M355.84609,101.76595s-1.40681,1.03491-1.12545,2.21767-1.68817,2.51336-.28136,3.10474,21.94627,2.21767,26.16671,1.922,6.19-1.03491,6.47134-3.40043.56273-3.844-3.93907-3.99181-19.97674-.88707-21.66491-.88707S357.2529,100.87888,355.84609,101.76595Z"/><path class="cls-2" d="M168.21248,13.12579s-.28136,2.9569,1.12545,3.69612,5.90861,1.18276,8.44087.88707,11.53586.88707,14.06812.44353,6.7527-1.03491,6.7527-2.21767.28136-5.17457-1.12545-5.61811-6.47134-.73922-11.53586-.59138-11.53586.59138-13.224.88707S168.7752,11.35165,168.21248,13.12579Z"/><path class="cls-2" d="M290.098,73.84863s-.28136,2.9569,1.12545,3.69612,5.90861,1.18276,8.44087.88707,11.53586.88707,14.06812.44353,6.7527-1.03491,6.7527-2.21767.28136-5.17457-1.12545-5.61811-6.47134-.73922-11.53586-.59138-11.53586.59138-13.224.88707S290.66069,72.07449,290.098,73.84863Z"/><path class="cls-2" d="M71.23744,65.89381a10.70054,10.70054,0,0,0-.28136,3.54828c.28136,1.18276,0,1.77414,4.22044,2.06983s18.56992,0,19.69537-.14784,3.37635-1.922,3.095-3.54828,1.96954-3.10474-4.78316-3.25259-16.03766,0-18.28856.14784S71.5188,65.15458,71.23744,65.89381Z"/><path class="cls-2" d="M106.47447,47.69736a10.70054,10.70054,0,0,0-.28136,3.54828c.28136,1.18276,0,1.77414,4.22044,2.06983s18.56992,0,19.69537-.14784,3.37635-1.922,3.095-3.54828,1.96954-3.10474-4.78316-3.25259-16.03766,0-18.28856.14784S106.75583,46.95813,106.47447,47.69736Z"/><path class="cls-2" d="M385.64905,14.1672s9.285.73922,12.09859.29569,3.095-1.922,3.65771-3.40043,2.81362-4.87888-3.65771-4.731-14.34949,0-15.47494.14784-5.62725.14784-5.34589,1.922S380.30316,13.72366,385.64905,14.1672Z"/><path class="cls-2" d="M95.66558,33.00211s9.285.73922,12.09859.29569,3.095-1.922,3.65771-3.40043,2.81362-4.87888-3.65771-4.731-14.34949,0-15.47494.14784-5.62725.14784-5.34589,1.922S90.31969,32.55857,95.66558,33.00211Z"/><path class="cls-2" d="M255.32689,66.05735s-1.40681,4.13966.84409,5.02673,11.2545.59138,13.224-2.06983,1.68817-4.43535.28136-4.87888-10.97314-.59138-12.37995-.14784A3.54312,3.54312,0,0,0,255.32689,66.05735Z"/><path class="cls-2" d="M147.88282,85.80286s-1.40681,4.13966.84409,5.02673,11.2545.59138,13.224-2.06983,1.68817-4.43535.28136-4.87888-10.97314-.59138-12.37995-.14784A3.54312,3.54312,0,0,0,147.88282,85.80286Z"/><path class="cls-2" d="M409.09826,9.47539s-1.96954,3.10474-1.12545,4.43535,3.095,1.62629,8.44087,1.77414,12.66131.88707,15.7563,0,3.65771-5.61811,2.2509-6.35733S421.75957,8.14479,416.695,8.14479,411.34916,8.14479,409.09826,9.47539Z"/><path class="cls-2" d="M414.29716,21.936s-1.96954,3.10474-1.12545,4.43535,3.095,1.62629,8.44087,1.77414,12.66131.88707,15.7563,0,3.65771-5.61811,2.2509-6.35733-12.66131-1.18276-17.72584-1.18276S416.54806,20.60544,414.29716,21.936Z"/><path class="cls-2" d="M403.20924,37.4453s.84409,3.844,1.68817,4.43535,30.38715.14784,31.794-1.47845-.56273-5.02673-1.68817-5.32242-19.69537-.14784-23.35309.14784S403.772,35.819,403.20924,37.4453Z"/><path class="cls-2" d="M358.152,47.78121s.84409,3.844,1.68817,4.43535,30.38715.14784,31.794-1.47845-.56273-5.02673-1.68817-5.32242-19.69537-.14784-23.35309.14784S358.71477,46.15491,358.152,47.78121Z"/><path class="cls-2" d="M230.76369,9.60616s-.74355,1.66509.37178,2.03511,13.384.6167,16.73.43169,5.20488-2.28179,3.346-2.4668-13.384-.37-16.73-.37S231.50724,9.35948,230.76369,9.60616Z"/><path class="cls-2" d="M237.05886,99.73289s-.56272,3.99181.28136,4.87888,10.129,1.47845,12.66131,1.03491,3.93907-5.47026,2.53226-5.9138-10.129-.88707-12.66131-.88707S237.62159,99.14151,237.05886,99.73289Z"/><path class="cls-2" d="M442.15578,47.13491s-.84409,3.69612,0,3.99181,25.604.88707,27.57352-.29569,1.68817-4.731.84409-5.47026-11.53586-1.62629-16.60039-1.47845-8.72224.14784-10.41041,1.3306S442.15578,47.13491,442.15578,47.13491Z"/><path class="cls-2" d="M244.59732,91.16328s-.84409,3.69612,0,3.99181,25.604.88707,27.57352-.29569,1.68817-4.731.84409-5.47026-11.53586-1.62629-16.60039-1.47845-8.72224.14784-10.41041,1.3306S244.59732,91.16328,244.59732,91.16328Z"/><path class="cls-2" d="M.37515,28.20708a3.52327,3.52327,0,0,0,0,3.10474c.84409,1.47845,14.91221,1.922,19.414,1.922S33.85729,32.49458,34.42,31.45966s.84409-2.51336,0-3.25259S5.721,27.02432,4.03286,27.02432,1.21924,27.17216.37515,28.20708Z"/><path class="cls-2" d="M378.74,16.99195a3.52327,3.52327,0,0,0,0,3.10474c.84409,1.47845,14.91221,1.922,19.414,1.922s14.06812-.73922,14.63085-1.77414.84409-2.51336,0-3.25259-28.699-1.18276-30.38715-1.18276S379.58413,15.957,378.74,16.99195Z"/><path class="cls-2" d="M211.83189,28.51061s-1.12545,4.43535,0,4.731,16.60039.59138,18.85129.14784a3.52838,3.52838,0,0,0,3.095-4.2875C233.4968,26.73647,211.26917,26.88432,211.83189,28.51061Z"/><path class="cls-2" d="M393.216,27.91923s-1.12545,4.43535,0,4.731,16.60039.59138,18.85129.14784a3.52838,3.52838,0,0,0,3.095-4.2875C414.88089,26.14509,392.65325,26.29294,393.216,27.91923Z"/><path class="cls-2" d="M156.70537,64.53059s6.19-.29569,8.15951.44353,3.37635,1.922,2.81362,3.99181-11.81722,2.21767-13.78676,1.47845S153.329,64.67844,156.70537,64.53059Z"/><path class="cls-2" d="M51.57192,71.52761s6.19-.29569,8.15951.44353,3.37635,1.922,2.81362,3.99181S50.72784,78.18063,48.7583,77.44141,48.19557,71.67545,51.57192,71.52761Z"/></g><g class="cls-1"><path class="cls-2" d="M1410.62468,38.46946s16.319.29569,20.2581.44353,10.41041,1.18276,11.81722.73922,4.07976-4.06574,2.95431-5.98772.56273-2.36552-3.93907-2.66121-23.35309-.88707-25.604-.59138-4.5018.29569-5.62725,1.3306a34.15958,34.15958,0,0,1-2.81363,2.06983c-1.12545.88707-1.68818,1.18276-1.12545,2.36552A5.297,5.297,0,0,0,1410.62468,38.46946Z"/><path class="cls-2" d="M1423.91078,61.55386s16.319.29569,20.2581.44353,10.41041,1.18276,11.81723.73922,4.07976-4.06574,2.95431-5.98772.56273-2.36552-3.93908-2.66121-23.35309-.88707-25.604-.59138-4.5018.29569-5.62725,1.3306a34.15958,34.15958,0,0,1-2.81363,2.06983c-1.12545.88707-1.68818,1.18276-1.12545,2.36552A5.297,5.297,0,0,0,1423.91078,61.55386Z"/><path class="cls-2" d="M1607.00194,52.75709s17.16311,1.3306,21.38355.88707,7.31543-.14784,7.87815-1.47845,1.40681-5.32242-1.40681-5.32242-16.88175-1.47845-19.414-1.03491-7.03406.14784-7.87815.73922-2.53226,2.51336-1.68818,3.69612S1606.43921,52.90493,1607.00194,52.75709Z"/><path class="cls-2" d="M1607.00194,52.16571s17.16311,1.3306,21.38355.88707,7.31543-.14784,7.87815-1.47845,1.40681-5.32242-1.40681-5.32242-16.88175-1.47845-19.414-1.03491-7.03406.14784-7.87815.73922-2.53226,2.51336-1.68818,3.69612S1606.43921,52.31355,1607.00194,52.16571Z"/><path class="cls-2" d="M1603.57612,88.95507s-.84409,5.32242.28136,6.06164,5.06453,1.3306,7.87815,1.3306,14.06812,0,14.91221-.59138a3.25743,3.25743,0,0,0,1.68818-3.40043c-.28136-1.922.84409-4.2875-1.12545-5.02673a29.9632,29.9632,0,0,0-10.41041-.73922c-2.53226.44353-11.81722.44353-12.66131,1.18276S1603.57612,88.95507,1603.57612,88.95507Z"/><path class="cls-2" d="M1567.76143,84.72127s-.84409,5.32242.28136,6.06164,5.06453,1.3306,7.87815,1.3306,14.06812,0,14.91221-.59138a3.25743,3.25743,0,0,0,1.68818-3.40043c-.28136-1.922.84409-4.2875-1.12545-5.02673a29.9632,29.9632,0,0,0-10.41041-.73922c-2.53226.44353-11.81722.44353-12.66131,1.18276S1567.76143,84.72127,1567.76143,84.72127Z"/><path class="cls-2" d="M1684.44568,53.94892s-.28136,3.10474.56273,3.40043,7.59679.14784,8.44087-.29569,1.40681-2.36552,1.40681-3.10474-2.2509-1.62629-4.78316-1.3306S1684.16431,52.61832,1684.44568,53.94892Z"/><path class="cls-2" d="M1684.44568,53.35754s-.28136,3.10474.56273,3.40043,7.59679.14784,8.44087-.29569,1.40681-2.36552,1.40681-3.10474-2.2509-1.62629-4.78316-1.3306S1684.16431,52.02694,1684.44568,53.35754Z"/><path class="cls-2" d="M1695.09266,44.5707s-1.12545,3.10474.56273,3.99181,7.31543.88707,11.53586,1.03491a30.75087,30.75087,0,0,0,5.62725,0c1.40681-.14784,3.37635-1.3306,3.65771-2.21767s-.28136-3.54828-3.37635-3.40043-9.84769-.59138-12.09859-.44353S1695.65538,43.68363,1695.09266,44.5707Z"/><path class="cls-2" d="M1580.71671,96.491s-1.12545,3.10474.56273,3.99181,7.31543.88707,11.53586,1.03491a30.75088,30.75088,0,0,0,5.62725,0c1.40681-.14784,3.37635-1.3306,3.65771-2.21767s-.28136-3.54828-3.37635-3.40043-9.84769-.59138-12.09859-.44353S1581.27943,95.60393,1580.71671,96.491Z"/><path class="cls-2" d="M1722.43428,56.64813a17.75774,17.75774,0,0,0,0,3.99181c.28136,1.3306,0,2.80905,1.96954,3.25259s8.44087,0,10.97314.29569,13.224.59138,15.7563.59138,7.03406-5.02673,3.93908-6.20949-3.93908-2.66121-8.44088-2.51336-9.56632-.88707-12.66131-.73922-8.15951-.44353-9.56632,0A3.70785,3.70785,0,0,0,1722.43428,56.64813Z"/><path class="cls-2" d="M1601.70411,104.31894a17.7578,17.7578,0,0,0,0,3.99181c.28136,1.3306,0,2.80905,1.96954,3.25259s8.44088,0,10.97314.29569,13.224.59138,15.7563.59138,7.03406-5.02673,3.93907-6.20949-3.93907-2.66121-8.44087-2.51336-9.56633-.88707-12.66131-.73922-8.15951-.44353-9.56633,0A3.70785,3.70785,0,0,0,1601.70411,104.31894Z"/><path class="cls-2" d="M1627.07293,61.63441s-.56273,3.25259,1.68818,3.99181,6.7527,2.21767,10.41041,1.62629,5.90861-.29569,5.90861-1.922,2.2509-3.54828,0-4.731-5.34589-1.62629-9.0036-1.47845-7.31543.14784-7.87815.88707S1627.07293,61.63441,1627.07293,61.63441Z"/><path class="cls-2" d="M1627.07293,61.043s-.56273,3.25259,1.68818,3.99181,6.7527,2.21767,10.41041,1.62629,5.90861-.29569,5.90861-1.922,2.2509-3.54828,0-4.731-5.34589-1.62629-9.0036-1.47845-7.31543.14784-7.87815.88707S1627.07293,61.043,1627.07293,61.043Z"/><path class="cls-2" d="M1480.44341,78.94379s-1.40681,5.17457.56273,5.61811,21.66491.29569,22.22764-.29569,1.40681-6.94871,0-7.54009-7.59679-1.03491-10.97314-.88707-9.56633.14784-10.41041.59138S1480.44341,78.94379,1480.44341,78.94379Z"/><path class="cls-2" d="M1655.47327,74.40644s-1.40681,5.17457.56273,5.61811,21.66491.29569,22.22764-.29569,1.40681-6.94871,0-7.54009-7.59679-1.03491-10.97314-.88707-9.56632.14784-10.41041.59138S1655.47327,74.40644,1655.47327,74.40644Z"/><path class="cls-2" d="M1651.95228,49.09652s-1.12545,3.10474.28136,3.844,9.56633,2.80905,10.69178,3.25259a10.64537,10.64537,0,0,0,4.5018.44353q2.53226-.22177,2.53226-3.54828c0-2.21767,1.40681-3.69612-2.53226-4.2875s-11.2545-1.03491-12.66131-.73922A12.62144,12.62144,0,0,0,1651.95228,49.09652Z"/><path class="cls-2" d="M1651.95228,48.50514s-1.12545,3.10474.28136,3.844,9.56633,2.80905,10.69178,3.25259a10.64537,10.64537,0,0,0,4.5018.44353q2.53226-.22177,2.53226-3.54828c0-2.21767,1.40681-3.69612-2.53226-4.2875s-11.2545-1.03491-12.66131-.73922A12.62144,12.62144,0,0,0,1651.95228,48.50514Z"/><path class="cls-2" d="M1562.696,50.13143s-1.12545,3.25259,0,4.87888,6.19,1.3306,9.56633,1.3306,24.47854-.14784,25.88535-.29569,4.78316-.88707,5.06452-2.66121.56273-5.32242-1.68818-5.47026-31.5126-.14784-34.60758.29569S1562.696,50.13143,1562.696,50.13143Z"/><path class="cls-2" d="M1562.696,49.54005s-1.12545,3.25259,0,4.87888,6.19,1.3306,9.56633,1.3306,24.47854-.14784,25.88535-.29569,4.78316-.88707,5.06452-2.66121.56273-5.32242-1.68818-5.47026-31.5126-.14784-34.60758.29569S1562.696,49.54005,1562.696,49.54005Z"/><path class="cls-2" d="M1545.14232,91.36767s.28136,3.69612,1.12545,4.87888,8.44087.88707,11.53586,1.03491,4.22044,0,5.06452-.44353,1.40681-3.844,1.12545-4.2875-3.65771-3.10474-6.47134-3.40043a33.40122,33.40122,0,0,0-9.56632.59138C1545.705,90.33275,1545.14232,91.36767,1545.14232,91.36767Z"/><path class="cls-2" d="M1423.83449,42.81764s.28136,3.69612,1.12545,4.87888,8.44087.88707,11.53586,1.03491,4.22044,0,5.06452-.44353,1.40681-3.844,1.12545-4.2875-3.65771-3.10474-6.47134-3.40043a33.40123,33.40123,0,0,0-9.56632.59138C1424.39721,41.78273,1423.83449,42.81764,1423.83449,42.81764Z"/><path class="cls-2" d="M1633.13552,35.13755s-1.96954,3.25259-1.68818,4.2875,2.2509,2.21767,5.06453,2.36552,17.72584-1.18276,18.56992-1.62629,2.53226-2.21767,1.96954-4.13966-3.65771-2.21767-10.97314-2.21767S1635.10506,33.51126,1633.13552,35.13755Z"/><path class="cls-2" d="M1633.13552,34.54617s-1.96954,3.25259-1.68818,4.2875,2.2509,2.21767,5.06453,2.36552,17.72584-1.18276,18.56992-1.62629,2.53226-2.21767,1.96954-4.13966-3.65771-2.21767-10.97314-2.21767S1635.10506,32.91988,1633.13552,34.54617Z"/><path class="cls-2" d="M1540.822,39.23136s-1.40681,4.43535.28136,4.731,13.5054,2.21767,24.19717,1.18276,9.84769-2.9569,8.44088-5.17457-19.69537-2.51336-23.91581-2.51336S1542.79156,36.86584,1540.822,39.23136Z"/><path class="cls-2" d="M1540.822,38.64s-1.40681,4.43535.28136,4.731,13.5054,2.21767,24.19717,1.18276,9.84769-2.9569,8.44088-5.17457-19.69537-2.51336-23.91581-2.51336S1542.79156,36.27446,1540.822,38.64Z"/><path class="cls-2" d="M1584.42995,60.88194a41.053,41.053,0,0,0-.56273,4.731c0,1.47845.84409,2.36552,5.62725,2.66121s17.72584,1.47845,21.38355.88707,5.90861-1.03491,5.90861-2.9569.56273-4.731-4.5018-5.32242-21.94627-2.51336-24.7599-1.922S1584.42995,60.88194,1584.42995,60.88194Z"/><path class="cls-2" d="M1584.42995,60.29056a41.053,41.053,0,0,0-.56273,4.731c0,1.47845.84409,2.36552,5.62725,2.66121s17.72584,1.47845,21.38355.88707,5.90861-1.03491,5.90861-2.9569.56273-4.731-4.5018-5.32242-21.94627-2.51336-24.7599-1.922S1584.42995,60.29056,1584.42995,60.29056Z"/><path class="cls-2" d="M1509.24737,63.39408s15.7563.44353,19.69537.73922,8.15951-.44353,9.0036.59138,1.96954,3.54828,1.68818,4.87888-3.65771,1.47845-6.19,1.77414-15.19357.59138-21.38355.59138-5.06452.29569-6.7527-.88707S1502.49467,63.09839,1509.24737,63.39408Z"/><path class="cls-2" d="M1509.24737,62.8027s15.7563.44353,19.69537.73922,8.15951-.44353,9.0036.59138,1.96954,3.54828,1.68818,4.87888-3.65771,1.47845-6.19,1.77414-15.19357.59138-21.38355.59138-5.06452.29569-6.7527-.88707S1502.49467,62.507,1509.24737,62.8027Z"/><path class="cls-2" d="M1508.40421,55.82677s-.56272,3.54828.56273,4.2875,8.72224.88707,11.2545.88707,6.7527.29569,7.59679-1.03491,1.96954-4.2875-2.2509-5.17457-13.5054-.73922-15.19357-.29569S1508.40421,55.82677,1508.40421,55.82677Z"/><path class="cls-2" d="M1521.69031,75.57229s-.56273,3.54828.56273,4.2875,8.72224.88707,11.2545.88707,6.7527.29569,7.59679-1.03491,1.96954-4.2875-2.2509-5.17457-13.5054-.73922-15.19357-.29569S1521.69031,75.57229,1521.69031,75.57229Z"/><path class="cls-2" d="M1458.09539,11.74346s0,4.731.84409,5.61811,8.15951,2.36552,18.28856,1.18276,9.285-3.54828,9.0036-5.47026-.84409-2.80905-5.34589-2.80905h-19.69537A6.10115,6.10115,0,0,0,1458.09539,11.74346Z"/><path class="cls-2" d="M1843.96981,9.61871s0,4.731.84409,5.61811,8.15951,2.36552,18.28856,1.18276,9.285-3.54828,9.0036-5.47026-.84409-2.80905-5.34589-2.80905H1847.0648A6.10115,6.10115,0,0,0,1843.96981,9.61871Z"/><path class="cls-2" d="M1660.8714,7.2422s0,2.9569,2.2509,3.54828,21.94627.14784,23.63445-.14784,1.96954-1.03491,1.68818-2.9569.56273-3.40043-4.22044-3.40043-18.56992.59138-19.69537.73922S1660.8714,5.02453,1660.8714,7.2422Z"/><path class="cls-2" d="M1424.03231,15.14982s0,2.9569,2.2509,3.54828,21.94627.14784,23.63445-.14784,1.96954-1.03491,1.68818-2.9569.56273-3.40043-4.22044-3.40043-18.56992.59138-19.69537.73922S1424.03231,12.93215,1424.03231,15.14982Z"/><path class="cls-2" d="M1738.41921,43.52965s-.84409,3.10474,0,3.99181,7.31543,1.18276,9.56633.73922,3.095-1.18276,2.2509-1.922-4.22044-1.77414-4.22044-2.66121-4.78316-1.18276-6.19-1.03491S1738.41921,43.52965,1738.41921,43.52965Z"/><path class="cls-2" d="M1672.56639,58.11506s-.84409,3.10474,0,3.99181,7.31543,1.18276,9.56632.73922,3.095-1.18276,2.2509-1.922-4.22044-1.77414-4.22044-2.66121-4.78316-1.18276-6.19-1.03491S1672.56639,58.11506,1672.56639,58.11506Z"/><path class="cls-2" d="M1779.20134,51.15416s-.56273,1.922,1.96954,2.66121,2.81363,1.3306,6.47134,1.3306,14.63085.44353,15.7563.14784,3.095-3.54828,0-3.99181a33.35048,33.35048,0,0,0-7.03406-.73922c-3.65771,0-13.5054,0-14.63085.14784S1779.76407,50.56278,1779.20134,51.15416Z"/><path class="cls-2" d="M1614.56929,79.39867s-.56273,1.922,1.96954,2.66121,2.81363,1.3306,6.47134,1.3306,14.63085.44353,15.7563.14784,3.095-3.54828,0-3.99181a33.35049,33.35049,0,0,0-7.03406-.73922c-3.65771,0-13.5054,0-14.63085.14784S1615.132,78.80729,1614.56929,79.39867Z"/><path class="cls-2" d="M1838.06116,2.995a8.655,8.655,0,0,0-.34015,2.681c.17007.8043.85037,1.698,3.06133,1.51924s15.64678-.17873,16.49714-.5362.85037-2.681.51022-3.39595-1.53066-1.34051-4.592-1.16177-12.2453.35747-13.26574.44684A6.97,6.97,0,0,0,1838.06116,2.995Z"/><path class="cls-2" d="M1867.75917,23.0123s-.84409,3.10474-.56273,4.43535,1.40681,2.80905,5.06453,2.51336,25.88535-.29569,27.29216-.88707,1.40681-4.43535.84409-5.61811-2.53226-2.21767-7.59679-1.922-20.2581.59138-21.94627.73922A11.5309,11.5309,0,0,0,1867.75917,23.0123Z"/><path class="cls-2" d="M1746.41448,83.29945a13.25353,13.25353,0,0,0,.56273,5.17457c.84409,1.922.84409,2.51336,3.93908,2.80905s18.0072.14784,19.69537-.29569,2.81363-4.87888.56273-6.35733-3.095-2.21767-6.47134-2.36552S1747.25857,80.78609,1746.41448,83.29945Z"/><path class="cls-2" d="M1515.9647,23.26913a9.7049,9.7049,0,0,0,.41205,3.78908c.61808,1.40737.61808,1.84041,2.88439,2.05693s13.18577.10826,14.42193-.21652,2.06028-3.57256.41206-4.65516-2.2663-1.62389-4.73863-1.73215S1516.58278,21.42871,1515.9647,23.26913Z"/><path class="cls-2" d="M1798.41879,43.98957s-.56273,2.9569,0,4.2875,3.93908,1.47845,6.19,1.47845,25.04126.14784,26.72944-.29569,2.53226-2.80905,1.96954-5.32242-1.40681-2.66121-5.06453-2.66121-20.2581-.44353-23.07172-.14784S1800.66969,41.624,1798.41879,43.98957Z"/><path class="cls-2" d="M1766.838,33.98858a12.75825,12.75825,0,0,0,0,4.2875c.45769,1.3306,3.20384,1.47845,5.0346,1.47845s20.36724.14784,21.74031-.29569,2.05961-2.80905,1.60192-5.32242-1.14423-2.66121-4.11922-2.66121-16.47687-.44353-18.76532-.14784S1768.66876,31.62306,1766.838,33.98858Z"/><path class="cls-2" d="M1468.49554,33.85328s0,3.99181,1.12545,4.43535,7.87815.73922,16.319.59138,15.47494,0,15.47494-2.36552-1.12545-4.2875-3.37635-4.43535-22.22764,0-24.7599.14784S1469.33962,32.227,1468.49554,33.85328Z"/><path class="cls-2" d="M1496.80069,12.62147s0,3.99181,1.12545,4.43535,7.87815.73922,16.319.59138,15.47494,0,15.47494-2.36552-1.12545-4.2875-3.37635-4.43535-22.22764,0-24.7599.14784S1497.64478,10.99518,1496.80069,12.62147Z"/><path class="cls-2" d="M1703.883,52.658s-1.12545,1.47845,0,2.36552,7.31542.73922,8.44087.29569,1.68818-2.80905-.28136-3.25259A16.2057,16.2057,0,0,0,1703.883,52.658Z"/><path class="cls-2" d="M1765.11459,51.156s-1.12545,1.47845,0,2.36552,7.31543.73922,8.44088.29569,1.68818-2.80905-.28136-3.25259A16.2057,16.2057,0,0,0,1765.11459,51.156Z"/><path class="cls-2" d="M1841.72358,28.08071s-1.12545,2.51336,0,3.54828,3.37635,1.18276,6.7527,1.3306,12.66131.14784,14.34949-.59138,1.96954-3.69612.28136-4.43535-17.44447-.59138-18.85129-.44353S1842.2863,27.48933,1841.72358,28.08071Z"/><path class="cls-2" d="M1581.77823,40.8449s-1.12545,2.51336,0,3.54828,3.37635,1.18276,6.7527,1.3306,12.66131.14784,14.34949-.59138,1.96954-3.69612.28136-4.43535-17.44447-.59138-18.85129-.44353S1582.341,40.25352,1581.77823,40.8449Z"/><path class="cls-2" d="M1455.244,20.81032s13.224.29569,16.03766.44353,5.06453.14784,5.06453,2.51336.56273,4.2875-.56273,4.87888a16.06535,16.06535,0,0,1-5.90861,1.3306c-1.96954,0-9.56633.29569-12.66131.29569s-10.12905.14784-11.2545-1.3306-3.095-6.06164-.84409-6.50518S1447.08446,21.106,1455.244,20.81032Z"/><path class="cls-2" d="M1461.02053,40.55583s13.224.29569,16.03766.44353,5.06453.14784,5.06453,2.51336.56273,4.2875-.56273,4.87888a16.06535,16.06535,0,0,1-5.90861,1.3306c-1.96954,0-9.56633.29569-12.66131.29569s-10.12905.14784-11.2545-1.3306-3.095-6.06164-.84409-6.50518S1452.861,40.85152,1461.02053,40.55583Z"/><path class="cls-2" d="M1570.56853,58.88567a55.85524,55.85524,0,0,1,6.19-.59138c2.2509,0,3.93908.29569,4.22044,1.03491s1.12545,3.10474-.28136,3.54828a39.24722,39.24722,0,0,1-8.44088.59138C1570.56853,63.321,1566.06673,60.21627,1570.56853,58.88567Z"/><path class="cls-2" d="M1848.42122,19.74525a55.85524,55.85524,0,0,1,6.19-.59138c2.2509,0,3.93908.29569,4.22044,1.03491s1.12545,3.10474-.28136,3.54828a39.24722,39.24722,0,0,1-8.44088.59138C1848.42122,24.1806,1843.91942,21.07585,1848.42122,19.74525Z"/><path class="cls-2" d="M1537.169,50.31311s6.47134-.29569,9.0036-.14784,3.65771.29569,3.37635,2.21767,1.12545,4.731.28136,5.766-1.40681,1.3306-5.62725,1.18276-10.97314,0-11.81722-1.3306S1533.79263,50.6088,1537.169,50.31311Z"/><path class="cls-2" d="M1537.169,49.72173s6.47134-.29569,9.0036-.14784,3.65771.29569,3.37635,2.21767,1.12545,4.731.28136,5.766-1.40681,1.3306-5.62725,1.18276-10.97314,0-11.81722-1.3306S1533.79263,50.01742,1537.169,49.72173Z"/><path class="cls-2" d="M1511.98867,33.64341c.55554-.04708,15.19357-.88707,18.28856-.29569s3.095,1.18276,2.81363,2.66121,0,2.51336-2.81363,2.66121-15.47494.88707-18.0072.73922S1503.26643,34.38263,1511.98867,33.64341Z"/><path class="cls-2" d="M1511.98867,33.052c.55554-.04708,15.19357-.88707,18.28856-.29569s3.095,1.18276,2.81363,2.66121,0,2.51336-2.81363,2.66121-15.47494.88707-18.0072.73922S1503.26643,33.79125,1511.98867,33.052Z"/><path class="cls-2" d="M1544.35236,18.21016s11.2545.14784,12.94267,0,3.65771-1.62629,2.81362-5.02673c0,0,0-2.66121-3.93907-2.80905s-12.66131-.29569-15.47494.44353S1537.03693,17.91447,1544.35236,18.21016Z"/><path class="cls-2" d="M1544.35236,17.61878s11.2545.14784,12.94267,0,3.65771-1.62629,2.81362-5.02673c0,0,0-2.66121-3.93907-2.80905s-12.66131-.29569-15.47494.44353S1537.03693,17.32309,1544.35236,17.61878Z"/><path class="cls-2" d="M1541.57886,25.51978s-1.12545,4.58319.84409,5.766,9.0036,1.03491,13.5054.73922,5.06453-1.77414,4.78316-4.58319-1.96954-2.80905-7.03406-2.80905S1542.14158,23.5978,1541.57886,25.51978Z"/><path class="cls-2" d="M1541.57886,24.9284s-1.12545,4.58319.84409,5.766,9.0036,1.03491,13.5054.73922,5.06453-1.77414,4.78316-4.58319-1.96954-2.80905-7.03406-2.80905S1542.14158,23.00642,1541.57886,24.9284Z"/><path class="cls-2" d="M1661.44534,37.66906s-1.12545,3.10474-.28136,5.02673,6.19,2.51336,11.53586,2.66121,18.85129.73922,19.414-1.18276,2.2509-5.766-3.65771-6.80087a61.96262,61.96262,0,0,0-14.63085-.88707C1671.293,36.782,1662.28943,36.33845,1661.44534,37.66906Z"/><path class="cls-2" d="M1661.44534,37.07768s-1.12545,3.10474-.28136,5.02673,6.19,2.51336,11.53586,2.66121,18.85129.73922,19.414-1.18276,2.2509-5.766-3.65771-6.80087a61.96262,61.96262,0,0,0-14.63085-.88707C1671.293,36.19061,1662.28943,35.74707,1661.44534,37.07768Z"/><path class="cls-2" d="M1608.294,34.44663s-1.12545,3.10474-.28136,4.2875,9.56632,1.47845,12.94267,1.18276,5.06453-.59138,5.34589-2.36552.84409-3.54828-3.37635-3.69612S1609.13805,32.3768,1608.294,34.44663Z"/><path class="cls-2" d="M1608.294,33.85525s-1.12545,3.10474-.28136,4.2875,9.56632,1.47845,12.94267,1.18276,5.06453-.59138,5.34589-2.36552.84409-3.54828-3.37635-3.69612S1609.13805,31.78542,1608.294,33.85525Z"/><path class="cls-2" d="M1583.5098,30.65635s-.84409,5.02673,0,5.61811,5.34589,1.03491,7.59679-.14784,1.96954-4.58319.84409-5.32242S1584.63525,29.62144,1583.5098,30.65635Z"/><path class="cls-2" d="M1583.5098,30.065s-.84409,5.02673,0,5.61811,5.34589,1.03491,7.59679-.14784,1.96954-4.58319.84409-5.32242S1584.63525,29.03006,1583.5098,30.065Z"/><path class="cls-2" d="M1639.24384,26.11116a5.603,5.603,0,0,0-.84409,5.02673c.84409,3.10474,16.60039,1.922,21.94627,1.62629s10.12905-.59138,8.72224-3.844-.84409-3.69612-8.15951-3.40043-16.319.14784-18.85129.14784S1639.24384,26.11116,1639.24384,26.11116Z"/><path class="cls-2" d="M1639.24384,25.51978a5.603,5.603,0,0,0-.84409,5.02673c.84409,3.10474,16.60039,1.922,21.94627,1.62629s10.12905-.59138,8.72224-3.844-.84409-3.69612-8.15951-3.40043-16.319.14784-18.85129.14784S1639.24384,25.51978,1639.24384,25.51978Z"/><path class="cls-2" d="M1674.44669,26.83786s-.19835,3.0742.29752,3.66921,1.88429.79334,3.47107.89251,4.16528.2975,5.05785-.2975,1.19008-4.56172-.19835-4.95839S1675.73595,25.44951,1674.44669,26.83786Z"/><path class="cls-2" d="M1557.25443,70.15523s-.56273,4.58319.84409,5.47026,5.34589,1.18276,9.84769,1.3306,11.81722.44353,14.34949-.44353,3.37635-6.80087-.56273-7.39225S1560.91215,68.0854,1557.25443,70.15523Z"/><path class="cls-2" d="M1592.18237,73.65888v2.9569c0,.59138,1.68818,2.06983,3.93908,2.36552s13.78676-.29569,15.47494-.44353,3.65771-.88707,3.095-3.10474.28136-2.80905-.84409-3.40043-16.03766-.59138-17.72584-.44353S1592.46373,72.18043,1592.18237,73.65888Z"/><path class="cls-2" d="M1626.84175,71.85336v2.9569c0,.59138,1.68818,2.06983,3.93908,2.36552s13.78676-.29569,15.47494-.44353,3.65771-.88707,3.095-3.10474.28136-2.80905-.84409-3.40043-16.03766-.59138-17.72584-.44353S1627.12311,70.37491,1626.84175,71.85336Z"/><path class="cls-2" d="M1670.69111,16.10356s-.84409,3.25259,1.68818,4.13966,10.69177.29569,15.7563.44353,11.81722.14784,12.66131-1.47845.28136-3.40043.56273-4.58319-1.68818-1.62629-3.37635-1.62629-11.53586,0-13.78676.14784-7.87815.29569-9.84769.29569A3.74514,3.74514,0,0,0,1670.69111,16.10356Z"/><path class="cls-2" d="M1670.69111,15.51218s-.84409,3.25259,1.68818,4.13966,10.69177.29569,15.7563.44353,11.81722.14784,12.66131-1.47845.28136-3.40043.56273-4.58319-1.68818-1.62629-3.37635-1.62629-11.53586,0-13.78676.14784-7.87815.29569-9.84769.29569A3.74514,3.74514,0,0,0,1670.69111,15.51218Z"/><path class="cls-2" d="M1627.67018,10.11914a37.05462,37.05462,0,0,1-1.96954,3.844c-.56273.73922-.84409,1.62629,1.40681,2.06983s12.94268,1.77414,16.03766,1.922,9.56632.29569,11.53586.59138,3.93908-.88707,3.93908-2.21767,1.96954-3.40043-2.53226-4.2875-15.19357-1.922-17.44447-2.21767a54.57254,54.57254,0,0,0-7.87815-.59138C1629.35835,9.37992,1629.35835,8.93638,1627.67018,10.11914Z"/><path class="cls-2" d="M1627.67018,9.52776a37.05462,37.05462,0,0,1-1.96954,3.844c-.56273.73922-.84409,1.62629,1.40681,2.06983s12.94268,1.77414,16.03766,1.922,9.56632.29569,11.53586.59138,3.93908-.88707,3.93908-2.21767,1.96954-3.40043-2.53226-4.2875-15.19357-1.922-17.44447-2.21767a54.57254,54.57254,0,0,0-7.87815-.59138C1629.35835,8.78854,1629.35835,8.345,1627.67018,9.52776Z"/><path class="cls-2" d="M1579.70184,18.74245s-1.12545,3.69612-.28136,4.58319,3.37635,1.18276,6.47134,1.03491a115.29089,115.29089,0,0,1,12.38-.14784c3.095.29569,8.44087.14784,9.0036-.44353s1.40681-4.731.56273-5.61811-2.2509-.73922-5.62725-1.03491-13.224-.59138-16.60039-.44353S1581.10865,16.96831,1579.70184,18.74245Z"/><path class="cls-2" d="M1579.70184,18.15107s-1.12545,3.69612-.28136,4.58319,3.37635,1.18276,6.47134,1.03491a115.29089,115.29089,0,0,1,12.38-.14784c3.095.29569,8.44087.14784,9.0036-.44353s1.40681-4.731.56273-5.61811-2.2509-.73922-5.62725-1.03491-13.224-.59138-16.60039-.44353S1581.10865,16.37693,1579.70184,18.15107Z"/><path class="cls-2" d="M1484.67458,52.13923a9.24882,9.24882,0,0,0-.28136,3.54828c.28136,1.62629,3.65771,2.51336,6.7527,2.51336s9.285.29569,11.2545-.44353,1.96954-3.99181,1.40681-4.43535-6.7527-2.36552-9.56633-2.21767S1485.8,50.36509,1484.67458,52.13923Z"/><path class="cls-2" d="M1603.09412,9.05285a9.2488,9.2488,0,0,0-.28136,3.54828c.28136,1.62629,3.65771,2.51336,6.7527,2.51336s9.285.29569,11.2545-.44353,1.96954-3.99181,1.40681-4.43535-6.7527-2.36552-9.56632-2.21767S1604.21957,7.27871,1603.09412,9.05285Z"/><path class="cls-2" d="M1753.84609,98.35733s-1.40681,1.03491-1.12545,2.21767-1.68818,2.51336-.28136,3.10474,21.94627,2.21767,26.16671,1.922,6.19-1.03491,6.47134-3.40043.56273-3.844-3.93908-3.99181-19.97674-.88707-21.66491-.88707S1755.2529,97.47026,1753.84609,98.35733Z"/><path class="cls-2" d="M1753.84609,97.76595s-1.40681,1.03491-1.12545,2.21767-1.68818,2.51336-.28136,3.10474,21.94627,2.21767,26.16671,1.922,6.19-1.03491,6.47134-3.40043.56273-3.844-3.93908-3.99181-19.97674-.88707-21.66491-.88707S1755.2529,96.87888,1753.84609,97.76595Z"/><path class="cls-2" d="M1566.21248,9.12579s-.28136,2.9569,1.12545,3.69612,5.90861,1.18276,8.44088.88707,11.53586.88707,14.06812.44353,6.7527-1.03491,6.7527-2.21767.28136-5.17457-1.12545-5.61811-6.47134-.73922-11.53586-.59138-11.53586.59138-13.224.88707S1566.7752,7.35165,1566.21248,9.12579Z"/><path class="cls-2" d="M1688.098,69.84863s-.28136,2.9569,1.12545,3.69612,5.90861,1.18276,8.44087.88707,11.53586.88707,14.06812.44353,6.7527-1.03491,6.7527-2.21767.28136-5.17457-1.12545-5.61811-6.47134-.73922-11.53586-.59138-11.53586.59138-13.224.88707S1688.66069,68.07449,1688.098,69.84863Z"/><path class="cls-2" d="M1469.23744,61.89381a10.70055,10.70055,0,0,0-.28136,3.54828c.28136,1.18276,0,1.77414,4.22044,2.06983s18.56992,0,19.69537-.14784,3.37635-1.922,3.095-3.54828,1.96954-3.10474-4.78316-3.25259-16.03766,0-18.28856.14784S1469.5188,61.15458,1469.23744,61.89381Z"/><path class="cls-2" d="M1504.47447,43.69736a10.70053,10.70053,0,0,0-.28136,3.54828c.28136,1.18276,0,1.77414,4.22044,2.06983s18.56992,0,19.69537-.14784,3.37635-1.922,3.095-3.54828,1.96954-3.10474-4.78316-3.25259-16.03766,0-18.28856.14784S1504.75583,42.95813,1504.47447,43.69736Z"/><path class="cls-2" d="M1783.64905,10.1672s9.285.73922,12.09859.29569,3.095-1.922,3.65771-3.40043,2.81363-4.87888-3.65771-4.731-14.34949,0-15.47494.14784-5.62725.14784-5.34589,1.922S1778.30316,9.72366,1783.64905,10.1672Z"/><path class="cls-2" d="M1493.66558,29.00211s9.285.73922,12.09859.29569,3.095-1.922,3.65771-3.40043,2.81363-4.87888-3.65771-4.731-14.34949,0-15.47494.14784-5.62725.14784-5.34589,1.922S1488.31969,28.55857,1493.66558,29.00211Z"/><path class="cls-2" d="M1653.32689,62.05735s-1.40681,4.13966.84409,5.02673,11.2545.59138,13.224-2.06983,1.68818-4.43535.28136-4.87888-10.97314-.59138-12.37995-.14784A3.54312,3.54312,0,0,0,1653.32689,62.05735Z"/><path class="cls-2" d="M1545.88282,81.80286s-1.40681,4.13966.84409,5.02673,11.2545.59138,13.224-2.06983,1.68818-4.43535.28136-4.87888-10.97314-.59138-12.37995-.14784A3.54312,3.54312,0,0,0,1545.88282,81.80286Z"/><path class="cls-2" d="M1807.09826,5.47539s-1.96954,3.10474-1.12545,4.43535,3.095,1.62629,8.44087,1.77414,12.66131.88707,15.7563,0,3.65771-5.61811,2.2509-6.35733-12.66131-1.18276-17.72584-1.18276S1809.34916,4.14479,1807.09826,5.47539Z"/><path class="cls-2" d="M1812.29716,17.936s-1.96954,3.10474-1.12545,4.43535,3.095,1.62629,8.44088,1.77414,12.66131.88707,15.7563,0,3.65771-5.61811,2.2509-6.35733-12.66131-1.18276-17.72584-1.18276S1814.54806,16.60544,1812.29716,17.936Z"/><path class="cls-2" d="M1801.20924,33.4453s.84409,3.844,1.68818,4.43535,30.38715.14784,31.794-1.47845-.56273-5.02673-1.68818-5.32242-19.69537-.14784-23.35309.14784S1801.772,31.819,1801.20924,33.4453Z"/><path class="cls-2" d="M1756.152,43.78121s.84409,3.844,1.68818,4.43535,30.38715.14784,31.794-1.47845-.56273-5.02673-1.68818-5.32242-19.69537-.14784-23.35309.14784S1756.71477,42.15491,1756.152,43.78121Z"/><path class="cls-2" d="M1628.76369,5.60616s-.74355,1.66509.37178,2.03511,13.384.6167,16.73.43169,5.20488-2.28179,3.346-2.4668-13.384-.37-16.73-.37S1629.50724,5.35948,1628.76369,5.60616Z"/><path class="cls-2" d="M1635.05886,95.73289s-.56273,3.99181.28136,4.87888,10.129,1.47845,12.66131,1.03491,3.93908-5.47026,2.53226-5.9138-10.12905-.88707-12.66131-.88707S1635.62159,95.14151,1635.05886,95.73289Z"/><path class="cls-2" d="M1840.15578,43.13491s-.84409,3.69612,0,3.99181,25.604.88707,27.57352-.29569,1.68818-4.731.84409-5.47026-11.53586-1.62629-16.60039-1.47845-8.72224.14784-10.41041,1.3306S1840.15578,43.13491,1840.15578,43.13491Z"/><path class="cls-2" d="M1642.59732,87.16328s-.84409,3.69612,0,3.99181,25.604.88707,27.57352-.29569,1.68818-4.731.84409-5.47026-11.53586-1.62629-16.60039-1.47845-8.72224.14784-10.41041,1.3306S1642.59732,87.16328,1642.59732,87.16328Z"/><path class="cls-2" d="M1398.37515,24.20708a3.52327,3.52327,0,0,0,0,3.10474c.84409,1.47845,14.91221,1.922,19.414,1.922s14.06813-.73922,14.63085-1.77414.84409-2.51336,0-3.25259-28.699-1.18276-30.38715-1.18276S1399.21924,23.17216,1398.37515,24.20708Z"/><path class="cls-2" d="M1776.74,12.99195a3.52327,3.52327,0,0,0,0,3.10474c.84409,1.47845,14.91221,1.922,19.414,1.922s14.06812-.73922,14.63085-1.77414.84409-2.51336,0-3.25259-28.699-1.18276-30.38715-1.18276S1777.58413,11.957,1776.74,12.99195Z"/><path class="cls-2" d="M1609.83189,24.51061s-1.12545,4.43535,0,4.731,16.60039.59138,18.85129.14784a3.52838,3.52838,0,0,0,3.095-4.2875C1631.4968,22.73647,1609.26917,22.88432,1609.83189,24.51061Z"/><path class="cls-2" d="M1791.216,23.91923s-1.12545,4.43535,0,4.731,16.60039.59138,18.85129.14784a3.52838,3.52838,0,0,0,3.095-4.2875C1812.88089,22.14509,1790.65325,22.29294,1791.216,23.91923Z"/><path class="cls-2" d="M1554.70538,60.53059s6.19-.29569,8.15951.44353,3.37635,1.922,2.81362,3.99181-11.81722,2.21767-13.78676,1.47845S1551.329,60.67844,1554.70538,60.53059Z"/><path class="cls-2" d="M1449.57193,67.52761s6.19-.29569,8.15951.44353,3.37635,1.922,2.81363,3.99181-11.81723,2.21767-13.78676,1.47845S1446.19558,67.67545,1449.57193,67.52761Z"/></g><g class="cls-1"><path class="cls-2" d="M848.02658,55.81906s-16.319.21465-20.2581.322-10.41041.85862-11.81722.53664-4.07976-2.9515-2.95431-4.34676-.56273-1.71724,3.93907-1.93189,23.35309-.644,25.604-.42931,4.5018.21465,5.62725.96595,1.68817.85862,2.81362,1.50258,1.68817.85862,1.12545,1.71724S849.57407,55.7654,848.02658,55.81906Z"/><path class="cls-2" d="M898.86033,52.9659s-16.319.21465-20.2581.322-10.41041.85862-11.81722.53664-4.07976-2.9515-2.95431-4.34676-.56273-1.71724,3.93907-1.93189,23.35309-.644,25.604-.42931,4.5018.21465,5.62725.96595,1.68817.85862,2.81362,1.50258,1.68817.85862,1.12545,1.71724S900.40783,52.91223,898.86033,52.9659Z"/><path class="cls-2" d="M872.314,19.69717s-17.16311.96595-21.38355.644-7.31542-.10733-7.87815-1.07327-1.40681-3.86379,1.40681-3.86379,16.88175-1.07327,19.414-.75129,7.03406.10733,7.87815.53664,2.53226,1.82457,1.68817,2.68318S872.87676,19.80449,872.314,19.69717Z"/><path class="cls-2" d="M719.81277,19.92891s-17.16311.96595-21.38355.644-7.31542-.10733-7.87815-1.07327-1.40681-3.86379,1.40681-3.86379,16.88175-1.07327,19.414-.75129,7.03406.10733,7.87815.53664,2.53226,1.82457,1.68818,2.68318S720.3755,20.03624,719.81277,19.92891Z"/><path class="cls-2" d="M842.81344,6.53221s.84409,3.86379-.28136,4.40042-5.06452.96595-7.87815.96595-14.06812,0-14.91221-.42931-1.96954-1.07327-1.68817-2.46853-.84409-3.11249,1.12545-3.64913A40.97135,40.97135,0,0,1,829.5894,4.815c2.53226.322,11.81722.322,12.66131.85862S842.81344,6.53221,842.81344,6.53221Z"/><path class="cls-2" d="M678.18139,12.05236s.84409,3.86379-.28136,4.40042-5.06452.96595-7.87815.96595-14.06812,0-14.91221-.42931-1.96954-1.07327-1.68817-2.46853-.84409-3.11249,1.12545-3.64913a40.97135,40.97135,0,0,1,10.41041-.53664c2.53226.322,11.81722.322,12.66131.85862S678.18139,12.05236,678.18139,12.05236Z"/><path class="cls-2" d="M812.77764,1.61224s.28136,2.25387-.56273,2.46853a44.39956,44.39956,0,0,1-8.44087-.21465,2.97734,2.97734,0,0,1-1.40681-2.25387c0-.53664,2.2509-1.1806,4.78316-.96595S813.059.64629,812.77764,1.61224Z"/><path class="cls-2" d="M935.24078,8.23414s.28136,2.25387-.56273,2.46853a44.39956,44.39956,0,0,1-8.44087-.21465,2.97734,2.97734,0,0,1-1.40681-2.25387c0-.53664,2.2509-1.1806,4.78316-.96595S935.52215,7.26819,935.24078,8.23414Z"/><path class="cls-2" d="M1044.74632,31.60267s1.12545,2.25387-.56273,2.89784-7.31542.644-11.53586.75129a42.31182,42.31182,0,0,1-5.62725,0c-1.40681-.10733-3.37635-.96595-3.65771-1.60991s.28136-2.57586,3.37635-2.46853,9.84769-.42931,12.09859-.322S1044.18359,30.95871,1044.74632,31.60267Z"/><path class="cls-2" d="M963.87443,5.172s1.12545,2.25387-.56272,2.89784-7.31542.644-11.53586.75129a42.31183,42.31183,0,0,1-5.62725,0c-1.40681-.10733-3.37635-.96595-3.65771-1.60991s.28136-2.57586,3.37635-2.46853,9.84769-.42931,12.09859-.322S963.31171,4.52805,963.87443,5.172Z"/><path class="cls-2" d="M989.67719,44.99759a9.38654,9.38654,0,0,1,0,2.89784c-.28136.96595,0,2.03922-1.96954,2.3612s-8.44087,0-10.97314.21465-13.224.42931-15.7563.42931-7.03406-3.64913-3.93907-4.50775,3.93907-1.93189,8.44087-1.82457,9.56632-.644,12.66131-.53664,8.15951-.322,9.56632,0A3.83332,3.83332,0,0,1,989.67719,44.99759Z"/><path class="cls-2" d="M1030.69079,39.50023a9.38652,9.38652,0,0,1,0,2.89784c-.28136.96595,0,2.03922-1.96954,2.3612s-8.44088,0-10.97314.21465-13.224.42931-15.7563.42931-7.03406-3.64913-3.93908-4.50775,3.93908-1.93189,8.44088-1.82457,9.56632-.644,12.66131-.53664,8.15951-.322,9.56633,0A3.83332,3.83332,0,0,1,1030.69079,39.50023Z"/><path class="cls-2" d="M978.17213,36.49808a2.34489,2.34489,0,0,1-1.68817,2.89784c-2.2509.53664-6.7527,1.60991-10.41041,1.1806s-5.90861-.21465-5.90861-1.39526-2.2509-2.57586,0-3.43448a24.28771,24.28771,0,0,1,9.0036-1.07327c3.65771.10733,7.31542.10733,7.87815.644S978.17213,36.49808,978.17213,36.49808Z"/><path class="cls-2" d="M1079.74445,91.81173s1.40681,3.75646-.56273,4.07844-21.66491.21465-22.22764-.21465-1.40681-5.04439,0-5.4737,7.59679-.75129,10.97314-.644,9.56632.10733,10.41041.42931S1079.74445,91.81173,1079.74445,91.81173Z"/><path class="cls-2" d="M1079.74445,91.38242s1.40681,3.75646-.56273,4.07844-21.66491.21465-22.22764-.21465-1.40681-5.04439,0-5.4737,7.59679-.75129,10.97314-.644,9.56632.10733,10.41041.42931S1079.74445,91.38242,1079.74445,91.38242Z"/><path class="cls-2" d="M901.88136,17.03979s1.12545,2.25387-.28136,2.79051-9.56632,2.03922-10.69177,2.3612a14.47373,14.47373,0,0,1-4.5018.322,2.34931,2.34931,0,0,1-2.53226-2.57586c0-1.60991-1.40681-2.68318,2.53226-3.11249a97.66293,97.66293,0,0,1,12.66131-.53664A15.801,15.801,0,0,1,901.88136,17.03979Z"/><path class="cls-2" d="M778.84057,15.72908s1.12545,2.25387-.28136,2.79051-9.56632,2.03922-10.69177,2.3612a14.47373,14.47373,0,0,1-4.5018.322,2.34931,2.34931,0,0,1-2.53226-2.57586c0-1.60991-1.40681-2.68318,2.53226-3.11249a97.66292,97.66292,0,0,1,12.66131-.53664A15.801,15.801,0,0,1,778.84057,15.72908Z"/><path class="cls-2" d="M831.12686,15.14688s1.12545,2.3612,0,3.5418-6.19.96595-9.56632.96595S797.082,19.5473,795.67519,19.44s-4.78316-.644-5.06452-1.93189-.56272-3.86379,1.68817-3.97111,31.5126-.10733,34.60759.21465S831.12686,15.14688,831.12686,15.14688Z"/><path class="cls-2" d="M992.293,56.8045s1.12545,2.3612,0,3.5418-6.19.96595-9.56632.96595-24.47854-.10733-25.88535-.21465-4.78316-.644-5.06452-1.93189-.56273-3.86379,1.68817-3.97111,31.5126-.10733,34.60759.21465S992.293,56.8045,992.293,56.8045Z"/><path class="cls-2" d="M1062.41336,9.60572s-.28136,2.68318-1.12545,3.5418-8.44088.644-11.53586.75129-4.22044,0-5.06453-.322-1.40681-2.79051-1.12545-3.11249a15.14618,15.14618,0,0,1,6.47134-2.46853,45.76665,45.76665,0,0,1,9.56632.42931C1061.85064,8.85443,1062.41336,9.60572,1062.41336,9.60572Z"/><path class="cls-2" d="M964.21179,13.36307s-.28136,2.68318-1.12545,3.5418-8.44087.644-11.53586.75129-4.22044,0-5.06452-.322-1.40681-2.79051-1.12545-3.11249a15.14618,15.14618,0,0,1,6.47134-2.46853,45.76665,45.76665,0,0,1,9.56632.42931C963.64906,12.61178,964.21179,13.36307,964.21179,13.36307Z"/><path class="cls-2" d="M752.02248,15.72036s1.96954,2.3612,1.68817,3.11249-2.2509,1.60991-5.06452,1.71724-17.72584-.85862-18.56992-1.1806-2.53226-1.60991-1.96954-3.00517,3.65771-1.60991,10.97314-1.60991S750.05294,14.53976,752.02248,15.72036Z"/><path class="cls-2" d="M801.12326,6.477s1.96954,2.3612,1.68817,3.11249-2.2509,1.60991-5.06452,1.71724-17.72584-.85862-18.56992-1.1806-2.53226-1.60991-1.96954-3.00517,3.65771-1.60991,10.97314-1.60991S799.15373,5.29643,801.12326,6.477Z"/><path class="cls-2" d="M667.57314,28.38766s1.40681,3.21982-.28136,3.43448a140.671,140.671,0,0,1-24.19717.85862c-10.69177-.75129-9.84769-2.14655-8.44087-3.75646s19.69537-1.82457,23.91581-1.82457S665.6036,26.67042,667.57314,28.38766Z"/><path class="cls-2" d="M738.62486,35.00956s1.40681,3.21982-.28136,3.43448a140.671,140.671,0,0,1-24.19717.85862c-10.69177-.75129-9.84769-2.14655-8.44087-3.75646s19.69537-1.82457,23.91581-1.82457S736.65533,33.29232,738.62486,35.00956Z"/><path class="cls-2" d="M965.3601,25.59537a22.08949,22.08949,0,0,1,.56272,3.43448c0,1.07327-.84409,1.71724-5.62725,1.93189s-17.72584,1.07327-21.38355.644-5.90861-.75129-5.90861-2.14655-.56273-3.43448,4.5018-3.86379,21.94627-1.82457,24.7599-1.39526S965.3601,25.59537,965.3601,25.59537Z"/><path class="cls-2" d="M885.64353,5.33452a22.08948,22.08948,0,0,1,.56273,3.43448c0,1.07327-.84409,1.71724-5.62725,1.93189s-17.72584,1.07327-21.38355.644-5.90861-.75129-5.90861-2.14655-.56273-3.43448,4.5018-3.86379S879.73492,3.51,882.54854,3.93927,885.64353,5.33452,885.64353,5.33452Z"/><path class="cls-2" d="M1005.30564,25.65624s-15.7563.322-19.69537.53664-8.15951-.322-9.0036.42931-1.96954,2.57586-1.68817,3.5418,3.65771,1.07327,6.19,1.28793,15.19357.42931,21.38355.42931,5.06453.21465,6.7527-.644S1012.05834,25.44158,1005.30564,25.65624Z"/><path class="cls-2" d="M1071.15846,21.04027s-15.7563.322-19.69537.53664-8.15951-.322-9.0036.42931-1.96954,2.57586-1.68818,3.5418,3.65771,1.07327,6.19,1.28793,15.19357.42931,21.38355.42931,5.06453.21465,6.7527-.644S1077.91116,20.82562,1071.15846,21.04027Z"/><path class="cls-2" d="M1073.73458,98.16683s.56273,2.57586-.56273,3.11249-8.72224.644-11.2545.644-6.7527.21465-7.59679-.75129-1.96954-3.11249,2.2509-3.75646a81.62318,81.62318,0,0,1,15.19357-.21465C1073.45322,97.52286,1073.73458,98.16683,1073.73458,98.16683Z"/><path class="cls-2" d="M1066.22505,59.83725s.56273,2.57586-.56273,3.11249-8.72224.644-11.2545.644-6.7527.21465-7.59679-.75129-1.96954-3.11249,2.2509-3.75646a81.62319,81.62319,0,0,1,15.19358-.21465C1065.94369,59.19329,1066.22505,59.83725,1066.22505,59.83725Z"/><path class="cls-2" d="M1098.68055,91.23426s0,3.43448-.41468,4.07844-4.00858,1.71724-8.98474.85862-4.56148-2.57586-4.42326-3.97111.41468-2.03922,2.62631-2.03922h9.67587C1097.85119,90.161,1098.68055,91.23426,1098.68055,91.23426Z"/><path class="cls-2" d="M1041.733,92.76636a2.681,2.681,0,0,1-2.2509,2.57586c-2.2509.42931-21.94627.10733-23.63445-.10733s-1.96954-.75129-1.68818-2.14655-.56273-2.46853,4.22044-2.46853,18.56992.42931,19.69537.53664S1041.733,91.15645,1041.733,92.76636Z"/><path class="cls-2" d="M611.50175,17.84626s.84409,2.25387,0,2.89784-7.31542.85862-9.56632.53664-3.095-.85862-2.2509-1.39526,4.22044-1.28793,4.22044-1.93189,4.78316-.85862,6.19-.75129S611.50175,17.84626,611.50175,17.84626Z"/><path class="cls-2" d="M780.755.67032s.84409,2.25387,0,2.89784-7.31542.85862-9.56632.53664-3.095-.85862-2.2509-1.39526,4.22044-1.28793,4.22044-1.93189,4.78316-.85862,6.19-.75129S780.755.67032,780.755.67032Z"/><path class="cls-2" d="M998.18529,91.46951s.56273,1.39526-1.96954,1.93189-2.81362.96595-6.47134.96595-14.63085.322-15.7563.10733-3.095-2.57586,0-2.89784a45.51163,45.51163,0,0,1,7.03406-.53664c3.65771,0,13.5054,0,14.63085.10733S997.62257,91.0402,998.18529,91.46951Z"/><path class="cls-2" d="M998.18529,91.0402s.56273,1.39526-1.96954,1.93189-2.81362.96595-6.47134.96595-14.63085.322-15.7563.10733-3.095-2.57586,0-2.89784a45.51163,45.51163,0,0,1,7.03406-.53664c3.65771,0,13.5054,0,14.63085.10733S997.62257,90.61089,998.18529,91.0402Z"/><path class="cls-2" d="M1016.49388,98.79282s.84409,2.25387.56273,3.21982-1.40681,2.03922-5.06453,1.82457-25.88535-.21465-27.29216-.644-1.40681-3.21982-.84409-4.07844,2.53226-1.60991,7.59679-1.39526,20.2581.42931,21.94627.53664A15.1505,15.1505,0,0,1,1016.49388,98.79282Z"/><path class="cls-2" d="M1015.91623,97.92281s.84409,2.25387.56273,3.21982-1.40681,2.03922-5.06452,1.82457-25.88535-.21465-27.29216-.644-1.40681-3.21982-.84409-4.07844,2.53226-1.60991,7.59679-1.39526,20.2581.42931,21.94627.53664A15.15048,15.15048,0,0,1,1015.91623,97.92281Z"/><path class="cls-2" d="M978.98309,100.70282a7.12121,7.12121,0,0,1-.56273,3.75646c-.84409,1.39526-.84409,1.82457-3.93907,2.03922s-18.0072.10733-19.69537-.21465-2.81362-3.5418-.56273-4.61508a12.34981,12.34981,0,0,1,6.47134-1.71724C964.07087,99.8442,978.139,98.87825,978.98309,100.70282Z"/><path class="cls-2" d="M978.98309,100.27351a7.12121,7.12121,0,0,1-.56273,3.75646c-.84409,1.39526-.84409,1.82457-3.93907,2.03922s-18.0072.10733-19.69537-.21465-2.81362-3.5418-.56273-4.61508a12.34981,12.34981,0,0,1,6.47134-1.71724C964.07087,99.41489,978.139,98.44894,978.98309,100.27351Z"/><path class="cls-2" d="M965.68175,88.03121s.56273,2.14655,0,3.11249-3.93907,1.07327-6.19,1.07327-25.04126.10733-26.72944-.21465-2.53226-2.03922-1.96954-3.86379,1.40681-1.93189,5.06452-1.93189,20.2581-.322,23.07172-.10733S963.43085,86.314,965.68175,88.03121Z"/><path class="cls-2" d="M965.68175,87.6019s.56273,2.14655,0,3.11249-3.93907,1.07327-6.19,1.07327-25.04126.10733-26.72944-.21465-2.53226-2.03922-1.96954-3.86379,1.40681-1.93189,5.06452-1.93189,20.2581-.322,23.07172-.10733S963.43085,85.88466,965.68175,87.6019Z"/><path class="cls-2" d="M1094.05927,101.82637s0,2.89784-.41642,3.21982-2.91493.53664-6.03807.42931-5.72575,0-5.72575-1.71724.41642-3.11249,1.24925-3.21982,8.22426,0,9.16121.10733S1093.747,100.64577,1094.05927,101.82637Z"/><path class="cls-2" d="M987.13653,70.9888s0,2.89784-1.12545,3.21982-7.87815.53664-16.319.42931-15.47494,0-15.47494-1.71724,1.12545-3.11249,3.37635-3.21982,22.22764,0,24.7599.10733S986.29244,69.80819,987.13653,70.9888Z"/><path class="cls-2" d="M1031.3347,26.45612s1.12545,1.07327,0,1.71724-7.31542.53664-8.44087.21465-1.68818-2.03922.28136-2.3612A22.09406,22.09406,0,0,1,1031.3347,26.45612Z"/><path class="cls-2" d="M1085.6344,9.28018s1.12545,1.07327,0,1.71724-7.31542.53664-8.44087.21465-1.68818-2.03922.28136-2.3612A22.09406,22.09406,0,0,1,1085.6344,9.28018Z"/><path class="cls-2" d="M982.45322,80.22821s1.12545,1.82457,0,2.57586-3.37635.85862-6.7527.96595-12.66131.10733-14.34949-.42931-1.96954-2.68318-.28136-3.21982,17.44447-.42931,18.85129-.322S981.8905,79.7989,982.45322,80.22821Z"/><path class="cls-2" d="M1097.98449,72.52733s1.12545,1.82457,0,2.57586-3.37635.85862-6.7527.96595-12.66131.10733-14.34949-.42931-1.96954-2.68318-.28136-3.21982,17.44447-.42931,18.85129-.322S1097.42176,72.098,1097.98449,72.52733Z"/><path class="cls-2" d="M1058.73139,68.33979s-13.224.21465-16.03766.322-5.06453.10733-5.06453,1.82457-.56273,3.11249.56273,3.5418a21.25268,21.25268,0,0,0,5.90861.96595c1.96954,0,9.56633.21465,12.66131.21465s10.12905.10733,11.2545-.96595,3.095-4.40042.84409-4.7224S1066.8909,68.55444,1058.73139,68.33979Z"/><path class="cls-2" d="M1014.82951,63.50347s-13.224.21465-16.03766.322-5.06452.10733-5.06452,1.82457-.56273,3.11249.56272,3.5418a21.25268,21.25268,0,0,0,5.90861.96595c1.96954,0,9.56633.21465,12.66131.21465s10.12905.10733,11.2545-.96595,3.095-4.40042.84409-4.7224S1022.989,63.71812,1014.82951,63.50347Z"/><path class="cls-2" d="M1036.98715,7.1792s-3.93907-.42931-6.19-.42931-3.93908.21465-4.22044.75129-1.12545,2.25387.28136,2.57586a53.79819,53.79819,0,0,0,8.44087.42931C1036.98715,10.399,1041.489,8.14515,1036.98715,7.1792Z"/><path class="cls-2" d="M756.24618,3.88533s-3.93907-.42931-6.19-.42931-3.93907.21465-4.22044.75129-1.12545,2.25387.28136,2.57586a53.79819,53.79819,0,0,0,8.44087.42931C756.24618,7.10516,760.748,4.85128,756.24618,3.88533Z"/><path class="cls-2" d="M909.22058,7.1258s-6.47134-.21465-9.0036-.10733-3.65771.21465-3.37635,1.60991-1.12545,3.43448-.28136,4.18577,1.40681.96595,5.62725.85862,10.97314,0,11.81722-.96595S912.59693,7.34046,909.22058,7.1258Z"/><path class="cls-2" d="M927.70559,15.51051s-6.47134-.21465-9.0036-.10733-3.65771.21465-3.37635,1.60991-1.12545,3.43448-.28136,4.18577,1.40681.96595,5.62725.85862,10.97314,0,11.81722-.96595S931.08194,15.72516,927.70559,15.51051Z"/><path class="cls-2" d="M816.559,32.70443c-.55555-.03418-15.19357-.644-18.28856-.21465s-3.095.85862-2.81362,1.93189,0,1.82457,2.81362,1.93189,15.47494.644,18.0072.53664S825.28124,33.24106,816.559,32.70443Z"/><path class="cls-2" d="M878.94589,24.3425c-.55555-.03418-15.19357-.644-18.28856-.21465s-3.095.85862-2.81362,1.93189,0,1.82457,2.81362,1.93189,15.47494.644,18.0072.53664S887.66812,24.87914,878.94589,24.3425Z"/><path class="cls-2" d="M773.21985,38.90841s-11.2545.10733-12.94267,0-3.65771-1.1806-2.81362-3.64913c0,0,0-1.93189,3.93907-2.03922s12.66131-.21465,15.47494.322S780.53527,38.69376,773.21985,38.90841Z"/><path class="cls-2" d="M841.3833,27.68193s-11.2545.10733-12.94267,0-3.65771-1.1806-2.81362-3.64913c0,0,0-1.93189,3.93907-2.03922s12.66131-.21465,15.47494.322S848.69872,27.46728,841.3833,27.68193Z"/><path class="cls-2" d="M729.20319,44.87585s1.12545,3.32715-.84409,4.18577-9.0036.75129-13.5054.53664-5.06452-1.28793-4.78316-3.32715,1.96954-2.03922,7.03406-2.03922S728.64046,43.48059,729.20319,44.87585Z"/><path class="cls-2" d="M756.93069,45.10759s1.12545,3.32715-.84409,4.18577-9.0036.75129-13.5054.53664-5.06452-1.28793-4.78316-3.32715,1.96954-2.03922,7.03406-2.03922S756.368,43.71234,756.93069,45.10759Z"/><path class="cls-2" d="M719.0914,7.20163s1.12545,2.25387.28136,3.64913-6.19,1.82457-11.53586,1.93189-18.85129.53664-19.414-.85862S686.172,7.73826,692.0806,6.987a85.038,85.038,0,0,1,14.63085-.644C709.24371,6.55766,718.24731,6.23568,719.0914,7.20163Z"/><path class="cls-2" d="M1033.33644,51.7238s1.12545,2.25387.28136,3.64913-6.19,1.82457-11.53586,1.93189-18.85129.53664-19.414-.85862-2.2509-4.18577,3.65771-4.93706a85.038,85.038,0,0,1,14.63085-.644C1023.48875,51.07983,1032.49235,50.75785,1033.33644,51.7238Z"/><path class="cls-2" d="M815.567,24.0328s1.12545,2.25387.28136,3.11249-9.56632,1.07327-12.94267.85862-5.06452-.42931-5.34589-1.71724-.84409-2.57586,3.37635-2.68318S814.72292,22.53022,815.567,24.0328Z"/><path class="cls-2" d="M745.67059,8.39931s1.12545,2.25387.28136,3.11249-9.56632,1.07327-12.94267.85862-5.06452-.42931-5.34589-1.71724S726.8193,8.07733,731.03974,7.97,744.8265,6.89673,745.67059,8.39931Z"/><path class="cls-2" d="M708.06787,24.80688s.84409,3.64913,0,4.07844a15.122,15.122,0,0,1-7.59679-.10733c-2.2509-.85862-1.96954-3.32715-.84409-3.86379S706.94242,24.05558,708.06787,24.80688Z"/><path class="cls-2" d="M776.23132,43.10735s.84409,3.64913,0,4.07844a15.122,15.122,0,0,1-7.59679-.10733c-2.2509-.85862-1.96954-3.32715-.84409-3.86379S775.10587,42.35606,776.23132,43.10735Z"/><path class="cls-2" d="M655.79977,19.96486a3.28485,3.28485,0,0,1,.84409,3.64913c-.84409,2.25387-16.60039,1.39526-21.94627,1.1806s-10.129-.42931-8.72224-2.79051.84409-2.68318,8.15951-2.46853,16.319.10733,18.85129.10733S655.79977,19.96486,655.79977,19.96486Z"/><path class="cls-2" d="M586.481,26.14607a3.28485,3.28485,0,0,1,.84409,3.64913c-.84409,2.25387-16.60039,1.39526-21.94627,1.1806s-10.129-.42931-8.72224-2.79051.84409-2.68318,8.15951-2.46853,16.319.10733,18.85129.10733S586.481,26.14607,586.481,26.14607Z"/><path class="cls-2" d="M622.83557,26.36642s.56273,3.32715-.84409,3.97111-5.34589.85862-9.84769.96595-11.81722.322-14.34949-.322-3.37635-4.93706.56272-5.36637S619.17786,24.86383,622.83557,26.36642Z"/><path class="cls-2" d="M784.00168,23.51325s.56273,3.32715-.84409,3.97111-5.34589.85862-9.84769.96595-11.81722.322-14.34949-.322-3.37635-4.93706.56273-5.36637S780.344,22.01067,784.00168,23.51325Z"/><path class="cls-2" d="M690.4833,22.31076v2.14655c0,.42931-1.68817,1.50258-3.93907,1.71724s-13.78676-.21465-15.47494-.322-3.65771-.644-3.095-2.25387-.28136-2.03922.84409-2.46853,16.03766-.42931,17.72584-.322S690.20194,21.23748,690.4833,22.31076Z"/><path class="cls-2" d="M744.20534,22.9832v2.14655c0,.42931-1.68817,1.50258-3.93907,1.71724s-13.78676-.21465-15.47494-.322-3.65771-.644-3.095-2.25387-.28136-2.03922.84409-2.46853,16.03766-.42931,17.72584-.322S743.924,21.90993,744.20534,22.9832Z"/><path class="cls-2" d="M936.86457,43.54894a2.23076,2.23076,0,0,1-1.68817,3.00517c-2.53226.644-10.69177.21465-15.7563.322s-11.81722.10733-12.66131-1.07327-.28136-2.46853-.56272-3.32715,1.68817-1.1806,3.37635-1.1806,11.53586,0,13.78676.10733,7.87815.21465,9.84769.21465A3.79832,3.79832,0,0,1,936.86457,43.54894Z"/><path class="cls-2" d="M945.52941,51.7133a2.23076,2.23076,0,0,1-1.68817,3.00517c-2.53226.644-10.69177.21465-15.7563.322s-11.81722.10733-12.66131-1.07327-.28136-2.46853-.56273-3.32715,1.68817-1.1806,3.37635-1.1806,11.53586,0,13.78676.10733,7.87815.21465,9.84769.21465A3.79832,3.79832,0,0,1,945.52941,51.7133Z"/><path class="cls-2" d="M877.64033,32.81442a25.17618,25.17618,0,0,0,1.96954,2.79051c.56273.53664.84409,1.1806-1.40681,1.50258s-12.94267,1.28793-16.03766,1.39526-9.56632.21465-11.53586.42931-3.93907-.644-3.93907-1.60991-1.96954-2.46853,2.53226-3.11249,15.19357-1.39526,17.44447-1.60991a74.84506,74.84506,0,0,1,7.87815-.42931C875.95215,32.27779,875.95215,31.9558,877.64033,32.81442Z"/><path class="cls-2" d="M896.703,39.65668a25.17618,25.17618,0,0,0,1.96954,2.79051c.56273.53664.84409,1.1806-1.40681,1.50258S884.323,45.2377,881.22805,45.345s-9.56632.21465-11.53586.42931-3.93907-.644-3.93907-1.60991-1.96954-2.46853,2.53226-3.11249S883.479,39.65668,885.72985,39.442a74.84506,74.84506,0,0,1,7.87815-.42931C895.01481,39.12,895.01481,38.79806,896.703,39.65668Z"/><path class="cls-2" d="M921.56507,27.17555s1.12545,2.68318.28136,3.32715-3.37635.85862-6.47134.75129-9.285-.322-12.37995-.10733-8.44087.10733-9.0036-.322-1.40681-3.43448-.56272-4.07844,2.2509-.53664,5.62725-.75129,13.224-.42931,16.60039-.322S920.15826,25.88763,921.56507,27.17555Z"/><path class="cls-2" d="M814.121,43.49287s1.12545,2.68318.28136,3.32715-3.37635.85862-6.47134.75129-9.285-.322-12.37995-.10733-8.44087.10733-9.0036-.322-1.40681-3.43448-.56273-4.07844,2.2509-.53664,5.62725-.75129,13.224-.42931,16.60039-.322S812.71418,42.20495,814.121,43.49287Z"/><path class="cls-2" d="M917.81311,33.57141a4.98123,4.98123,0,0,1,.28136,2.57586c-.28136,1.1806-3.65771,1.82457-6.7527,1.82457s-9.285.21465-11.2545-.322S898.11773,34.752,898.68046,34.43a38.43506,38.43506,0,0,1,9.56632-1.60991C911.06041,32.92745,916.68766,32.28348,917.81311,33.57141Z"/><path class="cls-2" d="M851.96029,42.39682a4.98122,4.98122,0,0,1,.28136,2.57586c-.28136,1.1806-3.65771,1.82457-6.7527,1.82457s-9.285.21465-11.2545-.322-1.96954-2.89784-1.40681-3.21982a38.43506,38.43506,0,0,1,9.56632-1.60991C845.20759,41.75285,850.83484,41.10889,851.96029,42.39682Z"/><path class="cls-2" d="M941.98631,75.943s.28136,2.14655-1.12545,2.68318a28.52185,28.52185,0,0,1-8.44087.644c-2.53226-.21465-11.53586.644-14.06812.322s-6.7527-.75129-6.7527-1.60991-.28136-3.75646,1.12545-4.07844a74.33772,74.33772,0,0,1,11.53586-.42931c5.06452.10733,11.53586.42931,13.224.644S941.42359,74.65511,941.98631,75.943Z"/><path class="cls-2" d="M1025.16882,76.17478s.28136,2.14655-1.12545,2.68318a28.52184,28.52184,0,0,1-8.44087.644c-2.53226-.21465-11.53586.644-14.06813.322s-6.7527-.75129-6.7527-1.60991-.28136-3.75646,1.12545-4.07844a74.33772,74.33772,0,0,1,11.53586-.42931c5.06452.10733,11.53586.42931,13.224.644S1024.6061,74.88685,1025.16882,76.17478Z"/><path class="cls-2" d="M1097.30464,62.68774a5.739,5.739,0,0,1,.28136,2.57586c-.28136.85862,0,1.28793-4.22044,1.50258s-18.56992,0-19.69537-.10733-3.37635-1.39526-3.095-2.57586-1.96954-2.25387,4.78316-2.3612,16.03766,0,18.28856.10733S1097.02328,62.15111,1097.30464,62.68774Z"/><path class="cls-2" d="M1097.30464,50.13916a5.739,5.739,0,0,1,.28136,2.57586c-.28136.85862,0,1.28793-4.22044,1.50258s-18.56992,0-19.69537-.10733-3.37635-1.39526-3.095-2.57586-1.96954-2.25387,4.78316-2.3612,16.03766,0,18.28856.10733S1097.02328,49.60253,1097.30464,50.13916Z"/><path class="cls-2" d="M1082.119,37.697s-9.285.53664-12.09859.21465-3.095-1.39526-3.65771-2.46853-2.81363-3.5418,3.65771-3.43448,14.34949,0,15.47494.10733,5.62725.10733,5.34589,1.39526S1087.46489,37.375,1082.119,37.697Z"/><path class="cls-2" d="M1059.5904,46.96313s-9.285.53664-12.09859.21465-3.095-1.39526-3.65771-2.46853-2.81362-3.5418,3.65771-3.43448,14.34949,0,15.47494.10733,5.62725.10733,5.34589,1.39526S1064.93629,46.64114,1059.5904,46.96313Z"/><path class="cls-2" d="M1048.38677,103.35094s1.40681,3.00517-.84409,3.64913-11.2545.42931-13.224-1.50258-1.68818-3.21982-.28136-3.5418a79.46283,79.46283,0,0,1,12.38-.10733A3.03514,3.03514,0,0,1,1048.38677,103.35094Z"/><path class="cls-2" d="M1028.054,105.0235s1.96954,2.25387,1.12545,3.21982-3.095,1.1806-8.44087,1.28793-12.66131.644-15.7563,0-3.65771-4.07844-2.2509-4.61508,12.66131-.85862,17.72584-.85862S1025.80311,104.05755,1028.054,105.0235Z"/><path class="cls-2" d="M1086.84384,107.2537s.84409,2.68318,0,2.89784-25.604.644-27.57352-.21465-1.68818-3.43448-.84409-3.97111,11.53586-1.1806,16.60039-1.07327,8.72224.10733,10.41041.96595S1086.84384,107.2537,1086.84384,107.2537Z"/><path class="cls-2" d="M1017.39863,84.25841a1.95046,1.95046,0,0,1,0,2.25387c-.84409,1.07327-14.91221,1.39526-19.414,1.39526s-14.06812-.53664-14.63085-1.28793-.84409-1.82457,0-2.3612,28.699-.85862,30.38715-.85862S1016.55454,83.50712,1017.39863,84.25841Z"/><path class="cls-2" d="M1056.64473,82.48422s1.12545,3.21982,0,3.43448-16.60039.42931-18.85129.10733-3.37635-1.39526-3.095-3.11249S1057.20746,81.30362,1056.64473,82.48422Z"/><path class="cls-2" d="M1093.03708,81.39386s1.12545,3.21982,0,3.43448-16.60039.42931-18.85129.10733-3.37635-1.39526-3.095-3.11249S1093.5998,80.21325,1093.03708,81.39386Z"/><path class="cls-2" d="M1095.01921,18.06875s-6.19-.21465-8.15951.322-3.37635,1.39526-2.81363,2.89784,11.81723,1.60991,13.78676,1.07327S1098.39556,18.17607,1095.01921,18.06875Z"/><path class="cls-2" d="M1072.49062,14.99523s-6.19-.21465-8.15951.322-3.37635,1.39526-2.81363,2.89784,11.81722,1.60991,13.78676,1.07327S1075.867,15.10256,1072.49062,14.99523Z"/></g></g></g></svg>