<svg xmlns="http://www.w3.org/2000/svg" xmlns:xlink="http://www.w3.org/1999/xlink" viewBox="0 0 800.78035 618.51254"><defs><style>.cls-1,.cls-21{fill:none;}.cls-2{fill:#5f75a1;}.cls-3{fill:#7793cb;}.cls-4{fill:#dbd0bb;}.cls-5{fill:#da4d55;}.cls-17,.cls-20,.cls-6{fill:#fff;}.cls-7{fill:#c5798a;opacity:0.5;}.cls-8{fill:#d68d58;}.cls-9{fill:#ffa665;}.cls-10{fill:#755f55;}.cls-11{fill:#7e675c;}.cls-12{fill:#e4b5bd;}.cls-13{fill:#f6c2cb;}.cls-14{fill:#e69dc2;}.cls-15{fill:#fae8f0;}.cls-16{fill:#f5d1e1;}.cls-17,.cls-20{stroke:#fff;}.cls-17,.cls-18,.cls-19,.cls-20,.cls-21{stroke-miterlimit:10;}.cls-17{stroke-width:11px;}.cls-18{stroke:#040000;stroke-width:3px;}.cls-19{fill:#ef5c79;stroke:#000;}.cls-20{stroke-width:12px;}.cls-21{stroke:#060001;stroke-width:2px;}.cls-22{clip-path:url(#clip-path);}.cls-23{fill:#80685d;}.cls-24{fill:#fbc5cf;}.cls-25{fill:#2c112f;}.cls-26{fill:#e84e58;}.cls-27{font-size:28.35308px;fill:#f05c79;font-family:AdobeFanHeitiStd-Bold-B5pc-H, Adobe Fan Heiti Std;}</style><clipPath id="clip-path"><path class="cls-1" d="M297.98158,247.45506,342.367,220.1252c17.29652-10.65015,42.10308-2.27145,55.12594,18.61924l.00007.00011c13.02286,20.89069,9.52646,46.69679-7.77007,57.34694l1.05975-.68663c1.366,4.40181,3.85261,7.75819,5.2183,12.16,1.1548,3.72163-.74855,6.79856-4.43729,5.4344-5.32973-1.971-9.30135-6.58577-14.1196-9.77138l-32.10659,20.19347c-17.29634,10.65-42.103,2.27123-55.12583-18.61946l-.00007-.00011C277.18877,283.91108,280.68524,258.1051,297.98158,247.45506Z"/></clipPath></defs><title>資產 8</title><g id="圖層_2" data-name="圖層 2"><g id="圖層_1-2" data-name="圖層 1"><path class="cls-2" d="M49.27309,240.3745c2.57939-.23136,3.98488.94242,4.4677,2.4592a10.21321,10.21321,0,0,0,1.38947,3.16886c.49171.5898,2.09144.65517,3.613.226.98743-.27857,4.96559-1.25017,7.46269-2.12244,8.63415-1.68691,18.97168-3.11208,27.68988-3.978,13.22145-1.31319,38.05125,2.45115,44.92775,10.42424a32.69738,32.69738,0,0,1,2.80785,5.09256s-8.25273,1.894-28.3753,6.34812c-24.42162,5.40574-42.32454,9.49025-57.18832,8.28908-14.86378-1.201-17.18086-3.19026-18.79631-5.2555-1.6155-2.065-4.66866-7.83647-3.76261-10.77791s5.105-4.68341,7.73152-5.11428,6.76884-1.313,6.76884-1.313c-.79-.22847-2.118-2.63647-1.89811-3.56616C46.33105,243.32547,46.6937,240.60606,49.27309,240.3745Z"/><path class="cls-3" d="M200.555,341.78923a7.89712,7.89712,0,0,0-1.82939-2.73468c-1.59763-1.80151-25.92036-34.20721-25.92036-34.20721a5.46641,5.46641,0,0,1,.32414-5.70775c4.67679-6.245,5.89186-6.96531,11.33316-8.84239,8.82756-3.04535,19.03672-3.0495,26.00311,3.9088.02855.02852,2.114,3.562,2.13918,3.5964.60639.82636,21.24694,30.70714,21.81046,31.83235a13.8558,13.8558,0,0,1-1.56653,12.88863c-3.96823,6.04442-22.68883,19.69345-22.68883,19.69345s-6.86032,3.03063-9.32539.10931-3.13575-4.42127-3.13327-7.98664S200.555,341.78923,200.555,341.78923Z"/><path class="cls-2" d="M244.28686,249.385c-12.27833-5.10831-20.69521,4.46017-24.46879,7.71687-8.09393,6.98527.6907,17.46264,4.88561,23.7183a2.42657,2.42657,0,0,1,.401.37271c.93636,1.085,23.48778,30.66275,26.16111,33.13345,2.67315,2.4708,1.126,2.45378.37647,4.09232a24.579,24.579,0,0,0-.47758,16.36821c2.50694,8.02312,11.30153,1.6051,12.0999,1.27665.79825-.32828,18.81068-14.972,20.563-17.7464s5.73416-9.54624,2.5854-14.76175c-3.14892-5.21538-22.1952-31.4628-22.1952-31.4628S250.21733,251.85233,244.28686,249.385Z"/><path class="cls-3" d="M178.97466,313.08082c-14.41858-3.86386-26.09908-5.82061-45.4102-34.56562-6.97516-10.38267-10.46675-23.09967-11.2097-26.1674a124.185,124.185,0,0,1-2.7087-14.12626l69.39913-56.46941s3.63546,1.3146,8.11752,2.93732c6.10971,2.21184,7.73533,2.93146,10.69419,4.02152,1.40847.5189,4.961,1.451,6.70418,3.02706,8.02368,7.25477,13.49147,15.60908,18.80521,21.808,20.88137,24.35971,19.81388,39.98239,19.73664,41.19527-.00443.06955-3.174,16.8137-6.50158,23.36742-2.54842,5.01909-10.27484,12.19335-11.55265,13.299-1.27793,1.10585-16.20852,12.92482-16.20852,12.92482s-13.20854,8.56725-20.28912,9.83582A42.59654,42.59654,0,0,1,178.97466,313.08082Z"/><path class="cls-2" d="M234.37459,114.39263c-1.46067,2.13852-1.122,3.93809-.0337,5.09969a10.21321,10.21321,0,0,1,2.08788,2.75917c.27486.717-.44874,2.14523-1.56582,3.26391-.725.72593-3.51438,3.72413-5.4943,5.47805-5.68581,6.7131-11.9744,15.04072-16.98464,22.22782-7.59818,10.89949-16.42925,34.40909-12.82563,44.302a32.69738,32.69738,0,0,0,3.07482,4.936s5.68042-6.27913,19.38787-21.66948c16.636-18.67839,28.9376-32.31171,35.14258-45.87169,6.20516-13.55987,5.59952-16.5531,4.5852-18.971-1.01412-2.41781-4.56178-7.89917-7.57135-8.54373s-6.5791,2.17041-8.23691,4.25271-3.42763,4.55848-3.42763,4.55848-2.2892-2.42628-3.208-2.688C238.386,113.26473,235.83543,112.25421,234.37459,114.39263Z"/><path class="cls-4" d="M203.18994,264.45122s.119,11.38534-7.08957,19.38477-19.18321,12.764-27.39068,8.67148S142.59746,271.28079,147.85,254.50856s20.58466-20.40758,24.39294-19.84831,13.71917,2.24967,20.25136,10.65215S201.93979,259.16848,203.18994,264.45122Z"/><path class="cls-3" d="M230.722,113.71894c-1.38781,2.1865-.98871,3.97364.13809,5.09794a10.21321,10.21321,0,0,1,2.17963,2.68728c.29885.70734-.37623,2.15912-1.455,3.31479-.70014.74994-3.38695,3.84039-5.30667,5.66-5.45647,6.9008-11.461,15.43551-16.22631,22.7873-7.22675,11.14923-15.26093,34.94295-11.32614,44.7089a32.69739,32.69739,0,0,0,3.23933,4.82959s5.4657-6.4669,18.647-22.31022c15.99738-19.22814,27.83283-33.26808,33.57756-47.02936,5.7449-13.76119,5.03879-16.73231,3.94361-19.11464-1.095-2.38228-4.82525-7.741-7.85483-8.28385s-6.50226,2.39078-8.089,4.52774-3.27214,4.67134-3.27214,4.67134-2.36963-2.3478-3.29669-2.57847C234.69314,112.45657,232.11,111.53254,230.722,113.71894Z"/><path class="cls-3" d="M246.25875,247.78049c-12.27833-5.10831-20.69521,4.46017-24.46879,7.71687-8.09393,6.98527.6907,17.46264,4.88561,23.7183a2.42657,2.42657,0,0,1,.401.37271c.93636,1.085,23.48778,30.66275,26.16111,33.13345,2.67315,2.4708,1.126,2.45378.37647,4.09232a24.579,24.579,0,0,0-.47758,16.36822c2.50694,8.02312,11.30153,1.6051,12.0999,1.27665.79825-.32828,18.81068-14.972,20.563-17.7464s5.73416-9.54624,2.5854-14.76175c-3.14892-5.21538-22.1952-31.4628-22.1952-31.4628S252.18923,250.24782,246.25875,247.78049Z"/><path class="cls-2" d="M142.74448,44.79587C132.009,44.36216,97.238,41.18834,94.86743,48.52862A85.48976,85.48976,0,0,0,69.074,58.34243c-19.116,11.2554-39.72513,32.85382-51.9018,53.96042-8.1062-1.18159-12.2452,35.20349-14.05326,46.105-2.55036,15.37788,15.53856,85.17373,40.26536,92.63739,7.83606,2.36524,9.28736-8.21186,7.61563-23.76289a80.83038,80.83038,0,0,0,49.9224,18.01679s16.20428,2.17663,30.93269-4.68713,62.976-41.7333,71.32207-63.88622,11.69-39.50421,1.90322-61.16726c-1.448-3.20516-3.09713-6.55707-4.94157-9.9782,15.04749,4.88767,25.85026,5.68286,25.12247-2.5266C222.98041,77.326,158.3197,45.42514,142.74448,44.79587Z"/><path class="cls-2" d="M26.39813,134.36787S65.2319,255.75372,40.5051,248.29-2.31059,171.03053.23977,155.65267,9.97825,74.1846,26.39813,134.36787Z"/><path class="cls-3" d="M98.04314,242.544s16.20427,2.1766,30.93267-4.68715,62.976-41.73328,71.32211-63.88626,11.68994-39.50419,1.90318-61.16723S173.67917,62.85966,144.553,50.715s-58.842-6.61887-78.35817,4.87219S25.59993,89.3504,13.53353,110.873s-7.1244,61.7581,2.7969,75.265S46.968,241.30955,98.04314,242.544Z"/><path class="cls-2" d="M113.707,63.32548s110.95581,62.70084,108.675,36.973-66.94147-57.62859-82.51667-58.25785S58.1188,35.01309,113.707,63.32548Z"/><ellipse class="cls-5" cx="55.95178" cy="207.14569" rx="11.44505" ry="5.72252" transform="translate(-118.18761 81.78457) rotate(-39.13492)"/><ellipse class="cls-5" cx="130.83727" cy="146.21208" rx="11.44505" ry="5.72252" transform="translate(-62.92977 115.37871) rotate(-39.13492)"/><path class="cls-6" d="M66.58573,204.569s-.7382,8.85831,5.38042,10.91394,13.29715.49627,21.0006-4.24276,32.40867-23.0064,37.20341-32.41293,3.0856-20.24936-4.16692-22.60571-27.97555,4.41311-37.9586,13.45374S67.14437,194.32763,66.58573,204.569Z"/><path d="M80.826,173.50624s3.45816,4.25,7.989,4.24875,8.68563-3.68905,8.89729-7.23964-2.87123-9.98357-5.36539-10.70075S75.591,168.24509,80.826,173.50624Z"/><path d="M119.81157,168.57018a1.37424,1.37424,0,0,0-1.4369.78119c-.99127,1.48213-8.14228,9.05987-11.07678,9.18629-3.53023.15214-9.74254-2.34264-12.77178-5.91008-.02511-.0298-.0553-.052-.08208-.07958-.03163-.03142-.06212-.06464-.09625-.09274-.03634-.02976-.07546-.05336-.11387-.07927-.0365-.02357-.07133-.04935-.10938-.06949-.04026-.0218-.08309-.03719-.1252-.05488-.03916-.0162-.07792-.034-.11842-.04655a1.19172,1.19172,0,0,0-.131-.029,1.27578,1.27578,0,0,0-.126-.02393c-.04347-.00447-.08711-.00274-.13045-.00385-.04438-.00026-.08805-.00284-.13209.00052-.04288.00371-.085.01371-.128.02147a1.32435,1.32435,0,0,0-.13157.02564c-.04229.01189-.08316.03085-.1252.04731-.04131.01629-.08327.02965-.1236.05034a1.33888,1.33888,0,0,0-.1169.07347c-.03475.02222-.07143.03994-.1049.06587l-.02189.01781-.001.00085-.02189.01781c-.03219.02749-.057.0598-.08582.08932a1.33886,1.33886,0,0,0-.0957.09952,1.30029,1.30029,0,0,0-.07441.11078,1.27955,1.27955,0,0,0-.07156.11322,1.16863,1.16863,0,0,0-.05207.12335c-.016.0399-.0347.07976-.047.121-.01224.04244-.01859.08572-.02736.12923-.00773.04266-.01829.085-.02275.12851a1.27577,1.27577,0,0,0-.00219.12823,1.19172,1.19172,0,0,0,.00174.13413c.00381.04194.01391.08309.0215.12541a1.33774,1.33774,0,0,0,.02828.13375c.012.04134.02994.08043.0459.12028a1.30366,1.30366,0,0,0,.05437.12855c.02057.03912.0469.07573.07123.11309.02156.03182.03716.0659.06123.09654,2.87708,3.69124,4.05678,10.281,3.19012,13.70659-.7192,2.85-9.59368,8.30861-11.24534,8.977a1.37608,1.37608,0,0,0,.22373,2.71242c.81337.05442,5.41242-2.48825,9.07615-5.46939,2.27557-1.85161,4.18985-3.8726,4.61329-5.54486a20.42859,20.42859,0,0,0-.77846-10.31911,20.42859,20.42859,0,0,0,9.94534,2.86011c1.72384-.0741,4.09139-1.53806,6.36748-3.39009,3.66321-2.98072,7.0883-6.96721,7.20038-7.77466A1.37521,1.37521,0,0,0,119.81157,168.57018Z"/><circle class="cls-6" cx="102.71955" cy="129.29072" r="21.42091" transform="translate(-58.55775 93.83615) rotate(-39.13492)"/><circle cx="98.93739" cy="130.77228" r="14.79776" transform="translate(-60.34133 91.78141) rotate(-39.13492)"/><ellipse cx="118.70841" cy="136.53179" rx="2.74481" ry="1.51048" transform="translate(-4.77817 4.30592) rotate(-2.03708)"/><ellipse cx="119.73758" cy="132.40254" rx="2.74481" ry="1.51048" transform="translate(-4.63074 4.3399) rotate(-2.03708)"/><circle class="cls-6" cx="44.62396" cy="176.56255" r="21.42091" transform="translate(-101.42636 67.77406) rotate(-39.13492)"/><circle cx="46.84351" cy="173.16057" r="14.79776" transform="translate(-98.78128 68.41174) rotate(-39.13492)"/><ellipse cx="48.46323" cy="193.68962" rx="2.74481" ry="1.51048" transform="translate(-151.19497 194.66664) rotate(-76.23276)"/><ellipse cx="44.21098" cy="193.85781" rx="2.74481" ry="1.51048" transform="translate(-154.59864 190.66472) rotate(-76.23276)"/><ellipse class="cls-7" cx="433.32682" cy="589.66308" rx="265.08785" ry="28.84946"/><path class="cls-8" d="M781.43192,221.21736c-2.37532.593-3.26665,2.077-3.22764,3.58126a9.65507,9.65507,0,0,1-.25854,3.26077c-.25629.67917-1.66471,1.23347-3.15661,1.32191-.9682.05732-4.82221.42285-7.32272.418-8.2339,1.17008-17.90791,3.102-25.96238,5.0313-12.21486,2.92591-33.22281,13.98507-36.89237,23.23739a30.9105,30.9105,0,0,0-.92892,5.41849s7.95746-.86691,27.30925-3.12708c23.48617-2.743,40.74106-4.64523,53.64319-10.32578,12.90219-5.68037,14.35483-8.17527,15.15732-10.52048.80259-2.34505,1.74014-8.44587.01911-10.79192s-6.011-2.60008-8.49028-2.17065-6.45211.9258-6.45211.9258c.63474-.449,1.07421-3.01116.58964-3.77328C784.9742,222.94077,783.8073,220.62455,781.43192,221.21736Z"/><path class="cls-9" d="M689.75316,366.44455a7.46555,7.46555,0,0,1,.47352-3.0741c.64815-2.18205,8.52473-39.66737,8.52473-39.66737a5.16768,5.16768,0,0,0-2.5601-4.7597c-6.50347-3.47939-7.83234-3.61049-13.244-3.04254-8.77956.92132-17.52649,5.00024-20.71145,13.74654-.01305.03584-.38651,3.8966-.3943,3.93613-.189.95036-5.92105,34.80035-5.95382,35.98956a13.09859,13.09859,0,0,0,6.49586,10.4141c5.8163,3.59088,27.31057,7.79671,27.31057,7.79671s7.08852-.14726,8.03193-3.63544.91812-5.04124-.50974-8.09438S689.75316,366.44455,689.75316,366.44455Z"/><path class="cls-8" d="M615.3411,304.7778c8.475-9.28573,19.51128-4.455,24.04607-3.17432,9.72664,2.747,6.39137,15.23487,5.2995,22.271a2.294,2.294,0,0,0-.19442.4796c-.36823,1.30383-7.85833,35.6584-9.16034,38.84385-1.30181,3.18546.01666,2.55221,1.314,3.65607a23.23578,23.23578,0,0,1,6.95448,13.8302c1.06085,7.87517-9.03915,5.89424-9.85438,5.93215-.81506.038-22.10047-5.30307-24.711-6.97893s-8.72933-5.88441-8.11766-11.6112c.61185-5.72674,6.43117-35.82685,6.43117-35.82685S611.24764,309.26284,615.3411,304.7778Z"/><path class="cls-9" d="M696.7591,333.223c10.806-9.07558,20.02917-15.42259,25.07661-47.76806,1.82313-11.68315-.27126-23.97289-.86158-26.89783a117.39838,117.39838,0,0,0-3.32857-13.18386l-82.02919-20.62068s-2.58848,2.57986-5.779,5.7622c-4.34916,4.33786-5.45392,5.60435-7.55261,7.72131-.999,1.00772-3.66941,3.22678-4.5324,5.2739-3.9721,9.423-5.31511,18.76592-7.38808,26.20082-8.14614,29.21689-.98447,42.17256-.43328,43.18064.0316.0578,9.4424,13.13356,14.91357,17.41688,4.19006,3.28033,13.67746,6.33621,15.21419,6.77237,1.5369.43626,19.05281,4.59,19.05281,4.59s14.74047,2.05692,21.313.31218A40.26867,40.26867,0,0,0,696.7591,333.223Z"/><path class="cls-8" d="M601.79522,312.50541c1.417-1.99647,1.12751-3.70318.11862-4.81964a9.65506,9.65506,0,0,1-1.92651-2.64349c-.24759-.68239.46065-2.02,1.53554-3.05839.69762-.67381,3.38515-3.46024,5.28641-5.08436,5.48844-6.24846,11.57409-14.01271,16.432-20.72069,7.36723-10.17289,16.11434-32.24385,12.87654-41.65595a30.91049,30.91049,0,0,0-2.82233-4.71778s-5.476,5.83837-18.69407,20.15206c-16.04207,17.37171-27.90152,30.04859-33.99717,42.75987-6.09582,12.71118-5.57429,15.55067-4.65671,17.85329.91741,2.30256,4.17738,7.54389,7.01105,8.20433s6.25548-1.93953,7.85786-3.8795,3.31735-4.25034,3.31735-4.25034,2.12246,2.33226,2.98643,2.59532C597.98442,313.50324,600.378,314.50177,601.79522,312.50541Z"/><path class="cls-4" d="M656.56987,301.24968s4.45085,9.80039,13.82465,13.77018,21.53666,3.26276,26.93072-3.525S711.205,282.87,699.99875,270.60315s-25.79369-9.24987-28.83226-7.24792-10.85238,7.41316-13.0879,17.22293S655.52827,296.22453,656.56987,301.24968Z"/><path class="cls-9" d="M599.65976,311.14257c1.417-1.99647,1.12751-3.70318.11862-4.81964a9.65507,9.65507,0,0,1-1.92651-2.64349c-.24759-.68239.46065-2.02,1.53554-3.05839.69762-.67381,3.38515-3.46024,5.28641-5.08436,5.48844-6.24846,11.57409-14.01271,16.432-20.7207,7.36723-10.17289,16.11434-32.24385,12.87654-41.65595a30.91049,30.91049,0,0,0-2.82233-4.71778s-5.476,5.83837-18.69407,20.15206c-16.04207,17.37171-27.90152,30.04859-33.99717,42.75987-6.09582,12.71118-5.57429,15.55067-4.65671,17.85329.91741,2.30256,4.17738,7.54389,7.01105,8.20433s6.25548-1.93953,7.85786-3.8795,3.31735-4.25034,3.31735-4.25034,2.12246,2.33226,2.98643,2.59532C595.849,312.1404,598.24259,313.13894,599.65976,311.14257Z"/><path class="cls-9" d="M613.01034,304.19189c8.475-9.28573,19.51128-4.455,24.04607-3.17432,9.72664,2.747,6.39137,15.23487,5.2995,22.271a2.294,2.294,0,0,0-.19442.4796c-.36823,1.30383-7.85833,35.6584-9.16034,38.84385-1.30181,3.18546.01666,2.55221,1.314,3.65607a23.23578,23.23578,0,0,1,6.95448,13.8302c1.06085,7.87517-9.03915,5.89424-9.85438,5.93215-.81506.038-22.10047-5.30307-24.711-6.97893s-8.72933-5.88441-8.11766-11.6112c.61185-5.72674,6.43117-35.82685,6.43117-35.82685S608.91688,308.67693,613.01034,304.19189Z"/><path class="cls-8" d="M620.10468,97.85858a83.85691,83.85691,0,0,1,6.62383-6.49367c.112-.79882.35736-1.60872.52219-2.29023a38.76914,38.76914,0,0,1,1.4323-4.56831,4.10827,4.10827,0,0,1,.06686-1.37919,192.02157,192.02157,0,0,1,13.29641-39.9506,4.32636,4.32636,0,0,1,.21862-.41146c.61428-2.05962,1.84686-3.54567,4.23781-3.74767,3.17668-.26861,6.009,2.53645,7.5636,4.987.111.17491.21715.34944.32177.52378a37.16265,37.16265,0,0,1,3.49871,3.33244,25.2685,25.2685,0,0,1,4.065,6.57483c4.2452,4.69,10.80721,12.28186,14.13694,16.151a77.01131,77.01131,0,0,1,13.16869.08381c15.438,1.47739,33.82617,7.48023,50.00314,15.84027,6.24789-2.40709,20.63708-7.90929,24.55707-9.05356a22.12664,22.12664,0,0,1,2.98473-1.38627,37.19694,37.19694,0,0,1,4.65865-1.28183c.175-.104.3511-.20761.5312-.30936,2.529-1.424,6.35071-2.55635,9.02312-.81738,2.01083,1.30853,2.39416,3.20079,1.96146,5.30606a4.13785,4.13785,0,0,1-.00194.46593,192.02158,192.02158,0,0,1-7.1761,41.48914,4.3832,4.3832,0,0,1-.31707.78214c7.1621,14.89792,10.66171,31.66308,8.80866,40.95929-3.101,15.55446-4.18545,59.57711-47.49355,81.0812,0,0-13.02641,8.35287-28.40551,8.36273S637.67336,241.5294,621.64621,225.873s-25.84248-29.19769-26.12208-51.69251C595.24339,151.68535,599.98832,119.93355,620.10468,97.85858Z"/><path class="cls-9" d="M621.92239,94.461a83.85692,83.85692,0,0,1,6.62383-6.49367c.112-.79882.35736-1.60872.52219-2.29023a38.76916,38.76916,0,0,1,1.4323-4.56831,4.10827,4.10827,0,0,1,.06686-1.37919A192.02158,192.02158,0,0,1,643.864,39.779a4.32638,4.32638,0,0,1,.21862-.41146c.61428-2.05962,1.84686-3.54567,4.23781-3.74767,3.17668-.26861,6.009,2.53645,7.5636,4.987.111.17491.21715.34944.32177.52378a37.16266,37.16266,0,0,1,3.49871,3.33244,25.2685,25.2685,0,0,1,4.065,6.57483c4.2452,4.69,10.80721,12.28186,14.13694,16.151a77.01131,77.01131,0,0,1,13.16869.08381c15.438,1.47739,33.82617,7.48023,50.00314,15.84027,6.24789-2.40709,20.63708-7.90929,24.55707-9.05356a22.12664,22.12664,0,0,1,2.98473-1.38627,37.19694,37.19694,0,0,1,4.65865-1.28183c.175-.104.3511-.20761.5312-.30936,2.529-1.424,6.35071-2.55635,9.02312-.81738,2.01083,1.30853,2.39416,3.20079,1.96146,5.30606a4.13782,4.13782,0,0,1-.00194.46593,192.02158,192.02158,0,0,1-7.1761,41.48914,4.3832,4.3832,0,0,1-.31707.78214c7.1621,14.89792,10.66171,31.66308,8.80866,40.95929-3.101,15.55446-4.18545,59.57711-47.49355,81.0812,0,0-13.02641,8.35287-28.40551,8.36273s-70.71791-10.57925-86.74506-26.23567-25.84248-29.19769-26.12208-51.69251C597.06111,148.28779,601.806,116.536,621.92239,94.461Z"/><path class="cls-6" d="M674.54218,178.39476s-6.88674,4.30175-5.04673,9.90348,6.90512,10.00321,14.58429,13.05083,34.55281,11.14383,44.05812,9.51133,16.50675-8.81018,14.267-15.40615-18.52154-18.06255-30.595-20.42728S682.343,173.20558,674.54218,178.39476Z"/><path d="M705.06031,171.83778s-1.22022,4.854,1.25727,8.16941,7.44759,4.34039,10.16189,2.55452,5.73736-7.5585,4.89892-9.776S706.04934,165.13058,705.06031,171.83778Z"/><circle class="cls-6" cx="746.54925" cy="167.40346" r="17.39131" transform="translate(402.19045 850.61405) rotate(-75.88924)"/><circle cx="746.54925" cy="167.40346" r="10.9461" transform="translate(402.19045 850.61405) rotate(-75.88924)"/><path d="M776.19334,156.99426s-2.688,5.02432-5.2002,3.6803-23.10744-15.78389-24.61252-18.29975,5.54084-7.86971,5.54084-7.86971,24.27559,19.64007,24.77728,20.47869S776.19334,156.99426,776.19334,156.99426Z"/><circle class="cls-6" cx="683.69475" cy="151.60295" r="17.39131" transform="translate(369.98344 777.70771) rotate(-75.88924)"/><circle cx="683.69475" cy="151.60295" r="10.9461" transform="translate(369.98344 777.70771) rotate(-75.88924)"/><path d="M662.49689,128.413s-.00741,5.69819,2.84168,5.70189,27.82448-2.98051,30.34034-4.48558-1.16073-9.55437-1.16073-9.55437-30.67728,5.82589-31.5159,6.32758S662.49689,128.413,662.49689,128.413Z"/><path class="cls-10" d="M708.18177,528.6049c-.38041-2.61675.73751-4.11542,2.25682-4.69266a10.42816,10.42816,0,0,0,3.15281-1.59414c.57375-.53435.55076-2.16895.028-3.69615-.33933-.99108-1.55282-4.9924-2.582-7.48933-2.20364-8.708-4.23589-19.16737-5.60724-28.00712-2.07969-13.40578.3667-38.93088,8.11-46.38831a33.38554,33.38554,0,0,1,5.03456-3.148s2.39337,8.30759,8.062,28.57309c6.8797,24.5951,12.0471,42.61838,11.65542,57.83942-.39147,15.221-2.28974,17.69478-4.30474,19.45747-2.0148,1.76273-7.72773,5.19886-10.77731,4.44s-5.06084-4.94213-5.64729-7.59575-1.71787-6.82731-1.71787-6.82731c-.18866.81826-2.56922,2.307-3.52936,2.135C711.35517,531.439,708.56239,531.22163,708.18177,528.6049Z"/><path class="cls-10" d="M689.63107,558.568a8.06332,8.06332,0,0,1,.446-3.32966c.65353-2.37009,8.36243-43.01648,8.36243-43.01648a5.58146,5.58146,0,0,0-2.86572-5.0854c-7.09681-3.619-8.53459-3.73236-14.36639-3.004-9.46114,1.1815-18.81992,5.77209-22.07334,15.28458-.01333.039-.33456,4.216-.34213,4.25886-.18389,1.03027-5.65426,37.70544-5.66437,38.99032a14.14741,14.14741,0,0,0,7.236,11.10773c6.35712,3.754,29.65736,7.83891,29.65736,7.83891s7.6515-.30968,8.59611-4.09648.88429-5.46336-.72249-8.73S689.63107,558.568,689.63107,558.568Z"/><path class="cls-10" d="M607.96561,493.558c8.95449-10.20744,20.9748-5.22554,25.899-3.93891,10.56181,2.75967,7.22561,16.31572,6.19609,23.937a2.47764,2.47764,0,0,0-.19976.522c-.36993,1.41578-7.728,38.67318-9.0663,42.1407-1.33807,3.46753.07224,2.75569,1.49661,3.92012a25.0963,25.0963,0,0,1,7.80383,14.7869c1.313,8.48155-9.63576,6.55709-10.51529,6.61535-.87935.05836-23.97818-5.25685-26.83277-7.01107s-9.55154-6.16881-9.01274-12.366c.539-6.1971,6.1833-38.82475,6.1833-38.82475S603.64056,498.48825,607.96561,493.558Z"/><path class="cls-11" d="M696.49042,522.54441c11.4761-10.03,21.30095-17.08,26.064-52.11591,1.72041-12.65494-.80245-25.88165-1.50208-29.02764a126.79861,126.79861,0,0,0-3.87461-14.166l-89.0185-20.524s-2.74037,2.84091-6.118,6.34521c-4.60429,4.77673-5.77037,6.16785-7.99167,8.49848-1.05737,1.10943-3.89388,3.56247-4.78227,5.79142-4.089,10.26-5.34073,20.37757-7.42122,28.4503-8.17573,31.72336-.16674,45.56148.44989,46.63836.03536.06175,10.47564,13.98174,16.47479,18.49086,4.59441,3.45324,14.90444,6.55153,16.57317,6.98986,1.66892.43843,20.672,4.55161,20.672,4.55161s15.9614,1.90789,23.02179-.11589A43.493,43.493,0,0,0,696.49042,522.54441Z"/><path class="cls-10" d="M593.50217,502.19068c1.48774-2.186,1.13885-4.02289.02566-5.20707a10.42816,10.42816,0,0,1-2.13655-2.81366c-.28187-.73162.4545-2.19114,1.59317-3.33528.739-.74245,3.58195-3.80853,5.60053-5.60277,5.79395-6.86413,12.20059-15.37779,17.30393-22.72475,7.73938-11.1419,16.71594-35.16141,13.01952-45.25637a33.38554,33.38554,0,0,0-3.148-5.03456s-5.78919,6.421-19.7587,22.15878c-16.954,19.1-29.49113,33.04136-35.80342,46.89735-6.31247,13.85589-5.689,16.91106-4.64914,19.37807,1.03961,2.467,4.67133,8.05758,7.74535,8.71053s6.71383-2.22738,8.403-4.35634,3.49194-4.66029,3.49194-4.66029,2.34154,2.47341,3.2801,2.73911C589.40824,503.34919,592.01425,504.3766,593.50217,502.19068Z"/><path class="cls-4" d="M652.412,488.87185s5.0146,10.48848,15.2214,14.57607,23.326,3.06558,29.00654-4.37892,14.37985-31.2059,2.01789-44.21424-28.05023-9.44036-31.28891-7.21394-11.56151,8.23585-13.76706,18.87657S651.18043,483.46751,652.412,488.87185Z"/><path class="cls-10" d="M782.92871,315.62235A87.42726,87.42726,0,0,0,772.832,292.96542c3.78328-1.22489,8.62282-4.78266,6.7701-10.56969-2.75534-8.60648-9.52186-11.02831-15.79971-9.02872a6.80058,6.80058,0,0,0-4.238,3.15325,89.45222,89.45222,0,0,0-29.51676-19.33779c-21.33829-8.36674-52.22093-11.46522-76.87192-7.95684a42.86859,42.86859,0,0,0-4.26023.84436,7.431,7.431,0,0,0-2.30272-3.72209c-4.7686-4.54645-11.91244-5.33178-18.15791,1.19948-3.74835,3.92045-1.92422,8.57951.54819,11.49622-16.55148,10.52948-30.8198,26.90988-33.89061,37.692-4.52856,15.904-24.68172,57.21733,6.28208,97.96466,0,0,8.40527,14.00244,23.07168,21.40571,14.6665,7.40286,72.55382,24.19631,95.37892,17.39431,22.8243-6.80219,38.70513-14.63089,49.79913-35.34039S791.49458,345.74772,782.92871,315.62235Z"/><path class="cls-11" d="M783.25192,310.36925a87.42726,87.42726,0,0,0-10.09675-22.65692c3.78328-1.22489,8.62282-4.78266,6.7701-10.56969-2.75534-8.60648-9.52186-11.02831-15.79971-9.02872a6.80058,6.80058,0,0,0-4.238,3.15325,89.45223,89.45223,0,0,0-29.51676-19.33779c-21.33829-8.36674-52.22093-11.46522-76.87192-7.95684a42.86859,42.86859,0,0,0-4.26023.84436,7.431,7.431,0,0,0-2.30272-3.72209c-4.7686-4.54645-11.91244-5.33178-18.15791,1.19948-3.74835,3.92045-1.92422,8.57951.54819,11.49622-16.55148,10.52948-30.8198,26.90988-33.89061,37.692-4.52856,15.904-24.68172,57.21733,6.28208,97.96466,0,0,8.40527,14.00244,23.07168,21.40571,14.6665,7.40286,72.55382,24.19631,95.37892,17.39431,22.8243-6.80219,38.70513-14.63089,49.79913-35.34039S791.81779,340.49462,783.25192,310.36925Z"/><path class="cls-6" d="M669.20842,355.82346s-7.3453,4.79167-5.23928,10.80166,7.66919,10.65532,16.02642,13.78312,37.54913,11.29941,47.77886,9.3345,17.63776-9.86462,15.079-16.93976-20.38462-19.1114-33.47258-21.40837S677.522,350.05406,669.20842,355.82346Z"/><path d="M702.02443,348.09419s-1.2145,5.26763,1.53132,8.79512,8.13462,4.52873,11.02773,2.54254,6.03491-8.28408,5.08238-10.6608S702.9499,340.83031,702.02443,348.09419Z"/><circle class="cls-6" cx="681.46299" cy="326.82932" r="21.13419" transform="translate(209.88785 917.44434) rotate(-77.01682)"/><circle class="cls-6" cx="744.3709" cy="340.47313" r="21.13419" transform="translate(245.36754 989.3226) rotate(-77.01682)"/><circle cx="687.33853" cy="327.98364" r="11.27118" transform="translate(213.31855 924.06466) rotate(-77.01682)"/><circle cx="738.94737" cy="340.7427" r="11.27118" transform="translate(240.89981 984.24672) rotate(-77.01682)"/><path d="M756.35793,307.11677s-29.58936,5.22035-31.9126,11.5661,55.97743,3.44418,55.47378-1.833S756.35793,307.11677,756.35793,307.11677Z"/><path d="M683.69329,290.36329s24.31666,17.64887,23.62693,24.37124-51.83459-21.41285-49.07121-25.93677S683.69329,290.36329,683.69329,290.36329Z"/><path class="cls-11" d="M591.1672,500.76439c1.48774-2.186,1.13885-4.02289.02566-5.20707a10.42816,10.42816,0,0,1-2.13655-2.81366c-.28187-.73162.4545-2.19114,1.59317-3.33528.739-.74245,3.58195-3.80853,5.60053-5.60277,5.79395-6.86413,12.20059-15.37779,17.30393-22.72475,7.73938-11.1419,16.71595-35.16141,13.01952-45.25637a33.38554,33.38554,0,0,0-3.148-5.03456s-5.78919,6.421-19.7587,22.15878c-16.954,19.1-29.49113,33.04136-35.80342,46.89735-6.31247,13.85589-5.689,16.91106-4.64914,19.37807,1.03961,2.467,4.67133,8.05758,7.74535,8.71053s6.71383-2.22738,8.403-4.35634,3.49194-4.66029,3.49194-4.66029,2.34154,2.47341,3.2801,2.73911C587.07328,501.92291,589.67929,502.95032,591.1672,500.76439Z"/><path class="cls-11" d="M605.43625,492.97485c8.95449-10.20744,20.9748-5.22554,25.899-3.93891,10.56181,2.75967,7.22561,16.31572,6.19609,23.937a2.47763,2.47763,0,0,0-.19976.522c-.36993,1.41578-7.728,38.67318-9.0663,42.1407-1.33807,3.46753.07224,2.75569,1.49661,3.92012a25.0963,25.0963,0,0,1,7.80383,14.7869c1.313,8.48155-9.63576,6.55709-10.51529,6.61535-.87935.05836-23.97818-5.25685-26.83277-7.01107s-9.55154-6.16881-9.01274-12.366c.539-6.1971,6.1833-38.82475,6.1833-38.82475S601.11121,497.90508,605.43625,492.97485Z"/><path class="cls-12" d="M109.33313,410.09985c2.64328.75491,3.58766,2.45381,3.48725,4.14045a10.84111,10.84111,0,0,0,.16737,3.669c.262.77182,1.82171,1.44689,3.49261,1.60232,1.08437.10078,5.39561.65609,8.20189.74475,9.19611,1.6231,19.97964,4.15533,28.94579,6.62373,13.59747,3.74341,36.75639,16.94511,40.526,27.46632a34.70757,34.70757,0,0,1,.83842,6.11566s-8.89729-1.27247-30.529-4.5375c-26.25313-3.96258-45.54512-6.74693-59.81012-13.60749-14.26508-6.86036-15.80131-9.71486-16.61357-12.3769-.81238-2.66186-1.63479-9.54356.3849-12.11152s6.84352-2.6915,9.6096-2.11624,7.20576,1.28188,7.20576,1.28188c-.69541-.52772-1.09211-3.4196-.51963-4.25661C105.29306,411.9005,106.68978,409.34516,109.33313,410.09985Z"/><path class="cls-12" d="M205.49757,563.08571a8.38262,8.38262,0,0,0-.73408-3.41441c-.87082-2.403-12.17879-43.899-12.17879-43.899a5.80248,5.80248,0,0,1,2.5548-5.50442c7.05957-4.33014,8.54042-4.565,14.6439-4.28628,9.90187.452,19.976,4.44558,24.12446,14.03858.017.03931.69095,4.3421.70229,4.3859.2747,1.05275,8.93846,38.61583,9.05384,39.94664a14.70764,14.70764,0,0,1-6.59239,12.1027c-6.28195,4.40967-30.09654,10.54552-30.09654,10.54552s-7.95521.30375-9.24336-3.54372-1.36253-5.59.036-9.10663S205.49757,563.08571,205.49757,563.08571Z"/><path class="cls-12" d="M284.66609,489.09324c-10.11371-9.84779-22.16467-3.7032-27.163-1.96773-10.72083,3.72241-6.15644,17.49935-4.46722,25.31389a2.57575,2.57575,0,0,1,.24965.52472c.499,1.4371,11.16669,39.44948,12.83677,42.93391,1.66987,3.48446.15012,2.86186-1.231,4.185a26.09009,26.09009,0,0,0-6.88053,15.96211c-.66826,8.89738,10.52174,6.009,11.438,5.99755.91611-.01131,24.42151-7.40583,27.23675-9.45694s9.39545-7.17312,8.33108-13.55178c-1.06457-6.3786-9.57813-39.73268-9.57813-39.73268S289.551,493.84975,284.66609,489.09324Z"/><path class="cls-13" d="M194.86094,527.63109c-4.01492-2.22389-21.86282-14.69647-31.95015-50.04365-2.87124-10.06115-2.05255-27.39414-1.58431-30.71173a76.71481,76.71481,0,0,1,4.89938-17.65311l90.58205-28.53874s3.072,2.72055,6.85868,6.0766c5.16183,4.57463,6.48391,5.92116,8.97633,8.15525,1.18643,1.06348,4.32643,3.37419,5.42913,5.61172,5.07551,10.29951,7.19879,20.683,10.01409,28.87966,11.06327,32.21021,3.89266,47.20577,3.34152,48.37217-.0316.06688-9.71529,15.34579-15.5646,20.50879-4.47965,3.954-14.91189,8.00679-16.60555,8.59732-1.69385.59064-21.05256,6.405-21.05256,6.405s-16.38644,3.28047-23.869,1.7595A64.57926,64.57926,0,0,1,194.86094,527.63109Z"/><path class="cls-12" d="M300.04037,499.02308c-1.72035-2.14411-1.50874-4.07629-.45172-5.39445a10.8411,10.8411,0,0,0,1.98458-3.09048c.2324-.78126-.64994-2.23377-1.92345-3.32657-.82652-.70913-4.02324-3.65467-6.26176-5.34939-6.5652-6.64086-13.90006-14.94125-19.78894-22.13889-8.93068-10.91546-20.195-35.0761-17.18822-45.84019a34.70758,34.70758,0,0,1,2.8515-5.47478s6.52409,6.182,22.28683,21.35191c19.13034,18.41083,33.26192,31.83588,40.93517,45.6807,7.67343,13.8447,7.27666,17.062,6.40043,19.70363-.876,2.6416-4.18346,8.73217-7.316,9.65986s-7.14-1.76028-9.06439-3.8288-3.99949-4.54477-3.99949-4.54477-2.2248,2.75459-3.17582,3.10658C304.37785,499.88951,301.7609,501.16707,300.04037,499.02308Z"/><path class="cls-12" d="M266.62343,262.46921c-21.35961-20.348-48.89581-27.041-71.467-25.39442-.55955-16.3333-1.6053-37.5457-3.42328-46.77208-3.15582-16.02008-3.835-28.68183-13.85326-31.96334s-15.89253,1.32832-16.668,5.25142c-.77467,3.92284,7.7521,64.38413,9.63062,70.15605a64.04407,64.04407,0,0,1,1.64838,7.75881c-4.79207,1.42267-9.6717,3.13608-14.55565,5.09963a69.51489,69.51489,0,0,1-3.30456-7.75075c-1.77015-5.80606-29.44092-60.23585-32.32433-63.00618-2.88425-2.77007-10.34007-3.18013-16.668,5.25142s.37349,19.19592,6.97063,34.13178c3.88658,8.79783,15.62,27.405,24.60926,41.21542a164.41593,164.41593,0,0,0-22.86,15.06144c-20.3803,16.23093-31.54338,56.84247-27.1979,73.56056,4.34632,16.71783,8.06561,64.59656,57.60417,84.85706,0,0,15.00734,8.14752,32.16357,7.034,17.1572-1.11333,78.28676-16.694,95.27376-34.92164s27.16371-33.69666,26.19417-58.22295C297.4255,319.28945,290.32277,285.04616,266.62343,262.46921Z"/><path class="cls-13" d="M263.98872,257.28709c-21.35961-20.348-48.89581-27.041-71.467-25.39442-.55955-16.3333-1.6053-37.5457-3.42328-46.77208-3.15582-16.02008-3.835-28.68183-13.85326-31.96334s-15.89253,1.32832-16.668,5.25142c-.77467,3.92284,7.7521,64.38413,9.63062,70.15605a64.044,64.044,0,0,1,1.64838,7.75881c-4.79207,1.42267-9.6717,3.13608-14.55565,5.09963a69.51491,69.51491,0,0,1-3.30456-7.75075c-1.77015-5.80606-29.44092-60.23585-32.32433-63.00618-2.88425-2.77007-10.34007-3.18013-16.668,5.25142s.37349,19.19592,6.97063,34.13178c3.88658,8.79783,15.62,27.405,24.60926,41.21542a164.41593,164.41593,0,0,0-22.86,15.06144C91.3431,282.55722,80.18,323.16876,84.5255,339.88685c4.34632,16.71783,8.06561,64.59656,57.60417,84.85706,0,0,15.00734,8.14752,32.16357,7.034,17.1572-1.11333,78.28676-16.694,95.27376-34.92164s27.16371-33.69666,26.19417-58.22295C294.79079,314.10733,287.68806,279.864,263.98872,257.28709Z"/><ellipse class="cls-5" cx="126.40101" cy="357.26986" rx="10.64118" ry="5.32059" transform="translate(-101.51701 54.49544) rotate(-17.48753)"/><ellipse class="cls-5" cx="212.01533" cy="330.29625" rx="10.64118" ry="5.32059" transform="translate(-89.45459 78.97574) rotate(-17.48753)"/><path class="cls-6" d="M136.47449,358.69041s-3.6762,7.40205.9064,11.27708,11.321,4.98957,19.60365,3.53631,35.898-8.76622,43.26782-15.25071,9.61173-16.44094,4.15238-20.96476-25.68975-5.78138-37.41776-1.3926S140.46988,350.03152,136.47449,358.69041Z"/><circle cx="121.45191" cy="340.82791" r="10.64117" transform="translate(-96.80497 52.24834) rotate(-17.48753)"/><circle cx="206.3006" cy="314.09552" r="10.64117" transform="translate(-84.85042 76.50971) rotate(-17.48753)"/><path d="M193.30891,346.01846c-1.36492.94083-10.14373,5.03678-12.72307,4.13953-2.6252-.91313-6.25262-4.12287-8.15382-7.5856a6.121,6.121,0,0,0,2.62148-2.63477c1.40074-2.99582.9429-9.61262-.96645-11.08779-1.90961-1.47521-17.37185,1.53854-14.65227,7.88066,0,0,1.53083,4.85887,5.44677,6.4119a8.72107,8.72107,0,0,0,4.6529.4415c.39819,3.90776-.7287,8.55937-2.34327,10.79422-1.59913,2.21628-11.14045,3.8897-12.79705,3.90083a1.27937,1.27937,0,0,0-.737,2.42071c.68423.32605,5.53091-.29382,9.71947-1.61347,2.60157-.81965,4.94893-1.90965,5.88855-3.20956a18.99511,18.99511,0,0,0,2.8665-9.18471,18.993,18.993,0,0,0,7.61368,5.88283c1.51524.52709,4.0633.07413,6.66554-.74573,4.18789-1.31943,8.515-3.58986,8.889-4.24931a1.27928,1.27928,0,0,0-1.991-1.56124Z"/><path class="cls-13" d="M302.825,495.13965c-1.72035-2.14411-1.50874-4.07629-.45172-5.39445a10.84111,10.84111,0,0,0,1.98458-3.09048c.2324-.78126-.64994-2.23377-1.92345-3.32657-.82652-.70913-4.02324-3.65467-6.26176-5.34939-6.5652-6.64086-13.90006-14.94125-19.78894-22.13889-8.93068-10.91546-20.195-35.0761-17.18822-45.84019a34.70757,34.70757,0,0,1,2.8515-5.47478s6.52409,6.182,22.28683,21.35191c19.13034,18.41083,33.26192,31.83588,40.93517,45.6807,7.67343,13.8447,7.27666,17.062,6.40043,19.70363-.876,2.6416-4.18346,8.73217-7.316,9.65986s-7.14-1.76028-9.06439-3.8288-3.99949-4.54477-3.99949-4.54477-2.2248,2.75459-3.17582,3.10658C307.16248,496.00608,304.54553,497.28364,302.825,495.13965Z"/><path class="cls-13" d="M287.40075,488.23166c-10.11371-9.84779-22.16467-3.7032-27.163-1.96773-10.72083,3.72241-6.15644,17.49935-4.46722,25.31389a2.57575,2.57575,0,0,1,.24965.52472c.499,1.4371,11.16669,39.44948,12.83677,42.93391,1.66987,3.48446.15012,2.86186-1.231,4.185a26.09009,26.09009,0,0,0-6.88053,15.96211c-.66826,8.89738,10.52174,6.009,11.438,5.99755.91611-.01131,24.42151-7.40583,27.23675-9.45694s9.39545-7.17312,8.33108-13.55178c-1.06457-6.3786-9.57813-39.73268-9.57813-39.73268S292.2857,492.98817,287.40075,488.23166Z"/><path class="cls-14" d="M224.88132,494.49819s-4.0048,10.40657-13.4564,15.08387-22.07285,4.68829-28.06525-2.00208-16.10031-28.7552-5.25994-42.12466,26.10989-11.13957,29.37436-9.25467,11.67523,7.00406,14.58565,17.01233S225.65185,489.23791,224.88132,494.49819Z"/><rect class="cls-15" x="229.62133" width="391.38118" height="562.61044" rx="30" ry="30"/><rect class="cls-16" x="254.92351" y="39.13812" width="340.77681" height="486.78034"/><rect class="cls-16" x="384.22956" y="14.06526" width="112.52209" height="18.34601" rx="9.173" ry="9.173"/><circle class="cls-16" cx="361.92669" cy="23.17079" r="9.4214"/><path class="cls-17" d="M422.347,271.5959a28.33854,28.33854,0,0,0,7.49441-2.60222c3.26824-1.82709,8.33964-5.9242,8.73408-9.24617s-2.93014-5.31517-3.83173-4.7615-7.88885,7.253-8.565,7.58519-2.02856-1.052-.84523-2.879,4.653-6.75469,5.14393-9.24617-2.89-5.20443-4.186-3.931-7.269,11.07326-8.00155,19.26748C418.28986,265.78244,417.38828,270.87614,422.347,271.5959Z"/><path class="cls-17" d="M434.8001,300.60785s-.05635,2.10392,1.07063,2.879,2.70475-.99659,3.04284-5.2598,1.57777-17.10819-5.4095-20.59627-10.5936,2.82368-10.7063,3.82028-.45079,12.845,3.43728,17.828c0,0,2.59205,3.15588,3.15554.3322a20.16778,20.16778,0,0,0-.05635-6.31176,7.09386,7.09386,0,0,1,4.11347-.83049C436.20882,292.57973,434.8001,300.60785,434.8001,300.60785Z"/><path class="cls-17" d="M453.0008,265.561s7.269-4.04174,7.8325-4.983.2254-3.322-3.04284-2.879a9.09082,9.09082,0,0,0-4.11347,2.21465c-1.97221,1.82709-2.14126-.11073-2.14126-.11073s-1.35237-2.43612-5.12775-1.60562-3.21189,1.99319-3.21189,2.21465,1.46507,12.40205,3.32459,14.17378,7.38171,1.49489,9.523,0,6.142-5.86883,6.59282-8.08348-.90158-3.04515-2.98649-2.21465-5.35315,3.26661-5.80394,3.37735S451.31034,267.60952,453.0008,265.561Z"/><path class="cls-17" d="M457.00158,296.51074c.169,0,7.77615-1.473,11.72058-6.38388,0,0,2.7611-2.973,1.57777-4.13572s-2.19761-2.54685-3.88808-1.77172-5.0714,4.5954-6.64917,5.4259-4.73331,1.55026-4.846-.4983,1.46507-2.93441,4.05712-4.20784,7.32536-4.09711,7.43806-5.48127-1.91586-3.74668-2.8738-3.64506-8.67774,4.97386-9.97376,4.75239-1.01428-.6644-2.14126-1.71636a1.77776,1.77776,0,0,0-2.8738.55366c-.2254.83049-.169,12.67889,2.7611,15.17037A7.21493,7.21493,0,0,0,457.00158,296.51074Z"/><path class="cls-17" d="M425.19261,313.12063s2.70475,5.23212,5.0714,6.89311,4.39522,1.16269,6.42378-2.90673c0,0-2.62023-7.47445-5.0714-9.46764a4.90371,4.90371,0,0,0-6.42378.3322C424.17833,309.05121,424.48614,311.84451,425.19261,313.12063Z"/><path class="cls-17" d="M440.57586,312.95453s1.4369,4.983,3.12737,5.48127,4.47974-2.74063,3.9726-8.388-1.20716-7.2253-3.51964-7.2253-5.60889,2.20621-5.86246,3.76069S440.57586,312.95453,440.57586,312.95453Z"/><path class="cls-17" d="M451.47938,308.46986s-.42262,4.48467.84523,7.3914,4.22617,2.07624,5.15593,0,1.52142-10.71338,0-12.54047-4.47974-.83049-5.494,1.32879A5.71833,5.71833,0,0,0,451.47938,308.46986Z"/><path class="cls-17" d="M461.79124,300.82931s-1.01428-1.91014,1.60594-3.405,4.05712-1.49489,4.56426.74745-.50714,14.53366-1.69047,15.9455-3.51363,3.48808-4.67287.6644S461.79124,300.82931,461.79124,300.82931Z"/><path class="cls-17" d="M489.34586,267.38806s31.7808-10.96253,33.13317-12.62352,2.59205-4.87224.90158-5.64736-6.42378,2.21465-10.03011,3.54344-8.90313,3.21125-10.819.11073-2.02856-5.125-6.98727-3.78056-1.35237,5.88448-1.01428,6.99181,1.69047,1.77172,0,2.879-10.03011,3.43271-11.38248,4.87224-3.15554,1.43952-2.93014,7.862,2.254,45.954,3.60633,47.5043,7.43806.3322,7.66345-1.88245-2.47935-26.35437-2.59205-28.90122c0,0-2.47935-13.06645-1.69047-16.167S487.89543,267.89093,489.34586,267.38806Z"/><path class="cls-17" d="M495.88234,282.55843s-3.60633,1.32879-4.95871,0-1.23968-3.98637,0-4.42931,5.52219-1.55026,5.52219-1.55026-1.57777-5.7581,0-6.86542,3.26824-1.32879,3.60633,0l.73254,4.26321s.05635,1.21806,1.91586.83049,13.80549-1.82709,14.59437-1.82709,1.52142-.1661,1.57777-1.55026-.73254-5.48127-.39444-6.201,1.35237-.6644,2.98649,0,1.97221,3.76491,2.19761,5.0937.39444,2.43612,1.35237,2.32539,4.39522-.11073,4.90236,1.661.28174,2.43612-.67619,2.879-3.55.3322-4.11347.94123,2.67657,25.27472,2.7611,26.76961.92976,4.31857-.169,5.73041a2.37263,2.37263,0,0,1-4.31069-1.16269c-.50714-2.74063-3.88808-29.81476-3.88808-29.81476s-.67619-.45677-2.747-.24915-13.22791,1.16269-13.22791,1.16269-.76071-.91354-.50714,1.49489,3.55,30.97745,3.21189,32.30624-4.47974,4.40162-5.325,1.41184-3.55-33.71809-3.55-33.71809S496.92479,281.47879,495.88234,282.55843Z"/><path class="cls-17" d="M492.64227,289.94983s0,13.78621.67619,15.69635,2.02856,2.49148,3.04284,1.82709.42262-15.4472,0-16.19465S493.31846,287.62445,492.64227,289.94983Z"/><path class="cls-17" d="M508.36362,287.45835s.33809,8.5541,1.18333,9.96594,2.62023.79091,3.9726.9768,2.70475,2.84347,1.52142,4.00617-4.64879,1.49489-5.66307,1.07964-2.11308.083-2.78927-3.73723a91.9421,91.9421,0,0,1-1.0988-11.62693C505.57435,287.29225,506.67316,285.38211,508.36362,287.45835Z"/><path class="cls-17" d="M515.49482,286.52316s1.49019,16.39275,1.99733,17.135,3.63451,1.65581,3.29641-2.41362-1.0988-14.25384-1.60594-15.05814S516.28676,284.17613,515.49482,286.52316Z"/><path class="cls-17" d="M526.87425,285.15171s1.35237,13.68441,2.19761,15.59455,5.74759.6644,8.875,0,4.22617-1.744,3.55-2.98978-1.26785-1.6392-2.8738-1.19332-5.91664,2.29475-6.5083,0-1.775-11.06049-2.36665-11.41144S526.69858,283.44436,526.87425,285.15171Z"/><path class="cls-17" d="M562.37407,268.71685s9.12853-.11073,10.819-1.99319.78889-4.7615-.78888-5.31517-13.74914.6644-13.74914.6644-.45079-6.97616-2.02856-7.862-6.87457-.77513-6.64917,2.21465.90158,6.644.90158,6.644.66223.88586-.90856,1.10733a86.63536,86.63536,0,0,0-9.34694,1.88245c-.90158.44293-2.36665,2.54685-1.91586,4.09711s1.0028,2.43612,2.98075,2.10392,9.30332-1.32879,9.30332-1.32879,2.254-.52555,2.47935,1.39821,1.80317,9.45358,1.80317,9.45358.45079,1.10733-1.46507,1.77172-6.76187,1.32879-7.43806,2.21465-2.02856,4.09711.78889,4.42931,15.8904-1.21806,19.384-2.10392,4.95871-2.76832,3.49363-4.87224-7.66345-.55366-7.66345-.55366-1.46507.99659-1.80317-3.21125-1.01428-9.19081-1.01428-9.19081S559.90116,268.818,562.37407,268.71685Z"/><path class="cls-17" d="M548.85033,301.16151a25.18125,25.18125,0,0,0,.78888,8.63715c1.23968,3.76491,4.05712,7.862,7.21266,8.63715s11.946-1.21806,13.63644-7.862-.78889-14.17378-2.81745-14.9489-11.38248-1.55026-15.7777,1.55026A7.43525,7.43525,0,0,0,548.85033,301.16151Z"/><path class="cls-18" d="M422.347,272.58535a28.33854,28.33854,0,0,0,7.49441-2.60222c3.26824-1.82709,8.33964-5.9242,8.73408-9.24617s-2.93014-5.31517-3.83173-4.7615-7.88885,7.253-8.565,7.58519-2.02856-1.052-.84523-2.879,4.653-6.75469,5.14393-9.24617-2.89-5.20443-4.186-3.931-7.269,11.07326-8.00155,19.26748C418.28986,266.77188,417.38828,271.86558,422.347,272.58535Z"/><path class="cls-18" d="M434.8001,301.59729s-.05635,2.10392,1.07063,2.879,2.70475-.99659,3.04284-5.2598,1.57777-17.10819-5.4095-20.59627-10.5936,2.82368-10.7063,3.82028-.45079,12.845,3.43728,17.828c0,0,2.59205,3.15588,3.15554.3322a20.16778,20.16778,0,0,0-.05635-6.31176,7.09386,7.09386,0,0,1,4.11347-.83049C436.20882,293.56918,434.8001,301.59729,434.8001,301.59729Z"/><path class="cls-18" d="M453.0008,266.55042s7.269-4.04174,7.8325-4.983.2254-3.322-3.04284-2.879a9.09082,9.09082,0,0,0-4.11347,2.21465c-1.97221,1.82709-2.14126-.11073-2.14126-.11073s-1.35237-2.43612-5.12775-1.60562-3.21189,1.99319-3.21189,2.21465,1.46507,12.40205,3.32459,14.17378,7.38171,1.49489,9.523,0,6.142-5.86883,6.59282-8.08348-.90158-3.04515-2.98649-2.21465-5.35315,3.26661-5.80394,3.37735S451.31034,268.599,453.0008,266.55042Z"/><path class="cls-18" d="M457.00158,297.50019c.169,0,7.77615-1.473,11.72058-6.38388,0,0,2.7611-2.973,1.57777-4.13572s-2.19761-2.54685-3.88808-1.77172-5.0714,4.5954-6.64917,5.4259-4.73331,1.55026-4.846-.4983,1.46507-2.93441,4.05712-4.20784,7.32536-4.09711,7.43806-5.48127-1.91586-3.74668-2.8738-3.64506-8.67774,4.97386-9.97376,4.75239-1.01428-.6644-2.14126-1.71636a1.77776,1.77776,0,0,0-2.8738.55366c-.2254.83049-.169,12.67889,2.7611,15.17037A7.21493,7.21493,0,0,0,457.00158,297.50019Z"/><path class="cls-18" d="M425.19261,314.11008s2.70475,5.23212,5.0714,6.89311,4.39522,1.16269,6.42378-2.90673c0,0-2.62023-7.47445-5.0714-9.46764a4.90371,4.90371,0,0,0-6.42378.3322C424.17833,310.04066,424.48614,312.834,425.19261,314.11008Z"/><path class="cls-18" d="M440.57586,313.944s1.4369,4.983,3.12737,5.48127,4.47974-2.74063,3.9726-8.388-1.20716-7.2253-3.51964-7.2253-5.60889,2.20621-5.86246,3.76069S440.57586,313.944,440.57586,313.944Z"/><path class="cls-18" d="M451.47938,309.45931s-.42262,4.48467.84523,7.3914,4.22617,2.07624,5.15593,0,1.52142-10.71338,0-12.54047-4.47974-.83049-5.494,1.32879A5.71833,5.71833,0,0,0,451.47938,309.45931Z"/><path class="cls-18" d="M461.79124,301.81876s-1.01428-1.91014,1.60594-3.405,4.05712-1.49489,4.56426.74745-.50714,14.53366-1.69047,15.9455-3.51363,3.48808-4.67287.6644S461.79124,301.81876,461.79124,301.81876Z"/><path class="cls-18" d="M489.34586,268.37751S521.12666,257.415,522.479,255.754s2.59205-4.87224.90158-5.64736-6.42378,2.21465-10.03011,3.54344-8.90313,3.21125-10.819.11073-2.02856-5.125-6.98727-3.78056-1.35237,5.88448-1.01428,6.99181,1.69047,1.77172,0,2.879-10.03011,3.43271-11.38248,4.87224-3.15554,1.43952-2.93014,7.862,2.254,45.954,3.60633,47.5043,7.43806.3322,7.66345-1.88245-2.47935-26.35437-2.59205-28.90122c0,0-2.47935-13.06645-1.69047-16.167S487.89543,268.88038,489.34586,268.37751Z"/><path class="cls-18" d="M495.88234,283.54788s-3.60633,1.32879-4.95871,0-1.23968-3.98637,0-4.42931,5.52219-1.55026,5.52219-1.55026-1.57777-5.7581,0-6.86542,3.26824-1.32879,3.60633,0l.73254,4.26321s.05635,1.21806,1.91586.83049,13.80549-1.82709,14.59437-1.82709,1.52142-.1661,1.57777-1.55026-.73254-5.48127-.39444-6.201,1.35237-.6644,2.98649,0,1.97221,3.76491,2.19761,5.0937.39444,2.43612,1.35237,2.32539,4.39522-.11073,4.90236,1.661.28174,2.43612-.67619,2.879-3.55.3322-4.11347.94123,2.67657,25.27472,2.7611,26.76961.92976,4.31857-.169,5.73041a2.37263,2.37263,0,0,1-4.31069-1.16269c-.50714-2.74063-3.88808-29.81476-3.88808-29.81476s-.67619-.45677-2.747-.24915-13.22791,1.16269-13.22791,1.16269-.76071-.91354-.50714,1.49489,3.55,30.97745,3.21189,32.30624-4.47974,4.40162-5.325,1.41184-3.55-33.71809-3.55-33.71809S496.92479,282.46823,495.88234,283.54788Z"/><path class="cls-18" d="M492.64227,290.93928s0,13.78621.67619,15.69635,2.02856,2.49148,3.04284,1.82709.42262-15.4472,0-16.19465S493.31846,288.61389,492.64227,290.93928Z"/><path class="cls-18" d="M508.36362,288.44779s.33809,8.5541,1.18333,9.96594,2.62023.79091,3.9726.9768,2.70475,2.84347,1.52142,4.00617-4.64879,1.49489-5.66307,1.07964-2.11308.083-2.78927-3.73723a91.94209,91.94209,0,0,1-1.0988-11.62693C505.57435,288.2817,506.67316,286.37156,508.36362,288.44779Z"/><path class="cls-18" d="M515.49482,287.51261s1.49019,16.39275,1.99733,17.135,3.63451,1.65581,3.29641-2.41362-1.0988-14.25384-1.60594-15.05814S516.28676,285.16558,515.49482,287.51261Z"/><path class="cls-18" d="M526.87425,286.14116s1.35237,13.68441,2.19761,15.59455,5.74759.6644,8.875,0,4.22617-1.744,3.55-2.98978-1.26785-1.6392-2.8738-1.19332-5.91664,2.29475-6.5083,0-1.775-11.06049-2.36665-11.41144S526.69858,284.4338,526.87425,286.14116Z"/><path class="cls-18" d="M562.37407,269.7063s9.12853-.11073,10.819-1.99319.78889-4.7615-.78888-5.31517-13.74914.6644-13.74914.6644-.45079-6.97616-2.02856-7.862-6.87457-.77513-6.64917,2.21465.90158,6.644.90158,6.644.66223.88586-.90856,1.10733a86.63533,86.63533,0,0,0-9.34694,1.88245c-.90158.44293-2.36665,2.54685-1.91586,4.09711s1.0028,2.43612,2.98075,2.10392,9.30332-1.32879,9.30332-1.32879,2.254-.52555,2.47935,1.39821,1.80317,9.45358,1.80317,9.45358.45079,1.10733-1.46507,1.77172-6.76187,1.32879-7.43806,2.21465-2.02856,4.09711.78889,4.42931,15.8904-1.21806,19.384-2.10392,4.95871-2.76832,3.49363-4.87224-7.66345-.55366-7.66345-.55366-1.46507.99659-1.80317-3.21125-1.01428-9.19081-1.01428-9.19081S559.90116,269.80748,562.37407,269.7063Z"/><path class="cls-18" d="M548.85033,302.151a25.18125,25.18125,0,0,0,.78888,8.63714c1.23968,3.76491,4.05712,7.862,7.21266,8.63715s11.946-1.21806,13.63644-7.862-.78889-14.17378-2.81745-14.9489-11.38248-1.55026-15.7777,1.55026A7.43525,7.43525,0,0,0,548.85033,302.151Z"/><path class="cls-19" d="M424.361,268.62756a28.33854,28.33854,0,0,0,7.49441-2.60222c3.26824-1.82709,8.33964-5.9242,8.73408-9.24617s-2.93014-5.31517-3.83173-4.7615-7.88885,7.253-8.565,7.58519-2.02856-1.052-.84523-2.879,4.653-6.75469,5.14393-9.24617-2.89-5.20443-4.186-3.931-7.269,11.07326-8.00155,19.26748C420.30388,262.81409,419.4023,267.90779,424.361,268.62756Z"/><path class="cls-19" d="M436.81411,297.6395s-.05635,2.10392,1.07063,2.879,2.70475-.99659,3.04284-5.2598,1.57777-17.10819-5.4095-20.59627-10.5936,2.82368-10.7063,3.82028-.45079,12.845,3.43728,17.828c0,0,2.59205,3.15588,3.15554.3322a20.16778,20.16778,0,0,0-.05635-6.31176,7.09386,7.09386,0,0,1,4.11347-.83049C438.22284,289.61139,436.81411,297.6395,436.81411,297.6395Z"/><path class="cls-19" d="M455.01482,262.59263s7.269-4.04174,7.8325-4.983.2254-3.322-3.04284-2.879a9.09082,9.09082,0,0,0-4.11347,2.21465c-1.97221,1.82709-2.14126-.11073-2.14126-.11073s-1.35237-2.43612-5.12775-1.60562-3.21189,1.99319-3.21189,2.21465,1.46507,12.40205,3.32459,14.17378,7.38171,1.49489,9.523,0,6.142-5.86883,6.59282-8.08348-.90158-3.04515-2.98649-2.21465-5.35315,3.26661-5.80394,3.37735S453.32435,264.64118,455.01482,262.59263Z"/><path class="cls-19" d="M459.01559,293.5424c.169,0,7.77615-1.473,11.72058-6.38388,0,0,2.7611-2.973,1.57777-4.13572s-2.19761-2.54685-3.88808-1.77172-5.0714,4.5954-6.64917,5.4259-4.73331,1.55026-4.846-.4983,1.46507-2.93441,4.05712-4.20784,7.32536-4.09711,7.43806-5.48127-1.91586-3.74668-2.8738-3.64506-8.67773,4.97386-9.97376,4.75239-1.01428-.6644-2.14126-1.71636a1.77776,1.77776,0,0,0-2.8738.55366c-.2254.83049-.169,12.67889,2.7611,15.17037A7.21493,7.21493,0,0,0,459.01559,293.5424Z"/><path class="cls-19" d="M427.20662,310.15229s2.70475,5.23212,5.0714,6.89311,4.39522,1.16269,6.42378-2.90673c0,0-2.62023-7.47445-5.0714-9.46764a4.90371,4.90371,0,0,0-6.42378.3322C426.19234,306.08287,426.50015,308.87617,427.20662,310.15229Z"/><path class="cls-19" d="M442.58988,309.98619s1.4369,4.983,3.12737,5.48127,4.47974-2.74063,3.9726-8.388-1.20716-7.2253-3.51964-7.2253-5.60889,2.20621-5.86246,3.76069S442.58988,309.98619,442.58988,309.98619Z"/><path class="cls-19" d="M453.4934,305.50152s-.42262,4.48467.84523,7.3914,4.22617,2.07624,5.15593,0,1.52142-10.71338,0-12.54047-4.47974-.83049-5.494,1.32879A5.71833,5.71833,0,0,0,453.4934,305.50152Z"/><path class="cls-19" d="M463.80525,297.861s-1.01428-1.91014,1.60594-3.405,4.05712-1.49489,4.56426.74745-.50714,14.53366-1.69047,15.9455-3.51363,3.48808-4.67287.6644S463.80525,297.861,463.80525,297.861Z"/><path class="cls-19" d="M491.35988,264.41972s31.7808-10.96253,33.13317-12.62352,2.59205-4.87224.90158-5.64736-6.42378,2.21465-10.03011,3.54344-8.90313,3.21125-10.819.11073-2.02856-5.125-6.98727-3.78056-1.35237,5.88448-1.01428,6.99181,1.69047,1.77172,0,2.879-10.03011,3.43271-11.38248,4.87224-3.15554,1.43952-2.93014,7.862,2.254,45.954,3.60633,47.5043,7.43806.3322,7.66345-1.88245-2.47935-26.35437-2.59205-28.90122c0,0-2.47935-13.06645-1.69047-16.167S489.90945,264.92259,491.35988,264.41972Z"/><path class="cls-19" d="M497.89635,279.59009s-3.60633,1.32879-4.95871,0-1.23968-3.98637,0-4.42931,5.52219-1.55026,5.52219-1.55026-1.57777-5.7581,0-6.86542,3.26824-1.32879,3.60633,0l.73254,4.26321s.05635,1.21806,1.91586.83049,13.80549-1.82709,14.59437-1.82709,1.52142-.1661,1.57777-1.55026-.73254-5.48127-.39444-6.201,1.35237-.6644,2.98649,0,1.97221,3.76491,2.19761,5.0937.39444,2.43612,1.35237,2.32539,4.39522-.11073,4.90236,1.661.28174,2.43612-.67619,2.879-3.55.3322-4.11347.94123,2.67657,25.27472,2.7611,26.76961.92976,4.31857-.169,5.73041a2.37263,2.37263,0,0,1-4.31069-1.16269c-.50714-2.74063-3.88808-29.81476-3.88808-29.81476s-.67619-.45677-2.747-.24915-13.22791,1.16269-13.22791,1.16269-.76071-.91354-.50714,1.49489,3.55,30.97745,3.21189,32.30624-4.47974,4.40162-5.325,1.41184-3.55-33.71809-3.55-33.71809S498.93881,278.51044,497.89635,279.59009Z"/><path class="cls-19" d="M494.65629,286.98149s0,13.78621.67619,15.69635,2.02856,2.49148,3.04284,1.82709.42262-15.4472,0-16.19465S495.33248,284.6561,494.65629,286.98149Z"/><path class="cls-19" d="M510.37764,284.49s.33809,8.5541,1.18333,9.96594,2.62023.79091,3.9726.9768,2.70475,2.84347,1.52142,4.00617-4.64879,1.49489-5.66307,1.07964-2.11308.083-2.78927-3.73723a91.9421,91.9421,0,0,1-1.0988-11.62693C507.58837,284.32391,508.68717,282.41377,510.37764,284.49Z"/><path class="cls-19" d="M517.50884,283.55482s1.49019,16.39275,1.99733,17.135,3.63451,1.65581,3.29641-2.41362-1.0988-14.25384-1.60594-15.05814S518.30078,281.20779,517.50884,283.55482Z"/><path class="cls-19" d="M528.88826,282.18337s1.35237,13.68441,2.19761,15.59455,5.74759.6644,8.875,0,4.22617-1.744,3.55-2.98978-1.26785-1.6392-2.8738-1.19332-5.91664,2.29475-6.5083,0-1.775-11.06049-2.36665-11.41144S528.7126,280.476,528.88826,282.18337Z"/><path class="cls-19" d="M564.38809,265.74851s9.12853-.11073,10.819-1.99319.78888-4.7615-.78889-5.31517-13.74914.6644-13.74914.6644-.45079-6.97616-2.02856-7.862-6.87457-.77513-6.64917,2.21465.90158,6.644.90158,6.644.66223.88586-.90856,1.10733a86.63538,86.63538,0,0,0-9.34694,1.88245c-.90158.44293-2.36666,2.54685-1.91586,4.09711s1.0028,2.43612,2.98075,2.10392,9.30332-1.32879,9.30332-1.32879,2.254-.52555,2.47935,1.39821,1.80317,9.45358,1.80317,9.45358.45079,1.10733-1.46507,1.77172-6.76187,1.32879-7.43806,2.21465-2.02856,4.09711.78889,4.42931,15.8904-1.21806,19.384-2.10392,4.95871-2.76832,3.49363-4.87224-7.66345-.55366-7.66345-.55366-1.46507.99659-1.80317-3.21125-1.01428-9.19081-1.01428-9.19081S561.91517,265.84969,564.38809,265.74851Z"/><path class="cls-19" d="M550.86434,298.19317a25.18125,25.18125,0,0,0,.78889,8.63715c1.23968,3.76491,4.05712,7.862,7.21266,8.63714s11.946-1.21806,13.63644-7.862-.78889-14.17378-2.81745-14.9489-11.38248-1.55026-15.7777,1.55026A7.43525,7.43525,0,0,0,550.86434,298.19317Z"/><path style="opacity: 0;" class="cls-20" d="M297.562,246.66665l45.2679-27.36579c17.64041-10.66415,42.74409-1.956,55.78622,19.35135l.00007.00012c13.04213,21.30736,9.28014,47.46582-8.36027,58.13l1.0811-.688c1.34965,4.47818,3.84523,7.90477,5.19461,12.38295,1.141,3.7862-.816,6.89282-4.54791,5.47793-5.39215-2.0443-9.38421-6.76019-14.24725-10.03282l-32.74844,20.22573c-17.64022,10.664-42.744,1.95577-55.7861-19.35158l-.00007-.00012C276.15975,283.489,279.92181,257.33069,297.562,246.66665Z"/><path style="opacity: 0;" class="cls-21" d="M297.562,246.66665l45.2679-27.36579c17.64041-10.66415,42.74409-1.956,55.78622,19.35135l.00007.00012c13.04213,21.30736,9.28014,47.46582-8.36027,58.13l1.0811-.688c1.34965,4.47818,3.84523,7.90477,5.19461,12.38295,1.141,3.7862-.816,6.89282-4.54791,5.47793-5.39215-2.0443-9.38421-6.76019-14.24725-10.03282l-32.74844,20.22573c-17.64022,10.664-42.744,1.95577-55.7861-19.35158l-.00007-.00012C276.15975,283.489,279.92181,257.33069,297.562,246.66665Z"/><g class="cls-22" style="opacity: 0;"><path style="opacity: 0;" class="cls-6" d="M297.98158,247.45506,342.367,220.1252c17.29652-10.65015,42.10308-2.27145,55.12594,18.61924l.00007.00011c13.02286,20.89069,9.52646,46.69679-7.77007,57.34694l1.05975-.68663c1.366,4.40181,3.85261,7.75819,5.2183,12.16,1.1548,3.72163-.74855,6.79856-4.43729,5.4344-5.32973-1.971-9.30135-6.58577-14.1196-9.77138l-32.10659,20.19347c-17.29634,10.65-42.103,2.27123-55.12583-18.61946l-.00007-.00011C277.18877,283.91108,280.68524,258.1051,297.98158,247.45506Z"/><path class="cls-23" d="M412.35374,244.33693a35.50416,35.50416,0,0,0-5.31437-3.13953c.04109-.04437.08387-.08751.12348-.13265a6.324,6.324,0,0,0,2.33441-6.72871c-.90279-3.3732-4.09234-7.09834-7.977-6.08823-2.64962-.35144-5.23012,1.61767-6.768,3.61685a7.56529,7.56529,0,0,0-.85661,1.40514,4.69354,4.69354,0,0,0-.68788,3.65059,4.54319,4.54319,0,0,0,.09994.73255,37.10506,37.10506,0,0,0-12.80962,1.3974c-9.02633,2.69374-19.823,9.45106-26.93607,16.74253-.17584.18016-.34687.36895-.51637.5604a4.58569,4.58569,0,0,0-.50882-.554,4.76863,4.76863,0,0,0-3.26492-1.81576,7.68437,7.68437,0,0,0-1.636-.2481c-2.53213-.10992-5.70927.59359-7.13566,2.83706-3.27113,2.31151-2.43357,7.12841-.40272,9.978a6.42472,6.42472,0,0,0,6.70131,2.53445c.04859-.001.09759-.0053.14636-.0073-1.58219,6.37159-1.67286,12.90065-.2634,16.341,2.53246,6.18069,6.38975,24.33883,26.685,29.50559a26.34,26.34,0,0,0,12.8691,1.00853c6.61968-1.32731,29.6212-10.50815,35.31343-18.387,5.69193-7.87866,8.87339-14.34271,7.26147-23.69353S422.71154,251.74754,412.35374,244.33693Z"/><path class="cls-24" d="M348.02907,284.50635A35.2004,35.2004,0,0,0,325.08343,267.448c1.6-6.03522,3.56305-13.908,3.9258-17.48042.63014-6.2029,1.78208-10.90814-1.46514-13.19759s-5.872-1.24189-6.58407.10879c-.71178,1.35068-4.309,24.39316-4.26885,26.70863a24.79492,24.79492,0,0,1-.262,3.01722c-1.88331-.00059-3.83024.09565-5.80632.28292a26.78439,26.78439,0,0,1-.33557-3.19432c.00271-2.31618-3.96222-25.2337-4.69543-26.5605-.73354-1.3268-3.37434-2.28735-6.58407.10879s-1.9828,7.06207-1.25358,13.24251c.42976,3.6406,2.60443,11.72233,4.31957,17.75115a61.77956,61.77956,0,0,0-9.89686,3.02393c-9.13251,3.72129-17.63367,17.36256-17.91221,23.95011-.27821,6.58755-4.21943,24.50494,11.39254,37.3014a24.70407,24.70407,0,0,0,10.81137,6.06958c6.30385,1.458,30.045,2.40464,38.17524-2.41591s13.50281-9.37243,15.85883-18.449C352.85841,308.63868,354.07669,295.341,348.02907,284.50635Z"/><path class="cls-6" d="M378.64051,289.33093s-.87492,3.47654,1.45708,4.66488,5.32682,1.004,8.74045-.41253,14.56133-7.1793,17.1069-10.62767,2.5635-7.86226-.2059-9.23893-11.56268.0571-16.17545,3.04526S379.53321,285.2937,378.64051,289.33093Z"/><path class="cls-25" d="M386.40453,277.84687a4.78613,4.78613,0,0,0,2.94288,2.17362c1.82615.27439,3.741-.93953,4.05778-2.33811s-.50644-4.14282-1.46492-4.57923S384.63759,275.43789,386.40453,277.84687Z"/><path class="cls-6" d="M381.75909,272.94992a8.58863,8.58863,0,0,1-3.21191,11.79142,8.77309,8.77309,0,0,1-11.94363-3.05875,8.58863,8.58863,0,0,1,3.21191-11.79142A8.77309,8.77309,0,0,1,381.75909,272.94992Z"/><path class="cls-6" d="M404.66435,259.35759a8.58863,8.58863,0,0,1-3.21191,11.79142,8.77309,8.77309,0,0,1-11.94363-3.05875,8.58863,8.58863,0,0,1,3.21191-11.79142A8.77309,8.77309,0,0,1,404.66435,259.35759Z"/><path class="cls-25" d="M380.32817,273.6826a4.58045,4.58045,0,0,1-1.713,6.28854,4.67882,4.67882,0,0,1-6.36972-1.63128,4.58045,4.58045,0,0,1,1.713-6.28854A4.67882,4.67882,0,0,1,380.32817,273.6826Z"/><path class="cls-25" d="M399.56068,262.995a4.58045,4.58045,0,0,1-1.713,6.28854,4.67882,4.67882,0,0,1-6.36972-1.63128,4.58045,4.58045,0,0,1,1.713-6.28854A4.67882,4.67882,0,0,1,399.56068,262.995Z"/><path class="cls-25" d="M391.31683,250.4933s-7.49356,9.83731-6.40889,12.36632,17.93069-14.66846,16.29071-16.089S391.31683,250.4933,391.31683,250.4933Z"/><path class="cls-25" d="M364.579,265.89969s12.34178-1.59187,14.02752.5908-21.74,8.1899-22.17783,6.07668S364.579,265.89969,364.579,265.89969Z"/><path class="cls-25" d="M301.66222,292.98893a4.40767,4.40767,0,0,1-4.89321,3.773,4.27864,4.27864,0,0,1-3.78728-4.78613,4.40767,4.40767,0,0,1,4.89321-3.773A4.27864,4.27864,0,0,1,301.66222,292.98893Z"/><path class="cls-25" d="M337.94665,297.224a4.40767,4.40767,0,0,1-4.89321,3.773,4.27864,4.27864,0,0,1-3.78728-4.78613,4.40767,4.40767,0,0,1,4.89321-3.773A4.27864,4.27864,0,0,1,337.94665,297.224Z"/><path class="cls-26" d="M300.68015,299.88338c-.1527,1.18176-2.21967,1.913-4.61672,1.63319s-4.21646-1.46459-4.06376-2.64636,2.21967-1.913,4.61672-1.63319S300.83284,298.70162,300.68015,299.88338Z"/><path class="cls-26" d="M337.292,304.15662c-.1527,1.18176-2.21967,1.913-4.61672,1.63319s-4.21646-1.46459-4.06376-2.64636,2.21967-1.913,4.61672-1.63319S337.44469,302.97486,337.292,304.15662Z"/><path class="cls-6" d="M299.85689,301.57616s-2.64681,2.12221-1.60264,4.31505,3.3685,3.72472,6.71143,4.56511,14.91345,2.73112,18.78155,1.56184,6.419-4.47323,5.15914-7.05142-8.59758-6.406-13.73232-6.73521S302.83923,299.0429,299.85689,301.57616Z"/><path class="cls-25" d="M312.21031,297.28419a4.406,4.406,0,0,0,.9302,3.27329,3.47113,3.47113,0,0,0,4.34992.50771c1.03869-.87339,2.00666-3.39289,1.54759-4.25511S312.28647,294.49,312.21031,297.28419Z"/><path class="cls-25" d="M323.85552,306.52951a.52647.52647,0,0,0-.5951-.18369c-.67164.1205-4.65474.17347-5.46344-.58668a7.03968,7.03968,0,0,1-1.73131-5.00166c.00163-.0146-.00019-.02858.00039-.043.00036-.01679.00151-.03374.0003-.05032-.00134-.01762-.00513-.03438-.00808-.05156-.0031-.016-.00515-.03222-.0096-.04778a.51136.51136,0,0,0-.01782-.04823c-.00584-.01483-.01112-.03-.01834-.04421a.44221.44221,0,0,0-.02651-.043.47381.47381,0,0,0-.0266-.04033c-.01023-.01292-.02221-.02427-.03333-.03627-.01163-.01207-.02243-.02455-.035-.03557-.01233-.01062-.0262-.01938-.0397-.029a.50011.50011,0,0,0-.04179-.02885c-.01444-.00832-.03047-.01439-.0461-.02145-.0154-.0069-.03016-.01474-.04652-.02022a.51509.51509,0,0,0-.05116-.01235c-.01531-.00357-.02989-.00884-.04589-.01109l-.0107-.00125-.00051-.00006-.0107-.00125c-.0161-.0015-.03158.00027-.04735.00021a.51967.51967,0,0,0-.05278.00021.50628.50628,0,0,0-.05029.00892.49833.49833,0,0,0-.05021.01033.455.455,0,0,0-.04787.01825c-.01527.00612-.03123.01153-.0459.019-.015.00781-.02863.01744-.043.02647-.01385.00909-.02836.01734-.04157.02753-.01294.01009-.02428.02177-.03607.033a.45842.45842,0,0,0-.03667.03563c-.0106.012-.01933.02554-.029.03868a.5097.5097,0,0,0-.02957.0427c-.00828.01408-.01437.02918-.02119.04393a.49171.49171,0,0,0-.02125.04839c-.00541.01582-.0086.03253-.01252.0489-.00312.01417-.00844.02732-.01058.04186a7.24123,7.24123,0,0,1-2.9532,4.45489c-.97857.55257-4.82945-.41579-5.44995-.6871a.53347.53347,0,0,0-.62443.04135.51342.51342,0,0,0-.06744.73006,11.80653,11.80653,0,0,0,3.907,1.02,5.15037,5.15037,0,0,0,2.75127-.20619,7.83649,7.83649,0,0,0,2.65132-2.91509,7.57322,7.57322,0,0,0,1.83041,3.43818,5.07542,5.07542,0,0,0,2.61728.83279,11.94024,11.94024,0,0,0,4.05063-.09125A.51452.51452,0,0,0,323.85552,306.52951Z"/></g><text class="cls-27" transform="translate(293.86989 376.30063) scale(0.94985 1)">遇見對的人 聊到熊麻吉</text><path class="cls-5" d="M167.02322,357.67475s3.987-7.01658,4.43477-9.42358l.44774-2.407s7.036,5.42736,8.53275,6.03143a4.03491,4.03491,0,0,0,2.64382.20445s-.24517,8.52675-2.96254,10.88033S167.02322,357.67475,167.02322,357.67475Z"/></g></g></svg>