<svg xmlns="http://www.w3.org/2000/svg" viewBox="0 0 800.78035 618.51254"><defs><style>.cls-1{fill:#5f75a1;}.cls-2{fill:#7793cb;}.cls-3{fill:#dbd0bb;}.cls-4{fill:#da4d55;}.cls-5{fill:#fff;}.cls-6{fill:#c5798a;opacity:0.5;}.cls-7{fill:#d68d58;}.cls-8{fill:#ffa665;}.cls-9{fill:#755f55;}.cls-10{fill:#7e675c;}.cls-11{fill:#e4b5bd;}.cls-12{fill:#f6c2cb;}.cls-13{fill:#e69dc2;}.cls-14{fill:#fae8f0;}.cls-15{fill:#f5d1e1;}</style></defs><title>資產 6</title><g id="圖層_2" data-name="圖層 2"><g id="圖層_1-2" data-name="圖層 1"><path class="cls-1" d="M49.125,263.77743c2.38422-1.01109,4.0819-.32478,5.00653.9709a10.21321,10.21321,0,0,0,2.29415,2.5902c.64886.41063,2.19159-.01764,3.50829-.89263.85445-.56791,4.3431-2.71246,6.45248-4.30836,7.70106-4.253,17.1037-8.77911,25.1365-12.27642,12.182-5.30379,36.97005-9.33386,45.96-3.8532a32.69738,32.69738,0,0,1,4.23405,3.98636s-7.27452,4.33313-25.06219,14.74254C95.067,277.37014,79.27868,286.74715,64.76253,290.16124c-14.51609,3.41429-17.33151,2.23124-19.50238.76079-2.17085-1.47025-6.84654-6.02756-6.886-9.10513s3.42312-6.02308,5.791-7.23852,6.04025-3.32512,6.04025-3.32512c-.822.02477-2.82434-1.86009-2.90012-2.81241C47.22951,267.48833,46.74089,264.78871,49.125,263.77743Z"/><path class="cls-2" d="M200.555,341.78923a7.89712,7.89712,0,0,0-1.82939-2.73468c-1.59763-1.80151-25.92036-34.20721-25.92036-34.20721a5.46641,5.46641,0,0,1,.32414-5.70775c4.67679-6.245,5.89186-6.96531,11.33316-8.84239,8.82756-3.04535,19.03672-3.0495,26.00311,3.9088.02855.02852,2.114,3.562,2.13918,3.5964.60639.82636,21.24694,30.70714,21.81046,31.83235a13.8558,13.8558,0,0,1-1.56653,12.88863c-3.96823,6.04442-22.68883,19.69345-22.68883,19.69345s-6.86032,3.03063-9.32539.10931-3.13575-4.42127-3.13327-7.98664S200.555,341.78923,200.555,341.78923Z"/><path class="cls-1" d="M244.28686,249.385c-12.27833-5.10831-20.69521,4.46017-24.46879,7.71687-8.09393,6.98527.6907,17.46264,4.88561,23.7183a2.42657,2.42657,0,0,1,.401.37271c.93636,1.085,23.48778,30.66275,26.16111,33.13345,2.67315,2.4708,1.126,2.45378.37647,4.09232a24.579,24.579,0,0,0-.47758,16.36821c2.50694,8.02312,11.30153,1.6051,12.0999,1.27665.79825-.32828,18.81068-14.972,20.563-17.7464s5.73416-9.54624,2.5854-14.76175c-3.14892-5.21538-22.1952-31.4628-22.1952-31.4628S250.21733,251.85233,244.28686,249.385Z"/><path class="cls-2" d="M178.97466,313.08082c-14.41858-3.86386-26.09908-5.82061-45.4102-34.56562-6.97516-10.38267-10.46675-23.09967-11.2097-26.1674a124.185,124.185,0,0,1-2.7087-14.12626l69.39913-56.46941s3.63546,1.3146,8.11752,2.93732c6.10971,2.21184,7.73533,2.93146,10.69419,4.02152,1.40847.5189,4.961,1.451,6.70418,3.02706,8.02368,7.25477,13.49147,15.60908,18.80521,21.808,20.88137,24.35971,19.81388,39.98239,19.73664,41.19527-.00443.06955-3.174,16.8137-6.50158,23.36742-2.54842,5.01909-10.27484,12.19335-11.55265,13.299-1.27793,1.10585-16.20852,12.92482-16.20852,12.92482s-13.20854,8.56725-20.28912,9.83582A42.59654,42.59654,0,0,1,178.97466,313.08082Z"/><path class="cls-1" d="M234.37459,114.39263c-1.46067,2.13852-1.122,3.93809-.0337,5.09969a10.21321,10.21321,0,0,1,2.08788,2.75917c.27486.717-.44874,2.14523-1.56582,3.26391-.725.72593-3.51438,3.72413-5.4943,5.47805-5.68581,6.7131-11.9744,15.04072-16.98464,22.22782-7.59818,10.89949-16.42925,34.40909-12.82563,44.302a32.69738,32.69738,0,0,0,3.07482,4.936s5.68042-6.27913,19.38787-21.66948c16.636-18.67839,28.9376-32.31171,35.14258-45.87169,6.20516-13.55987,5.59952-16.5531,4.5852-18.971-1.01412-2.41781-4.56178-7.89917-7.57135-8.54373s-6.5791,2.17041-8.23691,4.25271-3.42763,4.55848-3.42763,4.55848-2.2892-2.42628-3.208-2.688C238.386,113.26473,235.83543,112.25421,234.37459,114.39263Z"/><path class="cls-3" d="M203.18994,264.45122s.119,11.38534-7.08957,19.38477-19.18321,12.764-27.39068,8.67148S142.59746,271.28079,147.85,254.50856s20.58466-20.40758,24.39294-19.84831,13.71917,2.24967,20.25136,10.65215S201.93979,259.16848,203.18994,264.45122Z"/><path class="cls-2" d="M230.722,113.71894c-1.38781,2.1865-.98871,3.97364.13809,5.09794a10.21321,10.21321,0,0,1,2.17963,2.68728c.29885.70734-.37623,2.15912-1.455,3.31479-.70014.74994-3.38695,3.84039-5.30667,5.66-5.45647,6.9008-11.461,15.43551-16.22631,22.7873-7.22675,11.14923-15.26093,34.94295-11.32614,44.7089a32.69739,32.69739,0,0,0,3.23933,4.82959s5.4657-6.4669,18.647-22.31022c15.99738-19.22814,27.83283-33.26808,33.57756-47.02936,5.7449-13.76119,5.03879-16.73231,3.94361-19.11464-1.095-2.38228-4.82525-7.741-7.85483-8.28385s-6.50226,2.39078-8.089,4.52774-3.27214,4.67134-3.27214,4.67134-2.36963-2.3478-3.29669-2.57847C234.69314,112.45657,232.11,111.53254,230.722,113.71894Z"/><path class="cls-2" d="M246.25875,247.78049c-12.27833-5.10831-20.69521,4.46017-24.46879,7.71687-8.09393,6.98527.6907,17.46264,4.88561,23.7183a2.42657,2.42657,0,0,1,.401.37271c.93636,1.085,23.48778,30.66275,26.16111,33.13345,2.67315,2.4708,1.126,2.45378.37647,4.09232a24.579,24.579,0,0,0-.47758,16.36822c2.50694,8.02312,11.30153,1.6051,12.0999,1.27665.79825-.32828,18.81068-14.972,20.563-17.7464s5.73416-9.54624,2.5854-14.76175c-3.14892-5.21538-22.1952-31.4628-22.1952-31.4628S252.18923,250.24782,246.25875,247.78049Z"/><path class="cls-1" d="M142.74448,44.79587C132.009,44.36216,97.238,41.18834,94.86743,48.52862A85.48976,85.48976,0,0,0,69.074,58.34243c-19.116,11.2554-39.72513,32.85382-51.9018,53.96042-8.1062-1.18159-12.2452,35.20349-14.05326,46.105-2.55036,15.37788,15.53856,85.17373,40.26536,92.63739,7.83606,2.36524,9.28736-8.21186,7.61563-23.76289a80.83038,80.83038,0,0,0,49.9224,18.01679s16.20428,2.17663,30.93269-4.68713,62.976-41.7333,71.32207-63.88622,11.69-39.50421,1.90322-61.16726c-1.448-3.20516-3.09713-6.55707-4.94157-9.9782,15.04749,4.88767,25.85026,5.68286,25.12247-2.5266C222.98041,77.326,158.3197,45.42514,142.74448,44.79587Z"/><path class="cls-1" d="M26.39813,134.36787S65.2319,255.75372,40.5051,248.29-2.31059,171.03053.23977,155.65267,9.97825,74.1846,26.39813,134.36787Z"/><path class="cls-2" d="M98.04314,242.544s16.20427,2.1766,30.93267-4.68715,62.976-41.73328,71.32211-63.88626,11.68994-39.50419,1.90318-61.16723S173.67917,62.85966,144.553,50.715s-58.842-6.61887-78.35817,4.87219S25.59993,89.3504,13.53353,110.873s-7.1244,61.7581,2.7969,75.265S46.968,241.30955,98.04314,242.544Z"/><path class="cls-1" d="M113.707,63.32548s110.95581,62.70084,108.675,36.973-66.94147-57.62859-82.51667-58.25785S58.1188,35.01309,113.707,63.32548Z"/><ellipse class="cls-4" cx="55.95178" cy="207.14569" rx="11.44505" ry="5.72252" transform="translate(-118.18761 81.78457) rotate(-39.13492)"/><ellipse class="cls-4" cx="130.83727" cy="146.21208" rx="11.44505" ry="5.72252" transform="translate(-62.92977 115.37871) rotate(-39.13492)"/><path class="cls-5" d="M66.58573,204.569s-.7382,8.85831,5.38042,10.91394,13.29715.49627,21.0006-4.24276,32.40867-23.0064,37.20341-32.41293,3.0856-20.24936-4.16692-22.60571-27.97555,4.41311-37.9586,13.45374S67.14437,194.32763,66.58573,204.569Z"/><path d="M80.826,173.50624s3.45816,4.25,7.989,4.24875,8.68563-3.68905,8.89729-7.23964-2.87123-9.98357-5.36539-10.70075S75.591,168.24509,80.826,173.50624Z"/><path d="M119.81157,168.57018a1.37424,1.37424,0,0,0-1.4369.78119c-.99127,1.48213-8.14228,9.05987-11.07678,9.18629-3.53023.15214-9.74254-2.34264-12.77178-5.91008-.02511-.0298-.0553-.052-.08208-.07958-.03163-.03142-.06212-.06464-.09625-.09274-.03634-.02976-.07546-.05336-.11387-.07927-.0365-.02357-.07133-.04935-.10938-.06949-.04026-.0218-.08309-.03719-.1252-.05488-.03916-.0162-.07792-.034-.11842-.04655a1.19172,1.19172,0,0,0-.131-.029,1.27578,1.27578,0,0,0-.126-.02393c-.04347-.00447-.08711-.00274-.13045-.00385-.04438-.00026-.08805-.00284-.13209.00052-.04288.00371-.085.01371-.128.02147a1.32435,1.32435,0,0,0-.13157.02564c-.04229.01189-.08316.03085-.1252.04731-.04131.01629-.08327.02965-.1236.05034a1.33888,1.33888,0,0,0-.1169.07347c-.03475.02222-.07143.03994-.1049.06587l-.02189.01781-.00052.00042-.02241.01823c-.03219.02749-.057.0598-.08582.08932a1.33886,1.33886,0,0,0-.0957.09952,1.30029,1.30029,0,0,0-.07441.11078,1.27955,1.27955,0,0,0-.07156.11322,1.16863,1.16863,0,0,0-.05207.12335c-.016.0399-.0347.07976-.047.121-.01224.04244-.01859.08572-.02736.12923-.00773.04266-.01829.085-.02275.12851a1.27577,1.27577,0,0,0-.00219.12823,1.19172,1.19172,0,0,0,.00174.13413c.00381.04194.01391.08309.0215.12541a1.33774,1.33774,0,0,0,.02828.13375c.012.04134.02994.08043.0459.12028a1.30366,1.30366,0,0,0,.05437.12855c.02057.03912.0469.07573.07123.11309.02156.03182.03716.0659.06123.09654,2.87708,3.69124,4.05678,10.281,3.19012,13.70659-.7192,2.85-9.59368,8.30861-11.24534,8.977a1.37608,1.37608,0,0,0,.22373,2.71242c.81337.05442,5.41242-2.48825,9.07615-5.46939,2.27557-1.85161,4.18985-3.8726,4.61329-5.54486a20.42859,20.42859,0,0,0-.77846-10.31911,20.42859,20.42859,0,0,0,9.94534,2.86011c1.72384-.0741,4.09139-1.53806,6.36748-3.39009,3.66321-2.98072,7.0883-6.96721,7.20038-7.77466A1.37521,1.37521,0,0,0,119.81157,168.57018Z"/><circle class="cls-5" cx="102.71955" cy="129.29072" r="21.42091" transform="translate(-58.55775 93.83615) rotate(-39.13492)"/><circle cx="98.93739" cy="130.77228" r="14.79776" transform="translate(-60.34133 91.78141) rotate(-39.13492)"/><ellipse cx="118.70841" cy="136.53179" rx="2.74481" ry="1.51048" transform="translate(-4.77817 4.30592) rotate(-2.03708)"/><ellipse cx="119.73758" cy="132.40254" rx="2.74481" ry="1.51048" transform="translate(-4.63074 4.3399) rotate(-2.03708)"/><circle class="cls-5" cx="44.62396" cy="176.56255" r="21.42091" transform="translate(-101.42636 67.77406) rotate(-39.13492)"/><circle cx="46.84351" cy="173.16057" r="14.79776" transform="translate(-98.78128 68.41174) rotate(-39.13492)"/><ellipse cx="48.46323" cy="193.68962" rx="2.74481" ry="1.51048" transform="translate(-151.19497 194.66664) rotate(-76.23276)"/><ellipse cx="44.21098" cy="193.85781" rx="2.74481" ry="1.51048" transform="translate(-154.59864 190.66472) rotate(-76.23276)"/><ellipse class="cls-6" cx="433.32682" cy="589.66308" rx="265.08785" ry="28.84946"/><path class="cls-7" d="M781.43192,221.21736c-2.37532.593-3.26665,2.077-3.22764,3.58126a9.65507,9.65507,0,0,1-.25854,3.26077c-.25629.67917-1.66471,1.23347-3.15661,1.32191-.9682.05732-4.82221.42285-7.32272.418-8.2339,1.17008-17.90791,3.102-25.96238,5.0313-12.21486,2.92591-33.22281,13.98507-36.89237,23.23739a30.9105,30.9105,0,0,0-.92892,5.41849s7.95746-.86691,27.30925-3.12708c23.48617-2.743,40.74106-4.64523,53.64319-10.32578,12.90219-5.68037,14.35483-8.17527,15.15732-10.52048.80259-2.34505,1.74014-8.44587.01911-10.79192s-6.011-2.60008-8.49028-2.17065-6.45211.9258-6.45211.9258c.63474-.449,1.07421-3.01116.58964-3.77328C784.9742,222.94077,783.8073,220.62455,781.43192,221.21736Z"/><path class="cls-8" d="M689.75316,366.44455a7.46555,7.46555,0,0,1,.47352-3.0741c.64815-2.18205,8.52473-39.66737,8.52473-39.66737a5.16768,5.16768,0,0,0-2.5601-4.7597c-6.50347-3.47939-7.83234-3.61049-13.244-3.04254-8.77956.92132-17.52649,5.00024-20.71145,13.74654-.01305.03584-.38651,3.8966-.3943,3.93613-.189.95036-5.92105,34.80035-5.95382,35.98956a13.09859,13.09859,0,0,0,6.49586,10.4141c5.8163,3.59088,27.31057,7.79671,27.31057,7.79671s7.08852-.14726,8.03193-3.63544.91812-5.04124-.50974-8.09438S689.75316,366.44455,689.75316,366.44455Z"/><path class="cls-7" d="M615.3411,304.7778c8.475-9.28573,19.51128-4.455,24.04607-3.17432,9.72664,2.747,6.39137,15.23487,5.2995,22.271a2.294,2.294,0,0,0-.19442.4796c-.36823,1.30383-7.85833,35.6584-9.16034,38.84385-1.30181,3.18546.01666,2.55221,1.314,3.65607a23.23578,23.23578,0,0,1,6.95448,13.8302c1.06085,7.87517-9.03915,5.89424-9.85438,5.93215-.81506.038-22.10047-5.30307-24.711-6.97893s-8.72933-5.88441-8.11766-11.6112c.61185-5.72674,6.43117-35.82685,6.43117-35.82685S611.24764,309.26284,615.3411,304.7778Z"/><path class="cls-8" d="M696.7591,333.223c10.806-9.07558,20.02917-15.42259,25.07661-47.76806,1.82313-11.68315-.27126-23.97289-.86158-26.89783a117.39838,117.39838,0,0,0-3.32857-13.18386l-82.02919-20.62068s-2.58848,2.57986-5.779,5.7622c-4.34916,4.33786-5.45392,5.60435-7.55261,7.72131-.999,1.00772-3.66941,3.22678-4.5324,5.2739-3.9721,9.423-5.31511,18.76592-7.38808,26.20082-8.14614,29.21689-.98447,42.17256-.43328,43.18064.0316.0578,9.4424,13.13356,14.91357,17.41688,4.19006,3.28033,13.67746,6.33621,15.21419,6.77237,1.5369.43626,19.05281,4.59,19.05281,4.59s14.74047,2.05692,21.313.31218A40.26867,40.26867,0,0,0,696.7591,333.223Z"/><path class="cls-7" d="M601.79522,312.50541c1.417-1.99647,1.12751-3.70318.11862-4.81964a9.65506,9.65506,0,0,1-1.92651-2.64349c-.24759-.68239.46065-2.02,1.53554-3.05839.69762-.67381,3.38515-3.46024,5.28641-5.08436,5.48844-6.24846,11.57409-14.01271,16.432-20.72069,7.36723-10.17289,16.11434-32.24385,12.87654-41.65595a30.91049,30.91049,0,0,0-2.82233-4.71778s-5.476,5.83837-18.69407,20.15206c-16.04207,17.37171-27.90152,30.04859-33.99717,42.75987-6.09582,12.71118-5.57429,15.55067-4.65671,17.85329.91741,2.30256,4.17738,7.54389,7.01105,8.20433s6.25548-1.93953,7.85786-3.8795,3.31735-4.25034,3.31735-4.25034,2.12246,2.33226,2.98643,2.59532C597.98442,313.50324,600.378,314.50177,601.79522,312.50541Z"/><path class="cls-3" d="M656.56987,301.24968s4.45085,9.80039,13.82465,13.77018,21.53666,3.26276,26.93072-3.525S711.205,282.87,699.99875,270.60315s-25.79369-9.24987-28.83226-7.24792-10.85238,7.41316-13.0879,17.22293S655.52827,296.22453,656.56987,301.24968Z"/><path class="cls-8" d="M599.65976,311.14257c1.417-1.99647,1.12751-3.70318.11862-4.81964a9.65507,9.65507,0,0,1-1.92651-2.64349c-.24759-.68239.46065-2.02,1.53554-3.05839.69762-.67381,3.38515-3.46024,5.28641-5.08436,5.48844-6.24846,11.57409-14.01271,16.432-20.7207,7.36723-10.17289,16.11434-32.24385,12.87654-41.65595a30.91049,30.91049,0,0,0-2.82233-4.71778s-5.476,5.83837-18.69407,20.15206c-16.04207,17.37171-27.90152,30.04859-33.99717,42.75987-6.09582,12.71118-5.57429,15.55067-4.65671,17.85329.91741,2.30256,4.17738,7.54389,7.01105,8.20433s6.25548-1.93953,7.85786-3.8795,3.31735-4.25034,3.31735-4.25034,2.12246,2.33226,2.98643,2.59532C595.849,312.1404,598.24259,313.13894,599.65976,311.14257Z"/><path class="cls-8" d="M613.01034,304.19189c8.475-9.28573,19.51128-4.455,24.04607-3.17432,9.72664,2.747,6.39137,15.23487,5.2995,22.271a2.294,2.294,0,0,0-.19442.4796c-.36823,1.30383-7.85833,35.6584-9.16034,38.84385-1.30181,3.18546.01666,2.55221,1.314,3.65607a23.23578,23.23578,0,0,1,6.95448,13.8302c1.06085,7.87517-9.03915,5.89424-9.85438,5.93215-.81506.038-22.10047-5.30307-24.711-6.97893s-8.72933-5.88441-8.11766-11.6112c.61185-5.72674,6.43117-35.82685,6.43117-35.82685S608.91688,308.67693,613.01034,304.19189Z"/><path class="cls-7" d="M620.10468,97.85858a83.85691,83.85691,0,0,1,6.62383-6.49367c.112-.79882.35736-1.60872.52219-2.29023a38.76914,38.76914,0,0,1,1.4323-4.56831,4.10827,4.10827,0,0,1,.06686-1.37919,192.02157,192.02157,0,0,1,13.29641-39.9506,4.32636,4.32636,0,0,1,.21862-.41146c.61428-2.05962,1.84686-3.54567,4.23781-3.74767,3.17668-.26861,6.009,2.53645,7.5636,4.987.111.17491.21715.34944.32177.52378a37.16265,37.16265,0,0,1,3.49871,3.33244,25.2685,25.2685,0,0,1,4.065,6.57483c4.2452,4.69,10.80721,12.28186,14.13694,16.151a77.01131,77.01131,0,0,1,13.16869.08381c15.438,1.47739,33.82617,7.48023,50.00314,15.84027,6.24789-2.40709,20.63708-7.90929,24.55707-9.05356a22.12664,22.12664,0,0,1,2.98473-1.38627,37.19694,37.19694,0,0,1,4.65865-1.28183c.175-.104.3511-.20761.5312-.30936,2.529-1.424,6.35071-2.55635,9.02312-.81738,2.01083,1.30853,2.39416,3.20079,1.96146,5.30606a4.13785,4.13785,0,0,1-.00194.46593,192.02158,192.02158,0,0,1-7.1761,41.48914,4.3832,4.3832,0,0,1-.31707.78214c7.1621,14.89792,10.66171,31.66308,8.80866,40.95929-3.101,15.55446-4.18545,59.57711-47.49355,81.0812,0,0-13.02641,8.35287-28.40551,8.36273S637.67336,241.5294,621.64621,225.873s-25.84248-29.19769-26.12208-51.69251C595.24339,151.68535,599.98832,119.93355,620.10468,97.85858Z"/><path class="cls-8" d="M621.92239,94.461a83.85692,83.85692,0,0,1,6.62383-6.49367c.112-.79882.35736-1.60872.52219-2.29023a38.76916,38.76916,0,0,1,1.4323-4.56831,4.10827,4.10827,0,0,1,.06686-1.37919A192.02158,192.02158,0,0,1,643.864,39.779a4.32638,4.32638,0,0,1,.21862-.41146c.61428-2.05962,1.84686-3.54567,4.23781-3.74767,3.17668-.26861,6.009,2.53645,7.5636,4.987.111.17491.21715.34944.32177.52378a37.16266,37.16266,0,0,1,3.49871,3.33244,25.2685,25.2685,0,0,1,4.065,6.57483c4.2452,4.69,10.80721,12.28186,14.13694,16.151a77.01131,77.01131,0,0,1,13.16869.08381c15.438,1.47739,33.82617,7.48023,50.00314,15.84027,6.24789-2.40709,20.63708-7.90929,24.55707-9.05356a22.12664,22.12664,0,0,1,2.98473-1.38627,37.19694,37.19694,0,0,1,4.65865-1.28183c.175-.104.3511-.20761.5312-.30936,2.529-1.424,6.35071-2.55635,9.02312-.81738,2.01083,1.30853,2.39416,3.20079,1.96146,5.30606a4.13782,4.13782,0,0,1-.00194.46593,192.02158,192.02158,0,0,1-7.1761,41.48914,4.3832,4.3832,0,0,1-.31707.78214c7.1621,14.89792,10.66171,31.66308,8.80866,40.95929-3.101,15.55446-4.18545,59.57711-47.49355,81.0812,0,0-13.02641,8.35287-28.40551,8.36273s-70.71791-10.57925-86.74506-26.23567-25.84248-29.19769-26.12208-51.69251C597.06111,148.28779,601.806,116.536,621.92239,94.461Z"/><path class="cls-5" d="M674.54218,178.39476s-6.88674,4.30175-5.04673,9.90348,6.90512,10.00321,14.58429,13.05083,34.55281,11.14383,44.05812,9.51133,16.50675-8.81018,14.267-15.40615-18.52154-18.06255-30.595-20.42728S682.343,173.20558,674.54218,178.39476Z"/><path d="M705.06031,171.83778s-1.22022,4.854,1.25727,8.16941,7.44759,4.34039,10.16189,2.55452,5.73736-7.5585,4.89892-9.776S706.04934,165.13058,705.06031,171.83778Z"/><circle class="cls-5" cx="746.54925" cy="167.40346" r="17.39131" transform="translate(402.19045 850.61405) rotate(-75.88924)"/><circle cx="746.54925" cy="167.40346" r="10.9461" transform="translate(402.19045 850.61405) rotate(-75.88924)"/><path d="M776.19334,156.99426s-2.688,5.02432-5.2002,3.6803-23.10744-15.78389-24.61252-18.29975,5.54084-7.86971,5.54084-7.86971,24.27559,19.64007,24.77728,20.47869S776.19334,156.99426,776.19334,156.99426Z"/><circle class="cls-5" cx="683.69475" cy="151.60295" r="17.39131" transform="translate(369.98344 777.70771) rotate(-75.88924)"/><circle cx="683.69475" cy="151.60295" r="10.9461" transform="translate(369.98344 777.70771) rotate(-75.88924)"/><path d="M662.49689,128.413s-.00741,5.69819,2.84168,5.70189,27.82448-2.98051,30.34034-4.48558-1.16073-9.55437-1.16073-9.55437-30.67728,5.82589-31.5159,6.32758S662.49689,128.413,662.49689,128.413Z"/><path class="cls-9" d="M708.18177,528.6049c-.38041-2.61675.73751-4.11542,2.25682-4.69266a10.42816,10.42816,0,0,0,3.15281-1.59414c.57375-.53435.55076-2.16895.028-3.69615-.33933-.99108-1.55282-4.9924-2.582-7.48933-2.20364-8.708-4.23589-19.16737-5.60724-28.00712-2.07969-13.40578.3667-38.93088,8.11-46.38831a33.38554,33.38554,0,0,1,5.03456-3.148s2.39337,8.30759,8.062,28.57309c6.8797,24.5951,12.0471,42.61838,11.65542,57.83942-.39147,15.221-2.28974,17.69478-4.30474,19.45747-2.0148,1.76273-7.72773,5.19886-10.77731,4.44s-5.06084-4.94213-5.64729-7.59575-1.71787-6.82731-1.71787-6.82731c-.18866.81826-2.56922,2.307-3.52936,2.135C711.35517,531.439,708.56239,531.22163,708.18177,528.6049Z"/><path class="cls-9" d="M689.63107,558.568a8.06332,8.06332,0,0,1,.446-3.32966c.65353-2.37009,8.36243-43.01648,8.36243-43.01648a5.58146,5.58146,0,0,0-2.86572-5.0854c-7.09681-3.619-8.53459-3.73236-14.36639-3.004-9.46114,1.1815-18.81992,5.77209-22.07334,15.28458-.01333.039-.33456,4.216-.34213,4.25886-.18389,1.03027-5.65426,37.70544-5.66437,38.99032a14.14741,14.14741,0,0,0,7.236,11.10773c6.35712,3.754,29.65736,7.83891,29.65736,7.83891s7.6515-.30968,8.59611-4.09648.88429-5.46336-.72249-8.73S689.63107,558.568,689.63107,558.568Z"/><path class="cls-9" d="M607.96561,493.558c8.95449-10.20744,20.9748-5.22554,25.899-3.93891,10.56181,2.75967,7.22561,16.31572,6.19609,23.937a2.47764,2.47764,0,0,0-.19976.522c-.36993,1.41578-7.728,38.67318-9.0663,42.1407-1.33807,3.46753.07224,2.75569,1.49661,3.92012a25.0963,25.0963,0,0,1,7.80383,14.7869c1.313,8.48155-9.63576,6.55709-10.51529,6.61535-.87935.05836-23.97818-5.25685-26.83277-7.01107s-9.55154-6.16881-9.01274-12.366c.539-6.1971,6.1833-38.82475,6.1833-38.82475S603.64056,498.48825,607.96561,493.558Z"/><path class="cls-10" d="M696.49042,522.54441c11.4761-10.03,21.30095-17.08,26.064-52.11591,1.72041-12.65494-.80245-25.88165-1.50208-29.02764a126.79861,126.79861,0,0,0-3.87461-14.166l-89.0185-20.524s-2.74037,2.84091-6.118,6.34521c-4.60429,4.77673-5.77037,6.16785-7.99167,8.49848-1.05737,1.10943-3.89388,3.56247-4.78227,5.79142-4.089,10.26-5.34073,20.37757-7.42122,28.4503-8.17573,31.72336-.16674,45.56148.44989,46.63836.03536.06175,10.47564,13.98174,16.47479,18.49086,4.59441,3.45324,14.90444,6.55153,16.57317,6.98986,1.66892.43843,20.672,4.55161,20.672,4.55161s15.9614,1.90789,23.02179-.11589A43.493,43.493,0,0,0,696.49042,522.54441Z"/><path class="cls-9" d="M593.50217,502.19068c1.48774-2.186,1.13885-4.02289.02566-5.20707a10.42816,10.42816,0,0,1-2.13655-2.81366c-.28187-.73162.4545-2.19114,1.59317-3.33528.739-.74245,3.58195-3.80853,5.60053-5.60277,5.79395-6.86413,12.20059-15.37779,17.30393-22.72475,7.73938-11.1419,16.71594-35.16141,13.01952-45.25637a33.38554,33.38554,0,0,0-3.148-5.03456s-5.78919,6.421-19.7587,22.15878c-16.954,19.1-29.49113,33.04136-35.80342,46.89735-6.31247,13.85589-5.689,16.91106-4.64914,19.37807,1.03961,2.467,4.67133,8.05758,7.74535,8.71053s6.71383-2.22738,8.403-4.35634,3.49194-4.66029,3.49194-4.66029,2.34154,2.47341,3.2801,2.73911C589.40824,503.34919,592.01425,504.3766,593.50217,502.19068Z"/><path class="cls-3" d="M652.412,488.87185s5.0146,10.48848,15.2214,14.57607,23.326,3.06558,29.00654-4.37892,14.37985-31.2059,2.01789-44.21424-28.05023-9.44036-31.28891-7.21394-11.56151,8.23585-13.76706,18.87657S651.18043,483.46751,652.412,488.87185Z"/><path class="cls-9" d="M782.92871,315.62235A87.42726,87.42726,0,0,0,772.832,292.96542c3.78328-1.22489,8.62282-4.78266,6.7701-10.56969-2.75534-8.60648-9.52186-11.02831-15.79971-9.02872a6.80058,6.80058,0,0,0-4.238,3.15325,89.45222,89.45222,0,0,0-29.51676-19.33779c-21.33829-8.36674-52.22093-11.46522-76.87192-7.95684a42.86859,42.86859,0,0,0-4.26023.84436,7.431,7.431,0,0,0-2.30272-3.72209c-4.7686-4.54645-11.91244-5.33178-18.15791,1.19948-3.74835,3.92045-1.92422,8.57951.54819,11.49622-16.55148,10.52948-30.8198,26.90988-33.89061,37.692-4.52856,15.904-24.68172,57.21733,6.28208,97.96466,0,0,8.40527,14.00244,23.07168,21.40571,14.6665,7.40286,72.55382,24.19631,95.37892,17.39431,22.8243-6.80219,38.70513-14.63089,49.79913-35.34039S791.49458,345.74772,782.92871,315.62235Z"/><path class="cls-10" d="M783.25192,310.36925a87.42726,87.42726,0,0,0-10.09675-22.65692c3.78328-1.22489,8.62282-4.78266,6.7701-10.56969-2.75534-8.60648-9.52186-11.02831-15.79971-9.02872a6.80058,6.80058,0,0,0-4.238,3.15325,89.45223,89.45223,0,0,0-29.51676-19.33779c-21.33829-8.36674-52.22093-11.46522-76.87192-7.95684a42.86859,42.86859,0,0,0-4.26023.84436,7.431,7.431,0,0,0-2.30272-3.72209c-4.7686-4.54645-11.91244-5.33178-18.15791,1.19948-3.74835,3.92045-1.92422,8.57951.54819,11.49622-16.55148,10.52948-30.8198,26.90988-33.89061,37.692-4.52856,15.904-24.68172,57.21733,6.28208,97.96466,0,0,8.40527,14.00244,23.07168,21.40571,14.6665,7.40286,72.55382,24.19631,95.37892,17.39431,22.8243-6.80219,38.70513-14.63089,49.79913-35.34039S791.81779,340.49462,783.25192,310.36925Z"/><path class="cls-5" d="M669.20842,355.82346s-7.3453,4.79167-5.23928,10.80166,7.66919,10.65532,16.02642,13.78312,37.54913,11.29941,47.77886,9.3345,17.63776-9.86462,15.079-16.93976-20.38462-19.1114-33.47258-21.40837S677.522,350.05406,669.20842,355.82346Z"/><path d="M702.02443,348.09419s-1.2145,5.26763,1.53132,8.79512,8.13462,4.52873,11.02773,2.54254,6.03491-8.28408,5.08238-10.6608S702.9499,340.83031,702.02443,348.09419Z"/><circle class="cls-5" cx="681.46299" cy="326.82932" r="21.13419" transform="translate(209.88785 917.44434) rotate(-77.01682)"/><circle class="cls-5" cx="744.3709" cy="340.47313" r="21.13419" transform="translate(245.36754 989.3226) rotate(-77.01682)"/><circle cx="687.33853" cy="327.98364" r="11.27118" transform="translate(213.31855 924.06466) rotate(-77.01682)"/><circle cx="738.94737" cy="340.7427" r="11.27118" transform="translate(240.89981 984.24672) rotate(-77.01682)"/><path d="M756.35793,307.11677s-29.58936,5.22035-31.9126,11.5661,55.97743,3.44418,55.47378-1.833S756.35793,307.11677,756.35793,307.11677Z"/><path d="M683.69329,290.36329s24.31666,17.64887,23.62693,24.37124-51.83459-21.41285-49.07121-25.93677S683.69329,290.36329,683.69329,290.36329Z"/><path class="cls-10" d="M591.1672,500.76439c1.48774-2.186,1.13885-4.02289.02566-5.20707a10.42816,10.42816,0,0,1-2.13655-2.81366c-.28187-.73162.4545-2.19114,1.59317-3.33528.739-.74245,3.58195-3.80853,5.60053-5.60277,5.79395-6.86413,12.20059-15.37779,17.30393-22.72475,7.73938-11.1419,16.71595-35.16141,13.01952-45.25637a33.38554,33.38554,0,0,0-3.148-5.03456s-5.78919,6.421-19.7587,22.15878c-16.954,19.1-29.49113,33.04136-35.80342,46.89735-6.31247,13.85589-5.689,16.91106-4.64914,19.37807,1.03961,2.467,4.67133,8.05758,7.74535,8.71053s6.71383-2.22738,8.403-4.35634,3.49194-4.66029,3.49194-4.66029,2.34154,2.47341,3.2801,2.73911C587.07328,501.92291,589.67929,502.95032,591.1672,500.76439Z"/><path class="cls-10" d="M605.43625,492.97485c8.95449-10.20744,20.9748-5.22554,25.899-3.93891,10.56181,2.75967,7.22561,16.31572,6.19609,23.937a2.47763,2.47763,0,0,0-.19976.522c-.36993,1.41578-7.728,38.67318-9.0663,42.1407-1.33807,3.46753.07224,2.75569,1.49661,3.92012a25.0963,25.0963,0,0,1,7.80383,14.7869c1.313,8.48155-9.63576,6.55709-10.51529,6.61535-.87935.05836-23.97818-5.25685-26.83277-7.01107s-9.55154-6.16881-9.01274-12.366c.539-6.1971,6.1833-38.82475,6.1833-38.82475S601.11121,497.90508,605.43625,492.97485Z"/><path class="cls-11" d="M109.33313,410.09985c2.64328.75491,3.58766,2.45381,3.48725,4.14045a10.84111,10.84111,0,0,0,.16737,3.669c.262.77182,1.82171,1.44689,3.49261,1.60232,1.08437.10078,5.39561.65609,8.20189.74475,9.19611,1.6231,19.97964,4.15533,28.94579,6.62373,13.59747,3.74341,36.75639,16.94511,40.526,27.46632a34.70757,34.70757,0,0,1,.83842,6.11566s-8.89729-1.27247-30.529-4.5375c-26.25313-3.96258-45.54512-6.74693-59.81012-13.60749-14.26508-6.86036-15.80131-9.71486-16.61357-12.3769-.81238-2.66186-1.63479-9.54356.3849-12.11152s6.84352-2.6915,9.6096-2.11624,7.20576,1.28188,7.20576,1.28188c-.69541-.52772-1.09211-3.4196-.51963-4.25661C105.29306,411.9005,106.68978,409.34516,109.33313,410.09985Z"/><path class="cls-11" d="M205.49757,563.08571a8.38262,8.38262,0,0,0-.73408-3.41441c-.87082-2.403-12.17879-43.899-12.17879-43.899a5.80248,5.80248,0,0,1,2.5548-5.50442c7.05957-4.33014,8.54042-4.565,14.6439-4.28628,9.90187.452,19.976,4.44558,24.12446,14.03858.017.03931.69095,4.3421.70229,4.3859.2747,1.05275,8.93846,38.61583,9.05384,39.94664a14.70764,14.70764,0,0,1-6.59239,12.1027c-6.28195,4.40967-30.09654,10.54552-30.09654,10.54552s-7.95521.30375-9.24336-3.54372-1.36253-5.59.036-9.10663S205.49757,563.08571,205.49757,563.08571Z"/><path class="cls-11" d="M284.66609,489.09324c-10.11371-9.84779-22.16467-3.7032-27.163-1.96773-10.72083,3.72241-6.15644,17.49935-4.46722,25.31389a2.57575,2.57575,0,0,1,.24965.52472c.499,1.4371,11.16669,39.44948,12.83677,42.93391,1.66987,3.48446.15012,2.86186-1.231,4.185a26.09009,26.09009,0,0,0-6.88053,15.96211c-.66826,8.89738,10.52174,6.009,11.438,5.99755.91611-.01131,24.42151-7.40583,27.23675-9.45694s9.39545-7.17312,8.33108-13.55178c-1.06457-6.3786-9.57813-39.73268-9.57813-39.73268S289.551,493.84975,284.66609,489.09324Z"/><path class="cls-12" d="M194.86094,527.63109c-4.01492-2.22389-21.86282-14.69647-31.95015-50.04365-2.87124-10.06115-2.05255-27.39414-1.58431-30.71173a76.71481,76.71481,0,0,1,4.89938-17.65311l90.58205-28.53874s3.072,2.72055,6.85868,6.0766c5.16183,4.57463,6.48391,5.92116,8.97633,8.15525,1.18643,1.06348,4.32643,3.37419,5.42913,5.61172,5.07551,10.29951,7.19879,20.683,10.01409,28.87966,11.06327,32.21021,3.89266,47.20577,3.34152,48.37217-.0316.06688-9.71529,15.34579-15.5646,20.50879-4.47965,3.954-14.91189,8.00679-16.60555,8.59732-1.69385.59064-21.05256,6.405-21.05256,6.405s-16.38644,3.28047-23.869,1.7595A64.57926,64.57926,0,0,1,194.86094,527.63109Z"/><path class="cls-11" d="M300.04037,499.02308c-1.72035-2.14411-1.50874-4.07629-.45172-5.39445a10.8411,10.8411,0,0,0,1.98458-3.09048c.2324-.78126-.64994-2.23377-1.92345-3.32657-.82652-.70913-4.02324-3.65467-6.26176-5.34939-6.5652-6.64086-13.90006-14.94125-19.78894-22.13889-8.93068-10.91546-20.195-35.0761-17.18822-45.84019a34.70758,34.70758,0,0,1,2.8515-5.47478s6.52409,6.182,22.28683,21.35191c19.13034,18.41083,33.26192,31.83588,40.93517,45.6807,7.67343,13.8447,7.27666,17.062,6.40043,19.70363-.876,2.6416-4.18346,8.73217-7.316,9.65986s-7.14-1.76028-9.06439-3.8288-3.99949-4.54477-3.99949-4.54477-2.2248,2.75459-3.17582,3.10658C304.37785,499.88951,301.7609,501.16707,300.04037,499.02308Z"/><path class="cls-11" d="M266.62343,262.46921c-21.35961-20.348-48.89581-27.041-71.467-25.39442-.55955-16.3333-1.6053-37.5457-3.42328-46.77208-3.15582-16.02008-3.835-28.68183-13.85326-31.96334s-15.89253,1.32832-16.668,5.25142c-.77467,3.92284,7.7521,64.38413,9.63062,70.15605a64.04407,64.04407,0,0,1,1.64838,7.75881c-4.79207,1.42267-9.6717,3.13608-14.55565,5.09963a69.51489,69.51489,0,0,1-3.30456-7.75075c-1.77015-5.80606-29.44092-60.23585-32.32433-63.00618-2.88425-2.77007-10.34007-3.18013-16.668,5.25142s.37349,19.19592,6.97063,34.13178c3.88658,8.79783,15.62,27.405,24.60926,41.21542a164.41593,164.41593,0,0,0-22.86,15.06144c-20.3803,16.23093-31.54338,56.84247-27.1979,73.56056,4.34632,16.71783,8.06561,64.59656,57.60417,84.85706,0,0,15.00734,8.14752,32.16357,7.034,17.1572-1.11333,78.28676-16.694,95.27376-34.92164s27.16371-33.69666,26.19417-58.22295C297.4255,319.28945,290.32277,285.04616,266.62343,262.46921Z"/><path class="cls-12" d="M263.98872,257.28709c-21.35961-20.348-48.89581-27.041-71.467-25.39442-.55955-16.3333-1.6053-37.5457-3.42328-46.77208-3.15582-16.02008-3.835-28.68183-13.85326-31.96334s-15.89253,1.32832-16.668,5.25142c-.77467,3.92284,7.7521,64.38413,9.63062,70.15605a64.044,64.044,0,0,1,1.64838,7.75881c-4.79207,1.42267-9.6717,3.13608-14.55565,5.09963a69.51491,69.51491,0,0,1-3.30456-7.75075c-1.77015-5.80606-29.44092-60.23585-32.32433-63.00618-2.88425-2.77007-10.34007-3.18013-16.668,5.25142s.37349,19.19592,6.97063,34.13178c3.88658,8.79783,15.62,27.405,24.60926,41.21542a164.41593,164.41593,0,0,0-22.86,15.06144C91.3431,282.55722,80.18,323.16876,84.5255,339.88685c4.34632,16.71783,8.06561,64.59656,57.60417,84.85706,0,0,15.00734,8.14752,32.16357,7.034,17.1572-1.11333,78.28676-16.694,95.27376-34.92164s27.16371-33.69666,26.19417-58.22295C294.79079,314.10733,287.68806,279.864,263.98872,257.28709Z"/><ellipse class="cls-4" cx="126.40101" cy="357.26986" rx="10.64118" ry="5.32059" transform="translate(-101.51701 54.49544) rotate(-17.48753)"/><ellipse class="cls-4" cx="212.01533" cy="330.29625" rx="10.64118" ry="5.32059" transform="translate(-89.45459 78.97574) rotate(-17.48753)"/><path class="cls-5" d="M136.47449,358.69041s-3.6762,7.40205.9064,11.27708,11.321,4.98957,19.60365,3.53631,35.898-8.76622,43.26782-15.25071,9.61173-16.44094,4.15238-20.96476-25.68975-5.78138-37.41776-1.3926S140.46988,350.03152,136.47449,358.69041Z"/><circle cx="121.45191" cy="340.82791" r="10.64117" transform="translate(-96.80497 52.24834) rotate(-17.48753)"/><circle cx="206.3006" cy="314.09552" r="10.64117" transform="translate(-84.85042 76.50971) rotate(-17.48753)"/><path d="M193.30891,346.01846c-1.36492.94083-10.14373,5.03678-12.72307,4.13953-2.6252-.91313-6.25262-4.12287-8.15382-7.5856a6.121,6.121,0,0,0,2.62148-2.63477c1.40074-2.99582.9429-9.61262-.96645-11.08779-1.90961-1.47521-17.37185,1.53854-14.65227,7.88066,0,0,1.53083,4.85887,5.44677,6.4119a8.72107,8.72107,0,0,0,4.6529.4415c.39819,3.90776-.7287,8.55937-2.34327,10.79422-1.59913,2.21628-11.14045,3.8897-12.79705,3.90083a1.27937,1.27937,0,0,0-.737,2.42071c.68423.32605,5.53091-.29382,9.71947-1.61347,2.60157-.81965,4.94893-1.90965,5.88855-3.20956a18.99511,18.99511,0,0,0,2.8665-9.18471,18.993,18.993,0,0,0,7.61368,5.88283c1.51524.52709,4.0633.07413,6.66554-.74573,4.18789-1.31943,8.515-3.58986,8.889-4.24931a1.27928,1.27928,0,0,0-1.991-1.56124Z"/><path class="cls-12" d="M302.825,495.13965c-1.72035-2.14411-1.50874-4.07629-.45172-5.39445a10.84111,10.84111,0,0,0,1.98458-3.09048c.2324-.78126-.64994-2.23377-1.92345-3.32657-.82652-.70913-4.02324-3.65467-6.26176-5.34939-6.5652-6.64086-13.90006-14.94125-19.78894-22.13889-8.93068-10.91546-20.195-35.0761-17.18822-45.84019a34.70757,34.70757,0,0,1,2.8515-5.47478s6.52409,6.182,22.28683,21.35191c19.13034,18.41083,33.26192,31.83588,40.93517,45.6807,7.67343,13.8447,7.27666,17.062,6.40043,19.70363-.876,2.6416-4.18346,8.73217-7.316,9.65986s-7.14-1.76028-9.06439-3.8288-3.99949-4.54477-3.99949-4.54477-2.2248,2.75459-3.17582,3.10658C307.16248,496.00608,304.54553,497.28364,302.825,495.13965Z"/><path class="cls-12" d="M287.40075,488.23166c-10.11371-9.84779-22.16467-3.7032-27.163-1.96773-10.72083,3.72241-6.15644,17.49935-4.46722,25.31389a2.57575,2.57575,0,0,1,.24965.52472c.499,1.4371,11.16669,39.44948,12.83677,42.93391,1.66987,3.48446.15012,2.86186-1.231,4.185a26.09009,26.09009,0,0,0-6.88053,15.96211c-.66826,8.89738,10.52174,6.009,11.438,5.99755.91611-.01131,24.42151-7.40583,27.23675-9.45694s9.39545-7.17312,8.33108-13.55178c-1.06457-6.3786-9.57813-39.73268-9.57813-39.73268S292.2857,492.98817,287.40075,488.23166Z"/><path class="cls-13" d="M224.88132,494.49819s-4.0048,10.40657-13.4564,15.08387-22.07285,4.68829-28.06525-2.00208-16.10031-28.7552-5.25994-42.12466,26.10989-11.13957,29.37436-9.25467,11.67523,7.00406,14.58565,17.01233S225.65185,489.23791,224.88132,494.49819Z"/><rect class="cls-14" x="229.62133" width="391.38118" height="562.61044" rx="30" ry="30"/><rect class="cls-15" x="254.92351" y="39.13812" width="340.77681" height="486.78034"/><rect class="cls-15" x="384.22956" y="14.06526" width="112.52209" height="18.34601" rx="9.173" ry="9.173"/><circle class="cls-15" cx="361.92669" cy="23.17079" r="9.4214"/></g></g></svg>