<svg xmlns="http://www.w3.org/2000/svg" viewBox="0 0 976.6 719.03"><defs><style>.cls-1{fill:#534741;}.cls-2{fill:#f05c79;}.cls-3{fill:#eff3f0;}.cls-4{fill:#e94e58;}.cls-5{fill:#e1a565;}.cls-6{fill:#73798b;}.cls-7{fill:#d3b4bb;}.cls-8{font-size:77.38px;font-family:NotoSansMonoCJKtc-Regular-B5pc-H, Noto Sans Mono CJK TC;}</style></defs><title>actbanner</title><g id="圖層_2" data-name="圖層 2"><g id="圖層_1-2" data-name="圖層 1"><path class="cls-1" d="M301.44,643.18s-10.84,36.16,21.1,47.5,58.07-4.54,63.88-20.41,0-25.8,0-25.8Z"/><path class="cls-1" d="M583.52,607.27s-38.56,31.75-28,68,35.05,38.55,56.09,43.09,70.11-15.87,80.63-47.62,3.51-74.84-38.56-81.64S583.52,607.27,583.52,607.27Z"/><path class="cls-1" d="M149.69,594.94s-41.95,12-49.57,38.48,3.81,67.35,34.32,79.37,61,7.22,83.89-19.24S233.58,623.8,203.08,607,149.69,594.94,149.69,594.94Z"/><path class="cls-2" d="M873.42,335.78c2.27,0,42,1.13,44.22-12.47s-4.54-201.83-15.87-222.24S879.09,14.88,690.86,3.54,253.17,8.08,164.73,51.17,37.73,198.57,26.4,284.75s-24.95,356-24.95,356-6.8,15.87,9.07,20.41,81.64,13.61,81.64,13.61,11.34,4.54,13.61-11.34,24.95-70.3,59-68c0,0,40.82,0,52.16,29.48S226,661.21,226,661.21s-2.27,6.8,2.27,6.8h86.18L548,672.54s9.07,4.54,11.34-6.8,12-66.53,50.52-71.07,72.82,8.09,83.28,32.52c9.1,21.26-6.6,57.28,13.81,68.62s97.31,10.75,133.59,10.75S951.66,702,972.07,668c0,0,4.54,0,4.54-13.61v-68s0-4.54-9.07-9.07-31.75-9.07-31.75-9.07,6.8-31.75-18.14-47.62A213.28,213.28,0,0,0,870,497.92Z"/><polygon class="cls-3" points="699.93 200.84 899.5 214.45 910.84 309.7 695.4 302.89 699.93 200.84"/><path class="cls-4" d="M695.4,312,913.1,321s0,6.8-11.34,9.07S870,334.64,870,334.64l-4.54,163.28H693.13Z"/><path class="cls-4" d="M833.73,502.46H870s45.36,20.41,52.16,36.28a82.85,82.85,0,0,1,6.8,29.48v11.34s31.75,0,36.28,6.8,6.8,45.36,6.8,59-4.54,15.87-4.54,15.87-56.69,31.75-95.25,34-108.85-4.54-149.67-24.95c0,0-2.27-2.27-2.27-9.07v-63.5s-2.27-6.8,9.07-6.8,77.11-2.27,77.11-2.27,2.27-38.55-2.27-49.89c0,0-6.8-11.34-22.68-18.14s-59-15.87-59-15.87l86.18-2.27,47.62,18.14s11.34,4.54,11.34,20.41A153.32,153.32,0,0,0,870,568.23h11.34s2.27-34-6.8-43.09S858.68,511.53,833.73,502.46Z"/><path class="cls-4" d="M693.13,507s68,15.87,79.37,22.68,15.87,4.54,20.41,20.41a119.57,119.57,0,0,1,4.54,29.48H718.07s4.54-27.21,0-29.48-22.68-13.61-24.95-20.41S693.13,507,693.13,507Z"/><polygon class="cls-3" points="772.5 343.71 829.2 343.71 833.73 491.12 786.11 491.12 772.5 343.71"/><polygon class="cls-3" points="706.74 343.71 765.7 343.71 779.3 491.12 706.74 491.12 706.74 343.71"/><path class="cls-5" d="M761.16,627.19s-2.27,20.41,6.8,24.95,24.95,0,29.48-13.61,0-24.95-9.07-31.75S765.7,611.31,761.16,627.19Z"/><path class="cls-5" d="M931.25,613.58s-6.8,15.87,0,24.95,15.87,4.54,22.68,0,6.8-20.41,2.27-27.21S938.05,604.51,931.25,613.58Z"/><path class="cls-6" d="M145.45,639.66s-6.8,15.87-2.27,29.48,29.48,15.87,36.28,6.8,11.34-27.21,2.27-34S161.33,632.86,145.45,639.66Z"/><path class="cls-6" d="M608.09,637.39s-6.8,15.87-2.27,29.48,29.48,15.87,36.28,6.8,11.34-27.21,2.27-34S624,630.59,608.09,637.39Z"/><path class="cls-4" d="M670.45,10.35S779.3,19.42,802,30.76s70.3,20.41,81.64,68S899.5,205.38,899.5,205.38L697.66,191.77s6.8-122.46-27.21-145.14-47.62-34-47.62-34,2.27-4.54,6.8-4.54S670.45,10.35,670.45,10.35Z"/><path class="cls-3" d="M813.32,191.77l68,6.8s6.8-61.23-9.07-88.44-61.23-31.75-61.23-31.75Z"/><path class="cls-3" d="M709,182.7l95.25,9.07L799.71,76.11l-59-6.8S709,64.77,706.73,92,709,182.7,709,182.7Z"/><rect class="cls-7" x="108.99" y="60.03" width="559" height="559" rx="112.96" ry="112.96"/><text class="cls-8" transform="translate(235.47 375.93)">活動看板</text></g></g></svg>