<svg xmlns="http://www.w3.org/2000/svg" viewBox="0 0 274.65 474.24"><defs><style>.cls-1{fill:#7e675c;}.cls-2{fill:#dbd0bb;}.cls-3{fill:#fff;}.cls-4{fill:#2b102e;}</style></defs><title>bear</title><g id="圖層_2" data-name="圖層 2"><g id="圖層_1-2" data-name="圖層 1"><path class="cls-1" d="M226.68,378.91c-1.32-3.39-.28-5.74,1.57-7a14.33,14.33,0,0,0,3.73-3.11c.6-.89.07-3.07-1.1-5-.76-1.22-3.62-6.2-5.77-9.23-5.64-11-11.59-24.35-16.15-35.77-6.92-17.31-11.53-52.23-3.46-64.61,1.23-1.89,5.77-5.77,5.77-5.77s5.77,10.38,19.61,35.77c16.8,30.8,29.28,53.34,33.46,73.84s2.4,24.4.24,27.38-8.74,9.35-13.06,9.27-8.3-5.05-9.91-8.43-4.41-8.61-4.41-8.61c0,1.15-2.73,3.88-4.07,3.95S228,382.29,226.68,378.91Z"/><path class="cls-1" d="M211.09,424.75s-.57-1.22-.43-4.6S208.58,360,208.58,360s-.79-4.77-5.41-5.92c-10.62-2.65-12.58-2.36-20.16.41-12.3,4.5-23.41,13.54-24.83,27.28,0,.06.85,5.75.86,5.81.07,1.44,4.07,52.23,4.45,53.95s3.45,9.57,13.12,12.64,42.13,1.34,42.13,1.34,10.15-2.78,10.24-8.14-.5-7.59-3.66-11.46S211.09,424.75,211.09,424.75Z"/><path class="cls-1" d="M78.12,362.92c8.84-16.43,26.47-13.47,33.46-13.27,15,.43,14.71,19.61,15.68,30.13a3.4,3.4,0,0,0-.11.76c-.06,2,1.59,54.16.87,59.22s.95,3.67,3.21,4.79a34.48,34.48,0,0,1,15,17.39c4.38,10.95-10.88,11.75-12,12.1s-33.73.36-38.09-1.1-14.69-5.31-15.88-13.77-3.71-53.89-3.71-53.89S73.85,370.85,78.12,362.92Z"/><path class="cls-1" d="M209.15,374.4c12.27-17,14.21-32.46,17.67-80.92.61-8.55.37-8.67-1.15-15-1.36-5.65-8.48-16.77-10.38-20.77-5.44-11.4-7.85-17.31-7.85-17.31H81.91L75.68,250.8c-4.69,7.82-5.82,10-8.08,13.84-1.07,1.81-4.11,6-4.61,9.23-2.31,15-.86,28.93-1.15,40.38-1.15,45,13.84,61.05,15,62.3.07.07,18.34,15.49,27.76,19.67,7.22,3.21,22,4.17,24.35,4.24s29.08-.29,29.08-.29,22-2.37,30.79-7.26C196.25,388.8,202.59,383.47,209.15,374.4Z"/><path class="cls-1" d="M61.42,377.75c1.32-3.39.28-5.74-1.57-7a14.33,14.33,0,0,1-3.73-3.11c-.6-.89-.07-3.07,1.1-5,.76-1.22,3.62-6.2,5.77-9.23,5.64-11,11.59-24.35,16.15-35.77,6.92-17.31,11.53-52.23,3.46-64.61-1.23-1.89-5.77-5.77-5.77-5.77s-5.77,10.38-19.61,35.77c-16.8,30.8-29.28,53.34-33.46,73.84s-2.4,24.4-.24,27.38,8.74,9.35,13.06,9.27,8.3-5.05,9.91-8.43,3.24-7.32,3.24-7.32,3.9,2.59,5.24,2.65S60.1,381.14,61.42,377.75Z"/><path class="cls-2" d="M139.75,342.92s10,12.49,24.88,14.82,32.18-3.1,37.48-14.82,9.62-46.22-10.95-59.82-40.47-4-44.12,0-12.94,14.6-12.6,29.52S136.43,336.07,139.75,342.92Z"/><path class="cls-1" d="M259.82,63.55a120.12,120.12,0,0,0-20.51-27.22c4.69-2.81,10.07-9.06,5.8-16.24C238.76,9.43,229,8.27,221.17,12.89c-2.92,1.73-4.22,3.72-4.7,5.53A122.9,122.9,0,0,0,171,1.64C139.83-3,97.53,2.41,65.61,14.71a58.9,58.9,0,0,0-5.44,2.45,10.21,10.21,0,0,0-4.23-4.27C48.14,8.27,38.34,9.43,32,20.1c-3.81,6.41.07,12.08,4.28,15.22C17.36,54.53,3.32,80.86,2.53,96.24c-1.15,22.69-15.38,84.22,38.65,129.22,0,0,15.58,16.15,37.5,21.54s104.61,10,133.06-6.15,47.3-31.54,55.76-62.69S280.58,101.24,259.82,63.55Z"/><path class="cls-3" d="M121.16,159.61s-8.35,8.68-3.68,16.08,13.56,11.9,25.71,13.51S197,192.73,210,186.95s20.57-18.65,15-27.33-33.19-19.29-51.42-18.33S130.51,149.32,121.16,159.61Z"/><path class="cls-4" d="M162.71,139.13s0,7.43,4.77,11.3,12.29,3.55,15.55,0,5.52-13,3.51-15.84S161.71,129.12,162.71,139.13Z"/><circle class="cls-3" cx="128.62" cy="117.01" r="29.04"/><circle class="cls-3" cx="217.05" cy="115.86" r="29.04"/><circle class="cls-4" cx="136.84" cy="116.74" r="15.49"/><circle class="cls-4" cx="209.88" cy="117.9" r="15.49"/><path class="cls-4" d="M222.81,67.5s-38,16.12-39.16,25.34,76-12.67,73.7-19.58S222.81,67.5,222.81,67.5Z"/><path class="cls-4" d="M120.35,67.5s38,16.12,39.16,25.34-76-12.67-73.7-19.58S120.35,67.5,120.35,67.5Z"/></g></g></svg>