<svg xmlns="http://www.w3.org/2000/svg" viewBox="0 0 235.09 485.72"><defs><style>.cls-1{fill:#cd4776;}.cls-2{fill:#e2b4aa;}.cls-3{fill:#2c112f;}</style></defs><title>body3</title><g id="圖層_2" data-name="圖層 2"><g id="圖層_1-2" data-name="圖層 1"><path class="cls-1" d="M63.1,285.37s-24,42-30,53.5-17.75,32.25-20.5,50.25-2,21.75,0,24.25,8,7.75,11.75,7.5,7-4.75,8.25-7.75,2.5-6.5,2.5-6.5,3.5,2.08,4.67,2.08,4.5.33,5.5-2.67,0-5-1.67-6a12.47,12.47,0,0,1-3.37-2.54c-.56-.75.31-2.44,1.25-4.12S48,382.93,48,382.93s1,.06,1.25,1.75,5.48,13.6,6.9,15.52,2.5,2,2.5,3.75-2.75,47.08-2.25,51.5-.92,3.17-2.92,4.08A30,30,0,0,0,40,474.29c-4.08,9.42,9.17,10.5,10.17,10.83s29.33,1.17,33.17,0,12.92-4.25,14.17-11.58,4.58-46.79,4.58-46.79a1.86,1.86,0,0,1,1.94-2.06c2.06.06,25.31-.25,25.31-.25a1.81,1.81,0,0,1,1.38,1.56c.06,1.25,3.54,45.46,3.88,47A16.92,16.92,0,0,0,146,484c8.42,2.67,36.67,1.17,36.67,1.17s8.83-2.42,8.92-7.08-.44-6.6-3.19-10S176,458.37,176,458.37a9.64,9.64,0,0,1-.37-4c.13-2.94-1.81-52.37-1.81-52.37s2.75-4.37,4.33-7.54,4.67-10.33,4.75-12.17,1.29-1.54,1.6-.73,7.75,12.06,8.44,12.81,1.81,1.5,1,2.31-5.44,4.06-5.62,5.88c0,0-.87,5.06,4.06,5.19s5.13-2.06,5.13-2.06.94-.12,1.25,1.81,5.31,12.19,8.63,12.81,12.31-3,14.06-8.19,1.69-14.94.56-19.62-13.69-45.37-27.44-65.62-18-33-20.75-38.37l-1.5-3.12Z"/><path class="cls-2" d="M90,392s8.63,10.83,21.56,12.84,27.89-2.68,32.49-12.84,8.34-40.06-9.49-51.85-35.08-3.45-38.24,0S85.11,352.81,85.4,365.75,87.13,386.07,90,392Z"/><path class="cls-2" d="M75.76,239.43s-7.24,7.53-3.19,13.94,11.75,10.31,22.29,11.71,46.6,3.07,57.94-2,17.83-16.17,13-23.69S137,222.7,121.19,223.54,83.86,230.51,75.76,239.43Z"/><path class="cls-3" d="M111.77,221.68s0,6.44,4.13,9.8,10.65,3.08,13.48,0,4.79-11.23,3-13.73S110.9,213,111.77,221.68Z"/><path class="cls-3" d="M151,247a1.61,1.61,0,0,0-1.89-.35c-2,.62-14.14,2.22-16.91.16-3.33-2.48-7.14-9.36-7.26-14.86,0,0,0-.09,0-.13s0-.1,0-.16,0-.1,0-.16,0-.1,0-.14l-.07-.14-.07-.13-.1-.12-.1-.12-.12-.1-.12-.1-.13-.08-.14-.07-.15,0-.15,0-.16,0-.14,0h-.07l-.14,0-.16,0-.15,0-.15.05-.14.07-.13.08-.12.1-.12.1-.1.12-.1.12-.07.13-.07.14s0,.1,0,.14a1.53,1.53,0,0,0,0,.16c0,.05,0,.1,0,.16s0,.09,0,.13c-.12,5.5-3.93,12.38-7.26,14.86-2.77,2.06-14.9.46-16.91-.16a1.62,1.62,0,0,0-1.81,2.64c.7.65,6.78,1.75,12.33,1.75,3.45,0,6.69-.42,8.32-1.63,2.56-1.91,5.27-5.73,6.94-10,1.67,4.25,4.38,8.07,6.94,10,1.63,1.21,4.87,1.63,8.32,1.63,5.55,0,11.63-1.09,12.33-1.75A1.62,1.62,0,0,0,151,247Z"/><path class="cls-1" d="M222.39,149.82a106.38,106.38,0,0,0-68-52.8c4.92-18.19,11-41.93,12.12-52.73,2-18.75,5.57-32.94-4.05-40S145,.2,142.8,4.26,129.37,77.9,129.44,84.91a76,76,0,0,1-.85,9.12c-5.62-.1-11.42.1-17.32.57a82.53,82.53,0,0,1-.92-9.69c.06-7-11.21-76.6-13.37-80.66s-10-7.09-19.64,0-6.08,21.28-4.05,40c1.19,11,7.49,35.62,12.46,54a180.84,180.84,0,0,0-29.58,8.66c-27.32,10.81-53,51.69-54,71.62s-13.17,74,33.08,113.51c0,0,13.33,14.19,32.09,18.92s89.54,8.78,113.89-5.41,40.49-27.7,47.73-55.07S240.16,182.93,222.39,149.82Z"/><path class="cls-2" d="M76.76,239.43s-7.24,7.53-3.19,13.94,11.75,10.31,22.29,11.71,46.6,3.07,57.94-2,17.83-16.17,13-23.69S138,222.7,122.19,223.54,84.86,230.51,76.76,239.43Z"/><path class="cls-3" d="M111.77,221.68s0,6.44,4.13,9.8,10.65,3.08,13.48,0,4.79-11.23,3-13.73S110.9,213,111.77,221.68Z"/><path class="cls-3" d="M151,247a1.61,1.61,0,0,0-1.89-.35c-2,.62-14.14,2.22-16.91.16-3.33-2.48-7.14-9.36-7.26-14.86,0,0,0-.09,0-.13s0-.1,0-.16,0-.1,0-.16,0-.1,0-.14l-.07-.14-.07-.13-.1-.12-.1-.12-.12-.1-.12-.1-.13-.08-.14-.07-.15,0-.15,0-.16,0-.14,0h-.07l-.14,0-.16,0-.15,0-.15.05-.14.07-.13.08-.12.1-.12.1-.1.12-.1.12-.07.13-.07.14s0,.1,0,.14a1.53,1.53,0,0,0,0,.16c0,.05,0,.1,0,.16s0,.09,0,.13c-.12,5.5-3.93,12.38-7.26,14.86-2.77,2.06-14.9.46-16.91-.16a1.62,1.62,0,0,0-1.81,2.64c.7.65,6.78,1.75,12.33,1.75,3.45,0,6.69-.42,8.32-1.63,2.56-1.91,5.27-5.73,6.94-10,1.67,4.25,4.38,8.07,6.94,10,1.63,1.21,4.87,1.63,8.32,1.63,5.55,0,11.63-1.09,12.33-1.75A1.62,1.62,0,0,0,151,247Z"/></g></g></svg>