<svg xmlns="http://www.w3.org/2000/svg" viewBox="0 0 266.18 389.8"><defs><style>.cls-1{fill:#1d77b5;}.cls-2{fill:#2c112f;}.cls-3{fill:#ded3be;}</style></defs><title>body4_1</title><g id="圖層_2" data-name="圖層 2"><g id="圖層_1-2" data-name="圖層 1"><path class="cls-1" d="M53,197.23s13.28,14.13,32,18.84,89.16,8.75,113.42-5.38,40.32-27.59,47.53-54.84S257,88.57,239.3,55.6,190.13,5.47,163.58,1.43,101,2.11,73.77,12.87,21,64.34,20,84.19,6.9,157.87,53,197.23Z"/><path class="cls-2" d="M76.33,41.2S21.58,180.93,4.55,155.74,22.86,53.35,36.62,41.2,106.06-26,76.33,41.2Z"/><path class="cls-2" d="M189.86,40.2s54.75,139.73,71.78,114.54S243.33,52.35,229.57,40.2,160.12-27,189.86,40.2Z"/><path class="cls-1" d="M80.84,189S56.79,231.1,50.77,242.62,33,274.95,30.23,293s-2,21.8,0,24.3,8,7.77,11.78,7.52S49,320,50.27,317s2.51-6.51,2.51-6.51,3.51,2.09,4.68,2.09,4.51.33,5.51-2.67,0-5-1.67-6a12.5,12.5,0,0,1-3.38-2.55c-.56-.75.31-2.44,1.25-4.13s6.58-10.46,6.58-10.46,1,.06,1.25,1.75,5.49,13.63,6.91,15.56,2.51,2,2.51,3.76S73.66,355,74.16,359.47s-.92,3.17-2.92,4.09a30.08,30.08,0,0,0-13.53,14.78c-4.09,9.44,9.19,10.52,10.19,10.86s29.4,1.17,33.24,0,12.95-4.26,14.2-11.61,4.59-46.9,4.59-46.9a1.87,1.87,0,0,1,1.94-2.07c2.07.06,25.37-.25,25.37-.25a1.81,1.81,0,0,1,1.38,1.57c.06,1.25,3.55,45.56,3.88,47.06a17,17,0,0,0,11.44,11c8.44,2.67,36.75,1.17,36.75,1.17s8.85-2.42,8.94-7.1-.44-6.62-3.19-10-12.4-9.71-12.4-9.71a9.66,9.66,0,0,1-.38-4c.13-2.94-1.82-52.49-1.82-52.49s2.76-4.38,4.34-7.56,4.68-10.36,4.76-12.19,1.29-1.55,1.61-.73,7.77,12.09,8.46,12.84,1.82,1.5,1,2.32-5.45,4.07-5.64,5.89c0,0-.88,5.07,4.07,5.2s5.14-2.07,5.14-2.07.94-.13,1.25,1.82,5.32,12.21,8.64,12.84,12.34-3,14.09-8.21,1.69-15,.56-19.67-13.72-45.48-27.5-65.77-18-33.07-20.8-38.46l-1.5-3.13Z"/><path class="cls-3" d="M107.81,295.88s8.64,10.85,21.61,12.87,28-2.69,32.56-12.87,8.36-40.15-9.51-52-35.15-3.46-38.32,0-11.24,12.68-10.95,25.65S104.93,289.92,107.81,295.88Z"/><path class="cls-3" d="M93.53,143s-7.26,7.54-3.2,14,11.78,10.34,22.33,11.73,46.7,3.07,58.07-2,17.87-16.2,13-23.74S154.9,126.2,139.06,127,101.65,134,93.53,143Z"/><path class="cls-2" d="M129.62,125.17s0,6.45,4.14,9.82,10.68,3.09,13.51,0,4.8-11.25,3.05-13.76S128.75,116.47,129.62,125.17Z"/><path class="cls-2" d="M168.9,150.55a1.62,1.62,0,0,0-1.89-.35c-2,.62-14.17,2.22-16.94.16-3.34-2.48-7.16-9.38-7.27-14.89,0,0,0-.09,0-.13s0-.11,0-.16,0-.1,0-.16,0-.1,0-.14l-.07-.14-.07-.13-.1-.12-.1-.12-.12-.1-.12-.1-.13-.08-.14-.07-.15,0-.15,0-.16,0-.14,0h-.07l-.14,0-.16,0-.15,0-.15.05-.14.07-.13.08-.12.1-.12.1-.1.12-.1.12-.07.13-.07.14s0,.1,0,.14a1.54,1.54,0,0,0,0,.16c0,.05,0,.1,0,.16s0,.09,0,.13c-.12,5.51-3.94,12.41-7.27,14.89-2.78,2.07-14.94.46-16.94-.16a1.62,1.62,0,0,0-1.81,2.64c.7.65,6.79,1.75,12.35,1.75,3.45,0,6.71-.42,8.33-1.64,2.57-1.91,5.29-5.74,7-10,1.67,4.26,4.39,8.09,7,10,1.63,1.21,4.88,1.64,8.34,1.64,5.56,0,11.65-1.1,12.35-1.75A1.62,1.62,0,0,0,168.9,150.55Z"/></g></g></svg>