<svg xmlns="http://www.w3.org/2000/svg" viewBox="0 0 147.47 65.06"><defs><style>.cls-1{fill:#534741;}.cls-2{fill:#a7d6df;}.cls-3{fill:#a3acc1;}.cls-4{fill:#dfe26a;}.cls-5{fill:#5f5d5d;}</style></defs><title>car3</title><g id="圖層_2" data-name="圖層 2"><g id="圖層_1-2" data-name="圖層 1"><path class="cls-1" d="M104.77,52.87s3.38,2.86,2.34,6.5-4.68,4.16-6.76,1a6,6,0,0,1,0-6.76C100.87,52.87,104.77,52.87,104.77,52.87Z"/><path class="cls-1" d="M21.49,57c-.78,4-1.3,7.49-4.16,6.79s-4.16-5.57-3.9-6.27S21.49,57,21.49,57Z"/><path class="cls-2" d="M92.6,43c-.2.92-45.37,6.37-59.36,6.25-2.8,0-2.73-3.31-4.79-5.21-9.85-9-27-5.87-26.85-6C42.6-23,88.5,9,92.6,17,96.28,24.1,96.76,24,92.6,43Z"/><path class="cls-2" d="M122,13.93l-.62.19c-2.21.7-9.7,3.3-12.13,6.83-2.86,4.16-3.35,16.44,1.33,18s29.1-1.36,29.1-1.36A185.12,185.12,0,0,0,122,13.93Z"/><path class="cls-3" d="M78.6,37c-.69.69-61.34.36-75.24.31-1,0-3.59.3-3.34,5.71.33,7.07,1.3,15.35,6.5,15.61s136.56-1,138.9-2.6,3-13.91.17-17-23.84-1.44-23.84-1.44S118.77,33,120.6,26s4-7.17,3.5-10S111.87,7.09,102,4.49,70.58,1.28,46.49,0a5.46,5.46,0,0,0-1.77.2C41.62,1.08,34.19,5.62,40.6,6c28.57,1.51,28,2,36,12C83.6,26.72,82.6,33,78.6,37Z"/><path class="cls-1" d="M129.77,52.87s3.38,2.86,2.34,6.5-4.68,4.16-6.76,1a6,6,0,0,1,0-6.76C125.87,52.87,129.77,52.87,129.77,52.87Z"/><path class="cls-1" d="M64.9,55.19s4.34,4.56,2.57,7.73-7.54,3.12-9.16-2.1S60.15,51.62,64.9,55.19Z"/><path class="cls-4" d="M51.52,47.15s-4.16,6.24-9.88,4.94-8.06-5.46-6.5-6.76S50,42.21,51.52,47.15Z"/><path class="cls-4" d="M26.29,46.37c0,.58-2.86,3.9-7.8,4.94s-7.8-.52-9.36-2.6S8.6,43.77,13.54,43,26.29,44.29,26.29,46.37Z"/><path class="cls-5" d="M114.36,39.32c.15.71-10.4,2.16-10.66,1.44s-.78-2.65.52-2.41S113.84,36.92,114.36,39.32Z"/></g></g></svg>