<svg xmlns="http://www.w3.org/2000/svg" viewBox="0 0 180.63 333.26"><defs><style>.cls-1{fill:#daa164;}.cls-2{fill:#b57e59;}.cls-3{fill:#fff;}.cls-4{fill:#2c112f;}</style></defs><title>cat</title><g id="圖層_2" data-name="圖層 2"><g id="圖層_1-2" data-name="圖層 1"><path class="cls-1" d="M33.45,270.84c.86-2.22.19-3.76-1-4.57a9.38,9.38,0,0,1-2.44-2c-.39-.58,0-2,.72-3.25.5-.8,2.37-4.06,3.78-6,3.69-7.19,7.59-15.95,10.58-23.42,4.53-11.33,7.55-34.2,2.27-42.3a30,30,0,0,0-3.78-3.78s-3.78,6.8-12.84,23.42C19.7,229,11.53,243.8,8.8,257.22s-1.57,16-.16,17.93,5.72,6.12,8.55,6.07,5.44-3.31,6.49-5.52,2.89-5.64,2.89-5.64c0,.76,1.79,2.54,2.66,2.58S32.59,273.06,33.45,270.84Z"/><path class="cls-1" d="M43.66,300.86a7.25,7.25,0,0,0,.28-3c-.09-2.21,1.36-39.4,1.36-39.4a5,5,0,0,1,3.54-3.88c7-1.74,8.24-1.55,13.2.27,8.05,2.95,15.33,8.86,16.26,17.86,0,0-.56,3.76-.56,3.8,0,.94-2.66,34.19-2.91,35.32a12.73,12.73,0,0,1-8.59,8.27c-6.33,2-27.58.88-27.58.88S32,319.16,32,315.65s.33-5,2.4-7.51S43.66,300.86,43.66,300.86Z"/><path class="cls-1" d="M130.72,260.38c-5.79-10.76-17.33-8.82-21.91-8.69-9.82.28-9.63,12.84-10.27,19.73a2.23,2.23,0,0,1,.07.5c0,1.32-1,35.46-.57,38.77s-.62,2.4-2.1,3.13a22.58,22.58,0,0,0-9.83,11.38c-2.87,7.17,7.12,7.7,7.88,7.92s22.08.24,24.94-.72,9.62-3.48,10.4-9,2.43-35.28,2.43-35.28S133.52,265.57,130.72,260.38Z"/><path class="cls-1" d="M44.93,267.9c-8-11.11-9.3-21.25-11.57-53-.4-5.6-.24-5.68.76-9.82.89-3.7,5.55-11,6.8-13.6,3.56-7.46,5.14-11.33,5.14-11.33h82.18l4.08,6.8c3.07,5.12,3.81,6.57,5.29,9.06.7,1.19,2.69,3.91,3,6,1.51,9.82.56,18.94.76,26.44.76,29.46-9.06,40-9.82,40.79,0,0-12,10.14-18.18,12.88-4.73,2.1-14.39,2.73-15.94,2.78s-19-.19-19-.19S64,283.22,58.24,280A39.13,39.13,0,0,1,44.93,267.9Z"/><path class="cls-1" d="M141.65,270.09c-.86-2.22-.19-3.76,1-4.57a9.38,9.38,0,0,0,2.44-2c.39-.58,0-2-.72-3.25-.5-.8-2.37-4.06-3.78-6-3.69-7.19-7.59-15.95-10.58-23.42-4.53-11.33-7.55-34.2-2.27-42.3a30,30,0,0,1,3.78-3.78s3.78,6.8,12.84,23.42c11,20.17,19.17,34.92,21.91,48.35s1.57,16,.16,17.93-5.72,6.12-8.55,6.07-5.44-3.31-6.49-5.52-2.12-4.79-2.12-4.79-2.55,1.69-3.43,1.74S142.52,272.31,141.65,270.09Z"/><path class="cls-2" d="M90.37,247.29s-6.52,8.18-16.29,9.7-21.07-2-24.54-9.7-6.3-30.26,7.17-39.17,26.5-2.61,28.89,0,8.47,9.56,8.25,19.33S92.54,242.8,90.37,247.29Z"/><path class="cls-1" d="M170.87,61.66A81.07,81.07,0,0,0,166.2,54c.08-.78,0-1.59.05-2.27a37.48,37.48,0,0,0-.27-4.62,4,4,0,0,0,.26-1.31,185.63,185.63,0,0,0-3.05-40.59,4.18,4.18,0,0,0-.11-.44C163,2.71,162.19,1,160,.27c-2.92-1-6.23,1-8.27,2.89l-.43.42a35.93,35.93,0,0,0-4.07,2.3,24.43,24.43,0,0,0-5.36,5.21c-5.09,3.4-13,9-17.06,11.81a74.45,74.45,0,0,0-12.37-3c-14.82-2.25-33.48-1-50.61,3.07C56.54,19.21,44.35,10.66,40.94,8.66a21.39,21.39,0,0,0-2.47-2,36,36,0,0,0-4.07-2.3L34,3.94C31.95,2,28.63,0,25.71,1c-2.19.75-3,2.44-3.09,4.51a4,4,0,0,0-.11.44,185.63,185.63,0,0,0-3.05,40.59,4.24,4.24,0,0,0,.11.81C9.35,59.68,2.12,74.57,1.67,83.72.91,99-8.45,140.57,27.09,170.93c0,0,10.24,10.9,24.66,14.54s68.8,6.75,87.51-4.15S170.37,160,175.93,139,184.53,87.1,170.87,61.66Z"/><path class="cls-3" d="M31.42,120.17s-5.32,5.53-2.34,10.24S37.71,138,45.45,139s34.24,2.25,42.58-1.43,13.1-11.88,9.53-17.41S76.42,107.88,64.8,108.5,37.37,113.62,31.42,120.17Z"/><path class="cls-4" d="M57.88,107.13s0,4.73,3,7.2,7.83,2.26,9.9,0,3.52-8.25,2.24-10.09S57.24,100.75,57.88,107.13Z"/><path class="cls-4" d="M86.68,125.07a1.19,1.19,0,0,0-1.39-.26c-1.47.45-10.39,1.63-12.42.12C70.42,123.1,67.62,118,67.54,114c0,0,0-.06,0-.1s0-.08,0-.11,0-.08,0-.12l0-.11-.05-.1-.05-.1-.07-.09-.07-.08-.09-.07-.09-.07-.1-.06-.1-.05-.11,0-.11,0h-.5l-.11,0-.11,0-.1.05-.1.06-.09.07-.09.07-.07.08-.07.09-.05.1-.05.1,0,.11a1.13,1.13,0,0,0,0,.12s0,.08,0,.11,0,.06,0,.1c-.08,4-2.89,9.1-5.33,10.92-2,1.52-11,.34-12.42-.12a1.19,1.19,0,0,0-1.33,1.94c.52.48,5,1.28,9.06,1.28,2.53,0,4.92-.31,6.11-1.2a17.64,17.64,0,0,0,5.1-7.33,17.64,17.64,0,0,0,5.1,7.33c1.19.89,3.58,1.2,6.11,1.2,4.08,0,8.54-.8,9.06-1.28A1.19,1.19,0,0,0,86.68,125.07Z"/><circle class="cls-3" cx="30.12" cy="94.91" r="19.01"/><circle class="cls-4" cx="30.12" cy="94.91" r="11.97"/><path class="cls-4" d="M1.46,76S3,82,6,81.26,34.7,70.68,37,68.42s-3.78-9.82-3.78-9.82S2.22,72.95,1.46,73.7,1.46,76,1.46,76Z"/><circle class="cls-3" cx="100.97" cy="94.91" r="19.01"/><circle class="cls-4" cx="100.97" cy="94.91" r="11.97"/><path class="cls-4" d="M129.62,76s-1.51,6-4.53,5.29-28.71-10.58-31-12.84,3.78-9.82,3.78-9.82,31,14.35,31.73,15.11S129.62,76,129.62,76Z"/></g></g></svg>