<svg xmlns="http://www.w3.org/2000/svg" viewBox="0 0 76.77 77.16"><defs><style>.cls-1{fill:#ee7395;}</style></defs><title>cat1</title><g id="圖層_2" data-name="圖層 2"><g id="圖層_1-2" data-name="圖層 1"><path class="cls-1" d="M72.63,23.1a34.41,34.41,0,0,0-5.23-7.28C68,12,69.15,3.16,68.54,1.75,67.75-.06,63.72-.47,62,.54,60.6,1.32,55.34,5,53.05,6.62a31.65,31.65,0,0,0-5.26-1.29,59.85,59.85,0,0,0-21.51,1.3C24,5,18.71,1.32,17.34.54c-1.75-1-5.78-.6-6.57,1.21-.51,1.18.24,7.54.82,11.82C5.59,19.13.95,27.67.71,32.48.39,39-3.59,56.64,11.51,69.55A24.28,24.28,0,0,0,22,75.72c6.13,1.54,29.24,2.87,37.2-1.77s13.22-9,15.59-18S78.43,33.91,72.63,23.1Z"/></g></g></svg>