<svg xmlns="http://www.w3.org/2000/svg" viewBox="0 0 117.39 121.39"><defs><style>.cls-1{fill:#eef2ef;}.cls-2{fill:#d24f6e;}</style></defs><title>cir2</title><g id="圖層_2" data-name="圖層 2"><g id="圖層_1-2" data-name="圖層 1"><path class="cls-1" d="M6.3,89.28s10.32,20.64,33.55,28.39,51.61,2.58,61.93-7.74,20.64-31,12.9-72.25S54-4.91,38.56,5.41,5,31.22,2.43,41.54-2.73,75.09,6.3,89.28Z"/><path class="cls-2" d="M96.42,40.55a34.46,34.46,0,0,0-5.88-7.81c1.34-.81,2.89-2.6,1.66-4.66C90.38,25,87.57,24.69,85.33,26A2.68,2.68,0,0,0,84,27.6a35.26,35.26,0,0,0-13-4.81C62,21.47,49.86,23,40.7,26.54a16.9,16.9,0,0,0-1.56.7A2.93,2.93,0,0,0,37.93,26c-2.23-1.32-5-1-6.87,2.07-1.09,1.84,0,3.47,1.23,4.37C26.86,38,22.83,45.52,22.61,49.93,22.28,56.44,18.2,74.09,33.7,87a25,25,0,0,0,10.76,6.18c6.29,1.54,30,2.87,38.18-1.77s13.57-9,16-18S102.38,51.37,96.42,40.55Z"/></g></g></svg>