<svg xmlns="http://www.w3.org/2000/svg" viewBox="0 0 213.43 303.27"><defs><style>.cls-1{fill:#734f44;}.cls-2{fill:#dbd0bb;}.cls-3{fill:#42210b;}.cls-4{fill:#755044;}.cls-5{fill:#fff;}.cls-6{fill:#2c112f;}</style></defs><title>dog</title><g id="圖層_2" data-name="圖層 2"><g id="圖層_1-2" data-name="圖層 1"><path class="cls-1" d="M52,242.91c.83-2.14.18-3.63-1-4.42a9.07,9.07,0,0,1-2.36-2c-.38-.57,0-1.95.7-3.14.48-.77,2.29-3.93,3.65-5.84,3.57-7,7.34-15.42,10.23-22.64,4.38-11,7.3-33.07,2.19-40.91a29,29,0,0,0-3.65-3.65S58.11,166.92,49.35,183c-10.64,19.5-18.54,33.77-21.18,46.75s-1.52,15.45-.15,17.33,5.53,5.92,8.27,5.87,5.26-3.2,6.27-5.33,2.79-5.45,2.79-5.45a4.16,4.16,0,0,0,2.57,2.5C48.76,244.7,51.17,245.06,52,242.91Z"/><path class="cls-1" d="M61.87,271.94a7,7,0,0,0,.27-2.91c-.09-2.14,1.32-38.1,1.32-38.1a4.86,4.86,0,0,1,3.42-3.75c6.72-1.68,8-1.5,12.76.26,7.79,2.85,14.82,8.57,15.72,17.27,0,0-.54,3.64-.54,3.68,0,.91-2.58,33.07-2.82,34.16a12.31,12.31,0,0,1-8.3,8c-6.12,1.94-26.67.85-26.67.85s-6.43-1.76-6.49-5.15.32-4.8,2.32-7.26S61.87,271.94,61.87,271.94Z"/><path class="cls-1" d="M146.06,232.79c-5.6-10.4-16.76-8.53-21.18-8.4-9.49.28-9.31,12.42-9.93,19.08a2.16,2.16,0,0,1,.07.48c0,1.27-1,34.29-.55,37.49s-.6,2.32-2,3a21.83,21.83,0,0,0-9.5,11c-2.77,6.93,6.89,7.44,7.62,7.66s21.35.23,24.12-.7,9.3-3.36,10.06-8.72,2.35-34.12,2.35-34.12S148.76,237.82,146.06,232.79Z"/><path class="cls-1" d="M63.1,240.06c-7.77-10.74-9-20.55-11.19-51.23-.39-5.41-.23-5.49.73-9.5.86-3.58,5.37-10.62,6.57-13.15,3.45-7.22,5-11,5-11h79.47l3.95,6.57c3,4.95,3.69,6.36,5.11,8.77.68,1.15,2.6,3.78,2.92,5.84,1.46,9.5.54,18.32.73,25.57.73,28.49-8.76,38.65-9.5,39.45,0,0-11.61,9.8-17.58,12.45-4.57,2-13.91,2.64-15.41,2.69s-18.41-.18-18.41-.18-13.9-1.5-19.49-4.6A37.83,37.83,0,0,1,63.1,240.06Z"/><path class="cls-1" d="M156.63,242.18c-.83-2.14-.18-3.63,1-4.42a9.07,9.07,0,0,0,2.36-2c.38-.57,0-1.95-.7-3.14-.48-.77-2.29-3.93-3.65-5.84-3.57-7-7.34-15.42-10.23-22.64-4.38-11-7.3-33.07-2.19-40.91a29,29,0,0,1,3.65-3.65s3.65,6.57,12.42,22.64c10.64,19.5,18.54,33.77,21.18,46.75s1.52,15.45.15,17.33-5.53,5.92-8.27,5.87-5.26-3.2-6.27-5.33-2-4.63-2-4.63-2.47,1.64-3.32,1.68S157.47,244.33,156.63,242.18Z"/><path class="cls-2" d="M107,220.13s-6.3,7.91-15.75,9.38-20.37-2-23.73-9.38-6.09-29.26,6.93-37.87,25.62-2.52,27.93,0,8.19,9.24,8,18.69S109.14,215.79,107,220.13Z"/><path class="cls-3" d="M57.12,32.78s-41,104.57-53.72,85.71,13.7-76.62,24-85.71S79.37-17.49,57.12,32.78Z"/><path class="cls-4" d="M45.93,146.57s9.87,10.5,23.75,14,66.26,6.5,84.28-4,30-20.5,35.32-40.75,8.28-50-4.87-74.5A78.45,78.45,0,0,0,128.14,1.06c-19.73-3-46.53.5-66.74,8.5s-39.22,38.25-39.95,53S11.7,117.32,45.93,146.57Z"/><path class="cls-3" d="M156.31,32.78s41,104.57,53.72,85.71-13.7-76.62-24-85.71S134.06-17.49,156.31,32.78Z"/><path class="cls-5" d="M46,104.35S40.55,110,43.59,114.8s8.81,7.73,16.71,8.78,34.95,2.3,43.46-1.46,13.37-12.12,9.72-17.77S91.91,91.81,80.06,92.43,52.06,97.66,46,104.35Z"/><path class="cls-6" d="M70.75,91s0,4.83,3.1,7.35,8,2.31,10.11,0,3.59-8.42,2.28-10.3S70.09,84.53,70.75,91Z"/><circle class="cls-5" cx="113.68" cy="72.22" r="18.88"/><circle class="cls-6" cx="110.27" cy="71.13" r="13.04"/><ellipse class="cls-6" cx="120.58" cy="86.06" rx="1.33" ry="2.42" transform="translate(-20.79 130.33) rotate(-52.9)"/><ellipse class="cls-6" cx="123.58" cy="83.81" rx="1.33" ry="2.42" transform="translate(-17.81 131.83) rotate(-52.9)"/><circle class="cls-5" cx="47.68" cy="72.22" r="18.88"/><circle class="cls-6" cx="51.09" cy="71.13" r="13.04"/><ellipse class="cls-6" cx="40.78" cy="86.06" rx="2.42" ry="1.33" transform="translate(-43.66 42.02) rotate(-37.1)"/><ellipse class="cls-6" cx="37.78" cy="83.81" rx="2.42" ry="1.33" transform="translate(-42.91 39.75) rotate(-37.1)"/></g></g></svg>