<svg xmlns="http://www.w3.org/2000/svg" viewBox="0 0 94.19 72.3"><defs><style>.cls-1{fill:#ee7395;}</style></defs><title>dog1</title><g id="圖層_2" data-name="圖層 2"><g id="圖層_1-2" data-name="圖層 1"><path class="cls-1" d="M82.1,14.47C79,11.7,69.26,2.21,66.74,3.84A33.25,33.25,0,0,0,56.55.47C48-.83,36.5.63,27.65,4,25.5,1.66,15.32,11.62,12.09,14.47,7.55,18.48-4.13,44,1.5,52.29c1.78,2.64,4.82-.2,8.13-5.31a31.42,31.42,0,0,0,10.63,17.7,24.28,24.28,0,0,0,10.48,6.18c6.13,1.54,29.24,2.87,37.2-1.77s13.22-9,15.59-18c.35-1.32.68-2.74,1-4.23,3.34,5.17,6.4,8.06,8.2,5.41C98.32,44,86.64,18.48,82.1,14.47Z"/></g></g></svg>