<svg xmlns="http://www.w3.org/2000/svg" viewBox="0 0 231.95 311.16"><defs><style>.cls-1{fill:#80685d;}.cls-2{fill:#dbb592;}.cls-3{fill:#e2b4aa;}.cls-4{fill:#2c112f;}</style></defs><title>head2_1</title><g id="圖層_2" data-name="圖層 2"><g id="圖層_1-2" data-name="圖層 1"><path class="cls-1" d="M219.42,147.82a105,105,0,0,0-67.11-52.09c4.85-18,10.81-41.37,12-52,2-18.5,5.5-32.5-4-39.5S143,.2,140.9,4.2s-13.25,72.66-13.19,79.58a75,75,0,0,1-.84,9c-5.54-.09-11.27.1-17.09.56a81.43,81.43,0,0,1-.91-9.56C108.93,76.86,97.8,8.2,95.68,4.2s-9.87-7-19.37,0-6,21-4,39.5c1.18,10.9,7.39,35.15,12.29,53.24a178.42,178.42,0,0,0-29.19,8.55c-27,10.67-52.29,51-53.26,70.67s-13,73,32.64,112c0,0,13.15,14,31.67,18.67s88.34,8.67,112.37-5.33,39.95-27.33,47.09-54.33S237,180.49,219.42,147.82Z"/><ellipse class="cls-2" cx="59.77" cy="219.71" rx="13.45" ry="6.72"/><ellipse class="cls-2" cx="173.2" cy="219.71" rx="13.45" ry="6.72"/><path class="cls-3" d="M71.37,225.25s-7.24,7.53-3.19,13.94,11.75,10.31,22.29,11.71,46.6,3.07,57.94-2,17.83-16.17,13-23.69-28.77-16.72-44.57-15.89S79.47,216.33,71.37,225.25Z"/><path class="cls-4" d="M107.38,207.5s0,6.44,4.13,9.8,10.65,3.08,13.48,0,4.79-11.23,3-13.73S106.51,198.82,107.38,207.5Z"/><path class="cls-4" d="M146.57,231.91a1.61,1.61,0,0,0-1.89-.35c-2,.62-14.14,2.22-16.91.16-3.33-2.48-7.14-9.36-7.26-14.86,0,0,0-.09,0-.13s0-.1,0-.16,0-.1,0-.16,0-.1,0-.14l-.07-.14-.07-.13-.1-.12-.1-.12-.12-.1-.12-.1-.13-.08-.14-.07-.15,0-.15,0-.16,0-.14,0h-.07l-.14,0-.16,0-.15,0-.15.05-.14.07-.13.08-.12.1-.12.1-.1.12-.1.12-.07.13-.07.14s0,.1,0,.14a1.53,1.53,0,0,0,0,.16c0,.05,0,.1,0,.16s0,.09,0,.13c-.12,5.5-3.93,12.38-7.26,14.86-2.77,2.06-14.9.46-16.91-.16a1.62,1.62,0,0,0-1.81,2.64c.7.65,6.78,1.75,12.33,1.75,3.45,0,6.69-.42,8.32-1.63,2.56-1.91,5.27-5.73,6.94-10,1.67,4.25,4.38,8.07,6.94,10,1.63,1.21,4.87,1.63,8.32,1.63,5.55,0,11.63-1.09,12.33-1.75A1.62,1.62,0,0,0,146.57,231.91Z"/></g></g></svg>