<svg xmlns="http://www.w3.org/2000/svg" viewBox="0 0 275.57 218.43"><defs><style>.cls-1{fill:#80685d;}.cls-2{fill:#2c112f;}.cls-3{fill:#fff;}.cls-4{fill:#dbb592;}.cls-5{fill:#e2b4aa;}</style></defs><title>head4_3</title><g id="圖層_2" data-name="圖層 2"><g id="圖層_1-2" data-name="圖層 1"><path class="cls-1" d="M56.23,195.42s13.15,14,31.67,18.67,88.34,8.67,112.37-5.33,39.95-27.33,47.09-54.33,11-66.67-6.5-99.33-48.72-49.67-75-53.67-62,.67-89,11.33-52.29,51-53.26,70.67S10.6,156.42,56.23,195.42Z"/><path class="cls-2" d="M76.16,33.7S21.54,173.13,4.54,148,22.81,45.83,36.54,33.7,105.82-33.32,76.16,33.7Z"/><path class="cls-2" d="M199.41,32.7S254,172.13,271,147,252.76,44.83,239,32.7,169.74-34.32,199.41,32.7Z"/><path class="cls-3" d="M95.74,133.67s-7.24,7.53-3.19,13.94,11.75,10.31,22.29,11.71,46.6,3.07,57.94-2,17.83-16.17,13-23.69S157,116.94,141.18,117.78,103.85,124.75,95.74,133.67Z"/><path class="cls-2" d="M128.76,113.92s0,6.44,4.13,9.8,10.65,3.08,13.48,0,4.79-11.23,3-13.73S127.89,105.24,128.76,113.92Z"/><ellipse class="cls-4" cx="83.71" cy="127.91" rx="13.45" ry="6.72"/><ellipse class="cls-4" cx="197.14" cy="127.91" rx="13.45" ry="6.72"/><path class="cls-5" d="M95.31,133.45s-7.24,7.53-3.19,13.94,11.75,10.31,22.29,11.71,46.6,3.07,57.94-2,17.83-16.17,13-23.69-28.77-16.72-44.57-15.89S103.42,124.53,95.31,133.45Z"/><path class="cls-2" d="M131.33,115.7s0,6.44,4.13,9.8,10.65,3.08,13.48,0,4.79-11.23,3-13.73S130.46,107,131.33,115.7Z"/><path class="cls-2" d="M170.51,140.11a1.61,1.61,0,0,0-1.89-.35c-2,.62-14.14,2.22-16.91.16-3.33-2.48-7.14-9.36-7.26-14.86,0,0,0-.09,0-.13s0-.1,0-.16,0-.1,0-.16,0-.1,0-.14l-.07-.14-.07-.13-.1-.12L144,124l-.12-.1-.12-.1-.13-.08-.14-.07-.15,0-.15,0-.16,0-.14,0h-.07l-.14,0-.16,0-.15,0-.15.05-.14.07-.13.08-.12.1-.12.1-.1.12-.1.12-.07.13-.07.14s0,.1,0,.14a1.53,1.53,0,0,0,0,.16c0,.05,0,.1,0,.16s0,.09,0,.13c-.12,5.5-3.93,12.38-7.26,14.86-2.77,2.06-14.9.46-16.91-.16a1.62,1.62,0,0,0-1.81,2.64c.7.65,6.78,1.75,12.33,1.75,3.45,0,6.69-.42,8.32-1.63,2.56-1.91,5.27-5.73,6.94-10,1.67,4.25,4.38,8.07,6.94,10,1.63,1.21,4.87,1.63,8.32,1.63,5.55,0,11.63-1.09,12.33-1.75A1.62,1.62,0,0,0,170.51,140.11Z"/></g></g></svg>