<svg xmlns="http://www.w3.org/2000/svg" viewBox="0 0 238.06 222.17"><defs><style>.cls-1{fill:#80685d;}.cls-2{fill:#dbb592;}.cls-3{fill:#e2b4aa;}.cls-4{fill:#2c112f;}</style></defs><title>資產 16</title><g id="圖層_2" data-name="圖層 2"><g id="圖層_1-2" data-name="圖層 1"><path class="cls-1" d="M225.2,58.83a103.88,103.88,0,0,0-10.05-15l.49-.2a18.64,18.64,0,0,0,14.44-15.09c1.8-10.14-2-24.06-13.39-26.18C210.16-1.86,201,.2,194.46,3.64a22.09,22.09,0,0,0-4,2.69,13.94,13.94,0,0,0-6.32,8.91,13.62,13.62,0,0,0-.64,2.08A105.8,105.8,0,0,0,148.2,5.16c-27-4-63.67.67-91.33,11.33-.68.26-1.37.56-2,.86a13.61,13.61,0,0,0-.65-2.11,13.94,13.94,0,0,0-6.32-8.91,22.07,22.07,0,0,0-4-2.69C37.36.2,28.16-1.86,21.65,2.37,10.21,4.49,6.45,18.41,8.26,28.55A18.64,18.64,0,0,0,22.7,43.64l.39.16C11.06,58.87,2.75,76.21,2.2,87.16c-1,19.67-13.33,73,33.5,112,0,0,13.5,14,32.5,18.67s90.67,8.67,115.33-5.33,41-27.33,48.33-54.33S243.2,91.49,225.2,58.83Z"/><ellipse class="cls-2" cx="65.27" cy="132.09" rx="13.45" ry="6.72"/><ellipse class="cls-2" cx="178.71" cy="132.09" rx="13.45" ry="6.72"/><path class="cls-3" d="M76.88,137.63s-7.24,7.53-3.19,13.94S85.44,161.88,96,163.27s46.6,3.07,57.94-2,17.83-16.17,13-23.69-28.77-16.72-44.57-15.89S85,128.71,76.88,137.63Z"/><path class="cls-4" d="M112.89,119.88s0,6.44,4.13,9.8,10.65,3.08,13.48,0,4.79-11.23,3-13.73S112,111.2,112.89,119.88Z"/></g></g></svg>