<svg xmlns="http://www.w3.org/2000/svg" viewBox="0 0 231.95 242.5"><defs><style>.cls-1{fill:#80685d;}.cls-2{fill:#dbb592;}.cls-3{fill:#e2b4aa;}.cls-4{fill:#2c112f;}</style></defs><title>head3_1</title><g id="圖層_2" data-name="圖層 2"><g id="圖層_1-2" data-name="圖層 1"><path class="cls-1" d="M219.42,79.18a104.1,104.1,0,0,0-6-9.82c.11-1,.06-2,.06-2.92a48.13,48.13,0,0,0-.34-5.93,5.1,5.1,0,0,0,.34-1.68A238.37,238.37,0,0,0,209.55,6.7a5.37,5.37,0,0,0-.14-.56c-.12-2.67-1.15-4.83-4-5.79-3.74-1.28-8,1.24-10.62,3.71l-.55.53a46.13,46.13,0,0,0-5.22,3,31.37,31.37,0,0,0-6.88,6.69c-6.53,4.36-16.73,11.52-21.91,15.17a95.6,95.6,0,0,0-15.88-3.88c-19-2.89-43-1.23-65,3.94-6.79-4.79-22.45-15.77-26.82-18.33A27.47,27.47,0,0,0,49.4,8.55a46.18,46.18,0,0,0-5.22-3l-.55-.53C41,2.58,36.76.06,33,1.35c-2.82,1-3.85,3.13-4,5.79a5.14,5.14,0,0,0-.14.56A238.37,238.37,0,0,0,25,59.82a5.44,5.44,0,0,0,.15,1C12,76.63,2.72,95.75,2.14,107.51c-1,19.66-13,73,32.64,112,0,0,13.15,14,31.67,18.66s88.34,8.67,112.37-5.33,39.95-27.33,47.09-54.33S237,111.84,219.42,79.18Z"/><ellipse class="cls-2" cx="59.31" cy="149.8" rx="13.45" ry="6.72"/><ellipse class="cls-2" cx="172.74" cy="149.8" rx="13.45" ry="6.72"/><path class="cls-3" d="M70.91,155.34s-7.24,7.53-3.19,13.94S79.47,179.59,90,181s46.6,3.07,57.94-2,17.83-16.17,13-23.69-28.77-16.72-44.57-15.89S79,146.42,70.91,155.34Z"/><path class="cls-4" d="M106.93,137.59s0,6.44,4.13,9.8,10.65,3.08,13.48,0,4.79-11.23,3-13.73S106.06,128.91,106.93,137.59Z"/><path class="cls-4" d="M146.12,162a1.61,1.61,0,0,0-1.89-.35c-2,.62-14.14,2.22-16.91.16-3.33-2.48-7.14-9.36-7.26-14.86,0,0,0-.09,0-.13s0-.1,0-.16,0-.1,0-.16,0-.1,0-.14l-.07-.14-.07-.13-.1-.12-.1-.12-.12-.1-.12-.1-.13-.08-.14-.07-.15,0-.15,0-.16,0-.14,0h-.07l-.14,0-.16,0-.15,0-.15.05-.14.07-.13.08-.12.1-.12.1-.1.12-.1.12-.07.13-.07.14s0,.1,0,.14a1.53,1.53,0,0,0,0,.16c0,.05,0,.1,0,.16s0,.09,0,.13c-.12,5.5-3.93,12.38-7.26,14.86-2.77,2.06-14.9.46-16.91-.16a1.62,1.62,0,0,0-1.81,2.64c.7.65,6.78,1.75,12.33,1.75,3.45,0,6.69-.42,8.32-1.63,2.56-1.91,5.27-5.73,6.94-10,1.67,4.25,4.38,8.07,6.94,10,1.63,1.21,4.87,1.63,8.32,1.63,5.55,0,11.63-1.09,12.33-1.75A1.62,1.62,0,0,0,146.12,162Z"/></g></g></svg>