<svg xmlns="http://www.w3.org/2000/svg" viewBox="0 0 251.17 557.68"><defs><style>.cls-1{fill:#545d64;}.cls-2{fill:#5a6064;}.cls-3{fill:#7b8587;}.cls-4{fill:#9aa4a6;}.cls-5{fill:#919697;}</style></defs><title>light_1</title><g id="圖層_2" data-name="圖層 2"><g id="圖層_1-2" data-name="圖層 1"><path class="cls-1" d="M18.17,385l2-326s0-8,6-10,2,0,6-2,93-46,93-46l110-1s15,2,16,22h-63l-11.5.5-1-9h-49l-92,46-2,329h-15Z"/><rect class="cls-2" x="4.17" y="386" width="45" height="161"/><polygon class="cls-3" points="8.34 385 30.58 385 31.16 547 10.16 547 8.34 385"/><polygon class="cls-4" points="0 374.69 51.99 374.26 51.25 388.33 4.79 388.61 0 374.69"/><polygon class="cls-4" points="1 557.19 52.99 557.68 51.22 543 4.17 543 1 557.19"/><polygon class="cls-5" points="10.16 543 10.16 557 31.16 557.33 31.16 543 10.16 543"/></g></g></svg>