<svg xmlns="http://www.w3.org/2000/svg" xmlns:xlink="http://www.w3.org/1999/xlink" viewBox="0 0 669.93 526.85"><defs><style>.cls-1,.cls-16{fill:none;}.cls-2{fill:#fff;opacity:0.5;}.cls-12,.cls-3{fill:#2b4649;}.cls-4{fill:#caa1af;}.cls-5{fill:#ceab9e;}.cls-6{fill:#323839;}.cls-11,.cls-7{fill:#356873;}.cls-8{fill:#2a2621;}.cls-9{fill:#274749;}.cls-10,.cls-13{fill:#e79fc3;}.cls-11{stroke:#df9abb;stroke-width:4px;}.cls-11,.cls-12,.cls-16{stroke-miterlimit:10;}.cls-12{stroke:#cba99c;stroke-width:0.75px;}.cls-13{font-size:45.16px;font-family:AdobeFanHeitiStd-Bold, AdobeFanHeitiStd Bold-B5pc-H;font-weight:700;}.cls-14{clip-path:url(#clip-path);}.cls-15{fill:#f3fafb;}.cls-16{stroke:#2b4649;}.cls-17{clip-path:url(#clip-path-2);}</style><clipPath id="clip-path"><polygon class="cls-1" points="562.1 388.03 621.46 390.75 620.96 458.38 561.36 467 562.1 388.03"/></clipPath><clipPath id="clip-path-2"><polygon class="cls-1" points="43.69 392.86 43.69 449.3 108.75 463.52 108.49 389.85 43.69 392.86"/></clipPath></defs><title>mall</title><g id="圖層_2" data-name="圖層 2"><g id="圖層_1-2" data-name="圖層 1"><path class="cls-2" d="M1.39,45.16l25,271.71s5.73,5.73,7.81,1S56,40.47,56,40.47,23.77,21.21,1.39,45.16Z"/><path class="cls-2" d="M541.41,65.23l98.93,254.29s7.08,3.93,7.79-1.15S592.65,45.66,592.65,45.66,556.32,36,541.41,65.23Z"/><path class="cls-3" d="M37.23,464.88s144.78,36,164.4,39.82,39.25,14.31,70,3.39c31-11,106.24-11,119.7-9.32,18.12,2.25,37.5,14.4,72,5.08s156.21-26.26,163.41-32.19c0,0,3.48-1.27,3.48-10.59s-2.73-97.85-2.73-97.85-301.24-11.86-350.41-8-231.7,16.52-231.7,16.52-8.2-3.39-8.2,10.17-.75,69.47-.75,69.47S36,462.76,37.23,464.88Z"/><path class="cls-4" d="M23.2,347.54S116,242.07,194.43,214.11s220-20.33,302.45,14S650.51,359,653.71,362.79s-280.85-11.44-280.85-11.44L16,369.15Z"/><polygon class="cls-5" points="43.31 392.13 43.31 448.76 109.37 463.03 109.1 389.1 43.31 392.13"/><polygon class="cls-5" points="115 389.06 114.34 464.03 216.45 477.59 218.77 386.09 115 389.06"/><polygon class="cls-5" points="454.18 384.82 453.2 475.47 554.4 467.42 553.1 387.79 454.18 384.82"/><polygon class="cls-5" points="562.23 387.78 621.58 390.5 621.08 458.13 561.48 466.75 562.23 387.78"/><path class="cls-6" d="M305.19,517.41s7.45-11.86,8.44-14.83-3.23-69.89.5-80.91,26.32-22,42.71-6.35c0,0,2.73,3.39,2.48,22.87s-1,60.57-1,60.57l10.18,22.87.5-97.85s-7.95-25.84-28.81-24.15-24.59,1.27-36.26,22.87Z"/><path class="cls-7" d="M269.68,368.72s3,149.53,3.48,151.23,24.09,9.74,29.3,5.51c0,0,5-14,5.22-15.25s-3.73-84.72-1-89,10.93-14.4,15.89-16.52,23.1-4.24,30,0,13.66,12.71,13.91,19.06,0,87.69,0,87.69-1.24,12.71,2,14.83,26.57-2.12,31-9.32,7-152.07,7-152.07S314.88,346.27,269.68,368.72Z"/><path class="cls-5" d="M327.79,445.4s3.73-7.62,5.46-8.47,2.48-15.25,1.49-17.37-10.18-3.39-13.16,3c0,0-1.24,1.69-1.24,6.78l.25,44.48s-.5,3,2,3.39,10.43.42,10.43.42,2.24-1.69,2.24-11.44a6.15,6.15,0,0,1-6.46-3.39C326.55,458.53,325.56,448.36,327.79,445.4Z"/><path class="cls-5" d="M346.17,445s-3.73-7.62-5.46-8.47-2.48-15.25-1.49-17.37,10.18-3.39,13.16,3c0,0,1.24,1.69,1.24,6.78l-.25,44.48s.5,3-2,3.39-10.43.42-10.43.42-2.24-1.69-2.24-11.44a6.15,6.15,0,0,0,6.46-3.39C347.41,458.1,348.4,447.94,346.17,445Z"/><path class="cls-2" d="M456.4,114.58A114.7,114.7,0,0,0,445,98l.56-.22A20.89,20.89,0,0,0,461.95,81.1c2.05-11.21-2.23-26.6-15.24-28.94-7.41-4.67-17.88-2.39-25.28,1.4a25.19,25.19,0,0,0-4.53,3,15.43,15.43,0,0,0-7.19,9.85,14.75,14.75,0,0,0-.73,2.3,122.75,122.75,0,0,0-40.18-13.45c-30.72-4.42-72.44.74-103.92,12.53-.78.29-1.55.61-2.33.95a14.74,14.74,0,0,0-.74-2.34,15.43,15.43,0,0,0-7.19-9.85,25.17,25.17,0,0,0-4.53-3c-7.4-3.8-17.87-6.08-25.28-1.4-13,2.34-17.29,17.73-15.24,28.94A20.89,20.89,0,0,0,226,97.79l.45.18c-13.68,16.66-23.14,35.84-23.77,47.94-1.14,21.75-15.17,80.71,38.12,123.83,0,0,15.36,15.48,37,20.64S380.93,300,409,284.48s46.65-30.22,55-60.07S476.88,150.7,456.4,114.58Z"/><path class="cls-8" d="M9,310.39,14.33,367s18.74,4.78,26.71-.56l6.25-57.14S27.49,291.25,9,310.39Z"/><path class="cls-8" d="M621.45,312.93l5.29,56.57s18.74,4.78,26.71-.56l6.25-57.14S639.9,293.79,621.45,312.93Z"/><path class="cls-9" d="M318.23,505.76s29.55-1.69,33.28-3,11.42,16.1,10.18,19.49-50.41,5.93-50.41,3.39S316,506.61,318.23,505.76Z"/><ellipse class="cls-5" cx="334.9" cy="373.62" rx="21.49" ry="21.61"/><path class="cls-2" d="M152.77,8.21l-36.4,319s5.22,8,8.75,3.07S216.86,15.92,216.86,15.92,184.3-14,152.77,8.21Z"/><path class="cls-2" d="M445.9,22.8l94,307s8,5.22,9.24-.67S507.74,4.3,507.74,4.3,465.94-10.15,445.9,22.8Z"/><path class="cls-8" d="M95.47,305.51l7.31,63.33s25.92,5.36,36.95-.63l8.64-64S121,284.09,95.47,305.51Z"/><path class="cls-8" d="M522.12,301.28l7.31,63.33s25.92,5.36,36.95-.63L575,300S547.64,279.85,522.12,301.28Z"/><path class="cls-10" d="M322.65,36s-3.77-7.91,3.77-8.9,12.57,3,11.31,6.92S330.19,41,326.42,42s-2.51,13.84-2.51,15.82,5,4,7.54,2,1.26-11.87,1.26-11.87S347.79,44.94,349,36s-6.28-17.8-15.08-17.8-17.6,3-20.11,6.92S310.08,37,313.85,39,322.65,36,322.65,36Z"/><path class="cls-11" d="M304.42,53.35s42.73,3,50.28,1,3.77,14.83,3.77,14.83,39.59,12.36,45.88,15.33,41.48,137.44,42.73,146.34-28.91,11.87-28.91,11.87L388,133.94s6.28,95.91,2.51,97.89-118.15,0-118.15,0v-96.9S251,242.7,248.49,243.69s-31.42,4-33.94-1S246,93.39,249.75,90.43,300,71.64,300,71.64,298.77,54.83,304.42,53.35Z"/><path class="cls-3" d="M168.53,445.14c-.29-2-8.3-32.65-9.73-33.32s-10.45-3.49-10.45-3.49.86-3.83-.86-3.38a27,27,0,0,1-4.95.11,9.94,9.94,0,0,0-.06-1.57s3.43-.68,3.72-2.7a3.65,3.65,0,0,0-3.43-4.05c-2,0-4,.68-4.58,1.58s-.86,2.7,0,3.15,2-.68,2-.68-.86-1.8.86-2,2.86.68,2.58,1.58-1.72,1.58-2.58,1.8c-.64.17-.64,1.81-.61,2.84-2.37-.11-4.4-.25-4.4-.25-1.29.34-1,4.17-1,4.17s-10.59,3.6-11.45,4.28-8.59,33.55-8,34.67,7.15.45,7.73.23,5.44-24.77,5.44-24.77v22.06s26,.45,26.9,0-.57-22.29-.57-22.29l6.87,24.77S168.81,447.17,168.53,445.14Z"/><path class="cls-12" d="M192.37,444.15c-.29-2-8.3-32.65-9.73-33.32s-10.45-3.49-10.45-3.49.86-3.83-.86-3.38a27,27,0,0,1-4.95.11,9.94,9.94,0,0,0-.06-1.57s3.43-.68,3.72-2.7a3.65,3.65,0,0,0-3.43-4.05c-2,0-4,.68-4.58,1.58s-.86,2.7,0,3.15,2-.68,2-.68-.86-1.8.86-2,2.86.68,2.58,1.58-1.72,1.58-2.58,1.8c-.64.17-.64,1.81-.61,2.84-2.37-.11-4.4-.25-4.4-.25-1.29.34-1,4.17-1,4.17s-10.59,3.6-11.45,4.28-8.59,33.55-8,34.67,7.15.45,7.73.23,5.44-24.77,5.44-24.77v22.06s26,.45,26.9,0-.57-22.29-.57-22.29l6.87,24.77S192.65,446.18,192.37,444.15Z"/><path class="cls-12" d="M215.71,444.15c-.29-2-8.3-32.65-9.73-33.32s-10.45-3.49-10.45-3.49.86-3.83-.86-3.38a27,27,0,0,1-4.95.11,9.94,9.94,0,0,0-.06-1.57s3.43-.68,3.72-2.7a3.65,3.65,0,0,0-3.43-4.05c-2,0-4,.68-4.58,1.58s-.86,2.7,0,3.15,2-.68,2-.68-.86-1.8.86-2,2.86.68,2.58,1.58-1.72,1.58-2.58,1.8c-.64.17-.64,1.81-.61,2.84-2.37-.11-4.4-.25-4.4-.25-1.29.34-1,4.17-1,4.17s-10.59,3.6-11.45,4.28-8.59,33.55-8,34.67,7.15.45,7.73.23,5.44-24.77,5.44-24.77v22.06s26,.45,26.9,0-.57-22.29-.57-22.29l6.87,24.77S216,446.18,215.71,444.15Z"/><text class="cls-13" transform="translate(286.77 143.21)">造型<tspan x="0" y="54.19">商城</tspan></text><path class="cls-8" d="M239.51,266.59l27.32,99.83s96.85,8.44,138.08-1L437.19,264.6S334.87,232.81,239.51,266.59Z"/><path class="cls-8" d="M.23,371.27s-2.48,15.67,8.94,14.83,140.81-9.74,166.14-11S411,370.42,466.12,370s179.3,8.9,193.46,8.9,9.69-5.08,9.69-14-203.39-23.3-226.49-23.3-195.2,1.27-268.21,8.9S7.68,361.52.23,371.27Z"/><g class="cls-14"><path class="cls-15" d="M590.28,395.84s-.28,1.85-1.07,2.26-15.39-3.49-15.91-3.92-.94-3.66-.54-4.37,16.3,3.32,16.82,3.85A2.39,2.39,0,0,1,590.28,395.84Z"/><path class="cls-15" d="M590.22,401.17s.18,1.26-1.52,1.44-15.06-3.51-15.51-3.93-.56-2.56-.42-3.13,15.72,3,16.56,3.58A2.29,2.29,0,0,1,590.22,401.17Z"/><path class="cls-15" d="M589.47,404.11a4.14,4.14,0,0,1,.75,2.71c-.28,1.24-.73,1.43-1.85,1.46s-13-2.91-14.34-3.64-1.21-2.92-.94-3.76,11.22,2,13,2.31S589,403.6,589.47,404.11Z"/><path class="cls-15" d="M590.66,390.38s.3,2.29-1.59,2-16.36-4-16.55-4.39-1.67-2.73-.22-4c0,0-.39-.5,1.44-.15a17.63,17.63,0,0,1,3.06.86s-.87-4.25-.28-4.31,8.1.48,8.6,2.32a7.73,7.73,0,0,1-.11,3.81l4.76,1.48A2.76,2.76,0,0,1,590.66,390.38Z"/><path class="cls-5" d="M584.54,382.62a41.61,41.61,0,0,0-6.52-1.51c-1.5-.07.18,1.15,1.15,2.3s3.65,1.2,4.18.73S585.06,383.05,584.54,382.62Z"/><path class="cls-5" d="M582.15,385.76s-.11,3.91-.18,4.09-.34,1.43-.59,0-.61-4.29-.41-4.34S581.83,384.78,582.15,385.76Z"/><path class="cls-5" d="M582,392.69a5.34,5.34,0,0,1-.15,1.68c-.2.25-.4.51-.71-.78S581.43,391.84,582,392.69Z"/><path class="cls-5" d="M582,397.94a3.49,3.49,0,0,1,0,1.91c-.33.72-.4.51-.65-.46s-.31-1.69-.11-1.74S581.89,397.4,582,397.94Z"/><path class="cls-5" d="M582.41,404s.44,1.42,0,1.71-.89-1.94-.89-2S581.83,402.73,582.41,404Z"/><path class="cls-3" d="M589.81,426.39s-.28,1.85-1.07,2.26-15.39-3.49-15.91-3.92-.94-3.66-.54-4.37,16.3,3.32,16.82,3.85A2.39,2.39,0,0,1,589.81,426.39Z"/><path class="cls-3" d="M589.75,431.72s.18,1.26-1.52,1.44-15.06-3.51-15.51-3.93-.56-2.56-.42-3.13,15.72,3,16.56,3.58A2.29,2.29,0,0,1,589.75,431.72Z"/><path class="cls-3" d="M589,434.66a4.14,4.14,0,0,1,.75,2.71c-.28,1.24-.73,1.43-1.85,1.46s-13-2.91-14.34-3.64-1.21-2.92-.94-3.76,11.22,2,13,2.31S588.55,434.14,589,434.66Z"/><path class="cls-3" d="M590.2,420.93s.3,2.29-1.59,2-16.36-4-16.55-4.39-1.67-2.73-.22-4c0,0-.39-.5,1.44-.15a17.63,17.63,0,0,1,3.06.86s-.87-4.25-.28-4.31,8.1.48,8.6,2.32a7.73,7.73,0,0,1-.11,3.81l4.76,1.48A2.76,2.76,0,0,1,590.2,420.93Z"/><path class="cls-5" d="M584.07,413.17a41.61,41.61,0,0,0-6.52-1.51c-1.5-.07.18,1.15,1.15,2.3s3.65,1.2,4.18.73S584.59,413.6,584.07,413.17Z"/><path class="cls-5" d="M581.69,416.31s-.11,3.91-.18,4.09-.34,1.43-.59,0-.61-4.29-.41-4.34S581.37,415.33,581.69,416.31Z"/><path class="cls-5" d="M581.54,423.24a5.34,5.34,0,0,1-.15,1.68c-.2.25-.4.51-.71-.78S581,422.39,581.54,423.24Z"/><path class="cls-5" d="M581.55,428.48a3.49,3.49,0,0,1,0,1.91c-.33.72-.4.51-.65-.46s-.31-1.69-.11-1.74S581.43,427.95,581.55,428.48Z"/><path class="cls-5" d="M581.94,434.53s.44,1.42,0,1.71-.89-1.94-.89-2S581.37,433.28,581.94,434.53Z"/><path class="cls-3" d="M613.95,400.77s-.28,1.85-1.07,2.26-15.39-3.49-15.91-3.92-.94-3.66-.54-4.37,16.3,3.32,16.82,3.85A2.39,2.39,0,0,1,613.95,400.77Z"/><path class="cls-3" d="M613.89,406.1s.18,1.26-1.52,1.44-15.06-3.51-15.51-3.93-.56-2.56-.42-3.13,15.72,3,16.56,3.58A2.29,2.29,0,0,1,613.89,406.1Z"/><path class="cls-3" d="M613.14,409a4.14,4.14,0,0,1,.75,2.71c-.28,1.24-.73,1.43-1.85,1.46s-13-2.91-14.34-3.64-1.21-2.92-.94-3.76,11.22,2,13,2.31S612.69,408.53,613.14,409Z"/><path class="cls-3" d="M614.33,395.32s.3,2.29-1.59,2-16.36-4-16.55-4.39-1.67-2.73-.22-4c0,0-.39-.5,1.44-.15a17.63,17.63,0,0,1,3.06.86s-.87-4.25-.28-4.31,8.1.48,8.6,2.32a7.73,7.73,0,0,1-.11,3.81l4.76,1.48A2.76,2.76,0,0,1,614.33,395.32Z"/><path class="cls-5" d="M608.21,387.55a41.61,41.61,0,0,0-6.52-1.51c-1.5-.07.18,1.15,1.15,2.3s3.65,1.2,4.18.73S608.73,388,608.21,387.55Z"/><path class="cls-5" d="M605.82,390.69s-.11,3.91-.18,4.09-.34,1.43-.59,0-.61-4.29-.41-4.34S605.51,389.71,605.82,390.69Z"/><path class="cls-5" d="M605.68,397.62a5.34,5.34,0,0,1-.15,1.68c-.2.25-.4.51-.71-.78S605.1,396.77,605.68,397.62Z"/><path class="cls-5" d="M605.69,402.87a3.49,3.49,0,0,1,0,1.91c-.33.72-.4.51-.65-.46s-.31-1.69-.11-1.74S605.56,402.33,605.69,402.87Z"/><path class="cls-5" d="M606.08,408.91s.44,1.42,0,1.71-.89-1.94-.89-2S605.51,407.66,606.08,408.91Z"/><path class="cls-15" d="M614.2,431.49s-.28,1.85-1.07,2.26-15.39-3.49-15.91-3.92-.94-3.66-.54-4.37,16.3,3.32,16.82,3.85A2.39,2.39,0,0,1,614.2,431.49Z"/><path class="cls-15" d="M614.14,436.83s.18,1.26-1.52,1.44-15.06-3.51-15.51-3.93-.56-2.56-.42-3.13,15.72,3,16.56,3.58A2.29,2.29,0,0,1,614.14,436.83Z"/><path class="cls-15" d="M613.39,439.77a4.14,4.14,0,0,1,.75,2.71c-.28,1.24-.73,1.43-1.85,1.46s-13-2.91-14.34-3.64-1.21-2.92-.94-3.76,11.22,2,13,2.31S612.94,439.25,613.39,439.77Z"/><path class="cls-15" d="M614.59,426s.3,2.29-1.59,2-16.36-4-16.55-4.39-1.67-2.73-.22-4c0,0-.39-.5,1.44-.15a17.63,17.63,0,0,1,3.06.86s-.87-4.25-.28-4.31,8.1.48,8.6,2.32a7.73,7.73,0,0,1-.11,3.81l4.76,1.48A2.76,2.76,0,0,1,614.59,426Z"/><path class="cls-5" d="M608.46,418.28a41.61,41.61,0,0,0-6.52-1.51c-1.5-.07.18,1.15,1.15,2.3s3.65,1.2,4.18.73S609,418.71,608.46,418.28Z"/><path class="cls-5" d="M606.07,421.42s-.11,3.91-.18,4.09-.34,1.43-.59,0-.61-4.29-.41-4.34S605.76,420.43,606.07,421.42Z"/><path class="cls-5" d="M605.93,428.35a5.34,5.34,0,0,1-.15,1.68c-.2.25-.4.51-.71-.78S605.35,427.5,605.93,428.35Z"/><path class="cls-5" d="M605.94,433.59a3.49,3.49,0,0,1,0,1.91c-.33.72-.4.51-.65-.46s-.31-1.69-.11-1.74S605.82,433.06,605.94,433.59Z"/><path class="cls-5" d="M606.33,439.64s.44,1.42,0,1.71-.89-1.94-.89-2S605.76,438.39,606.33,439.64Z"/><path class="cls-3" d="M613.84,464.79s-.28,1.85-1.07,2.26-15.39-3.49-15.91-3.92-.94-3.66-.54-4.37,16.3,3.32,16.82,3.85A2.39,2.39,0,0,1,613.84,464.79Z"/><path class="cls-3" d="M613.78,470.12s.18,1.26-1.52,1.44-15.06-3.51-15.51-3.93-.56-2.56-.42-3.13,15.72,3,16.56,3.58A2.29,2.29,0,0,1,613.78,470.12Z"/><path class="cls-3" d="M613,473.06a4.14,4.14,0,0,1,.75,2.71c-.28,1.24-.73,1.43-1.85,1.46s-13-2.91-14.34-3.64-1.21-2.92-.94-3.76,11.22,2,13,2.31S612.58,472.55,613,473.06Z"/><path class="cls-3" d="M614.22,459.34s.3,2.29-1.59,2-16.36-4-16.55-4.39-1.67-2.73-.22-4c0,0-.39-.5,1.44-.15a17.63,17.63,0,0,1,3.06.86s-.87-4.25-.28-4.31,8.1.48,8.6,2.32a7.73,7.73,0,0,1-.11,3.81l4.76,1.48A2.76,2.76,0,0,1,614.22,459.34Z"/><path class="cls-5" d="M608.1,451.57a41.61,41.61,0,0,0-6.52-1.51c-1.5-.07.18,1.15,1.15,2.3s3.65,1.2,4.18.73S608.62,452,608.1,451.57Z"/><path class="cls-5" d="M605.71,454.72s-.11,3.91-.18,4.09-.34,1.43-.59,0-.61-4.29-.41-4.34S605.4,453.73,605.71,454.72Z"/><path class="cls-5" d="M605.57,461.64a5.34,5.34,0,0,1-.15,1.68c-.2.25-.4.51-.71-.78S605,460.79,605.57,461.64Z"/><path class="cls-5" d="M605.58,466.89a3.49,3.49,0,0,1,0,1.91c-.33.72-.4.51-.65-.46s-.31-1.69-.11-1.74S605.45,466.35,605.58,466.89Z"/><path class="cls-5" d="M606,472.94s.44,1.42,0,1.71-.89-1.94-.89-2S605.4,471.69,606,472.94Z"/><path class="cls-15" d="M589.44,454.13s-.28,1.85-1.07,2.26-15.39-3.49-15.91-3.92-.94-3.66-.54-4.37,16.3,3.32,16.82,3.85A2.39,2.39,0,0,1,589.44,454.13Z"/><path class="cls-15" d="M589.39,459.47s.18,1.26-1.52,1.44-15.06-3.51-15.51-3.93-.56-2.56-.42-3.13,15.72,3,16.56,3.58A2.29,2.29,0,0,1,589.39,459.47Z"/><path class="cls-15" d="M588.63,462.41a4.14,4.14,0,0,1,.75,2.71c-.28,1.24-.73,1.43-1.85,1.46s-13-2.91-14.34-3.64-1.21-2.92-.94-3.76,11.22,2,13,2.31S588.18,461.89,588.63,462.41Z"/><path class="cls-15" d="M589.83,448.68s.3,2.29-1.59,2-16.36-4-16.55-4.39-1.67-2.73-.22-4c0,0-.39-.5,1.44-.15A17.63,17.63,0,0,1,576,443s-.87-4.25-.28-4.31,8.1.48,8.6,2.32a7.73,7.73,0,0,1-.11,3.81l4.76,1.48A2.76,2.76,0,0,1,589.83,448.68Z"/><path class="cls-5" d="M583.71,440.92a41.61,41.61,0,0,0-6.52-1.51c-1.5-.07.18,1.15,1.15,2.3s3.65,1.2,4.18.73S584.22,441.35,583.71,440.92Z"/><path class="cls-5" d="M581.32,444.06s-.11,3.91-.18,4.09-.34,1.43-.59,0-.61-4.29-.41-4.34S581,443.08,581.32,444.06Z"/><path class="cls-5" d="M581.18,451a5.34,5.34,0,0,1-.15,1.68c-.2.25-.4.51-.71-.78S580.6,450.14,581.18,451Z"/><path class="cls-5" d="M581.19,456.23a3.49,3.49,0,0,1,0,1.91c-.33.72-.4.51-.65-.46s-.31-1.69-.11-1.74S581.06,455.7,581.19,456.23Z"/><path class="cls-5" d="M581.58,462.28s.44,1.42,0,1.71-.89-1.94-.89-2S581,461,581.58,462.28Z"/><path class="cls-15" d="M588.23,468.46a4,4,0,0,1,.82,2.72c-.3,1.24-.8,1.42-2,1.42s-14.18-3.19-15.59-3.95-1.32-2.95-1-3.78,12.2,2.2,14.18,2.59S587.74,467.94,588.23,468.46Z"/><path class="cls-5" d="M580.56,468.18s.48,1.43,0,1.71-1-2-1-2.06S579.94,466.92,580.56,468.18Z"/><polygon class="cls-16" points="568.78 404.35 618.84 416.7 619.18 385.47 569.12 373.12 568.78 404.35"/><polygon class="cls-16" points="568.35 434.21 618.54 446.59 618.84 419.22 568.65 406.84 568.35 434.21"/><polygon class="cls-16" points="568.24 468.47 618.43 480.85 618.79 447.96 568.6 435.58 568.24 468.47"/></g><g class="cls-17"><path class="cls-15" d="M76.12,403s.28,1.85,1.07,2.26,15.39-3.49,15.91-3.92.94-3.66.54-4.37-16.3,3.32-16.82,3.85A2.39,2.39,0,0,0,76.12,403Z"/><path class="cls-15" d="M76.18,408.37s-.18,1.26,1.52,1.44,15.06-3.51,15.51-3.93.56-2.56.42-3.13-15.72,3-16.56,3.58A2.29,2.29,0,0,0,76.18,408.37Z"/><path class="cls-15" d="M76.93,411.31a4.14,4.14,0,0,0-.75,2.71c.28,1.24.73,1.43,1.85,1.46s13-2.91,14.34-3.64,1.21-2.92.94-3.76-11.22,2-13,2.31S77.39,410.8,76.93,411.31Z"/><path class="cls-15" d="M75.74,397.59s-.3,2.29,1.59,2,16.36-4,16.55-4.39,1.67-2.73.22-4c0,0,.39-.5-1.44-.15a17.63,17.63,0,0,0-3.06.86s.87-4.25.28-4.31-8.1.48-8.6,2.32a7.73,7.73,0,0,0,.11,3.81l-4.76,1.48A2.76,2.76,0,0,0,75.74,397.59Z"/><path class="cls-5" d="M81.86,389.82a41.61,41.61,0,0,1,6.52-1.51c1.5-.07-.18,1.15-1.15,2.3s-3.65,1.2-4.18.73S81.34,390.25,81.86,389.82Z"/><path class="cls-5" d="M84.25,393s.11,3.91.18,4.09.34,1.43.59,0,.61-4.29.41-4.34S84.57,392,84.25,393Z"/><path class="cls-5" d="M84.39,399.89a5.34,5.34,0,0,0,.15,1.68c.2.25.4.51.71-.78S85,399,84.39,399.89Z"/><path class="cls-5" d="M84.38,405.14a3.49,3.49,0,0,0,0,1.91c.33.72.4.51.65-.46s.31-1.69.11-1.74S84.51,404.6,84.38,405.14Z"/><path class="cls-5" d="M84,411.19s-.44,1.42,0,1.71.89-1.94.89-2S84.57,409.93,84,411.19Z"/><path class="cls-3" d="M76.59,433.59s.28,1.85,1.07,2.26,15.39-3.49,15.91-3.92.94-3.66.54-4.37-16.3,3.32-16.82,3.85A2.39,2.39,0,0,0,76.59,433.59Z"/><path class="cls-3" d="M76.65,438.92s-.18,1.26,1.52,1.44,15.06-3.51,15.51-3.93.56-2.56.42-3.13-15.72,3-16.56,3.58A2.29,2.29,0,0,0,76.65,438.92Z"/><path class="cls-3" d="M77.4,441.86a4.14,4.14,0,0,0-.75,2.71c.28,1.24.73,1.43,1.85,1.46s13-2.91,14.34-3.64,1.21-2.92.94-3.76-11.22,2-13,2.31S77.85,441.35,77.4,441.86Z"/><path class="cls-3" d="M76.2,428.14s-.3,2.29,1.59,2,16.36-4,16.55-4.39,1.67-2.73.22-4c0,0,.39-.5-1.44-.15a17.63,17.63,0,0,0-3.06.86s.87-4.25.28-4.31-8.1.48-8.6,2.32a7.73,7.73,0,0,0,.11,3.81l-4.76,1.48A2.76,2.76,0,0,0,76.2,428.14Z"/><path class="cls-5" d="M82.33,420.37a41.61,41.61,0,0,1,6.52-1.51c1.5-.07-.18,1.15-1.15,2.3s-3.65,1.2-4.18.73S81.81,420.8,82.33,420.37Z"/><path class="cls-5" d="M84.71,423.51s.11,3.91.18,4.09.34,1.43.59,0,.61-4.29.41-4.34S85,422.53,84.71,423.51Z"/><path class="cls-5" d="M84.85,430.44a5.34,5.34,0,0,0,.15,1.68c.2.25.4.51.71-.78S85.43,429.59,84.85,430.44Z"/><path class="cls-5" d="M84.85,435.69a3.49,3.49,0,0,0,0,1.91c.33.72.4.51.65-.46s.31-1.69.11-1.74S85,435.15,84.85,435.69Z"/><path class="cls-5" d="M84.45,441.73s-.44,1.42,0,1.71.89-1.94.89-2S85,440.48,84.45,441.73Z"/><path class="cls-3" d="M52.45,408s.28,1.85,1.07,2.26,15.39-3.49,15.91-3.92.94-3.66.54-4.37-16.3,3.32-16.82,3.85A2.39,2.39,0,0,0,52.45,408Z"/><path class="cls-3" d="M52.51,413.3s-.18,1.26,1.52,1.44,15.06-3.51,15.51-3.93.56-2.56.42-3.13-15.72,3-16.56,3.58A2.29,2.29,0,0,0,52.51,413.3Z"/><path class="cls-3" d="M53.26,416.24a4.14,4.14,0,0,0-.75,2.71c.28,1.24.73,1.43,1.85,1.46s13-2.91,14.34-3.64,1.21-2.92.94-3.76-11.22,2-13,2.31S53.71,415.73,53.26,416.24Z"/><path class="cls-3" d="M52.07,402.52s-.3,2.29,1.59,2,16.36-4,16.55-4.39,1.67-2.73.22-4c0,0,.39-.5-1.44-.15a17.63,17.63,0,0,0-3.06.86s.87-4.25.28-4.31-8.1.48-8.6,2.32a7.73,7.73,0,0,0,.11,3.81L53,400.18A2.76,2.76,0,0,0,52.07,402.52Z"/><path class="cls-5" d="M58.19,394.75a41.61,41.61,0,0,1,6.52-1.51c1.5-.07-.18,1.15-1.15,2.3s-3.65,1.2-4.18.73S57.67,395.18,58.19,394.75Z"/><path class="cls-5" d="M60.58,397.9s.11,3.91.18,4.09.34,1.43.59,0,.61-4.29.41-4.34S60.89,396.91,60.58,397.9Z"/><path class="cls-5" d="M60.72,404.82a5.34,5.34,0,0,0,.15,1.68c.2.25.4.51.71-.78S61.3,404,60.72,404.82Z"/><path class="cls-5" d="M60.71,410.07a3.49,3.49,0,0,0,0,1.91c.33.72.4.51.65-.46s.31-1.69.11-1.74S60.84,409.53,60.71,410.07Z"/><path class="cls-5" d="M60.32,416.12s-.44,1.42,0,1.71.89-1.94.89-2S60.89,414.87,60.32,416.12Z"/><path class="cls-15" d="M52.2,438.7s.28,1.85,1.07,2.26,15.39-3.49,15.91-3.92.94-3.66.54-4.37-16.3,3.32-16.82,3.85A2.39,2.39,0,0,0,52.2,438.7Z"/><path class="cls-15" d="M52.26,444s-.18,1.26,1.52,1.44,15.06-3.51,15.51-3.93.56-2.56.42-3.13S54,441.38,53.15,442A2.29,2.29,0,0,0,52.26,444Z"/><path class="cls-15" d="M53,447a4.14,4.14,0,0,0-.75,2.71c.28,1.24.73,1.43,1.85,1.46s13-2.91,14.34-3.64,1.21-2.92.94-3.76-11.22,2-13,2.31S53.46,446.45,53,447Z"/><path class="cls-15" d="M51.81,433.24s-.3,2.29,1.59,2,16.36-4,16.55-4.39,1.67-2.73.22-4c0,0,.39-.5-1.44-.15a17.63,17.63,0,0,0-3.06.86s.87-4.25.28-4.31-8.1.48-8.6,2.32a7.73,7.73,0,0,0,.11,3.81l-4.76,1.48A2.76,2.76,0,0,0,51.81,433.24Z"/><path class="cls-5" d="M57.94,425.48A41.61,41.61,0,0,1,64.46,424c1.5-.07-.18,1.15-1.15,2.3s-3.65,1.2-4.18.73S57.42,425.91,57.94,425.48Z"/><path class="cls-5" d="M60.32,428.62s.11,3.91.18,4.09.34,1.43.59,0,.61-4.29.41-4.34S60.64,427.64,60.32,428.62Z"/><path class="cls-5" d="M60.47,435.55a5.34,5.34,0,0,0,.15,1.68c.2.25.4.51.71-.78S61,434.7,60.47,435.55Z"/><path class="cls-5" d="M60.46,440.79a3.49,3.49,0,0,0,0,1.91c.33.72.4.51.65-.46s.31-1.69.11-1.74S60.58,440.26,60.46,440.79Z"/><path class="cls-5" d="M60.07,446.84s-.44,1.42,0,1.71.89-1.94.89-2S60.64,445.59,60.07,446.84Z"/><path class="cls-3" d="M52.56,472s.28,1.85,1.07,2.26,15.39-3.49,15.91-3.92.94-3.66.54-4.37-16.3,3.32-16.82,3.85A2.39,2.39,0,0,0,52.56,472Z"/><path class="cls-3" d="M52.62,477.32s-.18,1.26,1.52,1.44,15.06-3.51,15.51-3.93.56-2.56.42-3.13-15.72,3-16.56,3.58A2.29,2.29,0,0,0,52.62,477.32Z"/><path class="cls-3" d="M53.37,480.27a4.14,4.14,0,0,0-.75,2.71c.28,1.24.73,1.43,1.85,1.46s13-2.91,14.34-3.64,1.21-2.92.94-3.76-11.22,2-13,2.31S53.82,479.75,53.37,480.27Z"/><path class="cls-3" d="M52.18,466.54s-.3,2.29,1.59,2,16.36-4,16.55-4.39,1.67-2.73.22-4c0,0,.39-.5-1.44-.15a17.63,17.63,0,0,0-3.06.86s.87-4.25.28-4.31-8.1.48-8.6,2.32a7.73,7.73,0,0,0,.11,3.81l-4.76,1.48A2.76,2.76,0,0,0,52.18,466.54Z"/><path class="cls-5" d="M58.3,458.78a41.61,41.61,0,0,1,6.52-1.51c1.5-.07-.18,1.15-1.15,2.3s-3.65,1.2-4.18.73S57.78,459.21,58.3,458.78Z"/><path class="cls-5" d="M60.69,461.92s.11,3.91.18,4.09.34,1.43.59,0,.61-4.29.41-4.34S61,460.93,60.69,461.92Z"/><path class="cls-5" d="M60.83,468.84a5.34,5.34,0,0,0,.15,1.68c.2.25.4.51.71-.78S61.41,468,60.83,468.84Z"/><path class="cls-5" d="M60.82,474.09a3.49,3.49,0,0,0,0,1.91c.33.72.4.51.65-.46s.31-1.69.11-1.74S60.95,473.56,60.82,474.09Z"/><path class="cls-5" d="M60.43,480.14s-.44,1.42,0,1.71.89-1.94.89-2S61,478.89,60.43,480.14Z"/><path class="cls-15" d="M77,461.34s.28,1.85,1.07,2.26,15.39-3.49,15.91-3.92.94-3.66.54-4.37-16.3,3.32-16.82,3.85A2.39,2.39,0,0,0,77,461.34Z"/><path class="cls-15" d="M77,466.67s-.18,1.26,1.52,1.44S93.59,464.6,94,464.18s.56-2.56.42-3.13-15.72,3-16.56,3.58A2.29,2.29,0,0,0,77,466.67Z"/><path class="cls-15" d="M77.77,469.61a4.14,4.14,0,0,0-.75,2.71c.28,1.24.73,1.43,1.85,1.46s13-2.91,14.34-3.64,1.21-2.92.94-3.76-11.22,2-13,2.31S78.22,469.09,77.77,469.61Z"/><path class="cls-15" d="M76.57,455.88s-.3,2.29,1.59,2,16.36-4,16.55-4.39,1.67-2.73.22-4c0,0,.39-.5-1.44-.15a17.63,17.63,0,0,0-3.06.86s.87-4.25.28-4.31-8.1.48-8.6,2.32a7.73,7.73,0,0,0,.11,3.81l-4.76,1.48A2.76,2.76,0,0,0,76.57,455.88Z"/><path class="cls-5" d="M82.69,448.12a41.61,41.61,0,0,1,6.52-1.51c1.5-.07-.18,1.15-1.15,2.3s-3.65,1.2-4.18.73S82.18,448.55,82.69,448.12Z"/><path class="cls-5" d="M85.08,451.26s.11,3.91.18,4.09.34,1.43.59,0,.61-4.29.41-4.34S85.4,450.28,85.08,451.26Z"/><path class="cls-5" d="M85.22,458.19a5.34,5.34,0,0,0,.15,1.68c.2.25.4.51.71-.78S85.8,457.34,85.22,458.19Z"/><path class="cls-5" d="M85.21,463.44a3.49,3.49,0,0,0,0,1.91c.33.72.4.51.65-.46s.31-1.69.11-1.74S85.34,462.9,85.21,463.44Z"/><path class="cls-5" d="M84.82,469.48s-.44,1.42,0,1.71.89-1.94.89-2S85.4,468.23,84.82,469.48Z"/><path class="cls-15" d="M78.16,475.66a4,4,0,0,0-.82,2.72c.3,1.24.8,1.42,2,1.42s14.18-3.19,15.59-3.95,1.32-2.95,1-3.78-12.2,2.2-14.18,2.59S78.66,475.14,78.16,475.66Z"/><path class="cls-5" d="M85.84,475.39s-.48,1.43,0,1.71,1-2,1-2.06S86.46,474.12,85.84,475.39Z"/><polygon class="cls-16" points="97.62 411.56 47.56 423.9 47.22 392.67 97.28 380.32 97.62 411.56"/><polygon class="cls-16" points="98.05 441.41 47.85 453.79 47.56 426.43 97.75 414.05 98.05 441.41"/><polygon class="cls-16" points="98.16 475.68 47.97 488.06 47.61 455.16 97.8 442.78 98.16 475.68"/></g><path class="cls-3" d="M113.6,400.56c7.26-.69,14.54-1.57,21.82-2s14.9.51,22.32.78c14.77.54,29.56.25,44.34.11a181.91,181.91,0,0,1,25,1c.59.08.59-.86,0-.93a166,166,0,0,0-22.27-1c-7.47.05-14.94.18-22.41.22s-14.78,0-22.17-.22-14.77-1.09-22.14-1c-8.16.14-16.35,1.29-24.47,2.06-.59.06-.6,1,0,.93Z"/><path class="cls-3" d="M505,450.86c-.29-2-8.3-32.65-9.73-33.32S484.85,414,484.85,414s.86-3.83-.86-3.38a27,27,0,0,1-4.95.11,9.94,9.94,0,0,0-.06-1.57s3.43-.68,3.72-2.7a3.65,3.65,0,0,0-3.43-4.05c-2,0-4,.68-4.58,1.58s-.86,2.7,0,3.15,2-.68,2-.68-.86-1.8.86-2,2.86.68,2.58,1.58-1.72,1.58-2.58,1.8c-.64.17-.64,1.81-.61,2.84-2.37-.11-4.4-.25-4.4-.25-1.29.34-1,4.17-1,4.17s-10.59,3.6-11.45,4.28-8.59,33.55-8,34.67,7.15.45,7.73.23S465.25,429,465.25,429v22.06s26,.45,26.9,0-.57-22.29-.57-22.29l6.87,24.77S505.31,452.88,505,450.86Z"/><path class="cls-12" d="M528.87,449.86c-.29-2-8.3-32.65-9.73-33.32s-10.45-3.49-10.45-3.49.86-3.83-.86-3.38a27,27,0,0,1-4.95.11,9.94,9.94,0,0,0-.06-1.57s3.43-.68,3.72-2.7a3.65,3.65,0,0,0-3.43-4.05c-2,0-4,.68-4.58,1.58s-.86,2.7,0,3.15,2-.68,2-.68-.86-1.8.86-2,2.86.68,2.58,1.58-1.72,1.58-2.58,1.8c-.64.17-.64,1.81-.61,2.84-2.37-.11-4.4-.25-4.4-.25-1.29.34-1,4.17-1,4.17s-10.59,3.6-11.45,4.28-8.59,33.55-8,34.67,7.15.45,7.73.23S489.09,428,489.09,428v22.06s26,.45,26.9,0-.57-22.29-.57-22.29l6.87,24.77S529.16,451.89,528.87,449.86Z"/><path class="cls-12" d="M552.21,449.86c-.29-2-8.3-32.65-9.73-33.32S532,413.05,532,413.05s.86-3.83-.86-3.38a27,27,0,0,1-4.95.11,9.94,9.94,0,0,0-.06-1.57s3.43-.68,3.72-2.7a3.65,3.65,0,0,0-3.43-4.05c-2,0-4,.68-4.58,1.58s-.86,2.7,0,3.15,2-.68,2-.68-.86-1.8.86-2,2.86.68,2.58,1.58-1.72,1.58-2.58,1.8c-.64.17-.64,1.81-.61,2.84-2.37-.11-4.4-.25-4.4-.25-1.29.34-1,4.17-1,4.17s-10.59,3.6-11.45,4.28-8.59,33.55-8,34.67,7.15.45,7.73.23S512.43,428,512.43,428v22.06s26,.45,26.9,0-.57-22.29-.57-22.29l6.87,24.77S552.5,451.89,552.21,449.86Z"/><path class="cls-3" d="M445.38,406.52c7.26-.69,14.54-1.57,21.82-2s14.9.51,22.32.78c14.77.54,29.56.25,44.34.11a181.91,181.91,0,0,1,25,1c.59.08.59-.86,0-.93a166,166,0,0,0-22.27-1c-7.47.05-14.94.18-22.41.22s-14.78,0-22.17-.22-14.77-1.09-22.14-1c-8.16.14-16.35,1.29-24.47,2.06-.59.06-.6,1,0,.93Z"/></g></g></svg>