<svg xmlns="http://www.w3.org/2000/svg" xmlns:xlink="http://www.w3.org/1999/xlink" viewBox="0 0 870.59 635.43"><defs><style>.cls-1{fill:none;}.cls-2{fill:#327387;}.cls-3{fill:#7da4cb;}.cls-4{opacity:0.8;}.cls-5{fill:#f05c79;}.cls-6{fill:#f1a2c9;}.cls-7{fill:#e94e58;}.cls-8{fill:#e1a565;}.cls-9{fill:#cf342b;}.cls-10{font-size:8.61px;}.cls-10,.cls-24,.cls-25{fill:#402e25;}.cls-10,.cls-24,.cls-25,.cls-26{font-family:AdobeFanHeitiStd-Bold, AdobeFanHeitiStd Bold-B5pc-H;font-weight:700;}.cls-11{fill:#eff3f0;}.cls-12{clip-path:url(#clip-path);}.cls-13{fill:#e2a665;}.cls-14{fill:#a4423a;}.cls-15{fill:#fff;}.cls-16{fill:#2d1230;}.cls-17{clip-path:url(#clip-path-2);}.cls-18{fill:#82695e;}.cls-19,.cls-26{fill:#fcc6d0;}.cls-20{fill:#dd86ae;}.cls-21{fill:#e2b4aa;}.cls-22{fill:#9d4138;}.cls-23{fill:#2c112f;}.cls-24{font-size:19.13px;}.cls-25{font-size:16.47px;}.cls-26{font-size:11.18px;}</style><clipPath id="clip-path"><path class="cls-1" d="M291.85,418.46c0,26.33-21.34,53-47.67,59.56s-47.67-9.46-47.67-35.79,21.34-53,47.67-59.56S291.85,392.13,291.85,418.46Z"/></clipPath><clipPath id="clip-path-2"><path class="cls-1" d="M679.77,437.79c0,26.82-21.74,43.14-48.56,36.45s-48.56-33.85-48.56-60.67,21.74-43.14,48.56-36.45S679.77,411,679.77,437.79Z"/></clipPath></defs><title>match</title><g id="圖層_2" data-name="圖層 2"><g id="圖層_1-2" data-name="圖層 1"><path class="cls-2" d="M159.82,575.79s145.26,52.5,173.26,52.5,252-1.75,294-14S736,592.86,745.67,573.6s-458.53-47.25-489.6-38.07S166.38,517.6,159.82,575.79Z"/><path class="cls-3" d="M751.25,231c-.88-6.58-2.63-14-9.66-14.92a26.34,26.34,0,0,0-4.25-.22,9.06,9.06,0,0,0-2.41-3.42,7.73,7.73,0,0,0-2.12-1.63l-.53-.27c-.52-.28-4.82-2.5-12-6.18-14.24-7.36-38-19.64-60.54-31C578,131.59,456.2,69.41,455.19,68.92h0c-3.12-1.66-5.46-2.9-6.85-3.62C500.83,38,495.71,17.92,494.41,8,493.1-2.12,473.79-1.68,463.25,4s-13.61,13.61-13.61,13.61-14.92-21.07-33.35-14-7,25.89-7,25.89c4.15,15.23,24.54,29.48,33,34.83-3.58,1.37-6.9,6.35-15.32,11.34-11.85,7-231.29,124.64-248.84,135.17-12.12,7.27-15.66,10.36-16.69,11.57-7.39-1.86-17.06-.87-18.42,1.15-1.76,2.63,0,38.18,0,61.44,0,11.21,4.49,16.6,9.13,19.19a7,7,0,0,0,.08,1.44c.44,2.19,2.63,5.27,4.39,6.14a4.3,4.3,0,0,0,3.07.44s-.44,139.56-.44,144,3.51,46.08,3.95,48.28c.19.94.7,5.87,1.23,11.18-2.31-.3-6.73-.47-7.37,2.43a23.2,23.2,0,0,0-.39,4.61h0c0,2.78.23,5.61.34,6.73h0c0,.11,0,.3,0,.56-.4.3-2.26,1.94-3.43,7.4-1.32,6.14-.44,20.19,3.51,21.5,0,0,108,39.06,136.93,40.38s186.52,2.63,223.83,0,144.39-8.34,157.56-14.48,55.74-15.36,64.08-25.89,3.95-24.58,3.95-25.89-1.76-10.53-2.63-10.53l-7.9-2.63s1.56-7-1.58-8.56a1,1,0,0,0-.38-.15h0l-.2-.06c-3.95-.88-10.53-2.19-10.53-2.19s-.37-9.27-3.51-10.76h0a2,2,0,0,0-.88-.2c-3.95,0-24.14,1.76-24.14,1.76s-.44-11.41-5.27-14a6.25,6.25,0,0,0-.79-.35h0s-.38-.72-6.38-1.15c-3.06-.28-6.53-.37-9.59-.39.84-36.43,1.84-171.46,1.84-171.46s9.66-4.83,11.41-10.09c0,0,1.32,2.19,7.46,3.95s18.43-.88,20.19-3.95,10.09.44,13.17,4.83,11.85,7,18,3.95c6-3,7-10.91,7-13.38a4.92,4.92,0,0,0,2.64-1.1C754.32,292,752.13,237.6,751.25,231ZM660.4,479.28a7.69,7.69,0,0,0-5.26-3.82c-7-1.76-37.74-1.32-37.74-1.32a49,49,0,0,0,0-10.82,12,12,0,0,0-.3-1.67c-.49-2.24-1.34-4.16-2.77-5.07a5.33,5.33,0,0,0-1-.46h0c-3.57-1.74-19.87-3.14-20.55-3.2-12.21-1.24-25-2-25-2h-.21l-2.86-141v-1.28l11,3.12s18.87,2.63,25,1.76,4.39-.44,4.39-.44l.44,134.3s.44,7.46,7,3.51,2.19-140,2.19-140,13.17-1.32,17.55-3.95a24.4,24.4,0,0,0,6.14-4.83s5.71,7.46,11.85,9.22a40.13,40.13,0,0,0,12.29,1.32S660.71,438.66,660.4,479.28ZM332.32,305.46l.75,1-2.69.05,1.39-1.09Zm-26.08,9.38s1.43-.3,3.55-.78c.35,14,2.77,102.49,3.57,136.83h0l-5.83,1.64C307.25,388.94,306.23,314.84,306.23,314.84Zm110.84-9.93c3.34-.69,6.34-1,6.34-1s.13.35.39.91Zm-38.06.72-5.7.11,1.24-1.24,3.06-.1ZM265.42,308.7c2.19,0,7.9,4.39,13.61,6.58s16.24,2.19,18.43.44c1.29-1,.3,75.74-.29,139.74l-18.28,5.15L273,462.26h0l-12.52,3.53c-.7-33.41-5.2-156.65-5.2-156.65S263.22,308.7,265.42,308.7ZM434.29,239l4.37,0A5.64,5.64,0,0,1,434.29,239Zm-245.7,66.48c.84,2.28,2.18,5.55,3.53,7.16,2.19,2.63,11.41,3.51,16.68,2.19s11.85-4.39,12.29-6.14a17.66,17.66,0,0,1,2.46-4.29l5-.12c.9,2.41,3,7.48,5.69,8.8,0,0,9.22,2.63,10.53,1.76s4.39,133.42,4.39,138.24.71,19.43.71,19.43h0l-4.66,4.27s-17.56,0-22.38,2.19-3.95,9.66-3.95,9.66a173.22,173.22,0,0,0-17,3.44,17,17,0,0,0-2.72.94c-3.51,1.76-3.95,11.41-3.95,11.41s-8.07.52-13.59,1.56a17.68,17.68,0,0,0-2.32.52h0a11.58,11.58,0,0,0-1.64.55l-.46.2c-1,.38-2.14.83-3.28,1.32-2.29-22.06-5.73-57.71-6.35-63-.88-7.46,1.76-76.36,1.32-86.46v-47a10.94,10.94,0,0,0,7.46-1.32,14.38,14.38,0,0,0,4.37-5.12Z"/><g class="cls-4"><path class="cls-5" d="M157,558.85s108,39.06,136.93,40.38,186.52,2.63,223.83,0,144.39-8.34,157.56-14.48,55.74-15.36,64.08-25.89,3.95-24.58,3.95-25.89-1.76-10.53-2.63-10.53-7.9-2.63-7.9-2.63,1.76-7.9-2.19-8.78-10.53-2.19-10.53-2.19-.44-11-4.39-11-24.14,1.76-24.14,1.76-.44-11.41-5.27-14-25-1.76-25-1.76a7.65,7.65,0,0,0-6.14-8.34c-7-1.76-37.74-1.32-37.74-1.32s1.76-14.48-3.07-17.55-46.52-5.71-46.52-5.71H313.36l-57.6,16.24-10.53,9.66s-17.55,0-22.38,2.19-3.95,9.66-3.95,9.66-16.24,2.63-19.75,4.39-3.95,11.41-3.95,11.41-13.61.88-17.55,2.63-12.29,4.39-11.85,8.78c0,0-7.9-1.76-8.78,2.19s0,11.85,0,11.85-2.19,1.32-3.51,7.46S153.07,557.54,157,558.85Z"/><path class="cls-6" d="M309.74,312.21c0,1.76,3.88,143.07,3.88,151.85s75,9.22,88,7.9,125.25-4.65,152.64-13.17c12.7-3.95,13.37-7.9,13.37-7.9l-3-148.78-254.83,4.83Z"/><path class="cls-7" d="M311.94,317.91s37.74,6.58,50.47,7,97,2.63,119.81,0,59.69-7,63.64-9.66,12.64-13.05,12.64-13.05l6.24-.12v16a19.14,19.14,0,0,1-7,6.8c-4.39,2.19-7.9,2.63-14,1.32s-9.66-4.39-11.41-3.07-6.14,6.14-10.09,8.78-9.22,3.95-12.73,2.19-4.83-6.58-8.34-4.83-1.76,6.58-8.78,8.78-18.43,3.07-24.14,0-11.41,6.58-19.31,5.27-14.92-7-17.12-7.46-5.71,5.71-9.66,7.46-18.87,3.95-21.94,0-7.46-9.66-10.09-7.9-2.63,5.71-8.34,6.58a16.17,16.17,0,0,1-13.61-4.83c-2.19-2.63-3.51-3.51-7-.88s-11.41,6.58-17.12,3.51-4.39-5.27-6.58-7-3.51,1.76-7.9,2.19-10.53-3.95-14-7.46S310.18,317.47,311.94,317.91Z"/><path class="cls-7" d="M312.76,341.67c-.14-.69-1.2-.4-1.06.29l1.52,7.3c.14.69,1.2.4,1.06-.29Z"/><path class="cls-7" d="M559.22,343.54c.67-.22.38-1.28-.29-1.06q-8.65,2.84-17.44,5.23a.54.54,0,0,0,.06-.16,10.42,10.42,0,0,0-1-7.16.49.49,0,0,0-.27-.24q4.4-1,8.77-2h0l1.88,6.2c.2.67,1.26.39,1.06-.29l-1.88-6.18q4.42-1.1,8.8-2.34a.55.55,0,0,0-.29-1.06c-30.6,8.68-62.32,12-93.95,14.27-16,1.15-32,2.45-48,2.71-16.44.26-32.75-1.46-49-3.65-18.36-2.48-36.7-5.1-55-7.66-.69-.1-1,1-.29,1.06l12.23,1.71a.61.61,0,0,0,0,.12,32.88,32.88,0,0,0,.34,9,.58.58,0,0,0,0,.09q-4.65-1-9.23-2.42c-.68-.21-1,.85-.29,1.06a122.24,122.24,0,0,0,23.14,4.68c8.32.85,16.67.61,25,.45a191.35,191.35,0,0,1,25.11,1.08c8.17.92,16.3,2.13,24.49,2.92A358.63,358.63,0,0,0,507,356.44,358.2,358.2,0,0,0,559.22,343.54Zm-233.5,8.69a.56.56,0,0,0,.23-.56,31.81,31.81,0,0,1-.3-8.64l17.86,2.49a.56.56,0,0,0-.25.41l-1,8.18a.43.43,0,0,0,.29.49A118.19,118.19,0,0,1,325.72,352.23Zm93.58,7c-16.13-1.27-32.12-4.49-48.32-4.6-9.28-.06-18.56.57-27.84,0l-.26,0a.59.59,0,0,0,.5-.51l1-8.18a.47.47,0,0,0-.05-.3l5.79.81a.55.55,0,0,0-.18.36l-.65,7c-.07.7,1,.7,1.1,0l.65-7a.52.52,0,0,0,0-.24l6,.83-.36,6.43c0,.71,1.06.7,1.1,0l.35-6.28,3.76.52c4.71.65,9.43,1.29,14.16,1.88v3.58a.55.55,0,0,0,1.1,0v-3.45q4.15.51,8.31.94a.6.6,0,0,0,0,.16l-.33,2.92c-.08.7,1,.69,1.1,0l.33-2.92a.56.56,0,0,0,0-.06c7.89.79,15.8,1.34,23.74,1.42,4.09,0,8.19,0,12.28-.14a.57.57,0,0,0-.52.68,50.33,50.33,0,0,1,.8,5.42c.06.7,1.16.7,1.1,0a53.07,53.07,0,0,0-.84-5.71.46.46,0,0,0-.51-.39C434.74,352,447,351,459.2,350.2q8.55-.59,17.09-1.27a.57.57,0,0,0-.49.51,28.87,28.87,0,0,0,.57,9.2c.15.69,1.21.4,1.06-.29a27.94,27.94,0,0,1-.53-8.91.46.46,0,0,0-.49-.52q10.2-.83,20.37-1.93a.53.53,0,0,0-.2.4l-.36,8.19c0,.71,1.07.7,1.1,0l.36-8.19a.47.47,0,0,0-.27-.47c3.18-.35,6.36-.72,9.54-1.13l.43-.06a.51.51,0,0,0-.34.49,39.43,39.43,0,0,0,.54,7.47c.12.69,1.17.4,1.06-.29a37.89,37.89,0,0,1-.5-7.18.5.5,0,0,0-.47-.52c10.75-1.4,21.45-3.15,32-5.43a.53.53,0,0,0-.13.68,9.21,9.21,0,0,1,.91,6.31.55.55,0,0,0,.33.63Q536,349.21,531,350.4a.58.58,0,0,0,0-.09l-.75-7.3c-.07-.7-1.17-.7-1.1,0l.75,7.3a.56.56,0,0,0,.14.32,357.85,357.85,0,0,1-64,9.23A356.78,356.78,0,0,1,419.3,359.26Z"/><path class="cls-7" d="M516.12,345.05v7.31a.55.55,0,0,0,1.1,0v-7.31A.55.55,0,0,0,516.12,345.05Z"/><path class="cls-7" d="M485.64,348.86l.68,7.6c.06.7,1.16.7,1.1,0l-.68-7.6C486.67,348.16,485.57,348.15,485.64,348.86Z"/><path class="cls-7" d="M464.92,350.61v8.19a.55.55,0,0,0,1.1,0v-8.19A.55.55,0,0,0,464.92,350.61Z"/><path class="cls-7" d="M431.86,352.66v5.85a.55.55,0,0,0,1.1,0v-5.85A.55.55,0,0,0,431.86,352.66Z"/><path class="cls-7" d="M413.13,353.83V357a.55.55,0,0,0,1.1,0v-3.22A.55.55,0,0,0,413.13,353.83Z"/><path class="cls-7" d="M404.4,353.25,404,357c-.07.7,1,.7,1.1,0l.36-3.8C405.56,352.54,404.46,352.55,404.4,353.25Z"/><path class="cls-7" d="M394.41,352.66v2.93a.55.55,0,0,0,1.1,0v-2.93A.55.55,0,0,0,394.41,352.66Z"/><path class="cls-7" d="M366.32,350v3.8a.55.55,0,0,0,1.1,0V350A.55.55,0,0,0,366.32,350Z"/><path class="cls-7" d="M333.84,345.05v7.9a.55.55,0,0,0,1.1,0v-7.9A.55.55,0,0,0,333.84,345.05Z"/><path class="cls-7" d="M318.73,349.32l-1.44-6.44c-.15-.69-1.21-.4-1.06.29l1.44,6.44C317.82,350.3,318.88,350,318.73,349.32Z"/><path class="cls-7" d="M561.91,342.13a47.75,47.75,0,0,1-.19-7.61c0-.71-1.06-.7-1.1,0a47.74,47.74,0,0,0,.19,7.61C560.88,342.83,562,342.84,561.91,342.13Z"/><path class="cls-7" d="M501.68,377.63a.48.48,0,0,0,.06-.86c2.26-.74.81-4.8,0-6.29a5.25,5.25,0,0,0-7.25-2.4c-3,1.39-3,4.78-1.29,7.33A6.74,6.74,0,0,0,501.68,377.63Zm-7.13-8.34a4.21,4.21,0,0,1,5.78.95c.4.55,2.63,5.41.86,5.55a.58.58,0,0,0-.34,1,5.66,5.66,0,0,1-6.08-1.2C493.2,374,492.25,370.68,494.55,369.29Z"/><path class="cls-7" d="M500.7,393.34a.46.46,0,0,0,.47.25,5.27,5.27,0,0,0,5.12-5.67c-.42-3.41-3.55-4.88-6.66-4.51-2.89.34-5.41,1.71-4.79,5A5.77,5.77,0,0,0,500.7,393.34Zm-.31-8.91c5.31-.21,6.37,6.76,1.76,7.92a.5.5,0,0,0-.6-.26,4.48,4.48,0,0,1-5.51-3.38C495.17,385.64,497.88,384.53,500.39,384.43Z"/><path class="cls-7" d="M503.08,408.47a.47.47,0,0,0,.74.25,4.48,4.48,0,0,0,.76-6.38c-1.57-2-5.2-3.33-7.66-2.31-2.72,1.13-2.13,4.78-.89,6.81C497.56,409.34,500.59,409.05,503.08,408.47Zm-5.72-7.4c1.72-.73,4.33.09,5.69,1.25s2,3.62.66,5.07a.51.51,0,0,0-.45-.08c-1.65.42-3.8,1-5.35,0S495,402.06,497.36,401.06Z"/><path class="cls-7" d="M522.66,373.92a.44.44,0,0,0,.36-.28c2.25-1,2.71-3.68,2.11-5.95-.3-1.12-.76-2.63-1.76-3.34-1.29-.92-2.92-.18-4.26.23-1,.31-2.51.53-3.08,1.58s-.16,2.64.2,3.69A5.75,5.75,0,0,0,522.66,373.92Zm-5.36-4.36a4.77,4.77,0,0,1-.41-2.38c.3-1.11,1.3-1.17,2.21-1.44a9.94,9.94,0,0,1,2.11-.63c2-.1,2.38,1.15,2.79,2.59.56,1.95.46,4.53-1.92,5.11a.53.53,0,0,0-.22.11A4.7,4.7,0,0,1,517.3,369.55Z"/><path class="cls-7" d="M525.84,390.5a.52.52,0,0,0,.38-.61c2-.91,3.63-2.33,3.29-4.84-.42-3-3.42-4.62-6.26-4.55-1,0-2.3.17-2.93,1.1-.74,1.1-.34,3.08-.13,4.3C520.65,388.64,522.77,391.38,525.84,390.5Zm-4.56-7.9c.34-.79.45-.8,1.28-.94a6.18,6.18,0,0,1,1.51,0c2.13.19,4.29,1.6,4.39,3.93s-2.23,3.27-4.08,3.9a.58.58,0,0,0-.16.08c-1.75-.31-2.75-2.37-3-4.12A5.34,5.34,0,0,1,521.28,382.6Z"/><path class="cls-7" d="M524.84,404.14c1.18,0,2.36,0,3.53,0a.53.53,0,0,0,.52-.63c1.84-1.26,3.15-3.39,2.28-5.67a4.58,4.58,0,0,0-5.67-2.64,5.43,5.43,0,0,0-3.6,6c.13,1,.47,2.28,1.41,2.78A3.24,3.24,0,0,0,524.84,404.14Zm-1.77-2.67a4.45,4.45,0,0,1,2.2-5,3.51,3.51,0,0,1,4.85,1.73c.88,2.1-.85,3.95-2.59,4.84l-2,0C524.21,403,523.39,402.83,523.07,401.47Z"/><path class="cls-7" d="M528.4,417.35c2.74-.06,4.3-2.54,4.13-5.12a5.25,5.25,0,0,0-1.15-3.22,4,4,0,0,0-3.33-.78,4.57,4.57,0,0,0-4.44,4.57,4.43,4.43,0,0,0,4.29,4.19A.49.49,0,0,0,528.4,417.35Zm-.54-8a5.15,5.15,0,0,1,2.11,0c1.09.37,1.38,1.86,1.46,2.83.14,1.81-.74,3.69-2.6,4a.48.48,0,0,0-.49-.32A3.27,3.27,0,0,1,527.86,409.36Z"/><path class="cls-7" d="M501.82,411.75c-6.72.32-4.07,11.09,1,8.5.63-.32.07-1.27-.55-.95-2.63,1.36-3.81-2.55-3.31-4.43.57-2.15,3.23-2.36,5-1.7s3.09,2.5,2.15,4.45a9,9,0,0,1-3.44,3.21c-.59.38,0,1.33.55.95,2.12-1.37,4.82-3.4,4.26-6.3C506.95,413,504.16,411.64,501.82,411.75Z"/><path class="cls-7" d="M472.3,379.63a.58.58,0,0,0,.61.31c2.48-.37,2.93-3.22,1.7-5.06-1.47-2.21-5-3.63-7.57-2.68C462.22,374,467.48,383.3,472.3,379.63Zm-4-6.57a6.17,6.17,0,0,1,4.05,1.13c1.43,1,3.24,4.24.24,4.69l-.11,0a.46.46,0,0,0-.74-.25C467.73,381.78,463.92,373.68,468.32,373.06Z"/><path class="cls-7" d="M474.25,394.53c.7,0,.71-1.13,0-1.1a7,7,0,0,1-4.56-1.28c-1.63-1.19-3.66-4-1-5.39,1.68-.86,3.79-1.07,4.93.67s2.08,3.48,1.73,5.49c-.12.69.93,1,1.06.29a9.1,9.1,0,0,0-2.54-7.32c-1.55-1.57-4.61-.91-6.27.19-2,1.33-1.32,3.84-.05,5.45A8,8,0,0,0,474.25,394.53Z"/><path class="cls-7" d="M474.94,409.83a.51.51,0,0,0,.23-.09c2.62-.56,3.67-2.61,2.72-5.44-.86-2.57-3.19-5.4-6.26-4.48-2.9.87-3,4.48-2.64,6.94C469.46,410,472.17,410.27,474.94,409.83Zm-4-8.39c3.75-3.47,10,6.86,3.28,7.33a.56.56,0,0,0-.27.09c-2,.21-3.68-.16-3.92-2.63C469.89,404.73,469.73,402.57,470.95,401.44Z"/><path class="cls-7" d="M474.12,415.51a4.38,4.38,0,0,0-4.34,4.93c.38,3.22,3.33,4.72,6.22,5.06,2.34,1.56,4-1.39,3.7-3.47C479.25,419.26,477.29,415.68,474.12,415.51Zm2.53,9.11a.54.54,0,0,0-.29-.16.45.45,0,0,0-.18,0c-1.9-.19-3.77-.81-4.78-2.56a3.55,3.55,0,0,1,1.08-4.88c2-1.17,4,.45,5,2.09a9.75,9.75,0,0,1,1,2.4C478.74,422.55,478.58,425.79,476.65,424.62Z"/><path class="cls-7" d="M542.07,369.73c.67-.21.39-1.27-.29-1.06-3.78,1.18-5.8-3.88-2.58-5.95a3.65,3.65,0,0,1,4.51.61c1.23,1.2,2.23,5-.68,4.78-.71,0-.7,1.05,0,1.1,2.7.16,3.51-2.82,2.64-4.93a5.06,5.06,0,0,0-6-3,4.72,4.72,0,0,0-3.1,5.51A4.47,4.47,0,0,0,542.07,369.73Z"/><path class="cls-7" d="M546.33,386.3l.08-.07a3.93,3.93,0,0,0,2.54-5.16c-1-2.94-4.54-4.24-7.45-3.84C535.66,378,540.32,390.37,546.33,386.3Zm-4.2-8a6.4,6.4,0,0,1,4.94,1.75c1.65,1.82,1.24,5.27-1.71,5.23a.51.51,0,0,0-.53.58C540.37,387.51,538.16,378.44,542.14,378.28Z"/><path class="cls-7" d="M547,400.55a.53.53,0,0,0,.49.13c2.33-.5,3-3.21,2.05-5.16S546.43,390.9,544,392a4.56,4.56,0,0,0,3,8.56Zm-3.25-7.12a2,2,0,0,1,2.82.06,7.92,7.92,0,0,1,1.58,1.79c.84,1.3,1.1,3.5-.51,4.19a.48.48,0,0,0-.49-.1C543.57,400.48,540.77,396,543.78,393.43Z"/><path class="cls-7" d="M546.75,416.46c2.56-.69,4.73-3.07,4.32-5.86-.36-2.45-2.9-4.54-5.41-3.95a4.25,4.25,0,0,0-3,5.23,5.56,5.56,0,0,0,4.45,3.29,5.55,5.55,0,0,1-.68.23A.55.55,0,0,0,546.75,416.46Zm-3.15-5.73a3,3,0,0,1,3.29-3,3.67,3.67,0,0,1,3.08,4.2,4,4,0,0,1-1,2,.54.54,0,0,0-.39,0C546.74,414.86,543.62,412.66,543.6,410.73Z"/><path class="cls-7" d="M549.28,432.09a.51.51,0,0,0,.29-.81c1.56-1,1.62-3.88,1-5.43a4.71,4.71,0,0,0-6-2.75,4.32,4.32,0,0,0-2.41,5.79C543.26,431.77,546.48,432.66,549.28,432.09Zm-5-7.67a3.59,3.59,0,0,1,4.55.7,4.2,4.2,0,0,1,1,2.23c.13,1,0,3.21-1.56,3.16a.51.51,0,0,0-.51.66,4.93,4.93,0,0,1-3.92-1.53C542.51,428.13,542.48,425.54,544.31,424.42Z"/><path class="cls-7" d="M547.67,439.39a3.3,3.3,0,0,0-3.22,4.36c.62,2.16,2.23,4.74,4.7,4.8a.49.49,0,0,0,.42-.19.6.6,0,0,0,.19,0C554.4,446.22,552.85,439.14,547.67,439.39Zm1.53,8-.13.08c-1.66-.09-2.63-1.79-3.24-3.16-.44-1-.73-2,0-2.87a2.73,2.73,0,0,1,2.84-.83A3.56,3.56,0,0,1,549.2,447.36Z"/><path class="cls-7" d="M531.88,421.43c-2.62-.26-5.57.8-6.31,3.55a4.55,4.55,0,0,0,3.24,5.48.5.5,0,0,0,.65-.39c2.35.8,4.81.45,5.36-2.43C535.22,425.55,534.42,421.68,531.88,421.43Zm.76,7.79c-1,.61-2.25.06-3.24-.33a.46.46,0,0,0-.65.39,3.4,3.4,0,0,1-2.19-3.78c.42-2.12,2.37-2.84,4.29-3,2.16-.14,3,2.44,2.94,4.23A2.82,2.82,0,0,1,532.63,429.22Z"/><path class="cls-7" d="M557.95,365.24c2.24-.13,2.32-2.62,1.4-4.15s-2.91-3.6-5-3.08a3,3,0,0,0-1.79,4c.73,2,2.94,2.61,4.85,2.61A.49.49,0,0,0,557.95,365.24Zm-3.59-2.56a2.29,2.29,0,0,1-.51-3.1c1-1.24,2.68-.12,3.52.73a7.11,7.11,0,0,1,1,1.33c.38.63.92,2.23-.24,2.47a.5.5,0,0,0-.53-.55A4.82,4.82,0,0,1,554.36,362.68Z"/><path class="cls-7" d="M559.35,384.16a.56.56,0,0,0,1.08,0c.71-2.23.15-11.1-4.22-8.32-1.67,1.06-1.8,3.1-1.09,4.78S557.3,384.66,559.35,384.16Zm-3.23-6.57c.55-1,1.65-1.44,2.55-.41a5.47,5.47,0,0,1,.81,2.63,9.59,9.59,0,0,1,.08,3.28.5.5,0,0,0-.37,0c-1.58.48-2.92-2.21-3.25-3.34A2.61,2.61,0,0,1,556.12,377.59Z"/><path class="cls-7" d="M558.64,401.2a.52.52,0,0,0,.46,0c2.22-1.19,2.62-3.57,2.28-5.9-.27-1.82-.72-5-3.09-5.35s-2.93,2.26-2.76,4a12.36,12.36,0,0,0,2.55,7.1A.45.45,0,0,0,558.64,401.2Zm-2-9,3,.49.17.59a8.81,8.81,0,0,1,.42,2.06c.27,1.82.15,3.74-1.55,4.77a8.72,8.72,0,0,1-1.63-3.44C556.9,395.88,556.07,392.75,556.66,392.21Z"/><path class="cls-7" d="M559.89,416.51a.57.57,0,0,0,.74,0,6.17,6.17,0,0,0,1.91-5.66c-.18-1.59-.33-4.56-2.46-4.66-4.91-.24-2.22,8.68-1.16,10.81C559.23,417.62,560.12,417.12,559.89,416.51Zm-1.1-8.46,2.15.3q.13.52.24,1a12,12,0,0,1,.33,2.32,4.87,4.87,0,0,1-1.66,4,.48.48,0,0,0-.18.3,13.76,13.76,0,0,1-1.14-3.64C558.41,411.54,557.94,408.64,558.79,408Z"/><path class="cls-7" d="M561.85,422.09c-1.37-1.14-3.13-.21-3.64,1.35-.77,2.38.28,5.34,1.45,7.41a.52.52,0,0,0,.81.13C565.1,431.7,564.32,424.13,561.85,422.09Zm-1.41,7.77h-.07a10.94,10.94,0,0,1-1-2.55,9.37,9.37,0,0,1-.28-2.08q0-.28,0-.56-.22-1.87,1.39-1.26c1.22.07,1,0,1.46.84a11.18,11.18,0,0,1,.71,1.91C563,427.6,562.68,430.37,560.44,429.86Z"/><path class="cls-7" d="M560,438.56c-2.28-.29-2.39,2.18-2.22,3.81s.49,4.82,2.4,5.25a.58.58,0,0,0,1,.4,6.22,6.22,0,0,0,2.1-5.47C563,440.79,561.89,438.8,560,438.56Zm.92,8.12a.53.53,0,0,0-.32-.1c-1.33,0-1.66-3.62-1.75-4.5s-.38-2.62,1.3-2.37A2.55,2.55,0,0,1,561.6,441,5,5,0,0,1,560.87,446.68Z"/><path class="cls-7" d="M435.85,376.48a5.62,5.62,0,0,0,4.46,6.41.55.55,0,0,0,.89.19c2.43-2.34,6.84-9.59,1.42-11.3-.54-.17-.83.46-.59.84A5,5,0,0,0,435.85,376.48Zm6.39-2.65c.51.19.79-.39.6-.78,3.25,1.6-.18,6.83-2,8.85l-.12,0a4.6,4.6,0,0,1-3.84-4.71A3.91,3.91,0,0,1,442.24,373.83Z"/><path class="cls-7" d="M442.83,392.83c-.62-.33-1.18.61-.55.95a4.26,4.26,0,0,1,2.34,3.7c0,2.67-2.51,2.78-4.39,1.87a4.34,4.34,0,0,1-2.62-3.48c-.11-2,1.68-4.06,3.77-2.94.62.33,1.18-.61.55-.95a3.64,3.64,0,0,0-5.24,2.33,5.19,5.19,0,0,0,3,6c1.9.94,4.84,1.25,5.75-1.16A5.26,5.26,0,0,0,442.83,392.83Z"/><path class="cls-7" d="M442.25,417.15c1.84-.84,2.27-3.26,2.1-5.08-.15-1.54-1.5-3-3.1-2.12a.55.55,0,0,0,.55.95c1.54-.89,1.51,1.82,1.44,2.51-.11,1.18-.58,2.83-2,2.84-2.5,0-2.45-4.63-.62-5.51.64-.3.08-1.25-.55-.95-1.61.77-2.14,3.62-1.71,5.18S440.55,417.93,442.25,417.15Z"/><path class="cls-7" d="M440.63,424.68a7.2,7.2,0,0,0-1.15,5.75c.46,1.44,1.86,2.4,3.29,1.52,1.65-1,1.62-3.57,1.76-5.27s-.47-3.31-2.35-3c-.7.11-.4,1.17.29,1.06,1.49-.24.88,2.75.81,3.3a12.32,12.32,0,0,1-.21,1.49c-.17.68-.86,2.75-2.27,1.18-1.23-1.37,0-4.22.77-5.47C442,424.63,441,424.08,440.63,424.68Z"/><path class="cls-7" d="M440.57,438.5c-.62.33-.07,1.28.55.95,1.26-.67,2.41.64,2.5,1.82a5.6,5.6,0,0,1-1,3.22c-1.08,1.63-2.8.78-3-.91a3.89,3.89,0,0,1,1.21-3.13c.51-.49-.27-1.27-.78-.78a4.79,4.79,0,0,0-1.21,5.25,2.56,2.56,0,0,0,4.16.83c1.31-1.34,2.22-4,1.39-5.8A2.83,2.83,0,0,0,440.57,438.5Z"/><path class="cls-7" d="M415.49,382.52c3.91-.53,4.37-5,3.27-8.18a6.22,6.22,0,0,0-6.8-3.93.5.5,0,0,0-.56-.19c-3.3.89-4.81,4.72-4.16,7.9C408,382,412,383,415.49,382.52Zm-7.12-4.41c-.6-2.35.29-5.36,2.49-6.51a.48.48,0,0,0,.45.07,5.23,5.23,0,0,1,6.11,2.33,7.47,7.47,0,0,1,.63,3.79c-.07,2.23-1,3.58-3.37,3.69C412,381.61,409.12,381,408.38,378.12Z"/><path class="cls-7" d="M414.53,399c3.9-1.27,3.9-10.6-1.12-9.74-.69.12-.4,1.18.29,1.06,3.42-.58,3.45,8.81-1,7.66-4.1-1.08-1.76-6.22-.09-8.24.45-.54-.32-1.32-.78-.78-1.68,2-3.12,4.56-2.25,7.26A4,4,0,0,0,414.53,399Z"/><path class="cls-7" d="M412.19,406.29c-1,2-1.6,4.9.44,6.49a3.88,3.88,0,0,0,5.61-1.27c1.13-2,.65-5-1.52-6.11-1.6-.81-5.2-1.11-6.27.67a.55.55,0,0,0,.95.55c.63-1.06,3.39-.74,4.37-.42,1.92.63,2.46,3.09,1.53,4.75a2.75,2.75,0,0,1-4.22.77c-1.27-1.3-.61-3.46.06-4.88C413.43,406.21,412.49,405.65,412.19,406.29Z"/><path class="cls-7" d="M417.64,427.07a5.87,5.87,0,0,0,1.17-3.06c.11-1,.23-2.81-.35-3.75-1-1.58-3.53-.31-5,.69a.5.5,0,0,0-.81.13c-.93,1.84-2.06,5-.26,6.71A3.62,3.62,0,0,0,417.64,427.07Zm-4.43-4.67a.58.58,0,0,0,.23-.11,7.29,7.29,0,0,1,2.49-1.37c1.06-.32,1.6-.42,1.74.83A6.61,6.61,0,0,1,417,426c-.81,1.29-2.8,2.21-4,.84C412,425.79,412.61,423.79,413.21,422.4Z"/><path class="cls-7" d="M413.12,442a3.32,3.32,0,0,0,4.5.7,3.62,3.62,0,0,0,1-4.64,3.87,3.87,0,0,0-4.67-1.58.6.6,0,0,0-.31.81A4,4,0,0,0,413.12,442Zm1.63-4.39a.55.55,0,0,0,.13-.24c2.22-.24,4.28,2.38,2.33,4.25a2.19,2.19,0,0,1-3.3-.41C413.22,440,413.9,438.52,414.75,437.62Z"/><path class="cls-7" d="M414.75,448.28a.47.47,0,0,0-.38.61,4,4,0,0,0-1.49,4.52c.59,1.71,2.61,3.18,4.46,2.62A2.52,2.52,0,0,0,419,454.2a9,9,0,0,0,.61-4C419.16,447.87,416.56,447.93,414.75,448.28Zm1.6,6.73c-3.07-.13-3.21-4.2-.94-5.49a.51.51,0,0,0,.24-.28c1.37-.19,2.84-.08,2.85,1.78C418.5,452.34,418,455.08,416.35,455Z"/><path class="cls-7" d="M386,377.54a3.54,3.54,0,0,0,1.81-4.78c-1-1.9-3.86-2.2-5.94-2.21a.53.53,0,0,0-.9-.29,4.63,4.63,0,0,0-.42,5.83A4.54,4.54,0,0,0,386,377.54Zm-5.07-4.87c.38.26,1,0,.85-.57l0-.46a11.39,11.39,0,0,1,3.79.61c2.09.77,1.92,3.34,0,4.26C382.78,377.87,380.43,375.15,380.91,372.67Z"/><path class="cls-7" d="M380.26,394c1.7,2,5,2.95,7.27,1.46a4.12,4.12,0,0,0,1.33-5.82c-1.54-2.23-4.27-2.51-6.78-2.41a.51.51,0,0,0-.77,0l-.06.06-.35,0a.59.59,0,0,0-.43.91C379.19,390,378.67,392.16,380.26,394Zm1.51-5.66a8.55,8.55,0,0,1,4.66.62c1.86,1,2.82,3.19,1.23,5-1.43,1.6-3.83,1.4-5.49.31C379.75,392.67,380.13,390.26,381.77,388.37Z"/><path class="cls-7" d="M387.8,404.3a7.16,7.16,0,0,0-7.72,2.27c-.39.49.19,1.17.63.9a4,4,0,0,0,1.32,5.25c2.81,1.78,6.25,0,7.75-2.6.55-.95,1.4-2.54,1-3.66S388.81,404.62,387.8,404.3Zm1.77,3.56a5.8,5.8,0,0,1-4.13,4.37c-2.83.62-5.76-2.66-3.2-4.92.42-.37,0-.94-.44-.92a5.85,5.85,0,0,1,3.46-1.32C387,405,389.85,405.67,389.58,407.86Z"/><path class="cls-7" d="M388.95,421.51c-.74-.89-2.13-1-3.2-1.13a6.48,6.48,0,0,0-3.7.45c-.56.26-.21,1,.31,1-.83,2-.9,4.55.86,6.13a3.67,3.67,0,0,0,5.41-.3C389.75,426.17,390.23,423,388.95,421.51Zm-.89,4.93a2.56,2.56,0,0,1-4.21.61c-1.37-1.33-1.13-3.47-.39-5a.55.55,0,0,0,0-.5,7.24,7.24,0,0,1,3.82.27C389,422.41,388.75,425.06,388.06,426.44Z"/><path class="cls-7" d="M383.54,443c1.16,1.76,4,2.61,5.19.45s1.21-5.63-.75-7.19a2.63,2.63,0,0,0-4.37,1.8.55.55,0,0,0,0,.21A4.15,4.15,0,0,0,383.54,443Zm2-5.09a.57.57,0,0,0-.13-1,1.79,1.79,0,0,1,1.6,0,2.88,2.88,0,0,1,1.24,1.75c.29,1.07.26,3.3-.47,4.23-1.37,1.73-3.45,0-3.79-1.6A3.23,3.23,0,0,1,385.54,437.93Z"/><path class="cls-7" d="M388.26,454.2c-2.51-1.17-5,.42-7,1.88-.56.42,0,1.37.55.95,1.74-1.29,5.69-3.82,7.13-.7a3.53,3.53,0,0,1-.22,2.7,2.35,2.35,0,0,1-1.79,1.33,4.37,4.37,0,0,1-2.09,0c-1.09-.32-2.13-1.64-1.09-2.69.49-.51-.28-1.28-.78-.78a2.72,2.72,0,0,0,1,4.32c1.75.81,4.8.41,5.65-1.49C390.6,457.67,390.51,455.26,388.26,454.2Z"/><path class="cls-7" d="M354.94,371.08a.52.52,0,0,0-.88-.2,5.69,5.69,0,0,0-1.09,6.19,4.36,4.36,0,0,0,5.77,1.88,4.43,4.43,0,0,0,2-5.72A4.5,4.5,0,0,0,354.94,371.08Zm2.69,7.1a3.2,3.2,0,0,1-3.94-2.31,4.65,4.65,0,0,1,.9-3.91.58.58,0,0,0,.68.16,3.38,3.38,0,0,1,4.57,1.87A3.28,3.28,0,0,1,357.62,378.18Z"/><path class="cls-7" d="M334.84,365.29a.5.5,0,0,0-.61.27.52.52,0,0,0-.43,0c-2,1.1-2.22,4.09-2,6.12.3,2.6,2,3.61,4.54,3.27s4.43-2,4-4.73S337.33,366,334.84,365.29Zm1.74,8.57c-1.15.22-2.58.27-3.29-.85a4.42,4.42,0,0,1-.43-2.27c0-1.41.12-3.43,1.5-4.19a.52.52,0,0,0,.2-.2c1.65.47,3.45,1.22,4.32,2.82A3.07,3.07,0,0,1,336.58,373.86Z"/><path class="cls-7" d="M334.31,382.4a.46.46,0,0,0-.39.55.45.45,0,0,0-.44.17c-1.57,1.87-2.5,4.71-1,6.89,1.24,1.77,3.92,2.52,5.66,1s1.81-4.57,1.35-6.65C339,382,336.31,382,334.31,382.4Zm3.6,7.29a2.74,2.74,0,0,1-4.48-.3c-1.21-1.75-.43-4,.82-5.5a.55.55,0,0,0,.13-.44.59.59,0,0,0,.22,0c1.67-.32,3.68-.42,3.92,1.72C338.69,386.61,338.79,388.47,337.92,389.7Z"/><path class="cls-7" d="M318.88,373.49c2,.71,3.15-1.32,3.64-2.88s1-4.07-.5-5.37c-1.86-1.65-4.21.13-5.59,1.49a.55.55,0,0,0,.43.93C317,369.62,316.5,372.63,318.88,373.49Zm2.73-7c.58.95.23,2.48,0,3.47-.35,1.27-1.58,3.95-3.12,1.83-.81-1.11-.4-2.9-.5-4.18a.54.54,0,0,0-.34-.47C318.72,366.12,320.61,364.84,321.61,366.47Z"/><path class="cls-7" d="M318.59,381.25c-.71,0-.7,1.07,0,1.1a5.44,5.44,0,0,1,4.32,2,3.66,3.66,0,0,1-.3,4.72,2.66,2.66,0,0,1-4.13-.75c-.69-1.49.07-3.35.64-4.77.26-.66-.8-.94-1.06-.29-.8,2-1.65,4.74.07,6.53a3.89,3.89,0,0,0,5,.28,4.57,4.57,0,0,0,1.18-5.53A6.31,6.31,0,0,0,318.59,381.25Z"/><path class="cls-7" d="M321.41,397.22c-2.39-.28-3,2.47-3.06,4.26a.48.48,0,0,0,.49.53c-.61,1.61-.82,3.62,1.1,4.33,2.4.89,3.57-2.38,4-4.11C324.33,400.28,323.85,397.51,321.41,397.22Zm1.42,4.72c-.16.76-.52,2.56-1.27,3l-1.85-.16a2.14,2.14,0,0,1-.13-1.76,7.87,7.87,0,0,1,.77-1.66.56.56,0,0,0-.84-.69c.09-.87.32-1.94,1-2.19a1.84,1.84,0,0,1,2.2,1.08A3.69,3.69,0,0,1,322.83,401.94Z"/><path class="cls-6" d="M156.63,522.65c0,1.1,57,27,75.88,32.26s106.21,20.19,130.78,20.19,172.92,2.63,183.89,0,88.21-7.46,107.52-14,56.61-21.94,63.64-27.65a179.3,179.3,0,0,0,14.48-13.61l7.9,2.63S728.43,542.18,718.33,547s-55.3,20.63-79,25.45S536.2,583,502.85,584.75s-142.63,3.07-184.77,0-91.72-14.92-124.64-28.53-33.35-13.17-35.11-16.68-1.42-9.35-1.37-10.16S156.63,522.65,156.63,522.65Z"/><path class="cls-6" d="M165.79,515.84s52.66,27.65,74.17,29.4,68.9,14.92,92.6,16.68,154.92,2.63,169,2.63,100.06-1.76,120.69-4.39,50-13.17,66.27-20.19,44-27.46,44-27.46-1-1.38-1.66-1.44-10.76-2.26-10.76-2.26S707.8,515.41,697.27,522s-39.94,19.75-70.66,24.14-131.22,6.58-149.66,7-117.62-8.78-142.63-12.29-107.09-25-121.13-29.4-18-7-18-7-12.95,1.09-15.91,2.08-9.76,3.64-11.63,5.61S166.23,513.65,165.79,515.84Z"/><path class="cls-6" d="M198.43,493.53s9.49,9.59,27,14.86,93,26.33,111,25.89,98.31,9.66,108.4,10.09,72.85,1.76,83.39,1.32,104-10.09,119.81-12.73,52.23-23.7,57.93-26.77a49.1,49.1,0,0,0,10.54-8.14l-25,1.55s-15.8,9.66-26.77,16.24-59.25,16.68-72,18.43-66.27,6.14-87.77,5.27-58.37-1.32-72.41-1.76-59.69-8.34-74.17-10.09-58.37-11-75-17.55-64.51-21.5-64.51-21.5S200.79,491.4,198.43,493.53Z"/><path class="cls-6" d="M245.23,476.79s7.46,14.48,39.5,25,94.36,21.94,115.86,24.14,104.89,7.46,125.08,7,93.92-13.17,109.28-17.55,38.62-15.8,43.89-19.75a19.62,19.62,0,0,0,6.67-10.45s-1-1.84-24.22-1.4c0,0-32.48,30.28-77.24,34.67s-146.58,9.22-192.23,1.32-75-10.53-97-25.45-39.06-27.21-39.06-27.21Z"/><path class="cls-6" d="M655.14,475.47S606,504,567.8,507.51s-84.26,10.09-112.35,9.66-116.74-12.29-134.73-18.43S273,462.26,273,462.26l14.66-4.13s18.53,30.51,38.72,36.21,84.26,14.48,95.67,14.48,94.8-8.34,121.13-12.73,74.17-21.94,74.17-21.94S647.68,474.15,655.14,475.47Z"/><path class="cls-6" d="M617.39,463.33a250.36,250.36,0,0,1-68,24.43c-38.18,7.46-180.82,9.22-199.25,3.07s-54.47-22.94-54.45-35l6-1.68s5,11.18,11.63,15.13,39.5,13.61,54.86,15.36S525.23,479,538,477.22s43.26-12.16,54.76-24.29c0,0,16.93,1.42,20.58,3.2S617.39,463.33,617.39,463.33Z"/><path class="cls-7" d="M161,223.12s-.44-1.76,17.12-12.29,237-128.15,248.84-135.17,13.61-14,20.19-11,137.37,74.61,159.75,83.39,118.06,58.81,126,62.76,10.53,27.21,7.9,29-568.78-2.63-568.78-2.63S157.89,244.18,161,223.12Z"/><path class="cls-8" d="M266.29,230.58c.44-1.32,50-43.89,64.51-54.42s37.74-26.77,53.54-43.45,51.79-51.79,54.42-55.3l8.11-12.83s1.1,10.2-.21,13.27S390.06,181,383.91,187.13,337,238.36,337,238.36Z"/><path class="cls-8" d="M447.11,126.56s0-56.61,1.76-56.18,19.75,35.11,21.5,43.45,25,46.52,29,54.86,28.53,55.74,26.77,58.81-54,12.29-61.88,11a106.83,106.83,0,0,1-17.12-4.83Z"/><path class="cls-8" d="M452.82,70.39s76.36,81.63,97,97.43,74.61,54,82.51,58.81S703,231,712.19,230.58s25.22-14.49,25.22-14.49-.83-3.16-5.13-5.53S456.69,69.65,455.19,68.92,451.5,68.63,452.82,70.39Z"/><path class="cls-9" d="M165.79,530.33s1.32,4.39,5.27,3.95,5.71-4.39,4.83-8.34-7.46-72.85-8.34-80.31,1.76-76.36,1.32-86.46v-47a10.94,10.94,0,0,0,7.46-1.32c3.51-2.19,5.71-7.9,5.71-7.9h5.71s2.19,7,4.39,9.66,11.41,3.51,16.68,2.19,11.85-4.39,12.29-6.14S224.6,303,224.6,303h3.51s2.63,8.34,6.14,10.09c0,0,9.22,2.63,10.53,1.76s4.39,133.42,4.39,138.24.71,19.43.71,19.43a4.13,4.13,0,0,0,3.24,4.27s7,5.27,7.46-3.07-5.27-164.58-5.27-164.58,7.9-.44,10.09-.44,7.9,4.39,13.61,6.58,16.24,2.19,18.43.44S295.26,536,297.45,540s5.71,4.83,8.78,2.19,0-227.34,0-227.34,18.87-3.95,21.5-6.14,4.39-3.51,4.39-3.51,3.95,5.71,6.14,7.46,21.5,3.51,26.33.44S376,303,376,303s7.9,7,11.85,10.09,18-2.63,21.07-5.27,14.48-3.95,14.48-3.95,3.07,8.34,10.09,11c0,0,8.78,1.32,10.53,1.32s7.9,248.84,8.78,251.47,1.76,4.39,6.14,3.95,6.14-1.76,5.27-9.66-6.58-187.84-7-194.86-1.76-51.35-1.76-51.35,8.78.44,15.36-1.76a47,47,0,0,0,14-8.34c.88-.88,2.19,3.95,7,5.71s16.24,2.19,20.63.44,8.78-6.14,8.78-6.14,2.19,0,8.34,2.63,15.36,1.76,19.31-.44,6.33-1.84,6.33-1.84,11.22,3.16,20.44,5.79c0,0,18.87,2.63,25,1.76s4.39-.44,4.39-.44l.44,134.3s.44,7.46,7,3.51,2.19-140,2.19-140,13.17-1.32,17.55-3.95a24.41,24.41,0,0,0,6.14-4.83s5.71,7.46,11.85,9.22a40.13,40.13,0,0,0,12.29,1.32s-2.63,176-2.19,179.06,1.32,4.83,4.39,4.83,3.51-.44,4.39-3.95,2.19-180.38,2.19-180.38,9.66-4.83,11.41-10.09c0,0,1.32,2.19,7.46,3.95s18.43-.88,20.19-3.95,10.09.44,13.17,4.83,11.85,7,18,3.95,7-11.41,7-13.61-595.55,0-595.55,0-1.32,6.14-.88,8.34,2.63,5.27,4.39,6.14a4.3,4.3,0,0,0,3.07.44s-.44,139.56-.44,144,3.51,46.08,3.95,48.28S165.79,530.33,165.79,530.33Z"/><path class="cls-6" d="M162.28,306.5S143,308.26,143,285s-1.76-58.81,0-61.44,17.55-3.51,24.14,1.32,10.53.88,16.68-3.51,16.68-13.17,28.53-14.48,35.11-2.19,44.33,1.32,25.89,15.8,28.09,19.31,3.95,9.22,8.78,7.9,3.51-11,8.78-8.78,2.19,6.14,8.78,7,19.75-7.9,28.09-13.61,32.92-11,49.15-6.58,34.67,15.8,38.62,19.31,6.81,8.13,11.74,6.26,4.49-9.33,12.39-10.65,15.8-.88,17.12,2.63,5.71,5.27,10.09,0,24.14-23.26,45.64-23.26S570,217,578.33,221.36s14.48,7.9,16.68,5.27,1.32-6.14,9.22-5.27,7.9,4.39,12.29,2.19,9.66-8.78,18-12.73,19.75-7,24.58-7,24.58-2.63,36.87,3.07,23.7,14,27.65,15.36,7.46-2.63,7.9-3.95,3.07-3.07,10.09-2.19,8.78,8.34,9.66,14.92,3.07,61,0,65.39-75,3.07-82.51,3.07-169,0-184.77.44-151.85,7.9-181.69,4.83S162.28,306.5,162.28,306.5Z"/><path class="cls-7" d="M147.8,273.15s-4.83,18.87,0,23.26,14,6.58,22.38,5.71,82.07-1.32,86.46-1.32,115-.44,124.2-1.32,97.87-1.32,107.52-1.32H721.85c.88,0,25.45-.44,26.77-3.51s2.63-34.23,1.32-34.67-24.14,23.7-30.72,25.45-58.81,9.22-81.63-2.19S616.52,257.79,603.35,260,572.19,284.12,563,288.07s-54,10.09-65.39,3.07-29.4-26.33-41.25-22.82S418.58,271,412,278.85s-47.84,19.31-62.76,14.92S323.35,274,315,270.51s-25-4.83-35.11,1.76-22.82,20.63-35.11,21.07c0,0-52.23,2.63-68.9-9.22S149.55,263.05,147.8,273.15Z"/><path class="cls-7" d="M297.89,260.86A13.57,13.57,0,0,0,304,253c1.76-5.71,1.76-8.78,0-10.09s-5.71,0-6.14,2.63-2.19-.88-3.95-2.19-5.27-.88-5.27,2.63,2.63,8.34,4.39,10.53S295.26,260.42,297.89,260.86Z"/><path class="cls-7" d="M451.06,260.86a13.57,13.57,0,0,0,6.14-7.9c1.76-5.71,1.76-8.78,0-10.09s-5.71,0-6.14,2.63-2.19-.88-3.95-2.19-5.27-.88-5.27,2.63,2.63,8.34,4.39,10.53S448.43,260.42,451.06,260.86Z"/><path class="cls-7" d="M602,251.64a13.57,13.57,0,0,0,6.14-7.9c1.76-5.71,1.76-8.78,0-10.09s-5.71,0-6.14,2.63-2.19-.88-3.95-2.19-5.27-.88-5.27,2.63,2.63,8.34,4.39,10.53S599.4,251.2,602,251.64Z"/><path class="cls-7" d="M740.28,245.94c.43-.09,4.39-5.27,4.83-9.22s.44-11-1.32-11.85-5.27,2.63-5.27,4.39-4.39-.44-6.14.88,1.76,9.66,3.51,11.85S738.08,246.38,740.28,245.94Z"/><path class="cls-7" d="M154.82,258.67s3.95-18.43,2.63-22.38-3.51-3.95-5.27-2.63a5.43,5.43,0,0,0-1.76,3.95s-2.19-2.19-3.95-.88-.44,4.39,0,5.71,3.95,13.61,4.83,14.92S154.82,258.67,154.82,258.67Z"/><path class="cls-9" d="M445.92,66.54s-31.38-17.75-36.64-37.06c0,0-11.41-18.87,7-25.89s33.35,14,33.35,14S452.72,9.73,463.25,4,493.1-2.12,494.41,8,501,38.65,445.92,66.54Z"/><path class="cls-9" d="M239.49,238a23.67,23.67,0,0,0-4-5.36c.92-.55,2-1.79,1.14-3.2-1.25-2.1-3.18-2.33-4.72-1.42a1.84,1.84,0,0,0-.93,1.09,24.22,24.22,0,0,0-9-3.31,45,45,0,0,0-20.77,2.58,11.61,11.61,0,0,0-1.07.48,2,2,0,0,0-.83-.84c-1.53-.91-3.47-.68-4.72,1.42a2.22,2.22,0,0,0,.84,3c-3.73,3.79-6.49,9-6.65,12-.23,4.47-3,16.6,7.62,25.47a17.18,17.18,0,0,0,7.39,4.24c4.32,1.06,20.62,2,26.22-1.21s9.32-6.21,11-12.35S243.58,245.41,239.49,238Z"/><path class="cls-9" d="M389.88,247.14a23.38,23.38,0,0,0-3.56-4.95c.38-2.59,1.19-8.6.78-9.56-.54-1.23-3.28-1.51-4.47-.82-.92.53-4.5,3-6.06,4.13a21.51,21.51,0,0,0-3.57-.87,40.67,40.67,0,0,0-14.62.89c-1.55-1.09-5.15-3.61-6.07-4.15-1.19-.68-3.93-.41-4.47.82-.35.8.16,5.12.56,8-4.08,3.78-7.24,9.58-7.4,12.85-.22,4.42-2.92,16.42,7.34,25.19a16.5,16.5,0,0,0,7.12,4.2c4.16,1,19.87,1.95,25.28-1.2s9-6.15,10.59-12.22S393.82,254.49,389.88,247.14Z"/><path class="cls-9" d="M702.1,236.75c-2-1.72-8-7.63-9.56-6.62a20.7,20.7,0,0,0-6.35-2.1,38.76,38.76,0,0,0-18,2.21c-1.34-1.47-7.68,4.74-9.69,6.51-2.83,2.5-10.1,18.37-6.6,23.56,1.11,1.64,3-.13,5.07-3.31a19.56,19.56,0,0,0,6.62,11,15.12,15.12,0,0,0,6.53,3.85c3.82,1,18.21,1.79,23.16-1.1s8.23-5.63,9.71-11.2c.22-.82.42-1.71.6-2.63,2.08,3.22,4,5,5.11,3.37C712.2,255.12,704.93,239.25,702.1,236.75Z"/><path class="cls-9" d="M554.42,245.79a23.44,23.44,0,0,0-16.77-12,16.76,16.76,0,0,0,.33-10.13c-.45-1.68-2.69-4.26-3.63-4s-2.41,11.6-2.71,13.86c-.87,0-1.76.09-2.66.18-.23-1.74-1.87-13.84-2.74-14s-3.18,2.35-3.63,4a16.49,16.49,0,0,0,.67,10.94,39.16,39.16,0,0,0-5.63,1.72c-6,2.39-11.72,11.43-11.94,15.84s-2.91,16.36,7.32,25.1a16.44,16.44,0,0,0,7.1,4.18c4.15,1,19.8,1.94,25.19-1.2s9-6.13,10.56-12.18S558.35,253.11,554.42,245.79Z"/></g><path class="cls-5" d="M860.16,425.7A119.55,119.55,0,0,0,845.74,403c3.3-1.15,7.08-4.61,4.08-10.4-4.46-8.62-11.36-11.15-16.83-9.27a4.64,4.64,0,0,0-3.3,3.06,115.43,115.43,0,0,0-32-19.77c-21.9-8.7-51.64-12.33-74.08-9.28a33.34,33.34,0,0,0-3.83.77,10.29,10.29,0,0,0-3-3.75c-5.48-4.61-12.37-5.52-16.83.87-2.68,3.84.05,8.51,3,11.45-13.29,10.19-23.17,26.24-23.72,36.92-.81,15.75-10.81,56.52,27.17,97.62,0,0,11,14.09,26.36,21.71s73.54,25.37,93.55,19,33.26-13.88,39.2-34.3S874.76,455.84,860.16,425.7Z"/><path class="cls-5" d="M178,382.39a58.78,58.78,0,0,0-12.82-14.64c1.36-9.66,4.31-32.09,2.8-35.18-1.93-4-11.81-2.48-16.11,1.06-3.33,2.74-16.23,15-21.84,20.36a71.13,71.13,0,0,0-12.88.06c-15.44,1.5-34.87,7.69-52.72,16.34-5.58-2.54-18.56-8.41-21.9-9.49-4.3-1.4-14.18,2.05-16.11,7-1.26,3.21.58,18.33,2,28.47-14.72,17.29-26.09,41.05-26.68,53C.95,465.46-8.8,511.15,28.21,533.55a44.47,44.47,0,0,0,25.69,8.74c15,0,71.66-10.84,91.15-27.05s32.4-30.25,38.2-53.59S192.2,405.34,178,382.39Z"/><path class="cls-6" d="M328,381.13a58.78,58.78,0,0,0-12.82-14.64c1.36-9.66,4.31-32.09,2.8-35.18-1.93-4-11.81-2.48-16.11,1.06-3.33,2.74-16.23,15-21.84,20.36a71.13,71.13,0,0,0-12.88.06c-15.44,1.5-34.87,7.69-52.72,16.34-5.58-2.54-18.56-8.41-21.9-9.49-4.3-1.4-14.18,2.05-16.11,7-1.26,3.21.58,18.33,2,28.47-14.72,17.29-26.09,41.05-26.68,53-.79,16.15-10.54,61.83,26.48,84.24A44.47,44.47,0,0,0,203.87,541c15,0,71.66-10.84,91.15-27.05s32.4-30.25,38.2-53.59S342.18,404.07,328,381.13Z"/><text class="cls-10" transform="matrix(1, -0.25, 0, 1, 189, 499.85)">暱稱 : 喵喵</text><text class="cls-10" transform="matrix(1, -0.25, 0, 1, 267.46, 480.19)">性別 : 女</text><text class="cls-10" transform="matrix(1, -0.25, 0, 1, 189, 511.41)">興趣 : 唱歌、極限運動</text><text class="cls-10" transform="matrix(1, -0.25, 0, 1, 189.48, 523.82)">自我介紹 : 超喜歡貓咪的朋友<tspan x="0" y="10.33" xml:space="preserve">                     快加我呀!!!!!!!</tspan></text><path class="cls-11" d="M292.73,418.24c0,26.82-21.74,54-48.56,60.67s-48.56-9.63-48.56-36.45,21.74-54,48.56-60.67S292.73,391.42,292.73,418.24Z"/><g class="cls-12"><path class="cls-13" d="M277,419.63a22.86,22.86,0,0,0-5-5.7c.53-3.76,1.68-12.48,1.09-13.69-.75-1.54-4.59-1-6.27.41-1.3,1.07-6.31,5.83-8.5,7.92a27.67,27.67,0,0,0-5,0c-6,.58-13.56,3-20.51,6.36-2.17-1-7.22-3.27-8.52-3.69-1.67-.54-5.51.8-6.27,2.71-.49,1.25.23,7.13.79,11.08-5.73,6.73-10.15,16-10.38,20.61-.31,6.28-4.1,24.05,10.3,32.77a17.3,17.3,0,0,0,10,3.4c5.84,0,27.87-4.22,35.46-10.52s12.61-11.77,14.86-20.85S282.54,428.55,277,419.63Z"/><path class="cls-14" d="M230.71,456.61c0,1.17-1.9,2.6-4.24,3.18s-4.24.11-4.24-1.06,1.9-2.6,4.24-3.18S230.71,455.44,230.71,456.61Z"/><path class="cls-14" d="M266.5,447.69c0,1.17-1.9,2.6-4.24,3.18S258,451,258,449.8s1.9-2.6,4.24-3.18S266.5,446.51,266.5,447.69Z"/><path class="cls-15" d="M230.13,458.5s-2.28,2.94-1,4.65,3.71,2.33,7,1.94,14.7-2.7,18.28-5.17,5.63-6.5,4.09-8.5-9.08-3-14.06-1.51S232.69,455.05,230.13,458.5Z"/><path class="cls-16" d="M241.49,450.07s0,2,1.3,2.77a3.62,3.62,0,0,0,4.25-1.06c.89-1.19,1.51-3.92,1-4.57S241.22,447.4,241.49,450.07Z"/><path class="cls-15" d="M249.74,440.4c0,4.39,3.56,7.05,7.94,6a10.85,10.85,0,0,0,7.94-9.92c0-4.39-3.56-7.05-7.94-6A10.85,10.85,0,0,0,249.74,440.4Z"/><path class="cls-16" d="M250.76,439.69c0,3,2.46,4.87,5.49,4.12a7.49,7.49,0,0,0,5.49-6.85c0-3-2.46-4.87-5.49-4.12A7.49,7.49,0,0,0,250.76,439.69Z"/><path class="cls-16" d="M259.77,443.11c-.19.29,0,.72.47.94a.91.91,0,0,0,1.15-.12c.19-.29,0-.72-.47-.94A.91.91,0,0,0,259.77,443.11Z"/><path class="cls-16" d="M261,441.85c-.19.29,0,.72.47.94a.91.91,0,0,0,1.15-.12c.19-.29,0-.72-.47-.94A.91.91,0,0,0,261,441.85Z"/><path class="cls-15" d="M237.85,443.36a10.85,10.85,0,0,1-7.94,9.92c-4.39,1.09-7.94-1.58-7.94-6a10.85,10.85,0,0,1,7.94-9.92C234.3,436.31,237.85,439,237.85,443.36Z"/><path class="cls-16" d="M236.83,443.16a7.49,7.49,0,0,1-5.49,6.85c-3,.76-5.49-1.09-5.49-4.12a7.49,7.49,0,0,1,5.49-6.85C234.38,438.29,236.83,440.13,236.83,443.16Z"/><path class="cls-16" d="M227.82,451.07c.19.2,0,.73-.47,1.18s-1,.65-1.15.45,0-.73.47-1.18S227.63,450.87,227.82,451.07Z"/><path class="cls-16" d="M226.56,450.44c.19.2,0,.73-.47,1.18s-1,.65-1.15.45,0-.73.47-1.18S226.37,450.24,226.56,450.44Z"/></g><path class="cls-15" d="M440.93,635.43a2,2,0,0,1-1.32-.5c-.58-.51-14.15-12.57-18.58-17.1-5-5.15-3.91-14.51-.87-19,2.93-4.29,9.09-6,12.52-5.93,2.63.09,5.8,2.85,7.94,5.07a9.76,9.76,0,0,1,4.94-4.53c3.09-1,8.12-1.1,14.5,4.45,5.9,5.13,3.4,13.55,1.94,16.36-1.25,2.4-15.38,16.34-19.68,20.55A2,2,0,0,1,440.93,635.43Zm-8.62-38.52c-2.59,0-7,1.41-8.87,4.2s-3.21,10.22.43,13.94,13.35,12.42,17,15.67c8.26-8.13,16.82-16.88,17.62-18.26,0-.06,3.67-7.43-1-11.52-3.93-3.42-7.6-4.69-10.63-3.68-1.81.6-3.34,3.6-3.8,5a2,2,0,0,1-3.41.63c-2.28-2.77-5.75-5.88-7.07-5.93Z"/><path class="cls-6" d="M714,413.68a119.55,119.55,0,0,0-14.42-22.73c3.3-1.15,7.08-4.61,4.08-10.4-4.46-8.62-11.36-11.15-16.83-9.27a4.64,4.64,0,0,0-3.3,3.06,115.43,115.43,0,0,0-32-19.77c-21.9-8.7-51.64-12.33-74.08-9.28a33.34,33.34,0,0,0-3.83.77,10.29,10.29,0,0,0-3-3.75c-5.48-4.61-12.37-5.52-16.83.87-2.68,3.84.05,8.51,3,11.45-13.29,10.19-23.17,26.24-23.72,36.92-.81,15.75-10.81,56.52,27.17,97.62,0,0,11,14.09,26.36,21.71s73.54,25.37,93.55,19,33.26-13.88,39.2-34.3S728.58,443.82,714,413.68Z"/><text class="cls-10" transform="matrix(1, 0.25, 0, 1, 576.04, 467.65)">暱稱 : 很熊</text><text class="cls-10" transform="matrix(1, 0.25, 0, 1, 654.5, 487.1)">性別 : 男</text><text class="cls-10" transform="matrix(1, 0.25, 0, 1, 576.04, 479.21)">興趣 : 看書、看球賽</text><text class="cls-10" transform="matrix(1, 0.25, 0, 1, 576.52, 491.84)">自我介紹 : 外表粗曠，但很內向</text><path class="cls-11" d="M679.77,437.79c0,26.82-21.74,43.14-48.56,36.45s-48.56-33.85-48.56-60.67,21.74-43.14,48.56-36.45S679.77,411,679.77,437.79Z"/><g class="cls-17"><path class="cls-18" d="M664.64,431.69a46.23,46.23,0,0,0-5.58-8.79,2.65,2.65,0,0,0,1.58-4c-1.73-3.33-4.39-4.31-6.51-3.58a1.8,1.8,0,0,0-1.28,1.18,44.64,44.64,0,0,0-12.37-7.64,62.06,62.06,0,0,0-28.65-3.59,12.89,12.89,0,0,0-1.48.3,4,4,0,0,0-1.15-1.45c-2.12-1.78-4.78-2.13-6.51.34-1,1.48,0,3.29,1.16,4.43-5.14,3.94-9,10.15-9.17,14.28-.31,6.09-4.18,21.85,10.51,37.75a33.62,33.62,0,0,0,10.19,8.4c6,2.95,28.44,9.81,36.18,7.35s12.86-5.37,15.16-13.26S670.29,443.34,664.64,431.69Z"/><path class="cls-15" d="M617.23,442.21s-2.27,1.79-1,4.12,3.69,4.15,7,5.41,14.62,4.61,18.17,3.92,5.59-3.68,4.07-6.42-9-7.5-14-8.47S619.77,440,617.23,442.21Z"/><path class="cls-16" d="M628.52,439.46a5.5,5.5,0,0,0,1.3,3.4c1.3,1.38,3.34,1.8,4.23,1.05s1.5-3.15,1-4.07S628.25,436.67,628.52,439.46Z"/><path class="cls-15" d="M627.15,433.11c0,4.36-3.53,7-7.89,5.93a10.78,10.78,0,0,1-7.89-9.86c0-4.36,3.53-7,7.89-5.93A10.78,10.78,0,0,1,627.15,433.11Z"/><path class="cls-15" d="M651.19,438.79c0,4.36-3.53,7-7.89,5.93a10.78,10.78,0,0,1-7.89-9.86c0-4.36,3.53-7,7.89-5.93A10.78,10.78,0,0,1,651.19,438.79Z"/><path class="cls-16" d="M625.7,432.67a3.18,3.18,0,0,1-4.21,3.16,5.75,5.75,0,0,1-4.21-5.26,3.18,3.18,0,0,1,4.21-3.16A5.75,5.75,0,0,1,625.7,432.67Z"/><path class="cls-16" d="M645.55,437.93a3.18,3.18,0,0,1-4.21,3.16,5.75,5.75,0,0,1-4.21-5.26,3.18,3.18,0,0,1,4.21-3.16A5.75,5.75,0,0,1,645.55,437.93Z"/><path class="cls-16" d="M644.86,424.06s-10.33,1.81-10.64,4.23,20.66,1.71,20-.33S644.86,424.06,644.86,424.06Z"/><path class="cls-16" d="M617,417.12s10.33,7,10.64,9.54-20.66-8.6-20-10.32S617,417.12,617,417.12Z"/></g><path class="cls-5" d="M546.88,414.28c-17.31-32.68-48.06-49.72-74.05-53.79,7.41-19.61,3.27-38.42,1.46-45.31-2-7.52-11.87-19.05-16-18.05-3.72.9-10.64,51.88-12,62-3.86.14-7.78.41-11.73.81-1-7.81-8.25-61.9-12.08-62.83-4.13-1-14,10.53-16,18.05-1.92,7.31-6.48,28.07,3,49a171.17,171.17,0,0,0-24.87,7.68c-26.67,10.7-51.74,51.14-52.7,70.86S319,515.89,364.18,555c0,0,13,14,31.33,18.72s87.41,8.69,111.19-5.35,39.53-27.41,46.6-54.49S564.23,447,546.88,414.28Z"/><path class="cls-19" d="M541.91,413.34c-17.31-32.25-48.06-49.06-74.05-53.07,7.41-19.35,3.27-37.91,1.46-44.71-2-7.42-11.87-18.8-16-17.81-3.72.89-10.64,51.19-12,61.2-3.86.14-7.78.41-11.73.8-1-7.7-8.25-61.08-12.08-62-4.13-1-14,10.39-16,17.81-1.92,7.22-6.48,27.7,3,48.31a172.86,172.86,0,0,0-24.87,7.58c-26.67,10.55-51.74,50.46-52.7,69.92s-12.85,72.23,32.3,110.82c0,0,13,13.85,31.33,18.47s87.41,8.58,111.19-5.28,39.53-27,46.6-53.76S559.26,445.67,541.91,413.34Z"/><circle class="cls-11" cx="440.84" cy="467.23" r="87.49"/><path class="cls-19" d="M760.07,428A145.82,145.82,0,0,1,791,444.86c2.21,1.58,5.35,3.28,7.08,5.4.17.21.44.59.53.25-.12.43-1.76,1.38-2.07,1.61l-3.5,2.57L777,466.4c-3.08,2.26-.09,7.47,3,5.18l19.07-14c2.47-1.81,5.86-3.83,5.59-7.38-.25-3.24-3.57-5.13-5.89-6.92a152.4,152.4,0,0,0-37.16-21c-3.59-1.42-5.15,4.38-1.6,5.79Z"/><path class="cls-19" d="M123.85,422.25a152.34,152.34,0,0,0-37.16,21c-2.3,1.77-5.66,3.69-5.89,6.92-.24,3.39,2.8,5.33,5.2,7.09l19.46,14.28c3.12,2.29,6.11-2.92,3-5.18L92.92,455,89,452.12c-.52-.38-1.5-.82-1.79-1.36s-.58.48.25-.5c1.8-2.12,4.82-3.79,7.08-5.4A145.82,145.82,0,0,1,125.44,428c3.55-1.41,2-7.21-1.6-5.79Z"/><path class="cls-20" d="M423.2,476.75s-6.51,11.39-8.14,14.51-4.81,8.75-5.56,13.63-.54,5.9,0,6.58,2.17,2.1,3.19,2,1.9-1.29,2.24-2.1.68-1.76.68-1.76a4.87,4.87,0,0,0,1.27.57c.32,0,1.22.09,1.49-.72a1.27,1.27,0,0,0-.45-1.63,3.38,3.38,0,0,1-.92-.69c-.15-.2.08-.66.34-1.12s1.78-2.83,1.78-2.83.27,0,.34.47a26.82,26.82,0,0,0,1.87,4.21c.38.52.68.54.68,1s-.75,12.77-.61,14-.25.86-.79,1.11a8.14,8.14,0,0,0-3.66,4c-1.11,2.55,2.49,2.85,2.76,2.94s8,.32,9,0,3.5-1.15,3.84-3.14,1.24-12.69,1.24-12.69a.5.5,0,0,1,.53-.56c.56,0,6.86-.07,6.86-.07a.49.49,0,0,1,.37.42c0,.34,1,12.33,1.05,12.74a4.59,4.59,0,0,0,3.1,3c2.28.72,9.94.32,9.94.32s2.4-.66,2.42-1.92a3.36,3.36,0,0,0-.86-2.71,22.3,22.3,0,0,0-3.36-2.63,2.61,2.61,0,0,1-.1-1.08c0-.8-.49-14.2-.49-14.2s.75-1.19,1.18-2a16.77,16.77,0,0,0,1.29-3.3c0-.5.35-.42.44-.2s2.1,3.27,2.29,3.47.49.41.27.63-1.47,1.1-1.53,1.59c0,0-.24,1.37,1.1,1.41s1.39-.56,1.39-.56.25,0,.34.49,1.44,3.31,2.34,3.47,3.34-.81,3.81-2.22a12.33,12.33,0,0,0,.15-5.32c-.31-1.27-3.71-12.31-7.44-17.8a59.75,59.75,0,0,1-5.63-10.41l-.41-.85Z"/><path class="cls-21" d="M429.69,506.39a10.43,10.43,0,0,0,5.85,3.48c3.51.55,7.56-.73,8.81-3.48s2.26-10.86-2.57-14.06-9.51-.94-10.37,0a10.12,10.12,0,0,0-3,6.94C428.52,502.77,428.91,504.78,429.69,506.39Z"/><path class="cls-20" d="M465.19,440.81a28.37,28.37,0,0,0-20.3-14.55,20.28,20.28,0,0,0,.4-12.25c-.54-2-3.25-5.15-4.39-4.88s-2.92,14-3.28,16.77c-1.06,0-2.13.11-3.21.22-.28-2.11-2.26-16.74-3.31-17s-3.85,2.85-4.39,4.88a20,20,0,0,0,.81,13.24,47.38,47.38,0,0,0-6.82,2.08c-7.31,2.89-14.18,13.83-14.45,19.17s-3.52,19.8,8.85,30.37a19.89,19.89,0,0,0,8.59,5.06c5,1.27,24,2.35,30.48-1.45S465,475.07,467,467.75,469.95,449.67,465.19,440.81Z"/><ellipse class="cls-22" cx="422.6" cy="461.15" rx="3.65" ry="1.82"/><ellipse class="cls-22" cx="453.37" cy="461.15" rx="3.65" ry="1.82"/><path class="cls-15" d="M425.75,462.65s-2,2-.87,3.78,3.19,2.8,6,3.17,12.64.83,15.71-.53,4.84-4.38,3.52-6.43-7.8-4.54-12.09-4.31S427.95,460.23,425.75,462.65Z"/><path class="cls-23" d="M435.52,457.84a3.79,3.79,0,0,0,1.12,2.66,2.87,2.87,0,0,0,3.66,0c.77-.83,1.3-3,.83-3.72S435.28,455.48,435.52,457.84Z"/><path class="cls-23" d="M446.14,464.46a.44.44,0,0,0-.51-.1c-.54.17-3.83.6-4.59,0a6.06,6.06,0,0,1-2-4s0,0,0,0v-.12l0,0,0,0,0,0,0,0,0,0,0,0,0,0,0,0h-.35l0,0,0,0,0,0,0,0,0,0,0,0,0,0,0,0v.12s0,0,0,0a6.06,6.06,0,0,1-2,4c-.75.56-4,.12-4.58,0a.44.44,0,0,0-.49.72,9.79,9.79,0,0,0,3.34.47,4.22,4.22,0,0,0,2.26-.44,6.51,6.51,0,0,0,1.88-2.71,6.51,6.51,0,0,0,1.88,2.71,4.22,4.22,0,0,0,2.26.44,9.8,9.8,0,0,0,3.34-.47A.44.44,0,0,0,446.14,464.46Z"/><circle class="cls-15" cx="424.32" cy="450.32" r="6.83"/><circle class="cls-23" cx="424.32" cy="450.32" r="4.3"/><path class="cls-23" d="M414,443.53s.54,2.17,1.63,1.9,10.31-3.8,11.12-4.61-1.36-3.53-1.36-3.53-11.12,5.15-11.39,5.42S414,443.53,414,443.53Z"/><circle class="cls-15" cx="449.76" cy="450.32" r="6.83"/><circle class="cls-23" cx="449.76" cy="450.32" r="4.3"/><path class="cls-23" d="M460,443.53s-.54,2.17-1.63,1.9-10.31-3.8-11.12-4.61,1.36-3.53,1.36-3.53,11.12,5.15,11.39,5.42S460,443.53,460,443.53Z"/><text class="cls-24" transform="translate(397.72 555.01)">默契值:95%</text><text class="cls-25" transform="translate(407.53 400.64)">Mr. 粉兔</text><path class="cls-5" d="M654.56,442.09h-121c-12.57,0-22.86,9.69-22.86,21.53v12.2a10.94,10.94,0,0,0-1.7,3.24,6.51,6.51,0,0,0-1.4.9c-1.2,1-1.79,2.4-3.13,3.27-1,.64-1.92.88-2.67,1.82a27.65,27.65,0,0,1-6.77,4.05c-1.79.64-2.46,3.05-.56,4a169,169,0,0,0,16.23,7.43v18.7c0,11.84,10.29,21.53,22.86,21.53h121c12.57,0,22.86-9.69,22.86-21.53V463.62C677.42,451.78,667.13,442.09,654.56,442.09Z"/><text class="cls-26" transform="translate(523.73 484.09)">興趣 : 看電影、玩桌遊</text><text class="cls-26" transform="translate(524.35 500.34)">自我介紹 : 很喜歡交新朋友^^</text></g></g></svg>