<svg xmlns="http://www.w3.org/2000/svg" viewBox="0 0 292.84 559.19"><defs><style>.cls-1,.cls-3{fill:#f6c2cb;}.cls-2{fill:#e69dc2;}.cls-3{stroke:#040000;stroke-miterlimit:10;stroke-width:0.25px;}.cls-4{fill:#2b102e;}.cls-5{fill:#da4d55;}.cls-6{fill:#fff;}</style></defs><title>rabbit</title><g id="圖層_2" data-name="圖層 2"><g id="圖層_1-2" data-name="圖層 1"><path class="cls-1" d="M33.29,290.23c2.91,1.92,3.4,4.33,2.64,6.33a13.74,13.74,0,0,0-1.19,4.5c0,1,1.65,2.44,3.61,3.27,1.27.53,6.27,2.85,9.63,4,10.5,5.46,22.56,12.63,32.46,19,15,9.7,38,34.48,38.52,48.63.08,2.16-1.32,7.71-1.32,7.71s-10.27-4.93-35.17-17.11c-30.22-14.79-52.48-25.5-67.1-39.22S0,309.63,0,306.1s1.66-12.16,5.08-14.49,9.3-.65,12.42,1.1S25.72,297,25.72,297c-.64-.9,0-4.55,1-5.34S30.38,288.31,33.29,290.23Z"/><path class="cls-1" d="M91.26,511.74s.55-1.17.41-4.41,2-57.69,2-57.69.76-4.57,5.18-5.68c10.18-2.55,12.06-2.27,19.33.4,11.8,4.32,22.45,13,23.81,26.15,0,.05-.82,5.51-.82,5.57-.07,1.38-3.9,50.07-4.27,51.73s-3.3,9.18-12.58,12.12-40.39,1.29-40.39,1.29-9.73-2.66-9.82-7.8.48-7.27,3.51-11S91.26,511.74,91.26,511.74Z"/><path class="cls-1" d="M218.75,452.46c-8.47-15.75-25.38-12.92-32.08-12.72-14.37.42-14.1,18.81-15,28.89a3.26,3.26,0,0,1,.1.73c.06,1.93-1.53,51.93-.83,56.78s-.91,3.52-3.08,4.59a33.06,33.06,0,0,0-14.39,16.67c-4.2,10.5,10.43,11.27,11.54,11.6s32.34.35,36.52-1.06,14.09-5.09,15.23-13.21,3.55-51.67,3.55-51.67S222.84,460.07,218.75,452.46Z"/><path class="cls-1" d="M93.12,463.47c-11.76-16.27-13.62-31.12-16.94-77.58-.59-8.2-.35-8.32,1.11-14.38,1.3-5.42,8.13-16.08,10-19.91C92.45,340.67,94.77,335,94.77,335H215.11l6,10c4.5,7.49,5.58,9.63,7.74,13.27,1,1.74,3.94,5.73,4.42,8.85,2.21,14.38.82,27.74,1.11,38.72,1.11,43.14-13.27,58.53-14.38,59.73-.06.07-17.58,14.85-26.62,18.86-6.92,3.07-21.07,4-23.34,4.07s-27.88-.28-27.88-.28-21.05-2.27-29.52-7C105.49,477.28,99.41,472.17,93.12,463.47Z"/><path class="cls-1" d="M234.76,466.68c-1.26-3.25-.27-5.5,1.51-6.69a13.74,13.74,0,0,0,3.58-3c.58-.86.07-2.95-1.06-4.75-.73-1.17-3.47-5.95-5.53-8.85-5.41-10.53-11.11-23.35-15.49-34.29-6.64-16.59-11.05-50.08-3.32-61.95,1.18-1.81,5.53-5.53,5.53-5.53s5.53,10,18.81,34.29c16.11,29.54,28.08,51.14,32.08,70.8s2.3,23.39.23,26.25-8.38,9-12.52,8.89-8-4.85-9.5-8.08-3.1-7-3.1-7-3.74,2.48-5,2.55S236,469.93,234.76,466.68Z"/><path class="cls-2" d="M159.66,433.29s-9.54,12-23.85,14.21-30.85-3-35.94-14.21-9.22-44.31,10.5-57.35,38.8-3.82,42.3,0,12.4,14,12.09,28.31S162.84,426.72,159.66,433.29Z"/><path class="cls-3" d="M278.39,164.43c-18.07-32.73-48.8-51.3-76.7-57.9,5.54-20,12.36-46,13.67-57.83,2.29-20.56,6.29-36.12-4.57-43.91s-19.71-4.45-22.14,0S173.5,85.56,173.57,93.25a81.15,81.15,0,0,1-1,10c-6.33-.11-12.88.11-19.53.62a88.09,88.09,0,0,1-1-10.63c.07-7.69-12.65-84-15.08-88.46s-11.29-7.78-22.14,0S108,28.13,110.24,48.7c1.35,12.11,8.44,39.07,14,59.18a208.34,208.34,0,0,0-33.36,9.5C60.11,129.23,31.16,174.07,30,195.93S15.19,277.07,67.35,320.42c0,0,15,15.56,36.19,20.75s101,9.63,128.44-5.93,45.66-30.38,53.83-60.39S298.44,200.74,278.39,164.43Z"/><circle class="cls-4" cx="74.31" cy="211.12" r="13.48"/><circle class="cls-4" cx="187.04" cy="211.12" r="13.48"/><ellipse class="cls-5" cx="74.03" cy="232.88" rx="13.48" ry="6.74"/><ellipse class="cls-5" cx="187.78" cy="232.88" rx="13.48" ry="6.74"/><path class="cls-6" d="M85.67,238.43s-7.26,7.55-3.2,14,11.78,10.34,22.35,11.74,46.72,3.07,58.1-2,17.88-16.21,13-23.76-28.85-16.77-44.69-15.93S93.79,229.49,85.67,238.43Z"/><path class="cls-4" d="M121.78,220.63s0,6.46,4.14,9.82,10.68,3.09,13.51,0,4.8-11.26,3.05-13.77S120.91,211.93,121.78,220.63Z"/><path class="cls-4" d="M161.08,245.11a1.62,1.62,0,0,0-1.89-.35c-2,.62-14.18,2.22-17,.16-3.34-2.49-7.16-9.39-7.28-14.9,0,0,0-.09,0-.13s0-.11,0-.16,0-.1,0-.16,0-.1,0-.14l-.07-.14-.07-.13-.1-.12-.1-.12-.12-.1-.12-.1-.13-.08-.14-.07-.15,0-.15,0-.16,0-.14,0h-.07l-.14,0-.16,0-.15,0-.15.05-.14.07-.13.08-.12.1-.12.1-.1.12-.1.12-.07.13-.07.14s0,.1,0,.14a1.54,1.54,0,0,0,0,.16c0,.05,0,.1,0,.16s0,.09,0,.13c-.12,5.51-3.94,12.41-7.28,14.9-2.78,2.07-14.95.46-17-.16a1.62,1.62,0,0,0-1.81,2.65c.7.65,6.8,1.75,12.36,1.75,3.46,0,6.71-.42,8.34-1.64,2.57-1.91,5.29-5.75,7-10,1.67,4.26,4.39,8.1,7,10,1.63,1.21,4.88,1.64,8.34,1.64,5.56,0,11.66-1.1,12.36-1.75A1.62,1.62,0,0,0,161.08,245.11Z"/></g></g></svg>