<svg id="圖層_1" data-name="圖層 1" xmlns="http://www.w3.org/2000/svg" viewBox="0 0 97 124"><defs><style>.cls-1{fill:#535c58;}.cls-2{fill:#253841;}.cls-3{fill:#ba805b;}.cls-4{fill:#e1a565;}.cls-5{fill:#4e556f;}.cls-6{fill:#55778f;}.cls-12,.cls-7{fill:#82695e;}.cls-8{fill:#e1d6c0;}.cls-9{fill:#2d1230;}.cls-10{fill:#fff;}.cls-11{fill:#f4c9e1;}.cls-12{font-size:15.39px;font-family:LiGothicMed, Apple LiGothic;}</style></defs><title>roleStep3</title><path class="cls-1" d="M22.62,89S17.07,100,21.35,105.66s15.78,15.77,25,14.65,25.31,3.38,29.92-5.07S83.81,91,81.83,86.51,26.2,82.94,22.62,89Z"/><polygon class="cls-2" points="80.67 36.6 80.67 79.78 81.8 80.8 82.93 36.6 80.67 36.6"/><polygon class="cls-2" points="19.47 44.53 20.6 84.2 22.15 81.55 21.74 44.53 19.47 44.53"/><path class="cls-2" d="M20.6,100.06s6.8,6.8,11.33,7.93,27.2,3.4,32.87,1.13,15.87-7.93,17-11.33,1.13-14.73,0-17-17-7.93-30.6-6.8S26.27,77.4,24,79.66s-3.4,3.4-3.4,4.53Z"/><path class="cls-3" d="M62,15.63s-4,1.7-5.67-3.4C55,8.36,52.34,6,55.74,6s10.2,2.27,13.6,3.4,13.6,1.13,15.87,1.13,5.67,0,6.8,2.27v3.4S67.63,17.9,62,15.63Z"/><path class="cls-3" d="M33.07,35.47c-1.13,0-17,1.13-19.27,1.13s-4.53,2.27-3.4,4.53,6.8,5.67,11.33,6.8,6.8,1.13,7.93,0-4.53-3.4-4.53-3.4a2.48,2.48,0,0,1,3.4-1.13c2.27,1.13,5.67,1.13,5.67,0S33.07,35.47,33.07,35.47Z"/><path class="cls-4" d="M8.14,41.13V17.33s2.27-3.4,9.07-4.53,66.86,1.13,74.8,0V37.73a1.11,1.11,0,0,1-1.13,1.13c-1.13,0-68.54-3.67-75.93,0C13.33,39.66,10.4,42.26,8.14,41.13Z"/><path class="cls-5" d="M65.42,96s13.07-5,14.26-7.43l2.38-5s1.19,11.14,0,13.62-5.94,6.19-10.69,8.67l-7.13,3.71S64.23,97.25,65.42,96Z"/><path class="cls-6" d="M35.34,97.88V108.3a30.75,30.75,0,0,0,9.07,1.16c5.67,0,18.13,1.16,18.13,0V96.72s-23.8,1.16-27.2,0Z"/><path class="cls-5" d="M20.52,86.46s7.32,9.92,12.2,9.92v11.15s-12.2-5-12.2-7.44Z"/><path class="cls-7" d="M45.64,69.08s-2.4,4.21-3,5.36a18,18,0,0,0-2.05,5c-.28,1.8-.2,2.18,0,2.43s.8.78,1.18.75.7-.48.83-.78.25-.65.25-.65a1.8,1.8,0,0,0,.47.21c.12,0,.45,0,.55-.27a.47.47,0,0,0-.17-.6,1.25,1.25,0,0,1-.34-.25c-.06-.08,0-.24.13-.41s.66-1,.66-1,.1,0,.13.18a9.91,9.91,0,0,0,.69,1.56c.14.19.25.2.25.38s-.28,4.72-.23,5.16-.09.32-.29.41A3,3,0,0,0,43.33,88c-.41.94.92,1.05,1,1.09a24.42,24.42,0,0,0,3.32,0c.38-.12,1.29-.43,1.42-1.16s.46-4.69.46-4.69a.19.19,0,0,1,.19-.21l2.54,0a.18.18,0,0,1,.14.16c0,.13.35,4.55.39,4.71A1.7,1.7,0,0,0,53.95,89a18.23,18.23,0,0,0,3.67.12s.89-.24.89-.71a1.24,1.24,0,0,0-.32-1,8.24,8.24,0,0,0-1.24-1,1,1,0,0,1,0-.4c0-.29-.18-5.25-.18-5.25s.28-.44.43-.76a6.2,6.2,0,0,0,.48-1.22c0-.18.13-.15.16-.07s.78,1.21.85,1.28.18.15.1.23-.54.41-.56.59c0,0-.09.51.41.52s.51-.21.51-.21.09,0,.13.18.53,1.22.86,1.28a1.62,1.62,0,0,0,1.41-.82,4.55,4.55,0,0,0,.06-2,28.82,28.82,0,0,0-2.75-6.58,22.08,22.08,0,0,1-2.08-3.85l-.15-.31Z"/><path class="cls-8" d="M48,80a3.85,3.85,0,0,0,2.16,1.29c1.3.2,2.79-.27,3.26-1.29s.84-4-1-5.19a3.27,3.27,0,0,0-3.83,0,3.74,3.74,0,0,0-1.09,2.56A6.19,6.19,0,0,0,48,80Z"/><path class="cls-7" d="M61.37,53.77a10.43,10.43,0,0,0-1.78-2.36,1,1,0,0,0,.5-1.41A1.44,1.44,0,0,0,58,49.37a.81.81,0,0,0-.41.48,10.67,10.67,0,0,0-4-1.46,19.81,19.81,0,0,0-9.15,1.14,5.12,5.12,0,0,0-.47.21.89.89,0,0,0-.37-.37,1.44,1.44,0,0,0-2.08.63A1,1,0,0,0,42,51.32c-1.64,1.67-2.86,4-2.93,5.29-.1,2-1.34,7.31,3.36,11.22a7.57,7.57,0,0,0,3.26,1.87c1.9.47,9.08.87,11.56-.53S61.3,66.43,62,63.72,63.17,57,61.37,53.77Z"/><circle class="cls-9" cx="45.09" cy="58.18" r="1.35"/><circle class="cls-9" cx="56.35" cy="58.18" r="1.35"/><path class="cls-10" d="M46.22,60.91s-.73.75-.32,1.4a3,3,0,0,0,2.23,1.17c1.06.14,4.67.31,5.81-.2s1.79-1.62,1.3-2.37-2.88-1.68-4.47-1.59S47,60,46.22,60.91Z"/><path class="cls-9" d="M49.83,59.13a1.4,1.4,0,0,0,.41,1,1.06,1.06,0,0,0,1.35,0,1.6,1.6,0,0,0,.31-1.38C51.72,58.49,49.74,58.26,49.83,59.13Z"/><rect class="cls-11" x="11" y="12" width="17" height="28" rx="0.77" ry="0.77" transform="translate(-4.74 4.35) rotate(-11.37)"/><text class="cls-12" transform="matrix(1, 0, 0, 1, 10.32, 31.66)">３選擇眼睛</text></svg>