<svg id="圖層_1" data-name="圖層 1" xmlns="http://www.w3.org/2000/svg" viewBox="0 0 97 124"><defs><style>.cls-1{fill:#535c58;}.cls-2{fill:#253841;}.cls-3{fill:#ba805b;}.cls-4{fill:#e1a565;}.cls-5{fill:#4e556f;}.cls-6{fill:#55778f;}.cls-7{fill:#e2a665;}.cls-8{fill:#bb815b;}.cls-9{fill:#2d1230;}.cls-10{fill:#e1ba95;}.cls-11{fill:#fff;}.cls-12{fill:#f4c9e1;}.cls-13{font-size:15.39px;fill:#82695e;font-family:LiGothicMed, Apple LiGothic;}</style></defs><title>roleStep2</title><path class="cls-1" d="M22.79,90s-5.26,10.51-1.21,15.86,15,15,23.71,13.9S69.3,123,73.67,115,80.84,92,79,87.73,26.18,84.34,22.79,90Z"/><polygon class="cls-2" points="77.87 36.49 77.87 77.46 78.94 78.42 80.02 36.49 77.87 36.49"/><polygon class="cls-2" points="19.8 44.02 20.88 81.65 22.35 79.14 21.95 44.02 19.8 44.02"/><path class="cls-2" d="M20.88,96.71s6.45,6.45,10.75,7.53,25.81,3.23,31.18,1.08,15.05-7.53,16.13-10.75,1.08-14,0-16.13S62.81,70.9,49.91,72,26.25,75.2,24.1,77.35s-3.23,3.23-3.23,4.3Z"/><path class="cls-3" d="M60.12,16.6s-3.76,1.61-5.38-3.23C53.52,9.69,51,7.46,54.21,7.46s9.68,2.15,12.9,3.23S80,11.76,82.17,11.76s5.38,0,6.45,2.15v3.23S65.5,18.75,60.12,16.6Z"/><path class="cls-3" d="M32.7,35.41c-1.08,0-16.13,1.08-18.28,1.08s-4.3,2.15-3.23,4.3S17.65,46.17,22,47.24s6.45,1.08,7.53,0S25.18,44,25.18,44a2.35,2.35,0,0,1,3.23-1.08c2.15,1.08,5.38,1.08,5.38,0S32.7,35.41,32.7,35.41Z"/><path class="cls-4" d="M9,40.79V18.21s2.15-3.23,8.6-4.3,63.44,1.08,71,0V37.56a1.05,1.05,0,0,1-1.08,1.08c-1.08,0-65-3.48-72,0C14,39.4,11.2,41.87,9,40.79Z"/><path class="cls-5" d="M63.4,92.86s12.4-4.7,13.53-7l2.25-4.7s1.13,10.57,0,12.92S73.55,99.91,69,102.26l-6.76,3.52S62.27,94,63.4,92.86Z"/><path class="cls-6" d="M34.85,94.64v9.89a29.17,29.17,0,0,0,8.6,1.1c5.38,0,17.2,1.1,17.2,0V93.54s-22.58,1.1-25.81,0Z"/><path class="cls-5" d="M20.79,83.8s6.95,9.41,11.58,9.41v10.58s-11.58-4.7-11.58-7.06Z"/><path class="cls-7" d="M45.91,66.27s-2.61,4.57-3.27,5.82a19.58,19.58,0,0,0-2.23,5.47c-.3,2-.22,2.37,0,2.64s.87.84,1.28.82.76-.52.9-.84.27-.71.27-.71a2,2,0,0,0,.51.23c.13,0,.49,0,.6-.29a.51.51,0,0,0-.18-.65,1.36,1.36,0,0,1-.37-.28c-.06-.08,0-.27.14-.45s.71-1.14.71-1.14.11,0,.14.19a10.77,10.77,0,0,0,.75,1.69c.15.21.27.22.27.41s-.3,5.13-.24,5.61-.1.34-.32.44a3.27,3.27,0,0,0-1.47,1.61c-.44,1,1,1.14,1.11,1.18a26.53,26.53,0,0,0,3.61,0c.42-.13,1.41-.46,1.54-1.26s.5-5.09.5-5.09a.2.2,0,0,1,.21-.22l2.76,0a.2.2,0,0,1,.15.17c0,.14.39,4.95.42,5.11a1.84,1.84,0,0,0,1.24,1.2,19.8,19.8,0,0,0,4,.13s1-.26,1-.77a1.35,1.35,0,0,0-.35-1.09,9,9,0,0,0-1.35-1.05,1,1,0,0,1,0-.44c0-.32-.2-5.7-.2-5.7s.3-.48.47-.82A6.73,6.73,0,0,0,59,76.81c0-.2.14-.17.17-.08S60,78,60,78.13s.2.16.11.25-.59.44-.61.64c0,0-.1.55.44.56s.56-.22.56-.22.1,0,.14.2.58,1.33.94,1.39a1.76,1.76,0,0,0,1.53-.89,5,5,0,0,0,.06-2.14,31.31,31.31,0,0,0-3-7.14A24,24,0,0,1,58,66.61l-.16-.34Z"/><path class="cls-8" d="M48.51,78.16a4.19,4.19,0,0,0,2.35,1.4c1.41.22,3-.29,3.54-1.4s.91-4.36-1-5.64a3.56,3.56,0,0,0-4.16,0A4.06,4.06,0,0,0,48,75.3,6.72,6.72,0,0,0,48.51,78.16Z"/><path class="cls-7" d="M62.67,50A11.32,11.32,0,0,0,61,47.63,22.09,22.09,0,0,0,61.33,43c-.26-.6-1.59-.73-2.16-.4s-2.18,1.47-2.93,2a10.41,10.41,0,0,0-1.73-.42,19.68,19.68,0,0,0-7.07.43c-.75-.53-2.49-1.75-2.94-2s-1.9-.2-2.16.4a16.81,16.81,0,0,0,.27,3.89c-2,1.83-3.5,4.64-3.58,6.22-.11,2.14-1.41,7.95,3.55,12.19a8,8,0,0,0,3.45,2c2,.51,9.62.94,12.23-.58s4.35-3,5.13-5.91S64.58,53.58,62.67,50Z"/><circle class="cls-9" cx="45.27" cy="56.44" r="1.46"/><circle class="cls-9" cx="57.51" cy="56.44" r="1.46"/><ellipse class="cls-10" cx="45.24" cy="58.8" rx="1.46" ry="0.73"/><ellipse class="cls-10" cx="57.59" cy="58.8" rx="1.46" ry="0.73"/><path class="cls-11" d="M46.5,59.4s-.79.82-.35,1.52a3.21,3.21,0,0,0,2.43,1.27c1.15.15,5.07.33,6.31-.21s1.94-1.76,1.41-2.58-3.13-1.82-4.85-1.73S47.38,58.43,46.5,59.4Z"/><path class="cls-9" d="M50.42,57.47a1.52,1.52,0,0,0,.45,1.07,1.15,1.15,0,0,0,1.47,0A1.73,1.73,0,0,0,52.67,57C52.48,56.77,50.33,56.53,50.42,57.47Z"/><path class="cls-9" d="M54.69,60.13a.18.18,0,0,0-.21,0,3.92,3.92,0,0,1-1.84,0,2.43,2.43,0,0,1-.79-1.62h0v-.07h-.31v.07h0a2.43,2.43,0,0,1-.79,1.62,3.91,3.91,0,0,1-1.84,0,.18.18,0,0,0-.2.29,3.93,3.93,0,0,0,1.34.19,1.69,1.69,0,0,0,.91-.18,2.61,2.61,0,0,0,.76-1.09,2.61,2.61,0,0,0,.76,1.09,1.69,1.69,0,0,0,.91.18,3.93,3.93,0,0,0,1.34-.19A.18.18,0,0,0,54.69,60.13Z"/><rect class="cls-12" x="11" y="12" width="17" height="28" rx="0.77" ry="0.77" transform="translate(-4.74 4.35) rotate(-11.37)"/><text class="cls-13" transform="matrix(1, 0, 0, 1, 10.32, 31.66)">２選擇顏色</text></svg>