<svg id="圖層_1" data-name="圖層 1" xmlns="http://www.w3.org/2000/svg" xmlns:xlink="http://www.w3.org/1999/xlink" viewBox="0 0 726 546"><defs><style>.cls-1{fill:none;}.cls-2{clip-path:url(#clip-path);}.cls-3{clip-path:url(#clip-path-2);}.cls-4{fill:#dcc8a1;}.cls-5{fill:#cbbca5;}.cls-6{fill:#d1ba99;}.cls-7{fill:#ae3023;}.cls-8{fill:#d83720;}.cls-9{fill:#5993c7;}.cls-10{fill:#dd95bb;}.cls-11{fill:#0d9a6e;}.cls-12{fill:#eebf4b;}.cls-13{fill:#cda645;}.cls-14{fill:#373a2e;}.cls-15{fill:#d0ad52;}.cls-16{fill:#ecc45b;}.cls-17{fill:#fff;}.cls-18{fill:#2a0e2d;}.cls-19{fill:#cd4c52;}.cls-20{fill:#7b2c4b;}.cls-21{fill:#dc8cb8;}.cls-22{fill:#8b8486;}.cls-23{fill:#a0989a;}.cls-24{fill:#4f494b;}.cls-25{fill:#477f37;}.cls-26{fill:#3a4564;}.cls-27{fill:#42332d;}</style><clipPath id="clip-path"><path class="cls-1" d="M726.86,99,716.32,477.7c-.07.54-7.28,53.09-43.59,53.62C633,531.9,81.7,524,76.47,524c-.7-.06-69.09-7.23-69.73-51.41C6,424.79,8.86,73.05,8.89,69.41c0-.26-.19-26.87,17-42.48,8.08-7.34,18.82-11.14,32-11.33a81.69,81.69,0,0,1,10.19.51l597-.66h.47l.46-.11c.23-.07,23-5.27,40.53,9.47C722.27,38,729.1,63,726.86,99Z"/></clipPath><clipPath id="clip-path-2"><rect class="cls-1" x="-8.33" y="-2.13" width="750.51" height="551.13" transform="translate(-3.97 5.41) rotate(-0.84)"/></clipPath></defs><title>act_v1</title><g class="cls-2"><g class="cls-3"><rect class="cls-4" x="-45.54" y="-35.49" width="842.2" height="576.13" transform="translate(-3.66 5.53) rotate(-0.84)"/><path class="cls-5" d="M-73.5,147.9S43.07,130,101.74,147.36s260.42,26.57,277.2,14.17,204.54-57.7,227.15-58,187,33.72,187,33.72l-1.34-91.14S629.57,34.27,580.41,22.84,214.1-28.52,197.09-32.32-68.34-14.25-68.34-14.25Z"/><path class="cls-6" d="M794.59,236.8S705,294.64,686.12,293,334.61,351,312,353.16,64.82,328.52,47.84,326.89s-92.92-40.1-92.92-40.1l.83,56.52s252.72,15.14,270,33.73S612,378.92,634.81,391.77s166,8.88,166,8.88Z"/><path class="cls-5" d="M-50.32,443.27l232.6,23.36s75.35,19.5,117.34,39.48,216.56-19.66,216.56-19.66,285.76,45.25,285.88,53.48-96.47,5.54-96.47,5.54l-750.44,11Z"/><path class="cls-7" d="M373.74,251.7s8.93-.13,11.86-3.2,19.19-10.88,16.52,10.36-23.23,39.7-29.18,39.79-36.16-29.75-33.31-38.88,8.7-15.26,17.67-12.37S366.32,253.33,373.74,251.7Z"/><path class="cls-8" d="M373.68,247.94s8.93-.14,11.86-3.21,19.19-10.88,16.53,10.36-23.23,39.7-29.19,39.79S336.73,265.13,339.57,256s8.71-15.27,17.68-12.38S366.27,249.56,373.68,247.94Z"/><path class="cls-9" d="M414.06,219.1s19-15.21,18.91-19.47-.18-12.8-10.88-14.78-14.68,17.28-14.61,21.55S405.53,219.23,414.06,219.1Z"/><path class="cls-10" d="M469.76,235.35s-4.05,15,6.65,17,14.8-8.75,21.2-8.85,8.41-8.65,1.91-14.95S478.07,220.3,469.76,235.35Z"/><path class="cls-11" d="M479.14,292.81s.09,6.39,4.39,8.47,23.49,1.78,25.53-4.65-2.32-12.76-8.75-14.8S479,282.14,479.14,292.81Z"/><path class="cls-12" d="M543.05,287.6s2.26,8.5,8.69,10.54,8.66,8.41,10.88,14.77,25.69,6,27.69-2.53-4.51-17-15.27-23.25S545,272.64,543.05,287.6Z"/><path class="cls-7" d="M607.47,229.21s.22,14.93,6.68,19.1,8.69,10.54,15,6.18,4-17.13-2.47-23.43S611.58,218.48,607.47,229.21Z"/><path class="cls-8" d="M607.44,227.32s.22,14.93,6.68,19.1,8.69,10.54,15,6.18,4-17.12-2.47-23.42S611.55,216.6,607.44,227.32Z"/><path class="cls-9" d="M549.43,140.33c1.92.92,36.34,5.86,38.26-9.1s-2.51-25.56-8.94-27.6-15-1.91-16.93,8.78-10.54,8.69-12.61,13S540.83,136.19,549.43,140.33Z"/><path class="cls-10" d="M571.67,56.81c1.53,1.49,17.09,1.88,21.26-4.58s4.08-12.86-4.48-14.86-17,6.64-19,10.94S569.5,54.71,571.67,56.81Z"/><path class="cls-12" d="M442.11,95a15.14,15.14,0,0,0,8.71,12.67c8.6,4.14,23.56,6.06,29.86-.44s4.08-12.85-.22-14.92-17,2.38-21.36-1.82S442,84.31,442.11,95Z"/><path class="cls-12" d="M687.59,442.44S676.7,447.82,675,458.16s2.23,25.07,13.23,26.77,18.22-4.25,19.05-9.42-10.28-13.95-6.73-20.46S701.2,435.72,687.59,442.44Z"/><path class="cls-11" d="M664.14,144.16A43.74,43.74,0,0,0,675,154.67c6.46,4.17,19.29,6.11,21.24-6.71s-2.36-14.9-10.92-16.91S661.85,133.53,664.14,144.16Z"/><path class="cls-12" d="M608.31,452.3s.16,10.67,8.69,10.54,23.24-15.27,21-23.77-15.12-12.58-21.42-6.09S604,446,608.31,452.3Z"/><path class="cls-10" d="M357.43,138.87s4.39,8.47,10.78,8.38,6.46,4.17,12.89,6.21S396,149,391.52,136.24s-21.52-12.48-27.85-8.12A13.75,13.75,0,0,0,357.43,138.87Z"/><path class="cls-9" d="M435.38,42.91S431.3,55.77,442,55.61,463,38.24,460.81,31.87s-6.55-10.56-12.92-8.34S443.81,36.39,435.38,42.91Z"/><path class="cls-9" d="M36.53,214.58s-4.07,12.86,6.59,12.7S64.2,209.91,62,203.54,55.42,193,49.05,195.2,45,208.06,36.53,214.58Z"/><path class="cls-8" d="M647.4,391.5s-4,15,8.75,14.8,19.2-.28,25.56-2.51,12.64-10.85,8.29-17.18-21.49-10.35-30-6A35.62,35.62,0,0,0,647.4,391.5Z"/><path class="cls-7" d="M95.32,263.92s-4,15,8.75,14.8,19.19-.28,25.56-2.5,12.64-10.86,8.28-17.19-21.49-10.35-29.95-6A35.5,35.5,0,0,0,95.32,263.92Z"/><path class="cls-8" d="M95.29,262s-4.05,15,8.75,14.8,19.19-.28,25.56-2.51,12.64-10.85,8.28-17.18-21.48-10.36-29.95-6A35.5,35.5,0,0,0,95.29,262Z"/><path class="cls-12" d="M203.75,132.59s-4.2,4.33.22,14.93,8.72,12.67,19.19-.28,16.78-19.44,12.42-25.78S214.23,119.64,203.75,132.59Z"/><path class="cls-11" d="M236.83,206.77s-2,8.56,6.56,10.57,23.39-4.61,25.37-15.31-6.58-12.7-12.95-10.47A102.93,102.93,0,0,0,241,198.18C236.74,200.37,236.83,206.77,236.83,206.77Z"/><path class="cls-12" d="M307.43,220.67s2.29,10.63,8.66,8.4,19-10.94,16.74-21.58-15-4-17.06.25S305.2,214.3,307.43,220.67Z"/><path class="cls-10" d="M592.41,317.86s-2,8.56,2.32,12.76,10.7,2,19-10.94,16.87-13.05,16.72-23.71-2.36-14.9-10.89-14.77-19,10.94-21.07,17.37S594.48,313.56,592.41,317.86Z"/><path class="cls-10" d="M660.46,338.15s-2,8.57,2.32,12.77,10.69,2,19-10.95,16.87-13,16.71-23.7-2.35-14.9-10.88-14.78-19,10.95-21.08,17.38S662.53,333.86,660.46,338.15Z"/><path class="cls-11" d="M25.6,289.19A43.74,43.74,0,0,0,36.42,299.7c6.46,4.17,19.29,6.11,21.24-6.71s-2.35-14.9-10.92-16.91S23.32,278.56,25.6,289.19Z"/><path class="cls-10" d="M19.32,434.23s-2,8.56,2.32,12.76,10.69,2,19-10.94S57.55,423,57.39,412.34,55,397.44,46.51,397.57s-19,10.94-21.08,17.37S21.39,429.93,19.32,434.23Z"/><path class="cls-8" d="M127.16,146.52s.16,10.66,8.66,8.4,10.51-10.82,8.31-15S127,138,127.16,146.52Z"/><path class="cls-8" d="M139.05,229.53s-4.08,12.86-1.89,17.09,13,10.48,19.2-.28,4.11-10.72,8.31-15.05,1.91-15-8.75-14.8S139.05,229.53,139.05,229.53Z"/><path class="cls-10" d="M216.48,273.19s-6.28,8.63.18,12.8,21.3-2.45,25.44-11,4.05-15-4.52-17S216.48,273.19,216.48,273.19Z"/><path class="cls-12" d="M178,459.1s-6.43-2-10.57,6.55-4,17.12,6.65,17,15.08,10.44,21.42,6.08S188.72,461.07,178,459.1Z"/><path class="cls-10" d="M304,425.49s-8.37,10.79-6.11,19.29,13,14.74,17.25,12.55,12.51-19.39,8.15-25.72S308.24,421.16,304,425.49Z"/><path class="cls-11" d="M352.8,405.58s-1.91,15,6.59,12.7,23.3-11,21-21.64-8.68-10.54-17.12-4S352.8,405.58,352.8,405.58Z"/><path class="cls-11" d="M152.33,408.52s-10.44,15.08-14.61,21.54-6.21,12.89,4.48,14.87,27.63-6.8,29.58-19.63S173.5,397.54,152.33,408.52Z"/><path class="cls-11" d="M15.35,61.93S4.91,77,.74,83.47-5.47,96.36,5.22,98.34s27.63-6.8,29.58-19.63S36.52,51,15.35,61.93Z"/><path class="cls-13" d="M132.11,338.42s.19,12.8,13,14.74a41.78,41.78,0,0,0,29.77-6.83c6.33-4.36-.28-19.2-6.71-21.23s-21.3,2.44-29.77,6.83S132.11,338.42,132.11,338.42Z"/><path class="cls-12" d="M132.08,336.54s.19,12.79,13,14.74a41.81,41.81,0,0,0,29.76-6.84c6.33-4.36-.28-19.19-6.71-21.23s-21.3,2.45-29.76,6.84S132.08,336.54,132.08,336.54Z"/><path class="cls-11" d="M501,185.83s12.86,4.08,14.87-4.48-6.59-12.71-15.12-12.58-10.57,6.55-8.37,10.79S490.37,186,501,185.83Z"/><path class="cls-9" d="M542.05,364.41s-6.28,8.62.21,14.93.13,8.53,4.46,12.73,27.63-6.8,27.5-15.33-10.85-12.64-17.28-14.68S542.05,364.41,542.05,364.41Z"/><path class="cls-10" d="M435.12,491.83s.07,4.27,6.5,6.3,21.26-4.57,21.2-8.84-2.29-10.63-8.69-10.54S435,485.43,435.12,491.83Z"/><path class="cls-11" d="M551.62,462.71s3.63,11.89,14,5.67,16.54-13.47,13.43-18.64-10.88-9.29-15.53-8.25-2.58,10.35-5.68,14S551.09,456,551.62,462.71Z"/><path class="cls-9" d="M341.32,495.34s10.85,12.64,17.25,12.54,21.2-8.84,18.91-19.47-12.86-4.08-15-4.05-6.49-6.3-12.89-6.21S334.83,489,341.32,495.34Z"/><path class="cls-9" d="M419.26,413.17s10.85,12.64,17.24,12.55,21.21-8.85,18.92-19.48-12.86-4.08-15-4-6.5-6.31-12.89-6.22S412.76,406.87,419.26,413.17Z"/><path class="cls-8" d="M226.25,503.42s6.52,8.44,15.12,12.58,21.35,1.82,19.1-6.68S241,492.54,236.76,492.6,221.83,492.82,226.25,503.42Z"/><path class="cls-14" d="M524.83,1.45a460.84,460.84,0,0,1-5.54,165.23c-.32,1.48,2,2.08,2.28.59A462.72,462.72,0,0,0,527.18,1.41c-.22-1.47-2.57-1.46-2.35,0Z"/><path class="cls-14" d="M145.29,232.88A729.94,729.94,0,0,1,83.2-21.49c-.14-2.39-3.87-2.33-3.73.07a733,733,0,0,0,62.24,255.36c1,2.16,4.56,1.13,3.58-1.06Z"/><path class="cls-15" d="M591.87,242.87c-1.75,2.24-1.3,4.23.06,5.57a12.81,12.81,0,0,1,2.62,3.15c.35.8-.51,2.32-1.86,3.46-.87.75-4.24,3.83-6.63,5.61-6.84,6.95-14.39,15.62-20.4,23.13-9.1,11.4-19.46,36.48-14.84,47.52a39.32,39.32,0,0,0,3.88,5.6s6.84-6.47,23.35-22.36c20-19.28,34.86-33.34,42.2-47.73s6.53-17.7,5.24-20.41-5.76-8.93-9.46-9.84-8,1.93-10,4.09-4.11,4.75-4.11,4.75-2.86-2.8-4-3.15S593.62,240.63,591.87,242.87Z"/><path class="cls-16" d="M446,398.27a6.75,6.75,0,0,0,2-2c1.25-1.64,24.34-27.45,24.34-27.45a4.68,4.68,0,0,1,4.84-.68c6,2.87,6.83,3.77,9.31,8,4,6.89,5.74,15.44,1.07,22.45,0,0-2.63,2.37-2.65,2.39-.59.65-22.19,22.95-23,23.61a11.86,11.86,0,0,1-11.07.85c-5.73-2.32-20.3-15.73-20.3-15.73s-3.69-5.24-1.65-7.8,3.18-3.37,6.17-4S446,398.27,446,398.27Z"/><path class="cls-15" d="M547.52,377.58c-10.8-6.19-18.55,1.5-22,4-7.39,5.37.15,16,3.71,22.27a2.74,2.74,0,0,1,.35.39c.8,1.11,20.09,30.93,22.4,33.52s.94,2.38.23,3.78a22.41,22.41,0,0,0-.87,14.89c2,7.64,10,2.87,10.74,2.67s17.15-11.33,18.78-13.64,5.37-8,2.7-13.16-18.91-31.5-18.91-31.5S552.73,380.57,547.52,377.58Z"/><path class="cls-16" d="M474.53,396.08c-7.63-10.23-8.95-19.65-11.49-49.14-.45-5.21-.31-5.29.57-9.15.78-3.46,5-10.3,6.14-12.75,3.21-7,4.63-10.61,4.63-10.61l76.47-1.12s1.75,2.8,3.89,6.27c2.93,4.72,3.64,6.06,5,8.36.67,1.09,2.56,3.6,2.89,5.58,1.54,9.12.79,17.62,1.07,24.6,1.1,27.4-7.89,37.32-8.59,38.09,0,0-11,9.6-16.74,12.23-4.37,2-13.35,2.74-14.79,2.8s-17.72.09-17.72.09-13.4-1.25-18.83-4.15A36.37,36.37,0,0,1,474.53,396.08Z"/><path class="cls-15" d="M597.14,195.86a82.76,82.76,0,0,0-4.68-7.59c.07-.77,0-1.59,0-2.27a39.55,39.55,0,0,0-.33-4.62,4,4,0,0,0,.24-1.31,189.61,189.61,0,0,0-3.58-40.55c0-.16-.07-.3-.11-.44-.12-2.07-.93-3.75-3.08-4.47-2.86-1-6.07,1-8,3l-.41.43a35,35,0,0,0-3.94,2.35,24.19,24.19,0,0,0-5.16,5.29c-4.91,3.47-12.59,9.15-16.49,12.06a70.16,70.16,0,0,0-12.12-2.85c-14.51-2-32.71-.48-49.38,3.79-5.22-3.66-17.26-12-20.61-14a20.5,20.5,0,0,0-2.45-2,34.89,34.89,0,0,0-4-2.24l-.42-.41c-2-1.9-5.28-3.82-8.12-2.78-2.13.79-2.89,2.48-2.95,4.56,0,.14-.07.29-.1.44A190,190,0,0,0,449.06,183a4,4,0,0,0,.12.81c-9.81,12.43-16.65,27.43-17,36.59-.52,15.32-9.05,57,26.1,86.86,0,0,10.17,10.76,24.3,14.19S549.9,327.16,568,316s30.07-21.73,35.2-42.84S610.86,221.1,597.14,195.86Z"/><path class="cls-16" d="M593.37,195.14a80.8,80.8,0,0,0-4.68-7.4,20.64,20.64,0,0,0,0-2.22,37.84,37.84,0,0,0-.32-4.51,3.84,3.84,0,0,0,.23-1.28,180.82,180.82,0,0,0-3.56-39.59c0-.15-.07-.29-.11-.43-.12-2-.93-3.66-3.08-4.36-2.86-.94-6.07,1-8,2.94l-.41.41a36.22,36.22,0,0,0-3.94,2.31,23.6,23.6,0,0,0-5.16,5.16c-4.92,3.39-12.59,8.94-16.49,11.78a72.89,72.89,0,0,0-12.12-2.78c-14.51-2-32.71-.46-49.39,3.72-5.22-3.57-17.25-11.74-20.6-13.64a21.25,21.25,0,0,0-2.45-1.93,34.43,34.43,0,0,0-4-2.18l-.42-.4c-2-1.86-5.28-3.73-8.12-2.71a4.38,4.38,0,0,0-3,4.45c0,.14-.07.28-.1.43a181.87,181.87,0,0,0-2.4,39.68,4.49,4.49,0,0,0,.13.79c-9.81,12.14-16.66,26.79-17,35.73-.52,15-9.06,55.66,26.08,84.81,0,0,10.16,10.5,24.29,13.84s67.28,5.61,85.4-5.31,30.08-21.23,35.21-41.84S607.07,219.79,593.37,195.14Z"/><circle class="cls-17" cx="515.72" cy="212.56" r="16.43"/><circle class="cls-18" cx="512.74" cy="211.65" r="11.35"/><ellipse class="cls-18" cx="521.91" cy="224.52" rx="1.16" ry="2.11" transform="translate(32.2 512.58) rotate(-53.74)"/><ellipse class="cls-18" cx="524.49" cy="222.52" rx="1.16" ry="2.11" transform="translate(34.86 513.84) rotate(-53.74)"/><circle class="cls-17" cx="458.28" cy="213.4" r="16.43"/><circle class="cls-18" cx="461.23" cy="212.4" r="11.35"/><ellipse class="cls-18" cx="452.44" cy="225.53" rx="2.11" ry="1.16" transform="translate(-43.05 325.82) rotate(-37.94)"/><ellipse class="cls-18" cx="449.8" cy="223.61" rx="2.11" ry="1.16" transform="translate(-42.43 323.8) rotate(-37.94)"/><path class="cls-17" d="M523.3,239.41s5.43,5.48,2.51,10.26-8.57,7.75-16.34,8.89-34.39,2.77-42.82-.81S453.3,246,456.81,240.39s21.07-12.67,32.76-12.22S517.22,232.91,523.3,239.41Z"/><path class="cls-18" d="M498.57,223.85s.07,4.75-2.94,7.28-7.84,2.39-10,.14-3.66-8.24-2.4-10.11S499.12,217.43,498.57,223.85Z"/><ellipse class="cls-19" cx="445.8" cy="237.01" rx="10.23" ry="5.12" transform="translate(-3.43 6.56) rotate(-0.84)"/><ellipse class="cls-19" cx="532.07" cy="234.01" rx="10.23" ry="5.12" transform="translate(-3.37 7.82) rotate(-0.84)"/><path class="cls-18" d="M510.28,243.33a1.21,1.21,0,0,0-1.43-.24c-1.5.48-10.63,1.82-12.73.3-2.54-1.83-5.49-7-5.63-11.11a.36.36,0,0,0,0-.1.49.49,0,0,0,0-.12s0-.08,0-.11a.36.36,0,0,0,0-.11.54.54,0,0,0-.05-.11l-.06-.1-.07-.09-.08-.08-.09-.08-.09-.07-.1-.06-.11-.05-.11,0-.11,0h-.39l-.12,0-.12,0-.11,0-.1.06-.1.06-.09.07-.09.08-.07.09-.07.09a.47.47,0,0,0-.05.1l-.06.11,0,.11a.53.53,0,0,0,0,.12s0,.08,0,.12,0,.06,0,.1c0,4.14-2.82,9.36-5.3,11.27-2.06,1.58-11.22.51-12.73.06a1.22,1.22,0,0,0-1.34,2c.54.49,5.13,1.24,9.31,1.18,2.59,0,5-.39,6.24-1.32a18.06,18.06,0,0,0,5.12-7.6,18.14,18.14,0,0,0,5.34,7.45c1.24.89,3.69,1.17,6.28,1.13,4.18-.06,8.75-.95,9.27-1.45A1.22,1.22,0,0,0,510.28,243.33Z"/><path class="cls-15" d="M414.48,259c2.23,1.54,2.48,3.46,1.73,5a11.31,11.31,0,0,0-1.27,3.57c-.05.83,1.18,1.95,2.72,2.61,1,.43,4.91,2.29,7.56,3.24,8.18,4.38,17.52,10.12,25.14,15.24,11.57,7.76,28.61,27.54,28.13,38.79a36.62,36.62,0,0,1-1.58,6.12s-8-3.95-27.46-13.72c-23.6-11.86-41-20.46-52-31.42s-11.35-14.17-11.09-17,2.14-9.66,5.07-11.5,7.6-.48,10,.92,6.4,3.44,6.4,3.44c-.46-.72.28-3.62,1.15-4.24S412.24,257.48,414.48,259Z"/><path class="cls-16" d="M414.5,260.89c2.24,1.54,2.49,3.46,1.73,5.05a11.4,11.4,0,0,0-1.26,3.57c-.05.82,1.18,1.95,2.72,2.61,1,.43,4.91,2.28,7.56,3.23,8.18,4.38,17.52,10.12,25.14,15.24,11.57,7.77,28.61,27.54,28.13,38.79a36.52,36.52,0,0,1-1.58,6.13s-8-3.95-27.47-13.73c-23.59-11.86-41-20.45-52-31.41s-11.35-14.18-11.1-17,2.15-9.66,5.08-11.5,7.6-.48,10,.92,6.4,3.44,6.4,3.44c-.46-.72.29-3.61,1.16-4.24S412.27,259.36,414.5,260.89Z"/><path class="cls-20" d="M464.93,371.65s94.8,8,97.36,6.11S558.48,391,558.48,391l4.35,7.23L535.74,414l-2.18-4.21s-36,5.71-51.67-5.36l-3,3.34-21.52-22.3,8.34-9.07Z"/><path class="cls-21" d="M464.85,301.93S451,321,449.11,321s15.21,9.19,15.21,9.19-2.56,17.94-2.45,25.48A104.37,104.37,0,0,0,464,372.61s90.65,13.74,96.24,9.89,5-46.24,2.06-52.32c0,0,17.7-13.92,15.79-15.78s-6.2-5.09-6.2-5.09-9.7,12.86-30.88,14.12-64.11-2.83-64.11-2.83Z"/><path class="cls-14" d="M538.93,406.94v0c0-2.13-6.25-9.75-10.51-14.72a1.71,1.71,0,0,0,.86-.76c.89-1.84,3.23-5,4.62-7.82,14.1,1.47,25,2.37,26.07,1.72,3.11-1.93,4.23-11.37,4.23-11.37s-96.12-1.73-100.62-8.57l1.4,10s18.14,2.34,38.56,4.76a17.52,17.52,0,0,0-.52,4.14c-2.35.48-25.06,5.09-29.5,7.31-4.48-5.91-9.19-12-10.21-12.73l-1.55,1.9s6.31,6.42,11.64,13.11a6.91,6.91,0,0,0,.83,1.06c3,3.87,5.56,7.71,6.27,10.37l1.85-1.91s-2.29-3.11-5.29-7.11a.77.77,0,0,0,.25-.36c.84-2.26,18-6.69,26.48-8.76a2.64,2.64,0,0,0,.95.83,73.92,73.92,0,0,0,18.22,4.6l12.35,16.43-2,1.16s-1.24,1.59,1.28,1.71,26.48-14.68,26.6-16.88l-.68-.74Z"/><path class="cls-14" d="M446.47,398.3s-10.07-2.05-13.51-.9-5.3,3.06-5.24,6.83,17.34,26.13,26.73,24.1,11.2-7.7,11.2-7.7Z"/><path class="cls-14" d="M553.31,439.6s-3.23,4.53-2.76,12.88,2.6,8.56,7.19,8.37,28.69-11.37,26.73-24.77a17.67,17.67,0,0,0-4-9.24Z"/><path class="cls-22" d="M149.48,261.66c1.84,2.21,1.44,4.23.1,5.63a12.86,12.86,0,0,0-2.55,3.27c-.33.82.58,2.32,2,3.44.91.72,4.4,3.75,6.87,5.48,7.12,6.82,15,15.36,21.3,22.77,9.54,11.25,20.76,36.3,16.41,47.6a39.44,39.44,0,0,1-3.74,5.78s-7.12-6.35-24.28-21.92c-20.82-18.89-36.22-32.66-44.07-47s-7.13-17.7-5.91-20.48,5.56-9.2,9.28-10.23,8.17,1.71,10.25,3.84,4.3,4.67,4.3,4.67,2.81-2.92,3.94-3.3S147.65,259.45,149.48,261.66Z"/><path class="cls-23" d="M301.58,414.43a6.85,6.85,0,0,1-2.07-1.95c-1.3-1.62-25.42-27-25.42-27a4.72,4.72,0,0,0-4.91-.55c-6,3.09-6.78,4-9.17,8.39-3.87,7.08-5.35,15.78-.42,22.73l2.76,2.34c.61.63,23.11,22.54,24,23.18a12,12,0,0,0,11.22.53c5.72-2.51,20.06-16.5,20.06-16.5s3.57-5.41,1.44-7.93-3.32-3.31-6.36-3.83S301.58,414.43,301.58,414.43Z"/><path class="cls-22" d="M198.31,396.53c10.73-6.58,18.79,1,22.35,3.39,7.64,5.21.33,16.21-3.09,22.62a2.47,2.47,0,0,0-.34.41c-.78,1.14-19.39,31.86-21.65,34.54s-.88,2.44-.12,3.84a22.73,22.73,0,0,1,1.32,15c-1.81,7.78-10,3.2-10.78,3s-17.67-10.94-19.39-13.24-5.66-7.93-3.12-13.22,18.19-32.4,18.19-32.4S193.13,399.71,198.31,396.53Z"/><path class="cls-23" d="M272.64,413.06c7.41-10.56,8.47-20.13,10.16-50,.3-5.27.15-5.34-.85-9.23-.88-3.47-5.37-10.26-6.58-12.7-3.46-7-5-10.6-5-10.6L193,331.65l-3.75,6.45c-2.82,4.86-3.49,6.24-4.85,8.61-.64,1.12-2.48,3.71-2.76,5.73-1.29,9.26-.27,17.83-.35,24.89-.3,27.74,9.08,37.5,9.81,38.26,0,0,11.44,9.37,17.29,11.87,4.47,1.91,13.58,2.37,15,2.39s17.91-.44,17.91-.44,13.51-1.66,18.91-4.75A36.84,36.84,0,0,0,272.64,413.06Z"/><path class="cls-24" d="M275.55,207s42.33,103.56,54.76,84.6-14.77-76.13-25.16-85S252.65,157.26,275.55,207Z"/><path class="cls-22" d="M169.14,321.94s10,10.32,23.86,13.6,66.1,5.51,83.9-5.22,29.54-20.85,34.59-41.1,7.52-49.93-5.95-74.14a78.14,78.14,0,0,0-56.63-39.28c-19.7-2.7-46.34,1.18-66.36,9.45s-38.51,38.67-39,53.37S134.62,293.3,169.14,321.94Z"/><path class="cls-23" d="M169.11,320.06s10,10.31,23.86,13.6,66.1,5.5,83.9-5.22,29.55-20.86,34.59-41.11,7.52-49.92-5.94-74.14a78.15,78.15,0,0,0-56.64-39.27c-19.7-2.7-46.34,1.18-66.36,9.44S144,222,143.5,236.74,134.59,291.42,169.11,320.06Z"/><path class="cls-24" d="M176.74,208.46s-39.28,104.76-52.25,86.16S137,218.1,147.14,208.89,198.17,158.06,176.74,208.46Z"/><path class="cls-17" d="M218.69,256.13s-5.32,5.7-2.23,10.45,8.89,7.57,16.78,8.5,34.85,1.78,43.27-2.09,13.14-12.28,9.42-17.85S264.26,243,252.46,243.76,224.65,249.38,218.69,256.13Z"/><path class="cls-18" d="M243.23,239.66s.07,4.81,3.19,7.28,8,2.18,10.07-.15,3.45-8.44,2.13-10.29S242.49,233.19,243.23,239.66Z"/><circle class="cls-17" cx="221.4" cy="230.09" r="17.89"/><circle class="cls-17" cx="275.88" cy="228.58" r="17.89"/><circle class="cls-18" cx="226.46" cy="229.85" r="9.54"/><circle class="cls-18" cx="271.48" cy="229.9" r="9.54"/><path class="cls-18" d="M279,198.73s-23.27,10.28-23.9,16,46.72-8.49,45.24-12.73S279,198.73,279,198.73Z"/><path class="cls-18" d="M215.86,199.65s23.56,9.59,24.35,15.26-47-7.12-45.59-11.4S215.86,199.65,215.86,199.65Z"/><path class="cls-22" d="M329.29,272.72c-2.22,1.62-2.41,3.57-1.6,5.15a11.56,11.56,0,0,1,1.38,3.57c.08.83-1.13,2-2.67,2.72-1,.46-4.9,2.46-7.55,3.49-8.13,4.67-17.41,10.75-25,16.15-11.46,8.2-28.1,28.69-27.28,40.05a36.18,36.18,0,0,0,1.77,6.15s8-4.24,27.36-14.69c23.5-12.69,40.83-21.9,51.61-33.3s11.06-14.67,10.71-17.49-2.45-9.7-5.47-11.48-7.7-.26-10.11,1.23-6.36,3.67-6.36,3.67c.44-.74-.4-3.65-1.3-4.26S331.5,271.1,329.29,272.72Z"/><path class="cls-23" d="M329.31,274.6c-2.21,1.62-2.4,3.57-1.6,5.15a11.47,11.47,0,0,1,1.39,3.57c.07.83-1.14,2-2.67,2.72-1,.47-4.9,2.46-7.55,3.49-8.14,4.68-17.41,10.75-25,16.16-11.46,8.19-28.1,28.69-27.28,40.05a36.73,36.73,0,0,0,1.78,6.14s8-4.23,27.36-14.69c23.5-12.69,40.82-21.89,51.61-33.3s11.06-14.66,10.71-17.49-2.45-9.7-5.47-11.47-7.7-.26-10.11,1.22-6.37,3.67-6.37,3.67c.45-.74-.39-3.64-1.29-4.25S331.53,273,329.31,274.6Z"/><path class="cls-25" d="M282,387.52s-96,11.24-98.66,9.31,3.34,13.72,3.34,13.72l-5.63,7.94,30.34,15.29,2.09-4.45s36.67,4.86,52.28-7.16l3.16,3.39,21.18-23.9-8.75-9.21Z"/><path class="cls-26" d="M278.51,317.85s16.31,18.61,18.2,18.58-16.85,9.67-16.85,9.67,5.93,16.87,3.2,25.39c-2.29,7.18-1.63,17-1.63,17s-90.21,16.4-95.92,12.71-6.32-46.07-3.59-52.23c0,0-18.09-13.4-16.24-15.31l8.38-8.6a55.53,55.53,0,0,0,34.1,12.69c21.21.63,62.09-6.57,62.09-6.57Z"/><path class="cls-14" d="M207.54,425s0,0,0,0c0-2.12,6-9.92,10.08-15a1.88,1.88,0,0,1-.89-.73c-.94-1.82-3.37-4.94-4.84-7.69-14,1.89-24.95,3.1-26,2.49-3.17-1.84-4.56-11.24-4.56-11.24s96-4.55,100.33-11.52l-1.11,10.06s-18.06,2.87-38.41,5.9a17.36,17.36,0,0,1,.65,4.12c2.36.4,25.19,4.35,29.7,6.44,4.3-6,8.83-12.23,9.84-13l1.59,1.86s-6.11,6.6-11.24,13.45a8.14,8.14,0,0,1-.8,1.08c-2.89,3.95-5.33,7.87-6,10.55L264,419.82s2.2-3.17,5.08-7.26a.82.82,0,0,1-.27-.35c-.9-2.24-18.17-6.17-26.72-8a2.69,2.69,0,0,1-.92.85,74.69,74.69,0,0,1-18.08,5.14L211.21,427l2,1.1s1.28,1.55-1.23,1.75-26.9-13.9-27.09-16.1l.66-.75Z"/><path class="cls-14" d="M301.61,413.61s10-.46,13.48.59,5.39,2.91,5.44,6.67-16.57,26.63-26,24.88-11.42-7.37-11.42-7.37Z"/><path class="cls-14" d="M194.89,460.4s5.39,4.52,4,13.13c-1.37,8.26-3.92,7.83-8.51,7.78s-29.13-12.64-27.56-26.09c0,0,.18-3.42,3.66-7.59Z"/><path class="cls-27" d="M180.65,95.17l.12,8.61-4.15.06-.13-8.37a37.48,37.48,0,0,1-5.2,5.66L168,98.74a36.14,36.14,0,0,0,7.6-8l-6,.09-.05-3.92,6.83-.1-.05-3.45,4.15-.06.05,3.45,4.87-.08.06,3.92-4.87.07v.12a73.53,73.53,0,0,1,6,4.55l-2.45,3.07Zm5.71,36.92a22,22,0,0,0,6.67,1.44c2.55,0,4.06-2.61,4.41-3.21l-27.5.4-.06-4.39,28.26-.41-.63-2.79-23.52.35-.05-3.92,21.61-.32-1.75-1.87-11.4.46-.26-1.66a56,56,0,0,1-11.89,3.09L168.52,115c6.58-1,11.79-2.49,15.56-4.51l-15.14.22-.07-4.15,20.43-.3,3.86-4,3.07,2.69-1,1.26,27.37-.4.06,4.16-14.9.21c4.19,2.44,9.56,3.78,15.92,4l-1.48,4.53A59.14,59.14,0,0,1,209,115.42l.06.24c-2.07.38-5.39.85-10,1.33l1.34,2.18,18.29-.27.06,3.92-16.93.25.52,2.78,20-.29.06,4.4-19.89.29a9,9,0,0,1-8.55,8.2,25.63,25.63,0,0,1-7.86-1.55Zm8.33-31.37a31,31,0,0,1-7,3.25l-1.95-3.41,4.9-2-2.75-1.38,1.8-3.17,4.49,2.36a26.78,26.78,0,0,0,4.1-3.38L201,95.88l-3,2.6,4.49,2.6-2,3Zm1.48,12.34,7.36-.71-3.06-2.15-9.33.14a37.26,37.26,0,0,1-4.22,3.27Zm-.27-22.63a28.68,28.68,0,0,1-6.72,3.13l-2-3.48c1.54-.56,3.08-1.11,4.37-1.72L188,86.69l1.79-3.41L195.48,86h.12l3.52-3,2.65,2.87-2.4,2,3,1.68-2,3.3Zm24.15,10.4a34.89,34.89,0,0,1-5.08-6l.12,8-4.16.06L210.82,95a42.79,42.79,0,0,1-5.15,5.84l-3.35-2.33a38.49,38.49,0,0,0,7.48-8.07l-5.17.08,0-3.92,6.11-.09-.05-3.68,4.15-.06.06,3.68,7.18-.11.06,3.92-6.12.09a32.28,32.28,0,0,0,7.61,8.15Z"/><path class="cls-27" d="M243.82,134.51l0,2.67-5.05.08-.23-15.8a46.7,46.7,0,0,1-8.06,5.29l-3-4.53c9.31-4.77,12.57-9.16,15.88-14.31l-15.14.22-.08-5,53.92-.79.08,5-32.43.47c-1.56,2.52-3.07,4.86-4.59,6.9l32.54-.48a.94.94,0,0,1,1.09,1l.31,21.44-5.05.07,0-2.67ZM252.6,93.1l-.16-10.63,5-.07L257.59,93,274,92.79a.74.74,0,0,0,.83-.78l-.12-8,5-.07L280,95.14a2.13,2.13,0,0,1-2.4,2.41l-44.66.65c-1.54,0-2.32-.73-2.35-2.34l-.16-11.16,5.05-.07.11,8a.74.74,0,0,0,.85.76Zm-8.85,36.36L274,129l-.13-9c0-.41-.25-.64-.78-.64l-28.74.42c-.54,0-.77.25-.7.67Z"/><path class="cls-27" d="M290.39,126.82l-.56-38.12-3.09,0-.07-4.57,19.78-.29.06,4.57-2.31,0,.7,47.8-4.63.07-.13-8.44c-5.07,2-8.85,3.46-11.16,4.09l-1.84-4.19Zm4.19-29.76,5.11-.07-.12-8.43-5.11.07Zm.19,13,5.11-.08-.12-8.37-5.11.07Zm.23,15.08,5.07-2.1L300,114.5l-5.11.08Zm24.69-16.75-13,2.15a17.65,17.65,0,0,0-1.31-4.14l3.85-.71,3.84-5.29a35.33,35.33,0,0,0-7.87-6.17l2.2-3.78,1.74,1.1c1.26-3,2.52-6.21,3.6-9.67L317,83.61a87.05,87.05,0,0,1-4.48,10.64l2.77,2.45a44.13,44.13,0,0,0,3.08-8.07l4.42,1.13c-.84,3.87-3.44,8.84-7.86,14.84l3.73-.64-.94-3,4.09-1.07a52.25,52.25,0,0,1,2.46,10.18l-4.08.89Zm-10.21,24.38c1.89-.51,7.34-1.89,8.4-6.18l-7.42.11a2,2,0,0,1-2.23-2.23l-.18-12.17,4.57-.07.13,8.67c0,.83.43,1.18,1.26,1.17l3.92-.06-.14-9.85,4.57-.07.2,13.53c.05,3.69-2.55,8.36-10.82,11.27Zm28.13-25.89-12.08,2.25a28.31,28.31,0,0,0-1.31-4.2l2.84-.57,3-4.14a35.35,35.35,0,0,0-7.81-6l2.14-3.83,1.8,1.1c1.38-3.11,2.81-6.51,4.07-10.21l4.18,1.9a90.44,90.44,0,0,1-4.89,10.93l2.71,2.34A35.76,35.76,0,0,0,335.65,87l4.48,1.06c-.78,4-3.26,9.13-7.44,15.13l4.2-.83-.76-3,4-.83a40.06,40.06,0,0,1,1.87,10l-4.09.6Zm-6.73,14.94,4.63-.07a.68.68,0,0,0,.76-.66l-.13-8.91,4.57-.07.19,13a1.11,1.11,0,0,1-1.23,1.21l-8.72.12.14,9.8-4.57.07-.37-25.12,4.57-.07Z"/><path class="cls-27" d="M349.76,126l-.55-38.12-3.09,0-.07-4.57L365.82,83l.07,4.57-2.31,0,.7,47.8-4.63.07-.13-8.44c-5.08,2-8.86,3.46-11.16,4.09L346.51,127ZM354,96.19l5.11-.07-.13-8.43-5.1.07Zm.19,13,5.11-.08-.12-8.37-5.11.07Zm.22,15.08,5.08-2.1-.13-8.49-5.1.08Zm24.7-16.76-13,2.15a18.23,18.23,0,0,0-1.31-4.13l3.85-.71,3.84-5.29a35.68,35.68,0,0,0-7.87-6.18l2.2-3.77,1.74,1.1c1.26-3,2.52-6.21,3.6-9.67l4.24,1.78a85.12,85.12,0,0,1-4.47,10.64l2.76,2.45a43.47,43.47,0,0,0,3.09-8.07l4.42,1.13c-.84,3.87-3.44,8.84-7.87,14.84l3.74-.65-.94-3L381.2,99a52.19,52.19,0,0,1,2.47,10.18l-4.09.89Zm-10.21,24.39c1.89-.51,7.33-1.89,8.4-6.18l-7.42.1a2,2,0,0,1-2.23-2.22l-.18-12.17,4.57-.07.13,8.67c0,.83.43,1.18,1.26,1.17l3.92-.06-.14-9.85,4.57-.07.2,13.53c.05,3.69-2.55,8.36-10.83,11.27ZM397,106l-12.09,2.26a26.11,26.11,0,0,0-1.31-4.2l2.85-.57,3-4.14a35.58,35.58,0,0,0-7.81-6l2.14-3.83,1.8,1.1c1.38-3.11,2.81-6.51,4.06-10.21l4.19,1.89a89.76,89.76,0,0,1-4.89,10.94l2.71,2.34A36.12,36.12,0,0,0,395,86.15l4.47,1.06c-.77,4.05-3.25,9.13-7.44,15.13l4.21-.83-.76-3,4-.83a40.06,40.06,0,0,1,1.87,10l-4.09.6Zm-6.73,15,4.63-.07a.69.69,0,0,0,.76-.66l-.13-8.91,4.57-.07.19,13a1.11,1.11,0,0,1-1.23,1.21l-8.73.12.15,9.8-4.58.07-.36-25.12,4.57-.07Z"/><path class="cls-27" d="M423.86,132.46l0,2.14-5,.08-.36-24.35a63.93,63.93,0,0,1-9.4,7.21l-3.38-3.81a71.75,71.75,0,0,0,15.55-12.59l-15.14.23-.06-4.58,19-.27,1.86-2.65-17.4.26-.07-4.57,20.07-.3,1.27-2.45c-6.34.39-13.65.67-20,.65l-.61-4.86c14.38,0,35.62-1.42,45.51-3.34l.72,4.74c-5.21,1.2-14.16,1.93-19.74,2.43l-1.45,2.75,21.86-.32.06,4.57-24.52.36-1.74,2.64L460.21,96l.07,4.57-32.84.48-2.51,2.89,30.16-.44a.91.91,0,0,1,1,1l.43,29.64-5.05.07,0-2.14Zm-.3-20.36,27.61-.41,0-2.85a.62.62,0,0,0-.72-.7l-26.25.39c-.53,0-.7.24-.64.72Zm.12,7.9,27.61-.41-.05-3.32-27.61.4Zm27.68,4.17-27.61.4,0,3.26,27.62-.4Z"/></g><path class="cls-1" d="M706.57,24.81c-17.5-14.74-40.3-9.54-40.53-9.47l-.46.11h-.47l-597,.66a81.69,81.69,0,0,0-10.19-.51c-13.2.19-23.94,4-32,11.33-17.16,15.61-17,42.22-17,42.48,0,3.64-2.85,355.38-2.15,403.14.64,44.18,69,51.35,69.73,51.41,5.23.06,556.48,7.94,596.26,7.36,36.31-.53,43.52-53.08,43.59-53.62L726.86,99C729.1,63,722.27,38,706.57,24.81Z"/></g></svg>