<svg id="圖層_1" data-name="圖層 1" xmlns="http://www.w3.org/2000/svg" xmlns:xlink="http://www.w3.org/1999/xlink" viewBox="0 0 726 546"><defs><style>.cls-1{fill:none;}.cls-2{clip-path:url(#clip-path);}.cls-3{clip-path:url(#clip-path-2);}.cls-4{fill:#ede1d6;}.cls-28,.cls-5{opacity:0.8;}.cls-6{fill:#e0728e;}.cls-7{fill:#71859c;stroke:#ede1d6;stroke-miterlimit:10;stroke-width:5px;}.cls-8{fill:#f1a5a4;}.cls-9{fill:#deb1b9;}.cls-10{fill:#d5a657;}.cls-11{fill:#edb75f;}.cls-12{fill:#2a0e2d;}.cls-13{fill:#fff;}.cls-14{fill:#d99595;}.cls-15{fill:#dc98ba;}.cls-16{fill:#cd4c52;}.cls-17{fill:#eae3d8;}.cls-18{fill:#cbbbb2;}.cls-19{fill:#c3a379;}.cls-20{fill:#7e655a;}.cls-21{fill:#cfbb91;}.cls-22{fill:#ebdc64;}.cls-23{fill:#998d76;}.cls-24{fill:#cdad6c;}.cls-25{fill:#c89f5b;}.cls-26{fill:#ae3d38;}.cls-27{fill:#f2d893;}.cls-28{fill:#9f7f59;}.cls-29{fill:#c1986b;}.cls-30{fill:#666;}.cls-31{fill:#989898;}.cls-32{fill:#a95955;}.cls-33{fill:#624e53;}.cls-34{fill:#933835;}.cls-35{fill:#160804;}.cls-36{fill:#1c0307;}.cls-37{fill:#cfb05e;}.cls-38{fill:#c19643;}.cls-39{fill:#b27d35;}.cls-40{fill:#d6ac5a;}.cls-41{fill:#576141;}.cls-42{fill:#b7a57a;}.cls-43{fill:#515640;}.cls-44{fill:#c4a25c;}.cls-45{fill:#42332d;}</style><clipPath id="clip-path"><path class="cls-1" d="M723.12,97.16l-6.81,378.7c-.06.53-6.76,53.14-43.06,54-39.76,1-591-1.49-596.2-1.5-.7,0-69.14-6.55-70.22-50.71C5.66,429.94,5,78.24,5,74.61,5,74.34,4.57,47.74,21.57,32c8-7.42,18.71-11.31,31.9-11.64a83.05,83.05,0,0,1,10.19.41l596.91-6.52H661l.46-.12c.23-.07,23-5.49,40.61,9.07C717.94,36.22,725,61.08,723.12,97.16Z"/></clipPath><clipPath id="clip-path-2"><rect class="cls-1" x="-10.21" y="-0.46" width="750.39" height="551.04" transform="translate(-6.62 9.02) rotate(-1.4)"/></clipPath></defs><title>act_v1</title><g class="cls-2"><g class="cls-3"><path class="cls-4" d="M770.37,543.17c-.07.56-778.86,14.36-784.31,14.35C-13.51,575.34-27.51,3.4-27.51,3.4L756.84-9.32Z"/><g class="cls-5"><rect class="cls-6" x="-14.16" y="12.93" width="56.64" height="18.28" transform="translate(-0.48 0.31) rotate(-1.25)"/><rect class="cls-6" x="48.74" y="9.91" width="67.65" height="19.81" transform="translate(-0.41 1.81) rotate(-1.25)"/><rect class="cls-6" x="121.08" y="5.1" width="84.96" height="24.38" transform="translate(-0.34 3.57) rotate(-1.25)"/><rect class="cls-6" x="212.35" y="4.68" width="80.24" height="24.38" transform="translate(-0.31 5.51) rotate(-1.25)"/><rect class="cls-6" x="297.29" y="2.76" width="86.53" height="24.38" transform="translate(-0.25 7.43) rotate(-1.25)"/><rect class="cls-6" x="388.52" y="0.73" width="89.68" height="24.38" transform="translate(-0.18 9.46) rotate(-1.25)"/><rect class="cls-6" x="482.93" y="0.33" width="77.09" height="24.38" transform="translate(-0.15 11.38) rotate(-1.25)"/><rect class="cls-6" x="566.3" y="-2.12" width="135.31" height="24.38" transform="translate(-0.07 13.84) rotate(-1.25)"/><rect class="cls-6" x="599.98" y="26.41" width="106.99" height="25.9" transform="translate(-0.7 14.27) rotate(-1.25)"/><rect class="cls-6" x="436.3" y="27.89" width="158.91" height="21.33" transform="translate(-0.72 11.26) rotate(-1.25)"/><rect class="cls-6" x="345.04" y="29.15" width="86.53" height="21.33" transform="translate(-0.78 8.48) rotate(-1.25)"/><rect class="cls-6" x="247.52" y="31.21" width="92.83" height="21.33" transform="translate(-0.84 6.42) rotate(-1.25)"/><rect class="cls-6" x="160.99" y="31.68" width="83.39" height="22.85" transform="translate(-0.89 4.43) rotate(-1.25)"/><rect class="cls-6" x="-2.61" y="32.88" width="160.48" height="25.9" transform="translate(-0.98 1.7) rotate(-1.25)"/><rect class="cls-6" x="1.22" y="64.6" width="39.33" height="25.9" transform="translate(-1.69 0.47) rotate(-1.25)"/><rect class="cls-6" x="45.22" y="61.79" width="69.23" height="25.9" transform="translate(-1.61 1.76) rotate(-1.25)"/><rect class="cls-6" x="120.71" y="59.94" width="88.11" height="24.38" transform="translate(-1.53 3.61) rotate(-1.25)"/><rect class="cls-6" x="213.47" y="57.49" width="265.9" height="19.81" transform="translate(-1.39 7.58) rotate(-1.25)"/><rect class="cls-6" x="482.59" y="55.22" width="75.52" height="27.43" transform="translate(-1.38 11.37) rotate(-1.25)"/><rect class="cls-6" x="562.85" y="55.01" width="73.95" height="27.43" transform="translate(-1.36 13.11) rotate(-1.25)"/><rect class="cls-6" x="643.1" y="56.43" width="62.93" height="24.38" transform="matrix(1, -0.02, 0.02, 1, -1.34, 14.74)"/><rect class="cls-6" x="602.82" y="84.24" width="108.56" height="25.9" transform="translate(-1.96 14.36) rotate(-1.25)"/><rect class="cls-6" x="498.97" y="85.1" width="97.55" height="25.9" transform="translate(-2.01 11.98) rotate(-1.25)"/><rect class="cls-6" x="568.87" y="112.05" width="141.6" height="32" transform="translate(-2.64 13.99) rotate(-1.25)"/><rect class="cls-6" x="621.57" y="147.94" width="99.12" height="30.47" transform="translate(-3.4 14.68) rotate(-1.25)"/><rect class="cls-6" x="582.12" y="147.97" width="36.19" height="21.33" transform="translate(-3.32 13.14) rotate(-1.25)"/><rect class="cls-6" x="527.85" y="117.28" width="36.19" height="21.33" transform="translate(-2.66 11.94) rotate(-1.25)"/><rect class="cls-6" x="-15.49" y="92.46" width="173.07" height="24.38" transform="matrix(1, -0.02, 0.02, 1, -2.27, 1.58)"/><rect class="cls-6" x="162.11" y="87.11" width="28.32" height="15.24" transform="translate(-2.03 3.87) rotate(-1.25)"/><rect class="cls-6" x="4.04" y="120.96" width="36.19" height="27.43" transform="translate(-2.93 0.51) rotate(-1.25)"/><rect class="cls-6" x="43.36" y="119.76" width="67.65" height="27.43" transform="translate(-2.89 1.72) rotate(-1.25)"/><rect class="cls-6" x="114.03" y="118.7" width="23.6" height="16.76" transform="translate(-2.74 2.78) rotate(-1.25)"/><rect class="cls-6" x="108.56" y="149.31" width="23.6" height="21.91" transform="matrix(1, -0.02, 0.02, 1, -3.47, 2.66)"/><rect class="cls-6" x="6.27" y="150.72" width="97.55" height="27.43" transform="translate(-3.58 1.24) rotate(-1.25)"/><rect class="cls-6" x="51.08" y="182.09" width="58.22" height="25.15" transform="translate(-4.23 1.8) rotate(-1.25)"/><rect class="cls-6" x="58.12" y="212.72" width="31.48" height="25.15" transform="translate(-4.9 1.67) rotate(-1.25)"/><rect class="cls-6" x="60.44" y="243.2" width="26.76" height="25.15" transform="translate(-5.56 1.67) rotate(-1.25)"/><rect class="cls-6" x="50.14" y="272.41" width="26.76" height="25.15" transform="translate(-6.2 1.45) rotate(-1.25)"/><rect class="cls-6" x="3.78" y="181.87" width="40.91" height="25.9" transform="translate(-4.25 0.58) rotate(-1.25)"/><rect class="cls-6" x="33.66" y="306.2" width="39.33" height="25.15" transform="translate(-6.94 1.24) rotate(-1.25)"/><rect class="cls-6" x="-13.64" y="305.75" width="40.91" height="25.9" transform="translate(-6.95 0.22) rotate(-1.25)"/><rect class="cls-6" x="56.51" y="339.46" width="15.74" height="25.15" transform="translate(-7.67 1.49) rotate(-1.25)"/><rect class="cls-6" x="9.2" y="338.72" width="40.91" height="25.9" transform="translate(-7.67 0.73) rotate(-1.25)"/><rect class="cls-6" x="-0.35" y="212.31" width="53.49" height="19.81" transform="translate(-4.84 0.63) rotate(-1.25)"/><rect class="cls-6" x="28.63" y="237.87" width="26.75" height="28.95" transform="translate(-5.5 0.98) rotate(-1.25)"/><rect class="cls-6" x="0.32" y="240.05" width="23.6" height="25.9" transform="translate(-5.52 0.32) rotate(-1.25)"/><rect class="cls-6" x="5.77" y="271.75" width="40.91" height="28.95" transform="translate(-6.24 0.64) rotate(-1.25)"/><rect class="cls-6" x="630.1" y="181.49" width="80.24" height="24.38" transform="translate(-4.07 14.67) rotate(-1.25)"/><rect class="cls-6" x="649.59" y="210.45" width="40.91" height="22.85" transform="translate(-4.68 14.67) rotate(-1.25)"/><rect class="cls-6" x="698.37" y="209.63" width="18.88" height="24.38" transform="translate(-4.67 15.5) rotate(-1.25)"/><rect class="cls-6" x="637.78" y="241.59" width="18.88" height="24.38" transform="translate(-5.38 14.18) rotate(-1.25)"/><rect class="cls-6" x="643.29" y="273.46" width="18.88" height="24.38" transform="translate(-6.08 14.31) rotate(-1.25)"/><rect class="cls-6" x="662.84" y="237.4" width="58.21" height="28.95" transform="translate(-5.33 15.16) rotate(-1.25)"/><rect class="cls-6" x="669.85" y="272.3" width="58.21" height="24.38" transform="translate(-6.04 15.32) rotate(-1.25)"/><rect class="cls-6" x="653.33" y="304.71" width="58.21" height="24.38" transform="matrix(1, -0.02, 0.02, 1, -6.75, 14.97)"/><rect class="cls-6" x="652.43" y="336.74" width="58.21" height="10.8" transform="translate(-7.3 14.95) rotate(-1.25)"/></g><path class="cls-7" d="M73.31,399.29s-8-209.09,101.93-274.57,248.92-70.62,338.91-4.81S651.72,294.43,652.83,399.05Z"/><path class="cls-8" d="M268.24,381.75c2.18-.41,3.39.63,3.82,2.07a10,10,0,0,0,1.23,3c.43.54,1.78.49,3.07,0,.83-.34,12.32-2.43,13.4-5.72,1.21-6.76-31.19-12.3-3.56-33.26,1.14-.87,19.4,6.69,27.79,22.1,3,5.51-.49,24.82-8.22,31.9-16,14.7-18.68,12.54-31.16,10.49s-14.77-3.88-16.17-5.77-4.07-7.28-3.35-10.2,4.25-4.9,6.47-5.5,4.78-1.14,4.78-1.14a15.71,15.71,0,0,1-.72-3.94C265.79,384.82,266.06,382.15,268.24,381.75Z"/><path class="cls-9" d="M480,474.87a6.76,6.76,0,0,1-.26-2.76c.08-2-1.36-36.14-1.36-36.14a4.61,4.61,0,0,0-3.26-3.55c-6.38-1.58-7.56-1.4-12.11.28-7.38,2.73-14,8.18-14.87,16.43,0,0,.52,3.46.52,3.49.05.86,2.54,31.37,2.77,32.41a11.7,11.7,0,0,0,7.91,7.56c5.81,1.83,25.31.73,25.31.73s6.09-1.68,6.14-4.9-.32-4.56-2.22-6.88S480,474.87,480,474.87Z"/><path class="cls-9" d="M427.33,441.57c-4.82-5.74-11.07-8.28-15.27-8.27-9,0-10.73,2.59-13.21,3.8a2,2,0,0,1,0,.46c0,1.21-1.8,32.5-1.44,35.55s-.63,2.19-2,2.82a20.73,20.73,0,0,0-9.29,10.21c-2.79,6.51,6.35,7.23,7,7.46s20.25.74,22.9-.07,8.9-3,9.75-8,3.07-32.3,3.07-32.3S430.81,445.72,427.33,441.57Z"/><path class="cls-10" d="M478.39,437.35c7.34-10.21,8.48-19.52,10.47-48.64.35-5.14.21-5.21-.72-9-.83-3.39-5.12-10.06-6.27-12.45-3.29-6.84-4.75-10.39-4.75-10.39l-75.41.23L398,363.34c-2.81,4.7-3.48,6-4.83,8.33-.64,1.09-2.46,3.59-2.76,5.55-1.36,9-.46,17.38-.62,24.26-.61,27,8.43,36.66,9.13,37.4,0,.05,11,9.28,16.71,11.77,4.34,1.92,13.21,2.47,14.63,2.51s17.47-.23,17.47-.23,13.19-1.46,18.49-4.41A35.84,35.84,0,0,0,478.39,437.35Z"/><path class="cls-11" d="M508.8,251c-11.5-20.6-31-32.25-48.64-36.36,3.47-12.59,7.73-29,8.54-36.49,1.41-13,3.91-22.79-3-27.68s-12.48-2.76-14,0-9.43,51-9.37,55.81a50.89,50.89,0,0,1-.59,6.31c-4-.06-8.15.09-12.36.43a54.78,54.78,0,0,1-.67-6.7c0-4.85-8.16-52.95-9.71-55.75s-7.15-4.88-14,0-4.29,14.73-2.81,27.7c.88,7.63,5.42,24.61,9,37.29a132,132,0,0,0-21.09,6.05c-19.47,7.53-37.71,35.85-38.37,49.64s-9.24,51.19,23.84,78.42c0,0,9.54,9.79,22.94,13s63.9,5.88,81.25-4,28.83-19.25,33.94-38.18S521.55,273.88,508.8,251Z"/><ellipse class="cls-12" cx="394.39" cy="292.15" rx="9.72" ry="9.42" transform="translate(-0.87 1.18) rotate(-0.17)"/><ellipse class="cls-12" cx="475.68" cy="291.9" rx="9.72" ry="9.42" transform="translate(-0.87 1.42) rotate(-0.17)"/><path class="cls-13" d="M402.63,311.21s-5.22,5.29-2.27,9.77,8.51,7.2,16.14,8.16,33.7,2.05,41.89-1.49,12.86-11.37,9.33-16.64-20.84-11.65-32.27-11S408.47,304.94,402.63,311.21Z"/><path class="cls-12" d="M428.64,298.69s0,4.51,3,6.86,7.7,2.13,9.74,0,3.44-7.88,2.18-9.63S428,292.61,428.64,298.69Z"/><path class="cls-9" d="M282.19,465.13a6.65,6.65,0,0,1-.27-2.76c.08-2-1.36-36.15-1.36-36.15a4.61,4.61,0,0,0-3.26-3.55c-6.38-1.57-7.56-1.39-12.11.29-7.38,2.72-14,8.17-14.87,16.43,0,0,.52,3.45.52,3.49,0,.86,2.54,31.36,2.78,32.4a11.67,11.67,0,0,0,7.9,7.57c5.81,1.82,25.31.73,25.31.73s6.09-1.69,6.14-4.91-.32-4.56-2.22-6.88S282.19,465.13,282.19,465.13Z"/><path class="cls-9" d="M202.19,428.22c5.28-9.89,15.88-8.14,20.08-8,9,.23,8.87,11.76,9.48,18.08a1.93,1.93,0,0,0-.07.45c0,1.21,1.06,32.54.63,35.58s.58,2.2,1.94,2.87a20.75,20.75,0,0,1,9.05,10.42c2.65,6.57-6.51,7.08-7.21,7.29s-20.26.28-22.88-.6-8.84-3.16-9.57-8.24-2.32-32.37-2.32-32.37S199.64,433,202.19,428.22Z"/><path class="cls-14" d="M280.93,434.88c7.34-10.21,8.48-19.52,10.47-48.64.35-5.14.21-5.21-.72-9-.83-3.39-5.12-10.06-6.27-12.45-3.29-6.84-4.75-10.39-4.75-10.39l-75.41.23-3.72,6.25c-2.81,4.7-3.48,6-4.83,8.33-.64,1.09-2.46,3.59-2.76,5.55-1.36,9-.46,17.38-.62,24.26-.61,27,8.43,36.65,9.13,37.4,0,0,11,9.27,16.71,11.77,4.34,1.91,13.21,2.47,14.63,2.51s17.47-.23,17.47-.23S263.45,449,268.75,446A35.7,35.7,0,0,0,280.93,434.88Z"/><path class="cls-15" d="M239.18,416.1s6,7.49,15,8.86,19.33-1.92,22.49-9,5.7-27.79-6.68-35.92-24.32-2.32-26.5.08-7.75,8.79-7.52,17.76S237.17,412,239.18,416.1Z"/><path class="cls-8" d="M164.28,247.86a74.94,74.94,0,0,1,48-36.43c-3.51-12.49-7.83-28.79-8.68-36.21-1.47-12.88-4-22.62,2.78-27.52s12.35-2.82,13.88,0,9.64,50.58,9.61,55.4a50.77,50.77,0,0,0,.62,6.27c4-.08,8.07,0,12.24.35a55.57,55.57,0,0,0,.64-6.66c-.06-4.82,7.76-52.66,9.28-55.46s7.05-4.89,13.87,0,4.34,14.62,2.95,27.51c-.82,7.59-5.22,24.49-8.69,37.1A131.72,131.72,0,0,1,281.66,218C301,225.4,319.21,253.43,320,267.13s9.46,50.81-23.14,78.07c0,0-9.39,9.78-22.64,13.07s-63.25,6.22-80.49-3.48-28.67-19-33.84-37.74S151.79,270.65,164.28,247.86Z"/><ellipse class="cls-16" cx="279.13" cy="311.99" rx="8.45" ry="4.22" transform="translate(-0.93 0.83) rotate(-0.17)"/><ellipse class="cls-16" cx="207.86" cy="312.2" rx="8.45" ry="4.22" transform="translate(-0.93 0.62) rotate(-0.17)"/><path class="cls-13" d="M271.85,315.49s4.56,4.72,2,8.75-7.36,6.5-14,7.4-29.27,2-36.41-1.12-11.23-10.12-8.19-14.86,18-10.56,28-10.07S266.74,309.9,271.85,315.49Z"/><path class="cls-12" d="M249.19,304.41s0,4-2.58,6.16-6.68,1.95-8.47,0-3-7-1.93-8.62S249.72,299,249.19,304.41Z"/><path class="cls-12" d="M224.61,319.82a1,1,0,0,1,1.19-.23c1.26.38,8.89,1.37,10.62.07,2.09-1.56,4.47-5.89,4.53-9.35,0,0,0-.05,0-.08a.38.38,0,0,0,0-.1l0-.1,0-.09a.41.41,0,0,1,.05-.09.59.59,0,0,1,0-.08l.06-.08.07-.07a.46.46,0,0,1,.07-.07l.07-.06.09,0,.08-.05.1,0,.09,0,.1,0h.23l.1,0,.09,0,.1,0,.08,0,.09.05.07.06.08.06.06.08.06.07a.56.56,0,0,0,.05.08l0,.09,0,.09,0,.1a.38.38,0,0,1,0,.1.25.25,0,0,1,0,.08c.09,3.46,2.49,7.77,4.59,9.33,1.74,1.29,9.37.26,10.62-.14a1,1,0,0,1,1.14,1.66c-.44.41-4.25,1.11-7.74,1.12-2.16,0-4.2-.25-5.23-1A15.11,15.11,0,0,1,242,315a15.15,15.15,0,0,1-4.34,6.29c-1,.76-3.06,1-5.22,1-3.49,0-7.31-.67-7.75-1.08A1,1,0,0,1,224.61,319.82Z"/><path class="cls-17" d="M195.41,227.66s17.06,5.85,45.45-1.62c0,0,31.24-3.78,33.13-6.74s-5.73-13.27-5.75-20.65,13.22-14.8,18.84-32.53,3.68-38.39-13.39-47.2-47.33,7.53-53,12-32.12,23.72-49.13,35.58-28.38,10.41-34,17.81-5.64,14.78,5.75,23.6,32.23,10.24,37.9,8.75,9.47-3,11.37,1.44S190.67,225.46,195.41,227.66Z"/><path class="cls-18" d="M148.92,196.06s41.7,13.16,45.49,11.67,20.79-11.87,34.05-13.39,30.29-1.56,32.19-1.57,5.67-4.44,9.45-7.41-13.24,7.42-13.26,1.52,9.44-11.84,9.41-22.17l-.05-16.24s-11.29,23.65-15.08,25.14-.1-32.48-3.9-36.89S236,166.27,234.05,164.8s-5.72-13.27-5.71-8.84-1.86,11.82-1.86,11.82-5.71-8.84-5.69-4.41.07,25.09-3.72,23.63-7.65-25.08-15.23-26.53-7.58,0-5.63,16.25,7.62,16.22,0,17.72-36-1.37-41.67-1.35S145.12,193.12,148.92,196.06Z"/><circle class="cls-13" cx="209.83" cy="288.65" r="17.44"/><circle class="cls-12" cx="209.83" cy="288.65" r="10.98"/><path class="cls-12" d="M183.49,271.35s1.4,5.55,4.17,4.84S214,266.41,216,264.33s-3.49-9-3.49-9-28.38,13.25-29.07,13.95S183.49,271.35,183.49,271.35Z"/><circle class="cls-13" cx="274.84" cy="288.46" r="17.44"/><circle class="cls-12" cx="274.84" cy="288.46" r="10.98"/><path class="cls-12" d="M301.08,271s-1.37,5.55-4.15,4.87-26.36-9.63-28.45-11.7,3.44-9,3.44-9,28.46,13.08,29.15,13.77S301.08,271,301.08,271Z"/><polygon class="cls-19" points="769.61 543.19 -13.94 557.51 -17.99 392.25 768.67 372.99 769.61 543.19"/><path class="cls-20" d="M191.26,384.82s5,41.29,31.91,55.49,83.89,7.73,76-54.57l-1.54-19.55s-3-18.94-51.14-15S193.8,372.13,191.26,384.82Z"/><path class="cls-21" d="M193,385.27s19.32,13,49.55,7.3,49.51-14.23,53.36-20.24-1.2-14-17.58-18.47-49.2-1.72-64.21,5S195.22,371.53,193,385.27Z"/><path class="cls-22" d="M195.86,383.37s39.53-21.11,64.48-20.23,31.69,4.09,32.29,5.51.39,4.89-6.05,8-44.2,18-70.27,12.93S196.38,386.18,195.86,383.37Z"/><path class="cls-23" d="M228.6,370.86a10.35,10.35,0,0,0-3.94,7.39c-.3,4.84,4.14,11.37,4.14,11.37s29.23-.93,33-6.24c0,0-6.09-13.59-14.26-16.18s-13.1-1.53-13.1-1.53.52,2.81-1.64,4.07A8.28,8.28,0,0,1,228.6,370.86Z"/><path class="cls-24" d="M241.27,368.19s10.68,6.92,13.27,9.86a37.22,37.22,0,0,1,4.45,6.53s2.12-.56,1.47-1.29S253.55,371.74,241.27,368.19Z"/><path class="cls-24" d="M238.37,370.09s13.14,11.94,13.74,13.36a5.23,5.23,0,0,1,.56,2.12l3.51-.47S245.2,371.91,238.37,370.09Z"/><path class="cls-24" d="M236.25,370.65c-.12-.69,15.08,14.14,15,14.84s-2.85,1.21-2.85,1.21S236.77,373.46,236.25,370.65Z"/><path class="cls-24" d="M234.87,370.56s10.06,16.61,10.75,16.65-4.19.43-4.19.43S234.05,372.59,234.87,370.56Z"/><path class="cls-24" d="M233.44,371.16l5.92,16.35-2.82.52S231.15,374.49,233.44,371.16Z"/><path class="cls-24" d="M231.32,371.72s2.46,16.13,3.15,16.18-2.81.51-2.81.51S228.38,374.32,231.32,371.72Z"/><path class="cls-24" d="M229.25,371.59l1,16.74-1.39-.09S224,377.51,229.25,371.59Z"/><path class="cls-25" d="M253.85,366.9c-.69.07,32.69-.72,32.43,3.43S281,377,281,377s10.72-4.88,9.47-7S279,364.32,253.85,366.9Z"/><path class="cls-25" d="M253.77,368.28s28.36,1.79,26.8,4.47,4.15.26,3.55-1.16S263.63,366.13,253.77,368.28Z"/><path class="cls-25" d="M257.05,371.27c.69,0,20.84-.08,20.62,3.38s-3.85,6-5.23,5.92,4.41-3.89,1.73-5.44S257.05,371.27,257.05,371.27Z"/><path class="cls-25" d="M261.67,375s6.92.44,5.36,3.12S262,381.3,262.62,382s9.21-2.9,8-5.06S263.88,373.09,261.67,375Z"/><path class="cls-25" d="M223,382.31s-2.21,1.95-.22,3.46a20.33,20.33,0,0,1,2.63,2.25s-3.59,1.86-6.27.3S220.16,383.52,223,382.31Z"/><path class="cls-25" d="M223.15,380.24s-7.23,4.4-7.31,5.78a3,3,0,0,0,.56,2.12l-6.19-1.08S215.49,380.45,223.15,380.24Z"/><path class="cls-25" d="M223.23,378.85s-15.69,6.65-15.74,7.34-5.49-1-5.49-1,12.28-8.25,17.17-7.94C220.55,377.29,223.23,378.85,223.23,378.85Z"/><path class="cls-26" d="M181.8,331.09l46.8,39.77s6.23.39,5.88-5.19l-45.1-44.52s-4.71-2.38-8.39.86S181.8,331.09,181.8,331.09Z"/><path class="cls-8" d="M207.29,344.68c-2,.92-2.41,2.47-1.94,3.89a9.78,9.78,0,0,1,.71,3.15c0,.68-.9,6.9-1.61,8.1-2.56,4.29-5.23,2.47-3.47.7,4.15-4.17-2.17-6.62-6.95-9a10.35,10.35,0,0,0-5.55-1.37c-1.43-.05-10.89,19.33-8.9,36.76.71,6.24.73,13.17,11.13,14.52,21.57,2.81,22.83-13.93,29.73-25.73,6.36-10.89,9-14,9.1-16.39s-.85-8.3-3.12-10.28-6.3-1.56-8.46-.78-4.56,1.81-4.56,1.81a15.86,15.86,0,0,0-1.67-3.63C211.06,345.78,209.31,343.75,207.29,344.68Z"/><path class="cls-8" d="M314,369.89c-8.39-15.41-26.65-23-27.79-22.1l-.5.38.07,0a9.58,9.58,0,0,1,3.27,2.06,7.23,7.23,0,0,1,.95.42c9.54,5.09,13.55,24.15,2.49,29.73a6.93,6.93,0,0,1-3.93,2.12c-3.24,2.44-11.49,4-12.19,4.25-1.29.52-2.64.57-3.07,0a10,10,0,0,1-1.23-3c-.43-1.44-1.64-2.48-3.82-2.07s-2.45,3.06-2.62,4a15.71,15.71,0,0,0,.72,3.94s-2.56.54-4.78,1.14-5.75,2.58-6.47,5.5,2,8.31,3.35,10.2,3.72,3.74,16.17,5.77,15.12,4.21,31.16-10.49C313.5,394.71,317,375.4,314,369.89Z"/><path class="cls-27" d="M380.67,415.76s-8.75,0-20.83,13.92-.61,20.11,8.17,29.78,43.09,5.42,49.18,15.11,55.86-.86,63.93-4.35,27.55-15.33,25.5-23.65-41.14-29-43.85-33.83.63-15.25-8.79-15.22-60.57,2.26-68.64,5.75,3.38,5.53,2.05,9S380.67,415.76,380.67,415.76Z"/><rect class="cls-28" x="346.56" y="407.48" width="178.83" height="16.63" rx="4.16" ry="4.16" transform="translate(-1.24 1.3) rotate(-0.17)"/><rect class="cls-29" x="346.7" y="404.87" width="178.83" height="16.63" rx="4.16" ry="4.16" transform="translate(-1.23 1.3) rotate(-0.17)"/><path class="cls-10" d="M384.72,410.25c1.14-1.28.1-2.22-1.68-2.75a18.38,18.38,0,0,1-3.58-1.29c-.59-.36-.15-1.19.89-1.9.68-.45,3.22-2.31,5.15-3.43a150,150,0,0,0,14.14-13.48c6-6.54,9.34-20,1.42-25a53.06,53.06,0,0,0-5.58-2.38s-5.12,3.89-17.39,13.39c-14.89,11.53-26,20-29.3,27.81s-1.55,9.4.55,10.61,8.47,3.84,12.52,3.91a14.37,14.37,0,0,0,9.05-3c1.41-1.27,2.83-2.76,2.83-2.76a37.34,37.34,0,0,0,5,1.16C380,411.21,383.58,411.53,384.72,410.25Z"/><path class="cls-11" d="M384.71,408.86c1.14-1.28.11-2.21-1.67-2.74a18.8,18.8,0,0,1-3.59-1.3c-.59-.36-.15-1.19.9-1.89.68-.46,3.22-2.32,5.15-3.44A151.22,151.22,0,0,0,399.64,386c6-6.54,9.33-20,1.41-25a51.66,51.66,0,0,0-5.57-2.37s-5.12,3.88-17.39,13.38c-14.89,11.54-26,20-29.3,27.81s-1.56,9.4.55,10.61,8.47,3.84,12.51,3.92a14.46,14.46,0,0,0,9.06-3c1.41-1.27,2.83-2.76,2.83-2.76a37.34,37.34,0,0,0,5,1.16C380,409.83,383.57,410.14,384.71,408.86Z"/><path class="cls-10" d="M489,410.77c-1.06-1.3-.12-2.26,1.52-2.8a15.41,15.41,0,0,0,3.3-1.32c.55-.37.13-1.21-.84-1.93-.64-.46-3-2.35-4.8-3.49A146.77,146.77,0,0,1,475,387.54c-5.62-6.65-8.84-20.31-1.57-25.4a45.34,45.34,0,0,1,5.13-2.43s4.77,4,16.21,13.6C508.64,385,519,393.6,522.13,401.58s1.53,9.56-.4,10.8-7.79,3.91-11.53,4a12.67,12.67,0,0,1-8.4-3.06c-1.32-1.29-3.63-3.29-3.63-3.29,0,.46-2.45,1.61-3.61,1.67S490.08,412.07,489,410.77Z"/><path class="cls-11" d="M488.32,409.39c-1.07-1.31-.12-2.26,1.51-2.8a16.39,16.39,0,0,0,3.31-1.32c.54-.37.12-1.22-.85-1.93-.63-.46-3-2.35-4.8-3.49a148.14,148.14,0,0,1-13.21-13.7c-5.62-6.64-8.84-20.31-1.57-25.4a45.34,45.34,0,0,1,5.13-2.43s4.77,3.95,16.22,13.61c13.88,11.72,24.21,20.29,27.37,28.27S523,409.76,521,411s-7.78,3.92-11.53,4a12.72,12.72,0,0,1-8.4-3.07c-1.31-1.29-3.63-3.28-3.63-3.28,0,.45-2.45,1.6-3.61,1.66S489.38,410.69,488.32,409.39Z"/><path class="cls-30" d="M509.86,448.24s43.11,45.12,49.46,47.44,81.63-27.54,111.9-37-24.14-61.55-30.48-61.53-109.12,26.07-119.67,31.56S504.21,442,509.86,448.24Z"/><path class="cls-31" d="M511.91,446.05s42.4,40.08,48.64,42.14,80.33-24.5,110.11-32.91-23.73-54.69-30-54.67S533.33,423.81,523,428.69,506.35,440.52,511.91,446.05Z"/><path class="cls-27" d="M624.34,416s4.17-9.45,6.27-8.41,4.22,8.37,4.22,8.37,8.38-2.12,9.44,1-6.27,5.79-6.27,5.79a14.81,14.81,0,0,1,3.16,5.23c1.06,3.15-7.35-1.55-7.35-1.55s-6.8,4.74-7.32,4.74-1.07-4.71.5-6.29-10.48-.49-10.49-2.07S624.34,416,624.34,416Z"/><path class="cls-27" d="M646.58,436s4.17-9.45,6.27-8.41,4.22,8.38,4.22,8.38,8.38-2.12,9.44,1-6.27,5.78-6.27,5.78A14.92,14.92,0,0,1,663.4,448c1.06,3.14-7.35-1.55-7.35-1.55s-6.8,4.74-7.32,4.74-1.07-4.72.5-6.3-10.48-.49-10.49-2.06S646.58,436,646.58,436Z"/><path class="cls-27" d="M597.33,422.27s4.17-9.45,6.27-8.4,4.22,8.37,4.22,8.37,8.38-2.12,9.44,1-6.28,5.79-6.28,5.79a14.65,14.65,0,0,1,3.16,5.23c1.06,3.14-7.34-1.55-7.34-1.55s-6.8,4.74-7.33,4.74-1.06-4.71.51-6.29-10.49-.49-10.49-2.07S597.33,422.27,597.33,422.27Z"/><path class="cls-27" d="M615.43,449.25s4.17-9.45,6.27-8.41,4.22,8.38,4.22,8.38,8.38-2.12,9.44,1-6.27,5.79-6.27,5.79a14.81,14.81,0,0,1,3.16,5.23c1,3.14-7.35-1.55-7.35-1.55s-6.8,4.74-7.32,4.74-1.07-4.72.5-6.29-10.49-.5-10.49-2.07S615.43,449.25,615.43,449.25Z"/><path class="cls-27" d="M567.54,427.91s4.17-9.45,6.27-8.41,4.22,8.38,4.22,8.38,8.38-2.13,9.44,1-6.27,5.78-6.27,5.78a14.8,14.8,0,0,1,3.16,5.24c1,3.14-7.35-1.55-7.35-1.55s-6.8,4.73-7.32,4.74-1.07-4.72.5-6.3-10.48-.49-10.49-2.06S567.54,427.91,567.54,427.91Z"/><path class="cls-27" d="M582.18,455.59s4.17-9.45,6.27-8.41,4.22,8.38,4.22,8.38,8.38-2.12,9.44,1-6.28,5.78-6.28,5.78A14.86,14.86,0,0,1,599,467.6c1,3.14-7.35-1.55-7.35-1.55s-6.8,4.74-7.33,4.74-1.06-4.72.51-6.3-10.49-.49-10.49-2.06S582.18,455.59,582.18,455.59Z"/><path class="cls-27" d="M538.46,438.39s4.17-9.45,6.27-8.41,4.22,8.38,4.22,8.38,8.38-2.12,9.44,1-6.27,5.79-6.27,5.79a14.81,14.81,0,0,1,3.16,5.23c1.05,3.14-7.35-1.55-7.35-1.55s-6.8,4.74-7.32,4.74-1.07-4.72.5-6.29-10.48-.5-10.49-2.07S538.46,438.39,538.46,438.39Z"/><path class="cls-17" d="M402.18,217.65s57,20.11,72.17,2.74l2.28-7S540,210.19,541.92,178s-14.21-42.22-34.34-44.17S471.4,148,455.3,146.05s-62.4-3.84-74.47-1.79-22.1,10.13-20.05,24.21,24.25,32.12,32.3,34.11a64.21,64.21,0,0,0,14.09,2Z"/><path class="cls-18" d="M376.9,174.46l22.18,14s-6,2-4,4,14.11,6,14.1,4,10-16.13,20.07-18.17,34.23,5.93,38.27,12,8.08,8,10.08,6l8-8.07c2-2,2-10.07-6.06-8s-12.09-4-14.11-6-6.06-8-8.07-6,4.05,6-8,4-22.14-1.95-26.16,2.09-8,8.07-16.07,8.1S376.89,170.43,376.9,174.46Z"/><path class="cls-32" d="M556,162.16a38.51,38.51,0,0,0-13.13,21.56c-2.7,13.72,4,37.84,11.73,45.23s26.26,19.09,47.42,15.53,43.34-26.85,42.9-45-4-39.35-37.7-52.18C607.25,147.25,575.22,140.45,556,162.16Z"/><path class="cls-33" d="M569.83,167.89S552,183.5,552.37,198.66,563,228,572.53,231.93s44.57,7.63,54.63-15.37-1-40.95-8.81-49.86S584.73,156.9,569.83,167.89Z"/><path class="cls-34" d="M578.44,148s6-65.39,1-81.95-10.1-40.72-7.18-45.35,11.94-7.88,13.72,2.7-.92,86.51,5.56,103,7.32,20.3,7.32,20.3Z"/><path class="cls-35" d="M581.65,31s-4.55.12-4.63-2.92,3-3.1,4.52-1.62S581.65,31,581.65,31Z"/><path class="cls-36" d="M663.14,136.78l-1.3-53.08,1.44-3.07c1.44-3.07.21-53.11-1.49-60.65s-6.17-4.4-7.62-1.33-2.62,16.75-2.17,35,3.73,28.74,3.73,28.74L655.55,137l-24.26.6,1.19,48.52c.11,4.55,4.7,5.95,4.7,5.95s41,.52,44,.44,4.4-6.17,4.4-6.17l-1.22-50Zm-6.5,5.91c2.85-.07,3,4.35.11,4.42S653.79,142.76,656.64,142.69Zm.74,22.42c-2.85.07-3-4.35-.11-4.42S660.23,165,657.38,165.11ZM647.9,142c2.85-.07,3,4.36.11,4.43S645.05,142,647.9,142Zm.81,33.24c-2.85.07-3-4.36-.1-4.43S651.56,175.12,648.71,175.19Zm-9.91-33c2.85-.07,3,4.35.11,4.42S636,142.25,638.8,142.18Zm1,23.75c-2.85.07-3-4.36-.11-4.43S642.61,165.86,639.76,165.93Zm-1.13-15.22c2.85-.06,3,4.36.11,4.43S635.78,150.78,638.63,150.71Zm.28,19c2.85-.07,3,4.36.1,4.43S636.06,169.74,638.91,169.67Zm.76,8c2.85-.07,3,4.36.11,4.43S636.82,177.69,639.67,177.62Zm1.24,11.8c-2.86.07-3-4.36-.11-4.43S643.75,189.35,640.91,189.42Zm5.51-38.14c2.85-.07,3,4.36.11,4.43S643.57,151.35,646.42,151.28Zm1,10c2.85-.07,3,4.36.1,4.42S644.58,161.38,647.43,161.31Zm1.17,16.85c2.85-.07,2.95,4.36.11,4.43S645.75,178.23,648.6,178.16Zm.83,10.86c-2.85.07-2.95-4.36-.11-4.43S652.28,189,649.43,189Zm7.05-37.41c2.85-.07,3,4.35.11,4.42S653.63,151.68,656.48,151.61Zm1,18.18c2.85-.07,3,4.35.1,4.42S654.65,169.86,657.5,169.79Zm.36,7.2c2.85-.07,3,4.35.11,4.42S655,177.06,657.86,177Zm.47,11.24c-2.86.07-3-4.36-.11-4.42S661.17,188.16,658.33,188.23Zm17.84-45.83c2.85-.07,3,4.35.11,4.42S673.32,142.47,676.17,142.4Zm-9.31,22.48c-2.85.07-3-4.35-.11-4.42S669.71,164.81,666.86,164.88Zm0,9.11c-2.85.07-2.95-4.36-.11-4.43S669.74,173.92,666.89,174Zm-1.14-31.15c2.85-.07,3,4.36.11,4.43S662.9,142.91,665.75,142.84Zm0,8.73c2.86-.07,3,4.35.11,4.42S662.93,151.64,665.77,151.57Zm1.2,25.76c2.86-.07,3,4.36.11,4.43S664.13,177.4,667,177.33Zm.65,10.86c-2.85.07-3-4.35-.11-4.42S670.47,188.12,667.62,188.19ZM676,151.32c2.85-.07,3,4.35.11,4.42S673.16,151.39,676,151.32Zm1,25.58c2.85-.07,3,4.35.1,4.42S674.17,177,677,176.9Zm.46,11.43c-2.85.07-3-4.36-.1-4.42S680.33,188.26,677.48,188.33Zm-.36-15c-2.85.07-3-4.36-.11-4.43S680,173.29,677.12,173.36Zm-.21-8.34c-2.85.07-2.95-4.36-.1-4.43S679.76,165,676.91,165Z"/><polygon class="cls-37" points="63.3 342.21 105.47 340.32 104.33 329.15 63.93 332.72 63.3 342.21"/><polygon class="cls-38" points="64.51 444.27 105.84 443.26 105.03 339.9 62.86 341.79 64.51 444.27"/><polygon class="cls-39" points="114.74 419.78 105.84 443.26 105.03 339.9 110.36 346.66 114.74 419.78"/><path class="cls-40" d="M77.31,412.6a2.19,2.19,0,0,0-.42,3.95A71.12,71.12,0,0,0,90,424c-5.6,2.44-12.35,3.81-12.39,11.28a2.17,2.17,0,0,0,2.2,2.1l9.3-.22c1.45,0,7.17-1,8.1,0,1.87,2.06,4.83-1.07,3-3.12s-4.56-1.36-7-1.31L82.47,433c2.16-4.08,10.28-4.94,13.65-7.48a2.18,2.18,0,0,0-.61-3.92,66.9,66.9,0,0,1-12.75-6.3A84.71,84.71,0,0,1,94,412.71c2.72-.44,1.46-4.56-1.24-4.12A83.55,83.55,0,0,0,77.31,412.6Z"/><path class="cls-40" d="M75.78,398.23c-2.77-.13-2.66,4.17.1,4.3A67.73,67.73,0,0,0,93.67,401c2.71-.59,1.46-4.71-1.24-4.12A63.82,63.82,0,0,1,75.78,398.23Z"/><path class="cls-40" d="M92.44,377.41c.26.7,2.54,5.6,2.19,6s-6.1.51-6.73.57a131.55,131.55,0,0,1-13.76.53c-2.77,0-2.66,4.27.11,4.3,6.87.08,14.88.33,21.56-1.51,5.68-1.57,2.12-7.41.76-11.15C95.63,373.58,91.49,374.8,92.44,377.41Z"/><path class="cls-40" d="M77.27,357,72.71,353c-2.07-1.84-5,1.27-3,3.12l8,7.1c.43.37.87.83,1.36,1.28a69.79,69.79,0,0,1-8.89-.36c-2.75-.28-2.62,4,.1,4.31a71.21,71.21,0,0,0,25.55-2c2.68-.7,1.44-4.83-1.25-4.12a70.12,70.12,0,0,1-7.5,1.51,39.16,39.16,0,0,0,5.48-7.43c1.46-2.36-2.32-4.43-3.77-2.08s-4.45,7.69-7.54,6.3C79.87,360,78.4,358,77.27,357Z"/><path class="cls-41" d="M116.05,442.32s2.89,21.28,9.37,27.45,31.24,15.85,49.1,2c0,0,12.28-7,8.84-34.62Z"/><path class="cls-42" d="M116.86,443.09s7.25,5.36,35.63,1.5,29.95-4.69,30.68-7.08-2.51-5.48-8.89-7.69-32.61-7.12-52.83,6.83C121.45,436.65,114.47,442.35,116.86,443.09Z"/><path class="cls-43" d="M122.3,439s-3.15.87-3.11,2.45,5.57,1.44,8,2.18,52.1-4.44,52.85-6,.69-4-2.49-4.69-24.64-4.93-33.28-2.35S122.3,439,122.3,439Z"/><path class="cls-17" d="M128.27,424.61s-5.42,4.88-6.15,7.27,1,8.68,1,9.47a3.67,3.67,0,0,0,1,1.81s22,0,22.77-.81,3.64-12.74-4.36-16.5S128.27,424.61,128.27,424.61Z"/><path class="cls-44" d="M128.31,426.2s2.31-2.43,3.92-1.68a7.87,7.87,0,0,0,3.18.71l.83,1.56-3.11,2.45s-2.33,1.64-1.52,2.41a11.37,11.37,0,0,0,3.2,1.51l.85,2.35-2.33,1.64-4,.09,2.41,1.53s.06,2.37-.71,3.18-4.74.11-4.74.11-1.58,0-2.49-4.68A11.42,11.42,0,0,1,128.31,426.2Z"/><path class="cls-17" d="M149.08,434.39s3.78-7.21,10.08-8.16,10.28-.25,13.5,2,4.18,9.39,4.18,9.39l-28.38,3.86Z"/><path class="cls-44" d="M152.18,431.94l-2.31,2.43-.64,6.34,17.34-2.8-.1-4c0-.79-4.74.12-4.76-.67s0-.79-.85-2.35-1.62-1.55-2.41-1.53S152.18,431.94,152.18,431.94Z"/><path class="cls-17" d="M135.41,457.66a23,23,0,0,0-5,19.9c2.66,11.8,10.7,17.14,18.59,16.16s15.64-7.5,12.14-20.87S145.63,455,141.68,455.14A9.44,9.44,0,0,0,135.41,457.66Z"/><path class="cls-45" d="M38.9,55.46l50.34-1.23.13,5.27L39,60.73Z"/><path class="cls-45" d="M126,82.47a79.65,79.65,0,0,1-10.52-.62c-1.37,0-10-1.13-14.41-7.13a42.44,42.44,0,0,1-2.4,7.65l-4.75-.82a51.52,51.52,0,0,0,3.94-20.83c0-.87,0-1.81-.12-2.69l4.67-.28a80.22,80.22,0,0,1-.39,10.9,22.81,22.81,0,0,0,4.52,5.17l-.5-20.5-11.71.29-.1-4.45,11.7-.29L105.74,43,96,43.23l-.11-4.45,9.78-.24-.14-5.77,4.67-.12.14,5.77,7.31-.18.11,4.46-7.31.17.14,5.89,8.19-.2.11,4.45-8.19.2.17,6.92,7.31-.18.11,4.45-7.31.18.29,11.82c3,1,7.35,1.41,12.84,1.23l21.05-.52L144,82Zm-5.55-47a1,1,0,0,1,1.07-1.13l19.35-.47A1,1,0,0,1,142,34.9l.45,18.46c0,.83-.35,1.22-1.12,1.24L125.55,55l.27,10.71c0,1.76.21,4.18,2.79,4.28l7.7-.19c2.64-.06,4-1.8,3.93-3.29l-.46-5.26,4.8.32c.17,4.78-.3,8.09-1.58,9.88a6.24,6.24,0,0,1-4.82,2.76l-10.28.25c-4,.1-6.58-1.6-6.7-6.27Zm5.25,3.22a.44.44,0,0,0-.48.51l.27,11.37,11.77-.28c.33,0,.49-.18.48-.56l-.27-10.83a.43.43,0,0,0-.51-.48Z"/><path class="cls-45" d="M153.81,54.68l-1.16,2.06-4.33-1.49a51.53,51.53,0,0,0,7.18-23.38l4.41.33a73.19,73.19,0,0,1-2,11.49H158l.94,38.3-4.45.11Zm24.62,24.09a33.23,33.23,0,0,0,9.44-12.06,68,68,0,0,1-4.29-15.56,35.27,35.27,0,0,1-1.92,6.64l-4-.62.57,23.09-4.45.11L173.74,78l-6.93.17.06,2.37-4.45.1-.69-28.3c-.07-.49.2-.77.75-.79l4.61-.11-.22-9-6.26.15-.11-4.23,6.27-.15-.17-6.76,4.46-.11.16,6.76,6.32-.15.11,4.23-6.33.15.22,9,5-.12c.66,0,1,.3,1,.85l.1,4.18a53.53,53.53,0,0,0,3.26-21.64l-.08-3.46,4.23-.1.08,3.46v2.2l13.8-.34.11,4.67-2.75.07c.12,4.62.32,13-3.93,25.89a87.83,87.83,0,0,0,7.79,12.62l-4.52,1.76a100.61,100.61,0,0,1-5.51-9.54,34.46,34.46,0,0,1-7.9,9.87Zm-11.73-5,6.93-.17-.42-17.15c0-.44-.24-.65-.73-.64l-5.55.14c-.55,0-.71.29-.65.67ZM187,41.33c.4,12,2.07,17.21,2.9,19.72a65.49,65.49,0,0,0,2.15-19.85Z"/><path class="cls-45" d="M210.09,78l.06,2.53-4.67.11L205,59.2c-.06-.49.2-.77.75-.79l7.2-.17-.21-8.85-8.52.21-.11-4.45,8.52-.21-.19-7.75-7.74.79-.93-4.37c3.9-.32,14.53-1.57,20.05-3.19l1,4.38L217,36.47l.21,8.35,7.91-.19.11,4.45-7.91.19.21,8.85,7.15-.17c.66,0,1,.3,1,.91l.52,21.27-4.67.11-.06-2.53ZM210,73.54l11.43-.28-.25-10.11c0-.44-.23-.66-.73-.64l-10.06.24c-.55,0-.71.3-.64.68Zm18.79-31.86-4.56.11-.11-4.45,4.56-.11-.17-7,4.67-.11.18,7,12.09-.29-.18-7,4.68-.11.17,7,3.85-.09.1,4.45-3.84.1.86,35.17a2,2,0,0,1-2.15,2.25l-17,.42a1.94,1.94,0,0,1-2.26-2.15Zm5,13.68,12.09-.3-.33-13.79-12.09.3ZM246,59.57l-12.09.3.34,13.85a.71.71,0,0,0,.79.75l10.61-.26a.67.67,0,0,0,.69-.79Z"/><path class="cls-45" d="M265,67.46A32.46,32.46,0,0,1,263,80a13.69,13.69,0,0,0-3.89-1.61,23.47,23.47,0,0,0,1.54-9.06c0-.61,0-1.26-.11-1.87Zm4.83-7-.09-3.74-9.78.24-.11-4.23,9.79-.24-.09-3.68-10,.24c-.38,0-.55-.21-.56-.59l-.44-17.92c0-.38.15-.55.54-.56l24.34-.6c.39,0,.61.15.62.54l.44,17.91a.55.55,0,0,1-.59.62l-10.11.25.09,3.68,9.45-.23.1,4.23-9.45.24L274.1,60l10.15-.91.33,4.44-25.14,2.11-.66-4.39ZM269.49,45l-.28-11.43-6.54.16-.16.17.27,11.05.17.21ZM265,43.21a36.62,36.62,0,0,0-1.21-7l3.56-.47A64.09,64.09,0,0,1,268.56,43Zm2.13,35.31c.12-1.87.13-3.8.08-5.78,0-1.75-.14-3.51-.29-5.27l4.18.07c.15,1.64.19,3.29.23,4.83.05,2.25.05,4.4-.06,6.43Zm7.47-.68a97.64,97.64,0,0,0-2.07-10.45l4.16-.76a105.94,105.94,0,0,1,2.08,10.78Zm-1.15-44.4.28,11.43,6.71-.17c.16,0,.22-.06.21-.22l-.27-11-.22-.16Zm2.47,2,3.48.47-.81,7.5L275,42.69Zm5.37,39.74a42.48,42.48,0,0,0-2.57-8.46l3.61-1.08A44.16,44.16,0,0,1,285,74.4Zm10,1,.06,2.25-4.29.11-.63-25.78c-.07-.44.15-.72.7-.73l6.1-.15-.57-23.3,4.45-.11.19,7.86,10.83-.27.1,4.24-10.83.26.28,11.21,9.29-.23a.79.79,0,0,1,.9.86L308.47,78l-4.24.11-.05-2.26Zm-.1-4.23,12.92-.32-.38-15.17c0-.38-.23-.6-.67-.58l-11.71.28a.49.49,0,0,0-.53.62Z"/></g><path class="cls-1" d="M702.11,23.16C684.47,8.6,661.73,14,661.5,14.09l-.46.12h-.47L63.66,20.73a83.05,83.05,0,0,0-10.19-.41c-13.19.33-23.89,4.22-31.9,11.64C4.57,47.74,5,74.34,5,74.61c0,3.63.64,355.33,1.81,403.07,1.08,44.16,69.52,50.66,70.22,50.71,5.23,0,556.44,2.48,596.2,1.5,36.3-.89,43-53.5,43.06-54l6.81-378.7C725,61.08,717.94,36.22,702.11,23.16Z"/></g></svg>