<svg id="圖層_1" data-name="圖層 1" xmlns="http://www.w3.org/2000/svg" xmlns:xlink="http://www.w3.org/1999/xlink" viewBox="0 0 726 546"><defs><style>.cls-1,.cls-7{fill:none;}.cls-2{clip-path:url(#clip-path);}.cls-3{clip-path:url(#clip-path-2);}.cls-4{fill:#929292;}.cls-5{opacity:0.3;}.cls-6{fill:#dbe4ea;}.cls-7{stroke:#dbe4ea;stroke-miterlimit:10;stroke-width:0.25px;}.cls-8{fill:#264458;}.cls-9{fill:#1d2c38;}.cls-10{fill:#fcebb9;}</style><clipPath id="clip-path"><path class="cls-1" d="M721.69,100.64,714.36,476.3c-.07.53-6.79,52.71-42.8,53.54-39.45.91-586.26-2.37-591.44-2.39-.69-.06-68.58-6.6-69.59-50.41C9.45,429.67,9.35,80.79,9.35,77.18c0-.26-.41-26.65,16.49-42.28,8-7.34,18.57-11.2,31.65-11.5a82,82,0,0,1,10.12.43l592.15-5.57h.47l.45-.11c.23-.07,22.8-5.41,40.27,9.06C716.64,40.18,723.61,64.85,721.69,100.64Z"/></clipPath><clipPath id="clip-path-2"><rect class="cls-1" x="-6.06" y="3.26" width="744.4" height="546.64" transform="translate(-6.25 8.48) rotate(-1.32)"/></clipPath></defs><title>act_v1</title><g class="cls-2"><g class="cls-3"><path class="cls-4" d="M770.64,558.38c-.07.58-795.54,19.22-801.24,19.2C-31.36,577.51-52-4.1-52-4.1L749.91-28.94Z"/><g class="cls-5"><circle class="cls-6" cx="1.02" cy="26.38" r="6.19"/><circle class="cls-6" cx="31.78" cy="44.86" r="6.19"/><circle class="cls-6" cx="2.05" cy="44.3" r="6.19"/><circle class="cls-6" cx="30.91" cy="60.97" r="6.19"/><circle class="cls-6" cx="38.73" cy="78.12" r="6.19"/><circle class="cls-6" cx="224.3" cy="123.28" r="6.19"/><circle class="cls-6" cx="170.85" cy="70.42" r="6.19"/><circle class="cls-6" cx="255.29" cy="162.61" r="6.19"/><circle class="cls-6" cx="231.76" cy="190.57" r="6.19"/><circle class="cls-6" cx="77.74" cy="8.13" r="6.19"/><circle class="cls-6" cx="139.77" cy="13.78" r="6.19"/><circle class="cls-6" cx="124.9" cy="169.56" r="6.19"/><circle class="cls-6" cx="222.81" cy="38.15" r="6.19"/><circle class="cls-6" cx="243.82" cy="36.43" r="6.19"/><circle class="cls-6" cx="254.44" cy="13.9" r="6.19"/><circle class="cls-6" cx="213.47" cy="8.65" r="6.19"/><circle class="cls-6" cx="359.41" cy="2.83" r="6.19"/><circle class="cls-6" cx="319.57" cy="47.07" r="6.19"/><circle class="cls-6" cx="302.01" cy="90.8" r="6.19"/><circle class="cls-6" cx="292.68" cy="115.77" r="6.19"/><circle class="cls-6" cx="310.68" cy="145.06" r="6.19"/><circle class="cls-6" cx="386.69" cy="166.84" r="6.19"/><circle class="cls-6" cx="458.31" cy="159" r="6.19"/><circle class="cls-6" cx="498.04" cy="164.28" r="6.19"/><circle class="cls-6" cx="526.99" cy="76.96" r="6.19"/><circle class="cls-6" cx="557.21" cy="45.32" r="6.19"/><circle class="cls-6" cx="613.12" cy="0.71" r="6.19"/><circle class="cls-6" cx="654.58" cy="26.99" r="6.19"/><circle class="cls-6" cx="639.92" cy="89.23" r="6.19"/><circle class="cls-6" cx="729.67" cy="62.41" r="6.19"/><circle class="cls-6" cx="720.59" cy="98.51" r="6.19"/><circle class="cls-6" cx="704.04" cy="24.62" r="6.19"/><circle class="cls-6" cx="493.48" cy="19.55" r="6.19"/><circle class="cls-6" cx="463.93" cy="26.42" r="6.19"/><circle class="cls-6" cx="434.44" cy="35.76" r="6.19"/><circle class="cls-6" cx="419.06" cy="67.06" r="6.19"/><circle class="cls-6" cx="395.47" cy="63.89" r="6.19"/><circle class="cls-6" cx="381.42" cy="98.88" r="6.19"/><circle class="cls-6" cx="410.02" cy="104.41" r="6.19"/><circle class="cls-6" cx="160.28" cy="196.96" r="6.19"/><circle class="cls-6" cx="374.62" cy="233.96" r="6.19"/><circle class="cls-6" cx="397.98" cy="334.93" r="6.19"/><circle class="cls-6" cx="353.35" cy="332.24" r="6.19"/><circle class="cls-6" cx="418.73" cy="214.38" r="6.19"/><circle class="cls-6" cx="449.75" cy="217.38" r="6.19"/><circle class="cls-6" cx="488.24" cy="222.69" r="6.19"/><circle class="cls-6" cx="506.08" cy="244.56" r="6.19"/><circle class="cls-6" cx="558.82" cy="223.54" r="6.19"/><circle class="cls-6" cx="550.55" cy="186.6" r="6.19"/><circle class="cls-6" cx="620.36" cy="154.04" r="6.19"/><circle class="cls-6" cx="668.1" cy="130.67" r="6.19"/><circle class="cls-6" cx="616.12" cy="185.09" r="6.19"/><circle class="cls-6" cx="656.42" cy="215.11" r="6.19"/><circle class="cls-6" cx="705.97" cy="216.45" r="6.19"/><circle class="cls-6" cx="720.86" cy="271.81" r="6.19"/><circle class="cls-6" cx="720.53" cy="311.43" r="6.19"/><circle class="cls-6" cx="725.93" cy="331.11" r="6.19"/><circle class="cls-6" cx="511.93" cy="284.04" r="6.19"/><circle class="cls-6" cx="560.5" cy="296.54" r="6.19"/><circle class="cls-6" cx="632.29" cy="296.13" r="6.19"/><circle class="cls-6" cx="554.78" cy="370.94" r="6.19"/><circle class="cls-6" cx="126.06" cy="216.31" r="6.19"/><circle class="cls-6" cx="73.2" cy="232.38" r="6.19"/><circle class="cls-6" cx="61.01" cy="184.16" r="6.28"/><circle class="cls-6" cx="7.26" cy="194.19" r="6.28"/><circle class="cls-6" cx="1.44" cy="234.03" r="6.19"/><circle class="cls-6" cx="30.55" cy="261.83" r="6.19"/><circle class="cls-6" cx="77.79" cy="353.43" r="6.19"/><line class="cls-7" x1="2.86" y1="25.72" x2="31.78" y2="44.86"/><line class="cls-7" x1="0.79" y1="43.1" x2="29.7" y2="62.24"/><path class="cls-7" d="M169.38,71.38s54,50.44,54.92,51.9l-35.53,41.05"/><path class="cls-7" d="M252.87,162.1C248.53,158.67,225,126,225,126"/><polyline class="cls-7" points="254.53 166.24 231.76 190.57 190.47 164.27 159.18 162.8 124.9 169.56"/><polyline class="cls-7" points="243.82 36.43 224.02 36.88 220.28 35.73 214.68 7.39 255.65 12.63 277.99 -38.63 342.33 -40.11 369.35 -49.4 379.93 -19.93 359.41 2.83 322.02 45.77 304.45 89.5 292.68 115.77 313.21 147.48 386.69 166.84 454.63 160.33 499.34 166.73"/><path class="cls-7" d="M491,18.37c-1.21,1.27-24.58,8-24.58,8l-29.49,9.35-16.7,27.61-11.4,42.35-27.39-6.79,15.23-37.49,18.7,5.76"/><polyline class="cls-7" points="678.66 -56.5 614.42 3.16 654.58 26.99 705.33 27.07 744.64 13.79"/><line class="cls-7" x1="639.92" y1="89.23" x2="654.58" y2="26.99"/><polyline class="cls-7" points="729.66 62.41 720.59 98.51 744.7 123.96"/><polyline class="cls-7" points="374.62 233.96 418.73 214.38 449.75 217.38 488.24 222.69 671.78 129.34"/><path class="cls-7" d="M490.8,226.34s14.1,20.72,16.57,20.67,51.45-23.47,51.45-23.47l-8.13-30.76"/><polyline class="cls-7" points="619.8 156.53 617.3 182.59 657.72 217.56 705.97 216.45"/><polyline class="cls-7" points="555.96 368.44 513.12 281.53 560.5 296.54 632.29 296.13"/><path class="cls-7" d="M725.93,331.11c-1.29-2.44-5.4-19.68-5.4-19.68l13.27-15.16-11.76-27,26.62-26.61"/><line class="cls-7" x1="354.59" y1="332.21" x2="397.98" y2="334.93"/><polyline class="cls-7" points="-22.06 174.77 5.95 191.7 61.04 185.42 75.91 231.53 129.52 215.23 163 196.89"/><line class="cls-7" x1="1.41" y1="232.79" x2="6.74" y2="195.53"/><path class="cls-7" d="M30.52,260.59c1.24,0,42.68-28.21,42.68-28.21"/></g><path class="cls-8" d="M763.82,366.35l7.64,192.81L-30.75,577.53-35.5,411.45S317.65,406.72,763.82,366.35Z"/><path class="cls-9" d="M-37.88,400.84l7.28,176.74,802.06-18.42-4.08-107.65S409.6,417.9-37.88,400.84Z"/><path class="cls-9" d="M378.54,308c3.9-16.24,5.68-40-5.25-59.28a62.77,62.77,0,0,0-40.82-30.22c2.65-10.79,5.89-24.87,6.44-31.26.94-11.08,2.84-19.5-2.94-23.55s-10.36-2.15-11.58.27-6.92,43.61-6.79,47.74a43.48,43.48,0,0,1-.38,5.39c-3.31,0-6.73.21-10.2.57a48.81,48.81,0,0,1-.68-5.7c-.06-4.14-7.65-45-9-47.38s-6-4-11.58.26-3.3,12.64-1.85,23.67c.85,6.49,4.9,20.9,8.08,31.65a106.15,106.15,0,0,0-17.33,5.51c-16,6.74-30.55,31.2-30.87,43s-6.76,43.81,21.05,66.49a45.27,45.27,0,0,0,14.57,9.31c-4.16,7.73-12.09,22.51-14.58,27.55-3.43,7-10.17,19.52-11.56,30.32s-.9,13,.33,14.49,4.89,4.52,7.12,4.32,4.12-2.93,4.83-4.74,1.4-3.92,1.4-3.92a10.93,10.93,0,0,0,2.82,1.18c.7,0,2.7.14,3.25-1.67s-.07-3-1.08-3.56a7.6,7.6,0,0,1-2.05-1.48c-.35-.44.15-1.46.69-2.48s3.78-6.33,3.78-6.33.6,0,.77,1a57.84,57.84,0,0,0,4.34,9.18c.87,1.13,1.52,1.16,1.54,2.21s-1,28.18-.64,30.81-.5,1.91-1.68,2.48a17.94,17.94,0,0,0-7.87,9c-2.31,5.69,5.62,6.15,6.23,6.34s17.54.29,19.82-.46,7.66-2.72,8.31-7.12,2.09-28,2.09-28a1.12,1.12,0,0,1,1.13-1.26c1.24,0,15.13-.5,15.13-.5a1.07,1.07,0,0,1,.84.91c.06.75,2.74,27.13,3,28a10.1,10.1,0,0,0,7,6.41c5.06,1.48,21.93.2,21.93.2s5.24-1.57,5.23-4.36-.35-3.94-2-5.92-7.53-5.62-7.53-5.62a5.62,5.62,0,0,1-.28-2.38c0-1.76-1.8-31.28-1.8-31.28s1.58-2.65,2.48-4.57S355,397,355,395.9s.76-.94.95-.46,4.8,7.1,5.22,7.54,1.11.87.63,1.37-3.19,2.5-3.28,3.59c0,0-.45,3,2.5,3s3-1.3,3-1.3.56-.09.78,1.06,3.34,7.21,5.33,7.54,7.31-2,8.29-5.08.8-8.95.07-11.74-8.81-26.93-17.3-38.85a117.06,117.06,0,0,1-11.88-20.5c.64-.31,1.24-.63,1.8-1C365.31,332.44,374.64,324.25,378.54,308Z"/><path class="cls-9" d="M521.76,246.52c-5.77-4.86-23.69-21.59-28.17-18.54a60.11,60.11,0,0,0-18.54-5.67c-15.46-2-36.19,1.13-52,7.6-4-4.17-22,14.25-27.66,19.52-8,7.43-28.06,53.95-17.55,68.74,3.33,4.69,8.69-.56,14.46-9.9a56.75,56.75,0,0,0,19.94,31.49,45.21,45.21,0,0,0,15.63,9.7c-3.11,5.75-13.4,24.85-16.3,30.73-3.43,6.95-10.17,19.52-11.57,30.31s-.89,13,.34,14.5,4.88,4.52,7.12,4.32,4.12-2.94,4.83-4.75,1.4-3.92,1.4-3.92a10.58,10.58,0,0,0,2.82,1.18c.7,0,2.69.14,3.25-1.66s-.07-3-1.08-3.57a7.41,7.41,0,0,1-2.05-1.47c-.35-.44.15-1.46.69-2.48s3.78-6.33,3.78-6.33.6,0,.77,1a59.5,59.5,0,0,0,4.33,9.18c.88,1.13,1.53,1.16,1.55,2.21s-1,28.17-.64,30.81-.5,1.9-1.69,2.48a17.89,17.89,0,0,0-7.86,9c-2.31,5.68,5.62,6.15,6.22,6.33s17.55.3,19.83-.45,7.66-2.72,8.3-7.12,2.1-28,2.1-28a1.12,1.12,0,0,1,1.13-1.26c1.23,0,15.13-.49,15.13-.49a1.08,1.08,0,0,1,.84.91c.05.75,2.74,27.12,3,28a10.11,10.11,0,0,0,7,6.42c5.07,1.48,21.93.2,21.93.2s5.25-1.57,5.24-4.36-.36-3.94-2.05-5.92-7.52-5.62-7.52-5.62a5.65,5.65,0,0,1-.28-2.39c0-1.75-1.81-31.27-1.81-31.27s1.59-2.66,2.49-4.57,2.65-6.24,2.67-7.34.75-.94.95-.46,4.8,7.11,5.22,7.55,1.1.87.63,1.36-3.19,2.51-3.28,3.59c0,0-.46,3,2.5,3.05s3-1.31,3-1.31.56-.08.77,1.07,3.35,7.21,5.33,7.54,7.32-2,8.3-5.09.8-8.95.06-11.73-8.8-26.94-17.3-38.85S496.67,351.32,495,348.15l-.28-.54a25.73,25.73,0,0,0,3.79-1.85c14.17-8.7,23.5-16.89,27.4-33.12.58-2.41,1.1-5,1.55-7.67,6.25,9.19,11.9,14.29,15,9.42C552.27,299.13,530.13,253.58,521.76,246.52Z"/><path class="cls-9" d="M233.34,303.5c4-16.24,5.86-40-5.35-59.28a62.6,62.6,0,0,0-6.21-8.82l.29-.12a11.16,11.16,0,0,0,8.42-9.22c.94-6.09-1.5-14.35-8.36-15.46-4-2.44-9.43-1.08-13.27,1.06a12.92,12.92,0,0,0-2.34,1.67,8.26,8.26,0,0,0-3.65,5.41,7.48,7.48,0,0,0-.36,1.25,63.09,63.09,0,0,0-21.28-6.78c-16.19-2-38,1.27-54.43,8l-1.21.54a8.7,8.7,0,0,0-.41-1.25,8.38,8.38,0,0,0-3.9-5.24,13.48,13.48,0,0,0-2.42-1.55c-3.93-2-9.46-3.07-13.3-.46-6.8,1.43-8.86,9.8-7.64,15.83a11.12,11.12,0,0,0,8.84,8.82l.23.1c-7,9.17-11.71,19.65-11.89,26.2-.33,11.77-7,43.81,21.56,66.48A45.89,45.89,0,0,0,134.53,341c-3.81,7.07-12.78,23.74-15.46,29.17-3.42,6.95-10.16,19.52-11.56,30.31s-.9,13,.33,14.5,4.89,4.52,7.13,4.32,4.12-2.94,4.82-4.75,1.41-3.92,1.41-3.92a10.58,10.58,0,0,0,2.82,1.18c.69,0,2.69.14,3.25-1.66s-.07-3-1.08-3.57a7.25,7.25,0,0,1-2-1.47c-.35-.44.15-1.46.69-2.48s3.78-6.33,3.78-6.33.59,0,.77,1a59.5,59.5,0,0,0,4.33,9.18c.87,1.13,1.52,1.16,1.55,2.21s-1,28.17-.64,30.81-.51,1.9-1.69,2.48a17.89,17.89,0,0,0-7.86,9c-2.32,5.68,5.62,6.15,6.22,6.33s17.55.3,19.82-.45,7.66-2.72,8.31-7.12,2.1-28,2.1-28a1.11,1.11,0,0,1,1.13-1.26c1.23,0,15.12-.49,15.12-.49a1.08,1.08,0,0,1,.85.91c0,.75,2.74,27.12,3,28a10.09,10.09,0,0,0,7,6.42c5.07,1.48,21.93.19,21.93.19s5.25-1.56,5.23-4.35-.35-3.94-2-5.92-7.53-5.62-7.53-5.62a5.88,5.88,0,0,1-.28-2.39c0-1.75-1.8-31.27-1.8-31.27s1.58-2.66,2.49-4.57,2.64-6.24,2.67-7.34.75-.94.95-.46,4.8,7.11,5.22,7.55,1.1.87.63,1.36-3.2,2.51-3.29,3.59c0,0-.45,3,2.5,3.05s3-1.31,3-1.31.56-.08.77,1.07,3.34,7.21,5.33,7.54,7.32-2,8.29-5.09.81-8.95.07-11.73-8.8-26.94-17.3-38.85-11.21-19.48-12.93-22.65l0-.07a22.41,22.41,0,0,0,2.73-1.37C219.75,327.93,229.33,319.74,233.34,303.5Z"/><path class="cls-9" d="M680.24,333.85c3.67-15.27,5.35-37.61-4.93-55.74a59.8,59.8,0,0,0-3.51-5.45,14.94,14.94,0,0,0,0-1.64,26.69,26.69,0,0,0-.27-3.33,2.72,2.72,0,0,0,.17-.94,134.31,134.31,0,0,0-2.87-29.25l-.09-.31a3.24,3.24,0,0,0-2.3-3.21c-2.12-.67-4.49.8-5.92,2.23l-.3.3a27.39,27.39,0,0,0-2.9,1.73,17.47,17.47,0,0,0-3.78,3.85c-3.61,2.53-9.25,6.69-12.12,8.8a53.67,53.67,0,0,0-9-2c-10.74-1.38-24.18-.14-36.48,3.05-3.88-2.61-12.82-8.57-15.31-10a16.88,16.88,0,0,0-1.82-1.4,26.57,26.57,0,0,0-3-1.6l-.32-.29c-1.5-1.36-3.92-2.72-6-1.95a3.24,3.24,0,0,0-2.16,3.31c0,.1,0,.2-.07.32a134.05,134.05,0,0,0-1.53,29.34,3.33,3.33,0,0,0,.1.58c-7.18,9-12.15,19.9-12.33,26.51-.29,11.07-6.36,41.2,19.79,62.53a42.54,42.54,0,0,0,14.88,9.17c-3.92,7.28-11.36,21.14-13.7,25.88-3.22,6.54-9.56,18.36-10.87,28.51s-.85,12.25.31,13.63,4.6,4.25,6.7,4.06,3.87-2.76,4.54-4.46,1.32-3.69,1.32-3.69a9.87,9.87,0,0,0,2.65,1.11c.65,0,2.53.13,3.06-1.57s-.07-2.81-1-3.35a7.17,7.17,0,0,1-1.93-1.38c-.32-.41.15-1.37.65-2.34s3.56-5.95,3.56-5.95.56,0,.72,1a55.4,55.4,0,0,0,4.08,8.64c.82,1.05,1.43,1.09,1.45,2.07s-.94,26.5-.6,29-.47,1.8-1.59,2.34a16.87,16.87,0,0,0-7.39,8.46c-2.18,5.35,5.28,5.78,5.85,6s16.5.28,18.64-.43,7.21-2.55,7.81-6.69,2-26.36,2-26.36a1,1,0,0,1,1.06-1.18c1.16,0,14.22-.47,14.22-.47a1,1,0,0,1,.79.86c.06.7,2.58,25.5,2.79,26.34a9.49,9.49,0,0,0,6.56,6c4.76,1.39,20.62.18,20.62.18s4.93-1.47,4.92-4.1-.33-3.7-1.92-5.56-7.08-5.29-7.08-5.29a5.27,5.27,0,0,1-.26-2.24c0-1.66-1.7-29.42-1.7-29.42s1.49-2.49,2.34-4.29,2.49-5.87,2.51-6.9.71-.88.9-.43,4.51,6.68,4.9,7.09,1,.82.59,1.29-3,2.35-3.08,3.37c0,0-.43,2.86,2.35,2.87s2.85-1.23,2.85-1.23.53-.08.73,1,3.14,6.78,5,7.09,6.88-1.84,7.8-4.78a25.4,25.4,0,0,0,.06-11c-.69-2.62-8.28-25.32-16.27-36.53a112.53,112.53,0,0,1-11.54-20.09c.3-.16.6-.33.88-.5C667.8,356.81,676.57,349.11,680.24,333.85Z"/><path class="cls-10" d="M116.35,121.55l-.11-4.89L98,117.08l-.11-4.77,18.26-.42-.12-5.12-16.08.37a20.08,20.08,0,0,1-4.88,5.59l-4.13-3.15a30.54,30.54,0,0,0,8.62-11.92l4.58,2-1.29,2.68,13.07-.3-.12-5.13-19,.44a.62.62,0,0,1-.72-.69l-.47-20.38a.62.62,0,0,1,.69-.72l42.52-1a.62.62,0,0,1,.72.69L140,95.61a.62.62,0,0,1-.69.72l-18.55.43.11,5.12,21.2-.49.11,4.77-21.2.49.12,5.12,20-.46.11,4.77-20,.46.11,4.89,23.73-.54.11,4.77L92,126.88l-.11-4.77ZM100.58,84.08,135,83.29l-.08-3.71-.24-.17-34,.78-.17.18Zm34.49,3.75-34.39.79.09,3.59.18.23,34-.78c.17,0,.23-.06.23-.24Z"/><path class="cls-10" d="M174.94,120.32l-.29-12.48-20.25.46-.12-5,46.29-1.06.11,5-20.84.48.28,12.48,24.09-.55.11,5-52.76,1.21-.12-5Zm5.41-38.95-8.77.2.07,3.12A15.29,15.29,0,0,1,168,95.08c-3,2.84-8.08,4.9-15.18,6.07L151,96c12.59-1.06,15.56-5,15.65-11.14l-.07-3.13-10.42.24a.43.43,0,0,0-.46.48l.17,7.6-5,.12-.28-12c0-.59.28-.89.92-.9l22.44-.52-.11-4.59L179,72l.1,4.59,19.79-.45,4.46,2.08a50.18,50.18,0,0,1-2.45,11.07l-4.75-1.48a48,48,0,0,0,1.57-6.28c0-.41-.25-.59-.67-.58l-11.71.27L185.6,92a2.71,2.71,0,0,0,2.84,2.76l9-.21a3,3,0,0,0,1.46-.5l.28-.6.62-3.78,4.63,1.43c-.51,3.78-1.05,5.85-1.39,6.21a4.74,4.74,0,0,1-3.43,2l-14,.32a5.36,5.36,0,0,1-5-4.84Z"/><path class="cls-10" d="M256.24,104.84c-5.4-4.35-11.87-9-19.47-13.93l.79,34.16-5.24.12-1.08-46.82-22.32.51-.12-5.24,53-1.21.12,5.24-25.44.58.16,7a249.63,249.63,0,0,1,22.79,14.91Z"/><path class="cls-10" d="M274.88,121.09l.06,2.65-5,.11-1-45.4c-.07-.53.22-.77.81-.78l6.06-.14,2.42-7.78,4.69,1.6L281,77.41l8.78-.2c.76,0,1.12.26,1.14,1l1,45.17-5,.11-.06-2.65Zm-.55-24,12-.28L286,83c0-.47-.25-.64-.78-.63l-10.54.24c-.53,0-.76.19-.69.66Zm12.13,4.73-12,.28.32,14,12-.27ZM300.1,80.33a35.31,35.31,0,0,1-3.73,9.27l-4.93-1.53a41.07,41.07,0,0,0,5.42-18.22l4.95.36-.59,5L318,74.85c1.36.26,1.83.37,1.89,2.84.2,8.72.25,16.32.17,23.09,0,11.14-2.12,18.08-6.18,20.71a8.23,8.23,0,0,1-4.86,1.29,39.47,39.47,0,0,1-10.76-1.7l-.14-5.89c4.4,1.43,7.83,2.12,10.13,2.07s3.75-.56,5.71-5.2c1.38-4.1,1.38-16.76,1.16-26.3-.09-4-.13-5.77-1-5.75Zm6.18,28A105.93,105.93,0,0,0,299,89.54l4.67-1.7c3.49,8.23,6.05,14.6,7.33,19.1Z"/><path class="cls-10" d="M347.37,104.22c-1.55-3.5-3.47-7.28-5.74-11.41l.68,29.62-5,.11-.6-26.09a71.11,71.11,0,0,1-5.55,12L326.34,107a62,62,0,0,0,9.45-22l-8.89.2-.11-5,9.54-.22-.26-11.36,5-.12.26,11.37,8.77-.2.12,5-8.13.19a175.56,175.56,0,0,1,9.64,16.92Zm11,15,.06,2.65-5,.12-1.18-51.36c-.07-.52.22-.82.81-.84l24.5-.56a.94.94,0,0,1,1.08,1l1.17,51.11-5,.11-.06-2.65Zm-.79-34.33L374,84.46,373.74,75c0-.47-.25-.7-.78-.69l-14.9.35c-.59,0-.76.31-.69.72Zm.34,15,16.37-.38-.23-10-16.37.37Zm16.49,4.63-16.37.37.21,9.36,16.37-.37Z"/><path class="cls-10" d="M385.49,117.37c5.07-2.71,7.14-4.88,7.21-9.65l-.22-9.25c0-.47-.25-.7-.66-.69l-5.42.12-.11-5,9.77-.22a1.13,1.13,0,0,1,1.33,1.26l.33,14.66c3.07,7.65,11.37,7.46,14,7.4.59,0,1.24-.09,1.88-.1,10.07-.41,18.84-.85,26.37-1.37l-1.23,5.68-28,.41c-7.37-.24-12.38-2.72-15-7.32-.81,3-4.55,6.88-7.29,8.36ZM395,89a60.58,60.58,0,0,0-9.72-5.32l2.37-4.47a53.55,53.55,0,0,1,9.91,5.43Zm1.05-11.1a51.09,51.09,0,0,0-9.43-5.27L389,68.09a50,50,0,0,1,9.73,5.49Zm31.72,26.67-18.61,3-1.11-4.69,9.22-1.39-.15-6.3-10.54.24a.3.3,0,0,0-.34.36l.35,15.49-4.77.11-.44-19.26a1,1,0,0,1,1.15-1.14l14.49-.34L417,87.31l-13.66.31a.59.59,0,0,1-.66-.63l-.41-17.73a.59.59,0,0,1,.63-.66l32.22-.74c.47,0,.71.22.72.63l.4,17.72c0,.42-.22.66-.69.67l-13.78.32.08,3.29,15.31-.35c.82,0,1.25.39,1.26,1.09l.37,16.08c0,.94.13,5.59-7.06,5.76a29,29,0,0,1-4.13-.26l-.59-5.23a18,18,0,0,0,4,.5c2.36-.06,3-1.6,2.95-2.55l-.24-10.42c0-.24-.13-.35-.42-.34L421.92,95l.13,5.77,3.59-.55L424.35,98,428.13,96a40.53,40.53,0,0,1,4.56,8.79l-4,1.86Zm-11.09-28.8-.08-3.41-9.36.21c-.12,0-.18.07-.12.18l.08,3.24Zm.17,7.48-.08-3.65-9.48.22.07,3.41.13.24Zm4.52-11,.08,3.41,9.71-.22-.07-3.24-.24-.17Zm.17,7.24.08,3.65,9.48-.22.23-.24-.08-3.41Z"/></g><path class="cls-1" d="M701,27.2c-17.47-14.47-40-9.13-40.27-9.06l-.45.11h-.47L67.61,23.83a82,82,0,0,0-10.12-.43c-13.08.3-23.7,4.16-31.65,11.5-16.9,15.63-16.5,42-16.49,42.28,0,3.61.1,352.49,1.18,399.86,1,43.81,68.9,50.35,69.59,50.41,5.18,0,552,3.3,591.44,2.39,36-.83,42.73-53,42.8-53.54l7.33-375.66C723.61,64.85,716.64,40.18,701,27.2Z"/></g></svg>