<svg xmlns="http://www.w3.org/2000/svg" viewBox="0 0 495.7 511.88"><defs><style>.cls-1{fill:#5d9099;}.cls-2{fill:#95bbcc;}.cls-3{fill:#c6e4d5;}.cls-4,.cls-7{fill:#b2a3b2;}.cls-4,.cls-6{opacity:0.7;}.cls-5{fill:#637965;}</style></defs><title>資產 6</title><g id="圖層_2" data-name="圖層 2"><g id="圖層_1-2" data-name="圖層 1"><path class="cls-1" d="M354,360.29s114.38,5,119.35,5,9.95-14.92,14.92-79.57S495.7,64.38,495.7,34.55,451,9.68,426.08,9.68s-373-5-373-5S18.28-5.24,18.28,49.47s-5,263.57-5,263.57-5,29.84,24.87,34.81,109.41,5,109.41,5v129.3s24.86,14.92,24.86-9.95V352.83l159.14,5s-5,119.35,0,124.33,19.89,14.92,19.89,5S354,360.29,354,360.29Z"/><path class="cls-2" d="M341,356.29s114.38,5,119.35,5,9.95-14.92,14.92-79.57S482.7,60.38,482.7,30.55,438,5.68,413.08,5.68s-373-5-373-5S5.28-9.24,5.28,45.47.31,309,.31,309s-5,29.84,24.87,34.81,109.41,5,109.41,5v129.3s24.86,14.92,24.86-9.95V348.83l159.14,5s-5,119.35,0,124.33,19.89,14.92,19.89,5S341,356.29,341,356.29Z"/><path class="cls-3" d="M424,345.34c-24.62,0-364.65-9.85-368.08-9.95-2.12-.23-47.18-5.6-47.18-37.3,0-29.52,4.93-246.52,5-248.71,0-.71.14-18.78,12.54-29.72,7.38-6.52,17.43-9,29.9-7.52l367.61,5c2.36-.47,17.2-2.82,28.94,7.37,10.83,9.38,15.39,26.21,13.55,50l-9.94,233.65C456.08,309.9,450.72,345.34,424,345.34ZM49.39,16.69c-8.14,0-14.79,2.24-19.85,6.7C18.82,32.86,18.69,49.27,18.69,49.44c-.05,2.24-5,219.18-5,248.65,0,27.26,42.12,32.3,42.55,32.34,3.22.09,343.18,9.94,367.73,9.94,22.4,0,27.33-32.36,27.38-32.68L461.3,74.2C463,52,459,36.53,449.45,28.23,438.79,19,424.68,22,424.54,22l-.28.06H424l-368.29-5A51.21,51.21,0,0,0,49.39,16.69Z"/><path class="cls-4" d="M354.73,503.47c-.71.09-1.1-.39-1.78-1.27l-.48-.61a8.38,8.38,0,0,1-.88-1.42c-.48-.9-1.21-2.25-1.94-2.43a.39.39,0,0,0-.26,0,11.25,11.25,0,0,1-1.23.26c-1.56.27-3,.52-2.31,4,1,4.67,1,6.39-1,8.75-1,1.21-1,1.23-1.57,1.11s-.4-.37-.23-.77a7.56,7.56,0,0,0,.7-2.77c0-6.27-.42-8-.77-8.31a19.38,19.38,0,0,0-5.74,1.43c-1.56.63-2,1-2,1.17,0,1.11.95,6.19,1,6.24s-.11.29-.34.35a.85.85,0,0,1-.67-.09c-.29-.19-7-4.78-3.91-7.82.79-.78,1.65-1.52,2.41-2.17a10.29,10.29,0,0,0,2-2,5.32,5.32,0,0,0-.9.08c-3.62.53-4.5,1-6.4,2.71a3,3,0,0,1-2.07.83,1.4,1.4,0,0,1-1-.48c-.43-.6-.11-1.91,2.19-3.61,4-3,9-3,13-3s10.41.55,10.69.57a.8.8,0,0,1,.32.1c2.08,1.23,4,5.36,4,7.66C355.49,502.93,355.37,503.38,354.73,503.47Z"/><path class="cls-5" d="M355,494a13.87,13.87,0,0,1-.62-4.47c0-6.91-2.93-9.92-3.06-10.05a.58.58,0,0,0-.63-.12.59.59,0,0,0-.36.53,72.32,72.32,0,0,1-.95,10.51,15.05,15.05,0,0,1-.7,2.94,5.51,5.51,0,0,1-.08-.92c0-7-1.36-13.13-3.93-17.63-1.54-2.69-1.8-3-2.38-2.71s-.7.34,2,6.76c.46,1.12.92,2.23,1.31,3.19,1.07,2.69.89,2.95.13,4.07a15,15,0,0,0-2.07,4.21c-.34,1-.62,1.84-.82,2.39a5.54,5.54,0,0,0-1.12-1.65c-1.84-1.85-7.55-12.29-7.61-12.4a.58.58,0,0,0-1.08.28c0,.21.08,2.22,3,7,2.16,3.6.85,5.33.35,5.82a23.65,23.65,0,0,1-8.18-3.69c-2.57-1.93-8.44-11.26-11.13-16.11a6,6,0,0,0-1.33-3.11.81.81,0,0,0-.8-.28.64.64,0,0,0-.41.49c-.07.38.51,1.66,1.46,3.4q.17.88.33,1.95a54.85,54.85,0,0,0,3.29,12.41c1.72,4.3,5.35,9.36,12.84,9h.22a19.24,19.24,0,0,1,4.4,1.34c3.29,1.22,7.39,2.74,10.83,2.74a6.9,6.9,0,0,0,4.41-1.32C355.16,496.22,355.52,495.85,355,494Z"/><g class="cls-6"><path class="cls-7" d="M182.15,505.33c0,.17-.24.3-.52.32a.65.65,0,0,1-.61-.25c-.08-.17-2-4.1-2-7,0-1.58-1.63-3.05-3.52-4.74a27.57,27.57,0,0,1-4.14-4.32,6.77,6.77,0,0,0-3-2.58,14.64,14.64,0,0,1,1.22,1.76c1,1.78,1,4.08,1,7a27.25,27.25,0,0,1-.79,4.78,6.2,6.2,0,0,1-.18,2.18,54.79,54.79,0,0,1-1.94,5.77.66.66,0,0,1-.68.25c-.31,0-.5-.21-.45-.39s1.23-4.19,2.08-7.84a12.57,12.57,0,0,0-2-5.19s0,0,0,0c-.21-.5-.69-1.66-1.21-3l-.47-.35a17.94,17.94,0,0,0,.86,2.05c1,1.75-.74,11.15-.94,12.22,0,.18-.29.31-.6.3s-.55-.16-.55-.34v-5.75a19.08,19.08,0,0,0-1.16-5.58c-.05.19-.1.4-.16.62-.12.49-.26,1-.37,1.53.32,1,.29,1.65-.21,1.95a1,1,0,0,1-.78.09c-.46-.14-.55-.38-.18-2a27.7,27.7,0,0,0-1.93-4c-.12-.22-.25-.44-.4-.66,0,.79-.11,1.74-.21,2.87s-.19,2.15-.19,2.85c0,1.77-4.42,9.52-5.27,9.74a.93.93,0,0,1-.62-.06c-.29-.16-.19-.34,0-.59a40.9,40.9,0,0,0,1.91-4.44c.32-.84.64-1.67,1-2.43.46-1.08.23-2.87,0-4.77s-.51-4.06,0-5.56a17.9,17.9,0,0,0,.95-5.11.31.31,0,0,1,0-.08,3,3,0,0,1,2.7-1.83h.26l.35,0-.4-.84c-2.28-2.73-1.61-3.14-1.39-3.27a1.21,1.21,0,0,1,.6-.14,2.38,2.38,0,0,1,.63.1c2,.59,4,1.2,5.07,2.45.6.71,5,2.65,7.7,3.81,1.57.69,2.47,1.08,2.79,1.27.6.36.48.83.36,1.29a1.89,1.89,0,0,0,.68,2.22,32.81,32.81,0,0,1,2.93,3.19,32.85,32.85,0,0,0,2.85,3.13C183.07,497.69,182.25,504.55,182.15,505.33Z"/><path class="cls-7" d="M152,491c-.27,2.16-.68,2.4-.87,2.52a1,1,0,0,1-.81.08c-.51-.17-.51-.37.53-2.71a50,50,0,0,0,.25-5.66c0-.32-.52-.57-.84-.69a5.34,5.34,0,0,0-1.88-.34c-.15.41-1,1.35-3,3.57-.44.47-.91,1-1.27,1.39a2.18,2.18,0,0,1-.67.91.94.94,0,0,1-.86.07c-.38-.17-.47-.21.5-1.3a22.56,22.56,0,0,0,1.3-5.91c0-1.1,1.52-2.59,1.92-3v-1c0-.12.11-.23.28-.3a1,1,0,0,1,.3-.05.75.75,0,0,1,.26,0,37.11,37.11,0,0,1,5,1.79c1.18.7,2.1,3.18,2.1,4.84,0,.93-1,3.15-1.89,5.11Z"/><path class="cls-7" d="M140.7,491.59a.63.63,0,0,1-.63.26c-.29,0-.51-.17-.51-.34v-4a2.27,2.27,0,0,0-.75-1.89.63.63,0,0,0,0,.16c0,1.14-2.31,4-4.88,7.05L131,496.26a.72.72,0,0,1-.65.18c-.26,0-.45-.17-.45-.33s0-6.39,1-9.26a5.74,5.74,0,0,1,5.38-3.73h.12l4.81.57a.66.66,0,0,1,.37.15c.09.07,2.07,1.88,1,3.75C141.67,489.29,140.71,491.57,140.7,491.59Z"/></g><path class="cls-5" d="M177,450.23a.59.59,0,0,0-.52-.53.6.6,0,0,0-.62.42c-.08.28-1.95,6.88-1.95,11.72,0,2.65-1.62,5.1-3.51,7.94A45.34,45.34,0,0,0,166.2,477c-1.12,2.61-2.19,3.8-3,4.33a29.84,29.84,0,0,0,1.22-3c1-3,1-6.84,1-11.74a71.79,71.79,0,0,0-.79-8,17.25,17.25,0,0,0-.18-3.66c-.95-5.74-1.92-9.64-1.93-9.68a.59.59,0,0,0-.68-.43.58.58,0,0,0-.45.67c0,.11,1.23,7,2.08,13.13a29.55,29.55,0,0,1-2.05,8.7l0,.09c-.21.85-.69,2.79-1.2,5.11l-.47.58c.33-1.5.62-2.74.86-3.44,1-2.93-.74-18.69-.94-20.48a.56.56,0,0,0-.61-.51.57.57,0,0,0-.54.57V459a51.31,51.31,0,0,1-1.17,9.36c0-.33-.1-.68-.15-1-.12-.83-.26-1.74-.37-2.57.32-1.67.28-2.77-.22-3.27a.65.65,0,0,0-.78-.15c-.46.23-.54.64-.17,3.4a68.43,68.43,0,0,1-1.93,6.61c-.12.36-.26.74-.4,1.11,0-1.33-.11-2.92-.21-4.82s-.19-3.6-.19-4.78c0-3-4.42-15.95-5.27-16.32a.56.56,0,0,0-.62.1c-.3.27-.2.57-.06,1,.64,1.9,1.29,4.72,1.92,7.45.32,1.39.64,2.78,1,4.07.45,1.81.23,4.81,0,8-.25,3.35-.51,6.81,0,9.33a48.44,48.44,0,0,1,1,8.56.71.71,0,0,0,0,.14c.63,2.48,2,3,2.71,3.07h.26l.34,0c-.2.73-.35,1.25-.39,1.4-2.29,4.58-1.61,5.26-1.39,5.48a.81.81,0,0,0,.59.24,1.42,1.42,0,0,0,.63-.17c2-1,4-2,5.08-4.11.6-1.2,5-4.45,7.7-6.39,1.57-1.15,2.47-1.82,2.79-2.14a2.28,2.28,0,0,0,.36-2.15,4.64,4.64,0,0,1,.68-3.72,52.37,52.37,0,0,0,2.92-5.36,51.75,51.75,0,0,1,2.86-5.24C177.87,463,177.05,451.53,177,450.23Z"/><path class="cls-5" d="M146.82,474.33c-.27-3.62-.68-4-.88-4.23a.65.65,0,0,0-.81-.14c-.51.29-.5.63.54,4.55.15,2.1.25,5.19.25,9.49,0,.54-.53,1-.84,1.16a3.59,3.59,0,0,1-1.88.57c-.15-.69-1-2.26-3-6-.44-.8-.91-1.66-1.27-2.34a3.81,3.81,0,0,0-.68-1.52.6.6,0,0,0-.85-.12c-.38.28-.47.35.5,2.18a61.47,61.47,0,0,1,1.29,9.91c0,1.84,1.52,4.35,1.93,5v1.75a.58.58,0,0,0,.28.49.53.53,0,0,0,.3.09.58.58,0,0,0,.26-.06,29.61,29.61,0,0,0,5-3c1.18-1.18,2.09-5.33,2.09-8.12,0-1.56-1-5.28-1.89-8.57C147,475.06,146.92,474.69,146.82,474.33Z"/><path class="cls-5" d="M135.5,473.26a.59.59,0,0,0-.64-.43.57.57,0,0,0-.5.57v6.75a5.16,5.16,0,0,1-.75,3.16,1.06,1.06,0,0,1,0-.27c0-1.91-2.31-6.68-4.88-11.82l-2.89-5.78a.59.59,0,0,0-.65-.31.58.58,0,0,0-.45.56c0,.44,0,10.72,1,15.54s4,6.24,5.39,6.24h.11l4.82-1a.59.59,0,0,0,.37-.25c.08-.13,2.07-3.16,1-6.28C136.46,477.13,135.5,473.3,135.5,473.26Z"/></g></g></svg>