<svg xmlns="http://www.w3.org/2000/svg" viewBox="0 0 1047.19 869.35"><defs><style>.cls-1{fill:#fff;}.cls-2{fill:#fbc5cf;}.cls-3{fill:#c5798a;opacity:0.5;}.cls-4{fill:#ef5c79;}.cls-5{fill:#ffd8d0;}.cls-6{fill:#ffeeeb;}.cls-7{fill:#fbf9f9;}.cls-8{fill:#e4b5a4;}.cls-9{fill:#ecbbaa;}.cls-10{fill:#e7b6a5;}.cls-11{fill:#3a332e;}.cls-12{fill:#e7859b;}.cls-13{fill:#c09180;}.cls-14{fill:#b58c79;}.cls-15{fill:#e3b6a8;}.cls-16{fill:#c78d76;}.cls-17{fill:#e4b6a7;}.cls-18{fill:#e08797;}.cls-19{fill:#b66f83;}.cls-20{fill:#d4c6ab;}.cls-21{fill:#b9907a;}.cls-22{fill:#ffd9d5;}.cls-23{fill:#deb2a3;}.cls-24{fill:#c19989;}.cls-25{fill:#3d342e;}.cls-26{fill:#5d564d;}.cls-27{fill:#aba39d;}.cls-28{fill:#e9bdae;}.cls-29{fill:#c4907b;}.cls-30{fill:#b8836f;}.cls-31{fill:#493534;}.cls-32{fill:#e88299;}.cls-33{fill:#3d3b32;}.cls-34{fill:#5b585a;}.cls-35{fill:#bdbbba;}.cls-36{fill:#1e1a17;}.cls-37{fill:#3f3129;}.cls-38{fill:#dee7e1;}.cls-39{fill:#51605b;}.cls-40{fill:#c1bfc0;}.cls-41{fill:#2e2f2a;}.cls-42{fill:#311e1a;}.cls-43{fill:#374033;}</style></defs><title>資產 10</title><g id="圖層_2" data-name="圖層 2"><g id="圖層_1-2" data-name="圖層 1"><rect class="cls-1" x="58.69" y="194.35" width="467.95" height="426.06" rx="15" ry="15" transform="translate(-132.52 141.23) rotate(-22.26)"/><rect class="cls-2" x="66.58" y="217.98" width="424.44" height="311.06" transform="translate(-120.72 133.46) rotate(-22.26)"/><rect class="cls-3" x="383.91" y="35.99" width="613.61" height="563.73" rx="15" ry="15" transform="translate(42.98 -80.33) rotate(6.87)"/><rect class="cls-1" x="394.21" y="33" width="613.61" height="558.69" rx="15" ry="15" transform="translate(42.39 -81.6) rotate(6.87)"/><rect class="cls-4" x="428.48" y="60.75" width="556.56" height="407.89" transform="translate(36.73 -82.63) rotate(6.87)"/><path class="cls-5" d="M465.1,703.38s85.53,54.17,99.78,65.57,108.33,74.12,128.28,85.52,42.77,20,77,11.41S1016.73,796,1031,753.27s11.4-65.57,11.4-65.57,8.55-31.36,2.85-37.06S982.52,610.73,979.67,605s2.85-51.31,0-54.16-2.86-14.26-2.86-37.06V459.64s5.71-2.85,8.56-19.95,2.85-20,2.85-20,42.76-11.4,45.61-20,11.4-79.83,8.55-99.78c0,0,0-8.55-20-17.11s-57-19.95-57-19.95a326.51,326.51,0,0,0-42.76,2.85c-19.95,2.85-287.93,71.27-287.93,71.27s-14.25,2.85-34.21,54.16c0,0-8.55,8.56-5.7,71.27v14.26S489.33,562.27,463.68,585.08,438,607.88,440.87,625,458,667.75,458,670.6,465.1,703.38,465.1,703.38Z"/><path class="cls-6" d="M452.27,625l65.57,31.35s28.51-5.7,31.36-17.1,11.4-119.73,11.4-122.58-99.77,74.12-105.47,82.67S443.72,616.43,452.27,625Z"/><path class="cls-7" d="M526.39,662.05s59.87,25.65,65.57,28.5,14.26,2.85,17.11,0-42.76-34.21-48.47-37.06S546.35,644.94,526.39,662.05Z"/><path class="cls-8" d="M540.65,687.7s0,14.26,5.7,20,28.51,45.61,34.21,57,14.25,25.66,20,20,8.56-77,2.86-79.82S543.5,676.3,540.65,687.7Z"/><path class="cls-9" d="M691.74,781.78s25.66,8.55,28.51,14.25,5.7,57,0,57H703.14s42.76,14.25,51.32,11.4,0-65.57,0-65.57,0-5.7,8.55-8.55,268-85.52,268-85.52v25.65s5.7-17.1,5.7-25.65V693.4S757.31,790.33,751.6,790.33,694.59,784.63,691.74,781.78Z"/><path class="cls-10" d="M691.74,741.87s28.51,11.4,31.36,14.25-8.56,5.7-5.7,8.55,14.25,2.85,11.4,8.56,5.7,8.55,14.25,8.55,293.63-88.38,293.63-96.93,2.85-25.65-2.85-22.8-279.37,91.22-285.08,91.22S697.44,747.57,691.74,741.87Z"/><path class="cls-11" d="M760.16,830.24s239.46-82.67,242.31-85.52a8.83,8.83,0,0,0,2.85-5.7L760.16,816Z"/><path class="cls-12" d="M757.31,796c2.85-2.85,268-85.52,268-85.52s2.85,8.55,0,14.25-11.41,11.41-20,14.26-245.16,77-245.16,77Z"/><path class="cls-13" d="M763,833.09s17.1,5.7,14.25,8.55-17.1,8.56-17.1,8.56V833.09Z"/><path class="cls-14" d="M1011,739v8.55l14.26,5.7s2.85-20,2.85-22.81S1011,739,1011,739Z"/><path class="cls-15" d="M674.63,707.66s37.06,20,57,17.1,25.66-8.55,31.36-2.85,74.12-14.25,82.67-17.1,173.9-45.61,173.9-51.32-25.66-11.4-28.51-20,2.85-14.26-5.7-17.11-14.26-19.95-14.26-25.65-2.85-14.26-2.85-14.26-2.85,28.51-8.55,34.21-20,8.55-28.51,8.55S828.58,659.2,814.32,662.05,683.19,702,677.48,696.25s-17.1-11.4-17.1-11.4-8.55,11.4-5.7,11.4S674.63,707.66,674.63,707.66Z"/><path class="cls-16" d="M674.63,702s65.57-2.85,77-5.71,77-25.65,71.27-17.1-51.31,17.1-39.91,20,79.82-14.26,77-8.56S840,702,845.68,702s96.93-31.36,99.78-37.06-2.85,0-8.56,0,5.71-5.7,11.41-14.26,2.85-14.25,0-14.25,0,2.85,0-2.85-14.26-2.85-14.26-2.85-2.85-5.7,2.85-5.7,22.81-8.56,22.81-2.85-5.7,37.06-2.85,34.2,8.55-39.91,8.55-42.76-14.25,8.56-37.06,11.41S794.7,684.85,745.9,684.85C743.05,684.85,683.19,702,674.63,702Z"/><path class="cls-6" d="M649,339.91s68.42,25.66,71.27,25.66,285.07-74.12,293.62-74.12a34.6,34.6,0,0,0,14.26-2.85s-51.32-22.81-68.42-22.81S919.8,271.49,877,280,649,339.91,649,339.91Z"/><path class="cls-15" d="M626.17,362.72s-14.25,22.8-19.95,34.2-11.41,42.77-8.56,48.47,48.47,22.8,59.87,28.51,28.51,14.25,31.36,11.4,8.55-45.61,8.55-54.17,5.7-39.91,8.55-45.61-2.85-5.7-11.4-8.55-25.66-11.4-34.21-11.4-8.55,0-14.25-2.85S629,357,626.17,362.72Z"/><path class="cls-17" d="M609.07,465.34s-2.85,11.41,0,17.11,5.7,5.7,2.85,11.4,5.7,11.4,2.85,14.25-2.85,0-2.85,11.41,5.7,28.51,2.85,37.06-11.4,11.4-5.7,17.1,14.25,8.55,19.95-2.85,22.81-48.46,22.81-57,8.55-22.81,5.7-28.51-8.55-8.55-17.11-11.4-17.1-5.71-22.8-8.56S609.07,465.34,609.07,465.34Z"/><path class="cls-18" d="M743.05,388.37s-5.7,54.17-2.85,59.87,17.11,2.85,42.76-2.85,119.74-25.66,122.59-34.21,5.7-65.57,5.7-68.42S745.9,377,743.05,388.37Z"/><path class="cls-19" d="M743.05,445.39c3.83-7.65,142.54-28.51,148.24-34.21s14.26-17.11,14.26-25.66,5.7,20-2.85,25.66-145.39,39.2-151.1,39.55S740.2,451.09,743.05,445.39Z"/><path class="cls-20" d="M919.8,342.76s-2.85,57-2.85,62.72,85.52-17.11,88.37-20,17.11-62.72,17.11-68.42-11.41-5.7-42.76,5.7S919.8,337.06,919.8,342.76Z"/><path class="cls-21" d="M919.8,402.63s71.27-17.11,77-22.81,14.25-57,11.4-59.87,8.56-2.85,8.56-2.85-11.41,62.72-14.26,65.57S922.65,408.33,919.8,402.63Z"/><path class="cls-22" d="M671.78,488.15s31.36,11.4,37.06,8.55,59.87-14.25,62.72-17.1,14.25,2.85,11.4,5.7-25.65,8.55-37.06,11.4-51.31,20-62.71,22.81-22.81,5.7-20-5.7A106.89,106.89,0,0,0,666.08,491S666.08,485.3,671.78,488.15Z"/><path class="cls-23" d="M663.23,528.06c5.7,0,39.91-8.55,51.31-14.25s54.17-20,59.87-20,14.25,2.85,11.4,8.55S783,511,783,511s-5.7-8.56-25.65-2.86-82.68,22.81-85.53,25.66-5.7,8.55-8.55,17.11,0,96.92,0,96.92-8.55-11.4-8.55-25.65-5.7-45.62-2.85-57S663.23,528.06,663.23,528.06Z"/><path class="cls-24" d="M594.81,505.25v79.83c0,2.85,11.41,17.1,17.11,19.95s37.06,28.51,39.91,39.91,2.85,37.06,0,42.76-14.26,5.7-20,8.55-14.25,5.71-14.25,17.11v39.91s-5.7,0-5.7-8.55V704.81s2.85-8.56,17.1-14.26,17.11-14.25,17.11-25.65,2.85-20-11.41-31.36-45.61-31.36-45.61-37.06a29.48,29.48,0,0,1-2.85-11.4V525.21S589.11,508.1,594.81,505.25Z"/><path class="cls-25" d="M620.47,759s5.7,11.4,14.25,11.4,5.7,0,14.26,2.86,31.36,8.55,34.21,5.7S686,733.31,686,730.46s-14.26-20-20-22.8-20-5.7-22.8-8.55-17.11,2.85-20,5.7S620.47,759,620.47,759Z"/><path class="cls-26" d="M640.42,716.21s-2.85,17.1,0,22.81,2.86,22.8,2.86,25.65,20,5.7,20,5.7V724.76S640.42,719.06,640.42,716.21Z"/><path class="cls-26" d="M623.32,713.36l8.55,2.85s0,20,2.85,22.81,5.7,11.4,2.85,17.1-2.85,11.4-5.7,8.55-8.55-2.85-8.55-11.4Z"/><path class="cls-27" d="M626.17,710.51s5.7,2.85,8.55,2.85,5.7-2.85,5.7-2.85l-14.25-2.85Z"/><path class="cls-27" d="M649,713.36s8.55,5.7,11.4,5.7,8.55-2.85,8.55,0S649,721.91,649,713.36Z"/><path class="cls-25" d="M609.07,773.23s-2.85,19.95,0,22.8,34.21,25.66,39.91,17.11,2.85-22.81-20-34.21S609.07,773.23,609.07,773.23Z"/><path class="cls-26" d="M611.92,781.78s22.8,11.4,25.65,11.4,5.71,0,2.85-2.85S609.07,767.52,611.92,781.78Z"/><polygon class="cls-27" points="611.92 790.33 611.92 798.88 614.77 801.73 614.77 790.33 611.92 790.33"/><polygon class="cls-27" points="617.62 793.18 617.62 801.73 620.47 804.58 620.47 793.18 617.62 793.18"/><polygon class="cls-27" points="623.32 796.03 623.32 804.58 626.17 807.43 626.17 796.03 623.32 796.03"/><path class="cls-28" d="M788.66,479.6l39.92,17.1s-8.56,5.7-14.26,8.55-25.66,8.56-25.66,8.56Z"/><polygon class="cls-29" points="817.17 468.19 854.23 488.15 854.23 471.05 831.43 462.49 817.17 468.19"/><path class="cls-30" d="M956.86,428.28l22.81-8.55-2.86,31.36S965.41,431.13,956.86,428.28Z"/><path class="cls-31" d="M666.08,656.34v20s0,11.4,14.26,8.55,268-77,276.52-85.52,5.7-31.36,5.7-31.36-151.09,54.17-173.9,59.87S674.63,662.05,666.08,656.34Z"/><path class="cls-32" d="M671.78,539.46s-5.7,8.56-5.7,28.51v85.52s5.7,2.85,17.11,0,134-37.06,134-37.06l145.39-51.31,5.7-108.33s2.85-11.4-14.25-5.7-74.12,22.81-74.12,22.81-14.25,2.85-20,17.1c0,0-2.85,8.55-14.25,8.55s-42.76,14.26-51.31,17.11-11.41,0-14.26-2.85-8.55-5.71-25.65,0S674.63,533.76,671.78,539.46Z"/><path class="cls-33" d="M800.07,522.36s-17.11,11.4-22.81,42.76,14.26,42.76,20,45.61,31.36,2.85,48.46-28.51,14.25-54.16,5.7-62.71S822.87,505.25,800.07,522.36Z"/><path class="cls-34" d="M814.32,522.36s8.55,5.7,8.55,14.25-8.55,34.21-17.1,39.91-31.36,8.56-25.66-8.55S800.07,513.81,814.32,522.36Z"/><path class="cls-35" d="M797.22,548l5.7-5.71,2.85,2.85s5.7-11.4,5.7-8.55,0,11.41,2.85,11.41,8.55-11.41,5.7-14.26-8.55-11.4-11.4-8.55S794.37,542.31,797.22,548Z"/><path class="cls-35" d="M785.81,570.82s2.85,2.85,5.71,2.85,14.25-5.7,14.25-8.55-5.7,0-5.7,0v-5.7S788.66,562.27,785.81,570.82Z"/><path class="cls-36" d="M820,522.36s11.41,5.7,8.56,19.95-14.26,34.21-17.11,34.21c0,0-22.81,8.56-25.66,5.7,0,0,2.85,8.56,11.41,5.71s37.06-17.11,37.06-34.21S837.13,519.51,820,522.36Z"/><path class="cls-37" d="M825.72,516.66S840,525.21,840,539.46s-14.26,54.17-22.81,54.17c0,0-25.65,2.85-31.36-2.85,0,0,39.91,22.8,51.32-17.11s8.55-48.46,5.7-51.31S825.72,516.66,825.72,516.66Z"/><path class="cls-38" d="M894.14,482.45V548s0,8.55,14.26,5.7,37.06-8.56,39.91-11.41,5.7,2.85,5.7-25.65V468.19s0-5.7-11.4-2.85-42.77,11.41-42.77,11.41S894.14,476.75,894.14,482.45Z"/><path class="cls-39" d="M899.84,479.6,917,476.75s0,22.8-2.85,28.5-11.4,11.41-14.26,11.41S894.14,482.45,899.84,479.6Z"/><path class="cls-40" d="M922.65,482.45V508.1c0,5.71-2.85,11.41-5.7,11.41H908.4A21.28,21.28,0,0,0,917,511C919.8,505.25,922.65,482.45,922.65,482.45Z"/><path class="cls-40" d="M928.35,482.45l5.7-2.85s0,37.06-2.85,39.91-20,11.4-20,11.4,8.55,0,14.25-2.85,5.7-5.7,5.7-5.7,0,5.7-2.85,8.55-25.65,14.25-28.51,11.4S897,528.06,897,528.06s25.66-5.7,28.51-8.55S928.35,482.45,928.35,482.45Z"/><path class="cls-40" d="M936.9,473.9l5.71,5.7s0,51.31-2.85,54.16-11.41,5.7-11.41,5.7a35.27,35.27,0,0,0,5.7-8.55C936.9,525.21,939.76,476.75,936.9,473.9Z"/><path class="cls-41" d="M942.61,468.19s2.85,0,2.85,17.11,2.85,48.46,0,51.31-20,5.7-25.66,8.55a132.88,132.88,0,0,1-14.25,5.71s39.91-5.71,42.76-11.41,5.7-68.42,2.85-71.27S942.61,468.19,942.61,468.19Z"/><path class="cls-42" d="M885.59,573.67s-2.85,31.36,2.85,34.21S917,605,917,599.33s2.85-31.36,0-34.21S885.59,568,885.59,573.67Z"/><path class="cls-43" d="M888.44,576.52l2.85,17.11s11.41-8.55,11.41-14.26v-8.55S888.44,573.67,888.44,576.52Z"/></g></g></svg>