<svg xmlns="http://www.w3.org/2000/svg" viewBox="0 0 148.78207 106.97182"><defs><style>.cls-1{fill:#fff;}.cls-2{fill:#2b102e;}</style></defs><title>資產 5</title><g id="圖層_2" data-name="圖層 2"><g id="圖層_1-2" data-name="圖層 1"><path class="cls-1" d="M30.69392,79.89945S23.45224,87.425,27.50407,93.83573s11.75032,10.31285,22.2851,11.70647,46.59611,3.066,57.94125-1.95108S125.5585,87.425,120.6963,79.89945s-28.768-16.72353-44.57019-15.88736S38.7976,70.98023,30.69392,79.89945Z"/><path class="cls-2" d="M66.70654,62.15039s0,6.43762,4.13008,9.79639,10.65127,3.07886,13.47712,0,4.78669-11.22769,3.04546-13.73085S65.837,53.47359,66.70654,62.15039Z"/><circle class="cls-1" cx="37.15715" cy="42.97523" r="25.16806"/><circle class="cls-1" cx="113.8075" cy="41.97706" r="25.16806"/><circle class="cls-2" cx="44.28412" cy="42.74275" r="13.42251"/><circle class="cls-2" cx="107.58601" cy="43.74092" r="13.42251"/><path class="cls-2" d="M118.79317.06239S85.8536,14.03675,84.85543,22.0221s65.87915-10.97986,63.88282-16.96887S118.79317.06239,118.79317.06239Z"/><path class="cls-2" d="M29.98889.06239S62.92847,14.03675,63.92664,22.0221-1.95251,11.04224.04382,5.05323,29.98889.06239,29.98889.06239Z"/></g></g></svg>