<svg xmlns="http://www.w3.org/2000/svg" viewBox="0 0 279.15 406.99"><defs><style>.cls-1{fill:#c5798a;opacity:0.5;}.cls-2{fill:#e4b5bd;}.cls-3{fill:#f6c2cb;}.cls-4{fill:#da4d55;}.cls-5{fill:#fff;}</style></defs><title>資產 15</title><g id="圖層_2" data-name="圖層 2"><g id="圖層_1-2" data-name="圖層 1"><ellipse class="cls-1" cx="159.82" cy="381.18" rx="119.33" ry="25.81"/><path class="cls-2" d="M23.83,207.65c2.08,1.38,2.43,3.1,1.89,4.54a10,10,0,0,0-.86,3.21c0,.74,1.18,1.75,2.59,2.34.91.39,4.49,2,6.89,2.88,7.51,3.91,16.15,9,23.23,13.62,10.75,6.95,27.18,24.68,27.58,34.81a31.38,31.38,0,0,1-1,5.52S76.85,271,59,262.32c-21.63-10.58-37.56-18.25-48-28.07S0,221.54,0,219s1.19-8.7,3.63-10.37,6.66-.46,8.89.79,5.89,3.07,5.89,3.07c-.46-.64,0-3.25.71-3.82S21.75,206.28,23.83,207.65Z"/><path class="cls-2" d="M65.32,366.21a7.53,7.53,0,0,0,.3-3.16c-.1-2.31,1.43-41.29,1.43-41.29a5.27,5.27,0,0,1,3.71-4.07c7.28-1.82,8.63-1.62,13.83.29,8.45,3.09,16.07,9.29,17,18.72,0,0-.59,3.94-.59,4,0,1-2.79,35.84-3.06,37a13.32,13.32,0,0,1-9,8.67c-6.63,2.1-28.91.92-28.91.92s-7-1.91-7-5.59.35-5.2,2.51-7.86S65.32,366.21,65.32,366.21Z"/><path class="cls-2" d="M154,323.78c-6.07-11.28-18.17-9.25-23-9.11-10.28.3-10.09,13.46-10.76,20.68a2,2,0,0,1,.07.52c0,1.38-1.09,37.17-.59,40.64s-.65,2.52-2.21,3.29a23.69,23.69,0,0,0-10.3,11.93c-3,7.52,7.46,8.07,8.26,8.31s23.14.25,26.14-.76,10.08-3.64,10.9-9.45,2.54-37,2.54-37S156.91,329.22,154,323.78Z"/><path class="cls-3" d="M66.65,331.66C58.23,320,56.9,309.38,54.53,276.12c-.42-5.86-.26-5.95.79-10.29.93-3.88,5.81-11.51,7.12-14.25,3.74-7.82,5.39-11.88,5.39-11.88H154l4.28,7.13c3.22,5.36,4,6.89,5.54,9.5.74,1.24,2.83,4.1,3.17,6.33,1.58,10.3.59,19.86.79,27.72.79,30.88-9.5,41.89-10.29,42.75-.05.05-12.59,10.63-19.06,13.5-5,2.2-15.08,2.87-16.7,2.91s-20-.19-20-.19-15.07-1.63-21.13-5A41,41,0,0,1,66.65,331.66Z"/><path class="cls-2" d="M164.57,336.56c-.9-2.33-.19-3.94,1.08-4.79a10,10,0,0,0,2.56-2.14c.41-.61,0-2.11-.76-3.4-.52-.84-2.48-4.26-4-6.33-3.87-7.54-8-16.72-11.08-24.55C147.66,283.48,144.5,259.5,150,251a32.29,32.29,0,0,1,4-4s4,7.13,13.46,24.55c11.53,21.14,20.1,36.61,23,50.67s1.65,16.75.17,18.79-6,6.42-9,6.37-5.7-3.47-6.8-5.79-2.22-5-2.22-5-2.68,1.78-3.6,1.82S165.47,338.88,164.57,336.56Z"/><path class="cls-2" d="M200.13,122.81c-12.93-23.42-34.92-36.72-54.9-41.45,4-14.28,8.85-32.91,9.79-41.39,1.63-14.72,4.5-25.86-3.27-31.43s-14.12-3.18-15.86,0S125.05,66.35,125.1,71.86a58.54,58.54,0,0,1-.68,7.16c-4.54-.08-9.23.08-14,.44a62.92,62.92,0,0,1-.74-7.6c0-5.51-9-60.14-10.79-63.32S90.82,3,83.05,8.54,78.14,25.25,79.77,40c1,8.67,6,28,10.06,42.36A148.68,148.68,0,0,0,66,89.13c-22.06,8.49-42.78,40.58-43.58,56.22s-10.63,58.08,26.71,89.11c0,0,10.76,11.14,25.9,14.85s72.28,6.9,91.94-4.24,32.68-21.75,38.53-43.23S214.48,148.8,200.13,122.81Z"/><path class="cls-3" d="M199.27,117.61c-12.93-23.43-34.93-36.72-54.91-41.45,4-14.28,8.85-32.92,9.79-41.39,1.64-14.72,4.5-25.86-3.27-31.43S136.77.16,135,3.34s-10.84,57.81-10.79,63.32a58.76,58.76,0,0,1-.69,7.16c-4.53-.08-9.22.07-14,.44a63.14,63.14,0,0,1-.75-7.6c.05-5.51-9-60.14-10.79-63.32S90-2.23,82.18,3.34s-4.91,16.71-3.27,31.43c1,8.67,6,28,10,42.36a149,149,0,0,0-23.88,6.8C43,92.41,22.3,124.5,21.5,140.15s-10.62,58.08,26.71,89.11c0,0,10.76,11.14,25.91,14.85s72.27,6.9,91.93-4.24,32.69-21.75,38.53-43.23S213.62,143.6,199.27,117.61Z"/><ellipse class="cls-4" cx="52.99" cy="166.6" rx="9.65" ry="4.83"/><ellipse class="cls-4" cx="134.41" cy="166.6" rx="9.65" ry="4.83"/><path class="cls-5" d="M61.32,170.58s-5.2,5.4-2.29,10,8.43,7.4,16,8.4,33.44,2.2,41.58-1.4,12.8-11.6,9.31-17-20.65-12-32-11.41S67.14,164.18,61.32,170.58Z"/><path d="M53.19,141.38A9.65,9.65,0,1,0,62.84,151,9.65,9.65,0,0,0,53.19,141.38Z"/><path d="M133.88,141.38a9.65,9.65,0,1,0,9.65,9.65A9.65,9.65,0,0,0,133.88,141.38Z"/><path d="M113.94,175.11c-1.44.44-10.15,1.59-12.13.11s-4.29-5.27-5-8.79a5.57,5.57,0,0,0,3-1.56c2-2.21,3.43-8.06,2.18-9.86s-15.45-3.4-14.82,2.83c0,0,0,4.62,3,7A7.9,7.9,0,0,0,94,166.52c-.72,3.49-3,7.21-5,8.7s-10.7.33-12.14-.11A1.16,1.16,0,0,0,75.64,177c.5.47,4.86,1.25,8.84,1.25,2.48,0,4.81-.3,6-1.17a17.24,17.24,0,0,0,5-7.16,17.14,17.14,0,0,0,5,7.16c1.17.87,3.49,1.17,6,1.17,4,0,8.34-.78,8.85-1.25a1.16,1.16,0,0,0-1.3-1.89Z"/><path class="cls-3" d="M168,334c-.91-2.33-.2-3.94,1.08-4.79a10,10,0,0,0,2.56-2.14c.41-.61,0-2.11-.76-3.4-.52-.84-2.49-4.26-4-6.33-3.87-7.54-8-16.72-11.09-24.55-4.75-11.87-7.91-35.85-2.37-44.34a31.58,31.58,0,0,1,4-4s4,7.13,13.46,24.55c11.53,21.14,20.1,36.6,23,50.67s1.65,16.75.17,18.79-6,6.42-9,6.37-5.7-3.47-6.8-5.79-2.22-5-2.22-5-2.68,1.78-3.6,1.82S168.94,336.28,168,334Z"/><path class="cls-3" d="M156.58,323.78c-6.07-11.28-18.17-9.25-23-9.11-10.28.3-10.09,13.46-10.76,20.68a2,2,0,0,1,.07.52c0,1.38-1.09,37.17-.59,40.64s-.65,2.52-2.21,3.29a23.69,23.69,0,0,0-10.3,11.93c-3,7.52,7.46,8.07,8.26,8.31s23.14.25,26.14-.76,10.08-3.64,10.9-9.45,2.54-37,2.54-37S159.51,329.22,156.58,323.78Z"/></g></g></svg>