<svg xmlns="http://www.w3.org/2000/svg" viewBox="0 0 201.14 345.8"><defs><style>.cls-1{fill:#755f55;}.cls-2{fill:#7e675c;}.cls-3{fill:#dbd0bb;}.cls-4{fill:#fff;}</style></defs><title>資產 13</title><g id="圖層_2" data-name="圖層 2"><g id="圖層_1-2" data-name="圖層 1"><path class="cls-1" d="M165.29,276.29c-1-2.47-.21-4.18,1.15-5.09a10.34,10.34,0,0,0,2.71-2.26c.44-.65,0-2.25-.8-3.62-.55-.89-2.64-4.52-4.21-6.73-4.11-8-8.45-17.76-11.77-26.08-5.05-12.62-8.41-38.09-2.53-47.11a33.45,33.45,0,0,1,4.21-4.21s4.2,7.58,14.3,26.08c12.25,22.47,21.35,38.9,24.4,53.85s1.74,17.79.17,20-6.37,6.81-9.52,6.76-6.05-3.69-7.22-6.14-3.21-6.28-3.21-6.28c0,.84-2,2.83-3,2.88S166.25,278.76,165.29,276.29Z"/><path class="cls-1" d="M153.92,309.72a8,8,0,0,1-.31-3.35c.1-2.46-1.52-43.88-1.52-43.88a5.6,5.6,0,0,0-3.94-4.32c-7.75-1.93-9.17-1.72-14.7.3-9,3.28-17.08,9.87-18.11,19.89,0,0,.62,4.19.62,4.24.05,1,3,38.08,3.25,39.34a14.17,14.17,0,0,0,9.56,9.21c7,2.23,30.72,1,30.72,1s7.4-2,7.47-5.94-.37-5.53-2.67-8.36S153.92,309.72,153.92,309.72Z"/><path class="cls-1" d="M59.56,264.63c6.45-12,19.3-9.82,24.4-9.67,10.93.32,10.73,14.3,11.44,22a2.9,2.9,0,0,0-.08.56c0,1.46,1.16,39.49.63,43.18s.7,2.67,2.35,3.49a25.1,25.1,0,0,1,10.94,12.68c3.2,8-7.93,8.57-8.77,8.82s-24.59.27-27.78-.8S62,341,61.11,334.81s-2.7-39.29-2.7-39.29S56.45,270.42,59.56,264.63Z"/><path class="cls-2" d="M152.51,273c9-12.38,10.36-23.67,12.88-59,.45-6.23.27-6.32-.84-10.93-1-4.12-6.18-12.23-7.57-15.15-4-8.31-5.73-12.62-5.73-12.62H59.73s-2,3.39-4.54,7.58c-3.42,5.7-4.25,7.32-5.89,10.09-.79,1.32-3,4.36-3.37,6.73-1.68,10.94-.63,21.1-.84,29.45C44.25,262,55.18,273.66,56,274.58c0,.05,13.37,11.29,20.24,14.34,5.27,2.34,16,3,17.76,3.09s21.2-.21,21.2-.21,16-1.73,22.45-5.29A43.6,43.6,0,0,0,152.51,273Z"/><path class="cls-1" d="M47.39,276.32c1-2.47.2-4.19-1.15-5.09A10.62,10.62,0,0,1,43.52,269c-.44-.65-.05-2.24.81-3.61.55-.89,2.64-4.53,4.2-6.73,4.11-8,8.45-17.76,11.78-26.08,5-12.62,8.41-38.09,2.52-47.11a32.88,32.88,0,0,0-4.2-4.21s-4.21,7.57-14.3,26.08C32.07,229.76,23,246.19,19.93,261.14s-1.75,17.79-.18,20,6.38,6.81,9.52,6.76,6.06-3.69,7.23-6.15,2.36-5.33,2.36-5.33,2.84,1.88,3.82,1.93S46.43,278.79,47.39,276.32Z"/><path class="cls-3" d="M101.9,250.06s7.26,9.11,18.14,10.8,23.46-2.26,27.33-10.8,7-33.71-8-43.62-29.51-2.91-32.17,0S97.79,217.08,98,228,99.48,245.06,101.9,250.06Z"/><path class="cls-1" d="M190.32,51.54a87.33,87.33,0,0,0-15-19.84c3.42-2.05,7.35-6.61,4.23-11.84-4.62-7.79-11.77-8.63-17.45-5.26a6.8,6.8,0,0,0-3.43,4A89.6,89.6,0,0,0,125.54,6.4C102.83,3,72,7,48.71,15.93c-1.33.51-2.66,1.12-4,1.78a7.45,7.45,0,0,0-3.09-3.11C36,11.23,28.82,12.07,24.19,19.86c-2.77,4.67.06,8.8,3.13,11.1-13.79,14-24,33.2-24.6,44.42C1.87,91.93-8.5,136.79,30.9,169.6c0,0,11.36,11.78,27.34,15.71s76.28,7.29,97-4.49,34.49-23,40.66-45.71S205.46,79,190.32,51.54Z"/><path class="cls-2" d="M189.45,46.34A87.36,87.36,0,0,0,174.5,26.5c3.42-2.05,7.34-6.61,4.23-11.85C174.1,6.87,167,6,161.27,9.4a6.8,6.8,0,0,0-3.43,4A89.7,89.7,0,0,0,124.68,1.19C102-2.17,71.11,1.76,47.84,10.73a42.06,42.06,0,0,0-4,1.78A7.39,7.39,0,0,0,40.78,9.4C35.11,6,28,6.87,23.33,14.65c-2.78,4.68.05,8.81,3.12,11.1-13.79,14-24,33.21-24.6,44.43C1,86.72-9.37,131.59,30,164.4c0,0,11.36,11.78,27.34,15.71s76.28,7.29,97-4.49,34.49-23,40.66-45.71S204.6,73.82,189.45,46.34Z"/><path class="cls-4" d="M88.35,116.39s-6.09,6.33-2.68,11.72,9.88,8.68,18.75,9.85,39.2,2.58,48.74-1.64,15-13.6,10.91-19.93-24.2-14.07-37.5-13.37S95.17,108.88,88.35,116.39Z"/><path d="M118.65,101.45s0,5.42,3.47,8.25,9,2.59,11.34,0,4-9.45,2.56-11.56S117.92,94.16,118.65,101.45Z"/><circle class="cls-4" cx="93.79" cy="85.32" r="21.17"/><circle class="cls-4" cx="158.27" cy="84.48" r="21.17"/><circle cx="99.78" cy="85.13" r="11.29"/><circle cx="153.04" cy="85.97" r="11.29"/><path d="M162.47,49.22S134.76,61,133.92,67.7s55.42-9.24,53.74-14.28S162.47,49.22,162.47,49.22Z"/><path d="M87.76,49.22S115.47,61,116.31,67.7,60.89,58.46,62.57,53.42,87.76,49.22,87.76,49.22Z"/><path class="cls-2" d="M44.79,275.45c1-2.47.2-4.18-1.15-5.09a10.43,10.43,0,0,1-2.72-2.26c-.44-.66-.05-2.25.81-3.62.55-.89,2.64-4.52,4.2-6.73,4.11-8,8.45-17.76,11.78-26.08,5-12.62,8.4-38.09,2.52-47.11a32.88,32.88,0,0,0-4.2-4.21s-4.21,7.57-14.3,26.08c-12.26,22.46-21.36,38.9-24.4,53.84s-1.75,17.79-.18,20,6.38,6.81,9.52,6.76,6.06-3.69,7.23-6.15,2.36-5.33,2.36-5.33,2.84,1.89,3.81,1.93S43.83,277.92,44.79,275.45Z"/><path class="cls-2" d="M57,264.63c6.45-12,19.3-9.82,24.4-9.67,10.93.32,10.73,14.3,11.44,22a2.9,2.9,0,0,0-.08.56c0,1.46,1.16,39.49.63,43.18s.7,2.67,2.35,3.49a25.1,25.1,0,0,1,10.94,12.68c3.2,8-7.93,8.57-8.77,8.82s-24.59.27-27.78-.8S59.38,341,58.51,334.81s-2.7-39.29-2.7-39.29S53.85,270.42,57,264.63Z"/></g></g></svg>