<svg xmlns="http://www.w3.org/2000/svg" viewBox="0 0 320.06 456.95"><defs><style>.cls-1{fill:#d45a65;}.cls-2{fill:#ef5c79;}.cls-3{fill:#fbc5cf;}</style></defs><title>資產 6</title><g id="圖層_2" data-name="圖層 2"><g id="圖層_1-2" data-name="圖層 1"><rect class="cls-1" x="144.61" width="23.14" height="456.95" rx="6" ry="6"/><path class="cls-2" d="M302.77,197.31c-24.14-43.73-67-66.53-103.27-72,10.34-26.24,4.56-51.4,2-60.62C198.78,54.66,185,39.23,179.21,40.57c-5.19,1.21-14.83,69.41-16.7,83-5.38.19-10.85.55-16.35,1.08-1.43-10.44-11.5-82.82-16.85-84.07-5.77-1.34-19.57,14.09-22.33,24.15-2.68,9.79-9,37.56,4.15,65.51a245.07,245.07,0,0,0-34.68,10.28C39.25,154.82,4.3,208.93,3,235.32S-15,333.27,48,385.59c0,0,18.15,18.79,43.7,25.05s121.9,11.63,155.06-7.16,55.12-36.67,65-72.9S327,241.14,302.77,197.31Z"/><path class="cls-3" d="M295.9,193.93C272.77,150.84,231.68,128.37,197,123c9.9-25.86,4.37-50.66,2-59.74-2.65-9.91-15.87-25.12-21.39-23.8-5,1.19-14.21,68.41-16,81.78-5.16.19-10.4.55-15.68,1.07-1.36-10.29-11-81.62-16.14-82.85-5.53-1.32-18.75,13.89-21.39,23.8-2.57,9.65-8.66,37,4,64.56A231.12,231.12,0,0,0,79,138C43.4,152.06,9.9,205.39,8.61,231.39S-8.56,327.91,51.77,379.48c0,0,17.39,18.51,41.87,24.68s116.81,11.46,148.58-7.05,52.83-36.14,62.27-71.84S319.09,237.12,295.9,193.93Z"/></g></g></svg>