<svg xmlns="http://www.w3.org/2000/svg" viewBox="0 0 2362.31 5394.47"><defs><style>.cls-1{fill:#f3b9b4;}</style></defs><title>資產 5</title><g id="圖層_2" data-name="圖層 2"><g id="圖層_1-2" data-name="圖層 1"><path class="cls-1" d="M1472.88,0S333.54,166.61,133.54,402.61s144,324,244,324c83.1,0,1262.83,52.49,1739.53,244.68,96.94,39.09,141.41,251.56-.3,293.12C1602,1415.38,237.09,1446.8,86.54,1643.61-56.85,1831.06,1311.77,1958.84,2116.46,2134c272.8,59.38,378.09,387.15,1.19,473.14C1397.24,2771.5,27.64,2852.26,2.54,3166.61c-69,864,1285.2,599.55,2083,772,12,2.59,33.17,8.44,33.17,8.44l-2.17,284.56s-279.26,140.28-363,180c-399.42,189.47-1554,453-1554,453l-3.28,529.86,1920.28-4.86s412.22-1509.1,2-1644c-665.34-218.79-954-223-919-503,30.23-241.82,916.68-500,916.68-500l1.21-915.62s-215.61-73.27-189.89-124.38c20.36-40.47,92.69-89.6,189.08-143.85,272.77-153.51-.08-1068.15-.08-1068.15s-1083-24-1164-111C747.67,159.57,1472.88,0,1472.88,0Z"/></g></g></svg>