<svg xmlns="http://www.w3.org/2000/svg" viewBox="0 0 117.39 121.39"><defs><style>.cls-1{fill:#eef2ef;}.cls-2{fill:#ee7395;}</style></defs><title>資產 16</title><g id="圖層_2" data-name="圖層 2"><g id="圖層_1-2" data-name="圖層 1"><path class="cls-1" d="M6.3,89.28s10.33,20.64,33.55,28.38,51.61,2.58,61.93-7.74,20.65-31,12.9-72.25S54-4.91,38.56,5.41,5,31.22,2.43,41.54-2.73,75.09,6.3,89.28Z"/><path class="cls-2" d="M93.84,42.78A34.65,34.65,0,0,0,88,35c1.35-.8,2.89-2.6,1.66-4.66-1.82-3.06-4.63-3.39-6.86-2.07a2.7,2.7,0,0,0-1.35,1.59A35.16,35.16,0,0,0,68.35,25c-8.94-1.33-21.07.22-30.23,3.75a15.5,15.5,0,0,0-1.56.7,3,3,0,0,0-1.22-1.23c-2.23-1.32-5.05-1-6.87,2.07-1.09,1.84,0,3.47,1.23,4.37C24.28,40.19,20.25,47.74,20,52.16c-.33,6.51-4.41,24.16,11.09,37.07a25.07,25.07,0,0,0,10.76,6.18c6.29,1.54,30,2.87,38.17-1.77s13.57-9,16-18S99.79,53.59,93.84,42.78Z"/></g></g></svg>