<svg xmlns="http://www.w3.org/2000/svg" viewBox="0 0 377.65 558"><defs><style>.cls-1{fill:#eb616d;}.cls-2{fill:#ef5c79;}.cls-3{fill:#fbc5cf;}</style></defs><title>資產 7</title><g id="圖層_2" data-name="圖層 2"><g id="圖層_1-2" data-name="圖層 1"><rect class="cls-1" x="177.06" width="24" height="558" rx="6" ry="6"/><path class="cls-2" d="M357.25,241.89c-28.49-51.6-79.09-78.5-121.86-84.91,12.2-31,5.39-60.66,2.41-71.53-3.26-11.87-19.54-30.08-26.34-28.5-6.13,1.43-17.5,81.9-19.71,97.92-6.35.23-12.8.65-19.3,1.28-1.68-12.32-13.57-97.73-19.88-99.2-6.8-1.58-23.08,16.63-26.34,28.5-3.16,11.55-10.66,44.32,4.89,77.29a290,290,0,0,0-40.91,12.13C46.32,191.76,5.07,255.61,3.49,286.74S-17.67,402.31,56.63,464.05c0,0,21.41,22.17,51.56,29.55s143.83,13.73,183-8.44,65-43.27,76.67-86S385.8,293.6,357.25,241.89Z"/><path class="cls-3" d="M349.14,237.9c-27.29-50.84-75.77-77.36-116.76-83.67,11.69-30.51,5.16-59.78,2.31-70.49C231.57,72,216,54.1,209.45,55.66c-5.87,1.4-16.77,80.71-18.89,96.49-6.08.23-12.27.65-18.49,1.26-1.61-12.14-13-96.31-19-97.75C146.5,54.1,130.9,72,127.78,83.74c-3,11.38-10.21,43.68,4.69,76.17a271.66,271.66,0,0,0-39.21,12C51.21,188.5,11.68,251.42,10.17,282.11S-10.1,396,61.09,456.84c0,0,20.52,21.84,49.4,29.12s137.82,13.52,175.32-8.32,62.32-42.64,73.47-84.77S376.51,288.87,349.14,237.9Z"/></g></g></svg>