<svg xmlns="http://www.w3.org/2000/svg" viewBox="0 0 152.49854 71.35918"><defs><style>.cls-1{fill:#da4d55;}.cls-2{fill:#fff;}.cls-3{fill:#2b102e;}</style></defs><title>資產 3</title><g id="圖層_2" data-name="圖層 2"><g id="圖層_1-2" data-name="圖層 1"><ellipse class="cls-1" cx="14.61353" cy="37.01389" rx="14.61353" ry="7.08139"/><ellipse class="cls-1" cx="137.88501" cy="37.01389" rx="14.61353" ry="7.08139"/><path class="cls-2" d="M27.22185,42.846s-7.86983,7.9261-3.46654,14.678,12.76954,10.86169,24.2181,12.32949,50.63784,3.22915,62.967-2.05492S130.31493,50.77212,125.031,42.846,93.76763,25.23246,76.59479,26.11314,36.02843,33.45212,27.22185,42.846Z"/><ellipse class="cls-3" cx="14.91618" cy="14.16253" rx="14.61353" ry="14.16266"/><ellipse class="cls-3" cx="137.08534" cy="14.16253" rx="14.61353" ry="14.16266"/><path class="cls-3" d="M106.89449,49.4906c-2.17578.64846-15.36524,2.337-18.37359.16631-3.06125-2.20935-6.48818-7.73475-7.54962-12.8904a8.4968,8.4968,0,0,0,4.52143-2.29632c3.07091-3.24282,5.20193-11.8254,3.30944-14.462-1.892-2.63606-23.38887-4.99443-22.44389,4.14405,0,0,0,6.78011,4.48837,10.31792a12.17871,12.17871,0,0,0,5.91194,2.42143c-1.09043,5.12-4.48634,10.57374-7.52368,12.76529-3.00886,2.17375-16.1973.48215-18.37156-.16631a1.79879,1.79879,0,0,0-2.05372.37229,1.66479,1.66479,0,0,0,.08951,2.40567c.76188.68762,7.36551,1.83909,13.39646,1.83909,3.74582,0,7.2704-.44451,9.03778-1.71906,2.78406-2.00947,5.73037-6.03451,7.54453-10.51271,1.81468,4.4782,4.761,8.50324,7.545,10.51271,1.76738,1.27505,5.292,1.71906,9.03828,1.71906,6.03044,0,12.63509-1.15146,13.397-1.83909a1.6652,1.6652,0,0,0,.089-2.40567A1.79548,1.79548,0,0,0,106.89449,49.4906Z"/></g></g></svg>