<svg xmlns="http://www.w3.org/2000/svg" viewBox="0 0 117.39 121.39"><defs><style>.cls-1{fill:#eef2ef;}.cls-2{fill:#ee7395;}</style></defs><title>資產 19</title><g id="圖層_2" data-name="圖層 2"><g id="圖層_1-2" data-name="圖層 1"><path class="cls-1" d="M6.3,89.28s10.33,20.64,33.55,28.38,51.61,2.58,61.93-7.74,20.65-31,12.9-72.25S54-4.91,38.56,5.41,5,31.22,2.43,41.54-2.73,75.09,6.3,89.28Z"/><path class="cls-2" d="M93.7,39c-3.14-2.76-12.84-12.25-15.36-10.62A32.87,32.87,0,0,0,68.15,25c-8.53-1.3-20.05.16-28.9,3.54C37.1,26.2,26.91,36.17,23.69,39,19.15,43,7.47,68.52,13.1,76.84c1.78,2.64,4.82-.2,8.13-5.31a31.45,31.45,0,0,0,10.64,17.7,24.3,24.3,0,0,0,10.48,6.18c6.13,1.54,29.24,2.87,37.19-1.77s13.23-9,15.59-18c.35-1.33.68-2.74,1-4.23,3.34,5.17,6.4,8.06,8.2,5.41C109.91,68.52,98.24,43,93.7,39Z"/></g></g></svg>