<svg xmlns="http://www.w3.org/2000/svg" viewBox="0 0 1244.74 1164.29"><defs><style>.cls-1{fill:#c5798a;opacity:0.5;}.cls-2{fill:#ef5c79;}.cls-3{fill:#f3abb1;}.cls-4{fill:#d45a65;}.cls-5{fill:#f0a1c8;}.cls-6{fill:#eb616d;}.cls-7{fill:#f8c188;}.cls-8{fill:#fbc5cf;stroke:#eb616d;stroke-miterlimit:10;stroke-width:3px;}.cls-9{fill:#e2dcd0;}</style></defs><title>資產 2</title><g id="圖層_2" data-name="圖層 2"><g id="圖層_1-2" data-name="圖層 1"><ellipse class="cls-1" cx="622.37" cy="1053.26" rx="622.37" ry="111.03"/><path class="cls-2" d="M50.9,1039.19s210.3,76.09,266.73,78.66,363.33,5.13,436,0,281.26-16.25,306.9-28.22,108.58-29.92,124.82-50.44,7.69-47.87,7.69-50.43-3.42-20.52-5.13-20.52-15.38-5.13-15.38-5.13,3.42-15.39-4.28-17.1-20.52-4.27-20.52-4.27-.85-21.38-8.55-21.38-47,3.42-47,3.42-.86-22.22-10.26-27.35-48.73-3.42-48.73-3.42,1.71-12.83-12-16.25-73.52-2.56-73.52-2.56,3.42-28.21-6-34.2-90.62-11.11-90.62-11.11H355.45l-112.2,31.63-20.52,18.81s-34.19,0-43.6,4.27-7.69,18.81-7.69,18.81S139.81,907.54,133,911s-7.7,22.23-7.7,22.23-26.5,1.71-34.19,5.13S67.14,946.87,68,955.41c0,0-15.39-3.41-17.1,4.28s0,23.08,0,23.08-4.28,2.57-6.84,14.53S43.2,1036.63,50.9,1039.19Z"/><path class="cls-3" d="M348.4,558.74c0,3.42,7.56,278.7,7.56,295.8s146.15,18,171.34,15.38,244-9,297.33-25.64c24.74-7.7,26-15.39,26-15.39l-5.88-289.81-496.39,9.4Z"/><path class="cls-4" d="M352.68,569.86S426.2,582.68,451,583.53s188.93,5.13,233.39,0,116.26-13.67,124-18.8S833,539.3,833,539.3l12.15-.22v31.2s-5.13,9-13.68,13.25-15.39,5.13-27.36,2.57-18.8-8.55-22.22-6-12,12-19.67,17.1-17.95,7.7-24.79,4.28-9.4-12.83-16.24-9.41-3.42,12.83-17.1,17.1-35.9,6-47,0S634.79,622,619.41,619.44s-29.07-13.68-33.35-14.53S575,616,567.26,619.44s-36.76,7.69-42.75,0S510,600.63,504.85,604.05s-5.13,11.11-16.24,12.82-22.23-4.27-26.51-9.4-6.83-6.84-13.67-1.71-22.23,12.82-33.35,6.84-8.54-10.26-12.82-13.68-6.84,3.42-15.39,4.28-20.51-7.7-27.35-14.54S349.26,569,352.68,569.86Z"/><path class="cls-4" d="M354.28,616.13c-.28-1.34-2.34-.77-2.06.57l3,14.22c.28,1.35,2.34.78,2.06-.56Z"/><path class="cls-4" d="M834.37,619.78c1.3-.43.74-2.49-.57-2.06q-16.86,5.53-34,10.19a1.19,1.19,0,0,0,.13-.32,20.33,20.33,0,0,0-2-13.94,1.05,1.05,0,0,0-.53-.48q8.56-1.84,17.09-3.94v0l3.66,12.07c.4,1.31,2.47.75,2.07-.57l-3.66-12c5.74-1.44,11.45-3,17.15-4.57a1.07,1.07,0,0,0-.57-2.06c-59.6,16.91-121.4,23.37-183,27.79-31.07,2.23-62.25,4.78-93.41,5.28-32,.51-63.8-2.84-95.49-7.12-35.76-4.83-71.48-9.93-107.22-14.91-1.35-.19-1.93,1.87-.57,2.06l23.82,3.32a2,2,0,0,0-.05.24,64.11,64.11,0,0,0,.65,17.44c0,.06,0,.12.05.17q-9.06-2-18-4.71c-1.32-.4-1.88,1.66-.57,2.06a238.12,238.12,0,0,0,45.09,9.11c16.21,1.65,32.47,1.18,48.73.88a373.45,373.45,0,0,1,48.92,2.1c15.92,1.8,31.76,4.15,47.71,5.69a698.78,698.78,0,0,0,182.86-6.57A698.29,698.29,0,0,0,834.37,619.78ZM379.53,636.7a1.09,1.09,0,0,0,.44-1.09,62,62,0,0,1-.59-16.82l34.8,4.85a1.08,1.08,0,0,0-.48.8q-1,8-1.91,15.93a.84.84,0,0,0,.57,1A231,231,0,0,1,379.53,636.7Zm182.28,13.69c-31.41-2.48-62.56-8.75-94.13-9-18.07-.12-36.16,1.11-54.22,0l-.51,0a1.14,1.14,0,0,0,1-1q.94-8,1.91-15.93a1,1,0,0,0-.11-.58L427,625.43a1,1,0,0,0-.34.7Q426,633,425.39,639.8c-.13,1.37,2,1.36,2.14,0q.63-6.84,1.27-13.67a.85.85,0,0,0-.06-.46l11.65,1.62q-.34,6.26-.7,12.52c-.07,1.37,2.07,1.37,2.14,0q.35-6.12.68-12.23l7.34,1c9.18,1.28,18.37,2.53,27.57,3.67v7a1.07,1.07,0,0,0,2.14,0v-6.71q8.08,1,16.19,1.83a.9.9,0,0,0-.09.32c-.21,1.9-.43,3.8-.64,5.7-.15,1.36,2,1.35,2.14,0q.31-2.85.64-5.7v-.11c15.37,1.55,30.78,2.61,46.24,2.76,8,.08,16,0,23.93-.27a1.11,1.11,0,0,0-1,1.33,98.62,98.62,0,0,1,1.56,10.55c.13,1.36,2.26,1.37,2.14,0A104.2,104.2,0,0,0,569,637.82a.9.9,0,0,0-1-.77c23.87-.73,47.74-2.66,71.53-4.3q16.65-1.14,33.3-2.48a1.12,1.12,0,0,0-1,1A56.28,56.28,0,0,0,673,649.21c.3,1.34,2.36.77,2.06-.57a54.19,54.19,0,0,1-1-17.36.89.89,0,0,0-.95-1c13.24-1.09,26.47-2.31,39.68-3.76a1,1,0,0,0-.38.78q-.35,8-.7,16c-.06,1.38,2.08,1.38,2.14,0q.35-8,.7-16a.93.93,0,0,0-.53-.92c6.2-.68,12.39-1.4,18.58-2.2l.84-.11a1,1,0,0,0-.65,1,77.12,77.12,0,0,0,1.06,14.55c.23,1.35,2.29.78,2.06-.57a73.56,73.56,0,0,1-1-14,1,1,0,0,0-.92-1c20.93-2.72,41.78-6.13,62.41-10.56a1,1,0,0,0-.26,1.32A17.86,17.86,0,0,1,797.89,627a1.08,1.08,0,0,0,.65,1.23q-9.49,2.58-19,4.88V633q-.74-7.11-1.46-14.22c-.14-1.35-2.28-1.36-2.13,0q.72,7.11,1.45,14.22a1.11,1.11,0,0,0,.27.62,697.18,697.18,0,0,1-124.67,18A696.49,696.49,0,0,1,561.81,650.39Z"/><path class="cls-4" d="M750.42,622.72V637a1.07,1.07,0,0,0,2.14,0V622.72A1.07,1.07,0,0,0,750.42,622.72Z"/><path class="cls-4" d="M691,630.14l1.32,14.8c.12,1.36,2.26,1.37,2.14,0l-1.32-14.8C693.05,628.78,690.91,628.76,691,630.14Z"/><path class="cls-4" d="M650.68,633.55v16a1.07,1.07,0,0,0,2.14,0v-16A1.07,1.07,0,0,0,650.68,633.55Z"/><path class="cls-4" d="M586.28,637.53v11.4a1.07,1.07,0,0,0,2.14,0v-11.4A1.07,1.07,0,0,0,586.28,637.53Z"/><path class="cls-4" d="M549.8,639.81v6.27a1.07,1.07,0,0,0,2.14,0v-6.27A1.07,1.07,0,0,0,549.8,639.81Z"/><path class="cls-4" d="M532.78,638.68c-.23,2.47-.47,4.93-.7,7.4-.13,1.37,2,1.36,2.14,0,.23-2.47.47-4.93.7-7.4C535.05,637.31,532.91,637.32,532.78,638.68Z"/><path class="cls-4" d="M513.33,637.53v5.7a1.07,1.07,0,0,0,2.13,0v-5.7A1.07,1.07,0,0,0,513.33,637.53Z"/><path class="cls-4" d="M458.61,632.41v7.4a1.07,1.07,0,0,0,2.14,0v-7.4A1.07,1.07,0,0,0,458.61,632.41Z"/><path class="cls-4" d="M395.35,622.72V638.1a1.07,1.07,0,0,0,2.14,0V622.72A1.07,1.07,0,0,0,395.35,622.72Z"/><path class="cls-4" d="M365.91,631q-1.41-6.28-2.81-12.55c-.3-1.34-2.36-.78-2.06.57q1.4,6.27,2.8,12.54C364.14,632.94,366.21,632.37,365.91,631Z"/><path class="cls-4" d="M839.61,617a93,93,0,0,1-.37-14.83c.07-1.37-2.07-1.37-2.14,0a93,93,0,0,0,.37,14.83C837.61,618.39,839.75,618.4,839.61,617Z"/><path class="cls-4" d="M722.28,686.19a1,1,0,0,0,.11-1.67c4.4-1.43,1.58-9.35.06-12.26-2.87-5.51-8.49-7.28-14.12-4.68-5.84,2.7-5.81,9.32-2.52,14.28C709.48,687.38,716.42,688.73,722.28,686.19Zm-13.89-16.25c3.84-2.31,8.57-1.88,11.25,1.85.77,1.07,5.12,10.53,1.69,10.8a1.13,1.13,0,0,0-.66,2,11,11,0,0,1-11.85-2.34C705.77,679.13,703.91,672.64,708.39,669.94Z"/><path class="cls-4" d="M720.38,716.79a.89.89,0,0,0,.91.49c5.68-.35,10.7-5.08,10-11-.81-6.65-6.91-9.52-13-8.79-5.63.67-10.53,3.33-9.33,9.71C710,712.86,714.77,717.15,720.38,716.79Zm-.61-17.36c10.35-.41,12.41,13.17,3.44,15.42a1,1,0,0,0-1.18-.5c-5,1.4-9.36-1.81-10.72-6.58C709.6,701.77,714.88,699.62,719.77,699.43Z"/><path class="cls-4" d="M725,746.25a.92.92,0,0,0,1.45.48,8.73,8.73,0,0,0,1.47-12.42c-3.06-4-10.13-6.49-14.93-4.5-5.29,2.19-4.14,9.31-1.72,13.27C714.26,747.94,720.15,747.39,725,746.25Zm-11.15-14.42c3.35-1.43,8.44.17,11.08,2.42,2.84,2.42,3.91,7,1.28,9.87a1,1,0,0,0-.87-.16c-3.21.82-7.39,1.88-10.42-.05C711.69,741.83,709.3,733.77,713.87,731.83Z"/><path class="cls-4" d="M763.15,679a.87.87,0,0,0,.7-.54c4.38-1.88,5.29-7.17,4.11-11.59-.59-2.19-1.48-5.12-3.42-6.5-2.51-1.79-5.69-.35-8.3.44-2,.61-4.88,1-6,3.08s-.31,5.15.39,7.18C752.51,676.4,757.41,679.94,763.15,679Zm-10.44-8.5c-.46-1.27-1.17-3.33-.81-4.64.59-2.16,2.53-2.27,4.3-2.81a19.73,19.73,0,0,1,4.11-1.22c3.87-.2,4.63,2.25,5.44,5.05,1.08,3.79.9,8.83-3.74,9.95a1,1,0,0,0-.44.22C757.44,677.22,754.1,674.32,752.71,670.45Z"/><path class="cls-4" d="M769.34,711.25a1,1,0,0,0,.73-1.18c3.85-1.78,7.08-4.55,6.42-9.42-.82-5.94-6.66-9-12.2-8.87-2,.05-4.49.33-5.71,2.14-1.45,2.14-.66,6-.25,8.38C759.24,707.62,763.37,713,769.34,711.25Zm-8.88-15.39c.66-1.55.87-1.57,2.5-1.83a12.57,12.57,0,0,1,2.94-.08c4.15.38,8.36,3.12,8.54,7.65s-4.35,6.37-7.93,7.59a1.31,1.31,0,0,0-.31.17c-3.41-.61-5.36-4.62-5.86-8C760.09,699.56,759.74,697.53,760.46,695.86Z"/><path class="cls-4" d="M767.4,737.82c2.29,0,4.59-.05,6.88-.08a1,1,0,0,0,1-1.22c3.59-2.46,6.15-6.61,4.44-11a8.93,8.93,0,0,0-11-5.13,10.57,10.57,0,0,0-7,11.64c.25,1.87.92,4.45,2.75,5.43A6.23,6.23,0,0,0,767.4,737.82Zm-3.45-5.2a8.68,8.68,0,0,1,4.28-9.8,6.83,6.83,0,0,1,9.45,3.38c1.71,4.09-1.65,7.68-5,9.42l-4,0C766.18,735.69,764.58,735.28,764,732.62Z"/><path class="cls-4" d="M774.32,763.55c5.35-.11,8.39-5,8-10-.14-2.13-.71-4.69-2.24-6.27s-4.27-1.7-6.49-1.51c-4.76.38-8.74,3.87-8.65,8.89.09,4.58,4,7.9,8.36,8.15A1,1,0,0,0,774.32,763.55Zm-1-15.56a10.15,10.15,0,0,1,4.11.07c2.12.73,2.69,3.62,2.84,5.52.28,3.53-1.44,7.2-5.07,7.76a.92.92,0,0,0-1-.62C765.69,761,764.86,749.09,773.28,748Z"/><path class="cls-4" d="M722.56,752.65c-13.09.62-7.92,21.61,1.88,16.55,1.22-.63.14-2.47-1.08-1.84-5.12,2.64-7.42-5-6.45-8.62,1.11-4.2,6.3-4.6,9.7-3.32,3.63,1.36,6,4.87,4.19,8.67-1.34,2.78-4.2,4.64-6.7,6.26-1.15.74-.08,2.59,1.08,1.84,4.12-2.67,9.38-6.63,8.3-12.26C732.54,755.1,727.11,752.44,722.56,752.65Z"/><path class="cls-4" d="M665.06,690.08a1.12,1.12,0,0,0,1.19.6c4.82-.72,5.7-6.28,3.32-9.85-2.87-4.31-9.76-7.08-14.75-5.22C645.42,679.1,655.67,697.22,665.06,690.08Zm-7.75-12.8a12,12,0,0,1,7.89,2.2c2.78,1.93,6.31,8.27.48,9.14l-.21,0a.88.88,0,0,0-1.43-.47C656.16,694.27,648.73,678.49,657.31,677.28Z"/><path class="cls-4" d="M668.85,719.09c1.37-.07,1.37-2.21,0-2.13a13.66,13.66,0,0,1-8.88-2.5c-3.18-2.31-7.13-7.88-2-10.49,3.27-1.67,7.39-2.08,9.61,1.3,2.09,3.17,4.06,6.79,3.36,10.7-.23,1.35,1.82,1.93,2.07.57.86-4.83-1.52-10.77-5-14.25-3-3.07-9-1.77-12.22.38-3.91,2.59-2.57,7.48-.1,10.62A15.56,15.56,0,0,0,668.85,719.09Z"/><path class="cls-4" d="M670.19,748.9a1,1,0,0,0,.45-.18c5.11-1.09,7.15-5.09,5.3-10.6-1.68-5-6.22-10.52-12.19-8.73-5.64,1.7-5.83,8.72-5.14,13.52C659.51,749.2,664.81,749.76,670.19,748.9Zm-7.77-16.34c7.31-6.76,19.42,13.36,6.39,14.29a1,1,0,0,0-.52.17c-3.86.41-7.17-.3-7.64-5.13C660.36,739,660.05,734.76,662.42,732.56Z"/><path class="cls-4" d="M668.61,760c-5.13-.28-9,4.7-8.47,9.61.74,6.27,6.48,9.19,12.12,9.86,4.57,3,7.88-2.72,7.21-6.77C678.59,767.27,674.77,760.3,668.61,760Zm4.92,17.74a1.07,1.07,0,0,0-.57-.32.8.8,0,0,0-.34,0c-3.7-.37-7.34-1.58-9.32-5-1.85-3.18-1.25-7.52,2.11-9.51,3.88-2.28,7.75.87,9.66,4.07a18.64,18.64,0,0,1,2,4.67C677.6,773.68,677.29,780,673.53,777.71Z"/><path class="cls-4" d="M801,670.79c1.31-.41.75-2.47-.57-2.06-7.36,2.29-11.3-7.57-5-11.59a7.12,7.12,0,0,1,8.79,1.19c2.4,2.32,4.34,9.65-1.33,9.31-1.37-.08-1.37,2.06,0,2.14,5.26.31,6.84-5.49,5.13-9.6-1.85-4.46-7.06-7.36-11.77-5.8-4.24,1.42-7.35,6.31-6,10.73A8.71,8.71,0,0,0,801,670.79Z"/><path class="cls-4" d="M809.27,703.07a1,1,0,0,0,.15-.13,7.66,7.66,0,0,0,5-10.05c-2-5.72-8.86-8.26-14.51-7.48C788.48,687,797.56,711,809.27,703.07Zm-8.18-15.62c3.37-.13,7.28.82,9.62,3.41,3.21,3.56,2.42,10.27-3.32,10.2a1,1,0,0,0-1,1.12C797.65,705.43,793.34,687.76,801.09,687.45Z"/><path class="cls-4" d="M810.62,730.82a1,1,0,0,0,1,.25c4.54-1,5.76-6.26,4-10.06s-6.11-9-10.8-6.87a8.87,8.87,0,0,0,5.85,16.68ZM804.3,717c1.84-1.55,3.62-1.39,5.49.12a15.48,15.48,0,0,1,3.08,3.48c1.63,2.53,2.13,6.83-1,8.17a.92.92,0,0,0-.94-.19C803.89,730.7,798.44,721.87,804.3,717Z"/><path class="cls-4" d="M810.08,761.81c5-1.33,9.21-6,8.41-11.41-.7-4.77-5.65-8.85-10.53-7.69a8.29,8.29,0,0,0-5.8,10.19c1.07,3.24,5,6,8.67,6.4a10.26,10.26,0,0,1-1.32.45A1.07,1.07,0,0,0,810.08,761.81Zm-6.14-11.16a5.94,5.94,0,0,1,6.41-5.91,7.15,7.15,0,0,1,6,8.18,7.89,7.89,0,0,1-1.9,3.87,1,1,0,0,0-.76.08C810.05,758.7,804,754.42,803.94,750.65Z"/><path class="cls-4" d="M815,792.26a1,1,0,0,0,.57-1.58c3-1.89,3.15-7.56,1.94-10.58a9.18,9.18,0,0,0-11.72-5.35c-4.68,1.68-6.46,6.8-4.7,11.29C803.28,791.63,809.55,793.37,815,792.26Zm-9.67-14.94a7,7,0,0,1,8.86,1.36,8.22,8.22,0,0,1,1.88,4.34c.26,2,0,6.26-3,6.16a1,1,0,0,0-1,1.29,9.63,9.63,0,0,1-7.64-3C801.81,784.55,801.76,779.5,805.33,777.32Z"/><path class="cls-4" d="M811.87,806.48c-4.68.23-7.59,4-6.28,8.5,1.22,4.19,4.34,9.24,9.16,9.34a1,1,0,0,0,.81-.37,1.36,1.36,0,0,0,.37-.1C825,819.79,822,806,811.87,806.48Zm3,15.53a.82.82,0,0,0-.26.16c-3.24-.18-5.13-3.49-6.31-6.17-.86-2-1.42-3.83.1-5.58a5.31,5.31,0,0,1,5.53-1.63C820.73,810.42,821,819.26,814.85,822Z"/><path class="cls-4" d="M781.11,771.5c-5.12-.51-10.86,1.56-12.3,6.91-1.3,4.79,1.75,9.26,6.31,10.68a1,1,0,0,0,1.27-.75c4.58,1.56,9.36.88,10.45-4.73C787.62,779.52,786.06,772,781.11,771.5Zm1.47,15.17c-2,1.2-4.39.11-6.32-.64a.89.89,0,0,0-1.25.75,6.62,6.62,0,0,1-4.26-7.37c.82-4.13,4.61-5.53,8.37-5.77,4.2-.27,5.8,4.76,5.72,8.24C784.8,783.67,784.25,785.68,782.58,786.67Z"/><path class="cls-4" d="M831.89,662.05c4.37-.24,4.53-5.09,2.73-8.07s-5.67-7-9.72-6c-3.43.86-4.63,4.79-3.48,7.86,1.42,3.82,5.72,5.09,9.45,5.09A1,1,0,0,0,831.89,662.05Zm-7-5c-1.68-1.4-2.51-4.17-1-6,2-2.42,5.23-.22,6.86,1.43a13.74,13.74,0,0,1,2,2.6c.73,1.23,1.8,4.34-.47,4.8a1,1,0,0,0-1-1.07A9.38,9.38,0,0,1,824.89,657.06Z"/><path class="cls-4" d="M834.62,698.9a1.1,1.1,0,0,0,2.1.07c1.38-4.34.3-21.63-8.21-16.21-3.25,2.07-3.5,6-2.12,9.32S830.64,699.87,834.62,698.9Zm-6.28-12.8c1.07-1.86,3.21-2.81,5-.8,1.12,1.26,1.32,3.52,1.58,5.13a18.85,18.85,0,0,1,.16,6.39,1,1,0,0,0-.73,0c-3.08.93-5.69-4.32-6.33-6.5A5.09,5.09,0,0,1,828.34,686.1Z"/><path class="cls-4" d="M833.25,732.1a1,1,0,0,0,.9-.05c4.33-2.33,5.1-7,4.44-11.5-.52-3.54-1.41-9.8-6-10.42s-5.69,4.41-5.38,7.87c.45,5,1.66,9.94,5,13.83A.88.88,0,0,0,833.25,732.1Zm-3.86-17.53,5.9,1c.11.38.21.77.32,1.15a17.09,17.09,0,0,1,.82,4c.53,3.54.29,7.28-3,9.29a17.11,17.11,0,0,1-3.18-6.69C829.84,721.73,828.23,715.63,829.39,714.57Z"/><path class="cls-4" d="M835.68,761.91a1.1,1.1,0,0,0,1.45,0c3.31-2.78,4.17-6.88,3.72-11-.35-3.1-.65-8.87-4.8-9.07-9.56-.46-4.31,16.91-2.26,21.06C834.38,764.07,836.12,763.09,835.68,761.91Zm-2.15-16.48,4.19.58c.17.68.33,1.36.47,2a22.82,22.82,0,0,1,.65,4.51,9.51,9.51,0,0,1-3.22,7.86.93.93,0,0,0-.35.58,27,27,0,0,1-2.22-7.1C832.79,752.24,831.87,746.58,833.53,745.43Z"/><path class="cls-4" d="M839.49,772.78c-2.67-2.21-6.1-.41-7.09,2.62-1.5,4.64.55,10.41,2.82,14.44a1,1,0,0,0,1.58.25C845.83,791.5,844.31,776.77,839.49,772.78Zm-2.74,15.14h-.14a21.48,21.48,0,0,1-1.91-5,18,18,0,0,1-.55-4.05v-1.09c-.28-2.43.62-3.24,2.72-2.45,2.36.13,2-.08,2.83,1.64a22,22,0,0,1,1.38,3.73C841.78,783.51,841.12,788.91,836.75,787.92Z"/><path class="cls-4" d="M835.8,804.86c-4.45-.57-4.66,4.26-4.32,7.43s.94,9.38,4.68,10.23a1.13,1.13,0,0,0,1.86.77,12.13,12.13,0,0,0,4.09-10.65C841.7,809.22,839.56,805.34,835.8,804.86Zm1.78,15.83a1.07,1.07,0,0,0-.62-.21c-2.58,0-3.24-7.06-3.4-8.76-.14-1.5-.74-5.11,2.54-4.61,1.24.19,2.37,1.6,2.9,2.59A9.82,9.82,0,0,1,837.58,820.69Z"/><path class="cls-4" d="M594.06,683.93c-1.17,6,3.06,11.11,8.69,12.49a1.07,1.07,0,0,0,1.73.38c4.74-4.56,13.32-18.68,2.78-22-1-.33-1.61.9-1.15,1.63A9.66,9.66,0,0,0,594.06,683.93Zm12.44-5.15c1,.36,1.55-.77,1.17-1.53,6.33,3.11-.35,13.31-3.93,17.24l-.24-.08c-4.35-1-7.81-4.49-7.48-9.17A7.61,7.61,0,0,1,606.5,678.78Z"/><path class="cls-4" d="M607.65,715.78c-1.22-.64-2.3,1.2-1.08,1.85a8.28,8.28,0,0,1,4.55,7.22c0,5.19-4.89,5.41-8.54,3.64-2.64-1.28-4.93-3.72-5.1-6.78-.22-3.93,3.28-7.9,7.35-5.72,1.21.65,2.29-1.2,1.08-1.85a7.09,7.09,0,0,0-10.21,4.55c-1.41,4.85,1.48,9.5,5.8,11.65,3.71,1.83,9.42,2.43,11.21-2.26S611.92,718.07,607.65,715.78Z"/><path class="cls-4" d="M606.51,763.17c3.58-1.65,4.44-6.36,4.09-9.9-.3-3-2.93-5.93-6.05-4.13a1.07,1.07,0,0,0,1.08,1.85c3-1.74,2.94,3.53,2.81,4.88-.21,2.31-1.13,5.51-4,5.54-4.87.05-4.77-9-1.2-10.73,1.25-.59.16-2.43-1.07-1.84-3.14,1.5-4.18,7-3.34,10.09C599.75,762.17,603.21,764.68,606.51,763.17Z"/><path class="cls-4" d="M603.36,777.82c-2,3.18-3.42,7.47-2.23,11.21.89,2.81,3.63,4.67,6.4,3,3.22-2,3.15-7,3.43-10.26.26-3.08-.92-6.44-4.59-5.85-1.35.21-.78,2.27.57,2.06,2.9-.47,1.72,5.35,1.59,6.42a25.94,25.94,0,0,1-.41,2.9c-.33,1.32-1.67,5.35-4.42,2.3-2.4-2.68,0-8.22,1.51-10.66C605.94,777.74,604.1,776.66,603.36,777.82Z"/><path class="cls-4" d="M603.24,804.75c-1.21.64-.13,2.49,1.08,1.84,2.46-1.3,4.7,1.25,4.87,3.55a10.91,10.91,0,0,1-2,6.28c-2.1,3.17-5.45,1.51-5.79-1.78a7.54,7.54,0,0,1,2.36-6.1c1-1-.52-2.47-1.52-1.51-2.58,2.49-4,6.85-2.35,10.23a5,5,0,0,0,8.1,1.62c2.55-2.61,4.31-7.85,2.7-11.31A5.5,5.5,0,0,0,603.24,804.75Z"/><path class="cls-4" d="M554.39,695.71c7.61-1,8.52-9.74,6.38-15.94-1.9-5.49-7.73-8.46-13.24-7.66a1,1,0,0,0-1.1-.37c-6.43,1.74-9.37,9.2-8.1,15.38C539.87,694.66,547.59,696.64,554.39,695.71Zm-13.86-8.58c-1.17-4.59.57-10.44,4.85-12.69a.94.94,0,0,0,.88.14,10.19,10.19,0,0,1,11.9,4.53c1.2,2.18,1.32,4.95,1.23,7.39-.14,4.33-1.94,7-6.56,7.19C547.66,693.93,542,692.81,540.53,687.13Z"/><path class="cls-4" d="M552.51,727.73c7.6-2.48,7.61-20.65-2.17-19-1.36.24-.78,2.3.57,2.07,6.65-1.14,6.71,17.17-1.87,14.91-8-2.1-3.44-12.12-.17-16.05.87-1-.63-2.57-1.51-1.51-3.27,3.93-6.08,8.89-4.4,14.14C544.22,726.23,548.37,729.09,552.51,727.73Z"/><path class="cls-4" d="M548,742c-1.85,3.9-3.12,9.56.86,12.65,3.51,2.73,8.83,1.26,10.93-2.48,2.2-3.92,1.26-9.78-3-11.91-3.12-1.57-10.12-2.17-12.2,1.32a1.06,1.06,0,0,0,1.84,1.07c1.24-2.07,6.61-1.44,8.51-.82,3.74,1.22,4.79,6,3,9.26-1.57,2.78-5.8,4-8.22,1.49s-1.19-6.75.12-9.5C550.39,741.85,548.54,740.77,548,742Z"/><path class="cls-4" d="M558.58,782.48a11.41,11.41,0,0,0,2.27-6c.2-2,.46-5.48-.69-7.31-1.93-3.08-6.88-.6-9.77,1.35a1,1,0,0,0-1.57.25c-1.82,3.59-4,9.79-.5,13.07C551.43,786.8,556.13,785.58,558.58,782.48ZM550,773.39a1.21,1.21,0,0,0,.44-.22,14.38,14.38,0,0,1,4.86-2.68c2.06-.63,3.11-.81,3.39,1.63.32,2.81.29,5.89-1.26,8.36s-5.46,4.3-7.84,1.64C547.65,780,548.78,776.1,550,773.39Z"/><path class="cls-4" d="M549.77,811.59a6.47,6.47,0,0,0,8.76,1.36,7,7,0,0,0,1.88-9,7.54,7.54,0,0,0-9.1-3.08,1.17,1.17,0,0,0-.61,1.58C548.71,805,547.73,808.72,549.77,811.59ZM553,803a1,1,0,0,0,.26-.46c4.33-.48,8.34,4.63,4.53,8.27a4.27,4.27,0,0,1-6.43-.8C550,807.71,551.29,804.79,553,803Z"/><path class="cls-4" d="M553,823.81a.91.91,0,0,0-.74,1.18,7.91,7.91,0,0,0-2.9,8.8c1.14,3.33,5.09,6.19,8.69,5.1,1.74-.52,2.58-1.9,3.14-3.55.77-2.27,1.6-5.36,1.18-7.78C561.55,823,556.47,823.12,553,823.81Zm3.12,13.1c-6-.25-6.25-8.18-1.83-10.7a1,1,0,0,0,.46-.54c2.66-.38,5.52-.16,5.54,3.46C560.26,831.71,559.36,837,556.07,836.91Z"/><path class="cls-4" d="M496.9,686c3.47-1.62,5.41-5.77,3.53-9.32-2-3.71-7.52-4.28-11.57-4.3a1,1,0,0,0-1.76-.56,9,9,0,0,0-.82,11.36A8.85,8.85,0,0,0,496.9,686ZM487,676.52c.75.5,2-.06,1.65-1.11l-.07-.89a22.2,22.2,0,0,1,7.38,1.19c4.07,1.49,3.75,6.5.07,8.3C490.67,686.64,486.1,681.36,487,676.52Z"/><path class="cls-4" d="M485.76,718.13c3.31,3.92,9.65,5.74,14.16,2.84a8,8,0,0,0,2.59-11.33c-3-4.35-8.31-4.88-13.21-4.68a1,1,0,0,0-1.49,0l-.12.12-.68.05a1.14,1.14,0,0,0-.84,1.77C483.68,710.26,482.68,714.48,485.76,718.13Zm2.94-11c3.08-.21,6.35-.26,9.09,1.21,3.61,1.94,5.49,6.21,2.39,9.66-2.79,3.11-7.46,2.73-10.69.61C484.77,715.47,485.51,710.78,488.7,707.1Z"/><path class="cls-4" d="M500.46,738.13a14,14,0,0,0-15,4.43c-.77,1,.37,2.28,1.23,1.76a7.73,7.73,0,0,0,2.56,10.22c5.47,3.48,12.17,0,15.1-5.06,1.07-1.84,2.73-5,2-7.13S502.43,738.76,500.46,738.13Zm3.45,6.93c-.48,3.83-4.42,7.72-8,8.51-5.51,1.21-11.22-5.17-6.23-9.58.82-.73,0-1.83-.86-1.79a11.39,11.39,0,0,1,6.74-2.56C498.92,739.48,504.45,740.81,503.91,745.06Z"/><path class="cls-4" d="M502.68,771.65c-1.45-1.73-4.14-1.92-6.23-2.2a12.61,12.61,0,0,0-7.21.87c-1.08.5-.41,1.94.59,1.95-1.61,4-1.75,8.86,1.68,11.94,3.08,2.76,7.94,2.83,10.54-.59C504.24,780.74,505.19,774.63,502.68,771.65ZM501,781.26c-1.64,3.3-5.59,3.7-8.2,1.18s-2.19-6.76-.76-9.83a1.05,1.05,0,0,0,0-1,14.14,14.14,0,0,1,7.44.52C502.85,773.41,502.29,778.58,501,781.26Z"/><path class="cls-4" d="M492.15,813.56c2.26,3.44,7.74,5.08,10.11.87,2.23-4,2.36-11-1.47-14-3.28-2.61-8.33-.9-8.52,3.5a1.27,1.27,0,0,0,.06.41A8.09,8.09,0,0,0,492.15,813.56Zm3.91-9.91a1.11,1.11,0,0,0-.26-2,3.46,3.46,0,0,1,3.12,0,5.62,5.62,0,0,1,2.41,3.4c.57,2.09.51,6.43-.92,8.25-2.66,3.38-6.72,0-7.39-3.13A6.29,6.29,0,0,1,496.06,803.65Z"/><path class="cls-4" d="M501.34,835.34c-4.89-2.29-9.71.82-13.56,3.67-1.09.81,0,2.66,1.08,1.84,3.39-2.5,11.08-7.43,13.9-1.36a7,7,0,0,1-.43,5.27,4.6,4.6,0,0,1-3.49,2.58,8.57,8.57,0,0,1-4.06,0c-2.12-.62-4.15-3.19-2.13-5.25,1-1-.55-2.49-1.51-1.51-2.61,2.66-1.27,6.92,1.95,8.41,3.4,1.58,9.35.8,11-2.9C505.9,842.09,505.74,837.4,501.34,835.34Z"/><path class="cls-4" d="M436.44,673.42a1,1,0,0,0-1.72-.4c-2.85,3.2-4.11,8.06-2.12,12.05a8.5,8.5,0,0,0,11.23,3.66,8.61,8.61,0,0,0,3.87-11.14C445.75,673.25,440.63,671.81,436.44,673.42Zm5.23,13.83a6.23,6.23,0,0,1-7.66-4.51,9,9,0,0,1,1.76-7.62,1.12,1.12,0,0,0,1.32.31c3.34-1.46,7.75,0,8.9,3.64A6.38,6.38,0,0,1,441.67,687.25Z"/><path class="cls-4" d="M397.29,662.14a1,1,0,0,0-1.19.52,1,1,0,0,0-.83.09c-3.89,2.14-4.32,8-3.87,11.92.58,5.07,4,7,8.85,6.37s8.62-4,7.82-9.22C407.24,666.36,402.14,663.53,397.29,662.14Zm3.39,16.69c-2.24.43-5,.53-6.4-1.65a8.56,8.56,0,0,1-.84-4.43c0-2.75.23-6.68,2.91-8.16a1,1,0,0,0,.4-.38c3.21.93,6.71,2.39,8.4,5.49C407.41,673.86,405.19,678,400.68,678.83Z"/><path class="cls-4" d="M396.26,695.47a.9.9,0,0,0-.75,1.08.87.87,0,0,0-.87.33c-3.05,3.64-4.87,9.17-1.88,13.43,2.42,3.45,7.63,4.9,11,2s3.53-8.91,2.63-13C405.35,694.62,400.15,694.73,396.26,695.47Zm7,14.21c-2.22,3.1-6.68,2.38-8.72-.58-2.35-3.41-.84-7.81,1.59-10.71a1.05,1.05,0,0,0,.26-.85,1.48,1.48,0,0,0,.42,0c3.25-.63,7.18-.82,7.65,3.34C404.79,703.67,405,707.3,403.28,709.68Z"/><path class="cls-4" d="M366.19,678.11c3.81,1.38,6.14-2.57,7.1-5.61s1.86-7.94-1-10.46c-3.61-3.21-8.21.25-10.89,2.9a1.08,1.08,0,0,0,.84,1.82C362.51,670.58,361.56,676.44,366.19,678.11Zm5.33-13.68c1.13,1.85.45,4.84-.08,6.76-.67,2.48-3.07,7.69-6.08,3.58-1.58-2.16-.79-5.66-1-8.15a1.05,1.05,0,0,0-.66-.92C365.89,663.77,369.58,661.27,371.52,664.43Z"/><path class="cls-4" d="M365.64,693.24c-1.38-.06-1.38,2.08,0,2.13,3.15.13,6.53,1.29,8.41,4s2,6.92-.58,9.19-6.65,1.58-8.05-1.46.15-6.53,1.25-9.29c.51-1.28-1.56-1.83-2.06-.57-1.56,3.9-3.22,9.23.13,12.72,2.5,2.61,6.84,2.6,9.68.55,3.32-2.4,3.91-7.2,2.28-10.77C374.74,695.44,370.13,693.42,365.64,693.24Z"/><path class="cls-4" d="M371.13,724.34c-4.66-.55-5.79,4.82-6,8.3a1,1,0,0,0,.95,1c-1.19,3.14-1.61,7.05,2.13,8.44,4.67,1.73,7-4.64,7.72-8C376.82,730.29,375.89,724.9,371.13,724.34Zm2.77,9.2c-.32,1.48-1,5-2.48,5.8l-3.61-.32a4.16,4.16,0,0,1-.26-3.43,15.57,15.57,0,0,1,1.49-3.24,1.08,1.08,0,0,0-1.63-1.35c.17-1.7.62-3.78,2-4.26a3.59,3.59,0,0,1,4.29,2.1A7.27,7.27,0,0,1,373.9,733.54Z"/><path class="cls-3" d="M50.14,968.67c-.1,2.13,111,52.57,147.8,62.83s206.89,39.33,254.76,39.33,336.83,5.13,358.2,0,171.84-14.54,209.45-27.36,110.29-42.75,124-53.86,28.22-26.5,28.22-26.5l15.38,5.13s-23.93,38.47-43.6,47.87-107.71,40.18-153.88,49.59-200.9,20.51-265.87,23.93-277.84,6-359.91,0-178.68-29.06-242.8-55.56-65-25.65-68.39-32.49-2.76-18.22-2.66-19.8S50.14,968.67,50.14,968.67Z"/><path class="cls-3" d="M68,955.41s102.58,53.86,144.47,57.28,134.22,29.07,180.39,32.49,301.78,5.13,329.13,5.13,194.92-3.42,235.1-8.55,97.46-25.65,129.09-39.33,85.75-53.49,85.75-53.49-1.93-2.69-3.23-2.81-21-4.39-21-4.39-23.93,12.82-44.45,25.64-77.8,38.47-137.64,47S710,1027.23,674.12,1028.08,445,1011,396.28,1004.14s-208.6-48.73-236-57.27-35-13.68-35-13.68-25.22,2.12-31,4-19,7.1-22.65,10.93S68.85,951.14,68,955.41Z"/><path class="cls-3" d="M131.58,911.94s18.49,18.68,52.68,28.94,181.24,51.3,216.29,50.44,191.5,18.81,211.16,19.66,141.92,3.42,162.43,2.57,202.61-19.66,233.39-24.79,101.73-46.17,112.85-52.15,20.53-15.85,20.53-15.85l-48.74,3s-30.78,18.81-52.15,31.63S924.6,987.9,899.81,991.32s-129.09,12-171,10.26-113.7-2.57-141.06-3.42S471.51,981.92,443.3,978.5s-113.71-21.38-146.19-34.2-125.67-41.89-125.67-41.89S136.17,907.79,131.58,911.94Z"/><path class="cls-3" d="M222.73,879.33s14.54,28.21,76.94,48.73,183.81,42.74,225.7,47S729.69,989.61,769,988.76s183-25.65,212.87-34.2,75.23-30.78,85.49-38.47,13-20.35,13-20.35-1.87-3.59-47.18-2.73c0,0-63.27,59-150.47,67.53s-285.53,18-374.44,2.57-146.19-20.52-188.93-49.59-76.09-53-76.09-53Z"/><path class="cls-3" d="M1021.21,876.76s-95.75,55.57-170.13,62.41S686.94,958.83,632.23,958,404.83,934,369.78,922.07s-92.86-71-92.86-71l28.55-8s36.09,59.43,75.42,70.54S545,941.74,567.26,941.74s184.66-16.25,236-24.8S947.69,874.2,947.69,874.2,1006.68,874.2,1021.21,876.76Z"/><path class="cls-5" d="M947.68,853.12s-58.13,33-132.5,47.58-352.22,17.95-388.13,6S320.94,862,321,838.6l11.61-3.27s9.82,21.77,22.64,29.47,76.94,26.5,106.86,29.92S768.16,883.6,793,880.18s84.26-23.68,106.68-47.31c0,0,33,2.76,40.09,6.23S947.68,853.12,947.68,853.12Z"/><path class="cls-6" d="M58.59,385.2s-.85-3.42,33.34-23.94S553.58,111.63,576.66,98,603.16,70.59,616,76.58,883.57,221.91,927.17,239s230,114.56,245.36,122.25,20.51,53,15.38,56.42S80,412.55,80,412.55,52.61,426.23,58.59,385.2Z"/><path class="cls-7" d="M263.77,399.73c.85-2.56,97.46-85.49,125.67-106s73.52-52.15,104.3-84.63,100.87-100.88,106-107.72l15.8-25s2.16,19.86-.41,25.85S504.85,303.13,492.88,315.1s-91.33,99.79-91.33,99.79Z"/><path class="cls-7" d="M616,197.12s0-110.28,3.42-109.43,38.47,68.39,41.89,84.64S710,263,717.72,279.19s55.57,108.57,52.15,114.56-105.15,23.93-120.54,21.37S616,405.71,616,405.71Z"/><path class="cls-7" d="M627.1,87.69S775.85,246.7,816,277.48,961.37,382.63,976.75,392s137.64,8.54,155.6,7.69,49.13-28.22,49.13-28.22-1.61-6.16-10-10.77S634.65,86.24,631.73,84.83,624.54,84.27,627.1,87.69Z"/><path class="cls-6" d="M610.06,94.52s-41.94-25.22-49-52.65c0,0-15.25-26.8,9.39-36.78s44.58,20,44.58,20,4.1-11.22,18.18-19.32S673.11-3,674.87,11.33,683.66,54.91,610.06,94.52Z"/><path class="cls-4" d="M43.2,529.67s-2.56,12-1.71,16.25,5.13,10.26,8.55,12a8.37,8.37,0,0,0,6,.85v1.15l.41.05c1.14,0,2.27,0,3.39.09,4.73-.16,9.44-.62,14.16-1.06v-.23s.34.07.9.15l1.41-.13a5.1,5.1,0,0,1,2.32.3,20,20,0,0,0,9.9-2.88c6.84-4.28,11.12-15.39,11.12-15.39h11.11s4.28,13.68,8.55,18.81,22.23,6.84,32.49,4.27,23.08-8.55,23.93-12,6.84-11.11,6.84-11.11h6.84s5.13,16.24,12,19.66a145.32,145.32,0,0,0,15.16,3.46,53.09,53.09,0,0,1,10.3-1.77c2.05-.73,4.09-1.55,6.12-2.41,3.06-2,6-4.23,9.52-5.29,0-1.09-.06-1.68-.06-1.68l1.87-.1a5.31,5.31,0,0,1,4.58-.24c4.75-.24,10.77-.52,13.21-.52,4.27,0,15.39,8.55,26.5,12.83,5.58,2.14,13.53,3.2,20.6,3.3,2-.93,3.94-1.81,6-2.59a4.84,4.84,0,0,1,1-.26c10.13-6,22.48-8.12,36.16-5,.87.2,1.73.44,2.58.71,11.08-2.63,25.5-6.42,28.57-9,5.13-4.27,8.55-6.84,8.55-6.84s7.7,11.12,12,14.54,41.89,6.84,51.3.85,22.22-19.66,22.22-19.66,15.39,13.68,23.08,19.66,35.06-5.13,41-10.26,28.21-7.69,28.21-7.69,6,16.24,19.66,21.37c0,0,17.1,2.57,20.52,2.57,0,0,0,0,.08.09a15.28,15.28,0,0,1,2.25.33l1.44.32.83-.16a38.65,38.65,0,0,1,6.25-.43c5.25-.71,10.24-1.53,15.32-.94,5.8,0,16.94-.48,26-3.49,12.82-4.27,25.65-14.53,27.36-16.24s4.27,7.69,13.68,11.11,31.63,4.28,40.18.86,17.09-12,17.09-12,4.28,0,16.25,5.13,29.92,3.42,37.61-.86,12.34-3.59,12.34-3.59,21.86,6.16,39.81,11.29c0,0,36.76,5.13,48.73,3.42s8.55-.86,8.55-.86v.15l.24-.06a11.87,11.87,0,0,1,1.35-.54,5,5,0,0,1,2.93-.16h0a29.32,29.32,0,0,1,3.85-1.06c2.12-.4,4.42-.21,6.54-.65a21.51,21.51,0,0,1,3.44-1.29,3.35,3.35,0,0,1,.44-.07l0-.59s25.64-2.57,34.19-7.7,12-9.4,12-9.4,11.12,14.53,23.08,17.95a78.27,78.27,0,0,0,23.94,2.57v.45a111.8,111.8,0,0,0,14.49-1.33c1.14-.16,2.28-.28,3.42-.4,3.63-1.93,18.42-10.26,21.42-19.24,0,0,2.56,4.27,14.53,7.69s35.91-1.71,39.33-7.69,19.66.85,25.64,9.4,23.09,13.68,35,7.7,13.68-22.23,13.68-26.51S43.2,529.67,43.2,529.67Z"/><path class="cls-8" d="M61.16,547.62s-37.62,3.66-37.62-44.77-3.42-122.46,0-127.94,34.2-7.31,47,2.74,20.52,1.83,32.49-7.31,32.48-27.42,55.57-30.16S227,335.61,245,342.92s50.44,32.9,54.71,40.21,7.7,19.19,17.1,16.45,6.84-22.84,17.1-18.27,4.27,12.79,17.1,14.62,38.47-16.45,54.71-28.33,64.12-22.85,95.75-13.71,67.54,32.9,75.23,40.21,13.27,16.93,22.88,13,8.75-19.43,24.14-22.17,30.78-1.83,33.34,5.48,11.12,11,19.66,0S723.7,342,765.59,342s89.77,19.19,106,28.33,28.21,16.45,32.49,11,2.56-12.8,17.95-11,15.39,9.14,23.94,4.57,18.81-18.28,35-26.5,38.47-14.62,47.87-14.62,47.88-5.49,71.81,6.39,46.17,29.25,53.86,32,14.54-5.49,15.39-8.23,6-6.39,19.66-4.57,17.1,17.37,18.81,31.07,6,127,0,136.17S1062.24,533,1047.71,533s-329.14,0-359.91.92S392,550.37,333.87,544,61.16,547.62,61.16,547.62Z"/><path class="cls-6" d="M32.94,477.14s-9.4,36.76,0,45.31,27.36,12.82,43.6,11.11S236.41,531,245,531s224-.86,241.94-2.57,190.64-2.56,209.45-2.56h454.8c1.71,0,49.59-.86,52.15-6.84s5.13-66.68,2.57-67.54-47,46.17-59.85,49.59S1031.47,519,987,496.8s-41-49.58-66.68-45.31-60.7,47-78.65,54.72-105.15,19.66-127.38,6S657,460.9,633.94,467.74s-73.52,5.12-86.35,20.51-93.18,37.62-122.25,29.07S374.9,478.85,358.66,472s-48.73-9.4-68.39,3.42-44.46,40.18-68.39,41c0,0-101.74,5.13-134.22-18S36.36,457.48,32.94,477.14Z"/><path class="cls-6" d="M325.32,458.72a26.46,26.46,0,0,0,12-15.39c3.42-11.11,3.42-17.1,0-19.66s-11.11,0-12,5.13-4.27-1.71-7.69-4.28-10.26-1.71-10.26,5.13,5.13,16.24,8.55,20.52S320.19,457.86,325.32,458.72Z"/><path class="cls-6" d="M623.68,458.72a26.46,26.46,0,0,0,12-15.39c3.42-11.11,3.42-17.1,0-19.66s-11.11,0-12,5.13-4.27-1.71-7.69-4.28-10.26-1.71-10.26,5.13,5.13,16.24,8.55,20.52S618.55,457.86,623.68,458.72Z"/><path class="cls-6" d="M917.77,440.77a26.46,26.46,0,0,0,12-15.39c3.42-11.12,3.42-17.1,0-19.67s-11.11,0-12,5.13-4.28-1.71-7.7-4.27-10.26-1.71-10.26,5.13,5.13,16.24,8.55,20.52S912.64,439.91,917.77,440.77Z"/><path class="cls-6" d="M1187.06,429.65c.84-.17,8.55-10.26,9.4-17.95s.86-21.37-2.56-23.08-10.26,5.13-10.26,8.55-8.55-.86-12,1.71,3.42,18.8,6.84,23.08S1182.78,430.51,1187.06,429.65Z"/><path class="cls-6" d="M211.55,414.15a46.22,46.22,0,0,0-7.88-10.45c1.8-1.08,3.87-3.48,2.23-6.24-2.44-4.09-6.2-4.54-9.19-2.77a3.63,3.63,0,0,0-1.81,2.13,47.12,47.12,0,0,0-17.46-6.44c-12-1.78-28.2.29-40.45,5a22.62,22.62,0,0,0-2.09.93,4,4,0,0,0-1.63-1.64c-3-1.77-6.75-1.32-9.19,2.77-1.46,2.46,0,4.64,1.65,5.85-7.26,7.37-12.65,17.48-13,23.39-.45,8.71-5.91,32.33,14.83,49.6a33.49,33.49,0,0,0,14.4,8.27c8.41,2.07,40.16,3.84,51.08-2.36s18.16-12.11,21.41-24.07S219.52,428.61,211.55,414.15Z"/><path class="cls-6" d="M504.5,432a45.57,45.57,0,0,0-6.93-9.63c.73-5,2.33-16.76,1.51-18.63-1-2.4-6.38-2.93-8.7-1.6-1.8,1-8.76,5.92-11.8,8.05a41.45,41.45,0,0,0-7-1.7c-8.33-1.27-18.83-.54-28.47,1.73-3-2.13-10-7-11.83-8.08-2.32-1.33-7.66-.8-8.7,1.6-.68,1.56.31,10,1.09,15.65-7.95,7.36-14.1,18.66-14.41,25-.43,8.62-5.69,32,14.3,49.07a32.17,32.17,0,0,0,13.87,8.18c8.11,2,38.71,3.79,49.24-2.34s17.5-12,20.63-23.8S512.18,446.31,504.5,432Z"/><path class="cls-6" d="M1112.69,411.75c-3.8-3.35-15.57-14.86-18.63-12.88a40.15,40.15,0,0,0-12.36-4.09c-10.35-1.58-24.31.2-35.06,4.29-2.6-2.85-15,9.23-18.86,12.68-5.52,4.87-19.68,35.8-12.85,45.89,2.16,3.2,5.84-.25,9.86-6.44a38.1,38.1,0,0,0,12.9,21.47,29.41,29.41,0,0,0,12.72,7.49c7.43,1.88,35.47,3.48,45.12-2.14s16-11,18.9-21.81c.43-1.61.82-3.33,1.17-5.13,4.05,6.27,7.76,9.78,9.94,6.56C1132.37,447.55,1118.2,416.62,1112.69,411.75Z"/><path class="cls-6" d="M825,429.36a45.68,45.68,0,0,0-32.68-23.42c3.27-8.54,1.44-16.73.64-19.73-.87-3.27-5.24-8.29-7.06-7.86-1.64.4-4.69,22.59-5.28,27-1.71.06-3.44.18-5.18.35-.45-3.4-3.64-26.95-5.33-27.36s-6.19,4.59-7.06,7.86-2.86,12.23,1.31,21.32a76.83,76.83,0,0,0-11,3.34c-11.77,4.66-22.83,22.27-23.26,30.86s-5.67,31.87,14.25,48.9a32,32,0,0,0,13.83,8.15c8.08,2,38.57,3.78,49.06-2.33s17.44-11.94,20.56-23.72S832.68,443.62,825,429.36Z"/><path class="cls-6" d="M55.08,448.52s4.91-22.93,3.27-27.84S54,415.76,51.8,417.4s-2.18,4.91-2.18,4.91-2.73-2.72-4.91-1.09-.55,5.46,0,7.1,4.91,16.92,6,18.56S55.08,448.52,55.08,448.52Z"/><path class="cls-9" d="M555.77,989.1a11.33,11.33,0,0,0,2.28,1.73.5.5,0,0,0,.51-.87,9.64,9.64,0,0,1-2.08-1.57.5.5,0,0,0-.71.71Z"/></g></g></svg>