<svg xmlns="http://www.w3.org/2000/svg" xmlns:xlink="http://www.w3.org/1999/xlink" viewBox="0 0 1420.41 910"><defs><style>.cls-1,.cls-11,.cls-17{fill:none;}.cls-2{fill:#c5798a;}.cls-2,.cls-4{opacity:0.5;}.cls-3{fill:#b4cfd2;}.cls-4{fill:#fffffd;}.cls-5{fill:#5d9099;}.cls-6{fill:#f8c1b9;}.cls-7{fill:#8db6c1;}.cls-8{fill:#b4cfd4;}.cls-9{fill:#7698a2;}.cls-10{fill:#f8e6b7;}.cls-11{stroke:#517c84;stroke-width:2px;}.cls-11,.cls-17{stroke-miterlimit:10;}.cls-12{fill:#fce1dd;}.cls-13{clip-path:url(#clip-path);}.cls-14{fill:#f4b4b0;}.cls-15{fill:#d0ac9e;}.cls-16{fill:#dc505a;}.cls-17{stroke:#dc505a;}.cls-18{fill:#517c84;}.cls-19{fill:#f1b1ad;}.cls-20{fill:#4c5874;}.cls-21{fill:#556381;}.cls-22{fill:#ca4853;}.cls-23,.cls-26{fill:#e9525e;}.cls-24{fill:#daa29f;}.cls-25{clip-path:url(#clip-path-2);}.cls-26{font-size:119.1px;font-family:AdobeFanHeitiStd-Bold, AdobeFanHeitiStd Bold-B5pc-H;font-weight:700;}</style><clipPath id="clip-path"><polygon class="cls-1" points="1047.45 548.15 1155.01 554.08 1154.11 701.46 1046.1 720.25 1047.45 548.15"/></clipPath><clipPath id="clip-path-2"><polygon class="cls-1" points="209.14 547.48 109.59 552.97 110.42 689.37 210.39 706.77 209.14 547.48"/></clipPath></defs><title>資產 2</title><g id="圖層_2" data-name="圖層 2"><g id="圖層_1-2" data-name="圖層 1"><ellipse class="cls-2" cx="717.24" cy="742" rx="673" ry="168"/><path class="cls-3" d="M1371.22,446.49s-196.79-252.66-363.05-319.63S541.64,78.16,366.9,160.35,41.17,473.89,34.39,483s595.46-27.4,595.46-27.4l756.64,42.62Z"/><path class="cls-4" d="M1008.46,163l206.3,219s8.86,1.09,7.49-4.4S1052.74,121.8,1052.74,121.8,1011.63,127,1008.46,163Z"/><path class="cls-4" d="M392.9,89,247.79,411.87S250.61,422,256,418,457.64,118.54,457.64,118.54,433.46,76.2,392.9,89Z"/><path class="cls-4" d="M747.27,145.8,1014.4,378.11s10.5.23,8.25-6S794.31,92.39,794.31,92.39,746.78,103.28,747.27,145.8Z"/><path class="cls-4" d="M247.08,149.89,75.91,397.28s.79,8.9,5.86,6.41S296.6,184.61,296.6,184.61,283,145.49,247.08,149.89Z"/><path class="cls-5" d="M1341.47,727.56s-307,86.25-348.57,95.38S816.42,883.16,751.17,857c-23.84-9.55-51.49-41-84.93-46-27-4-66.6-4.72-93-3-34.33,2.24-57.68,49-84.07,41C416,826.68,106.73,758,91.46,743.8c0,0-7.37-3-7.37-25.37S89.88,484,89.88,484s638.69-28.41,743-19.28,491.26,39.58,491.26,39.58,17.38-8.12,17.38,24.35,1.58,166.41,1.58,166.41S1344.1,722.49,1341.47,727.56Z"/><path class="cls-6" d="M638.41,691.88s-7.89-18.26-11.58-20.29-5.26-36.53-3.16-41.6,21.59-8.12,27.91,7.1c0,0,2.63,4.06,2.63,16.24l-.53,106.54s1.06,7.1-4.21,8.12-22.11,1-22.11,1-4.74-4.06-4.74-27.4c0,0,9,2,13.69-8.11S643.15,699,638.41,691.88Z"/><path class="cls-6" d="M599.45,690.87s7.9-18.26,11.58-20.29,5.27-36.53,3.16-41.61-21.58-8.11-27.9,7.11c0,0-2.64,4.06-2.64,16.23l.53,106.54s-1,7.11,4.21,8.12,22.12,1,22.12,1,4.74-4.06,4.74-27.4c0,0-9,2-13.69-8.12S594.71,698,599.45,690.87Z"/><path class="cls-7" d="M1230.64,339.8,1269.77,470s-32.79,25.19-53.21,19.45l-62.38-122.54S1177.46,311.43,1230.64,339.8Z"/><path class="cls-6" d="M685.33,852.38s-15.8-28.41-17.9-35.51,6.84-167.43-1.06-193.81-55.81-52.76-90.56-15.22c0,0-5.79,8.12-5.27,54.79s2.11,145.11,2.11,145.11l-21.59,54.79-1-234.39s16.85-61.9,61.08-57.84,52.13,3,76.87,54.79Z"/><path class="cls-8" d="M760.63,496.23s-6.32,358.18-7.38,362.24-51.07,23.34-62.13,13.19c0,0-10.53-33.48-11.06-36.53s7.9-202.94,2.11-213.08-23.17-34.5-33.7-39.58-49-10.14-63.71,0-29,30.44-29.49,45.67,0,210,0,210,2.64,30.44-4.21,35.51-56.34-5.07-65.82-22.32S470.5,487.09,470.5,487.09,664.8,442.45,760.63,496.23Z"/><path class="cls-6" d="M657.69,824.48s-62.66-4.06-70.56-7.1-24.22,38.55-21.59,46.67,106.89,14.21,106.89,8.12S662.43,826.51,657.69,824.48Z"/><path class="cls-7" d="M1009.26,306.73l62.24,139.21s-41.23,38.53-68.65,37.77l-92.3-123.65S936.76,289.23,1009.26,306.73Z"/><path class="cls-7" d="M331,355.89l-60.92,139.8s-56.25-4.5-74.17-25.28l29.17-151.52S295.1,290.53,331,355.89Z"/><path class="cls-7" d="M816.6,252.57,758.68,491.71s-205.35,20.22-292.76-2.38L397.47,247.81S614.41,171.66,816.6,252.57Z"/><path class="cls-9" d="M1236.46,364.27s21.72,81,15.72,86.2-29.5,17.36-38.27,12.15S1163,384.46,1163,384.46s48.14,95.12,50.87,96.93,56.45-12.07,54.73-16.45S1236.46,364.27,1236.46,364.27Z"/><path class="cls-9" d="M1019.73,339.15s32.84,80.59,26.09,87.69S1012,452.74,1001,449.41s-73-65.5-73-65.5,65.16,89.28,68.58,90.52,72.56-32.14,70.14-36.36S1019.73,339.15,1019.73,339.15Z"/><path class="cls-9" d="M321.55,369.74s-38,78.39-48.24,78-44-8.21-49.3-18.67-2.31-98.56-2.31-98.56-21.47,108.49-20,111.89,76.49,33.19,78,28.56S321.55,369.74,321.55,369.74Z"/><path class="cls-9" d="M795.32,330s-38.85,86.47-74,89.26-157.92,5.56-187.16-2.79S419.77,323.3,419.77,323.3s32.53,112.75,41.31,115.53,307.08,5.47,307.08.6S795.32,330,795.32,330Z"/><path class="cls-9" d="M1419.92,503.31s5.27,37.55-19,35.52-298.55-23.34-352.26-26.38S549,501.28,432.13,500.27,52,521.58,22,521.58,1.42,509.4,1.42,488.09s431.24-55.81,480.21-55.81,413.86,3.05,568.66,21.31S1404.13,480,1419.92,503.31Z"/><path class="cls-4" d="M455,95.9A171,171,0,0,1,470,71.47l-.72-.33C458.68,68.57,449.9,59.5,447.8,46.53,445.12,30,450.7,7.32,467.68,3.86,477.35-3,491,.33,500.67,5.93a33.15,33.15,0,0,1,5.92,4.39c5.19,3.41,7.94,8.55,9.38,14.52a22.46,22.46,0,0,1,.95,3.4A148.11,148.11,0,0,1,569.37,8.41C609.46,1.89,663.9,9.5,705,26.89c1,.43,2,.91,3,1.4a23.48,23.48,0,0,1,1-3.45c1.43-6,4.19-11.11,9.38-14.52a33.44,33.44,0,0,1,5.91-4.39c9.66-5.6,23.32-9,33-2.07,17,3.46,22.56,26.15,19.88,42.67-2.1,13-10.88,22-21.44,24.61l-.58.26c17.85,24.57,30.19,52.84,31,70.69,1.48,32.06,19.8,119-49.75,182.58,0,0-20,22.83-48.25,30.43s-134.63,14.13-171.26-8.69S456,301.85,445.13,257.83,428.31,149.15,455,95.9Z"/><path class="cls-7" d="M131.9,386.87,65.29,505.42s-40.9-6.12-50.94-24.81L59.3,350.66S115.42,328.9,131.9,386.87Z"/><path class="cls-9" d="M123.9,396.52s-43.22,71.82-51.16,71.14-33-9.19-35.31-19.13,21-90.87,21-90.87S23.31,458.32,23.9,461.55s47.87,32.26,49.83,28S123.9,396.52,123.9,396.52Z"/><polygon class="cls-10" points="786.74 540.47 784.24 757.62 1042.24 738.34 1038.91 547.57 786.74 540.47"/><polygon class="cls-11" points="785.76 539.13 783.24 759.21 1043.24 739.67 1039.89 546.33 785.76 539.13"/><polygon class="cls-12" points="1046.83 547.55 1172.67 554.08 1171.62 716.07 1045.25 736.73 1046.83 547.55"/><g class="cls-13"><path class="cls-14" d="M1098.51,565.17s-.51,4-1.94,4.92-27.89-7.61-28.83-8.55-1.7-8-1-9.52,29.55,7.22,30.49,8.38S1098.65,562.57,1098.51,565.17Z"/><path class="cls-14" d="M1098.4,576.79a2.85,2.85,0,0,1-2.75,3.14c-3.09.4-27.29-7.66-28.12-8.56s-1-5.58-.76-6.82,28.48,6.47,30,7.8S1098.3,575.22,1098.4,576.79Z"/><path class="cls-14" d="M1097,583.2s1.87,3.19,1.37,5.9-1.33,3.12-3.35,3.19-23.63-6.35-26-7.93-2.2-6.37-1.71-8.2,20.34,4.27,23.65,5S1096.22,582.08,1097,583.2Z"/><path class="cls-14" d="M1099.21,553.29s.54,5-2.89,4.42-29.65-8.8-30-9.56-3-5.95-.39-8.69c0,0-.7-1.09,2.61-.32a28.11,28.11,0,0,1,5.55,1.86s-1.58-9.26-.51-9.38,14.68,1.06,15.59,5.06a20.21,20.21,0,0,1-.19,8.3l8.61,3.21S1099.24,549.56,1099.21,553.29Z"/><path class="cls-15" d="M1088.11,536.37c-.25-.25-9.1-3.14-11.82-3.29s.33,2.52,2.09,5,6.61,2.62,7.56,1.58S1089.05,537.3,1088.11,536.37Z"/><path class="cls-15" d="M1083.78,543.22s-.2,8.51-.32,8.92-.62,3.11-1.06-.1-1.1-9.34-.75-9.45S1083.21,541.07,1083.78,543.22Z"/><path class="cls-15" d="M1083.52,558.31s.1,3.1-.27,3.66-.72,1.1-1.28-1.71S1082.48,556.46,1083.52,558.31Z"/><path class="cls-15" d="M1083.54,569.74a9.08,9.08,0,0,1,0,4.17c-.6,1.58-.72,1.1-1.17-1s-.56-3.68-.21-3.8S1083.31,568.58,1083.54,569.74Z"/><path class="cls-15" d="M1084.25,582.92s.8,3.1,0,3.73-1.62-4.22-1.62-4.44S1083.21,580.2,1084.25,582.92Z"/><path class="cls-16" d="M1097.66,631.75s-.51,4-1.94,4.92-27.88-7.62-28.82-8.55-1.7-8-1-9.53,29.55,7.23,30.48,8.39S1097.81,629.15,1097.66,631.75Z"/><path class="cls-16" d="M1097.56,643.37a2.86,2.86,0,0,1-2.75,3.14c-3.09.4-27.3-7.66-28.12-8.56s-1-5.58-.76-6.83,28.48,6.48,30,7.81S1097.46,641.8,1097.56,643.37Z"/><path class="cls-16" d="M1096.2,649.78s1.86,3.19,1.37,5.9-1.34,3.12-3.35,3.18-23.63-6.35-26-7.93-2.19-6.36-1.7-8.2,20.34,4.28,23.65,5S1095.38,648.65,1096.2,649.78Z"/><path class="cls-16" d="M1098.36,619.86s.55,5-2.88,4.42-29.65-8.79-30-9.55-3-6-.39-8.69c0,0-.7-1.09,2.61-.33a27.69,27.69,0,0,1,5.55,1.87s-1.58-9.26-.51-9.39,14.68,1.06,15.59,5.07a20.15,20.15,0,0,1-.19,8.29l8.61,3.22S1098.4,616.14,1098.36,619.86Z"/><path class="cls-15" d="M1087.27,602.94c-.25-.24-9.1-3.13-11.82-3.28s.33,2.51,2.09,5,6.61,2.62,7.56,1.59S1088.2,603.88,1087.27,602.94Z"/><path class="cls-15" d="M1082.94,609.79s-.2,8.52-.32,8.92-.62,3.11-1.06-.1-1.1-9.33-.75-9.45S1082.37,607.64,1082.94,609.79Z"/><path class="cls-15" d="M1082.68,624.88s.09,3.11-.27,3.66-.72,1.11-1.28-1.7S1081.63,623,1082.68,624.88Z"/><path class="cls-15" d="M1082.7,636.32a9,9,0,0,1,0,4.16c-.61,1.58-.72,1.11-1.17-1s-.56-3.69-.21-3.8S1082.47,635.15,1082.7,636.32Z"/><path class="cls-15" d="M1083.41,649.5s.8,3.09,0,3.73-1.62-4.22-1.61-4.44S1082.37,646.77,1083.41,649.5Z"/><path class="cls-16" d="M1141.4,575.92s-.51,4-1.94,4.92-27.88-7.61-28.82-8.55-1.7-8-1-9.53,29.55,7.23,30.48,8.39S1141.55,573.32,1141.4,575.92Z"/><path class="cls-16" d="M1141.3,587.54a2.86,2.86,0,0,1-2.75,3.14c-3.09.4-27.3-7.66-28.12-8.56s-1-5.58-.76-6.82,28.48,6.47,30,7.8S1141.19,586,1141.3,587.54Z"/><path class="cls-16" d="M1139.94,594s1.86,3.19,1.37,5.9S1140,603,1138,603s-23.63-6.35-26-7.93-2.19-6.36-1.7-8.19,20.34,4.27,23.64,5S1139.12,592.82,1139.94,594Z"/><path class="cls-16" d="M1142.1,564s.55,5-2.88,4.43-29.65-8.8-30-9.56-3-6-.39-8.69c0,0-.7-1.09,2.61-.33a27.69,27.69,0,0,1,5.55,1.87s-1.58-9.26-.51-9.38,14.68,1,15.59,5.06a20.06,20.06,0,0,1-.2,8.29l8.62,3.22S1142.14,560.31,1142.1,564Z"/><path class="cls-15" d="M1131,547.11c-.24-.24-9.09-3.13-11.81-3.28s.33,2.52,2.09,5,6.61,2.62,7.56,1.59S1131.94,548.05,1131,547.11Z"/><path class="cls-15" d="M1126.68,554s-.2,8.52-.32,8.92-.62,3.12-1.06-.09-1.1-9.34-.75-9.46S1126.11,551.82,1126.68,554Z"/><path class="cls-15" d="M1126.42,569.06s.09,3.1-.27,3.65-.72,1.11-1.28-1.7S1125.37,567.21,1126.42,569.06Z"/><path class="cls-15" d="M1126.44,580.49a9.08,9.08,0,0,1,0,4.17c-.61,1.57-.72,1.1-1.17-1s-.56-3.69-.21-3.8S1126.21,579.32,1126.44,580.49Z"/><path class="cls-15" d="M1127.15,593.67s.8,3.1,0,3.73-1.62-4.22-1.61-4.44S1126.11,590.94,1127.15,593.67Z"/><path class="cls-14" d="M1141.86,642.88s-.51,4-1.94,4.92-27.88-7.61-28.82-8.55-1.7-8-1-9.52,29.55,7.22,30.48,8.38S1142,640.28,1141.86,642.88Z"/><path class="cls-14" d="M1141.76,654.5a2.86,2.86,0,0,1-2.76,3.14c-3.08.4-27.29-7.66-28.11-8.56s-1-5.58-.77-6.82,28.49,6.47,30,7.8S1141.65,652.93,1141.76,654.5Z"/><path class="cls-14" d="M1140.4,660.91s1.86,3.19,1.36,5.9-1.33,3.12-3.34,3.18-23.63-6.35-26-7.92-2.19-6.37-1.7-8.2,20.33,4.27,23.64,5S1139.58,659.79,1140.4,660.91Z"/><path class="cls-14" d="M1142.56,631s.55,5-2.88,4.42-29.65-8.8-30-9.56-3-6-.39-8.69c0,0-.7-1.09,2.6-.33a27.69,27.69,0,0,1,5.55,1.87s-1.57-9.26-.5-9.38,14.68,1,15.59,5.06a20.11,20.11,0,0,1-.2,8.3l8.62,3.21S1142.6,627.27,1142.56,631Z"/><path class="cls-15" d="M1131.46,614.07c-.24-.24-9.09-3.13-11.81-3.28s.33,2.52,2.09,5,6.6,2.62,7.56,1.58S1132.4,615,1131.46,614.07Z"/><path class="cls-15" d="M1127.14,620.92s-.2,8.52-.32,8.92-.62,3.12-1.07-.09-1.1-9.34-.74-9.46S1126.56,618.78,1127.14,620.92Z"/><path class="cls-15" d="M1126.88,636s.09,3.1-.27,3.65-.72,1.11-1.29-1.7S1125.83,634.17,1126.88,636Z"/><path class="cls-15" d="M1126.9,647.45a9.08,9.08,0,0,1,0,4.17c-.61,1.58-.72,1.1-1.18-1s-.56-3.68-.2-3.8S1126.67,646.29,1126.9,647.45Z"/><path class="cls-15" d="M1127.61,660.63s.8,3.1,0,3.73-1.62-4.22-1.62-4.44S1126.57,657.9,1127.61,660.63Z"/><path class="cls-16" d="M1141.2,715.44s-.51,4-1.94,4.92-27.88-7.61-28.82-8.55-1.7-8-1-9.52,29.55,7.23,30.48,8.38S1141.35,712.85,1141.2,715.44Z"/><path class="cls-16" d="M1141.1,727.06a2.85,2.85,0,0,1-2.75,3.14c-3.09.41-27.3-7.65-28.12-8.56s-1-5.57-.76-6.82,28.48,6.47,30,7.81S1141,725.49,1141.1,727.06Z"/><path class="cls-16" d="M1139.74,733.47s1.86,3.19,1.37,5.9-1.34,3.13-3.35,3.19-23.63-6.35-26-7.93-2.19-6.37-1.7-8.2,20.34,4.27,23.65,5S1138.92,732.35,1139.74,733.47Z"/><path class="cls-16" d="M1141.9,703.56s.55,5-2.88,4.42-29.65-8.79-30-9.56-3-5.95-.39-8.69c0,0-.7-1.08,2.61-.32a28.11,28.11,0,0,1,5.55,1.86s-1.58-9.26-.51-9.38S1131,683,1131.87,687a20.17,20.17,0,0,1-.19,8.29l8.61,3.22S1141.94,699.83,1141.9,703.56Z"/><path class="cls-15" d="M1130.81,686.64c-.25-.25-9.1-3.14-11.82-3.29s.33,2.52,2.09,5,6.61,2.62,7.56,1.59S1131.74,687.58,1130.81,686.64Z"/><path class="cls-15" d="M1126.48,693.49s-.2,8.51-.32,8.92-.62,3.11-1.06-.1-1.1-9.34-.75-9.45S1125.91,691.34,1126.48,693.49Z"/><path class="cls-15" d="M1126.22,708.58s.09,3.11-.27,3.66-.72,1.1-1.28-1.7S1125.17,706.73,1126.22,708.58Z"/><path class="cls-15" d="M1126.24,720a9,9,0,0,1,0,4.16c-.61,1.58-.72,1.11-1.17-1s-.56-3.68-.21-3.79S1126,718.85,1126.24,720Z"/><path class="cls-15" d="M1127,733.2s.8,3.09,0,3.72-1.62-4.21-1.61-4.43S1125.91,730.47,1127,733.2Z"/><path class="cls-14" d="M1097,692.22s-.51,4-1.94,4.92-27.89-7.61-28.83-8.55-1.7-8-1-9.52,29.54,7.22,30.48,8.38S1097.14,689.62,1097,692.22Z"/><path class="cls-14" d="M1096.89,703.84a2.86,2.86,0,0,1-2.75,3.14c-3.08.4-27.29-7.66-28.11-8.56s-1-5.58-.77-6.82,28.49,6.47,30,7.8S1096.79,702.27,1096.89,703.84Z"/><path class="cls-14" d="M1095.53,710.25s1.87,3.19,1.37,5.9-1.33,3.12-3.35,3.18-23.63-6.35-26-7.92-2.2-6.37-1.7-8.2,20.33,4.27,23.64,5S1094.71,709.13,1095.53,710.25Z"/><path class="cls-14" d="M1097.7,680.34s.54,5-2.89,4.42-29.65-8.8-30-9.56-3-6-.4-8.69c0,0-.7-1.09,2.61-.33a28.48,28.48,0,0,1,5.55,1.87s-1.57-9.26-.51-9.38,14.68,1.05,15.59,5.06a20.21,20.21,0,0,1-.19,8.3l8.62,3.21S1097.73,676.61,1097.7,680.34Z"/><path class="cls-15" d="M1086.6,663.42c-.25-.25-9.09-3.14-11.82-3.29s.34,2.52,2.09,5,6.61,2.62,7.57,1.58S1087.54,664.35,1086.6,663.42Z"/><path class="cls-15" d="M1082.27,670.27s-.19,8.51-.32,8.91-.62,3.12-1.06-.09-1.1-9.34-.74-9.46S1081.7,668.12,1082.27,670.27Z"/><path class="cls-15" d="M1082,685.36s.09,3.1-.27,3.65-.72,1.11-1.29-1.7S1081,683.51,1082,685.36Z"/><path class="cls-15" d="M1082,696.79a9.08,9.08,0,0,1,0,4.17c-.6,1.58-.72,1.1-1.17-1s-.56-3.68-.2-3.8S1081.81,695.63,1082,696.79Z"/><path class="cls-15" d="M1082.74,710s.8,3.1,0,3.73-1.62-4.22-1.62-4.44S1081.7,707.24,1082.74,710Z"/><path class="cls-14" d="M1094.81,723.44s2,3.24,1.49,5.94-1.45,3.09-3.63,3.1-25.69-7-28.25-8.6-2.39-6.42-1.86-8.24,22.1,4.79,25.7,5.64S1093.92,722.3,1094.81,723.44Z"/><path class="cls-15" d="M1080.91,722.84s.87,3.11,0,3.72-1.76-4.26-1.76-4.48S1079.77,720.08,1080.91,722.84Z"/><polygon class="cls-17" points="1059.55 583.73 1150.27 610.64 1150.89 542.57 1060.16 515.66 1059.55 583.73"/><polygon class="cls-17" points="1058.78 648.79 1149.74 675.77 1150.28 616.14 1059.32 589.16 1058.78 648.79"/><polygon class="cls-17" points="1058.58 723.47 1149.53 750.45 1150.18 678.76 1059.22 651.78 1058.58 723.47"/></g><path class="cls-5" d="M787.23,593c16.07-1.11,32.17-2.54,48.29-3.17,16.45-.64,33,.83,49.39,1.27,32.7.87,65.41.4,98.11.17,18.44-.13,36.92-.13,55.24,1.58,1.31.12,1.3-1.38,0-1.5-16.34-1.53-32.81-1.7-49.27-1.62s-33,.29-49.58.35c-16.35.07-32.7,0-49-.35s-32.68-1.75-49-1.55c-18.06.21-36.19,2.08-54.15,3.32-1.31.09-1.32,1.59,0,1.5Z"/><polygon class="cls-18" points="786.24 540.24 1040.24 546.96 1026.87 553.67 786.92 546.84 786.24 540.24"/><polygon class="cls-18" points="1046.83 548.9 1172.54 553.67 1151.25 559.05 1047.4 555.5 1046.83 548.9"/><polygon class="cls-19" points="783.99 757.87 1044.24 737.75 996.38 723 783.24 737.08 783.99 757.87"/><polygon class="cls-19" points="1044.85 736.38 1171.28 716.07 1150 692.04 1046.1 709.51 1044.85 736.38"/><polygon class="cls-11" points="1046.83 547.55 1172.67 554.08 1171.62 716.07 1045.25 736.73 1046.83 547.55"/><path class="cls-20" d="M901.78,674.54c-.49-2-7.27-23.94-14.75-34.81a101.75,101.75,0,0,1-9.87-17.64c-.39-.88-1.33-3-1.47-3.12a7.22,7.22,0,0,0-.69-.31c-.07,0-27-10.4-28.25-10.82-1.48-.49-4.45-2-4.45-2s-.5-4.4.49-6.35,2.48-1.47,5.44-4.89a9.61,9.61,0,0,0,2-7.81c0-2.93-4.94-6.84-7.91-6.84a11.54,11.54,0,0,0-8.91,3.42c-3,2.93-2,6.84-2,7.81s2,2,2.48,1a2.34,2.34,0,0,0,0-2s-1-2.93,0-4.89,3.46-3.42,5.93-3.91,5.45,1.47,6.93,2.94,1.48,3.41,1.48,6.34-3.46,4.4-5.93,6.84-2,2.93-2,3.91,0,4.4-.5,4.4-19.55,10-24.35,13.05c-.06,0-.49.31-.53.34a3.37,3.37,0,0,0-.49.38c-.52.51-.57.77-.41.89-3.47,6-12,20.77-14.51,25.58-.32.61-.68,1.28-1.06,2-3.43,6.4-8.62,16.07-10,24.72-1.47,9.46-1.14,11.77.16,13.38.91,1.11,4.27,4.24,6.76,4.24h.19c2.57-.17,4.45-3.06,5.08-4.57.39-.91.77-1.89,1-2.58a5.64,5.64,0,0,0,2.07.75H804c.78,0,2.86.05,3.54-1.95a3.21,3.21,0,0,0-1.24-4.08,8.23,8.23,0,0,1-1.5-1.06,6.82,6.82,0,0,1,.66-1.39c.33-.6,1.87-3,2.79-4.4a53.5,53.5,0,0,0,3.71,8.08,6.31,6.31,0,0,0,.81.89c.34.33.36.36.36.61s-.11,2.29-.24,4.68c-.56,10-1.14,20.89-1,22.52a4.05,4.05,0,0,1,0,1l-.21,0a3.68,3.68,0,0,0-.91.27,16.57,16.57,0,0,0-7.6,8.17,4.09,4.09,0,0,0-.06,3.76c1.18,2.17,4.45,2.74,5.68,2.95l.28.05a107,107,0,0,0,10.72.37,45.22,45.22,0,0,0,7.45-.36c4.87-1.46,7.59-3.72,8.11-6.72.67-3.85,2.38-23.85,2.45-24.7v-.11a.43.43,0,0,1,.06-.24.38.38,0,0,1,.15,0c1.05,0,11.9-.11,13.38-.13,0,0,.07,0,.07.07,0,.2,1.88,23.9,2.09,24.85a9.74,9.74,0,0,0,6.63,6.37c4.57,1.43,19.21.68,19.83.65l.17,0c.54-.14,5.29-1.51,5.35-4.47a7.27,7.27,0,0,0-1.88-5.77c-1.36-1.64-5.47-4.4-6.54-5.1a6.36,6.36,0,0,1-.08-1.57c.06-1.5-.85-24.59-1-27.39.38-.62,1.51-2.43,2.22-3.83a45,45,0,0,0,2.46-5.94c1.18,1.85,3.83,5.76,4.12,6.07l.24.25.09.08-.29.23c-1.41,1.13-2.59,2.14-2.71,3.11a3.49,3.49,0,0,0,.64,2.64,2.94,2.94,0,0,0,2.3,1,4.78,4.78,0,0,0,2.69-.56c.44,1.49,3,6.75,5.18,7.16s7.32-1.66,8.41-4.83A24.57,24.57,0,0,0,901.78,674.54Zm-1.84,10.26c-.77,2.25-5.11,4.06-6.59,3.79-1.22-.23-3.8-5.09-4-6.1-.29-1.76-1.51-1.62-1.56-1.61l-.64.09-.05.56c-.09.14-.57.46-1.92.43a1.4,1.4,0,0,1-1.1-.41,2,2,0,0,1-.29-1.44c.11-.47,1.63-1.69,2.13-2.09.3-.23.51-.41.64-.53a1.18,1.18,0,0,0,.38-.88,1.8,1.8,0,0,0-.71-1.25l-.17-.18c-.41-.46-4.11-6-4.35-6.5a1.26,1.26,0,0,0-1.35-.82c-.24,0-1,.25-1,1.45a34.56,34.56,0,0,1-2.45,6.09c-.82,1.61-2.26,3.88-2.28,3.9l-.13.21v.24c.36,9,1,26.31,1,27.51a5.87,5.87,0,0,0,.27,2.48l.1.2.19.12c1.4.91,5.28,3.56,6.42,4.94,1.3,1.58,1.56,2.38,1.52,4.74,0,1.48-3,2.63-4.09,3-1.24.06-15.06.71-19.18-.58a8.26,8.26,0,0,1-5.55-5.2c-.16-.89-2-23.26-2-24.6a1.72,1.72,0,0,0-1.34-1.55l-.1,0h-.1c-.12,0-12.39.16-13.46.13a1.7,1.7,0,0,0-1.35.49,1.89,1.89,0,0,0-.51,1.36c-.1,1.07-1.8,20.82-2.43,24.52-.41,2.36-2.77,4.21-7,5.48-1.79.53-15.94.2-17.26,0l-.45-.09c-.93-.16-3.74-.65-4.55-2.15a2.64,2.64,0,0,1,.11-2.39,15.3,15.3,0,0,1,6.8-7.36,2.33,2.33,0,0,1,.56-.15c1.3-.26,1.67-1,1.46-2.8-.19-1.65.58-15.57.95-22.26.17-3,.25-4.51.25-4.77a2.18,2.18,0,0,0-.85-1.74,5.07,5.07,0,0,1-.64-.7,55.85,55.85,0,0,1-3.53-7.82,1.66,1.66,0,0,0-1.4-1.59l-.47,0-.26.39c-.12.19-3,4.64-3.52,5.54s-1.24,2.2-.61,3a7.13,7.13,0,0,0,2,1.54,1.74,1.74,0,0,1,.54,2.23c-.25.75-.94.89-2,.87h-.17a9.8,9.8,0,0,1-2.09-1l-.84-.49-.33.9s-.66,1.84-1.31,3.39-2.16,3.49-3.72,3.59h-.1c-1.57,0-4.42-2.33-5.49-3.65-.81-1-1.32-2.54.17-12.15,1.3-8.38,6.4-17.91,9.78-24.22.39-.71.74-1.38,1.07-2,2.69-5.08,12.1-21.41,15.06-26.55,3.21-1.34,14.91-8.79,19.85-11,5.45-2.44,5.45-1.46,6.44-1.95s9.41,3.73,11.47,4.55c3.85,1.51,16.5,6.38,20.66,8.11l.16.32c.31.61.66,1.39,1.11,2.39a102.83,102.83,0,0,0,10,17.9c7.35,10.69,14,32.3,14.51,34.29A22.69,22.69,0,0,1,899.94,684.8Z"/><path class="cls-14" d="M812.24,682.55l-1,25.66s22.83,6.75,24.67,5.6,2.33-20.4,2.33-20.4l12.5-.5,2,21.72,25-5.92-1-28.63-64,1Z"/><path class="cls-21" d="M902.24,671.69c-.61-4.79-23-51.71-26-53.31s-17-6.91-17-6.91,1.8-9.87-2-9.87c-2,0-10.12.46-14.74.3,0-.11,0-.21,0-.32l-.44,0h-2.33a11.93,11.93,0,0,1-1.7-.14,1.93,1.93,0,0,1,0,.24c-5-.26-10.81-1.08-10.81-1.08-2.73.79-.65,10.33-.65,10.33s-10.53,6.82-12.35,8.42-25,38.5-27,55.28c-.34,2.9,16.79,2.51,18,2s3-4.94,3-4.94l4,10.86s62.18,1.06,64,0,5-11.85,5-11.85l3,5.93S902.85,676.48,902.24,671.69Z"/><path class="cls-22" d="M970.78,675.89c-.49-2-7.27-24.25-14.75-35.26a103.78,103.78,0,0,1-9.87-17.88c-.39-.88-1.33-3-1.47-3.16s-.45-.21-.69-.31c-.07,0-27-10.54-28.25-11-1.48-.5-4.45-2-4.45-2s-.5-4.46.49-6.43,2.48-1.49,5.44-4.95a9.86,9.86,0,0,0,2-7.92c0-3-4.94-6.93-7.91-6.93a11.46,11.46,0,0,0-8.91,3.47c-3,3-2,6.92-2,7.91s2,2,2.48,1a2.41,2.41,0,0,0,0-2s-1-3,0-4.94,3.46-3.47,5.93-4,5.45,1.48,6.93,3,1.48,3.46,1.48,6.43-3.46,4.45-5.93,6.93-2,3-2,4,0,4.46-.5,4.46-19.55,10.15-24.35,13.22a2.21,2.21,0,0,0-.53.35,3.37,3.37,0,0,0-.49.38c-.52.52-.57.78-.41.9-3.47,6.09-12,21-14.51,25.91-.32.63-.68,1.3-1.06,2-3.43,6.48-8.62,16.28-10,25-1.47,9.59-1.14,11.93.16,13.55.91,1.13,4.27,4.31,6.76,4.31h.19c2.57-.17,4.45-3.1,5.08-4.62.39-.92.77-1.92,1-2.62a5.68,5.68,0,0,0,2.07.76H873c.78,0,2.86.06,3.54-2a3.29,3.29,0,0,0-1.24-4.14,7.77,7.77,0,0,1-1.5-1.07,7,7,0,0,1,.66-1.41c.33-.61,1.87-3,2.79-4.46a55.1,55.1,0,0,0,3.71,8.19,6,6,0,0,0,.81.9c.34.34.36.37.36.62s-.11,2.32-.24,4.74c-.56,10.17-1.14,21.16-1,22.82a4.14,4.14,0,0,1,0,1l-.21,0a4.28,4.28,0,0,0-.91.28,16.68,16.68,0,0,0-7.6,8.27,4.19,4.19,0,0,0-.06,3.81c1.18,2.2,4.45,2.78,5.68,3l.28.05a107,107,0,0,0,10.72.37,43.71,43.71,0,0,0,7.45-.37c4.87-1.48,7.59-3.77,8.11-6.8.67-3.9,2.38-24.16,2.45-25v-.11a.38.38,0,0,1,.06-.23s.05,0,.15,0c1.05,0,11.9-.11,13.38-.13,0,0,.07,0,.07.07,0,.2,1.88,24.21,2.09,25.17a9.81,9.81,0,0,0,6.63,6.46c4.57,1.45,19.21.69,19.83.66l.17,0c.54-.15,5.29-1.53,5.35-4.53,0-2.56-.23-3.82-1.88-5.85-1.36-1.66-5.47-4.45-6.54-5.16a6.61,6.61,0,0,1-.08-1.6c.06-1.51-.85-24.91-1-27.75.38-.62,1.51-2.45,2.22-3.88a45.19,45.19,0,0,0,2.46-6c1.18,1.88,3.83,5.84,4.12,6.15l.24.25.09.08-.29.23c-1.41,1.15-2.59,2.18-2.71,3.16a3.57,3.57,0,0,0,.64,2.67,2.91,2.91,0,0,0,2.3,1,4.62,4.62,0,0,0,2.69-.56c.44,1.5,3,6.84,5.18,7.25s7.32-1.68,8.41-4.9A25.16,25.16,0,0,0,970.78,675.89Zm-1.84,10.39c-.77,2.28-5.11,4.11-6.59,3.84-1.22-.23-3.8-5.16-4-6.18-.29-1.78-1.51-1.64-1.56-1.63l-.64.09-.05.57c-.09.14-.57.46-1.92.44a1.4,1.4,0,0,1-1.1-.42,2,2,0,0,1-.29-1.46c.11-.48,1.63-1.71,2.13-2.12.3-.24.51-.41.64-.54A1.19,1.19,0,0,0,956,678a1.82,1.82,0,0,0-.71-1.26l-.17-.18c-.41-.47-4.11-6.1-4.35-6.59a1.27,1.27,0,0,0-1.35-.83c-.24,0-1,.25-1,1.47a35.7,35.7,0,0,1-2.45,6.17c-.82,1.63-2.26,3.93-2.28,4l-.13.21v.25c.36,9.11,1,26.65,1,27.87a5.93,5.93,0,0,0,.27,2.5l.1.21.19.12c1.4.92,5.28,3.61,6.42,5,1.3,1.61,1.56,2.42,1.52,4.81,0,1.5-3,2.66-4.09,3-1.24.07-15.06.72-19.18-.59a8.3,8.3,0,0,1-5.55-5.26c-.16-.9-2-23.57-2-24.92a1.73,1.73,0,0,0-1.34-1.57l-.1,0h-.1c-.12,0-12.39.17-13.46.14a1.67,1.67,0,0,0-1.35.5,1.92,1.92,0,0,0-.51,1.37c-.1,1.09-1.8,21.1-2.43,24.85-.41,2.39-2.77,4.25-7,5.54-1.79.55-15.94.2-17.26,0-.1,0-.24-.05-.45-.09-.93-.16-3.74-.66-4.55-2.17a2.71,2.71,0,0,1,.11-2.42,15.4,15.4,0,0,1,6.8-7.46,3,3,0,0,1,.56-.16c1.3-.26,1.67-1,1.46-2.83-.19-1.67.58-15.77.95-22.55.17-3.08.25-4.57.25-4.83a2.19,2.19,0,0,0-.85-1.76,5.9,5.9,0,0,1-.64-.71,57.88,57.88,0,0,1-3.53-7.92,1.68,1.68,0,0,0-1.4-1.62l-.47,0-.26.39c-.12.19-3,4.7-3.52,5.61s-1.24,2.23-.61,3.07a7.13,7.13,0,0,0,2,1.56A1.78,1.78,0,0,1,875,683c-.25.76-.94.9-2,.88h-.17a10,10,0,0,1-2.09-1l-.84-.5-.33.92s-.66,1.86-1.31,3.42-2.16,3.54-3.72,3.65h-.1c-1.57,0-4.42-2.37-5.49-3.71-.81-1-1.32-2.57.17-12.31,1.3-8.49,6.4-18.14,9.78-24.52.39-.72.74-1.4,1.07-2,2.69-5.14,12.1-21.68,15.06-26.89,3.21-1.35,14.91-8.9,19.85-11.15,5.45-2.47,5.45-1.48,6.44-2s9.41,3.78,11.47,4.61c3.85,1.53,16.5,6.46,20.66,8.21l.16.33c.31.61.66,1.41,1.11,2.42a104.12,104.12,0,0,0,10,18.13c7.35,10.83,14,32.73,14.51,34.74A23.28,23.28,0,0,1,968.94,686.28Z"/><path class="cls-21" d="M881.24,684l-1,26s22.83,6.83,24.67,5.67S907.24,695,907.24,695l12.5-.5,2,22,25-6-1-29-64,1Z"/><path class="cls-23" d="M971.24,673c-.61-4.85-23-52.38-26-54s-17-7-17-7,1.8-10-2-10c-2,0-10.12.47-14.74.3,0-.11,0-.21,0-.32l-.44,0h-2.33a10.64,10.64,0,0,1-1.7-.15,2.09,2.09,0,0,1,0,.25c-5-.27-10.81-1.1-10.81-1.1-2.73.81-.65,10.47-.65,10.47s-10.53,6.91-12.35,8.53-25,39-27,56c-.34,2.94,16.79,2.54,18,2s3-5,3-5l4,11s62.18,1.08,64,0,5-12,5-12l3,6S971.85,677.85,971.24,673Z"/><path class="cls-24" d="M1040.78,674.89c-.49-2-7.27-24.25-14.75-35.26a103.78,103.78,0,0,1-9.87-17.88c-.39-.88-1.33-3-1.47-3.16s-.45-.21-.69-.31c-.07,0-27-10.54-28.25-11-1.48-.5-4.45-2-4.45-2s-.5-4.46.49-6.43,2.48-1.49,5.44-4.95a9.86,9.86,0,0,0,2-7.92c0-3-4.94-6.93-7.91-6.93a11.46,11.46,0,0,0-8.91,3.47c-3,3-2,6.92-2,7.91s2,2,2.48,1a2.41,2.41,0,0,0,0-2s-1-3,0-4.94,3.46-3.47,5.93-4,5.45,1.48,6.93,3,1.48,3.46,1.48,6.43-3.46,4.45-5.93,6.93-2,3-2,4,0,4.46-.5,4.46-19.55,10.15-24.35,13.22a2.21,2.21,0,0,0-.53.35,3.37,3.37,0,0,0-.49.38c-.52.52-.57.78-.41.9-3.47,6.09-12,21-14.51,25.91-.32.63-.68,1.3-1.06,2-3.43,6.48-8.62,16.28-10,25-1.47,9.59-1.14,11.93.16,13.55.91,1.13,4.27,4.31,6.76,4.31h.19c2.57-.17,4.45-3.1,5.08-4.62.39-.92.77-1.92,1-2.62a5.68,5.68,0,0,0,2.07.76H943c.78,0,2.86.06,3.54-2a3.29,3.29,0,0,0-1.24-4.14,7.77,7.77,0,0,1-1.5-1.07,7,7,0,0,1,.66-1.41c.33-.61,1.87-3,2.79-4.46a55.1,55.1,0,0,0,3.71,8.19,6,6,0,0,0,.81.9c.34.34.36.37.36.62s-.11,2.32-.24,4.74c-.56,10.17-1.14,21.16-1,22.82a4.14,4.14,0,0,1,0,1l-.21,0a4.28,4.28,0,0,0-.91.28,16.68,16.68,0,0,0-7.6,8.27,4.19,4.19,0,0,0-.06,3.81c1.18,2.2,4.45,2.78,5.68,3l.28.05a107,107,0,0,0,10.72.37,43.71,43.71,0,0,0,7.45-.37c4.87-1.48,7.59-3.77,8.11-6.8.67-3.9,2.38-24.16,2.45-25v-.11a.38.38,0,0,1,.06-.23s.05,0,.15,0c1.05,0,11.9-.11,13.38-.13,0,0,.07,0,.07.07,0,.2,1.88,24.21,2.09,25.17a9.81,9.81,0,0,0,6.63,6.46c4.57,1.45,19.21.69,19.83.66l.17,0c.54-.15,5.29-1.53,5.35-4.53,0-2.56-.23-3.82-1.88-5.85-1.36-1.66-5.47-4.45-6.54-5.16a6.61,6.61,0,0,1-.08-1.6c.06-1.51-.85-24.91-1-27.75.38-.62,1.51-2.45,2.22-3.88a45.19,45.19,0,0,0,2.46-6c1.18,1.88,3.83,5.84,4.12,6.15l.24.25.09.08-.29.23c-1.41,1.15-2.59,2.18-2.71,3.16a3.57,3.57,0,0,0,.64,2.67,2.91,2.91,0,0,0,2.3,1,4.62,4.62,0,0,0,2.69-.56c.44,1.5,3,6.84,5.18,7.25,2,.39,7.32-1.68,8.41-4.9A25.16,25.16,0,0,0,1040.78,674.89Zm-1.84,10.39c-.77,2.28-5.11,4.11-6.59,3.84-1.22-.23-3.8-5.16-4-6.18-.29-1.78-1.51-1.64-1.56-1.63l-.64.09,0,.57c-.09.14-.57.46-1.92.44a1.4,1.4,0,0,1-1.1-.42,2,2,0,0,1-.29-1.46c.11-.48,1.63-1.71,2.13-2.12.3-.24.51-.41.64-.54a1.19,1.19,0,0,0,.38-.89,1.82,1.82,0,0,0-.71-1.26l-.17-.18c-.41-.47-4.11-6.1-4.35-6.59a1.27,1.27,0,0,0-1.35-.83c-.24,0-1,.25-1,1.47a35.7,35.7,0,0,1-2.45,6.17c-.82,1.63-2.26,3.93-2.28,4l-.13.21v.25c.36,9.11,1,26.65,1,27.87a5.93,5.93,0,0,0,.27,2.5l.1.21.19.12c1.4.92,5.28,3.61,6.42,5,1.3,1.61,1.56,2.42,1.52,4.81,0,1.5-3,2.66-4.09,3-1.24.07-15.06.72-19.18-.59a8.3,8.3,0,0,1-5.55-5.26c-.16-.9-2-23.57-2-24.92a1.73,1.73,0,0,0-1.34-1.57l-.1,0h-.1c-.12,0-12.39.17-13.46.14a1.67,1.67,0,0,0-1.35.5,1.92,1.92,0,0,0-.51,1.37c-.1,1.09-1.8,21.1-2.43,24.85-.41,2.39-2.77,4.25-7,5.54-1.79.55-15.94.2-17.26,0-.1,0-.24-.05-.45-.09-.93-.16-3.74-.66-4.55-2.17a2.71,2.71,0,0,1,.11-2.42,15.4,15.4,0,0,1,6.8-7.46,3,3,0,0,1,.56-.16c1.3-.26,1.67-1,1.46-2.83-.19-1.67.58-15.77.95-22.55.17-3.08.25-4.57.25-4.83a2.19,2.19,0,0,0-.85-1.76,5.9,5.9,0,0,1-.64-.71,57.88,57.88,0,0,1-3.53-7.92,1.68,1.68,0,0,0-1.4-1.62l-.47,0-.26.39c-.12.19-3,4.7-3.52,5.61s-1.24,2.23-.61,3.07a7.13,7.13,0,0,0,2,1.56A1.78,1.78,0,0,1,945,682c-.25.76-.94.9-2,.88h-.17a10,10,0,0,1-2.09-1l-.84-.5-.33.92s-.66,1.86-1.31,3.42-2.16,3.54-3.72,3.65h-.1c-1.57,0-4.42-2.37-5.49-3.71-.81-1-1.32-2.57.17-12.31,1.3-8.49,6.4-18.14,9.78-24.52.39-.72.74-1.4,1.07-2,2.69-5.14,12.1-21.68,15.06-26.89,3.21-1.35,14.91-8.9,19.85-11.15,5.45-2.47,5.45-1.48,6.44-2s9.41,3.78,11.47,4.61c3.85,1.53,16.5,6.46,20.66,8.21l.16.33c.31.61.66,1.41,1.11,2.42a104.12,104.12,0,0,0,10,18.13c7.35,10.83,14,32.73,14.51,34.74A23.28,23.28,0,0,1,1038.94,685.28Z"/><path class="cls-23" d="M951.24,683l-1,26s22.83,6.83,24.67,5.67S977.24,694,977.24,694l12.5-.5,2,22,25-6-1-29-64,1Z"/><path class="cls-14" d="M1041.24,672c-.61-4.85-23-52.38-26-54s-17-7-17-7,1.8-10-2-10c-2,0-10.12.47-14.74.3,0-.11,0-.21,0-.32l-.44,0h-2.33a10.64,10.64,0,0,1-1.7-.15,2.09,2.09,0,0,1,0,.25c-5-.27-10.81-1.1-10.81-1.1-2.73.81-.65,10.47-.65,10.47s-10.53,6.91-12.35,8.53-25,39-27,56c-.34,2.94,16.79,2.54,18,2s3-5,3-5l4,11s62.18,1.08,64,0,5-12,5-12l3,6S1041.85,676.85,1041.24,672Z"/><polygon class="cls-10" points="450.44 540.37 452.75 741.34 213.96 723.5 217.04 546.94 450.44 540.37"/><polygon class="cls-11" points="451.34 539.13 453.67 742.82 213.03 724.74 216.14 545.79 451.34 539.13"/><polygon class="cls-12" points="209.71 546.93 93.24 552.96 94.22 702.89 211.18 722.01 209.71 546.93"/><g class="cls-25"><path class="cls-14" d="M161.88,563.23s.48,3.73,1.8,4.55,25.81-7,26.68-7.91,1.57-7.38.9-8.81-27.34,6.69-28.21,7.76S161.75,560.83,161.88,563.23Z"/><path class="cls-14" d="M162,574a2.65,2.65,0,0,0,2.55,2.91c2.85.38,25.26-7.08,26-7.92s.94-5.16.71-6.31-26.37,6-27.78,7.22S162.08,572.53,162,574Z"/><path class="cls-14" d="M163.24,579.92s-1.73,3-1.26,5.46,1.23,2.89,3.09,3,21.87-5.88,24.05-7.34,2-5.89,1.58-7.59-18.82,4-21.88,4.66S164,578.88,163.24,579.92Z"/><path class="cls-14" d="M161.24,552.23s-.51,4.63,2.67,4.09,27.44-8.14,27.76-8.84,2.8-5.51.37-8c0,0,.64-1-2.42-.31a26.37,26.37,0,0,0-5.14,1.73s1.46-8.57.47-8.68-13.58,1-14.42,4.68a18.59,18.59,0,0,0,.17,7.68l-8,3S161.21,548.78,161.24,552.23Z"/><path class="cls-15" d="M171.51,536.57c.23-.22,8.41-2.9,10.93-3s-.3,2.33-1.93,4.64-6.11,2.43-7,1.47S170.64,537.44,171.51,536.57Z"/><path class="cls-15" d="M175.51,542.91s.18,7.88.3,8.26.57,2.88,1-.09,1-8.65.69-8.75S176,540.92,175.51,542.91Z"/><path class="cls-15" d="M175.75,556.88s-.08,2.87.25,3.38.67,1,1.19-1.57S176.72,555.17,175.75,556.88Z"/><path class="cls-15" d="M175.74,567.46a8.44,8.44,0,0,0,0,3.86c.56,1.46.67,1,1.09-.93s.52-3.41.19-3.52S176,566.38,175.74,567.46Z"/><path class="cls-15" d="M175.08,579.66s-.74,2.87,0,3.45,1.5-3.9,1.5-4.1S176,577.14,175.08,579.66Z"/><path class="cls-16" d="M162.66,624.85s.48,3.72,1.8,4.55,25.81-7,26.68-7.91,1.57-7.39.9-8.81-27.34,6.68-28.21,7.75S162.53,622.45,162.66,624.85Z"/><path class="cls-16" d="M162.76,635.6a2.64,2.64,0,0,0,2.55,2.91c2.85.37,25.26-7.09,26-7.92s.94-5.16.71-6.32-26.37,6-27.78,7.23S162.86,634.15,162.76,635.6Z"/><path class="cls-16" d="M164,641.54s-1.73,3-1.27,5.46,1.24,2.89,3.1,3,21.87-5.88,24.05-7.34,2-5.89,1.58-7.59-18.82,4-21.89,4.66S164.78,640.5,164,641.54Z"/><path class="cls-16" d="M162,613.85s-.51,4.63,2.66,4.09,27.45-8.14,27.77-8.84,2.8-5.51.36-8.05c0,0,.65-1-2.41-.3a26.37,26.37,0,0,0-5.14,1.73s1.46-8.57.47-8.68-13.58,1-14.43,4.68a18.7,18.7,0,0,0,.18,7.68l-8,3S162,610.4,162,613.85Z"/><path class="cls-15" d="M172.29,598.19c.23-.23,8.41-2.9,10.93-3s-.31,2.33-1.93,4.64-6.12,2.43-7,1.47S171.42,599.06,172.29,598.19Z"/><path class="cls-15" d="M176.29,604.53s.18,7.88.3,8.25.57,2.89,1-.08,1-8.65.69-8.75S176.82,602.54,176.29,604.53Z"/><path class="cls-15" d="M176.53,618.5s-.09,2.87.25,3.38.66,1,1.19-1.57S177.5,616.79,176.53,618.5Z"/><path class="cls-15" d="M176.51,629.08a8.5,8.5,0,0,0,0,3.86c.56,1.46.67,1,1.09-.94s.51-3.4.18-3.51S176.72,628,176.51,629.08Z"/><path class="cls-15" d="M175.86,641.28s-.74,2.87,0,3.45,1.5-3.9,1.5-4.11S176.82,638.76,175.86,641.28Z"/><path class="cls-16" d="M122.18,573.18s.47,3.72,1.8,4.55,25.8-7,26.67-7.91,1.58-7.39.91-8.82-27.35,6.69-28.21,7.76S122.05,570.77,122.18,573.18Z"/><path class="cls-16" d="M122.28,583.93a2.65,2.65,0,0,0,2.55,2.91c2.85.37,25.26-7.09,26-7.92s.94-5.17.71-6.32-26.37,6-27.78,7.22S122.37,582.48,122.28,583.93Z"/><path class="cls-16" d="M123.54,589.86s-1.73,3-1.27,5.47,1.23,2.89,3.1,2.94,21.87-5.87,24-7.33,2-5.9,1.58-7.59-18.82,3.95-21.89,4.66S124.3,588.83,123.54,589.86Z"/><path class="cls-16" d="M121.53,562.18s-.5,4.63,2.67,4.09,27.44-8.14,27.77-8.85,2.8-5.51.36-8c0,0,.65-1-2.41-.3a26.06,26.06,0,0,0-5.14,1.73s1.46-8.57.47-8.69-13.59,1-14.43,4.69a18.7,18.7,0,0,0,.18,7.68l-8,3S121.5,558.73,121.53,562.18Z"/><path class="cls-15" d="M131.81,546.52c.22-.23,8.41-2.9,10.93-3s-.31,2.33-1.93,4.64-6.12,2.43-7,1.47S130.94,547.39,131.81,546.52Z"/><path class="cls-15" d="M135.81,552.86s.18,7.88.29,8.25.58,2.88,1-.09,1-8.64.69-8.75S136.34,550.87,135.81,552.86Z"/><path class="cls-15" d="M136.05,566.83s-.09,2.87.25,3.38.66,1,1.19-1.57S137,565.11,136.05,566.83Z"/><path class="cls-15" d="M136,577.41a8.49,8.49,0,0,0,0,3.86c.56,1.46.66,1,1.09-.94s.51-3.41.18-3.51S136.24,576.33,136,577.41Z"/><path class="cls-15" d="M135.38,589.61s-.75,2.86,0,3.45,1.5-3.91,1.49-4.11S136.34,587.08,135.38,589.61Z"/><path class="cls-14" d="M121.76,635.15s.47,3.73,1.79,4.56,25.81-7.05,26.68-7.92,1.58-7.38.91-8.81-27.35,6.69-28.22,7.76S121.63,632.75,121.76,635.15Z"/><path class="cls-14" d="M121.85,645.91a2.64,2.64,0,0,0,2.55,2.9c2.86.38,25.26-7.08,26-7.92s.94-5.16.71-6.31-26.36,6-27.78,7.22S122,644.45,121.85,645.91Z"/><path class="cls-14" d="M123.11,651.84s-1.72,2.95-1.26,5.46,1.23,2.89,3.09,3,21.88-5.88,24.06-7.34,2-5.89,1.57-7.59-18.82,4-21.88,4.66S123.87,650.8,123.11,651.84Z"/><path class="cls-14" d="M121.11,624.15s-.51,4.63,2.67,4.1,27.44-8.14,27.76-8.85,2.8-5.51.37-8c0,0,.65-1-2.42-.3a25.74,25.74,0,0,0-5.13,1.72s1.45-8.57.47-8.68-13.59,1-14.43,4.69a18.47,18.47,0,0,0,.18,7.67l-8,3S121.08,620.71,121.11,624.15Z"/><path class="cls-15" d="M131.38,608.49c.23-.22,8.42-2.9,10.94-3s-.31,2.33-1.94,4.65-6.11,2.42-7,1.46S130.51,609.36,131.38,608.49Z"/><path class="cls-15" d="M135.39,614.83s.18,7.88.29,8.26.57,2.88,1-.09,1-8.64.69-8.75S135.92,612.85,135.39,614.83Z"/><path class="cls-15" d="M135.62,628.8s-.08,2.87.25,3.39.67,1,1.19-1.58S136.59,627.09,135.62,628.8Z"/><path class="cls-15" d="M135.61,639.38a8.44,8.44,0,0,0,0,3.86c.56,1.46.67,1,1.09-.93s.52-3.41.19-3.52S135.82,638.31,135.61,639.38Z"/><path class="cls-15" d="M135,651.58s-.74,2.87,0,3.45,1.5-3.9,1.5-4.1S135.91,649.06,135,651.58Z"/><path class="cls-16" d="M122.37,702.31s.47,3.73,1.79,4.56,25.81-7,26.68-7.92,1.58-7.38.9-8.81-27.34,6.69-28.21,7.76S122.23,699.91,122.37,702.31Z"/><path class="cls-16" d="M122.46,713.07A2.64,2.64,0,0,0,125,716c2.85.38,25.26-7.08,26-7.92s.94-5.16.71-6.31-26.37,6-27.78,7.22S122.56,711.61,122.46,713.07Z"/><path class="cls-16" d="M123.72,719s-1.72,3-1.26,5.46,1.23,2.89,3.09,2.95,21.87-5.88,24-7.34,2-5.89,1.58-7.59-18.82,4-21.88,4.66S124.48,718,123.72,719Z"/><path class="cls-16" d="M121.72,691.32s-.51,4.62,2.67,4.09,27.44-8.14,27.76-8.85,2.8-5.51.37-8c0,0,.64-1-2.42-.3a26,26,0,0,0-5.14,1.72s1.46-8.57.47-8.68-13.58,1-14.42,4.69a18.45,18.45,0,0,0,.18,7.67l-8,3S121.69,687.87,121.72,691.32Z"/><path class="cls-15" d="M132,675.65c.23-.22,8.41-2.9,10.94-3s-.31,2.33-1.94,4.65-6.11,2.42-7,1.46S131.12,676.52,132,675.65Z"/><path class="cls-15" d="M136,682s.19,7.89.3,8.26.57,2.88,1-.09,1-8.64.69-8.75S136.52,680,136,682Z"/><path class="cls-15" d="M136.23,696s-.08,2.88.25,3.39.67,1,1.19-1.58S137.2,694.25,136.23,696Z"/><path class="cls-15" d="M136.22,706.55a8.39,8.39,0,0,0,0,3.85c.56,1.46.67,1,1.09-.93s.52-3.41.19-3.52S136.43,705.47,136.22,706.55Z"/><path class="cls-15" d="M135.56,718.74s-.74,2.87,0,3.45,1.5-3.9,1.5-4.1S136.52,716.22,135.56,718.74Z"/><path class="cls-14" d="M163.28,680.82s.47,3.72,1.8,4.55,25.8-7,26.67-7.91,1.58-7.39.91-8.82-27.35,6.69-28.21,7.76S163.15,678.42,163.28,680.82Z"/><path class="cls-14" d="M163.38,691.57a2.65,2.65,0,0,0,2.55,2.91c2.85.37,25.25-7.09,26-7.92s.94-5.16.71-6.32-26.36,6-27.77,7.23S163.47,690.12,163.38,691.57Z"/><path class="cls-14" d="M164.64,697.51s-1.73,3-1.27,5.46,1.23,2.89,3.1,2.94,21.87-5.87,24.05-7.33,2-5.89,1.57-7.59-18.82,4-21.88,4.66S165.4,696.47,164.64,697.51Z"/><path class="cls-14" d="M162.63,669.82s-.5,4.63,2.67,4.09,27.44-8.14,27.77-8.84,2.8-5.51.36-8.05c0,0,.65-1-2.41-.3a26.06,26.06,0,0,0-5.14,1.73s1.46-8.57.47-8.69-13.59,1-14.43,4.69a18.7,18.7,0,0,0,.18,7.68l-8,3S162.6,666.37,162.63,669.82Z"/><path class="cls-15" d="M172.9,654.16c.23-.23,8.42-2.9,10.94-3s-.31,2.33-1.93,4.64-6.12,2.43-7,1.47S172,655,172.9,654.16Z"/><path class="cls-15" d="M176.91,660.5s.18,7.88.29,8.25.58,2.89,1-.09,1-8.64.69-8.74S177.44,658.51,176.91,660.5Z"/><path class="cls-15" d="M177.15,674.47s-.09,2.87.25,3.38.66,1,1.19-1.57S178.12,672.76,177.15,674.47Z"/><path class="cls-15" d="M177.13,685.05a8.5,8.5,0,0,0,0,3.86c.56,1.46.66,1,1.08-.94s.52-3.41.19-3.51S177.34,684,177.13,685.05Z"/><path class="cls-15" d="M176.47,697.25s-.74,2.86,0,3.45,1.5-3.9,1.49-4.11S177.44,694.73,176.47,697.25Z"/><path class="cls-14" d="M165.31,709.72s-1.88,3-1.38,5.49,1.33,2.86,3.36,2.87,23.78-6.44,26.15-8,2.21-5.94,1.71-7.63-20.45,4.44-23.78,5.23S166.13,708.66,165.31,709.72Z"/><path class="cls-15" d="M178.17,709.16s-.8,2.88,0,3.45,1.64-4,1.64-4.15S179.22,706.61,178.17,709.16Z"/><polygon class="cls-17" points="197.94 580.41 113.98 605.32 113.41 542.31 197.37 517.41 197.94 580.41"/><polygon class="cls-17" points="198.65 640.62 114.47 665.59 113.97 610.4 198.15 585.43 198.65 640.62"/><polygon class="cls-17" points="198.84 709.74 114.66 734.71 114.06 668.36 198.24 643.39 198.84 709.74"/></g><path class="cls-5" d="M450,589c-14.87-1-29.77-2.35-44.69-2.93-15.23-.59-30.51.77-45.72,1.18-30.26.81-60.54.37-90.8.16-17.07-.13-34.17-.12-51.13,1.46-1.21.11-1.2-1.28,0-1.39,15.12-1.41,30.38-1.57,45.6-1.5s30.59.27,45.89.33c15.13.06,30.27,0,45.4-.33s30.24-1.62,45.34-1.44c16.7.2,33.49,1.93,50.11,3.07,1.21.09,1.23,1.48,0,1.39Z"/><polygon class="cls-18" points="450.89 540.16 215.81 546.37 228.18 552.59 450.26 546.27 450.89 540.16"/><polygon class="cls-18" points="209.71 548.17 93.37 552.59 113.06 557.56 209.18 554.28 209.71 548.17"/><polygon class="cls-19" points="452.98 741.58 212.11 722.96 256.41 709.31 453.67 722.34 452.98 741.58"/><polygon class="cls-19" points="211.55 721.69 94.53 702.89 114.22 680.66 210.39 696.82 211.55 721.69"/><polygon class="cls-11" points="209.71 546.93 93.24 552.96 94.22 702.89 211.18 722.01 209.71 546.93"/><path class="cls-20" d="M344.26,674.42c1,2.93,5.89,4.83,7.78,4.47s4.39-5.25,4.8-6.62a4.35,4.35,0,0,0,2.48.52,2.75,2.75,0,0,0,2.14-.92,3.22,3.22,0,0,0,.58-2.44c-.11-.9-1.2-1.84-2.5-2.89l-.27-.21.08-.07.22-.23c.27-.28,2.73-3.91,3.81-5.62a41.55,41.55,0,0,0,2.29,5.5c.66,1.3,1.69,3,2.05,3.54-.1,2.59-1,24-.89,25.35a5.55,5.55,0,0,1-.08,1.46c-1,.65-4.79,3.2-6,4.72a6.67,6.67,0,0,0-1.74,5.34c0,2.74,4.44,4,4.94,4.14l.16,0c.57,0,14.12.73,18.36-.6a9,9,0,0,0,6.13-5.89c.2-.88,1.92-22.82,1.93-23a.22.22,0,0,1,.07-.06c1.37,0,11.41.15,12.39.12a.3.3,0,0,1,.14,0,.5.5,0,0,1,.05.21v.1c.07.79,1.66,19.3,2.27,22.86.48,2.78,3,4.87,7.51,6.22a40.6,40.6,0,0,0,6.89.34c4.45,0,9.43-.18,9.93-.34l.26-.05c1.14-.2,4.16-.72,5.26-2.73a3.82,3.82,0,0,0-.06-3.48,15.37,15.37,0,0,0-7-7.56,4.11,4.11,0,0,0-.85-.26l-.19,0a3.45,3.45,0,0,1,0-1c.17-1.51-.36-11.55-.88-20.84-.12-2.22-.23-4.13-.23-4.33s0-.26.34-.57a5.82,5.82,0,0,0,.75-.82,49.42,49.42,0,0,0,3.43-7.49c.85,1.31,2.28,3.52,2.59,4.08a6.33,6.33,0,0,1,.6,1.29,6.85,6.85,0,0,1-1.38,1,3,3,0,0,0-1.15,3.78c.63,1.86,2.55,1.82,3.27,1.81h.15a5.39,5.39,0,0,0,1.91-.68c.23.63.59,1.54.94,2.39.59,1.39,2.33,4.06,4.71,4.22h.17c2.31,0,5.42-2.9,6.25-3.93,1.21-1.48,1.51-3.62.16-12.38-1.24-8-6-17-9.21-22.87l-1-1.84c-2.36-4.45-10.22-18.12-13.43-23.68.14-.11.1-.35-.38-.82a3.68,3.68,0,0,0-.46-.35s-.43-.34-.48-.31c-4.45-2.81-22.13-12.09-22.55-12.09s-.45-3.16-.45-4.06.45-1.36-1.84-3.62-5.49-3.62-5.49-6.33,0-4.52,1.37-5.88,4.12-3.16,6.41-2.71,4.58,1.81,5.5,3.62,0,4.52,0,4.52a2.15,2.15,0,0,0,0,1.81c.46.9,2.29,0,2.29-.91s.91-4.52-1.83-7.23A10.69,10.69,0,0,0,399,577c-2.74,0-7.32,3.61-7.32,6.32a8.91,8.91,0,0,0,1.83,7.24c2.75,3.16,4.12,2.71,5,4.52s.45,5.87.45,5.87a44.48,44.48,0,0,1-4.12,1.81c-1.19.39-26.08,10-26.15,10s-.43.18-.64.29-1,2.07-1.35,2.88a94,94,0,0,1-9.14,16.33c-6.92,10.06-13.19,30.35-13.65,32.21A22.61,22.61,0,0,0,344.26,674.42Zm1.14-9.62c.45-1.84,6.63-21.85,13.44-31.74a95.64,95.64,0,0,0,9.26-16.56c.41-.93.74-1.66,1-2.21l.14-.31c3.85-1.6,15.57-6.1,19.13-7.5,1.9-.75,9.7-4.66,10.61-4.21s.92-.45,6,1.81c4.58,2,15.4,8.95,18.37,10.19,2.75,4.75,11.46,19.86,13.94,24.57.3.57.64,1.18,1,1.84,3.13,5.84,7.85,14.66,9.06,22.41,1.37,8.9.9,10.32.15,11.25-1,1.22-3.63,3.38-5.08,3.38h-.09c-1.45-.09-2.88-2-3.44-3.33s-1.22-3.11-1.22-3.13l-.3-.83-.78.45a8.58,8.58,0,0,1-1.94.91h-.16c-1,0-1.6-.1-1.83-.8a1.6,1.6,0,0,1,.5-2.06A6.72,6.72,0,0,0,435,667.5c.59-.77,0-1.85-.56-2.8s-3.15-5-3.26-5.13l-.24-.36-.43,0a1.51,1.51,0,0,0-1.3,1.47A52.21,52.21,0,0,1,426,668a4.2,4.2,0,0,1-.59.64,2,2,0,0,0-.79,1.62c0,.23.08,1.6.23,4.41.35,6.19,1.06,19.08.89,20.6-.2,1.7.14,2.35,1.34,2.59a2.35,2.35,0,0,1,.52.14,14.1,14.1,0,0,1,6.3,6.82A2.45,2.45,0,0,1,434,707c-.75,1.38-3.35,1.83-4.21,2l-.42.09c-1.22.19-14.32.5-16,0-3.92-1.18-6.1-2.89-6.48-5.07-.59-3.43-2.16-21.7-2.25-22.7a1.73,1.73,0,0,0-.47-1.25,1.55,1.55,0,0,0-1.25-.46c-1,0-12.34-.12-12.46-.12h-.09l-.09,0a1.62,1.62,0,0,0-1.25,1.44c-.06,1.24-1.74,22-1.89,22.77a7.65,7.65,0,0,1-5.14,4.81c-3.82,1.19-16.6.6-17.75.54-1.05-.3-3.76-1.37-3.78-2.74,0-2.18.19-2.92,1.4-4.39a39,39,0,0,1,5.94-4.57l.18-.11.09-.19a5.21,5.21,0,0,0,.25-2.29c-.05-1.11.57-17.14.9-25.46v-.22l-.13-.19s-1.34-2.13-2.1-3.62a31.35,31.35,0,0,1-2.27-5.63c-.05-1.12-.75-1.32-1-1.35a1.18,1.18,0,0,0-1.25.76c-.22.45-3.65,5.59-4,6l-.17.16a1.76,1.76,0,0,0-.66,1.16,1.1,1.1,0,0,0,.36.81c.12.12.32.28.59.5.47.37,1.87,1.5,2,1.93a1.87,1.87,0,0,1-.27,1.33,1.32,1.32,0,0,1-1,.39c-1.25,0-1.7-.28-1.78-.41l-.05-.52-.59-.07s-1.18-.14-1.44,1.49c-.15.93-2.54,5.43-3.67,5.64-1.37.25-5.39-1.43-6.1-3.51A21.16,21.16,0,0,1,345.4,664.8Z"/><path class="cls-14" d="M426.83,671.87l.93,23.75s-21.14,6.25-22.83,5.18-2.16-18.88-2.16-18.88l-11.57-.46-1.85,20.1-23.14-5.48.92-26.5,59.24.92Z"/><path class="cls-21" d="M343.53,661.82c.56-4.44,21.26-47.86,24.07-49.34s15.73-6.39,15.73-6.39-1.66-9.14,1.85-9.14c1.85,0,9.37.43,13.65.27a2.71,2.71,0,0,1,0-.29l.4,0h2.16a10.08,10.08,0,0,0,1.57-.13,1.62,1.62,0,0,1,0,.22c4.66-.24,10-1,10-1,2.53.74.6,9.57.6,9.57s9.75,6.31,11.43,7.79,23.14,35.63,25,51.16c.32,2.68-15.54,2.32-16.66,1.83s-2.78-4.57-2.78-4.57l-3.7,10s-57.55,1-59.23,0-4.63-11-4.63-11l-2.78,5.49S343,666.25,343.53,661.82Z"/><path class="cls-22" d="M280.4,675.8c1,3,5.89,4.89,7.78,4.53s4.39-5.32,4.79-6.71a4.39,4.39,0,0,0,2.49.52,2.72,2.72,0,0,0,2.14-.93,3.29,3.29,0,0,0,.58-2.47c-.11-.91-1.2-1.86-2.51-2.92l-.26-.22.08-.07.22-.23c.27-.29,2.73-4,3.81-5.7a43.89,43.89,0,0,0,2.28,5.57c.66,1.32,1.7,3,2.06,3.59-.11,2.63-.95,24.28-.89,25.69a6.15,6.15,0,0,1-.08,1.47c-1,.66-4.79,3.24-6.05,4.78a6.89,6.89,0,0,0-1.74,5.41c0,2.78,4.45,4.06,4.95,4.2l.16,0c.57,0,14.12.73,18.36-.61a9.1,9.1,0,0,0,6.13-6c.2-.89,1.92-23.12,1.93-23.3a.16.16,0,0,1,.07-.07c1.37,0,11.41.15,12.39.12.08,0,.13,0,.13,0s.06.18.06.22v.1c.07.8,1.66,19.55,2.27,23.16.48,2.81,3,4.93,7.51,6.3a40.52,40.52,0,0,0,6.89.34,97.13,97.13,0,0,0,9.93-.35l.26,0c1.14-.2,4.16-.74,5.26-2.77a3.92,3.92,0,0,0-.06-3.53,15.52,15.52,0,0,0-7-7.66,3.48,3.48,0,0,0-.85-.25l-.19,0a3.61,3.61,0,0,1,0-1c.17-1.53-.37-11.7-.88-21.11-.12-2.25-.23-4.18-.23-4.39s0-.27.34-.58a6,6,0,0,0,.75-.83,51.28,51.28,0,0,0,3.43-7.58c.85,1.32,2.27,3.57,2.59,4.13a6.5,6.5,0,0,1,.6,1.31,7,7,0,0,1-1.39,1,3,3,0,0,0-1.14,3.83c.63,1.88,2.55,1.84,3.27,1.83h.15a5.19,5.19,0,0,0,1.9-.7c.24.64.59,1.57.95,2.42.59,1.41,2.33,4.12,4.71,4.28h.17c2.31,0,5.42-2.93,6.25-4,1.21-1.5,1.51-3.67.16-12.54-1.24-8.11-6-17.17-9.21-23.17-.36-.67-.69-1.29-1-1.87-2.35-4.5-10.21-18.35-13.42-24,.14-.11.1-.35-.38-.83a2.82,2.82,0,0,0-.46-.36,2.11,2.11,0,0,0-.48-.32c-4.45-2.84-22.13-12.24-22.55-12.24s-.46-3.2-.46-4.12.46-1.37-1.83-3.66-5.49-3.67-5.49-6.41,0-4.58,1.37-6,4.12-3.2,6.41-2.74a8,8,0,0,1,5.5,3.66c.91,1.83,0,4.58,0,4.58a2.2,2.2,0,0,0,0,1.83c.46.92,2.29,0,2.29-.92s.91-4.57-1.83-7.32a10.61,10.61,0,0,0-8.25-3.21c-2.74,0-7.32,3.67-7.32,6.41a9.11,9.11,0,0,0,1.83,7.33c2.75,3.21,4.12,2.75,5,4.58s.46,6,.46,6a42.89,42.89,0,0,1-4.12,1.83c-1.19.4-26.08,10.18-26.15,10.15s-.43.18-.64.29-1,2.1-1.36,2.92a95.41,95.41,0,0,1-9.13,16.55c-6.92,10.19-13.2,30.74-13.65,32.63A23.05,23.05,0,0,0,280.4,675.8Zm1.14-9.75c.45-1.86,6.63-22.13,13.44-32.15a97,97,0,0,0,9.26-16.78c.41-.94.74-1.68,1-2.24l.15-.31c3.85-1.62,15.56-6.18,19.13-7.6,1.9-.76,9.7-4.72,10.61-4.26s.92-.46,6,1.83c4.57,2.08,15.4,9.06,18.37,10.32,2.74,4.81,11.45,20.12,13.94,24.89.3.58.63,1.2,1,1.87,3.12,5.91,7.85,14.84,9,22.7,1.38,9,.91,10.45.16,11.39-1,1.24-3.63,3.43-5.08,3.43h-.1c-1.44-.1-2.87-2-3.43-3.37s-1.22-3.16-1.22-3.17l-.31-.85-.77.46a8.31,8.31,0,0,1-1.94.92h-.16c-1,0-1.6-.11-1.84-.82a1.65,1.65,0,0,1,.51-2.09,6.72,6.72,0,0,0,1.87-1.44c.59-.78,0-1.88-.56-2.84s-3.15-5-3.26-5.2l-.24-.36-.43,0c-.41,0-1.14.36-1.31,1.49a51.82,51.82,0,0,1-3.26,7.33,5.76,5.76,0,0,1-.59.65,2.07,2.07,0,0,0-.79,1.64c0,.24.07,1.62.23,4.47.34,6.27,1.06,19.32.88,20.87-.19,1.72.15,2.38,1.35,2.62a2.38,2.38,0,0,1,.52.15,14.13,14.13,0,0,1,6.29,6.9,2.49,2.49,0,0,1,.11,2.24c-.75,1.4-3.35,1.86-4.21,2l-.42.09c-1.22.19-14.32.51-16,0-3.92-1.19-6.1-2.92-6.48-5.13-.59-3.47-2.16-22-2.25-23a1.83,1.83,0,0,0-.47-1.27A1.55,1.55,0,0,0,339,681c-1,0-12.35-.12-12.46-.12h-.09l-.09,0a1.61,1.61,0,0,0-1.25,1.45c-.06,1.26-1.75,22.24-1.9,23.07a7.66,7.66,0,0,1-5.13,4.87c-3.82,1.21-16.6.6-17.75.55-1.06-.31-3.76-1.39-3.78-2.78,0-2.21.19-3,1.4-4.44,1.06-1.3,4.65-3.78,5.94-4.63l.18-.12.09-.19a5.29,5.29,0,0,0,.25-2.32c-.05-1.12.57-17.36.9-25.79v-.23l-.12-.19s-1.34-2.15-2.1-3.66a32.15,32.15,0,0,1-2.27-5.71c-.05-1.13-.76-1.33-1-1.36a1.16,1.16,0,0,0-1.25.77c-.22.45-3.65,5.66-4,6.1l-.17.16a1.72,1.72,0,0,0-.66,1.17,1.12,1.12,0,0,0,.36.82,6.58,6.58,0,0,0,.59.51c.46.37,1.87,1.52,2,2a1.83,1.83,0,0,1-.26,1.34,1.29,1.29,0,0,1-1,.39c-1.24,0-1.69-.27-1.77-.41l0-.52-.59-.08s-1.18-.14-1.44,1.51c-.16.94-2.54,5.5-3.67,5.71-1.37.26-5.39-1.44-6.1-3.55A21.71,21.71,0,0,1,281.54,666.05Z"/><path class="cls-21" d="M363,673.21l.93,24.07s-21.14,6.32-22.83,5.24-2.16-19.13-2.16-19.13l-11.57-.46-1.85,20.36-23.14-5.55.92-26.84,59.24.92Z"/><path class="cls-23" d="M279.67,663c.56-4.49,21.26-48.48,24.07-50s15.73-6.48,15.73-6.48-1.66-9.25,1.85-9.25c1.85,0,9.37.43,13.65.27a2.71,2.71,0,0,1,0-.29l.4,0h2.16a10.07,10.07,0,0,0,1.57-.14c0,.08,0,.15,0,.23,4.65-.25,10-1,10-1,2.52.75.6,9.7.6,9.7s9.74,6.39,11.43,7.89,23.14,36.09,25,51.83c.32,2.72-15.54,2.35-16.66,1.85s-2.78-4.63-2.78-4.63L363,673.21s-57.55,1-59.23,0-4.63-11.1-4.63-11.1l-2.78,5.55S279.11,667.52,279.67,663Z"/><path class="cls-24" d="M215.61,674.87c1,3,5.89,4.89,7.78,4.53s4.39-5.31,4.8-6.71a4.35,4.35,0,0,0,2.49.53,2.72,2.72,0,0,0,2.13-.94,3.35,3.35,0,0,0,.59-2.47c-.12-.91-1.21-1.86-2.51-2.92l-.27-.21.08-.08a1.58,1.58,0,0,0,.22-.23c.27-.28,2.73-4,3.81-5.69a42.35,42.35,0,0,0,2.29,5.57c.66,1.32,1.69,3,2,3.59-.1,2.62-.95,24.28-.89,25.68a6.26,6.26,0,0,1-.07,1.47c-1,.66-4.8,3.25-6.05,4.79a6.83,6.83,0,0,0-1.74,5.4c.05,2.78,4.44,4.06,4.94,4.2l.16,0c.57,0,14.13.73,18.36-.61a9.09,9.09,0,0,0,6.13-6c.2-.89,1.92-23.11,1.93-23.3l.07-.07c1.37,0,11.41.16,12.39.13a.35.35,0,0,1,.14,0,.42.42,0,0,1,.05.22v.11c.07.79,1.66,19.55,2.28,23.15.47,2.82,3,4.94,7.5,6.3a40.6,40.6,0,0,0,6.89.34,98.39,98.39,0,0,0,9.93-.34l.26,0c1.14-.2,4.16-.73,5.26-2.77a3.9,3.9,0,0,0-.06-3.52,15.41,15.41,0,0,0-7-7.66,4.11,4.11,0,0,0-.85-.26l-.19,0a3.52,3.52,0,0,1,0-1c.17-1.54-.36-11.71-.88-21.12-.12-2.24-.23-4.18-.23-4.39s0-.26.34-.57a5.61,5.61,0,0,0,.75-.84,50.56,50.56,0,0,0,3.44-7.57c.84,1.32,2.27,3.56,2.58,4.12a6.76,6.76,0,0,1,.6,1.31,7.26,7.26,0,0,1-1.38,1,3,3,0,0,0-1.15,3.83c.63,1.87,2.55,1.84,3.27,1.82H306a5.11,5.11,0,0,0,1.91-.7c.24.65.59,1.57.94,2.42.59,1.41,2.33,4.12,4.71,4.28h.17c2.31,0,5.42-2.94,6.26-4,1.2-1.51,1.51-3.68.15-12.55-1.24-8.1-6-17.17-9.21-23.17l-1-1.86c-2.36-4.51-10.22-18.35-13.43-24,.14-.11.1-.35-.38-.83a3.68,3.68,0,0,0-.46-.35,1.83,1.83,0,0,0-.48-.32c-4.45-2.84-22.13-12.24-22.54-12.24s-.46-3.21-.46-4.12.46-1.38-1.83-3.67-5.5-3.66-5.5-6.41,0-4.58,1.37-6,4.13-3.21,6.42-2.75,4.57,1.83,5.49,3.66,0,4.58,0,4.58a2.2,2.2,0,0,0,0,1.83c.46.92,2.29,0,2.29-.91s.92-4.58-1.83-7.33a10.59,10.59,0,0,0-8.24-3.2c-2.75,0-7.33,3.66-7.33,6.41a9.09,9.09,0,0,0,1.83,7.32c2.75,3.21,4.12,2.75,5,4.58s.46,6,.46,6-2.75,1.37-4.13,1.83c-1.19.39-26.08,10.17-26.15,10.15s-.43.18-.63.29-1,2.1-1.36,2.92A95.7,95.7,0,0,1,229,632.14c-6.92,10.19-13.19,30.75-13.65,32.64A23.31,23.31,0,0,0,215.61,674.87Zm1.14-9.75c.45-1.86,6.64-22.13,13.44-32.15a97,97,0,0,0,9.26-16.78c.41-.93.74-1.67,1-2.24l.15-.3c3.85-1.62,15.56-6.18,19.12-7.61,1.9-.76,9.7-4.72,10.62-4.26s.91-.46,5.95,1.83c4.58,2.08,15.4,9.07,18.37,10.32,2.75,4.82,11.46,20.13,13.94,24.89.3.58.64,1.21,1,1.87,3.13,5.91,7.86,14.85,9.06,22.7,1.37,9,.9,10.46.15,11.4-1,1.24-3.63,3.43-5.08,3.43h-.09c-1.44-.1-2.88-2-3.44-3.38s-1.21-3.15-1.22-3.17l-.3-.85-.78.46a8.47,8.47,0,0,1-1.93.93h-.17c-1,0-1.6-.11-1.83-.81a1.63,1.63,0,0,1,.5-2.09,7,7,0,0,0,1.88-1.45c.58-.78,0-1.87-.57-2.84s-3.15-5-3.26-5.19l-.24-.37-.43,0a1.55,1.55,0,0,0-1.3,1.49,51.92,51.92,0,0,1-3.27,7.33,4.46,4.46,0,0,1-.59.66,2.06,2.06,0,0,0-.79,1.63c0,.24.08,1.62.23,4.47.35,6.27,1.06,19.33.89,20.87-.2,1.72.14,2.39,1.34,2.62a2.38,2.38,0,0,1,.52.15,14.24,14.24,0,0,1,6.3,6.9,2.48,2.48,0,0,1,.1,2.24c-.75,1.4-3.35,1.86-4.21,2l-.42.09c-1.22.19-14.32.51-16,0-3.92-1.19-6.1-2.92-6.48-5.13-.59-3.47-2.16-22-2.25-23a1.78,1.78,0,0,0-.47-1.27,1.55,1.55,0,0,0-1.25-.46c-1,0-12.34-.13-12.46-.13h-.09l-.09,0a1.62,1.62,0,0,0-1.25,1.46c-.06,1.25-1.74,22.23-1.89,23.06a7.72,7.72,0,0,1-5.14,4.88c-3.82,1.2-16.6.6-17.75.54-1.05-.3-3.76-1.38-3.78-2.77,0-2.22.2-3,1.4-4.45a38.8,38.8,0,0,1,5.94-4.63l.18-.11.09-.19a5.37,5.37,0,0,0,.25-2.32c0-1.13.57-17.36.9-25.79v-.23l-.12-.2s-1.35-2.14-2.11-3.66a31.83,31.83,0,0,1-2.27-5.7c0-1.13-.75-1.34-1-1.37a1.18,1.18,0,0,0-1.25.77c-.22.46-3.65,5.66-4,6.1l-.17.16a1.76,1.76,0,0,0-.65,1.18,1.08,1.08,0,0,0,.35.82c.12.12.32.28.59.5.47.38,1.87,1.52,2,2a1.92,1.92,0,0,1-.27,1.35,1.32,1.32,0,0,1-1,.39c-1.25,0-1.7-.28-1.78-.41l-.05-.53-.59-.08s-1.17-.14-1.44,1.51c-.15.95-2.54,5.51-3.66,5.72-1.38.25-5.4-1.44-6.11-3.55A21.76,21.76,0,0,1,216.75,665.12Z"/><path class="cls-23" d="M298.18,672.29l.93,24.06s-21.14,6.32-22.83,5.24-2.16-19.12-2.16-19.12L262.55,682l-1.85,20.37-23.14-5.56.93-26.84,59.23.93Z"/><path class="cls-14" d="M214.88,662.11c.57-4.5,21.26-48.49,24.07-50s15.73-6.48,15.73-6.48-1.66-9.26,1.85-9.26c1.85,0,9.37.43,13.65.28,0-.1,0-.2,0-.3l.4,0h2.16a9,9,0,0,0,1.57-.14v.23c4.65-.24,10-1,10-1,2.53.75.6,9.69.6,9.69s9.75,6.39,11.43,7.89,23.14,36.1,25,51.83c.32,2.72-15.54,2.35-16.66,1.85s-2.78-4.62-2.78-4.62l-3.7,10.18s-57.55,1-59.23,0-4.63-11.11-4.63-11.11l-2.78,5.55S214.32,666.6,214.88,662.11Z"/><path class="cls-7" d="M1419.92,495.25s5.27,37.55-19,35.52-298.55-23.34-352.26-26.38S549,493.22,432.13,492.21,52,513.52,22,513.52,1.42,501.34,1.42,480s431.24-55.81,480.21-55.81,413.86,3,568.66,21.31S1404.13,471.91,1419.92,495.25Z"/><text class="cls-26" transform="translate(468.58 468.89) scale(0.89 1)">SHOP</text></g></g></svg>