<svg xmlns="http://www.w3.org/2000/svg" viewBox="0 0 2004.65 429.83"><defs><style>.cls-1{fill:#4d9cde;}.cls-2{fill:#c3e5ff;}.cls-3{fill:#b6dbf8;}.cls-4{fill:#c995b7;}.cls-5{fill:#96bde9;}.cls-6{fill:#b8bbd6;}.cls-7{fill:#a1d6ff;}.cls-8{fill:#9ea5d8;}.cls-9{fill:#8288b8;}.cls-10{fill:#b1b5dc;}.cls-11{fill:#c9c6e5;}.cls-12{fill:#7cb9ea;}.cls-13{fill:#b2dafb;}.cls-14{fill:#dfcf7d;}.cls-15{fill:#3d9ae6;}.cls-16{fill:#d5ecfa;}.cls-17{fill:#a0dcff;}.cls-18{fill:#51a5d6;}.cls-19{fill:#97ade6;}.cls-20{fill:#5996c6;}.cls-21{fill:#549bdd;}.cls-22{fill:#aad7fa;}.cls-23{fill:#7eb3eb;}.cls-24{fill:#d6f3ff;}.cls-25{fill:#917d90;}.cls-26{fill:#5086c5;}.cls-27{fill:#71b5f4;}.cls-28{fill:#1275b5;}.cls-29{fill:#b6d7fa;}.cls-30{fill:#7cbaeb;}.cls-31{fill:#fff;}.cls-32{fill:#0066a7;}.cls-33{fill:#98d4fa;}.cls-34{fill:#a36464;}.cls-35{fill:#b2a0b2;}.cls-36{fill:#558bcb;}.cls-37{fill:#fffbee;}.cls-38{fill:#83abdb;}.cls-39{fill:#cbab55;}.cls-40{fill:#aedafe;}.cls-41{fill:#d3f1fe;}.cls-42{fill:#d5f2fe;}</style></defs><title>資產 4</title><g id="圖層_2" data-name="圖層 2"><g id="圖層_1-2" data-name="圖層 1"><path class="cls-1" d="M123,241.73v136.2H411.25v-.41h.49v.41H570v-.1l63.67-.36v.46H737.08v-.52h14.59v.52h725.5v-.51h.44l-.5-12-.82-174.58h-24.76s.88-110.21,0-110.21h-40.68v97.73h-27.41l.89-59.26h-34.49v12.47h-9.72l-.89,47.83-21.22,1-1.77,56.51-29.62-24.8-8.84,1,2.65-171.55L1245.06,4.16l-6.19,118.52-27.85.52-.85,41.07h-20.81V261l-10.61-2.07V228.73h-11.5V206.9l-22.89,10-.1-44.28-58.35-3.12L1085,289h-17.68v-5.2H1062V272.4h-1.77v11.44h-2.65v-9.36h-1.77v9.36h-9.28V233.41h-32.27V209l-21.23-20.79V261l-10.16-.14V123.72l-34.93-1,.88-76.93L912.16,34.83l-2,99-7.25-6V106l-58.8-2.6L841.88,330.1h-12.4V8.84h-4V1h1.76V0h-46V1h1.76v7.8H778.2V48.35H751.67V207.94H711.44V123.72l-34.92-1,.88-76.93L640.71,34.83l-3,147.12H565.11l-12.83,23.91v33.79H527.53V319l-23-53.32-41.1-1.79,1.75-220.7L431.59,5.72l-4.86,118H397.55v59.79H383.84V134.64h-8V121.13H341.4l-1.33,58.74H314.43V80.06l-41.11.52L271.55,193.9H242.06l.31-46.78H190.64v115.4H180.47l.89-46.78-31.83,1ZM788.37,1v7.8h-3.54V1Zm8.84,0v7.8h-7.07V1Zm8,0v7.8H799V1Zm9.73,0v7.8h-8V1Zm8.84,7.8h-7.08V1h7.08Z"/><path class="cls-1" d="M0,337.35v57.58H207.57v-.17h.35v.17H321.86v0l45.85-.15v.19h74.5v-.22h10.51v.22H975.13v-.22h.32l-.36-5.09-.59-73.81H956.67s.63-46.59,0-46.59H927.38v41.32H907.64l.64-25.06H883.44v5.28h-7L875.8,311l-15.28.44-1.27,23.89-21.33-10.49-6.37.44,1.91-72.52L808,236.91,803.54,287l-20.06.22-.62,17.36h-15v40.88l-7.64-.88V331.85H752v-9.23l-16.48,4.22-.07-18.72-42-1.32-.63,50.55H680v-2.2h-3.82v-4.83h-1.27v4.83H673V351.2h-1.27v3.95h-6.69V333.83H641.81V323.5l-15.28-8.79v30.77l-7.32-.06v-58L594.06,287l.63-32.53-26.42-4.61-1.47,41.85-5.22-2.52V280l-42.34-1.1-1.57,95.83h-8.93V238.89h-2.87v-3.3h1.28v-.44H474v.44h1.27v3.3h-3.5v16.7h-19.1v67.47h-29v-35.6L398.58,287l.64-32.53-26.42-4.61-2.19,62.2H318.36l-9.23,10.1v14.29H291.3V370l-16.56-22.54-29.59-.76,1.26-93.31-24.2-15.82-3.5,49.89h-21v25.27h-9.87V292.08H182.1v-5.72H157.27l-1,24.84H137.85V269l-29.61.22L107,317.13H85.73L86,297.35H48.71v48.79H41.39L42,326.36l-22.92.44ZM479.13,235.59v3.3h-2.55v-3.3Zm6.37,0v3.3h-5.1v-3.3Zm5.73,0v3.3h-4.46v-3.3Zm7,0v3.3H492.5v-3.3Zm6.37,3.3h-5.1v-3.3h5.1Z"/><path class="cls-1" d="M1029.2,338.51v57.58h207.57v-.17h.35v.17h113.94v0l45.85-.15v.19h74.49v-.22h10.51v.22h522.42v-.22h.32l-.36-5.09L2003.7,317h-17.83s.64-46.59,0-46.59h-29.29V311.7h-19.74l.64-25.06h-24.83v5.28h-7l-.63,20.22-15.29.44-1.27,23.89L1867.12,326l-6.37.44,1.91-72.53-25.46-15.82-4.46,50.11-20.06.22-.61,17.36h-15v40.88l-7.64-.88V333h-8.28v-9.23L1764.68,328l-.07-18.72-42-1.32-.64,50.55h-12.73v-2.2h-3.82v-4.83h-1.28v4.83h-1.91v-3.95h-1.27v3.95h-6.69V335H1671V324.66l-15.28-8.79v30.77l-7.32-.06v-58l-25.15-.44.64-32.53L1597.47,251,1596,292.89l-5.21-2.52v-9.23l-42.35-1.1-1.57,95.83h-8.93V240.05h-2.87v-3.3h1.28v-.44h-33.11v.44h1.27v3.3H1501v16.7h-19.1v67.47h-29v-35.6l-25.15-.44.63-32.53L1402,251l-2.18,62.19h-52.26l-9.23,10.11v14.29H1320.5v33.53L1304,348.62l-29.6-.76,1.26-93.31-24.19-15.82-3.51,49.89h-21v25.27H1217V293.23h-5.73v-5.71h-24.83l-1,24.84h-18.47v-42.2l-29.61.22-1.27,47.91h-21.24l.23-19.78h-37.25V347.3h-7.32l.63-19.78-22.92.44Zm479.13-101.76v3.3h-2.55v-3.3Zm6.37,0v3.3h-5.1v-3.3Zm5.73,0v3.3H1516v-3.3Zm7,0v3.3h-5.73v-3.3Zm6.37,3.3h-5.09v-3.3h5.09Z"/><path class="cls-2" d="M1235.61,301.68l.81,36.68h-9.37V247.89h-47.68l.29,36.68h-27.19l-1.63-88.84-37.9-.41v78.24h-23.63l-1.23-46.05H1056.3v10.6H1049v38.31h-12.63V229.55h-26.9L1005,137l-31,29.35,1.61,173-37.88,1.41L916.52,382.6V320.43H893.7V293.94l-11.82-18.75H815l-2.8-115.33-33.82,8.56.81,60.32-32.19.81v66H709.9V170.46H685.45v-31H681v-6.11h1.63v-.82H640.21v.82h1.63v6.11h-3.66V391.34H625.93l-2-177.69-54.2,2V232.8l-5.45,3.82-1.1-50.12-35,13,.85,29.2-32.19.81v69.3l-24.86.41V218.64l-19.56,23v27.07H422.6V324.6H414V314.23h-1.63V324.6H410V311.93h-1.63V324.6h-4.89v5.76h-16.3l-.81-132.45-53.8,3.45-.4,227.47H709.9v-.41h13.45v.41h95.36v-.36l58.69.28v.08H1004.5v-.19l19.19-.13v.32h265.7V322.06L1265,302.5ZM679.34,133.38v6.11h-3.26v-6.11Zm-4.89,0v6.11h-6.52v-6.11Zm-8.15,0v6.11h-5.71v-6.11Zm-7.34,0v6.11h-7.33v-6.11Zm-15.48,0H650v6.11h-6.52Z"/><path class="cls-2" d="M308.08,294.76v17.11H297.49v23.64l-9.78,1.63v-75.8H268.53l-.79-32.2-25.68-.4-5.7-92.92-32.6,29.34,2.44,134.49-8.15-.82-27.3,19.44L169.12,274l-19.56-.81-.82-37.5h-9v-9.78H108l.81,46.46H83.54V195.73H46c-.81,0,0,86.39,0,86.39H23.22L22.46,419,22,428.42h.41v.4H330.5l-.41-125.92Z"/><path class="cls-2" d="M1582.82,302.91l-22-8.15v17.11h-10.59v23.64l-9.78,1.63v-75.8h-4.51l-.79-32.2-25.68-.4-5.7-92.92-32.6,29.34,2.44,134.49-8.15-.82-17,12.09L1447.11,274l-19.56-.81-.81-37.5h-9v-9.78H1386l.82,46.46h-25.27V195.73H1324c-.81,0,0,86.39,0,86.39h-22.82L1300.46,419l-.46,9.44h.41v.4h282.83Z"/><path class="cls-3" d="M22.41,428.83H174.82L169.12,274l-19.56-.81-.82-37.5h-9v-9.78H108l.81,46.46H83.54V195.73H46c-.81,0,0,86.39,0,86.39H23.22Z"/><polygon class="cls-1" points="112.88 273.16 138.96 273.16 138.15 238.11 112.06 238.11 112.88 273.16"/><polygon class="cls-1" points="112.88 235.66 137.33 236.48 137.33 230.77 112.06 228.33 112.88 235.66"/><polygon class="cls-4" points="94.09 296.29 93.34 309.83 115.16 309.83 94.09 296.29"/><path class="cls-4" d="M82.31,280.08v36.68l51.35-1.63Zm11,14.77,24.57,15.8H92.48Z"/><polygon class="cls-1" points="88.7 428.83 133.25 428.83 132.85 390.93 88.02 373 88.7 428.83"/><polygon class="cls-2" points="49.71 333.88 49.71 427.61 81.63 428.83 81.5 363.22 66.83 334.69 49.71 333.88"/><polygon class="cls-5" points="22.95 409 44.01 408.86 44.01 369.74 78.24 368.93 77.56 428.83 22 428.42 22.95 409"/><polygon class="cls-3" points="1089.31 273.56 1112.94 273.56 1112.94 195.32 1150.84 195.73 1152.47 284.57 1197.3 284.57 1207.9 338.36 1236.42 338.36 1235.61 301.68 1264.95 302.5 1289.4 322.06 1289.4 428.83 1023.7 428.83 1022.88 276.42 1048.96 276.42 1048.96 238.11 1056.3 238.11 1056.3 227.51 1088.08 227.51 1089.31 273.56"/><polygon class="cls-1" points="1289.4 341.21 1285.73 341.21 1285.73 333.06 1277.58 333.06 1277.58 324.88 1268.18 324.1 1268.24 323.28 1278.4 324.13 1278.4 332.25 1286.55 332.25 1286.55 340.4 1289.4 340.4 1289.4 341.21"/><polygon class="cls-1" points="1241.31 322.88 1257.62 304.94 1242.13 304.94 1241.31 322.88"/><polygon class="cls-1" points="1245.39 357.11 1257.62 357.11 1256.8 316.35 1245.39 327.76 1245.39 357.11"/><polygon class="cls-4" points="1063.63 316.35 1114.17 318.8 1114.17 282.12 1063.63 316.35"/><path class="cls-3" d="M1080.05,312.74l25.6-15.89-.88,15Zm24.7-14.37-21.67,13.45,20.92-.75Z"/><rect class="cls-1" x="1060.37" y="231.59" width="24.45" height="6.52"/><rect class="cls-1" x="1059.56" y="240.55" width="25.27" height="35.86"/><rect class="cls-1" x="1238.87" y="375.04" width="8.15" height="13.04"/><rect class="cls-1" x="1245.39" y="390.52" width="9.78" height="13.04"/><rect class="cls-1" x="1262.51" y="304.13" width="1.63" height="62.76"/><rect class="cls-1" x="1285.33" y="357.11" width="1.63" height="70.09"/><rect class="cls-1" x="1279.62" y="353.85" width="1.63" height="70.09"/><rect class="cls-1" x="1273.92" y="351.4" width="1.63" height="70.09"/><polygon class="cls-6" points="1036.33 428.42 1036.33 229.55 1009.43 229.55 1004.95 137.04 973.98 166.38 976.42 428.83 1036.33 428.42"/><polygon class="cls-7" points="978.05 181.87 1003.32 163.94 1003.32 145.19 977.24 169.65 978.05 181.87"/><polygon class="cls-7" points="977.24 188.39 979.68 256.04 1006.58 229.96 1003.32 171.28 977.24 188.39"/><path class="cls-8" d="M988.21,321.21l.86-21.58,30.21.87Zm1.64-20.74-.76,19.18,27.61-18.41Z"/><polygon class="cls-8" points="988.65 327.76 988.65 339.99 1020.43 337.55 1019.62 304.94 988.65 327.76"/><polygon class="cls-6" points="982.13 188.39 983.76 188.39 986.2 241.37 984.57 243 982.13 188.39"/><polygon class="cls-6" points="987.83 185.13 989.46 185.13 991.09 235.66 989.46 236.48 987.83 185.13"/><path class="cls-6" d="M996,182.69s.82-.82.82,0,.81,45.64.81,45.64H996Z"/><path class="cls-6" d="M991.29,333.12l21.31-14.21,1.78,13.32Zm20.68-12.8-17.82,11.87,19.3-.74Z"/><rect class="cls-9" x="1008.21" y="241.37" width="8.97" height="26.9"/><rect class="cls-9" x="1019.62" y="238.92" width="9.78" height="28.53"/><rect class="cls-2" x="877.39" y="320.43" width="39.12" height="108.4"/><polygon class="cls-10" points="893.7 428.83 893.7 293.94 881.88 275.19 812.6 275.19 808.52 284.98 808.52 428.42 893.7 428.83"/><rect class="cls-11" x="819.93" y="287.42" width="9.78" height="13.04"/><rect class="cls-11" x="830.12" y="303.31" width="8.97" height="12.23"/><polygon class="cls-12" points="624.32 428.02 623.51 391.34 638.18 391.34 638.18 139.49 685.45 139.49 685.45 170.46 709.9 170.46 709.9 428.83 624.32 428.83 624.32 428.02"/><rect class="cls-13" x="642.25" y="146.01" width="39.94" height="21.19"/><rect class="cls-13" x="642.25" y="177.8" width="64.39" height="1.63"/><rect class="cls-13" x="642.25" y="182.69" width="64.39" height="1.63"/><rect class="cls-13" x="641.44" y="224.25" width="64.39" height="1.63"/><rect class="cls-13" x="641.44" y="263.38" width="64.39" height="1.63"/><rect class="cls-13" x="642.25" y="301.68" width="64.39" height="1.63"/><rect class="cls-13" x="642.25" y="370.15" width="64.39" height="1.63"/><rect class="cls-13" x="642.25" y="375.85" width="64.39" height="1.63"/><rect class="cls-13" x="642.25" y="391.34" width="64.39" height="1.63"/><polygon class="cls-13" points="640.22 132.56 640.22 133.38 641.85 133.38 641.85 139.9 643.48 139.9 643.48 133.38 650 133.38 650 139.9 651.63 139.9 651.63 133.38 658.96 133.38 658.96 139.9 660.59 139.9 660.59 133.38 666.3 133.38 666.3 139.9 667.93 139.9 667.93 133.38 674.45 133.38 674.45 139.9 676.08 139.9 676.08 133.38 679.34 133.38 679.34 139.9 680.97 139.9 680.97 133.38 682.6 133.38 682.6 132.56 640.22 132.56"/><rect class="cls-14" x="650.4" y="270.71" width="13.86" height="16.3"/><rect class="cls-14" x="678.11" y="270.71" width="13.86" height="16.3"/><rect class="cls-14" x="649.59" y="192.47" width="13.86" height="16.3"/><rect class="cls-14" x="677.3" y="192.47" width="13.86" height="16.3"/><rect class="cls-13" x="646.33" y="311.46" width="57.05" height="51.35"/><polygon class="cls-2" points="1647.19 159.87 1653.71 428.83 1581.99 428.83 1581.99 229.55 1614.18 228.74 1613.37 168.42 1647.19 159.87"/><rect class="cls-15" x="1618.26" y="169.24" width="8.97" height="5.71"/><rect class="cls-15" x="1628.85" y="169.24" width="8.97" height="5.71"/><rect class="cls-15" x="1618.26" y="176.57" width="8.97" height="7.34"/><rect class="cls-15" x="1628.85" y="176.57" width="8.97" height="7.34"/><rect class="cls-16" x="1614.18" y="252.37" width="9.78" height="13.04"/><rect class="cls-16" x="1605.22" y="236.07" width="9.78" height="13.04"/><polygon class="cls-2" points="563.16 186.5 568.49 428.83 496.77 428.83 496.77 229.55 528.96 228.74 528.11 199.54 563.16 186.5"/><rect class="cls-15" x="536.26" y="200.35" width="8.97" height="5.71"/><rect class="cls-15" x="546.86" y="200.35" width="8.97" height="5.71"/><rect class="cls-15" x="536.26" y="207.69" width="8.97" height="7.34"/><rect class="cls-15" x="546.86" y="207.69" width="8.97" height="7.34"/><rect class="cls-16" x="528.96" y="252.37" width="9.78" height="13.04"/><rect class="cls-16" x="520" y="236.07" width="9.78" height="13.04"/><rect class="cls-17" x="685.04" y="295.57" width="68.46" height="132.85"/><rect class="cls-18" x="691.97" y="304.13" width="61.13" height="24.45"/><rect class="cls-19" x="701.75" y="310.65" width="51.35" height="9.78"/><rect class="cls-20" x="687.08" y="335.92" width="64.39" height="2.45"/><path class="cls-20" d="M752.28,375.85v-2.44h-4.07V343.25h3.26v-2.44H687.08v2.44h3.26v85.58H692v-4.07h59.5v-2.45H692v-5.7h60.31v-2.45H692v-31h13.86v30.15h1.63V383.19h11.41v30.15h1.63V383.19h12.22v30.15h1.63V383.19h12.23v30.15h1.63V383.19h4.07v-2.45H692v-4.89Zm-5.7-32.6v30.16H734.35V343.25Zm-13.86,0v30.16H720.5V343.25Zm-13.85,0v30.16H707.46V343.25Zm-13,0v30.16H692V343.25Z"/><rect class="cls-21" x="723.35" y="339.99" width="74.98" height="88.84"/><rect class="cls-22" x="724.57" y="351.81" width="70.91" height="1.63"/><rect class="cls-22" x="731.91" y="357.51" width="1.63" height="17.93"/><rect class="cls-22" x="743.32" y="357.51" width="1.63" height="17.93"/><rect class="cls-22" x="753.1" y="357.51" width="1.63" height="17.93"/><rect class="cls-22" x="763.69" y="357.51" width="1.63" height="17.93"/><rect class="cls-22" x="773.48" y="357.51" width="1.63" height="17.93"/><rect class="cls-22" x="783.26" y="357.51" width="1.63" height="17.93"/><rect class="cls-22" x="724.57" y="379.52" width="70.91" height="1.63"/><rect class="cls-22" x="731.91" y="385.23" width="1.63" height="17.93"/><rect class="cls-22" x="743.32" y="385.23" width="1.63" height="17.93"/><rect class="cls-22" x="753.1" y="385.23" width="1.63" height="17.93"/><rect class="cls-22" x="763.69" y="385.23" width="1.63" height="17.93"/><rect class="cls-22" x="773.48" y="385.23" width="1.63" height="17.93"/><rect class="cls-22" x="783.26" y="385.23" width="1.63" height="17.93"/><rect class="cls-22" x="724.57" y="404.79" width="70.91" height="1.63"/><rect class="cls-22" x="731.91" y="410.49" width="1.63" height="17.93"/><rect class="cls-22" x="743.32" y="410.49" width="1.63" height="17.93"/><rect class="cls-22" x="753.1" y="410.49" width="1.63" height="17.93"/><rect class="cls-22" x="763.69" y="410.49" width="1.63" height="17.93"/><rect class="cls-22" x="773.48" y="410.49" width="1.63" height="17.93"/><rect class="cls-22" x="783.26" y="410.49" width="1.63" height="17.93"/><polygon class="cls-23" points="907.55 428.83 982.54 428.83 981.72 339.18 937.71 340.81 908.37 398.67 907.55 428.83"/><polygon class="cls-5" points="1093.38 428.83 1227.05 428.83 1227.05 247.89 1179.37 247.89 1180.18 351.81 1168.77 349.36 1169.59 315.95 1158.18 315.95 1158.18 293.94 1141.06 301.28 1141.88 353.44 1092.97 381.97 1093.38 428.83"/><path class="cls-24" d="M1212.6,400.33l-21.75-.87,13.05-19.15Zm-20.25-1.63,19,.76-7.6-17.47Z"/><polygon class="cls-25" points="1182.63 355.07 1221.75 368.11 1221.75 336.32 1182.63 355.07"/><rect class="cls-24" x="1182.63" y="254" width="41.57" height="2.45"/><rect class="cls-24" x="1183.45" y="267.86" width="40.75" height="9.78"/><rect class="cls-24" x="1183.45" y="294.76" width="40.75" height="9.78"/><rect class="cls-26" x="1168.77" y="352.62" width="1.63" height="46.46"/><rect class="cls-26" x="1144.32" y="360.77" width="10.6" height="1.63"/><rect class="cls-26" x="1144.32" y="364.85" width="11.41" height="1.63"/><rect class="cls-26" x="1144.32" y="369.74" width="20.38" height="1.63"/><rect class="cls-26" x="1144.32" y="373.82" width="22.82" height="1.63"/><rect class="cls-26" x="1144.32" y="378.71" width="22.82" height="1.63"/><path class="cls-24" d="M1151.66,310.65a2.86,2.86,0,1,1,2.85-2.85A2.86,2.86,0,0,1,1151.66,310.65Zm0-4.89a2,2,0,1,0,2,2A2,2,0,0,0,1151.66,305.76Z"/><path class="cls-24" d="M1106.83,384.41c.82-.81,33.42-20.38,33.42-20.38l-2.45-2.44L1105.2,382Z"/><path class="cls-24" d="M1116.2,410.08h-13V392.15h13Zm-12.22-.81h11.41V393H1104Z"/><rect class="cls-26" x="1143.51" y="384.41" width="21.19" height="4.08"/><rect class="cls-26" x="1144.32" y="394.19" width="21.19" height="4.08"/><polygon class="cls-1" points="500.84 428.82 626.36 428.82 623.91 213.65 569.71 215.69 569.71 232.8 561.56 238.51 559.93 376.25 502.06 377.07 500.84 428.82"/><rect class="cls-24" x="575.42" y="232.8" width="46.46" height="2.45"/><rect class="cls-24" x="583.57" y="246.66" width="21.19" height="1.63"/><rect class="cls-24" x="583.57" y="285.78" width="19.56" height="1.63"/><rect class="cls-24" x="583.57" y="364.03" width="21.19" height="2.45"/><polygon class="cls-24" points="580.72 368.51 559.93 368.51 559.93 367.69 579.9 367.69 579.9 248.69 561.51 248.54 561.51 247.73 580.72 247.88 580.72 368.51"/><polygon class="cls-2" points="561.43 251.82 577.05 251.55 576.23 363.21 559.93 363.35 561.43 251.82"/><rect class="cls-27" x="562.38" y="253.18" width="13.04" height="9.78"/><rect class="cls-27" x="562.38" y="264.59" width="13.04" height="11.41"/><rect class="cls-27" x="562.38" y="277.63" width="13.04" height="13.86"/><rect class="cls-27" x="562.38" y="293.12" width="13.04" height="13.04"/><rect class="cls-27" x="562.38" y="307.79" width="13.04" height="9.78"/><rect class="cls-27" x="561.56" y="319.2" width="13.86" height="9.78"/><rect class="cls-27" x="561.56" y="330.61" width="13.86" height="8.97"/><rect class="cls-27" x="560.75" y="341.21" width="14.67" height="10.6"/><rect class="cls-27" x="560.75" y="353.43" width="14.67" height="8.97"/><polygon class="cls-24" points="607.61 367.69 625.54 367.69 625.54 366.88 608.32 366.88 608.32 247.88 624.18 247.73 624.18 246.91 607.61 247.07 607.61 367.69"/><polygon class="cls-2" points="624.25 251.01 610.78 250.74 611.48 362.4 625.54 362.53 624.25 251.01"/><rect class="cls-27" x="612.18" y="252.36" width="11.25" height="9.78" transform="translate(1235.62 514.51) rotate(-180)"/><rect class="cls-27" x="612.18" y="263.78" width="11.25" height="11.41" transform="translate(1235.62 538.96) rotate(-180)"/><rect class="cls-27" x="612.18" y="276.82" width="11.25" height="13.86" transform="translate(1235.62 567.49) rotate(-180)"/><rect class="cls-27" x="612.18" y="292.3" width="11.25" height="13.04" transform="translate(1235.62 597.65) rotate(-180)"/><rect class="cls-27" x="612.18" y="306.97" width="11.25" height="9.78" transform="translate(1235.62 623.73) rotate(-180)"/><rect class="cls-27" x="612.18" y="318.38" width="11.95" height="9.78" transform="translate(1236.32 646.55) rotate(-180)"/><rect class="cls-27" x="612.18" y="329.79" width="11.95" height="8.97" transform="translate(1236.32 668.55) rotate(-180)"/><rect class="cls-27" x="612.18" y="340.39" width="12.66" height="10.6" transform="translate(1237.02 691.38) rotate(-180)"/><rect class="cls-27" x="612.18" y="352.62" width="12.66" height="8.97" transform="translate(1237.02 714.2) rotate(-180)"/><polygon class="cls-24" points="617.39 428.83 616.59 386.44 570.93 386.44 570.73 428.82 569.92 428.82 570.12 385.63 617.39 385.63 618.21 428.81 617.39 428.83"/><polygon class="cls-24" points="611.89 428.82 611.69 393.79 577.45 394.58 576.64 427.61 575.83 427.59 576.65 393.79 612.5 392.95 612.71 428.82 611.89 428.82"/><rect class="cls-28" x="537.11" y="390.92" width="1.63" height="36.68"/><rect class="cls-28" x="542" y="390.92" width="1.63" height="36.68"/><rect class="cls-28" x="546.08" y="390.92" width="1.63" height="36.68"/><rect class="cls-28" x="550.97" y="390.92" width="1.63" height="36.68"/><rect class="cls-28" x="554.23" y="390.92" width="1.63" height="36.68"/><rect class="cls-29" x="422.6" y="268.74" width="30.97" height="95.59"/><polygon class="cls-30" points="332.13 428.83 505.73 428.83 506.55 298.68 471.91 299.26 471.91 218.64 452.35 241.67 452.35 356.85 430.34 358 430.34 324.6 403.44 324.6 403.44 330.36 387.14 330.36 386.33 197.91 332.53 201.36 332.13 428.83"/><rect class="cls-31" x="337.42" y="207.12" width="46.46" height="57.59"/><path class="cls-32" d="M369.62,350.51h-4.89v-8.06h4.89Zm-4.08-1.15h3.26V343.6h-3.26Z"/><path class="cls-32" d="M381,345.91H377v-8.07H381Zm-3.26-1.16h2.44V339h-2.44Z"/><rect class="cls-32" x="424.63" y="313.08" width="1.63" height="11.52"/><rect class="cls-32" x="412.41" y="314.23" width="1.63" height="10.37"/><rect class="cls-32" x="408.33" y="311.93" width="1.63" height="12.67"/><rect class="cls-33" x="454.79" y="269.32" width="14.67" height="1.15"/><rect class="cls-33" x="454.79" y="272.77" width="15.49" height="1.15"/><rect class="cls-33" x="454.79" y="298.11" width="14.67" height="2.3"/><rect class="cls-33" x="457.24" y="305.02" width="45.64" height="2.3"/><path class="cls-33" d="M485.36,334.39H460.09V313.66h25.27Zm-24.46-1.15h23.64V314.81H460.9Z"/><rect class="cls-33" x="488.21" y="313.08" width="13.04" height="2.3"/><rect class="cls-33" x="488.21" y="319.99" width="13.04" height="1.15"/><rect class="cls-33" x="488.21" y="326.9" width="13.04" height="2.3"/><rect class="cls-33" x="488.21" y="332.66" width="13.04" height="1.15"/><rect class="cls-33" x="455.61" y="338.42" width="47.27" height="1.15"/><rect class="cls-33" x="455.61" y="345.33" width="48.9" height="2.3"/><rect class="cls-32" x="391.22" y="345.33" width="9.78" height="1.15"/><rect class="cls-32" x="403.44" y="343.03" width="26.08" height="1.15"/><rect class="cls-32" x="403.44" y="331.51" width="0.82" height="54.13"/><rect class="cls-32" x="412.41" y="346.48" width="1.63" height="14.97"/><rect class="cls-32" x="422.19" y="346.48" width="0.82" height="14.97"/><rect class="cls-32" x="406.7" y="353.39" width="4.08" height="6.91"/><rect class="cls-32" x="387.14" y="333.81" width="2.45" height="54.13"/><path class="cls-32" d="M353.73,424.8c.81,0,48.08-33.4,48.08-33.4l-1.63-3.46-53,36.86Z"/><rect class="cls-32" x="392.03" y="358" width="8.97" height="2.3"/><rect class="cls-32" x="392.03" y="374.12" width="8.97" height="2.3"/><rect class="cls-29" x="1744.6" y="269.74" width="30.97" height="95.59"/><polygon class="cls-30" points="1654.13 429.83 1827.73 429.83 1828.55 299.68 1793.91 300.26 1793.91 219.64 1774.35 242.67 1774.35 357.85 1752.34 359 1752.34 325.6 1725.44 325.6 1725.44 331.36 1709.14 331.36 1708.33 198.91 1654.53 202.36 1654.13 429.83"/><rect class="cls-31" x="1659.42" y="208.12" width="46.46" height="57.59"/><path class="cls-32" d="M1691.62,351.51h-4.89v-8.06h4.89Zm-4.08-1.15h3.26V344.6h-3.26Z"/><path class="cls-32" d="M1703,346.91H1699v-8.07H1703Zm-3.26-1.16h2.44V340h-2.44Z"/><rect class="cls-32" x="1746.63" y="314.08" width="1.63" height="11.52"/><rect class="cls-32" x="1734.41" y="315.23" width="1.63" height="10.37"/><rect class="cls-32" x="1730.33" y="312.93" width="1.63" height="12.67"/><rect class="cls-33" x="1776.79" y="270.32" width="14.67" height="1.15"/><rect class="cls-33" x="1776.79" y="273.77" width="15.49" height="1.15"/><rect class="cls-33" x="1776.79" y="299.11" width="14.67" height="2.3"/><rect class="cls-33" x="1779.24" y="306.02" width="45.64" height="2.3"/><path class="cls-33" d="M1807.36,335.39h-25.27V314.66h25.27Zm-24.46-1.15h23.64V315.81H1782.9Z"/><rect class="cls-33" x="1810.21" y="314.08" width="13.04" height="2.3"/><rect class="cls-33" x="1810.21" y="320.99" width="13.04" height="1.15"/><rect class="cls-33" x="1810.21" y="327.9" width="13.04" height="2.3"/><rect class="cls-33" x="1810.21" y="333.66" width="13.04" height="1.15"/><rect class="cls-33" x="1777.61" y="339.42" width="47.27" height="1.15"/><rect class="cls-33" x="1777.61" y="346.33" width="48.9" height="2.3"/><rect class="cls-32" x="1713.22" y="346.33" width="9.78" height="1.15"/><rect class="cls-32" x="1725.44" y="344.03" width="26.08" height="1.15"/><rect class="cls-32" x="1725.44" y="332.51" width="0.82" height="54.13"/><rect class="cls-32" x="1734.41" y="347.48" width="1.63" height="14.97"/><rect class="cls-32" x="1744.19" y="347.48" width="0.82" height="14.97"/><rect class="cls-32" x="1728.7" y="354.39" width="4.08" height="6.91"/><rect class="cls-32" x="1709.14" y="334.81" width="2.45" height="54.13"/><path class="cls-32" d="M1675.73,425.8c.81,0,48.08-33.4,48.08-33.4l-1.63-3.46-53,36.86Z"/><rect class="cls-32" x="1714.03" y="359" width="8.97" height="2.3"/><rect class="cls-32" x="1714.03" y="375.12" width="8.97" height="2.3"/><polygon class="cls-6" points="143.85 428.83 272.63 428.83 267.74 229.14 242.06 228.74 236.36 135.82 203.76 165.16 206.2 299.65 198.05 298.83 144.26 337.14 143.85 428.83"/><polygon class="cls-7" points="209.46 179.02 233.91 162.72 233.91 145.6 209.46 168.42 209.46 179.02"/><path class="cls-7" d="M233.91,170.87l-25.26,16.3L211.91,254l25.26-24.45Zm-18.74,69.28L213.54,188l1.63-.81,1.63,52.16Zm5.7-5.71-1.63-50.53s1.63-.82,1.63,0,1.63,49.72,1.63,49.72Zm8.15-9-1.63,1.63V181.46H229Z"/><path class="cls-34" d="M219.63,301.68H202.69l17.83,16.05Zm-14.81.82h14l.74,13.3Z"/><path class="cls-34" d="M205.79,333.06h0v9.41l10.58-.88L217.2,320v-.2l-11.42-9.66Zm10.11-.33-9.29.31V325.6l9.56.19Zm-9.29,8.86v-7.74l9.26-.3-.28,7.29Zm9.77-21.39L216.2,325l-9.59-.18V311.94Z"/><polygon class="cls-34" points="164.63 422.31 163.82 422.31 163.82 333.06 171.97 333.06 171.97 328.99 179.24 328.99 178.43 323.28 185.01 323.28 185.01 316.79 195.98 315.95 196.04 316.76 185.82 317.55 185.82 324.1 179.37 324.1 180.18 329.8 172.78 329.8 172.78 333.88 164.63 333.88 164.63 422.31"/><rect class="cls-35" x="215.17" y="354.25" width="7.34" height="9.78"/><rect class="cls-35" x="207.83" y="365.66" width="7.34" height="8.97"/><rect class="cls-9" x="238.8" y="239.33" width="9.78" height="22.82"/><rect class="cls-9" x="251.03" y="237.7" width="8.97" height="29.34"/><rect class="cls-34" x="198.87" y="301.28" width="1.63" height="47.27"/><rect class="cls-34" x="188.27" y="331.43" width="1.63" height="55.42"/><rect class="cls-34" x="182.56" y="336.32" width="1.63" height="45.64"/><rect class="cls-34" x="176.86" y="341.21" width="1.63" height="40.75"/><path class="cls-35" d="M198.87,393.38S225,408.86,225,408.05s-3.26-31.79-3.26-31.79Z"/><polyline class="cls-9" points="242.06 316.76 241.25 311.06 223.32 324.1 223.32 327.36 232.28 327.36 242.06 317.58"/><polygon class="cls-9" points="223.32 316.76 225.76 316.76 239.62 307.8 239.62 305.35 223.32 316.76"/><path class="cls-9" d="M220.87,300.46h1.63v-.81h16.3V298s-17.93-.82-17.93,0Z"/><polygon class="cls-9" points="234.73 327.36 242.06 327.36 243.69 320.84 234.73 327.36"/><polygon class="cls-5" points="245.73 428.83 330.5 428.83 330.09 302.91 308.08 294.75 308.08 311.87 297.49 311.87 297.49 335.51 287.71 337.14 287.71 261.34 245.32 261.34 245.73 428.83"/><rect class="cls-36" x="246.95" y="263.78" width="38.31" height="2.45"/><rect class="cls-37" x="247.77" y="274.38" width="38.31" height="6.52"/><rect class="cls-37" x="247.77" y="295.57" width="38.31" height="6.52"/><rect class="cls-36" x="312.16" y="343.66" width="15.49" height="1.63"/><rect class="cls-36" x="311.34" y="346.92" width="16.3" height="1.63"/><rect class="cls-36" x="302.38" y="350.99" width="25.27" height="0.82"/><rect class="cls-36" x="299.93" y="354.25" width="27.71" height="0.82"/><rect class="cls-36" x="301.56" y="358.33" width="26.9" height="0.82"/><rect class="cls-36" x="296.67" y="337.95" width="1.63" height="89.66"/><path class="cls-36" d="M327.24,383.19H302.78V362h24.46Zm-23.64-.82h22.82V362.81H303.6Z"/><path class="cls-36" d="M315,307.39a2.88,2.88,0,1,1,3.26-2.85A3.08,3.08,0,0,1,315,307.39Zm0-4.89a2.07,2.07,0,1,0,2.45,2A2.26,2.26,0,0,0,315,302.5Z"/><path class="cls-38" d="M278,373.41H259.34l7.09-14.2Zm-17.32-.82h15.6l-9.65-11.88Z"/><path class="cls-36" d="M319.48,376.67h-12.9l5.53-10.14ZM308,375.85h9.93l-5.67-7.79Z"/><polygon class="cls-39" points="251.03 350.18 285.26 339.58 251.03 326.54 251.03 350.18"/><path class="cls-3" d="M1300.4,428.83h152.42L1447.11,274l-19.56-.81-.81-37.5h-9v-9.78H1386l.82,46.46h-25.27V195.73H1324c-.81,0,0,86.39,0,86.39h-22.82Z"/><polygon class="cls-1" points="1390.88 273.16 1416.96 273.16 1416.14 238.11 1390.06 238.11 1390.88 273.16"/><polygon class="cls-1" points="1390.88 235.66 1415.33 236.48 1415.33 230.77 1390.06 228.33 1390.88 235.66"/><polygon class="cls-4" points="1372.09 296.29 1371.34 309.83 1393.16 309.83 1372.09 296.29"/><path class="cls-4" d="M1360.31,280.08v36.68l51.35-1.63Zm11,14.77,24.58,15.8h-25.45Z"/><polygon class="cls-1" points="1366.69 428.83 1411.25 428.83 1410.84 390.93 1366.02 373 1366.69 428.83"/><polygon class="cls-2" points="1327.71 333.88 1327.71 427.61 1359.63 428.83 1359.5 363.22 1344.83 334.69 1327.71 333.88"/><polygon class="cls-5" points="1300.95 409 1322 408.86 1322 369.74 1356.24 368.93 1355.56 428.83 1300 428.42 1300.95 409"/><polygon class="cls-6" points="1411.25 428.83 1540.03 428.83 1535.14 229.14 1509.46 228.74 1503.76 135.82 1471.16 165.16 1473.6 299.65 1465.45 298.83 1411.66 337.14 1411.25 428.83"/><polygon class="cls-7" points="1476.86 179.02 1501.31 162.72 1501.31 145.6 1476.86 168.42 1476.86 179.02"/><path class="cls-7" d="M1501.31,170.87l-25.26,16.3,3.26,66.83,25.26-24.45Zm-18.74,69.28L1480.94,188l1.63-.81,1.63,52.16Zm5.7-5.71-1.63-50.53s1.63-.82,1.63,0,1.63,49.72,1.63,49.72Zm8.15-9-1.63,1.63V181.46h1.63Z"/><path class="cls-34" d="M1487,301.68H1470.1l17.82,16.05Zm-14.81.82h14l.74,13.3Z"/><path class="cls-34" d="M1473.2,333.06h0l0,.41v9l10.58-.88.83-21.55v-.2l-11.41-9.66Zm10.1-.33L1474,333V325.6l9.56.19Zm-9.29,8.86v-7.74l9.26-.3-.28,7.29Zm9.77-21.39-.18,4.77-9.59-.18V311.94Z"/><polygon class="cls-34" points="1432.04 422.31 1431.22 422.31 1431.22 333.06 1439.37 333.06 1439.37 328.99 1446.64 328.99 1445.83 323.28 1452.41 323.28 1452.41 316.79 1463.38 315.95 1463.45 316.76 1453.23 317.55 1453.23 324.1 1446.77 324.1 1447.58 329.8 1440.19 329.8 1440.19 333.88 1432.04 333.88 1432.04 422.31"/><rect class="cls-35" x="1482.57" y="354.25" width="7.34" height="9.78"/><rect class="cls-35" x="1475.23" y="365.66" width="7.34" height="8.97"/><rect class="cls-9" x="1506.2" y="239.33" width="9.78" height="22.82"/><rect class="cls-9" x="1518.43" y="237.7" width="8.97" height="29.34"/><rect class="cls-34" x="1466.27" y="301.28" width="1.63" height="47.27"/><rect class="cls-34" x="1455.67" y="331.43" width="1.63" height="55.42"/><rect class="cls-34" x="1449.97" y="336.32" width="1.63" height="45.64"/><rect class="cls-34" x="1444.26" y="341.21" width="1.63" height="40.75"/><path class="cls-35" d="M1466.27,393.38s26.08,15.48,26.08,14.67-3.26-31.79-3.26-31.79Z"/><polyline class="cls-9" points="1509.46 316.76 1508.65 311.06 1490.72 324.1 1490.72 327.36 1499.68 327.36 1509.46 317.58"/><polygon class="cls-9" points="1490.72 316.76 1493.16 316.76 1507.02 307.8 1507.02 305.35 1490.72 316.76"/><path class="cls-9" d="M1488.27,300.46h1.63v-.81h16.3V298s-17.93-.82-17.93,0Z"/><polygon class="cls-9" points="1502.13 327.36 1509.46 327.36 1511.1 320.84 1502.13 327.36"/><polygon class="cls-5" points="1498.46 428.83 1583.23 428.83 1582.82 302.91 1560.81 294.75 1560.81 311.87 1550.22 311.87 1550.22 335.51 1540.44 337.14 1540.44 261.34 1498.05 261.34 1498.46 428.83"/><rect class="cls-36" x="1499.68" y="263.78" width="38.31" height="2.45"/><rect class="cls-37" x="1500.5" y="274.38" width="38.31" height="6.52"/><rect class="cls-37" x="1500.5" y="295.57" width="38.31" height="6.52"/><rect class="cls-36" x="1564.89" y="343.66" width="15.49" height="1.63"/><rect class="cls-36" x="1564.07" y="346.92" width="16.3" height="1.63"/><rect class="cls-36" x="1555.11" y="350.99" width="25.27" height="0.82"/><rect class="cls-36" x="1552.66" y="354.25" width="27.71" height="0.82"/><rect class="cls-36" x="1554.29" y="358.33" width="26.9" height="0.82"/><rect class="cls-36" x="1549.4" y="337.95" width="1.63" height="89.66"/><path class="cls-36" d="M1580,383.19h-24.45V362H1580Zm-23.64-.82h22.82V362.81h-22.82Z"/><path class="cls-36" d="M1567.74,307.39a2.88,2.88,0,1,1,3.26-2.85A3.08,3.08,0,0,1,1567.74,307.39Zm0-4.89a2.07,2.07,0,1,0,2.45,2A2.26,2.26,0,0,0,1567.74,302.5Z"/><path class="cls-38" d="M1530.7,373.41h-18.63l7.09-14.2Zm-17.32-.82H1529l-9.65-11.88Z"/><path class="cls-36" d="M1572.21,376.67h-12.9l5.53-10.14Zm-11.53-.82h9.93l-5.67-7.79Z"/><polygon class="cls-39" points="1503.76 350.18 1537.99 339.58 1503.76 326.54 1503.76 350.18"/><path class="cls-40" d="M923.81,428.83c0-9.78,0-20.38,0-20.38l9.08-.63-.11-9.15h29.35v4.08h10.59s0-7.07,0-9h31.79v35.05Z"/><rect class="cls-41" x="976.79" y="401.93" width="9.78" height="7.34"/><rect class="cls-41" x="988.2" y="401.93" width="9.78" height="7.34"/><path class="cls-41" d="M933.59,406v13h23.64V406Zm21.19,10.6H936v-8.16h18.75Z"/><rect class="cls-42" x="969.45" y="388.89" width="37.49" height="8.15"/></g></g></svg>