<svg xmlns="http://www.w3.org/2000/svg" viewBox="0 0 1728 1009"><defs><style>.cls-1,.cls-3{fill:#fff;}.cls-1{opacity:0.33;}.cls-10,.cls-2,.cls-23,.cls-4{opacity:0.5;}.cls-3{font-size:19.27px;font-family:AdobeFanHeitiStd-Bold, AdobeFanHeitiStd Bold-B5pc-H;font-weight:700;}.cls-4,.cls-5{fill:none;stroke-miterlimit:10;}.cls-4{stroke:#fff;}.cls-5{stroke:#aa9175;stroke-width:16px;}.cls-6{fill:#b2b2b2;}.cls-7{fill:#aa9175;}.cls-8{fill:#f4fadd;}.cls-9{fill:#ae8478;}.cls-10,.cls-13{fill:#ab8579;}.cls-11{fill:#f0e2c4;}.cls-12{fill:#736357;}.cls-14{fill:#7e6259;}.cls-15{fill:#6a514a;}.cls-16{fill:#5d5d58;}.cls-17{fill:#a2988f;}.cls-18{fill:#e5e2dd;}.cls-19{fill:#555450;}.cls-20{fill:gray;}.cls-21{fill:#989898;}.cls-22{fill:#333;}.cls-23{fill:#755369;}.cls-24{fill:#d1d1d1;}</style></defs><title>資產 11</title><g id="圖層_2" data-name="圖層 2"><g id="圖層_1-2" data-name="圖層 1"><rect class="cls-1" x="955" y="28" width="544" height="500"/><g class="cls-2"><text class="cls-3" transform="translate(180.77 903.89)">團隊介紹</text></g><rect class="cls-4" x="174" y="880" width="89" height="35" rx="12" ry="12"/><path class="cls-5" d="M1011.5,140.5S1125-19.42,1423,61.79L1418,490l-4,15.47-405-39.63-.5-241.37Z"/><path class="cls-5" d="M1011.5,140.5S1125-19.42,1423,61.79L1418,490l-4,15.47-405-39.63-.5-241.37Z"/><line class="cls-5" x1="1004" y1="221" x2="1427" y2="120"/><line class="cls-5" x1="1092.5" y1="78" x2="1089.5" y2="474.5"/><line class="cls-5" x1="1091.5" y1="283.5" x2="1286.5" y2="248.5"/><line class="cls-5" x1="1281.5" y1="42.5" x2="1288.5" y2="489.5"/><line class="cls-5" x1="1187.5" y1="52.5" x2="1188.5" y2="181.5"/><line class="cls-5" x1="1012.5" y1="395.5" x2="1085.5" y2="392.5"/><line class="cls-5" x1="1285.5" y1="389.5" x2="1418.5" y2="387.5"/><path class="cls-6" d="M37.83.67V751.89H1690V.67ZM1418,490l-4,15.47-405-39.63-.5-241.37,3-84S1125-19.42,1423,61.79Z"/><path class="cls-7" d="M1689.08,929H36.5V656.26S467,585,612.6,574.83c119.22-8.31,359.21.35,478.44,8.65,150.56,10.48,598,72.78,598,72.78Z"/><path class="cls-8" d="M37.36,825.74V154.55L101,175.21a91.65,91.65,0,0,1,22.37-31c19.79-18.07,41.18-37.51,89.49-28.4,45.61,8.6,76.58,67.12,80.89,98.1,4.14,29.84,2.58,35.28,2.58,35.28l81.75,29.26s.86,1.72-13.77,8.6-23.23,12-29.26,10.33-14.63-4.3-14.63-4.3l7.74,416.48s6.88-.86,16.35,6.88,21.51,14.63,12.91,18.07S37.36,825.74,37.36,825.74Z"/><path class="cls-9" d="M308,318.47v-.61L51.83,231.61l-1.14-.38V777.4L310.8,703.09l.63-.18ZM52.42,233.63l154.9,52.15,5.15,443.61-160,45.73ZM214.18,728.9,209,286.36l97.23,32.74,3.43,382.51Z"/><path class="cls-10" d="M270.56,276.74,336,296.54s15.49-6,17.21-6.88-68.84-22.37-68.84-22.37Z"/><polygon class="cls-10" points="39.94 160.58 88.13 176.07 88.99 200.16 104.48 201.88 116.53 223.39 92.43 222.53 150.95 768.09 167.73 789.17 37.36 825.74 39.94 160.58"/><path class="cls-10" d="M280.88,264.7s4.3-83.47-41.3-118.75-92.93,5.16-104.12,19.79l9.47,11.19s39.58-37.86,67.12-25.81S252.48,171.76,262,207.9s6,62.82,6,62.82Z"/><path class="cls-10" d="M278.32,198.61c-3.81-19.06-12.75-36.38-27.34-53-21.58-24.53-54.52-24.15-78.36-19.52-25,4.86-52.11,41.51-62.31,55.3-2.89,3.92-3.93,5.29-4.49,5.67-2.86,1.9-12-2.49-13.77-3.39l.77-1.54c4.1,2.05,10.55,4.49,12,3.5a66.08,66.08,0,0,0,4.06-5.26c10.31-13.94,37.69-51,63.37-56,34.81-6.77,62.47.17,80,20.07,14.79,16.81,23.86,34.39,27.73,53.75Z"/><path class="cls-11" d="M121.69,239.74s40.44-54.21,58.51-54.21,40.44,4.3,44.75,34.42,7.74,50.77,7.74,50.77l24.09,12s7.74-68-22.37-95.52-42.16-26.68-63.68-13.77S120.83,232,119.11,237.16,121.69,239.74,121.69,239.74Z"/><path class="cls-9" d="M194.83,553.82s7.74-1.72,8.6,2.58,2.58,20.65,0,24.09-8.6,6-8.6,6-2.58,14.63-.86,17.21,10.33-6.88,13.77-12.91,4.3-31.84-.86-41.3-10.33-9.47-12-8.6S193.11,550.38,194.83,553.82Z"/><path class="cls-9" d="M215.48,525.43s7.74-1.72,8.6,2.58,2.58,20.65,0,24.09-8.6,6-8.6,6-2.58,14.63-.86,17.21,10.33-6.88,13.77-12.91,4.3-31.84-.86-41.3-10.33-9.47-12-8.6S213.76,522,215.48,525.43Z"/><path class="cls-9" d="M160.84,118s-38.29,8.17-50.34,12.48-41.16,34-41.16,34L101,175.21S125.13,133,160.84,118Z"/><path class="cls-11" d="M341.12,460.89s184.15-2.58,195.33,0,6,57.65,6,57.65,275.36-3.44,290.85,1.72,41.3,36.14,43.89,55.07,10.33,29.26-.86,35.28-526.62,2.58-533.51,0S341.12,460.89,341.12,460.89Z"/><path class="cls-10" d="M871.18,574.48h-487c-4.89-45.39-12.12-112.73-12.12-112.73h-32.7S336,611.3,336.81,613.06c.69,1.42,34.09,2.46,46.87,2.27l.46,0h487a13,13,0,0,0,12.91-12.91V587.38A13,13,0,0,0,871.18,574.48Z"/><path class="cls-9" d="M377.6,541.81c-6,7.24-3.42,34.41,3.42,35.31s481.67,3.62,490.21.91,8.54-67-15.37-68.82-261.33-.91-293.78-2.72S383.57,534.57,377.6,541.81Z"/><path class="cls-12" d="M474.49,560.71s-8.6,16.35,1.72,26.68,31,13.77,50.77,10.33,66.26-12.91,89.49-3.44,58.51,18.93,91.21,12c0,0,153.17-8.6,169.52-10.33s16.35-26.68,13.77-39.58-5.16-47.33-21.51-52.49S656.06,493.59,644,496.17c0,0-28.4,0-62,14.63s-64.54,28.4-79.17,31S478.8,558.13,474.49,560.71Z"/><path class="cls-8" d="M436.63,485.84c1.92,0,29.26-9.47,43.89-10.33s22.37,0,26.68-.86,9.47-1.72,7.74,2.58c0,0-1.72,2.58,1.72,4.3s23.23,16.35,27.11,25.38,3,14.2,5.59,15.06,6,1.72,2.15,3.87-7.31.43-21.94.43-28.4,15.49-49.91,14.63-22.37-1.72-25.38,3.87-7.31,4.73-6.45,1.29,6,2.58-3.44-12.91-19.79-26.68-15.49-32.7,2.58-10.33-1.72-12-5.16-9.47-1.72-8.6S434.91,485.84,436.63,485.84Z"/><path class="cls-11" d="M432.33,487.57c-3.55-7.1,14.63,13.77,16.35,19.79s5.16,16.35,14.63,20.65,37.86,6.88,43.89,2.58,27.54-6.88,27.54-6.88-22.37,9.47-27.54,12-35.28,6.88-43.89,3.44-8.6,6-10.33,2.58-19.79-28.4-20.65-34.42S434.91,492.73,432.33,487.57Z"/><path class="cls-13" d="M1330.51,499.79s-34.71,177.89-28.76,185.54,7.93,6.69,12.89-3.83,30.74-172.15,30.74-176S1333.49,495,1330.51,499.79Z"/><path class="cls-13" d="M1570.81,521.8s-6.6,212.44,0,221.33,11,16.68,14.31,5.56,12.11-219.11,6.6-223.56S1570.81,521.8,1570.81,521.8Z"/><path class="cls-14" d="M1640.16,525.14s13.21,175.73,8.81,178-9.91,10-13.21-1.11-14.31-173.51-9.91-175.73S1640.16,525.14,1640.16,525.14Z"/><path class="cls-15" d="M1398,501.7s6.94,120.51,8.93,124.33,4,9.56,8.93,5.74,3-124.33,0-127.2S1398,501.7,1398,501.7Z"/><path class="cls-13" d="M1273,492.45s-3-15.62,19.84-19.45,365.13,0,393.73,17.22c15.87,9.56-35.7,42.08-89.26,44C1569.27,535.22,1262.08,504.25,1273,492.45Z"/><path class="cls-11" d="M1278.94,474.28s61.49-16.58,84.3-20.4,301.5,29.65,321.33,33.47S1631,512.22,1603.25,516,1268,486.08,1278.94,474.28Z"/><path class="cls-16" d="M1485.54,446.58s-67.27,23.34-70.51,26.68-2.84,6.19,4.85,8.1,67.64,5.72,74.93,4.76,28-12.39,38.1-19.53,16.62-13.82,16.22-16.67S1485.54,446.58,1485.54,446.58Z"/><path class="cls-17" d="M1383,462.49s-44.56,22.11-39,23.57,157.61,20.32,162.49,17.37,42-21.74,38.67-25.77S1390.16,457,1383,462.49Z"/><path class="cls-17" d="M1530.46,498.77s.51,13.7,8.3,13.43,20.69-3,30.73-12.5,7.19-16.26-.6-16S1548,482.15,1530.46,498.77Z"/><path class="cls-17" d="M1579.54,298.44c13.43,4.1,13.15,1.43,16.93,6.46s-6.93,151.93-9.87,154.91-15,12.26-25.47,5.17S1579.54,298.44,1579.54,298.44Z"/><path class="cls-17" d="M1485.54,443.65S1418.27,467,1415,470.33s-2.84,6.19,4.85,8.1,67.64,5.72,74.93,4.76,28-12.39,38.1-19.53,16.62-13.82,16.22-16.67S1485.54,443.65,1485.54,443.65Z"/><path class="cls-18" d="M1369,290.48l-4.27,146.27s.84,8,14.27,12.12,178.9,16.43,178.9,16.43,20.15,6.15,24.08-18.54,14.2-144.53,4-148.94-209.06-9.46-209.06-9.46S1367.26,289.3,1369,290.48Z"/><path class="cls-19" d="M1384.19,295.76l186.53,11.64s6.72,2.05,7.27,7.4S1576.26,423,1576.26,423s.56,5.35-12.32,6.6-186.81-14.31-186.81-14.31-3.5-2.36-4.33-10.38S1375.09,302,1375.09,302A11.84,11.84,0,0,1,1384.19,295.76Z"/><path class="cls-19" d="M1460.67,436.9s-2.94,3,3.78,5,9.66-.94,9.38-3.61-.84-8-4.05-7.71S1460.39,434.23,1460.67,436.9Z"/><path class="cls-18" d="M1382.28,462.42s-43.26,20.89-37.89,22.23,152.51,18.24,157.25,15.46,40.74-20.53,37.58-24.29S1389.23,457.22,1382.28,462.42Z"/><path class="cls-18" d="M1530.42,496.2s.47,12.48,8.12,12.21,20.34-2.79,30.23-11.47,7.11-14.83-.54-14.56S1547.74,481,1530.42,496.2Z"/><path class="cls-20" d="M1291.78,646.58s53.56,3.83,84.3,2.87,84.3,4.78,95.21-3.83,5.45-43.52-10.41-53.08-40.66-1.91-49.59-8.61-10.91-27.74-16.86-38.26-39.67-13.39-73.39-11.48-32.73,15.3-33.72,18.17-5,67.9-3,78.43S1286.32,644.19,1291.78,646.58Z"/><path class="cls-19" d="M1356.74,545.68s20.83,4.78,24.79,16.26,5,28.69,14.88,32.52,28.76,2.87,39.67,7.65,21.82,7.65,22.81,16.26-15.37,16.74-15.37,16.74-53.06-9.09-56-12.91-7.93-22-8.93-33.47,1-24.87-7.93-31.56S1348.8,546.64,1356.74,545.68Z"/><path class="cls-21" d="M1323,568.63s7.93,23,12.89,27.74,11.9,8.61,19.84,8.61,16.86,1,18.84,3.83a24.39,24.39,0,0,1,3,6.69s-4-4.78-17.85-6.69-17.85,4.78-26.78-5.74S1324,579.15,1323,568.63Z"/><path class="cls-21" d="M1383.51,621.14s19.35-2.65,38.7,0,27.95,3.54,32.25,8-6.45,6.19-21.5,8.84-41.92-.88-41.92-.88S1394.26,627.33,1383.51,621.14Z"/><path class="cls-22" d="M1364.17,649.13a15.5,15.5,0,0,0-2.48,7.49c0,3.83,6.94,7.65,17.85,7.65s23.8,2.87,28.76-2.87-1.16-11.64-1.16-11.64Z"/><path class="cls-19" d="M1352.77,664.27s-17.85,27.74-18.84,41.13-3,26.78-4,28.69-4,16.26,2,18.17,17.85-3.83,18.84-14.35,5-41.13,9.92-51.65,8.93-15.3,6-17.22S1352.77,664.27,1352.77,664.27Z"/><path class="cls-19" d="M1394.42,669.06s13.88,40.17,15.87,49.73,1,23,6.94,27.74,23.8,1.91,21.82-11.48-23.8-67.9-27.77-68.86S1395.42,663.32,1394.42,669.06Z"/><path class="cls-19" d="M1366.4,664.16s8.27,20.7,9.45,25.63.59,11.83,4.14,14.29,14.18,1,13-5.91-14.18-35-16.54-35.48S1367,661.21,1366.4,664.16Z"/><path class="cls-20" d="M1355.21,646.33s-63.59-11-67.12-4.3,66.32,29.81,73.37,29.81,37,3.83,45.82,0,64.11-22.54,63.23-26.36S1373.72,641.54,1355.21,646.33Z"/><path class="cls-19" d="M1294.25,553.33s12.89,6.69,13.88,17.22,0,22,10.91,30.6,30.74,14.35,40.66,15.3,11.9,2.87,13.88,16.26-2.84,33.31-9.78,34.27-68.57-20.88-72.54-22.79-6.94-44-3-68.86S1287.31,548.55,1294.25,553.33Z"/><path class="cls-13" d="M337.24,926H1627.13S1485.8,747.91,1197.48,697s-582.76,19.32-704.3,98.46S337.24,926,337.24,926Z"/><path class="cls-7" d="M416.39,926H1545.16s-123.68-141.23-376-181.58-510,15.32-616.33,78.09S416.39,926,416.39,926Z"/><path class="cls-17" d="M549.24,926H1483s-102.31-119.76-311-154S750.1,785,662.12,838.23,549.24,926,549.24,926Z"/><path class="cls-23" d="M657.59,926h691.58s-75.78-64.9-230.36-83.45-312.45,7-377.62,35.89S657.59,926,657.59,926Z"/><path class="cls-24" d="M1723,918.57c-61.78-1.09-824.12-13.92-1711,0H10.56a6.49,6.49,0,0,0-6.35,6.52v55.14A1.8,1.8,0,0,0,6,982H1723a1.8,1.8,0,0,0,1.8-1.81V920.38a1.8,1.8,0,0,0-1.8-1.81Z"/><path class="cls-7" d="M4,956H1725a0,0,0,0,1,0,0v19a34,34,0,0,1-34,34H37.63A33.63,33.63,0,0,1,4,975.37V956A0,0,0,0,1,4,956Z"/><polygon class="cls-12" points="43.33 917 4 956 0 38 38 0 43.33 917"/><polygon class="cls-12" points="1684.67 919 1724 958 1728 40 1690 2 1684.67 919"/></g></g></svg>