<svg xmlns="http://www.w3.org/2000/svg" xmlns:xlink="http://www.w3.org/1999/xlink" viewBox="0 0 678.48 378.33"><defs><style>.cls-1{fill:url(#未命名漸層_35);}</style><linearGradient id="未命名漸層_35" y1="189.16" x2="678.48" y2="189.16" gradientUnits="userSpaceOnUse"><stop offset="0" stop-color="#e8436f"/><stop offset="1" stop-color="#f3a6a8"/></linearGradient></defs><title>資產 3</title><g id="圖層_2" data-name="圖層 2"><g id="圖層_1-2" data-name="圖層 1"><path class="cls-1" d="M663.08,40.19C641.3,14.82,603,30.28,581,47a155,155,0,0,0-13.79,11.85,63.31,63.31,0,0,0-3.3-15.62c-9.57-27.5-40.12-51.62-70.18-40.39-7.93,3-15,8.14-18.95,15.81-3.84,7.47-4.87,15.7-5.44,24A462.34,462.34,0,0,1,464,90.16a431.91,431.91,0,0,1-27.18,93.16,421.41,421.41,0,0,1-40.26,74.1C391,197.5,390.78,137.2,390.67,77c0-12-17.15-14.05-20.63-2.79A1152.26,1152.26,0,0,1,326.1,193.5q-12.74,29.35-27.07,58Q291.77,266,284.1,280.32q-3.51,6.54-7.09,13c-1.07,1.94-2.14,3.88-3.23,5.8a10.58,10.58,0,0,1-.76-1.79c-1.54-5.41-2.22-11.13-3.24-16.66L262.66,242c-.73-4-5-7.07-8.73-7.52-4.45-.53-7.89,1.46-10.46,5A466.72,466.72,0,0,1,196.21,295q-2.51-18.78-3.39-37.73a10.64,10.64,0,0,0-17.93-7.43,1133.45,1133.45,0,0,0-81.15,83q-2.11-19.28-4.22-38.53c-1-9-10.76-13.89-17.93-7.43A585.26,585.26,0,0,0,3,360.43c-3.5,4.45-4.35,10.5,0,14.84,3.64,3.64,11.33,4.49,14.85,0a585.88,585.88,0,0,1,53.13-59q2.26,20.76,4.55,41.51c.46,4.24,2.25,7.9,6.45,9.59,3.64,1.47,8.74,1.06,11.47-2.17A1134.58,1134.58,0,0,1,173.46,280q1.9,19.74,5.43,39.29c1.47,8.2,12.23,9.56,17.55,4.64a492.31,492.31,0,0,0,50.08-54.05q1.42,7.71,2.84,15.4c1.9,10.34,2.82,21.41,9.58,29.94,7.46,9.41,20.67,10.3,28.67.91,3.5-4.1,5.84-9.14,8.42-13.84q4.47-8.13,8.82-16.32a1195.66,1195.66,0,0,0,59.06-129.92Q367,148,370,139.79c.65,48.64,2.54,97.26,8.49,145.58.52,4.24,2.21,7.88,6.46,9.59,3.51,1.42,8.9,1.14,11.47-2.17a448.52,448.52,0,0,0,80.42-163c7.61-29.5,11.09-59.24,13.58-89.52.44-5.34,1.25-11.88,5.78-15.42,4.16-3.24,9.92-3.9,15-3.6,10.2.6,20.18,7.78,26.21,16.07,12,16.47,10.35,35.91,2.8,53.42-7,9.86-13.52,20.13-19.88,30.36-6.2,10,8.49,21.76,16.49,12.72a137.28,137.28,0,0,0,21.89-33,195.55,195.55,0,0,1,24.14-28.15,104.61,104.61,0,0,1,28.35-19.49c9.38-4.28,23.14-8.82,32.59-2.31,8.26,5.68,11.87,17.81,13.12,26.9a68.13,68.13,0,0,1-3.1,30.7c-6.55,20.18-21.93,36.45-42.1,43.24-16.05,5.4-33.24,7.44-49.86,10.37l-54.48,9.6c-5.59,1-8.73,7.82-7.33,12.91,1.62,5.9,7.31,8.32,12.91,7.34l52.54-9.26c17-3,34.51-5.06,50.93-10.43,27-8.81,47.16-29,56.76-55.61C682,92.22,680.59,60.58,663.08,40.19Z"/></g></g></svg>