<svg xmlns="http://www.w3.org/2000/svg" viewBox="0 0 515.11 761.68"><defs><style>.cls-1{fill:#c5798a;opacity:0.5;}.cls-2{fill:#b3b3b3;}.cls-3{fill:#e6e6e6;}.cls-4{fill:#ccc;}.cls-5{fill:#999;}.cls-6{fill:#f2f2f2;}.cls-7{fill:#fff;}.cls-8{fill:#666;}.cls-9{fill:gray;}.cls-10{fill:#fae8f0;}</style></defs><title>資產 3</title><g id="圖層_2" data-name="圖層 2"><g id="圖層_1-2" data-name="圖層 1"><ellipse class="cls-1" cx="284.11" cy="731.18" rx="231" ry="30.5"/><path class="cls-2" d="M257.18,327.49c-.83-2.39-3.24-3.51-6.58-4l.24-.26-89.15-87.11-.16.17a12.06,12.06,0,0,0-5.34-2.42c-8.94-1.8-10.18,8.84-7.13,12.81s7.42-.18,7.83-3.73-4.94.12-4.94.12c1.41-3.07,4.35-4.15,6.88-1.68s4.53,3.43,2.34,16.11,1.64,28.26,13.45,47.69,40.1,24.31,47,25.15,22.17-3.05,27.64-1.66,4.64,8.48,3.7,10.52-3.47-.42-2.53-2.47-1.05-3-4-1.92-1.89,4.08,4.11,7S259.83,335,257.18,327.49Zm-34.69-4.23c-13.88-1.69-38-18.3-48.22-33.21s-9.63-32.11-8.8-39.21a23.07,23.07,0,0,0-.53-9.21l83.56,81.65C241.32,322.8,231.08,324.31,222.49,323.26Z"/><path class="cls-2" d="M237.91,256.05l-74,72.24s0-8-4.67-6.41-6,18.51-6,18.51,14.38,1,16.89-.89,2.21-7.66-.91-9.27l-3.12-1.61,73.71-70Z"/><path class="cls-2" d="M385.8,223.86c-9.46-7.76-20.63-13.53-29.31-17.69-3.54-1.7-11.35-1-13.67,1.92-2.11,2.64-.75,8.34.35,12.92l.23,1a20.75,20.75,0,0,0,3.26,6.38l.28.43L342,224.28l-.13.62c-2.94,14-11.83,22.38-27.2,25.55a40,40,0,0,1-5.46.58,38.85,38.85,0,0,0-5.58.6c-3.39.7-5.66,2.38-6.38,4.71s.15,4.83,2.41,7.19l.19.2.25-.13a8,8,0,0,1,6.66-.39,7.53,7.53,0,0,1,4.34,4.55c1,3.05,2.17,6.12,3.29,9.08,1.42,3.79,2.9,7.72,4.12,11.65a10.74,10.74,0,0,1,.15,3.9,10.39,10.39,0,0,0,.23,4.32c1,2.77,2.18,5.51,3.41,8.19-1.54-2.72-3.08-5.5-4.48-8.3a36.63,36.63,0,0,1-2.25-6.25c-.29-1-.58-2-.91-2.93l-.79-2.36.09,2.49c0,.91,0,1.85,0,2.76a23.85,23.85,0,0,0,.4,6.09c.2.8.38,1.62.57,2.44,1.51,6.69,3.08,13.59,11.28,16.18l12.05,19.84,11.94,1.48,6.1,6.94.67-8.34,5.42,9.62.13.1-.41-.09a18.83,18.83,0,0,0-2.35-.3c-1.64-.15-3.33-.31-3.93-1.11-3.27-4.43-7.81-5.1-12.21-5.75-1.22-.19-2.49-.37-3.7-.64l-2.51-.55,2.26,1.23c1.49.8,3,1.62,4.46,2.44,4.08,2.26,8.3,4.59,12.6,6.6a2.13,2.13,0,0,0,.88.18,9,9,0,0,0,2.83-.79,15.14,15.14,0,0,1,1.69-.61l.9-.24,1.76,1.31,2.4-1.33L351.44,315.5,344,319.35l7.44-8,10,21.25,4.72-6.25L376,338.19l3.87-5,4.45,4.92,4.29-3.42,1.22,9.94,4.68-4.47,1,7.13,7.06-5.57-1.05,19.16,11.08-12.52-.64,8.85.79-1.33c8.36-14.17,7.84-52.13,1.56-71.28,5.86,15.65,6.93,31,7,44.7l.72,0C428.89,284,417.05,249.45,385.8,223.86Zm-28.36,67,4.91,16.94-6.41-8.44-.8.52-.89-1-1.35-1.46Zm.08-13.55,4.21-8,4.37,6.57,2.83-11.43,1.34.21-1.69,10.83c-1.48.45-2.76.88-3.9,1.26a24.47,24.47,0,0,1-6.07,1.55c-1.57.1-4.24-.94-4.82-2.15a20.41,20.41,0,0,1-1.45-6.07c-.15-1-.3-2.1-.51-3.21l-.06-.34-.34.05a13.81,13.81,0,0,1-4.73.09l7.3-6.53,1,16.66ZM345.43,266c-1.45-1.3-1.61-4.54-1.4-10.85l0-.69-6.52,4.19-1.13-5.43.43-.12,1.89,4,6.14-5.81,1.4,15.25A2.58,2.58,0,0,1,345.43,266Zm.28,24.67,3.73-6.83,1.19.11,1.17,12.31c-.86-.94-1.72-1.87-2.6-2.8-.59-.63-1.24-1.24-1.86-1.82l-.84-.8-.23-.22L339.65,296l0-.12Zm23.5,1.22a55.53,55.53,0,0,1-.36-7.34l6.46,19.32,2.85-.38,1.51-13.63L385.41,312V312l-4.56-7-2.68,2.89-5.54-6.08L364.8,311l-.41-.53C370.39,304.6,369.81,298.41,369.21,291.87Zm27.71,2.73-.82,2.22c-1.34,3.63-2.74,7.39-4.18,11.08-.63,1.61-1.36,3.23-2.28,5.27l-1.41,3.17-2.66-4.11,3.82.07L394.86,288Zm-62.55-16.34,4.34-1.47,0,16.44c-.5-1.55-1-3.12-1.59-4.66-.38-1-.87-2-1.34-3a16.79,16.79,0,0,1-1.94-5.45,95.7,95.7,0,0,1-.25-11.36c0-1.44.06-2.93.06-4.4l1.72,0Zm78.41,26.09-1.33-3.57-9,21.79-2.87-.43-1.37-20.88,3.16,16.83,2.28.77,7.23-24.51,2.42,9.86Zm-87.19-15.69,6-1.68-.92,19v.06c-1.38-1.66-1.39-4.85-1.2-7.8,0-.53.09-1.06.15-1.6C329.94,293.57,330.32,290.1,325.59,288.66Zm13.34,15,2.28,13.5-4.91-10.32-.29.08c-2.25.59-3.86.46-4.93-.42l-.09-.08ZM324,283.69c1.68-4.46.45-8.43-.75-12.27-.89-2.86-1.73-5.58-1.5-8.51l1.59,7.1,3.46-1.07L325,288.39a2.41,2.41,0,0,1-.35-.52A6.73,6.73,0,0,1,324,283.69Zm66.21-16.45a62.23,62.23,0,0,1-5.47-6.55c-.81-1.07-1.64-2.17-2.49-3.22-.26-.31-.52-.68-.79-1.06-.85-1.21-1.72-2.45-2.68-2.45h0c-7,.19-10.46-4.31-14.08-9.08-.58-.76-1.16-1.52-1.75-2.26a26.56,26.56,0,0,0-3.91-3.88l-2-1.67,0-7.82c.64,1.2,1.27,2.42,1.88,3.62,4.05,7.93,8.24,16.13,18.4,20.39l.58.25-1.28-9.36,14.58,23.56A2,2,0,0,1,390.2,267.24Zm16.46,6.48-.28-.07-2,4.37-8.51-11.35-.28.15a6.88,6.88,0,0,1-4.28.94l2.31-1.07.95-6,9.5,15.31,1.16-9.35a95.13,95.13,0,0,1,6.63,12.15C410.29,275.83,408.54,274.12,406.66,273.72Z"/><path class="cls-3" d="M388,223.85c-9.47-7.75-20.64-13.52-29.31-17.68-3.55-1.7-11.35-1-13.67,1.91-2.11,2.65-.75,8.34.34,12.92l.24,1a20.61,20.61,0,0,0,3.25,6.38c.1.14.19.29.28.43l-4.46-4.09a.36.36,0,0,0-.36-.08.35.35,0,0,0-.24.27c-2.94,14-11.84,22.37-27.2,25.54a38.6,38.6,0,0,1-5.47.59,37.76,37.76,0,0,0-5.58.6c-3.38.7-5.65,2.37-6.38,4.71s.16,4.82,2.42,7.19a.38.38,0,0,0,.43.07,7.9,7.9,0,0,1,6.66-.39,7.46,7.46,0,0,1,4.34,4.55c1,3.05,2.18,6.11,3.29,9.08,1.43,3.79,2.9,7.72,4.13,11.64a10.75,10.75,0,0,1,.14,3.9,10.56,10.56,0,0,0,.23,4.32c1,2.78,2.18,5.51,3.41,8.19-1.54-2.72-3.08-5.5-4.48-8.29a38.88,38.88,0,0,1-2.25-6.26c-.28-1-.58-2-.9-2.92a.37.37,0,0,0-.71.12c0,.91,0,1.85,0,2.76a24.28,24.28,0,0,0,.41,6.09c.2.81.38,1.63.57,2.45,1.51,6.68,3.07,13.59,11.27,16.18l12,19.68a.39.39,0,0,0,.27.18l11.76,1.45,5.54,6.3a.36.36,0,0,0,.63-.21l.6-7.48,5.43,9.61a.27.27,0,0,0,.1.11l2.11,1.54a.39.39,0,0,0,.39,0l1.88-1.05a.36.36,0,0,0,.15-.49l-15.41-28.88a.36.36,0,0,0-.49-.15l-7.12,3.69,7.43-8L363.36,332a.36.36,0,0,0,.29.21.35.35,0,0,0,.32-.14l4.37-5.77,9.5,11.52a.43.43,0,0,0,.29.13.38.38,0,0,0,.28-.14l3.58-4.65,4.23,4.66a.36.36,0,0,0,.49,0l4-3.21,1.13,9.23a.36.36,0,0,0,.23.3.4.4,0,0,0,.38-.08l4.15-4,.94,6.51a.37.37,0,0,0,.22.28.36.36,0,0,0,.36-.05l6.57-5.18-1,18.11a.36.36,0,0,0,.22.36.32.32,0,0,0,.14,0,.37.37,0,0,0,.27-.13l10.38-11.73-.52,7.31a.36.36,0,0,0,.25.37.37.37,0,0,0,.42-.16c8.36-14.17,7.84-52.14,1.56-71.29,5.87,15.66,6.93,31,7,44.7a.36.36,0,0,0,.34.36h0a.37.37,0,0,0,.36-.31C431.07,284,419.23,249.44,388,223.85Zm11.12,70.74-.82,2.22c-1.35,3.64-2.74,7.4-4.18,11.08-.64,1.62-1.36,3.24-2.28,5.28-.42.94-.89,2-1.41,3.16l-2.75-4.23h0a.35.35,0,0,0,.27.13l3.34.06a.39.39,0,0,0,.36-.29l5.4-24Zm-66.27,11.46c-1.38-1.66-1.39-4.85-1.2-7.81,0-.52.09-1.06.15-1.6.34-3.07.72-6.55-4-8l6-1.68-.91,19Zm37.93-30.61c-1.48.45-2.76.88-3.9,1.27a25,25,0,0,1-6.07,1.54c-1.57.11-4.25-.94-4.83-2.15a20.34,20.34,0,0,1-1.44-6.07c-.15-1-.3-2.09-.51-3.21a.36.36,0,0,0-.36-.29h0a13.09,13.09,0,0,1-4.84.06.43.43,0,0,0,.25-.09l7.15-6.41,1,16.38a.37.37,0,0,0,.29.34l2,.41a.36.36,0,0,0,.4-.18l4.07-7.78,3.92,5.89a.36.36,0,0,0,.65-.11l2.64-10.63,1.33.21ZM347.6,266c-1.44-1.31-1.6-4.54-1.4-10.85a.35.35,0,0,0-.18-.33.41.41,0,0,0-.18-.05.36.36,0,0,0-.2.06l-5.93,3.81-1.13-5.43.43-.12,1.67,3.53a.36.36,0,0,0,.26.2.39.39,0,0,0,.32-.1l5.77-5.47,1.38,15a.37.37,0,0,0,.16.27A2.88,2.88,0,0,1,347.6,266Zm-11,11.73a.37.37,0,0,0,.13.31.42.42,0,0,0,.34.06l3.82-1.3.05,16.45c-.5-1.55-1-3.13-1.59-4.67-.38-1-.87-2-1.35-3a17,17,0,0,1-1.93-5.44,93.71,93.71,0,0,1-.25-11.36c0-1.45.05-2.94.05-4.41l1.72,0Zm5.23,18.3,0-.12,6.1-5.25a.39.39,0,0,0,.08-.1l3.64-6.72,1.19.1L354,296.24c-.86-.94-1.73-1.88-2.6-2.81-.6-.63-1.23-1.23-1.85-1.81l-.85-.8a.35.35,0,0,0-.48,0Zm17.79-5.19,4.91,16.94-6.2-8.17a.37.37,0,0,0-.29-.14.36.36,0,0,0-.2.06l-.51.34-.93-1-1.31-1.41Zm11.77,1a55.46,55.46,0,0,1-.35-7.34l6.36,19a.37.37,0,0,0,.39.24l2.27-.3a.36.36,0,0,0,.32-.32l1.48-13.35L387.59,312a.14.14,0,0,0,0,.06l-4.32-6.66a.37.37,0,0,0-.27-.16h0a.36.36,0,0,0-.26.11l-2.36,2.55-5.27-5.77a.47.47,0,0,0-.27-.12.37.37,0,0,0-.27.13L367,311l-.4-.53C372.56,304.6,372,298.41,371.38,291.86Zm-28,25.27-4.79-10a.36.36,0,0,0-.33-.21h-.09c-2.25.6-3.86.46-4.92-.42a.69.69,0,0,1-.13-.11.37.37,0,0,0,.18,0l7.8-2.72Zm-16.22-28.74a2.08,2.08,0,0,1-.35-.53,6.63,6.63,0,0,1-.65-4.17c1.68-4.46.44-8.43-.75-12.27-.89-2.86-1.74-5.59-1.5-8.52l1.5,6.72a.35.35,0,0,0,.17.24.37.37,0,0,0,.29,0l3.08-1-1.79,19.38Zm73.19,12.86,3.13,16.63a.35.35,0,0,0,.24.27l1.72.58a.36.36,0,0,0,.47-.24L413,294.34l2.41,9.86-.49.14-1-2.7a.35.35,0,0,0-.33-.24.36.36,0,0,0-.34.23l-8.67,20.93-2.87-.42Zm8.48-27.54a.37.37,0,0,0-.41.21l-1.85,4.1-8.33-11.1a.36.36,0,0,0-.46-.11c-2.19,1.18-4.47,1.36-5.41.42a59.14,59.14,0,0,1-5.47-6.55c-.81-1.06-1.65-2.16-2.5-3.22-.25-.31-.51-.68-.78-1.06-.85-1.2-1.73-2.44-2.68-2.44h0c-7.05.19-10.47-4.31-14.09-9.07-.57-.77-1.15-1.53-1.75-2.27a28,28,0,0,0-3.9-3.88l-2-1.67,0-7.82c.65,1.21,1.27,2.43,1.88,3.62,4.05,7.93,8.24,16.13,18.41,20.39a.36.36,0,0,0,.36,0,.36.36,0,0,0,.13-.34l-1.19-8.72,14.47,23.39a.36.36,0,0,0,.46.14l2-.93a.35.35,0,0,0,.2-.27l.92-5.82,9,14.43a.35.35,0,0,0,.66-.14l1-8.34a94.1,94.1,0,0,1,6.64,12.16C412.47,275.82,410.72,274.12,408.84,273.71Z"/><path class="cls-3" d="M364.29,344.56a21.22,21.22,0,0,0-2.35-.3c-1.64-.15-3.33-.3-3.93-1.11-3.27-4.43-7.82-5.1-12.21-5.75-1.23-.18-2.49-.37-3.7-.63a.36.36,0,0,0-.42.22.37.37,0,0,0,.17.45l4.45,2.44c4.09,2.26,8.31,4.6,12.61,6.6a1.94,1.94,0,0,0,.87.18,8.47,8.47,0,0,0,2.84-.79,15.61,15.61,0,0,1,1.68-.6.37.37,0,0,0,0-.71Z"/><path class="cls-2" d="M177,293.87c1.09-2.06,2.67-2.55,4.05-2.17a9.48,9.48,0,0,0,3.08.5c.68-.09,1.52-1.26,1.94-2.63.27-.88,1.48-4.36,2-6.68,3-7.36,6.94-15.87,10.55-22.89,5.48-10.65,20.48-27.59,29.87-28.89a30.23,30.23,0,0,1,5.23.37s-2.61,7.17-9.09,24.57c-7.86,21.12-13.53,36.67-21.72,47.32S192.16,314.81,189.81,315s-8.22-.31-10-2.43-1-6.16-.08-8.35,2.32-5.77,2.32-5.77c-.56.49-3,.32-3.63-.31S176,295.94,177,293.87Z"/><path class="cls-2" d="M212.09,352.81a7,7,0,0,0,.27-2.95c-.09-2.17,1.34-38.65,1.34-38.65a4.92,4.92,0,0,1,3.47-3.8c6.82-1.71,8.08-1.52,13,.26,7.9,2.89,15,8.7,15.95,17.52,0,0-.54,3.69-.55,3.73,0,.92-2.61,33.54-2.86,34.65a12.46,12.46,0,0,1-8.42,8.12c-6.21,2-27.06.86-27.06.86s-6.51-1.79-6.57-5.23.32-4.87,2.35-7.36S212.09,352.81,212.09,352.81Z"/><path class="cls-2" d="M295.05,313.1c-5.67-10.55-17-8.65-21.48-8.52-9.63.28-9.45,12.6-10.08,19.35a1.81,1.81,0,0,1,.07.49c0,1.29-1,34.79-.56,38s-.61,2.36-2.06,3.08a22.1,22.1,0,0,0-9.64,11.17c-2.81,7,7,7.54,7.73,7.77s21.66.23,24.46-.71,9.44-3.41,10.2-8.85,2.38-34.61,2.38-34.61S297.8,318.2,295.05,313.1Z"/><path class="cls-4" d="M213.33,320.47c-7.88-10.9-9.12-20.84-11.35-52-.39-5.5-.23-5.58.75-9.64.87-3.63,5.44-10.77,6.66-13.34,3.5-7.32,5.05-11.11,5.05-11.11h80.61l4,6.67c3,5,3.74,6.45,5.19,8.89.69,1.16,2.64,3.84,3,5.93,1.49,9.63.56,18.58.75,25.93.74,28.9-8.89,39.21-9.64,40,0,0-11.78,9.94-17.83,12.63-4.63,2.06-14.11,2.68-15.64,2.72s-18.67-.18-18.67-.18-14.11-1.52-19.78-4.66A38.55,38.55,0,0,1,213.33,320.47Z"/><path class="cls-2" d="M305,325.06c-.85-2.17-.18-3.68,1-4.48a9,9,0,0,0,2.39-2c.39-.57.05-2-.71-3.18-.48-.79-2.32-4-3.7-5.93-3.62-7.05-7.44-15.64-10.37-23-4.45-11.11-7.41-33.55-2.23-41.5a29.42,29.42,0,0,1,3.71-3.7s3.7,6.67,12.59,23c10.8,19.78,18.81,34.26,21.49,47.42s1.54,15.67.16,17.59-5.61,6-8.39,6-5.33-3.24-6.36-5.41-2.08-4.7-2.08-4.7-2.5,1.66-3.36,1.71S305.81,327.23,305,325.06Z"/><path class="cls-2" d="M338.25,125c-12.1-21.92-32.69-34.37-51.38-38.79,3.71-13.37,8.28-30.81,9.16-38.74,1.53-13.77,4.21-24.2-3.06-29.41s-13.21-3-14.84,0S268,72.19,268,77.34a56.53,56.53,0,0,1-.65,6.71c-4.24-.07-8.63.07-13.08.41a58,58,0,0,1-.7-7.12c0-5.15-8.47-56.27-10.1-59.25s-7.56-5.21-14.83,0-4.6,15.64-3.07,29.41c.91,8.12,5.66,26.17,9.41,39.65a138.79,138.79,0,0,0-22.34,6.36c-20.64,7.94-40,38-40.79,52.61s-9.94,54.36,25,83.4c0,0,10.08,10.42,24.25,13.89s67.64,6.46,86-4,30.58-20.35,36.06-40.45S351.68,149.35,338.25,125Z"/><path class="cls-4" d="M337.44,120.16c-12.1-21.92-32.69-34.36-51.38-38.79,3.71-13.36,8.28-30.8,9.16-38.74,1.53-13.77,4.21-24.19-3.06-29.41s-13.21-3-14.84,0-10.14,54.1-10.1,59.26a54.14,54.14,0,0,1-.64,6.7c-4.24-.07-8.63.07-13.09.41a59.89,59.89,0,0,1-.69-7.11c0-5.16-8.47-56.28-10.1-59.26s-7.56-5.21-14.84,0-4.59,15.64-3.06,29.41c.9,8.12,5.66,26.17,9.41,39.65a140.25,140.25,0,0,0-22.35,6.36c-20.64,7.94-40,38-40.78,52.62s-9.94,54.35,25,83.39c0,0,10.07,10.42,24.25,13.9s67.64,6.45,86-4,30.58-20.36,36.05-40.46S350.87,144.48,337.44,120.16Z"/><ellipse class="cls-2" cx="200.55" cy="166.01" rx="9.03" ry="4.52"/><ellipse class="cls-2" cx="276.74" cy="166.01" rx="9.03" ry="4.52"/><path class="cls-2" d="M208.34,169.73s-4.86,5.05-2.14,9.36,7.89,6.93,15,7.86,31.3,2.06,38.92-1.31,12-10.86,8.71-15.91-19.33-11.23-29.94-10.67S213.79,163.74,208.34,169.73Z"/><path class="cls-5" d="M200.74,142.4a9,9,0,1,0,9,9A9,9,0,0,0,200.74,142.4Z"/><path class="cls-5" d="M276.25,142.4a9,9,0,1,0,9,9A9,9,0,0,0,276.25,142.4Z"/><ellipse class="cls-3" cx="198.86" cy="165.16" rx="9.03" ry="4.52"/><ellipse class="cls-3" cx="275.05" cy="165.16" rx="9.03" ry="4.52"/><path class="cls-3" d="M206.65,168.88s-4.86,5.06-2.14,9.37,7.89,6.92,15,7.86,31.3,2.06,38.92-1.31,12-10.86,8.71-15.92-19.33-11.23-29.94-10.67S212.09,162.89,206.65,168.88Z"/><path class="cls-3" d="M199.05,141.56a9,9,0,1,0,9,9A9,9,0,0,0,199.05,141.56Z"/><path class="cls-3" d="M274.56,141.56a9,9,0,1,0,9,9A9,9,0,0,0,274.56,141.56Z"/><path class="cls-4" d="M308.21,322.63c-.84-2.18-.18-3.69,1-4.49a9.07,9.07,0,0,0,2.4-2c.39-.57,0-2-.71-3.19-.49-.78-2.33-4-3.71-5.92-3.62-7.05-7.44-15.64-10.37-23-4.44-11.12-7.4-33.55-2.22-41.5a29.53,29.53,0,0,1,3.7-3.7s3.71,6.66,12.6,23c10.79,19.78,18.81,34.25,21.49,47.42s1.54,15.67.15,17.58-5.61,6-8.38,6-5.33-3.25-6.36-5.41-2.08-4.7-2.08-4.7-2.51,1.66-3.37,1.7S309.06,324.8,308.21,322.63Z"/><path class="cls-4" d="M297.49,313.1c-5.68-10.55-17-8.65-21.49-8.52-9.63.28-9.45,12.6-10.07,19.35a2.34,2.34,0,0,1,.06.49c0,1.29-1,34.79-.55,38s-.61,2.36-2.07,3.08a22.15,22.15,0,0,0-9.64,11.17c-2.81,7,7,7.54,7.73,7.77s21.66.23,24.46-.71,9.44-3.41,10.2-8.85,2.38-34.61,2.38-34.61S300.23,318.2,297.49,313.1Z"/><path class="cls-5" d="M257.59,174c-1.35.41-9.5,1.49-11.36.1s-4-4.93-4.67-8.22a5.15,5.15,0,0,0,2.8-1.46c1.9-2.07,3.21-7.54,2-9.22S232,152,232.53,157.81c0,0,0,4.32,2.78,6.58a7.4,7.4,0,0,0,3.65,1.54c-.67,3.27-2.77,6.75-4.65,8.14s-10,.31-11.35-.1a1.09,1.09,0,0,0-1.22,1.77c.47.44,4.55,1.17,8.28,1.17,2.32,0,4.49-.28,5.59-1.09a16.17,16.17,0,0,0,4.66-6.71,16.17,16.17,0,0,0,4.66,6.71c1.1.81,3.27,1.09,5.59,1.09,3.73,0,7.81-.73,8.28-1.17a1.08,1.08,0,0,0-1.21-1.77Z"/><path class="cls-6" d="M255.9,173.12c-1.35.42-9.5,1.49-11.36.11s-4-4.93-4.67-8.22a5.23,5.23,0,0,0,2.8-1.47c1.9-2.07,3.21-7.54,2-9.22s-14.45-3.19-13.87,2.64c0,0,0,4.33,2.78,6.58a7.38,7.38,0,0,0,3.65,1.55c-.68,3.26-2.77,6.74-4.65,8.14s-10,.31-11.36-.11a1.08,1.08,0,0,0-1.21,1.77c.47.44,4.55,1.18,8.28,1.18,2.32,0,4.49-.29,5.59-1.1a16.13,16.13,0,0,0,4.66-6.7,16.13,16.13,0,0,0,4.66,6.7c1.09.81,3.27,1.1,5.59,1.1,3.73,0,7.81-.74,8.28-1.18a1.09,1.09,0,0,0-1.21-1.77Z"/><path class="cls-2" d="M213,304.17s7.29,9.16,18.23,10.86,23.59-2.27,27.48-10.86,7.05-33.88-8-43.85-29.67-2.92-32.34,0S208.87,271,209.11,282,210.57,299.14,213,304.17Z"/><path class="cls-3" d="M210.46,304.17s7.3,9.16,18.24,10.86,23.58-2.27,27.47-10.86,7.05-33.88-8-43.85-29.66-2.92-32.34,0S206.33,271,206.57,282,208,299.14,210.46,304.17Z"/><path class="cls-4" d="M191.12,389.19s-12.68-13.43-5.92-17.52,45.25-4.38,74-4.38,63.43,5.26,71,11.1-1.69,8.17-1.69,8.17,1.69,5.26-2.54,7.59-10.15,2.34-10.15,2.34,7.61,161.75,8.46,164.08,4.23,2.92,4.23,2.92l-148-1.17s9.31-5.25,10.15-12.84S191.12,389.19,191.12,389.19Z"/><path class="cls-2" d="M186.47,379s60.05-4.67,83.73-3.5,48.2,2.92,53.27,6.42S326,385.4,326,385.4s-7.61-8.76-66-8.18-72.73,2.92-72.73,2.92Z"/><path class="cls-2" d="M191.55,384.23s0,.58,1.69.58,93-2.33,105.71,0,23.68,2.92,22,5.84,1.69,2.92,2.53,1.17,5.92-1.17.85-3.5-40.59-9.93-109.94-6.43C214.38,381.89,183.09,381.89,191.55,384.23Z"/><path class="cls-2" d="M244.82,393s49.9,1.75,55.82,4.67,10.15,4.09,10.15,6.42.84,29.78.84,29.78,4.23-36.2,0-37.95-39.74-5.84-67.65-3.51S244.82,393,244.82,393Z"/><path class="cls-2" d="M195.78,542.47c.8,1.66,30.44,0,37.21,2.92s5.92,12.26,3.38,12.85-42.29,1.75-44.82,2.33,122.62.59,126,.59,3.39.58,2.54-4.67.85-14.6-.84-16.94-93.88-2.92-104.87-2.33-15.22-1.17-18.6,0,21.14,1.75,27.9,2.33,12.69,0,8.46,1.17S194.93,540.72,195.78,542.47Z"/><path class="cls-2" d="M73.27,617a1.68,1.68,0,0,0-.49-2.18,4.55,4.55,0,0,1-1.17-1c-.19-.27,0-1,.34-1.55.24-.38,1.14-1.94,1.81-2.89,1.77-3.43,3.63-7.62,5.06-11.2C81,592.79,82.43,581.85,79.9,578a13.58,13.58,0,0,0-1.8-1.81s-1.81,3.25-6.15,11.2c-5.26,9.64-9.16,16.7-10.47,23.12s-.75,7.64-.08,8.57,2.74,2.93,4.09,2.9,2.6-1.58,3.1-2.64S70,616.63,70,616.63a2.06,2.06,0,0,0,1.28,1.23C71.67,617.88,72.86,618.06,73.27,617Z"/><path class="cls-2" d="M77.38,630.54s1,.43.9-.62.66-18.84.66-18.84a2.39,2.39,0,0,1,1.69-1.86c3.32-.83,3.94-.74,6.31.13,3.85,1.41,7.33,4.24,7.78,8.54,0,0-.27,1.8-.27,1.82,0,.45-1.27,16.35-1.39,16.89a6.09,6.09,0,0,1-4.11,4c-3,1-13-1.72-13-1.72s-2.5-1.21-2.53-2.89a7.75,7.75,0,0,1,1.81-4.69A1.9,1.9,0,0,1,77.38,630.54Z"/><path class="cls-2" d="M119.78,604.05c-2.76-5.14-8.29-4.22-10.47-4.15-4.7.13-4.61,6.14-4.91,9.43a1.57,1.57,0,0,1,0,.24c0,.63-.5,17-.27,18.54s-1.93-.64-3.3,2.79,1.8,6.39,2.16,6.5,9.76,1.56,11.12,1.1,4.6-1.67,5-4.32,1.16-16.87,1.16-16.87S121.12,606.54,119.78,604.05Z"/><path class="cls-2" d="M78.76,615.59c-3.85-5.31-4.45-10.16-5.54-25.33a10.28,10.28,0,0,1,.37-4.7c.42-1.77,2.65-5.25,3.25-6.5,1.7-3.57,2.46-5.42,2.46-5.42h39.29l2,3.25c1.46,2.45,1.82,3.15,2.52,4.34a9.5,9.5,0,0,1,1.45,2.89c.72,4.69.27,9,.36,12.64.36,14.09-4.33,19.11-4.7,19.51,0,0-5.74,4.84-8.69,6.16-2.26,1-6.88,1.3-7.62,1.32s-9.11-.09-9.11-.09-6.87-.74-9.64-2.27A18.76,18.76,0,0,1,78.76,615.59Z"/><path class="cls-2" d="M125,616.64a1.68,1.68,0,0,1,.49-2.18,4.55,4.55,0,0,0,1.17-1c.19-.28,0-1-.34-1.55-.24-.38-1.14-1.94-1.81-2.89-1.77-3.44-3.63-7.62-5.06-11.2-2.17-5.41-3.61-16.35-1.08-20.23a14,14,0,0,1,1.8-1.8s1.81,3.25,6.15,11.2c5.26,9.64,9.16,16.7,10.47,23.12s.75,7.63.08,8.57-2.74,2.92-4.09,2.9-2.6-1.58-3.1-2.64-1-2.29-1-2.29a6.43,6.43,0,0,1-1.64.83C126.61,617.52,125.42,617.7,125,616.64Z"/><path class="cls-2" d="M70.36,569.19a27.63,27.63,0,0,0,11.89,7c7,1.75,33.18,3.25,42.2-2s15-10.26,17.69-20.4,4.15-25-2.44-37.31a39.28,39.28,0,0,0-28.18-20.15c-9.88-1.5-23.3.25-33.42,4.25s-19.64,19.16-20,26.54S53.22,554.54,70.36,569.19Z"/><path class="cls-5" d="M76,512.21s-20.51,52.36-26.9,42.92,6.86-38.37,12-42.92S87.1,487,76,512.21Z"/><path class="cls-5" d="M125.63,512.21s20.51,52.36,26.9,42.92-6.86-38.37-12-42.92S114.49,487,125.63,512.21Z"/><path class="cls-2" d="M59.37,640s-8.11-4.66-3.79-6.07,29-1.52,47.34-1.52,40.58,1.82,45.45,3.85-1.08,2.83-1.08,2.83,1.08,1.83-1.63,2.64a27.4,27.4,0,0,1-6.49.81s4.87,56.12,5.41,56.93,2.71,1,2.71,1l-94.68-.4s6-1.83,6.49-4.46S59.37,640,59.37,640Z"/><path class="cls-5" d="M56.4,636.47s38.41-1.62,53.56-1.22,30.84,1,34.08,2.23,1.62,1.22,1.62,1.22-4.86-3-42.2-2.84-46.52,1-46.52,1Z"/><path class="cls-5" d="M59.64,638.29s0,.2,1.08.2,59.52-.81,67.63,0,15.15,1,14.07,2,1.08,1,1.62.41,3.79-.41.54-1.22-26-3.44-70.33-2.23C74.25,637.48,54.23,637.48,59.64,638.29Z"/><path class="cls-5" d="M93.73,641.33s31.92.61,35.7,1.62,6.5,1.42,6.5,2.23.54,10.33.54,10.33,2.7-12.56,0-13.17-25.43-2-43.28-1.21S93.73,641.33,93.73,641.33Z"/><path class="cls-5" d="M62.35,693.2c.51.58,19.47,0,23.8,1s3.79,4.26,2.17,4.46-27.06.61-28.68.81,78.45.2,80.61.2,2.17.21,1.63-1.62.54-5.06-.54-5.87-60.06-1-67.09-.81-9.74-.41-11.9,0,13.52.6,17.85.81,8.12,0,5.41.4S61.81,692.59,62.35,693.2Z"/><path class="cls-5" d="M62.58,643.83V687c0,2.54,33,1.69,36.36,1.69s-11-.84-13.53-3.38-6.76-39.75-5.92-40.59S83.72,643,83.72,643,68.5,639.6,62.58,643.83Z"/><path class="cls-4" d="M110.36,547.85S211,547,266,546.16s115.86,3.38,123.47,6.76,10.14,11.84,6.76,17.76-7.19,19.87-11.41,22.41-11,22.83-4.23,24.53,21.14,22.83,22.83,27.06.85,33.83.85,33.83,16.06,3.38,18.6,5.92.85,15.22.85,15.22h11s2.54,1.69,2.54,4.23V709s16.07.85,18.6,2.54,1.69,3.38,1.69,3.38,16.92,2.54,17.76,3.38,0,5.08,0,5.08,10.15,0,11.84,3.38,0,5.07,0,5.07l-324.74,1.69L0,725.86s0-8.45,2.54-9.3,12.68,0,12.68,0v-4.23s0-1.69,2.54-1.69h7.61v-4.23s0-.84,1.69-.84H37.21v-5.08s.85-2.53,2.54-1.69S64.27,698,64.27,698s1.69-6.77,2.54-6.77,8.46-.85,8.46-.85l.84-5.91,34.67-1.7.85-98.94s-5.92.84-7.61-.85.84-3.38,3.38-3.38a18.39,18.39,0,0,0,5.08-.85l-.85-10.14s-4.23.84-4.23-2.54-2.54-5.92-3.38-7.61,0-5.92,2.54-5.08S107.4,547.42,110.36,547.85Z"/><path class="cls-5" d="M109.09,558.42s9.31,1.69,19.45,2.54,55.82-2.54,57.51-2.54,3.38-1.69,4.23.84S118.4,565.18,116.7,566s-6.76,1.69-.84,3.38,72.73-5.92,75.26-4.23,3.39,6.77.85,10.15-69.35,7.61-72.73,7.61-8.46-1.69-5.07.85,71.88,0,75.26,0,4.23,91.33,2.54,93.87,205.5,6.77,207.19,2.54,3.38-32.14-4.23-38.9-19.45-21.15-21.14-24.53,2.54-25.37,5.92-27.91,5.92-11,8.46-15.22,6.76-11,1.69-14.38-141.23-7.61-154.76-8.45-45.67-2.54-46.51-.85-1.69,5.08-10.15,5.92S109.09,555.88,109.09,558.42Z"/><path class="cls-5" d="M155.61,690.34s.84,10.15,1.69,10.15,22,0,22.83,2.54-.85,9.3-.85,9.3-11-.84-10.14,0,.84,8.46.84,8.46h-9.3v11L482,729.25a14.46,14.46,0,0,0-5.92-3.39c-3.38-.84-3.38-5.92-3.38-5.92s-15.23-4.22-16.92-4.22.85-2.54-3.38-3.39-16.91-1.69-16.91-1.69.84-7.61-1.7-8.46-14.37-.84-14.37-.84,4.23-8.46,1.69-11.84S405.08,681,403.39,681,230,683.58,214.8,682.73,188.59,681,188.59,681l-71-1.69-3.38,3.38-4.23,1.7s-34.67,1.69-31.29,1.69S155.61,690.34,155.61,690.34Z"/><path class="cls-2" d="M410.49,629.6a1.79,1.79,0,0,1,.52-2.31,4.79,4.79,0,0,0,1.24-1c.2-.3,0-1-.37-1.64-.25-.41-1.2-2.06-1.91-3.06-1.86-3.63-3.83-8.06-5.34-11.83-2.29-5.73-3.82-17.29-1.15-21.38a15,15,0,0,1,1.91-1.91s1.91,3.44,6.49,11.83c5.56,10.2,9.69,17.66,11.07,24.44s.8,8.07.08,9.06-2.89,3.09-4.32,3.07-2.74-1.68-3.27-2.79S414,629.2,414,629.2a2.22,2.22,0,0,1-1.35,1.31C412.19,630.53,410.93,630.72,410.49,629.6Z"/><path class="cls-2" d="M405.33,645.53a3.63,3.63,0,0,1-.14-1.52c.05-1.12-.69-19.91-.69-19.91a2.53,2.53,0,0,0-1.79-2c-3.51-.88-4.16-.79-6.67.13-4.07,1.49-7.75,4.48-8.22,9,0,0,.29,1.9.29,1.92,0,.48,1.34,17.28,1.47,17.85a6.46,6.46,0,0,0,4.34,4.19c3.2,1,13.94.44,13.94.44s3.36-.92,3.39-2.69a4.72,4.72,0,0,0-1.21-3.8A31.6,31.6,0,0,0,405.33,645.53Z"/><path class="cls-2" d="M361.33,625.07c2.93-5.44,8.76-4.46,11.08-4.39,5,.14,4.86,6.49,5.19,10a.93.93,0,0,0,0,.25c0,.67.53,17.93.29,19.6s.31,1.21,1.06,1.58a11.41,11.41,0,0,1,5,5.76c1.45,3.62-3.6,3.89-4,4s-11.16.12-12.61-.36-4.86-1.76-5.25-4.56-1.23-17.83-1.23-17.83S359.92,627.7,361.33,625.07Z"/><path class="cls-2" d="M404.69,628.87c4.06-5.62,4.71-10.74,5.85-26.78a11,11,0,0,0-.38-5c-.45-1.87-2.81-5.55-3.44-6.87-1.8-3.78-2.6-5.73-2.6-5.73H362.59L360.53,588c-1.56,2.58-1.93,3.32-2.68,4.58a10.09,10.09,0,0,0-1.52,3.05c-.77,5-.29,9.58-.38,13.36-.39,14.89,4.58,20.21,5,20.62,0,0,6.07,5.13,9.19,6.51,2.38,1.06,7.27,1.38,8,1.4s9.63-.09,9.63-.09S395,636.61,398,635A19.89,19.89,0,0,0,404.69,628.87Z"/><path class="cls-2" d="M355.72,630a1.67,1.67,0,0,0-.62-2.32,5.38,5.38,0,0,1-1.42-1c-.24-.3,0-1,.4-1.64.29-.41,1.37-2,2.18-3,2.11-3.62,4.34-8,6.05-11.8,2.59-5.72,4.26-17.27,1.16-21.38a16.72,16.72,0,0,0-2.21-1.93s-2.17,3.43-7.37,11.79c-6.32,10.16-11,17.59-12.55,24.37s-.85,8.07,0,9.06,3.35,3.11,5,3.1,3.14-1.65,3.74-2.77,1.22-2.41,1.22-2.41a8.26,8.26,0,0,0,2,.89C353.78,630.94,355.22,631.13,355.72,630Z"/><path class="cls-4" d="M355.43,629.21a1.79,1.79,0,0,0-.52-2.31,4.8,4.8,0,0,1-1.24-1c-.2-.3,0-1,.37-1.64.25-.41,1.19-2.06,1.91-3.06,1.86-3.63,3.83-8.06,5.34-11.83,2.29-5.73,3.81-17.29,1.15-21.38a15,15,0,0,0-1.91-1.91s-1.91,3.43-6.49,11.83c-5.56,10.2-9.69,17.65-11.08,24.44s-.79,8.07-.08,9.06,2.9,3.09,4.33,3.07,2.74-1.68,3.27-2.79,1.07-2.42,1.07-2.42a6.74,6.74,0,0,0,1.74.87C353.73,630.15,355,630.33,355.43,629.21Z"/><path class="cls-2" d="M422.55,524.22a42.88,42.88,0,0,0-2.42-4c0-.4,0-.82,0-1.17a21.14,21.14,0,0,0-.14-2.39,2,2,0,0,0,.14-.68,96.3,96.3,0,0,0-1.58-21,2,2,0,0,0-.06-.23,2.31,2.31,0,0,0-1.59-2.33c-1.51-.51-3.22.5-4.27,1.5l-.22.21a19,19,0,0,0-2.11,1.19,12.63,12.63,0,0,0-2.77,2.69c-2.62,1.75-6.73,4.63-8.81,6.1a37.58,37.58,0,0,0-6.39-1.56c-7.66-1.17-17.3-.5-26.16,1.58-2.73-1.93-9-6.34-10.79-7.37a11,11,0,0,0-1.28-1,18,18,0,0,0-2.1-1.19l-.22-.21c-1.05-1-2.76-2-4.27-1.5a2.33,2.33,0,0,0-1.6,2.34,1.42,1.42,0,0,0-.05.22,95.72,95.72,0,0,0-1.58,21,2.52,2.52,0,0,0,.06.41c-5.28,6.35-9,14-9.26,18.77-.39,7.91-5.22,29.36,13.14,45A29.52,29.52,0,0,0,361,588.17c7.45,1.88,35.55,3.49,45.22-2.14s16.08-11,19-21.86S429.61,537.36,422.55,524.22Z"/><path class="cls-4" d="M424.13,523.13a43.33,43.33,0,0,0-2.39-3.91,11.41,11.41,0,0,0,0-1.16,18.57,18.57,0,0,0-.13-2.36,2.28,2.28,0,0,0,.13-.67,95,95,0,0,0-1.56-20.75,1.89,1.89,0,0,0-.05-.23,2.29,2.29,0,0,0-1.58-2.3c-1.49-.51-3.19.49-4.23,1.48l-.22.21a19.38,19.38,0,0,0-2.08,1.17,12.85,12.85,0,0,0-2.74,2.67c-2.6,1.73-6.66,4.58-8.72,6a38.45,38.45,0,0,0-6.32-1.54c-7.58-1.15-17.12-.49-25.88,1.57-2.7-1.91-8.94-6.28-10.68-7.3a10.65,10.65,0,0,0-1.26-1,18.46,18.46,0,0,0-2.08-1.17l-.22-.22c-1-1-2.73-2-4.22-1.47a2.27,2.27,0,0,0-1.58,2.3l-.06.23a95,95,0,0,0-1.56,20.75,2.52,2.52,0,0,0,.06.41c-5.23,6.28-8.92,13.89-9.16,18.57-.38,7.83-5.17,29.06,13,44.59a29.25,29.25,0,0,0,12.61,7.43c7.37,1.86,35.17,3.45,44.74-2.12s15.9-10.88,18.75-21.63S431.11,536.14,424.13,523.13Z"/><path class="cls-7" d="M407.26,551.2s2.51,2.6,1.11,4.82-4.07,3.57-7.71,4.05-16.13,1.06-20.06-.67-6.17-5.6-4.48-8.2,9.95-5.79,15.42-5.5S404.46,548.11,407.26,551.2Z"/><path class="cls-8" d="M396.71,545a4.85,4.85,0,0,1-1.43,3.39,3.66,3.66,0,0,1-4.66,0c-1-1.07-1.66-3.89-1.06-4.76S397,542,396.71,545Z"/><path class="cls-8" d="M383.15,553.44a.57.57,0,0,1,.65-.12c.69.22,4.89.77,5.85.06a7.75,7.75,0,0,0,2.51-5.14.43.43,0,0,1,0,0,.07.07,0,0,1,0-.05s0,0,0-.06l0-.05,0,0,0,0,0-.05,0,0,0,0,0,0,0,0,.05,0h.05l.06,0h.23l.05,0h.05l.05,0,.05,0,0,0,0,0,0,0,0,.05,0,0,0,0a.09.09,0,0,1,0,.05.14.14,0,0,1,0,.06.43.43,0,0,1,0,.05v0a7.75,7.75,0,0,0,2.51,5.14c1,.71,5.16.16,5.85-.06a.58.58,0,0,1,.66.12.57.57,0,0,1,0,.8,12.72,12.72,0,0,1-4.27.6,5.34,5.34,0,0,1-2.87-.57,8.3,8.3,0,0,1-2.41-3.45,8.2,8.2,0,0,1-2.4,3.45,5.36,5.36,0,0,1-2.88.57,12.64,12.64,0,0,1-4.26-.6A.57.57,0,0,1,383.15,553.44Z"/><path class="cls-9" d="M397.09,544.23a4.84,4.84,0,0,1-1.43,3.39,3.64,3.64,0,0,1-4.66,0c-1-1.06-1.66-3.88-1.06-4.75S397.39,541.23,397.09,544.23Z"/><path class="cls-9" d="M383.53,552.68a.55.55,0,0,1,.65-.12c.7.21,4.9.77,5.85.05a7.69,7.69,0,0,0,2.52-5.14v0a.13.13,0,0,1,0-.06s0,0,0,0,0,0,0-.05l0,0s0,0,0-.05l0,0,0,0,0,0,0,0,0,0,0,0,.06,0h.33l.06,0,0,0,.05,0,0,0,0,0,0,0,0,0s0,0,0,.05l0,0s0,0,0,.05,0,0,0,0a.13.13,0,0,1,0,.06v0a7.69,7.69,0,0,0,2.52,5.14c.95.72,5.15.16,5.85-.05a.56.56,0,0,1,.62.91,12.29,12.29,0,0,1-4.26.61,5.36,5.36,0,0,1-2.88-.57,8.3,8.3,0,0,1-2.41-3.45,8.2,8.2,0,0,1-2.4,3.45,5.36,5.36,0,0,1-2.88.57,12.29,12.29,0,0,1-4.26-.61A.56.56,0,0,1,383.53,552.68Z"/><circle class="cls-2" cx="371.88" cy="538.28" r="9.61"/><circle class="cls-8" cx="371.88" cy="538.28" r="6.05"/><path class="cls-8" d="M357.4,528.71s.76,3,2.29,2.67,14.5-5.35,15.65-6.49-1.91-5-1.91-5-15.65,7.25-16,7.63S357.4,528.71,357.4,528.71Z"/><circle class="cls-2" cx="407.69" cy="538.28" r="9.61"/><circle class="cls-3" cx="372.26" cy="537.9" r="9.61"/><circle class="cls-3" cx="408.07" cy="537.9" r="9.61"/><circle class="cls-8" cx="407.69" cy="538.28" r="6.05"/><circle class="cls-9" cx="372.26" cy="537.9" r="6.05"/><circle class="cls-9" cx="408.07" cy="537.9" r="6.05"/><path class="cls-8" d="M422.17,528.71s-.76,3-2.29,2.67-14.51-5.35-15.66-6.49,1.91-5,1.91-5,15.66,7.25,16,7.63S422.17,528.71,422.17,528.71Z"/><path class="cls-9" d="M357.4,527.94s.76,3.06,2.29,2.68,14.5-5.35,15.65-6.49-1.91-5-1.91-5-15.65,7.26-16,7.64S357.4,527.94,357.4,527.94Z"/><path class="cls-9" d="M422.17,527.94s-.76,3.06-2.29,2.68-14.51-5.35-15.66-6.49,1.91-5,1.91-5,15.66,7.26,16,7.64S422.17,527.94,422.17,527.94Z"/><path class="cls-5" d="M383.25,621.51s3.3,4.13,8.24,4.9,10.64-1,12.4-4.9,3.18-15.3-3.62-19.8-13.39-1.31-14.6,0-4.28,4.83-4.17,9.77S382.16,619.24,383.25,621.51Z"/><path class="cls-4" d="M384,620.74s3.29,4.14,8.23,4.91,10.65-1,12.4-4.91S407.84,605.45,401,601s-13.39-1.32-14.6,0-4.28,4.83-4.17,9.77S382.92,618.48,384,620.74Z"/><path class="cls-2" d="M331.1,655.42s-9.45-5.43-4.41-7.08,33.72-1.77,55.14-1.77,47.27,2.12,52.94,4.48-1.26,3.31-1.26,3.31,1.26,2.12-1.89,3.06a31.73,31.73,0,0,1-7.56,1s5.67,65.37,6.3,66.31,3.15,1.18,3.15,1.18l-110.28-.47s6.93-2.12,7.56-5.19S331.1,655.42,331.1,655.42Z"/><path class="cls-5" d="M327.64,651.29s44.74-1.89,62.39-1.42,35.92,1.18,39.7,2.6,1.89,1.41,1.89,1.41-5.67-3.54-49.16-3.3-54.19,1.18-54.19,1.18Z"/><path class="cls-5" d="M331.42,653.41s0,.24,1.26.24,69.32-.95,78.77,0,17.65,1.18,16.39,2.36,1.26,1.18,1.89.47,4.41-.47.63-1.42-30.25-4-81.93-2.59C348.43,652.47,325.12,652.47,331.42,653.41Z"/><path class="cls-5" d="M371.12,657s37.18.71,41.59,1.89,7.56,1.65,7.56,2.6.63,12,.63,12,3.16-14.63,0-15.34-29.61-2.36-50.41-1.41S371.12,657,371.12,657Z"/><path class="cls-5" d="M334.57,717.37c.6.67,22.69,0,27.73,1.18s4.41,5,2.52,5.19-31.51.71-33.4.94,91.37.24,93.9.24,2.52.24,1.89-1.89.63-5.9-.63-6.84-69.95-1.18-78.15-1-11.34-.47-13.86,0,15.75.71,20.8,1,9.45,0,6.3.47S333.94,716.66,334.57,717.37Z"/><path class="cls-5" d="M357.5,657.9l-23.64,1s-1,51.22,0,52.21S414.63,715,420.54,714s-35.46-3.94-46.3-20.68A166.86,166.86,0,0,1,357.5,657.9Z"/><path class="cls-10" d="M257.44,0c-45.29,0-82,16.57-82,37s36.71,37,82,37,82-16.57,82-37S302.73,0,257.44,0Zm0,67.75c-40.09,0-72.58-14.66-72.58-32.75S217.35,2.25,257.44,2.25,330,16.91,330,35,297.52,67.75,257.44,67.75Z"/></g></g></svg>