<svg xmlns="http://www.w3.org/2000/svg" viewBox="0 0 117.39 121.39"><defs><style>.cls-1{fill:#eef2ef;}.cls-2{fill:#ee7395;}</style></defs><title>資產 17</title><g id="圖層_2" data-name="圖層 2"><g id="圖層_1-2" data-name="圖層 1"><path class="cls-1" d="M6.3,89.28s10.33,20.64,33.55,28.38,51.61,2.58,61.93-7.74,20.65-31,12.9-72.25S54-4.91,38.56,5.41,5,31.22,2.43,41.54-2.73,75.09,6.3,89.28Z"/><path class="cls-2" d="M92.93,45.22a34.15,34.15,0,0,0-5.23-7.29c.56-3.8,1.76-12.65,1.14-14.07-.79-1.81-4.82-2.21-6.57-1.21-1.36.79-6.62,4.47-8.91,6.09a31.47,31.47,0,0,0-5.26-1.29,60,60,0,0,0-21.51,1.31c-2.28-1.61-7.58-5.32-8.94-6.11-1.75-1-5.78-.6-6.57,1.21-.52,1.18.23,7.54.82,11.83-6,5.55-10.65,14.09-10.89,18.9-.32,6.51-4.3,24.16,10.81,37.07A24.3,24.3,0,0,0,42.3,97.84c6.13,1.54,29.24,2.87,37.2-1.77s13.22-9,15.58-18S98.74,56,92.93,45.22Z"/></g></g></svg>