<svg xmlns="http://www.w3.org/2000/svg" viewBox="0 0 117.39 121.39"><defs><style>.cls-1{fill:#eef2ef;}.cls-2{fill:#ee7395;}</style></defs><title>資產 18</title><g id="圖層_2" data-name="圖層 2"><g id="圖層_1-2" data-name="圖層 1"><path class="cls-1" d="M6.3,89.28s10.33,20.64,33.55,28.38,51.61,2.58,61.93-7.74,20.65-31,12.9-72.25S54-4.91,38.56,5.41,5,31.22,2.43,41.54-2.73,75.09,6.3,89.28Z"/><path class="cls-2" d="M92.93,53A34.61,34.61,0,0,0,68.16,35.25a24.71,24.71,0,0,0,.49-14.95c-.66-2.48-4-6.29-5.36-6-1.24.3-3.55,17.12-4,20.47-1.29,0-2.6.14-3.92.27-.35-2.58-2.76-20.43-4-20.74s-4.69,3.48-5.35,6-2.17,9.26,1,16.16A58,58,0,0,0,38.65,39C29.72,42.52,21.34,55.87,21,62.38s-4.3,24.17,10.81,37.08a24.23,24.23,0,0,0,10.48,6.17c6.13,1.55,29.24,2.87,37.2-1.76s13.22-9.05,15.58-18S98.74,63.82,92.93,53Z"/></g></g></svg>